solid tunner_wall
 facet normal -0.999048 -0.043614 0
  outer loop
   vertex 0.01 -0.07 -1
   vertex 0.01 -0.07 1
   vertex 0.00996195 -0.0691284 -1
  endloop
 endfacet
 facet normal -0.999048 -0.043614 0
  outer loop
   vertex 0.00996195 -0.0691284 -1
   vertex 0.01 -0.07 1
   vertex 0.00996195 -0.0691284 1
  endloop
 endfacet
 facet normal -0.991444 -0.130531 0
  outer loop
   vertex 0.00996195 -0.0691284 -1
   vertex 0.00996195 -0.0691284 1
   vertex 0.00984808 -0.0682635 -1
  endloop
 endfacet
 facet normal -0.991444 -0.130531 0
  outer loop
   vertex 0.00984808 -0.0682635 -1
   vertex 0.00996195 -0.0691284 1
   vertex 0.00984808 -0.0682635 1
  endloop
 endfacet
 facet normal -0.976295 -0.216442 0
  outer loop
   vertex 0.00984808 -0.0682635 -1
   vertex 0.00984808 -0.0682635 1
   vertex 0.00965926 -0.0674118 -1
  endloop
 endfacet
 facet normal -0.976295 -0.216442 0
  outer loop
   vertex 0.00965926 -0.0674118 -1
   vertex 0.00984808 -0.0682635 1
   vertex 0.00965926 -0.0674118 1
  endloop
 endfacet
 facet normal -0.953716 -0.300708 0
  outer loop
   vertex 0.00965926 -0.0674118 -1
   vertex 0.00965926 -0.0674118 1
   vertex 0.00939693 -0.0665798 -1
  endloop
 endfacet
 facet normal -0.953716 -0.300708 0
  outer loop
   vertex 0.00939693 -0.0665798 -1
   vertex 0.00965926 -0.0674118 1
   vertex 0.00939693 -0.0665798 1
  endloop
 endfacet
 facet normal -0.923883 -0.382676 0
  outer loop
   vertex 0.00939693 -0.0665798 -1
   vertex 0.00939693 -0.0665798 1
   vertex 0.00906308 -0.0657738 -1
  endloop
 endfacet
 facet normal -0.923883 -0.382676 0
  outer loop
   vertex 0.00906308 -0.0657738 -1
   vertex 0.00939693 -0.0665798 1
   vertex 0.00906308 -0.0657738 1
  endloop
 endfacet
 facet normal -0.887004 -0.461762 0
  outer loop
   vertex 0.00906308 -0.0657738 -1
   vertex 0.00906308 -0.0657738 1
   vertex 0.00866025 -0.065 -1
  endloop
 endfacet
 facet normal -0.887004 -0.461762 0
  outer loop
   vertex 0.00866025 -0.065 -1
   vertex 0.00906308 -0.0657738 1
   vertex 0.00866025 -0.065 1
  endloop
 endfacet
 facet normal -0.843404 -0.537281 0
  outer loop
   vertex 0.00866025 -0.065 -1
   vertex 0.00866025 -0.065 1
   vertex 0.00819152 -0.0642642 -1
  endloop
 endfacet
 facet normal -0.843404 -0.537281 0
  outer loop
   vertex 0.00819152 -0.0642642 -1
   vertex 0.00866025 -0.065 1
   vertex 0.00819152 -0.0642642 1
  endloop
 endfacet
 facet normal -0.793346 -0.608771 0
  outer loop
   vertex 0.00819152 -0.0642642 -1
   vertex 0.00819152 -0.0642642 1
   vertex 0.00766044 -0.0635721 -1
  endloop
 endfacet
 facet normal -0.793346 -0.608771 0
  outer loop
   vertex 0.00766044 -0.0635721 -1
   vertex 0.00819152 -0.0642642 1
   vertex 0.00766044 -0.0635721 1
  endloop
 endfacet
 facet normal -0.737288 -0.675579 0
  outer loop
   vertex 0.00766044 -0.0635721 -1
   vertex 0.00766044 -0.0635721 1
   vertex 0.00707107 -0.0629289 -1
  endloop
 endfacet
 facet normal -0.737288 -0.675579 0
  outer loop
   vertex 0.00707107 -0.0629289 -1
   vertex 0.00766044 -0.0635721 1
   vertex 0.00707107 -0.0629289 1
  endloop
 endfacet
 facet normal -0.675543 -0.737321 0
  outer loop
   vertex 0.00707107 -0.0629289 -1
   vertex 0.00707107 -0.0629289 1
   vertex 0.00642788 -0.0623396 -1
  endloop
 endfacet
 facet normal -0.675543 -0.737321 0
  outer loop
   vertex 0.00642788 -0.0623396 -1
   vertex 0.00707107 -0.0629289 1
   vertex 0.00642788 -0.0623396 1
  endloop
 endfacet
 facet normal -0.608771 -0.793346 0
  outer loop
   vertex 0.00642788 -0.0623396 -1
   vertex 0.00642788 -0.0623396 1
   vertex 0.00573576 -0.0618085 -1
  endloop
 endfacet
 facet normal -0.608771 -0.793346 0
  outer loop
   vertex 0.00573576 -0.0618085 -1
   vertex 0.00642788 -0.0623396 1
   vertex 0.00573576 -0.0618085 1
  endloop
 endfacet
 facet normal -0.537275 -0.843407 0
  outer loop
   vertex 0.00573576 -0.0618085 -1
   vertex 0.00573576 -0.0618085 1
   vertex 0.005 -0.0613398 -1
  endloop
 endfacet
 facet normal -0.537275 -0.843407 0
  outer loop
   vertex 0.005 -0.0613398 -1
   vertex 0.00573576 -0.0618085 1
   vertex 0.005 -0.0613398 1
  endloop
 endfacet
 facet normal -0.461819 -0.886974 0
  outer loop
   vertex 0.005 -0.0613398 -1
   vertex 0.005 -0.0613398 1
   vertex 0.00422618 -0.0609369 -1
  endloop
 endfacet
 facet normal -0.461819 -0.886974 0
  outer loop
   vertex 0.00422618 -0.0609369 -1
   vertex 0.005 -0.0613398 1
   vertex 0.00422618 -0.0609369 1
  endloop
 endfacet
 facet normal -0.382634 -0.9239 0
  outer loop
   vertex 0.00422618 -0.0609369 -1
   vertex 0.00422618 -0.0609369 1
   vertex 0.0034202 -0.0606031 -1
  endloop
 endfacet
 facet normal -0.382634 -0.9239 0
  outer loop
   vertex 0.0034202 -0.0606031 -1
   vertex 0.00422618 -0.0609369 1
   vertex 0.0034202 -0.0606031 1
  endloop
 endfacet
 facet normal -0.300774 -0.953695 0
  outer loop
   vertex 0.0034202 -0.0606031 -1
   vertex 0.0034202 -0.0606031 1
   vertex 0.00258819 -0.0603407 -1
  endloop
 endfacet
 facet normal -0.300774 -0.953695 0
  outer loop
   vertex 0.00258819 -0.0603407 -1
   vertex 0.0034202 -0.0606031 1
   vertex 0.00258819 -0.0603407 1
  endloop
 endfacet
 facet normal -0.216422 -0.9763 0
  outer loop
   vertex 0.00258819 -0.0603407 -1
   vertex 0.00258819 -0.0603407 1
   vertex 0.00173648 -0.0601519 -1
  endloop
 endfacet
 facet normal -0.216422 -0.9763 0
  outer loop
   vertex 0.00173648 -0.0601519 -1
   vertex 0.00258819 -0.0603407 1
   vertex 0.00173648 -0.0601519 1
  endloop
 endfacet
 facet normal -0.130445 -0.991456 0
  outer loop
   vertex 0.00173648 -0.0601519 -1
   vertex 0.00173648 -0.0601519 1
   vertex 0.000871557 -0.0600381 -1
  endloop
 endfacet
 facet normal -0.130445 -0.991456 0
  outer loop
   vertex 0.000871557 -0.0600381 -1
   vertex 0.00173648 -0.0601519 1
   vertex 0.000871557 -0.0600381 1
  endloop
 endfacet
 facet normal -0.0436723 -0.999046 0
  outer loop
   vertex 0.000871557 -0.0600381 -1
   vertex 0.000871557 -0.0600381 1
   vertex 6.12323e-19 -0.06 -1
  endloop
 endfacet
 facet normal -0.0436723 -0.999046 0
  outer loop
   vertex 6.12323e-19 -0.06 -1
   vertex 0.000871557 -0.0600381 1
   vertex 6.12323e-19 -0.06 1
  endloop
 endfacet
 facet normal -0 0 1
  outer loop
   vertex -0.02 -0.05 1
   vertex -0.02 -0.06 1
   vertex 1.22465e-18 -0.05 1
  endloop
 endfacet
 facet normal 0 0 1
  outer loop
   vertex 1.22465e-18 -0.05 1
   vertex -0.02 -0.06 1
   vertex 6.12323e-19 -0.06 1
  endloop
 endfacet
 facet normal 0 0 1
  outer loop
   vertex 1.22465e-18 -0.05 1
   vertex 6.12323e-19 -0.06 1
   vertex 0.00125581 -0.0500395 1
  endloop
 endfacet
 facet normal 0 0 1
  outer loop
   vertex 0.00125581 -0.0500395 1
   vertex 6.12323e-19 -0.06 1
   vertex 0.000871557 -0.0600381 1
  endloop
 endfacet
 facet normal 0 0 1
  outer loop
   vertex 0.00125581 -0.0500395 1
   vertex 0.000871557 -0.0600381 1
   vertex 0.00250666 -0.0501577 1
  endloop
 endfacet
 facet normal 0 0 1
  outer loop
   vertex 0.00250666 -0.0501577 1
   vertex 0.000871557 -0.0600381 1
   vertex 0.00173648 -0.0601519 1
  endloop
 endfacet
 facet normal 0 0 1
  outer loop
   vertex 0.01 -0.09 1
   vertex 0.02 -0.09 1
   vertex 0.01 -0.07 1
  endloop
 endfacet
 facet normal -0 0 1
  outer loop
   vertex 0.01 -0.07 1
   vertex 0.02 -0.09 1
   vertex 0.02 -0.07 1
  endloop
 endfacet
 facet normal 0 -0 1
  outer loop
   vertex 0.01 -0.07 1
   vertex 0.02 -0.07 1
   vertex 0.00996195 -0.0691284 1
  endloop
 endfacet
 facet normal 0 -0 1
  outer loop
   vertex 0.00573576 -0.0618085 1
   vertex 0.0107165 -0.0531134 1
   vertex 0.005 -0.0613398 1
  endloop
 endfacet
 facet normal 0 0 1
  outer loop
   vertex 0.005 -0.0613398 1
   vertex 0.0107165 -0.0531134 1
   vertex 0.00963507 -0.0524739 1
  endloop
 endfacet
 facet normal 0 -0 1
  outer loop
   vertex 0.005 -0.0613398 1
   vertex 0.00963507 -0.0524739 1
   vertex 0.00422618 -0.0609369 1
  endloop
 endfacet
 facet normal 0 0 1
  outer loop
   vertex 0.00422618 -0.0609369 1
   vertex 0.00963507 -0.0524739 1
   vertex 0.00851559 -0.0519035 1
  endloop
 endfacet
 facet normal 0 -0 1
  outer loop
   vertex 0.00422618 -0.0609369 1
   vertex 0.00851559 -0.0519035 1
   vertex 0.0034202 -0.0606031 1
  endloop
 endfacet
 facet normal 0 -0 1
  outer loop
   vertex 0.00965926 -0.0674118 1
   vertex 0.0190211 -0.0638197 1
   vertex 0.00939693 -0.0665798 1
  endloop
 endfacet
 facet normal 0 0 1
  outer loop
   vertex 0.00939693 -0.0665798 1
   vertex 0.0190211 -0.0638197 1
   vertex 0.0185955 -0.0626375 1
  endloop
 endfacet
 facet normal 0 -0 1
  outer loop
   vertex 0.00939693 -0.0665798 1
   vertex 0.0185955 -0.0626375 1
   vertex 0.00906308 -0.0657738 1
  endloop
 endfacet
 facet normal 0 0 1
  outer loop
   vertex 0.00906308 -0.0657738 1
   vertex 0.0185955 -0.0626375 1
   vertex 0.0180965 -0.0614844 1
  endloop
 endfacet
 facet normal 0 -0 1
  outer loop
   vertex 0.00906308 -0.0657738 1
   vertex 0.0180965 -0.0614844 1
   vertex 0.00866025 -0.065 1
  endloop
 endfacet
 facet normal 0 0 1
  outer loop
   vertex 0.02 -0.07 1
   vertex 0.0199605 -0.0687442 1
   vertex 0.00996195 -0.0691284 1
  endloop
 endfacet
 facet normal 0 0 1
  outer loop
   vertex 0.00996195 -0.0691284 1
   vertex 0.0199605 -0.0687442 1
   vertex 0.0198423 -0.0674933 1
  endloop
 endfacet
 facet normal 0 -0 1
  outer loop
   vertex 0.00996195 -0.0691284 1
   vertex 0.0198423 -0.0674933 1
   vertex 0.00984808 -0.0682635 1
  endloop
 endfacet
 facet normal 0 0 1
  outer loop
   vertex 0.00984808 -0.0682635 1
   vertex 0.0198423 -0.0674933 1
   vertex 0.0196457 -0.0662524 1
  endloop
 endfacet
 facet normal 0 -0 1
  outer loop
   vertex 0.00984808 -0.0682635 1
   vertex 0.0196457 -0.0662524 1
   vertex 0.00965926 -0.0674118 1
  endloop
 endfacet
 facet normal 0 0 1
  outer loop
   vertex 0.00965926 -0.0674118 1
   vertex 0.0196457 -0.0662524 1
   vertex 0.0193717 -0.0650262 1
  endloop
 endfacet
 facet normal 0 0 1
  outer loop
   vertex 0.00965926 -0.0674118 1
   vertex 0.0193717 -0.0650262 1
   vertex 0.0190211 -0.0638197 1
  endloop
 endfacet
 facet normal 0 0 1
  outer loop
   vertex 0.00851559 -0.0519035 1
   vertex 0.00736249 -0.0514045 1
   vertex 0.0034202 -0.0606031 1
  endloop
 endfacet
 facet normal 0 0 1
  outer loop
   vertex 0.0034202 -0.0606031 1
   vertex 0.00736249 -0.0514045 1
   vertex 0.00618034 -0.0509789 1
  endloop
 endfacet
 facet normal 0 -0 1
  outer loop
   vertex 0.0034202 -0.0606031 1
   vertex 0.00618034 -0.0509789 1
   vertex 0.00258819 -0.0603407 1
  endloop
 endfacet
 facet normal 0 0 1
  outer loop
   vertex 0.00258819 -0.0603407 1
   vertex 0.00618034 -0.0509789 1
   vertex 0.0049738 -0.0506283 1
  endloop
 endfacet
 facet normal 0 -0 1
  outer loop
   vertex 0.00258819 -0.0603407 1
   vertex 0.0049738 -0.0506283 1
   vertex 0.00173648 -0.0601519 1
  endloop
 endfacet
 facet normal 0 0 1
  outer loop
   vertex 0.00173648 -0.0601519 1
   vertex 0.0049738 -0.0506283 1
   vertex 0.00374763 -0.0503543 1
  endloop
 endfacet
 facet normal 0 0 1
  outer loop
   vertex 0.00173648 -0.0601519 1
   vertex 0.00374763 -0.0503543 1
   vertex 0.00250666 -0.0501577 1
  endloop
 endfacet
 facet normal 0 -0 1
  outer loop
   vertex 0.00766044 -0.0635721 1
   vertex 0.0145794 -0.0563091 1
   vertex 0.00707107 -0.0629289 1
  endloop
 endfacet
 facet normal 0 0 1
  outer loop
   vertex 0.00707107 -0.0629289 1
   vertex 0.0145794 -0.0563091 1
   vertex 0.0136909 -0.0554206 1
  endloop
 endfacet
 facet normal 0 -0 1
  outer loop
   vertex 0.00707107 -0.0629289 1
   vertex 0.0136909 -0.0554206 1
   vertex 0.00642788 -0.0623396 1
  endloop
 endfacet
 facet normal 0 0 1
  outer loop
   vertex 0.00642788 -0.0623396 1
   vertex 0.0136909 -0.0554206 1
   vertex 0.0127485 -0.0545897 1
  endloop
 endfacet
 facet normal 0 -0 1
  outer loop
   vertex 0.00642788 -0.0623396 1
   vertex 0.0127485 -0.0545897 1
   vertex 0.00573576 -0.0618085 1
  endloop
 endfacet
 facet normal 0 0 1
  outer loop
   vertex 0.00573576 -0.0618085 1
   vertex 0.0127485 -0.0545897 1
   vertex 0.0117557 -0.0538197 1
  endloop
 endfacet
 facet normal 0 0 1
  outer loop
   vertex 0.00573576 -0.0618085 1
   vertex 0.0117557 -0.0538197 1
   vertex 0.0107165 -0.0531134 1
  endloop
 endfacet
 facet normal 0 0 1
  outer loop
   vertex 0.0180965 -0.0614844 1
   vertex 0.0175261 -0.0603649 1
   vertex 0.00866025 -0.065 1
  endloop
 endfacet
 facet normal 0 0 1
  outer loop
   vertex 0.00866025 -0.065 1
   vertex 0.0175261 -0.0603649 1
   vertex 0.0168866 -0.0592835 1
  endloop
 endfacet
 facet normal 0 -0 1
  outer loop
   vertex 0.00866025 -0.065 1
   vertex 0.0168866 -0.0592835 1
   vertex 0.00819152 -0.0642642 1
  endloop
 endfacet
 facet normal 0 0 1
  outer loop
   vertex 0.00819152 -0.0642642 1
   vertex 0.0168866 -0.0592835 1
   vertex 0.0161803 -0.0582443 1
  endloop
 endfacet
 facet normal 0 -0 1
  outer loop
   vertex 0.00819152 -0.0642642 1
   vertex 0.0161803 -0.0582443 1
   vertex 0.00766044 -0.0635721 1
  endloop
 endfacet
 facet normal 0 0 1
  outer loop
   vertex 0.00766044 -0.0635721 1
   vertex 0.0161803 -0.0582443 1
   vertex 0.0154103 -0.0572515 1
  endloop
 endfacet
 facet normal 0 0 1
  outer loop
   vertex 0.00766044 -0.0635721 1
   vertex 0.0154103 -0.0572515 1
   vertex 0.0145794 -0.0563091 1
  endloop
 endfacet
 facet normal 0 -1 0
  outer loop
   vertex 6.12323e-19 -0.06 -1
   vertex 6.12323e-19 -0.06 1
   vertex -0.02 -0.06 -1
  endloop
 endfacet
 facet normal 0 -1 0
  outer loop
   vertex -0.02 -0.06 -1
   vertex 6.12323e-19 -0.06 1
   vertex -0.02 -0.06 1
  endloop
 endfacet
 facet normal -1 0 0
  outer loop
   vertex -0.02 -0.06 -1
   vertex -0.02 -0.06 1
   vertex -0.02 -0.05 -1
  endloop
 endfacet
 facet normal -1 0 0
  outer loop
   vertex -0.02 -0.05 -1
   vertex -0.02 -0.06 1
   vertex -0.02 -0.05 1
  endloop
 endfacet
 facet normal 0 1 0
  outer loop
   vertex -0.02 -0.05 -1
   vertex -0.02 -0.05 1
   vertex 1.22465e-18 -0.05 -1
  endloop
 endfacet
 facet normal 0 1 -0
  outer loop
   vertex 1.22465e-18 -0.05 -1
   vertex -0.02 -0.05 1
   vertex 1.22465e-18 -0.05 1
  endloop
 endfacet
 facet normal 0.0314383 0.999506 -0
  outer loop
   vertex 1.22465e-18 -0.05 -1
   vertex 1.22465e-18 -0.05 1
   vertex 0.00125581 -0.0500395 1
  endloop
 endfacet
 facet normal 0.0314383 0.999506 0
  outer loop
   vertex 1.22465e-18 -0.05 -1
   vertex 0.00125581 -0.0500395 1
   vertex 0.00125581 -0.0500395 -1
  endloop
 endfacet
 facet normal 0.0940782 0.995565 -0
  outer loop
   vertex 0.00125581 -0.0500395 -1
   vertex 0.00125581 -0.0500395 1
   vertex 0.00250666 -0.0501577 1
  endloop
 endfacet
 facet normal 0.0940782 0.995565 0
  outer loop
   vertex 0.00125581 -0.0500395 -1
   vertex 0.00250666 -0.0501577 1
   vertex 0.00250666 -0.0501577 -1
  endloop
 endfacet
 facet normal 0.156473 0.987682 -0
  outer loop
   vertex 0.00250666 -0.0501577 -1
   vertex 0.00250666 -0.0501577 1
   vertex 0.00374763 -0.0503543 1
  endloop
 endfacet
 facet normal 0.156473 0.987682 0
  outer loop
   vertex 0.00250666 -0.0501577 -1
   vertex 0.00374763 -0.0503543 1
   vertex 0.00374763 -0.0503543 -1
  endloop
 endfacet
 facet normal 0.218079 0.975931 -0
  outer loop
   vertex 0.00374763 -0.0503543 -1
   vertex 0.00374763 -0.0503543 1
   vertex 0.0049738 -0.0506283 1
  endloop
 endfacet
 facet normal 0.218079 0.975931 0
  outer loop
   vertex 0.00374763 -0.0503543 -1
   vertex 0.0049738 -0.0506283 1
   vertex 0.0049738 -0.0506283 -1
  endloop
 endfacet
 facet normal 0.279041 0.960279 -0
  outer loop
   vertex 0.0049738 -0.0506283 -1
   vertex 0.0049738 -0.0506283 1
   vertex 0.00618034 -0.0509789 1
  endloop
 endfacet
 facet normal 0.279041 0.960279 0
  outer loop
   vertex 0.0049738 -0.0506283 -1
   vertex 0.00618034 -0.0509789 1
   vertex 0.00618034 -0.0509789 -1
  endloop
 endfacet
 facet normal 0.338738 0.940881 -0
  outer loop
   vertex 0.00618034 -0.0509789 -1
   vertex 0.00618034 -0.0509789 1
   vertex 0.00736249 -0.0514045 1
  endloop
 endfacet
 facet normal 0.338738 0.940881 0
  outer loop
   vertex 0.00618034 -0.0509789 -1
   vertex 0.00736249 -0.0514045 1
   vertex 0.00736249 -0.0514045 -1
  endloop
 endfacet
 facet normal 0.397153 0.917752 -0
  outer loop
   vertex 0.00736249 -0.0514045 -1
   vertex 0.00736249 -0.0514045 1
   vertex 0.00851559 -0.0519035 1
  endloop
 endfacet
 facet normal 0.397153 0.917752 0
  outer loop
   vertex 0.00736249 -0.0514045 -1
   vertex 0.00851559 -0.0519035 1
   vertex 0.00851559 -0.0519035 -1
  endloop
 endfacet
 facet normal 0.453991 0.891006 -0
  outer loop
   vertex 0.00851559 -0.0519035 -1
   vertex 0.00851559 -0.0519035 1
   vertex 0.00963507 -0.0524739 1
  endloop
 endfacet
 facet normal 0.453991 0.891006 0
  outer loop
   vertex 0.00851559 -0.0519035 -1
   vertex 0.00963507 -0.0524739 1
   vertex 0.00963507 -0.0524739 -1
  endloop
 endfacet
 facet normal 0.509007 0.860762 -0
  outer loop
   vertex 0.00963507 -0.0524739 -1
   vertex 0.00963507 -0.0524739 1
   vertex 0.0107165 -0.0531134 1
  endloop
 endfacet
 facet normal 0.509007 0.860762 0
  outer loop
   vertex 0.00963507 -0.0524739 -1
   vertex 0.0107165 -0.0531134 1
   vertex 0.0107165 -0.0531134 -1
  endloop
 endfacet
 facet normal 0.562115 0.827059 -0
  outer loop
   vertex 0.0107165 -0.0531134 -1
   vertex 0.0107165 -0.0531134 1
   vertex 0.0117557 -0.0538197 1
  endloop
 endfacet
 facet normal 0.562115 0.827059 0
  outer loop
   vertex 0.0107165 -0.0531134 -1
   vertex 0.0117557 -0.0538197 1
   vertex 0.0117557 -0.0538197 -1
  endloop
 endfacet
 facet normal 0.612861 0.790191 -0
  outer loop
   vertex 0.0117557 -0.0538197 -1
   vertex 0.0117557 -0.0538197 1
   vertex 0.0127485 -0.0545897 1
  endloop
 endfacet
 facet normal 0.612861 0.790191 0
  outer loop
   vertex 0.0117557 -0.0538197 -1
   vertex 0.0127485 -0.0545897 1
   vertex 0.0127485 -0.0545897 -1
  endloop
 endfacet
 facet normal 0.661341 0.750086 -0
  outer loop
   vertex 0.0127485 -0.0545897 -1
   vertex 0.0127485 -0.0545897 1
   vertex 0.0136909 -0.0554206 1
  endloop
 endfacet
 facet normal 0.661341 0.750086 0
  outer loop
   vertex 0.0127485 -0.0545897 -1
   vertex 0.0136909 -0.0554206 1
   vertex 0.0136909 -0.0554206 -1
  endloop
 endfacet
 facet normal 0.707105 0.707109 -0
  outer loop
   vertex 0.0136909 -0.0554206 -1
   vertex 0.0136909 -0.0554206 1
   vertex 0.0145794 -0.0563091 1
  endloop
 endfacet
 facet normal 0.707105 0.707109 0
  outer loop
   vertex 0.0136909 -0.0554206 -1
   vertex 0.0145794 -0.0563091 1
   vertex 0.0145794 -0.0563091 -1
  endloop
 endfacet
 facet normal 0.750088 0.661338 -0
  outer loop
   vertex 0.0145794 -0.0563091 -1
   vertex 0.0145794 -0.0563091 1
   vertex 0.0154103 -0.0572515 1
  endloop
 endfacet
 facet normal 0.750088 0.661338 0
  outer loop
   vertex 0.0145794 -0.0563091 -1
   vertex 0.0154103 -0.0572515 1
   vertex 0.0154103 -0.0572515 -1
  endloop
 endfacet
 facet normal 0.790191 0.612861 -0
  outer loop
   vertex 0.0154103 -0.0572515 -1
   vertex 0.0154103 -0.0572515 1
   vertex 0.0161803 -0.0582443 1
  endloop
 endfacet
 facet normal 0.790191 0.612861 0
  outer loop
   vertex 0.0154103 -0.0572515 -1
   vertex 0.0161803 -0.0582443 1
   vertex 0.0161803 -0.0582443 -1
  endloop
 endfacet
 facet normal 0.827059 0.562115 -0
  outer loop
   vertex 0.0161803 -0.0582443 -1
   vertex 0.0161803 -0.0582443 1
   vertex 0.0168866 -0.0592835 1
  endloop
 endfacet
 facet normal 0.827059 0.562115 0
  outer loop
   vertex 0.0161803 -0.0582443 -1
   vertex 0.0168866 -0.0592835 1
   vertex 0.0168866 -0.0592835 -1
  endloop
 endfacet
 facet normal 0.860755 0.509019 -0
  outer loop
   vertex 0.0168866 -0.0592835 -1
   vertex 0.0168866 -0.0592835 1
   vertex 0.0175261 -0.0603649 1
  endloop
 endfacet
 facet normal 0.860755 0.509019 0
  outer loop
   vertex 0.0168866 -0.0592835 -1
   vertex 0.0175261 -0.0603649 1
   vertex 0.0175261 -0.0603649 -1
  endloop
 endfacet
 facet normal 0.891011 0.453982 -0
  outer loop
   vertex 0.0175261 -0.0603649 -1
   vertex 0.0175261 -0.0603649 1
   vertex 0.0180965 -0.0614844 1
  endloop
 endfacet
 facet normal 0.891011 0.453982 0
  outer loop
   vertex 0.0175261 -0.0603649 -1
   vertex 0.0180965 -0.0614844 1
   vertex 0.0180965 -0.0614844 -1
  endloop
 endfacet
 facet normal 0.917752 0.397154 -0
  outer loop
   vertex 0.0180965 -0.0614844 -1
   vertex 0.0180965 -0.0614844 1
   vertex 0.0185955 -0.0626375 1
  endloop
 endfacet
 facet normal 0.917752 0.397154 0
  outer loop
   vertex 0.0180965 -0.0614844 -1
   vertex 0.0185955 -0.0626375 1
   vertex 0.0185955 -0.0626375 -1
  endloop
 endfacet
 facet normal 0.940885 0.338725 -0
  outer loop
   vertex 0.0185955 -0.0626375 -1
   vertex 0.0185955 -0.0626375 1
   vertex 0.0190211 -0.0638197 1
  endloop
 endfacet
 facet normal 0.940885 0.338725 0
  outer loop
   vertex 0.0185955 -0.0626375 -1
   vertex 0.0190211 -0.0638197 1
   vertex 0.0190211 -0.0638197 -1
  endloop
 endfacet
 facet normal 0.960277 0.27905 -0
  outer loop
   vertex 0.0190211 -0.0638197 -1
   vertex 0.0190211 -0.0638197 1
   vertex 0.0193717 -0.0650262 1
  endloop
 endfacet
 facet normal 0.960277 0.27905 0
  outer loop
   vertex 0.0190211 -0.0638197 -1
   vertex 0.0193717 -0.0650262 1
   vertex 0.0193717 -0.0650262 -1
  endloop
 endfacet
 facet normal 0.975932 0.218076 -0
  outer loop
   vertex 0.0193717 -0.0650262 -1
   vertex 0.0193717 -0.0650262 1
   vertex 0.0196457 -0.0662524 1
  endloop
 endfacet
 facet normal 0.975932 0.218076 0
  outer loop
   vertex 0.0193717 -0.0650262 -1
   vertex 0.0196457 -0.0662524 1
   vertex 0.0196457 -0.0662524 -1
  endloop
 endfacet
 facet normal 0.987681 0.156481 -0
  outer loop
   vertex 0.0196457 -0.0662524 -1
   vertex 0.0196457 -0.0662524 1
   vertex 0.0198423 -0.0674933 1
  endloop
 endfacet
 facet normal 0.987681 0.156481 0
  outer loop
   vertex 0.0196457 -0.0662524 -1
   vertex 0.0198423 -0.0674933 1
   vertex 0.0198423 -0.0674933 -1
  endloop
 endfacet
 facet normal 0.995565 0.0940734 -0
  outer loop
   vertex 0.0198423 -0.0674933 -1
   vertex 0.0198423 -0.0674933 1
   vertex 0.0199605 -0.0687442 1
  endloop
 endfacet
 facet normal 0.995565 0.0940734 0
  outer loop
   vertex 0.0198423 -0.0674933 -1
   vertex 0.0199605 -0.0687442 1
   vertex 0.0199605 -0.0687442 -1
  endloop
 endfacet
 facet normal 0.999506 0.0314385 -0
  outer loop
   vertex 0.0199605 -0.0687442 -1
   vertex 0.0199605 -0.0687442 1
   vertex 0.02 -0.07 1
  endloop
 endfacet
 facet normal 0.999506 0.0314385 0
  outer loop
   vertex 0.0199605 -0.0687442 -1
   vertex 0.02 -0.07 1
   vertex 0.02 -0.07 -1
  endloop
 endfacet
 facet normal 1 0 -0
  outer loop
   vertex 0.02 -0.07 -1
   vertex 0.02 -0.07 1
   vertex 0.02 -0.09 -1
  endloop
 endfacet
 facet normal 1 0 0
  outer loop
   vertex 0.02 -0.09 -1
   vertex 0.02 -0.07 1
   vertex 0.02 -0.09 1
  endloop
 endfacet
 facet normal 0 -1 0
  outer loop
   vertex 0.02 -0.09 -1
   vertex 0.02 -0.09 1
   vertex 0.01 -0.09 -1
  endloop
 endfacet
 facet normal 0 -1 0
  outer loop
   vertex 0.01 -0.09 -1
   vertex 0.02 -0.09 1
   vertex 0.01 -0.09 1
  endloop
 endfacet
 facet normal -1 0 0
  outer loop
   vertex 0.01 -0.09 -1
   vertex 0.01 -0.09 1
   vertex 0.01 -0.07 -1
  endloop
 endfacet
 facet normal -1 0 0
  outer loop
   vertex 0.01 -0.07 -1
   vertex 0.01 -0.09 1
   vertex 0.01 -0.07 1
  endloop
 endfacet
 facet normal 0 0 -1
  outer loop
   vertex -0.02 -0.06 -1
   vertex -0.02 -0.05 -1
   vertex 6.12323e-19 -0.06 -1
  endloop
 endfacet
 facet normal 0 0 -1
  outer loop
   vertex 6.12323e-19 -0.06 -1
   vertex -0.02 -0.05 -1
   vertex 1.22465e-18 -0.05 -1
  endloop
 endfacet
 facet normal 0 0 -1
  outer loop
   vertex 6.12323e-19 -0.06 -1
   vertex 1.22465e-18 -0.05 -1
   vertex 0.000871557 -0.0600381 -1
  endloop
 endfacet
 facet normal 0 0 -1
  outer loop
   vertex 0.02 -0.09 -1
   vertex 0.01 -0.09 -1
   vertex 0.02 -0.07 -1
  endloop
 endfacet
 facet normal -0 0 -1
  outer loop
   vertex 0.02 -0.07 -1
   vertex 0.01 -0.09 -1
   vertex 0.01 -0.07 -1
  endloop
 endfacet
 facet normal 0 0 -1
  outer loop
   vertex 0.02 -0.07 -1
   vertex 0.01 -0.07 -1
   vertex 0.0199605 -0.0687442 -1
  endloop
 endfacet
 facet normal 0 0 -1
  outer loop
   vertex 0.0199605 -0.0687442 -1
   vertex 0.01 -0.07 -1
   vertex 0.00996195 -0.0691284 -1
  endloop
 endfacet
 facet normal -0 0 -1
  outer loop
   vertex 0.0199605 -0.0687442 -1
   vertex 0.00996195 -0.0691284 -1
   vertex 0.0198423 -0.0674933 -1
  endloop
 endfacet
 facet normal 0 0 -1
  outer loop
   vertex 0.0198423 -0.0674933 -1
   vertex 0.00996195 -0.0691284 -1
   vertex 0.00984808 -0.0682635 -1
  endloop
 endfacet
 facet normal 0 0 -1
  outer loop
   vertex 0.00939693 -0.0665798 -1
   vertex 0.0190211 -0.0638197 -1
   vertex 0.00965926 -0.0674118 -1
  endloop
 endfacet
 facet normal 0 0 -1
  outer loop
   vertex 0.00965926 -0.0674118 -1
   vertex 0.0190211 -0.0638197 -1
   vertex 0.0193717 -0.0650262 -1
  endloop
 endfacet
 facet normal 0 0 -1
  outer loop
   vertex 0.00965926 -0.0674118 -1
   vertex 0.0193717 -0.0650262 -1
   vertex 0.00984808 -0.0682635 -1
  endloop
 endfacet
 facet normal 0 0 -1
  outer loop
   vertex 0.00984808 -0.0682635 -1
   vertex 0.0193717 -0.0650262 -1
   vertex 0.0196457 -0.0662524 -1
  endloop
 endfacet
 facet normal 0 0 -1
  outer loop
   vertex 0.00984808 -0.0682635 -1
   vertex 0.0196457 -0.0662524 -1
   vertex 0.0198423 -0.0674933 -1
  endloop
 endfacet
 facet normal 0 0 -1
  outer loop
   vertex 0.00707107 -0.0629289 -1
   vertex 0.0145794 -0.0563091 -1
   vertex 0.00766044 -0.0635721 -1
  endloop
 endfacet
 facet normal 0 0 -1
  outer loop
   vertex 0.00766044 -0.0635721 -1
   vertex 0.0145794 -0.0563091 -1
   vertex 0.0154103 -0.0572515 -1
  endloop
 endfacet
 facet normal 0 0 -1
  outer loop
   vertex 0.00766044 -0.0635721 -1
   vertex 0.0154103 -0.0572515 -1
   vertex 0.00819152 -0.0642642 -1
  endloop
 endfacet
 facet normal 0 0 -1
  outer loop
   vertex 0.005 -0.0613398 -1
   vertex 0.0107165 -0.0531134 -1
   vertex 0.00573576 -0.0618085 -1
  endloop
 endfacet
 facet normal 0 0 -1
  outer loop
   vertex 0.00573576 -0.0618085 -1
   vertex 0.0107165 -0.0531134 -1
   vertex 0.0117557 -0.0538197 -1
  endloop
 endfacet
 facet normal 0 0 -1
  outer loop
   vertex 0.00573576 -0.0618085 -1
   vertex 0.0117557 -0.0538197 -1
   vertex 0.00642788 -0.0623396 -1
  endloop
 endfacet
 facet normal 0 0 -1
  outer loop
   vertex 0.00642788 -0.0623396 -1
   vertex 0.0117557 -0.0538197 -1
   vertex 0.0127485 -0.0545897 -1
  endloop
 endfacet
 facet normal 0 0 -1
  outer loop
   vertex 0.00642788 -0.0623396 -1
   vertex 0.0127485 -0.0545897 -1
   vertex 0.00707107 -0.0629289 -1
  endloop
 endfacet
 facet normal 0 0 -1
  outer loop
   vertex 0.00707107 -0.0629289 -1
   vertex 0.0127485 -0.0545897 -1
   vertex 0.0136909 -0.0554206 -1
  endloop
 endfacet
 facet normal 0 0 -1
  outer loop
   vertex 0.00707107 -0.0629289 -1
   vertex 0.0136909 -0.0554206 -1
   vertex 0.0145794 -0.0563091 -1
  endloop
 endfacet
 facet normal 0 -0 -1
  outer loop
   vertex 0.0154103 -0.0572515 -1
   vertex 0.0161803 -0.0582443 -1
   vertex 0.00819152 -0.0642642 -1
  endloop
 endfacet
 facet normal 0 0 -1
  outer loop
   vertex 0.00819152 -0.0642642 -1
   vertex 0.0161803 -0.0582443 -1
   vertex 0.0168866 -0.0592835 -1
  endloop
 endfacet
 facet normal 0 0 -1
  outer loop
   vertex 0.00819152 -0.0642642 -1
   vertex 0.0168866 -0.0592835 -1
   vertex 0.00866025 -0.065 -1
  endloop
 endfacet
 facet normal 0 0 -1
  outer loop
   vertex 0.00866025 -0.065 -1
   vertex 0.0168866 -0.0592835 -1
   vertex 0.0175261 -0.0603649 -1
  endloop
 endfacet
 facet normal 0 0 -1
  outer loop
   vertex 0.00866025 -0.065 -1
   vertex 0.0175261 -0.0603649 -1
   vertex 0.00906308 -0.0657738 -1
  endloop
 endfacet
 facet normal 0 0 -1
  outer loop
   vertex 0.00906308 -0.0657738 -1
   vertex 0.0175261 -0.0603649 -1
   vertex 0.0180965 -0.0614844 -1
  endloop
 endfacet
 facet normal 0 0 -1
  outer loop
   vertex 0.00906308 -0.0657738 -1
   vertex 0.0180965 -0.0614844 -1
   vertex 0.00939693 -0.0665798 -1
  endloop
 endfacet
 facet normal 0 0 -1
  outer loop
   vertex 0.00939693 -0.0665798 -1
   vertex 0.0180965 -0.0614844 -1
   vertex 0.0185955 -0.0626375 -1
  endloop
 endfacet
 facet normal 0 0 -1
  outer loop
   vertex 0.00939693 -0.0665798 -1
   vertex 0.0185955 -0.0626375 -1
   vertex 0.0190211 -0.0638197 -1
  endloop
 endfacet
 facet normal 0 0 -1
  outer loop
   vertex 0.00258819 -0.0603407 -1
   vertex 0.00618034 -0.0509789 -1
   vertex 0.0034202 -0.0606031 -1
  endloop
 endfacet
 facet normal 0 0 -1
  outer loop
   vertex 0.0034202 -0.0606031 -1
   vertex 0.00618034 -0.0509789 -1
   vertex 0.00736249 -0.0514045 -1
  endloop
 endfacet
 facet normal 0 0 -1
  outer loop
   vertex 0.0034202 -0.0606031 -1
   vertex 0.00736249 -0.0514045 -1
   vertex 0.00422618 -0.0609369 -1
  endloop
 endfacet
 facet normal 0 0 -1
  outer loop
   vertex 0.00422618 -0.0609369 -1
   vertex 0.00736249 -0.0514045 -1
   vertex 0.00851559 -0.0519035 -1
  endloop
 endfacet
 facet normal 0 0 -1
  outer loop
   vertex 0.00422618 -0.0609369 -1
   vertex 0.00851559 -0.0519035 -1
   vertex 0.005 -0.0613398 -1
  endloop
 endfacet
 facet normal 0 0 -1
  outer loop
   vertex 0.005 -0.0613398 -1
   vertex 0.00851559 -0.0519035 -1
   vertex 0.00963507 -0.0524739 -1
  endloop
 endfacet
 facet normal 0 0 -1
  outer loop
   vertex 0.005 -0.0613398 -1
   vertex 0.00963507 -0.0524739 -1
   vertex 0.0107165 -0.0531134 -1
  endloop
 endfacet
 facet normal 0 0 -1
  outer loop
   vertex 1.22465e-18 -0.05 -1
   vertex 0.00125581 -0.0500395 -1
   vertex 0.000871557 -0.0600381 -1
  endloop
 endfacet
 facet normal 0 0 -1
  outer loop
   vertex 0.000871557 -0.0600381 -1
   vertex 0.00125581 -0.0500395 -1
   vertex 0.00250666 -0.0501577 -1
  endloop
 endfacet
 facet normal 0 0 -1
  outer loop
   vertex 0.000871557 -0.0600381 -1
   vertex 0.00250666 -0.0501577 -1
   vertex 0.00173648 -0.0601519 -1
  endloop
 endfacet
 facet normal 0 0 -1
  outer loop
   vertex 0.00173648 -0.0601519 -1
   vertex 0.00250666 -0.0501577 -1
   vertex 0.00374763 -0.0503543 -1
  endloop
 endfacet
 facet normal 0 0 -1
  outer loop
   vertex 0.00173648 -0.0601519 -1
   vertex 0.00374763 -0.0503543 -1
   vertex 0.00258819 -0.0603407 -1
  endloop
 endfacet
 facet normal 0 0 -1
  outer loop
   vertex 0.00258819 -0.0603407 -1
   vertex 0.00374763 -0.0503543 -1
   vertex 0.0049738 -0.0506283 -1
  endloop
 endfacet
 facet normal 0 0 -1
  outer loop
   vertex 0.00258819 -0.0603407 -1
   vertex 0.0049738 -0.0506283 -1
   vertex 0.00618034 -0.0509789 -1
  endloop
 endfacet
 facet normal -1 0 0
  outer loop
   vertex -0.02 0.05 -1
   vertex -0.02 0.05 1
   vertex -0.02 0.06 -1
  endloop
 endfacet
 facet normal -1 0 0
  outer loop
   vertex -0.02 0.06 -1
   vertex -0.02 0.05 1
   vertex -0.02 0.06 1
  endloop
 endfacet
 facet normal 0 -1 0
  outer loop
   vertex 0.1 0.05 -1
   vertex 0.1 0.05 1
   vertex -0.02 0.05 -1
  endloop
 endfacet
 facet normal 0 -1 0
  outer loop
   vertex -0.02 0.05 -1
   vertex 0.1 0.05 1
   vertex -0.02 0.05 1
  endloop
 endfacet
 facet normal -0.0373652 -0.999302 -0
  outer loop
   vertex 0.1 0.05 1
   vertex 0.1 0.05 -1
   vertex 0.101495 0.0499441 1
  endloop
 endfacet
 facet normal -0.0373652 -0.999302 -0
  outer loop
   vertex 0.101495 0.0499441 1
   vertex 0.1 0.05 -1
   vertex 0.101495 0.0499441 -1
  endloop
 endfacet
 facet normal -0.112011 -0.993707 -0
  outer loop
   vertex 0.101495 0.0499441 1
   vertex 0.101495 0.0499441 -1
   vertex 0.102981 0.0497766 1
  endloop
 endfacet
 facet normal -0.112011 -0.993707 -0
  outer loop
   vertex 0.102981 0.0497766 1
   vertex 0.101495 0.0499441 -1
   vertex 0.102981 0.0497766 -1
  endloop
 endfacet
 facet normal -0.185943 -0.982561 -0
  outer loop
   vertex 0.102981 0.0497766 1
   vertex 0.102981 0.0497766 -1
   vertex 0.10445 0.0494986 1
  endloop
 endfacet
 facet normal -0.185943 -0.982561 -0
  outer loop
   vertex 0.10445 0.0494986 1
   vertex 0.102981 0.0497766 -1
   vertex 0.10445 0.0494986 -1
  endloop
 endfacet
 facet normal -0.258765 -0.96594 -0
  outer loop
   vertex 0.10445 0.0494986 1
   vertex 0.10445 0.0494986 -1
   vertex 0.105895 0.0491115 1
  endloop
 endfacet
 facet normal -0.258765 -0.96594 -0
  outer loop
   vertex 0.105895 0.0491115 1
   vertex 0.10445 0.0494986 -1
   vertex 0.105895 0.0491115 -1
  endloop
 endfacet
 facet normal -0.330229 -0.943901 -0
  outer loop
   vertex 0.105895 0.0491115 1
   vertex 0.105895 0.0491115 -1
   vertex 0.107307 0.0486175 1
  endloop
 endfacet
 facet normal -0.330229 -0.943901 -0
  outer loop
   vertex 0.107307 0.0486175 1
   vertex 0.105895 0.0491115 -1
   vertex 0.107307 0.0486175 -1
  endloop
 endfacet
 facet normal -0.39986 -0.916576 -0
  outer loop
   vertex 0.107307 0.0486175 1
   vertex 0.107307 0.0486175 -1
   vertex 0.108678 0.0480194 1
  endloop
 endfacet
 facet normal -0.39986 -0.916576 -0
  outer loop
   vertex 0.108678 0.0480194 1
   vertex 0.107307 0.0486175 -1
   vertex 0.108678 0.0480194 -1
  endloop
 endfacet
 facet normal -0.467373 -0.88406 -0
  outer loop
   vertex 0.108678 0.0480194 1
   vertex 0.108678 0.0480194 -1
   vertex 0.11 0.0473205 1
  endloop
 endfacet
 facet normal -0.467373 -0.88406 -0
  outer loop
   vertex 0.11 0.0473205 1
   vertex 0.108678 0.0480194 -1
   vertex 0.11 0.0473205 -1
  endloop
 endfacet
 facet normal -0.532137 -0.846658 -0
  outer loop
   vertex 0.11 0.0473205 1
   vertex 0.11 0.0473205 -1
   vertex 0.111266 0.0465248 1
  endloop
 endfacet
 facet normal -0.532137 -0.846658 -0
  outer loop
   vertex 0.111266 0.0465248 1
   vertex 0.11 0.0473205 -1
   vertex 0.111266 0.0465248 -1
  endloop
 endfacet
 facet normal -0.593653 -0.804721 -0
  outer loop
   vertex 0.111266 0.0465248 1
   vertex 0.111266 0.0465248 -1
   vertex 0.11247 0.0456366 1
  endloop
 endfacet
 facet normal -0.593653 -0.804721 -0
  outer loop
   vertex 0.11247 0.0456366 1
   vertex 0.111266 0.0465248 -1
   vertex 0.11247 0.0456366 -1
  endloop
 endfacet
 facet normal -0.652508 -0.757782 -0
  outer loop
   vertex 0.11247 0.0456366 1
   vertex 0.11247 0.0456366 -1
   vertex 0.113603 0.044661 1
  endloop
 endfacet
 facet normal -0.652508 -0.757782 -0
  outer loop
   vertex 0.113603 0.044661 1
   vertex 0.11247 0.0456366 -1
   vertex 0.113603 0.044661 -1
  endloop
 endfacet
 facet normal -0.706937 -0.707276 -0
  outer loop
   vertex 0.113603 0.044661 1
   vertex 0.113603 0.044661 -1
   vertex 0.114661 0.0436035 1
  endloop
 endfacet
 facet normal -0.706937 -0.707276 -0
  outer loop
   vertex 0.114661 0.0436035 1
   vertex 0.113603 0.044661 -1
   vertex 0.114661 0.0436035 -1
  endloop
 endfacet
 facet normal -0.757848 -0.652431 -0
  outer loop
   vertex 0.114661 0.0436035 1
   vertex 0.114661 0.0436035 -1
   vertex 0.115637 0.0424698 1
  endloop
 endfacet
 facet normal -0.757848 -0.652431 -0
  outer loop
   vertex 0.115637 0.0424698 1
   vertex 0.114661 0.0436035 -1
   vertex 0.115637 0.0424698 -1
  endloop
 endfacet
 facet normal -0.804649 -0.593751 -0
  outer loop
   vertex 0.115637 0.0424698 1
   vertex 0.115637 0.0424698 -1
   vertex 0.116525 0.0412664 1
  endloop
 endfacet
 facet normal -0.804649 -0.593751 -0
  outer loop
   vertex 0.116525 0.0412664 1
   vertex 0.115637 0.0424698 -1
   vertex 0.116525 0.0412664 -1
  endloop
 endfacet
 facet normal -0.846641 -0.532165 -0
  outer loop
   vertex 0.116525 0.0412664 1
   vertex 0.116525 0.0412664 -1
   vertex 0.117321 0.04 1
  endloop
 endfacet
 facet normal -0.846641 -0.532165 -0
  outer loop
   vertex 0.117321 0.04 1
   vertex 0.116525 0.0412664 -1
   vertex 0.117321 0.04 -1
  endloop
 endfacet
 facet normal -0.884353 -0.466818 -0
  outer loop
   vertex 0.117321 0.04 1
   vertex 0.117321 0.04 -1
   vertex 0.118019 0.0386777 1
  endloop
 endfacet
 facet normal -0.884353 -0.466818 -0
  outer loop
   vertex 0.118019 0.0386777 1
   vertex 0.117321 0.04 -1
   vertex 0.118019 0.0386777 -1
  endloop
 endfacet
 facet normal -0.916591 -0.399827 -0
  outer loop
   vertex 0.118019 0.0386777 1
   vertex 0.118019 0.0386777 -1
   vertex 0.118617 0.0373068 1
  endloop
 endfacet
 facet normal -0.916591 -0.399827 -0
  outer loop
   vertex 0.118617 0.0373068 1
   vertex 0.118019 0.0386777 -1
   vertex 0.118617 0.0373068 -1
  endloop
 endfacet
 facet normal -0.943669 -0.330892 -0
  outer loop
   vertex 0.118617 0.0373068 1
   vertex 0.118617 0.0373068 -1
   vertex 0.119112 0.0358951 1
  endloop
 endfacet
 facet normal -0.943669 -0.330892 -0
  outer loop
   vertex 0.119112 0.0358951 1
   vertex 0.118617 0.0373068 -1
   vertex 0.119112 0.0358951 -1
  endloop
 endfacet
 facet normal -0.965943 -0.258753 -0
  outer loop
   vertex 0.119112 0.0358951 1
   vertex 0.119112 0.0358951 -1
   vertex 0.119499 0.0344504 1
  endloop
 endfacet
 facet normal -0.965943 -0.258753 -0
  outer loop
   vertex 0.119499 0.0344504 1
   vertex 0.119112 0.0358951 -1
   vertex 0.119499 0.0344504 -1
  endloop
 endfacet
 facet normal -0.982575 -0.185868 -0
  outer loop
   vertex 0.119499 0.0344504 1
   vertex 0.119499 0.0344504 -1
   vertex 0.119777 0.0329808 1
  endloop
 endfacet
 facet normal -0.982575 -0.185868 -0
  outer loop
   vertex 0.119777 0.0329808 1
   vertex 0.119499 0.0344504 -1
   vertex 0.119777 0.0329808 -1
  endloop
 endfacet
 facet normal -0.993746 -0.111665 -0
  outer loop
   vertex 0.119777 0.0329808 1
   vertex 0.119777 0.0329808 -1
   vertex 0.119944 0.0314946 1
  endloop
 endfacet
 facet normal -0.993746 -0.111665 -0
  outer loop
   vertex 0.119944 0.0314946 1
   vertex 0.119777 0.0329808 -1
   vertex 0.119944 0.0314946 -1
  endloop
 endfacet
 facet normal -0.999299 -0.037445 -0
  outer loop
   vertex 0.119944 0.0314946 1
   vertex 0.119944 0.0314946 -1
   vertex 0.12 0.03 1
  endloop
 endfacet
 facet normal -0.999299 -0.037445 -0
  outer loop
   vertex 0.12 0.03 1
   vertex 0.119944 0.0314946 -1
   vertex 0.12 0.03 -1
  endloop
 endfacet
 facet normal -1 0 0
  outer loop
   vertex 0.12 -0.09 -1
   vertex 0.12 -0.09 1
   vertex 0.12 0.03 -1
  endloop
 endfacet
 facet normal -1 0 0
  outer loop
   vertex 0.12 0.03 -1
   vertex 0.12 -0.09 1
   vertex 0.12 0.03 1
  endloop
 endfacet
 facet normal 0 -1 0
  outer loop
   vertex 0.13 -0.09 -1
   vertex 0.13 -0.09 1
   vertex 0.12 -0.09 -1
  endloop
 endfacet
 facet normal 0 -1 0
  outer loop
   vertex 0.12 -0.09 -1
   vertex 0.13 -0.09 1
   vertex 0.12 -0.09 1
  endloop
 endfacet
 facet normal 1 0 -0
  outer loop
   vertex 0.13 0.03 -1
   vertex 0.13 0.03 1
   vertex 0.13 -0.09 -1
  endloop
 endfacet
 facet normal 1 0 0
  outer loop
   vertex 0.13 -0.09 -1
   vertex 0.13 0.03 1
   vertex 0.13 -0.09 1
  endloop
 endfacet
 facet normal 0.99954 0.0303444 0
  outer loop
   vertex 0.13 0.03 1
   vertex 0.13 0.03 -1
   vertex 0.129945 0.0318114 -1
  endloop
 endfacet
 facet normal 0.99954 0.0303444 0
  outer loop
   vertex 0.13 0.03 1
   vertex 0.129945 0.0318114 -1
   vertex 0.129945 0.0318114 1
  endloop
 endfacet
 facet normal 0.995896 0.0905055 0
  outer loop
   vertex 0.129945 0.0318114 1
   vertex 0.129945 0.0318114 -1
   vertex 0.129781 0.0336161 -1
  endloop
 endfacet
 facet normal 0.995896 0.0905055 0
  outer loop
   vertex 0.129945 0.0318114 1
   vertex 0.129781 0.0336161 -1
   vertex 0.129781 0.0336161 1
  endloop
 endfacet
 facet normal 0.988671 0.150099 0
  outer loop
   vertex 0.129781 0.0336161 1
   vertex 0.129781 0.0336161 -1
   vertex 0.129509 0.0354077 -1
  endloop
 endfacet
 facet normal 0.988671 0.150099 0
  outer loop
   vertex 0.129781 0.0336161 1
   vertex 0.129509 0.0354077 -1
   vertex 0.129509 0.0354077 1
  endloop
 endfacet
 facet normal 0.977653 0.210226 0
  outer loop
   vertex 0.129509 0.0354077 1
   vertex 0.129509 0.0354077 -1
   vertex 0.129128 0.0371795 -1
  endloop
 endfacet
 facet normal 0.977653 0.210226 0
  outer loop
   vertex 0.129509 0.0354077 1
   vertex 0.129128 0.0371795 -1
   vertex 0.129128 0.0371795 1
  endloop
 endfacet
 facet normal 0.963359 0.268215 0
  outer loop
   vertex 0.129128 0.0371795 1
   vertex 0.129128 0.0371795 -1
   vertex 0.128642 0.0389251 -1
  endloop
 endfacet
 facet normal 0.963359 0.268215 0
  outer loop
   vertex 0.129128 0.0371795 1
   vertex 0.128642 0.0389251 -1
   vertex 0.128642 0.0389251 1
  endloop
 endfacet
 facet normal 0.945151 0.326633 0
  outer loop
   vertex 0.128642 0.0389251 1
   vertex 0.128642 0.0389251 -1
   vertex 0.12805 0.0406381 -1
  endloop
 endfacet
 facet normal 0.945151 0.326633 0
  outer loop
   vertex 0.128642 0.0389251 1
   vertex 0.12805 0.0406381 -1
   vertex 0.12805 0.0406381 1
  endloop
 endfacet
 facet normal 0.923978 0.382445 0
  outer loop
   vertex 0.12805 0.0406381 1
   vertex 0.12805 0.0406381 -1
   vertex 0.127357 0.0423124 -1
  endloop
 endfacet
 facet normal 0.923978 0.382445 0
  outer loop
   vertex 0.12805 0.0406381 1
   vertex 0.127357 0.0423124 -1
   vertex 0.127357 0.0423124 1
  endloop
 endfacet
 facet normal 0.899157 0.437626 0
  outer loop
   vertex 0.127357 0.0423124 1
   vertex 0.127357 0.0423124 -1
   vertex 0.126564 0.0439417 -1
  endloop
 endfacet
 facet normal 0.899157 0.437626 0
  outer loop
   vertex 0.127357 0.0423124 1
   vertex 0.126564 0.0439417 -1
   vertex 0.126564 0.0439417 1
  endloop
 endfacet
 facet normal 0.87083 0.491583 0
  outer loop
   vertex 0.126564 0.0439417 1
   vertex 0.126564 0.0439417 -1
   vertex 0.125673 0.0455201 -1
  endloop
 endfacet
 facet normal 0.87083 0.491583 0
  outer loop
   vertex 0.126564 0.0439417 1
   vertex 0.125673 0.0455201 -1
   vertex 0.125673 0.0455201 1
  endloop
 endfacet
 facet normal 0.839744 0.542982 0
  outer loop
   vertex 0.125673 0.0455201 1
   vertex 0.125673 0.0455201 -1
   vertex 0.124689 0.0470419 -1
  endloop
 endfacet
 facet normal 0.839744 0.542982 0
  outer loop
   vertex 0.125673 0.0455201 1
   vertex 0.124689 0.0470419 -1
   vertex 0.124689 0.0470419 1
  endloop
 endfacet
 facet normal 0.805735 0.592277 0
  outer loop
   vertex 0.124689 0.0470419 1
   vertex 0.124689 0.0470419 -1
   vertex 0.123616 0.0485016 -1
  endloop
 endfacet
 facet normal 0.805735 0.592277 0
  outer loop
   vertex 0.124689 0.0470419 1
   vertex 0.123616 0.0485016 -1
   vertex 0.123616 0.0485016 1
  endloop
 endfacet
 facet normal 0.767972 0.640483 0
  outer loop
   vertex 0.123616 0.0485016 1
   vertex 0.123616 0.0485016 -1
   vertex 0.122455 0.0498937 -1
  endloop
 endfacet
 facet normal 0.767972 0.640483 0
  outer loop
   vertex 0.123616 0.0485016 1
   vertex 0.122455 0.0498937 -1
   vertex 0.122455 0.0498937 1
  endloop
 endfacet
 facet normal 0.728165 0.685401 0
  outer loop
   vertex 0.122455 0.0498937 1
   vertex 0.122455 0.0498937 -1
   vertex 0.121213 0.0512132 -1
  endloop
 endfacet
 facet normal 0.728165 0.685401 0
  outer loop
   vertex 0.122455 0.0498937 1
   vertex 0.121213 0.0512132 -1
   vertex 0.121213 0.0512132 1
  endloop
 endfacet
 facet normal 0.685569 0.728008 0
  outer loop
   vertex 0.121213 0.0512132 1
   vertex 0.121213 0.0512132 -1
   vertex 0.119894 0.0524553 -1
  endloop
 endfacet
 facet normal 0.685569 0.728008 0
  outer loop
   vertex 0.121213 0.0512132 1
   vertex 0.119894 0.0524553 -1
   vertex 0.119894 0.0524553 1
  endloop
 endfacet
 facet normal 0.640247 0.768169 0
  outer loop
   vertex 0.119894 0.0524553 1
   vertex 0.119894 0.0524553 -1
   vertex 0.118502 0.0536155 -1
  endloop
 endfacet
 facet normal 0.640247 0.768169 0
  outer loop
   vertex 0.119894 0.0524553 1
   vertex 0.118502 0.0536155 -1
   vertex 0.118502 0.0536155 1
  endloop
 endfacet
 facet normal 0.592563 0.805524 0
  outer loop
   vertex 0.118502 0.0536155 1
   vertex 0.118502 0.0536155 -1
   vertex 0.117042 0.0546895 -1
  endloop
 endfacet
 facet normal 0.592563 0.805524 0
  outer loop
   vertex 0.118502 0.0536155 1
   vertex 0.117042 0.0546895 -1
   vertex 0.117042 0.0546895 1
  endloop
 endfacet
 facet normal 0.542891 0.839803 0
  outer loop
   vertex 0.117042 0.0546895 1
   vertex 0.117042 0.0546895 -1
   vertex 0.11552 0.0556734 -1
  endloop
 endfacet
 facet normal 0.542891 0.839803 0
  outer loop
   vertex 0.117042 0.0546895 1
   vertex 0.11552 0.0556734 -1
   vertex 0.11552 0.0556734 1
  endloop
 endfacet
 facet normal 0.491382 0.870944 0
  outer loop
   vertex 0.11552 0.0556734 1
   vertex 0.11552 0.0556734 -1
   vertex 0.113942 0.0565637 -1
  endloop
 endfacet
 facet normal 0.491382 0.870944 0
  outer loop
   vertex 0.11552 0.0556734 1
   vertex 0.113942 0.0565637 -1
   vertex 0.113942 0.0565637 1
  endloop
 endfacet
 facet normal 0.437611 0.899165 0
  outer loop
   vertex 0.113942 0.0565637 1
   vertex 0.113942 0.0565637 -1
   vertex 0.112312 0.057357 -1
  endloop
 endfacet
 facet normal 0.437611 0.899165 0
  outer loop
   vertex 0.113942 0.0565637 1
   vertex 0.112312 0.057357 -1
   vertex 0.112312 0.057357 1
  endloop
 endfacet
 facet normal 0.382734 0.923858 0
  outer loop
   vertex 0.112312 0.057357 1
   vertex 0.112312 0.057357 -1
   vertex 0.110638 0.0580505 -1
  endloop
 endfacet
 facet normal 0.382734 0.923858 0
  outer loop
   vertex 0.112312 0.057357 1
   vertex 0.110638 0.0580505 -1
   vertex 0.110638 0.0580505 1
  endloop
 endfacet
 facet normal 0.326192 0.945303 0
  outer loop
   vertex 0.110638 0.0580505 1
   vertex 0.110638 0.0580505 -1
   vertex 0.108925 0.0586416 -1
  endloop
 endfacet
 facet normal 0.326192 0.945303 0
  outer loop
   vertex 0.110638 0.0580505 1
   vertex 0.108925 0.0586416 -1
   vertex 0.108925 0.0586416 1
  endloop
 endfacet
 facet normal 0.268464 0.96329 0
  outer loop
   vertex 0.108925 0.0586416 1
   vertex 0.108925 0.0586416 -1
   vertex 0.107179 0.0591282 -1
  endloop
 endfacet
 facet normal 0.268464 0.96329 0
  outer loop
   vertex 0.108925 0.0586416 1
   vertex 0.107179 0.0591282 -1
   vertex 0.107179 0.0591282 1
  endloop
 endfacet
 facet normal 0.210003 0.977701 0
  outer loop
   vertex 0.107179 0.0591282 1
   vertex 0.107179 0.0591282 -1
   vertex 0.105408 0.0595086 -1
  endloop
 endfacet
 facet normal 0.210003 0.977701 0
  outer loop
   vertex 0.107179 0.0591282 1
   vertex 0.105408 0.0595086 -1
   vertex 0.105408 0.0595086 1
  endloop
 endfacet
 facet normal 0.150446 0.988618 0
  outer loop
   vertex 0.105408 0.0595086 1
   vertex 0.105408 0.0595086 -1
   vertex 0.103616 0.0597813 -1
  endloop
 endfacet
 facet normal 0.150446 0.988618 0
  outer loop
   vertex 0.105408 0.0595086 1
   vertex 0.103616 0.0597813 -1
   vertex 0.103616 0.0597813 1
  endloop
 endfacet
 facet normal 0.0904842 0.995898 0
  outer loop
   vertex 0.103616 0.0597813 1
   vertex 0.103616 0.0597813 -1
   vertex 0.101811 0.0599453 -1
  endloop
 endfacet
 facet normal 0.0904842 0.995898 0
  outer loop
   vertex 0.103616 0.0597813 1
   vertex 0.101811 0.0599453 -1
   vertex 0.101811 0.0599453 1
  endloop
 endfacet
 facet normal 0.0301933 0.999544 0
  outer loop
   vertex 0.101811 0.0599453 1
   vertex 0.101811 0.0599453 -1
   vertex 0.1 0.06 -1
  endloop
 endfacet
 facet normal 0.0301933 0.999544 0
  outer loop
   vertex 0.101811 0.0599453 1
   vertex 0.1 0.06 -1
   vertex 0.1 0.06 1
  endloop
 endfacet
 facet normal 0 1 0
  outer loop
   vertex -0.02 0.06 -1
   vertex -0.02 0.06 1
   vertex 0.1 0.06 -1
  endloop
 endfacet
 facet normal 0 1 -0
  outer loop
   vertex 0.1 0.06 -1
   vertex -0.02 0.06 1
   vertex 0.1 0.06 1
  endloop
 endfacet
 facet normal 0 -0 1
  outer loop
   vertex 0.119777 0.0329808 1
   vertex 0.129509 0.0354077 1
   vertex 0.119499 0.0344504 1
  endloop
 endfacet
 facet normal 0 0 1
  outer loop
   vertex 0.119499 0.0344504 1
   vertex 0.129509 0.0354077 1
   vertex 0.129128 0.0371795 1
  endloop
 endfacet
 facet normal 0 -0 1
  outer loop
   vertex 0.119499 0.0344504 1
   vertex 0.129128 0.0371795 1
   vertex 0.119112 0.0358951 1
  endloop
 endfacet
 facet normal 0 0 1
  outer loop
   vertex 0.119112 0.0358951 1
   vertex 0.129128 0.0371795 1
   vertex 0.128642 0.0389251 1
  endloop
 endfacet
 facet normal 0 -0 1
  outer loop
   vertex 0.119112 0.0358951 1
   vertex 0.128642 0.0389251 1
   vertex 0.118617 0.0373068 1
  endloop
 endfacet
 facet normal 0 0 1
  outer loop
   vertex 0.118617 0.0373068 1
   vertex 0.128642 0.0389251 1
   vertex 0.12805 0.0406381 1
  endloop
 endfacet
 facet normal 0 -0 1
  outer loop
   vertex 0.118617 0.0373068 1
   vertex 0.12805 0.0406381 1
   vertex 0.118019 0.0386777 1
  endloop
 endfacet
 facet normal 0 0 1
  outer loop
   vertex 0.12 -0.09 1
   vertex 0.13 -0.09 1
   vertex 0.12 0.03 1
  endloop
 endfacet
 facet normal -0 0 1
  outer loop
   vertex 0.12 0.03 1
   vertex 0.13 -0.09 1
   vertex 0.13 0.03 1
  endloop
 endfacet
 facet normal 0 -0 1
  outer loop
   vertex 0.12 0.03 1
   vertex 0.13 0.03 1
   vertex 0.119944 0.0314946 1
  endloop
 endfacet
 facet normal -0 0 1
  outer loop
   vertex 0.119944 0.0314946 1
   vertex 0.13 0.03 1
   vertex 0.129945 0.0318114 1
  endloop
 endfacet
 facet normal 0 -0 1
  outer loop
   vertex 0.119944 0.0314946 1
   vertex 0.129945 0.0318114 1
   vertex 0.119777 0.0329808 1
  endloop
 endfacet
 facet normal -0 0 1
  outer loop
   vertex 0.119777 0.0329808 1
   vertex 0.129945 0.0318114 1
   vertex 0.129781 0.0336161 1
  endloop
 endfacet
 facet normal 0 0 1
  outer loop
   vertex 0.119777 0.0329808 1
   vertex 0.129781 0.0336161 1
   vertex 0.129509 0.0354077 1
  endloop
 endfacet
 facet normal -0 0 1
  outer loop
   vertex -0.02 0.06 1
   vertex -0.02 0.05 1
   vertex 0.1 0.06 1
  endloop
 endfacet
 facet normal 0 0 1
  outer loop
   vertex 0.1 0.06 1
   vertex -0.02 0.05 1
   vertex 0.1 0.05 1
  endloop
 endfacet
 facet normal 0 0 1
  outer loop
   vertex 0.1 0.06 1
   vertex 0.1 0.05 1
   vertex 0.101811 0.0599453 1
  endloop
 endfacet
 facet normal 0 0 1
  outer loop
   vertex 0.101811 0.0599453 1
   vertex 0.1 0.05 1
   vertex 0.101495 0.0499441 1
  endloop
 endfacet
 facet normal 0 0 1
  outer loop
   vertex 0.101811 0.0599453 1
   vertex 0.101495 0.0499441 1
   vertex 0.103616 0.0597813 1
  endloop
 endfacet
 facet normal 0 0 1
  outer loop
   vertex 0.103616 0.0597813 1
   vertex 0.101495 0.0499441 1
   vertex 0.102981 0.0497766 1
  endloop
 endfacet
 facet normal 0 0 1
  outer loop
   vertex 0.103616 0.0597813 1
   vertex 0.102981 0.0497766 1
   vertex 0.105408 0.0595086 1
  endloop
 endfacet
 facet normal 0 0 1
  outer loop
   vertex 0.105408 0.0595086 1
   vertex 0.102981 0.0497766 1
   vertex 0.10445 0.0494986 1
  endloop
 endfacet
 facet normal 0 -0 1
  outer loop
   vertex 0.11 0.0473205 1
   vertex 0.113942 0.0565637 1
   vertex 0.108678 0.0480194 1
  endloop
 endfacet
 facet normal 0 0 1
  outer loop
   vertex 0.108678 0.0480194 1
   vertex 0.113942 0.0565637 1
   vertex 0.112312 0.057357 1
  endloop
 endfacet
 facet normal 0 -0 1
  outer loop
   vertex 0.108678 0.0480194 1
   vertex 0.112312 0.057357 1
   vertex 0.107307 0.0486175 1
  endloop
 endfacet
 facet normal 0 0 1
  outer loop
   vertex 0.107307 0.0486175 1
   vertex 0.112312 0.057357 1
   vertex 0.110638 0.0580505 1
  endloop
 endfacet
 facet normal 0 -0 1
  outer loop
   vertex 0.107307 0.0486175 1
   vertex 0.110638 0.0580505 1
   vertex 0.105895 0.0491115 1
  endloop
 endfacet
 facet normal 0 0 1
  outer loop
   vertex 0.105895 0.0491115 1
   vertex 0.110638 0.0580505 1
   vertex 0.108925 0.0586416 1
  endloop
 endfacet
 facet normal 0 -0 1
  outer loop
   vertex 0.105895 0.0491115 1
   vertex 0.108925 0.0586416 1
   vertex 0.10445 0.0494986 1
  endloop
 endfacet
 facet normal 0 0 1
  outer loop
   vertex 0.10445 0.0494986 1
   vertex 0.108925 0.0586416 1
   vertex 0.107179 0.0591282 1
  endloop
 endfacet
 facet normal 0 0 1
  outer loop
   vertex 0.10445 0.0494986 1
   vertex 0.107179 0.0591282 1
   vertex 0.105408 0.0595086 1
  endloop
 endfacet
 facet normal 0 -0 1
  outer loop
   vertex 0.114661 0.0436035 1
   vertex 0.121213 0.0512132 1
   vertex 0.113603 0.044661 1
  endloop
 endfacet
 facet normal 0 0 1
  outer loop
   vertex 0.113603 0.044661 1
   vertex 0.121213 0.0512132 1
   vertex 0.119894 0.0524553 1
  endloop
 endfacet
 facet normal 0 -0 1
  outer loop
   vertex 0.113603 0.044661 1
   vertex 0.119894 0.0524553 1
   vertex 0.11247 0.0456366 1
  endloop
 endfacet
 facet normal 0 0 1
  outer loop
   vertex 0.11247 0.0456366 1
   vertex 0.119894 0.0524553 1
   vertex 0.118502 0.0536155 1
  endloop
 endfacet
 facet normal 0 -0 1
  outer loop
   vertex 0.11247 0.0456366 1
   vertex 0.118502 0.0536155 1
   vertex 0.111266 0.0465248 1
  endloop
 endfacet
 facet normal 0 0 1
  outer loop
   vertex 0.111266 0.0465248 1
   vertex 0.118502 0.0536155 1
   vertex 0.117042 0.0546895 1
  endloop
 endfacet
 facet normal 0 -0 1
  outer loop
   vertex 0.111266 0.0465248 1
   vertex 0.117042 0.0546895 1
   vertex 0.11 0.0473205 1
  endloop
 endfacet
 facet normal 0 0 1
  outer loop
   vertex 0.11 0.0473205 1
   vertex 0.117042 0.0546895 1
   vertex 0.11552 0.0556734 1
  endloop
 endfacet
 facet normal 0 0 1
  outer loop
   vertex 0.11 0.0473205 1
   vertex 0.11552 0.0556734 1
   vertex 0.113942 0.0565637 1
  endloop
 endfacet
 facet normal 0 0 1
  outer loop
   vertex 0.12805 0.0406381 1
   vertex 0.127357 0.0423124 1
   vertex 0.118019 0.0386777 1
  endloop
 endfacet
 facet normal 0 0 1
  outer loop
   vertex 0.118019 0.0386777 1
   vertex 0.127357 0.0423124 1
   vertex 0.126564 0.0439417 1
  endloop
 endfacet
 facet normal 0 -0 1
  outer loop
   vertex 0.118019 0.0386777 1
   vertex 0.126564 0.0439417 1
   vertex 0.117321 0.04 1
  endloop
 endfacet
 facet normal 0 0 1
  outer loop
   vertex 0.117321 0.04 1
   vertex 0.126564 0.0439417 1
   vertex 0.125673 0.0455201 1
  endloop
 endfacet
 facet normal 0 -0 1
  outer loop
   vertex 0.117321 0.04 1
   vertex 0.125673 0.0455201 1
   vertex 0.116525 0.0412664 1
  endloop
 endfacet
 facet normal 0 0 1
  outer loop
   vertex 0.116525 0.0412664 1
   vertex 0.125673 0.0455201 1
   vertex 0.124689 0.0470419 1
  endloop
 endfacet
 facet normal 0 -0 1
  outer loop
   vertex 0.116525 0.0412664 1
   vertex 0.124689 0.0470419 1
   vertex 0.115637 0.0424698 1
  endloop
 endfacet
 facet normal 0 0 1
  outer loop
   vertex 0.115637 0.0424698 1
   vertex 0.124689 0.0470419 1
   vertex 0.123616 0.0485016 1
  endloop
 endfacet
 facet normal 0 -0 1
  outer loop
   vertex 0.115637 0.0424698 1
   vertex 0.123616 0.0485016 1
   vertex 0.114661 0.0436035 1
  endloop
 endfacet
 facet normal 0 0 1
  outer loop
   vertex 0.114661 0.0436035 1
   vertex 0.123616 0.0485016 1
   vertex 0.122455 0.0498937 1
  endloop
 endfacet
 facet normal 0 0 1
  outer loop
   vertex 0.114661 0.0436035 1
   vertex 0.122455 0.0498937 1
   vertex 0.121213 0.0512132 1
  endloop
 endfacet
 facet normal 0 0 -1
  outer loop
   vertex 0.119499 0.0344504 -1
   vertex 0.129509 0.0354077 -1
   vertex 0.119777 0.0329808 -1
  endloop
 endfacet
 facet normal 0 0 -1
  outer loop
   vertex 0.119777 0.0329808 -1
   vertex 0.129509 0.0354077 -1
   vertex 0.129781 0.0336161 -1
  endloop
 endfacet
 facet normal 0 0 -1
  outer loop
   vertex 0.119777 0.0329808 -1
   vertex 0.129781 0.0336161 -1
   vertex 0.119944 0.0314946 -1
  endloop
 endfacet
 facet normal 0 0 -1
  outer loop
   vertex 0.119944 0.0314946 -1
   vertex 0.129781 0.0336161 -1
   vertex 0.129945 0.0318114 -1
  endloop
 endfacet
 facet normal 0 0 -1
  outer loop
   vertex 0.119944 0.0314946 -1
   vertex 0.129945 0.0318114 -1
   vertex 0.12 0.03 -1
  endloop
 endfacet
 facet normal 0 0 -1
  outer loop
   vertex 0.12 0.03 -1
   vertex 0.129945 0.0318114 -1
   vertex 0.13 0.03 -1
  endloop
 endfacet
 facet normal 0 0 -1
  outer loop
   vertex 0.12 0.03 -1
   vertex 0.13 0.03 -1
   vertex 0.12 -0.09 -1
  endloop
 endfacet
 facet normal 0 0 -1
  outer loop
   vertex 0.12 -0.09 -1
   vertex 0.13 0.03 -1
   vertex 0.13 -0.09 -1
  endloop
 endfacet
 facet normal 0 0 -1
  outer loop
   vertex -0.02 0.05 -1
   vertex -0.02 0.06 -1
   vertex 0.1 0.05 -1
  endloop
 endfacet
 facet normal 0 0 -1
  outer loop
   vertex 0.1 0.05 -1
   vertex -0.02 0.06 -1
   vertex 0.1 0.06 -1
  endloop
 endfacet
 facet normal 0 0 -1
  outer loop
   vertex 0.1 0.05 -1
   vertex 0.1 0.06 -1
   vertex 0.101495 0.0499441 -1
  endloop
 endfacet
 facet normal 0 0 -1
  outer loop
   vertex 0.101495 0.0499441 -1
   vertex 0.1 0.06 -1
   vertex 0.101811 0.0599453 -1
  endloop
 endfacet
 facet normal 0 0 -1
  outer loop
   vertex 0.101495 0.0499441 -1
   vertex 0.101811 0.0599453 -1
   vertex 0.102981 0.0497766 -1
  endloop
 endfacet
 facet normal 0 0 -1
  outer loop
   vertex 0.117321 0.04 -1
   vertex 0.126564 0.0439417 -1
   vertex 0.118019 0.0386777 -1
  endloop
 endfacet
 facet normal 0 0 -1
  outer loop
   vertex 0.118019 0.0386777 -1
   vertex 0.126564 0.0439417 -1
   vertex 0.127357 0.0423124 -1
  endloop
 endfacet
 facet normal 0 0 -1
  outer loop
   vertex 0.118019 0.0386777 -1
   vertex 0.127357 0.0423124 -1
   vertex 0.118617 0.0373068 -1
  endloop
 endfacet
 facet normal 0 0 -1
  outer loop
   vertex 0.118617 0.0373068 -1
   vertex 0.127357 0.0423124 -1
   vertex 0.12805 0.0406381 -1
  endloop
 endfacet
 facet normal 0 0 -1
  outer loop
   vertex 0.118617 0.0373068 -1
   vertex 0.12805 0.0406381 -1
   vertex 0.119112 0.0358951 -1
  endloop
 endfacet
 facet normal 0 0 -1
  outer loop
   vertex 0.119112 0.0358951 -1
   vertex 0.12805 0.0406381 -1
   vertex 0.128642 0.0389251 -1
  endloop
 endfacet
 facet normal 0 0 -1
  outer loop
   vertex 0.119112 0.0358951 -1
   vertex 0.128642 0.0389251 -1
   vertex 0.119499 0.0344504 -1
  endloop
 endfacet
 facet normal 0 0 -1
  outer loop
   vertex 0.119499 0.0344504 -1
   vertex 0.128642 0.0389251 -1
   vertex 0.129128 0.0371795 -1
  endloop
 endfacet
 facet normal 0 0 -1
  outer loop
   vertex 0.119499 0.0344504 -1
   vertex 0.129128 0.0371795 -1
   vertex 0.129509 0.0354077 -1
  endloop
 endfacet
 facet normal 0 0 -1
  outer loop
   vertex 0.113603 0.044661 -1
   vertex 0.121213 0.0512132 -1
   vertex 0.114661 0.0436035 -1
  endloop
 endfacet
 facet normal 0 0 -1
  outer loop
   vertex 0.114661 0.0436035 -1
   vertex 0.121213 0.0512132 -1
   vertex 0.122455 0.0498937 -1
  endloop
 endfacet
 facet normal 0 0 -1
  outer loop
   vertex 0.114661 0.0436035 -1
   vertex 0.122455 0.0498937 -1
   vertex 0.115637 0.0424698 -1
  endloop
 endfacet
 facet normal 0 0 -1
  outer loop
   vertex 0.115637 0.0424698 -1
   vertex 0.122455 0.0498937 -1
   vertex 0.123616 0.0485016 -1
  endloop
 endfacet
 facet normal 0 0 -1
  outer loop
   vertex 0.115637 0.0424698 -1
   vertex 0.123616 0.0485016 -1
   vertex 0.116525 0.0412664 -1
  endloop
 endfacet
 facet normal 0 0 -1
  outer loop
   vertex 0.116525 0.0412664 -1
   vertex 0.123616 0.0485016 -1
   vertex 0.124689 0.0470419 -1
  endloop
 endfacet
 facet normal 0 0 -1
  outer loop
   vertex 0.116525 0.0412664 -1
   vertex 0.124689 0.0470419 -1
   vertex 0.117321 0.04 -1
  endloop
 endfacet
 facet normal 0 0 -1
  outer loop
   vertex 0.117321 0.04 -1
   vertex 0.124689 0.0470419 -1
   vertex 0.125673 0.0455201 -1
  endloop
 endfacet
 facet normal 0 0 -1
  outer loop
   vertex 0.117321 0.04 -1
   vertex 0.125673 0.0455201 -1
   vertex 0.126564 0.0439417 -1
  endloop
 endfacet
 facet normal 0 0 -1
  outer loop
   vertex 0.101811 0.0599453 -1
   vertex 0.103616 0.0597813 -1
   vertex 0.102981 0.0497766 -1
  endloop
 endfacet
 facet normal 0 0 -1
  outer loop
   vertex 0.102981 0.0497766 -1
   vertex 0.103616 0.0597813 -1
   vertex 0.105408 0.0595086 -1
  endloop
 endfacet
 facet normal 0 0 -1
  outer loop
   vertex 0.102981 0.0497766 -1
   vertex 0.105408 0.0595086 -1
   vertex 0.10445 0.0494986 -1
  endloop
 endfacet
 facet normal 0 0 -1
  outer loop
   vertex 0.10445 0.0494986 -1
   vertex 0.105408 0.0595086 -1
   vertex 0.107179 0.0591282 -1
  endloop
 endfacet
 facet normal 0 0 -1
  outer loop
   vertex 0.10445 0.0494986 -1
   vertex 0.107179 0.0591282 -1
   vertex 0.105895 0.0491115 -1
  endloop
 endfacet
 facet normal 0 0 -1
  outer loop
   vertex 0.105895 0.0491115 -1
   vertex 0.107179 0.0591282 -1
   vertex 0.108925 0.0586416 -1
  endloop
 endfacet
 facet normal 0 0 -1
  outer loop
   vertex 0.105895 0.0491115 -1
   vertex 0.108925 0.0586416 -1
   vertex 0.107307 0.0486175 -1
  endloop
 endfacet
 facet normal 0 0 -1
  outer loop
   vertex 0.107307 0.0486175 -1
   vertex 0.108925 0.0586416 -1
   vertex 0.110638 0.0580505 -1
  endloop
 endfacet
 facet normal 0 0 -1
  outer loop
   vertex 0.107307 0.0486175 -1
   vertex 0.110638 0.0580505 -1
   vertex 0.108678 0.0480194 -1
  endloop
 endfacet
 facet normal 0 -0 -1
  outer loop
   vertex 0.110638 0.0580505 -1
   vertex 0.112312 0.057357 -1
   vertex 0.108678 0.0480194 -1
  endloop
 endfacet
 facet normal 0 0 -1
  outer loop
   vertex 0.108678 0.0480194 -1
   vertex 0.112312 0.057357 -1
   vertex 0.113942 0.0565637 -1
  endloop
 endfacet
 facet normal 0 0 -1
  outer loop
   vertex 0.108678 0.0480194 -1
   vertex 0.113942 0.0565637 -1
   vertex 0.11 0.0473205 -1
  endloop
 endfacet
 facet normal 0 0 -1
  outer loop
   vertex 0.11 0.0473205 -1
   vertex 0.113942 0.0565637 -1
   vertex 0.11552 0.0556734 -1
  endloop
 endfacet
 facet normal 0 0 -1
  outer loop
   vertex 0.11 0.0473205 -1
   vertex 0.11552 0.0556734 -1
   vertex 0.111266 0.0465248 -1
  endloop
 endfacet
 facet normal 0 0 -1
  outer loop
   vertex 0.111266 0.0465248 -1
   vertex 0.11552 0.0556734 -1
   vertex 0.117042 0.0546895 -1
  endloop
 endfacet
 facet normal 0 0 -1
  outer loop
   vertex 0.111266 0.0465248 -1
   vertex 0.117042 0.0546895 -1
   vertex 0.11247 0.0456366 -1
  endloop
 endfacet
 facet normal 0 0 -1
  outer loop
   vertex 0.11247 0.0456366 -1
   vertex 0.117042 0.0546895 -1
   vertex 0.118502 0.0536155 -1
  endloop
 endfacet
 facet normal 0 0 -1
  outer loop
   vertex 0.11247 0.0456366 -1
   vertex 0.118502 0.0536155 -1
   vertex 0.113603 0.044661 -1
  endloop
 endfacet
 facet normal 0 0 -1
  outer loop
   vertex 0.113603 0.044661 -1
   vertex 0.118502 0.0536155 -1
   vertex 0.119894 0.0524553 -1
  endloop
 endfacet
 facet normal 0 0 -1
  outer loop
   vertex 0.113603 0.044661 -1
   vertex 0.119894 0.0524553 -1
   vertex 0.121213 0.0512132 -1
  endloop
 endfacet
endsolid tunner_wall
