solid tunner_vane
 facet normal -0.00187574 0.999998 0
  outer loop
   vertex 0.0322656 -0.0153796 -1
   vertex 0.0322656 -0.0153796 1
   vertex 0.0329051 -0.0153784 1
  endloop
 endfacet
 facet normal -0.00187574 0.999998 0
  outer loop
   vertex 0.0322656 -0.0153796 -1
   vertex 0.0329051 -0.0153784 1
   vertex 0.0329051 -0.0153784 -1
  endloop
 endfacet
 facet normal 0.0290859 0.999577 -0
  outer loop
   vertex 0.0329051 -0.0153784 -1
   vertex 0.0329051 -0.0153784 1
   vertex 0.0335443 -0.015397 1
  endloop
 endfacet
 facet normal 0.0290859 0.999577 0
  outer loop
   vertex 0.0329051 -0.0153784 -1
   vertex 0.0335443 -0.015397 1
   vertex 0.0335443 -0.015397 -1
  endloop
 endfacet
 facet normal 0.060042 0.998196 -0
  outer loop
   vertex 0.0335443 -0.015397 -1
   vertex 0.0335443 -0.015397 1
   vertex 0.0341827 -0.0154354 1
  endloop
 endfacet
 facet normal 0.060042 0.998196 0
  outer loop
   vertex 0.0335443 -0.015397 -1
   vertex 0.0341827 -0.0154354 1
   vertex 0.0341827 -0.0154354 -1
  endloop
 endfacet
 facet normal 0.0911704 0.995835 -0
  outer loop
   vertex 0.0341827 -0.0154354 -1
   vertex 0.0341827 -0.0154354 1
   vertex 0.0348195 -0.0154937 1
  endloop
 endfacet
 facet normal 0.0911704 0.995835 0
  outer loop
   vertex 0.0341827 -0.0154354 -1
   vertex 0.0348195 -0.0154937 1
   vertex 0.0348195 -0.0154937 -1
  endloop
 endfacet
 facet normal 0.12182 0.992552 -0
  outer loop
   vertex 0.0348195 -0.0154937 -1
   vertex 0.0348195 -0.0154937 1
   vertex 0.0354542 -0.0155716 1
  endloop
 endfacet
 facet normal 0.12182 0.992552 0
  outer loop
   vertex 0.0348195 -0.0154937 -1
   vertex 0.0354542 -0.0155716 1
   vertex 0.0354542 -0.0155716 -1
  endloop
 endfacet
 facet normal 0.152622 0.988285 -0
  outer loop
   vertex 0.0354542 -0.0155716 -1
   vertex 0.0354542 -0.0155716 1
   vertex 0.0360862 -0.0156692 1
  endloop
 endfacet
 facet normal 0.152622 0.988285 0
  outer loop
   vertex 0.0354542 -0.0155716 -1
   vertex 0.0360862 -0.0156692 1
   vertex 0.0360862 -0.0156692 -1
  endloop
 endfacet
 facet normal 0.183259 0.983065 -0
  outer loop
   vertex 0.0360862 -0.0156692 -1
   vertex 0.0360862 -0.0156692 1
   vertex 0.0367149 -0.0157864 1
  endloop
 endfacet
 facet normal 0.183259 0.983065 0
  outer loop
   vertex 0.0360862 -0.0156692 -1
   vertex 0.0367149 -0.0157864 1
   vertex 0.0367149 -0.0157864 -1
  endloop
 endfacet
 facet normal 0.213767 0.976885 -0
  outer loop
   vertex 0.0367149 -0.0157864 -1
   vertex 0.0367149 -0.0157864 1
   vertex 0.0373396 -0.0159231 1
  endloop
 endfacet
 facet normal 0.213767 0.976885 0
  outer loop
   vertex 0.0367149 -0.0157864 -1
   vertex 0.0373396 -0.0159231 1
   vertex 0.0373396 -0.0159231 -1
  endloop
 endfacet
 facet normal 0.243933 0.969792 -0
  outer loop
   vertex 0.0373396 -0.0159231 -1
   vertex 0.0373396 -0.0159231 1
   vertex 0.0379598 -0.0160791 1
  endloop
 endfacet
 facet normal 0.243933 0.969792 0
  outer loop
   vertex 0.0373396 -0.0159231 -1
   vertex 0.0379598 -0.0160791 1
   vertex 0.0379598 -0.0160791 -1
  endloop
 endfacet
 facet normal 0.273792 0.961789 -0
  outer loop
   vertex 0.0379598 -0.0160791 -1
   vertex 0.0379598 -0.0160791 1
   vertex 0.0385749 -0.0162542 1
  endloop
 endfacet
 facet normal 0.273792 0.961789 0
  outer loop
   vertex 0.0379598 -0.0160791 -1
   vertex 0.0385749 -0.0162542 1
   vertex 0.0385749 -0.0162542 -1
  endloop
 endfacet
 facet normal 0.303673 0.952776 -0
  outer loop
   vertex 0.0385749 -0.0162542 -1
   vertex 0.0385749 -0.0162542 1
   vertex 0.0391842 -0.0164484 1
  endloop
 endfacet
 facet normal 0.303673 0.952776 0
  outer loop
   vertex 0.0385749 -0.0162542 -1
   vertex 0.0391842 -0.0164484 1
   vertex 0.0391842 -0.0164484 -1
  endloop
 endfacet
 facet normal 0.332928 0.942952 -0
  outer loop
   vertex 0.0391842 -0.0164484 -1
   vertex 0.0391842 -0.0164484 1
   vertex 0.0397872 -0.0166613 1
  endloop
 endfacet
 facet normal 0.332928 0.942952 0
  outer loop
   vertex 0.0391842 -0.0164484 -1
   vertex 0.0397872 -0.0166613 1
   vertex 0.0397872 -0.0166613 -1
  endloop
 endfacet
 facet normal 0.362178 0.932109 -0
  outer loop
   vertex 0.0397872 -0.0166613 -1
   vertex 0.0397872 -0.0166613 1
   vertex 0.0403833 -0.0168929 1
  endloop
 endfacet
 facet normal 0.362178 0.932109 0
  outer loop
   vertex 0.0397872 -0.0166613 -1
   vertex 0.0403833 -0.0168929 1
   vertex 0.0403833 -0.0168929 -1
  endloop
 endfacet
 facet normal 0.390909 0.920429 -0
  outer loop
   vertex 0.0403833 -0.0168929 -1
   vertex 0.0403833 -0.0168929 1
   vertex 0.0409719 -0.0171429 1
  endloop
 endfacet
 facet normal 0.390909 0.920429 0
  outer loop
   vertex 0.0403833 -0.0168929 -1
   vertex 0.0409719 -0.0171429 1
   vertex 0.0409719 -0.0171429 -1
  endloop
 endfacet
 facet normal 0.419241 0.907875 -0
  outer loop
   vertex 0.0409719 -0.0171429 -1
   vertex 0.0409719 -0.0171429 1
   vertex 0.0415525 -0.017411 1
  endloop
 endfacet
 facet normal 0.419241 0.907875 0
  outer loop
   vertex 0.0409719 -0.0171429 -1
   vertex 0.0415525 -0.017411 1
   vertex 0.0415525 -0.017411 -1
  endloop
 endfacet
 facet normal 0.447287 0.89439 -0
  outer loop
   vertex 0.0415525 -0.017411 -1
   vertex 0.0415525 -0.017411 1
   vertex 0.0421244 -0.017697 1
  endloop
 endfacet
 facet normal 0.447287 0.89439 0
  outer loop
   vertex 0.0415525 -0.017411 -1
   vertex 0.0421244 -0.017697 1
   vertex 0.0421244 -0.017697 -1
  endloop
 endfacet
 facet normal 0.47473 0.880131 -0
  outer loop
   vertex 0.0421244 -0.017697 -1
   vertex 0.0421244 -0.017697 1
   vertex 0.0426873 -0.0180006 1
  endloop
 endfacet
 facet normal 0.47473 0.880131 0
  outer loop
   vertex 0.0421244 -0.017697 -1
   vertex 0.0426873 -0.0180006 1
   vertex 0.0426873 -0.0180006 -1
  endloop
 endfacet
 facet normal 0.501886 0.864934 -0
  outer loop
   vertex 0.0426873 -0.0180006 -1
   vertex 0.0426873 -0.0180006 1
   vertex 0.0432404 -0.0183216 1
  endloop
 endfacet
 facet normal 0.501886 0.864934 0
  outer loop
   vertex 0.0426873 -0.0180006 -1
   vertex 0.0432404 -0.0183216 1
   vertex 0.0432404 -0.0183216 -1
  endloop
 endfacet
 facet normal 0.528465 0.848955 -0
  outer loop
   vertex 0.0432404 -0.0183216 -1
   vertex 0.0432404 -0.0183216 1
   vertex 0.0437833 -0.0186595 1
  endloop
 endfacet
 facet normal 0.528465 0.848955 0
  outer loop
   vertex 0.0432404 -0.0183216 -1
   vertex 0.0437833 -0.0186595 1
   vertex 0.0437833 -0.0186595 -1
  endloop
 endfacet
 facet normal 0.554528 0.832165 -0
  outer loop
   vertex 0.0437833 -0.0186595 -1
   vertex 0.0437833 -0.0186595 1
   vertex 0.0443155 -0.0190142 1
  endloop
 endfacet
 facet normal 0.554528 0.832165 0
  outer loop
   vertex 0.0437833 -0.0186595 -1
   vertex 0.0443155 -0.0190142 1
   vertex 0.0443155 -0.0190142 -1
  endloop
 endfacet
 facet normal 0.580107 0.81454 -0
  outer loop
   vertex 0.0443155 -0.0190142 -1
   vertex 0.0443155 -0.0190142 1
   vertex 0.0448364 -0.0193851 1
  endloop
 endfacet
 facet normal 0.580107 0.81454 0
  outer loop
   vertex 0.0443155 -0.0190142 -1
   vertex 0.0448364 -0.0193851 1
   vertex 0.0448364 -0.0193851 -1
  endloop
 endfacet
 facet normal 0.605135 0.796123 -0
  outer loop
   vertex 0.0448364 -0.0193851 -1
   vertex 0.0448364 -0.0193851 1
   vertex 0.0453455 -0.0197721 1
  endloop
 endfacet
 facet normal 0.605135 0.796123 0
  outer loop
   vertex 0.0448364 -0.0193851 -1
   vertex 0.0453455 -0.0197721 1
   vertex 0.0453455 -0.0197721 -1
  endloop
 endfacet
 facet normal 0.629516 0.776988 -0
  outer loop
   vertex 0.0453455 -0.0197721 -1
   vertex 0.0453455 -0.0197721 1
   vertex 0.0458424 -0.0201747 1
  endloop
 endfacet
 facet normal 0.629516 0.776988 0
  outer loop
   vertex 0.0453455 -0.0197721 -1
   vertex 0.0458424 -0.0201747 1
   vertex 0.0458424 -0.0201747 -1
  endloop
 endfacet
 facet normal 0.653383 0.757027 -0
  outer loop
   vertex 0.0458424 -0.0201747 -1
   vertex 0.0458424 -0.0201747 1
   vertex 0.0463265 -0.0205925 1
  endloop
 endfacet
 facet normal 0.653383 0.757027 0
  outer loop
   vertex 0.0458424 -0.0201747 -1
   vertex 0.0463265 -0.0205925 1
   vertex 0.0463265 -0.0205925 -1
  endloop
 endfacet
 facet normal 0.676551 0.736396 -0
  outer loop
   vertex 0.0463265 -0.0205925 -1
   vertex 0.0463265 -0.0205925 1
   vertex 0.0467974 -0.0210252 1
  endloop
 endfacet
 facet normal 0.676551 0.736396 0
  outer loop
   vertex 0.0463265 -0.0205925 -1
   vertex 0.0467974 -0.0210252 1
   vertex 0.0467974 -0.0210252 -1
  endloop
 endfacet
 facet normal 0.699046 0.715077 -0
  outer loop
   vertex 0.0467974 -0.0210252 -1
   vertex 0.0467974 -0.0210252 1
   vertex 0.0472547 -0.0214722 1
  endloop
 endfacet
 facet normal 0.699046 0.715077 0
  outer loop
   vertex 0.0467974 -0.0210252 -1
   vertex 0.0472547 -0.0214722 1
   vertex 0.0472547 -0.0214722 -1
  endloop
 endfacet
 facet normal 0.720901 0.693038 -0
  outer loop
   vertex 0.0472547 -0.0214722 -1
   vertex 0.0472547 -0.0214722 1
   vertex 0.0476979 -0.0219332 1
  endloop
 endfacet
 facet normal 0.720901 0.693038 0
  outer loop
   vertex 0.0472547 -0.0214722 -1
   vertex 0.0476979 -0.0219332 1
   vertex 0.0476979 -0.0219332 -1
  endloop
 endfacet
 facet normal 0.742046 0.670349 -0
  outer loop
   vertex 0.0476979 -0.0219332 -1
   vertex 0.0476979 -0.0219332 1
   vertex 0.0481266 -0.0224078 1
  endloop
 endfacet
 facet normal 0.742046 0.670349 0
  outer loop
   vertex 0.0476979 -0.0219332 -1
   vertex 0.0481266 -0.0224078 1
   vertex 0.0481266 -0.0224078 -1
  endloop
 endfacet
 facet normal 0.762544 0.646936 -0
  outer loop
   vertex 0.0481266 -0.0224078 -1
   vertex 0.0481266 -0.0224078 1
   vertex 0.0485403 -0.0228954 1
  endloop
 endfacet
 facet normal 0.762544 0.646936 0
  outer loop
   vertex 0.0481266 -0.0224078 -1
   vertex 0.0485403 -0.0228954 1
   vertex 0.0485403 -0.0228954 -1
  endloop
 endfacet
 facet normal 0.782236 0.622982 -0
  outer loop
   vertex 0.0485403 -0.0228954 -1
   vertex 0.0485403 -0.0228954 1
   vertex 0.0489387 -0.0233957 1
  endloop
 endfacet
 facet normal 0.782236 0.622982 0
  outer loop
   vertex 0.0485403 -0.0228954 -1
   vertex 0.0489387 -0.0233957 1
   vertex 0.0489387 -0.0233957 -1
  endloop
 endfacet
 facet normal 0.801172 0.598434 -0
  outer loop
   vertex 0.0489387 -0.0233957 -1
   vertex 0.0489387 -0.0233957 1
   vertex 0.0493214 -0.023908 1
  endloop
 endfacet
 facet normal 0.801172 0.598434 0
  outer loop
   vertex 0.0489387 -0.0233957 -1
   vertex 0.0493214 -0.023908 1
   vertex 0.0493214 -0.023908 -1
  endloop
 endfacet
 facet normal 0.819372 0.573262 -0
  outer loop
   vertex 0.0493214 -0.023908 -1
   vertex 0.0493214 -0.023908 1
   vertex 0.049688 -0.024432 1
  endloop
 endfacet
 facet normal 0.819372 0.573262 0
  outer loop
   vertex 0.0493214 -0.023908 -1
   vertex 0.049688 -0.024432 1
   vertex 0.049688 -0.024432 -1
  endloop
 endfacet
 facet normal 0.83674 0.5476 -0
  outer loop
   vertex 0.049688 -0.024432 -1
   vertex 0.049688 -0.024432 1
   vertex 0.0500382 -0.0249671 1
  endloop
 endfacet
 facet normal 0.83674 0.5476 0
  outer loop
   vertex 0.049688 -0.024432 -1
   vertex 0.0500382 -0.0249671 1
   vertex 0.0500382 -0.0249671 -1
  endloop
 endfacet
 facet normal 0.853349 0.52134 -0
  outer loop
   vertex 0.0500382 -0.0249671 -1
   vertex 0.0500382 -0.0249671 1
   vertex 0.0503716 -0.0255128 1
  endloop
 endfacet
 facet normal 0.853349 0.52134 0
  outer loop
   vertex 0.0500382 -0.0249671 -1
   vertex 0.0503716 -0.0255128 1
   vertex 0.0503716 -0.0255128 -1
  endloop
 endfacet
 facet normal 0.869187 0.494483 -0
  outer loop
   vertex 0.0503716 -0.0255128 -1
   vertex 0.0503716 -0.0255128 1
   vertex 0.0506878 -0.0260686 1
  endloop
 endfacet
 facet normal 0.869187 0.494483 0
  outer loop
   vertex 0.0503716 -0.0255128 -1
   vertex 0.0506878 -0.0260686 1
   vertex 0.0506878 -0.0260686 -1
  endloop
 endfacet
 facet normal 0.884051 0.467391 -0
  outer loop
   vertex 0.0506878 -0.0260686 -1
   vertex 0.0506878 -0.0260686 1
   vertex 0.0509867 -0.026634 1
  endloop
 endfacet
 facet normal 0.884051 0.467391 0
  outer loop
   vertex 0.0506878 -0.0260686 -1
   vertex 0.0509867 -0.026634 1
   vertex 0.0509867 -0.026634 -1
  endloop
 endfacet
 facet normal 0.898137 0.439716 -0
  outer loop
   vertex 0.0509867 -0.026634 -1
   vertex 0.0509867 -0.026634 1
   vertex 0.0512679 -0.0272083 1
  endloop
 endfacet
 facet normal 0.898137 0.439716 0
  outer loop
   vertex 0.0509867 -0.026634 -1
   vertex 0.0512679 -0.0272083 1
   vertex 0.0512679 -0.0272083 -1
  endloop
 endfacet
 facet normal 0.911316 0.411709 -0
  outer loop
   vertex 0.0512679 -0.0272083 -1
   vertex 0.0512679 -0.0272083 1
   vertex 0.0515312 -0.0277912 1
  endloop
 endfacet
 facet normal 0.911316 0.411709 0
  outer loop
   vertex 0.0512679 -0.0272083 -1
   vertex 0.0515312 -0.0277912 1
   vertex 0.0515312 -0.0277912 -1
  endloop
 endfacet
 facet normal 0.923697 0.383123 -0
  outer loop
   vertex 0.0515312 -0.0277912 -1
   vertex 0.0515312 -0.0277912 1
   vertex 0.0517762 -0.0283818 1
  endloop
 endfacet
 facet normal 0.923697 0.383123 0
  outer loop
   vertex 0.0515312 -0.0277912 -1
   vertex 0.0517762 -0.0283818 1
   vertex 0.0517762 -0.0283818 -1
  endloop
 endfacet
 facet normal 0.935118 0.354335 -0
  outer loop
   vertex 0.0517762 -0.0283818 -1
   vertex 0.0517762 -0.0283818 1
   vertex 0.0520028 -0.0289799 1
  endloop
 endfacet
 facet normal 0.935118 0.354335 0
  outer loop
   vertex 0.0517762 -0.0283818 -1
   vertex 0.0520028 -0.0289799 1
   vertex 0.0520028 -0.0289799 -1
  endloop
 endfacet
 facet normal 0.945681 0.325096 -0
  outer loop
   vertex 0.0520028 -0.0289799 -1
   vertex 0.0520028 -0.0289799 1
   vertex 0.0522107 -0.0295846 1
  endloop
 endfacet
 facet normal 0.945681 0.325096 0
  outer loop
   vertex 0.0520028 -0.0289799 -1
   vertex 0.0522107 -0.0295846 1
   vertex 0.0522107 -0.0295846 -1
  endloop
 endfacet
 facet normal 0.955328 0.295548 -0
  outer loop
   vertex 0.0522107 -0.0295846 -1
   vertex 0.0522107 -0.0295846 1
   vertex 0.0523997 -0.0301956 1
  endloop
 endfacet
 facet normal 0.955328 0.295548 0
  outer loop
   vertex 0.0522107 -0.0295846 -1
   vertex 0.0523997 -0.0301956 1
   vertex 0.0523997 -0.0301956 -1
  endloop
 endfacet
 facet normal 0.964019 0.265833 -0
  outer loop
   vertex 0.0523997 -0.0301956 -1
   vertex 0.0523997 -0.0301956 1
   vertex 0.0525697 -0.030812 1
  endloop
 endfacet
 facet normal 0.964019 0.265833 0
  outer loop
   vertex 0.0523997 -0.0301956 -1
   vertex 0.0525697 -0.030812 1
   vertex 0.0525697 -0.030812 -1
  endloop
 endfacet
 facet normal 0.971835 0.235664 -0
  outer loop
   vertex 0.0525697 -0.030812 -1
   vertex 0.0525697 -0.030812 1
   vertex 0.0527204 -0.0314335 1
  endloop
 endfacet
 facet normal 0.971835 0.235664 0
  outer loop
   vertex 0.0525697 -0.030812 -1
   vertex 0.0527204 -0.0314335 1
   vertex 0.0527204 -0.0314335 -1
  endloop
 endfacet
 facet normal 0.978662 0.205475 -0
  outer loop
   vertex 0.0527204 -0.0314335 -1
   vertex 0.0527204 -0.0314335 1
   vertex 0.0528518 -0.0320593 1
  endloop
 endfacet
 facet normal 0.978662 0.205475 0
  outer loop
   vertex 0.0527204 -0.0314335 -1
   vertex 0.0528518 -0.0320593 1
   vertex 0.0528518 -0.0320593 -1
  endloop
 endfacet
 facet normal 0.984571 0.174987 -0
  outer loop
   vertex 0.0528518 -0.0320593 -1
   vertex 0.0528518 -0.0320593 1
   vertex 0.0529637 -0.032689 1
  endloop
 endfacet
 facet normal 0.984571 0.174987 0
  outer loop
   vertex 0.0528518 -0.0320593 -1
   vertex 0.0529637 -0.032689 1
   vertex 0.0529637 -0.032689 -1
  endloop
 endfacet
 facet normal 0.989509 0.144474 -0
  outer loop
   vertex 0.0529637 -0.032689 -1
   vertex 0.0529637 -0.032689 1
   vertex 0.0530561 -0.0333218 1
  endloop
 endfacet
 facet normal 0.989509 0.144474 0
  outer loop
   vertex 0.0529637 -0.032689 -1
   vertex 0.0530561 -0.0333218 1
   vertex 0.0530561 -0.0333218 -1
  endloop
 endfacet
 facet normal 0.993535 0.113525 -0
  outer loop
   vertex 0.0530561 -0.0333218 -1
   vertex 0.0530561 -0.0333218 1
   vertex 0.0531287 -0.0339572 1
  endloop
 endfacet
 facet normal 0.993535 0.113525 0
  outer loop
   vertex 0.0530561 -0.0333218 -1
   vertex 0.0531287 -0.0339572 1
   vertex 0.0531287 -0.0339572 -1
  endloop
 endfacet
 facet normal 0.996572 0.0827271 -0
  outer loop
   vertex 0.0531287 -0.0339572 -1
   vertex 0.0531287 -0.0339572 1
   vertex 0.0531816 -0.0345944 1
  endloop
 endfacet
 facet normal 0.996572 0.0827271 0
  outer loop
   vertex 0.0531287 -0.0339572 -1
   vertex 0.0531816 -0.0345944 1
   vertex 0.0531816 -0.0345944 -1
  endloop
 endfacet
 facet normal 0.99866 0.0517581 -0
  outer loop
   vertex 0.0531816 -0.0345944 -1
   vertex 0.0531816 -0.0345944 1
   vertex 0.0532147 -0.0352331 1
  endloop
 endfacet
 facet normal 0.99866 0.0517581 0
  outer loop
   vertex 0.0531816 -0.0345944 -1
   vertex 0.0532147 -0.0352331 1
   vertex 0.0532147 -0.0352331 -1
  endloop
 endfacet
 facet normal 0.999784 0.0207945 -0
  outer loop
   vertex 0.0532147 -0.0352331 -1
   vertex 0.0532147 -0.0352331 1
   vertex 0.053228 -0.0358725 1
  endloop
 endfacet
 facet normal 0.999784 0.0207945 0
  outer loop
   vertex 0.0532147 -0.0352331 -1
   vertex 0.053228 -0.0358725 1
   vertex 0.053228 -0.0358725 -1
  endloop
 endfacet
 facet normal 0.999945 -0.0104748 0
  outer loop
   vertex 0.053228 -0.0358725 -1
   vertex 0.053228 -0.0358725 1
   vertex 0.0532213 -0.0365119 1
  endloop
 endfacet
 facet normal 0.999945 -0.0104748 0
  outer loop
   vertex 0.053228 -0.0358725 -1
   vertex 0.0532213 -0.0365119 1
   vertex 0.0532213 -0.0365119 -1
  endloop
 endfacet
 facet normal 0.999148 -0.0412818 0
  outer loop
   vertex 0.0532213 -0.0365119 -1
   vertex 0.0532213 -0.0365119 1
   vertex 0.0531949 -0.0371509 1
  endloop
 endfacet
 facet normal 0.999148 -0.0412818 0
  outer loop
   vertex 0.0532213 -0.0365119 -1
   vertex 0.0531949 -0.0371509 1
   vertex 0.0531949 -0.0371509 -1
  endloop
 endfacet
 facet normal 0.997376 -0.0723995 0
  outer loop
   vertex 0.0531949 -0.0371509 -1
   vertex 0.0531949 -0.0371509 1
   vertex 0.0531486 -0.0377887 1
  endloop
 endfacet
 facet normal 0.997376 -0.0723995 0
  outer loop
   vertex 0.0531949 -0.0371509 -1
   vertex 0.0531486 -0.0377887 1
   vertex 0.0531486 -0.0377887 -1
  endloop
 endfacet
 facet normal 0.99466 -0.103205 0
  outer loop
   vertex 0.0531486 -0.0377887 -1
   vertex 0.0531486 -0.0377887 1
   vertex 0.0530826 -0.0384248 1
  endloop
 endfacet
 facet normal 0.99466 -0.103205 0
  outer loop
   vertex 0.0531486 -0.0377887 -1
   vertex 0.0530826 -0.0384248 1
   vertex 0.0530826 -0.0384248 -1
  endloop
 endfacet
 facet normal -0.156488 -0.98768 -0
  outer loop
   vertex 0.0521844 -0.0390774 1
   vertex 0.0517893 -0.0390148 1
   vertex 0.0521844 -0.0390774 -1
  endloop
 endfacet
 facet normal -0.156488 -0.98768 0
  outer loop
   vertex 0.0521844 -0.0390774 -1
   vertex 0.0517893 -0.0390148 1
   vertex 0.0517893 -0.0390148 -1
  endloop
 endfacet
 facet normal -0.990058 0.140659 0
  outer loop
   vertex 0.0517893 -0.0390148 -1
   vertex 0.0517893 -0.0390148 1
   vertex 0.051877 -0.0383975 -1
  endloop
 endfacet
 facet normal -0.990058 0.140659 0
  outer loop
   vertex 0.051877 -0.0383975 -1
   vertex 0.0517893 -0.0390148 1
   vertex 0.051877 -0.0383975 1
  endloop
 endfacet
 facet normal -0.994089 0.108565 0
  outer loop
   vertex 0.051877 -0.0383975 -1
   vertex 0.051877 -0.0383975 1
   vertex 0.0519447 -0.0377776 -1
  endloop
 endfacet
 facet normal -0.994089 0.108565 0
  outer loop
   vertex 0.0519447 -0.0377776 -1
   vertex 0.051877 -0.0383975 1
   vertex 0.0519447 -0.0377776 1
  endloop
 endfacet
 facet normal -0.997056 0.0766708 0
  outer loop
   vertex 0.0519447 -0.0377776 -1
   vertex 0.0519447 -0.0377776 1
   vertex 0.0519925 -0.037156 -1
  endloop
 endfacet
 facet normal -0.997056 0.0766708 0
  outer loop
   vertex 0.0519925 -0.037156 -1
   vertex 0.0519447 -0.0377776 1
   vertex 0.0519925 -0.037156 1
  endloop
 endfacet
 facet normal -0.999005 0.0445899 0
  outer loop
   vertex 0.0519925 -0.037156 -1
   vertex 0.0519925 -0.037156 1
   vertex 0.0520203 -0.0365331 -1
  endloop
 endfacet
 facet normal -0.999005 0.0445899 0
  outer loop
   vertex 0.0520203 -0.0365331 -1
   vertex 0.0519925 -0.037156 1
   vertex 0.0520203 -0.0365331 1
  endloop
 endfacet
 facet normal -0.999924 0.0123488 0
  outer loop
   vertex 0.0520203 -0.0365331 -1
   vertex 0.0520203 -0.0365331 1
   vertex 0.052028 -0.0359096 -1
  endloop
 endfacet
 facet normal -0.999924 0.0123488 0
  outer loop
   vertex 0.052028 -0.0359096 -1
   vertex 0.0520203 -0.0365331 1
   vertex 0.052028 -0.0359096 1
  endloop
 endfacet
 facet normal -0.999809 -0.0195678 0
  outer loop
   vertex 0.052028 -0.0359096 -1
   vertex 0.052028 -0.0359096 1
   vertex 0.0520158 -0.0352862 -1
  endloop
 endfacet
 facet normal -0.999809 -0.0195678 0
  outer loop
   vertex 0.0520158 -0.0352862 -1
   vertex 0.052028 -0.0359096 1
   vertex 0.0520158 -0.0352862 1
  endloop
 endfacet
 facet normal -0.998657 -0.0518018 0
  outer loop
   vertex 0.0520158 -0.0352862 -1
   vertex 0.0520158 -0.0352862 1
   vertex 0.0519835 -0.0346636 -1
  endloop
 endfacet
 facet normal -0.998657 -0.0518018 0
  outer loop
   vertex 0.0519835 -0.0346636 -1
   vertex 0.0520158 -0.0352862 1
   vertex 0.0519835 -0.0346636 1
  endloop
 endfacet
 facet normal -0.996489 -0.083725 0
  outer loop
   vertex 0.0519835 -0.0346636 -1
   vertex 0.0519835 -0.0346636 1
   vertex 0.0519313 -0.0340423 -1
  endloop
 endfacet
 facet normal -0.996489 -0.083725 0
  outer loop
   vertex 0.0519313 -0.0340423 -1
   vertex 0.0519835 -0.0346636 1
   vertex 0.0519313 -0.0340423 1
  endloop
 endfacet
 facet normal -0.993255 -0.115954 0
  outer loop
   vertex 0.0519313 -0.0340423 -1
   vertex 0.0519313 -0.0340423 1
   vertex 0.051859 -0.0334229 -1
  endloop
 endfacet
 facet normal -0.993255 -0.115954 0
  outer loop
   vertex 0.051859 -0.0334229 -1
   vertex 0.0519313 -0.0340423 1
   vertex 0.051859 -0.0334229 1
  endloop
 endfacet
 facet normal -0.989054 -0.147555 0
  outer loop
   vertex 0.051859 -0.0334229 -1
   vertex 0.051859 -0.0334229 1
   vertex 0.051767 -0.0328063 -1
  endloop
 endfacet
 facet normal -0.989054 -0.147555 0
  outer loop
   vertex 0.051767 -0.0328063 -1
   vertex 0.051859 -0.0334229 1
   vertex 0.051767 -0.0328063 1
  endloop
 endfacet
 facet normal -0.983763 -0.179473 0
  outer loop
   vertex 0.051767 -0.0328063 -1
   vertex 0.051767 -0.0328063 1
   vertex 0.0516551 -0.0321929 -1
  endloop
 endfacet
 facet normal -0.983763 -0.179473 0
  outer loop
   vertex 0.0516551 -0.0321929 -1
   vertex 0.051767 -0.0328063 1
   vertex 0.0516551 -0.0321929 1
  endloop
 endfacet
 facet normal -0.977508 -0.2109 0
  outer loop
   vertex 0.0516551 -0.0321929 -1
   vertex 0.0516551 -0.0321929 1
   vertex 0.0515236 -0.0315834 -1
  endloop
 endfacet
 facet normal -0.977508 -0.2109 0
  outer loop
   vertex 0.0515236 -0.0315834 -1
   vertex 0.0516551 -0.0321929 1
   vertex 0.0515236 -0.0315834 1
  endloop
 endfacet
 facet normal -0.970232 -0.242178 0
  outer loop
   vertex 0.0515236 -0.0315834 -1
   vertex 0.0515236 -0.0315834 1
   vertex 0.0513726 -0.0309785 -1
  endloop
 endfacet
 facet normal -0.970232 -0.242178 0
  outer loop
   vertex 0.0513726 -0.0309785 -1
   vertex 0.0515236 -0.0315834 1
   vertex 0.0513726 -0.0309785 1
  endloop
 endfacet
 facet normal -0.961974 -0.273142 0
  outer loop
   vertex 0.0513726 -0.0309785 -1
   vertex 0.0513726 -0.0309785 1
   vertex 0.0512023 -0.0303787 -1
  endloop
 endfacet
 facet normal -0.961974 -0.273142 0
  outer loop
   vertex 0.0512023 -0.0303787 -1
   vertex 0.0513726 -0.0309785 1
   vertex 0.0512023 -0.0303787 1
  endloop
 endfacet
 facet normal -0.952646 -0.304081 0
  outer loop
   vertex 0.0512023 -0.0303787 -1
   vertex 0.0512023 -0.0303787 1
   vertex 0.0510127 -0.0297847 -1
  endloop
 endfacet
 facet normal -0.952646 -0.304081 0
  outer loop
   vertex 0.0510127 -0.0297847 -1
   vertex 0.0512023 -0.0303787 1
   vertex 0.0510127 -0.0297847 1
  endloop
 endfacet
 facet normal -0.942431 -0.334401 0
  outer loop
   vertex 0.0510127 -0.0297847 -1
   vertex 0.0510127 -0.0297847 1
   vertex 0.0508042 -0.0291971 -1
  endloop
 endfacet
 facet normal -0.942431 -0.334401 0
  outer loop
   vertex 0.0508042 -0.0291971 -1
   vertex 0.0510127 -0.0297847 1
   vertex 0.0508042 -0.0291971 1
  endloop
 endfacet
 facet normal -0.931182 -0.364554 0
  outer loop
   vertex 0.0508042 -0.0291971 -1
   vertex 0.0508042 -0.0291971 1
   vertex 0.0505769 -0.0286165 -1
  endloop
 endfacet
 facet normal -0.931182 -0.364554 0
  outer loop
   vertex 0.0505769 -0.0286165 -1
   vertex 0.0508042 -0.0291971 1
   vertex 0.0505769 -0.0286165 1
  endloop
 endfacet
 facet normal -0.919011 -0.394233 0
  outer loop
   vertex 0.0505769 -0.0286165 -1
   vertex 0.0505769 -0.0286165 1
   vertex 0.0503311 -0.0280435 -1
  endloop
 endfacet
 facet normal -0.919011 -0.394233 0
  outer loop
   vertex 0.0503311 -0.0280435 -1
   vertex 0.0505769 -0.0286165 1
   vertex 0.0503311 -0.0280435 1
  endloop
 endfacet
 facet normal -0.905797 -0.423713 0
  outer loop
   vertex 0.0503311 -0.0280435 -1
   vertex 0.0503311 -0.0280435 1
   vertex 0.0500669 -0.0274787 -1
  endloop
 endfacet
 facet normal -0.905797 -0.423713 0
  outer loop
   vertex 0.0500669 -0.0274787 -1
   vertex 0.0503311 -0.0280435 1
   vertex 0.0500669 -0.0274787 1
  endloop
 endfacet
 facet normal -0.891787 -0.452456 0
  outer loop
   vertex 0.0500669 -0.0274787 -1
   vertex 0.0500669 -0.0274787 1
   vertex 0.0497848 -0.0269227 -1
  endloop
 endfacet
 facet normal -0.891787 -0.452456 0
  outer loop
   vertex 0.0497848 -0.0269227 -1
   vertex 0.0500669 -0.0274787 1
   vertex 0.0497848 -0.0269227 1
  endloop
 endfacet
 facet normal -0.876737 -0.480971 0
  outer loop
   vertex 0.0497848 -0.0269227 -1
   vertex 0.0497848 -0.0269227 1
   vertex 0.0494849 -0.026376 -1
  endloop
 endfacet
 facet normal -0.876737 -0.480971 0
  outer loop
   vertex 0.0494849 -0.026376 -1
   vertex 0.0497848 -0.0269227 1
   vertex 0.0494849 -0.026376 1
  endloop
 endfacet
 facet normal -0.860902 -0.508771 0
  outer loop
   vertex 0.0494849 -0.026376 -1
   vertex 0.0494849 -0.026376 1
   vertex 0.0491677 -0.0258393 -1
  endloop
 endfacet
 facet normal -0.860902 -0.508771 0
  outer loop
   vertex 0.0491677 -0.0258393 -1
   vertex 0.0494849 -0.026376 1
   vertex 0.0491677 -0.0258393 1
  endloop
 endfacet
 facet normal -0.844029 -0.536297 0
  outer loop
   vertex 0.0491677 -0.0258393 -1
   vertex 0.0491677 -0.0258393 1
   vertex 0.0488333 -0.025313 -1
  endloop
 endfacet
 facet normal -0.844029 -0.536297 0
  outer loop
   vertex 0.0488333 -0.025313 -1
   vertex 0.0491677 -0.0258393 1
   vertex 0.0488333 -0.025313 1
  endloop
 endfacet
 facet normal -0.826386 -0.563104 0
  outer loop
   vertex 0.0488333 -0.025313 -1
   vertex 0.0488333 -0.025313 1
   vertex 0.0484822 -0.0247977 -1
  endloop
 endfacet
 facet normal -0.826386 -0.563104 0
  outer loop
   vertex 0.0484822 -0.0247977 -1
   vertex 0.0488333 -0.025313 1
   vertex 0.0484822 -0.0247977 1
  endloop
 endfacet
 facet normal -0.807934 -0.589273 0
  outer loop
   vertex 0.0484822 -0.0247977 -1
   vertex 0.0484822 -0.0247977 1
   vertex 0.0481148 -0.024294 -1
  endloop
 endfacet
 facet normal -0.807934 -0.589273 0
  outer loop
   vertex 0.0481148 -0.024294 -1
   vertex 0.0484822 -0.0247977 1
   vertex 0.0481148 -0.024294 1
  endloop
 endfacet
 facet normal -0.788486 -0.615052 0
  outer loop
   vertex 0.0481148 -0.024294 -1
   vertex 0.0481148 -0.024294 1
   vertex 0.0477313 -0.0238024 -1
  endloop
 endfacet
 facet normal -0.788486 -0.615052 0
  outer loop
   vertex 0.0477313 -0.0238024 -1
   vertex 0.0481148 -0.024294 1
   vertex 0.0477313 -0.0238024 1
  endloop
 endfacet
 facet normal -0.768408 -0.639961 0
  outer loop
   vertex 0.0477313 -0.0238024 -1
   vertex 0.0477313 -0.0238024 1
   vertex 0.0473323 -0.0233233 -1
  endloop
 endfacet
 facet normal -0.768408 -0.639961 0
  outer loop
   vertex 0.0473323 -0.0233233 -1
   vertex 0.0477313 -0.0238024 1
   vertex 0.0473323 -0.0233233 1
  endloop
 endfacet
 facet normal -0.747354 -0.664426 0
  outer loop
   vertex 0.0473323 -0.0233233 -1
   vertex 0.0473323 -0.0233233 1
   vertex 0.046918 -0.0228573 -1
  endloop
 endfacet
 facet normal -0.747354 -0.664426 0
  outer loop
   vertex 0.046918 -0.0228573 -1
   vertex 0.0473323 -0.0233233 1
   vertex 0.046918 -0.0228573 1
  endloop
 endfacet
 facet normal -0.725669 -0.688044 0
  outer loop
   vertex 0.046918 -0.0228573 -1
   vertex 0.046918 -0.0228573 1
   vertex 0.046489 -0.0224048 -1
  endloop
 endfacet
 facet normal -0.725669 -0.688044 0
  outer loop
   vertex 0.046489 -0.0224048 -1
   vertex 0.046918 -0.0228573 1
   vertex 0.046489 -0.0224048 1
  endloop
 endfacet
 facet normal -0.703189 -0.711003 0
  outer loop
   vertex 0.046489 -0.0224048 -1
   vertex 0.046489 -0.0224048 1
   vertex 0.0460457 -0.0219664 -1
  endloop
 endfacet
 facet normal -0.703189 -0.711003 0
  outer loop
   vertex 0.0460457 -0.0219664 -1
   vertex 0.046489 -0.0224048 1
   vertex 0.0460457 -0.0219664 1
  endloop
 endfacet
 facet normal -0.679968 -0.733242 0
  outer loop
   vertex 0.0460457 -0.0219664 -1
   vertex 0.0460457 -0.0219664 1
   vertex 0.0455885 -0.0215424 -1
  endloop
 endfacet
 facet normal -0.679968 -0.733242 0
  outer loop
   vertex 0.0455885 -0.0215424 -1
   vertex 0.0460457 -0.0219664 1
   vertex 0.0455885 -0.0215424 1
  endloop
 endfacet
 facet normal -0.656114 -0.754662 0
  outer loop
   vertex 0.0455885 -0.0215424 -1
   vertex 0.0455885 -0.0215424 1
   vertex 0.045118 -0.0211333 -1
  endloop
 endfacet
 facet normal -0.656114 -0.754662 0
  outer loop
   vertex 0.045118 -0.0211333 -1
   vertex 0.0455885 -0.0215424 1
   vertex 0.045118 -0.0211333 1
  endloop
 endfacet
 facet normal -0.631447 -0.775419 0
  outer loop
   vertex 0.045118 -0.0211333 -1
   vertex 0.045118 -0.0211333 1
   vertex 0.0446345 -0.0207396 -1
  endloop
 endfacet
 facet normal -0.631447 -0.775419 0
  outer loop
   vertex 0.0446345 -0.0207396 -1
   vertex 0.045118 -0.0211333 1
   vertex 0.0446345 -0.0207396 1
  endloop
 endfacet
 facet normal -0.606207 -0.795307 0
  outer loop
   vertex 0.0446345 -0.0207396 -1
   vertex 0.0446345 -0.0207396 1
   vertex 0.0441386 -0.0203616 -1
  endloop
 endfacet
 facet normal -0.606207 -0.795307 0
  outer loop
   vertex 0.0441386 -0.0203616 -1
   vertex 0.0446345 -0.0207396 1
   vertex 0.0441386 -0.0203616 1
  endloop
 endfacet
 facet normal -0.580429 -0.814311 0
  outer loop
   vertex 0.0441386 -0.0203616 -1
   vertex 0.0441386 -0.0203616 1
   vertex 0.0436309 -0.0199998 -1
  endloop
 endfacet
 facet normal -0.580429 -0.814311 0
  outer loop
   vertex 0.0436309 -0.0199998 -1
   vertex 0.0441386 -0.0203616 1
   vertex 0.0436309 -0.0199998 1
  endloop
 endfacet
 facet normal -0.553915 -0.832573 0
  outer loop
   vertex 0.0436309 -0.0199998 -1
   vertex 0.0436309 -0.0199998 1
   vertex 0.0431118 -0.0196544 -1
  endloop
 endfacet
 facet normal -0.553915 -0.832573 0
  outer loop
   vertex 0.0431118 -0.0196544 -1
   vertex 0.0436309 -0.0199998 1
   vertex 0.0431118 -0.0196544 1
  endloop
 endfacet
 facet normal -0.526835 -0.849968 0
  outer loop
   vertex 0.0431118 -0.0196544 -1
   vertex 0.0431118 -0.0196544 1
   vertex 0.0425818 -0.0193259 -1
  endloop
 endfacet
 facet normal -0.526835 -0.849968 0
  outer loop
   vertex 0.0425818 -0.0193259 -1
   vertex 0.0431118 -0.0196544 1
   vertex 0.0425818 -0.0193259 1
  endloop
 endfacet
 facet normal -0.49932 -0.866417 0
  outer loop
   vertex 0.0425818 -0.0193259 -1
   vertex 0.0425818 -0.0193259 1
   vertex 0.0420416 -0.0190146 -1
  endloop
 endfacet
 facet normal -0.49932 -0.866417 0
  outer loop
   vertex 0.0420416 -0.0190146 -1
   vertex 0.0425818 -0.0193259 1
   vertex 0.0420416 -0.0190146 1
  endloop
 endfacet
 facet normal -0.471211 -0.88202 0
  outer loop
   vertex 0.0420416 -0.0190146 -1
   vertex 0.0420416 -0.0190146 1
   vertex 0.0414917 -0.0187208 -1
  endloop
 endfacet
 facet normal -0.471211 -0.88202 0
  outer loop
   vertex 0.0414917 -0.0187208 -1
   vertex 0.0420416 -0.0190146 1
   vertex 0.0414917 -0.0187208 1
  endloop
 endfacet
 facet normal -0.442629 -0.896705 0
  outer loop
   vertex 0.0414917 -0.0187208 -1
   vertex 0.0414917 -0.0187208 1
   vertex 0.0409326 -0.0184448 -1
  endloop
 endfacet
 facet normal -0.442629 -0.896705 0
  outer loop
   vertex 0.0409326 -0.0184448 -1
   vertex 0.0414917 -0.0187208 1
   vertex 0.0409326 -0.0184448 1
  endloop
 endfacet
 facet normal -0.413556 -0.910479 0
  outer loop
   vertex 0.0409326 -0.0184448 -1
   vertex 0.0409326 -0.0184448 1
   vertex 0.0403649 -0.0181869 -1
  endloop
 endfacet
 facet normal -0.413556 -0.910479 0
  outer loop
   vertex 0.0403649 -0.0181869 -1
   vertex 0.0409326 -0.0184448 1
   vertex 0.0403649 -0.0181869 1
  endloop
 endfacet
 facet normal -0.384089 -0.923296 0
  outer loop
   vertex 0.0403649 -0.0181869 -1
   vertex 0.0403649 -0.0181869 1
   vertex 0.0397892 -0.0179475 -1
  endloop
 endfacet
 facet normal -0.384089 -0.923296 0
  outer loop
   vertex 0.0397892 -0.0179475 -1
   vertex 0.0403649 -0.0181869 1
   vertex 0.0397892 -0.0179475 1
  endloop
 endfacet
 facet normal -0.354224 -0.93516 0
  outer loop
   vertex 0.0397892 -0.0179475 -1
   vertex 0.0397892 -0.0179475 1
   vertex 0.0392061 -0.0177266 -1
  endloop
 endfacet
 facet normal -0.354224 -0.93516 0
  outer loop
   vertex 0.0392061 -0.0177266 -1
   vertex 0.0397892 -0.0179475 1
   vertex 0.0392061 -0.0177266 1
  endloop
 endfacet
 facet normal -0.324056 -0.946038 0
  outer loop
   vertex 0.0392061 -0.0177266 -1
   vertex 0.0392061 -0.0177266 1
   vertex 0.0386163 -0.0175246 -1
  endloop
 endfacet
 facet normal -0.324056 -0.946038 0
  outer loop
   vertex 0.0386163 -0.0175246 -1
   vertex 0.0392061 -0.0177266 1
   vertex 0.0386163 -0.0175246 1
  endloop
 endfacet
 facet normal -0.293376 -0.955997 0
  outer loop
   vertex 0.0386163 -0.0175246 -1
   vertex 0.0386163 -0.0175246 1
   vertex 0.0380202 -0.0173416 -1
  endloop
 endfacet
 facet normal -0.293376 -0.955997 0
  outer loop
   vertex 0.0380202 -0.0173416 -1
   vertex 0.0386163 -0.0175246 1
   vertex 0.0380202 -0.0173416 1
  endloop
 endfacet
 facet normal -0.262635 -0.964895 0
  outer loop
   vertex 0.0380202 -0.0173416 -1
   vertex 0.0380202 -0.0173416 1
   vertex 0.0374186 -0.0171779 -1
  endloop
 endfacet
 facet normal -0.262635 -0.964895 0
  outer loop
   vertex 0.0374186 -0.0171779 -1
   vertex 0.0380202 -0.0173416 1
   vertex 0.0374186 -0.0171779 1
  endloop
 endfacet
 facet normal -0.231486 -0.972838 0
  outer loop
   vertex 0.0374186 -0.0171779 -1
   vertex 0.0374186 -0.0171779 1
   vertex 0.036812 -0.0170335 -1
  endloop
 endfacet
 facet normal -0.231486 -0.972838 0
  outer loop
   vertex 0.036812 -0.0170335 -1
   vertex 0.0374186 -0.0171779 1
   vertex 0.036812 -0.0170335 1
  endloop
 endfacet
 facet normal -0.200016 -0.979793 0
  outer loop
   vertex 0.036812 -0.0170335 -1
   vertex 0.036812 -0.0170335 1
   vertex 0.0362011 -0.0169088 -1
  endloop
 endfacet
 facet normal -0.200016 -0.979793 0
  outer loop
   vertex 0.0362011 -0.0169088 -1
   vertex 0.036812 -0.0170335 1
   vertex 0.0362011 -0.0169088 1
  endloop
 endfacet
 facet normal -0.168497 -0.985702 0
  outer loop
   vertex 0.0362011 -0.0169088 -1
   vertex 0.0362011 -0.0169088 1
   vertex 0.0355865 -0.0168038 -1
  endloop
 endfacet
 facet normal -0.168497 -0.985702 0
  outer loop
   vertex 0.0355865 -0.0168038 -1
   vertex 0.0362011 -0.0169088 1
   vertex 0.0355865 -0.0168038 1
  endloop
 endfacet
 facet normal -0.136675 -0.990616 0
  outer loop
   vertex 0.0355865 -0.0168038 -1
   vertex 0.0355865 -0.0168038 1
   vertex 0.0349689 -0.0167186 -1
  endloop
 endfacet
 facet normal -0.136675 -0.990616 0
  outer loop
   vertex 0.0349689 -0.0167186 -1
   vertex 0.0355865 -0.0168038 1
   vertex 0.0349689 -0.0167186 1
  endloop
 endfacet
 facet normal -0.104965 -0.994476 0
  outer loop
   vertex 0.0349689 -0.0167186 -1
   vertex 0.0349689 -0.0167186 1
   vertex 0.0343488 -0.0166531 -1
  endloop
 endfacet
 facet normal -0.104965 -0.994476 0
  outer loop
   vertex 0.0343488 -0.0166531 -1
   vertex 0.0349689 -0.0167186 1
   vertex 0.0343488 -0.0166531 1
  endloop
 endfacet
 facet normal -0.0726481 -0.997358 0
  outer loop
   vertex 0.0343488 -0.0166531 -1
   vertex 0.0343488 -0.0166531 1
   vertex 0.0337269 -0.0166078 -1
  endloop
 endfacet
 facet normal -0.0726481 -0.997358 0
  outer loop
   vertex 0.0337269 -0.0166078 -1
   vertex 0.0343488 -0.0166531 1
   vertex 0.0337269 -0.0166078 1
  endloop
 endfacet
 facet normal -0.0407364 -0.99917 0
  outer loop
   vertex 0.0337269 -0.0166078 -1
   vertex 0.0337269 -0.0166078 1
   vertex 0.0331039 -0.0165824 -1
  endloop
 endfacet
 facet normal -0.0407364 -0.99917 0
  outer loop
   vertex 0.0331039 -0.0165824 -1
   vertex 0.0337269 -0.0166078 1
   vertex 0.0331039 -0.0165824 1
  endloop
 endfacet
 facet normal -0.999847 -0.0175013 -0
  outer loop
   vertex 0.0322726 -0.0157795 1
   vertex 0.0322656 -0.0153796 1
   vertex 0.0322726 -0.0157795 -1
  endloop
 endfacet
 facet normal -0.999847 -0.0175013 0
  outer loop
   vertex 0.0322726 -0.0157795 -1
   vertex 0.0322656 -0.0153796 1
   vertex 0.0322656 -0.0153796 -1
  endloop
 endfacet
 facet normal 0 0 -1
  outer loop
   vertex 0.0322726 -0.0157795 -1
   vertex 0.0322656 -0.0153796 -1
   vertex 0.0331039 -0.0165824 -1
  endloop
 endfacet
 facet normal 0 0 -1
  outer loop
   vertex 0.0331039 -0.0165824 -1
   vertex 0.0322656 -0.0153796 -1
   vertex 0.0329051 -0.0153784 -1
  endloop
 endfacet
 facet normal 0 0 -1
  outer loop
   vertex 0.0331039 -0.0165824 -1
   vertex 0.0329051 -0.0153784 -1
   vertex 0.0337269 -0.0166078 -1
  endloop
 endfacet
 facet normal 0 0 -1
  outer loop
   vertex 0.0337269 -0.0166078 -1
   vertex 0.0329051 -0.0153784 -1
   vertex 0.0335443 -0.015397 -1
  endloop
 endfacet
 facet normal 0 0 -1
  outer loop
   vertex 0.0337269 -0.0166078 -1
   vertex 0.0335443 -0.015397 -1
   vertex 0.0343488 -0.0166531 -1
  endloop
 endfacet
 facet normal 0 0 -1
  outer loop
   vertex 0.0343488 -0.0166531 -1
   vertex 0.0335443 -0.015397 -1
   vertex 0.0341827 -0.0154354 -1
  endloop
 endfacet
 facet normal 0 0 -1
  outer loop
   vertex 0.0343488 -0.0166531 -1
   vertex 0.0341827 -0.0154354 -1
   vertex 0.0349689 -0.0167186 -1
  endloop
 endfacet
 facet normal 0 0 -1
  outer loop
   vertex 0.0349689 -0.0167186 -1
   vertex 0.0341827 -0.0154354 -1
   vertex 0.0348195 -0.0154937 -1
  endloop
 endfacet
 facet normal 0 0 -1
  outer loop
   vertex 0.0349689 -0.0167186 -1
   vertex 0.0348195 -0.0154937 -1
   vertex 0.0355865 -0.0168038 -1
  endloop
 endfacet
 facet normal 0 0 -1
  outer loop
   vertex 0.0521844 -0.0390774 -1
   vertex 0.0517893 -0.0390148 -1
   vertex 0.0530826 -0.0384248 -1
  endloop
 endfacet
 facet normal -0 0 -1
  outer loop
   vertex 0.0530826 -0.0384248 -1
   vertex 0.0517893 -0.0390148 -1
   vertex 0.051877 -0.0383975 -1
  endloop
 endfacet
 facet normal 0 0 -1
  outer loop
   vertex 0.0530826 -0.0384248 -1
   vertex 0.051877 -0.0383975 -1
   vertex 0.0531486 -0.0377887 -1
  endloop
 endfacet
 facet normal -0 0 -1
  outer loop
   vertex 0.0531486 -0.0377887 -1
   vertex 0.051877 -0.0383975 -1
   vertex 0.0519447 -0.0377776 -1
  endloop
 endfacet
 facet normal 0 0 -1
  outer loop
   vertex 0.0531486 -0.0377887 -1
   vertex 0.0519447 -0.0377776 -1
   vertex 0.0531949 -0.0371509 -1
  endloop
 endfacet
 facet normal 0 0 -1
  outer loop
   vertex 0.0531949 -0.0371509 -1
   vertex 0.0519447 -0.0377776 -1
   vertex 0.0519925 -0.037156 -1
  endloop
 endfacet
 facet normal -0 0 -1
  outer loop
   vertex 0.0531949 -0.0371509 -1
   vertex 0.0519925 -0.037156 -1
   vertex 0.0532213 -0.0365119 -1
  endloop
 endfacet
 facet normal 0 0 -1
  outer loop
   vertex 0.0532213 -0.0365119 -1
   vertex 0.0519925 -0.037156 -1
   vertex 0.0520203 -0.0365331 -1
  endloop
 endfacet
 facet normal -0 0 -1
  outer loop
   vertex 0.0532213 -0.0365119 -1
   vertex 0.0520203 -0.0365331 -1
   vertex 0.053228 -0.0358725 -1
  endloop
 endfacet
 facet normal 0 0 -1
  outer loop
   vertex 0.053228 -0.0358725 -1
   vertex 0.0520203 -0.0365331 -1
   vertex 0.052028 -0.0359096 -1
  endloop
 endfacet
 facet normal -0 0 -1
  outer loop
   vertex 0.053228 -0.0358725 -1
   vertex 0.052028 -0.0359096 -1
   vertex 0.0532147 -0.0352331 -1
  endloop
 endfacet
 facet normal 0 0 -1
  outer loop
   vertex 0.0532147 -0.0352331 -1
   vertex 0.052028 -0.0359096 -1
   vertex 0.0520158 -0.0352862 -1
  endloop
 endfacet
 facet normal -0 0 -1
  outer loop
   vertex 0.0532147 -0.0352331 -1
   vertex 0.0520158 -0.0352862 -1
   vertex 0.0531816 -0.0345944 -1
  endloop
 endfacet
 facet normal 0 0 -1
  outer loop
   vertex 0.0531816 -0.0345944 -1
   vertex 0.0520158 -0.0352862 -1
   vertex 0.0519835 -0.0346636 -1
  endloop
 endfacet
 facet normal -0 0 -1
  outer loop
   vertex 0.0531816 -0.0345944 -1
   vertex 0.0519835 -0.0346636 -1
   vertex 0.0531287 -0.0339572 -1
  endloop
 endfacet
 facet normal 0 0 -1
  outer loop
   vertex 0.0531287 -0.0339572 -1
   vertex 0.0519835 -0.0346636 -1
   vertex 0.0519313 -0.0340423 -1
  endloop
 endfacet
 facet normal -0 0 -1
  outer loop
   vertex 0.0531287 -0.0339572 -1
   vertex 0.0519313 -0.0340423 -1
   vertex 0.0530561 -0.0333218 -1
  endloop
 endfacet
 facet normal 0 0 -1
  outer loop
   vertex 0.0530561 -0.0333218 -1
   vertex 0.0519313 -0.0340423 -1
   vertex 0.051859 -0.0334229 -1
  endloop
 endfacet
 facet normal -0 0 -1
  outer loop
   vertex 0.0530561 -0.0333218 -1
   vertex 0.051859 -0.0334229 -1
   vertex 0.0529637 -0.032689 -1
  endloop
 endfacet
 facet normal 0 0 -1
  outer loop
   vertex 0.0529637 -0.032689 -1
   vertex 0.051859 -0.0334229 -1
   vertex 0.051767 -0.0328063 -1
  endloop
 endfacet
 facet normal -0 0 -1
  outer loop
   vertex 0.0529637 -0.032689 -1
   vertex 0.051767 -0.0328063 -1
   vertex 0.0528518 -0.0320593 -1
  endloop
 endfacet
 facet normal 0 0 -1
  outer loop
   vertex 0.0528518 -0.0320593 -1
   vertex 0.051767 -0.0328063 -1
   vertex 0.0516551 -0.0321929 -1
  endloop
 endfacet
 facet normal -0 0 -1
  outer loop
   vertex 0.0528518 -0.0320593 -1
   vertex 0.0516551 -0.0321929 -1
   vertex 0.0527204 -0.0314335 -1
  endloop
 endfacet
 facet normal 0 0 -1
  outer loop
   vertex 0.0527204 -0.0314335 -1
   vertex 0.0516551 -0.0321929 -1
   vertex 0.0515236 -0.0315834 -1
  endloop
 endfacet
 facet normal -0 0 -1
  outer loop
   vertex 0.0527204 -0.0314335 -1
   vertex 0.0515236 -0.0315834 -1
   vertex 0.0525697 -0.030812 -1
  endloop
 endfacet
 facet normal 0 0 -1
  outer loop
   vertex 0.0525697 -0.030812 -1
   vertex 0.0515236 -0.0315834 -1
   vertex 0.0513726 -0.0309785 -1
  endloop
 endfacet
 facet normal -0 0 -1
  outer loop
   vertex 0.0525697 -0.030812 -1
   vertex 0.0513726 -0.0309785 -1
   vertex 0.0523997 -0.0301956 -1
  endloop
 endfacet
 facet normal 0 0 -1
  outer loop
   vertex 0.0523997 -0.0301956 -1
   vertex 0.0513726 -0.0309785 -1
   vertex 0.0512023 -0.0303787 -1
  endloop
 endfacet
 facet normal -0 0 -1
  outer loop
   vertex 0.0523997 -0.0301956 -1
   vertex 0.0512023 -0.0303787 -1
   vertex 0.0522107 -0.0295846 -1
  endloop
 endfacet
 facet normal 0 0 -1
  outer loop
   vertex 0.0522107 -0.0295846 -1
   vertex 0.0512023 -0.0303787 -1
   vertex 0.0510127 -0.0297847 -1
  endloop
 endfacet
 facet normal -0 0 -1
  outer loop
   vertex 0.0522107 -0.0295846 -1
   vertex 0.0510127 -0.0297847 -1
   vertex 0.0520028 -0.0289799 -1
  endloop
 endfacet
 facet normal 0 0 -1
  outer loop
   vertex 0.0520028 -0.0289799 -1
   vertex 0.0510127 -0.0297847 -1
   vertex 0.0508042 -0.0291971 -1
  endloop
 endfacet
 facet normal -0 0 -1
  outer loop
   vertex 0.0520028 -0.0289799 -1
   vertex 0.0508042 -0.0291971 -1
   vertex 0.0517762 -0.0283818 -1
  endloop
 endfacet
 facet normal 0 0 -1
  outer loop
   vertex 0.0517762 -0.0283818 -1
   vertex 0.0508042 -0.0291971 -1
   vertex 0.0505769 -0.0286165 -1
  endloop
 endfacet
 facet normal -0 0 -1
  outer loop
   vertex 0.0517762 -0.0283818 -1
   vertex 0.0505769 -0.0286165 -1
   vertex 0.0515312 -0.0277912 -1
  endloop
 endfacet
 facet normal 0 0 -1
  outer loop
   vertex 0.0515312 -0.0277912 -1
   vertex 0.0505769 -0.0286165 -1
   vertex 0.0503311 -0.0280435 -1
  endloop
 endfacet
 facet normal -0 0 -1
  outer loop
   vertex 0.0515312 -0.0277912 -1
   vertex 0.0503311 -0.0280435 -1
   vertex 0.0512679 -0.0272083 -1
  endloop
 endfacet
 facet normal 0 0 -1
  outer loop
   vertex 0.0512679 -0.0272083 -1
   vertex 0.0503311 -0.0280435 -1
   vertex 0.0500669 -0.0274787 -1
  endloop
 endfacet
 facet normal -0 0 -1
  outer loop
   vertex 0.0512679 -0.0272083 -1
   vertex 0.0500669 -0.0274787 -1
   vertex 0.0509867 -0.026634 -1
  endloop
 endfacet
 facet normal 0 0 -1
  outer loop
   vertex 0.0509867 -0.026634 -1
   vertex 0.0500669 -0.0274787 -1
   vertex 0.0497848 -0.0269227 -1
  endloop
 endfacet
 facet normal -0 0 -1
  outer loop
   vertex 0.0509867 -0.026634 -1
   vertex 0.0497848 -0.0269227 -1
   vertex 0.0506878 -0.0260686 -1
  endloop
 endfacet
 facet normal 0 0 -1
  outer loop
   vertex 0.0506878 -0.0260686 -1
   vertex 0.0497848 -0.0269227 -1
   vertex 0.0494849 -0.026376 -1
  endloop
 endfacet
 facet normal 0 0 -1
  outer loop
   vertex 0.0348195 -0.0154937 -1
   vertex 0.0354542 -0.0155716 -1
   vertex 0.0355865 -0.0168038 -1
  endloop
 endfacet
 facet normal 0 0 -1
  outer loop
   vertex 0.0355865 -0.0168038 -1
   vertex 0.0354542 -0.0155716 -1
   vertex 0.0360862 -0.0156692 -1
  endloop
 endfacet
 facet normal 0 0 -1
  outer loop
   vertex 0.0355865 -0.0168038 -1
   vertex 0.0360862 -0.0156692 -1
   vertex 0.0362011 -0.0169088 -1
  endloop
 endfacet
 facet normal 0 0 -1
  outer loop
   vertex 0.0362011 -0.0169088 -1
   vertex 0.0360862 -0.0156692 -1
   vertex 0.0367149 -0.0157864 -1
  endloop
 endfacet
 facet normal 0 0 -1
  outer loop
   vertex 0.0362011 -0.0169088 -1
   vertex 0.0367149 -0.0157864 -1
   vertex 0.036812 -0.0170335 -1
  endloop
 endfacet
 facet normal 0 0 -1
  outer loop
   vertex 0.036812 -0.0170335 -1
   vertex 0.0367149 -0.0157864 -1
   vertex 0.0373396 -0.0159231 -1
  endloop
 endfacet
 facet normal 0 0 -1
  outer loop
   vertex 0.036812 -0.0170335 -1
   vertex 0.0373396 -0.0159231 -1
   vertex 0.0374186 -0.0171779 -1
  endloop
 endfacet
 facet normal 0 0 -1
  outer loop
   vertex 0.0374186 -0.0171779 -1
   vertex 0.0373396 -0.0159231 -1
   vertex 0.0379598 -0.0160791 -1
  endloop
 endfacet
 facet normal 0 0 -1
  outer loop
   vertex 0.0374186 -0.0171779 -1
   vertex 0.0379598 -0.0160791 -1
   vertex 0.0380202 -0.0173416 -1
  endloop
 endfacet
 facet normal 0 0 -1
  outer loop
   vertex 0.0380202 -0.0173416 -1
   vertex 0.0379598 -0.0160791 -1
   vertex 0.0385749 -0.0162542 -1
  endloop
 endfacet
 facet normal 0 0 -1
  outer loop
   vertex 0.0380202 -0.0173416 -1
   vertex 0.0385749 -0.0162542 -1
   vertex 0.0386163 -0.0175246 -1
  endloop
 endfacet
 facet normal 0 0 -1
  outer loop
   vertex 0.0386163 -0.0175246 -1
   vertex 0.0385749 -0.0162542 -1
   vertex 0.0391842 -0.0164484 -1
  endloop
 endfacet
 facet normal 0 0 -1
  outer loop
   vertex 0.0386163 -0.0175246 -1
   vertex 0.0391842 -0.0164484 -1
   vertex 0.0392061 -0.0177266 -1
  endloop
 endfacet
 facet normal 0 0 -1
  outer loop
   vertex 0.0392061 -0.0177266 -1
   vertex 0.0391842 -0.0164484 -1
   vertex 0.0397872 -0.0166613 -1
  endloop
 endfacet
 facet normal 0 0 -1
  outer loop
   vertex 0.0392061 -0.0177266 -1
   vertex 0.0397872 -0.0166613 -1
   vertex 0.0397892 -0.0179475 -1
  endloop
 endfacet
 facet normal 0 0 -1
  outer loop
   vertex 0.0397892 -0.0179475 -1
   vertex 0.0397872 -0.0166613 -1
   vertex 0.0403833 -0.0168929 -1
  endloop
 endfacet
 facet normal 0 0 -1
  outer loop
   vertex 0.0397892 -0.0179475 -1
   vertex 0.0403833 -0.0168929 -1
   vertex 0.0403649 -0.0181869 -1
  endloop
 endfacet
 facet normal 0 0 -1
  outer loop
   vertex 0.0403649 -0.0181869 -1
   vertex 0.0403833 -0.0168929 -1
   vertex 0.0409719 -0.0171429 -1
  endloop
 endfacet
 facet normal 0 0 -1
  outer loop
   vertex 0.0403649 -0.0181869 -1
   vertex 0.0409719 -0.0171429 -1
   vertex 0.0409326 -0.0184448 -1
  endloop
 endfacet
 facet normal 0 0 -1
  outer loop
   vertex 0.0409326 -0.0184448 -1
   vertex 0.0409719 -0.0171429 -1
   vertex 0.0415525 -0.017411 -1
  endloop
 endfacet
 facet normal 0 0 -1
  outer loop
   vertex 0.0409326 -0.0184448 -1
   vertex 0.0415525 -0.017411 -1
   vertex 0.0414917 -0.0187208 -1
  endloop
 endfacet
 facet normal 0 0 -1
  outer loop
   vertex 0.0414917 -0.0187208 -1
   vertex 0.0415525 -0.017411 -1
   vertex 0.0421244 -0.017697 -1
  endloop
 endfacet
 facet normal 0 0 -1
  outer loop
   vertex 0.0414917 -0.0187208 -1
   vertex 0.0421244 -0.017697 -1
   vertex 0.0420416 -0.0190146 -1
  endloop
 endfacet
 facet normal 0 0 -1
  outer loop
   vertex 0.0420416 -0.0190146 -1
   vertex 0.0421244 -0.017697 -1
   vertex 0.0426873 -0.0180006 -1
  endloop
 endfacet
 facet normal 0 0 -1
  outer loop
   vertex 0.0420416 -0.0190146 -1
   vertex 0.0426873 -0.0180006 -1
   vertex 0.0425818 -0.0193259 -1
  endloop
 endfacet
 facet normal 0 0 -1
  outer loop
   vertex 0.0425818 -0.0193259 -1
   vertex 0.0426873 -0.0180006 -1
   vertex 0.0432404 -0.0183216 -1
  endloop
 endfacet
 facet normal 0 0 -1
  outer loop
   vertex 0.0425818 -0.0193259 -1
   vertex 0.0432404 -0.0183216 -1
   vertex 0.0431118 -0.0196544 -1
  endloop
 endfacet
 facet normal 0 0 -1
  outer loop
   vertex 0.0431118 -0.0196544 -1
   vertex 0.0432404 -0.0183216 -1
   vertex 0.0437833 -0.0186595 -1
  endloop
 endfacet
 facet normal 0 0 -1
  outer loop
   vertex 0.0431118 -0.0196544 -1
   vertex 0.0437833 -0.0186595 -1
   vertex 0.0436309 -0.0199998 -1
  endloop
 endfacet
 facet normal 0 0 -1
  outer loop
   vertex 0.0436309 -0.0199998 -1
   vertex 0.0437833 -0.0186595 -1
   vertex 0.0443155 -0.0190142 -1
  endloop
 endfacet
 facet normal 0 0 -1
  outer loop
   vertex 0.0436309 -0.0199998 -1
   vertex 0.0443155 -0.0190142 -1
   vertex 0.0441386 -0.0203616 -1
  endloop
 endfacet
 facet normal 0 0 -1
  outer loop
   vertex 0.0441386 -0.0203616 -1
   vertex 0.0443155 -0.0190142 -1
   vertex 0.0448364 -0.0193851 -1
  endloop
 endfacet
 facet normal 0 0 -1
  outer loop
   vertex 0.0441386 -0.0203616 -1
   vertex 0.0448364 -0.0193851 -1
   vertex 0.0446345 -0.0207396 -1
  endloop
 endfacet
 facet normal 0 0 -1
  outer loop
   vertex 0.0446345 -0.0207396 -1
   vertex 0.0448364 -0.0193851 -1
   vertex 0.0453455 -0.0197721 -1
  endloop
 endfacet
 facet normal 0 0 -1
  outer loop
   vertex 0.0446345 -0.0207396 -1
   vertex 0.0453455 -0.0197721 -1
   vertex 0.045118 -0.0211333 -1
  endloop
 endfacet
 facet normal 0 0 -1
  outer loop
   vertex 0.045118 -0.0211333 -1
   vertex 0.0453455 -0.0197721 -1
   vertex 0.0458424 -0.0201747 -1
  endloop
 endfacet
 facet normal 0 0 -1
  outer loop
   vertex 0.045118 -0.0211333 -1
   vertex 0.0458424 -0.0201747 -1
   vertex 0.0455885 -0.0215424 -1
  endloop
 endfacet
 facet normal 0 0 -1
  outer loop
   vertex 0.0455885 -0.0215424 -1
   vertex 0.0458424 -0.0201747 -1
   vertex 0.0463265 -0.0205925 -1
  endloop
 endfacet
 facet normal 0 0 -1
  outer loop
   vertex 0.0455885 -0.0215424 -1
   vertex 0.0463265 -0.0205925 -1
   vertex 0.0460457 -0.0219664 -1
  endloop
 endfacet
 facet normal 0 0 -1
  outer loop
   vertex 0.0460457 -0.0219664 -1
   vertex 0.0463265 -0.0205925 -1
   vertex 0.0467974 -0.0210252 -1
  endloop
 endfacet
 facet normal 0 0 -1
  outer loop
   vertex 0.0460457 -0.0219664 -1
   vertex 0.0467974 -0.0210252 -1
   vertex 0.046489 -0.0224048 -1
  endloop
 endfacet
 facet normal 0 0 -1
  outer loop
   vertex 0.046489 -0.0224048 -1
   vertex 0.0467974 -0.0210252 -1
   vertex 0.0472547 -0.0214722 -1
  endloop
 endfacet
 facet normal 0 0 -1
  outer loop
   vertex 0.046489 -0.0224048 -1
   vertex 0.0472547 -0.0214722 -1
   vertex 0.046918 -0.0228573 -1
  endloop
 endfacet
 facet normal 0 0 -1
  outer loop
   vertex 0.046918 -0.0228573 -1
   vertex 0.0472547 -0.0214722 -1
   vertex 0.0476979 -0.0219332 -1
  endloop
 endfacet
 facet normal 0 0 -1
  outer loop
   vertex 0.046918 -0.0228573 -1
   vertex 0.0476979 -0.0219332 -1
   vertex 0.0473323 -0.0233233 -1
  endloop
 endfacet
 facet normal 0 0 -1
  outer loop
   vertex 0.0473323 -0.0233233 -1
   vertex 0.0476979 -0.0219332 -1
   vertex 0.0481266 -0.0224078 -1
  endloop
 endfacet
 facet normal 0 0 -1
  outer loop
   vertex 0.0473323 -0.0233233 -1
   vertex 0.0481266 -0.0224078 -1
   vertex 0.0477313 -0.0238024 -1
  endloop
 endfacet
 facet normal 0 0 -1
  outer loop
   vertex 0.0477313 -0.0238024 -1
   vertex 0.0481266 -0.0224078 -1
   vertex 0.0485403 -0.0228954 -1
  endloop
 endfacet
 facet normal 0 0 -1
  outer loop
   vertex 0.0477313 -0.0238024 -1
   vertex 0.0485403 -0.0228954 -1
   vertex 0.0481148 -0.024294 -1
  endloop
 endfacet
 facet normal 0 0 -1
  outer loop
   vertex 0.0481148 -0.024294 -1
   vertex 0.0485403 -0.0228954 -1
   vertex 0.0489387 -0.0233957 -1
  endloop
 endfacet
 facet normal 0 0 -1
  outer loop
   vertex 0.0481148 -0.024294 -1
   vertex 0.0489387 -0.0233957 -1
   vertex 0.0484822 -0.0247977 -1
  endloop
 endfacet
 facet normal 0 0 -1
  outer loop
   vertex 0.0484822 -0.0247977 -1
   vertex 0.0489387 -0.0233957 -1
   vertex 0.0493214 -0.023908 -1
  endloop
 endfacet
 facet normal 0 0 -1
  outer loop
   vertex 0.0484822 -0.0247977 -1
   vertex 0.0493214 -0.023908 -1
   vertex 0.0488333 -0.025313 -1
  endloop
 endfacet
 facet normal 0 0 -1
  outer loop
   vertex 0.0488333 -0.025313 -1
   vertex 0.0493214 -0.023908 -1
   vertex 0.049688 -0.024432 -1
  endloop
 endfacet
 facet normal 0 0 -1
  outer loop
   vertex 0.0488333 -0.025313 -1
   vertex 0.049688 -0.024432 -1
   vertex 0.0491677 -0.0258393 -1
  endloop
 endfacet
 facet normal 0 0 -1
  outer loop
   vertex 0.0491677 -0.0258393 -1
   vertex 0.049688 -0.024432 -1
   vertex 0.0500382 -0.0249671 -1
  endloop
 endfacet
 facet normal 0 0 -1
  outer loop
   vertex 0.0491677 -0.0258393 -1
   vertex 0.0500382 -0.0249671 -1
   vertex 0.0494849 -0.026376 -1
  endloop
 endfacet
 facet normal 0 0 -1
  outer loop
   vertex 0.0494849 -0.026376 -1
   vertex 0.0500382 -0.0249671 -1
   vertex 0.0503716 -0.0255128 -1
  endloop
 endfacet
 facet normal 0 0 -1
  outer loop
   vertex 0.0494849 -0.026376 -1
   vertex 0.0503716 -0.0255128 -1
   vertex 0.0506878 -0.0260686 -1
  endloop
 endfacet
 facet normal -0 0 1
  outer loop
   vertex 0.0322656 -0.0153796 1
   vertex 0.0322726 -0.0157795 1
   vertex 0.0329051 -0.0153784 1
  endloop
 endfacet
 facet normal 0 0 1
  outer loop
   vertex 0.0329051 -0.0153784 1
   vertex 0.0322726 -0.0157795 1
   vertex 0.0331039 -0.0165824 1
  endloop
 endfacet
 facet normal 0 0 1
  outer loop
   vertex 0.0329051 -0.0153784 1
   vertex 0.0331039 -0.0165824 1
   vertex 0.0335443 -0.015397 1
  endloop
 endfacet
 facet normal 0 0 1
  outer loop
   vertex 0.0335443 -0.015397 1
   vertex 0.0331039 -0.0165824 1
   vertex 0.0337269 -0.0166078 1
  endloop
 endfacet
 facet normal 0 0 1
  outer loop
   vertex 0.0335443 -0.015397 1
   vertex 0.0337269 -0.0166078 1
   vertex 0.0341827 -0.0154354 1
  endloop
 endfacet
 facet normal 0 0 1
  outer loop
   vertex 0.0341827 -0.0154354 1
   vertex 0.0337269 -0.0166078 1
   vertex 0.0343488 -0.0166531 1
  endloop
 endfacet
 facet normal 0 0 1
  outer loop
   vertex 0.0341827 -0.0154354 1
   vertex 0.0343488 -0.0166531 1
   vertex 0.0348195 -0.0154937 1
  endloop
 endfacet
 facet normal 0 0 1
  outer loop
   vertex 0.0348195 -0.0154937 1
   vertex 0.0343488 -0.0166531 1
   vertex 0.0349689 -0.0167186 1
  endloop
 endfacet
 facet normal 0 0 1
  outer loop
   vertex 0.0348195 -0.0154937 1
   vertex 0.0349689 -0.0167186 1
   vertex 0.0354542 -0.0155716 1
  endloop
 endfacet
 facet normal 0 0 1
  outer loop
   vertex 0.0354542 -0.0155716 1
   vertex 0.0349689 -0.0167186 1
   vertex 0.0355865 -0.0168038 1
  endloop
 endfacet
 facet normal 0 0 1
  outer loop
   vertex 0.0354542 -0.0155716 1
   vertex 0.0355865 -0.0168038 1
   vertex 0.0360862 -0.0156692 1
  endloop
 endfacet
 facet normal 0 0 1
  outer loop
   vertex 0.0360862 -0.0156692 1
   vertex 0.0355865 -0.0168038 1
   vertex 0.0362011 -0.0169088 1
  endloop
 endfacet
 facet normal -0 0 1
  outer loop
   vertex 0.0517893 -0.0390148 1
   vertex 0.0521844 -0.0390774 1
   vertex 0.051877 -0.0383975 1
  endloop
 endfacet
 facet normal 0 0 1
  outer loop
   vertex 0.051877 -0.0383975 1
   vertex 0.0521844 -0.0390774 1
   vertex 0.0530826 -0.0384248 1
  endloop
 endfacet
 facet normal -0 0 1
  outer loop
   vertex 0.051877 -0.0383975 1
   vertex 0.0530826 -0.0384248 1
   vertex 0.0519447 -0.0377776 1
  endloop
 endfacet
 facet normal 0 0 1
  outer loop
   vertex 0.0519447 -0.0377776 1
   vertex 0.0530826 -0.0384248 1
   vertex 0.0531486 -0.0377887 1
  endloop
 endfacet
 facet normal -0 0 1
  outer loop
   vertex 0.0519447 -0.0377776 1
   vertex 0.0531486 -0.0377887 1
   vertex 0.0519925 -0.037156 1
  endloop
 endfacet
 facet normal -0 0 1
  outer loop
   vertex 0.0519925 -0.037156 1
   vertex 0.0531486 -0.0377887 1
   vertex 0.0531949 -0.0371509 1
  endloop
 endfacet
 facet normal 0 0 1
  outer loop
   vertex 0.0519925 -0.037156 1
   vertex 0.0531949 -0.0371509 1
   vertex 0.0520203 -0.0365331 1
  endloop
 endfacet
 facet normal -0 0 1
  outer loop
   vertex 0.0520203 -0.0365331 1
   vertex 0.0531949 -0.0371509 1
   vertex 0.0532213 -0.0365119 1
  endloop
 endfacet
 facet normal 0 0 1
  outer loop
   vertex 0.0520203 -0.0365331 1
   vertex 0.0532213 -0.0365119 1
   vertex 0.052028 -0.0359096 1
  endloop
 endfacet
 facet normal -0 0 1
  outer loop
   vertex 0.052028 -0.0359096 1
   vertex 0.0532213 -0.0365119 1
   vertex 0.053228 -0.0358725 1
  endloop
 endfacet
 facet normal 0 -0 1
  outer loop
   vertex 0.052028 -0.0359096 1
   vertex 0.053228 -0.0358725 1
   vertex 0.0520158 -0.0352862 1
  endloop
 endfacet
 facet normal -0 0 1
  outer loop
   vertex 0.0520158 -0.0352862 1
   vertex 0.053228 -0.0358725 1
   vertex 0.0532147 -0.0352331 1
  endloop
 endfacet
 facet normal 0 -0 1
  outer loop
   vertex 0.0520158 -0.0352862 1
   vertex 0.0532147 -0.0352331 1
   vertex 0.0519835 -0.0346636 1
  endloop
 endfacet
 facet normal -0 0 1
  outer loop
   vertex 0.0519835 -0.0346636 1
   vertex 0.0532147 -0.0352331 1
   vertex 0.0531816 -0.0345944 1
  endloop
 endfacet
 facet normal 0 -0 1
  outer loop
   vertex 0.0519835 -0.0346636 1
   vertex 0.0531816 -0.0345944 1
   vertex 0.0519313 -0.0340423 1
  endloop
 endfacet
 facet normal -0 0 1
  outer loop
   vertex 0.0519313 -0.0340423 1
   vertex 0.0531816 -0.0345944 1
   vertex 0.0531287 -0.0339572 1
  endloop
 endfacet
 facet normal 0 -0 1
  outer loop
   vertex 0.0519313 -0.0340423 1
   vertex 0.0531287 -0.0339572 1
   vertex 0.051859 -0.0334229 1
  endloop
 endfacet
 facet normal -0 0 1
  outer loop
   vertex 0.051859 -0.0334229 1
   vertex 0.0531287 -0.0339572 1
   vertex 0.0530561 -0.0333218 1
  endloop
 endfacet
 facet normal 0 -0 1
  outer loop
   vertex 0.051859 -0.0334229 1
   vertex 0.0530561 -0.0333218 1
   vertex 0.051767 -0.0328063 1
  endloop
 endfacet
 facet normal -0 0 1
  outer loop
   vertex 0.051767 -0.0328063 1
   vertex 0.0530561 -0.0333218 1
   vertex 0.0529637 -0.032689 1
  endloop
 endfacet
 facet normal 0 -0 1
  outer loop
   vertex 0.051767 -0.0328063 1
   vertex 0.0529637 -0.032689 1
   vertex 0.0516551 -0.0321929 1
  endloop
 endfacet
 facet normal -0 0 1
  outer loop
   vertex 0.0516551 -0.0321929 1
   vertex 0.0529637 -0.032689 1
   vertex 0.0528518 -0.0320593 1
  endloop
 endfacet
 facet normal 0 -0 1
  outer loop
   vertex 0.0516551 -0.0321929 1
   vertex 0.0528518 -0.0320593 1
   vertex 0.0515236 -0.0315834 1
  endloop
 endfacet
 facet normal -0 0 1
  outer loop
   vertex 0.0515236 -0.0315834 1
   vertex 0.0528518 -0.0320593 1
   vertex 0.0527204 -0.0314335 1
  endloop
 endfacet
 facet normal 0 -0 1
  outer loop
   vertex 0.0515236 -0.0315834 1
   vertex 0.0527204 -0.0314335 1
   vertex 0.0513726 -0.0309785 1
  endloop
 endfacet
 facet normal -0 0 1
  outer loop
   vertex 0.0513726 -0.0309785 1
   vertex 0.0527204 -0.0314335 1
   vertex 0.0525697 -0.030812 1
  endloop
 endfacet
 facet normal 0 -0 1
  outer loop
   vertex 0.0513726 -0.0309785 1
   vertex 0.0525697 -0.030812 1
   vertex 0.0512023 -0.0303787 1
  endloop
 endfacet
 facet normal -0 0 1
  outer loop
   vertex 0.0512023 -0.0303787 1
   vertex 0.0525697 -0.030812 1
   vertex 0.0523997 -0.0301956 1
  endloop
 endfacet
 facet normal 0 -0 1
  outer loop
   vertex 0.0512023 -0.0303787 1
   vertex 0.0523997 -0.0301956 1
   vertex 0.0510127 -0.0297847 1
  endloop
 endfacet
 facet normal -0 0 1
  outer loop
   vertex 0.0510127 -0.0297847 1
   vertex 0.0523997 -0.0301956 1
   vertex 0.0522107 -0.0295846 1
  endloop
 endfacet
 facet normal 0 -0 1
  outer loop
   vertex 0.0510127 -0.0297847 1
   vertex 0.0522107 -0.0295846 1
   vertex 0.0508042 -0.0291971 1
  endloop
 endfacet
 facet normal -0 0 1
  outer loop
   vertex 0.0508042 -0.0291971 1
   vertex 0.0522107 -0.0295846 1
   vertex 0.0520028 -0.0289799 1
  endloop
 endfacet
 facet normal 0 -0 1
  outer loop
   vertex 0.0508042 -0.0291971 1
   vertex 0.0520028 -0.0289799 1
   vertex 0.0505769 -0.0286165 1
  endloop
 endfacet
 facet normal -0 0 1
  outer loop
   vertex 0.0505769 -0.0286165 1
   vertex 0.0520028 -0.0289799 1
   vertex 0.0517762 -0.0283818 1
  endloop
 endfacet
 facet normal 0 -0 1
  outer loop
   vertex 0.0505769 -0.0286165 1
   vertex 0.0517762 -0.0283818 1
   vertex 0.0503311 -0.0280435 1
  endloop
 endfacet
 facet normal -0 0 1
  outer loop
   vertex 0.0503311 -0.0280435 1
   vertex 0.0517762 -0.0283818 1
   vertex 0.0515312 -0.0277912 1
  endloop
 endfacet
 facet normal 0 -0 1
  outer loop
   vertex 0.0503311 -0.0280435 1
   vertex 0.0515312 -0.0277912 1
   vertex 0.0500669 -0.0274787 1
  endloop
 endfacet
 facet normal -0 0 1
  outer loop
   vertex 0.0500669 -0.0274787 1
   vertex 0.0515312 -0.0277912 1
   vertex 0.0512679 -0.0272083 1
  endloop
 endfacet
 facet normal 0 -0 1
  outer loop
   vertex 0.0500669 -0.0274787 1
   vertex 0.0512679 -0.0272083 1
   vertex 0.0497848 -0.0269227 1
  endloop
 endfacet
 facet normal 0 0 1
  outer loop
   vertex 0.0512679 -0.0272083 1
   vertex 0.0509867 -0.026634 1
   vertex 0.0497848 -0.0269227 1
  endloop
 endfacet
 facet normal 0 0 1
  outer loop
   vertex 0.0497848 -0.0269227 1
   vertex 0.0509867 -0.026634 1
   vertex 0.0506878 -0.0260686 1
  endloop
 endfacet
 facet normal 0 -0 1
  outer loop
   vertex 0.0497848 -0.0269227 1
   vertex 0.0506878 -0.0260686 1
   vertex 0.0494849 -0.026376 1
  endloop
 endfacet
 facet normal 0 0 1
  outer loop
   vertex 0.0494849 -0.026376 1
   vertex 0.0506878 -0.0260686 1
   vertex 0.0503716 -0.0255128 1
  endloop
 endfacet
 facet normal 0 -0 1
  outer loop
   vertex 0.0494849 -0.026376 1
   vertex 0.0503716 -0.0255128 1
   vertex 0.0491677 -0.0258393 1
  endloop
 endfacet
 facet normal 0 0 1
  outer loop
   vertex 0.0491677 -0.0258393 1
   vertex 0.0503716 -0.0255128 1
   vertex 0.0500382 -0.0249671 1
  endloop
 endfacet
 facet normal 0 -0 1
  outer loop
   vertex 0.0491677 -0.0258393 1
   vertex 0.0500382 -0.0249671 1
   vertex 0.0488333 -0.025313 1
  endloop
 endfacet
 facet normal 0 0 1
  outer loop
   vertex 0.0488333 -0.025313 1
   vertex 0.0500382 -0.0249671 1
   vertex 0.049688 -0.024432 1
  endloop
 endfacet
 facet normal 0 -0 1
  outer loop
   vertex 0.0488333 -0.025313 1
   vertex 0.049688 -0.024432 1
   vertex 0.0484822 -0.0247977 1
  endloop
 endfacet
 facet normal 0 0 1
  outer loop
   vertex 0.0484822 -0.0247977 1
   vertex 0.049688 -0.024432 1
   vertex 0.0493214 -0.023908 1
  endloop
 endfacet
 facet normal 0 -0 1
  outer loop
   vertex 0.0484822 -0.0247977 1
   vertex 0.0493214 -0.023908 1
   vertex 0.0481148 -0.024294 1
  endloop
 endfacet
 facet normal 0 0 1
  outer loop
   vertex 0.0481148 -0.024294 1
   vertex 0.0493214 -0.023908 1
   vertex 0.0489387 -0.0233957 1
  endloop
 endfacet
 facet normal 0 -0 1
  outer loop
   vertex 0.0481148 -0.024294 1
   vertex 0.0489387 -0.0233957 1
   vertex 0.0477313 -0.0238024 1
  endloop
 endfacet
 facet normal 0 0 1
  outer loop
   vertex 0.0477313 -0.0238024 1
   vertex 0.0489387 -0.0233957 1
   vertex 0.0485403 -0.0228954 1
  endloop
 endfacet
 facet normal 0 -0 1
  outer loop
   vertex 0.0477313 -0.0238024 1
   vertex 0.0485403 -0.0228954 1
   vertex 0.0473323 -0.0233233 1
  endloop
 endfacet
 facet normal 0 0 1
  outer loop
   vertex 0.0473323 -0.0233233 1
   vertex 0.0485403 -0.0228954 1
   vertex 0.0481266 -0.0224078 1
  endloop
 endfacet
 facet normal 0 -0 1
  outer loop
   vertex 0.0473323 -0.0233233 1
   vertex 0.0481266 -0.0224078 1
   vertex 0.046918 -0.0228573 1
  endloop
 endfacet
 facet normal 0 0 1
  outer loop
   vertex 0.046918 -0.0228573 1
   vertex 0.0481266 -0.0224078 1
   vertex 0.0476979 -0.0219332 1
  endloop
 endfacet
 facet normal 0 -0 1
  outer loop
   vertex 0.046918 -0.0228573 1
   vertex 0.0476979 -0.0219332 1
   vertex 0.046489 -0.0224048 1
  endloop
 endfacet
 facet normal 0 0 1
  outer loop
   vertex 0.046489 -0.0224048 1
   vertex 0.0476979 -0.0219332 1
   vertex 0.0472547 -0.0214722 1
  endloop
 endfacet
 facet normal 0 -0 1
  outer loop
   vertex 0.046489 -0.0224048 1
   vertex 0.0472547 -0.0214722 1
   vertex 0.0460457 -0.0219664 1
  endloop
 endfacet
 facet normal 0 0 1
  outer loop
   vertex 0.0460457 -0.0219664 1
   vertex 0.0472547 -0.0214722 1
   vertex 0.0467974 -0.0210252 1
  endloop
 endfacet
 facet normal 0 -0 1
  outer loop
   vertex 0.0460457 -0.0219664 1
   vertex 0.0467974 -0.0210252 1
   vertex 0.0455885 -0.0215424 1
  endloop
 endfacet
 facet normal 0 0 1
  outer loop
   vertex 0.0455885 -0.0215424 1
   vertex 0.0467974 -0.0210252 1
   vertex 0.0463265 -0.0205925 1
  endloop
 endfacet
 facet normal 0 -0 1
  outer loop
   vertex 0.0455885 -0.0215424 1
   vertex 0.0463265 -0.0205925 1
   vertex 0.045118 -0.0211333 1
  endloop
 endfacet
 facet normal 0 0 1
  outer loop
   vertex 0.045118 -0.0211333 1
   vertex 0.0463265 -0.0205925 1
   vertex 0.0458424 -0.0201747 1
  endloop
 endfacet
 facet normal 0 -0 1
  outer loop
   vertex 0.045118 -0.0211333 1
   vertex 0.0458424 -0.0201747 1
   vertex 0.0446345 -0.0207396 1
  endloop
 endfacet
 facet normal 0 0 1
  outer loop
   vertex 0.0446345 -0.0207396 1
   vertex 0.0458424 -0.0201747 1
   vertex 0.0453455 -0.0197721 1
  endloop
 endfacet
 facet normal 0 -0 1
  outer loop
   vertex 0.0446345 -0.0207396 1
   vertex 0.0453455 -0.0197721 1
   vertex 0.0441386 -0.0203616 1
  endloop
 endfacet
 facet normal 0 0 1
  outer loop
   vertex 0.0441386 -0.0203616 1
   vertex 0.0453455 -0.0197721 1
   vertex 0.0448364 -0.0193851 1
  endloop
 endfacet
 facet normal 0 -0 1
  outer loop
   vertex 0.0441386 -0.0203616 1
   vertex 0.0448364 -0.0193851 1
   vertex 0.0436309 -0.0199998 1
  endloop
 endfacet
 facet normal 0 0 1
  outer loop
   vertex 0.0436309 -0.0199998 1
   vertex 0.0448364 -0.0193851 1
   vertex 0.0443155 -0.0190142 1
  endloop
 endfacet
 facet normal 0 -0 1
  outer loop
   vertex 0.0436309 -0.0199998 1
   vertex 0.0443155 -0.0190142 1
   vertex 0.0431118 -0.0196544 1
  endloop
 endfacet
 facet normal 0 0 1
  outer loop
   vertex 0.0431118 -0.0196544 1
   vertex 0.0443155 -0.0190142 1
   vertex 0.0437833 -0.0186595 1
  endloop
 endfacet
 facet normal 0 -0 1
  outer loop
   vertex 0.0431118 -0.0196544 1
   vertex 0.0437833 -0.0186595 1
   vertex 0.0425818 -0.0193259 1
  endloop
 endfacet
 facet normal 0 0 1
  outer loop
   vertex 0.0425818 -0.0193259 1
   vertex 0.0437833 -0.0186595 1
   vertex 0.0432404 -0.0183216 1
  endloop
 endfacet
 facet normal 0 -0 1
  outer loop
   vertex 0.0425818 -0.0193259 1
   vertex 0.0432404 -0.0183216 1
   vertex 0.0420416 -0.0190146 1
  endloop
 endfacet
 facet normal 0 0 1
  outer loop
   vertex 0.0420416 -0.0190146 1
   vertex 0.0432404 -0.0183216 1
   vertex 0.0426873 -0.0180006 1
  endloop
 endfacet
 facet normal 0 -0 1
  outer loop
   vertex 0.0420416 -0.0190146 1
   vertex 0.0426873 -0.0180006 1
   vertex 0.0414917 -0.0187208 1
  endloop
 endfacet
 facet normal 0 0 1
  outer loop
   vertex 0.0414917 -0.0187208 1
   vertex 0.0426873 -0.0180006 1
   vertex 0.0421244 -0.017697 1
  endloop
 endfacet
 facet normal 0 -0 1
  outer loop
   vertex 0.0414917 -0.0187208 1
   vertex 0.0421244 -0.017697 1
   vertex 0.0409326 -0.0184448 1
  endloop
 endfacet
 facet normal 0 0 1
  outer loop
   vertex 0.0409326 -0.0184448 1
   vertex 0.0421244 -0.017697 1
   vertex 0.0415525 -0.017411 1
  endloop
 endfacet
 facet normal 0 -0 1
  outer loop
   vertex 0.0409326 -0.0184448 1
   vertex 0.0415525 -0.017411 1
   vertex 0.0403649 -0.0181869 1
  endloop
 endfacet
 facet normal 0 0 1
  outer loop
   vertex 0.0403649 -0.0181869 1
   vertex 0.0415525 -0.017411 1
   vertex 0.0409719 -0.0171429 1
  endloop
 endfacet
 facet normal 0 -0 1
  outer loop
   vertex 0.0403649 -0.0181869 1
   vertex 0.0409719 -0.0171429 1
   vertex 0.0397892 -0.0179475 1
  endloop
 endfacet
 facet normal 0 0 1
  outer loop
   vertex 0.0397892 -0.0179475 1
   vertex 0.0409719 -0.0171429 1
   vertex 0.0403833 -0.0168929 1
  endloop
 endfacet
 facet normal 0 -0 1
  outer loop
   vertex 0.0397892 -0.0179475 1
   vertex 0.0403833 -0.0168929 1
   vertex 0.0392061 -0.0177266 1
  endloop
 endfacet
 facet normal 0 0 1
  outer loop
   vertex 0.0392061 -0.0177266 1
   vertex 0.0403833 -0.0168929 1
   vertex 0.0397872 -0.0166613 1
  endloop
 endfacet
 facet normal 0 -0 1
  outer loop
   vertex 0.0392061 -0.0177266 1
   vertex 0.0397872 -0.0166613 1
   vertex 0.0386163 -0.0175246 1
  endloop
 endfacet
 facet normal 0 0 1
  outer loop
   vertex 0.0386163 -0.0175246 1
   vertex 0.0397872 -0.0166613 1
   vertex 0.0391842 -0.0164484 1
  endloop
 endfacet
 facet normal 0 -0 1
  outer loop
   vertex 0.0386163 -0.0175246 1
   vertex 0.0391842 -0.0164484 1
   vertex 0.0380202 -0.0173416 1
  endloop
 endfacet
 facet normal 0 0 1
  outer loop
   vertex 0.0380202 -0.0173416 1
   vertex 0.0391842 -0.0164484 1
   vertex 0.0385749 -0.0162542 1
  endloop
 endfacet
 facet normal 0 -0 1
  outer loop
   vertex 0.0380202 -0.0173416 1
   vertex 0.0385749 -0.0162542 1
   vertex 0.0374186 -0.0171779 1
  endloop
 endfacet
 facet normal 0 0 1
  outer loop
   vertex 0.0374186 -0.0171779 1
   vertex 0.0385749 -0.0162542 1
   vertex 0.0379598 -0.0160791 1
  endloop
 endfacet
 facet normal 0 -0 1
  outer loop
   vertex 0.0374186 -0.0171779 1
   vertex 0.0379598 -0.0160791 1
   vertex 0.036812 -0.0170335 1
  endloop
 endfacet
 facet normal 0 0 1
  outer loop
   vertex 0.036812 -0.0170335 1
   vertex 0.0379598 -0.0160791 1
   vertex 0.0373396 -0.0159231 1
  endloop
 endfacet
 facet normal 0 -0 1
  outer loop
   vertex 0.036812 -0.0170335 1
   vertex 0.0373396 -0.0159231 1
   vertex 0.0362011 -0.0169088 1
  endloop
 endfacet
 facet normal 0 0 1
  outer loop
   vertex 0.0362011 -0.0169088 1
   vertex 0.0373396 -0.0159231 1
   vertex 0.0367149 -0.0157864 1
  endloop
 endfacet
 facet normal 0 -0 1
  outer loop
   vertex 0.0362011 -0.0169088 1
   vertex 0.0367149 -0.0157864 1
   vertex 0.0360862 -0.0156692 1
  endloop
 endfacet
 facet normal 0.587796 -0.809009 0
  outer loop
   vertex 0.0530826 -0.0384248 1
   vertex 0.0521844 -0.0390774 1
   vertex 0.0530826 -0.0384248 -1
  endloop
 endfacet
 facet normal 0.587796 -0.809009 0
  outer loop
   vertex 0.0530826 -0.0384248 -1
   vertex 0.0521844 -0.0390774 1
   vertex 0.0521844 -0.0390774 -1
  endloop
 endfacet
 facet normal -0.694714 -0.719286 -0
  outer loop
   vertex 0.0331039 -0.0165824 1
   vertex 0.0322726 -0.0157795 1
   vertex 0.0331039 -0.0165824 -1
  endloop
 endfacet
 facet normal -0.694714 -0.719286 0
  outer loop
   vertex 0.0331039 -0.0165824 -1
   vertex 0.0322726 -0.0157795 1
   vertex 0.0322726 -0.0157795 -1
  endloop
 endfacet
endsolid tunner_vane
