solid tunner_vane
 facet normal -0.00195142 0.999998 0
  outer loop
   vertex -0.0110344 0.0113204 -1
   vertex -0.0110344 0.0113204 1
   vertex -0.0103949 0.0113216 1
  endloop
 endfacet
 facet normal -0.00195142 0.999998 0
  outer loop
   vertex -0.0110344 0.0113204 -1
   vertex -0.0103949 0.0113216 1
   vertex -0.0103949 0.0113216 -1
  endloop
 endfacet
 facet normal 0.0290841 0.999577 -0
  outer loop
   vertex -0.0103949 0.0113216 -1
   vertex -0.0103949 0.0113216 1
   vertex -0.00975567 0.011303 1
  endloop
 endfacet
 facet normal 0.0290841 0.999577 0
  outer loop
   vertex -0.0103949 0.0113216 -1
   vertex -0.00975567 0.011303 1
   vertex -0.00975567 0.011303 -1
  endloop
 endfacet
 facet normal 0.0601084 0.998192 -0
  outer loop
   vertex -0.00975567 0.011303 -1
   vertex -0.00975567 0.011303 1
   vertex -0.00911733 0.0112646 1
  endloop
 endfacet
 facet normal 0.0601084 0.998192 0
  outer loop
   vertex -0.00975567 0.011303 -1
   vertex -0.00911733 0.0112646 1
   vertex -0.00911733 0.0112646 -1
  endloop
 endfacet
 facet normal 0.0911094 0.995841 -0
  outer loop
   vertex -0.00911733 0.0112646 -1
   vertex -0.00911733 0.0112646 1
   vertex -0.00848045 0.0112063 1
  endloop
 endfacet
 facet normal 0.0911094 0.995841 0
  outer loop
   vertex -0.00911733 0.0112646 -1
   vertex -0.00848045 0.0112063 1
   vertex -0.00848045 0.0112063 -1
  endloop
 endfacet
 facet normal 0.121861 0.992547 -0
  outer loop
   vertex -0.00848045 0.0112063 -1
   vertex -0.00848045 0.0112063 1
   vertex -0.00784577 0.0111284 1
  endloop
 endfacet
 facet normal 0.121861 0.992547 0
  outer loop
   vertex -0.00848045 0.0112063 -1
   vertex -0.00784577 0.0111284 1
   vertex -0.00784577 0.0111284 -1
  endloop
 endfacet
 facet normal 0.15265 0.98828 -0
  outer loop
   vertex -0.00784577 0.0111284 -1
   vertex -0.00784577 0.0111284 1
   vertex -0.00721378 0.0110308 1
  endloop
 endfacet
 facet normal 0.15265 0.98828 0
  outer loop
   vertex -0.00784577 0.0111284 -1
   vertex -0.00721378 0.0110308 1
   vertex -0.00721378 0.0110308 -1
  endloop
 endfacet
 facet normal 0.183275 0.983062 -0
  outer loop
   vertex -0.00721378 0.0110308 -1
   vertex -0.00721378 0.0110308 1
   vertex -0.0065851 0.0109136 1
  endloop
 endfacet
 facet normal 0.183275 0.983062 0
  outer loop
   vertex -0.00721378 0.0110308 -1
   vertex -0.0065851 0.0109136 1
   vertex -0.0065851 0.0109136 -1
  endloop
 endfacet
 facet normal 0.213702 0.976899 -0
  outer loop
   vertex -0.0065851 0.0109136 -1
   vertex -0.0065851 0.0109136 1
   vertex -0.00596038 0.0107769 1
  endloop
 endfacet
 facet normal 0.213702 0.976899 0
  outer loop
   vertex -0.0065851 0.0109136 -1
   vertex -0.00596038 0.0107769 1
   vertex -0.00596038 0.0107769 -1
  endloop
 endfacet
 facet normal 0.243896 0.969801 -0
  outer loop
   vertex -0.00596038 0.0107769 -1
   vertex -0.00596038 0.0107769 1
   vertex -0.00534018 0.0106209 1
  endloop
 endfacet
 facet normal 0.243896 0.969801 0
  outer loop
   vertex -0.00596038 0.0107769 -1
   vertex -0.00534018 0.0106209 1
   vertex -0.00534018 0.0106209 -1
  endloop
 endfacet
 facet normal 0.273895 0.96176 -0
  outer loop
   vertex -0.00534018 0.0106209 -1
   vertex -0.00534018 0.0106209 1
   vertex -0.00472513 0.0104458 1
  endloop
 endfacet
 facet normal 0.273895 0.96176 0
  outer loop
   vertex -0.00534018 0.0106209 -1
   vertex -0.00472513 0.0104458 1
   vertex -0.00472513 0.0104458 -1
  endloop
 endfacet
 facet normal 0.30362 0.952793 -0
  outer loop
   vertex -0.00472513 0.0104458 -1
   vertex -0.00472513 0.0104458 1
   vertex -0.0041158 0.0102516 1
  endloop
 endfacet
 facet normal 0.30362 0.952793 0
  outer loop
   vertex -0.00472513 0.0104458 -1
   vertex -0.0041158 0.0102516 1
   vertex -0.0041158 0.0102516 -1
  endloop
 endfacet
 facet normal 0.333018 0.942921 -0
  outer loop
   vertex -0.0041158 0.0102516 -1
   vertex -0.0041158 0.0102516 1
   vertex -0.00351282 0.0100387 1
  endloop
 endfacet
 facet normal 0.333018 0.942921 0
  outer loop
   vertex -0.0041158 0.0102516 -1
   vertex -0.00351282 0.0100387 1
   vertex -0.00351282 0.0100387 -1
  endloop
 endfacet
 facet normal 0.362126 0.932129 -0
  outer loop
   vertex -0.00351282 0.0100387 -1
   vertex -0.00351282 0.0100387 1
   vertex -0.00291673 0.00980708 1
  endloop
 endfacet
 facet normal 0.362126 0.932129 0
  outer loop
   vertex -0.00351282 0.0100387 -1
   vertex -0.00291673 0.00980708 1
   vertex -0.00291673 0.00980708 -1
  endloop
 endfacet
 facet normal 0.390891 0.920437 -0
  outer loop
   vertex -0.00291673 0.00980708 -1
   vertex -0.00291673 0.00980708 1
   vertex -0.0023281 0.0095571 1
  endloop
 endfacet
 facet normal 0.390891 0.920437 0
  outer loop
   vertex -0.00291673 0.00980708 -1
   vertex -0.0023281 0.0095571 1
   vertex -0.0023281 0.0095571 -1
  endloop
 endfacet
 facet normal 0.419256 0.907868 -0
  outer loop
   vertex -0.0023281 0.0095571 -1
   vertex -0.0023281 0.0095571 1
   vertex -0.00174753 0.00928899 1
  endloop
 endfacet
 facet normal 0.419256 0.907868 0
  outer loop
   vertex -0.0023281 0.0095571 -1
   vertex -0.00174753 0.00928899 1
   vertex -0.00174753 0.00928899 -1
  endloop
 endfacet
 facet normal 0.447234 0.894417 -0
  outer loop
   vertex -0.00174753 0.00928899 -1
   vertex -0.00174753 0.00928899 1
   vertex -0.00117555 0.00900298 1
  endloop
 endfacet
 facet normal 0.447234 0.894417 0
  outer loop
   vertex -0.00174753 0.00928899 -1
   vertex -0.00117555 0.00900298 1
   vertex -0.00117555 0.00900298 -1
  endloop
 endfacet
 facet normal 0.474779 0.880105 -0
  outer loop
   vertex -0.00117555 0.00900298 -1
   vertex -0.00117555 0.00900298 1
   vertex -0.000612718 0.00869936 1
  endloop
 endfacet
 facet normal 0.474779 0.880105 0
  outer loop
   vertex -0.00117555 0.00900298 -1
   vertex -0.000612718 0.00869936 1
   vertex -0.000612718 0.00869936 -1
  endloop
 endfacet
 facet normal 0.501859 0.864949 -0
  outer loop
   vertex -0.000612718 0.00869936 -1
   vertex -0.000612718 0.00869936 1
   vertex -5.95874e-05 0.00837842 1
  endloop
 endfacet
 facet normal 0.501859 0.864949 0
  outer loop
   vertex -0.000612718 0.00869936 -1
   vertex -5.95874e-05 0.00837842 1
   vertex -5.95874e-05 0.00837842 -1
  endloop
 endfacet
 facet normal 0.528466 0.848954 -0
  outer loop
   vertex -5.95874e-05 0.00837842 -1
   vertex -5.95874e-05 0.00837842 1
   vertex 0.000483323 0.00804047 1
  endloop
 endfacet
 facet normal 0.528466 0.848954 0
  outer loop
   vertex -5.95874e-05 0.00837842 -1
   vertex 0.000483323 0.00804047 1
   vertex 0.000483323 0.00804047 -1
  endloop
 endfacet
 facet normal 0.554568 0.832139 -0
  outer loop
   vertex 0.000483323 0.00804047 -1
   vertex 0.000483323 0.00804047 1
   vertex 0.00101547 0.00768583 1
  endloop
 endfacet
 facet normal 0.554568 0.832139 0
  outer loop
   vertex 0.000483323 0.00804047 -1
   vertex 0.00101547 0.00768583 1
   vertex 0.00101547 0.00768583 -1
  endloop
 endfacet
 facet normal 0.580111 0.814538 -0
  outer loop
   vertex 0.00101547 0.00768583 -1
   vertex 0.00101547 0.00768583 1
   vertex 0.00153636 0.00731485 1
  endloop
 endfacet
 facet normal 0.580111 0.814538 0
  outer loop
   vertex 0.00101547 0.00768583 -1
   vertex 0.00153636 0.00731485 1
   vertex 0.00153636 0.00731485 -1
  endloop
 endfacet
 facet normal 0.605114 0.796139 -0
  outer loop
   vertex 0.00153636 0.00731485 -1
   vertex 0.00153636 0.00731485 1
   vertex 0.00204549 0.00692788 1
  endloop
 endfacet
 facet normal 0.605114 0.796139 0
  outer loop
   vertex 0.00153636 0.00731485 -1
   vertex 0.00204549 0.00692788 1
   vertex 0.00204549 0.00692788 -1
  endloop
 endfacet
 facet normal 0.629539 0.776969 -0
  outer loop
   vertex 0.00204549 0.00692788 -1
   vertex 0.00204549 0.00692788 1
   vertex 0.00254236 0.00652529 1
  endloop
 endfacet
 facet normal 0.629539 0.776969 0
  outer loop
   vertex 0.00204549 0.00692788 -1
   vertex 0.00254236 0.00652529 1
   vertex 0.00254236 0.00652529 -1
  endloop
 endfacet
 facet normal 0.653351 0.757055 -0
  outer loop
   vertex 0.00254236 0.00652529 -1
   vertex 0.00254236 0.00652529 1
   vertex 0.0030265 0.00610747 1
  endloop
 endfacet
 facet normal 0.653351 0.757055 0
  outer loop
   vertex 0.00254236 0.00652529 -1
   vertex 0.0030265 0.00610747 1
   vertex 0.0030265 0.00610747 -1
  endloop
 endfacet
 facet normal 0.67652 0.736424 -0
  outer loop
   vertex 0.0030265 0.00610747 -1
   vertex 0.0030265 0.00610747 1
   vertex 0.00349744 0.00567484 1
  endloop
 endfacet
 facet normal 0.67652 0.736424 0
  outer loop
   vertex 0.0030265 0.00610747 -1
   vertex 0.00349744 0.00567484 1
   vertex 0.00349744 0.00567484 -1
  endloop
 endfacet
 facet normal 0.699055 0.715068 -0
  outer loop
   vertex 0.00349744 0.00567484 -1
   vertex 0.00349744 0.00567484 1
   vertex 0.00395473 0.00522779 1
  endloop
 endfacet
 facet normal 0.699055 0.715068 0
  outer loop
   vertex 0.00349744 0.00567484 -1
   vertex 0.00395473 0.00522779 1
   vertex 0.00395473 0.00522779 -1
  endloop
 endfacet
 facet normal 0.720914 0.693025 -0
  outer loop
   vertex 0.00395473 0.00522779 -1
   vertex 0.00395473 0.00522779 1
   vertex 0.00439791 0.00476677 1
  endloop
 endfacet
 facet normal 0.720914 0.693025 0
  outer loop
   vertex 0.00395473 0.00522779 -1
   vertex 0.00439791 0.00476677 1
   vertex 0.00439791 0.00476677 -1
  endloop
 endfacet
 facet normal 0.742067 0.670326 -0
  outer loop
   vertex 0.00439791 0.00476677 -1
   vertex 0.00439791 0.00476677 1
   vertex 0.00482659 0.00429222 1
  endloop
 endfacet
 facet normal 0.742067 0.670326 0
  outer loop
   vertex 0.00439791 0.00476677 -1
   vertex 0.00482659 0.00429222 1
   vertex 0.00482659 0.00429222 -1
  endloop
 endfacet
 facet normal 0.762514 0.646972 -0
  outer loop
   vertex 0.00482659 0.00429222 -1
   vertex 0.00482659 0.00429222 1
   vertex 0.00524032 0.00380459 1
  endloop
 endfacet
 facet normal 0.762514 0.646972 0
  outer loop
   vertex 0.00482659 0.00429222 -1
   vertex 0.00524032 0.00380459 1
   vertex 0.00524032 0.00380459 -1
  endloop
 endfacet
 facet normal 0.782233 0.622986 -0
  outer loop
   vertex 0.00524032 0.00380459 -1
   vertex 0.00524032 0.00380459 1
   vertex 0.00563873 0.00330435 1
  endloop
 endfacet
 facet normal 0.782233 0.622986 0
  outer loop
   vertex 0.00524032 0.00380459 -1
   vertex 0.00563873 0.00330435 1
   vertex 0.00563873 0.00330435 -1
  endloop
 endfacet
 facet normal 0.801186 0.598415 -0
  outer loop
   vertex 0.00563873 0.00330435 -1
   vertex 0.00563873 0.00330435 1
   vertex 0.00602141 0.002792 1
  endloop
 endfacet
 facet normal 0.801186 0.598415 0
  outer loop
   vertex 0.00563873 0.00330435 -1
   vertex 0.00602141 0.002792 1
   vertex 0.00602141 0.002792 -1
  endloop
 endfacet
 facet normal 0.819372 0.573262 -0
  outer loop
   vertex 0.00602141 0.002792 -1
   vertex 0.00602141 0.002792 1
   vertex 0.00638801 0.00226801 1
  endloop
 endfacet
 facet normal 0.819372 0.573262 0
  outer loop
   vertex 0.00602141 0.002792 -1
   vertex 0.00638801 0.00226801 1
   vertex 0.00638801 0.00226801 -1
  endloop
 endfacet
 facet normal 0.836773 0.54755 -0
  outer loop
   vertex 0.00638801 0.00226801 -1
   vertex 0.00638801 0.00226801 1
   vertex 0.00673816 0.0017329 1
  endloop
 endfacet
 facet normal 0.836773 0.54755 0
  outer loop
   vertex 0.00638801 0.00226801 -1
   vertex 0.00673816 0.0017329 1
   vertex 0.00673816 0.0017329 -1
  endloop
 endfacet
 facet normal 0.853354 0.521331 -0
  outer loop
   vertex 0.00673816 0.0017329 -1
   vertex 0.00673816 0.0017329 1
   vertex 0.00707155 0.00118718 1
  endloop
 endfacet
 facet normal 0.853354 0.521331 0
  outer loop
   vertex 0.00673816 0.0017329 -1
   vertex 0.00707155 0.00118718 1
   vertex 0.00707155 0.00118718 -1
  endloop
 endfacet
 facet normal 0.86913 0.494583 -0
  outer loop
   vertex 0.00707155 0.00118718 -1
   vertex 0.00707155 0.00118718 1
   vertex 0.00738784 0.000631369 1
  endloop
 endfacet
 facet normal 0.86913 0.494583 0
  outer loop
   vertex 0.00707155 0.00118718 -1
   vertex 0.00738784 0.000631369 1
   vertex 0.00738784 0.000631369 -1
  endloop
 endfacet
 facet normal 0.884064 0.467366 -0
  outer loop
   vertex 0.00738784 0.000631369 -1
   vertex 0.00738784 0.000631369 1
   vertex 0.00768672 6.60143e-05 1
  endloop
 endfacet
 facet normal 0.884064 0.467366 0
  outer loop
   vertex 0.00738784 0.000631369 -1
   vertex 0.00768672 6.60143e-05 1
   vertex 0.00768672 6.60143e-05 -1
  endloop
 endfacet
 facet normal 0.898136 0.439717 -0
  outer loop
   vertex 0.00768672 6.60143e-05 -1
   vertex 0.00768672 6.60143e-05 1
   vertex 0.00796792 -0.000508347 1
  endloop
 endfacet
 facet normal 0.898136 0.439717 0
  outer loop
   vertex 0.00768672 6.60143e-05 -1
   vertex 0.00796792 -0.000508347 1
   vertex 0.00796792 -0.000508347 -1
  endloop
 endfacet
 facet normal 0.911352 0.411629 -0
  outer loop
   vertex 0.00796792 -0.000508347 -1
   vertex 0.00796792 -0.000508347 1
   vertex 0.00823116 -0.00109116 1
  endloop
 endfacet
 facet normal 0.911352 0.411629 0
  outer loop
   vertex 0.00796792 -0.000508347 -1
   vertex 0.00823116 -0.00109116 1
   vertex 0.00823116 -0.00109116 -1
  endloop
 endfacet
 facet normal 0.923687 0.383147 -0
  outer loop
   vertex 0.00823116 -0.00109116 -1
   vertex 0.00823116 -0.00109116 1
   vertex 0.00847618 -0.00168185 1
  endloop
 endfacet
 facet normal 0.923687 0.383147 0
  outer loop
   vertex 0.00823116 -0.00109116 -1
   vertex 0.00847618 -0.00168185 1
   vertex 0.00847618 -0.00168185 -1
  endloop
 endfacet
 facet normal 0.935135 0.354292 -0
  outer loop
   vertex 0.00847618 -0.00168185 -1
   vertex 0.00847618 -0.00168185 1
   vertex 0.00870275 -0.00227986 1
  endloop
 endfacet
 facet normal 0.935135 0.354292 0
  outer loop
   vertex 0.00847618 -0.00168185 -1
   vertex 0.00870275 -0.00227986 1
   vertex 0.00870275 -0.00227986 -1
  endloop
 endfacet
 facet normal 0.945681 0.325095 -0
  outer loop
   vertex 0.00870275 -0.00227986 -1
   vertex 0.00870275 -0.00227986 1
   vertex 0.00891065 -0.00288463 1
  endloop
 endfacet
 facet normal 0.945681 0.325095 0
  outer loop
   vertex 0.00870275 -0.00227986 -1
   vertex 0.00891065 -0.00288463 1
   vertex 0.00891065 -0.00288463 -1
  endloop
 endfacet
 facet normal 0.955312 0.2956 -0
  outer loop
   vertex 0.00891065 -0.00288463 -1
   vertex 0.00891065 -0.00288463 1
   vertex 0.00909968 -0.00349555 1
  endloop
 endfacet
 facet normal 0.955312 0.2956 0
  outer loop
   vertex 0.00891065 -0.00288463 -1
   vertex 0.00909968 -0.00349555 1
   vertex 0.00909968 -0.00349555 -1
  endloop
 endfacet
 facet normal 0.964027 0.265803 -0
  outer loop
   vertex 0.00909968 -0.00349555 -1
   vertex 0.00909968 -0.00349555 1
   vertex 0.00926966 -0.00411204 1
  endloop
 endfacet
 facet normal 0.964027 0.265803 0
  outer loop
   vertex 0.00909968 -0.00349555 -1
   vertex 0.00926966 -0.00411204 1
   vertex 0.00926966 -0.00411204 -1
  endloop
 endfacet
 facet normal 0.971813 0.235752 -0
  outer loop
   vertex 0.00926966 -0.00411204 -1
   vertex 0.00926966 -0.00411204 1
   vertex 0.00942042 -0.00473351 1
  endloop
 endfacet
 facet normal 0.971813 0.235752 0
  outer loop
   vertex 0.00926966 -0.00411204 -1
   vertex 0.00942042 -0.00473351 1
   vertex 0.00942042 -0.00473351 -1
  endloop
 endfacet
 facet normal 0.978667 0.205453 -0
  outer loop
   vertex 0.00942042 -0.00473351 -1
   vertex 0.00942042 -0.00473351 1
   vertex 0.00955181 -0.00535935 1
  endloop
 endfacet
 facet normal 0.978667 0.205453 0
  outer loop
   vertex 0.00942042 -0.00473351 -1
   vertex 0.00955181 -0.00535935 1
   vertex 0.00955181 -0.00535935 -1
  endloop
 endfacet
 facet normal 0.984567 0.175011 -0
  outer loop
   vertex 0.00955181 -0.00535935 -1
   vertex 0.00955181 -0.00535935 1
   vertex 0.00966372 -0.00598896 1
  endloop
 endfacet
 facet normal 0.984567 0.175011 0
  outer loop
   vertex 0.00955181 -0.00535935 -1
   vertex 0.00966372 -0.00598896 1
   vertex 0.00966372 -0.00598896 -1
  endloop
 endfacet
 facet normal 0.989518 0.144406 -0
  outer loop
   vertex 0.00966372 -0.00598896 -1
   vertex 0.00966372 -0.00598896 1
   vertex 0.00975608 -0.0066218 1
  endloop
 endfacet
 facet normal 0.989518 0.144406 0
  outer loop
   vertex 0.00966372 -0.00598896 -1
   vertex 0.00975608 -0.0066218 1
   vertex 0.00975608 -0.0066218 -1
  endloop
 endfacet
 facet normal 0.993524 0.113618 -0
  outer loop
   vertex 0.00975608 -0.0066218 -1
   vertex 0.00975608 -0.0066218 1
   vertex 0.00982874 -0.00725719 1
  endloop
 endfacet
 facet normal 0.993524 0.113618 0
  outer loop
   vertex 0.00975608 -0.0066218 -1
   vertex 0.00982874 -0.00725719 1
   vertex 0.00982874 -0.00725719 -1
  endloop
 endfacet
 facet normal 0.996581 0.0826247 -0
  outer loop
   vertex 0.00982874 -0.00725719 -1
   vertex 0.00982874 -0.00725719 1
   vertex 0.00988157 -0.00789444 1
  endloop
 endfacet
 facet normal 0.996581 0.0826247 0
  outer loop
   vertex 0.00982874 -0.00725719 -1
   vertex 0.00988157 -0.00789444 1
   vertex 0.00988157 -0.00789444 -1
  endloop
 endfacet
 facet normal 0.998661 0.0517367 -0
  outer loop
   vertex 0.00988157 -0.00789444 -1
   vertex 0.00988157 -0.00789444 1
   vertex 0.00991466 -0.00853308 1
  endloop
 endfacet
 facet normal 0.998661 0.0517367 0
  outer loop
   vertex 0.00988157 -0.00789444 -1
   vertex 0.00991466 -0.00853308 1
   vertex 0.00991466 -0.00853308 -1
  endloop
 endfacet
 facet normal 0.999784 0.0207937 -0
  outer loop
   vertex 0.00991466 -0.00853308 -1
   vertex 0.00991466 -0.00853308 1
   vertex 0.00992796 -0.0091725 1
  endloop
 endfacet
 facet normal 0.999784 0.0207937 0
  outer loop
   vertex 0.00991466 -0.00853308 -1
   vertex 0.00992796 -0.0091725 1
   vertex 0.00992796 -0.0091725 -1
  endloop
 endfacet
 facet normal 0.999946 -0.0104068 0
  outer loop
   vertex 0.00992796 -0.0091725 -1
   vertex 0.00992796 -0.0091725 1
   vertex 0.0099213 -0.00981191 1
  endloop
 endfacet
 facet normal 0.999946 -0.0104068 0
  outer loop
   vertex 0.00992796 -0.0091725 -1
   vertex 0.0099213 -0.00981191 1
   vertex 0.0099213 -0.00981191 -1
  endloop
 endfacet
 facet normal 0.999146 -0.0413246 0
  outer loop
   vertex 0.0099213 -0.00981191 -1
   vertex 0.0099213 -0.00981191 1
   vertex 0.00989487 -0.0104509 1
  endloop
 endfacet
 facet normal 0.999146 -0.0413246 0
  outer loop
   vertex 0.0099213 -0.00981191 -1
   vertex 0.00989487 -0.0104509 1
   vertex 0.00989487 -0.0104509 -1
  endloop
 endfacet
 facet normal 0.997378 -0.0723655 0
  outer loop
   vertex 0.00989487 -0.0104509 -1
   vertex 0.00989487 -0.0104509 1
   vertex 0.0098486 -0.0110887 1
  endloop
 endfacet
 facet normal 0.997378 -0.0723655 0
  outer loop
   vertex 0.00989487 -0.0104509 -1
   vertex 0.0098486 -0.0110887 1
   vertex 0.0098486 -0.0110887 -1
  endloop
 endfacet
 facet normal 0.994662 -0.103184 0
  outer loop
   vertex 0.0098486 -0.0110887 -1
   vertex 0.0098486 -0.0110887 1
   vertex 0.00978261 -0.0117248 1
  endloop
 endfacet
 facet normal 0.994662 -0.103184 0
  outer loop
   vertex 0.0098486 -0.0110887 -1
   vertex 0.00978261 -0.0117248 1
   vertex 0.00978261 -0.0117248 -1
  endloop
 endfacet
 facet normal -0.156415 -0.987691 -0
  outer loop
   vertex 0.0088844 -0.0123774 1
   vertex 0.00848934 -0.0123148 1
   vertex 0.0088844 -0.0123774 -1
  endloop
 endfacet
 facet normal -0.156415 -0.987691 0
  outer loop
   vertex 0.0088844 -0.0123774 -1
   vertex 0.00848934 -0.0123148 1
   vertex 0.00848934 -0.0123148 -1
  endloop
 endfacet
 facet normal -0.990074 0.140548 0
  outer loop
   vertex 0.00848934 -0.0123148 -1
   vertex 0.00848934 -0.0123148 1
   vertex 0.00857697 -0.0116975 -1
  endloop
 endfacet
 facet normal -0.990074 0.140548 0
  outer loop
   vertex 0.00857697 -0.0116975 -1
   vertex 0.00848934 -0.0123148 1
   vertex 0.00857697 -0.0116975 1
  endloop
 endfacet
 facet normal -0.994087 0.108582 0
  outer loop
   vertex 0.00857697 -0.0116975 -1
   vertex 0.00857697 -0.0116975 1
   vertex 0.00864467 -0.0110776 -1
  endloop
 endfacet
 facet normal -0.994087 0.108582 0
  outer loop
   vertex 0.00864467 -0.0110776 -1
   vertex 0.00857697 -0.0116975 1
   vertex 0.00864467 -0.0110776 1
  endloop
 endfacet
 facet normal -0.997055 0.0766868 0
  outer loop
   vertex 0.00864467 -0.0110776 -1
   vertex 0.00864467 -0.0110776 1
   vertex 0.00869249 -0.010456 -1
  endloop
 endfacet
 facet normal -0.997055 0.0766868 0
  outer loop
   vertex 0.00869249 -0.010456 -1
   vertex 0.00864467 -0.0110776 1
   vertex 0.00869249 -0.010456 1
  endloop
 endfacet
 facet normal -0.999003 0.044653 0
  outer loop
   vertex 0.00869249 -0.010456 -1
   vertex 0.00869249 -0.010456 1
   vertex 0.00872033 -0.00983312 -1
  endloop
 endfacet
 facet normal -0.999003 0.044653 0
  outer loop
   vertex 0.00872033 -0.00983312 -1
   vertex 0.00869249 -0.010456 1
   vertex 0.00872033 -0.00983312 1
  endloop
 endfacet
 facet normal -0.999923 0.0123924 0
  outer loop
   vertex 0.00872033 -0.00983312 -1
   vertex 0.00872033 -0.00983312 1
   vertex 0.00872805 -0.00920961 -1
  endloop
 endfacet
 facet normal -0.999923 0.0123924 0
  outer loop
   vertex 0.00872805 -0.00920961 -1
   vertex 0.00872033 -0.00983312 1
   vertex 0.00872805 -0.00920961 1
  endloop
 endfacet
 facet normal -0.999807 -0.0196462 0
  outer loop
   vertex 0.00872805 -0.00920961 -1
   vertex 0.00872805 -0.00920961 1
   vertex 0.00871581 -0.00858624 -1
  endloop
 endfacet
 facet normal -0.999807 -0.0196462 0
  outer loop
   vertex 0.00871581 -0.00858624 -1
   vertex 0.00872805 -0.00920961 1
   vertex 0.00871581 -0.00858624 1
  endloop
 endfacet
 facet normal -0.998659 -0.0517701 0
  outer loop
   vertex 0.00871581 -0.00858624 -1
   vertex 0.00871581 -0.00858624 1
   vertex 0.00868353 -0.00796358 -1
  endloop
 endfacet
 facet normal -0.998659 -0.0517701 0
  outer loop
   vertex 0.00868353 -0.00796358 -1
   vertex 0.00871581 -0.00858624 1
   vertex 0.00868353 -0.00796358 1
  endloop
 endfacet
 facet normal -0.99648 -0.0838284 0
  outer loop
   vertex 0.00868353 -0.00796358 -1
   vertex 0.00868353 -0.00796358 1
   vertex 0.00863126 -0.00734227 -1
  endloop
 endfacet
 facet normal -0.99648 -0.0838284 0
  outer loop
   vertex 0.00863126 -0.00734227 -1
   vertex 0.00868353 -0.00796358 1
   vertex 0.00863126 -0.00734227 1
  endloop
 endfacet
 facet normal -0.993267 -0.115845 0
  outer loop
   vertex 0.00863126 -0.00734227 -1
   vertex 0.00863126 -0.00734227 1
   vertex 0.00855903 -0.00672295 -1
  endloop
 endfacet
 facet normal -0.993267 -0.115845 0
  outer loop
   vertex 0.00855903 -0.00672295 -1
   vertex 0.00863126 -0.00734227 1
   vertex 0.00855903 -0.00672295 1
  endloop
 endfacet
 facet normal -0.989039 -0.147651 0
  outer loop
   vertex 0.00855903 -0.00672295 -1
   vertex 0.00855903 -0.00672295 1
   vertex 0.00846697 -0.00610628 -1
  endloop
 endfacet
 facet normal -0.989039 -0.147651 0
  outer loop
   vertex 0.00846697 -0.00610628 -1
   vertex 0.00855903 -0.00672295 1
   vertex 0.00846697 -0.00610628 1
  endloop
 endfacet
 facet normal -0.983782 -0.179366 0
  outer loop
   vertex 0.00846697 -0.00610628 -1
   vertex 0.00846697 -0.00610628 1
   vertex 0.00835513 -0.00549291 -1
  endloop
 endfacet
 facet normal -0.983782 -0.179366 0
  outer loop
   vertex 0.00835513 -0.00549291 -1
   vertex 0.00846697 -0.00610628 1
   vertex 0.00835513 -0.00549291 1
  endloop
 endfacet
 facet normal -0.97751 -0.210889 0
  outer loop
   vertex 0.00835513 -0.00549291 -1
   vertex 0.00835513 -0.00549291 1
   vertex 0.00822364 -0.00488342 -1
  endloop
 endfacet
 facet normal -0.97751 -0.210889 0
  outer loop
   vertex 0.00822364 -0.00488342 -1
   vertex 0.00835513 -0.00549291 1
   vertex 0.00822364 -0.00488342 1
  endloop
 endfacet
 facet normal -0.970231 -0.242182 0
  outer loop
   vertex 0.00822364 -0.00488342 -1
   vertex 0.00822364 -0.00488342 1
   vertex 0.00807264 -0.00427847 -1
  endloop
 endfacet
 facet normal -0.970231 -0.242182 0
  outer loop
   vertex 0.00807264 -0.00427847 -1
   vertex 0.00822364 -0.00488342 1
   vertex 0.00807264 -0.00427847 1
  endloop
 endfacet
 facet normal -0.961946 -0.273239 0
  outer loop
   vertex 0.00807264 -0.00427847 -1
   vertex 0.00807264 -0.00427847 1
   vertex 0.00790228 -0.0036787 -1
  endloop
 endfacet
 facet normal -0.961946 -0.273239 0
  outer loop
   vertex 0.00790228 -0.0036787 -1
   vertex 0.00807264 -0.00427847 1
   vertex 0.00790228 -0.0036787 1
  endloop
 endfacet
 facet normal -0.952674 -0.303994 0
  outer loop
   vertex 0.00790228 -0.0036787 -1
   vertex 0.00790228 -0.0036787 1
   vertex 0.00771273 -0.0030847 -1
  endloop
 endfacet
 facet normal -0.952674 -0.303994 0
  outer loop
   vertex 0.00771273 -0.0030847 -1
   vertex 0.00790228 -0.0036787 1
   vertex 0.00771273 -0.0030847 1
  endloop
 endfacet
 facet normal -0.942408 -0.334466 0
  outer loop
   vertex 0.00771273 -0.0030847 -1
   vertex 0.00771273 -0.0030847 1
   vertex 0.00750419 -0.0024971 -1
  endloop
 endfacet
 facet normal -0.942408 -0.334466 0
  outer loop
   vertex 0.00750419 -0.0024971 -1
   vertex 0.00771273 -0.0030847 1
   vertex 0.00750419 -0.0024971 1
  endloop
 endfacet
 facet normal -0.931182 -0.364556 0
  outer loop
   vertex 0.00750419 -0.0024971 -1
   vertex 0.00750419 -0.0024971 1
   vertex 0.00727689 -0.0019165 -1
  endloop
 endfacet
 facet normal -0.931182 -0.364556 0
  outer loop
   vertex 0.00727689 -0.0019165 -1
   vertex 0.00750419 -0.0024971 1
   vertex 0.00727689 -0.0019165 1
  endloop
 endfacet
 facet normal -0.918987 -0.394287 0
  outer loop
   vertex 0.00727689 -0.0019165 -1
   vertex 0.00727689 -0.0019165 1
   vertex 0.00703105 -0.00134351 -1
  endloop
 endfacet
 facet normal -0.918987 -0.394287 0
  outer loop
   vertex 0.00703105 -0.00134351 -1
   vertex 0.00727689 -0.0019165 1
   vertex 0.00703105 -0.00134351 1
  endloop
 endfacet
 facet normal -0.905841 -0.423618 0
  outer loop
   vertex 0.00703105 -0.00134351 -1
   vertex 0.00703105 -0.00134351 1
   vertex 0.00676692 -0.000778711 -1
  endloop
 endfacet
 facet normal -0.905841 -0.423618 0
  outer loop
   vertex 0.00676692 -0.000778711 -1
   vertex 0.00703105 -0.00134351 1
   vertex 0.00676692 -0.000778711 1
  endloop
 endfacet
 facet normal -0.891764 -0.4525 0
  outer loop
   vertex 0.00676692 -0.000778711 -1
   vertex 0.00676692 -0.000778711 1
   vertex 0.00648479 -0.000222692 -1
  endloop
 endfacet
 facet normal -0.891764 -0.4525 0
  outer loop
   vertex 0.00648479 -0.000222692 -1
   vertex 0.00676692 -0.000778711 1
   vertex 0.00648479 -0.000222692 1
  endloop
 endfacet
 facet normal -0.876763 -0.480923 0
  outer loop
   vertex 0.00648479 -0.000222692 -1
   vertex 0.00648479 -0.000222692 1
   vertex 0.00618493 0.000323975 -1
  endloop
 endfacet
 facet normal -0.876763 -0.480923 0
  outer loop
   vertex 0.00618493 0.000323975 -1
   vertex 0.00648479 -0.000222692 1
   vertex 0.00618493 0.000323975 1
  endloop
 endfacet
 facet normal -0.860855 -0.50885 0
  outer loop
   vertex 0.00618493 0.000323975 -1
   vertex 0.00618493 0.000323975 1
   vertex 0.00586766 0.000860717 -1
  endloop
 endfacet
 facet normal -0.860855 -0.50885 0
  outer loop
   vertex 0.00586766 0.000860717 -1
   vertex 0.00618493 0.000323975 1
   vertex 0.00586766 0.000860717 1
  endloop
 endfacet
 facet normal -0.84407 -0.536232 0
  outer loop
   vertex 0.00586766 0.000860717 -1
   vertex 0.00586766 0.000860717 1
   vertex 0.00553332 0.001387 -1
  endloop
 endfacet
 facet normal -0.84407 -0.536232 0
  outer loop
   vertex 0.00553332 0.001387 -1
   vertex 0.00586766 0.000860717 1
   vertex 0.00553332 0.001387 1
  endloop
 endfacet
 facet normal -0.826394 -0.563093 0
  outer loop
   vertex 0.00553332 0.001387 -1
   vertex 0.00553332 0.001387 1
   vertex 0.00518222 0.00190226 -1
  endloop
 endfacet
 facet normal -0.826394 -0.563093 0
  outer loop
   vertex 0.00518222 0.00190226 -1
   vertex 0.00553332 0.001387 1
   vertex 0.00518222 0.00190226 1
  endloop
 endfacet
 facet normal -0.807887 -0.589337 0
  outer loop
   vertex 0.00518222 0.00190226 -1
   vertex 0.00518222 0.00190226 1
   vertex 0.00481477 0.00240599 -1
  endloop
 endfacet
 facet normal -0.807887 -0.589337 0
  outer loop
   vertex 0.00481477 0.00240599 -1
   vertex 0.00518222 0.00190226 1
   vertex 0.00481477 0.00240599 1
  endloop
 endfacet
 facet normal -0.788523 -0.615005 0
  outer loop
   vertex 0.00481477 0.00240599 -1
   vertex 0.00481477 0.00240599 1
   vertex 0.00443131 0.00289763 -1
  endloop
 endfacet
 facet normal -0.788523 -0.615005 0
  outer loop
   vertex 0.00443131 0.00289763 -1
   vertex 0.00481477 0.00240599 1
   vertex 0.00443131 0.00289763 1
  endloop
 endfacet
 facet normal -0.768368 -0.640008 0
  outer loop
   vertex 0.00443131 0.00289763 -1
   vertex 0.00443131 0.00289763 1
   vertex 0.00403226 0.00337671 -1
  endloop
 endfacet
 facet normal -0.768368 -0.640008 0
  outer loop
   vertex 0.00403226 0.00337671 -1
   vertex 0.00443131 0.00289763 1
   vertex 0.00403226 0.00337671 1
  endloop
 endfacet
 facet normal -0.747393 -0.664383 0
  outer loop
   vertex 0.00403226 0.00337671 -1
   vertex 0.00403226 0.00337671 1
   vertex 0.00361802 0.00384272 -1
  endloop
 endfacet
 facet normal -0.747393 -0.664383 0
  outer loop
   vertex 0.00361802 0.00384272 -1
   vertex 0.00403226 0.00337671 1
   vertex 0.00361802 0.00384272 1
  endloop
 endfacet
 facet normal -0.725669 -0.688044 0
  outer loop
   vertex 0.00361802 0.00384272 -1
   vertex 0.00361802 0.00384272 1
   vertex 0.00318901 0.00429518 -1
  endloop
 endfacet
 facet normal -0.725669 -0.688044 0
  outer loop
   vertex 0.00318901 0.00429518 -1
   vertex 0.00361802 0.00384272 1
   vertex 0.00318901 0.00429518 1
  endloop
 endfacet
 facet normal -0.703188 -0.711004 0
  outer loop
   vertex 0.00318901 0.00429518 -1
   vertex 0.00318901 0.00429518 1
   vertex 0.0027457 0.00473361 -1
  endloop
 endfacet
 facet normal -0.703188 -0.711004 0
  outer loop
   vertex 0.0027457 0.00473361 -1
   vertex 0.00318901 0.00429518 1
   vertex 0.0027457 0.00473361 1
  endloop
 endfacet
 facet normal -0.679984 -0.733227 0
  outer loop
   vertex 0.0027457 0.00473361 -1
   vertex 0.0027457 0.00473361 1
   vertex 0.00228853 0.00515759 -1
  endloop
 endfacet
 facet normal -0.679984 -0.733227 0
  outer loop
   vertex 0.00228853 0.00515759 -1
   vertex 0.0027457 0.00473361 1
   vertex 0.00228853 0.00515759 1
  endloop
 endfacet
 facet normal -0.656066 -0.754704 0
  outer loop
   vertex 0.00228853 0.00515759 -1
   vertex 0.00228853 0.00515759 1
   vertex 0.00181797 0.00556665 -1
  endloop
 endfacet
 facet normal -0.656066 -0.754704 0
  outer loop
   vertex 0.00181797 0.00556665 -1
   vertex 0.00228853 0.00515759 1
   vertex 0.00181797 0.00556665 1
  endloop
 endfacet
 facet normal -0.631482 -0.775391 0
  outer loop
   vertex 0.00181797 0.00556665 -1
   vertex 0.00181797 0.00556665 1
   vertex 0.00133451 0.00596038 -1
  endloop
 endfacet
 facet normal -0.631482 -0.775391 0
  outer loop
   vertex 0.00133451 0.00596038 -1
   vertex 0.00181797 0.00556665 1
   vertex 0.00133451 0.00596038 1
  endloop
 endfacet
 facet normal -0.606235 -0.795286 0
  outer loop
   vertex 0.00133451 0.00596038 -1
   vertex 0.00133451 0.00596038 1
   vertex 0.000838645 0.00633837 -1
  endloop
 endfacet
 facet normal -0.606235 -0.795286 0
  outer loop
   vertex 0.000838645 0.00633837 -1
   vertex 0.00133451 0.00596038 1
   vertex 0.000838645 0.00633837 1
  endloop
 endfacet
 facet normal -0.580386 -0.814341 0
  outer loop
   vertex 0.000838645 0.00633837 -1
   vertex 0.000838645 0.00633837 1
   vertex 0.0003309 0.00670025 -1
  endloop
 endfacet
 facet normal -0.580386 -0.814341 0
  outer loop
   vertex 0.0003309 0.00670025 -1
   vertex 0.000838645 0.00633837 1
   vertex 0.0003309 0.00670025 1
  endloop
 endfacet
 facet normal -0.553911 -0.832576 0
  outer loop
   vertex 0.0003309 0.00670025 -1
   vertex 0.0003309 0.00670025 1
   vertex -0.000188214 0.00704561 -1
  endloop
 endfacet
 facet normal -0.553911 -0.832576 0
  outer loop
   vertex -0.000188214 0.00704561 -1
   vertex 0.0003309 0.00670025 1
   vertex -0.000188214 0.00704561 1
  endloop
 endfacet
 facet normal -0.526867 -0.849948 0
  outer loop
   vertex -0.000188214 0.00704561 -1
   vertex -0.000188214 0.00704561 1
   vertex -0.000718168 0.00737412 -1
  endloop
 endfacet
 facet normal -0.526867 -0.849948 0
  outer loop
   vertex -0.000718168 0.00737412 -1
   vertex -0.000188214 0.00704561 1
   vertex -0.000718168 0.00737412 1
  endloop
 endfacet
 facet normal -0.499299 -0.86643 0
  outer loop
   vertex -0.000718168 0.00737412 -1
   vertex -0.000718168 0.00737412 1
   vertex -0.00125839 0.00768544 -1
  endloop
 endfacet
 facet normal -0.499299 -0.86643 0
  outer loop
   vertex -0.00125839 0.00768544 -1
   vertex -0.000718168 0.00737412 1
   vertex -0.00125839 0.00768544 1
  endloop
 endfacet
 facet normal -0.471187 -0.882033 0
  outer loop
   vertex -0.00125839 0.00768544 -1
   vertex -0.00125839 0.00768544 1
   vertex -0.00180834 0.00797922 -1
  endloop
 endfacet
 facet normal -0.471187 -0.882033 0
  outer loop
   vertex -0.00180834 0.00797922 -1
   vertex -0.00125839 0.00768544 1
   vertex -0.00180834 0.00797922 1
  endloop
 endfacet
 facet normal -0.442614 -0.896712 0
  outer loop
   vertex -0.00180834 0.00797922 -1
   vertex -0.00180834 0.00797922 1
   vertex -0.00236745 0.0082552 -1
  endloop
 endfacet
 facet normal -0.442614 -0.896712 0
  outer loop
   vertex -0.00236745 0.0082552 -1
   vertex -0.00180834 0.00797922 1
   vertex -0.00236745 0.0082552 1
  endloop
 endfacet
 facet normal -0.413577 -0.910469 0
  outer loop
   vertex -0.00236745 0.0082552 -1
   vertex -0.00236745 0.0082552 1
   vertex -0.00293513 0.00851306 -1
  endloop
 endfacet
 facet normal -0.413577 -0.910469 0
  outer loop
   vertex -0.00293513 0.00851306 -1
   vertex -0.00236745 0.0082552 1
   vertex -0.00293513 0.00851306 1
  endloop
 endfacet
 facet normal -0.384099 -0.923292 0
  outer loop
   vertex -0.00293513 0.00851306 -1
   vertex -0.00293513 0.00851306 1
   vertex -0.00351081 0.00875255 -1
  endloop
 endfacet
 facet normal -0.384099 -0.923292 0
  outer loop
   vertex -0.00351081 0.00875255 -1
   vertex -0.00293513 0.00851306 1
   vertex -0.00351081 0.00875255 1
  endloop
 endfacet
 facet normal -0.354246 -0.935152 0
  outer loop
   vertex -0.00351081 0.00875255 -1
   vertex -0.00351081 0.00875255 1
   vertex -0.00409387 0.00897342 -1
  endloop
 endfacet
 facet normal -0.354246 -0.935152 0
  outer loop
   vertex -0.00409387 0.00897342 -1
   vertex -0.00351081 0.00875255 1
   vertex -0.00409387 0.00897342 1
  endloop
 endfacet
 facet normal -0.324015 -0.946052 0
  outer loop
   vertex -0.00409387 0.00897342 -1
   vertex -0.00409387 0.00897342 1
   vertex -0.00468374 0.00917545 -1
  endloop
 endfacet
 facet normal -0.324015 -0.946052 0
  outer loop
   vertex -0.00468374 0.00917545 -1
   vertex -0.00409387 0.00897342 1
   vertex -0.00468374 0.00917545 1
  endloop
 endfacet
 facet normal -0.293415 -0.955985 0
  outer loop
   vertex -0.00468374 0.00917545 -1
   vertex -0.00468374 0.00917545 1
   vertex -0.00527977 0.00935838 -1
  endloop
 endfacet
 facet normal -0.293415 -0.955985 0
  outer loop
   vertex -0.00527977 0.00935838 -1
   vertex -0.00468374 0.00917545 1
   vertex -0.00527977 0.00935838 1
  endloop
 endfacet
 facet normal -0.262602 -0.964904 0
  outer loop
   vertex -0.00527977 0.00935838 -1
   vertex -0.00527977 0.00935838 1
   vertex -0.00588142 0.00952213 -1
  endloop
 endfacet
 facet normal -0.262602 -0.964904 0
  outer loop
   vertex -0.00588142 0.00952213 -1
   vertex -0.00527977 0.00935838 1
   vertex -0.00588142 0.00952213 1
  endloop
 endfacet
 facet normal -0.231488 -0.972838 0
  outer loop
   vertex -0.00588142 0.00952213 -1
   vertex -0.00588142 0.00952213 1
   vertex -0.00648802 0.00966647 -1
  endloop
 endfacet
 facet normal -0.231488 -0.972838 0
  outer loop
   vertex -0.00648802 0.00966647 -1
   vertex -0.00588142 0.00952213 1
   vertex -0.00648802 0.00966647 1
  endloop
 endfacet
 facet normal -0.200029 -0.97979 0
  outer loop
   vertex -0.00648802 0.00966647 -1
   vertex -0.00648802 0.00966647 1
   vertex -0.00709891 0.00979118 -1
  endloop
 endfacet
 facet normal -0.200029 -0.97979 0
  outer loop
   vertex -0.00709891 0.00979118 -1
   vertex -0.00648802 0.00966647 1
   vertex -0.00709891 0.00979118 1
  endloop
 endfacet
 facet normal -0.168495 -0.985703 0
  outer loop
   vertex -0.00709891 0.00979118 -1
   vertex -0.00709891 0.00979118 1
   vertex -0.0077135 0.00989624 -1
  endloop
 endfacet
 facet normal -0.168495 -0.985703 0
  outer loop
   vertex -0.0077135 0.00989624 -1
   vertex -0.00709891 0.00979118 1
   vertex -0.0077135 0.00989624 1
  endloop
 endfacet
 facet normal -0.136669 -0.990617 0
  outer loop
   vertex -0.0077135 0.00989624 -1
   vertex -0.0077135 0.00989624 1
   vertex -0.00833112 0.00998145 -1
  endloop
 endfacet
 facet normal -0.136669 -0.990617 0
  outer loop
   vertex -0.00833112 0.00998145 -1
   vertex -0.0077135 0.00989624 1
   vertex -0.00833112 0.00998145 1
  endloop
 endfacet
 facet normal -0.104901 -0.994483 0
  outer loop
   vertex -0.00833112 0.00998145 -1
   vertex -0.00833112 0.00998145 1
   vertex -0.00895124 0.0100469 -1
  endloop
 endfacet
 facet normal -0.104901 -0.994483 0
  outer loop
   vertex -0.00895124 0.0100469 -1
   vertex -0.00833112 0.00998145 1
   vertex -0.00895124 0.0100469 1
  endloop
 endfacet
 facet normal -0.0727773 -0.997348 0
  outer loop
   vertex -0.00895124 0.0100469 -1
   vertex -0.00895124 0.0100469 1
   vertex -0.00957306 0.0100922 -1
  endloop
 endfacet
 facet normal -0.0727773 -0.997348 0
  outer loop
   vertex -0.00957306 0.0100922 -1
   vertex -0.00895124 0.0100469 1
   vertex -0.00957306 0.0100922 1
  endloop
 endfacet
 facet normal -0.0407542 -0.999169 0
  outer loop
   vertex -0.00957306 0.0100922 -1
   vertex -0.00957306 0.0100922 1
   vertex -0.0101961 0.0101176 -1
  endloop
 endfacet
 facet normal -0.0407542 -0.999169 0
  outer loop
   vertex -0.0101961 0.0101176 -1
   vertex -0.00957306 0.0100922 1
   vertex -0.0101961 0.0101176 1
  endloop
 endfacet
 facet normal -0.999848 -0.0174232 -0
  outer loop
   vertex -0.0110274 0.0109205 1
   vertex -0.0110344 0.0113204 1
   vertex -0.0110274 0.0109205 -1
  endloop
 endfacet
 facet normal -0.999848 -0.0174232 0
  outer loop
   vertex -0.0110274 0.0109205 -1
   vertex -0.0110344 0.0113204 1
   vertex -0.0110344 0.0113204 -1
  endloop
 endfacet
 facet normal 0 0 -1
  outer loop
   vertex -0.0110274 0.0109205 -1
   vertex -0.0110344 0.0113204 -1
   vertex -0.0101961 0.0101176 -1
  endloop
 endfacet
 facet normal 0 0 -1
  outer loop
   vertex -0.0101961 0.0101176 -1
   vertex -0.0110344 0.0113204 -1
   vertex -0.0103949 0.0113216 -1
  endloop
 endfacet
 facet normal 0 0 -1
  outer loop
   vertex -0.0101961 0.0101176 -1
   vertex -0.0103949 0.0113216 -1
   vertex -0.00957306 0.0100922 -1
  endloop
 endfacet
 facet normal 0 0 -1
  outer loop
   vertex -0.00957306 0.0100922 -1
   vertex -0.0103949 0.0113216 -1
   vertex -0.00975567 0.011303 -1
  endloop
 endfacet
 facet normal 0 0 -1
  outer loop
   vertex -0.00957306 0.0100922 -1
   vertex -0.00975567 0.011303 -1
   vertex -0.00895124 0.0100469 -1
  endloop
 endfacet
 facet normal 0 0 -1
  outer loop
   vertex -0.00895124 0.0100469 -1
   vertex -0.00975567 0.011303 -1
   vertex -0.00911733 0.0112646 -1
  endloop
 endfacet
 facet normal 0 0 -1
  outer loop
   vertex -0.00895124 0.0100469 -1
   vertex -0.00911733 0.0112646 -1
   vertex -0.00833112 0.00998145 -1
  endloop
 endfacet
 facet normal 0 0 -1
  outer loop
   vertex -0.00833112 0.00998145 -1
   vertex -0.00911733 0.0112646 -1
   vertex -0.00848045 0.0112063 -1
  endloop
 endfacet
 facet normal 0 0 -1
  outer loop
   vertex -0.00833112 0.00998145 -1
   vertex -0.00848045 0.0112063 -1
   vertex -0.0077135 0.00989624 -1
  endloop
 endfacet
 facet normal 0 0 -1
  outer loop
   vertex 0.0088844 -0.0123774 -1
   vertex 0.00848934 -0.0123148 -1
   vertex 0.00978261 -0.0117248 -1
  endloop
 endfacet
 facet normal -0 0 -1
  outer loop
   vertex 0.00978261 -0.0117248 -1
   vertex 0.00848934 -0.0123148 -1
   vertex 0.00857697 -0.0116975 -1
  endloop
 endfacet
 facet normal 0 0 -1
  outer loop
   vertex 0.00978261 -0.0117248 -1
   vertex 0.00857697 -0.0116975 -1
   vertex 0.0098486 -0.0110887 -1
  endloop
 endfacet
 facet normal -0 0 -1
  outer loop
   vertex 0.0098486 -0.0110887 -1
   vertex 0.00857697 -0.0116975 -1
   vertex 0.00864467 -0.0110776 -1
  endloop
 endfacet
 facet normal 0 0 -1
  outer loop
   vertex 0.0098486 -0.0110887 -1
   vertex 0.00864467 -0.0110776 -1
   vertex 0.00989487 -0.0104509 -1
  endloop
 endfacet
 facet normal 0 0 -1
  outer loop
   vertex 0.00989487 -0.0104509 -1
   vertex 0.00864467 -0.0110776 -1
   vertex 0.00869249 -0.010456 -1
  endloop
 endfacet
 facet normal -0 0 -1
  outer loop
   vertex 0.00989487 -0.0104509 -1
   vertex 0.00869249 -0.010456 -1
   vertex 0.0099213 -0.00981191 -1
  endloop
 endfacet
 facet normal 0 0 -1
  outer loop
   vertex 0.0099213 -0.00981191 -1
   vertex 0.00869249 -0.010456 -1
   vertex 0.00872033 -0.00983312 -1
  endloop
 endfacet
 facet normal -0 0 -1
  outer loop
   vertex 0.0099213 -0.00981191 -1
   vertex 0.00872033 -0.00983312 -1
   vertex 0.00992796 -0.0091725 -1
  endloop
 endfacet
 facet normal 0 0 -1
  outer loop
   vertex 0.00992796 -0.0091725 -1
   vertex 0.00872033 -0.00983312 -1
   vertex 0.00872805 -0.00920961 -1
  endloop
 endfacet
 facet normal -0 0 -1
  outer loop
   vertex 0.00992796 -0.0091725 -1
   vertex 0.00872805 -0.00920961 -1
   vertex 0.00991466 -0.00853308 -1
  endloop
 endfacet
 facet normal 0 0 -1
  outer loop
   vertex 0.00991466 -0.00853308 -1
   vertex 0.00872805 -0.00920961 -1
   vertex 0.00871581 -0.00858624 -1
  endloop
 endfacet
 facet normal -0 0 -1
  outer loop
   vertex 0.00991466 -0.00853308 -1
   vertex 0.00871581 -0.00858624 -1
   vertex 0.00988157 -0.00789444 -1
  endloop
 endfacet
 facet normal 0 0 -1
  outer loop
   vertex 0.00988157 -0.00789444 -1
   vertex 0.00871581 -0.00858624 -1
   vertex 0.00868353 -0.00796358 -1
  endloop
 endfacet
 facet normal -0 0 -1
  outer loop
   vertex 0.00988157 -0.00789444 -1
   vertex 0.00868353 -0.00796358 -1
   vertex 0.00982874 -0.00725719 -1
  endloop
 endfacet
 facet normal 0 0 -1
  outer loop
   vertex 0.00982874 -0.00725719 -1
   vertex 0.00868353 -0.00796358 -1
   vertex 0.00863126 -0.00734227 -1
  endloop
 endfacet
 facet normal -0 0 -1
  outer loop
   vertex 0.00982874 -0.00725719 -1
   vertex 0.00863126 -0.00734227 -1
   vertex 0.00975608 -0.0066218 -1
  endloop
 endfacet
 facet normal 0 0 -1
  outer loop
   vertex 0.00975608 -0.0066218 -1
   vertex 0.00863126 -0.00734227 -1
   vertex 0.00855903 -0.00672295 -1
  endloop
 endfacet
 facet normal -0 0 -1
  outer loop
   vertex 0.00975608 -0.0066218 -1
   vertex 0.00855903 -0.00672295 -1
   vertex 0.00966372 -0.00598896 -1
  endloop
 endfacet
 facet normal 0 0 -1
  outer loop
   vertex 0.00966372 -0.00598896 -1
   vertex 0.00855903 -0.00672295 -1
   vertex 0.00846697 -0.00610628 -1
  endloop
 endfacet
 facet normal -0 0 -1
  outer loop
   vertex 0.00966372 -0.00598896 -1
   vertex 0.00846697 -0.00610628 -1
   vertex 0.00955181 -0.00535935 -1
  endloop
 endfacet
 facet normal 0 0 -1
  outer loop
   vertex 0.00955181 -0.00535935 -1
   vertex 0.00846697 -0.00610628 -1
   vertex 0.00835513 -0.00549291 -1
  endloop
 endfacet
 facet normal -0 0 -1
  outer loop
   vertex 0.00955181 -0.00535935 -1
   vertex 0.00835513 -0.00549291 -1
   vertex 0.00942042 -0.00473351 -1
  endloop
 endfacet
 facet normal 0 0 -1
  outer loop
   vertex 0.00942042 -0.00473351 -1
   vertex 0.00835513 -0.00549291 -1
   vertex 0.00822364 -0.00488342 -1
  endloop
 endfacet
 facet normal -0 0 -1
  outer loop
   vertex 0.00942042 -0.00473351 -1
   vertex 0.00822364 -0.00488342 -1
   vertex 0.00926966 -0.00411204 -1
  endloop
 endfacet
 facet normal 0 0 -1
  outer loop
   vertex 0.00926966 -0.00411204 -1
   vertex 0.00822364 -0.00488342 -1
   vertex 0.00807264 -0.00427847 -1
  endloop
 endfacet
 facet normal -0 0 -1
  outer loop
   vertex 0.00926966 -0.00411204 -1
   vertex 0.00807264 -0.00427847 -1
   vertex 0.00909968 -0.00349555 -1
  endloop
 endfacet
 facet normal 0 0 -1
  outer loop
   vertex 0.00909968 -0.00349555 -1
   vertex 0.00807264 -0.00427847 -1
   vertex 0.00790228 -0.0036787 -1
  endloop
 endfacet
 facet normal -0 0 -1
  outer loop
   vertex 0.00909968 -0.00349555 -1
   vertex 0.00790228 -0.0036787 -1
   vertex 0.00891065 -0.00288463 -1
  endloop
 endfacet
 facet normal 0 0 -1
  outer loop
   vertex 0.00891065 -0.00288463 -1
   vertex 0.00790228 -0.0036787 -1
   vertex 0.00771273 -0.0030847 -1
  endloop
 endfacet
 facet normal -0 0 -1
  outer loop
   vertex 0.00891065 -0.00288463 -1
   vertex 0.00771273 -0.0030847 -1
   vertex 0.00870275 -0.00227986 -1
  endloop
 endfacet
 facet normal 0 0 -1
  outer loop
   vertex 0.00870275 -0.00227986 -1
   vertex 0.00771273 -0.0030847 -1
   vertex 0.00750419 -0.0024971 -1
  endloop
 endfacet
 facet normal -0 0 -1
  outer loop
   vertex 0.00870275 -0.00227986 -1
   vertex 0.00750419 -0.0024971 -1
   vertex 0.00847618 -0.00168185 -1
  endloop
 endfacet
 facet normal 0 0 -1
  outer loop
   vertex 0.00847618 -0.00168185 -1
   vertex 0.00750419 -0.0024971 -1
   vertex 0.00727689 -0.0019165 -1
  endloop
 endfacet
 facet normal -0 0 -1
  outer loop
   vertex 0.00847618 -0.00168185 -1
   vertex 0.00727689 -0.0019165 -1
   vertex 0.00823116 -0.00109116 -1
  endloop
 endfacet
 facet normal 0 0 -1
  outer loop
   vertex 0.00823116 -0.00109116 -1
   vertex 0.00727689 -0.0019165 -1
   vertex 0.00703105 -0.00134351 -1
  endloop
 endfacet
 facet normal -0 0 -1
  outer loop
   vertex 0.00823116 -0.00109116 -1
   vertex 0.00703105 -0.00134351 -1
   vertex 0.00796792 -0.000508347 -1
  endloop
 endfacet
 facet normal 0 0 -1
  outer loop
   vertex 0.00796792 -0.000508347 -1
   vertex 0.00703105 -0.00134351 -1
   vertex 0.00676692 -0.000778711 -1
  endloop
 endfacet
 facet normal -0 0 -1
  outer loop
   vertex 0.00796792 -0.000508347 -1
   vertex 0.00676692 -0.000778711 -1
   vertex 0.00768672 6.60143e-05 -1
  endloop
 endfacet
 facet normal 0 0 -1
  outer loop
   vertex 0.00768672 6.60143e-05 -1
   vertex 0.00676692 -0.000778711 -1
   vertex 0.00648479 -0.000222692 -1
  endloop
 endfacet
 facet normal -0 0 -1
  outer loop
   vertex 0.00768672 6.60143e-05 -1
   vertex 0.00648479 -0.000222692 -1
   vertex 0.00738784 0.000631369 -1
  endloop
 endfacet
 facet normal 0 0 -1
  outer loop
   vertex 0.00738784 0.000631369 -1
   vertex 0.00648479 -0.000222692 -1
   vertex 0.00618493 0.000323975 -1
  endloop
 endfacet
 facet normal 0 0 -1
  outer loop
   vertex -0.00848045 0.0112063 -1
   vertex -0.00784577 0.0111284 -1
   vertex -0.0077135 0.00989624 -1
  endloop
 endfacet
 facet normal 0 0 -1
  outer loop
   vertex -0.0077135 0.00989624 -1
   vertex -0.00784577 0.0111284 -1
   vertex -0.00721378 0.0110308 -1
  endloop
 endfacet
 facet normal 0 0 -1
  outer loop
   vertex -0.0077135 0.00989624 -1
   vertex -0.00721378 0.0110308 -1
   vertex -0.00709891 0.00979118 -1
  endloop
 endfacet
 facet normal 0 0 -1
  outer loop
   vertex -0.00709891 0.00979118 -1
   vertex -0.00721378 0.0110308 -1
   vertex -0.0065851 0.0109136 -1
  endloop
 endfacet
 facet normal 0 0 -1
  outer loop
   vertex -0.00709891 0.00979118 -1
   vertex -0.0065851 0.0109136 -1
   vertex -0.00648802 0.00966647 -1
  endloop
 endfacet
 facet normal 0 0 -1
  outer loop
   vertex -0.00648802 0.00966647 -1
   vertex -0.0065851 0.0109136 -1
   vertex -0.00596038 0.0107769 -1
  endloop
 endfacet
 facet normal 0 0 -1
  outer loop
   vertex -0.00648802 0.00966647 -1
   vertex -0.00596038 0.0107769 -1
   vertex -0.00588142 0.00952213 -1
  endloop
 endfacet
 facet normal 0 0 -1
  outer loop
   vertex -0.00588142 0.00952213 -1
   vertex -0.00596038 0.0107769 -1
   vertex -0.00534018 0.0106209 -1
  endloop
 endfacet
 facet normal 0 0 -1
  outer loop
   vertex -0.00588142 0.00952213 -1
   vertex -0.00534018 0.0106209 -1
   vertex -0.00527977 0.00935838 -1
  endloop
 endfacet
 facet normal 0 0 -1
  outer loop
   vertex -0.00527977 0.00935838 -1
   vertex -0.00534018 0.0106209 -1
   vertex -0.00472513 0.0104458 -1
  endloop
 endfacet
 facet normal 0 0 -1
  outer loop
   vertex -0.00527977 0.00935838 -1
   vertex -0.00472513 0.0104458 -1
   vertex -0.00468374 0.00917545 -1
  endloop
 endfacet
 facet normal 0 0 -1
  outer loop
   vertex -0.00468374 0.00917545 -1
   vertex -0.00472513 0.0104458 -1
   vertex -0.0041158 0.0102516 -1
  endloop
 endfacet
 facet normal 0 0 -1
  outer loop
   vertex -0.00468374 0.00917545 -1
   vertex -0.0041158 0.0102516 -1
   vertex -0.00409387 0.00897342 -1
  endloop
 endfacet
 facet normal 0 0 -1
  outer loop
   vertex -0.00409387 0.00897342 -1
   vertex -0.0041158 0.0102516 -1
   vertex -0.00351282 0.0100387 -1
  endloop
 endfacet
 facet normal 0 0 -1
  outer loop
   vertex -0.00409387 0.00897342 -1
   vertex -0.00351282 0.0100387 -1
   vertex -0.00351081 0.00875255 -1
  endloop
 endfacet
 facet normal 0 0 -1
  outer loop
   vertex -0.00351081 0.00875255 -1
   vertex -0.00351282 0.0100387 -1
   vertex -0.00291673 0.00980708 -1
  endloop
 endfacet
 facet normal 0 0 -1
  outer loop
   vertex -0.00351081 0.00875255 -1
   vertex -0.00291673 0.00980708 -1
   vertex -0.00293513 0.00851306 -1
  endloop
 endfacet
 facet normal 0 0 -1
  outer loop
   vertex -0.00293513 0.00851306 -1
   vertex -0.00291673 0.00980708 -1
   vertex -0.0023281 0.0095571 -1
  endloop
 endfacet
 facet normal 0 0 -1
  outer loop
   vertex -0.00293513 0.00851306 -1
   vertex -0.0023281 0.0095571 -1
   vertex -0.00236745 0.0082552 -1
  endloop
 endfacet
 facet normal 0 0 -1
  outer loop
   vertex -0.00236745 0.0082552 -1
   vertex -0.0023281 0.0095571 -1
   vertex -0.00174753 0.00928899 -1
  endloop
 endfacet
 facet normal 0 0 -1
  outer loop
   vertex -0.00236745 0.0082552 -1
   vertex -0.00174753 0.00928899 -1
   vertex -0.00180834 0.00797922 -1
  endloop
 endfacet
 facet normal 0 0 -1
  outer loop
   vertex -0.00180834 0.00797922 -1
   vertex -0.00174753 0.00928899 -1
   vertex -0.00117555 0.00900298 -1
  endloop
 endfacet
 facet normal 0 0 -1
  outer loop
   vertex -0.00180834 0.00797922 -1
   vertex -0.00117555 0.00900298 -1
   vertex -0.00125839 0.00768544 -1
  endloop
 endfacet
 facet normal 0 0 -1
  outer loop
   vertex -0.00125839 0.00768544 -1
   vertex -0.00117555 0.00900298 -1
   vertex -0.000612718 0.00869936 -1
  endloop
 endfacet
 facet normal 0 0 -1
  outer loop
   vertex -0.00125839 0.00768544 -1
   vertex -0.000612718 0.00869936 -1
   vertex -0.000718168 0.00737412 -1
  endloop
 endfacet
 facet normal 0 0 -1
  outer loop
   vertex -0.000718168 0.00737412 -1
   vertex -0.000612718 0.00869936 -1
   vertex -5.95874e-05 0.00837842 -1
  endloop
 endfacet
 facet normal 0 0 -1
  outer loop
   vertex -0.000718168 0.00737412 -1
   vertex -5.95874e-05 0.00837842 -1
   vertex -0.000188214 0.00704561 -1
  endloop
 endfacet
 facet normal 0 0 -1
  outer loop
   vertex -0.000188214 0.00704561 -1
   vertex -5.95874e-05 0.00837842 -1
   vertex 0.000483323 0.00804047 -1
  endloop
 endfacet
 facet normal 0 0 -1
  outer loop
   vertex -0.000188214 0.00704561 -1
   vertex 0.000483323 0.00804047 -1
   vertex 0.0003309 0.00670025 -1
  endloop
 endfacet
 facet normal 0 0 -1
  outer loop
   vertex 0.0003309 0.00670025 -1
   vertex 0.000483323 0.00804047 -1
   vertex 0.00101547 0.00768583 -1
  endloop
 endfacet
 facet normal 0 0 -1
  outer loop
   vertex 0.0003309 0.00670025 -1
   vertex 0.00101547 0.00768583 -1
   vertex 0.000838645 0.00633837 -1
  endloop
 endfacet
 facet normal 0 0 -1
  outer loop
   vertex 0.000838645 0.00633837 -1
   vertex 0.00101547 0.00768583 -1
   vertex 0.00153636 0.00731485 -1
  endloop
 endfacet
 facet normal 0 0 -1
  outer loop
   vertex 0.000838645 0.00633837 -1
   vertex 0.00153636 0.00731485 -1
   vertex 0.00133451 0.00596038 -1
  endloop
 endfacet
 facet normal 0 0 -1
  outer loop
   vertex 0.00133451 0.00596038 -1
   vertex 0.00153636 0.00731485 -1
   vertex 0.00204549 0.00692788 -1
  endloop
 endfacet
 facet normal 0 0 -1
  outer loop
   vertex 0.00133451 0.00596038 -1
   vertex 0.00204549 0.00692788 -1
   vertex 0.00181797 0.00556665 -1
  endloop
 endfacet
 facet normal 0 0 -1
  outer loop
   vertex 0.00181797 0.00556665 -1
   vertex 0.00204549 0.00692788 -1
   vertex 0.00254236 0.00652529 -1
  endloop
 endfacet
 facet normal 0 0 -1
  outer loop
   vertex 0.00181797 0.00556665 -1
   vertex 0.00254236 0.00652529 -1
   vertex 0.00228853 0.00515759 -1
  endloop
 endfacet
 facet normal 0 0 -1
  outer loop
   vertex 0.00228853 0.00515759 -1
   vertex 0.00254236 0.00652529 -1
   vertex 0.0030265 0.00610747 -1
  endloop
 endfacet
 facet normal 0 0 -1
  outer loop
   vertex 0.00228853 0.00515759 -1
   vertex 0.0030265 0.00610747 -1
   vertex 0.0027457 0.00473361 -1
  endloop
 endfacet
 facet normal 0 0 -1
  outer loop
   vertex 0.0027457 0.00473361 -1
   vertex 0.0030265 0.00610747 -1
   vertex 0.00349744 0.00567484 -1
  endloop
 endfacet
 facet normal 0 0 -1
  outer loop
   vertex 0.0027457 0.00473361 -1
   vertex 0.00349744 0.00567484 -1
   vertex 0.00318901 0.00429518 -1
  endloop
 endfacet
 facet normal 0 0 -1
  outer loop
   vertex 0.00318901 0.00429518 -1
   vertex 0.00349744 0.00567484 -1
   vertex 0.00395473 0.00522779 -1
  endloop
 endfacet
 facet normal 0 0 -1
  outer loop
   vertex 0.00318901 0.00429518 -1
   vertex 0.00395473 0.00522779 -1
   vertex 0.00361802 0.00384272 -1
  endloop
 endfacet
 facet normal 0 0 -1
  outer loop
   vertex 0.00361802 0.00384272 -1
   vertex 0.00395473 0.00522779 -1
   vertex 0.00439791 0.00476677 -1
  endloop
 endfacet
 facet normal 0 0 -1
  outer loop
   vertex 0.00361802 0.00384272 -1
   vertex 0.00439791 0.00476677 -1
   vertex 0.00403226 0.00337671 -1
  endloop
 endfacet
 facet normal 0 0 -1
  outer loop
   vertex 0.00403226 0.00337671 -1
   vertex 0.00439791 0.00476677 -1
   vertex 0.00482659 0.00429222 -1
  endloop
 endfacet
 facet normal 0 0 -1
  outer loop
   vertex 0.00403226 0.00337671 -1
   vertex 0.00482659 0.00429222 -1
   vertex 0.00443131 0.00289763 -1
  endloop
 endfacet
 facet normal 0 0 -1
  outer loop
   vertex 0.00443131 0.00289763 -1
   vertex 0.00482659 0.00429222 -1
   vertex 0.00524032 0.00380459 -1
  endloop
 endfacet
 facet normal 0 0 -1
  outer loop
   vertex 0.00443131 0.00289763 -1
   vertex 0.00524032 0.00380459 -1
   vertex 0.00481477 0.00240599 -1
  endloop
 endfacet
 facet normal 0 0 -1
  outer loop
   vertex 0.00481477 0.00240599 -1
   vertex 0.00524032 0.00380459 -1
   vertex 0.00563873 0.00330435 -1
  endloop
 endfacet
 facet normal 0 0 -1
  outer loop
   vertex 0.00481477 0.00240599 -1
   vertex 0.00563873 0.00330435 -1
   vertex 0.00518222 0.00190226 -1
  endloop
 endfacet
 facet normal 0 0 -1
  outer loop
   vertex 0.00518222 0.00190226 -1
   vertex 0.00563873 0.00330435 -1
   vertex 0.00602141 0.002792 -1
  endloop
 endfacet
 facet normal 0 0 -1
  outer loop
   vertex 0.00518222 0.00190226 -1
   vertex 0.00602141 0.002792 -1
   vertex 0.00553332 0.001387 -1
  endloop
 endfacet
 facet normal 0 0 -1
  outer loop
   vertex 0.00553332 0.001387 -1
   vertex 0.00602141 0.002792 -1
   vertex 0.00638801 0.00226801 -1
  endloop
 endfacet
 facet normal 0 0 -1
  outer loop
   vertex 0.00553332 0.001387 -1
   vertex 0.00638801 0.00226801 -1
   vertex 0.00586766 0.000860717 -1
  endloop
 endfacet
 facet normal 0 0 -1
  outer loop
   vertex 0.00586766 0.000860717 -1
   vertex 0.00638801 0.00226801 -1
   vertex 0.00673816 0.0017329 -1
  endloop
 endfacet
 facet normal 0 0 -1
  outer loop
   vertex 0.00586766 0.000860717 -1
   vertex 0.00673816 0.0017329 -1
   vertex 0.00618493 0.000323975 -1
  endloop
 endfacet
 facet normal 0 0 -1
  outer loop
   vertex 0.00618493 0.000323975 -1
   vertex 0.00673816 0.0017329 -1
   vertex 0.00707155 0.00118718 -1
  endloop
 endfacet
 facet normal 0 0 -1
  outer loop
   vertex 0.00618493 0.000323975 -1
   vertex 0.00707155 0.00118718 -1
   vertex 0.00738784 0.000631369 -1
  endloop
 endfacet
 facet normal -0 0 1
  outer loop
   vertex -0.0110344 0.0113204 1
   vertex -0.0110274 0.0109205 1
   vertex -0.0103949 0.0113216 1
  endloop
 endfacet
 facet normal 0 0 1
  outer loop
   vertex -0.0103949 0.0113216 1
   vertex -0.0110274 0.0109205 1
   vertex -0.0101961 0.0101176 1
  endloop
 endfacet
 facet normal 0 0 1
  outer loop
   vertex -0.0103949 0.0113216 1
   vertex -0.0101961 0.0101176 1
   vertex -0.00975567 0.011303 1
  endloop
 endfacet
 facet normal 0 0 1
  outer loop
   vertex -0.00975567 0.011303 1
   vertex -0.0101961 0.0101176 1
   vertex -0.00957306 0.0100922 1
  endloop
 endfacet
 facet normal 0 0 1
  outer loop
   vertex -0.00975567 0.011303 1
   vertex -0.00957306 0.0100922 1
   vertex -0.00911733 0.0112646 1
  endloop
 endfacet
 facet normal 0 0 1
  outer loop
   vertex -0.00911733 0.0112646 1
   vertex -0.00957306 0.0100922 1
   vertex -0.00895124 0.0100469 1
  endloop
 endfacet
 facet normal 0 0 1
  outer loop
   vertex -0.00911733 0.0112646 1
   vertex -0.00895124 0.0100469 1
   vertex -0.00848045 0.0112063 1
  endloop
 endfacet
 facet normal 0 0 1
  outer loop
   vertex -0.00848045 0.0112063 1
   vertex -0.00895124 0.0100469 1
   vertex -0.00833112 0.00998145 1
  endloop
 endfacet
 facet normal 0 0 1
  outer loop
   vertex -0.00848045 0.0112063 1
   vertex -0.00833112 0.00998145 1
   vertex -0.00784577 0.0111284 1
  endloop
 endfacet
 facet normal 0 0 1
  outer loop
   vertex -0.00784577 0.0111284 1
   vertex -0.00833112 0.00998145 1
   vertex -0.0077135 0.00989624 1
  endloop
 endfacet
 facet normal 0 0 1
  outer loop
   vertex -0.00784577 0.0111284 1
   vertex -0.0077135 0.00989624 1
   vertex -0.00721378 0.0110308 1
  endloop
 endfacet
 facet normal 0 0 1
  outer loop
   vertex -0.00721378 0.0110308 1
   vertex -0.0077135 0.00989624 1
   vertex -0.00709891 0.00979118 1
  endloop
 endfacet
 facet normal -0 0 1
  outer loop
   vertex 0.00848934 -0.0123148 1
   vertex 0.0088844 -0.0123774 1
   vertex 0.00857697 -0.0116975 1
  endloop
 endfacet
 facet normal 0 0 1
  outer loop
   vertex 0.00857697 -0.0116975 1
   vertex 0.0088844 -0.0123774 1
   vertex 0.00978261 -0.0117248 1
  endloop
 endfacet
 facet normal -0 0 1
  outer loop
   vertex 0.00857697 -0.0116975 1
   vertex 0.00978261 -0.0117248 1
   vertex 0.00864467 -0.0110776 1
  endloop
 endfacet
 facet normal 0 0 1
  outer loop
   vertex 0.00864467 -0.0110776 1
   vertex 0.00978261 -0.0117248 1
   vertex 0.0098486 -0.0110887 1
  endloop
 endfacet
 facet normal -0 0 1
  outer loop
   vertex 0.00864467 -0.0110776 1
   vertex 0.0098486 -0.0110887 1
   vertex 0.00869249 -0.010456 1
  endloop
 endfacet
 facet normal -0 0 1
  outer loop
   vertex 0.00869249 -0.010456 1
   vertex 0.0098486 -0.0110887 1
   vertex 0.00989487 -0.0104509 1
  endloop
 endfacet
 facet normal 0 0 1
  outer loop
   vertex 0.00869249 -0.010456 1
   vertex 0.00989487 -0.0104509 1
   vertex 0.00872033 -0.00983312 1
  endloop
 endfacet
 facet normal -0 0 1
  outer loop
   vertex 0.00872033 -0.00983312 1
   vertex 0.00989487 -0.0104509 1
   vertex 0.0099213 -0.00981191 1
  endloop
 endfacet
 facet normal 0 0 1
  outer loop
   vertex 0.00872033 -0.00983312 1
   vertex 0.0099213 -0.00981191 1
   vertex 0.00872805 -0.00920961 1
  endloop
 endfacet
 facet normal -0 0 1
  outer loop
   vertex 0.00872805 -0.00920961 1
   vertex 0.0099213 -0.00981191 1
   vertex 0.00992796 -0.0091725 1
  endloop
 endfacet
 facet normal 0 -0 1
  outer loop
   vertex 0.00872805 -0.00920961 1
   vertex 0.00992796 -0.0091725 1
   vertex 0.00871581 -0.00858624 1
  endloop
 endfacet
 facet normal -0 0 1
  outer loop
   vertex 0.00871581 -0.00858624 1
   vertex 0.00992796 -0.0091725 1
   vertex 0.00991466 -0.00853308 1
  endloop
 endfacet
 facet normal 0 -0 1
  outer loop
   vertex 0.00871581 -0.00858624 1
   vertex 0.00991466 -0.00853308 1
   vertex 0.00868353 -0.00796358 1
  endloop
 endfacet
 facet normal -0 0 1
  outer loop
   vertex 0.00868353 -0.00796358 1
   vertex 0.00991466 -0.00853308 1
   vertex 0.00988157 -0.00789444 1
  endloop
 endfacet
 facet normal 0 -0 1
  outer loop
   vertex 0.00868353 -0.00796358 1
   vertex 0.00988157 -0.00789444 1
   vertex 0.00863126 -0.00734227 1
  endloop
 endfacet
 facet normal -0 0 1
  outer loop
   vertex 0.00863126 -0.00734227 1
   vertex 0.00988157 -0.00789444 1
   vertex 0.00982874 -0.00725719 1
  endloop
 endfacet
 facet normal 0 -0 1
  outer loop
   vertex 0.00863126 -0.00734227 1
   vertex 0.00982874 -0.00725719 1
   vertex 0.00855903 -0.00672295 1
  endloop
 endfacet
 facet normal -0 0 1
  outer loop
   vertex 0.00855903 -0.00672295 1
   vertex 0.00982874 -0.00725719 1
   vertex 0.00975608 -0.0066218 1
  endloop
 endfacet
 facet normal 0 -0 1
  outer loop
   vertex 0.00855903 -0.00672295 1
   vertex 0.00975608 -0.0066218 1
   vertex 0.00846697 -0.00610628 1
  endloop
 endfacet
 facet normal -0 0 1
  outer loop
   vertex 0.00846697 -0.00610628 1
   vertex 0.00975608 -0.0066218 1
   vertex 0.00966372 -0.00598896 1
  endloop
 endfacet
 facet normal 0 -0 1
  outer loop
   vertex 0.00846697 -0.00610628 1
   vertex 0.00966372 -0.00598896 1
   vertex 0.00835513 -0.00549291 1
  endloop
 endfacet
 facet normal -0 0 1
  outer loop
   vertex 0.00835513 -0.00549291 1
   vertex 0.00966372 -0.00598896 1
   vertex 0.00955181 -0.00535935 1
  endloop
 endfacet
 facet normal 0 -0 1
  outer loop
   vertex 0.00835513 -0.00549291 1
   vertex 0.00955181 -0.00535935 1
   vertex 0.00822364 -0.00488342 1
  endloop
 endfacet
 facet normal -0 0 1
  outer loop
   vertex 0.00822364 -0.00488342 1
   vertex 0.00955181 -0.00535935 1
   vertex 0.00942042 -0.00473351 1
  endloop
 endfacet
 facet normal 0 -0 1
  outer loop
   vertex 0.00822364 -0.00488342 1
   vertex 0.00942042 -0.00473351 1
   vertex 0.00807264 -0.00427847 1
  endloop
 endfacet
 facet normal -0 0 1
  outer loop
   vertex 0.00807264 -0.00427847 1
   vertex 0.00942042 -0.00473351 1
   vertex 0.00926966 -0.00411204 1
  endloop
 endfacet
 facet normal 0 -0 1
  outer loop
   vertex 0.00807264 -0.00427847 1
   vertex 0.00926966 -0.00411204 1
   vertex 0.00790228 -0.0036787 1
  endloop
 endfacet
 facet normal -0 0 1
  outer loop
   vertex 0.00790228 -0.0036787 1
   vertex 0.00926966 -0.00411204 1
   vertex 0.00909968 -0.00349555 1
  endloop
 endfacet
 facet normal 0 -0 1
  outer loop
   vertex 0.00790228 -0.0036787 1
   vertex 0.00909968 -0.00349555 1
   vertex 0.00771273 -0.0030847 1
  endloop
 endfacet
 facet normal -0 0 1
  outer loop
   vertex 0.00771273 -0.0030847 1
   vertex 0.00909968 -0.00349555 1
   vertex 0.00891065 -0.00288463 1
  endloop
 endfacet
 facet normal 0 -0 1
  outer loop
   vertex 0.00771273 -0.0030847 1
   vertex 0.00891065 -0.00288463 1
   vertex 0.00750419 -0.0024971 1
  endloop
 endfacet
 facet normal -0 0 1
  outer loop
   vertex 0.00750419 -0.0024971 1
   vertex 0.00891065 -0.00288463 1
   vertex 0.00870275 -0.00227986 1
  endloop
 endfacet
 facet normal 0 -0 1
  outer loop
   vertex 0.00750419 -0.0024971 1
   vertex 0.00870275 -0.00227986 1
   vertex 0.00727689 -0.0019165 1
  endloop
 endfacet
 facet normal -0 0 1
  outer loop
   vertex 0.00727689 -0.0019165 1
   vertex 0.00870275 -0.00227986 1
   vertex 0.00847618 -0.00168185 1
  endloop
 endfacet
 facet normal 0 -0 1
  outer loop
   vertex 0.00727689 -0.0019165 1
   vertex 0.00847618 -0.00168185 1
   vertex 0.00703105 -0.00134351 1
  endloop
 endfacet
 facet normal -0 0 1
  outer loop
   vertex 0.00703105 -0.00134351 1
   vertex 0.00847618 -0.00168185 1
   vertex 0.00823116 -0.00109116 1
  endloop
 endfacet
 facet normal 0 -0 1
  outer loop
   vertex 0.00703105 -0.00134351 1
   vertex 0.00823116 -0.00109116 1
   vertex 0.00676692 -0.000778711 1
  endloop
 endfacet
 facet normal -0 0 1
  outer loop
   vertex 0.00676692 -0.000778711 1
   vertex 0.00823116 -0.00109116 1
   vertex 0.00796792 -0.000508347 1
  endloop
 endfacet
 facet normal 0 -0 1
  outer loop
   vertex 0.00676692 -0.000778711 1
   vertex 0.00796792 -0.000508347 1
   vertex 0.00648479 -0.000222692 1
  endloop
 endfacet
 facet normal 0 0 1
  outer loop
   vertex 0.00796792 -0.000508347 1
   vertex 0.00768672 6.60143e-05 1
   vertex 0.00648479 -0.000222692 1
  endloop
 endfacet
 facet normal 0 0 1
  outer loop
   vertex 0.00648479 -0.000222692 1
   vertex 0.00768672 6.60143e-05 1
   vertex 0.00738784 0.000631369 1
  endloop
 endfacet
 facet normal 0 -0 1
  outer loop
   vertex 0.00648479 -0.000222692 1
   vertex 0.00738784 0.000631369 1
   vertex 0.00618493 0.000323975 1
  endloop
 endfacet
 facet normal 0 0 1
  outer loop
   vertex 0.00618493 0.000323975 1
   vertex 0.00738784 0.000631369 1
   vertex 0.00707155 0.00118718 1
  endloop
 endfacet
 facet normal 0 -0 1
  outer loop
   vertex 0.00618493 0.000323975 1
   vertex 0.00707155 0.00118718 1
   vertex 0.00586766 0.000860717 1
  endloop
 endfacet
 facet normal 0 0 1
  outer loop
   vertex 0.00586766 0.000860717 1
   vertex 0.00707155 0.00118718 1
   vertex 0.00673816 0.0017329 1
  endloop
 endfacet
 facet normal 0 -0 1
  outer loop
   vertex 0.00586766 0.000860717 1
   vertex 0.00673816 0.0017329 1
   vertex 0.00553332 0.001387 1
  endloop
 endfacet
 facet normal 0 0 1
  outer loop
   vertex 0.00553332 0.001387 1
   vertex 0.00673816 0.0017329 1
   vertex 0.00638801 0.00226801 1
  endloop
 endfacet
 facet normal 0 -0 1
  outer loop
   vertex 0.00553332 0.001387 1
   vertex 0.00638801 0.00226801 1
   vertex 0.00518222 0.00190226 1
  endloop
 endfacet
 facet normal 0 0 1
  outer loop
   vertex 0.00518222 0.00190226 1
   vertex 0.00638801 0.00226801 1
   vertex 0.00602141 0.002792 1
  endloop
 endfacet
 facet normal 0 -0 1
  outer loop
   vertex 0.00518222 0.00190226 1
   vertex 0.00602141 0.002792 1
   vertex 0.00481477 0.00240599 1
  endloop
 endfacet
 facet normal 0 0 1
  outer loop
   vertex 0.00481477 0.00240599 1
   vertex 0.00602141 0.002792 1
   vertex 0.00563873 0.00330435 1
  endloop
 endfacet
 facet normal 0 -0 1
  outer loop
   vertex 0.00481477 0.00240599 1
   vertex 0.00563873 0.00330435 1
   vertex 0.00443131 0.00289763 1
  endloop
 endfacet
 facet normal 0 0 1
  outer loop
   vertex 0.00443131 0.00289763 1
   vertex 0.00563873 0.00330435 1
   vertex 0.00524032 0.00380459 1
  endloop
 endfacet
 facet normal 0 -0 1
  outer loop
   vertex 0.00443131 0.00289763 1
   vertex 0.00524032 0.00380459 1
   vertex 0.00403226 0.00337671 1
  endloop
 endfacet
 facet normal 0 0 1
  outer loop
   vertex 0.00403226 0.00337671 1
   vertex 0.00524032 0.00380459 1
   vertex 0.00482659 0.00429222 1
  endloop
 endfacet
 facet normal 0 -0 1
  outer loop
   vertex 0.00403226 0.00337671 1
   vertex 0.00482659 0.00429222 1
   vertex 0.00361802 0.00384272 1
  endloop
 endfacet
 facet normal 0 0 1
  outer loop
   vertex 0.00361802 0.00384272 1
   vertex 0.00482659 0.00429222 1
   vertex 0.00439791 0.00476677 1
  endloop
 endfacet
 facet normal 0 -0 1
  outer loop
   vertex 0.00361802 0.00384272 1
   vertex 0.00439791 0.00476677 1
   vertex 0.00318901 0.00429518 1
  endloop
 endfacet
 facet normal 0 0 1
  outer loop
   vertex 0.00318901 0.00429518 1
   vertex 0.00439791 0.00476677 1
   vertex 0.00395473 0.00522779 1
  endloop
 endfacet
 facet normal 0 -0 1
  outer loop
   vertex 0.00318901 0.00429518 1
   vertex 0.00395473 0.00522779 1
   vertex 0.0027457 0.00473361 1
  endloop
 endfacet
 facet normal 0 0 1
  outer loop
   vertex 0.0027457 0.00473361 1
   vertex 0.00395473 0.00522779 1
   vertex 0.00349744 0.00567484 1
  endloop
 endfacet
 facet normal 0 -0 1
  outer loop
   vertex 0.0027457 0.00473361 1
   vertex 0.00349744 0.00567484 1
   vertex 0.00228853 0.00515759 1
  endloop
 endfacet
 facet normal 0 0 1
  outer loop
   vertex 0.00228853 0.00515759 1
   vertex 0.00349744 0.00567484 1
   vertex 0.0030265 0.00610747 1
  endloop
 endfacet
 facet normal 0 -0 1
  outer loop
   vertex 0.00228853 0.00515759 1
   vertex 0.0030265 0.00610747 1
   vertex 0.00181797 0.00556665 1
  endloop
 endfacet
 facet normal 0 0 1
  outer loop
   vertex 0.00181797 0.00556665 1
   vertex 0.0030265 0.00610747 1
   vertex 0.00254236 0.00652529 1
  endloop
 endfacet
 facet normal 0 -0 1
  outer loop
   vertex 0.00181797 0.00556665 1
   vertex 0.00254236 0.00652529 1
   vertex 0.00133451 0.00596038 1
  endloop
 endfacet
 facet normal 0 0 1
  outer loop
   vertex 0.00133451 0.00596038 1
   vertex 0.00254236 0.00652529 1
   vertex 0.00204549 0.00692788 1
  endloop
 endfacet
 facet normal 0 -0 1
  outer loop
   vertex 0.00133451 0.00596038 1
   vertex 0.00204549 0.00692788 1
   vertex 0.000838645 0.00633837 1
  endloop
 endfacet
 facet normal 0 0 1
  outer loop
   vertex 0.000838645 0.00633837 1
   vertex 0.00204549 0.00692788 1
   vertex 0.00153636 0.00731485 1
  endloop
 endfacet
 facet normal 0 -0 1
  outer loop
   vertex 0.000838645 0.00633837 1
   vertex 0.00153636 0.00731485 1
   vertex 0.0003309 0.00670025 1
  endloop
 endfacet
 facet normal 0 0 1
  outer loop
   vertex 0.0003309 0.00670025 1
   vertex 0.00153636 0.00731485 1
   vertex 0.00101547 0.00768583 1
  endloop
 endfacet
 facet normal 0 -0 1
  outer loop
   vertex 0.0003309 0.00670025 1
   vertex 0.00101547 0.00768583 1
   vertex -0.000188214 0.00704561 1
  endloop
 endfacet
 facet normal 0 0 1
  outer loop
   vertex -0.000188214 0.00704561 1
   vertex 0.00101547 0.00768583 1
   vertex 0.000483323 0.00804047 1
  endloop
 endfacet
 facet normal 0 -0 1
  outer loop
   vertex -0.000188214 0.00704561 1
   vertex 0.000483323 0.00804047 1
   vertex -0.000718168 0.00737412 1
  endloop
 endfacet
 facet normal 0 0 1
  outer loop
   vertex -0.000718168 0.00737412 1
   vertex 0.000483323 0.00804047 1
   vertex -5.95874e-05 0.00837842 1
  endloop
 endfacet
 facet normal 0 -0 1
  outer loop
   vertex -0.000718168 0.00737412 1
   vertex -5.95874e-05 0.00837842 1
   vertex -0.00125839 0.00768544 1
  endloop
 endfacet
 facet normal 0 0 1
  outer loop
   vertex -0.00125839 0.00768544 1
   vertex -5.95874e-05 0.00837842 1
   vertex -0.000612718 0.00869936 1
  endloop
 endfacet
 facet normal 0 -0 1
  outer loop
   vertex -0.00125839 0.00768544 1
   vertex -0.000612718 0.00869936 1
   vertex -0.00180834 0.00797922 1
  endloop
 endfacet
 facet normal 0 0 1
  outer loop
   vertex -0.00180834 0.00797922 1
   vertex -0.000612718 0.00869936 1
   vertex -0.00117555 0.00900298 1
  endloop
 endfacet
 facet normal 0 -0 1
  outer loop
   vertex -0.00180834 0.00797922 1
   vertex -0.00117555 0.00900298 1
   vertex -0.00236745 0.0082552 1
  endloop
 endfacet
 facet normal 0 0 1
  outer loop
   vertex -0.00236745 0.0082552 1
   vertex -0.00117555 0.00900298 1
   vertex -0.00174753 0.00928899 1
  endloop
 endfacet
 facet normal 0 -0 1
  outer loop
   vertex -0.00236745 0.0082552 1
   vertex -0.00174753 0.00928899 1
   vertex -0.00293513 0.00851306 1
  endloop
 endfacet
 facet normal 0 0 1
  outer loop
   vertex -0.00293513 0.00851306 1
   vertex -0.00174753 0.00928899 1
   vertex -0.0023281 0.0095571 1
  endloop
 endfacet
 facet normal 0 -0 1
  outer loop
   vertex -0.00293513 0.00851306 1
   vertex -0.0023281 0.0095571 1
   vertex -0.00351081 0.00875255 1
  endloop
 endfacet
 facet normal 0 0 1
  outer loop
   vertex -0.00351081 0.00875255 1
   vertex -0.0023281 0.0095571 1
   vertex -0.00291673 0.00980708 1
  endloop
 endfacet
 facet normal 0 -0 1
  outer loop
   vertex -0.00351081 0.00875255 1
   vertex -0.00291673 0.00980708 1
   vertex -0.00409387 0.00897342 1
  endloop
 endfacet
 facet normal 0 0 1
  outer loop
   vertex -0.00409387 0.00897342 1
   vertex -0.00291673 0.00980708 1
   vertex -0.00351282 0.0100387 1
  endloop
 endfacet
 facet normal 0 -0 1
  outer loop
   vertex -0.00409387 0.00897342 1
   vertex -0.00351282 0.0100387 1
   vertex -0.00468374 0.00917545 1
  endloop
 endfacet
 facet normal 0 0 1
  outer loop
   vertex -0.00468374 0.00917545 1
   vertex -0.00351282 0.0100387 1
   vertex -0.0041158 0.0102516 1
  endloop
 endfacet
 facet normal 0 -0 1
  outer loop
   vertex -0.00468374 0.00917545 1
   vertex -0.0041158 0.0102516 1
   vertex -0.00527977 0.00935838 1
  endloop
 endfacet
 facet normal 0 0 1
  outer loop
   vertex -0.00527977 0.00935838 1
   vertex -0.0041158 0.0102516 1
   vertex -0.00472513 0.0104458 1
  endloop
 endfacet
 facet normal 0 -0 1
  outer loop
   vertex -0.00527977 0.00935838 1
   vertex -0.00472513 0.0104458 1
   vertex -0.00588142 0.00952213 1
  endloop
 endfacet
 facet normal 0 0 1
  outer loop
   vertex -0.00588142 0.00952213 1
   vertex -0.00472513 0.0104458 1
   vertex -0.00534018 0.0106209 1
  endloop
 endfacet
 facet normal 0 -0 1
  outer loop
   vertex -0.00588142 0.00952213 1
   vertex -0.00534018 0.0106209 1
   vertex -0.00648802 0.00966647 1
  endloop
 endfacet
 facet normal 0 0 1
  outer loop
   vertex -0.00648802 0.00966647 1
   vertex -0.00534018 0.0106209 1
   vertex -0.00596038 0.0107769 1
  endloop
 endfacet
 facet normal 0 -0 1
  outer loop
   vertex -0.00648802 0.00966647 1
   vertex -0.00596038 0.0107769 1
   vertex -0.00709891 0.00979118 1
  endloop
 endfacet
 facet normal 0 0 1
  outer loop
   vertex -0.00709891 0.00979118 1
   vertex -0.00596038 0.0107769 1
   vertex -0.0065851 0.0109136 1
  endloop
 endfacet
 facet normal 0 -0 1
  outer loop
   vertex -0.00709891 0.00979118 1
   vertex -0.0065851 0.0109136 1
   vertex -0.00721378 0.0110308 1
  endloop
 endfacet
 facet normal 0.587757 -0.809038 0
  outer loop
   vertex 0.00978261 -0.0117248 1
   vertex 0.0088844 -0.0123774 1
   vertex 0.00978261 -0.0117248 -1
  endloop
 endfacet
 facet normal 0.587757 -0.809038 0
  outer loop
   vertex 0.00978261 -0.0117248 -1
   vertex 0.0088844 -0.0123774 1
   vertex 0.0088844 -0.0123774 -1
  endloop
 endfacet
 facet normal -0.694656 -0.719342 -0
  outer loop
   vertex -0.0101961 0.0101176 1
   vertex -0.0110274 0.0109205 1
   vertex -0.0101961 0.0101176 -1
  endloop
 endfacet
 facet normal -0.694656 -0.719342 0
  outer loop
   vertex -0.0101961 0.0101176 -1
   vertex -0.0110274 0.0109205 1
   vertex -0.0110274 0.0109205 -1
  endloop
 endfacet
endsolid tunner_vane
