solid tunner_vane
 facet normal 0.0957808 0.995402 -0
  outer loop
   vertex 1.95524 0.451876 -1
   vertex 1.95524 0.451876 1
   vertex 1.96485 0.450952 1
  endloop
 endfacet
 facet normal 0.0957808 0.995402 0
  outer loop
   vertex 1.95524 0.451876 -1
   vertex 1.96485 0.450952 1
   vertex 1.96485 0.450952 -1
  endloop
 endfacet
 facet normal 0.186801 0.982398 -0
  outer loop
   vertex 1.96485 0.450952 -1
   vertex 1.96485 0.450952 1
   vertex 1.97433 0.449149 1
  endloop
 endfacet
 facet normal 0.186801 0.982398 0
  outer loop
   vertex 1.96485 0.450952 -1
   vertex 1.97433 0.449149 1
   vertex 1.97433 0.449149 -1
  endloop
 endfacet
 facet normal 0.276303 0.96107 -0
  outer loop
   vertex 1.97433 0.449149 -1
   vertex 1.97433 0.449149 1
   vertex 1.9836 0.446484 1
  endloop
 endfacet
 facet normal 0.276303 0.96107 0
  outer loop
   vertex 1.97433 0.449149 -1
   vertex 1.9836 0.446484 1
   vertex 1.9836 0.446484 -1
  endloop
 endfacet
 facet normal 0.363267 0.931685 -0
  outer loop
   vertex 1.9836 0.446484 -1
   vertex 1.9836 0.446484 1
   vertex 1.99259 0.442979 1
  endloop
 endfacet
 facet normal 0.363267 0.931685 0
  outer loop
   vertex 1.9836 0.446484 -1
   vertex 1.99259 0.442979 1
   vertex 1.99259 0.442979 -1
  endloop
 endfacet
 facet normal 0.44727 0.894399 -0
  outer loop
   vertex 1.99259 0.442979 -1
   vertex 1.99259 0.442979 1
   vertex 2.00122 0.438663 1
  endloop
 endfacet
 facet normal 0.44727 0.894399 0
  outer loop
   vertex 1.99259 0.442979 -1
   vertex 2.00122 0.438663 1
   vertex 2.00122 0.438663 -1
  endloop
 endfacet
 facet normal 0.527385 0.849627 -0
  outer loop
   vertex 2.00122 0.438663 -1
   vertex 2.00122 0.438663 1
   vertex 2.00942 0.433573 1
  endloop
 endfacet
 facet normal 0.527385 0.849627 0
  outer loop
   vertex 2.00122 0.438663 -1
   vertex 2.00942 0.433573 1
   vertex 2.00942 0.433573 -1
  endloop
 endfacet
 facet normal 0.603034 0.797715 -0
  outer loop
   vertex 2.00942 0.433573 -1
   vertex 2.00942 0.433573 1
   vertex 2.01712 0.427752 1
  endloop
 endfacet
 facet normal 0.603034 0.797715 0
  outer loop
   vertex 2.00942 0.433573 -1
   vertex 2.01712 0.427752 1
   vertex 2.01712 0.427752 -1
  endloop
 endfacet
 facet normal 0.673861 0.738859 -0
  outer loop
   vertex 2.01712 0.427752 -1
   vertex 2.01712 0.427752 1
   vertex 2.02425 0.421249 1
  endloop
 endfacet
 facet normal 0.673861 0.738859 0
  outer loop
   vertex 2.01712 0.427752 -1
   vertex 2.02425 0.421249 1
   vertex 2.02425 0.421249 -1
  endloop
 endfacet
 facet normal 0.738992 0.673715 -0
  outer loop
   vertex 2.02425 0.421249 -1
   vertex 2.02425 0.421249 1
   vertex 2.03075 0.41412 1
  endloop
 endfacet
 facet normal 0.738992 0.673715 0
  outer loop
   vertex 2.02425 0.421249 -1
   vertex 2.03075 0.41412 1
   vertex 2.03075 0.41412 -1
  endloop
 endfacet
 facet normal 0.797626 0.603152 -0
  outer loop
   vertex 2.03075 0.41412 -1
   vertex 2.03075 0.41412 1
   vertex 2.03657 0.406423 1
  endloop
 endfacet
 facet normal 0.797626 0.603152 0
  outer loop
   vertex 2.03075 0.41412 -1
   vertex 2.03657 0.406423 1
   vertex 2.03657 0.406423 -1
  endloop
 endfacet
 facet normal 0.84958 0.527459 -0
  outer loop
   vertex 2.03657 0.406423 -1
   vertex 2.03657 0.406423 1
   vertex 2.04166 0.398224 1
  endloop
 endfacet
 facet normal 0.84958 0.527459 0
  outer loop
   vertex 2.03657 0.406423 -1
   vertex 2.04166 0.398224 1
   vertex 2.04166 0.398224 -1
  endloop
 endfacet
 facet normal 0.894245 0.447578 -0
  outer loop
   vertex 2.04166 0.398224 -1
   vertex 2.04166 0.398224 1
   vertex 2.04598 0.389593 1
  endloop
 endfacet
 facet normal 0.894245 0.447578 0
  outer loop
   vertex 2.04166 0.398224 -1
   vertex 2.04598 0.389593 1
   vertex 2.04598 0.389593 -1
  endloop
 endfacet
 facet normal 0.931881 0.362763 -0
  outer loop
   vertex 2.04598 0.389593 -1
   vertex 2.04598 0.389593 1
   vertex 2.04948 0.380602 1
  endloop
 endfacet
 facet normal 0.931881 0.362763 0
  outer loop
   vertex 2.04598 0.389593 -1
   vertex 2.04948 0.380602 1
   vertex 2.04948 0.380602 -1
  endloop
 endfacet
 facet normal 0.960969 0.276655 -0
  outer loop
   vertex 2.04948 0.380602 -1
   vertex 2.04948 0.380602 1
   vertex 2.05215 0.371328 1
  endloop
 endfacet
 facet normal 0.960969 0.276655 0
  outer loop
   vertex 2.04948 0.380602 -1
   vertex 2.05215 0.371328 1
   vertex 2.05215 0.371328 -1
  endloop
 endfacet
 facet normal 0.982446 0.186545 -0
  outer loop
   vertex 2.05215 0.371328 -1
   vertex 2.05215 0.371328 1
   vertex 2.05395 0.361848 1
  endloop
 endfacet
 facet normal 0.982446 0.186545 0
  outer loop
   vertex 2.05215 0.371328 -1
   vertex 2.05395 0.361848 1
   vertex 2.05395 0.361848 -1
  endloop
 endfacet
 facet normal 0.995347 0.0963527 -0
  outer loop
   vertex 2.05395 0.361848 -1
   vertex 2.05395 0.361848 1
   vertex 2.05488 0.352242 1
  endloop
 endfacet
 facet normal 0.995347 0.0963527 0
  outer loop
   vertex 2.05395 0.361848 -1
   vertex 2.05488 0.352242 1
   vertex 2.05488 0.352242 -1
  endloop
 endfacet
 facet normal -0.99511 -0.0987721 0
  outer loop
   vertex 2.04489 0.351742 -1
   vertex 2.04489 0.351742 1
   vertex 2.04397 0.36101 -1
  endloop
 endfacet
 facet normal -0.99511 -0.0987721 0
  outer loop
   vertex 2.04397 0.36101 -1
   vertex 2.04489 0.351742 1
   vertex 2.04397 0.36101 1
  endloop
 endfacet
 facet normal -0.980505 -0.196492 0
  outer loop
   vertex 2.04397 0.36101 -1
   vertex 2.04397 0.36101 1
   vertex 2.04214 0.370142 -1
  endloop
 endfacet
 facet normal -0.980505 -0.196492 0
  outer loop
   vertex 2.04214 0.370142 -1
   vertex 2.04397 0.36101 1
   vertex 2.04214 0.370142 1
  endloop
 endfacet
 facet normal -0.957021 -0.290019 0
  outer loop
   vertex 2.04214 0.370142 -1
   vertex 2.04214 0.370142 1
   vertex 2.03944 0.379052 -1
  endloop
 endfacet
 facet normal -0.957021 -0.290019 0
  outer loop
   vertex 2.03944 0.379052 -1
   vertex 2.04214 0.370142 1
   vertex 2.03944 0.379052 1
  endloop
 endfacet
 facet normal -0.923623 -0.383303 0
  outer loop
   vertex 2.03944 0.379052 -1
   vertex 2.03944 0.379052 1
   vertex 2.03587 0.387654 -1
  endloop
 endfacet
 facet normal -0.923623 -0.383303 0
  outer loop
   vertex 2.03587 0.387654 -1
   vertex 2.03944 0.379052 1
   vertex 2.03587 0.387654 1
  endloop
 endfacet
 facet normal -0.881433 -0.472309 0
  outer loop
   vertex 2.03587 0.387654 -1
   vertex 2.03587 0.387654 1
   vertex 2.03147 0.395865 -1
  endloop
 endfacet
 facet normal -0.881433 -0.472309 0
  outer loop
   vertex 2.03147 0.395865 -1
   vertex 2.03587 0.387654 1
   vertex 2.03147 0.395865 1
  endloop
 endfacet
 facet normal -0.831609 -0.555361 0
  outer loop
   vertex 2.03147 0.395865 -1
   vertex 2.03147 0.395865 1
   vertex 2.0263 0.403607 -1
  endloop
 endfacet
 facet normal -0.831609 -0.555361 0
  outer loop
   vertex 2.0263 0.403607 -1
   vertex 2.03147 0.395865 1
   vertex 2.0263 0.403607 1
  endloop
 endfacet
 facet normal -0.772874 -0.634559 0
  outer loop
   vertex 2.0263 0.403607 -1
   vertex 2.0263 0.403607 1
   vertex 2.02039 0.410805 -1
  endloop
 endfacet
 facet normal -0.772874 -0.634559 0
  outer loop
   vertex 2.02039 0.410805 -1
   vertex 2.0263 0.403607 1
   vertex 2.02039 0.410805 1
  endloop
 endfacet
 facet normal -0.707369 -0.706844 0
  outer loop
   vertex 2.02039 0.410805 -1
   vertex 2.02039 0.410805 1
   vertex 2.01381 0.41739 -1
  endloop
 endfacet
 facet normal -0.707369 -0.706844 0
  outer loop
   vertex 2.01381 0.41739 -1
   vertex 2.02039 0.410805 1
   vertex 2.01381 0.41739 1
  endloop
 endfacet
 facet normal -0.634381 -0.77302 0
  outer loop
   vertex 2.01381 0.41739 -1
   vertex 2.01381 0.41739 1
   vertex 2.00661 0.423299 -1
  endloop
 endfacet
 facet normal -0.634381 -0.77302 0
  outer loop
   vertex 2.00661 0.423299 -1
   vertex 2.01381 0.41739 1
   vertex 2.00661 0.423299 1
  endloop
 endfacet
 facet normal -0.555872 -0.831268 0
  outer loop
   vertex 2.00661 0.423299 -1
   vertex 2.00661 0.423299 1
   vertex 1.99887 0.428475 -1
  endloop
 endfacet
 facet normal -0.555872 -0.831268 0
  outer loop
   vertex 1.99887 0.428475 -1
   vertex 2.00661 0.423299 1
   vertex 1.99887 0.428475 1
  endloop
 endfacet
 facet normal -0.47135 -0.881946 0
  outer loop
   vertex 1.99887 0.428475 -1
   vertex 1.99887 0.428475 1
   vertex 1.99065 0.432868 -1
  endloop
 endfacet
 facet normal -0.47135 -0.881946 0
  outer loop
   vertex 1.99065 0.432868 -1
   vertex 1.99887 0.428475 1
   vertex 1.99065 0.432868 1
  endloop
 endfacet
 facet normal -0.383207 -0.923662 0
  outer loop
   vertex 1.99065 0.432868 -1
   vertex 1.99065 0.432868 1
   vertex 1.98205 0.436436 -1
  endloop
 endfacet
 facet normal -0.383207 -0.923662 0
  outer loop
   vertex 1.98205 0.436436 -1
   vertex 1.99065 0.432868 1
   vertex 1.98205 0.436436 1
  endloop
 endfacet
 facet normal -0.290875 -0.956761 0
  outer loop
   vertex 1.98205 0.436436 -1
   vertex 1.98205 0.436436 1
   vertex 1.97314 0.439144 -1
  endloop
 endfacet
 facet normal -0.290875 -0.956761 0
  outer loop
   vertex 1.97314 0.439144 -1
   vertex 1.98205 0.436436 1
   vertex 1.97314 0.439144 1
  endloop
 endfacet
 facet normal -0.195868 -0.98063 0
  outer loop
   vertex 1.97314 0.439144 -1
   vertex 1.97314 0.439144 1
   vertex 1.96401 0.440968 -1
  endloop
 endfacet
 facet normal -0.195868 -0.98063 0
  outer loop
   vertex 1.96401 0.440968 -1
   vertex 1.97314 0.439144 1
   vertex 1.96401 0.440968 1
  endloop
 endfacet
 facet normal -0.0988348 -0.995104 0
  outer loop
   vertex 1.96401 0.440968 -1
   vertex 1.96401 0.440968 1
   vertex 1.95474 0.441889 -1
  endloop
 endfacet
 facet normal -0.0988348 -0.995104 0
  outer loop
   vertex 1.95474 0.441889 -1
   vertex 1.96401 0.440968 1
   vertex 1.95474 0.441889 1
  endloop
 endfacet
 facet normal 0 0 -1
  outer loop
   vertex 2.01381 0.41739 -1
   vertex 2.02425 0.421249 -1
   vertex 2.02039 0.410805 -1
  endloop
 endfacet
 facet normal 0 0 -1
  outer loop
   vertex 2.02039 0.410805 -1
   vertex 2.02425 0.421249 -1
   vertex 2.03075 0.41412 -1
  endloop
 endfacet
 facet normal 0 0 -1
  outer loop
   vertex 2.02039 0.410805 -1
   vertex 2.03075 0.41412 -1
   vertex 2.0263 0.403607 -1
  endloop
 endfacet
 facet normal 0 0 -1
  outer loop
   vertex 2.0263 0.403607 -1
   vertex 2.03075 0.41412 -1
   vertex 2.03657 0.406423 -1
  endloop
 endfacet
 facet normal 0 0 -1
  outer loop
   vertex 2.0263 0.403607 -1
   vertex 2.03657 0.406423 -1
   vertex 2.03147 0.395865 -1
  endloop
 endfacet
 facet normal 0 0 -1
  outer loop
   vertex 2.03147 0.395865 -1
   vertex 2.03657 0.406423 -1
   vertex 2.04166 0.398224 -1
  endloop
 endfacet
 facet normal 0 0 -1
  outer loop
   vertex 2.03147 0.395865 -1
   vertex 2.04166 0.398224 -1
   vertex 2.03587 0.387654 -1
  endloop
 endfacet
 facet normal 0 0 -1
  outer loop
   vertex 2.03587 0.387654 -1
   vertex 2.04166 0.398224 -1
   vertex 2.04598 0.389593 -1
  endloop
 endfacet
 facet normal 0 0 -1
  outer loop
   vertex 2.03587 0.387654 -1
   vertex 2.04598 0.389593 -1
   vertex 2.03944 0.379052 -1
  endloop
 endfacet
 facet normal 0 0 -1
  outer loop
   vertex 2.03944 0.379052 -1
   vertex 2.04598 0.389593 -1
   vertex 2.04948 0.380602 -1
  endloop
 endfacet
 facet normal 0 0 -1
  outer loop
   vertex 2.03944 0.379052 -1
   vertex 2.04948 0.380602 -1
   vertex 2.04214 0.370142 -1
  endloop
 endfacet
 facet normal 0 0 -1
  outer loop
   vertex 2.04214 0.370142 -1
   vertex 2.04948 0.380602 -1
   vertex 2.05215 0.371328 -1
  endloop
 endfacet
 facet normal 0 0 -1
  outer loop
   vertex 2.04214 0.370142 -1
   vertex 2.05215 0.371328 -1
   vertex 2.04397 0.36101 -1
  endloop
 endfacet
 facet normal 0 0 -1
  outer loop
   vertex 2.04397 0.36101 -1
   vertex 2.05215 0.371328 -1
   vertex 2.05395 0.361848 -1
  endloop
 endfacet
 facet normal 0 0 -1
  outer loop
   vertex 2.04397 0.36101 -1
   vertex 2.05395 0.361848 -1
   vertex 2.04489 0.351742 -1
  endloop
 endfacet
 facet normal 0 0 -1
  outer loop
   vertex 2.04489 0.351742 -1
   vertex 2.05395 0.361848 -1
   vertex 2.05488 0.352242 -1
  endloop
 endfacet
 facet normal 0 0 -1
  outer loop
   vertex 2.04489 0.351742 -1
   vertex 2.05488 0.352242 -1
   vertex 2.05485 0.351433 -1
  endloop
 endfacet
 facet normal 0 0 -1
  outer loop
   vertex 1.95288 0.451414 -1
   vertex 1.95364 0.451696 -1
   vertex 1.95474 0.441889 -1
  endloop
 endfacet
 facet normal -0 0 -1
  outer loop
   vertex 2.05485 0.351433 -1
   vertex 2.0547 0.350639 -1
   vertex 2.04489 0.351742 -1
  endloop
 endfacet
 facet normal 0 0 -1
  outer loop
   vertex 2.04489 0.351742 -1
   vertex 2.0547 0.350639 -1
   vertex 2.05441 0.34988 -1
  endloop
 endfacet
 facet normal 0 0 -1
  outer loop
   vertex 2.04489 0.351742 -1
   vertex 2.05441 0.34988 -1
   vertex 2.05401 0.349176 -1
  endloop
 endfacet
 facet normal 0 0 -1
  outer loop
   vertex 1.95364 0.451696 -1
   vertex 1.95443 0.451851 -1
   vertex 1.95474 0.441889 -1
  endloop
 endfacet
 facet normal 0 0 -1
  outer loop
   vertex 1.95474 0.441889 -1
   vertex 1.95443 0.451851 -1
   vertex 1.95524 0.451876 -1
  endloop
 endfacet
 facet normal 0 0 -1
  outer loop
   vertex 1.95474 0.441889 -1
   vertex 1.95524 0.451876 -1
   vertex 1.96401 0.440968 -1
  endloop
 endfacet
 facet normal 0 0 -1
  outer loop
   vertex 1.96401 0.440968 -1
   vertex 1.95524 0.451876 -1
   vertex 1.96485 0.450952 -1
  endloop
 endfacet
 facet normal 0 0 -1
  outer loop
   vertex 1.96401 0.440968 -1
   vertex 1.96485 0.450952 -1
   vertex 1.97314 0.439144 -1
  endloop
 endfacet
 facet normal 0 0 -1
  outer loop
   vertex 1.97314 0.439144 -1
   vertex 1.96485 0.450952 -1
   vertex 1.97433 0.449149 -1
  endloop
 endfacet
 facet normal 0 0 -1
  outer loop
   vertex 1.97314 0.439144 -1
   vertex 1.97433 0.449149 -1
   vertex 1.98205 0.436436 -1
  endloop
 endfacet
 facet normal 0 0 -1
  outer loop
   vertex 1.98205 0.436436 -1
   vertex 1.97433 0.449149 -1
   vertex 1.9836 0.446484 -1
  endloop
 endfacet
 facet normal 0 0 -1
  outer loop
   vertex 1.98205 0.436436 -1
   vertex 1.9836 0.446484 -1
   vertex 1.99065 0.432868 -1
  endloop
 endfacet
 facet normal 0 0 -1
  outer loop
   vertex 1.99065 0.432868 -1
   vertex 1.9836 0.446484 -1
   vertex 1.99259 0.442979 -1
  endloop
 endfacet
 facet normal 0 0 -1
  outer loop
   vertex 1.99065 0.432868 -1
   vertex 1.99259 0.442979 -1
   vertex 1.99887 0.428475 -1
  endloop
 endfacet
 facet normal 0 0 -1
  outer loop
   vertex 1.99887 0.428475 -1
   vertex 1.99259 0.442979 -1
   vertex 2.00122 0.438663 -1
  endloop
 endfacet
 facet normal 0 0 -1
  outer loop
   vertex 1.99887 0.428475 -1
   vertex 2.00122 0.438663 -1
   vertex 2.00661 0.423299 -1
  endloop
 endfacet
 facet normal 0 0 -1
  outer loop
   vertex 2.00661 0.423299 -1
   vertex 2.00122 0.438663 -1
   vertex 2.00942 0.433573 -1
  endloop
 endfacet
 facet normal 0 0 -1
  outer loop
   vertex 2.00661 0.423299 -1
   vertex 2.00942 0.433573 -1
   vertex 2.01381 0.41739 -1
  endloop
 endfacet
 facet normal 0 0 -1
  outer loop
   vertex 2.01381 0.41739 -1
   vertex 2.00942 0.433573 -1
   vertex 2.01712 0.427752 -1
  endloop
 endfacet
 facet normal 0 0 -1
  outer loop
   vertex 2.01381 0.41739 -1
   vertex 2.01712 0.427752 -1
   vertex 2.02425 0.421249 -1
  endloop
 endfacet
 facet normal 0 0 -1
  outer loop
   vertex 2.04489 0.351742 -1
   vertex 2.05222 0.347572 -1
   vertex 2.05148 0.347253 -1
  endloop
 endfacet
 facet normal -0 0 -1
  outer loop
   vertex 2.05148 0.347253 -1
   vertex 2.05069 0.347058 -1
   vertex 2.04489 0.351742 -1
  endloop
 endfacet
 facet normal 0 0 -1
  outer loop
   vertex 2.04489 0.351742 -1
   vertex 2.05069 0.347058 -1
   vertex 2.04988 0.346993 -1
  endloop
 endfacet
 facet normal 0 0 -1
  outer loop
   vertex 2.04489 0.351742 -1
   vertex 2.04988 0.346993 -1
   vertex 2.04904 0.347064 -1
  endloop
 endfacet
 facet normal -0 0 -1
  outer loop
   vertex 2.05401 0.349176 -1
   vertex 2.05351 0.348546 -1
   vertex 2.04489 0.351742 -1
  endloop
 endfacet
 facet normal 0 0 -1
  outer loop
   vertex 2.04489 0.351742 -1
   vertex 2.05351 0.348546 -1
   vertex 2.0529 0.348007 -1
  endloop
 endfacet
 facet normal 0 0 -1
  outer loop
   vertex 2.04489 0.351742 -1
   vertex 2.0529 0.348007 -1
   vertex 2.05222 0.347572 -1
  endloop
 endfacet
 facet normal 0 0 -1
  outer loop
   vertex 2.04675 0.348092 -1
   vertex 2.04614 0.348673 -1
   vertex 2.04746 0.347621 -1
  endloop
 endfacet
 facet normal 0 0 -1
  outer loop
   vertex 2.04746 0.347621 -1
   vertex 2.04614 0.348673 -1
   vertex 2.04564 0.349349 -1
  endloop
 endfacet
 facet normal 0 0 -1
  outer loop
   vertex 2.04746 0.347621 -1
   vertex 2.04564 0.349349 -1
   vertex 2.04525 0.350101 -1
  endloop
 endfacet
 facet normal 0 0 -1
  outer loop
   vertex 2.04904 0.347064 -1
   vertex 2.04822 0.347275 -1
   vertex 2.04489 0.351742 -1
  endloop
 endfacet
 facet normal 0 0 -1
  outer loop
   vertex 2.04489 0.351742 -1
   vertex 2.04822 0.347275 -1
   vertex 2.04746 0.347621 -1
  endloop
 endfacet
 facet normal 0 0 -1
  outer loop
   vertex 2.04489 0.351742 -1
   vertex 2.04746 0.347621 -1
   vertex 2.045 0.350906 -1
  endloop
 endfacet
 facet normal 0 0 -1
  outer loop
   vertex 2.045 0.350906 -1
   vertex 2.04746 0.347621 -1
   vertex 2.04525 0.350101 -1
  endloop
 endfacet
 facet normal 0 0 -1
  outer loop
   vertex 1.95006 0.447689 -1
   vertex 1.95025 0.448475 -1
   vertex 1.95474 0.441889 -1
  endloop
 endfacet
 facet normal 0 0 -1
  outer loop
   vertex 1.95474 0.441889 -1
   vertex 1.95025 0.448475 -1
   vertex 1.95057 0.449219 -1
  endloop
 endfacet
 facet normal 0 0 -1
  outer loop
   vertex 1.95474 0.441889 -1
   vertex 1.95057 0.449219 -1
   vertex 1.95101 0.449902 -1
  endloop
 endfacet
 facet normal 0 0 -1
  outer loop
   vertex 1.95101 0.449902 -1
   vertex 1.95155 0.450505 -1
   vertex 1.95474 0.441889 -1
  endloop
 endfacet
 facet normal 0 0 -1
  outer loop
   vertex 1.95474 0.441889 -1
   vertex 1.95155 0.450505 -1
   vertex 1.95218 0.451014 -1
  endloop
 endfacet
 facet normal 0 0 -1
  outer loop
   vertex 1.95474 0.441889 -1
   vertex 1.95218 0.451014 -1
   vertex 1.95288 0.451414 -1
  endloop
 endfacet
 facet normal 0 -0 -1
  outer loop
   vertex 1.95006 0.447689 -1
   vertex 1.95474 0.441889 -1
   vertex 1.94999 0.446883 -1
  endloop
 endfacet
 facet normal 0 0 -1
  outer loop
   vertex 1.94999 0.446883 -1
   vertex 1.95474 0.441889 -1
   vertex 1.95391 0.442002 -1
  endloop
 endfacet
 facet normal 0 0 -1
  outer loop
   vertex 1.94999 0.446883 -1
   vertex 1.95391 0.442002 -1
   vertex 1.9531 0.442254 -1
  endloop
 endfacet
 facet normal 0 0 -1
  outer loop
   vertex 1.95235 0.442638 -1
   vertex 1.95167 0.443143 -1
   vertex 1.9531 0.442254 -1
  endloop
 endfacet
 facet normal 0 0 -1
  outer loop
   vertex 1.9531 0.442254 -1
   vertex 1.95167 0.443143 -1
   vertex 1.95109 0.443755 -1
  endloop
 endfacet
 facet normal 0 0 -1
  outer loop
   vertex 1.9531 0.442254 -1
   vertex 1.95109 0.443755 -1
   vertex 1.95062 0.444455 -1
  endloop
 endfacet
 facet normal 0 0 -1
  outer loop
   vertex 1.95062 0.444455 -1
   vertex 1.95028 0.445225 -1
   vertex 1.9531 0.442254 -1
  endloop
 endfacet
 facet normal 0 0 -1
  outer loop
   vertex 1.9531 0.442254 -1
   vertex 1.95028 0.445225 -1
   vertex 1.95006 0.446042 -1
  endloop
 endfacet
 facet normal 0 0 -1
  outer loop
   vertex 1.9531 0.442254 -1
   vertex 1.95006 0.446042 -1
   vertex 1.94999 0.446883 -1
  endloop
 endfacet
 facet normal 0 0 1
  outer loop
   vertex 1.95443 0.451851 1
   vertex 1.95364 0.451696 1
   vertex 1.95474 0.441889 1
  endloop
 endfacet
 facet normal 0 -0 1
  outer loop
   vertex 2.02039 0.410805 1
   vertex 2.02425 0.421249 1
   vertex 2.01381 0.41739 1
  endloop
 endfacet
 facet normal 0 0 1
  outer loop
   vertex 2.01381 0.41739 1
   vertex 2.02425 0.421249 1
   vertex 2.01712 0.427752 1
  endloop
 endfacet
 facet normal 0 -0 1
  outer loop
   vertex 2.01381 0.41739 1
   vertex 2.01712 0.427752 1
   vertex 2.00661 0.423299 1
  endloop
 endfacet
 facet normal 0 0 1
  outer loop
   vertex 2.00661 0.423299 1
   vertex 2.01712 0.427752 1
   vertex 2.00942 0.433573 1
  endloop
 endfacet
 facet normal 0 -0 1
  outer loop
   vertex 2.00661 0.423299 1
   vertex 2.00942 0.433573 1
   vertex 1.99887 0.428475 1
  endloop
 endfacet
 facet normal 0 0 1
  outer loop
   vertex 1.99887 0.428475 1
   vertex 2.00942 0.433573 1
   vertex 2.00122 0.438663 1
  endloop
 endfacet
 facet normal 0 -0 1
  outer loop
   vertex 1.99887 0.428475 1
   vertex 2.00122 0.438663 1
   vertex 1.99065 0.432868 1
  endloop
 endfacet
 facet normal 0 0 1
  outer loop
   vertex 1.99065 0.432868 1
   vertex 2.00122 0.438663 1
   vertex 1.99259 0.442979 1
  endloop
 endfacet
 facet normal 0 -0 1
  outer loop
   vertex 1.99065 0.432868 1
   vertex 1.99259 0.442979 1
   vertex 1.98205 0.436436 1
  endloop
 endfacet
 facet normal 0 0 1
  outer loop
   vertex 1.98205 0.436436 1
   vertex 1.99259 0.442979 1
   vertex 1.9836 0.446484 1
  endloop
 endfacet
 facet normal 0 -0 1
  outer loop
   vertex 1.98205 0.436436 1
   vertex 1.9836 0.446484 1
   vertex 1.97314 0.439144 1
  endloop
 endfacet
 facet normal 0 0 1
  outer loop
   vertex 1.97314 0.439144 1
   vertex 1.9836 0.446484 1
   vertex 1.97433 0.449149 1
  endloop
 endfacet
 facet normal 0 -0 1
  outer loop
   vertex 1.97314 0.439144 1
   vertex 1.97433 0.449149 1
   vertex 1.96401 0.440968 1
  endloop
 endfacet
 facet normal 0 0 1
  outer loop
   vertex 1.96401 0.440968 1
   vertex 1.97433 0.449149 1
   vertex 1.96485 0.450952 1
  endloop
 endfacet
 facet normal 0 -0 1
  outer loop
   vertex 1.96401 0.440968 1
   vertex 1.96485 0.450952 1
   vertex 1.95474 0.441889 1
  endloop
 endfacet
 facet normal 0 0 1
  outer loop
   vertex 1.95474 0.441889 1
   vertex 1.96485 0.450952 1
   vertex 1.95524 0.451876 1
  endloop
 endfacet
 facet normal 0 -0 1
  outer loop
   vertex 1.95474 0.441889 1
   vertex 1.95524 0.451876 1
   vertex 1.95443 0.451851 1
  endloop
 endfacet
 facet normal 0 -0 1
  outer loop
   vertex 2.05441 0.34988 1
   vertex 2.0547 0.350639 1
   vertex 2.04489 0.351742 1
  endloop
 endfacet
 facet normal 0 -0 1
  outer loop
   vertex 2.04988 0.346993 1
   vertex 2.05069 0.347058 1
   vertex 2.04489 0.351742 1
  endloop
 endfacet
 facet normal 0 -0 1
  outer loop
   vertex 2.0547 0.350639 1
   vertex 2.05485 0.351433 1
   vertex 2.04489 0.351742 1
  endloop
 endfacet
 facet normal -0 0 1
  outer loop
   vertex 2.04489 0.351742 1
   vertex 2.05485 0.351433 1
   vertex 2.05488 0.352242 1
  endloop
 endfacet
 facet normal 0 -0 1
  outer loop
   vertex 2.04489 0.351742 1
   vertex 2.05488 0.352242 1
   vertex 2.04397 0.36101 1
  endloop
 endfacet
 facet normal -0 0 1
  outer loop
   vertex 2.04397 0.36101 1
   vertex 2.05488 0.352242 1
   vertex 2.05395 0.361848 1
  endloop
 endfacet
 facet normal 0 -0 1
  outer loop
   vertex 2.04397 0.36101 1
   vertex 2.05395 0.361848 1
   vertex 2.04214 0.370142 1
  endloop
 endfacet
 facet normal -0 0 1
  outer loop
   vertex 2.04214 0.370142 1
   vertex 2.05395 0.361848 1
   vertex 2.05215 0.371328 1
  endloop
 endfacet
 facet normal 0 -0 1
  outer loop
   vertex 2.04214 0.370142 1
   vertex 2.05215 0.371328 1
   vertex 2.03944 0.379052 1
  endloop
 endfacet
 facet normal -0 0 1
  outer loop
   vertex 2.03944 0.379052 1
   vertex 2.05215 0.371328 1
   vertex 2.04948 0.380602 1
  endloop
 endfacet
 facet normal 0 -0 1
  outer loop
   vertex 2.03944 0.379052 1
   vertex 2.04948 0.380602 1
   vertex 2.03587 0.387654 1
  endloop
 endfacet
 facet normal -0 0 1
  outer loop
   vertex 2.03587 0.387654 1
   vertex 2.04948 0.380602 1
   vertex 2.04598 0.389593 1
  endloop
 endfacet
 facet normal 0 -0 1
  outer loop
   vertex 2.03587 0.387654 1
   vertex 2.04598 0.389593 1
   vertex 2.03147 0.395865 1
  endloop
 endfacet
 facet normal -0 0 1
  outer loop
   vertex 2.03147 0.395865 1
   vertex 2.04598 0.389593 1
   vertex 2.04166 0.398224 1
  endloop
 endfacet
 facet normal 0 -0 1
  outer loop
   vertex 2.03147 0.395865 1
   vertex 2.04166 0.398224 1
   vertex 2.0263 0.403607 1
  endloop
 endfacet
 facet normal -0 0 1
  outer loop
   vertex 2.0263 0.403607 1
   vertex 2.04166 0.398224 1
   vertex 2.03657 0.406423 1
  endloop
 endfacet
 facet normal 0 -0 1
  outer loop
   vertex 2.0263 0.403607 1
   vertex 2.03657 0.406423 1
   vertex 2.02039 0.410805 1
  endloop
 endfacet
 facet normal -0 0 1
  outer loop
   vertex 2.02039 0.410805 1
   vertex 2.03657 0.406423 1
   vertex 2.03075 0.41412 1
  endloop
 endfacet
 facet normal 0 0 1
  outer loop
   vertex 2.02039 0.410805 1
   vertex 2.03075 0.41412 1
   vertex 2.02425 0.421249 1
  endloop
 endfacet
 facet normal 0 0 1
  outer loop
   vertex 2.04988 0.346993 1
   vertex 2.04489 0.351742 1
   vertex 2.04904 0.347064 1
  endloop
 endfacet
 facet normal 0 0 1
  outer loop
   vertex 1.95364 0.451696 1
   vertex 1.95288 0.451414 1
   vertex 1.95474 0.441889 1
  endloop
 endfacet
 facet normal 0 0 1
  outer loop
   vertex 1.95474 0.441889 1
   vertex 1.95288 0.451414 1
   vertex 1.95218 0.451014 1
  endloop
 endfacet
 facet normal 0 0 1
  outer loop
   vertex 1.95474 0.441889 1
   vertex 1.95218 0.451014 1
   vertex 1.95155 0.450505 1
  endloop
 endfacet
 facet normal 0 0 1
  outer loop
   vertex 1.95155 0.450505 1
   vertex 1.95101 0.449902 1
   vertex 1.95474 0.441889 1
  endloop
 endfacet
 facet normal 0 0 1
  outer loop
   vertex 1.95474 0.441889 1
   vertex 1.95101 0.449902 1
   vertex 1.95057 0.449219 1
  endloop
 endfacet
 facet normal 0 0 1
  outer loop
   vertex 1.95474 0.441889 1
   vertex 1.95057 0.449219 1
   vertex 1.95025 0.448475 1
  endloop
 endfacet
 facet normal 0 0 1
  outer loop
   vertex 1.95025 0.448475 1
   vertex 1.95006 0.447689 1
   vertex 1.95474 0.441889 1
  endloop
 endfacet
 facet normal 0 0 1
  outer loop
   vertex 1.95474 0.441889 1
   vertex 1.95006 0.447689 1
   vertex 1.94999 0.446883 1
  endloop
 endfacet
 facet normal 0 0 1
  outer loop
   vertex 1.95474 0.441889 1
   vertex 1.94999 0.446883 1
   vertex 1.95391 0.442002 1
  endloop
 endfacet
 facet normal 0 0 1
  outer loop
   vertex 2.045 0.350906 1
   vertex 2.04525 0.350101 1
   vertex 2.04746 0.347621 1
  endloop
 endfacet
 facet normal 0 -0 1
  outer loop
   vertex 2.05069 0.347058 1
   vertex 2.05148 0.347253 1
   vertex 2.04489 0.351742 1
  endloop
 endfacet
 facet normal 0 0 1
  outer loop
   vertex 2.04489 0.351742 1
   vertex 2.05148 0.347253 1
   vertex 2.05222 0.347572 1
  endloop
 endfacet
 facet normal 0 0 1
  outer loop
   vertex 2.04489 0.351742 1
   vertex 2.05222 0.347572 1
   vertex 2.0529 0.348007 1
  endloop
 endfacet
 facet normal 0 0 1
  outer loop
   vertex 1.95028 0.445225 1
   vertex 1.95062 0.444455 1
   vertex 1.9531 0.442254 1
  endloop
 endfacet
 facet normal -0 -0 1
  outer loop
   vertex 2.045 0.350906 1
   vertex 2.04746 0.347621 1
   vertex 2.04489 0.351742 1
  endloop
 endfacet
 facet normal 0 0 1
  outer loop
   vertex 2.04489 0.351742 1
   vertex 2.04746 0.347621 1
   vertex 2.04822 0.347275 1
  endloop
 endfacet
 facet normal 0 0 1
  outer loop
   vertex 2.04489 0.351742 1
   vertex 2.04822 0.347275 1
   vertex 2.04904 0.347064 1
  endloop
 endfacet
 facet normal 0 -0 1
  outer loop
   vertex 2.0529 0.348007 1
   vertex 2.05351 0.348546 1
   vertex 2.04489 0.351742 1
  endloop
 endfacet
 facet normal 0 0 1
  outer loop
   vertex 2.04489 0.351742 1
   vertex 2.05351 0.348546 1
   vertex 2.05401 0.349176 1
  endloop
 endfacet
 facet normal 0 0 1
  outer loop
   vertex 2.04489 0.351742 1
   vertex 2.05401 0.349176 1
   vertex 2.05441 0.34988 1
  endloop
 endfacet
 facet normal 0 0 1
  outer loop
   vertex 2.04525 0.350101 1
   vertex 2.04564 0.349349 1
   vertex 2.04746 0.347621 1
  endloop
 endfacet
 facet normal 0 0 1
  outer loop
   vertex 2.04746 0.347621 1
   vertex 2.04564 0.349349 1
   vertex 2.04614 0.348673 1
  endloop
 endfacet
 facet normal 0 0 1
  outer loop
   vertex 2.04746 0.347621 1
   vertex 2.04614 0.348673 1
   vertex 2.04675 0.348092 1
  endloop
 endfacet
 facet normal 0 0 1
  outer loop
   vertex 1.95391 0.442002 1
   vertex 1.94999 0.446883 1
   vertex 1.9531 0.442254 1
  endloop
 endfacet
 facet normal 0 0 1
  outer loop
   vertex 1.9531 0.442254 1
   vertex 1.94999 0.446883 1
   vertex 1.95006 0.446042 1
  endloop
 endfacet
 facet normal 0 0 1
  outer loop
   vertex 1.9531 0.442254 1
   vertex 1.95006 0.446042 1
   vertex 1.95028 0.445225 1
  endloop
 endfacet
 facet normal 0 0 1
  outer loop
   vertex 1.95062 0.444455 1
   vertex 1.95109 0.443755 1
   vertex 1.9531 0.442254 1
  endloop
 endfacet
 facet normal 0 0 1
  outer loop
   vertex 1.9531 0.442254 1
   vertex 1.95109 0.443755 1
   vertex 1.95167 0.443143 1
  endloop
 endfacet
 facet normal 0 0 1
  outer loop
   vertex 1.9531 0.442254 1
   vertex 1.95167 0.443143 1
   vertex 1.95235 0.442638 1
  endloop
 endfacet
 facet normal 0.999322 -0.0368044 0
  outer loop
   vertex 2.05488 0.352242 -1
   vertex 2.05488 0.352242 1
   vertex 2.05485 0.351433 1
  endloop
 endfacet
 facet normal 0.999322 -0.0368044 0
  outer loop
   vertex 2.05488 0.352242 -1
   vertex 2.05485 0.351433 1
   vertex 2.05485 0.351433 -1
  endloop
 endfacet
 facet normal 0.982594 -0.185764 0
  outer loop
   vertex 2.05485 0.351433 -1
   vertex 2.05485 0.351433 1
   vertex 2.0547 0.350639 1
  endloop
 endfacet
 facet normal 0.982594 -0.185764 0
  outer loop
   vertex 2.05485 0.351433 -1
   vertex 2.0547 0.350639 1
   vertex 2.0547 0.350639 -1
  endloop
 endfacet
 facet normal 0.93417 -0.356828 0
  outer loop
   vertex 2.0547 0.350639 -1
   vertex 2.0547 0.350639 1
   vertex 2.05441 0.34988 1
  endloop
 endfacet
 facet normal 0.93417 -0.356828 0
  outer loop
   vertex 2.0547 0.350639 -1
   vertex 2.05441 0.34988 1
   vertex 2.05441 0.34988 -1
  endloop
 endfacet
 facet normal 0.869302 -0.494282 0
  outer loop
   vertex 2.05441 0.34988 -1
   vertex 2.05441 0.34988 1
   vertex 2.05401 0.349176 1
  endloop
 endfacet
 facet normal 0.869302 -0.494282 0
  outer loop
   vertex 2.05441 0.34988 -1
   vertex 2.05401 0.349176 1
   vertex 2.05401 0.349176 -1
  endloop
 endfacet
 facet normal 0.783214 -0.621753 0
  outer loop
   vertex 2.05401 0.349176 -1
   vertex 2.05401 0.349176 1
   vertex 2.05351 0.348546 1
  endloop
 endfacet
 facet normal 0.783214 -0.621753 0
  outer loop
   vertex 2.05401 0.349176 -1
   vertex 2.05351 0.348546 1
   vertex 2.05351 0.348546 -1
  endloop
 endfacet
 facet normal 0.662502 -0.74906 0
  outer loop
   vertex 2.05351 0.348546 -1
   vertex 2.05351 0.348546 1
   vertex 2.0529 0.348007 1
  endloop
 endfacet
 facet normal 0.662502 -0.74906 0
  outer loop
   vertex 2.05351 0.348546 -1
   vertex 2.0529 0.348007 1
   vertex 2.0529 0.348007 -1
  endloop
 endfacet
 facet normal 0.538897 -0.842372 0
  outer loop
   vertex 2.0529 0.348007 -1
   vertex 2.0529 0.348007 1
   vertex 2.05222 0.347572 1
  endloop
 endfacet
 facet normal 0.538897 -0.842372 0
  outer loop
   vertex 2.0529 0.348007 -1
   vertex 2.05222 0.347572 1
   vertex 2.05222 0.347572 -1
  endloop
 endfacet
 facet normal 0.395944 -0.918275 0
  outer loop
   vertex 2.05222 0.347572 -1
   vertex 2.05222 0.347572 1
   vertex 2.05148 0.347253 1
  endloop
 endfacet
 facet normal 0.395944 -0.918275 0
  outer loop
   vertex 2.05222 0.347572 -1
   vertex 2.05148 0.347253 1
   vertex 2.05148 0.347253 -1
  endloop
 endfacet
 facet normal 0.239497 -0.970897 0
  outer loop
   vertex 2.05148 0.347253 -1
   vertex 2.05148 0.347253 1
   vertex 2.05069 0.347058 1
  endloop
 endfacet
 facet normal 0.239497 -0.970897 0
  outer loop
   vertex 2.05148 0.347253 -1
   vertex 2.05069 0.347058 1
   vertex 2.05069 0.347058 -1
  endloop
 endfacet
 facet normal 0.0806078 -0.996746 0
  outer loop
   vertex 2.05069 0.347058 -1
   vertex 2.05069 0.347058 1
   vertex 2.04988 0.346993 1
  endloop
 endfacet
 facet normal 0.0806078 -0.996746 0
  outer loop
   vertex 2.05069 0.347058 -1
   vertex 2.04988 0.346993 1
   vertex 2.04988 0.346993 -1
  endloop
 endfacet
 facet normal -0.0844659 -0.996426 0
  outer loop
   vertex 2.04988 0.346993 -1
   vertex 2.04988 0.346993 1
   vertex 2.04904 0.347064 1
  endloop
 endfacet
 facet normal -0.0844659 -0.996426 0
  outer loop
   vertex 2.04988 0.346993 -1
   vertex 2.04904 0.347064 1
   vertex 2.04904 0.347064 -1
  endloop
 endfacet
 facet normal -0.249814 -0.968294 0
  outer loop
   vertex 2.04904 0.347064 -1
   vertex 2.04904 0.347064 1
   vertex 2.04822 0.347275 1
  endloop
 endfacet
 facet normal -0.249814 -0.968294 0
  outer loop
   vertex 2.04904 0.347064 -1
   vertex 2.04822 0.347275 1
   vertex 2.04822 0.347275 -1
  endloop
 endfacet
 facet normal -0.414418 -0.910087 0
  outer loop
   vertex 2.04822 0.347275 -1
   vertex 2.04822 0.347275 1
   vertex 2.04746 0.347621 1
  endloop
 endfacet
 facet normal -0.414418 -0.910087 0
  outer loop
   vertex 2.04822 0.347275 -1
   vertex 2.04746 0.347621 1
   vertex 2.04746 0.347621 -1
  endloop
 endfacet
 facet normal -0.552308 -0.83364 0
  outer loop
   vertex 2.04746 0.347621 -1
   vertex 2.04746 0.347621 1
   vertex 2.04675 0.348092 1
  endloop
 endfacet
 facet normal -0.552308 -0.83364 0
  outer loop
   vertex 2.04746 0.347621 -1
   vertex 2.04675 0.348092 1
   vertex 2.04675 0.348092 -1
  endloop
 endfacet
 facet normal -0.689991 -0.723818 0
  outer loop
   vertex 2.04675 0.348092 -1
   vertex 2.04675 0.348092 1
   vertex 2.04614 0.348673 1
  endloop
 endfacet
 facet normal -0.689991 -0.723818 0
  outer loop
   vertex 2.04675 0.348092 -1
   vertex 2.04614 0.348673 1
   vertex 2.04614 0.348673 -1
  endloop
 endfacet
 facet normal -0.804083 -0.594517 0
  outer loop
   vertex 2.04614 0.348673 -1
   vertex 2.04614 0.348673 1
   vertex 2.04564 0.349349 1
  endloop
 endfacet
 facet normal -0.804083 -0.594517 0
  outer loop
   vertex 2.04614 0.348673 -1
   vertex 2.04564 0.349349 1
   vertex 2.04564 0.349349 -1
  endloop
 endfacet
 facet normal -0.887544 -0.460724 0
  outer loop
   vertex 2.04564 0.349349 -1
   vertex 2.04564 0.349349 1
   vertex 2.04525 0.350101 1
  endloop
 endfacet
 facet normal -0.887544 -0.460724 0
  outer loop
   vertex 2.04564 0.349349 -1
   vertex 2.04525 0.350101 1
   vertex 2.04525 0.350101 -1
  endloop
 endfacet
 facet normal -0.955084 -0.296337 0
  outer loop
   vertex 2.04525 0.350101 -1
   vertex 2.04525 0.350101 1
   vertex 2.045 0.350906 1
  endloop
 endfacet
 facet normal -0.955084 -0.296337 0
  outer loop
   vertex 2.04525 0.350101 -1
   vertex 2.045 0.350906 1
   vertex 2.045 0.350906 -1
  endloop
 endfacet
 facet normal -0.991437 -0.130583 0
  outer loop
   vertex 2.045 0.350906 -1
   vertex 2.045 0.350906 1
   vertex 2.04489 0.351742 1
  endloop
 endfacet
 facet normal -0.991437 -0.130583 0
  outer loop
   vertex 2.045 0.350906 -1
   vertex 2.04489 0.351742 1
   vertex 2.04489 0.351742 -1
  endloop
 endfacet
 facet normal -0.99626 0.0864085 0
  outer loop
   vertex 1.94999 0.446883 -1
   vertex 1.94999 0.446883 1
   vertex 1.95006 0.447689 1
  endloop
 endfacet
 facet normal -0.99626 0.0864085 0
  outer loop
   vertex 1.94999 0.446883 -1
   vertex 1.95006 0.447689 1
   vertex 1.95006 0.447689 -1
  endloop
 endfacet
 facet normal -0.971985 0.235042 0
  outer loop
   vertex 1.95006 0.447689 -1
   vertex 1.95006 0.447689 1
   vertex 1.95025 0.448475 1
  endloop
 endfacet
 facet normal -0.971985 0.235042 0
  outer loop
   vertex 1.95006 0.447689 -1
   vertex 1.95025 0.448475 1
   vertex 1.95025 0.448475 -1
  endloop
 endfacet
 facet normal -0.918633 0.395112 0
  outer loop
   vertex 1.95025 0.448475 -1
   vertex 1.95025 0.448475 1
   vertex 1.95057 0.449219 1
  endloop
 endfacet
 facet normal -0.918633 0.395112 0
  outer loop
   vertex 1.95025 0.448475 -1
   vertex 1.95057 0.449219 1
   vertex 1.95057 0.449219 -1
  endloop
 endfacet
 facet normal -0.840586 0.541679 0
  outer loop
   vertex 1.95057 0.449219 -1
   vertex 1.95057 0.449219 1
   vertex 1.95101 0.449902 1
  endloop
 endfacet
 facet normal -0.840586 0.541679 0
  outer loop
   vertex 1.95057 0.449219 -1
   vertex 1.95101 0.449902 1
   vertex 1.95101 0.449902 -1
  endloop
 endfacet
 facet normal -0.745214 0.666825 0
  outer loop
   vertex 1.95101 0.449902 -1
   vertex 1.95101 0.449902 1
   vertex 1.95155 0.450505 1
  endloop
 endfacet
 facet normal -0.745214 0.666825 0
  outer loop
   vertex 1.95101 0.449902 -1
   vertex 1.95155 0.450505 1
   vertex 1.95155 0.450505 -1
  endloop
 endfacet
 facet normal -0.62814 0.778101 0
  outer loop
   vertex 1.95155 0.450505 -1
   vertex 1.95155 0.450505 1
   vertex 1.95218 0.451014 1
  endloop
 endfacet
 facet normal -0.62814 0.778101 0
  outer loop
   vertex 1.95155 0.450505 -1
   vertex 1.95218 0.451014 1
   vertex 1.95218 0.451014 -1
  endloop
 endfacet
 facet normal -0.496513 0.86803 0
  outer loop
   vertex 1.95218 0.451014 -1
   vertex 1.95218 0.451014 1
   vertex 1.95288 0.451414 1
  endloop
 endfacet
 facet normal -0.496513 0.86803 0
  outer loop
   vertex 1.95218 0.451014 -1
   vertex 1.95288 0.451414 1
   vertex 1.95288 0.451414 -1
  endloop
 endfacet
 facet normal -0.347353 0.937735 0
  outer loop
   vertex 1.95288 0.451414 -1
   vertex 1.95288 0.451414 1
   vertex 1.95364 0.451696 1
  endloop
 endfacet
 facet normal -0.347353 0.937735 0
  outer loop
   vertex 1.95288 0.451414 -1
   vertex 1.95364 0.451696 1
   vertex 1.95364 0.451696 -1
  endloop
 endfacet
 facet normal -0.19289 0.98122 0
  outer loop
   vertex 1.95364 0.451696 -1
   vertex 1.95364 0.451696 1
   vertex 1.95443 0.451851 1
  endloop
 endfacet
 facet normal -0.19289 0.98122 0
  outer loop
   vertex 1.95364 0.451696 -1
   vertex 1.95443 0.451851 1
   vertex 1.95443 0.451851 -1
  endloop
 endfacet
 facet normal -0.030973 0.99952 0
  outer loop
   vertex 1.95443 0.451851 -1
   vertex 1.95443 0.451851 1
   vertex 1.95524 0.451876 1
  endloop
 endfacet
 facet normal -0.030973 0.99952 0
  outer loop
   vertex 1.95443 0.451851 -1
   vertex 1.95524 0.451876 1
   vertex 1.95524 0.451876 -1
  endloop
 endfacet
 facet normal -0.135126 -0.990828 0
  outer loop
   vertex 1.95474 0.441889 -1
   vertex 1.95474 0.441889 1
   vertex 1.95391 0.442002 1
  endloop
 endfacet
 facet normal -0.135126 -0.990828 0
  outer loop
   vertex 1.95474 0.441889 -1
   vertex 1.95391 0.442002 1
   vertex 1.95391 0.442002 -1
  endloop
 endfacet
 facet normal -0.297271 -0.954793 0
  outer loop
   vertex 1.95391 0.442002 -1
   vertex 1.95391 0.442002 1
   vertex 1.9531 0.442254 1
  endloop
 endfacet
 facet normal -0.297271 -0.954793 0
  outer loop
   vertex 1.95391 0.442002 -1
   vertex 1.9531 0.442254 1
   vertex 1.9531 0.442254 -1
  endloop
 endfacet
 facet normal -0.455764 -0.890101 0
  outer loop
   vertex 1.9531 0.442254 -1
   vertex 1.9531 0.442254 1
   vertex 1.95235 0.442638 1
  endloop
 endfacet
 facet normal -0.455764 -0.890101 0
  outer loop
   vertex 1.9531 0.442254 -1
   vertex 1.95235 0.442638 1
   vertex 1.95235 0.442638 -1
  endloop
 endfacet
 facet normal -0.596233 -0.802812 0
  outer loop
   vertex 1.95235 0.442638 -1
   vertex 1.95235 0.442638 1
   vertex 1.95167 0.443143 1
  endloop
 endfacet
 facet normal -0.596233 -0.802812 0
  outer loop
   vertex 1.95235 0.442638 -1
   vertex 1.95167 0.443143 1
   vertex 1.95167 0.443143 -1
  endloop
 endfacet
 facet normal -0.725449 -0.688276 0
  outer loop
   vertex 1.95167 0.443143 -1
   vertex 1.95167 0.443143 1
   vertex 1.95109 0.443755 1
  endloop
 endfacet
 facet normal -0.725449 -0.688276 0
  outer loop
   vertex 1.95167 0.443143 -1
   vertex 1.95109 0.443755 1
   vertex 1.95109 0.443755 -1
  endloop
 endfacet
 facet normal -0.830447 -0.557097 0
  outer loop
   vertex 1.95109 0.443755 -1
   vertex 1.95109 0.443755 1
   vertex 1.95062 0.444455 1
  endloop
 endfacet
 facet normal -0.830447 -0.557097 0
  outer loop
   vertex 1.95109 0.443755 -1
   vertex 1.95062 0.444455 1
   vertex 1.95062 0.444455 -1
  endloop
 endfacet
 facet normal -0.914684 -0.404169 0
  outer loop
   vertex 1.95062 0.444455 -1
   vertex 1.95062 0.444455 1
   vertex 1.95028 0.445225 1
  endloop
 endfacet
 facet normal -0.914684 -0.404169 0
  outer loop
   vertex 1.95062 0.444455 -1
   vertex 1.95028 0.445225 1
   vertex 1.95028 0.445225 -1
  endloop
 endfacet
 facet normal -0.965614 -0.259981 0
  outer loop
   vertex 1.95028 0.445225 -1
   vertex 1.95028 0.445225 1
   vertex 1.95006 0.446042 1
  endloop
 endfacet
 facet normal -0.965614 -0.259981 0
  outer loop
   vertex 1.95028 0.445225 -1
   vertex 1.95006 0.446042 1
   vertex 1.95006 0.446042 -1
  endloop
 endfacet
 facet normal -0.996555 -0.0829286 0
  outer loop
   vertex 1.95006 0.446042 -1
   vertex 1.95006 0.446042 1
   vertex 1.94999 0.446883 1
  endloop
 endfacet
 facet normal -0.996555 -0.0829286 0
  outer loop
   vertex 1.95006 0.446042 -1
   vertex 1.94999 0.446883 1
   vertex 1.94999 0.446883 -1
  endloop
 endfacet
endsolid tunner_vane
