solid tunner_vane
 facet normal -0.00187575 0.999998 0
  outer loop
   vertex 0.0156656 -0.0319796 -1
   vertex 0.0156656 -0.0319796 1
   vertex 0.0163051 -0.0319784 1
  endloop
 endfacet
 facet normal -0.00187575 0.999998 0
  outer loop
   vertex 0.0156656 -0.0319796 -1
   vertex 0.0163051 -0.0319784 1
   vertex 0.0163051 -0.0319784 -1
  endloop
 endfacet
 facet normal 0.0290857 0.999577 -0
  outer loop
   vertex 0.0163051 -0.0319784 -1
   vertex 0.0163051 -0.0319784 1
   vertex 0.0169443 -0.031997 1
  endloop
 endfacet
 facet normal 0.0290857 0.999577 0
  outer loop
   vertex 0.0163051 -0.0319784 -1
   vertex 0.0169443 -0.031997 1
   vertex 0.0169443 -0.031997 -1
  endloop
 endfacet
 facet normal 0.0600424 0.998196 -0
  outer loop
   vertex 0.0169443 -0.031997 -1
   vertex 0.0169443 -0.031997 1
   vertex 0.0175827 -0.0320354 1
  endloop
 endfacet
 facet normal 0.0600424 0.998196 0
  outer loop
   vertex 0.0169443 -0.031997 -1
   vertex 0.0175827 -0.0320354 1
   vertex 0.0175827 -0.0320354 -1
  endloop
 endfacet
 facet normal 0.0911699 0.995835 -0
  outer loop
   vertex 0.0175827 -0.0320354 -1
   vertex 0.0175827 -0.0320354 1
   vertex 0.0182195 -0.0320937 1
  endloop
 endfacet
 facet normal 0.0911699 0.995835 0
  outer loop
   vertex 0.0175827 -0.0320354 -1
   vertex 0.0182195 -0.0320937 1
   vertex 0.0182195 -0.0320937 -1
  endloop
 endfacet
 facet normal 0.12182 0.992552 -0
  outer loop
   vertex 0.0182195 -0.0320937 -1
   vertex 0.0182195 -0.0320937 1
   vertex 0.0188542 -0.0321716 1
  endloop
 endfacet
 facet normal 0.12182 0.992552 0
  outer loop
   vertex 0.0182195 -0.0320937 -1
   vertex 0.0188542 -0.0321716 1
   vertex 0.0188542 -0.0321716 -1
  endloop
 endfacet
 facet normal 0.152623 0.988285 -0
  outer loop
   vertex 0.0188542 -0.0321716 -1
   vertex 0.0188542 -0.0321716 1
   vertex 0.0194862 -0.0322692 1
  endloop
 endfacet
 facet normal 0.152623 0.988285 0
  outer loop
   vertex 0.0188542 -0.0321716 -1
   vertex 0.0194862 -0.0322692 1
   vertex 0.0194862 -0.0322692 -1
  endloop
 endfacet
 facet normal 0.183258 0.983065 -0
  outer loop
   vertex 0.0194862 -0.0322692 -1
   vertex 0.0194862 -0.0322692 1
   vertex 0.0201149 -0.0323864 1
  endloop
 endfacet
 facet normal 0.183258 0.983065 0
  outer loop
   vertex 0.0194862 -0.0322692 -1
   vertex 0.0201149 -0.0323864 1
   vertex 0.0201149 -0.0323864 -1
  endloop
 endfacet
 facet normal 0.213768 0.976885 -0
  outer loop
   vertex 0.0201149 -0.0323864 -1
   vertex 0.0201149 -0.0323864 1
   vertex 0.0207396 -0.0325231 1
  endloop
 endfacet
 facet normal 0.213768 0.976885 0
  outer loop
   vertex 0.0201149 -0.0323864 -1
   vertex 0.0207396 -0.0325231 1
   vertex 0.0207396 -0.0325231 -1
  endloop
 endfacet
 facet normal 0.243933 0.969792 -0
  outer loop
   vertex 0.0207396 -0.0325231 -1
   vertex 0.0207396 -0.0325231 1
   vertex 0.0213598 -0.0326791 1
  endloop
 endfacet
 facet normal 0.243933 0.969792 0
  outer loop
   vertex 0.0207396 -0.0325231 -1
   vertex 0.0213598 -0.0326791 1
   vertex 0.0213598 -0.0326791 -1
  endloop
 endfacet
 facet normal 0.273792 0.961789 -0
  outer loop
   vertex 0.0213598 -0.0326791 -1
   vertex 0.0213598 -0.0326791 1
   vertex 0.0219749 -0.0328542 1
  endloop
 endfacet
 facet normal 0.273792 0.961789 0
  outer loop
   vertex 0.0213598 -0.0326791 -1
   vertex 0.0219749 -0.0328542 1
   vertex 0.0219749 -0.0328542 -1
  endloop
 endfacet
 facet normal 0.303674 0.952776 -0
  outer loop
   vertex 0.0219749 -0.0328542 -1
   vertex 0.0219749 -0.0328542 1
   vertex 0.0225842 -0.0330484 1
  endloop
 endfacet
 facet normal 0.303674 0.952776 0
  outer loop
   vertex 0.0219749 -0.0328542 -1
   vertex 0.0225842 -0.0330484 1
   vertex 0.0225842 -0.0330484 -1
  endloop
 endfacet
 facet normal 0.332927 0.942953 -0
  outer loop
   vertex 0.0225842 -0.0330484 -1
   vertex 0.0225842 -0.0330484 1
   vertex 0.0231872 -0.0332613 1
  endloop
 endfacet
 facet normal 0.332927 0.942953 0
  outer loop
   vertex 0.0225842 -0.0330484 -1
   vertex 0.0231872 -0.0332613 1
   vertex 0.0231872 -0.0332613 -1
  endloop
 endfacet
 facet normal 0.362179 0.932109 -0
  outer loop
   vertex 0.0231872 -0.0332613 -1
   vertex 0.0231872 -0.0332613 1
   vertex 0.0237833 -0.0334929 1
  endloop
 endfacet
 facet normal 0.362179 0.932109 0
  outer loop
   vertex 0.0231872 -0.0332613 -1
   vertex 0.0237833 -0.0334929 1
   vertex 0.0237833 -0.0334929 -1
  endloop
 endfacet
 facet normal 0.390909 0.920429 -0
  outer loop
   vertex 0.0237833 -0.0334929 -1
   vertex 0.0237833 -0.0334929 1
   vertex 0.0243719 -0.0337429 1
  endloop
 endfacet
 facet normal 0.390909 0.920429 0
  outer loop
   vertex 0.0237833 -0.0334929 -1
   vertex 0.0243719 -0.0337429 1
   vertex 0.0243719 -0.0337429 -1
  endloop
 endfacet
 facet normal 0.41924 0.907875 -0
  outer loop
   vertex 0.0243719 -0.0337429 -1
   vertex 0.0243719 -0.0337429 1
   vertex 0.0249525 -0.034011 1
  endloop
 endfacet
 facet normal 0.41924 0.907875 0
  outer loop
   vertex 0.0243719 -0.0337429 -1
   vertex 0.0249525 -0.034011 1
   vertex 0.0249525 -0.034011 -1
  endloop
 endfacet
 facet normal 0.447288 0.89439 -0
  outer loop
   vertex 0.0249525 -0.034011 -1
   vertex 0.0249525 -0.034011 1
   vertex 0.0255244 -0.034297 1
  endloop
 endfacet
 facet normal 0.447288 0.89439 0
  outer loop
   vertex 0.0249525 -0.034011 -1
   vertex 0.0255244 -0.034297 1
   vertex 0.0255244 -0.034297 -1
  endloop
 endfacet
 facet normal 0.474729 0.880132 -0
  outer loop
   vertex 0.0255244 -0.034297 -1
   vertex 0.0255244 -0.034297 1
   vertex 0.0260873 -0.0346006 1
  endloop
 endfacet
 facet normal 0.474729 0.880132 0
  outer loop
   vertex 0.0255244 -0.034297 -1
   vertex 0.0260873 -0.0346006 1
   vertex 0.0260873 -0.0346006 -1
  endloop
 endfacet
 facet normal 0.501885 0.864934 -0
  outer loop
   vertex 0.0260873 -0.0346006 -1
   vertex 0.0260873 -0.0346006 1
   vertex 0.0266404 -0.0349216 1
  endloop
 endfacet
 facet normal 0.501885 0.864934 0
  outer loop
   vertex 0.0260873 -0.0346006 -1
   vertex 0.0266404 -0.0349216 1
   vertex 0.0266404 -0.0349216 -1
  endloop
 endfacet
 facet normal 0.528466 0.848954 -0
  outer loop
   vertex 0.0266404 -0.0349216 -1
   vertex 0.0266404 -0.0349216 1
   vertex 0.0271833 -0.0352595 1
  endloop
 endfacet
 facet normal 0.528466 0.848954 0
  outer loop
   vertex 0.0266404 -0.0349216 -1
   vertex 0.0271833 -0.0352595 1
   vertex 0.0271833 -0.0352595 -1
  endloop
 endfacet
 facet normal 0.554527 0.832166 -0
  outer loop
   vertex 0.0271833 -0.0352595 -1
   vertex 0.0271833 -0.0352595 1
   vertex 0.0277155 -0.0356142 1
  endloop
 endfacet
 facet normal 0.554527 0.832166 0
  outer loop
   vertex 0.0271833 -0.0352595 -1
   vertex 0.0277155 -0.0356142 1
   vertex 0.0277155 -0.0356142 -1
  endloop
 endfacet
 facet normal 0.580107 0.81454 -0
  outer loop
   vertex 0.0277155 -0.0356142 -1
   vertex 0.0277155 -0.0356142 1
   vertex 0.0282364 -0.0359851 1
  endloop
 endfacet
 facet normal 0.580107 0.81454 0
  outer loop
   vertex 0.0277155 -0.0356142 -1
   vertex 0.0282364 -0.0359851 1
   vertex 0.0282364 -0.0359851 -1
  endloop
 endfacet
 facet normal 0.605137 0.796121 -0
  outer loop
   vertex 0.0282364 -0.0359851 -1
   vertex 0.0282364 -0.0359851 1
   vertex 0.0287455 -0.0363721 1
  endloop
 endfacet
 facet normal 0.605137 0.796121 0
  outer loop
   vertex 0.0282364 -0.0359851 -1
   vertex 0.0287455 -0.0363721 1
   vertex 0.0287455 -0.0363721 -1
  endloop
 endfacet
 facet normal 0.629517 0.776987 -0
  outer loop
   vertex 0.0287455 -0.0363721 -1
   vertex 0.0287455 -0.0363721 1
   vertex 0.0292424 -0.0367747 1
  endloop
 endfacet
 facet normal 0.629517 0.776987 0
  outer loop
   vertex 0.0287455 -0.0363721 -1
   vertex 0.0292424 -0.0367747 1
   vertex 0.0292424 -0.0367747 -1
  endloop
 endfacet
 facet normal 0.653382 0.757029 -0
  outer loop
   vertex 0.0292424 -0.0367747 -1
   vertex 0.0292424 -0.0367747 1
   vertex 0.0297265 -0.0371925 1
  endloop
 endfacet
 facet normal 0.653382 0.757029 0
  outer loop
   vertex 0.0292424 -0.0367747 -1
   vertex 0.0297265 -0.0371925 1
   vertex 0.0297265 -0.0371925 -1
  endloop
 endfacet
 facet normal 0.676549 0.736397 -0
  outer loop
   vertex 0.0297265 -0.0371925 -1
   vertex 0.0297265 -0.0371925 1
   vertex 0.0301974 -0.0376252 1
  endloop
 endfacet
 facet normal 0.676549 0.736397 0
  outer loop
   vertex 0.0297265 -0.0371925 -1
   vertex 0.0301974 -0.0376252 1
   vertex 0.0301974 -0.0376252 -1
  endloop
 endfacet
 facet normal 0.699047 0.715075 -0
  outer loop
   vertex 0.0301974 -0.0376252 -1
   vertex 0.0301974 -0.0376252 1
   vertex 0.0306547 -0.0380722 1
  endloop
 endfacet
 facet normal 0.699047 0.715075 0
  outer loop
   vertex 0.0301974 -0.0376252 -1
   vertex 0.0306547 -0.0380722 1
   vertex 0.0306547 -0.0380722 -1
  endloop
 endfacet
 facet normal 0.720902 0.693037 -0
  outer loop
   vertex 0.0306547 -0.0380722 -1
   vertex 0.0306547 -0.0380722 1
   vertex 0.0310979 -0.0385332 1
  endloop
 endfacet
 facet normal 0.720902 0.693037 0
  outer loop
   vertex 0.0306547 -0.0380722 -1
   vertex 0.0310979 -0.0385332 1
   vertex 0.0310979 -0.0385332 -1
  endloop
 endfacet
 facet normal 0.742046 0.670349 -0
  outer loop
   vertex 0.0310979 -0.0385332 -1
   vertex 0.0310979 -0.0385332 1
   vertex 0.0315266 -0.0390078 1
  endloop
 endfacet
 facet normal 0.742046 0.670349 0
  outer loop
   vertex 0.0310979 -0.0385332 -1
   vertex 0.0315266 -0.0390078 1
   vertex 0.0315266 -0.0390078 -1
  endloop
 endfacet
 facet normal 0.762544 0.646936 -0
  outer loop
   vertex 0.0315266 -0.0390078 -1
   vertex 0.0315266 -0.0390078 1
   vertex 0.0319403 -0.0394954 1
  endloop
 endfacet
 facet normal 0.762544 0.646936 0
  outer loop
   vertex 0.0315266 -0.0390078 -1
   vertex 0.0319403 -0.0394954 1
   vertex 0.0319403 -0.0394954 -1
  endloop
 endfacet
 facet normal 0.782233 0.622986 -0
  outer loop
   vertex 0.0319403 -0.0394954 -1
   vertex 0.0319403 -0.0394954 1
   vertex 0.0323387 -0.0399957 1
  endloop
 endfacet
 facet normal 0.782233 0.622986 0
  outer loop
   vertex 0.0319403 -0.0394954 -1
   vertex 0.0323387 -0.0399957 1
   vertex 0.0323387 -0.0399957 -1
  endloop
 endfacet
 facet normal 0.801172 0.598434 -0
  outer loop
   vertex 0.0323387 -0.0399957 -1
   vertex 0.0323387 -0.0399957 1
   vertex 0.0327214 -0.040508 1
  endloop
 endfacet
 facet normal 0.801172 0.598434 0
  outer loop
   vertex 0.0323387 -0.0399957 -1
   vertex 0.0327214 -0.040508 1
   vertex 0.0327214 -0.040508 -1
  endloop
 endfacet
 facet normal 0.819375 0.573258 -0
  outer loop
   vertex 0.0327214 -0.040508 -1
   vertex 0.0327214 -0.040508 1
   vertex 0.033088 -0.041032 1
  endloop
 endfacet
 facet normal 0.819375 0.573258 0
  outer loop
   vertex 0.0327214 -0.040508 -1
   vertex 0.033088 -0.041032 1
   vertex 0.033088 -0.041032 -1
  endloop
 endfacet
 facet normal 0.83674 0.5476 -0
  outer loop
   vertex 0.033088 -0.041032 -1
   vertex 0.033088 -0.041032 1
   vertex 0.0334382 -0.0415671 1
  endloop
 endfacet
 facet normal 0.83674 0.5476 0
  outer loop
   vertex 0.033088 -0.041032 -1
   vertex 0.0334382 -0.0415671 1
   vertex 0.0334382 -0.0415671 -1
  endloop
 endfacet
 facet normal 0.853347 0.521344 -0
  outer loop
   vertex 0.0334382 -0.0415671 -1
   vertex 0.0334382 -0.0415671 1
   vertex 0.0337716 -0.0421128 1
  endloop
 endfacet
 facet normal 0.853347 0.521344 0
  outer loop
   vertex 0.0334382 -0.0415671 -1
   vertex 0.0337716 -0.0421128 1
   vertex 0.0337716 -0.0421128 -1
  endloop
 endfacet
 facet normal 0.86919 0.494479 -0
  outer loop
   vertex 0.0337716 -0.0421128 -1
   vertex 0.0337716 -0.0421128 1
   vertex 0.0340878 -0.0426686 1
  endloop
 endfacet
 facet normal 0.86919 0.494479 0
  outer loop
   vertex 0.0337716 -0.0421128 -1
   vertex 0.0340878 -0.0426686 1
   vertex 0.0340878 -0.0426686 -1
  endloop
 endfacet
 facet normal 0.884051 0.467391 -0
  outer loop
   vertex 0.0340878 -0.0426686 -1
   vertex 0.0340878 -0.0426686 1
   vertex 0.0343867 -0.043234 1
  endloop
 endfacet
 facet normal 0.884051 0.467391 0
  outer loop
   vertex 0.0340878 -0.0426686 -1
   vertex 0.0343867 -0.043234 1
   vertex 0.0343867 -0.043234 -1
  endloop
 endfacet
 facet normal 0.898135 0.439721 -0
  outer loop
   vertex 0.0343867 -0.043234 -1
   vertex 0.0343867 -0.043234 1
   vertex 0.0346679 -0.0438083 1
  endloop
 endfacet
 facet normal 0.898135 0.439721 0
  outer loop
   vertex 0.0343867 -0.043234 -1
   vertex 0.0346679 -0.0438083 1
   vertex 0.0346679 -0.0438083 -1
  endloop
 endfacet
 facet normal 0.911316 0.411709 -0
  outer loop
   vertex 0.0346679 -0.0438083 -1
   vertex 0.0346679 -0.0438083 1
   vertex 0.0349312 -0.0443912 1
  endloop
 endfacet
 facet normal 0.911316 0.411709 0
  outer loop
   vertex 0.0346679 -0.0438083 -1
   vertex 0.0349312 -0.0443912 1
   vertex 0.0349312 -0.0443912 -1
  endloop
 endfacet
 facet normal 0.923699 0.383118 -0
  outer loop
   vertex 0.0349312 -0.0443912 -1
   vertex 0.0349312 -0.0443912 1
   vertex 0.0351762 -0.0449818 1
  endloop
 endfacet
 facet normal 0.923699 0.383118 0
  outer loop
   vertex 0.0349312 -0.0443912 -1
   vertex 0.0351762 -0.0449818 1
   vertex 0.0351762 -0.0449818 -1
  endloop
 endfacet
 facet normal 0.935116 0.354341 -0
  outer loop
   vertex 0.0351762 -0.0449818 -1
   vertex 0.0351762 -0.0449818 1
   vertex 0.0354028 -0.0455799 1
  endloop
 endfacet
 facet normal 0.935116 0.354341 0
  outer loop
   vertex 0.0351762 -0.0449818 -1
   vertex 0.0354028 -0.0455799 1
   vertex 0.0354028 -0.0455799 -1
  endloop
 endfacet
 facet normal 0.945683 0.32509 -0
  outer loop
   vertex 0.0354028 -0.0455799 -1
   vertex 0.0354028 -0.0455799 1
   vertex 0.0356107 -0.0461846 1
  endloop
 endfacet
 facet normal 0.945683 0.32509 0
  outer loop
   vertex 0.0354028 -0.0455799 -1
   vertex 0.0356107 -0.0461846 1
   vertex 0.0356107 -0.0461846 -1
  endloop
 endfacet
 facet normal 0.955326 0.295553 -0
  outer loop
   vertex 0.0356107 -0.0461846 -1
   vertex 0.0356107 -0.0461846 1
   vertex 0.0357997 -0.0467956 1
  endloop
 endfacet
 facet normal 0.955326 0.295553 0
  outer loop
   vertex 0.0356107 -0.0461846 -1
   vertex 0.0357997 -0.0467956 1
   vertex 0.0357997 -0.0467956 -1
  endloop
 endfacet
 facet normal 0.964019 0.265833 -0
  outer loop
   vertex 0.0357997 -0.0467956 -1
   vertex 0.0357997 -0.0467956 1
   vertex 0.0359697 -0.047412 1
  endloop
 endfacet
 facet normal 0.964019 0.265833 0
  outer loop
   vertex 0.0357997 -0.0467956 -1
   vertex 0.0359697 -0.047412 1
   vertex 0.0359697 -0.047412 -1
  endloop
 endfacet
 facet normal 0.971836 0.235659 -0
  outer loop
   vertex 0.0359697 -0.047412 -1
   vertex 0.0359697 -0.047412 1
   vertex 0.0361204 -0.0480335 1
  endloop
 endfacet
 facet normal 0.971836 0.235659 0
  outer loop
   vertex 0.0359697 -0.047412 -1
   vertex 0.0361204 -0.0480335 1
   vertex 0.0361204 -0.0480335 -1
  endloop
 endfacet
 facet normal 0.978662 0.205475 -0
  outer loop
   vertex 0.0361204 -0.0480335 -1
   vertex 0.0361204 -0.0480335 1
   vertex 0.0362518 -0.0486593 1
  endloop
 endfacet
 facet normal 0.978662 0.205475 0
  outer loop
   vertex 0.0361204 -0.0480335 -1
   vertex 0.0362518 -0.0486593 1
   vertex 0.0362518 -0.0486593 -1
  endloop
 endfacet
 facet normal 0.984571 0.174987 -0
  outer loop
   vertex 0.0362518 -0.0486593 -1
   vertex 0.0362518 -0.0486593 1
   vertex 0.0363637 -0.049289 1
  endloop
 endfacet
 facet normal 0.984571 0.174987 0
  outer loop
   vertex 0.0362518 -0.0486593 -1
   vertex 0.0363637 -0.049289 1
   vertex 0.0363637 -0.049289 -1
  endloop
 endfacet
 facet normal 0.989508 0.14448 -0
  outer loop
   vertex 0.0363637 -0.049289 -1
   vertex 0.0363637 -0.049289 1
   vertex 0.0364561 -0.0499218 1
  endloop
 endfacet
 facet normal 0.989508 0.14448 0
  outer loop
   vertex 0.0363637 -0.049289 -1
   vertex 0.0364561 -0.0499218 1
   vertex 0.0364561 -0.0499218 -1
  endloop
 endfacet
 facet normal 0.993536 0.113519 -0
  outer loop
   vertex 0.0364561 -0.0499218 -1
   vertex 0.0364561 -0.0499218 1
   vertex 0.0365287 -0.0505572 1
  endloop
 endfacet
 facet normal 0.993536 0.113519 0
  outer loop
   vertex 0.0364561 -0.0499218 -1
   vertex 0.0365287 -0.0505572 1
   vertex 0.0365287 -0.0505572 -1
  endloop
 endfacet
 facet normal 0.996572 0.0827271 -0
  outer loop
   vertex 0.0365287 -0.0505572 -1
   vertex 0.0365287 -0.0505572 1
   vertex 0.0365816 -0.0511944 1
  endloop
 endfacet
 facet normal 0.996572 0.0827271 0
  outer loop
   vertex 0.0365287 -0.0505572 -1
   vertex 0.0365816 -0.0511944 1
   vertex 0.0365816 -0.0511944 -1
  endloop
 endfacet
 facet normal 0.998659 0.0517639 -0
  outer loop
   vertex 0.0365816 -0.0511944 -1
   vertex 0.0365816 -0.0511944 1
   vertex 0.0366147 -0.0518331 1
  endloop
 endfacet
 facet normal 0.998659 0.0517639 0
  outer loop
   vertex 0.0365816 -0.0511944 -1
   vertex 0.0366147 -0.0518331 1
   vertex 0.0366147 -0.0518331 -1
  endloop
 endfacet
 facet normal 0.999784 0.0207945 -0
  outer loop
   vertex 0.0366147 -0.0518331 -1
   vertex 0.0366147 -0.0518331 1
   vertex 0.036628 -0.0524725 1
  endloop
 endfacet
 facet normal 0.999784 0.0207945 0
  outer loop
   vertex 0.0366147 -0.0518331 -1
   vertex 0.036628 -0.0524725 1
   vertex 0.036628 -0.0524725 -1
  endloop
 endfacet
 facet normal 0.999945 -0.0104806 0
  outer loop
   vertex 0.036628 -0.0524725 -1
   vertex 0.036628 -0.0524725 1
   vertex 0.0366213 -0.0531119 1
  endloop
 endfacet
 facet normal 0.999945 -0.0104806 0
  outer loop
   vertex 0.036628 -0.0524725 -1
   vertex 0.0366213 -0.0531119 1
   vertex 0.0366213 -0.0531119 -1
  endloop
 endfacet
 facet normal 0.999148 -0.041276 0
  outer loop
   vertex 0.0366213 -0.0531119 -1
   vertex 0.0366213 -0.0531119 1
   vertex 0.0365949 -0.0537509 1
  endloop
 endfacet
 facet normal 0.999148 -0.041276 0
  outer loop
   vertex 0.0366213 -0.0531119 -1
   vertex 0.0365949 -0.0537509 1
   vertex 0.0365949 -0.0537509 -1
  endloop
 endfacet
 facet normal 0.997375 -0.0724053 0
  outer loop
   vertex 0.0365949 -0.0537509 -1
   vertex 0.0365949 -0.0537509 1
   vertex 0.0365486 -0.0543887 1
  endloop
 endfacet
 facet normal 0.997375 -0.0724053 0
  outer loop
   vertex 0.0365949 -0.0537509 -1
   vertex 0.0365486 -0.0543887 1
   vertex 0.0365486 -0.0543887 -1
  endloop
 endfacet
 facet normal 0.99466 -0.103205 0
  outer loop
   vertex 0.0365486 -0.0543887 -1
   vertex 0.0365486 -0.0543887 1
   vertex 0.0364826 -0.0550248 1
  endloop
 endfacet
 facet normal 0.99466 -0.103205 0
  outer loop
   vertex 0.0365486 -0.0543887 -1
   vertex 0.0364826 -0.0550248 1
   vertex 0.0364826 -0.0550248 -1
  endloop
 endfacet
 facet normal -0.156488 -0.98768 -0
  outer loop
   vertex 0.0355844 -0.0556774 1
   vertex 0.0351893 -0.0556148 1
   vertex 0.0355844 -0.0556774 -1
  endloop
 endfacet
 facet normal -0.156488 -0.98768 0
  outer loop
   vertex 0.0355844 -0.0556774 -1
   vertex 0.0351893 -0.0556148 1
   vertex 0.0351893 -0.0556148 -1
  endloop
 endfacet
 facet normal -0.990058 0.140659 0
  outer loop
   vertex 0.0351893 -0.0556148 -1
   vertex 0.0351893 -0.0556148 1
   vertex 0.035277 -0.0549975 -1
  endloop
 endfacet
 facet normal -0.990058 0.140659 0
  outer loop
   vertex 0.035277 -0.0549975 -1
   vertex 0.0351893 -0.0556148 1
   vertex 0.035277 -0.0549975 1
  endloop
 endfacet
 facet normal -0.994089 0.108565 0
  outer loop
   vertex 0.035277 -0.0549975 -1
   vertex 0.035277 -0.0549975 1
   vertex 0.0353447 -0.0543776 -1
  endloop
 endfacet
 facet normal -0.994089 0.108565 0
  outer loop
   vertex 0.0353447 -0.0543776 -1
   vertex 0.035277 -0.0549975 1
   vertex 0.0353447 -0.0543776 1
  endloop
 endfacet
 facet normal -0.997056 0.0766708 0
  outer loop
   vertex 0.0353447 -0.0543776 -1
   vertex 0.0353447 -0.0543776 1
   vertex 0.0353925 -0.053756 -1
  endloop
 endfacet
 facet normal -0.997056 0.0766708 0
  outer loop
   vertex 0.0353925 -0.053756 -1
   vertex 0.0353447 -0.0543776 1
   vertex 0.0353925 -0.053756 1
  endloop
 endfacet
 facet normal -0.999006 0.0445839 0
  outer loop
   vertex 0.0353925 -0.053756 -1
   vertex 0.0353925 -0.053756 1
   vertex 0.0354203 -0.0531331 -1
  endloop
 endfacet
 facet normal -0.999006 0.0445839 0
  outer loop
   vertex 0.0354203 -0.0531331 -1
   vertex 0.0353925 -0.053756 1
   vertex 0.0354203 -0.0531331 1
  endloop
 endfacet
 facet normal -0.999924 0.0123488 0
  outer loop
   vertex 0.0354203 -0.0531331 -1
   vertex 0.0354203 -0.0531331 1
   vertex 0.035428 -0.0525096 -1
  endloop
 endfacet
 facet normal -0.999924 0.0123488 0
  outer loop
   vertex 0.035428 -0.0525096 -1
   vertex 0.0354203 -0.0531331 1
   vertex 0.035428 -0.0525096 1
  endloop
 endfacet
 facet normal -0.999809 -0.0195678 0
  outer loop
   vertex 0.035428 -0.0525096 -1
   vertex 0.035428 -0.0525096 1
   vertex 0.0354158 -0.0518862 -1
  endloop
 endfacet
 facet normal -0.999809 -0.0195678 0
  outer loop
   vertex 0.0354158 -0.0518862 -1
   vertex 0.035428 -0.0525096 1
   vertex 0.0354158 -0.0518862 1
  endloop
 endfacet
 facet normal -0.998657 -0.0518018 0
  outer loop
   vertex 0.0354158 -0.0518862 -1
   vertex 0.0354158 -0.0518862 1
   vertex 0.0353835 -0.0512636 -1
  endloop
 endfacet
 facet normal -0.998657 -0.0518018 0
  outer loop
   vertex 0.0353835 -0.0512636 -1
   vertex 0.0354158 -0.0518862 1
   vertex 0.0353835 -0.0512636 1
  endloop
 endfacet
 facet normal -0.996489 -0.0837191 0
  outer loop
   vertex 0.0353835 -0.0512636 -1
   vertex 0.0353835 -0.0512636 1
   vertex 0.0353313 -0.0506423 -1
  endloop
 endfacet
 facet normal -0.996489 -0.0837191 0
  outer loop
   vertex 0.0353313 -0.0506423 -1
   vertex 0.0353835 -0.0512636 1
   vertex 0.0353313 -0.0506423 1
  endloop
 endfacet
 facet normal -0.993255 -0.115954 0
  outer loop
   vertex 0.0353313 -0.0506423 -1
   vertex 0.0353313 -0.0506423 1
   vertex 0.035259 -0.0500229 -1
  endloop
 endfacet
 facet normal -0.993255 -0.115954 0
  outer loop
   vertex 0.035259 -0.0500229 -1
   vertex 0.0353313 -0.0506423 1
   vertex 0.035259 -0.0500229 1
  endloop
 endfacet
 facet normal -0.989054 -0.147555 0
  outer loop
   vertex 0.035259 -0.0500229 -1
   vertex 0.035259 -0.0500229 1
   vertex 0.035167 -0.0494063 -1
  endloop
 endfacet
 facet normal -0.989054 -0.147555 0
  outer loop
   vertex 0.035167 -0.0494063 -1
   vertex 0.035259 -0.0500229 1
   vertex 0.035167 -0.0494063 1
  endloop
 endfacet
 facet normal -0.983763 -0.179473 0
  outer loop
   vertex 0.035167 -0.0494063 -1
   vertex 0.035167 -0.0494063 1
   vertex 0.0350551 -0.0487929 -1
  endloop
 endfacet
 facet normal -0.983763 -0.179473 0
  outer loop
   vertex 0.0350551 -0.0487929 -1
   vertex 0.035167 -0.0494063 1
   vertex 0.0350551 -0.0487929 1
  endloop
 endfacet
 facet normal -0.977506 -0.210906 0
  outer loop
   vertex 0.0350551 -0.0487929 -1
   vertex 0.0350551 -0.0487929 1
   vertex 0.0349236 -0.0481834 -1
  endloop
 endfacet
 facet normal -0.977506 -0.210906 0
  outer loop
   vertex 0.0349236 -0.0481834 -1
   vertex 0.0350551 -0.0487929 1
   vertex 0.0349236 -0.0481834 1
  endloop
 endfacet
 facet normal -0.970233 -0.242173 0
  outer loop
   vertex 0.0349236 -0.0481834 -1
   vertex 0.0349236 -0.0481834 1
   vertex 0.0347726 -0.0475785 -1
  endloop
 endfacet
 facet normal -0.970233 -0.242173 0
  outer loop
   vertex 0.0347726 -0.0475785 -1
   vertex 0.0349236 -0.0481834 1
   vertex 0.0347726 -0.0475785 1
  endloop
 endfacet
 facet normal -0.961972 -0.273147 0
  outer loop
   vertex 0.0347726 -0.0475785 -1
   vertex 0.0347726 -0.0475785 1
   vertex 0.0346023 -0.0469787 -1
  endloop
 endfacet
 facet normal -0.961972 -0.273147 0
  outer loop
   vertex 0.0346023 -0.0469787 -1
   vertex 0.0347726 -0.0475785 1
   vertex 0.0346023 -0.0469787 1
  endloop
 endfacet
 facet normal -0.952648 -0.304075 0
  outer loop
   vertex 0.0346023 -0.0469787 -1
   vertex 0.0346023 -0.0469787 1
   vertex 0.0344127 -0.0463847 -1
  endloop
 endfacet
 facet normal -0.952648 -0.304075 0
  outer loop
   vertex 0.0344127 -0.0463847 -1
   vertex 0.0346023 -0.0469787 1
   vertex 0.0344127 -0.0463847 1
  endloop
 endfacet
 facet normal -0.942429 -0.334406 0
  outer loop
   vertex 0.0344127 -0.0463847 -1
   vertex 0.0344127 -0.0463847 1
   vertex 0.0342042 -0.0457971 -1
  endloop
 endfacet
 facet normal -0.942429 -0.334406 0
  outer loop
   vertex 0.0342042 -0.0457971 -1
   vertex 0.0344127 -0.0463847 1
   vertex 0.0342042 -0.0457971 1
  endloop
 endfacet
 facet normal -0.931184 -0.364549 0
  outer loop
   vertex 0.0342042 -0.0457971 -1
   vertex 0.0342042 -0.0457971 1
   vertex 0.0339769 -0.0452165 -1
  endloop
 endfacet
 facet normal -0.931184 -0.364549 0
  outer loop
   vertex 0.0339769 -0.0452165 -1
   vertex 0.0342042 -0.0457971 1
   vertex 0.0339769 -0.0452165 1
  endloop
 endfacet
 facet normal -0.919009 -0.394238 0
  outer loop
   vertex 0.0339769 -0.0452165 -1
   vertex 0.0339769 -0.0452165 1
   vertex 0.0337311 -0.0446435 -1
  endloop
 endfacet
 facet normal -0.919009 -0.394238 0
  outer loop
   vertex 0.0337311 -0.0446435 -1
   vertex 0.0339769 -0.0452165 1
   vertex 0.0337311 -0.0446435 1
  endloop
 endfacet
 facet normal -0.905799 -0.423708 0
  outer loop
   vertex 0.0337311 -0.0446435 -1
   vertex 0.0337311 -0.0446435 1
   vertex 0.0334669 -0.0440787 -1
  endloop
 endfacet
 facet normal -0.905799 -0.423708 0
  outer loop
   vertex 0.0334669 -0.0440787 -1
   vertex 0.0337311 -0.0446435 1
   vertex 0.0334669 -0.0440787 1
  endloop
 endfacet
 facet normal -0.891787 -0.452456 0
  outer loop
   vertex 0.0334669 -0.0440787 -1
   vertex 0.0334669 -0.0440787 1
   vertex 0.0331848 -0.0435227 -1
  endloop
 endfacet
 facet normal -0.891787 -0.452456 0
  outer loop
   vertex 0.0331848 -0.0435227 -1
   vertex 0.0334669 -0.0440787 1
   vertex 0.0331848 -0.0435227 1
  endloop
 endfacet
 facet normal -0.876734 -0.480975 0
  outer loop
   vertex 0.0331848 -0.0435227 -1
   vertex 0.0331848 -0.0435227 1
   vertex 0.0328849 -0.042976 -1
  endloop
 endfacet
 facet normal -0.876734 -0.480975 0
  outer loop
   vertex 0.0328849 -0.042976 -1
   vertex 0.0331848 -0.0435227 1
   vertex 0.0328849 -0.042976 1
  endloop
 endfacet
 facet normal -0.860902 -0.508771 0
  outer loop
   vertex 0.0328849 -0.042976 -1
   vertex 0.0328849 -0.042976 1
   vertex 0.0325677 -0.0424393 -1
  endloop
 endfacet
 facet normal -0.860902 -0.508771 0
  outer loop
   vertex 0.0325677 -0.0424393 -1
   vertex 0.0328849 -0.042976 1
   vertex 0.0325677 -0.0424393 1
  endloop
 endfacet
 facet normal -0.844032 -0.536293 0
  outer loop
   vertex 0.0325677 -0.0424393 -1
   vertex 0.0325677 -0.0424393 1
   vertex 0.0322333 -0.041913 -1
  endloop
 endfacet
 facet normal -0.844032 -0.536293 0
  outer loop
   vertex 0.0322333 -0.041913 -1
   vertex 0.0325677 -0.0424393 1
   vertex 0.0322333 -0.041913 1
  endloop
 endfacet
 facet normal -0.826386 -0.563104 0
  outer loop
   vertex 0.0322333 -0.041913 -1
   vertex 0.0322333 -0.041913 1
   vertex 0.0318822 -0.0413977 -1
  endloop
 endfacet
 facet normal -0.826386 -0.563104 0
  outer loop
   vertex 0.0318822 -0.0413977 -1
   vertex 0.0322333 -0.041913 1
   vertex 0.0318822 -0.0413977 1
  endloop
 endfacet
 facet normal -0.807934 -0.589273 0
  outer loop
   vertex 0.0318822 -0.0413977 -1
   vertex 0.0318822 -0.0413977 1
   vertex 0.0315148 -0.040894 -1
  endloop
 endfacet
 facet normal -0.807934 -0.589273 0
  outer loop
   vertex 0.0315148 -0.040894 -1
   vertex 0.0318822 -0.0413977 1
   vertex 0.0315148 -0.040894 1
  endloop
 endfacet
 facet normal -0.788485 -0.615054 0
  outer loop
   vertex 0.0315148 -0.040894 -1
   vertex 0.0315148 -0.040894 1
   vertex 0.0311313 -0.0404024 -1
  endloop
 endfacet
 facet normal -0.788485 -0.615054 0
  outer loop
   vertex 0.0311313 -0.0404024 -1
   vertex 0.0315148 -0.040894 1
   vertex 0.0311313 -0.0404024 1
  endloop
 endfacet
 facet normal -0.768406 -0.639963 0
  outer loop
   vertex 0.0311313 -0.0404024 -1
   vertex 0.0311313 -0.0404024 1
   vertex 0.0307323 -0.0399233 -1
  endloop
 endfacet
 facet normal -0.768406 -0.639963 0
  outer loop
   vertex 0.0307323 -0.0399233 -1
   vertex 0.0311313 -0.0404024 1
   vertex 0.0307323 -0.0399233 1
  endloop
 endfacet
 facet normal -0.747354 -0.664426 0
  outer loop
   vertex 0.0307323 -0.0399233 -1
   vertex 0.0307323 -0.0399233 1
   vertex 0.030318 -0.0394573 -1
  endloop
 endfacet
 facet normal -0.747354 -0.664426 0
  outer loop
   vertex 0.030318 -0.0394573 -1
   vertex 0.0307323 -0.0399233 1
   vertex 0.030318 -0.0394573 1
  endloop
 endfacet
 facet normal -0.72567 -0.688043 0
  outer loop
   vertex 0.030318 -0.0394573 -1
   vertex 0.030318 -0.0394573 1
   vertex 0.029889 -0.0390048 -1
  endloop
 endfacet
 facet normal -0.72567 -0.688043 0
  outer loop
   vertex 0.029889 -0.0390048 -1
   vertex 0.030318 -0.0394573 1
   vertex 0.029889 -0.0390048 1
  endloop
 endfacet
 facet normal -0.70319 -0.711002 0
  outer loop
   vertex 0.029889 -0.0390048 -1
   vertex 0.029889 -0.0390048 1
   vertex 0.0294457 -0.0385664 -1
  endloop
 endfacet
 facet normal -0.70319 -0.711002 0
  outer loop
   vertex 0.0294457 -0.0385664 -1
   vertex 0.029889 -0.0390048 1
   vertex 0.0294457 -0.0385664 1
  endloop
 endfacet
 facet normal -0.679965 -0.733244 0
  outer loop
   vertex 0.0294457 -0.0385664 -1
   vertex 0.0294457 -0.0385664 1
   vertex 0.0289885 -0.0381424 -1
  endloop
 endfacet
 facet normal -0.679965 -0.733244 0
  outer loop
   vertex 0.0289885 -0.0381424 -1
   vertex 0.0294457 -0.0385664 1
   vertex 0.0289885 -0.0381424 1
  endloop
 endfacet
 facet normal -0.656116 -0.75466 0
  outer loop
   vertex 0.0289885 -0.0381424 -1
   vertex 0.0289885 -0.0381424 1
   vertex 0.028518 -0.0377333 -1
  endloop
 endfacet
 facet normal -0.656116 -0.75466 0
  outer loop
   vertex 0.028518 -0.0377333 -1
   vertex 0.0289885 -0.0381424 1
   vertex 0.028518 -0.0377333 1
  endloop
 endfacet
 facet normal -0.631449 -0.775418 0
  outer loop
   vertex 0.028518 -0.0377333 -1
   vertex 0.028518 -0.0377333 1
   vertex 0.0280345 -0.0373396 -1
  endloop
 endfacet
 facet normal -0.631449 -0.775418 0
  outer loop
   vertex 0.0280345 -0.0373396 -1
   vertex 0.028518 -0.0377333 1
   vertex 0.0280345 -0.0373396 1
  endloop
 endfacet
 facet normal -0.606206 -0.795308 0
  outer loop
   vertex 0.0280345 -0.0373396 -1
   vertex 0.0280345 -0.0373396 1
   vertex 0.0275386 -0.0369616 -1
  endloop
 endfacet
 facet normal -0.606206 -0.795308 0
  outer loop
   vertex 0.0275386 -0.0369616 -1
   vertex 0.0280345 -0.0373396 1
   vertex 0.0275386 -0.0369616 1
  endloop
 endfacet
 facet normal -0.580428 -0.814312 0
  outer loop
   vertex 0.0275386 -0.0369616 -1
   vertex 0.0275386 -0.0369616 1
   vertex 0.0270309 -0.0365998 -1
  endloop
 endfacet
 facet normal -0.580428 -0.814312 0
  outer loop
   vertex 0.0270309 -0.0365998 -1
   vertex 0.0275386 -0.0369616 1
   vertex 0.0270309 -0.0365998 1
  endloop
 endfacet
 facet normal -0.553915 -0.832573 0
  outer loop
   vertex 0.0270309 -0.0365998 -1
   vertex 0.0270309 -0.0365998 1
   vertex 0.0265118 -0.0362544 -1
  endloop
 endfacet
 facet normal -0.553915 -0.832573 0
  outer loop
   vertex 0.0265118 -0.0362544 -1
   vertex 0.0270309 -0.0365998 1
   vertex 0.0265118 -0.0362544 1
  endloop
 endfacet
 facet normal -0.526836 -0.849967 0
  outer loop
   vertex 0.0265118 -0.0362544 -1
   vertex 0.0265118 -0.0362544 1
   vertex 0.0259818 -0.0359259 -1
  endloop
 endfacet
 facet normal -0.526836 -0.849967 0
  outer loop
   vertex 0.0259818 -0.0359259 -1
   vertex 0.0265118 -0.0362544 1
   vertex 0.0259818 -0.0359259 1
  endloop
 endfacet
 facet normal -0.49932 -0.866417 0
  outer loop
   vertex 0.0259818 -0.0359259 -1
   vertex 0.0259818 -0.0359259 1
   vertex 0.0254416 -0.0356146 -1
  endloop
 endfacet
 facet normal -0.49932 -0.866417 0
  outer loop
   vertex 0.0254416 -0.0356146 -1
   vertex 0.0259818 -0.0359259 1
   vertex 0.0254416 -0.0356146 1
  endloop
 endfacet
 facet normal -0.471212 -0.88202 0
  outer loop
   vertex 0.0254416 -0.0356146 -1
   vertex 0.0254416 -0.0356146 1
   vertex 0.0248917 -0.0353208 -1
  endloop
 endfacet
 facet normal -0.471212 -0.88202 0
  outer loop
   vertex 0.0248917 -0.0353208 -1
   vertex 0.0254416 -0.0356146 1
   vertex 0.0248917 -0.0353208 1
  endloop
 endfacet
 facet normal -0.442627 -0.896706 0
  outer loop
   vertex 0.0248917 -0.0353208 -1
   vertex 0.0248917 -0.0353208 1
   vertex 0.0243326 -0.0350448 -1
  endloop
 endfacet
 facet normal -0.442627 -0.896706 0
  outer loop
   vertex 0.0243326 -0.0350448 -1
   vertex 0.0248917 -0.0353208 1
   vertex 0.0243326 -0.0350448 1
  endloop
 endfacet
 facet normal -0.413557 -0.910478 0
  outer loop
   vertex 0.0243326 -0.0350448 -1
   vertex 0.0243326 -0.0350448 1
   vertex 0.0237649 -0.0347869 -1
  endloop
 endfacet
 facet normal -0.413557 -0.910478 0
  outer loop
   vertex 0.0237649 -0.0347869 -1
   vertex 0.0243326 -0.0350448 1
   vertex 0.0237649 -0.0347869 1
  endloop
 endfacet
 facet normal -0.384088 -0.923296 0
  outer loop
   vertex 0.0237649 -0.0347869 -1
   vertex 0.0237649 -0.0347869 1
   vertex 0.0231892 -0.0345475 -1
  endloop
 endfacet
 facet normal -0.384088 -0.923296 0
  outer loop
   vertex 0.0231892 -0.0345475 -1
   vertex 0.0237649 -0.0347869 1
   vertex 0.0231892 -0.0345475 1
  endloop
 endfacet
 facet normal -0.354225 -0.93516 0
  outer loop
   vertex 0.0231892 -0.0345475 -1
   vertex 0.0231892 -0.0345475 1
   vertex 0.0226061 -0.0343266 -1
  endloop
 endfacet
 facet normal -0.354225 -0.93516 0
  outer loop
   vertex 0.0226061 -0.0343266 -1
   vertex 0.0231892 -0.0345475 1
   vertex 0.0226061 -0.0343266 1
  endloop
 endfacet
 facet normal -0.324055 -0.946038 0
  outer loop
   vertex 0.0226061 -0.0343266 -1
   vertex 0.0226061 -0.0343266 1
   vertex 0.0220163 -0.0341246 -1
  endloop
 endfacet
 facet normal -0.324055 -0.946038 0
  outer loop
   vertex 0.0220163 -0.0341246 -1
   vertex 0.0226061 -0.0343266 1
   vertex 0.0220163 -0.0341246 1
  endloop
 endfacet
 facet normal -0.293375 -0.955997 0
  outer loop
   vertex 0.0220163 -0.0341246 -1
   vertex 0.0220163 -0.0341246 1
   vertex 0.0214202 -0.0339416 -1
  endloop
 endfacet
 facet normal -0.293375 -0.955997 0
  outer loop
   vertex 0.0214202 -0.0339416 -1
   vertex 0.0220163 -0.0341246 1
   vertex 0.0214202 -0.0339416 1
  endloop
 endfacet
 facet normal -0.262636 -0.964895 0
  outer loop
   vertex 0.0214202 -0.0339416 -1
   vertex 0.0214202 -0.0339416 1
   vertex 0.0208186 -0.0337779 -1
  endloop
 endfacet
 facet normal -0.262636 -0.964895 0
  outer loop
   vertex 0.0208186 -0.0337779 -1
   vertex 0.0214202 -0.0339416 1
   vertex 0.0208186 -0.0337779 1
  endloop
 endfacet
 facet normal -0.231486 -0.972838 0
  outer loop
   vertex 0.0208186 -0.0337779 -1
   vertex 0.0208186 -0.0337779 1
   vertex 0.020212 -0.0336335 -1
  endloop
 endfacet
 facet normal -0.231486 -0.972838 0
  outer loop
   vertex 0.020212 -0.0336335 -1
   vertex 0.0208186 -0.0337779 1
   vertex 0.020212 -0.0336335 1
  endloop
 endfacet
 facet normal -0.200015 -0.979793 0
  outer loop
   vertex 0.020212 -0.0336335 -1
   vertex 0.020212 -0.0336335 1
   vertex 0.0196011 -0.0335088 -1
  endloop
 endfacet
 facet normal -0.200015 -0.979793 0
  outer loop
   vertex 0.0196011 -0.0335088 -1
   vertex 0.020212 -0.0336335 1
   vertex 0.0196011 -0.0335088 1
  endloop
 endfacet
 facet normal -0.168498 -0.985702 0
  outer loop
   vertex 0.0196011 -0.0335088 -1
   vertex 0.0196011 -0.0335088 1
   vertex 0.0189865 -0.0334038 -1
  endloop
 endfacet
 facet normal -0.168498 -0.985702 0
  outer loop
   vertex 0.0189865 -0.0334038 -1
   vertex 0.0196011 -0.0335088 1
   vertex 0.0189865 -0.0334038 1
  endloop
 endfacet
 facet normal -0.136674 -0.990616 0
  outer loop
   vertex 0.0189865 -0.0334038 -1
   vertex 0.0189865 -0.0334038 1
   vertex 0.0183689 -0.0333186 -1
  endloop
 endfacet
 facet normal -0.136674 -0.990616 0
  outer loop
   vertex 0.0183689 -0.0333186 -1
   vertex 0.0189865 -0.0334038 1
   vertex 0.0183689 -0.0333186 1
  endloop
 endfacet
 facet normal -0.104965 -0.994476 0
  outer loop
   vertex 0.0183689 -0.0333186 -1
   vertex 0.0183689 -0.0333186 1
   vertex 0.0177488 -0.0332531 -1
  endloop
 endfacet
 facet normal -0.104965 -0.994476 0
  outer loop
   vertex 0.0177488 -0.0332531 -1
   vertex 0.0183689 -0.0333186 1
   vertex 0.0177488 -0.0332531 1
  endloop
 endfacet
 facet normal -0.0726481 -0.997358 0
  outer loop
   vertex 0.0177488 -0.0332531 -1
   vertex 0.0177488 -0.0332531 1
   vertex 0.0171269 -0.0332078 -1
  endloop
 endfacet
 facet normal -0.0726481 -0.997358 0
  outer loop
   vertex 0.0171269 -0.0332078 -1
   vertex 0.0177488 -0.0332531 1
   vertex 0.0171269 -0.0332078 1
  endloop
 endfacet
 facet normal -0.0407366 -0.99917 0
  outer loop
   vertex 0.0171269 -0.0332078 -1
   vertex 0.0171269 -0.0332078 1
   vertex 0.0165039 -0.0331824 -1
  endloop
 endfacet
 facet normal -0.0407366 -0.99917 0
  outer loop
   vertex 0.0165039 -0.0331824 -1
   vertex 0.0171269 -0.0332078 1
   vertex 0.0165039 -0.0331824 1
  endloop
 endfacet
 facet normal -0.999847 -0.0175013 -0
  outer loop
   vertex 0.0156726 -0.0323795 1
   vertex 0.0156656 -0.0319796 1
   vertex 0.0156726 -0.0323795 -1
  endloop
 endfacet
 facet normal -0.999847 -0.0175013 0
  outer loop
   vertex 0.0156726 -0.0323795 -1
   vertex 0.0156656 -0.0319796 1
   vertex 0.0156656 -0.0319796 -1
  endloop
 endfacet
 facet normal 0 0 -1
  outer loop
   vertex 0.0156726 -0.0323795 -1
   vertex 0.0156656 -0.0319796 -1
   vertex 0.0165039 -0.0331824 -1
  endloop
 endfacet
 facet normal 0 0 -1
  outer loop
   vertex 0.0165039 -0.0331824 -1
   vertex 0.0156656 -0.0319796 -1
   vertex 0.0163051 -0.0319784 -1
  endloop
 endfacet
 facet normal 0 0 -1
  outer loop
   vertex 0.0165039 -0.0331824 -1
   vertex 0.0163051 -0.0319784 -1
   vertex 0.0171269 -0.0332078 -1
  endloop
 endfacet
 facet normal 0 0 -1
  outer loop
   vertex 0.0171269 -0.0332078 -1
   vertex 0.0163051 -0.0319784 -1
   vertex 0.0169443 -0.031997 -1
  endloop
 endfacet
 facet normal 0 0 -1
  outer loop
   vertex 0.0171269 -0.0332078 -1
   vertex 0.0169443 -0.031997 -1
   vertex 0.0177488 -0.0332531 -1
  endloop
 endfacet
 facet normal 0 0 -1
  outer loop
   vertex 0.0177488 -0.0332531 -1
   vertex 0.0169443 -0.031997 -1
   vertex 0.0175827 -0.0320354 -1
  endloop
 endfacet
 facet normal 0 0 -1
  outer loop
   vertex 0.0177488 -0.0332531 -1
   vertex 0.0175827 -0.0320354 -1
   vertex 0.0183689 -0.0333186 -1
  endloop
 endfacet
 facet normal 0 0 -1
  outer loop
   vertex 0.0183689 -0.0333186 -1
   vertex 0.0175827 -0.0320354 -1
   vertex 0.0182195 -0.0320937 -1
  endloop
 endfacet
 facet normal 0 0 -1
  outer loop
   vertex 0.0183689 -0.0333186 -1
   vertex 0.0182195 -0.0320937 -1
   vertex 0.0189865 -0.0334038 -1
  endloop
 endfacet
 facet normal 0 0 -1
  outer loop
   vertex 0.0355844 -0.0556774 -1
   vertex 0.0351893 -0.0556148 -1
   vertex 0.0364826 -0.0550248 -1
  endloop
 endfacet
 facet normal -0 0 -1
  outer loop
   vertex 0.0364826 -0.0550248 -1
   vertex 0.0351893 -0.0556148 -1
   vertex 0.035277 -0.0549975 -1
  endloop
 endfacet
 facet normal 0 0 -1
  outer loop
   vertex 0.0364826 -0.0550248 -1
   vertex 0.035277 -0.0549975 -1
   vertex 0.0365486 -0.0543887 -1
  endloop
 endfacet
 facet normal -0 0 -1
  outer loop
   vertex 0.0365486 -0.0543887 -1
   vertex 0.035277 -0.0549975 -1
   vertex 0.0353447 -0.0543776 -1
  endloop
 endfacet
 facet normal 0 0 -1
  outer loop
   vertex 0.0365486 -0.0543887 -1
   vertex 0.0353447 -0.0543776 -1
   vertex 0.0365949 -0.0537509 -1
  endloop
 endfacet
 facet normal 0 0 -1
  outer loop
   vertex 0.0365949 -0.0537509 -1
   vertex 0.0353447 -0.0543776 -1
   vertex 0.0353925 -0.053756 -1
  endloop
 endfacet
 facet normal -0 0 -1
  outer loop
   vertex 0.0365949 -0.0537509 -1
   vertex 0.0353925 -0.053756 -1
   vertex 0.0366213 -0.0531119 -1
  endloop
 endfacet
 facet normal 0 0 -1
  outer loop
   vertex 0.0366213 -0.0531119 -1
   vertex 0.0353925 -0.053756 -1
   vertex 0.0354203 -0.0531331 -1
  endloop
 endfacet
 facet normal -0 0 -1
  outer loop
   vertex 0.0366213 -0.0531119 -1
   vertex 0.0354203 -0.0531331 -1
   vertex 0.036628 -0.0524725 -1
  endloop
 endfacet
 facet normal 0 0 -1
  outer loop
   vertex 0.036628 -0.0524725 -1
   vertex 0.0354203 -0.0531331 -1
   vertex 0.035428 -0.0525096 -1
  endloop
 endfacet
 facet normal -0 0 -1
  outer loop
   vertex 0.036628 -0.0524725 -1
   vertex 0.035428 -0.0525096 -1
   vertex 0.0366147 -0.0518331 -1
  endloop
 endfacet
 facet normal 0 0 -1
  outer loop
   vertex 0.0366147 -0.0518331 -1
   vertex 0.035428 -0.0525096 -1
   vertex 0.0354158 -0.0518862 -1
  endloop
 endfacet
 facet normal -0 0 -1
  outer loop
   vertex 0.0366147 -0.0518331 -1
   vertex 0.0354158 -0.0518862 -1
   vertex 0.0365816 -0.0511944 -1
  endloop
 endfacet
 facet normal 0 0 -1
  outer loop
   vertex 0.0365816 -0.0511944 -1
   vertex 0.0354158 -0.0518862 -1
   vertex 0.0353835 -0.0512636 -1
  endloop
 endfacet
 facet normal -0 0 -1
  outer loop
   vertex 0.0365816 -0.0511944 -1
   vertex 0.0353835 -0.0512636 -1
   vertex 0.0365287 -0.0505572 -1
  endloop
 endfacet
 facet normal 0 0 -1
  outer loop
   vertex 0.0365287 -0.0505572 -1
   vertex 0.0353835 -0.0512636 -1
   vertex 0.0353313 -0.0506423 -1
  endloop
 endfacet
 facet normal -0 0 -1
  outer loop
   vertex 0.0365287 -0.0505572 -1
   vertex 0.0353313 -0.0506423 -1
   vertex 0.0364561 -0.0499218 -1
  endloop
 endfacet
 facet normal 0 0 -1
  outer loop
   vertex 0.0364561 -0.0499218 -1
   vertex 0.0353313 -0.0506423 -1
   vertex 0.035259 -0.0500229 -1
  endloop
 endfacet
 facet normal -0 0 -1
  outer loop
   vertex 0.0364561 -0.0499218 -1
   vertex 0.035259 -0.0500229 -1
   vertex 0.0363637 -0.049289 -1
  endloop
 endfacet
 facet normal 0 0 -1
  outer loop
   vertex 0.0363637 -0.049289 -1
   vertex 0.035259 -0.0500229 -1
   vertex 0.035167 -0.0494063 -1
  endloop
 endfacet
 facet normal -0 0 -1
  outer loop
   vertex 0.0363637 -0.049289 -1
   vertex 0.035167 -0.0494063 -1
   vertex 0.0362518 -0.0486593 -1
  endloop
 endfacet
 facet normal 0 0 -1
  outer loop
   vertex 0.0362518 -0.0486593 -1
   vertex 0.035167 -0.0494063 -1
   vertex 0.0350551 -0.0487929 -1
  endloop
 endfacet
 facet normal -0 0 -1
  outer loop
   vertex 0.0362518 -0.0486593 -1
   vertex 0.0350551 -0.0487929 -1
   vertex 0.0361204 -0.0480335 -1
  endloop
 endfacet
 facet normal 0 0 -1
  outer loop
   vertex 0.0361204 -0.0480335 -1
   vertex 0.0350551 -0.0487929 -1
   vertex 0.0349236 -0.0481834 -1
  endloop
 endfacet
 facet normal -0 0 -1
  outer loop
   vertex 0.0361204 -0.0480335 -1
   vertex 0.0349236 -0.0481834 -1
   vertex 0.0359697 -0.047412 -1
  endloop
 endfacet
 facet normal 0 0 -1
  outer loop
   vertex 0.0359697 -0.047412 -1
   vertex 0.0349236 -0.0481834 -1
   vertex 0.0347726 -0.0475785 -1
  endloop
 endfacet
 facet normal -0 0 -1
  outer loop
   vertex 0.0359697 -0.047412 -1
   vertex 0.0347726 -0.0475785 -1
   vertex 0.0357997 -0.0467956 -1
  endloop
 endfacet
 facet normal 0 0 -1
  outer loop
   vertex 0.0357997 -0.0467956 -1
   vertex 0.0347726 -0.0475785 -1
   vertex 0.0346023 -0.0469787 -1
  endloop
 endfacet
 facet normal -0 0 -1
  outer loop
   vertex 0.0357997 -0.0467956 -1
   vertex 0.0346023 -0.0469787 -1
   vertex 0.0356107 -0.0461846 -1
  endloop
 endfacet
 facet normal 0 0 -1
  outer loop
   vertex 0.0356107 -0.0461846 -1
   vertex 0.0346023 -0.0469787 -1
   vertex 0.0344127 -0.0463847 -1
  endloop
 endfacet
 facet normal -0 0 -1
  outer loop
   vertex 0.0356107 -0.0461846 -1
   vertex 0.0344127 -0.0463847 -1
   vertex 0.0354028 -0.0455799 -1
  endloop
 endfacet
 facet normal 0 0 -1
  outer loop
   vertex 0.0354028 -0.0455799 -1
   vertex 0.0344127 -0.0463847 -1
   vertex 0.0342042 -0.0457971 -1
  endloop
 endfacet
 facet normal -0 0 -1
  outer loop
   vertex 0.0354028 -0.0455799 -1
   vertex 0.0342042 -0.0457971 -1
   vertex 0.0351762 -0.0449818 -1
  endloop
 endfacet
 facet normal 0 0 -1
  outer loop
   vertex 0.0351762 -0.0449818 -1
   vertex 0.0342042 -0.0457971 -1
   vertex 0.0339769 -0.0452165 -1
  endloop
 endfacet
 facet normal -0 0 -1
  outer loop
   vertex 0.0351762 -0.0449818 -1
   vertex 0.0339769 -0.0452165 -1
   vertex 0.0349312 -0.0443912 -1
  endloop
 endfacet
 facet normal 0 0 -1
  outer loop
   vertex 0.0349312 -0.0443912 -1
   vertex 0.0339769 -0.0452165 -1
   vertex 0.0337311 -0.0446435 -1
  endloop
 endfacet
 facet normal -0 0 -1
  outer loop
   vertex 0.0349312 -0.0443912 -1
   vertex 0.0337311 -0.0446435 -1
   vertex 0.0346679 -0.0438083 -1
  endloop
 endfacet
 facet normal 0 0 -1
  outer loop
   vertex 0.0346679 -0.0438083 -1
   vertex 0.0337311 -0.0446435 -1
   vertex 0.0334669 -0.0440787 -1
  endloop
 endfacet
 facet normal -0 0 -1
  outer loop
   vertex 0.0346679 -0.0438083 -1
   vertex 0.0334669 -0.0440787 -1
   vertex 0.0343867 -0.043234 -1
  endloop
 endfacet
 facet normal 0 0 -1
  outer loop
   vertex 0.0343867 -0.043234 -1
   vertex 0.0334669 -0.0440787 -1
   vertex 0.0331848 -0.0435227 -1
  endloop
 endfacet
 facet normal -0 0 -1
  outer loop
   vertex 0.0343867 -0.043234 -1
   vertex 0.0331848 -0.0435227 -1
   vertex 0.0340878 -0.0426686 -1
  endloop
 endfacet
 facet normal 0 0 -1
  outer loop
   vertex 0.0340878 -0.0426686 -1
   vertex 0.0331848 -0.0435227 -1
   vertex 0.0328849 -0.042976 -1
  endloop
 endfacet
 facet normal 0 0 -1
  outer loop
   vertex 0.0182195 -0.0320937 -1
   vertex 0.0188542 -0.0321716 -1
   vertex 0.0189865 -0.0334038 -1
  endloop
 endfacet
 facet normal 0 0 -1
  outer loop
   vertex 0.0189865 -0.0334038 -1
   vertex 0.0188542 -0.0321716 -1
   vertex 0.0194862 -0.0322692 -1
  endloop
 endfacet
 facet normal 0 0 -1
  outer loop
   vertex 0.0189865 -0.0334038 -1
   vertex 0.0194862 -0.0322692 -1
   vertex 0.0196011 -0.0335088 -1
  endloop
 endfacet
 facet normal 0 0 -1
  outer loop
   vertex 0.0196011 -0.0335088 -1
   vertex 0.0194862 -0.0322692 -1
   vertex 0.0201149 -0.0323864 -1
  endloop
 endfacet
 facet normal 0 0 -1
  outer loop
   vertex 0.0196011 -0.0335088 -1
   vertex 0.0201149 -0.0323864 -1
   vertex 0.020212 -0.0336335 -1
  endloop
 endfacet
 facet normal 0 0 -1
  outer loop
   vertex 0.020212 -0.0336335 -1
   vertex 0.0201149 -0.0323864 -1
   vertex 0.0207396 -0.0325231 -1
  endloop
 endfacet
 facet normal 0 0 -1
  outer loop
   vertex 0.020212 -0.0336335 -1
   vertex 0.0207396 -0.0325231 -1
   vertex 0.0208186 -0.0337779 -1
  endloop
 endfacet
 facet normal 0 0 -1
  outer loop
   vertex 0.0208186 -0.0337779 -1
   vertex 0.0207396 -0.0325231 -1
   vertex 0.0213598 -0.0326791 -1
  endloop
 endfacet
 facet normal 0 0 -1
  outer loop
   vertex 0.0208186 -0.0337779 -1
   vertex 0.0213598 -0.0326791 -1
   vertex 0.0214202 -0.0339416 -1
  endloop
 endfacet
 facet normal 0 0 -1
  outer loop
   vertex 0.0214202 -0.0339416 -1
   vertex 0.0213598 -0.0326791 -1
   vertex 0.0219749 -0.0328542 -1
  endloop
 endfacet
 facet normal 0 0 -1
  outer loop
   vertex 0.0214202 -0.0339416 -1
   vertex 0.0219749 -0.0328542 -1
   vertex 0.0220163 -0.0341246 -1
  endloop
 endfacet
 facet normal 0 0 -1
  outer loop
   vertex 0.0220163 -0.0341246 -1
   vertex 0.0219749 -0.0328542 -1
   vertex 0.0225842 -0.0330484 -1
  endloop
 endfacet
 facet normal 0 0 -1
  outer loop
   vertex 0.0220163 -0.0341246 -1
   vertex 0.0225842 -0.0330484 -1
   vertex 0.0226061 -0.0343266 -1
  endloop
 endfacet
 facet normal 0 0 -1
  outer loop
   vertex 0.0226061 -0.0343266 -1
   vertex 0.0225842 -0.0330484 -1
   vertex 0.0231872 -0.0332613 -1
  endloop
 endfacet
 facet normal 0 0 -1
  outer loop
   vertex 0.0226061 -0.0343266 -1
   vertex 0.0231872 -0.0332613 -1
   vertex 0.0231892 -0.0345475 -1
  endloop
 endfacet
 facet normal 0 0 -1
  outer loop
   vertex 0.0231892 -0.0345475 -1
   vertex 0.0231872 -0.0332613 -1
   vertex 0.0237833 -0.0334929 -1
  endloop
 endfacet
 facet normal 0 0 -1
  outer loop
   vertex 0.0231892 -0.0345475 -1
   vertex 0.0237833 -0.0334929 -1
   vertex 0.0237649 -0.0347869 -1
  endloop
 endfacet
 facet normal 0 0 -1
  outer loop
   vertex 0.0237649 -0.0347869 -1
   vertex 0.0237833 -0.0334929 -1
   vertex 0.0243719 -0.0337429 -1
  endloop
 endfacet
 facet normal 0 0 -1
  outer loop
   vertex 0.0237649 -0.0347869 -1
   vertex 0.0243719 -0.0337429 -1
   vertex 0.0243326 -0.0350448 -1
  endloop
 endfacet
 facet normal 0 0 -1
  outer loop
   vertex 0.0243326 -0.0350448 -1
   vertex 0.0243719 -0.0337429 -1
   vertex 0.0249525 -0.034011 -1
  endloop
 endfacet
 facet normal 0 0 -1
  outer loop
   vertex 0.0243326 -0.0350448 -1
   vertex 0.0249525 -0.034011 -1
   vertex 0.0248917 -0.0353208 -1
  endloop
 endfacet
 facet normal 0 0 -1
  outer loop
   vertex 0.0248917 -0.0353208 -1
   vertex 0.0249525 -0.034011 -1
   vertex 0.0255244 -0.034297 -1
  endloop
 endfacet
 facet normal 0 0 -1
  outer loop
   vertex 0.0248917 -0.0353208 -1
   vertex 0.0255244 -0.034297 -1
   vertex 0.0254416 -0.0356146 -1
  endloop
 endfacet
 facet normal 0 0 -1
  outer loop
   vertex 0.0254416 -0.0356146 -1
   vertex 0.0255244 -0.034297 -1
   vertex 0.0260873 -0.0346006 -1
  endloop
 endfacet
 facet normal 0 0 -1
  outer loop
   vertex 0.0254416 -0.0356146 -1
   vertex 0.0260873 -0.0346006 -1
   vertex 0.0259818 -0.0359259 -1
  endloop
 endfacet
 facet normal 0 0 -1
  outer loop
   vertex 0.0259818 -0.0359259 -1
   vertex 0.0260873 -0.0346006 -1
   vertex 0.0266404 -0.0349216 -1
  endloop
 endfacet
 facet normal 0 0 -1
  outer loop
   vertex 0.0259818 -0.0359259 -1
   vertex 0.0266404 -0.0349216 -1
   vertex 0.0265118 -0.0362544 -1
  endloop
 endfacet
 facet normal 0 0 -1
  outer loop
   vertex 0.0265118 -0.0362544 -1
   vertex 0.0266404 -0.0349216 -1
   vertex 0.0271833 -0.0352595 -1
  endloop
 endfacet
 facet normal 0 0 -1
  outer loop
   vertex 0.0265118 -0.0362544 -1
   vertex 0.0271833 -0.0352595 -1
   vertex 0.0270309 -0.0365998 -1
  endloop
 endfacet
 facet normal 0 0 -1
  outer loop
   vertex 0.0270309 -0.0365998 -1
   vertex 0.0271833 -0.0352595 -1
   vertex 0.0277155 -0.0356142 -1
  endloop
 endfacet
 facet normal 0 0 -1
  outer loop
   vertex 0.0270309 -0.0365998 -1
   vertex 0.0277155 -0.0356142 -1
   vertex 0.0275386 -0.0369616 -1
  endloop
 endfacet
 facet normal 0 0 -1
  outer loop
   vertex 0.0275386 -0.0369616 -1
   vertex 0.0277155 -0.0356142 -1
   vertex 0.0282364 -0.0359851 -1
  endloop
 endfacet
 facet normal 0 0 -1
  outer loop
   vertex 0.0275386 -0.0369616 -1
   vertex 0.0282364 -0.0359851 -1
   vertex 0.0280345 -0.0373396 -1
  endloop
 endfacet
 facet normal 0 0 -1
  outer loop
   vertex 0.0280345 -0.0373396 -1
   vertex 0.0282364 -0.0359851 -1
   vertex 0.0287455 -0.0363721 -1
  endloop
 endfacet
 facet normal 0 0 -1
  outer loop
   vertex 0.0280345 -0.0373396 -1
   vertex 0.0287455 -0.0363721 -1
   vertex 0.028518 -0.0377333 -1
  endloop
 endfacet
 facet normal 0 0 -1
  outer loop
   vertex 0.028518 -0.0377333 -1
   vertex 0.0287455 -0.0363721 -1
   vertex 0.0292424 -0.0367747 -1
  endloop
 endfacet
 facet normal 0 0 -1
  outer loop
   vertex 0.028518 -0.0377333 -1
   vertex 0.0292424 -0.0367747 -1
   vertex 0.0289885 -0.0381424 -1
  endloop
 endfacet
 facet normal 0 0 -1
  outer loop
   vertex 0.0289885 -0.0381424 -1
   vertex 0.0292424 -0.0367747 -1
   vertex 0.0297265 -0.0371925 -1
  endloop
 endfacet
 facet normal 0 0 -1
  outer loop
   vertex 0.0289885 -0.0381424 -1
   vertex 0.0297265 -0.0371925 -1
   vertex 0.0294457 -0.0385664 -1
  endloop
 endfacet
 facet normal 0 0 -1
  outer loop
   vertex 0.0294457 -0.0385664 -1
   vertex 0.0297265 -0.0371925 -1
   vertex 0.0301974 -0.0376252 -1
  endloop
 endfacet
 facet normal 0 0 -1
  outer loop
   vertex 0.0294457 -0.0385664 -1
   vertex 0.0301974 -0.0376252 -1
   vertex 0.029889 -0.0390048 -1
  endloop
 endfacet
 facet normal 0 0 -1
  outer loop
   vertex 0.029889 -0.0390048 -1
   vertex 0.0301974 -0.0376252 -1
   vertex 0.0306547 -0.0380722 -1
  endloop
 endfacet
 facet normal 0 0 -1
  outer loop
   vertex 0.029889 -0.0390048 -1
   vertex 0.0306547 -0.0380722 -1
   vertex 0.030318 -0.0394573 -1
  endloop
 endfacet
 facet normal 0 0 -1
  outer loop
   vertex 0.030318 -0.0394573 -1
   vertex 0.0306547 -0.0380722 -1
   vertex 0.0310979 -0.0385332 -1
  endloop
 endfacet
 facet normal 0 0 -1
  outer loop
   vertex 0.030318 -0.0394573 -1
   vertex 0.0310979 -0.0385332 -1
   vertex 0.0307323 -0.0399233 -1
  endloop
 endfacet
 facet normal 0 0 -1
  outer loop
   vertex 0.0307323 -0.0399233 -1
   vertex 0.0310979 -0.0385332 -1
   vertex 0.0315266 -0.0390078 -1
  endloop
 endfacet
 facet normal 0 0 -1
  outer loop
   vertex 0.0307323 -0.0399233 -1
   vertex 0.0315266 -0.0390078 -1
   vertex 0.0311313 -0.0404024 -1
  endloop
 endfacet
 facet normal 0 0 -1
  outer loop
   vertex 0.0311313 -0.0404024 -1
   vertex 0.0315266 -0.0390078 -1
   vertex 0.0319403 -0.0394954 -1
  endloop
 endfacet
 facet normal 0 0 -1
  outer loop
   vertex 0.0311313 -0.0404024 -1
   vertex 0.0319403 -0.0394954 -1
   vertex 0.0315148 -0.040894 -1
  endloop
 endfacet
 facet normal 0 0 -1
  outer loop
   vertex 0.0315148 -0.040894 -1
   vertex 0.0319403 -0.0394954 -1
   vertex 0.0323387 -0.0399957 -1
  endloop
 endfacet
 facet normal 0 0 -1
  outer loop
   vertex 0.0315148 -0.040894 -1
   vertex 0.0323387 -0.0399957 -1
   vertex 0.0318822 -0.0413977 -1
  endloop
 endfacet
 facet normal 0 0 -1
  outer loop
   vertex 0.0318822 -0.0413977 -1
   vertex 0.0323387 -0.0399957 -1
   vertex 0.0327214 -0.040508 -1
  endloop
 endfacet
 facet normal 0 0 -1
  outer loop
   vertex 0.0318822 -0.0413977 -1
   vertex 0.0327214 -0.040508 -1
   vertex 0.0322333 -0.041913 -1
  endloop
 endfacet
 facet normal 0 0 -1
  outer loop
   vertex 0.0322333 -0.041913 -1
   vertex 0.0327214 -0.040508 -1
   vertex 0.033088 -0.041032 -1
  endloop
 endfacet
 facet normal 0 0 -1
  outer loop
   vertex 0.0322333 -0.041913 -1
   vertex 0.033088 -0.041032 -1
   vertex 0.0325677 -0.0424393 -1
  endloop
 endfacet
 facet normal 0 0 -1
  outer loop
   vertex 0.0325677 -0.0424393 -1
   vertex 0.033088 -0.041032 -1
   vertex 0.0334382 -0.0415671 -1
  endloop
 endfacet
 facet normal 0 0 -1
  outer loop
   vertex 0.0325677 -0.0424393 -1
   vertex 0.0334382 -0.0415671 -1
   vertex 0.0328849 -0.042976 -1
  endloop
 endfacet
 facet normal 0 0 -1
  outer loop
   vertex 0.0328849 -0.042976 -1
   vertex 0.0334382 -0.0415671 -1
   vertex 0.0337716 -0.0421128 -1
  endloop
 endfacet
 facet normal 0 0 -1
  outer loop
   vertex 0.0328849 -0.042976 -1
   vertex 0.0337716 -0.0421128 -1
   vertex 0.0340878 -0.0426686 -1
  endloop
 endfacet
 facet normal -0 0 1
  outer loop
   vertex 0.0156656 -0.0319796 1
   vertex 0.0156726 -0.0323795 1
   vertex 0.0163051 -0.0319784 1
  endloop
 endfacet
 facet normal 0 0 1
  outer loop
   vertex 0.0163051 -0.0319784 1
   vertex 0.0156726 -0.0323795 1
   vertex 0.0165039 -0.0331824 1
  endloop
 endfacet
 facet normal 0 0 1
  outer loop
   vertex 0.0163051 -0.0319784 1
   vertex 0.0165039 -0.0331824 1
   vertex 0.0169443 -0.031997 1
  endloop
 endfacet
 facet normal 0 0 1
  outer loop
   vertex 0.0169443 -0.031997 1
   vertex 0.0165039 -0.0331824 1
   vertex 0.0171269 -0.0332078 1
  endloop
 endfacet
 facet normal 0 0 1
  outer loop
   vertex 0.0169443 -0.031997 1
   vertex 0.0171269 -0.0332078 1
   vertex 0.0175827 -0.0320354 1
  endloop
 endfacet
 facet normal 0 0 1
  outer loop
   vertex 0.0175827 -0.0320354 1
   vertex 0.0171269 -0.0332078 1
   vertex 0.0177488 -0.0332531 1
  endloop
 endfacet
 facet normal 0 0 1
  outer loop
   vertex 0.0175827 -0.0320354 1
   vertex 0.0177488 -0.0332531 1
   vertex 0.0182195 -0.0320937 1
  endloop
 endfacet
 facet normal 0 0 1
  outer loop
   vertex 0.0182195 -0.0320937 1
   vertex 0.0177488 -0.0332531 1
   vertex 0.0183689 -0.0333186 1
  endloop
 endfacet
 facet normal 0 0 1
  outer loop
   vertex 0.0182195 -0.0320937 1
   vertex 0.0183689 -0.0333186 1
   vertex 0.0188542 -0.0321716 1
  endloop
 endfacet
 facet normal 0 0 1
  outer loop
   vertex 0.0188542 -0.0321716 1
   vertex 0.0183689 -0.0333186 1
   vertex 0.0189865 -0.0334038 1
  endloop
 endfacet
 facet normal 0 0 1
  outer loop
   vertex 0.0188542 -0.0321716 1
   vertex 0.0189865 -0.0334038 1
   vertex 0.0194862 -0.0322692 1
  endloop
 endfacet
 facet normal 0 0 1
  outer loop
   vertex 0.0194862 -0.0322692 1
   vertex 0.0189865 -0.0334038 1
   vertex 0.0196011 -0.0335088 1
  endloop
 endfacet
 facet normal -0 0 1
  outer loop
   vertex 0.0351893 -0.0556148 1
   vertex 0.0355844 -0.0556774 1
   vertex 0.035277 -0.0549975 1
  endloop
 endfacet
 facet normal 0 0 1
  outer loop
   vertex 0.035277 -0.0549975 1
   vertex 0.0355844 -0.0556774 1
   vertex 0.0364826 -0.0550248 1
  endloop
 endfacet
 facet normal -0 0 1
  outer loop
   vertex 0.035277 -0.0549975 1
   vertex 0.0364826 -0.0550248 1
   vertex 0.0353447 -0.0543776 1
  endloop
 endfacet
 facet normal 0 0 1
  outer loop
   vertex 0.0353447 -0.0543776 1
   vertex 0.0364826 -0.0550248 1
   vertex 0.0365486 -0.0543887 1
  endloop
 endfacet
 facet normal -0 0 1
  outer loop
   vertex 0.0353447 -0.0543776 1
   vertex 0.0365486 -0.0543887 1
   vertex 0.0353925 -0.053756 1
  endloop
 endfacet
 facet normal -0 0 1
  outer loop
   vertex 0.0353925 -0.053756 1
   vertex 0.0365486 -0.0543887 1
   vertex 0.0365949 -0.0537509 1
  endloop
 endfacet
 facet normal 0 0 1
  outer loop
   vertex 0.0353925 -0.053756 1
   vertex 0.0365949 -0.0537509 1
   vertex 0.0354203 -0.0531331 1
  endloop
 endfacet
 facet normal -0 0 1
  outer loop
   vertex 0.0354203 -0.0531331 1
   vertex 0.0365949 -0.0537509 1
   vertex 0.0366213 -0.0531119 1
  endloop
 endfacet
 facet normal 0 0 1
  outer loop
   vertex 0.0354203 -0.0531331 1
   vertex 0.0366213 -0.0531119 1
   vertex 0.035428 -0.0525096 1
  endloop
 endfacet
 facet normal -0 0 1
  outer loop
   vertex 0.035428 -0.0525096 1
   vertex 0.0366213 -0.0531119 1
   vertex 0.036628 -0.0524725 1
  endloop
 endfacet
 facet normal 0 -0 1
  outer loop
   vertex 0.035428 -0.0525096 1
   vertex 0.036628 -0.0524725 1
   vertex 0.0354158 -0.0518862 1
  endloop
 endfacet
 facet normal -0 0 1
  outer loop
   vertex 0.0354158 -0.0518862 1
   vertex 0.036628 -0.0524725 1
   vertex 0.0366147 -0.0518331 1
  endloop
 endfacet
 facet normal 0 -0 1
  outer loop
   vertex 0.0354158 -0.0518862 1
   vertex 0.0366147 -0.0518331 1
   vertex 0.0353835 -0.0512636 1
  endloop
 endfacet
 facet normal -0 0 1
  outer loop
   vertex 0.0353835 -0.0512636 1
   vertex 0.0366147 -0.0518331 1
   vertex 0.0365816 -0.0511944 1
  endloop
 endfacet
 facet normal 0 -0 1
  outer loop
   vertex 0.0353835 -0.0512636 1
   vertex 0.0365816 -0.0511944 1
   vertex 0.0353313 -0.0506423 1
  endloop
 endfacet
 facet normal -0 0 1
  outer loop
   vertex 0.0353313 -0.0506423 1
   vertex 0.0365816 -0.0511944 1
   vertex 0.0365287 -0.0505572 1
  endloop
 endfacet
 facet normal 0 -0 1
  outer loop
   vertex 0.0353313 -0.0506423 1
   vertex 0.0365287 -0.0505572 1
   vertex 0.035259 -0.0500229 1
  endloop
 endfacet
 facet normal -0 0 1
  outer loop
   vertex 0.035259 -0.0500229 1
   vertex 0.0365287 -0.0505572 1
   vertex 0.0364561 -0.0499218 1
  endloop
 endfacet
 facet normal 0 -0 1
  outer loop
   vertex 0.035259 -0.0500229 1
   vertex 0.0364561 -0.0499218 1
   vertex 0.035167 -0.0494063 1
  endloop
 endfacet
 facet normal -0 0 1
  outer loop
   vertex 0.035167 -0.0494063 1
   vertex 0.0364561 -0.0499218 1
   vertex 0.0363637 -0.049289 1
  endloop
 endfacet
 facet normal 0 -0 1
  outer loop
   vertex 0.035167 -0.0494063 1
   vertex 0.0363637 -0.049289 1
   vertex 0.0350551 -0.0487929 1
  endloop
 endfacet
 facet normal -0 0 1
  outer loop
   vertex 0.0350551 -0.0487929 1
   vertex 0.0363637 -0.049289 1
   vertex 0.0362518 -0.0486593 1
  endloop
 endfacet
 facet normal 0 -0 1
  outer loop
   vertex 0.0350551 -0.0487929 1
   vertex 0.0362518 -0.0486593 1
   vertex 0.0349236 -0.0481834 1
  endloop
 endfacet
 facet normal -0 0 1
  outer loop
   vertex 0.0349236 -0.0481834 1
   vertex 0.0362518 -0.0486593 1
   vertex 0.0361204 -0.0480335 1
  endloop
 endfacet
 facet normal 0 -0 1
  outer loop
   vertex 0.0349236 -0.0481834 1
   vertex 0.0361204 -0.0480335 1
   vertex 0.0347726 -0.0475785 1
  endloop
 endfacet
 facet normal -0 0 1
  outer loop
   vertex 0.0347726 -0.0475785 1
   vertex 0.0361204 -0.0480335 1
   vertex 0.0359697 -0.047412 1
  endloop
 endfacet
 facet normal 0 -0 1
  outer loop
   vertex 0.0347726 -0.0475785 1
   vertex 0.0359697 -0.047412 1
   vertex 0.0346023 -0.0469787 1
  endloop
 endfacet
 facet normal -0 0 1
  outer loop
   vertex 0.0346023 -0.0469787 1
   vertex 0.0359697 -0.047412 1
   vertex 0.0357997 -0.0467956 1
  endloop
 endfacet
 facet normal 0 -0 1
  outer loop
   vertex 0.0346023 -0.0469787 1
   vertex 0.0357997 -0.0467956 1
   vertex 0.0344127 -0.0463847 1
  endloop
 endfacet
 facet normal -0 0 1
  outer loop
   vertex 0.0344127 -0.0463847 1
   vertex 0.0357997 -0.0467956 1
   vertex 0.0356107 -0.0461846 1
  endloop
 endfacet
 facet normal 0 -0 1
  outer loop
   vertex 0.0344127 -0.0463847 1
   vertex 0.0356107 -0.0461846 1
   vertex 0.0342042 -0.0457971 1
  endloop
 endfacet
 facet normal -0 0 1
  outer loop
   vertex 0.0342042 -0.0457971 1
   vertex 0.0356107 -0.0461846 1
   vertex 0.0354028 -0.0455799 1
  endloop
 endfacet
 facet normal 0 -0 1
  outer loop
   vertex 0.0342042 -0.0457971 1
   vertex 0.0354028 -0.0455799 1
   vertex 0.0339769 -0.0452165 1
  endloop
 endfacet
 facet normal -0 0 1
  outer loop
   vertex 0.0339769 -0.0452165 1
   vertex 0.0354028 -0.0455799 1
   vertex 0.0351762 -0.0449818 1
  endloop
 endfacet
 facet normal 0 -0 1
  outer loop
   vertex 0.0339769 -0.0452165 1
   vertex 0.0351762 -0.0449818 1
   vertex 0.0337311 -0.0446435 1
  endloop
 endfacet
 facet normal -0 0 1
  outer loop
   vertex 0.0337311 -0.0446435 1
   vertex 0.0351762 -0.0449818 1
   vertex 0.0349312 -0.0443912 1
  endloop
 endfacet
 facet normal 0 -0 1
  outer loop
   vertex 0.0337311 -0.0446435 1
   vertex 0.0349312 -0.0443912 1
   vertex 0.0334669 -0.0440787 1
  endloop
 endfacet
 facet normal -0 0 1
  outer loop
   vertex 0.0334669 -0.0440787 1
   vertex 0.0349312 -0.0443912 1
   vertex 0.0346679 -0.0438083 1
  endloop
 endfacet
 facet normal 0 -0 1
  outer loop
   vertex 0.0334669 -0.0440787 1
   vertex 0.0346679 -0.0438083 1
   vertex 0.0331848 -0.0435227 1
  endloop
 endfacet
 facet normal 0 0 1
  outer loop
   vertex 0.0346679 -0.0438083 1
   vertex 0.0343867 -0.043234 1
   vertex 0.0331848 -0.0435227 1
  endloop
 endfacet
 facet normal 0 0 1
  outer loop
   vertex 0.0331848 -0.0435227 1
   vertex 0.0343867 -0.043234 1
   vertex 0.0340878 -0.0426686 1
  endloop
 endfacet
 facet normal 0 -0 1
  outer loop
   vertex 0.0331848 -0.0435227 1
   vertex 0.0340878 -0.0426686 1
   vertex 0.0328849 -0.042976 1
  endloop
 endfacet
 facet normal 0 0 1
  outer loop
   vertex 0.0328849 -0.042976 1
   vertex 0.0340878 -0.0426686 1
   vertex 0.0337716 -0.0421128 1
  endloop
 endfacet
 facet normal 0 -0 1
  outer loop
   vertex 0.0328849 -0.042976 1
   vertex 0.0337716 -0.0421128 1
   vertex 0.0325677 -0.0424393 1
  endloop
 endfacet
 facet normal 0 0 1
  outer loop
   vertex 0.0325677 -0.0424393 1
   vertex 0.0337716 -0.0421128 1
   vertex 0.0334382 -0.0415671 1
  endloop
 endfacet
 facet normal 0 -0 1
  outer loop
   vertex 0.0325677 -0.0424393 1
   vertex 0.0334382 -0.0415671 1
   vertex 0.0322333 -0.041913 1
  endloop
 endfacet
 facet normal 0 0 1
  outer loop
   vertex 0.0322333 -0.041913 1
   vertex 0.0334382 -0.0415671 1
   vertex 0.033088 -0.041032 1
  endloop
 endfacet
 facet normal 0 -0 1
  outer loop
   vertex 0.0322333 -0.041913 1
   vertex 0.033088 -0.041032 1
   vertex 0.0318822 -0.0413977 1
  endloop
 endfacet
 facet normal 0 0 1
  outer loop
   vertex 0.0318822 -0.0413977 1
   vertex 0.033088 -0.041032 1
   vertex 0.0327214 -0.040508 1
  endloop
 endfacet
 facet normal 0 -0 1
  outer loop
   vertex 0.0318822 -0.0413977 1
   vertex 0.0327214 -0.040508 1
   vertex 0.0315148 -0.040894 1
  endloop
 endfacet
 facet normal 0 0 1
  outer loop
   vertex 0.0315148 -0.040894 1
   vertex 0.0327214 -0.040508 1
   vertex 0.0323387 -0.0399957 1
  endloop
 endfacet
 facet normal 0 -0 1
  outer loop
   vertex 0.0315148 -0.040894 1
   vertex 0.0323387 -0.0399957 1
   vertex 0.0311313 -0.0404024 1
  endloop
 endfacet
 facet normal 0 0 1
  outer loop
   vertex 0.0311313 -0.0404024 1
   vertex 0.0323387 -0.0399957 1
   vertex 0.0319403 -0.0394954 1
  endloop
 endfacet
 facet normal 0 -0 1
  outer loop
   vertex 0.0311313 -0.0404024 1
   vertex 0.0319403 -0.0394954 1
   vertex 0.0307323 -0.0399233 1
  endloop
 endfacet
 facet normal 0 0 1
  outer loop
   vertex 0.0307323 -0.0399233 1
   vertex 0.0319403 -0.0394954 1
   vertex 0.0315266 -0.0390078 1
  endloop
 endfacet
 facet normal 0 -0 1
  outer loop
   vertex 0.0307323 -0.0399233 1
   vertex 0.0315266 -0.0390078 1
   vertex 0.030318 -0.0394573 1
  endloop
 endfacet
 facet normal 0 0 1
  outer loop
   vertex 0.030318 -0.0394573 1
   vertex 0.0315266 -0.0390078 1
   vertex 0.0310979 -0.0385332 1
  endloop
 endfacet
 facet normal 0 -0 1
  outer loop
   vertex 0.030318 -0.0394573 1
   vertex 0.0310979 -0.0385332 1
   vertex 0.029889 -0.0390048 1
  endloop
 endfacet
 facet normal 0 0 1
  outer loop
   vertex 0.029889 -0.0390048 1
   vertex 0.0310979 -0.0385332 1
   vertex 0.0306547 -0.0380722 1
  endloop
 endfacet
 facet normal 0 -0 1
  outer loop
   vertex 0.029889 -0.0390048 1
   vertex 0.0306547 -0.0380722 1
   vertex 0.0294457 -0.0385664 1
  endloop
 endfacet
 facet normal 0 0 1
  outer loop
   vertex 0.0294457 -0.0385664 1
   vertex 0.0306547 -0.0380722 1
   vertex 0.0301974 -0.0376252 1
  endloop
 endfacet
 facet normal 0 -0 1
  outer loop
   vertex 0.0294457 -0.0385664 1
   vertex 0.0301974 -0.0376252 1
   vertex 0.0289885 -0.0381424 1
  endloop
 endfacet
 facet normal 0 0 1
  outer loop
   vertex 0.0289885 -0.0381424 1
   vertex 0.0301974 -0.0376252 1
   vertex 0.0297265 -0.0371925 1
  endloop
 endfacet
 facet normal 0 -0 1
  outer loop
   vertex 0.0289885 -0.0381424 1
   vertex 0.0297265 -0.0371925 1
   vertex 0.028518 -0.0377333 1
  endloop
 endfacet
 facet normal 0 0 1
  outer loop
   vertex 0.028518 -0.0377333 1
   vertex 0.0297265 -0.0371925 1
   vertex 0.0292424 -0.0367747 1
  endloop
 endfacet
 facet normal 0 -0 1
  outer loop
   vertex 0.028518 -0.0377333 1
   vertex 0.0292424 -0.0367747 1
   vertex 0.0280345 -0.0373396 1
  endloop
 endfacet
 facet normal 0 0 1
  outer loop
   vertex 0.0280345 -0.0373396 1
   vertex 0.0292424 -0.0367747 1
   vertex 0.0287455 -0.0363721 1
  endloop
 endfacet
 facet normal 0 -0 1
  outer loop
   vertex 0.0280345 -0.0373396 1
   vertex 0.0287455 -0.0363721 1
   vertex 0.0275386 -0.0369616 1
  endloop
 endfacet
 facet normal 0 0 1
  outer loop
   vertex 0.0275386 -0.0369616 1
   vertex 0.0287455 -0.0363721 1
   vertex 0.0282364 -0.0359851 1
  endloop
 endfacet
 facet normal 0 -0 1
  outer loop
   vertex 0.0275386 -0.0369616 1
   vertex 0.0282364 -0.0359851 1
   vertex 0.0270309 -0.0365998 1
  endloop
 endfacet
 facet normal 0 0 1
  outer loop
   vertex 0.0270309 -0.0365998 1
   vertex 0.0282364 -0.0359851 1
   vertex 0.0277155 -0.0356142 1
  endloop
 endfacet
 facet normal 0 -0 1
  outer loop
   vertex 0.0270309 -0.0365998 1
   vertex 0.0277155 -0.0356142 1
   vertex 0.0265118 -0.0362544 1
  endloop
 endfacet
 facet normal 0 0 1
  outer loop
   vertex 0.0265118 -0.0362544 1
   vertex 0.0277155 -0.0356142 1
   vertex 0.0271833 -0.0352595 1
  endloop
 endfacet
 facet normal 0 -0 1
  outer loop
   vertex 0.0265118 -0.0362544 1
   vertex 0.0271833 -0.0352595 1
   vertex 0.0259818 -0.0359259 1
  endloop
 endfacet
 facet normal 0 0 1
  outer loop
   vertex 0.0259818 -0.0359259 1
   vertex 0.0271833 -0.0352595 1
   vertex 0.0266404 -0.0349216 1
  endloop
 endfacet
 facet normal 0 -0 1
  outer loop
   vertex 0.0259818 -0.0359259 1
   vertex 0.0266404 -0.0349216 1
   vertex 0.0254416 -0.0356146 1
  endloop
 endfacet
 facet normal 0 0 1
  outer loop
   vertex 0.0254416 -0.0356146 1
   vertex 0.0266404 -0.0349216 1
   vertex 0.0260873 -0.0346006 1
  endloop
 endfacet
 facet normal 0 -0 1
  outer loop
   vertex 0.0254416 -0.0356146 1
   vertex 0.0260873 -0.0346006 1
   vertex 0.0248917 -0.0353208 1
  endloop
 endfacet
 facet normal 0 0 1
  outer loop
   vertex 0.0248917 -0.0353208 1
   vertex 0.0260873 -0.0346006 1
   vertex 0.0255244 -0.034297 1
  endloop
 endfacet
 facet normal 0 -0 1
  outer loop
   vertex 0.0248917 -0.0353208 1
   vertex 0.0255244 -0.034297 1
   vertex 0.0243326 -0.0350448 1
  endloop
 endfacet
 facet normal 0 0 1
  outer loop
   vertex 0.0243326 -0.0350448 1
   vertex 0.0255244 -0.034297 1
   vertex 0.0249525 -0.034011 1
  endloop
 endfacet
 facet normal 0 -0 1
  outer loop
   vertex 0.0243326 -0.0350448 1
   vertex 0.0249525 -0.034011 1
   vertex 0.0237649 -0.0347869 1
  endloop
 endfacet
 facet normal 0 0 1
  outer loop
   vertex 0.0237649 -0.0347869 1
   vertex 0.0249525 -0.034011 1
   vertex 0.0243719 -0.0337429 1
  endloop
 endfacet
 facet normal 0 -0 1
  outer loop
   vertex 0.0237649 -0.0347869 1
   vertex 0.0243719 -0.0337429 1
   vertex 0.0231892 -0.0345475 1
  endloop
 endfacet
 facet normal 0 0 1
  outer loop
   vertex 0.0231892 -0.0345475 1
   vertex 0.0243719 -0.0337429 1
   vertex 0.0237833 -0.0334929 1
  endloop
 endfacet
 facet normal 0 -0 1
  outer loop
   vertex 0.0231892 -0.0345475 1
   vertex 0.0237833 -0.0334929 1
   vertex 0.0226061 -0.0343266 1
  endloop
 endfacet
 facet normal 0 0 1
  outer loop
   vertex 0.0226061 -0.0343266 1
   vertex 0.0237833 -0.0334929 1
   vertex 0.0231872 -0.0332613 1
  endloop
 endfacet
 facet normal 0 -0 1
  outer loop
   vertex 0.0226061 -0.0343266 1
   vertex 0.0231872 -0.0332613 1
   vertex 0.0220163 -0.0341246 1
  endloop
 endfacet
 facet normal 0 0 1
  outer loop
   vertex 0.0220163 -0.0341246 1
   vertex 0.0231872 -0.0332613 1
   vertex 0.0225842 -0.0330484 1
  endloop
 endfacet
 facet normal 0 -0 1
  outer loop
   vertex 0.0220163 -0.0341246 1
   vertex 0.0225842 -0.0330484 1
   vertex 0.0214202 -0.0339416 1
  endloop
 endfacet
 facet normal 0 0 1
  outer loop
   vertex 0.0214202 -0.0339416 1
   vertex 0.0225842 -0.0330484 1
   vertex 0.0219749 -0.0328542 1
  endloop
 endfacet
 facet normal 0 -0 1
  outer loop
   vertex 0.0214202 -0.0339416 1
   vertex 0.0219749 -0.0328542 1
   vertex 0.0208186 -0.0337779 1
  endloop
 endfacet
 facet normal 0 0 1
  outer loop
   vertex 0.0208186 -0.0337779 1
   vertex 0.0219749 -0.0328542 1
   vertex 0.0213598 -0.0326791 1
  endloop
 endfacet
 facet normal 0 -0 1
  outer loop
   vertex 0.0208186 -0.0337779 1
   vertex 0.0213598 -0.0326791 1
   vertex 0.020212 -0.0336335 1
  endloop
 endfacet
 facet normal 0 0 1
  outer loop
   vertex 0.020212 -0.0336335 1
   vertex 0.0213598 -0.0326791 1
   vertex 0.0207396 -0.0325231 1
  endloop
 endfacet
 facet normal 0 -0 1
  outer loop
   vertex 0.020212 -0.0336335 1
   vertex 0.0207396 -0.0325231 1
   vertex 0.0196011 -0.0335088 1
  endloop
 endfacet
 facet normal 0 0 1
  outer loop
   vertex 0.0196011 -0.0335088 1
   vertex 0.0207396 -0.0325231 1
   vertex 0.0201149 -0.0323864 1
  endloop
 endfacet
 facet normal 0 -0 1
  outer loop
   vertex 0.0196011 -0.0335088 1
   vertex 0.0201149 -0.0323864 1
   vertex 0.0194862 -0.0322692 1
  endloop
 endfacet
 facet normal 0.587798 -0.809008 0
  outer loop
   vertex 0.0364826 -0.0550248 1
   vertex 0.0355844 -0.0556774 1
   vertex 0.0364826 -0.0550248 -1
  endloop
 endfacet
 facet normal 0.587798 -0.809008 0
  outer loop
   vertex 0.0364826 -0.0550248 -1
   vertex 0.0355844 -0.0556774 1
   vertex 0.0355844 -0.0556774 -1
  endloop
 endfacet
 facet normal -0.694714 -0.719287 -0
  outer loop
   vertex 0.0165039 -0.0331824 1
   vertex 0.0156726 -0.0323795 1
   vertex 0.0165039 -0.0331824 -1
  endloop
 endfacet
 facet normal -0.694714 -0.719287 0
  outer loop
   vertex 0.0165039 -0.0331824 -1
   vertex 0.0156726 -0.0323795 1
   vertex 0.0156726 -0.0323795 -1
  endloop
 endfacet
endsolid tunner_vane
