solid tunner_vane
 facet normal -0.00187575 0.999998 0
  outer loop
   vertex 0.0822656 0.0346204 -1
   vertex 0.0822656 0.0346204 1
   vertex 0.0829051 0.0346216 1
  endloop
 endfacet
 facet normal -0.00187575 0.999998 0
  outer loop
   vertex 0.0822656 0.0346204 -1
   vertex 0.0829051 0.0346216 1
   vertex 0.0829051 0.0346216 -1
  endloop
 endfacet
 facet normal 0.0290857 0.999577 -0
  outer loop
   vertex 0.0829051 0.0346216 -1
   vertex 0.0829051 0.0346216 1
   vertex 0.0835443 0.034603 1
  endloop
 endfacet
 facet normal 0.0290857 0.999577 0
  outer loop
   vertex 0.0829051 0.0346216 -1
   vertex 0.0835443 0.034603 1
   vertex 0.0835443 0.034603 -1
  endloop
 endfacet
 facet normal 0.060042 0.998196 -0
  outer loop
   vertex 0.0835443 0.034603 -1
   vertex 0.0835443 0.034603 1
   vertex 0.0841827 0.0345646 1
  endloop
 endfacet
 facet normal 0.060042 0.998196 0
  outer loop
   vertex 0.0835443 0.034603 -1
   vertex 0.0841827 0.0345646 1
   vertex 0.0841827 0.0345646 -1
  endloop
 endfacet
 facet normal 0.0911699 0.995835 -0
  outer loop
   vertex 0.0841827 0.0345646 -1
   vertex 0.0841827 0.0345646 1
   vertex 0.0848195 0.0345063 1
  endloop
 endfacet
 facet normal 0.0911699 0.995835 0
  outer loop
   vertex 0.0841827 0.0345646 -1
   vertex 0.0848195 0.0345063 1
   vertex 0.0848195 0.0345063 -1
  endloop
 endfacet
 facet normal 0.12182 0.992552 -0
  outer loop
   vertex 0.0848195 0.0345063 -1
   vertex 0.0848195 0.0345063 1
   vertex 0.0854542 0.0344284 1
  endloop
 endfacet
 facet normal 0.12182 0.992552 0
  outer loop
   vertex 0.0848195 0.0345063 -1
   vertex 0.0854542 0.0344284 1
   vertex 0.0854542 0.0344284 -1
  endloop
 endfacet
 facet normal 0.152623 0.988284 -0
  outer loop
   vertex 0.0854542 0.0344284 -1
   vertex 0.0854542 0.0344284 1
   vertex 0.0860862 0.0343308 1
  endloop
 endfacet
 facet normal 0.152623 0.988284 0
  outer loop
   vertex 0.0854542 0.0344284 -1
   vertex 0.0860862 0.0343308 1
   vertex 0.0860862 0.0343308 -1
  endloop
 endfacet
 facet normal 0.183258 0.983065 -0
  outer loop
   vertex 0.0860862 0.0343308 -1
   vertex 0.0860862 0.0343308 1
   vertex 0.0867149 0.0342136 1
  endloop
 endfacet
 facet normal 0.183258 0.983065 0
  outer loop
   vertex 0.0860862 0.0343308 -1
   vertex 0.0867149 0.0342136 1
   vertex 0.0867149 0.0342136 -1
  endloop
 endfacet
 facet normal 0.213767 0.976885 -0
  outer loop
   vertex 0.0867149 0.0342136 -1
   vertex 0.0867149 0.0342136 1
   vertex 0.0873396 0.0340769 1
  endloop
 endfacet
 facet normal 0.213767 0.976885 0
  outer loop
   vertex 0.0867149 0.0342136 -1
   vertex 0.0873396 0.0340769 1
   vertex 0.0873396 0.0340769 -1
  endloop
 endfacet
 facet normal 0.243932 0.969792 -0
  outer loop
   vertex 0.0873396 0.0340769 -1
   vertex 0.0873396 0.0340769 1
   vertex 0.0879598 0.0339209 1
  endloop
 endfacet
 facet normal 0.243932 0.969792 0
  outer loop
   vertex 0.0873396 0.0340769 -1
   vertex 0.0879598 0.0339209 1
   vertex 0.0879598 0.0339209 -1
  endloop
 endfacet
 facet normal 0.273794 0.961788 -0
  outer loop
   vertex 0.0879598 0.0339209 -1
   vertex 0.0879598 0.0339209 1
   vertex 0.0885749 0.0337458 1
  endloop
 endfacet
 facet normal 0.273794 0.961788 0
  outer loop
   vertex 0.0879598 0.0339209 -1
   vertex 0.0885749 0.0337458 1
   vertex 0.0885749 0.0337458 -1
  endloop
 endfacet
 facet normal 0.303673 0.952776 -0
  outer loop
   vertex 0.0885749 0.0337458 -1
   vertex 0.0885749 0.0337458 1
   vertex 0.0891842 0.0335516 1
  endloop
 endfacet
 facet normal 0.303673 0.952776 0
  outer loop
   vertex 0.0885749 0.0337458 -1
   vertex 0.0891842 0.0335516 1
   vertex 0.0891842 0.0335516 -1
  endloop
 endfacet
 facet normal 0.332928 0.942952 -0
  outer loop
   vertex 0.0891842 0.0335516 -1
   vertex 0.0891842 0.0335516 1
   vertex 0.0897872 0.0333387 1
  endloop
 endfacet
 facet normal 0.332928 0.942952 0
  outer loop
   vertex 0.0891842 0.0335516 -1
   vertex 0.0897872 0.0333387 1
   vertex 0.0897872 0.0333387 -1
  endloop
 endfacet
 facet normal 0.36218 0.932108 -0
  outer loop
   vertex 0.0897872 0.0333387 -1
   vertex 0.0897872 0.0333387 1
   vertex 0.0903833 0.0331071 1
  endloop
 endfacet
 facet normal 0.36218 0.932108 0
  outer loop
   vertex 0.0897872 0.0333387 -1
   vertex 0.0903833 0.0331071 1
   vertex 0.0903833 0.0331071 -1
  endloop
 endfacet
 facet normal 0.390907 0.92043 -0
  outer loop
   vertex 0.0903833 0.0331071 -1
   vertex 0.0903833 0.0331071 1
   vertex 0.0909719 0.0328571 1
  endloop
 endfacet
 facet normal 0.390907 0.92043 0
  outer loop
   vertex 0.0903833 0.0331071 -1
   vertex 0.0909719 0.0328571 1
   vertex 0.0909719 0.0328571 -1
  endloop
 endfacet
 facet normal 0.419239 0.907876 -0
  outer loop
   vertex 0.0909719 0.0328571 -1
   vertex 0.0909719 0.0328571 1
   vertex 0.0915525 0.032589 1
  endloop
 endfacet
 facet normal 0.419239 0.907876 0
  outer loop
   vertex 0.0909719 0.0328571 -1
   vertex 0.0915525 0.032589 1
   vertex 0.0915525 0.032589 -1
  endloop
 endfacet
 facet normal 0.447289 0.894389 -0
  outer loop
   vertex 0.0915525 0.032589 -1
   vertex 0.0915525 0.032589 1
   vertex 0.0921244 0.032303 1
  endloop
 endfacet
 facet normal 0.447289 0.894389 0
  outer loop
   vertex 0.0915525 0.032589 -1
   vertex 0.0921244 0.032303 1
   vertex 0.0921244 0.032303 -1
  endloop
 endfacet
 facet normal 0.47473 0.880131 -0
  outer loop
   vertex 0.0921244 0.032303 -1
   vertex 0.0921244 0.032303 1
   vertex 0.0926873 0.0319994 1
  endloop
 endfacet
 facet normal 0.47473 0.880131 0
  outer loop
   vertex 0.0921244 0.032303 -1
   vertex 0.0926873 0.0319994 1
   vertex 0.0926873 0.0319994 -1
  endloop
 endfacet
 facet normal 0.501884 0.864935 -0
  outer loop
   vertex 0.0926873 0.0319994 -1
   vertex 0.0926873 0.0319994 1
   vertex 0.0932404 0.0316784 1
  endloop
 endfacet
 facet normal 0.501884 0.864935 0
  outer loop
   vertex 0.0926873 0.0319994 -1
   vertex 0.0932404 0.0316784 1
   vertex 0.0932404 0.0316784 -1
  endloop
 endfacet
 facet normal 0.52847 0.848952 -0
  outer loop
   vertex 0.0932404 0.0316784 -1
   vertex 0.0932404 0.0316784 1
   vertex 0.0937833 0.0313405 1
  endloop
 endfacet
 facet normal 0.52847 0.848952 0
  outer loop
   vertex 0.0932404 0.0316784 -1
   vertex 0.0937833 0.0313405 1
   vertex 0.0937833 0.0313405 -1
  endloop
 endfacet
 facet normal 0.554525 0.832167 -0
  outer loop
   vertex 0.0937833 0.0313405 -1
   vertex 0.0937833 0.0313405 1
   vertex 0.0943155 0.0309858 1
  endloop
 endfacet
 facet normal 0.554525 0.832167 0
  outer loop
   vertex 0.0937833 0.0313405 -1
   vertex 0.0943155 0.0309858 1
   vertex 0.0943155 0.0309858 -1
  endloop
 endfacet
 facet normal 0.580107 0.81454 -0
  outer loop
   vertex 0.0943155 0.0309858 -1
   vertex 0.0943155 0.0309858 1
   vertex 0.0948364 0.0306149 1
  endloop
 endfacet
 facet normal 0.580107 0.81454 0
  outer loop
   vertex 0.0943155 0.0309858 -1
   vertex 0.0948364 0.0306149 1
   vertex 0.0948364 0.0306149 -1
  endloop
 endfacet
 facet normal 0.605138 0.79612 -0
  outer loop
   vertex 0.0948364 0.0306149 -1
   vertex 0.0948364 0.0306149 1
   vertex 0.0953455 0.0302279 1
  endloop
 endfacet
 facet normal 0.605138 0.79612 0
  outer loop
   vertex 0.0948364 0.0306149 -1
   vertex 0.0953455 0.0302279 1
   vertex 0.0953455 0.0302279 -1
  endloop
 endfacet
 facet normal 0.629516 0.776988 -0
  outer loop
   vertex 0.0953455 0.0302279 -1
   vertex 0.0953455 0.0302279 1
   vertex 0.0958424 0.0298253 1
  endloop
 endfacet
 facet normal 0.629516 0.776988 0
  outer loop
   vertex 0.0953455 0.0302279 -1
   vertex 0.0958424 0.0298253 1
   vertex 0.0958424 0.0298253 -1
  endloop
 endfacet
 facet normal 0.65338 0.75703 -0
  outer loop
   vertex 0.0958424 0.0298253 -1
   vertex 0.0958424 0.0298253 1
   vertex 0.0963265 0.0294075 1
  endloop
 endfacet
 facet normal 0.65338 0.75703 0
  outer loop
   vertex 0.0958424 0.0298253 -1
   vertex 0.0963265 0.0294075 1
   vertex 0.0963265 0.0294075 -1
  endloop
 endfacet
 facet normal 0.676551 0.736396 -0
  outer loop
   vertex 0.0963265 0.0294075 -1
   vertex 0.0963265 0.0294075 1
   vertex 0.0967974 0.0289748 1
  endloop
 endfacet
 facet normal 0.676551 0.736396 0
  outer loop
   vertex 0.0963265 0.0294075 -1
   vertex 0.0967974 0.0289748 1
   vertex 0.0967974 0.0289748 -1
  endloop
 endfacet
 facet normal 0.699046 0.715077 -0
  outer loop
   vertex 0.0967974 0.0289748 -1
   vertex 0.0967974 0.0289748 1
   vertex 0.0972547 0.0285278 1
  endloop
 endfacet
 facet normal 0.699046 0.715077 0
  outer loop
   vertex 0.0967974 0.0289748 -1
   vertex 0.0972547 0.0285278 1
   vertex 0.0972547 0.0285278 -1
  endloop
 endfacet
 facet normal 0.720904 0.693035 -0
  outer loop
   vertex 0.0972547 0.0285278 -1
   vertex 0.0972547 0.0285278 1
   vertex 0.0976979 0.0280668 1
  endloop
 endfacet
 facet normal 0.720904 0.693035 0
  outer loop
   vertex 0.0972547 0.0285278 -1
   vertex 0.0976979 0.0280668 1
   vertex 0.0976979 0.0280668 -1
  endloop
 endfacet
 facet normal 0.742046 0.670349 -0
  outer loop
   vertex 0.0976979 0.0280668 -1
   vertex 0.0976979 0.0280668 1
   vertex 0.0981266 0.0275922 1
  endloop
 endfacet
 facet normal 0.742046 0.670349 0
  outer loop
   vertex 0.0976979 0.0280668 -1
   vertex 0.0981266 0.0275922 1
   vertex 0.0981266 0.0275922 -1
  endloop
 endfacet
 facet normal 0.762544 0.646936 -0
  outer loop
   vertex 0.0981266 0.0275922 -1
   vertex 0.0981266 0.0275922 1
   vertex 0.0985403 0.0271046 1
  endloop
 endfacet
 facet normal 0.762544 0.646936 0
  outer loop
   vertex 0.0981266 0.0275922 -1
   vertex 0.0985403 0.0271046 1
   vertex 0.0985403 0.0271046 -1
  endloop
 endfacet
 facet normal 0.78223 0.622989 -0
  outer loop
   vertex 0.0985403 0.0271046 -1
   vertex 0.0985403 0.0271046 1
   vertex 0.0989387 0.0266043 1
  endloop
 endfacet
 facet normal 0.78223 0.622989 0
  outer loop
   vertex 0.0985403 0.0271046 -1
   vertex 0.0989387 0.0266043 1
   vertex 0.0989387 0.0266043 -1
  endloop
 endfacet
 facet normal 0.801172 0.598434 -0
  outer loop
   vertex 0.0989387 0.0266043 -1
   vertex 0.0989387 0.0266043 1
   vertex 0.0993214 0.026092 1
  endloop
 endfacet
 facet normal 0.801172 0.598434 0
  outer loop
   vertex 0.0989387 0.0266043 -1
   vertex 0.0993214 0.026092 1
   vertex 0.0993214 0.026092 -1
  endloop
 endfacet
 facet normal 0.819375 0.573258 -0
  outer loop
   vertex 0.0993214 0.026092 -1
   vertex 0.0993214 0.026092 1
   vertex 0.099688 0.025568 1
  endloop
 endfacet
 facet normal 0.819375 0.573258 0
  outer loop
   vertex 0.0993214 0.026092 -1
   vertex 0.099688 0.025568 1
   vertex 0.099688 0.025568 -1
  endloop
 endfacet
 facet normal 0.836884 0.54738 -0
  outer loop
   vertex 0.099688 0.025568 -1
   vertex 0.099688 0.025568 1
   vertex 0.100038 0.0250329 1
  endloop
 endfacet
 facet normal 0.836884 0.54738 0
  outer loop
   vertex 0.099688 0.025568 -1
   vertex 0.100038 0.0250329 1
   vertex 0.100038 0.0250329 -1
  endloop
 endfacet
 facet normal 0.852929 0.522026 -0
  outer loop
   vertex 0.100038 0.0250329 -1
   vertex 0.100038 0.0250329 1
   vertex 0.100372 0.0244872 1
  endloop
 endfacet
 facet normal 0.852929 0.522026 0
  outer loop
   vertex 0.100038 0.0250329 -1
   vertex 0.100372 0.0244872 1
   vertex 0.100372 0.0244872 -1
  endloop
 endfacet
 facet normal 0.869322 0.494246 -0
  outer loop
   vertex 0.100372 0.0244872 -1
   vertex 0.100372 0.0244872 1
   vertex 0.100688 0.0239314 1
  endloop
 endfacet
 facet normal 0.869322 0.494246 0
  outer loop
   vertex 0.100372 0.0244872 -1
   vertex 0.100688 0.0239314 1
   vertex 0.100688 0.0239314 -1
  endloop
 endfacet
 facet normal 0.883986 0.467514 -0
  outer loop
   vertex 0.100688 0.0239314 -1
   vertex 0.100688 0.0239314 1
   vertex 0.100987 0.023366 1
  endloop
 endfacet
 facet normal 0.883986 0.467514 0
  outer loop
   vertex 0.100688 0.0239314 -1
   vertex 0.100987 0.023366 1
   vertex 0.100987 0.023366 -1
  endloop
 endfacet
 facet normal 0.898261 0.439462 -0
  outer loop
   vertex 0.100987 0.023366 -1
   vertex 0.100987 0.023366 1
   vertex 0.101268 0.0227917 1
  endloop
 endfacet
 facet normal 0.898261 0.439462 0
  outer loop
   vertex 0.100987 0.023366 -1
   vertex 0.101268 0.0227917 1
   vertex 0.101268 0.0227917 -1
  endloop
 endfacet
 facet normal 0.911492 0.411317 -0
  outer loop
   vertex 0.101268 0.0227917 -1
   vertex 0.101268 0.0227917 1
   vertex 0.101531 0.0222088 1
  endloop
 endfacet
 facet normal 0.911492 0.411317 0
  outer loop
   vertex 0.101268 0.0227917 -1
   vertex 0.101531 0.0222088 1
   vertex 0.101531 0.0222088 -1
  endloop
 endfacet
 facet normal 0.923699 0.383118 -0
  outer loop
   vertex 0.101531 0.0222088 -1
   vertex 0.101531 0.0222088 1
   vertex 0.101776 0.0216182 1
  endloop
 endfacet
 facet normal 0.923699 0.383118 0
  outer loop
   vertex 0.101531 0.0222088 -1
   vertex 0.101776 0.0216182 1
   vertex 0.101776 0.0216182 -1
  endloop
 endfacet
 facet normal 0.934908 0.354891 -0
  outer loop
   vertex 0.101776 0.0216182 -1
   vertex 0.101776 0.0216182 1
   vertex 0.102003 0.0210201 1
  endloop
 endfacet
 facet normal 0.934908 0.354891 0
  outer loop
   vertex 0.101776 0.0216182 -1
   vertex 0.102003 0.0210201 1
   vertex 0.102003 0.0210201 -1
  endloop
 endfacet
 facet normal 0.945635 0.325231 -0
  outer loop
   vertex 0.102003 0.0210201 -1
   vertex 0.102003 0.0210201 1
   vertex 0.102211 0.0204154 1
  endloop
 endfacet
 facet normal 0.945635 0.325231 0
  outer loop
   vertex 0.102003 0.0210201 -1
   vertex 0.102211 0.0204154 1
   vertex 0.102211 0.0204154 -1
  endloop
 endfacet
 facet normal 0.955328 0.295548 -0
  outer loop
   vertex 0.102211 0.0204154 -1
   vertex 0.102211 0.0204154 1
   vertex 0.1024 0.0198044 1
  endloop
 endfacet
 facet normal 0.955328 0.295548 0
  outer loop
   vertex 0.102211 0.0204154 -1
   vertex 0.1024 0.0198044 1
   vertex 0.1024 0.0198044 -1
  endloop
 endfacet
 facet normal 0.964019 0.265833 -0
  outer loop
   vertex 0.1024 0.0198044 -1
   vertex 0.1024 0.0198044 1
   vertex 0.10257 0.019188 1
  endloop
 endfacet
 facet normal 0.964019 0.265833 0
  outer loop
   vertex 0.1024 0.0198044 -1
   vertex 0.10257 0.019188 1
   vertex 0.10257 0.019188 -1
  endloop
 endfacet
 facet normal 0.972085 0.23463 -0
  outer loop
   vertex 0.10257 0.019188 -1
   vertex 0.10257 0.019188 1
   vertex 0.10272 0.0185665 1
  endloop
 endfacet
 facet normal 0.972085 0.23463 0
  outer loop
   vertex 0.10257 0.019188 -1
   vertex 0.10272 0.0185665 1
   vertex 0.10272 0.0185665 -1
  endloop
 endfacet
 facet normal 0.978472 0.206379 -0
  outer loop
   vertex 0.10272 0.0185665 -1
   vertex 0.10272 0.0185665 1
   vertex 0.102852 0.0179407 1
  endloop
 endfacet
 facet normal 0.978472 0.206379 0
  outer loop
   vertex 0.10272 0.0185665 -1
   vertex 0.102852 0.0179407 1
   vertex 0.102852 0.0179407 -1
  endloop
 endfacet
 facet normal 0.984545 0.175134 -0
  outer loop
   vertex 0.102852 0.0179407 -1
   vertex 0.102852 0.0179407 1
   vertex 0.102964 0.017311 1
  endloop
 endfacet
 facet normal 0.984545 0.175134 0
  outer loop
   vertex 0.102852 0.0179407 -1
   vertex 0.102964 0.017311 1
   vertex 0.102964 0.017311 -1
  endloop
 endfacet
 facet normal 0.989597 0.143864 -0
  outer loop
   vertex 0.102964 0.017311 -1
   vertex 0.102964 0.017311 1
   vertex 0.103056 0.0166782 1
  endloop
 endfacet
 facet normal 0.989597 0.143864 0
  outer loop
   vertex 0.102964 0.017311 -1
   vertex 0.103056 0.0166782 1
   vertex 0.103056 0.0166782 -1
  endloop
 endfacet
 facet normal 0.993465 0.11414 -0
  outer loop
   vertex 0.103056 0.0166782 -1
   vertex 0.103056 0.0166782 1
   vertex 0.103129 0.0160428 1
  endloop
 endfacet
 facet normal 0.993465 0.11414 0
  outer loop
   vertex 0.103056 0.0166782 -1
   vertex 0.103129 0.0160428 1
   vertex 0.103129 0.0160428 -1
  endloop
 endfacet
 facet normal 0.996559 0.0828891 -0
  outer loop
   vertex 0.103129 0.0160428 -1
   vertex 0.103129 0.0160428 1
   vertex 0.103182 0.0154056 1
  endloop
 endfacet
 facet normal 0.996559 0.0828891 0
  outer loop
   vertex 0.103129 0.0160428 -1
   vertex 0.103182 0.0154056 1
   vertex 0.103182 0.0154056 -1
  endloop
 endfacet
 facet normal 0.998668 0.0516013 -0
  outer loop
   vertex 0.103182 0.0154056 -1
   vertex 0.103182 0.0154056 1
   vertex 0.103215 0.0147669 1
  endloop
 endfacet
 facet normal 0.998668 0.0516013 0
  outer loop
   vertex 0.103182 0.0154056 -1
   vertex 0.103215 0.0147669 1
   vertex 0.103215 0.0147669 -1
  endloop
 endfacet
 facet normal 0.999793 0.0203287 -0
  outer loop
   vertex 0.103215 0.0147669 -1
   vertex 0.103215 0.0147669 1
   vertex 0.103228 0.0141275 1
  endloop
 endfacet
 facet normal 0.999793 0.0203287 0
  outer loop
   vertex 0.103215 0.0147669 -1
   vertex 0.103228 0.0141275 1
   vertex 0.103228 0.0141275 -1
  endloop
 endfacet
 facet normal 0.99994 -0.0109525 0
  outer loop
   vertex 0.103228 0.0141275 -1
   vertex 0.103228 0.0141275 1
   vertex 0.103221 0.0134881 1
  endloop
 endfacet
 facet normal 0.99994 -0.0109525 0
  outer loop
   vertex 0.103228 0.0141275 -1
   vertex 0.103221 0.0134881 1
   vertex 0.103221 0.0134881 -1
  endloop
 endfacet
 facet normal 0.999173 -0.0406595 0
  outer loop
   vertex 0.103221 0.0134881 -1
   vertex 0.103221 0.0134881 1
   vertex 0.103195 0.0128491 1
  endloop
 endfacet
 facet normal 0.999173 -0.0406595 0
  outer loop
   vertex 0.103221 0.0134881 -1
   vertex 0.103195 0.0128491 1
   vertex 0.103195 0.0128491 -1
  endloop
 endfacet
 facet normal 0.997409 -0.0719358 0
  outer loop
   vertex 0.103195 0.0128491 -1
   vertex 0.103195 0.0128491 1
   vertex 0.103149 0.0122113 1
  endloop
 endfacet
 facet normal 0.997409 -0.0719358 0
  outer loop
   vertex 0.103195 0.0128491 -1
   vertex 0.103149 0.0122113 1
   vertex 0.103149 0.0122113 -1
  endloop
 endfacet
 facet normal 0.994661 -0.103199 0
  outer loop
   vertex 0.103149 0.0122113 -1
   vertex 0.103149 0.0122113 1
   vertex 0.103083 0.0115752 1
  endloop
 endfacet
 facet normal 0.994661 -0.103199 0
  outer loop
   vertex 0.103149 0.0122113 -1
   vertex 0.103083 0.0115752 1
   vertex 0.103083 0.0115752 -1
  endloop
 endfacet
 facet normal -0.156527 -0.987674 -0
  outer loop
   vertex 0.102184 0.0109226 1
   vertex 0.101789 0.0109852 1
   vertex 0.102184 0.0109226 -1
  endloop
 endfacet
 facet normal -0.156527 -0.987674 0
  outer loop
   vertex 0.102184 0.0109226 -1
   vertex 0.101789 0.0109852 1
   vertex 0.101789 0.0109852 -1
  endloop
 endfacet
 facet normal -0.989991 0.141128 0
  outer loop
   vertex 0.101789 0.0109852 -1
   vertex 0.101789 0.0109852 1
   vertex 0.101877 0.0116025 -1
  endloop
 endfacet
 facet normal -0.989991 0.141128 0
  outer loop
   vertex 0.101877 0.0116025 -1
   vertex 0.101789 0.0109852 1
   vertex 0.101877 0.0116025 1
  endloop
 endfacet
 facet normal -0.994037 0.109043 0
  outer loop
   vertex 0.101877 0.0116025 -1
   vertex 0.101877 0.0116025 1
   vertex 0.101945 0.0122224 -1
  endloop
 endfacet
 facet normal -0.994037 0.109043 0
  outer loop
   vertex 0.101945 0.0122224 -1
   vertex 0.101877 0.0116025 1
   vertex 0.101945 0.0122224 1
  endloop
 endfacet
 facet normal -0.997153 0.0754053 0
  outer loop
   vertex 0.101945 0.0122224 -1
   vertex 0.101945 0.0122224 1
   vertex 0.101992 0.012844 -1
  endloop
 endfacet
 facet normal -0.997153 0.0754053 0
  outer loop
   vertex 0.101992 0.012844 -1
   vertex 0.101945 0.0122224 1
   vertex 0.101992 0.012844 1
  endloop
 endfacet
 facet normal -0.998991 0.0449059 0
  outer loop
   vertex 0.101992 0.012844 -1
   vertex 0.101992 0.012844 1
   vertex 0.10202 0.0134669 -1
  endloop
 endfacet
 facet normal -0.998991 0.0449059 0
  outer loop
   vertex 0.10202 0.0134669 -1
   vertex 0.101992 0.012844 1
   vertex 0.10202 0.0134669 1
  endloop
 endfacet
 facet normal -0.999918 0.0128207 0
  outer loop
   vertex 0.10202 0.0134669 -1
   vertex 0.10202 0.0134669 1
   vertex 0.102028 0.0140904 -1
  endloop
 endfacet
 facet normal -0.999918 0.0128207 0
  outer loop
   vertex 0.102028 0.0140904 -1
   vertex 0.10202 0.0134669 1
   vertex 0.102028 0.0140904 1
  endloop
 endfacet
 facet normal -0.999815 -0.0192393 0
  outer loop
   vertex 0.102028 0.0140904 -1
   vertex 0.102028 0.0140904 1
   vertex 0.102016 0.0147138 -1
  endloop
 endfacet
 facet normal -0.999815 -0.0192393 0
  outer loop
   vertex 0.102016 0.0147138 -1
   vertex 0.102028 0.0140904 1
   vertex 0.102016 0.0147138 1
  endloop
 endfacet
 facet normal -0.998682 -0.0513251 0
  outer loop
   vertex 0.102016 0.0147138 -1
   vertex 0.102016 0.0147138 1
   vertex 0.101984 0.0153364 -1
  endloop
 endfacet
 facet normal -0.998682 -0.0513251 0
  outer loop
   vertex 0.101984 0.0153364 -1
   vertex 0.102016 0.0147138 1
   vertex 0.101984 0.0153364 1
  endloop
 endfacet
 facet normal -0.996381 -0.0850004 0
  outer loop
   vertex 0.101984 0.0153364 -1
   vertex 0.101984 0.0153364 1
   vertex 0.101931 0.0159577 -1
  endloop
 endfacet
 facet normal -0.996381 -0.0850004 0
  outer loop
   vertex 0.101931 0.0159577 -1
   vertex 0.101984 0.0153364 1
   vertex 0.101931 0.0159577 1
  endloop
 endfacet
 facet normal -0.993311 -0.115471 0
  outer loop
   vertex 0.101931 0.0159577 -1
   vertex 0.101931 0.0159577 1
   vertex 0.101859 0.0165771 -1
  endloop
 endfacet
 facet normal -0.993311 -0.115471 0
  outer loop
   vertex 0.101859 0.0165771 -1
   vertex 0.101931 0.0159577 1
   vertex 0.101859 0.0165771 1
  endloop
 endfacet
 facet normal -0.989054 -0.147555 0
  outer loop
   vertex 0.101859 0.0165771 -1
   vertex 0.101859 0.0165771 1
   vertex 0.101767 0.0171937 -1
  endloop
 endfacet
 facet normal -0.989054 -0.147555 0
  outer loop
   vertex 0.101767 0.0171937 -1
   vertex 0.101859 0.0165771 1
   vertex 0.101767 0.0171937 1
  endloop
 endfacet
 facet normal -0.983733 -0.179635 0
  outer loop
   vertex 0.101767 0.0171937 -1
   vertex 0.101767 0.0171937 1
   vertex 0.101655 0.0178071 -1
  endloop
 endfacet
 facet normal -0.983733 -0.179635 0
  outer loop
   vertex 0.101655 0.0178071 -1
   vertex 0.101767 0.0171937 1
   vertex 0.101655 0.0178071 1
  endloop
 endfacet
 facet normal -0.977674 -0.210129 0
  outer loop
   vertex 0.101655 0.0178071 -1
   vertex 0.101655 0.0178071 1
   vertex 0.101524 0.0184166 -1
  endloop
 endfacet
 facet normal -0.977674 -0.210129 0
  outer loop
   vertex 0.101524 0.0184166 -1
   vertex 0.101655 0.0178071 1
   vertex 0.101524 0.0184166 1
  endloop
 endfacet
 facet normal -0.970232 -0.242178 0
  outer loop
   vertex 0.101524 0.0184166 -1
   vertex 0.101524 0.0184166 1
   vertex 0.101373 0.0190215 -1
  endloop
 endfacet
 facet normal -0.970232 -0.242178 0
  outer loop
   vertex 0.101373 0.0190215 -1
   vertex 0.101524 0.0184166 1
   vertex 0.101373 0.0190215 1
  endloop
 endfacet
 facet normal -0.961678 -0.274181 0
  outer loop
   vertex 0.101373 0.0190215 -1
   vertex 0.101373 0.0190215 1
   vertex 0.101202 0.0196213 -1
  endloop
 endfacet
 facet normal -0.961678 -0.274181 0
  outer loop
   vertex 0.101202 0.0196213 -1
   vertex 0.101373 0.0190215 1
   vertex 0.101202 0.0196213 1
  endloop
 endfacet
 facet normal -0.952923 -0.303213 0
  outer loop
   vertex 0.101202 0.0196213 -1
   vertex 0.101202 0.0196213 1
   vertex 0.101013 0.0202153 -1
  endloop
 endfacet
 facet normal -0.952923 -0.303213 0
  outer loop
   vertex 0.101013 0.0202153 -1
   vertex 0.101202 0.0196213 1
   vertex 0.101013 0.0202153 1
  endloop
 endfacet
 facet normal -0.942178 -0.335112 0
  outer loop
   vertex 0.101013 0.0202153 -1
   vertex 0.101013 0.0202153 1
   vertex 0.100804 0.0208029 -1
  endloop
 endfacet
 facet normal -0.942178 -0.335112 0
  outer loop
   vertex 0.100804 0.0208029 -1
   vertex 0.101013 0.0202153 1
   vertex 0.100804 0.0208029 1
  endloop
 endfacet
 facet normal -0.931345 -0.364139 0
  outer loop
   vertex 0.100804 0.0208029 -1
   vertex 0.100804 0.0208029 1
   vertex 0.100577 0.0213835 -1
  endloop
 endfacet
 facet normal -0.931345 -0.364139 0
  outer loop
   vertex 0.100577 0.0213835 -1
   vertex 0.100804 0.0208029 1
   vertex 0.100577 0.0213835 1
  endloop
 endfacet
 facet normal -0.918896 -0.3945 0
  outer loop
   vertex 0.100577 0.0213835 -1
   vertex 0.100577 0.0213835 1
   vertex 0.100331 0.0219565 -1
  endloop
 endfacet
 facet normal -0.918896 -0.3945 0
  outer loop
   vertex 0.100331 0.0219565 -1
   vertex 0.100577 0.0213835 1
   vertex 0.100331 0.0219565 1
  endloop
 endfacet
 facet normal -0.905918 -0.423453 0
  outer loop
   vertex 0.100331 0.0219565 -1
   vertex 0.100331 0.0219565 1
   vertex 0.100067 0.0225213 -1
  endloop
 endfacet
 facet normal -0.905918 -0.423453 0
  outer loop
   vertex 0.100067 0.0225213 -1
   vertex 0.100331 0.0219565 1
   vertex 0.100067 0.0225213 1
  endloop
 endfacet
 facet normal -0.891724 -0.45258 0
  outer loop
   vertex 0.100067 0.0225213 -1
   vertex 0.100067 0.0225213 1
   vertex 0.0997848 0.0230773 -1
  endloop
 endfacet
 facet normal -0.891724 -0.45258 0
  outer loop
   vertex 0.0997848 0.0230773 -1
   vertex 0.100067 0.0225213 1
   vertex 0.0997848 0.0230773 1
  endloop
 endfacet
 facet normal -0.876734 -0.480975 0
  outer loop
   vertex 0.0997848 0.0230773 -1
   vertex 0.0997848 0.0230773 1
   vertex 0.0994849 0.023624 -1
  endloop
 endfacet
 facet normal -0.876734 -0.480975 0
  outer loop
   vertex 0.0994849 0.023624 -1
   vertex 0.0997848 0.0230773 1
   vertex 0.0994849 0.023624 1
  endloop
 endfacet
 facet normal -0.860902 -0.508771 0
  outer loop
   vertex 0.0994849 0.023624 -1
   vertex 0.0994849 0.023624 1
   vertex 0.0991677 0.0241607 -1
  endloop
 endfacet
 facet normal -0.860902 -0.508771 0
  outer loop
   vertex 0.0991677 0.0241607 -1
   vertex 0.0994849 0.023624 1
   vertex 0.0991677 0.0241607 1
  endloop
 endfacet
 facet normal -0.844032 -0.536293 0
  outer loop
   vertex 0.0991677 0.0241607 -1
   vertex 0.0991677 0.0241607 1
   vertex 0.0988333 0.024687 -1
  endloop
 endfacet
 facet normal -0.844032 -0.536293 0
  outer loop
   vertex 0.0988333 0.024687 -1
   vertex 0.0991677 0.0241607 1
   vertex 0.0988333 0.024687 1
  endloop
 endfacet
 facet normal -0.826386 -0.563104 0
  outer loop
   vertex 0.0988333 0.024687 -1
   vertex 0.0988333 0.024687 1
   vertex 0.0984822 0.0252023 -1
  endloop
 endfacet
 facet normal -0.826386 -0.563104 0
  outer loop
   vertex 0.0984822 0.0252023 -1
   vertex 0.0988333 0.024687 1
   vertex 0.0984822 0.0252023 1
  endloop
 endfacet
 facet normal -0.807937 -0.589269 0
  outer loop
   vertex 0.0984822 0.0252023 -1
   vertex 0.0984822 0.0252023 1
   vertex 0.0981148 0.025706 -1
  endloop
 endfacet
 facet normal -0.807937 -0.589269 0
  outer loop
   vertex 0.0981148 0.025706 -1
   vertex 0.0984822 0.0252023 1
   vertex 0.0981148 0.025706 1
  endloop
 endfacet
 facet normal -0.788483 -0.615056 0
  outer loop
   vertex 0.0981148 0.025706 -1
   vertex 0.0981148 0.025706 1
   vertex 0.0977313 0.0261976 -1
  endloop
 endfacet
 facet normal -0.788483 -0.615056 0
  outer loop
   vertex 0.0977313 0.0261976 -1
   vertex 0.0981148 0.025706 1
   vertex 0.0977313 0.0261976 1
  endloop
 endfacet
 facet normal -0.768405 -0.639964 0
  outer loop
   vertex 0.0977313 0.0261976 -1
   vertex 0.0977313 0.0261976 1
   vertex 0.0973323 0.0266767 -1
  endloop
 endfacet
 facet normal -0.768405 -0.639964 0
  outer loop
   vertex 0.0973323 0.0266767 -1
   vertex 0.0977313 0.0261976 1
   vertex 0.0973323 0.0266767 1
  endloop
 endfacet
 facet normal -0.747357 -0.664423 0
  outer loop
   vertex 0.0973323 0.0266767 -1
   vertex 0.0973323 0.0266767 1
   vertex 0.096918 0.0271427 -1
  endloop
 endfacet
 facet normal -0.747357 -0.664423 0
  outer loop
   vertex 0.096918 0.0271427 -1
   vertex 0.0973323 0.0266767 1
   vertex 0.096918 0.0271427 1
  endloop
 endfacet
 facet normal -0.725666 -0.688047 0
  outer loop
   vertex 0.096918 0.0271427 -1
   vertex 0.096918 0.0271427 1
   vertex 0.096489 0.0275952 -1
  endloop
 endfacet
 facet normal -0.725666 -0.688047 0
  outer loop
   vertex 0.096489 0.0275952 -1
   vertex 0.096918 0.0271427 1
   vertex 0.096489 0.0275952 1
  endloop
 endfacet
 facet normal -0.703195 -0.710997 0
  outer loop
   vertex 0.096489 0.0275952 -1
   vertex 0.096489 0.0275952 1
   vertex 0.0960457 0.0280336 -1
  endloop
 endfacet
 facet normal -0.703195 -0.710997 0
  outer loop
   vertex 0.0960457 0.0280336 -1
   vertex 0.096489 0.0275952 1
   vertex 0.0960457 0.0280336 1
  endloop
 endfacet
 facet normal -0.679962 -0.733247 0
  outer loop
   vertex 0.0960457 0.0280336 -1
   vertex 0.0960457 0.0280336 1
   vertex 0.0955885 0.0284576 -1
  endloop
 endfacet
 facet normal -0.679962 -0.733247 0
  outer loop
   vertex 0.0955885 0.0284576 -1
   vertex 0.0960457 0.0280336 1
   vertex 0.0955885 0.0284576 1
  endloop
 endfacet
 facet normal -0.656117 -0.754659 0
  outer loop
   vertex 0.0955885 0.0284576 -1
   vertex 0.0955885 0.0284576 1
   vertex 0.095118 0.0288667 -1
  endloop
 endfacet
 facet normal -0.656117 -0.754659 0
  outer loop
   vertex 0.095118 0.0288667 -1
   vertex 0.0955885 0.0284576 1
   vertex 0.095118 0.0288667 1
  endloop
 endfacet
 facet normal -0.63145 -0.775417 0
  outer loop
   vertex 0.095118 0.0288667 -1
   vertex 0.095118 0.0288667 1
   vertex 0.0946345 0.0292604 -1
  endloop
 endfacet
 facet normal -0.63145 -0.775417 0
  outer loop
   vertex 0.0946345 0.0292604 -1
   vertex 0.095118 0.0288667 1
   vertex 0.0946345 0.0292604 1
  endloop
 endfacet
 facet normal -0.606204 -0.795309 0
  outer loop
   vertex 0.0946345 0.0292604 -1
   vertex 0.0946345 0.0292604 1
   vertex 0.0941386 0.0296384 -1
  endloop
 endfacet
 facet normal -0.606204 -0.795309 0
  outer loop
   vertex 0.0941386 0.0296384 -1
   vertex 0.0946345 0.0292604 1
   vertex 0.0941386 0.0296384 1
  endloop
 endfacet
 facet normal -0.580429 -0.814311 0
  outer loop
   vertex 0.0941386 0.0296384 -1
   vertex 0.0941386 0.0296384 1
   vertex 0.0936309 0.0300002 -1
  endloop
 endfacet
 facet normal -0.580429 -0.814311 0
  outer loop
   vertex 0.0936309 0.0300002 -1
   vertex 0.0941386 0.0296384 1
   vertex 0.0936309 0.0300002 1
  endloop
 endfacet
 facet normal -0.553912 -0.832575 0
  outer loop
   vertex 0.0936309 0.0300002 -1
   vertex 0.0936309 0.0300002 1
   vertex 0.0931118 0.0303456 -1
  endloop
 endfacet
 facet normal -0.553912 -0.832575 0
  outer loop
   vertex 0.0931118 0.0303456 -1
   vertex 0.0936309 0.0300002 1
   vertex 0.0931118 0.0303456 1
  endloop
 endfacet
 facet normal -0.526838 -0.849966 0
  outer loop
   vertex 0.0931118 0.0303456 -1
   vertex 0.0931118 0.0303456 1
   vertex 0.0925818 0.0306741 -1
  endloop
 endfacet
 facet normal -0.526838 -0.849966 0
  outer loop
   vertex 0.0925818 0.0306741 -1
   vertex 0.0931118 0.0303456 1
   vertex 0.0925818 0.0306741 1
  endloop
 endfacet
 facet normal -0.499318 -0.866419 0
  outer loop
   vertex 0.0925818 0.0306741 -1
   vertex 0.0925818 0.0306741 1
   vertex 0.0920416 0.0309854 -1
  endloop
 endfacet
 facet normal -0.499318 -0.866419 0
  outer loop
   vertex 0.0920416 0.0309854 -1
   vertex 0.0925818 0.0306741 1
   vertex 0.0920416 0.0309854 1
  endloop
 endfacet
 facet normal -0.471214 -0.882019 0
  outer loop
   vertex 0.0920416 0.0309854 -1
   vertex 0.0920416 0.0309854 1
   vertex 0.0914917 0.0312792 -1
  endloop
 endfacet
 facet normal -0.471214 -0.882019 0
  outer loop
   vertex 0.0914917 0.0312792 -1
   vertex 0.0920416 0.0309854 1
   vertex 0.0914917 0.0312792 1
  endloop
 endfacet
 facet normal -0.442629 -0.896705 0
  outer loop
   vertex 0.0914917 0.0312792 -1
   vertex 0.0914917 0.0312792 1
   vertex 0.0909326 0.0315552 -1
  endloop
 endfacet
 facet normal -0.442629 -0.896705 0
  outer loop
   vertex 0.0909326 0.0315552 -1
   vertex 0.0914917 0.0312792 1
   vertex 0.0909326 0.0315552 1
  endloop
 endfacet
 facet normal -0.413558 -0.910478 0
  outer loop
   vertex 0.0909326 0.0315552 -1
   vertex 0.0909326 0.0315552 1
   vertex 0.0903649 0.0318131 -1
  endloop
 endfacet
 facet normal -0.413558 -0.910478 0
  outer loop
   vertex 0.0903649 0.0318131 -1
   vertex 0.0909326 0.0315552 1
   vertex 0.0903649 0.0318131 1
  endloop
 endfacet
 facet normal -0.384085 -0.923298 0
  outer loop
   vertex 0.0903649 0.0318131 -1
   vertex 0.0903649 0.0318131 1
   vertex 0.0897892 0.0320525 -1
  endloop
 endfacet
 facet normal -0.384085 -0.923298 0
  outer loop
   vertex 0.0897892 0.0320525 -1
   vertex 0.0903649 0.0318131 1
   vertex 0.0897892 0.0320525 1
  endloop
 endfacet
 facet normal -0.354226 -0.93516 0
  outer loop
   vertex 0.0897892 0.0320525 -1
   vertex 0.0897892 0.0320525 1
   vertex 0.0892061 0.0322734 -1
  endloop
 endfacet
 facet normal -0.354226 -0.93516 0
  outer loop
   vertex 0.0892061 0.0322734 -1
   vertex 0.0897892 0.0320525 1
   vertex 0.0892061 0.0322734 1
  endloop
 endfacet
 facet normal -0.324054 -0.946039 0
  outer loop
   vertex 0.0892061 0.0322734 -1
   vertex 0.0892061 0.0322734 1
   vertex 0.0886163 0.0324754 -1
  endloop
 endfacet
 facet normal -0.324054 -0.946039 0
  outer loop
   vertex 0.0886163 0.0324754 -1
   vertex 0.0892061 0.0322734 1
   vertex 0.0886163 0.0324754 1
  endloop
 endfacet
 facet normal -0.293376 -0.955997 0
  outer loop
   vertex 0.0886163 0.0324754 -1
   vertex 0.0886163 0.0324754 1
   vertex 0.0880202 0.0326584 -1
  endloop
 endfacet
 facet normal -0.293376 -0.955997 0
  outer loop
   vertex 0.0880202 0.0326584 -1
   vertex 0.0886163 0.0324754 1
   vertex 0.0880202 0.0326584 1
  endloop
 endfacet
 facet normal -0.262636 -0.964895 0
  outer loop
   vertex 0.0880202 0.0326584 -1
   vertex 0.0880202 0.0326584 1
   vertex 0.0874186 0.0328221 -1
  endloop
 endfacet
 facet normal -0.262636 -0.964895 0
  outer loop
   vertex 0.0874186 0.0328221 -1
   vertex 0.0880202 0.0326584 1
   vertex 0.0874186 0.0328221 1
  endloop
 endfacet
 facet normal -0.231485 -0.972839 0
  outer loop
   vertex 0.0874186 0.0328221 -1
   vertex 0.0874186 0.0328221 1
   vertex 0.086812 0.0329665 -1
  endloop
 endfacet
 facet normal -0.231485 -0.972839 0
  outer loop
   vertex 0.086812 0.0329665 -1
   vertex 0.0874186 0.0328221 1
   vertex 0.086812 0.0329665 1
  endloop
 endfacet
 facet normal -0.200017 -0.979792 0
  outer loop
   vertex 0.086812 0.0329665 -1
   vertex 0.086812 0.0329665 1
   vertex 0.0862011 0.0330912 -1
  endloop
 endfacet
 facet normal -0.200017 -0.979792 0
  outer loop
   vertex 0.0862011 0.0330912 -1
   vertex 0.086812 0.0329665 1
   vertex 0.0862011 0.0330912 1
  endloop
 endfacet
 facet normal -0.168498 -0.985702 0
  outer loop
   vertex 0.0862011 0.0330912 -1
   vertex 0.0862011 0.0330912 1
   vertex 0.0855865 0.0331962 -1
  endloop
 endfacet
 facet normal -0.168498 -0.985702 0
  outer loop
   vertex 0.0855865 0.0331962 -1
   vertex 0.0862011 0.0330912 1
   vertex 0.0855865 0.0331962 1
  endloop
 endfacet
 facet normal -0.136674 -0.990616 0
  outer loop
   vertex 0.0855865 0.0331962 -1
   vertex 0.0855865 0.0331962 1
   vertex 0.0849689 0.0332814 -1
  endloop
 endfacet
 facet normal -0.136674 -0.990616 0
  outer loop
   vertex 0.0849689 0.0332814 -1
   vertex 0.0855865 0.0331962 1
   vertex 0.0849689 0.0332814 1
  endloop
 endfacet
 facet normal -0.104965 -0.994476 0
  outer loop
   vertex 0.0849689 0.0332814 -1
   vertex 0.0849689 0.0332814 1
   vertex 0.0843488 0.0333469 -1
  endloop
 endfacet
 facet normal -0.104965 -0.994476 0
  outer loop
   vertex 0.0843488 0.0333469 -1
   vertex 0.0849689 0.0332814 1
   vertex 0.0843488 0.0333469 1
  endloop
 endfacet
 facet normal -0.0726481 -0.997358 0
  outer loop
   vertex 0.0843488 0.0333469 -1
   vertex 0.0843488 0.0333469 1
   vertex 0.0837269 0.0333922 -1
  endloop
 endfacet
 facet normal -0.0726481 -0.997358 0
  outer loop
   vertex 0.0837269 0.0333922 -1
   vertex 0.0843488 0.0333469 1
   vertex 0.0837269 0.0333922 1
  endloop
 endfacet
 facet normal -0.0407369 -0.99917 0
  outer loop
   vertex 0.0837269 0.0333922 -1
   vertex 0.0837269 0.0333922 1
   vertex 0.0831039 0.0334176 -1
  endloop
 endfacet
 facet normal -0.0407369 -0.99917 0
  outer loop
   vertex 0.0831039 0.0334176 -1
   vertex 0.0837269 0.0333922 1
   vertex 0.0831039 0.0334176 1
  endloop
 endfacet
 facet normal -0.999847 -0.0174919 -0
  outer loop
   vertex 0.0822726 0.0342205 1
   vertex 0.0822656 0.0346204 1
   vertex 0.0822726 0.0342205 -1
  endloop
 endfacet
 facet normal -0.999847 -0.0174919 0
  outer loop
   vertex 0.0822726 0.0342205 -1
   vertex 0.0822656 0.0346204 1
   vertex 0.0822656 0.0346204 -1
  endloop
 endfacet
 facet normal 0 0 -1
  outer loop
   vertex 0.0822726 0.0342205 -1
   vertex 0.0822656 0.0346204 -1
   vertex 0.0831039 0.0334176 -1
  endloop
 endfacet
 facet normal 0 0 -1
  outer loop
   vertex 0.0831039 0.0334176 -1
   vertex 0.0822656 0.0346204 -1
   vertex 0.0829051 0.0346216 -1
  endloop
 endfacet
 facet normal 0 0 -1
  outer loop
   vertex 0.0831039 0.0334176 -1
   vertex 0.0829051 0.0346216 -1
   vertex 0.0837269 0.0333922 -1
  endloop
 endfacet
 facet normal 0 0 -1
  outer loop
   vertex 0.0837269 0.0333922 -1
   vertex 0.0829051 0.0346216 -1
   vertex 0.0835443 0.034603 -1
  endloop
 endfacet
 facet normal 0 0 -1
  outer loop
   vertex 0.0837269 0.0333922 -1
   vertex 0.0835443 0.034603 -1
   vertex 0.0843488 0.0333469 -1
  endloop
 endfacet
 facet normal 0 0 -1
  outer loop
   vertex 0.0843488 0.0333469 -1
   vertex 0.0835443 0.034603 -1
   vertex 0.0841827 0.0345646 -1
  endloop
 endfacet
 facet normal 0 0 -1
  outer loop
   vertex 0.0843488 0.0333469 -1
   vertex 0.0841827 0.0345646 -1
   vertex 0.0849689 0.0332814 -1
  endloop
 endfacet
 facet normal 0 0 -1
  outer loop
   vertex 0.0849689 0.0332814 -1
   vertex 0.0841827 0.0345646 -1
   vertex 0.0848195 0.0345063 -1
  endloop
 endfacet
 facet normal 0 0 -1
  outer loop
   vertex 0.0849689 0.0332814 -1
   vertex 0.0848195 0.0345063 -1
   vertex 0.0855865 0.0331962 -1
  endloop
 endfacet
 facet normal 0 0 -1
  outer loop
   vertex 0.102184 0.0109226 -1
   vertex 0.101789 0.0109852 -1
   vertex 0.103083 0.0115752 -1
  endloop
 endfacet
 facet normal -0 0 -1
  outer loop
   vertex 0.103083 0.0115752 -1
   vertex 0.101789 0.0109852 -1
   vertex 0.101877 0.0116025 -1
  endloop
 endfacet
 facet normal 0 0 -1
  outer loop
   vertex 0.103083 0.0115752 -1
   vertex 0.101877 0.0116025 -1
   vertex 0.103149 0.0122113 -1
  endloop
 endfacet
 facet normal -0 0 -1
  outer loop
   vertex 0.103149 0.0122113 -1
   vertex 0.101877 0.0116025 -1
   vertex 0.101945 0.0122224 -1
  endloop
 endfacet
 facet normal 0 0 -1
  outer loop
   vertex 0.103149 0.0122113 -1
   vertex 0.101945 0.0122224 -1
   vertex 0.103195 0.0128491 -1
  endloop
 endfacet
 facet normal 0 0 -1
  outer loop
   vertex 0.103195 0.0128491 -1
   vertex 0.101945 0.0122224 -1
   vertex 0.101992 0.012844 -1
  endloop
 endfacet
 facet normal -0 0 -1
  outer loop
   vertex 0.103195 0.0128491 -1
   vertex 0.101992 0.012844 -1
   vertex 0.103221 0.0134881 -1
  endloop
 endfacet
 facet normal 0 0 -1
  outer loop
   vertex 0.103221 0.0134881 -1
   vertex 0.101992 0.012844 -1
   vertex 0.10202 0.0134669 -1
  endloop
 endfacet
 facet normal -0 0 -1
  outer loop
   vertex 0.103221 0.0134881 -1
   vertex 0.10202 0.0134669 -1
   vertex 0.103228 0.0141275 -1
  endloop
 endfacet
 facet normal 0 0 -1
  outer loop
   vertex 0.103228 0.0141275 -1
   vertex 0.10202 0.0134669 -1
   vertex 0.102028 0.0140904 -1
  endloop
 endfacet
 facet normal -0 0 -1
  outer loop
   vertex 0.103228 0.0141275 -1
   vertex 0.102028 0.0140904 -1
   vertex 0.103215 0.0147669 -1
  endloop
 endfacet
 facet normal 0 0 -1
  outer loop
   vertex 0.103215 0.0147669 -1
   vertex 0.102028 0.0140904 -1
   vertex 0.102016 0.0147138 -1
  endloop
 endfacet
 facet normal -0 0 -1
  outer loop
   vertex 0.103215 0.0147669 -1
   vertex 0.102016 0.0147138 -1
   vertex 0.103182 0.0154056 -1
  endloop
 endfacet
 facet normal 0 0 -1
  outer loop
   vertex 0.103182 0.0154056 -1
   vertex 0.102016 0.0147138 -1
   vertex 0.101984 0.0153364 -1
  endloop
 endfacet
 facet normal -0 0 -1
  outer loop
   vertex 0.103182 0.0154056 -1
   vertex 0.101984 0.0153364 -1
   vertex 0.103129 0.0160428 -1
  endloop
 endfacet
 facet normal 0 0 -1
  outer loop
   vertex 0.103129 0.0160428 -1
   vertex 0.101984 0.0153364 -1
   vertex 0.101931 0.0159577 -1
  endloop
 endfacet
 facet normal -0 0 -1
  outer loop
   vertex 0.103129 0.0160428 -1
   vertex 0.101931 0.0159577 -1
   vertex 0.103056 0.0166782 -1
  endloop
 endfacet
 facet normal 0 0 -1
  outer loop
   vertex 0.103056 0.0166782 -1
   vertex 0.101931 0.0159577 -1
   vertex 0.101859 0.0165771 -1
  endloop
 endfacet
 facet normal -0 0 -1
  outer loop
   vertex 0.103056 0.0166782 -1
   vertex 0.101859 0.0165771 -1
   vertex 0.102964 0.017311 -1
  endloop
 endfacet
 facet normal 0 0 -1
  outer loop
   vertex 0.102964 0.017311 -1
   vertex 0.101859 0.0165771 -1
   vertex 0.101767 0.0171937 -1
  endloop
 endfacet
 facet normal -0 0 -1
  outer loop
   vertex 0.102964 0.017311 -1
   vertex 0.101767 0.0171937 -1
   vertex 0.102852 0.0179407 -1
  endloop
 endfacet
 facet normal 0 0 -1
  outer loop
   vertex 0.102852 0.0179407 -1
   vertex 0.101767 0.0171937 -1
   vertex 0.101655 0.0178071 -1
  endloop
 endfacet
 facet normal -0 0 -1
  outer loop
   vertex 0.102852 0.0179407 -1
   vertex 0.101655 0.0178071 -1
   vertex 0.10272 0.0185665 -1
  endloop
 endfacet
 facet normal 0 0 -1
  outer loop
   vertex 0.10272 0.0185665 -1
   vertex 0.101655 0.0178071 -1
   vertex 0.101524 0.0184166 -1
  endloop
 endfacet
 facet normal -0 0 -1
  outer loop
   vertex 0.10272 0.0185665 -1
   vertex 0.101524 0.0184166 -1
   vertex 0.10257 0.019188 -1
  endloop
 endfacet
 facet normal 0 0 -1
  outer loop
   vertex 0.10257 0.019188 -1
   vertex 0.101524 0.0184166 -1
   vertex 0.101373 0.0190215 -1
  endloop
 endfacet
 facet normal -0 0 -1
  outer loop
   vertex 0.10257 0.019188 -1
   vertex 0.101373 0.0190215 -1
   vertex 0.1024 0.0198044 -1
  endloop
 endfacet
 facet normal 0 0 -1
  outer loop
   vertex 0.1024 0.0198044 -1
   vertex 0.101373 0.0190215 -1
   vertex 0.101202 0.0196213 -1
  endloop
 endfacet
 facet normal -0 0 -1
  outer loop
   vertex 0.1024 0.0198044 -1
   vertex 0.101202 0.0196213 -1
   vertex 0.102211 0.0204154 -1
  endloop
 endfacet
 facet normal 0 0 -1
  outer loop
   vertex 0.102211 0.0204154 -1
   vertex 0.101202 0.0196213 -1
   vertex 0.101013 0.0202153 -1
  endloop
 endfacet
 facet normal -0 0 -1
  outer loop
   vertex 0.102211 0.0204154 -1
   vertex 0.101013 0.0202153 -1
   vertex 0.102003 0.0210201 -1
  endloop
 endfacet
 facet normal 0 0 -1
  outer loop
   vertex 0.102003 0.0210201 -1
   vertex 0.101013 0.0202153 -1
   vertex 0.100804 0.0208029 -1
  endloop
 endfacet
 facet normal -0 0 -1
  outer loop
   vertex 0.102003 0.0210201 -1
   vertex 0.100804 0.0208029 -1
   vertex 0.101776 0.0216182 -1
  endloop
 endfacet
 facet normal 0 0 -1
  outer loop
   vertex 0.101776 0.0216182 -1
   vertex 0.100804 0.0208029 -1
   vertex 0.100577 0.0213835 -1
  endloop
 endfacet
 facet normal -0 0 -1
  outer loop
   vertex 0.101776 0.0216182 -1
   vertex 0.100577 0.0213835 -1
   vertex 0.101531 0.0222088 -1
  endloop
 endfacet
 facet normal 0 0 -1
  outer loop
   vertex 0.101531 0.0222088 -1
   vertex 0.100577 0.0213835 -1
   vertex 0.100331 0.0219565 -1
  endloop
 endfacet
 facet normal -0 0 -1
  outer loop
   vertex 0.101531 0.0222088 -1
   vertex 0.100331 0.0219565 -1
   vertex 0.101268 0.0227917 -1
  endloop
 endfacet
 facet normal 0 0 -1
  outer loop
   vertex 0.101268 0.0227917 -1
   vertex 0.100331 0.0219565 -1
   vertex 0.100067 0.0225213 -1
  endloop
 endfacet
 facet normal -0 0 -1
  outer loop
   vertex 0.101268 0.0227917 -1
   vertex 0.100067 0.0225213 -1
   vertex 0.100987 0.023366 -1
  endloop
 endfacet
 facet normal 0 0 -1
  outer loop
   vertex 0.100987 0.023366 -1
   vertex 0.100067 0.0225213 -1
   vertex 0.0997848 0.0230773 -1
  endloop
 endfacet
 facet normal -0 0 -1
  outer loop
   vertex 0.100987 0.023366 -1
   vertex 0.0997848 0.0230773 -1
   vertex 0.100688 0.0239314 -1
  endloop
 endfacet
 facet normal 0 0 -1
  outer loop
   vertex 0.100688 0.0239314 -1
   vertex 0.0997848 0.0230773 -1
   vertex 0.0994849 0.023624 -1
  endloop
 endfacet
 facet normal 0 0 -1
  outer loop
   vertex 0.0848195 0.0345063 -1
   vertex 0.0854542 0.0344284 -1
   vertex 0.0855865 0.0331962 -1
  endloop
 endfacet
 facet normal 0 0 -1
  outer loop
   vertex 0.0855865 0.0331962 -1
   vertex 0.0854542 0.0344284 -1
   vertex 0.0860862 0.0343308 -1
  endloop
 endfacet
 facet normal 0 0 -1
  outer loop
   vertex 0.0855865 0.0331962 -1
   vertex 0.0860862 0.0343308 -1
   vertex 0.0862011 0.0330912 -1
  endloop
 endfacet
 facet normal 0 0 -1
  outer loop
   vertex 0.0862011 0.0330912 -1
   vertex 0.0860862 0.0343308 -1
   vertex 0.0867149 0.0342136 -1
  endloop
 endfacet
 facet normal 0 0 -1
  outer loop
   vertex 0.0862011 0.0330912 -1
   vertex 0.0867149 0.0342136 -1
   vertex 0.086812 0.0329665 -1
  endloop
 endfacet
 facet normal 0 0 -1
  outer loop
   vertex 0.086812 0.0329665 -1
   vertex 0.0867149 0.0342136 -1
   vertex 0.0873396 0.0340769 -1
  endloop
 endfacet
 facet normal 0 0 -1
  outer loop
   vertex 0.086812 0.0329665 -1
   vertex 0.0873396 0.0340769 -1
   vertex 0.0874186 0.0328221 -1
  endloop
 endfacet
 facet normal 0 0 -1
  outer loop
   vertex 0.0874186 0.0328221 -1
   vertex 0.0873396 0.0340769 -1
   vertex 0.0879598 0.0339209 -1
  endloop
 endfacet
 facet normal 0 0 -1
  outer loop
   vertex 0.0874186 0.0328221 -1
   vertex 0.0879598 0.0339209 -1
   vertex 0.0880202 0.0326584 -1
  endloop
 endfacet
 facet normal 0 0 -1
  outer loop
   vertex 0.0880202 0.0326584 -1
   vertex 0.0879598 0.0339209 -1
   vertex 0.0885749 0.0337458 -1
  endloop
 endfacet
 facet normal 0 0 -1
  outer loop
   vertex 0.0880202 0.0326584 -1
   vertex 0.0885749 0.0337458 -1
   vertex 0.0886163 0.0324754 -1
  endloop
 endfacet
 facet normal 0 0 -1
  outer loop
   vertex 0.0886163 0.0324754 -1
   vertex 0.0885749 0.0337458 -1
   vertex 0.0891842 0.0335516 -1
  endloop
 endfacet
 facet normal 0 0 -1
  outer loop
   vertex 0.0886163 0.0324754 -1
   vertex 0.0891842 0.0335516 -1
   vertex 0.0892061 0.0322734 -1
  endloop
 endfacet
 facet normal 0 0 -1
  outer loop
   vertex 0.0892061 0.0322734 -1
   vertex 0.0891842 0.0335516 -1
   vertex 0.0897872 0.0333387 -1
  endloop
 endfacet
 facet normal 0 0 -1
  outer loop
   vertex 0.0892061 0.0322734 -1
   vertex 0.0897872 0.0333387 -1
   vertex 0.0897892 0.0320525 -1
  endloop
 endfacet
 facet normal 0 0 -1
  outer loop
   vertex 0.0897892 0.0320525 -1
   vertex 0.0897872 0.0333387 -1
   vertex 0.0903833 0.0331071 -1
  endloop
 endfacet
 facet normal 0 0 -1
  outer loop
   vertex 0.0897892 0.0320525 -1
   vertex 0.0903833 0.0331071 -1
   vertex 0.0903649 0.0318131 -1
  endloop
 endfacet
 facet normal 0 0 -1
  outer loop
   vertex 0.0903649 0.0318131 -1
   vertex 0.0903833 0.0331071 -1
   vertex 0.0909719 0.0328571 -1
  endloop
 endfacet
 facet normal 0 0 -1
  outer loop
   vertex 0.0903649 0.0318131 -1
   vertex 0.0909719 0.0328571 -1
   vertex 0.0909326 0.0315552 -1
  endloop
 endfacet
 facet normal 0 0 -1
  outer loop
   vertex 0.0909326 0.0315552 -1
   vertex 0.0909719 0.0328571 -1
   vertex 0.0915525 0.032589 -1
  endloop
 endfacet
 facet normal 0 0 -1
  outer loop
   vertex 0.0909326 0.0315552 -1
   vertex 0.0915525 0.032589 -1
   vertex 0.0914917 0.0312792 -1
  endloop
 endfacet
 facet normal 0 0 -1
  outer loop
   vertex 0.0914917 0.0312792 -1
   vertex 0.0915525 0.032589 -1
   vertex 0.0921244 0.032303 -1
  endloop
 endfacet
 facet normal 0 0 -1
  outer loop
   vertex 0.0914917 0.0312792 -1
   vertex 0.0921244 0.032303 -1
   vertex 0.0920416 0.0309854 -1
  endloop
 endfacet
 facet normal 0 0 -1
  outer loop
   vertex 0.0920416 0.0309854 -1
   vertex 0.0921244 0.032303 -1
   vertex 0.0926873 0.0319994 -1
  endloop
 endfacet
 facet normal 0 0 -1
  outer loop
   vertex 0.0920416 0.0309854 -1
   vertex 0.0926873 0.0319994 -1
   vertex 0.0925818 0.0306741 -1
  endloop
 endfacet
 facet normal 0 0 -1
  outer loop
   vertex 0.0925818 0.0306741 -1
   vertex 0.0926873 0.0319994 -1
   vertex 0.0932404 0.0316784 -1
  endloop
 endfacet
 facet normal 0 0 -1
  outer loop
   vertex 0.0925818 0.0306741 -1
   vertex 0.0932404 0.0316784 -1
   vertex 0.0931118 0.0303456 -1
  endloop
 endfacet
 facet normal 0 0 -1
  outer loop
   vertex 0.0931118 0.0303456 -1
   vertex 0.0932404 0.0316784 -1
   vertex 0.0937833 0.0313405 -1
  endloop
 endfacet
 facet normal 0 0 -1
  outer loop
   vertex 0.0931118 0.0303456 -1
   vertex 0.0937833 0.0313405 -1
   vertex 0.0936309 0.0300002 -1
  endloop
 endfacet
 facet normal 0 0 -1
  outer loop
   vertex 0.0936309 0.0300002 -1
   vertex 0.0937833 0.0313405 -1
   vertex 0.0943155 0.0309858 -1
  endloop
 endfacet
 facet normal 0 0 -1
  outer loop
   vertex 0.0936309 0.0300002 -1
   vertex 0.0943155 0.0309858 -1
   vertex 0.0941386 0.0296384 -1
  endloop
 endfacet
 facet normal 0 0 -1
  outer loop
   vertex 0.0941386 0.0296384 -1
   vertex 0.0943155 0.0309858 -1
   vertex 0.0948364 0.0306149 -1
  endloop
 endfacet
 facet normal 0 0 -1
  outer loop
   vertex 0.0941386 0.0296384 -1
   vertex 0.0948364 0.0306149 -1
   vertex 0.0946345 0.0292604 -1
  endloop
 endfacet
 facet normal 0 0 -1
  outer loop
   vertex 0.0946345 0.0292604 -1
   vertex 0.0948364 0.0306149 -1
   vertex 0.0953455 0.0302279 -1
  endloop
 endfacet
 facet normal 0 0 -1
  outer loop
   vertex 0.0946345 0.0292604 -1
   vertex 0.0953455 0.0302279 -1
   vertex 0.095118 0.0288667 -1
  endloop
 endfacet
 facet normal 0 0 -1
  outer loop
   vertex 0.095118 0.0288667 -1
   vertex 0.0953455 0.0302279 -1
   vertex 0.0958424 0.0298253 -1
  endloop
 endfacet
 facet normal 0 0 -1
  outer loop
   vertex 0.095118 0.0288667 -1
   vertex 0.0958424 0.0298253 -1
   vertex 0.0955885 0.0284576 -1
  endloop
 endfacet
 facet normal 0 0 -1
  outer loop
   vertex 0.0955885 0.0284576 -1
   vertex 0.0958424 0.0298253 -1
   vertex 0.0963265 0.0294075 -1
  endloop
 endfacet
 facet normal 0 0 -1
  outer loop
   vertex 0.0955885 0.0284576 -1
   vertex 0.0963265 0.0294075 -1
   vertex 0.0960457 0.0280336 -1
  endloop
 endfacet
 facet normal 0 0 -1
  outer loop
   vertex 0.0960457 0.0280336 -1
   vertex 0.0963265 0.0294075 -1
   vertex 0.0967974 0.0289748 -1
  endloop
 endfacet
 facet normal 0 0 -1
  outer loop
   vertex 0.0960457 0.0280336 -1
   vertex 0.0967974 0.0289748 -1
   vertex 0.096489 0.0275952 -1
  endloop
 endfacet
 facet normal 0 0 -1
  outer loop
   vertex 0.096489 0.0275952 -1
   vertex 0.0967974 0.0289748 -1
   vertex 0.0972547 0.0285278 -1
  endloop
 endfacet
 facet normal 0 0 -1
  outer loop
   vertex 0.096489 0.0275952 -1
   vertex 0.0972547 0.0285278 -1
   vertex 0.096918 0.0271427 -1
  endloop
 endfacet
 facet normal 0 0 -1
  outer loop
   vertex 0.096918 0.0271427 -1
   vertex 0.0972547 0.0285278 -1
   vertex 0.0976979 0.0280668 -1
  endloop
 endfacet
 facet normal 0 0 -1
  outer loop
   vertex 0.096918 0.0271427 -1
   vertex 0.0976979 0.0280668 -1
   vertex 0.0973323 0.0266767 -1
  endloop
 endfacet
 facet normal 0 0 -1
  outer loop
   vertex 0.0973323 0.0266767 -1
   vertex 0.0976979 0.0280668 -1
   vertex 0.0981266 0.0275922 -1
  endloop
 endfacet
 facet normal 0 0 -1
  outer loop
   vertex 0.0973323 0.0266767 -1
   vertex 0.0981266 0.0275922 -1
   vertex 0.0977313 0.0261976 -1
  endloop
 endfacet
 facet normal 0 0 -1
  outer loop
   vertex 0.0977313 0.0261976 -1
   vertex 0.0981266 0.0275922 -1
   vertex 0.0985403 0.0271046 -1
  endloop
 endfacet
 facet normal 0 0 -1
  outer loop
   vertex 0.0977313 0.0261976 -1
   vertex 0.0985403 0.0271046 -1
   vertex 0.0981148 0.025706 -1
  endloop
 endfacet
 facet normal 0 0 -1
  outer loop
   vertex 0.0981148 0.025706 -1
   vertex 0.0985403 0.0271046 -1
   vertex 0.0989387 0.0266043 -1
  endloop
 endfacet
 facet normal 0 0 -1
  outer loop
   vertex 0.0981148 0.025706 -1
   vertex 0.0989387 0.0266043 -1
   vertex 0.0984822 0.0252023 -1
  endloop
 endfacet
 facet normal 0 0 -1
  outer loop
   vertex 0.0984822 0.0252023 -1
   vertex 0.0989387 0.0266043 -1
   vertex 0.0993214 0.026092 -1
  endloop
 endfacet
 facet normal 0 0 -1
  outer loop
   vertex 0.0984822 0.0252023 -1
   vertex 0.0993214 0.026092 -1
   vertex 0.0988333 0.024687 -1
  endloop
 endfacet
 facet normal 0 0 -1
  outer loop
   vertex 0.0988333 0.024687 -1
   vertex 0.0993214 0.026092 -1
   vertex 0.099688 0.025568 -1
  endloop
 endfacet
 facet normal 0 0 -1
  outer loop
   vertex 0.0988333 0.024687 -1
   vertex 0.099688 0.025568 -1
   vertex 0.0991677 0.0241607 -1
  endloop
 endfacet
 facet normal 0 0 -1
  outer loop
   vertex 0.0991677 0.0241607 -1
   vertex 0.099688 0.025568 -1
   vertex 0.100038 0.0250329 -1
  endloop
 endfacet
 facet normal 0 0 -1
  outer loop
   vertex 0.0991677 0.0241607 -1
   vertex 0.100038 0.0250329 -1
   vertex 0.0994849 0.023624 -1
  endloop
 endfacet
 facet normal 0 0 -1
  outer loop
   vertex 0.0994849 0.023624 -1
   vertex 0.100038 0.0250329 -1
   vertex 0.100372 0.0244872 -1
  endloop
 endfacet
 facet normal 0 0 -1
  outer loop
   vertex 0.0994849 0.023624 -1
   vertex 0.100372 0.0244872 -1
   vertex 0.100688 0.0239314 -1
  endloop
 endfacet
 facet normal -0 0 1
  outer loop
   vertex 0.0822656 0.0346204 1
   vertex 0.0822726 0.0342205 1
   vertex 0.0829051 0.0346216 1
  endloop
 endfacet
 facet normal 0 0 1
  outer loop
   vertex 0.0829051 0.0346216 1
   vertex 0.0822726 0.0342205 1
   vertex 0.0831039 0.0334176 1
  endloop
 endfacet
 facet normal 0 0 1
  outer loop
   vertex 0.0829051 0.0346216 1
   vertex 0.0831039 0.0334176 1
   vertex 0.0835443 0.034603 1
  endloop
 endfacet
 facet normal 0 0 1
  outer loop
   vertex 0.0835443 0.034603 1
   vertex 0.0831039 0.0334176 1
   vertex 0.0837269 0.0333922 1
  endloop
 endfacet
 facet normal 0 0 1
  outer loop
   vertex 0.0835443 0.034603 1
   vertex 0.0837269 0.0333922 1
   vertex 0.0841827 0.0345646 1
  endloop
 endfacet
 facet normal 0 0 1
  outer loop
   vertex 0.0841827 0.0345646 1
   vertex 0.0837269 0.0333922 1
   vertex 0.0843488 0.0333469 1
  endloop
 endfacet
 facet normal 0 0 1
  outer loop
   vertex 0.0841827 0.0345646 1
   vertex 0.0843488 0.0333469 1
   vertex 0.0848195 0.0345063 1
  endloop
 endfacet
 facet normal 0 0 1
  outer loop
   vertex 0.0848195 0.0345063 1
   vertex 0.0843488 0.0333469 1
   vertex 0.0849689 0.0332814 1
  endloop
 endfacet
 facet normal 0 0 1
  outer loop
   vertex 0.0848195 0.0345063 1
   vertex 0.0849689 0.0332814 1
   vertex 0.0854542 0.0344284 1
  endloop
 endfacet
 facet normal 0 0 1
  outer loop
   vertex 0.0854542 0.0344284 1
   vertex 0.0849689 0.0332814 1
   vertex 0.0855865 0.0331962 1
  endloop
 endfacet
 facet normal 0 0 1
  outer loop
   vertex 0.0854542 0.0344284 1
   vertex 0.0855865 0.0331962 1
   vertex 0.0860862 0.0343308 1
  endloop
 endfacet
 facet normal 0 0 1
  outer loop
   vertex 0.0860862 0.0343308 1
   vertex 0.0855865 0.0331962 1
   vertex 0.0862011 0.0330912 1
  endloop
 endfacet
 facet normal -0 0 1
  outer loop
   vertex 0.101789 0.0109852 1
   vertex 0.102184 0.0109226 1
   vertex 0.101877 0.0116025 1
  endloop
 endfacet
 facet normal 0 0 1
  outer loop
   vertex 0.101877 0.0116025 1
   vertex 0.102184 0.0109226 1
   vertex 0.103083 0.0115752 1
  endloop
 endfacet
 facet normal -0 0 1
  outer loop
   vertex 0.101877 0.0116025 1
   vertex 0.103083 0.0115752 1
   vertex 0.101945 0.0122224 1
  endloop
 endfacet
 facet normal 0 0 1
  outer loop
   vertex 0.101945 0.0122224 1
   vertex 0.103083 0.0115752 1
   vertex 0.103149 0.0122113 1
  endloop
 endfacet
 facet normal -0 0 1
  outer loop
   vertex 0.101945 0.0122224 1
   vertex 0.103149 0.0122113 1
   vertex 0.101992 0.012844 1
  endloop
 endfacet
 facet normal -0 0 1
  outer loop
   vertex 0.101992 0.012844 1
   vertex 0.103149 0.0122113 1
   vertex 0.103195 0.0128491 1
  endloop
 endfacet
 facet normal 0 0 1
  outer loop
   vertex 0.101992 0.012844 1
   vertex 0.103195 0.0128491 1
   vertex 0.10202 0.0134669 1
  endloop
 endfacet
 facet normal -0 0 1
  outer loop
   vertex 0.10202 0.0134669 1
   vertex 0.103195 0.0128491 1
   vertex 0.103221 0.0134881 1
  endloop
 endfacet
 facet normal 0 0 1
  outer loop
   vertex 0.10202 0.0134669 1
   vertex 0.103221 0.0134881 1
   vertex 0.102028 0.0140904 1
  endloop
 endfacet
 facet normal -0 0 1
  outer loop
   vertex 0.102028 0.0140904 1
   vertex 0.103221 0.0134881 1
   vertex 0.103228 0.0141275 1
  endloop
 endfacet
 facet normal 0 -0 1
  outer loop
   vertex 0.102028 0.0140904 1
   vertex 0.103228 0.0141275 1
   vertex 0.102016 0.0147138 1
  endloop
 endfacet
 facet normal -0 0 1
  outer loop
   vertex 0.102016 0.0147138 1
   vertex 0.103228 0.0141275 1
   vertex 0.103215 0.0147669 1
  endloop
 endfacet
 facet normal 0 -0 1
  outer loop
   vertex 0.102016 0.0147138 1
   vertex 0.103215 0.0147669 1
   vertex 0.101984 0.0153364 1
  endloop
 endfacet
 facet normal -0 0 1
  outer loop
   vertex 0.101984 0.0153364 1
   vertex 0.103215 0.0147669 1
   vertex 0.103182 0.0154056 1
  endloop
 endfacet
 facet normal 0 -0 1
  outer loop
   vertex 0.101984 0.0153364 1
   vertex 0.103182 0.0154056 1
   vertex 0.101931 0.0159577 1
  endloop
 endfacet
 facet normal -0 0 1
  outer loop
   vertex 0.101931 0.0159577 1
   vertex 0.103182 0.0154056 1
   vertex 0.103129 0.0160428 1
  endloop
 endfacet
 facet normal 0 -0 1
  outer loop
   vertex 0.101931 0.0159577 1
   vertex 0.103129 0.0160428 1
   vertex 0.101859 0.0165771 1
  endloop
 endfacet
 facet normal -0 0 1
  outer loop
   vertex 0.101859 0.0165771 1
   vertex 0.103129 0.0160428 1
   vertex 0.103056 0.0166782 1
  endloop
 endfacet
 facet normal 0 -0 1
  outer loop
   vertex 0.101859 0.0165771 1
   vertex 0.103056 0.0166782 1
   vertex 0.101767 0.0171937 1
  endloop
 endfacet
 facet normal -0 0 1
  outer loop
   vertex 0.101767 0.0171937 1
   vertex 0.103056 0.0166782 1
   vertex 0.102964 0.017311 1
  endloop
 endfacet
 facet normal 0 -0 1
  outer loop
   vertex 0.101767 0.0171937 1
   vertex 0.102964 0.017311 1
   vertex 0.101655 0.0178071 1
  endloop
 endfacet
 facet normal -0 0 1
  outer loop
   vertex 0.101655 0.0178071 1
   vertex 0.102964 0.017311 1
   vertex 0.102852 0.0179407 1
  endloop
 endfacet
 facet normal 0 -0 1
  outer loop
   vertex 0.101655 0.0178071 1
   vertex 0.102852 0.0179407 1
   vertex 0.101524 0.0184166 1
  endloop
 endfacet
 facet normal -0 0 1
  outer loop
   vertex 0.101524 0.0184166 1
   vertex 0.102852 0.0179407 1
   vertex 0.10272 0.0185665 1
  endloop
 endfacet
 facet normal 0 -0 1
  outer loop
   vertex 0.101524 0.0184166 1
   vertex 0.10272 0.0185665 1
   vertex 0.101373 0.0190215 1
  endloop
 endfacet
 facet normal -0 0 1
  outer loop
   vertex 0.101373 0.0190215 1
   vertex 0.10272 0.0185665 1
   vertex 0.10257 0.019188 1
  endloop
 endfacet
 facet normal 0 -0 1
  outer loop
   vertex 0.101373 0.0190215 1
   vertex 0.10257 0.019188 1
   vertex 0.101202 0.0196213 1
  endloop
 endfacet
 facet normal -0 0 1
  outer loop
   vertex 0.101202 0.0196213 1
   vertex 0.10257 0.019188 1
   vertex 0.1024 0.0198044 1
  endloop
 endfacet
 facet normal 0 -0 1
  outer loop
   vertex 0.101202 0.0196213 1
   vertex 0.1024 0.0198044 1
   vertex 0.101013 0.0202153 1
  endloop
 endfacet
 facet normal -0 0 1
  outer loop
   vertex 0.101013 0.0202153 1
   vertex 0.1024 0.0198044 1
   vertex 0.102211 0.0204154 1
  endloop
 endfacet
 facet normal 0 -0 1
  outer loop
   vertex 0.101013 0.0202153 1
   vertex 0.102211 0.0204154 1
   vertex 0.100804 0.0208029 1
  endloop
 endfacet
 facet normal -0 0 1
  outer loop
   vertex 0.100804 0.0208029 1
   vertex 0.102211 0.0204154 1
   vertex 0.102003 0.0210201 1
  endloop
 endfacet
 facet normal 0 -0 1
  outer loop
   vertex 0.100804 0.0208029 1
   vertex 0.102003 0.0210201 1
   vertex 0.100577 0.0213835 1
  endloop
 endfacet
 facet normal -0 0 1
  outer loop
   vertex 0.100577 0.0213835 1
   vertex 0.102003 0.0210201 1
   vertex 0.101776 0.0216182 1
  endloop
 endfacet
 facet normal 0 -0 1
  outer loop
   vertex 0.100577 0.0213835 1
   vertex 0.101776 0.0216182 1
   vertex 0.100331 0.0219565 1
  endloop
 endfacet
 facet normal -0 0 1
  outer loop
   vertex 0.100331 0.0219565 1
   vertex 0.101776 0.0216182 1
   vertex 0.101531 0.0222088 1
  endloop
 endfacet
 facet normal 0 -0 1
  outer loop
   vertex 0.100331 0.0219565 1
   vertex 0.101531 0.0222088 1
   vertex 0.100067 0.0225213 1
  endloop
 endfacet
 facet normal -0 0 1
  outer loop
   vertex 0.100067 0.0225213 1
   vertex 0.101531 0.0222088 1
   vertex 0.101268 0.0227917 1
  endloop
 endfacet
 facet normal 0 -0 1
  outer loop
   vertex 0.100067 0.0225213 1
   vertex 0.101268 0.0227917 1
   vertex 0.0997848 0.0230773 1
  endloop
 endfacet
 facet normal 0 0 1
  outer loop
   vertex 0.101268 0.0227917 1
   vertex 0.100987 0.023366 1
   vertex 0.0997848 0.0230773 1
  endloop
 endfacet
 facet normal 0 0 1
  outer loop
   vertex 0.0997848 0.0230773 1
   vertex 0.100987 0.023366 1
   vertex 0.100688 0.0239314 1
  endloop
 endfacet
 facet normal 0 -0 1
  outer loop
   vertex 0.0997848 0.0230773 1
   vertex 0.100688 0.0239314 1
   vertex 0.0994849 0.023624 1
  endloop
 endfacet
 facet normal 0 0 1
  outer loop
   vertex 0.0994849 0.023624 1
   vertex 0.100688 0.0239314 1
   vertex 0.100372 0.0244872 1
  endloop
 endfacet
 facet normal 0 -0 1
  outer loop
   vertex 0.0994849 0.023624 1
   vertex 0.100372 0.0244872 1
   vertex 0.0991677 0.0241607 1
  endloop
 endfacet
 facet normal 0 0 1
  outer loop
   vertex 0.0991677 0.0241607 1
   vertex 0.100372 0.0244872 1
   vertex 0.100038 0.0250329 1
  endloop
 endfacet
 facet normal 0 -0 1
  outer loop
   vertex 0.0991677 0.0241607 1
   vertex 0.100038 0.0250329 1
   vertex 0.0988333 0.024687 1
  endloop
 endfacet
 facet normal 0 0 1
  outer loop
   vertex 0.0988333 0.024687 1
   vertex 0.100038 0.0250329 1
   vertex 0.099688 0.025568 1
  endloop
 endfacet
 facet normal 0 -0 1
  outer loop
   vertex 0.0988333 0.024687 1
   vertex 0.099688 0.025568 1
   vertex 0.0984822 0.0252023 1
  endloop
 endfacet
 facet normal 0 0 1
  outer loop
   vertex 0.0984822 0.0252023 1
   vertex 0.099688 0.025568 1
   vertex 0.0993214 0.026092 1
  endloop
 endfacet
 facet normal 0 -0 1
  outer loop
   vertex 0.0984822 0.0252023 1
   vertex 0.0993214 0.026092 1
   vertex 0.0981148 0.025706 1
  endloop
 endfacet
 facet normal 0 0 1
  outer loop
   vertex 0.0981148 0.025706 1
   vertex 0.0993214 0.026092 1
   vertex 0.0989387 0.0266043 1
  endloop
 endfacet
 facet normal 0 -0 1
  outer loop
   vertex 0.0981148 0.025706 1
   vertex 0.0989387 0.0266043 1
   vertex 0.0977313 0.0261976 1
  endloop
 endfacet
 facet normal 0 0 1
  outer loop
   vertex 0.0977313 0.0261976 1
   vertex 0.0989387 0.0266043 1
   vertex 0.0985403 0.0271046 1
  endloop
 endfacet
 facet normal 0 -0 1
  outer loop
   vertex 0.0977313 0.0261976 1
   vertex 0.0985403 0.0271046 1
   vertex 0.0973323 0.0266767 1
  endloop
 endfacet
 facet normal 0 0 1
  outer loop
   vertex 0.0973323 0.0266767 1
   vertex 0.0985403 0.0271046 1
   vertex 0.0981266 0.0275922 1
  endloop
 endfacet
 facet normal 0 -0 1
  outer loop
   vertex 0.0973323 0.0266767 1
   vertex 0.0981266 0.0275922 1
   vertex 0.096918 0.0271427 1
  endloop
 endfacet
 facet normal 0 0 1
  outer loop
   vertex 0.096918 0.0271427 1
   vertex 0.0981266 0.0275922 1
   vertex 0.0976979 0.0280668 1
  endloop
 endfacet
 facet normal 0 -0 1
  outer loop
   vertex 0.096918 0.0271427 1
   vertex 0.0976979 0.0280668 1
   vertex 0.096489 0.0275952 1
  endloop
 endfacet
 facet normal 0 0 1
  outer loop
   vertex 0.096489 0.0275952 1
   vertex 0.0976979 0.0280668 1
   vertex 0.0972547 0.0285278 1
  endloop
 endfacet
 facet normal 0 -0 1
  outer loop
   vertex 0.096489 0.0275952 1
   vertex 0.0972547 0.0285278 1
   vertex 0.0960457 0.0280336 1
  endloop
 endfacet
 facet normal 0 0 1
  outer loop
   vertex 0.0960457 0.0280336 1
   vertex 0.0972547 0.0285278 1
   vertex 0.0967974 0.0289748 1
  endloop
 endfacet
 facet normal 0 -0 1
  outer loop
   vertex 0.0960457 0.0280336 1
   vertex 0.0967974 0.0289748 1
   vertex 0.0955885 0.0284576 1
  endloop
 endfacet
 facet normal 0 0 1
  outer loop
   vertex 0.0955885 0.0284576 1
   vertex 0.0967974 0.0289748 1
   vertex 0.0963265 0.0294075 1
  endloop
 endfacet
 facet normal 0 -0 1
  outer loop
   vertex 0.0955885 0.0284576 1
   vertex 0.0963265 0.0294075 1
   vertex 0.095118 0.0288667 1
  endloop
 endfacet
 facet normal 0 0 1
  outer loop
   vertex 0.095118 0.0288667 1
   vertex 0.0963265 0.0294075 1
   vertex 0.0958424 0.0298253 1
  endloop
 endfacet
 facet normal 0 -0 1
  outer loop
   vertex 0.095118 0.0288667 1
   vertex 0.0958424 0.0298253 1
   vertex 0.0946345 0.0292604 1
  endloop
 endfacet
 facet normal 0 0 1
  outer loop
   vertex 0.0946345 0.0292604 1
   vertex 0.0958424 0.0298253 1
   vertex 0.0953455 0.0302279 1
  endloop
 endfacet
 facet normal 0 -0 1
  outer loop
   vertex 0.0946345 0.0292604 1
   vertex 0.0953455 0.0302279 1
   vertex 0.0941386 0.0296384 1
  endloop
 endfacet
 facet normal 0 0 1
  outer loop
   vertex 0.0941386 0.0296384 1
   vertex 0.0953455 0.0302279 1
   vertex 0.0948364 0.0306149 1
  endloop
 endfacet
 facet normal 0 -0 1
  outer loop
   vertex 0.0941386 0.0296384 1
   vertex 0.0948364 0.0306149 1
   vertex 0.0936309 0.0300002 1
  endloop
 endfacet
 facet normal 0 0 1
  outer loop
   vertex 0.0936309 0.0300002 1
   vertex 0.0948364 0.0306149 1
   vertex 0.0943155 0.0309858 1
  endloop
 endfacet
 facet normal 0 -0 1
  outer loop
   vertex 0.0936309 0.0300002 1
   vertex 0.0943155 0.0309858 1
   vertex 0.0931118 0.0303456 1
  endloop
 endfacet
 facet normal 0 0 1
  outer loop
   vertex 0.0931118 0.0303456 1
   vertex 0.0943155 0.0309858 1
   vertex 0.0937833 0.0313405 1
  endloop
 endfacet
 facet normal 0 -0 1
  outer loop
   vertex 0.0931118 0.0303456 1
   vertex 0.0937833 0.0313405 1
   vertex 0.0925818 0.0306741 1
  endloop
 endfacet
 facet normal 0 0 1
  outer loop
   vertex 0.0925818 0.0306741 1
   vertex 0.0937833 0.0313405 1
   vertex 0.0932404 0.0316784 1
  endloop
 endfacet
 facet normal 0 -0 1
  outer loop
   vertex 0.0925818 0.0306741 1
   vertex 0.0932404 0.0316784 1
   vertex 0.0920416 0.0309854 1
  endloop
 endfacet
 facet normal 0 0 1
  outer loop
   vertex 0.0920416 0.0309854 1
   vertex 0.0932404 0.0316784 1
   vertex 0.0926873 0.0319994 1
  endloop
 endfacet
 facet normal 0 -0 1
  outer loop
   vertex 0.0920416 0.0309854 1
   vertex 0.0926873 0.0319994 1
   vertex 0.0914917 0.0312792 1
  endloop
 endfacet
 facet normal 0 0 1
  outer loop
   vertex 0.0914917 0.0312792 1
   vertex 0.0926873 0.0319994 1
   vertex 0.0921244 0.032303 1
  endloop
 endfacet
 facet normal 0 -0 1
  outer loop
   vertex 0.0914917 0.0312792 1
   vertex 0.0921244 0.032303 1
   vertex 0.0909326 0.0315552 1
  endloop
 endfacet
 facet normal 0 0 1
  outer loop
   vertex 0.0909326 0.0315552 1
   vertex 0.0921244 0.032303 1
   vertex 0.0915525 0.032589 1
  endloop
 endfacet
 facet normal 0 -0 1
  outer loop
   vertex 0.0909326 0.0315552 1
   vertex 0.0915525 0.032589 1
   vertex 0.0903649 0.0318131 1
  endloop
 endfacet
 facet normal 0 0 1
  outer loop
   vertex 0.0903649 0.0318131 1
   vertex 0.0915525 0.032589 1
   vertex 0.0909719 0.0328571 1
  endloop
 endfacet
 facet normal 0 -0 1
  outer loop
   vertex 0.0903649 0.0318131 1
   vertex 0.0909719 0.0328571 1
   vertex 0.0897892 0.0320525 1
  endloop
 endfacet
 facet normal 0 0 1
  outer loop
   vertex 0.0897892 0.0320525 1
   vertex 0.0909719 0.0328571 1
   vertex 0.0903833 0.0331071 1
  endloop
 endfacet
 facet normal 0 -0 1
  outer loop
   vertex 0.0897892 0.0320525 1
   vertex 0.0903833 0.0331071 1
   vertex 0.0892061 0.0322734 1
  endloop
 endfacet
 facet normal 0 0 1
  outer loop
   vertex 0.0892061 0.0322734 1
   vertex 0.0903833 0.0331071 1
   vertex 0.0897872 0.0333387 1
  endloop
 endfacet
 facet normal 0 -0 1
  outer loop
   vertex 0.0892061 0.0322734 1
   vertex 0.0897872 0.0333387 1
   vertex 0.0886163 0.0324754 1
  endloop
 endfacet
 facet normal 0 0 1
  outer loop
   vertex 0.0886163 0.0324754 1
   vertex 0.0897872 0.0333387 1
   vertex 0.0891842 0.0335516 1
  endloop
 endfacet
 facet normal 0 -0 1
  outer loop
   vertex 0.0886163 0.0324754 1
   vertex 0.0891842 0.0335516 1
   vertex 0.0880202 0.0326584 1
  endloop
 endfacet
 facet normal 0 0 1
  outer loop
   vertex 0.0880202 0.0326584 1
   vertex 0.0891842 0.0335516 1
   vertex 0.0885749 0.0337458 1
  endloop
 endfacet
 facet normal 0 -0 1
  outer loop
   vertex 0.0880202 0.0326584 1
   vertex 0.0885749 0.0337458 1
   vertex 0.0874186 0.0328221 1
  endloop
 endfacet
 facet normal 0 0 1
  outer loop
   vertex 0.0874186 0.0328221 1
   vertex 0.0885749 0.0337458 1
   vertex 0.0879598 0.0339209 1
  endloop
 endfacet
 facet normal 0 -0 1
  outer loop
   vertex 0.0874186 0.0328221 1
   vertex 0.0879598 0.0339209 1
   vertex 0.086812 0.0329665 1
  endloop
 endfacet
 facet normal 0 0 1
  outer loop
   vertex 0.086812 0.0329665 1
   vertex 0.0879598 0.0339209 1
   vertex 0.0873396 0.0340769 1
  endloop
 endfacet
 facet normal 0 -0 1
  outer loop
   vertex 0.086812 0.0329665 1
   vertex 0.0873396 0.0340769 1
   vertex 0.0862011 0.0330912 1
  endloop
 endfacet
 facet normal 0 0 1
  outer loop
   vertex 0.0862011 0.0330912 1
   vertex 0.0873396 0.0340769 1
   vertex 0.0867149 0.0342136 1
  endloop
 endfacet
 facet normal 0 -0 1
  outer loop
   vertex 0.0862011 0.0330912 1
   vertex 0.0867149 0.0342136 1
   vertex 0.0860862 0.0343308 1
  endloop
 endfacet
 facet normal 0.587453 -0.809258 0
  outer loop
   vertex 0.103083 0.0115752 1
   vertex 0.102184 0.0109226 1
   vertex 0.103083 0.0115752 -1
  endloop
 endfacet
 facet normal 0.587453 -0.809258 0
  outer loop
   vertex 0.103083 0.0115752 -1
   vertex 0.102184 0.0109226 1
   vertex 0.102184 0.0109226 -1
  endloop
 endfacet
 facet normal -0.694711 -0.719289 -0
  outer loop
   vertex 0.0831039 0.0334176 1
   vertex 0.0822726 0.0342205 1
   vertex 0.0831039 0.0334176 -1
  endloop
 endfacet
 facet normal -0.694711 -0.719289 0
  outer loop
   vertex 0.0831039 0.0334176 -1
   vertex 0.0822726 0.0342205 1
   vertex 0.0822726 0.0342205 -1
  endloop
 endfacet
endsolid tunner_vane
