solid tunner_vane
 facet normal -0.00193711 0.999998 0
  outer loop
   vertex 1.01483 0.423602 -1
   vertex 1.01483 0.423602 1
   vertex 1.01803 0.423608 1
  endloop
 endfacet
 facet normal -0.00193711 0.999998 0
  outer loop
   vertex 1.01483 0.423602 -1
   vertex 1.01803 0.423608 1
   vertex 1.01803 0.423608 -1
  endloop
 endfacet
 facet normal 0.0291425 0.999575 -0
  outer loop
   vertex 1.01803 0.423608 -1
   vertex 1.01803 0.423608 1
   vertex 1.02122 0.423515 1
  endloop
 endfacet
 facet normal 0.0291425 0.999575 0
  outer loop
   vertex 1.01803 0.423608 -1
   vertex 1.02122 0.423515 1
   vertex 1.02122 0.423515 -1
  endloop
 endfacet
 facet normal 0.0601406 0.99819 -0
  outer loop
   vertex 1.02122 0.423515 -1
   vertex 1.02122 0.423515 1
   vertex 1.02441 0.423323 1
  endloop
 endfacet
 facet normal 0.0601406 0.99819 0
  outer loop
   vertex 1.02122 0.423515 -1
   vertex 1.02441 0.423323 1
   vertex 1.02441 0.423323 -1
  endloop
 endfacet
 facet normal 0.0909057 0.99586 -0
  outer loop
   vertex 1.02441 0.423323 -1
   vertex 1.02441 0.423323 1
   vertex 1.0276 0.423032 1
  endloop
 endfacet
 facet normal 0.0909057 0.99586 0
  outer loop
   vertex 1.02441 0.423323 -1
   vertex 1.0276 0.423032 1
   vertex 1.0276 0.423032 -1
  endloop
 endfacet
 facet normal 0.122081 0.99252 -0
  outer loop
   vertex 1.0276 0.423032 -1
   vertex 1.0276 0.423032 1
   vertex 1.03077 0.422642 1
  endloop
 endfacet
 facet normal 0.122081 0.99252 0
  outer loop
   vertex 1.0276 0.423032 -1
   vertex 1.03077 0.422642 1
   vertex 1.03077 0.422642 -1
  endloop
 endfacet
 facet normal 0.152652 0.98828 -0
  outer loop
   vertex 1.03077 0.422642 -1
   vertex 1.03077 0.422642 1
   vertex 1.03393 0.422154 1
  endloop
 endfacet
 facet normal 0.152652 0.98828 0
  outer loop
   vertex 1.03077 0.422642 -1
   vertex 1.03393 0.422154 1
   vertex 1.03393 0.422154 -1
  endloop
 endfacet
 facet normal 0.183482 0.983023 -0
  outer loop
   vertex 1.03393 0.422154 -1
   vertex 1.03393 0.422154 1
   vertex 1.03707 0.421568 1
  endloop
 endfacet
 facet normal 0.183482 0.983023 0
  outer loop
   vertex 1.03393 0.422154 -1
   vertex 1.03707 0.421568 1
   vertex 1.03707 0.421568 -1
  endloop
 endfacet
 facet normal 0.213256 0.976996 -0
  outer loop
   vertex 1.03707 0.421568 -1
   vertex 1.03707 0.421568 1
   vertex 1.0402 0.420884 1
  endloop
 endfacet
 facet normal 0.213256 0.976996 0
  outer loop
   vertex 1.03707 0.421568 -1
   vertex 1.0402 0.420884 1
   vertex 1.0402 0.420884 -1
  endloop
 endfacet
 facet normal 0.243974 0.969782 -0
  outer loop
   vertex 1.0402 0.420884 -1
   vertex 1.0402 0.420884 1
   vertex 1.0433 0.420105 1
  endloop
 endfacet
 facet normal 0.243974 0.969782 0
  outer loop
   vertex 1.0402 0.420884 -1
   vertex 1.0433 0.420105 1
   vertex 1.0433 0.420105 -1
  endloop
 endfacet
 facet normal 0.274333 0.961635 -0
  outer loop
   vertex 1.0433 0.420105 -1
   vertex 1.0433 0.420105 1
   vertex 1.04637 0.419229 1
  endloop
 endfacet
 facet normal 0.274333 0.961635 0
  outer loop
   vertex 1.0433 0.420105 -1
   vertex 1.04637 0.419229 1
   vertex 1.04637 0.419229 -1
  endloop
 endfacet
 facet normal 0.303277 0.952903 -0
  outer loop
   vertex 1.04637 0.419229 -1
   vertex 1.04637 0.419229 1
   vertex 1.04942 0.418258 1
  endloop
 endfacet
 facet normal 0.303277 0.952903 0
  outer loop
   vertex 1.04637 0.419229 -1
   vertex 1.04942 0.418258 1
   vertex 1.04942 0.418258 -1
  endloop
 endfacet
 facet normal 0.332515 0.943098 -0
  outer loop
   vertex 1.04942 0.418258 -1
   vertex 1.04942 0.418258 1
   vertex 1.05244 0.417193 1
  endloop
 endfacet
 facet normal 0.332515 0.943098 0
  outer loop
   vertex 1.04942 0.418258 -1
   vertex 1.05244 0.417193 1
   vertex 1.05244 0.417193 -1
  endloop
 endfacet
 facet normal 0.362178 0.932109 -0
  outer loop
   vertex 1.05244 0.417193 -1
   vertex 1.05244 0.417193 1
   vertex 1.05542 0.416035 1
  endloop
 endfacet
 facet normal 0.362178 0.932109 0
  outer loop
   vertex 1.05244 0.417193 -1
   vertex 1.05542 0.416035 1
   vertex 1.05542 0.416035 -1
  endloop
 endfacet
 facet normal 0.391254 0.920283 -0
  outer loop
   vertex 1.05542 0.416035 -1
   vertex 1.05542 0.416035 1
   vertex 1.05836 0.414785 1
  endloop
 endfacet
 facet normal 0.391254 0.920283 0
  outer loop
   vertex 1.05542 0.416035 -1
   vertex 1.05836 0.414785 1
   vertex 1.05836 0.414785 -1
  endloop
 endfacet
 facet normal 0.419609 0.907705 -0
  outer loop
   vertex 1.05836 0.414785 -1
   vertex 1.05836 0.414785 1
   vertex 1.06126 0.413445 1
  endloop
 endfacet
 facet normal 0.419609 0.907705 0
  outer loop
   vertex 1.05836 0.414785 -1
   vertex 1.06126 0.413445 1
   vertex 1.06126 0.413445 -1
  endloop
 endfacet
 facet normal 0.447205 0.894431 -0
  outer loop
   vertex 1.06126 0.413445 -1
   vertex 1.06126 0.413445 1
   vertex 1.06412 0.412015 1
  endloop
 endfacet
 facet normal 0.447205 0.894431 0
  outer loop
   vertex 1.06126 0.413445 -1
   vertex 1.06412 0.412015 1
   vertex 1.06412 0.412015 -1
  endloop
 endfacet
 facet normal 0.474026 0.880511 -0
  outer loop
   vertex 1.06412 0.412015 -1
   vertex 1.06412 0.412015 1
   vertex 1.06694 0.410497 1
  endloop
 endfacet
 facet normal 0.474026 0.880511 0
  outer loop
   vertex 1.06412 0.412015 -1
   vertex 1.06694 0.410497 1
   vertex 1.06694 0.410497 -1
  endloop
 endfacet
 facet normal 0.502624 0.864505 -0
  outer loop
   vertex 1.06694 0.410497 -1
   vertex 1.06694 0.410497 1
   vertex 1.0697 0.408892 1
  endloop
 endfacet
 facet normal 0.502624 0.864505 0
  outer loop
   vertex 1.06694 0.410497 -1
   vertex 1.0697 0.408892 1
   vertex 1.0697 0.408892 -1
  endloop
 endfacet
 facet normal 0.527706 0.849427 -0
  outer loop
   vertex 1.0697 0.408892 -1
   vertex 1.0697 0.408892 1
   vertex 1.07242 0.407202 1
  endloop
 endfacet
 facet normal 0.527706 0.849427 0
  outer loop
   vertex 1.0697 0.408892 -1
   vertex 1.07242 0.407202 1
   vertex 1.07242 0.407202 -1
  endloop
 endfacet
 facet normal 0.554666 0.832073 -0
  outer loop
   vertex 1.07242 0.407202 -1
   vertex 1.07242 0.407202 1
   vertex 1.07508 0.405429 1
  endloop
 endfacet
 facet normal 0.554666 0.832073 0
  outer loop
   vertex 1.07242 0.407202 -1
   vertex 1.07508 0.405429 1
   vertex 1.07508 0.405429 -1
  endloop
 endfacet
 facet normal 0.58078 0.814061 -0
  outer loop
   vertex 1.07508 0.405429 -1
   vertex 1.07508 0.405429 1
   vertex 1.07768 0.403574 1
  endloop
 endfacet
 facet normal 0.58078 0.814061 0
  outer loop
   vertex 1.07508 0.405429 -1
   vertex 1.07768 0.403574 1
   vertex 1.07768 0.403574 -1
  endloop
 endfacet
 facet normal 0.604468 0.796629 -0
  outer loop
   vertex 1.07768 0.403574 -1
   vertex 1.07768 0.403574 1
   vertex 1.08023 0.401639 1
  endloop
 endfacet
 facet normal 0.604468 0.796629 0
  outer loop
   vertex 1.07768 0.403574 -1
   vertex 1.08023 0.401639 1
   vertex 1.08023 0.401639 -1
  endloop
 endfacet
 facet normal 0.630173 0.776455 -0
  outer loop
   vertex 1.08023 0.401639 -1
   vertex 1.08023 0.401639 1
   vertex 1.08271 0.399626 1
  endloop
 endfacet
 facet normal 0.630173 0.776455 0
  outer loop
   vertex 1.08023 0.401639 -1
   vertex 1.08271 0.399626 1
   vertex 1.08271 0.399626 -1
  endloop
 endfacet
 facet normal 0.653466 0.756956 -0
  outer loop
   vertex 1.08271 0.399626 -1
   vertex 1.08271 0.399626 1
   vertex 1.08513 0.397537 1
  endloop
 endfacet
 facet normal 0.653466 0.756956 0
  outer loop
   vertex 1.08271 0.399626 -1
   vertex 1.08513 0.397537 1
   vertex 1.08513 0.397537 -1
  endloop
 endfacet
 facet normal 0.675704 0.737173 -0
  outer loop
   vertex 1.08513 0.397537 -1
   vertex 1.08513 0.397537 1
   vertex 1.08749 0.395374 1
  endloop
 endfacet
 facet normal 0.675704 0.737173 0
  outer loop
   vertex 1.08513 0.397537 -1
   vertex 1.08749 0.395374 1
   vertex 1.08749 0.395374 -1
  endloop
 endfacet
 facet normal 0.700057 0.714087 -0
  outer loop
   vertex 1.08749 0.395374 -1
   vertex 1.08749 0.395374 1
   vertex 1.08977 0.393139 1
  endloop
 endfacet
 facet normal 0.700057 0.714087 0
  outer loop
   vertex 1.08749 0.395374 -1
   vertex 1.08977 0.393139 1
   vertex 1.08977 0.393139 -1
  endloop
 endfacet
 facet normal 0.720272 0.693692 -0
  outer loop
   vertex 1.08977 0.393139 -1
   vertex 1.08977 0.393139 1
   vertex 1.09199 0.390834 1
  endloop
 endfacet
 facet normal 0.720272 0.693692 0
  outer loop
   vertex 1.08977 0.393139 -1
   vertex 1.09199 0.390834 1
   vertex 1.09199 0.390834 -1
  endloop
 endfacet
 facet normal 0.74259 0.669747 -0
  outer loop
   vertex 1.09199 0.390834 -1
   vertex 1.09199 0.390834 1
   vertex 1.09413 0.388461 1
  endloop
 endfacet
 facet normal 0.74259 0.669747 0
  outer loop
   vertex 1.09199 0.390834 -1
   vertex 1.09413 0.388461 1
   vertex 1.09413 0.388461 -1
  endloop
 endfacet
 facet normal 0.762315 0.647206 -0
  outer loop
   vertex 1.09413 0.388461 -1
   vertex 1.09413 0.388461 1
   vertex 1.0962 0.386023 1
  endloop
 endfacet
 facet normal 0.762315 0.647206 0
  outer loop
   vertex 1.09413 0.388461 -1
   vertex 1.0962 0.386023 1
   vertex 1.0962 0.386023 -1
  endloop
 endfacet
 facet normal 0.782545 0.622595 -0
  outer loop
   vertex 1.0962 0.386023 -1
   vertex 1.0962 0.386023 1
   vertex 1.09819 0.383522 1
  endloop
 endfacet
 facet normal 0.782545 0.622595 0
  outer loop
   vertex 1.0962 0.386023 -1
   vertex 1.09819 0.383522 1
   vertex 1.09819 0.383522 -1
  endloop
 endfacet
 facet normal 0.800187 0.599751 -0
  outer loop
   vertex 1.09819 0.383522 -1
   vertex 1.09819 0.383522 1
   vertex 1.10011 0.38096 1
  endloop
 endfacet
 facet normal 0.800187 0.599751 0
  outer loop
   vertex 1.09819 0.383522 -1
   vertex 1.10011 0.38096 1
   vertex 1.10011 0.38096 -1
  endloop
 endfacet
 facet normal 0.819812 0.572633 -0
  outer loop
   vertex 1.10011 0.38096 -1
   vertex 1.10011 0.38096 1
   vertex 1.10194 0.37834 1
  endloop
 endfacet
 facet normal 0.819812 0.572633 0
  outer loop
   vertex 1.10011 0.38096 -1
   vertex 1.10194 0.37834 1
   vertex 1.10194 0.37834 -1
  endloop
 endfacet
 facet normal 0.836891 0.54737 -0
  outer loop
   vertex 1.10194 0.37834 -1
   vertex 1.10194 0.37834 1
   vertex 1.10369 0.375664 1
  endloop
 endfacet
 facet normal 0.836891 0.54737 0
  outer loop
   vertex 1.10194 0.37834 -1
   vertex 1.10369 0.375664 1
   vertex 1.10369 0.375664 -1
  endloop
 endfacet
 facet normal 0.852931 0.522023 -0
  outer loop
   vertex 1.10369 0.375664 -1
   vertex 1.10369 0.375664 1
   vertex 1.10536 0.372936 1
  endloop
 endfacet
 facet normal 0.852931 0.522023 0
  outer loop
   vertex 1.10369 0.375664 -1
   vertex 1.10536 0.372936 1
   vertex 1.10536 0.372936 -1
  endloop
 endfacet
 facet normal 0.869324 0.494243 -0
  outer loop
   vertex 1.10536 0.372936 -1
   vertex 1.10536 0.372936 1
   vertex 1.10694 0.370157 1
  endloop
 endfacet
 facet normal 0.869324 0.494243 0
  outer loop
   vertex 1.10536 0.372936 -1
   vertex 1.10694 0.370157 1
   vertex 1.10694 0.370157 -1
  endloop
 endfacet
 facet normal 0.884627 0.4663 -0
  outer loop
   vertex 1.10694 0.370157 -1
   vertex 1.10694 0.370157 1
   vertex 1.10843 0.36733 1
  endloop
 endfacet
 facet normal 0.884627 0.4663 0
  outer loop
   vertex 1.10694 0.370157 -1
   vertex 1.10843 0.36733 1
   vertex 1.10843 0.36733 -1
  endloop
 endfacet
 facet normal 0.897643 0.440723 -0
  outer loop
   vertex 1.10843 0.36733 -1
   vertex 1.10843 0.36733 1
   vertex 1.10984 0.364458 1
  endloop
 endfacet
 facet normal 0.897643 0.440723 0
  outer loop
   vertex 1.10843 0.36733 -1
   vertex 1.10984 0.364458 1
   vertex 1.10984 0.364458 -1
  endloop
 endfacet
 facet normal 0.910899 0.412629 -0
  outer loop
   vertex 1.10984 0.364458 -1
   vertex 1.10984 0.364458 1
   vertex 1.11116 0.361544 1
  endloop
 endfacet
 facet normal 0.910899 0.412629 0
  outer loop
   vertex 1.10984 0.364458 -1
   vertex 1.11116 0.361544 1
   vertex 1.11116 0.361544 -1
  endloop
 endfacet
 facet normal 0.924256 0.381774 -0
  outer loop
   vertex 1.11116 0.361544 -1
   vertex 1.11116 0.361544 1
   vertex 1.11238 0.358591 1
  endloop
 endfacet
 facet normal 0.924256 0.381774 0
  outer loop
   vertex 1.11116 0.361544 -1
   vertex 1.11238 0.358591 1
   vertex 1.11238 0.358591 -1
  endloop
 endfacet
 facet normal 0.935434 0.353502 -0
  outer loop
   vertex 1.11238 0.358591 -1
   vertex 1.11238 0.358591 1
   vertex 1.11351 0.355601 1
  endloop
 endfacet
 facet normal 0.935434 0.353502 0
  outer loop
   vertex 1.11238 0.358591 -1
   vertex 1.11351 0.355601 1
   vertex 1.11351 0.355601 -1
  endloop
 endfacet
 facet normal 0.94563 0.325243 -0
  outer loop
   vertex 1.11351 0.355601 -1
   vertex 1.11351 0.355601 1
   vertex 1.11455 0.352577 1
  endloop
 endfacet
 facet normal 0.94563 0.325243 0
  outer loop
   vertex 1.11351 0.355601 -1
   vertex 1.11455 0.352577 1
   vertex 1.11455 0.352577 -1
  endloop
 endfacet
 facet normal 0.954887 0.296969 -0
  outer loop
   vertex 1.11455 0.352577 -1
   vertex 1.11455 0.352577 1
   vertex 1.1155 0.349522 1
  endloop
 endfacet
 facet normal 0.954887 0.296969 0
  outer loop
   vertex 1.11455 0.352577 -1
   vertex 1.1155 0.349522 1
   vertex 1.1155 0.349522 -1
  endloop
 endfacet
 facet normal 0.964014 0.265853 -0
  outer loop
   vertex 1.1155 0.349522 -1
   vertex 1.1155 0.349522 1
   vertex 1.11635 0.34644 1
  endloop
 endfacet
 facet normal 0.964014 0.265853 0
  outer loop
   vertex 1.1155 0.349522 -1
   vertex 1.11635 0.34644 1
   vertex 1.11635 0.34644 -1
  endloop
 endfacet
 facet normal 0.972091 0.234606 -0
  outer loop
   vertex 1.11635 0.34644 -1
   vertex 1.11635 0.34644 1
   vertex 1.1171 0.343332 1
  endloop
 endfacet
 facet normal 0.972091 0.234606 0
  outer loop
   vertex 1.11635 0.34644 -1
   vertex 1.1171 0.343332 1
   vertex 1.1171 0.343332 -1
  endloop
 endfacet
 facet normal 0.978478 0.206353 -0
  outer loop
   vertex 1.1171 0.343332 -1
   vertex 1.1171 0.343332 1
   vertex 1.11776 0.340203 1
  endloop
 endfacet
 facet normal 0.978478 0.206353 0
  outer loop
   vertex 1.1171 0.343332 -1
   vertex 1.11776 0.340203 1
   vertex 1.11776 0.340203 -1
  endloop
 endfacet
 facet normal 0.984542 0.175149 -0
  outer loop
   vertex 1.11776 0.340203 -1
   vertex 1.11776 0.340203 1
   vertex 1.11832 0.337055 1
  endloop
 endfacet
 facet normal 0.984542 0.175149 0
  outer loop
   vertex 1.11776 0.340203 -1
   vertex 1.11832 0.337055 1
   vertex 1.11832 0.337055 -1
  endloop
 endfacet
 facet normal 0.989595 0.143882 -0
  outer loop
   vertex 1.11832 0.337055 -1
   vertex 1.11832 0.337055 1
   vertex 1.11878 0.333891 1
  endloop
 endfacet
 facet normal 0.989595 0.143882 0
  outer loop
   vertex 1.11832 0.337055 -1
   vertex 1.11878 0.333891 1
   vertex 1.11878 0.333891 -1
  endloop
 endfacet
 facet normal 0.99364 0.112605 -0
  outer loop
   vertex 1.11878 0.333891 -1
   vertex 1.11878 0.333891 1
   vertex 1.11914 0.330714 1
  endloop
 endfacet
 facet normal 0.99364 0.112605 0
  outer loop
   vertex 1.11878 0.333891 -1
   vertex 1.11914 0.330714 1
   vertex 1.11914 0.330714 -1
  endloop
 endfacet
 facet normal 0.996429 0.0844327 -0
  outer loop
   vertex 1.11914 0.330714 -1
   vertex 1.11914 0.330714 1
   vertex 1.11941 0.327528 1
  endloop
 endfacet
 facet normal 0.996429 0.0844327 0
  outer loop
   vertex 1.11914 0.330714 -1
   vertex 1.11941 0.327528 1
   vertex 1.11941 0.327528 -1
  endloop
 endfacet
 facet normal 0.998747 0.0500355 -0
  outer loop
   vertex 1.11941 0.327528 -1
   vertex 1.11941 0.327528 1
   vertex 1.11957 0.324334 1
  endloop
 endfacet
 facet normal 0.998747 0.0500355 0
  outer loop
   vertex 1.11941 0.327528 -1
   vertex 1.11957 0.324334 1
   vertex 1.11957 0.324334 -1
  endloop
 endfacet
 facet normal 0.999761 0.0218841 -0
  outer loop
   vertex 1.11957 0.324334 -1
   vertex 1.11957 0.324334 1
   vertex 1.11964 0.321138 1
  endloop
 endfacet
 facet normal 0.999761 0.0218841 0
  outer loop
   vertex 1.11957 0.324334 -1
   vertex 1.11964 0.321138 1
   vertex 1.11964 0.321138 -1
  endloop
 endfacet
 facet normal 0.999956 -0.00939524 0
  outer loop
   vertex 1.11964 0.321138 -1
   vertex 1.11964 0.321138 1
   vertex 1.11961 0.31794 1
  endloop
 endfacet
 facet normal 0.999956 -0.00939524 0
  outer loop
   vertex 1.11964 0.321138 -1
   vertex 1.11961 0.31794 1
   vertex 1.11961 0.31794 -1
  endloop
 endfacet
 facet normal 0.999042 -0.0437655 0
  outer loop
   vertex 1.11961 0.31794 -1
   vertex 1.11961 0.31794 1
   vertex 1.11947 0.314746 1
  endloop
 endfacet
 facet normal 0.999042 -0.0437655 0
  outer loop
   vertex 1.11961 0.31794 -1
   vertex 1.11947 0.314746 1
   vertex 1.11947 0.314746 -1
  endloop
 endfacet
 facet normal 0.99741 -0.0719198 0
  outer loop
   vertex 1.11947 0.314746 -1
   vertex 1.11947 0.314746 1
   vertex 1.11924 0.311557 1
  endloop
 endfacet
 facet normal 0.99741 -0.0719198 0
  outer loop
   vertex 1.11947 0.314746 -1
   vertex 1.11924 0.311557 1
   vertex 1.11924 0.311557 -1
  endloop
 endfacet
 facet normal 0.994657 -0.103234 0
  outer loop
   vertex 1.11924 0.311557 -1
   vertex 1.11924 0.311557 1
   vertex 1.11891 0.308376 1
  endloop
 endfacet
 facet normal 0.994657 -0.103234 0
  outer loop
   vertex 1.11924 0.311557 -1
   vertex 1.11891 0.308376 1
   vertex 1.11891 0.308376 -1
  endloop
 endfacet
 facet normal -0.156861 -0.987621 -0
  outer loop
   vertex 1.11442 0.305113 1
   vertex 1.11245 0.305426 1
   vertex 1.11442 0.305113 -1
  endloop
 endfacet
 facet normal -0.156861 -0.987621 0
  outer loop
   vertex 1.11442 0.305113 -1
   vertex 1.11245 0.305426 1
   vertex 1.11245 0.305426 -1
  endloop
 endfacet
 facet normal -0.990436 0.137976 0
  outer loop
   vertex 1.11245 0.305426 -1
   vertex 1.11245 0.305426 1
   vertex 1.11288 0.308513 -1
  endloop
 endfacet
 facet normal -0.990436 0.137976 0
  outer loop
   vertex 1.11288 0.308513 -1
   vertex 1.11245 0.305426 1
   vertex 1.11288 0.308513 1
  endloop
 endfacet
 facet normal -0.994036 0.10905 0
  outer loop
   vertex 1.11288 0.308513 -1
   vertex 1.11288 0.308513 1
   vertex 1.11322 0.311612 -1
  endloop
 endfacet
 facet normal -0.994036 0.10905 0
  outer loop
   vertex 1.11322 0.311612 -1
   vertex 1.11288 0.308513 1
   vertex 1.11322 0.311612 1
  endloop
 endfacet
 facet normal -0.997033 0.0769734 0
  outer loop
   vertex 1.11322 0.311612 -1
   vertex 1.11322 0.311612 1
   vertex 1.11346 0.31472 -1
  endloop
 endfacet
 facet normal -0.997033 0.0769734 0
  outer loop
   vertex 1.11346 0.31472 -1
   vertex 1.11322 0.311612 1
   vertex 1.11346 0.31472 1
  endloop
 endfacet
 facet normal -0.99899 0.0449298 0
  outer loop
   vertex 1.11346 0.31472 -1
   vertex 1.11346 0.31472 1
   vertex 1.1136 0.317835 -1
  endloop
 endfacet
 facet normal -0.99899 0.0449298 0
  outer loop
   vertex 1.1136 0.317835 -1
   vertex 1.11346 0.31472 1
   vertex 1.1136 0.317835 1
  endloop
 endfacet
 facet normal -0.999918 0.0128098 0
  outer loop
   vertex 1.1136 0.317835 -1
   vertex 1.1136 0.317835 1
   vertex 1.11364 0.320952 -1
  endloop
 endfacet
 facet normal -0.999918 0.0128098 0
  outer loop
   vertex 1.11364 0.320952 -1
   vertex 1.1136 0.317835 1
   vertex 1.11364 0.320952 1
  endloop
 endfacet
 facet normal -0.999815 -0.0192342 0
  outer loop
   vertex 1.11364 0.320952 -1
   vertex 1.11364 0.320952 1
   vertex 1.11358 0.324069 -1
  endloop
 endfacet
 facet normal -0.999815 -0.0192342 0
  outer loop
   vertex 1.11358 0.324069 -1
   vertex 1.11364 0.320952 1
   vertex 1.11358 0.324069 1
  endloop
 endfacet
 facet normal -0.998682 -0.0513163 0
  outer loop
   vertex 1.11358 0.324069 -1
   vertex 1.11358 0.324069 1
   vertex 1.11342 0.327182 -1
  endloop
 endfacet
 facet normal -0.998682 -0.0513163 0
  outer loop
   vertex 1.11342 0.327182 -1
   vertex 1.11358 0.324069 1
   vertex 1.11342 0.327182 1
  endloop
 endfacet
 facet normal -0.996516 -0.0834024 0
  outer loop
   vertex 1.11342 0.327182 -1
   vertex 1.11342 0.327182 1
   vertex 1.11316 0.330289 -1
  endloop
 endfacet
 facet normal -0.996516 -0.0834024 0
  outer loop
   vertex 1.11316 0.330289 -1
   vertex 1.11342 0.327182 1
   vertex 1.11316 0.330289 1
  endloop
 endfacet
 facet normal -0.99331 -0.115483 0
  outer loop
   vertex 1.11316 0.330289 -1
   vertex 1.11316 0.330289 1
   vertex 1.1128 0.333385 -1
  endloop
 endfacet
 facet normal -0.99331 -0.115483 0
  outer loop
   vertex 1.1128 0.333385 -1
   vertex 1.11316 0.330289 1
   vertex 1.1128 0.333385 1
  endloop
 endfacet
 facet normal -0.988579 -0.150707 0
  outer loop
   vertex 1.1128 0.333385 -1
   vertex 1.1128 0.333385 1
   vertex 1.11233 0.336469 -1
  endloop
 endfacet
 facet normal -0.988579 -0.150707 0
  outer loop
   vertex 1.11233 0.336469 -1
   vertex 1.1128 0.333385 1
   vertex 1.11233 0.336469 1
  endloop
 endfacet
 facet normal -0.984303 -0.176485 0
  outer loop
   vertex 1.11233 0.336469 -1
   vertex 1.11233 0.336469 1
   vertex 1.11178 0.339536 -1
  endloop
 endfacet
 facet normal -0.984303 -0.176485 0
  outer loop
   vertex 1.11178 0.339536 -1
   vertex 1.11233 0.336469 1
   vertex 1.11178 0.339536 1
  endloop
 endfacet
 facet normal -0.977337 -0.21169 0
  outer loop
   vertex 1.11178 0.339536 -1
   vertex 1.11178 0.339536 1
   vertex 1.11112 0.342583 -1
  endloop
 endfacet
 facet normal -0.977337 -0.21169 0
  outer loop
   vertex 1.11112 0.342583 -1
   vertex 1.11178 0.339536 1
   vertex 1.11112 0.342583 1
  endloop
 endfacet
 facet normal -0.969856 -0.243677 0
  outer loop
   vertex 1.11112 0.342583 -1
   vertex 1.11112 0.342583 1
   vertex 1.11036 0.345608 -1
  endloop
 endfacet
 facet normal -0.969856 -0.243677 0
  outer loop
   vertex 1.11036 0.345608 -1
   vertex 1.11112 0.342583 1
   vertex 1.11036 0.345608 1
  endloop
 endfacet
 facet normal -0.962094 -0.272719 0
  outer loop
   vertex 1.11036 0.345608 -1
   vertex 1.11036 0.345608 1
   vertex 1.10951 0.348607 -1
  endloop
 endfacet
 facet normal -0.962094 -0.272719 0
  outer loop
   vertex 1.10951 0.348607 -1
   vertex 1.11036 0.345608 1
   vertex 1.10951 0.348607 1
  endloop
 endfacet
 facet normal -0.952463 -0.304653 0
  outer loop
   vertex 1.10951 0.348607 -1
   vertex 1.10951 0.348607 1
   vertex 1.10856 0.351577 -1
  endloop
 endfacet
 facet normal -0.952463 -0.304653 0
  outer loop
   vertex 1.10856 0.351577 -1
   vertex 1.10951 0.348607 1
   vertex 1.10856 0.351577 1
  endloop
 endfacet
 facet normal -0.942684 -0.333688 0
  outer loop
   vertex 1.10856 0.351577 -1
   vertex 1.10856 0.351577 1
   vertex 1.10752 0.354514 -1
  endloop
 endfacet
 facet normal -0.942684 -0.333688 0
  outer loop
   vertex 1.10752 0.354514 -1
   vertex 1.10856 0.351577 1
   vertex 1.10752 0.354514 1
  endloop
 endfacet
 facet normal -0.930801 -0.365527 0
  outer loop
   vertex 1.10752 0.354514 -1
   vertex 1.10752 0.354514 1
   vertex 1.10638 0.357417 -1
  endloop
 endfacet
 facet normal -0.930801 -0.365527 0
  outer loop
   vertex 1.10638 0.357417 -1
   vertex 1.10752 0.354514 1
   vertex 1.10638 0.357417 1
  endloop
 endfacet
 facet normal -0.920058 -0.391782 0
  outer loop
   vertex 1.10638 0.357417 -1
   vertex 1.10638 0.357417 1
   vertex 1.10516 0.360282 -1
  endloop
 endfacet
 facet normal -0.920058 -0.391782 0
  outer loop
   vertex 1.10516 0.360282 -1
   vertex 1.10638 0.357417 1
   vertex 1.10516 0.360282 1
  endloop
 endfacet
 facet normal -0.904685 -0.426082 0
  outer loop
   vertex 1.10516 0.360282 -1
   vertex 1.10516 0.360282 1
   vertex 1.10383 0.363106 -1
  endloop
 endfacet
 facet normal -0.904685 -0.426082 0
  outer loop
   vertex 1.10383 0.363106 -1
   vertex 1.10516 0.360282 1
   vertex 1.10383 0.363106 1
  endloop
 endfacet
 facet normal -0.891846 -0.452338 0
  outer loop
   vertex 1.10383 0.363106 -1
   vertex 1.10383 0.363106 1
   vertex 1.10242 0.365886 -1
  endloop
 endfacet
 facet normal -0.891846 -0.452338 0
  outer loop
   vertex 1.10242 0.365886 -1
   vertex 1.10383 0.363106 1
   vertex 1.10242 0.365886 1
  endloop
 endfacet
 facet normal -0.876665 -0.481101 0
  outer loop
   vertex 1.10242 0.365886 -1
   vertex 1.10242 0.365886 1
   vertex 1.10092 0.36862 -1
  endloop
 endfacet
 facet normal -0.876665 -0.481101 0
  outer loop
   vertex 1.10092 0.36862 -1
   vertex 1.10242 0.365886 1
   vertex 1.10092 0.36862 1
  endloop
 endfacet
 facet normal -0.861751 -0.507332 0
  outer loop
   vertex 1.10092 0.36862 -1
   vertex 1.10092 0.36862 1
   vertex 1.09934 0.371304 -1
  endloop
 endfacet
 facet normal -0.861751 -0.507332 0
  outer loop
   vertex 1.09934 0.371304 -1
   vertex 1.10092 0.36862 1
   vertex 1.09934 0.371304 1
  endloop
 endfacet
 facet normal -0.84432 -0.535839 0
  outer loop
   vertex 1.09934 0.371304 -1
   vertex 1.09934 0.371304 1
   vertex 1.09767 0.373935 -1
  endloop
 endfacet
 facet normal -0.84432 -0.535839 0
  outer loop
   vertex 1.09767 0.373935 -1
   vertex 1.09934 0.371304 1
   vertex 1.09767 0.373935 1
  endloop
 endfacet
 facet normal -0.825718 -0.564083 0
  outer loop
   vertex 1.09767 0.373935 -1
   vertex 1.09767 0.373935 1
   vertex 1.09591 0.376511 -1
  endloop
 endfacet
 facet normal -0.825718 -0.564083 0
  outer loop
   vertex 1.09591 0.376511 -1
   vertex 1.09767 0.373935 1
   vertex 1.09591 0.376511 1
  endloop
 endfacet
 facet normal -0.807466 -0.589914 0
  outer loop
   vertex 1.09591 0.376511 -1
   vertex 1.09591 0.376511 1
   vertex 1.09407 0.37903 -1
  endloop
 endfacet
 facet normal -0.807466 -0.589914 0
  outer loop
   vertex 1.09407 0.37903 -1
   vertex 1.09591 0.376511 1
   vertex 1.09407 0.37903 1
  endloop
 endfacet
 facet normal -0.78967 -0.613532 0
  outer loop
   vertex 1.09407 0.37903 -1
   vertex 1.09407 0.37903 1
   vertex 1.09216 0.381488 -1
  endloop
 endfacet
 facet normal -0.78967 -0.613532 0
  outer loop
   vertex 1.09216 0.381488 -1
   vertex 1.09407 0.37903 1
   vertex 1.09216 0.381488 1
  endloop
 endfacet
 facet normal -0.767608 -0.64092 0
  outer loop
   vertex 1.09216 0.381488 -1
   vertex 1.09216 0.381488 1
   vertex 1.09016 0.383883 -1
  endloop
 endfacet
 facet normal -0.767608 -0.64092 0
  outer loop
   vertex 1.09016 0.383883 -1
   vertex 1.09216 0.381488 1
   vertex 1.09016 0.383883 1
  endloop
 endfacet
 facet normal -0.747589 -0.664161 0
  outer loop
   vertex 1.09016 0.383883 -1
   vertex 1.09016 0.383883 1
   vertex 1.08809 0.386214 -1
  endloop
 endfacet
 facet normal -0.747589 -0.664161 0
  outer loop
   vertex 1.08809 0.386214 -1
   vertex 1.09016 0.383883 1
   vertex 1.08809 0.386214 1
  endloop
 endfacet
 facet normal -0.726482 -0.687185 0
  outer loop
   vertex 1.08809 0.386214 -1
   vertex 1.08809 0.386214 1
   vertex 1.08595 0.388476 -1
  endloop
 endfacet
 facet normal -0.726482 -0.687185 0
  outer loop
   vertex 1.08595 0.388476 -1
   vertex 1.08809 0.386214 1
   vertex 1.08595 0.388476 1
  endloop
 endfacet
 facet normal -0.702632 -0.711554 0
  outer loop
   vertex 1.08595 0.388476 -1
   vertex 1.08595 0.388476 1
   vertex 1.08373 0.390668 -1
  endloop
 endfacet
 facet normal -0.702632 -0.711554 0
  outer loop
   vertex 1.08373 0.390668 -1
   vertex 1.08595 0.388476 1
   vertex 1.08373 0.390668 1
  endloop
 endfacet
 facet normal -0.679325 -0.733837 0
  outer loop
   vertex 1.08373 0.390668 -1
   vertex 1.08373 0.390668 1
   vertex 1.08144 0.392788 -1
  endloop
 endfacet
 facet normal -0.679325 -0.733837 0
  outer loop
   vertex 1.08144 0.392788 -1
   vertex 1.08373 0.390668 1
   vertex 1.08144 0.392788 1
  endloop
 endfacet
 facet normal -0.656498 -0.754328 0
  outer loop
   vertex 1.08144 0.392788 -1
   vertex 1.08144 0.392788 1
   vertex 1.07909 0.394833 -1
  endloop
 endfacet
 facet normal -0.656498 -0.754328 0
  outer loop
   vertex 1.07909 0.394833 -1
   vertex 1.08144 0.392788 1
   vertex 1.07909 0.394833 1
  endloop
 endfacet
 facet normal -0.631074 -0.775723 0
  outer loop
   vertex 1.07909 0.394833 -1
   vertex 1.07909 0.394833 1
   vertex 1.07667 0.396802 -1
  endloop
 endfacet
 facet normal -0.631074 -0.775723 0
  outer loop
   vertex 1.07667 0.396802 -1
   vertex 1.07909 0.394833 1
   vertex 1.07667 0.396802 1
  endloop
 endfacet
 facet normal -0.606136 -0.795361 0
  outer loop
   vertex 1.07667 0.396802 -1
   vertex 1.07667 0.396802 1
   vertex 1.07419 0.398692 -1
  endloop
 endfacet
 facet normal -0.606136 -0.795361 0
  outer loop
   vertex 1.07419 0.398692 -1
   vertex 1.07667 0.396802 1
   vertex 1.07419 0.398692 1
  endloop
 endfacet
 facet normal -0.58018 -0.814488 0
  outer loop
   vertex 1.07419 0.398692 -1
   vertex 1.07419 0.398692 1
   vertex 1.07165 0.400501 -1
  endloop
 endfacet
 facet normal -0.58018 -0.814488 0
  outer loop
   vertex 1.07165 0.400501 -1
   vertex 1.07419 0.398692 1
   vertex 1.07165 0.400501 1
  endloop
 endfacet
 facet normal -0.554743 -0.832022 0
  outer loop
   vertex 1.07165 0.400501 -1
   vertex 1.07165 0.400501 1
   vertex 1.06906 0.402228 -1
  endloop
 endfacet
 facet normal -0.554743 -0.832022 0
  outer loop
   vertex 1.06906 0.402228 -1
   vertex 1.07165 0.400501 1
   vertex 1.06906 0.402228 1
  endloop
 endfacet
 facet normal -0.52682 -0.849977 0
  outer loop
   vertex 1.06906 0.402228 -1
   vertex 1.06906 0.402228 1
   vertex 1.06641 0.403871 -1
  endloop
 endfacet
 facet normal -0.52682 -0.849977 0
  outer loop
   vertex 1.06641 0.403871 -1
   vertex 1.06906 0.402228 1
   vertex 1.06641 0.403871 1
  endloop
 endfacet
 facet normal -0.49944 -0.866349 0
  outer loop
   vertex 1.06641 0.403871 -1
   vertex 1.06641 0.403871 1
   vertex 1.06371 0.405427 -1
  endloop
 endfacet
 facet normal -0.49944 -0.866349 0
  outer loop
   vertex 1.06371 0.405427 -1
   vertex 1.06641 0.403871 1
   vertex 1.06371 0.405427 1
  endloop
 endfacet
 facet normal -0.471207 -0.882023 0
  outer loop
   vertex 1.06371 0.405427 -1
   vertex 1.06371 0.405427 1
   vertex 1.06096 0.406896 -1
  endloop
 endfacet
 facet normal -0.471207 -0.882023 0
  outer loop
   vertex 1.06096 0.406896 -1
   vertex 1.06371 0.405427 1
   vertex 1.06096 0.406896 1
  endloop
 endfacet
 facet normal -0.442015 -0.897008 0
  outer loop
   vertex 1.06096 0.406896 -1
   vertex 1.06096 0.406896 1
   vertex 1.05816 0.408276 -1
  endloop
 endfacet
 facet normal -0.442015 -0.897008 0
  outer loop
   vertex 1.05816 0.408276 -1
   vertex 1.06096 0.406896 1
   vertex 1.05816 0.408276 1
  endloop
 endfacet
 facet normal -0.413385 -0.910556 0
  outer loop
   vertex 1.05816 0.408276 -1
   vertex 1.05816 0.408276 1
   vertex 1.05532 0.409565 -1
  endloop
 endfacet
 facet normal -0.413385 -0.910556 0
  outer loop
   vertex 1.05532 0.409565 -1
   vertex 1.05816 0.408276 1
   vertex 1.05532 0.409565 1
  endloop
 endfacet
 facet normal -0.385035 -0.922902 0
  outer loop
   vertex 1.05532 0.409565 -1
   vertex 1.05532 0.409565 1
   vertex 1.05245 0.410763 -1
  endloop
 endfacet
 facet normal -0.385035 -0.922902 0
  outer loop
   vertex 1.05245 0.410763 -1
   vertex 1.05532 0.409565 1
   vertex 1.05245 0.410763 1
  endloop
 endfacet
 facet normal -0.353771 -0.935332 0
  outer loop
   vertex 1.05245 0.410763 -1
   vertex 1.05245 0.410763 1
   vertex 1.04953 0.411867 -1
  endloop
 endfacet
 facet normal -0.353771 -0.935332 0
  outer loop
   vertex 1.04953 0.411867 -1
   vertex 1.05245 0.410763 1
   vertex 1.04953 0.411867 1
  endloop
 endfacet
 facet normal -0.323936 -0.946079 0
  outer loop
   vertex 1.04953 0.411867 -1
   vertex 1.04953 0.411867 1
   vertex 1.04658 0.412877 -1
  endloop
 endfacet
 facet normal -0.323936 -0.946079 0
  outer loop
   vertex 1.04658 0.412877 -1
   vertex 1.04953 0.411867 1
   vertex 1.04658 0.412877 1
  endloop
 endfacet
 facet normal -0.293494 -0.955961 0
  outer loop
   vertex 1.04658 0.412877 -1
   vertex 1.04658 0.412877 1
   vertex 1.0436 0.413792 -1
  endloop
 endfacet
 facet normal -0.293494 -0.955961 0
  outer loop
   vertex 1.0436 0.413792 -1
   vertex 1.04658 0.412877 1
   vertex 1.0436 0.413792 1
  endloop
 endfacet
 facet normal -0.262435 -0.96495 0
  outer loop
   vertex 1.0436 0.413792 -1
   vertex 1.0436 0.413792 1
   vertex 1.04059 0.414611 -1
  endloop
 endfacet
 facet normal -0.262435 -0.96495 0
  outer loop
   vertex 1.04059 0.414611 -1
   vertex 1.0436 0.413792 1
   vertex 1.04059 0.414611 1
  endloop
 endfacet
 facet normal -0.231638 -0.972802 0
  outer loop
   vertex 1.04059 0.414611 -1
   vertex 1.04059 0.414611 1
   vertex 1.03756 0.415332 -1
  endloop
 endfacet
 facet normal -0.231638 -0.972802 0
  outer loop
   vertex 1.03756 0.415332 -1
   vertex 1.04059 0.414611 1
   vertex 1.03756 0.415332 1
  endloop
 endfacet
 facet normal -0.200347 -0.979725 0
  outer loop
   vertex 1.03756 0.415332 -1
   vertex 1.03756 0.415332 1
   vertex 1.03451 0.415956 -1
  endloop
 endfacet
 facet normal -0.200347 -0.979725 0
  outer loop
   vertex 1.03451 0.415956 -1
   vertex 1.03756 0.415332 1
   vertex 1.03451 0.415956 1
  endloop
 endfacet
 facet normal -0.168093 -0.985771 0
  outer loop
   vertex 1.03451 0.415956 -1
   vertex 1.03451 0.415956 1
   vertex 1.03143 0.416481 -1
  endloop
 endfacet
 facet normal -0.168093 -0.985771 0
  outer loop
   vertex 1.03143 0.416481 -1
   vertex 1.03451 0.415956 1
   vertex 1.03143 0.416481 1
  endloop
 endfacet
 facet normal -0.136666 -0.990617 0
  outer loop
   vertex 1.03143 0.416481 -1
   vertex 1.03143 0.416481 1
   vertex 1.02834 0.416907 -1
  endloop
 endfacet
 facet normal -0.136666 -0.990617 0
  outer loop
   vertex 1.02834 0.416907 -1
   vertex 1.03143 0.416481 1
   vertex 1.02834 0.416907 1
  endloop
 endfacet
 facet normal -0.104836 -0.994489 0
  outer loop
   vertex 1.02834 0.416907 -1
   vertex 1.02834 0.416907 1
   vertex 1.02524 0.417234 -1
  endloop
 endfacet
 facet normal -0.104836 -0.994489 0
  outer loop
   vertex 1.02524 0.417234 -1
   vertex 1.02834 0.416907 1
   vertex 1.02524 0.417234 1
  endloop
 endfacet
 facet normal -0.0727985 -0.997347 0
  outer loop
   vertex 1.02524 0.417234 -1
   vertex 1.02524 0.417234 1
   vertex 1.02213 0.417461 -1
  endloop
 endfacet
 facet normal -0.0727985 -0.997347 0
  outer loop
   vertex 1.02213 0.417461 -1
   vertex 1.02524 0.417234 1
   vertex 1.02213 0.417461 1
  endloop
 endfacet
 facet normal -0.0407699 -0.999169 0
  outer loop
   vertex 1.02213 0.417461 -1
   vertex 1.02213 0.417461 1
   vertex 1.01902 0.417588 -1
  endloop
 endfacet
 facet normal -0.0407699 -0.999169 0
  outer loop
   vertex 1.01902 0.417588 -1
   vertex 1.02213 0.417461 1
   vertex 1.01902 0.417588 1
  endloop
 endfacet
 facet normal -0.999887 -0.0150217 -0
  outer loop
   vertex 1.01486 0.421602 1
   vertex 1.01483 0.423602 1
   vertex 1.01486 0.421602 -1
  endloop
 endfacet
 facet normal -0.999887 -0.0150217 0
  outer loop
   vertex 1.01486 0.421602 -1
   vertex 1.01483 0.423602 1
   vertex 1.01483 0.423602 -1
  endloop
 endfacet
 facet normal 0 0 -1
  outer loop
   vertex 1.01486 0.421602 -1
   vertex 1.01483 0.423602 -1
   vertex 1.01902 0.417588 -1
  endloop
 endfacet
 facet normal 0 0 -1
  outer loop
   vertex 1.01902 0.417588 -1
   vertex 1.01483 0.423602 -1
   vertex 1.01803 0.423608 -1
  endloop
 endfacet
 facet normal 0 0 -1
  outer loop
   vertex 1.01902 0.417588 -1
   vertex 1.01803 0.423608 -1
   vertex 1.02213 0.417461 -1
  endloop
 endfacet
 facet normal 0 0 -1
  outer loop
   vertex 1.02213 0.417461 -1
   vertex 1.01803 0.423608 -1
   vertex 1.02122 0.423515 -1
  endloop
 endfacet
 facet normal 0 0 -1
  outer loop
   vertex 1.02213 0.417461 -1
   vertex 1.02122 0.423515 -1
   vertex 1.02524 0.417234 -1
  endloop
 endfacet
 facet normal 0 0 -1
  outer loop
   vertex 1.02524 0.417234 -1
   vertex 1.02122 0.423515 -1
   vertex 1.02441 0.423323 -1
  endloop
 endfacet
 facet normal 0 0 -1
  outer loop
   vertex 1.02524 0.417234 -1
   vertex 1.02441 0.423323 -1
   vertex 1.02834 0.416907 -1
  endloop
 endfacet
 facet normal 0 0 -1
  outer loop
   vertex 1.02834 0.416907 -1
   vertex 1.02441 0.423323 -1
   vertex 1.0276 0.423032 -1
  endloop
 endfacet
 facet normal 0 0 -1
  outer loop
   vertex 1.02834 0.416907 -1
   vertex 1.0276 0.423032 -1
   vertex 1.03143 0.416481 -1
  endloop
 endfacet
 facet normal 0 0 -1
  outer loop
   vertex 1.11442 0.305113 -1
   vertex 1.11245 0.305426 -1
   vertex 1.11891 0.308376 -1
  endloop
 endfacet
 facet normal -0 0 -1
  outer loop
   vertex 1.11891 0.308376 -1
   vertex 1.11245 0.305426 -1
   vertex 1.11288 0.308513 -1
  endloop
 endfacet
 facet normal 0 0 -1
  outer loop
   vertex 1.11891 0.308376 -1
   vertex 1.11288 0.308513 -1
   vertex 1.11924 0.311557 -1
  endloop
 endfacet
 facet normal -0 0 -1
  outer loop
   vertex 1.11924 0.311557 -1
   vertex 1.11288 0.308513 -1
   vertex 1.11322 0.311612 -1
  endloop
 endfacet
 facet normal 0 0 -1
  outer loop
   vertex 1.11924 0.311557 -1
   vertex 1.11322 0.311612 -1
   vertex 1.11947 0.314746 -1
  endloop
 endfacet
 facet normal 0 0 -1
  outer loop
   vertex 1.11947 0.314746 -1
   vertex 1.11322 0.311612 -1
   vertex 1.11346 0.31472 -1
  endloop
 endfacet
 facet normal -0 0 -1
  outer loop
   vertex 1.11947 0.314746 -1
   vertex 1.11346 0.31472 -1
   vertex 1.11961 0.31794 -1
  endloop
 endfacet
 facet normal 0 0 -1
  outer loop
   vertex 1.11961 0.31794 -1
   vertex 1.11346 0.31472 -1
   vertex 1.1136 0.317835 -1
  endloop
 endfacet
 facet normal -0 0 -1
  outer loop
   vertex 1.11961 0.31794 -1
   vertex 1.1136 0.317835 -1
   vertex 1.11964 0.321138 -1
  endloop
 endfacet
 facet normal 0 0 -1
  outer loop
   vertex 1.11964 0.321138 -1
   vertex 1.1136 0.317835 -1
   vertex 1.11364 0.320952 -1
  endloop
 endfacet
 facet normal -0 0 -1
  outer loop
   vertex 1.11964 0.321138 -1
   vertex 1.11364 0.320952 -1
   vertex 1.11957 0.324334 -1
  endloop
 endfacet
 facet normal 0 0 -1
  outer loop
   vertex 1.11957 0.324334 -1
   vertex 1.11364 0.320952 -1
   vertex 1.11358 0.324069 -1
  endloop
 endfacet
 facet normal -0 0 -1
  outer loop
   vertex 1.11957 0.324334 -1
   vertex 1.11358 0.324069 -1
   vertex 1.11941 0.327528 -1
  endloop
 endfacet
 facet normal 0 0 -1
  outer loop
   vertex 1.11941 0.327528 -1
   vertex 1.11358 0.324069 -1
   vertex 1.11342 0.327182 -1
  endloop
 endfacet
 facet normal -0 0 -1
  outer loop
   vertex 1.11941 0.327528 -1
   vertex 1.11342 0.327182 -1
   vertex 1.11914 0.330714 -1
  endloop
 endfacet
 facet normal 0 0 -1
  outer loop
   vertex 1.11914 0.330714 -1
   vertex 1.11342 0.327182 -1
   vertex 1.11316 0.330289 -1
  endloop
 endfacet
 facet normal -0 0 -1
  outer loop
   vertex 1.11914 0.330714 -1
   vertex 1.11316 0.330289 -1
   vertex 1.11878 0.333891 -1
  endloop
 endfacet
 facet normal 0 0 -1
  outer loop
   vertex 1.11878 0.333891 -1
   vertex 1.11316 0.330289 -1
   vertex 1.1128 0.333385 -1
  endloop
 endfacet
 facet normal -0 0 -1
  outer loop
   vertex 1.11878 0.333891 -1
   vertex 1.1128 0.333385 -1
   vertex 1.11832 0.337055 -1
  endloop
 endfacet
 facet normal 0 0 -1
  outer loop
   vertex 1.11832 0.337055 -1
   vertex 1.1128 0.333385 -1
   vertex 1.11233 0.336469 -1
  endloop
 endfacet
 facet normal -0 0 -1
  outer loop
   vertex 1.11832 0.337055 -1
   vertex 1.11233 0.336469 -1
   vertex 1.11776 0.340203 -1
  endloop
 endfacet
 facet normal 0 0 -1
  outer loop
   vertex 1.11776 0.340203 -1
   vertex 1.11233 0.336469 -1
   vertex 1.11178 0.339536 -1
  endloop
 endfacet
 facet normal -0 0 -1
  outer loop
   vertex 1.11776 0.340203 -1
   vertex 1.11178 0.339536 -1
   vertex 1.1171 0.343332 -1
  endloop
 endfacet
 facet normal 0 0 -1
  outer loop
   vertex 1.1171 0.343332 -1
   vertex 1.11178 0.339536 -1
   vertex 1.11112 0.342583 -1
  endloop
 endfacet
 facet normal -0 0 -1
  outer loop
   vertex 1.1171 0.343332 -1
   vertex 1.11112 0.342583 -1
   vertex 1.11635 0.34644 -1
  endloop
 endfacet
 facet normal 0 0 -1
  outer loop
   vertex 1.11635 0.34644 -1
   vertex 1.11112 0.342583 -1
   vertex 1.11036 0.345608 -1
  endloop
 endfacet
 facet normal -0 0 -1
  outer loop
   vertex 1.11635 0.34644 -1
   vertex 1.11036 0.345608 -1
   vertex 1.1155 0.349522 -1
  endloop
 endfacet
 facet normal 0 0 -1
  outer loop
   vertex 1.1155 0.349522 -1
   vertex 1.11036 0.345608 -1
   vertex 1.10951 0.348607 -1
  endloop
 endfacet
 facet normal -0 0 -1
  outer loop
   vertex 1.1155 0.349522 -1
   vertex 1.10951 0.348607 -1
   vertex 1.11455 0.352577 -1
  endloop
 endfacet
 facet normal 0 0 -1
  outer loop
   vertex 1.11455 0.352577 -1
   vertex 1.10951 0.348607 -1
   vertex 1.10856 0.351577 -1
  endloop
 endfacet
 facet normal -0 0 -1
  outer loop
   vertex 1.11455 0.352577 -1
   vertex 1.10856 0.351577 -1
   vertex 1.11351 0.355601 -1
  endloop
 endfacet
 facet normal 0 0 -1
  outer loop
   vertex 1.11351 0.355601 -1
   vertex 1.10856 0.351577 -1
   vertex 1.10752 0.354514 -1
  endloop
 endfacet
 facet normal -0 0 -1
  outer loop
   vertex 1.11351 0.355601 -1
   vertex 1.10752 0.354514 -1
   vertex 1.11238 0.358591 -1
  endloop
 endfacet
 facet normal 0 0 -1
  outer loop
   vertex 1.11238 0.358591 -1
   vertex 1.10752 0.354514 -1
   vertex 1.10638 0.357417 -1
  endloop
 endfacet
 facet normal -0 0 -1
  outer loop
   vertex 1.11238 0.358591 -1
   vertex 1.10638 0.357417 -1
   vertex 1.11116 0.361544 -1
  endloop
 endfacet
 facet normal 0 0 -1
  outer loop
   vertex 1.11116 0.361544 -1
   vertex 1.10638 0.357417 -1
   vertex 1.10516 0.360282 -1
  endloop
 endfacet
 facet normal -0 0 -1
  outer loop
   vertex 1.11116 0.361544 -1
   vertex 1.10516 0.360282 -1
   vertex 1.10984 0.364458 -1
  endloop
 endfacet
 facet normal 0 0 -1
  outer loop
   vertex 1.10984 0.364458 -1
   vertex 1.10516 0.360282 -1
   vertex 1.10383 0.363106 -1
  endloop
 endfacet
 facet normal -0 0 -1
  outer loop
   vertex 1.10984 0.364458 -1
   vertex 1.10383 0.363106 -1
   vertex 1.10843 0.36733 -1
  endloop
 endfacet
 facet normal 0 0 -1
  outer loop
   vertex 1.10843 0.36733 -1
   vertex 1.10383 0.363106 -1
   vertex 1.10242 0.365886 -1
  endloop
 endfacet
 facet normal -0 0 -1
  outer loop
   vertex 1.10843 0.36733 -1
   vertex 1.10242 0.365886 -1
   vertex 1.10694 0.370157 -1
  endloop
 endfacet
 facet normal 0 0 -1
  outer loop
   vertex 1.10694 0.370157 -1
   vertex 1.10242 0.365886 -1
   vertex 1.10092 0.36862 -1
  endloop
 endfacet
 facet normal 0 0 -1
  outer loop
   vertex 1.0276 0.423032 -1
   vertex 1.03077 0.422642 -1
   vertex 1.03143 0.416481 -1
  endloop
 endfacet
 facet normal 0 0 -1
  outer loop
   vertex 1.03143 0.416481 -1
   vertex 1.03077 0.422642 -1
   vertex 1.03393 0.422154 -1
  endloop
 endfacet
 facet normal 0 0 -1
  outer loop
   vertex 1.03143 0.416481 -1
   vertex 1.03393 0.422154 -1
   vertex 1.03451 0.415956 -1
  endloop
 endfacet
 facet normal 0 0 -1
  outer loop
   vertex 1.03451 0.415956 -1
   vertex 1.03393 0.422154 -1
   vertex 1.03707 0.421568 -1
  endloop
 endfacet
 facet normal 0 0 -1
  outer loop
   vertex 1.03451 0.415956 -1
   vertex 1.03707 0.421568 -1
   vertex 1.03756 0.415332 -1
  endloop
 endfacet
 facet normal 0 0 -1
  outer loop
   vertex 1.03756 0.415332 -1
   vertex 1.03707 0.421568 -1
   vertex 1.0402 0.420884 -1
  endloop
 endfacet
 facet normal 0 0 -1
  outer loop
   vertex 1.03756 0.415332 -1
   vertex 1.0402 0.420884 -1
   vertex 1.04059 0.414611 -1
  endloop
 endfacet
 facet normal 0 0 -1
  outer loop
   vertex 1.04059 0.414611 -1
   vertex 1.0402 0.420884 -1
   vertex 1.0433 0.420105 -1
  endloop
 endfacet
 facet normal 0 0 -1
  outer loop
   vertex 1.04059 0.414611 -1
   vertex 1.0433 0.420105 -1
   vertex 1.0436 0.413792 -1
  endloop
 endfacet
 facet normal 0 0 -1
  outer loop
   vertex 1.0436 0.413792 -1
   vertex 1.0433 0.420105 -1
   vertex 1.04637 0.419229 -1
  endloop
 endfacet
 facet normal 0 0 -1
  outer loop
   vertex 1.0436 0.413792 -1
   vertex 1.04637 0.419229 -1
   vertex 1.04658 0.412877 -1
  endloop
 endfacet
 facet normal 0 0 -1
  outer loop
   vertex 1.04658 0.412877 -1
   vertex 1.04637 0.419229 -1
   vertex 1.04942 0.418258 -1
  endloop
 endfacet
 facet normal 0 0 -1
  outer loop
   vertex 1.04658 0.412877 -1
   vertex 1.04942 0.418258 -1
   vertex 1.04953 0.411867 -1
  endloop
 endfacet
 facet normal 0 0 -1
  outer loop
   vertex 1.04953 0.411867 -1
   vertex 1.04942 0.418258 -1
   vertex 1.05244 0.417193 -1
  endloop
 endfacet
 facet normal 0 0 -1
  outer loop
   vertex 1.04953 0.411867 -1
   vertex 1.05244 0.417193 -1
   vertex 1.05245 0.410763 -1
  endloop
 endfacet
 facet normal 0 0 -1
  outer loop
   vertex 1.05245 0.410763 -1
   vertex 1.05244 0.417193 -1
   vertex 1.05542 0.416035 -1
  endloop
 endfacet
 facet normal 0 0 -1
  outer loop
   vertex 1.05245 0.410763 -1
   vertex 1.05542 0.416035 -1
   vertex 1.05532 0.409565 -1
  endloop
 endfacet
 facet normal 0 0 -1
  outer loop
   vertex 1.05532 0.409565 -1
   vertex 1.05542 0.416035 -1
   vertex 1.05836 0.414785 -1
  endloop
 endfacet
 facet normal 0 0 -1
  outer loop
   vertex 1.05532 0.409565 -1
   vertex 1.05836 0.414785 -1
   vertex 1.05816 0.408276 -1
  endloop
 endfacet
 facet normal 0 0 -1
  outer loop
   vertex 1.05816 0.408276 -1
   vertex 1.05836 0.414785 -1
   vertex 1.06126 0.413445 -1
  endloop
 endfacet
 facet normal 0 0 -1
  outer loop
   vertex 1.05816 0.408276 -1
   vertex 1.06126 0.413445 -1
   vertex 1.06096 0.406896 -1
  endloop
 endfacet
 facet normal 0 0 -1
  outer loop
   vertex 1.06096 0.406896 -1
   vertex 1.06126 0.413445 -1
   vertex 1.06412 0.412015 -1
  endloop
 endfacet
 facet normal 0 0 -1
  outer loop
   vertex 1.06096 0.406896 -1
   vertex 1.06412 0.412015 -1
   vertex 1.06371 0.405427 -1
  endloop
 endfacet
 facet normal 0 0 -1
  outer loop
   vertex 1.06371 0.405427 -1
   vertex 1.06412 0.412015 -1
   vertex 1.06694 0.410497 -1
  endloop
 endfacet
 facet normal 0 0 -1
  outer loop
   vertex 1.06371 0.405427 -1
   vertex 1.06694 0.410497 -1
   vertex 1.06641 0.403871 -1
  endloop
 endfacet
 facet normal 0 0 -1
  outer loop
   vertex 1.06641 0.403871 -1
   vertex 1.06694 0.410497 -1
   vertex 1.0697 0.408892 -1
  endloop
 endfacet
 facet normal 0 0 -1
  outer loop
   vertex 1.06641 0.403871 -1
   vertex 1.0697 0.408892 -1
   vertex 1.06906 0.402228 -1
  endloop
 endfacet
 facet normal 0 0 -1
  outer loop
   vertex 1.06906 0.402228 -1
   vertex 1.0697 0.408892 -1
   vertex 1.07242 0.407202 -1
  endloop
 endfacet
 facet normal 0 0 -1
  outer loop
   vertex 1.06906 0.402228 -1
   vertex 1.07242 0.407202 -1
   vertex 1.07165 0.400501 -1
  endloop
 endfacet
 facet normal 0 0 -1
  outer loop
   vertex 1.07165 0.400501 -1
   vertex 1.07242 0.407202 -1
   vertex 1.07508 0.405429 -1
  endloop
 endfacet
 facet normal 0 0 -1
  outer loop
   vertex 1.07165 0.400501 -1
   vertex 1.07508 0.405429 -1
   vertex 1.07419 0.398692 -1
  endloop
 endfacet
 facet normal 0 0 -1
  outer loop
   vertex 1.07419 0.398692 -1
   vertex 1.07508 0.405429 -1
   vertex 1.07768 0.403574 -1
  endloop
 endfacet
 facet normal 0 0 -1
  outer loop
   vertex 1.07419 0.398692 -1
   vertex 1.07768 0.403574 -1
   vertex 1.07667 0.396802 -1
  endloop
 endfacet
 facet normal 0 0 -1
  outer loop
   vertex 1.07667 0.396802 -1
   vertex 1.07768 0.403574 -1
   vertex 1.08023 0.401639 -1
  endloop
 endfacet
 facet normal 0 0 -1
  outer loop
   vertex 1.07667 0.396802 -1
   vertex 1.08023 0.401639 -1
   vertex 1.07909 0.394833 -1
  endloop
 endfacet
 facet normal 0 0 -1
  outer loop
   vertex 1.07909 0.394833 -1
   vertex 1.08023 0.401639 -1
   vertex 1.08271 0.399626 -1
  endloop
 endfacet
 facet normal 0 0 -1
  outer loop
   vertex 1.07909 0.394833 -1
   vertex 1.08271 0.399626 -1
   vertex 1.08144 0.392788 -1
  endloop
 endfacet
 facet normal 0 0 -1
  outer loop
   vertex 1.08144 0.392788 -1
   vertex 1.08271 0.399626 -1
   vertex 1.08513 0.397537 -1
  endloop
 endfacet
 facet normal 0 0 -1
  outer loop
   vertex 1.08144 0.392788 -1
   vertex 1.08513 0.397537 -1
   vertex 1.08373 0.390668 -1
  endloop
 endfacet
 facet normal 0 0 -1
  outer loop
   vertex 1.08373 0.390668 -1
   vertex 1.08513 0.397537 -1
   vertex 1.08749 0.395374 -1
  endloop
 endfacet
 facet normal 0 0 -1
  outer loop
   vertex 1.08373 0.390668 -1
   vertex 1.08749 0.395374 -1
   vertex 1.08595 0.388476 -1
  endloop
 endfacet
 facet normal 0 0 -1
  outer loop
   vertex 1.08595 0.388476 -1
   vertex 1.08749 0.395374 -1
   vertex 1.08977 0.393139 -1
  endloop
 endfacet
 facet normal 0 0 -1
  outer loop
   vertex 1.08595 0.388476 -1
   vertex 1.08977 0.393139 -1
   vertex 1.08809 0.386214 -1
  endloop
 endfacet
 facet normal 0 0 -1
  outer loop
   vertex 1.08809 0.386214 -1
   vertex 1.08977 0.393139 -1
   vertex 1.09199 0.390834 -1
  endloop
 endfacet
 facet normal 0 0 -1
  outer loop
   vertex 1.08809 0.386214 -1
   vertex 1.09199 0.390834 -1
   vertex 1.09016 0.383883 -1
  endloop
 endfacet
 facet normal 0 0 -1
  outer loop
   vertex 1.09016 0.383883 -1
   vertex 1.09199 0.390834 -1
   vertex 1.09413 0.388461 -1
  endloop
 endfacet
 facet normal 0 0 -1
  outer loop
   vertex 1.09016 0.383883 -1
   vertex 1.09413 0.388461 -1
   vertex 1.09216 0.381488 -1
  endloop
 endfacet
 facet normal 0 0 -1
  outer loop
   vertex 1.09216 0.381488 -1
   vertex 1.09413 0.388461 -1
   vertex 1.0962 0.386023 -1
  endloop
 endfacet
 facet normal 0 0 -1
  outer loop
   vertex 1.09216 0.381488 -1
   vertex 1.0962 0.386023 -1
   vertex 1.09407 0.37903 -1
  endloop
 endfacet
 facet normal 0 0 -1
  outer loop
   vertex 1.09407 0.37903 -1
   vertex 1.0962 0.386023 -1
   vertex 1.09819 0.383522 -1
  endloop
 endfacet
 facet normal 0 0 -1
  outer loop
   vertex 1.09407 0.37903 -1
   vertex 1.09819 0.383522 -1
   vertex 1.09591 0.376511 -1
  endloop
 endfacet
 facet normal 0 0 -1
  outer loop
   vertex 1.09591 0.376511 -1
   vertex 1.09819 0.383522 -1
   vertex 1.10011 0.38096 -1
  endloop
 endfacet
 facet normal 0 0 -1
  outer loop
   vertex 1.09591 0.376511 -1
   vertex 1.10011 0.38096 -1
   vertex 1.09767 0.373935 -1
  endloop
 endfacet
 facet normal 0 0 -1
  outer loop
   vertex 1.09767 0.373935 -1
   vertex 1.10011 0.38096 -1
   vertex 1.10194 0.37834 -1
  endloop
 endfacet
 facet normal 0 0 -1
  outer loop
   vertex 1.09767 0.373935 -1
   vertex 1.10194 0.37834 -1
   vertex 1.09934 0.371304 -1
  endloop
 endfacet
 facet normal 0 0 -1
  outer loop
   vertex 1.09934 0.371304 -1
   vertex 1.10194 0.37834 -1
   vertex 1.10369 0.375664 -1
  endloop
 endfacet
 facet normal 0 0 -1
  outer loop
   vertex 1.09934 0.371304 -1
   vertex 1.10369 0.375664 -1
   vertex 1.10092 0.36862 -1
  endloop
 endfacet
 facet normal 0 0 -1
  outer loop
   vertex 1.10092 0.36862 -1
   vertex 1.10369 0.375664 -1
   vertex 1.10536 0.372936 -1
  endloop
 endfacet
 facet normal 0 0 -1
  outer loop
   vertex 1.10092 0.36862 -1
   vertex 1.10536 0.372936 -1
   vertex 1.10694 0.370157 -1
  endloop
 endfacet
 facet normal -0 0 1
  outer loop
   vertex 1.01483 0.423602 1
   vertex 1.01486 0.421602 1
   vertex 1.01803 0.423608 1
  endloop
 endfacet
 facet normal 0 0 1
  outer loop
   vertex 1.01803 0.423608 1
   vertex 1.01486 0.421602 1
   vertex 1.01902 0.417588 1
  endloop
 endfacet
 facet normal 0 0 1
  outer loop
   vertex 1.01803 0.423608 1
   vertex 1.01902 0.417588 1
   vertex 1.02122 0.423515 1
  endloop
 endfacet
 facet normal 0 0 1
  outer loop
   vertex 1.02122 0.423515 1
   vertex 1.01902 0.417588 1
   vertex 1.02213 0.417461 1
  endloop
 endfacet
 facet normal 0 0 1
  outer loop
   vertex 1.02122 0.423515 1
   vertex 1.02213 0.417461 1
   vertex 1.02441 0.423323 1
  endloop
 endfacet
 facet normal 0 0 1
  outer loop
   vertex 1.02441 0.423323 1
   vertex 1.02213 0.417461 1
   vertex 1.02524 0.417234 1
  endloop
 endfacet
 facet normal 0 0 1
  outer loop
   vertex 1.02441 0.423323 1
   vertex 1.02524 0.417234 1
   vertex 1.0276 0.423032 1
  endloop
 endfacet
 facet normal 0 0 1
  outer loop
   vertex 1.0276 0.423032 1
   vertex 1.02524 0.417234 1
   vertex 1.02834 0.416907 1
  endloop
 endfacet
 facet normal 0 0 1
  outer loop
   vertex 1.0276 0.423032 1
   vertex 1.02834 0.416907 1
   vertex 1.03077 0.422642 1
  endloop
 endfacet
 facet normal 0 0 1
  outer loop
   vertex 1.03077 0.422642 1
   vertex 1.02834 0.416907 1
   vertex 1.03143 0.416481 1
  endloop
 endfacet
 facet normal 0 0 1
  outer loop
   vertex 1.03077 0.422642 1
   vertex 1.03143 0.416481 1
   vertex 1.03393 0.422154 1
  endloop
 endfacet
 facet normal 0 0 1
  outer loop
   vertex 1.03393 0.422154 1
   vertex 1.03143 0.416481 1
   vertex 1.03451 0.415956 1
  endloop
 endfacet
 facet normal -0 0 1
  outer loop
   vertex 1.11245 0.305426 1
   vertex 1.11442 0.305113 1
   vertex 1.11288 0.308513 1
  endloop
 endfacet
 facet normal 0 0 1
  outer loop
   vertex 1.11288 0.308513 1
   vertex 1.11442 0.305113 1
   vertex 1.11891 0.308376 1
  endloop
 endfacet
 facet normal -0 0 1
  outer loop
   vertex 1.11288 0.308513 1
   vertex 1.11891 0.308376 1
   vertex 1.11322 0.311612 1
  endloop
 endfacet
 facet normal 0 0 1
  outer loop
   vertex 1.11322 0.311612 1
   vertex 1.11891 0.308376 1
   vertex 1.11924 0.311557 1
  endloop
 endfacet
 facet normal -0 0 1
  outer loop
   vertex 1.11322 0.311612 1
   vertex 1.11924 0.311557 1
   vertex 1.11346 0.31472 1
  endloop
 endfacet
 facet normal -0 0 1
  outer loop
   vertex 1.11346 0.31472 1
   vertex 1.11924 0.311557 1
   vertex 1.11947 0.314746 1
  endloop
 endfacet
 facet normal 0 0 1
  outer loop
   vertex 1.11346 0.31472 1
   vertex 1.11947 0.314746 1
   vertex 1.1136 0.317835 1
  endloop
 endfacet
 facet normal -0 0 1
  outer loop
   vertex 1.1136 0.317835 1
   vertex 1.11947 0.314746 1
   vertex 1.11961 0.31794 1
  endloop
 endfacet
 facet normal 0 0 1
  outer loop
   vertex 1.1136 0.317835 1
   vertex 1.11961 0.31794 1
   vertex 1.11364 0.320952 1
  endloop
 endfacet
 facet normal -0 0 1
  outer loop
   vertex 1.11364 0.320952 1
   vertex 1.11961 0.31794 1
   vertex 1.11964 0.321138 1
  endloop
 endfacet
 facet normal 0 -0 1
  outer loop
   vertex 1.11364 0.320952 1
   vertex 1.11964 0.321138 1
   vertex 1.11358 0.324069 1
  endloop
 endfacet
 facet normal -0 0 1
  outer loop
   vertex 1.11358 0.324069 1
   vertex 1.11964 0.321138 1
   vertex 1.11957 0.324334 1
  endloop
 endfacet
 facet normal 0 -0 1
  outer loop
   vertex 1.11358 0.324069 1
   vertex 1.11957 0.324334 1
   vertex 1.11342 0.327182 1
  endloop
 endfacet
 facet normal -0 0 1
  outer loop
   vertex 1.11342 0.327182 1
   vertex 1.11957 0.324334 1
   vertex 1.11941 0.327528 1
  endloop
 endfacet
 facet normal 0 -0 1
  outer loop
   vertex 1.11342 0.327182 1
   vertex 1.11941 0.327528 1
   vertex 1.11316 0.330289 1
  endloop
 endfacet
 facet normal -0 0 1
  outer loop
   vertex 1.11316 0.330289 1
   vertex 1.11941 0.327528 1
   vertex 1.11914 0.330714 1
  endloop
 endfacet
 facet normal 0 -0 1
  outer loop
   vertex 1.11316 0.330289 1
   vertex 1.11914 0.330714 1
   vertex 1.1128 0.333385 1
  endloop
 endfacet
 facet normal -0 0 1
  outer loop
   vertex 1.1128 0.333385 1
   vertex 1.11914 0.330714 1
   vertex 1.11878 0.333891 1
  endloop
 endfacet
 facet normal 0 -0 1
  outer loop
   vertex 1.1128 0.333385 1
   vertex 1.11878 0.333891 1
   vertex 1.11233 0.336469 1
  endloop
 endfacet
 facet normal -0 0 1
  outer loop
   vertex 1.11233 0.336469 1
   vertex 1.11878 0.333891 1
   vertex 1.11832 0.337055 1
  endloop
 endfacet
 facet normal 0 -0 1
  outer loop
   vertex 1.11233 0.336469 1
   vertex 1.11832 0.337055 1
   vertex 1.11178 0.339536 1
  endloop
 endfacet
 facet normal -0 0 1
  outer loop
   vertex 1.11178 0.339536 1
   vertex 1.11832 0.337055 1
   vertex 1.11776 0.340203 1
  endloop
 endfacet
 facet normal 0 -0 1
  outer loop
   vertex 1.11178 0.339536 1
   vertex 1.11776 0.340203 1
   vertex 1.11112 0.342583 1
  endloop
 endfacet
 facet normal -0 0 1
  outer loop
   vertex 1.11112 0.342583 1
   vertex 1.11776 0.340203 1
   vertex 1.1171 0.343332 1
  endloop
 endfacet
 facet normal 0 -0 1
  outer loop
   vertex 1.11112 0.342583 1
   vertex 1.1171 0.343332 1
   vertex 1.11036 0.345608 1
  endloop
 endfacet
 facet normal -0 0 1
  outer loop
   vertex 1.11036 0.345608 1
   vertex 1.1171 0.343332 1
   vertex 1.11635 0.34644 1
  endloop
 endfacet
 facet normal 0 -0 1
  outer loop
   vertex 1.11036 0.345608 1
   vertex 1.11635 0.34644 1
   vertex 1.10951 0.348607 1
  endloop
 endfacet
 facet normal -0 0 1
  outer loop
   vertex 1.10951 0.348607 1
   vertex 1.11635 0.34644 1
   vertex 1.1155 0.349522 1
  endloop
 endfacet
 facet normal 0 -0 1
  outer loop
   vertex 1.10951 0.348607 1
   vertex 1.1155 0.349522 1
   vertex 1.10856 0.351577 1
  endloop
 endfacet
 facet normal -0 0 1
  outer loop
   vertex 1.10856 0.351577 1
   vertex 1.1155 0.349522 1
   vertex 1.11455 0.352577 1
  endloop
 endfacet
 facet normal 0 -0 1
  outer loop
   vertex 1.10856 0.351577 1
   vertex 1.11455 0.352577 1
   vertex 1.10752 0.354514 1
  endloop
 endfacet
 facet normal -0 0 1
  outer loop
   vertex 1.10752 0.354514 1
   vertex 1.11455 0.352577 1
   vertex 1.11351 0.355601 1
  endloop
 endfacet
 facet normal 0 -0 1
  outer loop
   vertex 1.10752 0.354514 1
   vertex 1.11351 0.355601 1
   vertex 1.10638 0.357417 1
  endloop
 endfacet
 facet normal -0 0 1
  outer loop
   vertex 1.10638 0.357417 1
   vertex 1.11351 0.355601 1
   vertex 1.11238 0.358591 1
  endloop
 endfacet
 facet normal 0 -0 1
  outer loop
   vertex 1.10638 0.357417 1
   vertex 1.11238 0.358591 1
   vertex 1.10516 0.360282 1
  endloop
 endfacet
 facet normal -0 0 1
  outer loop
   vertex 1.10516 0.360282 1
   vertex 1.11238 0.358591 1
   vertex 1.11116 0.361544 1
  endloop
 endfacet
 facet normal 0 -0 1
  outer loop
   vertex 1.10516 0.360282 1
   vertex 1.11116 0.361544 1
   vertex 1.10383 0.363106 1
  endloop
 endfacet
 facet normal -0 0 1
  outer loop
   vertex 1.10383 0.363106 1
   vertex 1.11116 0.361544 1
   vertex 1.10984 0.364458 1
  endloop
 endfacet
 facet normal 0 -0 1
  outer loop
   vertex 1.10383 0.363106 1
   vertex 1.10984 0.364458 1
   vertex 1.10242 0.365886 1
  endloop
 endfacet
 facet normal 0 0 1
  outer loop
   vertex 1.10984 0.364458 1
   vertex 1.10843 0.36733 1
   vertex 1.10242 0.365886 1
  endloop
 endfacet
 facet normal 0 0 1
  outer loop
   vertex 1.10242 0.365886 1
   vertex 1.10843 0.36733 1
   vertex 1.10694 0.370157 1
  endloop
 endfacet
 facet normal 0 -0 1
  outer loop
   vertex 1.10242 0.365886 1
   vertex 1.10694 0.370157 1
   vertex 1.10092 0.36862 1
  endloop
 endfacet
 facet normal 0 0 1
  outer loop
   vertex 1.10092 0.36862 1
   vertex 1.10694 0.370157 1
   vertex 1.10536 0.372936 1
  endloop
 endfacet
 facet normal 0 -0 1
  outer loop
   vertex 1.10092 0.36862 1
   vertex 1.10536 0.372936 1
   vertex 1.09934 0.371304 1
  endloop
 endfacet
 facet normal 0 0 1
  outer loop
   vertex 1.09934 0.371304 1
   vertex 1.10536 0.372936 1
   vertex 1.10369 0.375664 1
  endloop
 endfacet
 facet normal 0 -0 1
  outer loop
   vertex 1.09934 0.371304 1
   vertex 1.10369 0.375664 1
   vertex 1.09767 0.373935 1
  endloop
 endfacet
 facet normal 0 0 1
  outer loop
   vertex 1.09767 0.373935 1
   vertex 1.10369 0.375664 1
   vertex 1.10194 0.37834 1
  endloop
 endfacet
 facet normal 0 -0 1
  outer loop
   vertex 1.09767 0.373935 1
   vertex 1.10194 0.37834 1
   vertex 1.09591 0.376511 1
  endloop
 endfacet
 facet normal 0 0 1
  outer loop
   vertex 1.09591 0.376511 1
   vertex 1.10194 0.37834 1
   vertex 1.10011 0.38096 1
  endloop
 endfacet
 facet normal 0 -0 1
  outer loop
   vertex 1.09591 0.376511 1
   vertex 1.10011 0.38096 1
   vertex 1.09407 0.37903 1
  endloop
 endfacet
 facet normal 0 0 1
  outer loop
   vertex 1.09407 0.37903 1
   vertex 1.10011 0.38096 1
   vertex 1.09819 0.383522 1
  endloop
 endfacet
 facet normal 0 -0 1
  outer loop
   vertex 1.09407 0.37903 1
   vertex 1.09819 0.383522 1
   vertex 1.09216 0.381488 1
  endloop
 endfacet
 facet normal 0 0 1
  outer loop
   vertex 1.09216 0.381488 1
   vertex 1.09819 0.383522 1
   vertex 1.0962 0.386023 1
  endloop
 endfacet
 facet normal 0 -0 1
  outer loop
   vertex 1.09216 0.381488 1
   vertex 1.0962 0.386023 1
   vertex 1.09016 0.383883 1
  endloop
 endfacet
 facet normal 0 0 1
  outer loop
   vertex 1.09016 0.383883 1
   vertex 1.0962 0.386023 1
   vertex 1.09413 0.388461 1
  endloop
 endfacet
 facet normal 0 -0 1
  outer loop
   vertex 1.09016 0.383883 1
   vertex 1.09413 0.388461 1
   vertex 1.08809 0.386214 1
  endloop
 endfacet
 facet normal 0 0 1
  outer loop
   vertex 1.08809 0.386214 1
   vertex 1.09413 0.388461 1
   vertex 1.09199 0.390834 1
  endloop
 endfacet
 facet normal 0 -0 1
  outer loop
   vertex 1.08809 0.386214 1
   vertex 1.09199 0.390834 1
   vertex 1.08595 0.388476 1
  endloop
 endfacet
 facet normal 0 0 1
  outer loop
   vertex 1.08595 0.388476 1
   vertex 1.09199 0.390834 1
   vertex 1.08977 0.393139 1
  endloop
 endfacet
 facet normal 0 -0 1
  outer loop
   vertex 1.08595 0.388476 1
   vertex 1.08977 0.393139 1
   vertex 1.08373 0.390668 1
  endloop
 endfacet
 facet normal 0 0 1
  outer loop
   vertex 1.08373 0.390668 1
   vertex 1.08977 0.393139 1
   vertex 1.08749 0.395374 1
  endloop
 endfacet
 facet normal 0 -0 1
  outer loop
   vertex 1.08373 0.390668 1
   vertex 1.08749 0.395374 1
   vertex 1.08144 0.392788 1
  endloop
 endfacet
 facet normal 0 0 1
  outer loop
   vertex 1.08144 0.392788 1
   vertex 1.08749 0.395374 1
   vertex 1.08513 0.397537 1
  endloop
 endfacet
 facet normal 0 -0 1
  outer loop
   vertex 1.08144 0.392788 1
   vertex 1.08513 0.397537 1
   vertex 1.07909 0.394833 1
  endloop
 endfacet
 facet normal 0 0 1
  outer loop
   vertex 1.07909 0.394833 1
   vertex 1.08513 0.397537 1
   vertex 1.08271 0.399626 1
  endloop
 endfacet
 facet normal 0 -0 1
  outer loop
   vertex 1.07909 0.394833 1
   vertex 1.08271 0.399626 1
   vertex 1.07667 0.396802 1
  endloop
 endfacet
 facet normal 0 0 1
  outer loop
   vertex 1.07667 0.396802 1
   vertex 1.08271 0.399626 1
   vertex 1.08023 0.401639 1
  endloop
 endfacet
 facet normal 0 -0 1
  outer loop
   vertex 1.07667 0.396802 1
   vertex 1.08023 0.401639 1
   vertex 1.07419 0.398692 1
  endloop
 endfacet
 facet normal 0 0 1
  outer loop
   vertex 1.07419 0.398692 1
   vertex 1.08023 0.401639 1
   vertex 1.07768 0.403574 1
  endloop
 endfacet
 facet normal 0 -0 1
  outer loop
   vertex 1.07419 0.398692 1
   vertex 1.07768 0.403574 1
   vertex 1.07165 0.400501 1
  endloop
 endfacet
 facet normal 0 0 1
  outer loop
   vertex 1.07165 0.400501 1
   vertex 1.07768 0.403574 1
   vertex 1.07508 0.405429 1
  endloop
 endfacet
 facet normal 0 -0 1
  outer loop
   vertex 1.07165 0.400501 1
   vertex 1.07508 0.405429 1
   vertex 1.06906 0.402228 1
  endloop
 endfacet
 facet normal 0 0 1
  outer loop
   vertex 1.06906 0.402228 1
   vertex 1.07508 0.405429 1
   vertex 1.07242 0.407202 1
  endloop
 endfacet
 facet normal 0 -0 1
  outer loop
   vertex 1.06906 0.402228 1
   vertex 1.07242 0.407202 1
   vertex 1.06641 0.403871 1
  endloop
 endfacet
 facet normal 0 0 1
  outer loop
   vertex 1.06641 0.403871 1
   vertex 1.07242 0.407202 1
   vertex 1.0697 0.408892 1
  endloop
 endfacet
 facet normal 0 -0 1
  outer loop
   vertex 1.06641 0.403871 1
   vertex 1.0697 0.408892 1
   vertex 1.06371 0.405427 1
  endloop
 endfacet
 facet normal 0 0 1
  outer loop
   vertex 1.06371 0.405427 1
   vertex 1.0697 0.408892 1
   vertex 1.06694 0.410497 1
  endloop
 endfacet
 facet normal 0 -0 1
  outer loop
   vertex 1.06371 0.405427 1
   vertex 1.06694 0.410497 1
   vertex 1.06096 0.406896 1
  endloop
 endfacet
 facet normal 0 0 1
  outer loop
   vertex 1.06096 0.406896 1
   vertex 1.06694 0.410497 1
   vertex 1.06412 0.412015 1
  endloop
 endfacet
 facet normal 0 -0 1
  outer loop
   vertex 1.06096 0.406896 1
   vertex 1.06412 0.412015 1
   vertex 1.05816 0.408276 1
  endloop
 endfacet
 facet normal 0 0 1
  outer loop
   vertex 1.05816 0.408276 1
   vertex 1.06412 0.412015 1
   vertex 1.06126 0.413445 1
  endloop
 endfacet
 facet normal 0 -0 1
  outer loop
   vertex 1.05816 0.408276 1
   vertex 1.06126 0.413445 1
   vertex 1.05532 0.409565 1
  endloop
 endfacet
 facet normal 0 0 1
  outer loop
   vertex 1.05532 0.409565 1
   vertex 1.06126 0.413445 1
   vertex 1.05836 0.414785 1
  endloop
 endfacet
 facet normal 0 -0 1
  outer loop
   vertex 1.05532 0.409565 1
   vertex 1.05836 0.414785 1
   vertex 1.05245 0.410763 1
  endloop
 endfacet
 facet normal 0 0 1
  outer loop
   vertex 1.05245 0.410763 1
   vertex 1.05836 0.414785 1
   vertex 1.05542 0.416035 1
  endloop
 endfacet
 facet normal 0 -0 1
  outer loop
   vertex 1.05245 0.410763 1
   vertex 1.05542 0.416035 1
   vertex 1.04953 0.411867 1
  endloop
 endfacet
 facet normal 0 0 1
  outer loop
   vertex 1.04953 0.411867 1
   vertex 1.05542 0.416035 1
   vertex 1.05244 0.417193 1
  endloop
 endfacet
 facet normal 0 -0 1
  outer loop
   vertex 1.04953 0.411867 1
   vertex 1.05244 0.417193 1
   vertex 1.04658 0.412877 1
  endloop
 endfacet
 facet normal 0 0 1
  outer loop
   vertex 1.04658 0.412877 1
   vertex 1.05244 0.417193 1
   vertex 1.04942 0.418258 1
  endloop
 endfacet
 facet normal 0 -0 1
  outer loop
   vertex 1.04658 0.412877 1
   vertex 1.04942 0.418258 1
   vertex 1.0436 0.413792 1
  endloop
 endfacet
 facet normal 0 0 1
  outer loop
   vertex 1.0436 0.413792 1
   vertex 1.04942 0.418258 1
   vertex 1.04637 0.419229 1
  endloop
 endfacet
 facet normal 0 -0 1
  outer loop
   vertex 1.0436 0.413792 1
   vertex 1.04637 0.419229 1
   vertex 1.04059 0.414611 1
  endloop
 endfacet
 facet normal 0 0 1
  outer loop
   vertex 1.04059 0.414611 1
   vertex 1.04637 0.419229 1
   vertex 1.0433 0.420105 1
  endloop
 endfacet
 facet normal 0 -0 1
  outer loop
   vertex 1.04059 0.414611 1
   vertex 1.0433 0.420105 1
   vertex 1.03756 0.415332 1
  endloop
 endfacet
 facet normal 0 0 1
  outer loop
   vertex 1.03756 0.415332 1
   vertex 1.0433 0.420105 1
   vertex 1.0402 0.420884 1
  endloop
 endfacet
 facet normal 0 -0 1
  outer loop
   vertex 1.03756 0.415332 1
   vertex 1.0402 0.420884 1
   vertex 1.03451 0.415956 1
  endloop
 endfacet
 facet normal 0 0 1
  outer loop
   vertex 1.03451 0.415956 1
   vertex 1.0402 0.420884 1
   vertex 1.03707 0.421568 1
  endloop
 endfacet
 facet normal 0 -0 1
  outer loop
   vertex 1.03451 0.415956 1
   vertex 1.03707 0.421568 1
   vertex 1.03393 0.422154 1
  endloop
 endfacet
 facet normal 0.587879 -0.808949 0
  outer loop
   vertex 1.11891 0.308376 1
   vertex 1.11442 0.305113 1
   vertex 1.11891 0.308376 -1
  endloop
 endfacet
 facet normal 0.587879 -0.808949 0
  outer loop
   vertex 1.11891 0.308376 -1
   vertex 1.11442 0.305113 1
   vertex 1.11442 0.305113 -1
  endloop
 endfacet
 facet normal -0.694399 -0.71959 -0
  outer loop
   vertex 1.01902 0.417588 1
   vertex 1.01486 0.421602 1
   vertex 1.01902 0.417588 -1
  endloop
 endfacet
 facet normal -0.694399 -0.71959 0
  outer loop
   vertex 1.01902 0.417588 -1
   vertex 1.01486 0.421602 1
   vertex 1.01486 0.421602 -1
  endloop
 endfacet
endsolid tunner_vane
