solid single_vane
 facet normal -0.0871567 -0.996195 0
  outer loop
   vertex 0.18 -0.03 -1
   vertex 0.18 -0.03 1
   vertex 0.174791 -0.0295442 1
  endloop
 endfacet
 facet normal -0.0871567 -0.996195 0
  outer loop
   vertex 0.18 -0.03 -1
   vertex 0.174791 -0.0295442 1
   vertex 0.174791 -0.0295442 -1
  endloop
 endfacet
 facet normal -0.258816 -0.965927 0
  outer loop
   vertex 0.174791 -0.0295442 -1
   vertex 0.174791 -0.0295442 1
   vertex 0.169739 -0.0281908 1
  endloop
 endfacet
 facet normal -0.258816 -0.965927 0
  outer loop
   vertex 0.174791 -0.0295442 -1
   vertex 0.169739 -0.0281908 1
   vertex 0.169739 -0.0281908 -1
  endloop
 endfacet
 facet normal -0.422619 -0.906307 0
  outer loop
   vertex 0.169739 -0.0281908 -1
   vertex 0.169739 -0.0281908 1
   vertex 0.165 -0.0259808 1
  endloop
 endfacet
 facet normal -0.422619 -0.906307 0
  outer loop
   vertex 0.169739 -0.0281908 -1
   vertex 0.165 -0.0259808 1
   vertex 0.165 -0.0259808 -1
  endloop
 endfacet
 facet normal -0.573578 -0.819151 0
  outer loop
   vertex 0.165 -0.0259808 -1
   vertex 0.165 -0.0259808 1
   vertex 0.160716 -0.0229813 1
  endloop
 endfacet
 facet normal -0.573578 -0.819151 0
  outer loop
   vertex 0.165 -0.0259808 -1
   vertex 0.160716 -0.0229813 1
   vertex 0.160716 -0.0229813 -1
  endloop
 endfacet
 facet normal -0.707107 -0.707106 0
  outer loop
   vertex 0.160716 -0.0229813 -1
   vertex 0.160716 -0.0229813 1
   vertex 0.157019 -0.0192836 1
  endloop
 endfacet
 facet normal -0.707107 -0.707106 0
  outer loop
   vertex 0.160716 -0.0229813 -1
   vertex 0.157019 -0.0192836 1
   vertex 0.157019 -0.0192836 -1
  endloop
 endfacet
 facet normal -0.819146 -0.573585 0
  outer loop
   vertex 0.157019 -0.0192836 -1
   vertex 0.157019 -0.0192836 1
   vertex 0.154019 -0.015 1
  endloop
 endfacet
 facet normal -0.819146 -0.573585 0
  outer loop
   vertex 0.157019 -0.0192836 -1
   vertex 0.154019 -0.015 1
   vertex 0.154019 -0.015 -1
  endloop
 endfacet
 facet normal -0.906309 -0.422616 0
  outer loop
   vertex 0.154019 -0.015 -1
   vertex 0.154019 -0.015 1
   vertex 0.151809 -0.0102606 1
  endloop
 endfacet
 facet normal -0.906309 -0.422616 0
  outer loop
   vertex 0.154019 -0.015 -1
   vertex 0.151809 -0.0102606 1
   vertex 0.151809 -0.0102606 -1
  endloop
 endfacet
 facet normal -0.965928 -0.258809 0
  outer loop
   vertex 0.151809 -0.0102606 -1
   vertex 0.151809 -0.0102606 1
   vertex 0.150456 -0.00520945 1
  endloop
 endfacet
 facet normal -0.965928 -0.258809 0
  outer loop
   vertex 0.151809 -0.0102606 -1
   vertex 0.150456 -0.00520945 1
   vertex 0.150456 -0.00520945 -1
  endloop
 endfacet
 facet normal -0.996194 -0.0871613 0
  outer loop
   vertex 0.150456 -0.00520945 -1
   vertex 0.150456 -0.00520945 1
   vertex 0.15 3.67394e-18 1
  endloop
 endfacet
 facet normal -0.996194 -0.0871613 0
  outer loop
   vertex 0.150456 -0.00520945 -1
   vertex 0.15 3.67394e-18 1
   vertex 0.15 3.67394e-18 -1
  endloop
 endfacet
 facet normal -0.996194 0.0871613 0
  outer loop
   vertex 0.15 3.67394e-18 -1
   vertex 0.15 3.67394e-18 1
   vertex 0.150456 0.00520945 1
  endloop
 endfacet
 facet normal -0.996194 0.0871613 0
  outer loop
   vertex 0.15 3.67394e-18 -1
   vertex 0.150456 0.00520945 1
   vertex 0.150456 0.00520945 -1
  endloop
 endfacet
 facet normal -0.965928 0.258809 0
  outer loop
   vertex 0.150456 0.00520945 -1
   vertex 0.150456 0.00520945 1
   vertex 0.151809 0.0102606 1
  endloop
 endfacet
 facet normal -0.965928 0.258809 0
  outer loop
   vertex 0.150456 0.00520945 -1
   vertex 0.151809 0.0102606 1
   vertex 0.151809 0.0102606 -1
  endloop
 endfacet
 facet normal -0.906309 0.422616 0
  outer loop
   vertex 0.151809 0.0102606 -1
   vertex 0.151809 0.0102606 1
   vertex 0.154019 0.015 1
  endloop
 endfacet
 facet normal -0.906309 0.422616 0
  outer loop
   vertex 0.151809 0.0102606 -1
   vertex 0.154019 0.015 1
   vertex 0.154019 0.015 -1
  endloop
 endfacet
 facet normal -0.819146 0.573585 0
  outer loop
   vertex 0.154019 0.015 -1
   vertex 0.154019 0.015 1
   vertex 0.157019 0.0192836 1
  endloop
 endfacet
 facet normal -0.819146 0.573585 0
  outer loop
   vertex 0.154019 0.015 -1
   vertex 0.157019 0.0192836 1
   vertex 0.157019 0.0192836 -1
  endloop
 endfacet
 facet normal -0.707107 0.707106 0
  outer loop
   vertex 0.157019 0.0192836 -1
   vertex 0.157019 0.0192836 1
   vertex 0.160716 0.0229813 1
  endloop
 endfacet
 facet normal -0.707107 0.707106 0
  outer loop
   vertex 0.157019 0.0192836 -1
   vertex 0.160716 0.0229813 1
   vertex 0.160716 0.0229813 -1
  endloop
 endfacet
 facet normal -0.573578 0.819151 0
  outer loop
   vertex 0.160716 0.0229813 -1
   vertex 0.160716 0.0229813 1
   vertex 0.165 0.0259808 1
  endloop
 endfacet
 facet normal -0.573578 0.819151 0
  outer loop
   vertex 0.160716 0.0229813 -1
   vertex 0.165 0.0259808 1
   vertex 0.165 0.0259808 -1
  endloop
 endfacet
 facet normal -0.422619 0.906307 0
  outer loop
   vertex 0.165 0.0259808 -1
   vertex 0.165 0.0259808 1
   vertex 0.169739 0.0281908 1
  endloop
 endfacet
 facet normal -0.422619 0.906307 0
  outer loop
   vertex 0.165 0.0259808 -1
   vertex 0.169739 0.0281908 1
   vertex 0.169739 0.0281908 -1
  endloop
 endfacet
 facet normal -0.258816 0.965927 0
  outer loop
   vertex 0.169739 0.0281908 -1
   vertex 0.169739 0.0281908 1
   vertex 0.174791 0.0295442 1
  endloop
 endfacet
 facet normal -0.258816 0.965927 0
  outer loop
   vertex 0.169739 0.0281908 -1
   vertex 0.174791 0.0295442 1
   vertex 0.174791 0.0295442 -1
  endloop
 endfacet
 facet normal -0.0871567 0.996195 0
  outer loop
   vertex 0.174791 0.0295442 -1
   vertex 0.174791 0.0295442 1
   vertex 0.18 0.03 1
  endloop
 endfacet
 facet normal -0.0871567 0.996195 0
  outer loop
   vertex 0.174791 0.0295442 -1
   vertex 0.18 0.03 1
   vertex 0.18 0.03 -1
  endloop
 endfacet
 facet normal 0 1 0
  outer loop
   vertex 5.18 0.03 1
   vertex 5.18 0.03 -1
   vertex 0.18 0.03 1
  endloop
 endfacet
 facet normal 0 1 0
  outer loop
   vertex 0.18 0.03 1
   vertex 5.18 0.03 -1
   vertex 0.18 0.03 -1
  endloop
 endfacet
 facet normal 0.0871639 0.996194 -0
  outer loop
   vertex 5.18 0.03 -1
   vertex 5.18 0.03 1
   vertex 5.18521 0.0295442 1
  endloop
 endfacet
 facet normal 0.0871639 0.996194 0
  outer loop
   vertex 5.18 0.03 -1
   vertex 5.18521 0.0295442 1
   vertex 5.18521 0.0295442 -1
  endloop
 endfacet
 facet normal 0.258819 0.965926 -0
  outer loop
   vertex 5.18521 0.0295442 -1
   vertex 5.18521 0.0295442 1
   vertex 5.19026 0.0281908 1
  endloop
 endfacet
 facet normal 0.258819 0.965926 0
  outer loop
   vertex 5.18521 0.0295442 -1
   vertex 5.19026 0.0281908 1
   vertex 5.19026 0.0281908 -1
  endloop
 endfacet
 facet normal 0.422557 0.906336 -0
  outer loop
   vertex 5.19026 0.0281908 -1
   vertex 5.19026 0.0281908 1
   vertex 5.195 0.0259808 1
  endloop
 endfacet
 facet normal 0.422557 0.906336 0
  outer loop
   vertex 5.19026 0.0281908 -1
   vertex 5.195 0.0259808 1
   vertex 5.195 0.0259808 -1
  endloop
 endfacet
 facet normal 0.573552 0.819169 -0
  outer loop
   vertex 5.195 0.0259808 -1
   vertex 5.195 0.0259808 1
   vertex 5.19928 0.0229813 1
  endloop
 endfacet
 facet normal 0.573552 0.819169 0
  outer loop
   vertex 5.195 0.0259808 -1
   vertex 5.19928 0.0229813 1
   vertex 5.19928 0.0229813 -1
  endloop
 endfacet
 facet normal 0.707182 0.707032 -0
  outer loop
   vertex 5.19928 0.0229813 -1
   vertex 5.19928 0.0229813 1
   vertex 5.20298 0.0192836 1
  endloop
 endfacet
 facet normal 0.707182 0.707032 0
  outer loop
   vertex 5.19928 0.0229813 -1
   vertex 5.20298 0.0192836 1
   vertex 5.20298 0.0192836 -1
  endloop
 endfacet
 facet normal 0.81912 0.573622 -0
  outer loop
   vertex 5.20298 0.0192836 -1
   vertex 5.20298 0.0192836 1
   vertex 5.20598 0.015 1
  endloop
 endfacet
 facet normal 0.81912 0.573622 0
  outer loop
   vertex 5.20298 0.0192836 -1
   vertex 5.20598 0.015 1
   vertex 5.20598 0.015 -1
  endloop
 endfacet
 facet normal 0.906299 0.422637 -0
  outer loop
   vertex 5.20598 0.015 -1
   vertex 5.20598 0.015 1
   vertex 5.20819 0.0102606 1
  endloop
 endfacet
 facet normal 0.906299 0.422637 0
  outer loop
   vertex 5.20598 0.015 -1
   vertex 5.20819 0.0102606 1
   vertex 5.20819 0.0102606 -1
  endloop
 endfacet
 facet normal 0.965935 0.258785 -0
  outer loop
   vertex 5.20819 0.0102606 -1
   vertex 5.20819 0.0102606 1
   vertex 5.20954 0.00520945 1
  endloop
 endfacet
 facet normal 0.965935 0.258785 0
  outer loop
   vertex 5.20819 0.0102606 -1
   vertex 5.20954 0.00520945 1
   vertex 5.20954 0.00520945 -1
  endloop
 endfacet
 facet normal 0.996193 0.0871726 -0
  outer loop
   vertex 5.20954 0.00520945 -1
   vertex 5.20954 0.00520945 1
   vertex 5.21 -7.34788e-18 1
  endloop
 endfacet
 facet normal 0.996193 0.0871726 0
  outer loop
   vertex 5.20954 0.00520945 -1
   vertex 5.21 -7.34788e-18 1
   vertex 5.21 -7.34788e-18 -1
  endloop
 endfacet
 facet normal 0.996193 -0.0871726 0
  outer loop
   vertex 5.21 -7.34788e-18 -1
   vertex 5.21 -7.34788e-18 1
   vertex 5.20954 -0.00520945 1
  endloop
 endfacet
 facet normal 0.996193 -0.0871726 0
  outer loop
   vertex 5.21 -7.34788e-18 -1
   vertex 5.20954 -0.00520945 1
   vertex 5.20954 -0.00520945 -1
  endloop
 endfacet
 facet normal 0.965935 -0.258785 0
  outer loop
   vertex 5.20954 -0.00520945 -1
   vertex 5.20954 -0.00520945 1
   vertex 5.20819 -0.0102606 1
  endloop
 endfacet
 facet normal 0.965935 -0.258785 0
  outer loop
   vertex 5.20954 -0.00520945 -1
   vertex 5.20819 -0.0102606 1
   vertex 5.20819 -0.0102606 -1
  endloop
 endfacet
 facet normal 0.906299 -0.422637 0
  outer loop
   vertex 5.20819 -0.0102606 -1
   vertex 5.20819 -0.0102606 1
   vertex 5.20598 -0.015 1
  endloop
 endfacet
 facet normal 0.906299 -0.422637 0
  outer loop
   vertex 5.20819 -0.0102606 -1
   vertex 5.20598 -0.015 1
   vertex 5.20598 -0.015 -1
  endloop
 endfacet
 facet normal 0.81912 -0.573622 0
  outer loop
   vertex 5.20598 -0.015 -1
   vertex 5.20598 -0.015 1
   vertex 5.20298 -0.0192836 1
  endloop
 endfacet
 facet normal 0.81912 -0.573622 0
  outer loop
   vertex 5.20598 -0.015 -1
   vertex 5.20298 -0.0192836 1
   vertex 5.20298 -0.0192836 -1
  endloop
 endfacet
 facet normal 0.707182 -0.707032 0
  outer loop
   vertex 5.20298 -0.0192836 -1
   vertex 5.20298 -0.0192836 1
   vertex 5.19928 -0.0229813 1
  endloop
 endfacet
 facet normal 0.707182 -0.707032 0
  outer loop
   vertex 5.20298 -0.0192836 -1
   vertex 5.19928 -0.0229813 1
   vertex 5.19928 -0.0229813 -1
  endloop
 endfacet
 facet normal 0.573552 -0.819169 0
  outer loop
   vertex 5.19928 -0.0229813 -1
   vertex 5.19928 -0.0229813 1
   vertex 5.195 -0.0259808 1
  endloop
 endfacet
 facet normal 0.573552 -0.819169 0
  outer loop
   vertex 5.19928 -0.0229813 -1
   vertex 5.195 -0.0259808 1
   vertex 5.195 -0.0259808 -1
  endloop
 endfacet
 facet normal 0.422557 -0.906336 0
  outer loop
   vertex 5.195 -0.0259808 -1
   vertex 5.195 -0.0259808 1
   vertex 5.19026 -0.0281908 1
  endloop
 endfacet
 facet normal 0.422557 -0.906336 0
  outer loop
   vertex 5.195 -0.0259808 -1
   vertex 5.19026 -0.0281908 1
   vertex 5.19026 -0.0281908 -1
  endloop
 endfacet
 facet normal 0.258819 -0.965926 0
  outer loop
   vertex 5.19026 -0.0281908 -1
   vertex 5.19026 -0.0281908 1
   vertex 5.18521 -0.0295442 1
  endloop
 endfacet
 facet normal 0.258819 -0.965926 0
  outer loop
   vertex 5.19026 -0.0281908 -1
   vertex 5.18521 -0.0295442 1
   vertex 5.18521 -0.0295442 -1
  endloop
 endfacet
 facet normal 0.0871639 -0.996194 0
  outer loop
   vertex 5.18521 -0.0295442 -1
   vertex 5.18521 -0.0295442 1
   vertex 5.18 -0.03 1
  endloop
 endfacet
 facet normal 0.0871639 -0.996194 0
  outer loop
   vertex 5.18521 -0.0295442 -1
   vertex 5.18 -0.03 1
   vertex 5.18 -0.03 -1
  endloop
 endfacet
 facet normal 0 -1 0
  outer loop
   vertex 0.18 -0.03 1
   vertex 0.18 -0.03 -1
   vertex 5.18 -0.03 1
  endloop
 endfacet
 facet normal 0 -1 -0
  outer loop
   vertex 5.18 -0.03 1
   vertex 0.18 -0.03 -1
   vertex 5.18 -0.03 -1
  endloop
 endfacet
 facet normal 0 0 -1
  outer loop
   vertex 0.18 -0.03 -1
   vertex 0.15 3.67394e-18 -1
   vertex 0.150456 0.00520945 -1
  endloop
 endfacet
 facet normal 0 0 -1
  outer loop
   vertex 0.150456 0.00520945 -1
   vertex 0.151809 0.0102606 -1
   vertex 0.18 -0.03 -1
  endloop
 endfacet
 facet normal 0 0 -1
  outer loop
   vertex 0.18 -0.03 -1
   vertex 0.151809 0.0102606 -1
   vertex 0.154019 0.015 -1
  endloop
 endfacet
 facet normal 0 0 -1
  outer loop
   vertex 0.18 -0.03 -1
   vertex 0.154019 0.015 -1
   vertex 0.157019 0.0192836 -1
  endloop
 endfacet
 facet normal -0 -0 -1
  outer loop
   vertex 5.20819 0.0102606 -1
   vertex 5.20954 0.00520945 -1
   vertex 5.18 0.03 -1
  endloop
 endfacet
 facet normal 0 0 -1
  outer loop
   vertex 5.18 0.03 -1
   vertex 5.20954 0.00520945 -1
   vertex 5.21 -7.34788e-18 -1
  endloop
 endfacet
 facet normal -0 0 -1
  outer loop
   vertex 5.21 -7.34788e-18 -1
   vertex 5.20954 -0.00520945 -1
   vertex 5.18 0.03 -1
  endloop
 endfacet
 facet normal 0 0 -1
  outer loop
   vertex 5.18 0.03 -1
   vertex 5.20954 -0.00520945 -1
   vertex 5.20819 -0.0102606 -1
  endloop
 endfacet
 facet normal 0 0 -1
  outer loop
   vertex 5.18 0.03 -1
   vertex 5.20819 -0.0102606 -1
   vertex 5.20598 -0.015 -1
  endloop
 endfacet
 facet normal 0 0 -1
  outer loop
   vertex 0.169739 -0.0281908 -1
   vertex 0.154019 -0.015 -1
   vertex 0.151809 -0.0102606 -1
  endloop
 endfacet
 facet normal 0 0 -1
  outer loop
   vertex 0.157019 0.0192836 -1
   vertex 0.160716 0.0229813 -1
   vertex 0.18 -0.03 -1
  endloop
 endfacet
 facet normal 0 0 -1
  outer loop
   vertex 0.18 -0.03 -1
   vertex 0.160716 0.0229813 -1
   vertex 0.165 0.0259808 -1
  endloop
 endfacet
 facet normal 0 0 -1
  outer loop
   vertex 0.18 -0.03 -1
   vertex 0.165 0.0259808 -1
   vertex 0.169739 0.0281908 -1
  endloop
 endfacet
 facet normal 0 0 -1
  outer loop
   vertex 5.18 0.03 -1
   vertex 5.195 -0.0259808 -1
   vertex 5.19026 -0.0281908 -1
  endloop
 endfacet
 facet normal 0 0 -1
  outer loop
   vertex 0.169739 -0.0281908 -1
   vertex 0.165 -0.0259808 -1
   vertex 0.154019 -0.015 -1
  endloop
 endfacet
 facet normal 0 0 -1
  outer loop
   vertex 0.154019 -0.015 -1
   vertex 0.165 -0.0259808 -1
   vertex 0.160716 -0.0229813 -1
  endloop
 endfacet
 facet normal 0 0 -1
  outer loop
   vertex 0.154019 -0.015 -1
   vertex 0.160716 -0.0229813 -1
   vertex 0.157019 -0.0192836 -1
  endloop
 endfacet
 facet normal 0 0 -1
  outer loop
   vertex 0.18 -0.03 -1
   vertex 0.174791 -0.0295442 -1
   vertex 0.15 3.67394e-18 -1
  endloop
 endfacet
 facet normal 0 0 -1
  outer loop
   vertex 0.15 3.67394e-18 -1
   vertex 0.174791 -0.0295442 -1
   vertex 0.169739 -0.0281908 -1
  endloop
 endfacet
 facet normal 0 0 -1
  outer loop
   vertex 0.15 3.67394e-18 -1
   vertex 0.169739 -0.0281908 -1
   vertex 0.150456 -0.00520945 -1
  endloop
 endfacet
 facet normal 0 0 -1
  outer loop
   vertex 0.150456 -0.00520945 -1
   vertex 0.169739 -0.0281908 -1
   vertex 0.151809 -0.0102606 -1
  endloop
 endfacet
 facet normal 0 0 -1
  outer loop
   vertex 5.19026 0.0281908 -1
   vertex 5.195 0.0259808 -1
   vertex 5.20598 0.015 -1
  endloop
 endfacet
 facet normal 0 0 -1
  outer loop
   vertex 5.20598 0.015 -1
   vertex 5.195 0.0259808 -1
   vertex 5.19928 0.0229813 -1
  endloop
 endfacet
 facet normal 0 0 -1
  outer loop
   vertex 5.20598 0.015 -1
   vertex 5.19928 0.0229813 -1
   vertex 5.20298 0.0192836 -1
  endloop
 endfacet
 facet normal -0 0 -1
  outer loop
   vertex 5.20598 -0.015 -1
   vertex 5.20298 -0.0192836 -1
   vertex 5.18 0.03 -1
  endloop
 endfacet
 facet normal 0 0 -1
  outer loop
   vertex 5.18 0.03 -1
   vertex 5.20298 -0.0192836 -1
   vertex 5.19928 -0.0229813 -1
  endloop
 endfacet
 facet normal 0 0 -1
  outer loop
   vertex 5.18 0.03 -1
   vertex 5.19928 -0.0229813 -1
   vertex 5.195 -0.0259808 -1
  endloop
 endfacet
 facet normal 0 0 -1
  outer loop
   vertex 0.169739 0.0281908 -1
   vertex 0.174791 0.0295442 -1
   vertex 0.18 -0.03 -1
  endloop
 endfacet
 facet normal 0 0 -1
  outer loop
   vertex 0.18 -0.03 -1
   vertex 0.174791 0.0295442 -1
   vertex 0.18 0.03 -1
  endloop
 endfacet
 facet normal 0 0 -1
  outer loop
   vertex 0.18 -0.03 -1
   vertex 0.18 0.03 -1
   vertex 5.18 -0.03 -1
  endloop
 endfacet
 facet normal 0 0 -1
  outer loop
   vertex 5.18 -0.03 -1
   vertex 0.18 0.03 -1
   vertex 5.18 0.03 -1
  endloop
 endfacet
 facet normal 0 0 -1
  outer loop
   vertex 5.18 -0.03 -1
   vertex 5.18 0.03 -1
   vertex 5.18521 -0.0295442 -1
  endloop
 endfacet
 facet normal 0 0 -1
  outer loop
   vertex 5.18521 -0.0295442 -1
   vertex 5.18 0.03 -1
   vertex 5.19026 -0.0281908 -1
  endloop
 endfacet
 facet normal 0 0 -1
  outer loop
   vertex 5.20819 0.0102606 -1
   vertex 5.18 0.03 -1
   vertex 5.20598 0.015 -1
  endloop
 endfacet
 facet normal 0 0 -1
  outer loop
   vertex 5.20598 0.015 -1
   vertex 5.18 0.03 -1
   vertex 5.18521 0.0295442 -1
  endloop
 endfacet
 facet normal 0 0 -1
  outer loop
   vertex 5.20598 0.015 -1
   vertex 5.18521 0.0295442 -1
   vertex 5.19026 0.0281908 -1
  endloop
 endfacet
 facet normal -0 0 1
  outer loop
   vertex 0.151809 0.0102606 1
   vertex 0.18 -0.03 1
   vertex 0.154019 0.015 1
  endloop
 endfacet
 facet normal -0 0 1
  outer loop
   vertex 0.154019 0.015 1
   vertex 0.18 -0.03 1
   vertex 0.157019 0.0192836 1
  endloop
 endfacet
 facet normal 0 0 1
  outer loop
   vertex 0.18 0.03 1
   vertex 0.174791 0.0295442 1
   vertex 0.18 -0.03 1
  endloop
 endfacet
 facet normal 0 0 1
  outer loop
   vertex 0.18 -0.03 1
   vertex 0.174791 0.0295442 1
   vertex 0.169739 0.0281908 1
  endloop
 endfacet
 facet normal 0 -0 1
  outer loop
   vertex 5.20819 -0.0102606 1
   vertex 5.20954 -0.00520945 1
   vertex 5.18 0.03 1
  endloop
 endfacet
 facet normal 0 0 1
  outer loop
   vertex 5.18 0.03 1
   vertex 5.20954 -0.00520945 1
   vertex 5.21 -7.34788e-18 1
  endloop
 endfacet
 facet normal 0 0 1
  outer loop
   vertex 5.18 0.03 1
   vertex 5.21 -7.34788e-18 1
   vertex 5.20954 0.00520945 1
  endloop
 endfacet
 facet normal 0 0 1
  outer loop
   vertex 0.151809 0.0102606 1
   vertex 0.150456 0.00520945 1
   vertex 0.18 -0.03 1
  endloop
 endfacet
 facet normal 0 0 1
  outer loop
   vertex 0.18 -0.03 1
   vertex 0.150456 0.00520945 1
   vertex 0.15 3.67394e-18 1
  endloop
 endfacet
 facet normal 0 0 1
  outer loop
   vertex 0.18 -0.03 1
   vertex 0.15 3.67394e-18 1
   vertex 0.150456 -0.00520945 1
  endloop
 endfacet
 facet normal 0 0 1
  outer loop
   vertex 0.150456 -0.00520945 1
   vertex 0.151809 -0.0102606 1
   vertex 0.18 -0.03 1
  endloop
 endfacet
 facet normal 0 0 1
  outer loop
   vertex 0.18 -0.03 1
   vertex 0.151809 -0.0102606 1
   vertex 0.154019 -0.015 1
  endloop
 endfacet
 facet normal 0 0 1
  outer loop
   vertex 0.18 -0.03 1
   vertex 0.154019 -0.015 1
   vertex 0.174791 -0.0295442 1
  endloop
 endfacet
 facet normal 0 0 1
  outer loop
   vertex 0.174791 -0.0295442 1
   vertex 0.154019 -0.015 1
   vertex 0.169739 -0.0281908 1
  endloop
 endfacet
 facet normal 0 -0 1
  outer loop
   vertex 5.18521 -0.0295442 1
   vertex 5.19026 -0.0281908 1
   vertex 5.18 0.03 1
  endloop
 endfacet
 facet normal 0 0 1
  outer loop
   vertex 5.18 0.03 1
   vertex 5.19026 -0.0281908 1
   vertex 5.195 -0.0259808 1
  endloop
 endfacet
 facet normal 0 0 1
  outer loop
   vertex 5.18 0.03 1
   vertex 5.195 -0.0259808 1
   vertex 5.19928 -0.0229813 1
  endloop
 endfacet
 facet normal 0 0 1
  outer loop
   vertex 0.169739 0.0281908 1
   vertex 0.165 0.0259808 1
   vertex 0.18 -0.03 1
  endloop
 endfacet
 facet normal 0 0 1
  outer loop
   vertex 0.18 -0.03 1
   vertex 0.165 0.0259808 1
   vertex 0.160716 0.0229813 1
  endloop
 endfacet
 facet normal 0 0 1
  outer loop
   vertex 0.18 -0.03 1
   vertex 0.160716 0.0229813 1
   vertex 0.157019 0.0192836 1
  endloop
 endfacet
 facet normal 0 0 1
  outer loop
   vertex 0.169739 -0.0281908 1
   vertex 0.154019 -0.015 1
   vertex 0.165 -0.0259808 1
  endloop
 endfacet
 facet normal 0 0 1
  outer loop
   vertex 0.165 -0.0259808 1
   vertex 0.154019 -0.015 1
   vertex 0.157019 -0.0192836 1
  endloop
 endfacet
 facet normal 0 0 1
  outer loop
   vertex 0.165 -0.0259808 1
   vertex 0.157019 -0.0192836 1
   vertex 0.160716 -0.0229813 1
  endloop
 endfacet
 facet normal -0 0 1
  outer loop
   vertex 0.18 0.03 1
   vertex 0.18 -0.03 1
   vertex 5.18 0.03 1
  endloop
 endfacet
 facet normal 0 0 1
  outer loop
   vertex 5.18 0.03 1
   vertex 0.18 -0.03 1
   vertex 5.18 -0.03 1
  endloop
 endfacet
 facet normal 0 0 1
  outer loop
   vertex 5.18 0.03 1
   vertex 5.18 -0.03 1
   vertex 5.18521 -0.0295442 1
  endloop
 endfacet
 facet normal 0 -0 1
  outer loop
   vertex 5.19928 -0.0229813 1
   vertex 5.20298 -0.0192836 1
   vertex 5.18 0.03 1
  endloop
 endfacet
 facet normal 0 0 1
  outer loop
   vertex 5.18 0.03 1
   vertex 5.20298 -0.0192836 1
   vertex 5.20598 -0.015 1
  endloop
 endfacet
 facet normal 0 0 1
  outer loop
   vertex 5.18 0.03 1
   vertex 5.20598 -0.015 1
   vertex 5.20819 -0.0102606 1
  endloop
 endfacet
 facet normal 0 0 1
  outer loop
   vertex 5.20298 0.0192836 1
   vertex 5.19928 0.0229813 1
   vertex 5.20598 0.015 1
  endloop
 endfacet
 facet normal 0 0 1
  outer loop
   vertex 5.20598 0.015 1
   vertex 5.19928 0.0229813 1
   vertex 5.195 0.0259808 1
  endloop
 endfacet
 facet normal 0 0 1
  outer loop
   vertex 5.20598 0.015 1
   vertex 5.195 0.0259808 1
   vertex 5.19026 0.0281908 1
  endloop
 endfacet
 facet normal 0 0 1
  outer loop
   vertex 5.20954 0.00520945 1
   vertex 5.20819 0.0102606 1
   vertex 5.18 0.03 1
  endloop
 endfacet
 facet normal 0 0 1
  outer loop
   vertex 5.18 0.03 1
   vertex 5.20819 0.0102606 1
   vertex 5.20598 0.015 1
  endloop
 endfacet
 facet normal 0 0 1
  outer loop
   vertex 5.18 0.03 1
   vertex 5.20598 0.015 1
   vertex 5.18521 0.0295442 1
  endloop
 endfacet
 facet normal 0 0 1
  outer loop
   vertex 5.18521 0.0295442 1
   vertex 5.20598 0.015 1
   vertex 5.19026 0.0281908 1
  endloop
 endfacet
endsolid single_vane
