solid single_vane
 facet normal 0.211339 -0.977413 0
  outer loop
   vertex 0.180821 0.324569 -1
   vertex 0.180821 0.324569 1
   vertex 0.175711 0.323464 1
  endloop
 endfacet
 facet normal 0.211339 -0.977413 0
  outer loop
   vertex 0.180821 0.324569 -1
   vertex 0.175711 0.323464 1
   vertex 0.175711 0.323464 -1
  endloop
 endfacet
 facet normal 0.0384446 -0.999261 0
  outer loop
   vertex 0.175711 0.323464 -1
   vertex 0.175711 0.323464 1
   vertex 0.170484 0.323263 1
  endloop
 endfacet
 facet normal 0.0384446 -0.999261 0
  outer loop
   vertex 0.175711 0.323464 -1
   vertex 0.170484 0.323263 1
   vertex 0.170484 0.323263 -1
  endloop
 endfacet
 facet normal -0.135758 -0.990742 0
  outer loop
   vertex 0.170484 0.323263 -1
   vertex 0.170484 0.323263 1
   vertex 0.165304 0.323973 1
  endloop
 endfacet
 facet normal -0.135758 -0.990742 0
  outer loop
   vertex 0.170484 0.323263 -1
   vertex 0.165304 0.323973 1
   vertex 0.165304 0.323973 -1
  endloop
 endfacet
 facet normal -0.305643 -0.952146 0
  outer loop
   vertex 0.165304 0.323973 -1
   vertex 0.165304 0.323973 1
   vertex 0.160324 0.325572 1
  endloop
 endfacet
 facet normal -0.305643 -0.952146 0
  outer loop
   vertex 0.165304 0.323973 -1
   vertex 0.160324 0.325572 1
   vertex 0.160324 0.325572 -1
  endloop
 endfacet
 facet normal -0.466478 -0.884533 0
  outer loop
   vertex 0.160324 0.325572 -1
   vertex 0.160324 0.325572 1
   vertex 0.155699 0.328011 1
  endloop
 endfacet
 facet normal -0.466478 -0.884533 0
  outer loop
   vertex 0.160324 0.325572 -1
   vertex 0.155699 0.328011 1
   vertex 0.155699 0.328011 -1
  endloop
 endfacet
 facet normal -0.612882 -0.790174 0
  outer loop
   vertex 0.155699 0.328011 -1
   vertex 0.155699 0.328011 1
   vertex 0.151567 0.331216 1
  endloop
 endfacet
 facet normal -0.612882 -0.790174 0
  outer loop
   vertex 0.155699 0.328011 -1
   vertex 0.151567 0.331216 1
   vertex 0.151567 0.331216 -1
  endloop
 endfacet
 facet normal -0.740771 -0.671758 0
  outer loop
   vertex 0.151567 0.331216 -1
   vertex 0.151567 0.331216 1
   vertex 0.148054 0.335089 1
  endloop
 endfacet
 facet normal -0.740771 -0.671758 0
  outer loop
   vertex 0.151567 0.331216 -1
   vertex 0.148054 0.335089 1
   vertex 0.148054 0.335089 -1
  endloop
 endfacet
 facet normal -0.846252 -0.532782 0
  outer loop
   vertex 0.148054 0.335089 -1
   vertex 0.148054 0.335089 1
   vertex 0.145268 0.339515 1
  endloop
 endfacet
 facet normal -0.846252 -0.532782 0
  outer loop
   vertex 0.148054 0.335089 -1
   vertex 0.145268 0.339515 1
   vertex 0.145268 0.339515 -1
  endloop
 endfacet
 facet normal -0.925859 -0.37787 0
  outer loop
   vertex 0.145268 0.339515 -1
   vertex 0.145268 0.339515 1
   vertex 0.143292 0.344356 1
  endloop
 endfacet
 facet normal -0.925859 -0.37787 0
  outer loop
   vertex 0.145268 0.339515 -1
   vertex 0.143292 0.344356 1
   vertex 0.143292 0.344356 -1
  endloop
 endfacet
 facet normal -0.97742 -0.211305 0
  outer loop
   vertex 0.143292 0.344356 -1
   vertex 0.143292 0.344356 1
   vertex 0.142187 0.349468 1
  endloop
 endfacet
 facet normal -0.97742 -0.211305 0
  outer loop
   vertex 0.143292 0.344356 -1
   vertex 0.142187 0.349468 1
   vertex 0.142187 0.349468 -1
  endloop
 endfacet
 facet normal -0.999261 -0.0384379 0
  outer loop
   vertex 0.142187 0.349468 -1
   vertex 0.142187 0.349468 1
   vertex 0.141986 0.354693 1
  endloop
 endfacet
 facet normal -0.999261 -0.0384379 0
  outer loop
   vertex 0.142187 0.349468 -1
   vertex 0.141986 0.354693 1
   vertex 0.141986 0.354693 -1
  endloop
 endfacet
 facet normal -0.990766 0.135585 0
  outer loop
   vertex 0.141986 0.354693 -1
   vertex 0.141986 0.354693 1
   vertex 0.142695 0.359874 1
  endloop
 endfacet
 facet normal -0.990766 0.135585 0
  outer loop
   vertex 0.141986 0.354693 -1
   vertex 0.142695 0.359874 1
   vertex 0.142695 0.359874 -1
  endloop
 endfacet
 facet normal -0.952053 0.305932 0
  outer loop
   vertex 0.142695 0.359874 -1
   vertex 0.142695 0.359874 1
   vertex 0.144295 0.364853 1
  endloop
 endfacet
 facet normal -0.952053 0.305932 0
  outer loop
   vertex 0.142695 0.359874 -1
   vertex 0.144295 0.364853 1
   vertex 0.144295 0.364853 -1
  endloop
 endfacet
 facet normal -0.884645 0.466265 0
  outer loop
   vertex 0.144295 0.364853 -1
   vertex 0.144295 0.364853 1
   vertex 0.146733 0.369479 1
  endloop
 endfacet
 facet normal -0.884645 0.466265 0
  outer loop
   vertex 0.144295 0.364853 -1
   vertex 0.146733 0.369479 1
   vertex 0.146733 0.369479 -1
  endloop
 endfacet
 facet normal -0.790172 0.612885 0
  outer loop
   vertex 0.146733 0.369479 -1
   vertex 0.146733 0.369479 1
   vertex 0.149938 0.373611 1
  endloop
 endfacet
 facet normal -0.790172 0.612885 0
  outer loop
   vertex 0.146733 0.369479 -1
   vertex 0.149938 0.373611 1
   vertex 0.149938 0.373611 -1
  endloop
 endfacet
 facet normal -0.671696 0.740827 0
  outer loop
   vertex 0.149938 0.373611 -1
   vertex 0.149938 0.373611 1
   vertex 0.153812 0.377123 1
  endloop
 endfacet
 facet normal -0.671696 0.740827 0
  outer loop
   vertex 0.149938 0.373611 -1
   vertex 0.153812 0.377123 1
   vertex 0.153812 0.377123 -1
  endloop
 endfacet
 facet normal -0.532822 0.846227 0
  outer loop
   vertex 0.153812 0.377123 -1
   vertex 0.153812 0.377123 1
   vertex 0.158238 0.37991 1
  endloop
 endfacet
 facet normal -0.532822 0.846227 0
  outer loop
   vertex 0.153812 0.377123 -1
   vertex 0.158238 0.37991 1
   vertex 0.158238 0.37991 -1
  endloop
 endfacet
 facet normal -0.377877 0.925856 0
  outer loop
   vertex 0.158238 0.37991 -1
   vertex 0.158238 0.37991 1
   vertex 0.163079 0.381886 1
  endloop
 endfacet
 facet normal -0.377877 0.925856 0
  outer loop
   vertex 0.158238 0.37991 -1
   vertex 0.163079 0.381886 1
   vertex 0.163079 0.381886 -1
  endloop
 endfacet
 facet normal -0.295709 0.955278 0
  outer loop
   vertex 4.93947 1.86043 1
   vertex 4.93947 1.86043 -1
   vertex 0.163079 0.381886 1
  endloop
 endfacet
 facet normal -0.295709 0.955278 0
  outer loop
   vertex 0.163079 0.381886 1
   vertex 4.93947 1.86043 -1
   vertex 0.163079 0.381886 -1
  endloop
 endfacet
 facet normal -0.210423 0.97761 0
  outer loop
   vertex 4.93947 1.86043 -1
   vertex 4.93947 1.86043 1
   vertex 4.94458 1.86153 1
  endloop
 endfacet
 facet normal -0.210423 0.97761 0
  outer loop
   vertex 4.93947 1.86043 -1
   vertex 4.94458 1.86153 1
   vertex 4.94458 1.86153 -1
  endloop
 endfacet
 facet normal -0.0382197 0.999269 0
  outer loop
   vertex 4.94458 1.86153 -1
   vertex 4.94458 1.86153 1
   vertex 4.94981 1.86173 1
  endloop
 endfacet
 facet normal -0.0382197 0.999269 0
  outer loop
   vertex 4.94458 1.86153 -1
   vertex 4.94981 1.86173 1
   vertex 4.94981 1.86173 -1
  endloop
 endfacet
 facet normal 0.135801 0.990736 -0
  outer loop
   vertex 4.94981 1.86173 -1
   vertex 4.94981 1.86173 1
   vertex 4.95499 1.86102 1
  endloop
 endfacet
 facet normal 0.135801 0.990736 0
  outer loop
   vertex 4.94981 1.86173 -1
   vertex 4.95499 1.86102 1
   vertex 4.95499 1.86102 -1
  endloop
 endfacet
 facet normal 0.306444 0.951889 -0
  outer loop
   vertex 4.95499 1.86102 -1
   vertex 4.95499 1.86102 1
   vertex 4.95996 1.85942 1
  endloop
 endfacet
 facet normal 0.306444 0.951889 0
  outer loop
   vertex 4.95499 1.86102 -1
   vertex 4.95996 1.85942 1
   vertex 4.95996 1.85942 -1
  endloop
 endfacet
 facet normal 0.466208 0.884675 -0
  outer loop
   vertex 4.95996 1.85942 -1
   vertex 4.95996 1.85942 1
   vertex 4.96459 1.85698 1
  endloop
 endfacet
 facet normal 0.466208 0.884675 0
  outer loop
   vertex 4.95996 1.85942 -1
   vertex 4.96459 1.85698 1
   vertex 4.96459 1.85698 -1
  endloop
 endfacet
 facet normal 0.612499 0.790471 -0
  outer loop
   vertex 4.96459 1.85698 -1
   vertex 4.96459 1.85698 1
   vertex 4.96872 1.85378 1
  endloop
 endfacet
 facet normal 0.612499 0.790471 0
  outer loop
   vertex 4.96459 1.85698 -1
   vertex 4.96872 1.85378 1
   vertex 4.96872 1.85378 -1
  endloop
 endfacet
 facet normal 0.739767 0.672863 -0
  outer loop
   vertex 4.96872 1.85378 -1
   vertex 4.96872 1.85378 1
   vertex 4.97224 1.84991 1
  endloop
 endfacet
 facet normal 0.739767 0.672863 0
  outer loop
   vertex 4.96872 1.85378 -1
   vertex 4.97224 1.84991 1
   vertex 4.97224 1.84991 -1
  endloop
 endfacet
 facet normal 0.84703 0.531545 -0
  outer loop
   vertex 4.97224 1.84991 -1
   vertex 4.97224 1.84991 1
   vertex 4.97502 1.84548 1
  endloop
 endfacet
 facet normal 0.84703 0.531545 0
  outer loop
   vertex 4.97224 1.84991 -1
   vertex 4.97502 1.84548 1
   vertex 4.97502 1.84548 -1
  endloop
 endfacet
 facet normal 0.925527 0.378682 -0
  outer loop
   vertex 4.97502 1.84548 -1
   vertex 4.97502 1.84548 1
   vertex 4.977 1.84064 1
  endloop
 endfacet
 facet normal 0.925527 0.378682 0
  outer loop
   vertex 4.97502 1.84548 -1
   vertex 4.977 1.84064 1
   vertex 4.977 1.84064 -1
  endloop
 endfacet
 facet normal 0.977622 0.210367 -0
  outer loop
   vertex 4.977 1.84064 -1
   vertex 4.977 1.84064 1
   vertex 4.9781 1.83553 1
  endloop
 endfacet
 facet normal 0.977622 0.210367 0
  outer loop
   vertex 4.977 1.84064 -1
   vertex 4.9781 1.83553 1
   vertex 4.9781 1.83553 -1
  endloop
 endfacet
 facet normal 0.999193 0.0401754 -0
  outer loop
   vertex 4.9781 1.83553 -1
   vertex 4.9781 1.83553 1
   vertex 4.97831 1.8303 1
  endloop
 endfacet
 facet normal 0.999193 0.0401754 0
  outer loop
   vertex 4.9781 1.83553 -1
   vertex 4.97831 1.8303 1
   vertex 4.97831 1.8303 -1
  endloop
 endfacet
 facet normal 0.990737 -0.135798 0
  outer loop
   vertex 4.97831 1.8303 -1
   vertex 4.97831 1.8303 1
   vertex 4.9776 1.82512 1
  endloop
 endfacet
 facet normal 0.990737 -0.135798 0
  outer loop
   vertex 4.97831 1.8303 -1
   vertex 4.9776 1.82512 1
   vertex 4.9776 1.82512 -1
  endloop
 endfacet
 facet normal 0.952053 -0.305933 0
  outer loop
   vertex 4.9776 1.82512 -1
   vertex 4.9776 1.82512 1
   vertex 4.976 1.82014 1
  endloop
 endfacet
 facet normal 0.952053 -0.305933 0
  outer loop
   vertex 4.9776 1.82512 -1
   vertex 4.976 1.82014 1
   vertex 4.976 1.82014 -1
  endloop
 endfacet
 facet normal 0.884258 -0.466999 0
  outer loop
   vertex 4.976 1.82014 -1
   vertex 4.976 1.82014 1
   vertex 4.97356 1.81552 1
  endloop
 endfacet
 facet normal 0.884258 -0.466999 0
  outer loop
   vertex 4.976 1.82014 -1
   vertex 4.97356 1.81552 1
   vertex 4.97356 1.81552 -1
  endloop
 endfacet
 facet normal 0.790272 -0.612757 0
  outer loop
   vertex 4.97356 1.81552 -1
   vertex 4.97356 1.81552 1
   vertex 4.97035 1.81138 1
  endloop
 endfacet
 facet normal 0.790272 -0.612757 0
  outer loop
   vertex 4.97356 1.81552 -1
   vertex 4.97035 1.81138 1
   vertex 4.97035 1.81138 -1
  endloop
 endfacet
 facet normal 0.671814 -0.74072 0
  outer loop
   vertex 4.97035 1.81138 -1
   vertex 4.97035 1.81138 1
   vertex 4.96648 1.80787 1
  endloop
 endfacet
 facet normal 0.671814 -0.74072 0
  outer loop
   vertex 4.97035 1.81138 -1
   vertex 4.96648 1.80787 1
   vertex 4.96648 1.80787 -1
  endloop
 endfacet
 facet normal 0.532418 -0.846481 0
  outer loop
   vertex 4.96648 1.80787 -1
   vertex 4.96648 1.80787 1
   vertex 4.96206 1.80509 1
  endloop
 endfacet
 facet normal 0.532418 -0.846481 0
  outer loop
   vertex 4.96648 1.80787 -1
   vertex 4.96206 1.80509 1
   vertex 4.96206 1.80509 -1
  endloop
 endfacet
 facet normal 0.377961 -0.925821 0
  outer loop
   vertex 4.96206 1.80509 -1
   vertex 4.96206 1.80509 1
   vertex 4.95721 1.80311 1
  endloop
 endfacet
 facet normal 0.377961 -0.925821 0
  outer loop
   vertex 4.96206 1.80509 -1
   vertex 4.95721 1.80311 1
   vertex 4.95721 1.80311 -1
  endloop
 endfacet
 facet normal 0.295708 -0.955278 0
  outer loop
   vertex 0.180821 0.324569 1
   vertex 0.180821 0.324569 -1
   vertex 4.95721 1.80311 1
  endloop
 endfacet
 facet normal 0.295708 -0.955278 0
  outer loop
   vertex 4.95721 1.80311 1
   vertex 0.180821 0.324569 -1
   vertex 4.95721 1.80311 -1
  endloop
 endfacet
 facet normal 0 0 -1
  outer loop
   vertex 0.180821 0.324569 -1
   vertex 0.143292 0.344356 -1
   vertex 0.142187 0.349468 -1
  endloop
 endfacet
 facet normal 0 0 -1
  outer loop
   vertex 0.142187 0.349468 -1
   vertex 0.141986 0.354693 -1
   vertex 0.180821 0.324569 -1
  endloop
 endfacet
 facet normal 0 0 -1
  outer loop
   vertex 0.180821 0.324569 -1
   vertex 0.141986 0.354693 -1
   vertex 0.142695 0.359874 -1
  endloop
 endfacet
 facet normal 0 0 -1
  outer loop
   vertex 0.180821 0.324569 -1
   vertex 0.142695 0.359874 -1
   vertex 0.144295 0.364853 -1
  endloop
 endfacet
 facet normal -0 -0 -1
  outer loop
   vertex 4.97224 1.84991 -1
   vertex 4.97502 1.84548 -1
   vertex 4.93947 1.86043 -1
  endloop
 endfacet
 facet normal 0 0 -1
  outer loop
   vertex 4.93947 1.86043 -1
   vertex 4.97502 1.84548 -1
   vertex 4.977 1.84064 -1
  endloop
 endfacet
 facet normal -0 -0 -1
  outer loop
   vertex 4.977 1.84064 -1
   vertex 4.9781 1.83553 -1
   vertex 4.93947 1.86043 -1
  endloop
 endfacet
 facet normal 0 0 -1
  outer loop
   vertex 4.93947 1.86043 -1
   vertex 4.9781 1.83553 -1
   vertex 4.97831 1.8303 -1
  endloop
 endfacet
 facet normal 0 0 -1
  outer loop
   vertex 4.93947 1.86043 -1
   vertex 4.97831 1.8303 -1
   vertex 4.9776 1.82512 -1
  endloop
 endfacet
 facet normal 0 0 -1
  outer loop
   vertex 0.170484 0.323263 -1
   vertex 0.151567 0.331216 -1
   vertex 0.148054 0.335089 -1
  endloop
 endfacet
 facet normal 0 0 -1
  outer loop
   vertex 0.144295 0.364853 -1
   vertex 0.146733 0.369479 -1
   vertex 0.180821 0.324569 -1
  endloop
 endfacet
 facet normal 0 0 -1
  outer loop
   vertex 0.180821 0.324569 -1
   vertex 0.146733 0.369479 -1
   vertex 0.149938 0.373611 -1
  endloop
 endfacet
 facet normal 0 0 -1
  outer loop
   vertex 0.180821 0.324569 -1
   vertex 0.149938 0.373611 -1
   vertex 0.153812 0.377123 -1
  endloop
 endfacet
 facet normal 0 0 -1
  outer loop
   vertex 4.93947 1.86043 -1
   vertex 4.97035 1.81138 -1
   vertex 4.96648 1.80787 -1
  endloop
 endfacet
 facet normal 0 0 -1
  outer loop
   vertex 0.170484 0.323263 -1
   vertex 0.165304 0.323973 -1
   vertex 0.151567 0.331216 -1
  endloop
 endfacet
 facet normal 0 0 -1
  outer loop
   vertex 0.151567 0.331216 -1
   vertex 0.165304 0.323973 -1
   vertex 0.160324 0.325572 -1
  endloop
 endfacet
 facet normal 0 0 -1
  outer loop
   vertex 0.151567 0.331216 -1
   vertex 0.160324 0.325572 -1
   vertex 0.155699 0.328011 -1
  endloop
 endfacet
 facet normal -0 0 -1
  outer loop
   vertex 0.180821 0.324569 -1
   vertex 0.175711 0.323464 -1
   vertex 0.143292 0.344356 -1
  endloop
 endfacet
 facet normal 0 0 -1
  outer loop
   vertex 0.143292 0.344356 -1
   vertex 0.175711 0.323464 -1
   vertex 0.170484 0.323263 -1
  endloop
 endfacet
 facet normal 0 0 -1
  outer loop
   vertex 0.143292 0.344356 -1
   vertex 0.170484 0.323263 -1
   vertex 0.145268 0.339515 -1
  endloop
 endfacet
 facet normal 0 0 -1
  outer loop
   vertex 0.145268 0.339515 -1
   vertex 0.170484 0.323263 -1
   vertex 0.148054 0.335089 -1
  endloop
 endfacet
 facet normal 0 0 -1
  outer loop
   vertex 4.94981 1.86173 -1
   vertex 4.95499 1.86102 -1
   vertex 4.96872 1.85378 -1
  endloop
 endfacet
 facet normal 0 0 -1
  outer loop
   vertex 4.96872 1.85378 -1
   vertex 4.95499 1.86102 -1
   vertex 4.95996 1.85942 -1
  endloop
 endfacet
 facet normal 0 0 -1
  outer loop
   vertex 4.96872 1.85378 -1
   vertex 4.95996 1.85942 -1
   vertex 4.96459 1.85698 -1
  endloop
 endfacet
 facet normal -0 0 -1
  outer loop
   vertex 4.9776 1.82512 -1
   vertex 4.976 1.82014 -1
   vertex 4.93947 1.86043 -1
  endloop
 endfacet
 facet normal 0 0 -1
  outer loop
   vertex 4.93947 1.86043 -1
   vertex 4.976 1.82014 -1
   vertex 4.97356 1.81552 -1
  endloop
 endfacet
 facet normal 0 0 -1
  outer loop
   vertex 4.93947 1.86043 -1
   vertex 4.97356 1.81552 -1
   vertex 4.97035 1.81138 -1
  endloop
 endfacet
 facet normal 0 0 -1
  outer loop
   vertex 0.153812 0.377123 -1
   vertex 0.158238 0.37991 -1
   vertex 0.180821 0.324569 -1
  endloop
 endfacet
 facet normal 0 0 -1
  outer loop
   vertex 0.180821 0.324569 -1
   vertex 0.158238 0.37991 -1
   vertex 0.163079 0.381886 -1
  endloop
 endfacet
 facet normal 0 0 -1
  outer loop
   vertex 0.180821 0.324569 -1
   vertex 0.163079 0.381886 -1
   vertex 4.95721 1.80311 -1
  endloop
 endfacet
 facet normal -0 0 -1
  outer loop
   vertex 4.95721 1.80311 -1
   vertex 0.163079 0.381886 -1
   vertex 4.93947 1.86043 -1
  endloop
 endfacet
 facet normal 0 0 -1
  outer loop
   vertex 4.95721 1.80311 -1
   vertex 4.93947 1.86043 -1
   vertex 4.96206 1.80509 -1
  endloop
 endfacet
 facet normal 0 0 -1
  outer loop
   vertex 4.96206 1.80509 -1
   vertex 4.93947 1.86043 -1
   vertex 4.96648 1.80787 -1
  endloop
 endfacet
 facet normal 0 0 -1
  outer loop
   vertex 4.97224 1.84991 -1
   vertex 4.93947 1.86043 -1
   vertex 4.96872 1.85378 -1
  endloop
 endfacet
 facet normal 0 0 -1
  outer loop
   vertex 4.96872 1.85378 -1
   vertex 4.93947 1.86043 -1
   vertex 4.94458 1.86153 -1
  endloop
 endfacet
 facet normal 0 0 -1
  outer loop
   vertex 4.96872 1.85378 -1
   vertex 4.94458 1.86153 -1
   vertex 4.94981 1.86173 -1
  endloop
 endfacet
 facet normal -0 0 1
  outer loop
   vertex 0.141986 0.354693 1
   vertex 0.180821 0.324569 1
   vertex 0.142695 0.359874 1
  endloop
 endfacet
 facet normal -0 0 1
  outer loop
   vertex 0.142695 0.359874 1
   vertex 0.180821 0.324569 1
   vertex 0.144295 0.364853 1
  endloop
 endfacet
 facet normal 0 0 1
  outer loop
   vertex 0.163079 0.381886 1
   vertex 0.158238 0.37991 1
   vertex 0.180821 0.324569 1
  endloop
 endfacet
 facet normal 0 0 1
  outer loop
   vertex 0.180821 0.324569 1
   vertex 0.158238 0.37991 1
   vertex 0.153812 0.377123 1
  endloop
 endfacet
 facet normal 0 0 1
  outer loop
   vertex 4.97831 1.8303 1
   vertex 4.9781 1.83553 1
   vertex 4.93947 1.86043 1
  endloop
 endfacet
 facet normal 0 0 1
  outer loop
   vertex 4.93947 1.86043 1
   vertex 4.9781 1.83553 1
   vertex 4.977 1.84064 1
  endloop
 endfacet
 facet normal 0 0 1
  outer loop
   vertex 4.93947 1.86043 1
   vertex 4.977 1.84064 1
   vertex 4.97502 1.84548 1
  endloop
 endfacet
 facet normal 0 0 1
  outer loop
   vertex 0.141986 0.354693 1
   vertex 0.142187 0.349468 1
   vertex 0.180821 0.324569 1
  endloop
 endfacet
 facet normal 0 0 1
  outer loop
   vertex 0.180821 0.324569 1
   vertex 0.142187 0.349468 1
   vertex 0.143292 0.344356 1
  endloop
 endfacet
 facet normal 0 0 1
  outer loop
   vertex 0.180821 0.324569 1
   vertex 0.143292 0.344356 1
   vertex 0.145268 0.339515 1
  endloop
 endfacet
 facet normal 0 0 1
  outer loop
   vertex 0.145268 0.339515 1
   vertex 0.148054 0.335089 1
   vertex 0.180821 0.324569 1
  endloop
 endfacet
 facet normal 0 0 1
  outer loop
   vertex 0.180821 0.324569 1
   vertex 0.148054 0.335089 1
   vertex 0.151567 0.331216 1
  endloop
 endfacet
 facet normal 0 0 1
  outer loop
   vertex 0.180821 0.324569 1
   vertex 0.151567 0.331216 1
   vertex 0.175711 0.323464 1
  endloop
 endfacet
 facet normal 0 0 1
  outer loop
   vertex 0.175711 0.323464 1
   vertex 0.151567 0.331216 1
   vertex 0.170484 0.323263 1
  endloop
 endfacet
 facet normal 0 -0 1
  outer loop
   vertex 4.96206 1.80509 1
   vertex 4.96648 1.80787 1
   vertex 4.93947 1.86043 1
  endloop
 endfacet
 facet normal 0 0 1
  outer loop
   vertex 4.93947 1.86043 1
   vertex 4.96648 1.80787 1
   vertex 4.97035 1.81138 1
  endloop
 endfacet
 facet normal 0 0 1
  outer loop
   vertex 4.93947 1.86043 1
   vertex 4.97035 1.81138 1
   vertex 4.97356 1.81552 1
  endloop
 endfacet
 facet normal 0 0 1
  outer loop
   vertex 0.153812 0.377123 1
   vertex 0.149938 0.373611 1
   vertex 0.180821 0.324569 1
  endloop
 endfacet
 facet normal 0 0 1
  outer loop
   vertex 0.180821 0.324569 1
   vertex 0.149938 0.373611 1
   vertex 0.146733 0.369479 1
  endloop
 endfacet
 facet normal 0 0 1
  outer loop
   vertex 0.180821 0.324569 1
   vertex 0.146733 0.369479 1
   vertex 0.144295 0.364853 1
  endloop
 endfacet
 facet normal 0 0 1
  outer loop
   vertex 0.170484 0.323263 1
   vertex 0.151567 0.331216 1
   vertex 0.165304 0.323973 1
  endloop
 endfacet
 facet normal 0 0 1
  outer loop
   vertex 0.165304 0.323973 1
   vertex 0.151567 0.331216 1
   vertex 0.155699 0.328011 1
  endloop
 endfacet
 facet normal 0 0 1
  outer loop
   vertex 0.165304 0.323973 1
   vertex 0.155699 0.328011 1
   vertex 0.160324 0.325572 1
  endloop
 endfacet
 facet normal -0 0 1
  outer loop
   vertex 0.163079 0.381886 1
   vertex 0.180821 0.324569 1
   vertex 4.93947 1.86043 1
  endloop
 endfacet
 facet normal 0 0 1
  outer loop
   vertex 4.93947 1.86043 1
   vertex 0.180821 0.324569 1
   vertex 4.95721 1.80311 1
  endloop
 endfacet
 facet normal 0 0 1
  outer loop
   vertex 4.93947 1.86043 1
   vertex 4.95721 1.80311 1
   vertex 4.96206 1.80509 1
  endloop
 endfacet
 facet normal 0 -0 1
  outer loop
   vertex 4.97356 1.81552 1
   vertex 4.976 1.82014 1
   vertex 4.93947 1.86043 1
  endloop
 endfacet
 facet normal 0 0 1
  outer loop
   vertex 4.93947 1.86043 1
   vertex 4.976 1.82014 1
   vertex 4.9776 1.82512 1
  endloop
 endfacet
 facet normal 0 0 1
  outer loop
   vertex 4.93947 1.86043 1
   vertex 4.9776 1.82512 1
   vertex 4.97831 1.8303 1
  endloop
 endfacet
 facet normal 0 0 1
  outer loop
   vertex 4.96459 1.85698 1
   vertex 4.95996 1.85942 1
   vertex 4.96872 1.85378 1
  endloop
 endfacet
 facet normal 0 0 1
  outer loop
   vertex 4.96872 1.85378 1
   vertex 4.95996 1.85942 1
   vertex 4.95499 1.86102 1
  endloop
 endfacet
 facet normal 0 0 1
  outer loop
   vertex 4.96872 1.85378 1
   vertex 4.95499 1.86102 1
   vertex 4.94981 1.86173 1
  endloop
 endfacet
 facet normal 0 0 1
  outer loop
   vertex 4.97502 1.84548 1
   vertex 4.97224 1.84991 1
   vertex 4.93947 1.86043 1
  endloop
 endfacet
 facet normal 0 0 1
  outer loop
   vertex 4.93947 1.86043 1
   vertex 4.97224 1.84991 1
   vertex 4.96872 1.85378 1
  endloop
 endfacet
 facet normal -0 0 1
  outer loop
   vertex 4.93947 1.86043 1
   vertex 4.96872 1.85378 1
   vertex 4.94458 1.86153 1
  endloop
 endfacet
 facet normal -0 0 1
  outer loop
   vertex 4.94458 1.86153 1
   vertex 4.96872 1.85378 1
   vertex 4.94981 1.86173 1
  endloop
 endfacet
endsolid single_vane
