solid tunner_vane
 facet normal -0.00202342 0.999998 0
  outer loop
   vertex 0.0232242 -0.0300097 -1
   vertex 0.0232242 -0.0300097 1
   vertex 0.0237038 -0.0300087 1
  endloop
 endfacet
 facet normal -0.00202342 0.999998 0
  outer loop
   vertex 0.0232242 -0.0300097 -1
   vertex 0.0237038 -0.0300087 1
   vertex 0.0237038 -0.0300087 -1
  endloop
 endfacet
 facet normal 0.0291706 0.999574 -0
  outer loop
   vertex 0.0237038 -0.0300087 -1
   vertex 0.0237038 -0.0300087 1
   vertex 0.0241832 -0.0300227 1
  endloop
 endfacet
 facet normal 0.0291706 0.999574 0
  outer loop
   vertex 0.0237038 -0.0300087 -1
   vertex 0.0241832 -0.0300227 1
   vertex 0.0241832 -0.0300227 -1
  endloop
 endfacet
 facet normal 0.0601663 0.998188 -0
  outer loop
   vertex 0.0241832 -0.0300227 -1
   vertex 0.0241832 -0.0300227 1
   vertex 0.024662 -0.0300516 1
  endloop
 endfacet
 facet normal 0.0601663 0.998188 0
  outer loop
   vertex 0.0241832 -0.0300227 -1
   vertex 0.024662 -0.0300516 1
   vertex 0.024662 -0.0300516 -1
  endloop
 endfacet
 facet normal 0.0910367 0.995848 -0
  outer loop
   vertex 0.024662 -0.0300516 -1
   vertex 0.024662 -0.0300516 1
   vertex 0.0251397 -0.0300953 1
  endloop
 endfacet
 facet normal 0.0910367 0.995848 0
  outer loop
   vertex 0.024662 -0.0300516 -1
   vertex 0.0251397 -0.0300953 1
   vertex 0.0251397 -0.0300953 -1
  endloop
 endfacet
 facet normal 0.121859 0.992547 -0
  outer loop
   vertex 0.0251397 -0.0300953 -1
   vertex 0.0251397 -0.0300953 1
   vertex 0.0256157 -0.0301537 1
  endloop
 endfacet
 facet normal 0.121859 0.992547 0
  outer loop
   vertex 0.0251397 -0.0300953 -1
   vertex 0.0256157 -0.0301537 1
   vertex 0.0256157 -0.0301537 -1
  endloop
 endfacet
 facet normal 0.152682 0.988275 -0
  outer loop
   vertex 0.0256157 -0.0301537 -1
   vertex 0.0256157 -0.0301537 1
   vertex 0.0260897 -0.0302269 1
  endloop
 endfacet
 facet normal 0.152682 0.988275 0
  outer loop
   vertex 0.0256157 -0.0301537 -1
   vertex 0.0260897 -0.0302269 1
   vertex 0.0260897 -0.0302269 -1
  endloop
 endfacet
 facet normal 0.183269 0.983063 -0
  outer loop
   vertex 0.0260897 -0.0302269 -1
   vertex 0.0260897 -0.0302269 1
   vertex 0.0265612 -0.0303148 1
  endloop
 endfacet
 facet normal 0.183269 0.983063 0
  outer loop
   vertex 0.0260897 -0.0302269 -1
   vertex 0.0265612 -0.0303148 1
   vertex 0.0265612 -0.0303148 -1
  endloop
 endfacet
 facet normal 0.213727 0.976893 -0
  outer loop
   vertex 0.0265612 -0.0303148 -1
   vertex 0.0265612 -0.0303148 1
   vertex 0.0270297 -0.0304173 1
  endloop
 endfacet
 facet normal 0.213727 0.976893 0
  outer loop
   vertex 0.0265612 -0.0303148 -1
   vertex 0.0270297 -0.0304173 1
   vertex 0.0270297 -0.0304173 -1
  endloop
 endfacet
 facet normal 0.243851 0.969813 -0
  outer loop
   vertex 0.0270297 -0.0304173 -1
   vertex 0.0270297 -0.0304173 1
   vertex 0.0274949 -0.0305343 1
  endloop
 endfacet
 facet normal 0.243851 0.969813 0
  outer loop
   vertex 0.0270297 -0.0304173 -1
   vertex 0.0274949 -0.0305343 1
   vertex 0.0274949 -0.0305343 -1
  endloop
 endfacet
 facet normal 0.273946 0.961745 -0
  outer loop
   vertex 0.0274949 -0.0305343 -1
   vertex 0.0274949 -0.0305343 1
   vertex 0.0279561 -0.0306657 1
  endloop
 endfacet
 facet normal 0.273946 0.961745 0
  outer loop
   vertex 0.0274949 -0.0305343 -1
   vertex 0.0279561 -0.0306657 1
   vertex 0.0279561 -0.0306657 -1
  endloop
 endfacet
 facet normal 0.303585 0.952804 -0
  outer loop
   vertex 0.0279561 -0.0306657 -1
   vertex 0.0279561 -0.0306657 1
   vertex 0.0284131 -0.0308113 1
  endloop
 endfacet
 facet normal 0.303585 0.952804 0
  outer loop
   vertex 0.0279561 -0.0306657 -1
   vertex 0.0284131 -0.0308113 1
   vertex 0.0284131 -0.0308113 -1
  endloop
 endfacet
 facet normal 0.332995 0.942929 -0
  outer loop
   vertex 0.0284131 -0.0308113 -1
   vertex 0.0284131 -0.0308113 1
   vertex 0.0288654 -0.030971 1
  endloop
 endfacet
 facet normal 0.332995 0.942929 0
  outer loop
   vertex 0.0284131 -0.0308113 -1
   vertex 0.0288654 -0.030971 1
   vertex 0.0288654 -0.030971 -1
  endloop
 endfacet
 facet normal 0.362098 0.93214 -0
  outer loop
   vertex 0.0288654 -0.030971 -1
   vertex 0.0288654 -0.030971 1
   vertex 0.0293125 -0.0311447 1
  endloop
 endfacet
 facet normal 0.362098 0.93214 0
  outer loop
   vertex 0.0288654 -0.030971 -1
   vertex 0.0293125 -0.0311447 1
   vertex 0.0293125 -0.0311447 -1
  endloop
 endfacet
 facet normal 0.390938 0.920417 -0
  outer loop
   vertex 0.0293125 -0.0311447 -1
   vertex 0.0293125 -0.0311447 1
   vertex 0.0297539 -0.0313322 1
  endloop
 endfacet
 facet normal 0.390938 0.920417 0
  outer loop
   vertex 0.0293125 -0.0311447 -1
   vertex 0.0297539 -0.0313322 1
   vertex 0.0297539 -0.0313322 -1
  endloop
 endfacet
 facet normal 0.419195 0.907896 -0
  outer loop
   vertex 0.0297539 -0.0313322 -1
   vertex 0.0297539 -0.0313322 1
   vertex 0.0301894 -0.0315332 1
  endloop
 endfacet
 facet normal 0.419195 0.907896 0
  outer loop
   vertex 0.0297539 -0.0313322 -1
   vertex 0.0301894 -0.0315332 1
   vertex 0.0301894 -0.0315332 -1
  endloop
 endfacet
 facet normal 0.447314 0.894377 -0
  outer loop
   vertex 0.0301894 -0.0315332 -1
   vertex 0.0301894 -0.0315332 1
   vertex 0.0306183 -0.0317478 1
  endloop
 endfacet
 facet normal 0.447314 0.894377 0
  outer loop
   vertex 0.0301894 -0.0315332 -1
   vertex 0.0306183 -0.0317478 1
   vertex 0.0306183 -0.0317478 -1
  endloop
 endfacet
 facet normal 0.474716 0.880139 -0
  outer loop
   vertex 0.0306183 -0.0317478 -1
   vertex 0.0306183 -0.0317478 1
   vertex 0.0310405 -0.0319755 1
  endloop
 endfacet
 facet normal 0.474716 0.880139 0
  outer loop
   vertex 0.0306183 -0.0317478 -1
   vertex 0.0310405 -0.0319755 1
   vertex 0.0310405 -0.0319755 -1
  endloop
 endfacet
 facet normal 0.501899 0.864926 -0
  outer loop
   vertex 0.0310405 -0.0319755 -1
   vertex 0.0310405 -0.0319755 1
   vertex 0.0314553 -0.0322162 1
  endloop
 endfacet
 facet normal 0.501899 0.864926 0
  outer loop
   vertex 0.0310405 -0.0319755 -1
   vertex 0.0314553 -0.0322162 1
   vertex 0.0314553 -0.0322162 -1
  endloop
 endfacet
 facet normal 0.528454 0.848962 -0
  outer loop
   vertex 0.0314553 -0.0322162 -1
   vertex 0.0314553 -0.0322162 1
   vertex 0.0318625 -0.0324697 1
  endloop
 endfacet
 facet normal 0.528454 0.848962 0
  outer loop
   vertex 0.0314553 -0.0322162 -1
   vertex 0.0318625 -0.0324697 1
   vertex 0.0318625 -0.0324697 -1
  endloop
 endfacet
 facet normal 0.554577 0.832132 -0
  outer loop
   vertex 0.0318625 -0.0324697 -1
   vertex 0.0318625 -0.0324697 1
   vertex 0.0322616 -0.0327356 1
  endloop
 endfacet
 facet normal 0.554577 0.832132 0
  outer loop
   vertex 0.0318625 -0.0324697 -1
   vertex 0.0322616 -0.0327356 1
   vertex 0.0322616 -0.0327356 -1
  endloop
 endfacet
 facet normal 0.580075 0.814563 -0
  outer loop
   vertex 0.0322616 -0.0327356 -1
   vertex 0.0322616 -0.0327356 1
   vertex 0.0326523 -0.0330139 1
  endloop
 endfacet
 facet normal 0.580075 0.814563 0
  outer loop
   vertex 0.0322616 -0.0327356 -1
   vertex 0.0326523 -0.0330139 1
   vertex 0.0326523 -0.0330139 -1
  endloop
 endfacet
 facet normal 0.605177 0.796091 -0
  outer loop
   vertex 0.0326523 -0.0330139 -1
   vertex 0.0326523 -0.0330139 1
   vertex 0.0330341 -0.0333041 1
  endloop
 endfacet
 facet normal 0.605177 0.796091 0
  outer loop
   vertex 0.0326523 -0.0330139 -1
   vertex 0.0330341 -0.0333041 1
   vertex 0.0330341 -0.0333041 -1
  endloop
 endfacet
 facet normal 0.629475 0.777021 -0
  outer loop
   vertex 0.0330341 -0.0333041 -1
   vertex 0.0330341 -0.0333041 1
   vertex 0.0334068 -0.033606 1
  endloop
 endfacet
 facet normal 0.629475 0.777021 0
  outer loop
   vertex 0.0330341 -0.0333041 -1
   vertex 0.0334068 -0.033606 1
   vertex 0.0334068 -0.033606 -1
  endloop
 endfacet
 facet normal 0.653349 0.757056 -0
  outer loop
   vertex 0.0334068 -0.033606 -1
   vertex 0.0334068 -0.033606 1
   vertex 0.0337699 -0.0339194 1
  endloop
 endfacet
 facet normal 0.653349 0.757056 0
  outer loop
   vertex 0.0334068 -0.033606 -1
   vertex 0.0337699 -0.0339194 1
   vertex 0.0337699 -0.0339194 -1
  endloop
 endfacet
 facet normal 0.676534 0.736412 -0
  outer loop
   vertex 0.0337699 -0.0339194 -1
   vertex 0.0337699 -0.0339194 1
   vertex 0.0341231 -0.0342439 1
  endloop
 endfacet
 facet normal 0.676534 0.736412 0
  outer loop
   vertex 0.0337699 -0.0339194 -1
   vertex 0.0341231 -0.0342439 1
   vertex 0.0341231 -0.0342439 -1
  endloop
 endfacet
 facet normal 0.699015 0.715107 -0
  outer loop
   vertex 0.0341231 -0.0342439 -1
   vertex 0.0341231 -0.0342439 1
   vertex 0.0344661 -0.0345792 1
  endloop
 endfacet
 facet normal 0.699015 0.715107 0
  outer loop
   vertex 0.0341231 -0.0342439 -1
   vertex 0.0344661 -0.0345792 1
   vertex 0.0344661 -0.0345792 -1
  endloop
 endfacet
 facet normal 0.721012 0.692923 -0
  outer loop
   vertex 0.0344661 -0.0345792 -1
   vertex 0.0344661 -0.0345792 1
   vertex 0.0347984 -0.0349249 1
  endloop
 endfacet
 facet normal 0.721012 0.692923 0
  outer loop
   vertex 0.0344661 -0.0345792 -1
   vertex 0.0347984 -0.0349249 1
   vertex 0.0347984 -0.0349249 -1
  endloop
 endfacet
 facet normal 0.742078 0.670314 -0
  outer loop
   vertex 0.0347984 -0.0349249 -1
   vertex 0.0347984 -0.0349249 1
   vertex 0.0351199 -0.0352808 1
  endloop
 endfacet
 facet normal 0.742078 0.670314 0
  outer loop
   vertex 0.0347984 -0.0349249 -1
   vertex 0.0351199 -0.0352808 1
   vertex 0.0351199 -0.0352808 -1
  endloop
 endfacet
 facet normal 0.762516 0.64697 -0
  outer loop
   vertex 0.0351199 -0.0352808 -1
   vertex 0.0351199 -0.0352808 1
   vertex 0.0354302 -0.0356466 1
  endloop
 endfacet
 facet normal 0.762516 0.64697 0
  outer loop
   vertex 0.0351199 -0.0352808 -1
   vertex 0.0354302 -0.0356466 1
   vertex 0.0354302 -0.0356466 -1
  endloop
 endfacet
 facet normal 0.782228 0.622993 -0
  outer loop
   vertex 0.0354302 -0.0356466 -1
   vertex 0.0354302 -0.0356466 1
   vertex 0.035729 -0.0360217 1
  endloop
 endfacet
 facet normal 0.782228 0.622993 0
  outer loop
   vertex 0.0354302 -0.0356466 -1
   vertex 0.035729 -0.0360217 1
   vertex 0.035729 -0.0360217 -1
  endloop
 endfacet
 facet normal 0.801101 0.598529 -0
  outer loop
   vertex 0.035729 -0.0360217 -1
   vertex 0.035729 -0.0360217 1
   vertex 0.0360161 -0.036406 1
  endloop
 endfacet
 facet normal 0.801101 0.598529 0
  outer loop
   vertex 0.035729 -0.0360217 -1
   vertex 0.0360161 -0.036406 1
   vertex 0.0360161 -0.036406 -1
  endloop
 endfacet
 facet normal 0.819428 0.573183 -0
  outer loop
   vertex 0.0360161 -0.036406 -1
   vertex 0.0360161 -0.036406 1
   vertex 0.036291 -0.036799 1
  endloop
 endfacet
 facet normal 0.819428 0.573183 0
  outer loop
   vertex 0.0360161 -0.036406 -1
   vertex 0.036291 -0.036799 1
   vertex 0.036291 -0.036799 -1
  endloop
 endfacet
 facet normal 0.836787 0.547529 -0
  outer loop
   vertex 0.036291 -0.036799 -1
   vertex 0.036291 -0.036799 1
   vertex 0.0365536 -0.0372003 1
  endloop
 endfacet
 facet normal 0.836787 0.547529 0
  outer loop
   vertex 0.036291 -0.036799 -1
   vertex 0.0365536 -0.0372003 1
   vertex 0.0365536 -0.0372003 -1
  endloop
 endfacet
 facet normal 0.853301 0.521419 -0
  outer loop
   vertex 0.0365536 -0.0372003 -1
   vertex 0.0365536 -0.0372003 1
   vertex 0.0368037 -0.0376096 1
  endloop
 endfacet
 facet normal 0.853301 0.521419 0
  outer loop
   vertex 0.0365536 -0.0372003 -1
   vertex 0.0368037 -0.0376096 1
   vertex 0.0368037 -0.0376096 -1
  endloop
 endfacet
 facet normal 0.869141 0.494565 -0
  outer loop
   vertex 0.0368037 -0.0376096 -1
   vertex 0.0368037 -0.0376096 1
   vertex 0.0370409 -0.0380265 1
  endloop
 endfacet
 facet normal 0.869141 0.494565 0
  outer loop
   vertex 0.0368037 -0.0376096 -1
   vertex 0.0370409 -0.0380265 1
   vertex 0.0370409 -0.0380265 -1
  endloop
 endfacet
 facet normal 0.884027 0.467435 -0
  outer loop
   vertex 0.0370409 -0.0380265 -1
   vertex 0.0370409 -0.0380265 1
   vertex 0.0372651 -0.0384505 1
  endloop
 endfacet
 facet normal 0.884027 0.467435 0
  outer loop
   vertex 0.0370409 -0.0380265 -1
   vertex 0.0372651 -0.0384505 1
   vertex 0.0372651 -0.0384505 -1
  endloop
 endfacet
 facet normal 0.898222 0.439543 -0
  outer loop
   vertex 0.0372651 -0.0384505 -1
   vertex 0.0372651 -0.0384505 1
   vertex 0.0374759 -0.0388813 1
  endloop
 endfacet
 facet normal 0.898222 0.439543 0
  outer loop
   vertex 0.0372651 -0.0384505 -1
   vertex 0.0374759 -0.0388813 1
   vertex 0.0374759 -0.0388813 -1
  endloop
 endfacet
 facet normal 0.911295 0.411755 -0
  outer loop
   vertex 0.0374759 -0.0388813 -1
   vertex 0.0374759 -0.0388813 1
   vertex 0.0376734 -0.0393184 1
  endloop
 endfacet
 facet normal 0.911295 0.411755 0
  outer loop
   vertex 0.0374759 -0.0388813 -1
   vertex 0.0376734 -0.0393184 1
   vertex 0.0376734 -0.0393184 -1
  endloop
 endfacet
 facet normal 0.923736 0.38303 -0
  outer loop
   vertex 0.0376734 -0.0393184 -1
   vertex 0.0376734 -0.0393184 1
   vertex 0.0378571 -0.0397614 1
  endloop
 endfacet
 facet normal 0.923736 0.38303 0
  outer loop
   vertex 0.0376734 -0.0393184 -1
   vertex 0.0378571 -0.0397614 1
   vertex 0.0378571 -0.0397614 -1
  endloop
 endfacet
 facet normal 0.935084 0.354427 -0
  outer loop
   vertex 0.0378571 -0.0397614 -1
   vertex 0.0378571 -0.0397614 1
   vertex 0.0380271 -0.0402099 1
  endloop
 endfacet
 facet normal 0.935084 0.354427 0
  outer loop
   vertex 0.0378571 -0.0397614 -1
   vertex 0.0380271 -0.0402099 1
   vertex 0.0380271 -0.0402099 -1
  endloop
 endfacet
 facet normal 0.945696 0.325052 -0
  outer loop
   vertex 0.0380271 -0.0402099 -1
   vertex 0.0380271 -0.0402099 1
   vertex 0.038183 -0.0406635 1
  endloop
 endfacet
 facet normal 0.945696 0.325052 0
  outer loop
   vertex 0.0380271 -0.0402099 -1
   vertex 0.038183 -0.0406635 1
   vertex 0.038183 -0.0406635 -1
  endloop
 endfacet
 facet normal 0.9553 0.295637 -0
  outer loop
   vertex 0.038183 -0.0406635 -1
   vertex 0.038183 -0.0406635 1
   vertex 0.0383248 -0.0411217 1
  endloop
 endfacet
 facet normal 0.9553 0.295637 0
  outer loop
   vertex 0.038183 -0.0406635 -1
   vertex 0.0383248 -0.0411217 1
   vertex 0.0383248 -0.0411217 -1
  endloop
 endfacet
 facet normal 0.964071 0.265645 -0
  outer loop
   vertex 0.0383248 -0.0411217 -1
   vertex 0.0383248 -0.0411217 1
   vertex 0.0384522 -0.041584 1
  endloop
 endfacet
 facet normal 0.964071 0.265645 0
  outer loop
   vertex 0.0383248 -0.0411217 -1
   vertex 0.0384522 -0.041584 1
   vertex 0.0384522 -0.041584 -1
  endloop
 endfacet
 facet normal 0.971801 0.235804 -0
  outer loop
   vertex 0.0384522 -0.041584 -1
   vertex 0.0384522 -0.041584 1
   vertex 0.0385653 -0.0420501 1
  endloop
 endfacet
 facet normal 0.971801 0.235804 0
  outer loop
   vertex 0.0384522 -0.041584 -1
   vertex 0.0385653 -0.0420501 1
   vertex 0.0385653 -0.0420501 -1
  endloop
 endfacet
 facet normal 0.978641 0.205575 -0
  outer loop
   vertex 0.0385653 -0.0420501 -1
   vertex 0.0385653 -0.0420501 1
   vertex 0.0386639 -0.0425195 1
  endloop
 endfacet
 facet normal 0.978641 0.205575 0
  outer loop
   vertex 0.0385653 -0.0420501 -1
   vertex 0.0386639 -0.0425195 1
   vertex 0.0386639 -0.0425195 -1
  endloop
 endfacet
 facet normal 0.984582 0.174926 -0
  outer loop
   vertex 0.0386639 -0.0425195 -1
   vertex 0.0386639 -0.0425195 1
   vertex 0.0387478 -0.0429918 1
  endloop
 endfacet
 facet normal 0.984582 0.174926 0
  outer loop
   vertex 0.0386639 -0.0425195 -1
   vertex 0.0387478 -0.0429918 1
   vertex 0.0387478 -0.0429918 -1
  endloop
 endfacet
 facet normal 0.989536 0.144284 -0
  outer loop
   vertex 0.0387478 -0.0429918 -1
   vertex 0.0387478 -0.0429918 1
   vertex 0.038817 -0.0434663 1
  endloop
 endfacet
 facet normal 0.989536 0.144284 0
  outer loop
   vertex 0.0387478 -0.0429918 -1
   vertex 0.038817 -0.0434663 1
   vertex 0.038817 -0.0434663 -1
  endloop
 endfacet
 facet normal 0.993523 0.113634 -0
  outer loop
   vertex 0.038817 -0.0434663 -1
   vertex 0.038817 -0.0434663 1
   vertex 0.0388715 -0.0439429 1
  endloop
 endfacet
 facet normal 0.993523 0.113634 0
  outer loop
   vertex 0.038817 -0.0434663 -1
   vertex 0.0388715 -0.0439429 1
   vertex 0.0388715 -0.0439429 -1
  endloop
 endfacet
 facet normal 0.996568 0.0827737 -0
  outer loop
   vertex 0.0388715 -0.0439429 -1
   vertex 0.0388715 -0.0439429 1
   vertex 0.0389112 -0.0444208 1
  endloop
 endfacet
 facet normal 0.996568 0.0827737 0
  outer loop
   vertex 0.0388715 -0.0439429 -1
   vertex 0.0389112 -0.0444208 1
   vertex 0.0389112 -0.0444208 -1
  endloop
 endfacet
 facet normal 0.998662 0.0517048 -0
  outer loop
   vertex 0.0389112 -0.0444208 -1
   vertex 0.0389112 -0.0444208 1
   vertex 0.038936 -0.0448998 1
  endloop
 endfacet
 facet normal 0.998662 0.0517048 0
  outer loop
   vertex 0.0389112 -0.0444208 -1
   vertex 0.038936 -0.0448998 1
   vertex 0.038936 -0.0448998 -1
  endloop
 endfacet
 facet normal 0.999783 0.0208469 -0
  outer loop
   vertex 0.038936 -0.0448998 -1
   vertex 0.038936 -0.0448998 1
   vertex 0.038946 -0.0453794 1
  endloop
 endfacet
 facet normal 0.999783 0.0208469 0
  outer loop
   vertex 0.038936 -0.0448998 -1
   vertex 0.038946 -0.0453794 1
   vertex 0.038946 -0.0453794 -1
  endloop
 endfacet
 facet normal 0.999946 -0.0104234 0
  outer loop
   vertex 0.038946 -0.0453794 -1
   vertex 0.038946 -0.0453794 1
   vertex 0.038941 -0.045859 1
  endloop
 endfacet
 facet normal 0.999946 -0.0104234 0
  outer loop
   vertex 0.038946 -0.0453794 -1
   vertex 0.038941 -0.045859 1
   vertex 0.038941 -0.045859 -1
  endloop
 endfacet
 facet normal 0.999148 -0.0412792 0
  outer loop
   vertex 0.038941 -0.045859 -1
   vertex 0.038941 -0.045859 1
   vertex 0.0389212 -0.0463382 1
  endloop
 endfacet
 facet normal 0.999148 -0.0412792 0
  outer loop
   vertex 0.038941 -0.045859 -1
   vertex 0.0389212 -0.0463382 1
   vertex 0.0389212 -0.0463382 -1
  endloop
 endfacet
 facet normal 0.997379 -0.0723577 0
  outer loop
   vertex 0.0389212 -0.0463382 -1
   vertex 0.0389212 -0.0463382 1
   vertex 0.0388865 -0.0468165 1
  endloop
 endfacet
 facet normal 0.997379 -0.0723577 0
  outer loop
   vertex 0.0389212 -0.0463382 -1
   vertex 0.0388865 -0.0468165 1
   vertex 0.0388865 -0.0468165 -1
  endloop
 endfacet
 facet normal 0.99464 -0.103403 0
  outer loop
   vertex 0.0388865 -0.0468165 -1
   vertex 0.0388865 -0.0468165 1
   vertex 0.0388369 -0.0472936 1
  endloop
 endfacet
 facet normal 0.99464 -0.103403 0
  outer loop
   vertex 0.0388865 -0.0468165 -1
   vertex 0.0388369 -0.0472936 1
   vertex 0.0388369 -0.0472936 -1
  endloop
 endfacet
 facet normal -0.156403 -0.987693 -0
  outer loop
   vertex 0.0381633 -0.047783 1
   vertex 0.037867 -0.0477361 1
   vertex 0.0381633 -0.047783 -1
  endloop
 endfacet
 facet normal -0.156403 -0.987693 0
  outer loop
   vertex 0.0381633 -0.047783 -1
   vertex 0.037867 -0.0477361 1
   vertex 0.037867 -0.0477361 -1
  endloop
 endfacet
 facet normal -0.99008 0.140502 0
  outer loop
   vertex 0.037867 -0.0477361 -1
   vertex 0.037867 -0.0477361 1
   vertex 0.0379327 -0.0472731 -1
  endloop
 endfacet
 facet normal -0.99008 0.140502 0
  outer loop
   vertex 0.0379327 -0.0472731 -1
   vertex 0.037867 -0.0477361 1
   vertex 0.0379327 -0.0472731 1
  endloop
 endfacet
 facet normal -0.994082 0.10863 0
  outer loop
   vertex 0.0379327 -0.0472731 -1
   vertex 0.0379327 -0.0472731 1
   vertex 0.0379835 -0.0468083 -1
  endloop
 endfacet
 facet normal -0.994082 0.10863 0
  outer loop
   vertex 0.0379835 -0.0468083 -1
   vertex 0.0379327 -0.0472731 1
   vertex 0.0379835 -0.0468083 1
  endloop
 endfacet
 facet normal -0.997049 0.0767664 0
  outer loop
   vertex 0.0379835 -0.0468083 -1
   vertex 0.0379835 -0.0468083 1
   vertex 0.0380194 -0.046342 -1
  endloop
 endfacet
 facet normal -0.997049 0.0767664 0
  outer loop
   vertex 0.0380194 -0.046342 -1
   vertex 0.0379835 -0.0468083 1
   vertex 0.0380194 -0.046342 1
  endloop
 endfacet
 facet normal -0.99901 0.0444776 0
  outer loop
   vertex 0.0380194 -0.046342 -1
   vertex 0.0380194 -0.046342 1
   vertex 0.0380402 -0.0458748 -1
  endloop
 endfacet
 facet normal -0.99901 0.0444776 0
  outer loop
   vertex 0.0380402 -0.0458748 -1
   vertex 0.0380194 -0.046342 1
   vertex 0.0380402 -0.0458748 1
  endloop
 endfacet
 facet normal -0.99992 0.0126187 0
  outer loop
   vertex 0.0380402 -0.0458748 -1
   vertex 0.0380402 -0.0458748 1
   vertex 0.0380461 -0.0454072 -1
  endloop
 endfacet
 facet normal -0.99992 0.0126187 0
  outer loop
   vertex 0.0380461 -0.0454072 -1
   vertex 0.0380402 -0.0458748 1
   vertex 0.0380461 -0.0454072 1
  endloop
 endfacet
 facet normal -0.999807 -0.0196688 0
  outer loop
   vertex 0.0380461 -0.0454072 -1
   vertex 0.0380461 -0.0454072 1
   vertex 0.0380369 -0.0449397 -1
  endloop
 endfacet
 facet normal -0.999807 -0.0196688 0
  outer loop
   vertex 0.0380369 -0.0449397 -1
   vertex 0.0380461 -0.0454072 1
   vertex 0.0380369 -0.0449397 1
  endloop
 endfacet
 facet normal -0.998649 -0.051963 0
  outer loop
   vertex 0.0380369 -0.0449397 -1
   vertex 0.0380369 -0.0449397 1
   vertex 0.0380126 -0.0444727 -1
  endloop
 endfacet
 facet normal -0.998649 -0.051963 0
  outer loop
   vertex 0.0380126 -0.0444727 -1
   vertex 0.0380369 -0.0449397 1
   vertex 0.0380126 -0.0444727 1
  endloop
 endfacet
 facet normal -0.99648 -0.0838303 0
  outer loop
   vertex 0.0380126 -0.0444727 -1
   vertex 0.0380126 -0.0444727 1
   vertex 0.0379734 -0.0440067 -1
  endloop
 endfacet
 facet normal -0.99648 -0.0838303 0
  outer loop
   vertex 0.0379734 -0.0440067 -1
   vertex 0.0380126 -0.0444727 1
   vertex 0.0379734 -0.0440067 1
  endloop
 endfacet
 facet normal -0.993285 -0.115689 0
  outer loop
   vertex 0.0379734 -0.0440067 -1
   vertex 0.0379734 -0.0440067 1
   vertex 0.0379193 -0.0435422 -1
  endloop
 endfacet
 facet normal -0.993285 -0.115689 0
  outer loop
   vertex 0.0379193 -0.0435422 -1
   vertex 0.0379734 -0.0440067 1
   vertex 0.0379193 -0.0435422 1
  endloop
 endfacet
 facet normal -0.989022 -0.147766 0
  outer loop
   vertex 0.0379193 -0.0435422 -1
   vertex 0.0379193 -0.0435422 1
   vertex 0.0378502 -0.0430797 -1
  endloop
 endfacet
 facet normal -0.989022 -0.147766 0
  outer loop
   vertex 0.0378502 -0.0430797 -1
   vertex 0.0379193 -0.0435422 1
   vertex 0.0378502 -0.0430797 1
  endloop
 endfacet
 facet normal -0.983773 -0.179418 0
  outer loop
   vertex 0.0378502 -0.0430797 -1
   vertex 0.0378502 -0.0430797 1
   vertex 0.0377663 -0.0426197 -1
  endloop
 endfacet
 facet normal -0.983773 -0.179418 0
  outer loop
   vertex 0.0377663 -0.0426197 -1
   vertex 0.0378502 -0.0430797 1
   vertex 0.0377663 -0.0426197 1
  endloop
 endfacet
 facet normal -0.977518 -0.210851 0
  outer loop
   vertex 0.0377663 -0.0426197 -1
   vertex 0.0377663 -0.0426197 1
   vertex 0.0376677 -0.0421626 -1
  endloop
 endfacet
 facet normal -0.977518 -0.210851 0
  outer loop
   vertex 0.0376677 -0.0421626 -1
   vertex 0.0377663 -0.0426197 1
   vertex 0.0376677 -0.0421626 1
  endloop
 endfacet
 facet normal -0.970257 -0.242079 0
  outer loop
   vertex 0.0376677 -0.0421626 -1
   vertex 0.0376677 -0.0421626 1
   vertex 0.0375545 -0.0417089 -1
  endloop
 endfacet
 facet normal -0.970257 -0.242079 0
  outer loop
   vertex 0.0375545 -0.0417089 -1
   vertex 0.0376677 -0.0421626 1
   vertex 0.0375545 -0.0417089 1
  endloop
 endfacet
 facet normal -0.961931 -0.273291 0
  outer loop
   vertex 0.0375545 -0.0417089 -1
   vertex 0.0375545 -0.0417089 1
   vertex 0.0374267 -0.041259 -1
  endloop
 endfacet
 facet normal -0.961931 -0.273291 0
  outer loop
   vertex 0.0374267 -0.041259 -1
   vertex 0.0375545 -0.0417089 1
   vertex 0.0374267 -0.041259 1
  endloop
 endfacet
 facet normal -0.952711 -0.303878 0
  outer loop
   vertex 0.0374267 -0.041259 -1
   vertex 0.0374267 -0.041259 1
   vertex 0.0372846 -0.0408135 -1
  endloop
 endfacet
 facet normal -0.952711 -0.303878 0
  outer loop
   vertex 0.0372846 -0.0408135 -1
   vertex 0.0374267 -0.041259 1
   vertex 0.0372846 -0.0408135 1
  endloop
 endfacet
 facet normal -0.942341 -0.334655 0
  outer loop
   vertex 0.0372846 -0.0408135 -1
   vertex 0.0372846 -0.0408135 1
   vertex 0.0371281 -0.0403728 -1
  endloop
 endfacet
 facet normal -0.942341 -0.334655 0
  outer loop
   vertex 0.0371281 -0.0403728 -1
   vertex 0.0372846 -0.0408135 1
   vertex 0.0371281 -0.0403728 1
  endloop
 endfacet
 facet normal -0.931239 -0.364409 0
  outer loop
   vertex 0.0371281 -0.0403728 -1
   vertex 0.0371281 -0.0403728 1
   vertex 0.0369577 -0.0399374 -1
  endloop
 endfacet
 facet normal -0.931239 -0.364409 0
  outer loop
   vertex 0.0369577 -0.0399374 -1
   vertex 0.0371281 -0.0403728 1
   vertex 0.0369577 -0.0399374 1
  endloop
 endfacet
 facet normal -0.918972 -0.394324 0
  outer loop
   vertex 0.0369577 -0.0399374 -1
   vertex 0.0369577 -0.0399374 1
   vertex 0.0367733 -0.0395076 -1
  endloop
 endfacet
 facet normal -0.918972 -0.394324 0
  outer loop
   vertex 0.0367733 -0.0395076 -1
   vertex 0.0369577 -0.0399374 1
   vertex 0.0367733 -0.0395076 1
  endloop
 endfacet
 facet normal -0.905837 -0.423626 0
  outer loop
   vertex 0.0367733 -0.0395076 -1
   vertex 0.0367733 -0.0395076 1
   vertex 0.0365752 -0.039084 -1
  endloop
 endfacet
 facet normal -0.905837 -0.423626 0
  outer loop
   vertex 0.0365752 -0.039084 -1
   vertex 0.0367733 -0.0395076 1
   vertex 0.0365752 -0.039084 1
  endloop
 endfacet
 facet normal -0.89177 -0.452489 0
  outer loop
   vertex 0.0365752 -0.039084 -1
   vertex 0.0365752 -0.039084 1
   vertex 0.0363636 -0.038667 -1
  endloop
 endfacet
 facet normal -0.89177 -0.452489 0
  outer loop
   vertex 0.0363636 -0.038667 -1
   vertex 0.0365752 -0.039084 1
   vertex 0.0363636 -0.038667 1
  endloop
 endfacet
 facet normal -0.876754 -0.480939 0
  outer loop
   vertex 0.0363636 -0.038667 -1
   vertex 0.0363636 -0.038667 1
   vertex 0.0361387 -0.038257 -1
  endloop
 endfacet
 facet normal -0.876754 -0.480939 0
  outer loop
   vertex 0.0361387 -0.038257 -1
   vertex 0.0363636 -0.038667 1
   vertex 0.0361387 -0.038257 1
  endloop
 endfacet
 facet normal -0.860909 -0.508758 0
  outer loop
   vertex 0.0361387 -0.038257 -1
   vertex 0.0361387 -0.038257 1
   vertex 0.0359008 -0.0378545 -1
  endloop
 endfacet
 facet normal -0.860909 -0.508758 0
  outer loop
   vertex 0.0359008 -0.0378545 -1
   vertex 0.0361387 -0.038257 1
   vertex 0.0359008 -0.0378545 1
  endloop
 endfacet
 facet normal -0.844024 -0.536306 0
  outer loop
   vertex 0.0359008 -0.0378545 -1
   vertex 0.0359008 -0.0378545 1
   vertex 0.03565 -0.0374598 -1
  endloop
 endfacet
 facet normal -0.844024 -0.536306 0
  outer loop
   vertex 0.03565 -0.0374598 -1
   vertex 0.0359008 -0.0378545 1
   vertex 0.03565 -0.0374598 1
  endloop
 endfacet
 facet normal -0.826415 -0.563061 0
  outer loop
   vertex 0.03565 -0.0374598 -1
   vertex 0.03565 -0.0374598 1
   vertex 0.0353867 -0.0370733 -1
  endloop
 endfacet
 facet normal -0.826415 -0.563061 0
  outer loop
   vertex 0.0353867 -0.0370733 -1
   vertex 0.03565 -0.0374598 1
   vertex 0.0353867 -0.0370733 1
  endloop
 endfacet
 facet normal -0.807876 -0.589352 0
  outer loop
   vertex 0.0353867 -0.0370733 -1
   vertex 0.0353867 -0.0370733 1
   vertex 0.0351111 -0.0366955 -1
  endloop
 endfacet
 facet normal -0.807876 -0.589352 0
  outer loop
   vertex 0.0351111 -0.0366955 -1
   vertex 0.0353867 -0.0370733 1
   vertex 0.0351111 -0.0366955 1
  endloop
 endfacet
 facet normal -0.78852 -0.615009 0
  outer loop
   vertex 0.0351111 -0.0366955 -1
   vertex 0.0351111 -0.0366955 1
   vertex 0.0348235 -0.0363268 -1
  endloop
 endfacet
 facet normal -0.78852 -0.615009 0
  outer loop
   vertex 0.0348235 -0.0363268 -1
   vertex 0.0351111 -0.0366955 1
   vertex 0.0348235 -0.0363268 1
  endloop
 endfacet
 facet normal -0.768343 -0.640038 0
  outer loop
   vertex 0.0348235 -0.0363268 -1
   vertex 0.0348235 -0.0363268 1
   vertex 0.0345242 -0.0359675 -1
  endloop
 endfacet
 facet normal -0.768343 -0.640038 0
  outer loop
   vertex 0.0345242 -0.0359675 -1
   vertex 0.0348235 -0.0363268 1
   vertex 0.0345242 -0.0359675 1
  endloop
 endfacet
 facet normal -0.747383 -0.664394 0
  outer loop
   vertex 0.0345242 -0.0359675 -1
   vertex 0.0345242 -0.0359675 1
   vertex 0.0342135 -0.035618 -1
  endloop
 endfacet
 facet normal -0.747383 -0.664394 0
  outer loop
   vertex 0.0342135 -0.035618 -1
   vertex 0.0345242 -0.0359675 1
   vertex 0.0342135 -0.035618 1
  endloop
 endfacet
 facet normal -0.725731 -0.687979 0
  outer loop
   vertex 0.0342135 -0.035618 -1
   vertex 0.0342135 -0.035618 1
   vertex 0.0338918 -0.0352786 -1
  endloop
 endfacet
 facet normal -0.725731 -0.687979 0
  outer loop
   vertex 0.0338918 -0.0352786 -1
   vertex 0.0342135 -0.035618 1
   vertex 0.0338918 -0.0352786 1
  endloop
 endfacet
 facet normal -0.70316 -0.711031 0
  outer loop
   vertex 0.0338918 -0.0352786 -1
   vertex 0.0338918 -0.0352786 1
   vertex 0.0335593 -0.0349498 -1
  endloop
 endfacet
 facet normal -0.70316 -0.711031 0
  outer loop
   vertex 0.0335593 -0.0349498 -1
   vertex 0.0338918 -0.0352786 1
   vertex 0.0335593 -0.0349498 1
  endloop
 endfacet
 facet normal -0.679959 -0.73325 0
  outer loop
   vertex 0.0335593 -0.0349498 -1
   vertex 0.0335593 -0.0349498 1
   vertex 0.0332164 -0.0346318 -1
  endloop
 endfacet
 facet normal -0.679959 -0.73325 0
  outer loop
   vertex 0.0332164 -0.0346318 -1
   vertex 0.0335593 -0.0349498 1
   vertex 0.0332164 -0.0346318 1
  endloop
 endfacet
 facet normal -0.656097 -0.754676 0
  outer loop
   vertex 0.0332164 -0.0346318 -1
   vertex 0.0332164 -0.0346318 1
   vertex 0.0328635 -0.034325 -1
  endloop
 endfacet
 facet normal -0.656097 -0.754676 0
  outer loop
   vertex 0.0328635 -0.034325 -1
   vertex 0.0332164 -0.0346318 1
   vertex 0.0328635 -0.034325 1
  endloop
 endfacet
 facet normal -0.631477 -0.775395 0
  outer loop
   vertex 0.0328635 -0.034325 -1
   vertex 0.0328635 -0.034325 1
   vertex 0.0325009 -0.0340297 -1
  endloop
 endfacet
 facet normal -0.631477 -0.775395 0
  outer loop
   vertex 0.0325009 -0.0340297 -1
   vertex 0.0328635 -0.034325 1
   vertex 0.0325009 -0.0340297 1
  endloop
 endfacet
 facet normal -0.60623 -0.795289 0
  outer loop
   vertex 0.0325009 -0.0340297 -1
   vertex 0.0325009 -0.0340297 1
   vertex 0.032129 -0.0337462 -1
  endloop
 endfacet
 facet normal -0.60623 -0.795289 0
  outer loop
   vertex 0.032129 -0.0337462 -1
   vertex 0.0325009 -0.0340297 1
   vertex 0.032129 -0.0337462 1
  endloop
 endfacet
 facet normal -0.580389 -0.814339 0
  outer loop
   vertex 0.032129 -0.0337462 -1
   vertex 0.032129 -0.0337462 1
   vertex 0.0317482 -0.0334748 -1
  endloop
 endfacet
 facet normal -0.580389 -0.814339 0
  outer loop
   vertex 0.0317482 -0.0334748 -1
   vertex 0.032129 -0.0337462 1
   vertex 0.0317482 -0.0334748 1
  endloop
 endfacet
 facet normal -0.55384 -0.832623 0
  outer loop
   vertex 0.0317482 -0.0334748 -1
   vertex 0.0317482 -0.0334748 1
   vertex 0.0313588 -0.0332158 -1
  endloop
 endfacet
 facet normal -0.55384 -0.832623 0
  outer loop
   vertex 0.0313588 -0.0332158 -1
   vertex 0.0317482 -0.0334748 1
   vertex 0.0313588 -0.0332158 1
  endloop
 endfacet
 facet normal -0.526942 -0.849901 0
  outer loop
   vertex 0.0313588 -0.0332158 -1
   vertex 0.0313588 -0.0332158 1
   vertex 0.0309614 -0.0329694 -1
  endloop
 endfacet
 facet normal -0.526942 -0.849901 0
  outer loop
   vertex 0.0309614 -0.0329694 -1
   vertex 0.0313588 -0.0332158 1
   vertex 0.0309614 -0.0329694 1
  endloop
 endfacet
 facet normal -0.499258 -0.866453 0
  outer loop
   vertex 0.0309614 -0.0329694 -1
   vertex 0.0309614 -0.0329694 1
   vertex 0.0305562 -0.0327359 -1
  endloop
 endfacet
 facet normal -0.499258 -0.866453 0
  outer loop
   vertex 0.0305562 -0.0327359 -1
   vertex 0.0309614 -0.0329694 1
   vertex 0.0305562 -0.0327359 1
  endloop
 endfacet
 facet normal -0.471171 -0.882042 0
  outer loop
   vertex 0.0305562 -0.0327359 -1
   vertex 0.0305562 -0.0327359 1
   vertex 0.0301437 -0.0325156 -1
  endloop
 endfacet
 facet normal -0.471171 -0.882042 0
  outer loop
   vertex 0.0301437 -0.0325156 -1
   vertex 0.0305562 -0.0327359 1
   vertex 0.0301437 -0.0325156 1
  endloop
 endfacet
 facet normal -0.442623 -0.896708 0
  outer loop
   vertex 0.0301437 -0.0325156 -1
   vertex 0.0301437 -0.0325156 1
   vertex 0.0297244 -0.0323086 -1
  endloop
 endfacet
 facet normal -0.442623 -0.896708 0
  outer loop
   vertex 0.0297244 -0.0323086 -1
   vertex 0.0301437 -0.0325156 1
   vertex 0.0297244 -0.0323086 1
  endloop
 endfacet
 facet normal -0.413643 -0.910439 0
  outer loop
   vertex 0.0297244 -0.0323086 -1
   vertex 0.0297244 -0.0323086 1
   vertex 0.0292987 -0.0321152 -1
  endloop
 endfacet
 facet normal -0.413643 -0.910439 0
  outer loop
   vertex 0.0292987 -0.0321152 -1
   vertex 0.0297244 -0.0323086 1
   vertex 0.0292987 -0.0321152 1
  endloop
 endfacet
 facet normal -0.384075 -0.923302 0
  outer loop
   vertex 0.0292987 -0.0321152 -1
   vertex 0.0292987 -0.0321152 1
   vertex 0.0288669 -0.0319356 -1
  endloop
 endfacet
 facet normal -0.384075 -0.923302 0
  outer loop
   vertex 0.0288669 -0.0319356 -1
   vertex 0.0292987 -0.0321152 1
   vertex 0.0288669 -0.0319356 1
  endloop
 endfacet
 facet normal -0.354237 -0.935156 0
  outer loop
   vertex 0.0288669 -0.0319356 -1
   vertex 0.0288669 -0.0319356 1
   vertex 0.0284296 -0.0317699 -1
  endloop
 endfacet
 facet normal -0.354237 -0.935156 0
  outer loop
   vertex 0.0284296 -0.0317699 -1
   vertex 0.0288669 -0.0319356 1
   vertex 0.0284296 -0.0317699 1
  endloop
 endfacet
 facet normal -0.324019 -0.94605 0
  outer loop
   vertex 0.0284296 -0.0317699 -1
   vertex 0.0284296 -0.0317699 1
   vertex 0.0279872 -0.0316184 -1
  endloop
 endfacet
 facet normal -0.324019 -0.94605 0
  outer loop
   vertex 0.0279872 -0.0316184 -1
   vertex 0.0284296 -0.0317699 1
   vertex 0.0279872 -0.0316184 1
  endloop
 endfacet
 facet normal -0.293463 -0.95597 0
  outer loop
   vertex 0.0279872 -0.0316184 -1
   vertex 0.0279872 -0.0316184 1
   vertex 0.0275402 -0.0314812 -1
  endloop
 endfacet
 facet normal -0.293463 -0.95597 0
  outer loop
   vertex 0.0275402 -0.0314812 -1
   vertex 0.0279872 -0.0316184 1
   vertex 0.0275402 -0.0314812 1
  endloop
 endfacet
 facet normal -0.262556 -0.964917 0
  outer loop
   vertex 0.0275402 -0.0314812 -1
   vertex 0.0275402 -0.0314812 1
   vertex 0.0270889 -0.0313584 -1
  endloop
 endfacet
 facet normal -0.262556 -0.964917 0
  outer loop
   vertex 0.0270889 -0.0313584 -1
   vertex 0.0275402 -0.0314812 1
   vertex 0.0270889 -0.0313584 1
  endloop
 endfacet
 facet normal -0.231439 -0.972849 0
  outer loop
   vertex 0.0270889 -0.0313584 -1
   vertex 0.0270889 -0.0313584 1
   vertex 0.026634 -0.0312502 -1
  endloop
 endfacet
 facet normal -0.231439 -0.972849 0
  outer loop
   vertex 0.026634 -0.0312502 -1
   vertex 0.0270889 -0.0313584 1
   vertex 0.026634 -0.0312502 1
  endloop
 endfacet
 facet normal -0.200063 -0.979783 0
  outer loop
   vertex 0.026634 -0.0312502 -1
   vertex 0.026634 -0.0312502 1
   vertex 0.0261758 -0.0311566 -1
  endloop
 endfacet
 facet normal -0.200063 -0.979783 0
  outer loop
   vertex 0.0261758 -0.0311566 -1
   vertex 0.026634 -0.0312502 1
   vertex 0.0261758 -0.0311566 1
  endloop
 endfacet
 facet normal -0.168503 -0.985701 0
  outer loop
   vertex 0.0261758 -0.0311566 -1
   vertex 0.0261758 -0.0311566 1
   vertex 0.0257149 -0.0310778 -1
  endloop
 endfacet
 facet normal -0.168503 -0.985701 0
  outer loop
   vertex 0.0257149 -0.0310778 -1
   vertex 0.0261758 -0.0311566 1
   vertex 0.0257149 -0.0310778 1
  endloop
 endfacet
 facet normal -0.136694 -0.990613 0
  outer loop
   vertex 0.0257149 -0.0310778 -1
   vertex 0.0257149 -0.0310778 1
   vertex 0.0252516 -0.0310139 -1
  endloop
 endfacet
 facet normal -0.136694 -0.990613 0
  outer loop
   vertex 0.0252516 -0.0310139 -1
   vertex 0.0257149 -0.0310778 1
   vertex 0.0252516 -0.0310139 1
  endloop
 endfacet
 facet normal -0.104796 -0.994494 0
  outer loop
   vertex 0.0252516 -0.0310139 -1
   vertex 0.0252516 -0.0310139 1
   vertex 0.0247866 -0.0309649 -1
  endloop
 endfacet
 facet normal -0.104796 -0.994494 0
  outer loop
   vertex 0.0247866 -0.0309649 -1
   vertex 0.0252516 -0.0310139 1
   vertex 0.0247866 -0.0309649 1
  endloop
 endfacet
 facet normal -0.0728539 -0.997343 0
  outer loop
   vertex 0.0247866 -0.0309649 -1
   vertex 0.0247866 -0.0309649 1
   vertex 0.0243202 -0.0309308 -1
  endloop
 endfacet
 facet normal -0.0728539 -0.997343 0
  outer loop
   vertex 0.0243202 -0.0309308 -1
   vertex 0.0247866 -0.0309649 1
   vertex 0.0243202 -0.0309308 1
  endloop
 endfacet
 facet normal -0.0406987 -0.999171 0
  outer loop
   vertex 0.0243202 -0.0309308 -1
   vertex 0.0243202 -0.0309308 1
   vertex 0.023853 -0.0309118 -1
  endloop
 endfacet
 facet normal -0.0406987 -0.999171 0
  outer loop
   vertex 0.023853 -0.0309118 -1
   vertex 0.0243202 -0.0309308 1
   vertex 0.023853 -0.0309118 1
  endloop
 endfacet
 facet normal -0.999844 -0.0176705 -0
  outer loop
   vertex 0.0232295 -0.0303097 1
   vertex 0.0232242 -0.0300097 1
   vertex 0.0232295 -0.0303097 -1
  endloop
 endfacet
 facet normal -0.999844 -0.0176705 0
  outer loop
   vertex 0.0232295 -0.0303097 -1
   vertex 0.0232242 -0.0300097 1
   vertex 0.0232242 -0.0300097 -1
  endloop
 endfacet
 facet normal 0 0 -1
  outer loop
   vertex 0.0232295 -0.0303097 -1
   vertex 0.0232242 -0.0300097 -1
   vertex 0.023853 -0.0309118 -1
  endloop
 endfacet
 facet normal 0 0 -1
  outer loop
   vertex 0.023853 -0.0309118 -1
   vertex 0.0232242 -0.0300097 -1
   vertex 0.0237038 -0.0300087 -1
  endloop
 endfacet
 facet normal 0 0 -1
  outer loop
   vertex 0.023853 -0.0309118 -1
   vertex 0.0237038 -0.0300087 -1
   vertex 0.0243202 -0.0309308 -1
  endloop
 endfacet
 facet normal 0 0 -1
  outer loop
   vertex 0.0243202 -0.0309308 -1
   vertex 0.0237038 -0.0300087 -1
   vertex 0.0241832 -0.0300227 -1
  endloop
 endfacet
 facet normal 0 0 -1
  outer loop
   vertex 0.0243202 -0.0309308 -1
   vertex 0.0241832 -0.0300227 -1
   vertex 0.0247866 -0.0309649 -1
  endloop
 endfacet
 facet normal 0 0 -1
  outer loop
   vertex 0.0247866 -0.0309649 -1
   vertex 0.0241832 -0.0300227 -1
   vertex 0.024662 -0.0300516 -1
  endloop
 endfacet
 facet normal 0 0 -1
  outer loop
   vertex 0.0247866 -0.0309649 -1
   vertex 0.024662 -0.0300516 -1
   vertex 0.0252516 -0.0310139 -1
  endloop
 endfacet
 facet normal 0 0 -1
  outer loop
   vertex 0.0252516 -0.0310139 -1
   vertex 0.024662 -0.0300516 -1
   vertex 0.0251397 -0.0300953 -1
  endloop
 endfacet
 facet normal 0 0 -1
  outer loop
   vertex 0.0252516 -0.0310139 -1
   vertex 0.0251397 -0.0300953 -1
   vertex 0.0257149 -0.0310778 -1
  endloop
 endfacet
 facet normal 0 0 -1
  outer loop
   vertex 0.0381633 -0.047783 -1
   vertex 0.037867 -0.0477361 -1
   vertex 0.0388369 -0.0472936 -1
  endloop
 endfacet
 facet normal -0 0 -1
  outer loop
   vertex 0.0388369 -0.0472936 -1
   vertex 0.037867 -0.0477361 -1
   vertex 0.0379327 -0.0472731 -1
  endloop
 endfacet
 facet normal 0 0 -1
  outer loop
   vertex 0.0388369 -0.0472936 -1
   vertex 0.0379327 -0.0472731 -1
   vertex 0.0388865 -0.0468165 -1
  endloop
 endfacet
 facet normal -0 0 -1
  outer loop
   vertex 0.0388865 -0.0468165 -1
   vertex 0.0379327 -0.0472731 -1
   vertex 0.0379835 -0.0468083 -1
  endloop
 endfacet
 facet normal 0 0 -1
  outer loop
   vertex 0.0388865 -0.0468165 -1
   vertex 0.0379835 -0.0468083 -1
   vertex 0.0389212 -0.0463382 -1
  endloop
 endfacet
 facet normal 0 0 -1
  outer loop
   vertex 0.0389212 -0.0463382 -1
   vertex 0.0379835 -0.0468083 -1
   vertex 0.0380194 -0.046342 -1
  endloop
 endfacet
 facet normal -0 0 -1
  outer loop
   vertex 0.0389212 -0.0463382 -1
   vertex 0.0380194 -0.046342 -1
   vertex 0.038941 -0.045859 -1
  endloop
 endfacet
 facet normal 0 0 -1
  outer loop
   vertex 0.038941 -0.045859 -1
   vertex 0.0380194 -0.046342 -1
   vertex 0.0380402 -0.0458748 -1
  endloop
 endfacet
 facet normal -0 0 -1
  outer loop
   vertex 0.038941 -0.045859 -1
   vertex 0.0380402 -0.0458748 -1
   vertex 0.038946 -0.0453794 -1
  endloop
 endfacet
 facet normal 0 0 -1
  outer loop
   vertex 0.038946 -0.0453794 -1
   vertex 0.0380402 -0.0458748 -1
   vertex 0.0380461 -0.0454072 -1
  endloop
 endfacet
 facet normal -0 0 -1
  outer loop
   vertex 0.038946 -0.0453794 -1
   vertex 0.0380461 -0.0454072 -1
   vertex 0.038936 -0.0448998 -1
  endloop
 endfacet
 facet normal 0 0 -1
  outer loop
   vertex 0.038936 -0.0448998 -1
   vertex 0.0380461 -0.0454072 -1
   vertex 0.0380369 -0.0449397 -1
  endloop
 endfacet
 facet normal -0 0 -1
  outer loop
   vertex 0.038936 -0.0448998 -1
   vertex 0.0380369 -0.0449397 -1
   vertex 0.0389112 -0.0444208 -1
  endloop
 endfacet
 facet normal 0 0 -1
  outer loop
   vertex 0.0389112 -0.0444208 -1
   vertex 0.0380369 -0.0449397 -1
   vertex 0.0380126 -0.0444727 -1
  endloop
 endfacet
 facet normal -0 0 -1
  outer loop
   vertex 0.0389112 -0.0444208 -1
   vertex 0.0380126 -0.0444727 -1
   vertex 0.0388715 -0.0439429 -1
  endloop
 endfacet
 facet normal 0 0 -1
  outer loop
   vertex 0.0388715 -0.0439429 -1
   vertex 0.0380126 -0.0444727 -1
   vertex 0.0379734 -0.0440067 -1
  endloop
 endfacet
 facet normal -0 0 -1
  outer loop
   vertex 0.0388715 -0.0439429 -1
   vertex 0.0379734 -0.0440067 -1
   vertex 0.038817 -0.0434663 -1
  endloop
 endfacet
 facet normal 0 0 -1
  outer loop
   vertex 0.038817 -0.0434663 -1
   vertex 0.0379734 -0.0440067 -1
   vertex 0.0379193 -0.0435422 -1
  endloop
 endfacet
 facet normal -0 0 -1
  outer loop
   vertex 0.038817 -0.0434663 -1
   vertex 0.0379193 -0.0435422 -1
   vertex 0.0387478 -0.0429918 -1
  endloop
 endfacet
 facet normal 0 0 -1
  outer loop
   vertex 0.0387478 -0.0429918 -1
   vertex 0.0379193 -0.0435422 -1
   vertex 0.0378502 -0.0430797 -1
  endloop
 endfacet
 facet normal -0 0 -1
  outer loop
   vertex 0.0387478 -0.0429918 -1
   vertex 0.0378502 -0.0430797 -1
   vertex 0.0386639 -0.0425195 -1
  endloop
 endfacet
 facet normal 0 0 -1
  outer loop
   vertex 0.0386639 -0.0425195 -1
   vertex 0.0378502 -0.0430797 -1
   vertex 0.0377663 -0.0426197 -1
  endloop
 endfacet
 facet normal -0 0 -1
  outer loop
   vertex 0.0386639 -0.0425195 -1
   vertex 0.0377663 -0.0426197 -1
   vertex 0.0385653 -0.0420501 -1
  endloop
 endfacet
 facet normal 0 0 -1
  outer loop
   vertex 0.0385653 -0.0420501 -1
   vertex 0.0377663 -0.0426197 -1
   vertex 0.0376677 -0.0421626 -1
  endloop
 endfacet
 facet normal -0 0 -1
  outer loop
   vertex 0.0385653 -0.0420501 -1
   vertex 0.0376677 -0.0421626 -1
   vertex 0.0384522 -0.041584 -1
  endloop
 endfacet
 facet normal 0 0 -1
  outer loop
   vertex 0.0384522 -0.041584 -1
   vertex 0.0376677 -0.0421626 -1
   vertex 0.0375545 -0.0417089 -1
  endloop
 endfacet
 facet normal -0 0 -1
  outer loop
   vertex 0.0384522 -0.041584 -1
   vertex 0.0375545 -0.0417089 -1
   vertex 0.0383248 -0.0411217 -1
  endloop
 endfacet
 facet normal 0 0 -1
  outer loop
   vertex 0.0383248 -0.0411217 -1
   vertex 0.0375545 -0.0417089 -1
   vertex 0.0374267 -0.041259 -1
  endloop
 endfacet
 facet normal -0 0 -1
  outer loop
   vertex 0.0383248 -0.0411217 -1
   vertex 0.0374267 -0.041259 -1
   vertex 0.038183 -0.0406635 -1
  endloop
 endfacet
 facet normal 0 0 -1
  outer loop
   vertex 0.038183 -0.0406635 -1
   vertex 0.0374267 -0.041259 -1
   vertex 0.0372846 -0.0408135 -1
  endloop
 endfacet
 facet normal -0 0 -1
  outer loop
   vertex 0.038183 -0.0406635 -1
   vertex 0.0372846 -0.0408135 -1
   vertex 0.0380271 -0.0402099 -1
  endloop
 endfacet
 facet normal 0 0 -1
  outer loop
   vertex 0.0380271 -0.0402099 -1
   vertex 0.0372846 -0.0408135 -1
   vertex 0.0371281 -0.0403728 -1
  endloop
 endfacet
 facet normal -0 0 -1
  outer loop
   vertex 0.0380271 -0.0402099 -1
   vertex 0.0371281 -0.0403728 -1
   vertex 0.0378571 -0.0397614 -1
  endloop
 endfacet
 facet normal 0 0 -1
  outer loop
   vertex 0.0378571 -0.0397614 -1
   vertex 0.0371281 -0.0403728 -1
   vertex 0.0369577 -0.0399374 -1
  endloop
 endfacet
 facet normal -0 0 -1
  outer loop
   vertex 0.0378571 -0.0397614 -1
   vertex 0.0369577 -0.0399374 -1
   vertex 0.0376734 -0.0393184 -1
  endloop
 endfacet
 facet normal 0 0 -1
  outer loop
   vertex 0.0376734 -0.0393184 -1
   vertex 0.0369577 -0.0399374 -1
   vertex 0.0367733 -0.0395076 -1
  endloop
 endfacet
 facet normal -0 0 -1
  outer loop
   vertex 0.0376734 -0.0393184 -1
   vertex 0.0367733 -0.0395076 -1
   vertex 0.0374759 -0.0388813 -1
  endloop
 endfacet
 facet normal 0 0 -1
  outer loop
   vertex 0.0374759 -0.0388813 -1
   vertex 0.0367733 -0.0395076 -1
   vertex 0.0365752 -0.039084 -1
  endloop
 endfacet
 facet normal -0 0 -1
  outer loop
   vertex 0.0374759 -0.0388813 -1
   vertex 0.0365752 -0.039084 -1
   vertex 0.0372651 -0.0384505 -1
  endloop
 endfacet
 facet normal 0 0 -1
  outer loop
   vertex 0.0372651 -0.0384505 -1
   vertex 0.0365752 -0.039084 -1
   vertex 0.0363636 -0.038667 -1
  endloop
 endfacet
 facet normal -0 0 -1
  outer loop
   vertex 0.0372651 -0.0384505 -1
   vertex 0.0363636 -0.038667 -1
   vertex 0.0370409 -0.0380265 -1
  endloop
 endfacet
 facet normal 0 0 -1
  outer loop
   vertex 0.0370409 -0.0380265 -1
   vertex 0.0363636 -0.038667 -1
   vertex 0.0361387 -0.038257 -1
  endloop
 endfacet
 facet normal 0 0 -1
  outer loop
   vertex 0.0251397 -0.0300953 -1
   vertex 0.0256157 -0.0301537 -1
   vertex 0.0257149 -0.0310778 -1
  endloop
 endfacet
 facet normal 0 0 -1
  outer loop
   vertex 0.0257149 -0.0310778 -1
   vertex 0.0256157 -0.0301537 -1
   vertex 0.0260897 -0.0302269 -1
  endloop
 endfacet
 facet normal 0 0 -1
  outer loop
   vertex 0.0257149 -0.0310778 -1
   vertex 0.0260897 -0.0302269 -1
   vertex 0.0261758 -0.0311566 -1
  endloop
 endfacet
 facet normal 0 0 -1
  outer loop
   vertex 0.0261758 -0.0311566 -1
   vertex 0.0260897 -0.0302269 -1
   vertex 0.0265612 -0.0303148 -1
  endloop
 endfacet
 facet normal 0 0 -1
  outer loop
   vertex 0.0261758 -0.0311566 -1
   vertex 0.0265612 -0.0303148 -1
   vertex 0.026634 -0.0312502 -1
  endloop
 endfacet
 facet normal 0 0 -1
  outer loop
   vertex 0.026634 -0.0312502 -1
   vertex 0.0265612 -0.0303148 -1
   vertex 0.0270297 -0.0304173 -1
  endloop
 endfacet
 facet normal 0 0 -1
  outer loop
   vertex 0.026634 -0.0312502 -1
   vertex 0.0270297 -0.0304173 -1
   vertex 0.0270889 -0.0313584 -1
  endloop
 endfacet
 facet normal 0 0 -1
  outer loop
   vertex 0.0270889 -0.0313584 -1
   vertex 0.0270297 -0.0304173 -1
   vertex 0.0274949 -0.0305343 -1
  endloop
 endfacet
 facet normal 0 0 -1
  outer loop
   vertex 0.0270889 -0.0313584 -1
   vertex 0.0274949 -0.0305343 -1
   vertex 0.0275402 -0.0314812 -1
  endloop
 endfacet
 facet normal 0 0 -1
  outer loop
   vertex 0.0275402 -0.0314812 -1
   vertex 0.0274949 -0.0305343 -1
   vertex 0.0279561 -0.0306657 -1
  endloop
 endfacet
 facet normal 0 0 -1
  outer loop
   vertex 0.0275402 -0.0314812 -1
   vertex 0.0279561 -0.0306657 -1
   vertex 0.0279872 -0.0316184 -1
  endloop
 endfacet
 facet normal 0 0 -1
  outer loop
   vertex 0.0279872 -0.0316184 -1
   vertex 0.0279561 -0.0306657 -1
   vertex 0.0284131 -0.0308113 -1
  endloop
 endfacet
 facet normal 0 0 -1
  outer loop
   vertex 0.0279872 -0.0316184 -1
   vertex 0.0284131 -0.0308113 -1
   vertex 0.0284296 -0.0317699 -1
  endloop
 endfacet
 facet normal 0 0 -1
  outer loop
   vertex 0.0284296 -0.0317699 -1
   vertex 0.0284131 -0.0308113 -1
   vertex 0.0288654 -0.030971 -1
  endloop
 endfacet
 facet normal 0 0 -1
  outer loop
   vertex 0.0284296 -0.0317699 -1
   vertex 0.0288654 -0.030971 -1
   vertex 0.0288669 -0.0319356 -1
  endloop
 endfacet
 facet normal 0 0 -1
  outer loop
   vertex 0.0288669 -0.0319356 -1
   vertex 0.0288654 -0.030971 -1
   vertex 0.0293125 -0.0311447 -1
  endloop
 endfacet
 facet normal 0 0 -1
  outer loop
   vertex 0.0288669 -0.0319356 -1
   vertex 0.0293125 -0.0311447 -1
   vertex 0.0292987 -0.0321152 -1
  endloop
 endfacet
 facet normal 0 0 -1
  outer loop
   vertex 0.0292987 -0.0321152 -1
   vertex 0.0293125 -0.0311447 -1
   vertex 0.0297539 -0.0313322 -1
  endloop
 endfacet
 facet normal 0 0 -1
  outer loop
   vertex 0.0292987 -0.0321152 -1
   vertex 0.0297539 -0.0313322 -1
   vertex 0.0297244 -0.0323086 -1
  endloop
 endfacet
 facet normal 0 0 -1
  outer loop
   vertex 0.0297244 -0.0323086 -1
   vertex 0.0297539 -0.0313322 -1
   vertex 0.0301894 -0.0315332 -1
  endloop
 endfacet
 facet normal 0 0 -1
  outer loop
   vertex 0.0297244 -0.0323086 -1
   vertex 0.0301894 -0.0315332 -1
   vertex 0.0301437 -0.0325156 -1
  endloop
 endfacet
 facet normal 0 0 -1
  outer loop
   vertex 0.0301437 -0.0325156 -1
   vertex 0.0301894 -0.0315332 -1
   vertex 0.0306183 -0.0317478 -1
  endloop
 endfacet
 facet normal 0 0 -1
  outer loop
   vertex 0.0301437 -0.0325156 -1
   vertex 0.0306183 -0.0317478 -1
   vertex 0.0305562 -0.0327359 -1
  endloop
 endfacet
 facet normal 0 0 -1
  outer loop
   vertex 0.0305562 -0.0327359 -1
   vertex 0.0306183 -0.0317478 -1
   vertex 0.0310405 -0.0319755 -1
  endloop
 endfacet
 facet normal 0 0 -1
  outer loop
   vertex 0.0305562 -0.0327359 -1
   vertex 0.0310405 -0.0319755 -1
   vertex 0.0309614 -0.0329694 -1
  endloop
 endfacet
 facet normal 0 0 -1
  outer loop
   vertex 0.0309614 -0.0329694 -1
   vertex 0.0310405 -0.0319755 -1
   vertex 0.0314553 -0.0322162 -1
  endloop
 endfacet
 facet normal 0 0 -1
  outer loop
   vertex 0.0309614 -0.0329694 -1
   vertex 0.0314553 -0.0322162 -1
   vertex 0.0313588 -0.0332158 -1
  endloop
 endfacet
 facet normal 0 0 -1
  outer loop
   vertex 0.0313588 -0.0332158 -1
   vertex 0.0314553 -0.0322162 -1
   vertex 0.0318625 -0.0324697 -1
  endloop
 endfacet
 facet normal 0 0 -1
  outer loop
   vertex 0.0313588 -0.0332158 -1
   vertex 0.0318625 -0.0324697 -1
   vertex 0.0317482 -0.0334748 -1
  endloop
 endfacet
 facet normal 0 0 -1
  outer loop
   vertex 0.0317482 -0.0334748 -1
   vertex 0.0318625 -0.0324697 -1
   vertex 0.0322616 -0.0327356 -1
  endloop
 endfacet
 facet normal 0 0 -1
  outer loop
   vertex 0.0317482 -0.0334748 -1
   vertex 0.0322616 -0.0327356 -1
   vertex 0.032129 -0.0337462 -1
  endloop
 endfacet
 facet normal 0 0 -1
  outer loop
   vertex 0.032129 -0.0337462 -1
   vertex 0.0322616 -0.0327356 -1
   vertex 0.0326523 -0.0330139 -1
  endloop
 endfacet
 facet normal 0 0 -1
  outer loop
   vertex 0.032129 -0.0337462 -1
   vertex 0.0326523 -0.0330139 -1
   vertex 0.0325009 -0.0340297 -1
  endloop
 endfacet
 facet normal 0 0 -1
  outer loop
   vertex 0.0325009 -0.0340297 -1
   vertex 0.0326523 -0.0330139 -1
   vertex 0.0330341 -0.0333041 -1
  endloop
 endfacet
 facet normal 0 0 -1
  outer loop
   vertex 0.0325009 -0.0340297 -1
   vertex 0.0330341 -0.0333041 -1
   vertex 0.0328635 -0.034325 -1
  endloop
 endfacet
 facet normal 0 0 -1
  outer loop
   vertex 0.0328635 -0.034325 -1
   vertex 0.0330341 -0.0333041 -1
   vertex 0.0334068 -0.033606 -1
  endloop
 endfacet
 facet normal 0 0 -1
  outer loop
   vertex 0.0328635 -0.034325 -1
   vertex 0.0334068 -0.033606 -1
   vertex 0.0332164 -0.0346318 -1
  endloop
 endfacet
 facet normal 0 0 -1
  outer loop
   vertex 0.0332164 -0.0346318 -1
   vertex 0.0334068 -0.033606 -1
   vertex 0.0337699 -0.0339194 -1
  endloop
 endfacet
 facet normal 0 0 -1
  outer loop
   vertex 0.0332164 -0.0346318 -1
   vertex 0.0337699 -0.0339194 -1
   vertex 0.0335593 -0.0349498 -1
  endloop
 endfacet
 facet normal 0 0 -1
  outer loop
   vertex 0.0335593 -0.0349498 -1
   vertex 0.0337699 -0.0339194 -1
   vertex 0.0341231 -0.0342439 -1
  endloop
 endfacet
 facet normal 0 0 -1
  outer loop
   vertex 0.0335593 -0.0349498 -1
   vertex 0.0341231 -0.0342439 -1
   vertex 0.0338918 -0.0352786 -1
  endloop
 endfacet
 facet normal 0 0 -1
  outer loop
   vertex 0.0338918 -0.0352786 -1
   vertex 0.0341231 -0.0342439 -1
   vertex 0.0344661 -0.0345792 -1
  endloop
 endfacet
 facet normal 0 0 -1
  outer loop
   vertex 0.0338918 -0.0352786 -1
   vertex 0.0344661 -0.0345792 -1
   vertex 0.0342135 -0.035618 -1
  endloop
 endfacet
 facet normal 0 0 -1
  outer loop
   vertex 0.0342135 -0.035618 -1
   vertex 0.0344661 -0.0345792 -1
   vertex 0.0347984 -0.0349249 -1
  endloop
 endfacet
 facet normal 0 0 -1
  outer loop
   vertex 0.0342135 -0.035618 -1
   vertex 0.0347984 -0.0349249 -1
   vertex 0.0345242 -0.0359675 -1
  endloop
 endfacet
 facet normal 0 0 -1
  outer loop
   vertex 0.0345242 -0.0359675 -1
   vertex 0.0347984 -0.0349249 -1
   vertex 0.0351199 -0.0352808 -1
  endloop
 endfacet
 facet normal 0 0 -1
  outer loop
   vertex 0.0345242 -0.0359675 -1
   vertex 0.0351199 -0.0352808 -1
   vertex 0.0348235 -0.0363268 -1
  endloop
 endfacet
 facet normal 0 0 -1
  outer loop
   vertex 0.0348235 -0.0363268 -1
   vertex 0.0351199 -0.0352808 -1
   vertex 0.0354302 -0.0356466 -1
  endloop
 endfacet
 facet normal 0 0 -1
  outer loop
   vertex 0.0348235 -0.0363268 -1
   vertex 0.0354302 -0.0356466 -1
   vertex 0.0351111 -0.0366955 -1
  endloop
 endfacet
 facet normal 0 0 -1
  outer loop
   vertex 0.0351111 -0.0366955 -1
   vertex 0.0354302 -0.0356466 -1
   vertex 0.035729 -0.0360217 -1
  endloop
 endfacet
 facet normal 0 0 -1
  outer loop
   vertex 0.0351111 -0.0366955 -1
   vertex 0.035729 -0.0360217 -1
   vertex 0.0353867 -0.0370733 -1
  endloop
 endfacet
 facet normal 0 0 -1
  outer loop
   vertex 0.0353867 -0.0370733 -1
   vertex 0.035729 -0.0360217 -1
   vertex 0.0360161 -0.036406 -1
  endloop
 endfacet
 facet normal 0 0 -1
  outer loop
   vertex 0.0353867 -0.0370733 -1
   vertex 0.0360161 -0.036406 -1
   vertex 0.03565 -0.0374598 -1
  endloop
 endfacet
 facet normal 0 0 -1
  outer loop
   vertex 0.03565 -0.0374598 -1
   vertex 0.0360161 -0.036406 -1
   vertex 0.036291 -0.036799 -1
  endloop
 endfacet
 facet normal 0 0 -1
  outer loop
   vertex 0.03565 -0.0374598 -1
   vertex 0.036291 -0.036799 -1
   vertex 0.0359008 -0.0378545 -1
  endloop
 endfacet
 facet normal 0 0 -1
  outer loop
   vertex 0.0359008 -0.0378545 -1
   vertex 0.036291 -0.036799 -1
   vertex 0.0365536 -0.0372003 -1
  endloop
 endfacet
 facet normal 0 0 -1
  outer loop
   vertex 0.0359008 -0.0378545 -1
   vertex 0.0365536 -0.0372003 -1
   vertex 0.0361387 -0.038257 -1
  endloop
 endfacet
 facet normal 0 0 -1
  outer loop
   vertex 0.0361387 -0.038257 -1
   vertex 0.0365536 -0.0372003 -1
   vertex 0.0368037 -0.0376096 -1
  endloop
 endfacet
 facet normal 0 0 -1
  outer loop
   vertex 0.0361387 -0.038257 -1
   vertex 0.0368037 -0.0376096 -1
   vertex 0.0370409 -0.0380265 -1
  endloop
 endfacet
 facet normal -0 0 1
  outer loop
   vertex 0.0232242 -0.0300097 1
   vertex 0.0232295 -0.0303097 1
   vertex 0.0237038 -0.0300087 1
  endloop
 endfacet
 facet normal 0 0 1
  outer loop
   vertex 0.0237038 -0.0300087 1
   vertex 0.0232295 -0.0303097 1
   vertex 0.023853 -0.0309118 1
  endloop
 endfacet
 facet normal 0 0 1
  outer loop
   vertex 0.0237038 -0.0300087 1
   vertex 0.023853 -0.0309118 1
   vertex 0.0241832 -0.0300227 1
  endloop
 endfacet
 facet normal 0 0 1
  outer loop
   vertex 0.0241832 -0.0300227 1
   vertex 0.023853 -0.0309118 1
   vertex 0.0243202 -0.0309308 1
  endloop
 endfacet
 facet normal 0 0 1
  outer loop
   vertex 0.0241832 -0.0300227 1
   vertex 0.0243202 -0.0309308 1
   vertex 0.024662 -0.0300516 1
  endloop
 endfacet
 facet normal 0 0 1
  outer loop
   vertex 0.024662 -0.0300516 1
   vertex 0.0243202 -0.0309308 1
   vertex 0.0247866 -0.0309649 1
  endloop
 endfacet
 facet normal 0 0 1
  outer loop
   vertex 0.024662 -0.0300516 1
   vertex 0.0247866 -0.0309649 1
   vertex 0.0251397 -0.0300953 1
  endloop
 endfacet
 facet normal 0 0 1
  outer loop
   vertex 0.0251397 -0.0300953 1
   vertex 0.0247866 -0.0309649 1
   vertex 0.0252516 -0.0310139 1
  endloop
 endfacet
 facet normal 0 0 1
  outer loop
   vertex 0.0251397 -0.0300953 1
   vertex 0.0252516 -0.0310139 1
   vertex 0.0256157 -0.0301537 1
  endloop
 endfacet
 facet normal 0 0 1
  outer loop
   vertex 0.0256157 -0.0301537 1
   vertex 0.0252516 -0.0310139 1
   vertex 0.0257149 -0.0310778 1
  endloop
 endfacet
 facet normal 0 0 1
  outer loop
   vertex 0.0256157 -0.0301537 1
   vertex 0.0257149 -0.0310778 1
   vertex 0.0260897 -0.0302269 1
  endloop
 endfacet
 facet normal 0 0 1
  outer loop
   vertex 0.0260897 -0.0302269 1
   vertex 0.0257149 -0.0310778 1
   vertex 0.0261758 -0.0311566 1
  endloop
 endfacet
 facet normal -0 0 1
  outer loop
   vertex 0.037867 -0.0477361 1
   vertex 0.0381633 -0.047783 1
   vertex 0.0379327 -0.0472731 1
  endloop
 endfacet
 facet normal 0 0 1
  outer loop
   vertex 0.0379327 -0.0472731 1
   vertex 0.0381633 -0.047783 1
   vertex 0.0388369 -0.0472936 1
  endloop
 endfacet
 facet normal -0 0 1
  outer loop
   vertex 0.0379327 -0.0472731 1
   vertex 0.0388369 -0.0472936 1
   vertex 0.0379835 -0.0468083 1
  endloop
 endfacet
 facet normal 0 0 1
  outer loop
   vertex 0.0379835 -0.0468083 1
   vertex 0.0388369 -0.0472936 1
   vertex 0.0388865 -0.0468165 1
  endloop
 endfacet
 facet normal -0 0 1
  outer loop
   vertex 0.0379835 -0.0468083 1
   vertex 0.0388865 -0.0468165 1
   vertex 0.0380194 -0.046342 1
  endloop
 endfacet
 facet normal -0 0 1
  outer loop
   vertex 0.0380194 -0.046342 1
   vertex 0.0388865 -0.0468165 1
   vertex 0.0389212 -0.0463382 1
  endloop
 endfacet
 facet normal 0 0 1
  outer loop
   vertex 0.0380194 -0.046342 1
   vertex 0.0389212 -0.0463382 1
   vertex 0.0380402 -0.0458748 1
  endloop
 endfacet
 facet normal -0 0 1
  outer loop
   vertex 0.0380402 -0.0458748 1
   vertex 0.0389212 -0.0463382 1
   vertex 0.038941 -0.045859 1
  endloop
 endfacet
 facet normal 0 0 1
  outer loop
   vertex 0.0380402 -0.0458748 1
   vertex 0.038941 -0.045859 1
   vertex 0.0380461 -0.0454072 1
  endloop
 endfacet
 facet normal -0 0 1
  outer loop
   vertex 0.0380461 -0.0454072 1
   vertex 0.038941 -0.045859 1
   vertex 0.038946 -0.0453794 1
  endloop
 endfacet
 facet normal 0 -0 1
  outer loop
   vertex 0.0380461 -0.0454072 1
   vertex 0.038946 -0.0453794 1
   vertex 0.0380369 -0.0449397 1
  endloop
 endfacet
 facet normal -0 0 1
  outer loop
   vertex 0.0380369 -0.0449397 1
   vertex 0.038946 -0.0453794 1
   vertex 0.038936 -0.0448998 1
  endloop
 endfacet
 facet normal 0 -0 1
  outer loop
   vertex 0.0380369 -0.0449397 1
   vertex 0.038936 -0.0448998 1
   vertex 0.0380126 -0.0444727 1
  endloop
 endfacet
 facet normal -0 0 1
  outer loop
   vertex 0.0380126 -0.0444727 1
   vertex 0.038936 -0.0448998 1
   vertex 0.0389112 -0.0444208 1
  endloop
 endfacet
 facet normal 0 -0 1
  outer loop
   vertex 0.0380126 -0.0444727 1
   vertex 0.0389112 -0.0444208 1
   vertex 0.0379734 -0.0440067 1
  endloop
 endfacet
 facet normal -0 0 1
  outer loop
   vertex 0.0379734 -0.0440067 1
   vertex 0.0389112 -0.0444208 1
   vertex 0.0388715 -0.0439429 1
  endloop
 endfacet
 facet normal 0 -0 1
  outer loop
   vertex 0.0379734 -0.0440067 1
   vertex 0.0388715 -0.0439429 1
   vertex 0.0379193 -0.0435422 1
  endloop
 endfacet
 facet normal -0 0 1
  outer loop
   vertex 0.0379193 -0.0435422 1
   vertex 0.0388715 -0.0439429 1
   vertex 0.038817 -0.0434663 1
  endloop
 endfacet
 facet normal 0 -0 1
  outer loop
   vertex 0.0379193 -0.0435422 1
   vertex 0.038817 -0.0434663 1
   vertex 0.0378502 -0.0430797 1
  endloop
 endfacet
 facet normal -0 0 1
  outer loop
   vertex 0.0378502 -0.0430797 1
   vertex 0.038817 -0.0434663 1
   vertex 0.0387478 -0.0429918 1
  endloop
 endfacet
 facet normal 0 -0 1
  outer loop
   vertex 0.0378502 -0.0430797 1
   vertex 0.0387478 -0.0429918 1
   vertex 0.0377663 -0.0426197 1
  endloop
 endfacet
 facet normal -0 0 1
  outer loop
   vertex 0.0377663 -0.0426197 1
   vertex 0.0387478 -0.0429918 1
   vertex 0.0386639 -0.0425195 1
  endloop
 endfacet
 facet normal 0 -0 1
  outer loop
   vertex 0.0377663 -0.0426197 1
   vertex 0.0386639 -0.0425195 1
   vertex 0.0376677 -0.0421626 1
  endloop
 endfacet
 facet normal -0 0 1
  outer loop
   vertex 0.0376677 -0.0421626 1
   vertex 0.0386639 -0.0425195 1
   vertex 0.0385653 -0.0420501 1
  endloop
 endfacet
 facet normal 0 -0 1
  outer loop
   vertex 0.0376677 -0.0421626 1
   vertex 0.0385653 -0.0420501 1
   vertex 0.0375545 -0.0417089 1
  endloop
 endfacet
 facet normal -0 0 1
  outer loop
   vertex 0.0375545 -0.0417089 1
   vertex 0.0385653 -0.0420501 1
   vertex 0.0384522 -0.041584 1
  endloop
 endfacet
 facet normal 0 -0 1
  outer loop
   vertex 0.0375545 -0.0417089 1
   vertex 0.0384522 -0.041584 1
   vertex 0.0374267 -0.041259 1
  endloop
 endfacet
 facet normal -0 0 1
  outer loop
   vertex 0.0374267 -0.041259 1
   vertex 0.0384522 -0.041584 1
   vertex 0.0383248 -0.0411217 1
  endloop
 endfacet
 facet normal 0 -0 1
  outer loop
   vertex 0.0374267 -0.041259 1
   vertex 0.0383248 -0.0411217 1
   vertex 0.0372846 -0.0408135 1
  endloop
 endfacet
 facet normal -0 0 1
  outer loop
   vertex 0.0372846 -0.0408135 1
   vertex 0.0383248 -0.0411217 1
   vertex 0.038183 -0.0406635 1
  endloop
 endfacet
 facet normal 0 -0 1
  outer loop
   vertex 0.0372846 -0.0408135 1
   vertex 0.038183 -0.0406635 1
   vertex 0.0371281 -0.0403728 1
  endloop
 endfacet
 facet normal -0 0 1
  outer loop
   vertex 0.0371281 -0.0403728 1
   vertex 0.038183 -0.0406635 1
   vertex 0.0380271 -0.0402099 1
  endloop
 endfacet
 facet normal 0 -0 1
  outer loop
   vertex 0.0371281 -0.0403728 1
   vertex 0.0380271 -0.0402099 1
   vertex 0.0369577 -0.0399374 1
  endloop
 endfacet
 facet normal -0 0 1
  outer loop
   vertex 0.0369577 -0.0399374 1
   vertex 0.0380271 -0.0402099 1
   vertex 0.0378571 -0.0397614 1
  endloop
 endfacet
 facet normal 0 -0 1
  outer loop
   vertex 0.0369577 -0.0399374 1
   vertex 0.0378571 -0.0397614 1
   vertex 0.0367733 -0.0395076 1
  endloop
 endfacet
 facet normal -0 0 1
  outer loop
   vertex 0.0367733 -0.0395076 1
   vertex 0.0378571 -0.0397614 1
   vertex 0.0376734 -0.0393184 1
  endloop
 endfacet
 facet normal 0 -0 1
  outer loop
   vertex 0.0367733 -0.0395076 1
   vertex 0.0376734 -0.0393184 1
   vertex 0.0365752 -0.039084 1
  endloop
 endfacet
 facet normal -0 0 1
  outer loop
   vertex 0.0365752 -0.039084 1
   vertex 0.0376734 -0.0393184 1
   vertex 0.0374759 -0.0388813 1
  endloop
 endfacet
 facet normal 0 -0 1
  outer loop
   vertex 0.0365752 -0.039084 1
   vertex 0.0374759 -0.0388813 1
   vertex 0.0363636 -0.038667 1
  endloop
 endfacet
 facet normal 0 0 1
  outer loop
   vertex 0.0374759 -0.0388813 1
   vertex 0.0372651 -0.0384505 1
   vertex 0.0363636 -0.038667 1
  endloop
 endfacet
 facet normal 0 0 1
  outer loop
   vertex 0.0363636 -0.038667 1
   vertex 0.0372651 -0.0384505 1
   vertex 0.0370409 -0.0380265 1
  endloop
 endfacet
 facet normal 0 -0 1
  outer loop
   vertex 0.0363636 -0.038667 1
   vertex 0.0370409 -0.0380265 1
   vertex 0.0361387 -0.038257 1
  endloop
 endfacet
 facet normal 0 0 1
  outer loop
   vertex 0.0361387 -0.038257 1
   vertex 0.0370409 -0.0380265 1
   vertex 0.0368037 -0.0376096 1
  endloop
 endfacet
 facet normal 0 -0 1
  outer loop
   vertex 0.0361387 -0.038257 1
   vertex 0.0368037 -0.0376096 1
   vertex 0.0359008 -0.0378545 1
  endloop
 endfacet
 facet normal 0 0 1
  outer loop
   vertex 0.0359008 -0.0378545 1
   vertex 0.0368037 -0.0376096 1
   vertex 0.0365536 -0.0372003 1
  endloop
 endfacet
 facet normal 0 -0 1
  outer loop
   vertex 0.0359008 -0.0378545 1
   vertex 0.0365536 -0.0372003 1
   vertex 0.03565 -0.0374598 1
  endloop
 endfacet
 facet normal 0 0 1
  outer loop
   vertex 0.03565 -0.0374598 1
   vertex 0.0365536 -0.0372003 1
   vertex 0.036291 -0.036799 1
  endloop
 endfacet
 facet normal 0 -0 1
  outer loop
   vertex 0.03565 -0.0374598 1
   vertex 0.036291 -0.036799 1
   vertex 0.0353867 -0.0370733 1
  endloop
 endfacet
 facet normal 0 0 1
  outer loop
   vertex 0.0353867 -0.0370733 1
   vertex 0.036291 -0.036799 1
   vertex 0.0360161 -0.036406 1
  endloop
 endfacet
 facet normal 0 -0 1
  outer loop
   vertex 0.0353867 -0.0370733 1
   vertex 0.0360161 -0.036406 1
   vertex 0.0351111 -0.0366955 1
  endloop
 endfacet
 facet normal 0 0 1
  outer loop
   vertex 0.0351111 -0.0366955 1
   vertex 0.0360161 -0.036406 1
   vertex 0.035729 -0.0360217 1
  endloop
 endfacet
 facet normal 0 -0 1
  outer loop
   vertex 0.0351111 -0.0366955 1
   vertex 0.035729 -0.0360217 1
   vertex 0.0348235 -0.0363268 1
  endloop
 endfacet
 facet normal 0 0 1
  outer loop
   vertex 0.0348235 -0.0363268 1
   vertex 0.035729 -0.0360217 1
   vertex 0.0354302 -0.0356466 1
  endloop
 endfacet
 facet normal 0 -0 1
  outer loop
   vertex 0.0348235 -0.0363268 1
   vertex 0.0354302 -0.0356466 1
   vertex 0.0345242 -0.0359675 1
  endloop
 endfacet
 facet normal 0 0 1
  outer loop
   vertex 0.0345242 -0.0359675 1
   vertex 0.0354302 -0.0356466 1
   vertex 0.0351199 -0.0352808 1
  endloop
 endfacet
 facet normal 0 -0 1
  outer loop
   vertex 0.0345242 -0.0359675 1
   vertex 0.0351199 -0.0352808 1
   vertex 0.0342135 -0.035618 1
  endloop
 endfacet
 facet normal 0 0 1
  outer loop
   vertex 0.0342135 -0.035618 1
   vertex 0.0351199 -0.0352808 1
   vertex 0.0347984 -0.0349249 1
  endloop
 endfacet
 facet normal 0 -0 1
  outer loop
   vertex 0.0342135 -0.035618 1
   vertex 0.0347984 -0.0349249 1
   vertex 0.0338918 -0.0352786 1
  endloop
 endfacet
 facet normal 0 0 1
  outer loop
   vertex 0.0338918 -0.0352786 1
   vertex 0.0347984 -0.0349249 1
   vertex 0.0344661 -0.0345792 1
  endloop
 endfacet
 facet normal 0 -0 1
  outer loop
   vertex 0.0338918 -0.0352786 1
   vertex 0.0344661 -0.0345792 1
   vertex 0.0335593 -0.0349498 1
  endloop
 endfacet
 facet normal 0 0 1
  outer loop
   vertex 0.0335593 -0.0349498 1
   vertex 0.0344661 -0.0345792 1
   vertex 0.0341231 -0.0342439 1
  endloop
 endfacet
 facet normal 0 -0 1
  outer loop
   vertex 0.0335593 -0.0349498 1
   vertex 0.0341231 -0.0342439 1
   vertex 0.0332164 -0.0346318 1
  endloop
 endfacet
 facet normal 0 0 1
  outer loop
   vertex 0.0332164 -0.0346318 1
   vertex 0.0341231 -0.0342439 1
   vertex 0.0337699 -0.0339194 1
  endloop
 endfacet
 facet normal 0 -0 1
  outer loop
   vertex 0.0332164 -0.0346318 1
   vertex 0.0337699 -0.0339194 1
   vertex 0.0328635 -0.034325 1
  endloop
 endfacet
 facet normal 0 0 1
  outer loop
   vertex 0.0328635 -0.034325 1
   vertex 0.0337699 -0.0339194 1
   vertex 0.0334068 -0.033606 1
  endloop
 endfacet
 facet normal 0 -0 1
  outer loop
   vertex 0.0328635 -0.034325 1
   vertex 0.0334068 -0.033606 1
   vertex 0.0325009 -0.0340297 1
  endloop
 endfacet
 facet normal 0 0 1
  outer loop
   vertex 0.0325009 -0.0340297 1
   vertex 0.0334068 -0.033606 1
   vertex 0.0330341 -0.0333041 1
  endloop
 endfacet
 facet normal 0 -0 1
  outer loop
   vertex 0.0325009 -0.0340297 1
   vertex 0.0330341 -0.0333041 1
   vertex 0.032129 -0.0337462 1
  endloop
 endfacet
 facet normal 0 0 1
  outer loop
   vertex 0.032129 -0.0337462 1
   vertex 0.0330341 -0.0333041 1
   vertex 0.0326523 -0.0330139 1
  endloop
 endfacet
 facet normal 0 -0 1
  outer loop
   vertex 0.032129 -0.0337462 1
   vertex 0.0326523 -0.0330139 1
   vertex 0.0317482 -0.0334748 1
  endloop
 endfacet
 facet normal 0 0 1
  outer loop
   vertex 0.0317482 -0.0334748 1
   vertex 0.0326523 -0.0330139 1
   vertex 0.0322616 -0.0327356 1
  endloop
 endfacet
 facet normal 0 -0 1
  outer loop
   vertex 0.0317482 -0.0334748 1
   vertex 0.0322616 -0.0327356 1
   vertex 0.0313588 -0.0332158 1
  endloop
 endfacet
 facet normal 0 0 1
  outer loop
   vertex 0.0313588 -0.0332158 1
   vertex 0.0322616 -0.0327356 1
   vertex 0.0318625 -0.0324697 1
  endloop
 endfacet
 facet normal 0 -0 1
  outer loop
   vertex 0.0313588 -0.0332158 1
   vertex 0.0318625 -0.0324697 1
   vertex 0.0309614 -0.0329694 1
  endloop
 endfacet
 facet normal 0 0 1
  outer loop
   vertex 0.0309614 -0.0329694 1
   vertex 0.0318625 -0.0324697 1
   vertex 0.0314553 -0.0322162 1
  endloop
 endfacet
 facet normal 0 -0 1
  outer loop
   vertex 0.0309614 -0.0329694 1
   vertex 0.0314553 -0.0322162 1
   vertex 0.0305562 -0.0327359 1
  endloop
 endfacet
 facet normal 0 0 1
  outer loop
   vertex 0.0305562 -0.0327359 1
   vertex 0.0314553 -0.0322162 1
   vertex 0.0310405 -0.0319755 1
  endloop
 endfacet
 facet normal 0 -0 1
  outer loop
   vertex 0.0305562 -0.0327359 1
   vertex 0.0310405 -0.0319755 1
   vertex 0.0301437 -0.0325156 1
  endloop
 endfacet
 facet normal 0 0 1
  outer loop
   vertex 0.0301437 -0.0325156 1
   vertex 0.0310405 -0.0319755 1
   vertex 0.0306183 -0.0317478 1
  endloop
 endfacet
 facet normal 0 -0 1
  outer loop
   vertex 0.0301437 -0.0325156 1
   vertex 0.0306183 -0.0317478 1
   vertex 0.0297244 -0.0323086 1
  endloop
 endfacet
 facet normal 0 0 1
  outer loop
   vertex 0.0297244 -0.0323086 1
   vertex 0.0306183 -0.0317478 1
   vertex 0.0301894 -0.0315332 1
  endloop
 endfacet
 facet normal 0 -0 1
  outer loop
   vertex 0.0297244 -0.0323086 1
   vertex 0.0301894 -0.0315332 1
   vertex 0.0292987 -0.0321152 1
  endloop
 endfacet
 facet normal 0 0 1
  outer loop
   vertex 0.0292987 -0.0321152 1
   vertex 0.0301894 -0.0315332 1
   vertex 0.0297539 -0.0313322 1
  endloop
 endfacet
 facet normal 0 -0 1
  outer loop
   vertex 0.0292987 -0.0321152 1
   vertex 0.0297539 -0.0313322 1
   vertex 0.0288669 -0.0319356 1
  endloop
 endfacet
 facet normal 0 0 1
  outer loop
   vertex 0.0288669 -0.0319356 1
   vertex 0.0297539 -0.0313322 1
   vertex 0.0293125 -0.0311447 1
  endloop
 endfacet
 facet normal 0 -0 1
  outer loop
   vertex 0.0288669 -0.0319356 1
   vertex 0.0293125 -0.0311447 1
   vertex 0.0284296 -0.0317699 1
  endloop
 endfacet
 facet normal 0 0 1
  outer loop
   vertex 0.0284296 -0.0317699 1
   vertex 0.0293125 -0.0311447 1
   vertex 0.0288654 -0.030971 1
  endloop
 endfacet
 facet normal 0 -0 1
  outer loop
   vertex 0.0284296 -0.0317699 1
   vertex 0.0288654 -0.030971 1
   vertex 0.0279872 -0.0316184 1
  endloop
 endfacet
 facet normal 0 0 1
  outer loop
   vertex 0.0279872 -0.0316184 1
   vertex 0.0288654 -0.030971 1
   vertex 0.0284131 -0.0308113 1
  endloop
 endfacet
 facet normal 0 -0 1
  outer loop
   vertex 0.0279872 -0.0316184 1
   vertex 0.0284131 -0.0308113 1
   vertex 0.0275402 -0.0314812 1
  endloop
 endfacet
 facet normal 0 0 1
  outer loop
   vertex 0.0275402 -0.0314812 1
   vertex 0.0284131 -0.0308113 1
   vertex 0.0279561 -0.0306657 1
  endloop
 endfacet
 facet normal 0 -0 1
  outer loop
   vertex 0.0275402 -0.0314812 1
   vertex 0.0279561 -0.0306657 1
   vertex 0.0270889 -0.0313584 1
  endloop
 endfacet
 facet normal 0 0 1
  outer loop
   vertex 0.0270889 -0.0313584 1
   vertex 0.0279561 -0.0306657 1
   vertex 0.0274949 -0.0305343 1
  endloop
 endfacet
 facet normal 0 -0 1
  outer loop
   vertex 0.0270889 -0.0313584 1
   vertex 0.0274949 -0.0305343 1
   vertex 0.026634 -0.0312502 1
  endloop
 endfacet
 facet normal 0 0 1
  outer loop
   vertex 0.026634 -0.0312502 1
   vertex 0.0274949 -0.0305343 1
   vertex 0.0270297 -0.0304173 1
  endloop
 endfacet
 facet normal 0 -0 1
  outer loop
   vertex 0.026634 -0.0312502 1
   vertex 0.0270297 -0.0304173 1
   vertex 0.0261758 -0.0311566 1
  endloop
 endfacet
 facet normal 0 0 1
  outer loop
   vertex 0.0261758 -0.0311566 1
   vertex 0.0270297 -0.0304173 1
   vertex 0.0265612 -0.0303148 1
  endloop
 endfacet
 facet normal 0 -0 1
  outer loop
   vertex 0.0261758 -0.0311566 1
   vertex 0.0265612 -0.0303148 1
   vertex 0.0260897 -0.0302269 1
  endloop
 endfacet
 facet normal 0.587794 -0.809011 0
  outer loop
   vertex 0.0388369 -0.0472936 1
   vertex 0.0381633 -0.047783 1
   vertex 0.0388369 -0.0472936 -1
  endloop
 endfacet
 facet normal 0.587794 -0.809011 0
  outer loop
   vertex 0.0388369 -0.0472936 -1
   vertex 0.0381633 -0.047783 1
   vertex 0.0381633 -0.047783 -1
  endloop
 endfacet
 facet normal -0.694672 -0.719326 -0
  outer loop
   vertex 0.023853 -0.0309118 1
   vertex 0.0232295 -0.0303097 1
   vertex 0.023853 -0.0309118 -1
  endloop
 endfacet
 facet normal -0.694672 -0.719326 0
  outer loop
   vertex 0.023853 -0.0309118 -1
   vertex 0.0232295 -0.0303097 1
   vertex 0.0232295 -0.0303097 -1
  endloop
 endfacet
endsolid tunner_vane
