solid tunner_vane
 facet normal -0.00193896 0.999998 0
  outer loop
   vertex 0.886828 0.298602 -1
   vertex 0.886828 0.298602 1
   vertex 0.890025 0.298608 1
  endloop
 endfacet
 facet normal -0.00193896 0.999998 0
  outer loop
   vertex 0.886828 0.298602 -1
   vertex 0.890025 0.298608 1
   vertex 0.890025 0.298608 -1
  endloop
 endfacet
 facet normal 0.0290785 0.999577 -0
  outer loop
   vertex 0.890025 0.298608 -1
   vertex 0.890025 0.298608 1
   vertex 0.893222 0.298515 1
  endloop
 endfacet
 facet normal 0.0290785 0.999577 0
  outer loop
   vertex 0.890025 0.298608 -1
   vertex 0.893222 0.298515 1
   vertex 0.893222 0.298515 -1
  endloop
 endfacet
 facet normal 0.0601216 0.998191 -0
  outer loop
   vertex 0.893222 0.298515 -1
   vertex 0.893222 0.298515 1
   vertex 0.896413 0.298323 1
  endloop
 endfacet
 facet normal 0.0601216 0.998191 0
  outer loop
   vertex 0.893222 0.298515 -1
   vertex 0.896413 0.298323 1
   vertex 0.896413 0.298323 -1
  endloop
 endfacet
 facet normal 0.0910491 0.995846 -0
  outer loop
   vertex 0.896413 0.298323 -1
   vertex 0.896413 0.298323 1
   vertex 0.899598 0.298032 1
  endloop
 endfacet
 facet normal 0.0910491 0.995846 0
  outer loop
   vertex 0.896413 0.298323 -1
   vertex 0.899598 0.298032 1
   vertex 0.899598 0.298032 -1
  endloop
 endfacet
 facet normal 0.121963 0.992535 -0
  outer loop
   vertex 0.899598 0.298032 -1
   vertex 0.899598 0.298032 1
   vertex 0.902771 0.297642 1
  endloop
 endfacet
 facet normal 0.121963 0.992535 0
  outer loop
   vertex 0.899598 0.298032 -1
   vertex 0.902771 0.297642 1
   vertex 0.902771 0.297642 -1
  endloop
 endfacet
 facet normal 0.152652 0.98828 -0
  outer loop
   vertex 0.902771 0.297642 -1
   vertex 0.902771 0.297642 1
   vertex 0.905931 0.297154 1
  endloop
 endfacet
 facet normal 0.152652 0.98828 0
  outer loop
   vertex 0.902771 0.297642 -1
   vertex 0.905931 0.297154 1
   vertex 0.905931 0.297154 -1
  endloop
 endfacet
 facet normal 0.18326 0.983064 -0
  outer loop
   vertex 0.905931 0.297154 -1
   vertex 0.905931 0.297154 1
   vertex 0.909075 0.296568 1
  endloop
 endfacet
 facet normal 0.18326 0.983064 0
  outer loop
   vertex 0.905931 0.297154 -1
   vertex 0.909075 0.296568 1
   vertex 0.909075 0.296568 -1
  endloop
 endfacet
 facet normal 0.213711 0.976897 -0
  outer loop
   vertex 0.909075 0.296568 -1
   vertex 0.909075 0.296568 1
   vertex 0.912198 0.295884 1
  endloop
 endfacet
 facet normal 0.213711 0.976897 0
  outer loop
   vertex 0.909075 0.296568 -1
   vertex 0.912198 0.295884 1
   vertex 0.912198 0.295884 -1
  endloop
 endfacet
 facet normal 0.243904 0.969799 -0
  outer loop
   vertex 0.912198 0.295884 -1
   vertex 0.912198 0.295884 1
   vertex 0.915299 0.295105 1
  endloop
 endfacet
 facet normal 0.243904 0.969799 0
  outer loop
   vertex 0.912198 0.295884 -1
   vertex 0.915299 0.295105 1
   vertex 0.915299 0.295105 -1
  endloop
 endfacet
 facet normal 0.27392 0.961753 -0
  outer loop
   vertex 0.915299 0.295105 -1
   vertex 0.915299 0.295105 1
   vertex 0.918374 0.294229 1
  endloop
 endfacet
 facet normal 0.27392 0.961753 0
  outer loop
   vertex 0.915299 0.295105 -1
   vertex 0.918374 0.294229 1
   vertex 0.918374 0.294229 -1
  endloop
 endfacet
 facet normal 0.303546 0.952817 -0
  outer loop
   vertex 0.918374 0.294229 -1
   vertex 0.918374 0.294229 1
   vertex 0.921421 0.293258 1
  endloop
 endfacet
 facet normal 0.303546 0.952817 0
  outer loop
   vertex 0.918374 0.294229 -1
   vertex 0.921421 0.293258 1
   vertex 0.921421 0.293258 -1
  endloop
 endfacet
 facet normal 0.333012 0.942923 -0
  outer loop
   vertex 0.921421 0.293258 -1
   vertex 0.921421 0.293258 1
   vertex 0.924436 0.292193 1
  endloop
 endfacet
 facet normal 0.333012 0.942923 0
  outer loop
   vertex 0.921421 0.293258 -1
   vertex 0.924436 0.292193 1
   vertex 0.924436 0.292193 -1
  endloop
 endfacet
 facet normal 0.362172 0.932111 -0
  outer loop
   vertex 0.924436 0.292193 -1
   vertex 0.924436 0.292193 1
   vertex 0.927416 0.291035 1
  endloop
 endfacet
 facet normal 0.362172 0.932111 0
  outer loop
   vertex 0.924436 0.292193 -1
   vertex 0.927416 0.291035 1
   vertex 0.927416 0.291035 -1
  endloop
 endfacet
 facet normal 0.390912 0.920428 -0
  outer loop
   vertex 0.927416 0.291035 -1
   vertex 0.927416 0.291035 1
   vertex 0.930359 0.289785 1
  endloop
 endfacet
 facet normal 0.390912 0.920428 0
  outer loop
   vertex 0.927416 0.291035 -1
   vertex 0.930359 0.289785 1
   vertex 0.930359 0.289785 -1
  endloop
 endfacet
 facet normal 0.419254 0.907869 -0
  outer loop
   vertex 0.930359 0.289785 -1
   vertex 0.930359 0.289785 1
   vertex 0.933262 0.288445 1
  endloop
 endfacet
 facet normal 0.419254 0.907869 0
  outer loop
   vertex 0.930359 0.289785 -1
   vertex 0.933262 0.288445 1
   vertex 0.933262 0.288445 -1
  endloop
 endfacet
 facet normal 0.447213 0.894428 -0
  outer loop
   vertex 0.933262 0.288445 -1
   vertex 0.933262 0.288445 1
   vertex 0.936122 0.287015 1
  endloop
 endfacet
 facet normal 0.447213 0.894428 0
  outer loop
   vertex 0.933262 0.288445 -1
   vertex 0.936122 0.287015 1
   vertex 0.936122 0.287015 -1
  endloop
 endfacet
 facet normal 0.474796 0.880096 -0
  outer loop
   vertex 0.936122 0.287015 -1
   vertex 0.936122 0.287015 1
   vertex 0.938936 0.285497 1
  endloop
 endfacet
 facet normal 0.474796 0.880096 0
  outer loop
   vertex 0.936122 0.287015 -1
   vertex 0.938936 0.285497 1
   vertex 0.938936 0.285497 -1
  endloop
 endfacet
 facet normal 0.501814 0.864975 -0
  outer loop
   vertex 0.938936 0.285497 -1
   vertex 0.938936 0.285497 1
   vertex 0.941702 0.283892 1
  endloop
 endfacet
 facet normal 0.501814 0.864975 0
  outer loop
   vertex 0.938936 0.285497 -1
   vertex 0.941702 0.283892 1
   vertex 0.941702 0.283892 -1
  endloop
 endfacet
 facet normal 0.528408 0.848991 -0
  outer loop
   vertex 0.941702 0.283892 -1
   vertex 0.941702 0.283892 1
   vertex 0.944417 0.282202 1
  endloop
 endfacet
 facet normal 0.528408 0.848991 0
  outer loop
   vertex 0.941702 0.283892 -1
   vertex 0.944417 0.282202 1
   vertex 0.944417 0.282202 -1
  endloop
 endfacet
 facet normal 0.554675 0.832067 -0
  outer loop
   vertex 0.944417 0.282202 -1
   vertex 0.944417 0.282202 1
   vertex 0.947077 0.280429 1
  endloop
 endfacet
 facet normal 0.554675 0.832067 0
  outer loop
   vertex 0.944417 0.282202 -1
   vertex 0.947077 0.280429 1
   vertex 0.947077 0.280429 -1
  endloop
 endfacet
 facet normal 0.580031 0.814595 -0
  outer loop
   vertex 0.947077 0.280429 -1
   vertex 0.947077 0.280429 1
   vertex 0.949682 0.278574 1
  endloop
 endfacet
 facet normal 0.580031 0.814595 0
  outer loop
   vertex 0.947077 0.280429 -1
   vertex 0.949682 0.278574 1
   vertex 0.949682 0.278574 -1
  endloop
 endfacet
 facet normal 0.60507 0.796173 -0
  outer loop
   vertex 0.949682 0.278574 -1
   vertex 0.949682 0.278574 1
   vertex 0.952228 0.276639 1
  endloop
 endfacet
 facet normal 0.60507 0.796173 0
  outer loop
   vertex 0.949682 0.278574 -1
   vertex 0.952228 0.276639 1
   vertex 0.952228 0.276639 -1
  endloop
 endfacet
 facet normal 0.629571 0.776943 -0
  outer loop
   vertex 0.952228 0.276639 -1
   vertex 0.952228 0.276639 1
   vertex 0.954712 0.274626 1
  endloop
 endfacet
 facet normal 0.629571 0.776943 0
  outer loop
   vertex 0.952228 0.276639 -1
   vertex 0.954712 0.274626 1
   vertex 0.954712 0.274626 -1
  endloop
 endfacet
 facet normal 0.6533 0.757099 -0
  outer loop
   vertex 0.954712 0.274626 -1
   vertex 0.954712 0.274626 1
   vertex 0.957133 0.272537 1
  endloop
 endfacet
 facet normal 0.6533 0.757099 0
  outer loop
   vertex 0.954712 0.274626 -1
   vertex 0.957133 0.272537 1
   vertex 0.957133 0.272537 -1
  endloop
 endfacet
 facet normal 0.676632 0.736321 -0
  outer loop
   vertex 0.957133 0.272537 -1
   vertex 0.957133 0.272537 1
   vertex 0.959487 0.270374 1
  endloop
 endfacet
 facet normal 0.676632 0.736321 0
  outer loop
   vertex 0.957133 0.272537 -1
   vertex 0.959487 0.270374 1
   vertex 0.959487 0.270374 -1
  endloop
 endfacet
 facet normal 0.698966 0.715155 -0
  outer loop
   vertex 0.959487 0.270374 -1
   vertex 0.959487 0.270374 1
   vertex 0.961774 0.268139 1
  endloop
 endfacet
 facet normal 0.698966 0.715155 0
  outer loop
   vertex 0.959487 0.270374 -1
   vertex 0.961774 0.268139 1
   vertex 0.961774 0.268139 -1
  endloop
 endfacet
 facet normal 0.720905 0.693034 -0
  outer loop
   vertex 0.961774 0.268139 -1
   vertex 0.961774 0.268139 1
   vertex 0.96399 0.265834 1
  endloop
 endfacet
 facet normal 0.720905 0.693034 0
  outer loop
   vertex 0.961774 0.268139 -1
   vertex 0.96399 0.265834 1
   vertex 0.96399 0.265834 -1
  endloop
 endfacet
 facet normal 0.742126 0.67026 -0
  outer loop
   vertex 0.96399 0.265834 -1
   vertex 0.96399 0.265834 1
   vertex 0.966133 0.263461 1
  endloop
 endfacet
 facet normal 0.742126 0.67026 0
  outer loop
   vertex 0.96399 0.265834 -1
   vertex 0.966133 0.263461 1
   vertex 0.966133 0.263461 -1
  endloop
 endfacet
 facet normal 0.762462 0.647033 -0
  outer loop
   vertex 0.966133 0.263461 -1
   vertex 0.966133 0.263461 1
   vertex 0.968202 0.261023 1
  endloop
 endfacet
 facet normal 0.762462 0.647033 0
  outer loop
   vertex 0.966133 0.263461 -1
   vertex 0.968202 0.261023 1
   vertex 0.968202 0.261023 -1
  endloop
 endfacet
 facet normal 0.782236 0.622983 -0
  outer loop
   vertex 0.968202 0.261023 -1
   vertex 0.968202 0.261023 1
   vertex 0.970194 0.258522 1
  endloop
 endfacet
 facet normal 0.782236 0.622983 0
  outer loop
   vertex 0.968202 0.261023 -1
   vertex 0.970194 0.258522 1
   vertex 0.970194 0.258522 -1
  endloop
 endfacet
 facet normal 0.80125 0.598329 -0
  outer loop
   vertex 0.970194 0.258522 -1
   vertex 0.970194 0.258522 1
   vertex 0.972107 0.25596 1
  endloop
 endfacet
 facet normal 0.80125 0.598329 0
  outer loop
   vertex 0.970194 0.258522 -1
   vertex 0.972107 0.25596 1
   vertex 0.972107 0.25596 -1
  endloop
 endfacet
 facet normal 0.819365 0.573272 -0
  outer loop
   vertex 0.972107 0.25596 -1
   vertex 0.972107 0.25596 1
   vertex 0.97394 0.25334 1
  endloop
 endfacet
 facet normal 0.819365 0.573272 0
  outer loop
   vertex 0.972107 0.25596 -1
   vertex 0.97394 0.25334 1
   vertex 0.97394 0.25334 -1
  endloop
 endfacet
 facet normal 0.836746 0.547591 -0
  outer loop
   vertex 0.97394 0.25334 -1
   vertex 0.97394 0.25334 1
   vertex 0.975691 0.250664 1
  endloop
 endfacet
 facet normal 0.836746 0.547591 0
  outer loop
   vertex 0.97394 0.25334 -1
   vertex 0.975691 0.250664 1
   vertex 0.975691 0.250664 -1
  endloop
 endfacet
 facet normal 0.853354 0.521331 -0
  outer loop
   vertex 0.975691 0.250664 -1
   vertex 0.975691 0.250664 1
   vertex 0.977358 0.247936 1
  endloop
 endfacet
 facet normal 0.853354 0.521331 0
  outer loop
   vertex 0.975691 0.250664 -1
   vertex 0.977358 0.247936 1
   vertex 0.977358 0.247936 -1
  endloop
 endfacet
 facet normal 0.869188 0.494483 -0
  outer loop
   vertex 0.977358 0.247936 -1
   vertex 0.977358 0.247936 1
   vertex 0.978939 0.245157 1
  endloop
 endfacet
 facet normal 0.869188 0.494483 0
  outer loop
   vertex 0.977358 0.247936 -1
   vertex 0.978939 0.245157 1
   vertex 0.978939 0.245157 -1
  endloop
 endfacet
 facet normal 0.88398 0.467524 -0
  outer loop
   vertex 0.978939 0.245157 -1
   vertex 0.978939 0.245157 1
   vertex 0.980434 0.24233 1
  endloop
 endfacet
 facet normal 0.88398 0.467524 0
  outer loop
   vertex 0.978939 0.245157 -1
   vertex 0.980434 0.24233 1
   vertex 0.980434 0.24233 -1
  endloop
 endfacet
 facet normal 0.898137 0.439716 -0
  outer loop
   vertex 0.980434 0.24233 -1
   vertex 0.980434 0.24233 1
   vertex 0.98184 0.239458 1
  endloop
 endfacet
 facet normal 0.898137 0.439716 0
  outer loop
   vertex 0.980434 0.24233 -1
   vertex 0.98184 0.239458 1
   vertex 0.98184 0.239458 -1
  endloop
 endfacet
 facet normal 0.911368 0.411592 -0
  outer loop
   vertex 0.98184 0.239458 -1
   vertex 0.98184 0.239458 1
   vertex 0.983156 0.236544 1
  endloop
 endfacet
 facet normal 0.911368 0.411592 0
  outer loop
   vertex 0.98184 0.239458 -1
   vertex 0.983156 0.236544 1
   vertex 0.983156 0.236544 -1
  endloop
 endfacet
 facet normal 0.923702 0.383111 -0
  outer loop
   vertex 0.983156 0.236544 -1
   vertex 0.983156 0.236544 1
   vertex 0.984381 0.233591 1
  endloop
 endfacet
 facet normal 0.923702 0.383111 0
  outer loop
   vertex 0.983156 0.236544 -1
   vertex 0.984381 0.233591 1
   vertex 0.984381 0.233591 -1
  endloop
 endfacet
 facet normal 0.935125 0.354317 -0
  outer loop
   vertex 0.984381 0.233591 -1
   vertex 0.984381 0.233591 1
   vertex 0.985514 0.230601 1
  endloop
 endfacet
 facet normal 0.935125 0.354317 0
  outer loop
   vertex 0.984381 0.233591 -1
   vertex 0.985514 0.230601 1
   vertex 0.985514 0.230601 -1
  endloop
 endfacet
 facet normal 0.945722 0.324977 -0
  outer loop
   vertex 0.985514 0.230601 -1
   vertex 0.985514 0.230601 1
   vertex 0.986553 0.227577 1
  endloop
 endfacet
 facet normal 0.945722 0.324977 0
  outer loop
   vertex 0.985514 0.230601 -1
   vertex 0.986553 0.227577 1
   vertex 0.986553 0.227577 -1
  endloop
 endfacet
 facet normal 0.95533 0.295541 -0
  outer loop
   vertex 0.986553 0.227577 -1
   vertex 0.986553 0.227577 1
   vertex 0.987498 0.224522 1
  endloop
 endfacet
 facet normal 0.95533 0.295541 0
  outer loop
   vertex 0.986553 0.227577 -1
   vertex 0.987498 0.224522 1
   vertex 0.987498 0.224522 -1
  endloop
 endfacet
 facet normal 0.964018 0.265835 -0
  outer loop
   vertex 0.987498 0.224522 -1
   vertex 0.987498 0.224522 1
   vertex 0.988348 0.22144 1
  endloop
 endfacet
 facet normal 0.964018 0.265835 0
  outer loop
   vertex 0.987498 0.224522 -1
   vertex 0.988348 0.22144 1
   vertex 0.988348 0.22144 -1
  endloop
 endfacet
 facet normal 0.971801 0.235804 -0
  outer loop
   vertex 0.988348 0.22144 -1
   vertex 0.988348 0.22144 1
   vertex 0.989102 0.218332 1
  endloop
 endfacet
 facet normal 0.971801 0.235804 0
  outer loop
   vertex 0.988348 0.22144 -1
   vertex 0.989102 0.218332 1
   vertex 0.989102 0.218332 -1
  endloop
 endfacet
 facet normal 0.978662 0.205478 -0
  outer loop
   vertex 0.989102 0.218332 -1
   vertex 0.989102 0.218332 1
   vertex 0.989759 0.215203 1
  endloop
 endfacet
 facet normal 0.978662 0.205478 0
  outer loop
   vertex 0.989102 0.218332 -1
   vertex 0.989759 0.215203 1
   vertex 0.989759 0.215203 -1
  endloop
 endfacet
 facet normal 0.984545 0.175131 -0
  outer loop
   vertex 0.989759 0.215203 -1
   vertex 0.989759 0.215203 1
   vertex 0.990319 0.212055 1
  endloop
 endfacet
 facet normal 0.984545 0.175131 0
  outer loop
   vertex 0.989759 0.215203 -1
   vertex 0.990319 0.212055 1
   vertex 0.990319 0.212055 -1
  endloop
 endfacet
 facet normal 0.989552 0.144174 -0
  outer loop
   vertex 0.990319 0.212055 -1
   vertex 0.990319 0.212055 1
   vertex 0.99078 0.208891 1
  endloop
 endfacet
 facet normal 0.989552 0.144174 0
  outer loop
   vertex 0.990319 0.212055 -1
   vertex 0.99078 0.208891 1
   vertex 0.99078 0.208891 -1
  endloop
 endfacet
 facet normal 0.993499 0.113838 -0
  outer loop
   vertex 0.99078 0.208891 -1
   vertex 0.99078 0.208891 1
   vertex 0.991144 0.205714 1
  endloop
 endfacet
 facet normal 0.993499 0.113838 0
  outer loop
   vertex 0.99078 0.208891 -1
   vertex 0.991144 0.205714 1
   vertex 0.991144 0.205714 -1
  endloop
 endfacet
 facet normal 0.996586 0.0825632 -0
  outer loop
   vertex 0.991144 0.205714 -1
   vertex 0.991144 0.205714 1
   vertex 0.991408 0.202528 1
  endloop
 endfacet
 facet normal 0.996586 0.0825632 0
  outer loop
   vertex 0.991144 0.205714 -1
   vertex 0.991408 0.202528 1
   vertex 0.991408 0.202528 -1
  endloop
 endfacet
 facet normal 0.998668 0.0515974 -0
  outer loop
   vertex 0.991408 0.202528 -1
   vertex 0.991408 0.202528 1
   vertex 0.991573 0.199334 1
  endloop
 endfacet
 facet normal 0.998668 0.0515974 0
  outer loop
   vertex 0.991408 0.202528 -1
   vertex 0.991573 0.199334 1
   vertex 0.991573 0.199334 -1
  endloop
 endfacet
 facet normal 0.99978 0.0209525 -0
  outer loop
   vertex 0.991573 0.199334 -1
   vertex 0.991573 0.199334 1
   vertex 0.99164 0.196138 1
  endloop
 endfacet
 facet normal 0.99978 0.0209525 0
  outer loop
   vertex 0.991573 0.199334 -1
   vertex 0.99164 0.196138 1
   vertex 0.99164 0.196138 -1
  endloop
 endfacet
 facet normal 0.999947 -0.0103086 0
  outer loop
   vertex 0.99164 0.196138 -1
   vertex 0.99164 0.196138 1
   vertex 0.991607 0.19294 1
  endloop
 endfacet
 facet normal 0.999947 -0.0103086 0
  outer loop
   vertex 0.99164 0.196138 -1
   vertex 0.991607 0.19294 1
   vertex 0.991607 0.19294 -1
  endloop
 endfacet
 facet normal 0.999134 -0.0416071 0
  outer loop
   vertex 0.991607 0.19294 -1
   vertex 0.991607 0.19294 1
   vertex 0.991474 0.189746 1
  endloop
 endfacet
 facet normal 0.999134 -0.0416071 0
  outer loop
   vertex 0.991607 0.19294 -1
   vertex 0.991474 0.189746 1
   vertex 0.991474 0.189746 -1
  endloop
 endfacet
 facet normal 0.997388 -0.072235 0
  outer loop
   vertex 0.991474 0.189746 -1
   vertex 0.991474 0.189746 1
   vertex 0.991243 0.186557 1
  endloop
 endfacet
 facet normal 0.997388 -0.072235 0
  outer loop
   vertex 0.991474 0.189746 -1
   vertex 0.991243 0.186557 1
   vertex 0.991243 0.186557 -1
  endloop
 endfacet
 facet normal 0.994659 -0.103216 0
  outer loop
   vertex 0.991243 0.186557 -1
   vertex 0.991243 0.186557 1
   vertex 0.990913 0.183376 1
  endloop
 endfacet
 facet normal 0.994659 -0.103216 0
  outer loop
   vertex 0.991243 0.186557 -1
   vertex 0.990913 0.183376 1
   vertex 0.990913 0.183376 -1
  endloop
 endfacet
 facet normal -0.156478 -0.987681 -0
  outer loop
   vertex 0.986422 0.180113 1
   vertex 0.984447 0.180426 1
   vertex 0.986422 0.180113 -1
  endloop
 endfacet
 facet normal -0.156478 -0.987681 0
  outer loop
   vertex 0.986422 0.180113 -1
   vertex 0.984447 0.180426 1
   vertex 0.984447 0.180426 -1
  endloop
 endfacet
 facet normal -0.990082 0.140488 0
  outer loop
   vertex 0.984447 0.180426 -1
   vertex 0.984447 0.180426 1
   vertex 0.984885 0.183513 -1
  endloop
 endfacet
 facet normal -0.990082 0.140488 0
  outer loop
   vertex 0.984885 0.183513 -1
   vertex 0.984447 0.180426 1
   vertex 0.984885 0.183513 1
  endloop
 endfacet
 facet normal -0.994069 0.108748 0
  outer loop
   vertex 0.984885 0.183513 -1
   vertex 0.984885 0.183513 1
   vertex 0.985224 0.186612 -1
  endloop
 endfacet
 facet normal -0.994069 0.108748 0
  outer loop
   vertex 0.985224 0.186612 -1
   vertex 0.984885 0.183513 1
   vertex 0.985224 0.186612 1
  endloop
 endfacet
 facet normal -0.997081 0.0763461 0
  outer loop
   vertex 0.985224 0.186612 -1
   vertex 0.985224 0.186612 1
   vertex 0.985462 0.18972 -1
  endloop
 endfacet
 facet normal -0.997081 0.0763461 0
  outer loop
   vertex 0.985462 0.18972 -1
   vertex 0.985224 0.186612 1
   vertex 0.985462 0.18972 1
  endloop
 endfacet
 facet normal -0.998991 0.0449107 0
  outer loop
   vertex 0.985462 0.18972 -1
   vertex 0.985462 0.18972 1
   vertex 0.985602 0.192835 -1
  endloop
 endfacet
 facet normal -0.998991 0.0449107 0
  outer loop
   vertex 0.985602 0.192835 -1
   vertex 0.985462 0.18972 1
   vertex 0.985602 0.192835 1
  endloop
 endfacet
 facet normal -0.999926 0.0121789 0
  outer loop
   vertex 0.985602 0.192835 -1
   vertex 0.985602 0.192835 1
   vertex 0.98564 0.195952 -1
  endloop
 endfacet
 facet normal -0.999926 0.0121789 0
  outer loop
   vertex 0.98564 0.195952 -1
   vertex 0.985602 0.192835 1
   vertex 0.98564 0.195952 1
  endloop
 endfacet
 facet normal -0.999809 -0.0195591 0
  outer loop
   vertex 0.98564 0.195952 -1
   vertex 0.98564 0.195952 1
   vertex 0.985579 0.199069 -1
  endloop
 endfacet
 facet normal -0.999809 -0.0195591 0
  outer loop
   vertex 0.985579 0.199069 -1
   vertex 0.98564 0.195952 1
   vertex 0.985579 0.199069 1
  endloop
 endfacet
 facet normal -0.998666 -0.0516404 0
  outer loop
   vertex 0.985579 0.199069 -1
   vertex 0.985579 0.199069 1
   vertex 0.985418 0.202182 -1
  endloop
 endfacet
 facet normal -0.998666 -0.0516404 0
  outer loop
   vertex 0.985418 0.202182 -1
   vertex 0.985579 0.199069 1
   vertex 0.985418 0.202182 1
  endloop
 endfacet
 facet normal -0.996462 -0.0840479 0
  outer loop
   vertex 0.985418 0.202182 -1
   vertex 0.985418 0.202182 1
   vertex 0.985156 0.205289 -1
  endloop
 endfacet
 facet normal -0.996462 -0.0840479 0
  outer loop
   vertex 0.985156 0.205289 -1
   vertex 0.985418 0.202182 1
   vertex 0.985156 0.205289 1
  endloop
 endfacet
 facet normal -0.993272 -0.115803 0
  outer loop
   vertex 0.985156 0.205289 -1
   vertex 0.985156 0.205289 1
   vertex 0.984795 0.208385 -1
  endloop
 endfacet
 facet normal -0.993272 -0.115803 0
  outer loop
   vertex 0.984795 0.208385 -1
   vertex 0.985156 0.205289 1
   vertex 0.984795 0.208385 1
  endloop
 endfacet
 facet normal -0.989055 -0.147548 0
  outer loop
   vertex 0.984795 0.208385 -1
   vertex 0.984795 0.208385 1
   vertex 0.984335 0.211469 -1
  endloop
 endfacet
 facet normal -0.989055 -0.147548 0
  outer loop
   vertex 0.984335 0.211469 -1
   vertex 0.984795 0.208385 1
   vertex 0.984335 0.211469 1
  endloop
 endfacet
 facet normal -0.983791 -0.179319 0
  outer loop
   vertex 0.984335 0.211469 -1
   vertex 0.984335 0.211469 1
   vertex 0.983776 0.214536 -1
  endloop
 endfacet
 facet normal -0.983791 -0.179319 0
  outer loop
   vertex 0.983776 0.214536 -1
   vertex 0.984335 0.211469 1
   vertex 0.983776 0.214536 1
  endloop
 endfacet
 facet normal -0.977475 -0.21105 0
  outer loop
   vertex 0.983776 0.214536 -1
   vertex 0.983776 0.214536 1
   vertex 0.983118 0.217583 -1
  endloop
 endfacet
 facet normal -0.977475 -0.21105 0
  outer loop
   vertex 0.983118 0.217583 -1
   vertex 0.983776 0.214536 1
   vertex 0.983118 0.217583 1
  endloop
 endfacet
 facet normal -0.97023 -0.242184 0
  outer loop
   vertex 0.983118 0.217583 -1
   vertex 0.983118 0.217583 1
   vertex 0.982363 0.220608 -1
  endloop
 endfacet
 facet normal -0.97023 -0.242184 0
  outer loop
   vertex 0.982363 0.220608 -1
   vertex 0.983118 0.217583 1
   vertex 0.982363 0.220608 1
  endloop
 endfacet
 facet normal -0.961933 -0.273286 0
  outer loop
   vertex 0.982363 0.220608 -1
   vertex 0.982363 0.220608 1
   vertex 0.981511 0.223607 -1
  endloop
 endfacet
 facet normal -0.961933 -0.273286 0
  outer loop
   vertex 0.981511 0.223607 -1
   vertex 0.982363 0.220608 1
   vertex 0.981511 0.223607 1
  endloop
 endfacet
 facet normal -0.95274 -0.303786 0
  outer loop
   vertex 0.981511 0.223607 -1
   vertex 0.981511 0.223607 1
   vertex 0.980564 0.226577 -1
  endloop
 endfacet
 facet normal -0.95274 -0.303786 0
  outer loop
   vertex 0.980564 0.226577 -1
   vertex 0.981511 0.223607 1
   vertex 0.980564 0.226577 1
  endloop
 endfacet
 facet normal -0.942377 -0.334554 0
  outer loop
   vertex 0.980564 0.226577 -1
   vertex 0.980564 0.226577 1
   vertex 0.979521 0.229514 -1
  endloop
 endfacet
 facet normal -0.942377 -0.334554 0
  outer loop
   vertex 0.979521 0.229514 -1
   vertex 0.980564 0.226577 1
   vertex 0.979521 0.229514 1
  endloop
 endfacet
 facet normal -0.931236 -0.364417 0
  outer loop
   vertex 0.979521 0.229514 -1
   vertex 0.979521 0.229514 1
   vertex 0.978385 0.232417 -1
  endloop
 endfacet
 facet normal -0.931236 -0.364417 0
  outer loop
   vertex 0.978385 0.232417 -1
   vertex 0.979521 0.229514 1
   vertex 0.978385 0.232417 1
  endloop
 endfacet
 facet normal -0.918903 -0.394483 0
  outer loop
   vertex 0.978385 0.232417 -1
   vertex 0.978385 0.232417 1
   vertex 0.977155 0.235282 -1
  endloop
 endfacet
 facet normal -0.918903 -0.394483 0
  outer loop
   vertex 0.977155 0.235282 -1
   vertex 0.978385 0.232417 1
   vertex 0.977155 0.235282 1
  endloop
 endfacet
 facet normal -0.905919 -0.423451 0
  outer loop
   vertex 0.977155 0.235282 -1
   vertex 0.977155 0.235282 1
   vertex 0.975835 0.238106 -1
  endloop
 endfacet
 facet normal -0.905919 -0.423451 0
  outer loop
   vertex 0.975835 0.238106 -1
   vertex 0.977155 0.235282 1
   vertex 0.975835 0.238106 1
  endloop
 endfacet
 facet normal -0.891715 -0.452597 0
  outer loop
   vertex 0.975835 0.238106 -1
   vertex 0.975835 0.238106 1
   vertex 0.974424 0.240886 -1
  endloop
 endfacet
 facet normal -0.891715 -0.452597 0
  outer loop
   vertex 0.974424 0.240886 -1
   vertex 0.975835 0.238106 1
   vertex 0.974424 0.240886 1
  endloop
 endfacet
 facet normal -0.876802 -0.480851 0
  outer loop
   vertex 0.974424 0.240886 -1
   vertex 0.974424 0.240886 1
   vertex 0.972925 0.24362 -1
  endloop
 endfacet
 facet normal -0.876802 -0.480851 0
  outer loop
   vertex 0.972925 0.24362 -1
   vertex 0.974424 0.240886 1
   vertex 0.972925 0.24362 1
  endloop
 endfacet
 facet normal -0.860763 -0.509006 0
  outer loop
   vertex 0.972925 0.24362 -1
   vertex 0.972925 0.24362 1
   vertex 0.971338 0.246304 -1
  endloop
 endfacet
 facet normal -0.860763 -0.509006 0
  outer loop
   vertex 0.971338 0.246304 -1
   vertex 0.972925 0.24362 1
   vertex 0.971338 0.246304 1
  endloop
 endfacet
 facet normal -0.844182 -0.536057 0
  outer loop
   vertex 0.971338 0.246304 -1
   vertex 0.971338 0.246304 1
   vertex 0.969667 0.248935 -1
  endloop
 endfacet
 facet normal -0.844182 -0.536057 0
  outer loop
   vertex 0.969667 0.248935 -1
   vertex 0.971338 0.246304 1
   vertex 0.969667 0.248935 1
  endloop
 endfacet
 facet normal -0.826314 -0.563209 0
  outer loop
   vertex 0.969667 0.248935 -1
   vertex 0.969667 0.248935 1
   vertex 0.967911 0.251511 -1
  endloop
 endfacet
 facet normal -0.826314 -0.563209 0
  outer loop
   vertex 0.967911 0.251511 -1
   vertex 0.969667 0.248935 1
   vertex 0.967911 0.251511 1
  endloop
 endfacet
 facet normal -0.807921 -0.589291 0
  outer loop
   vertex 0.967911 0.251511 -1
   vertex 0.967911 0.251511 1
   vertex 0.966074 0.25403 -1
  endloop
 endfacet
 facet normal -0.807921 -0.589291 0
  outer loop
   vertex 0.966074 0.25403 -1
   vertex 0.967911 0.251511 1
   vertex 0.966074 0.25403 1
  endloop
 endfacet
 facet normal -0.788575 -0.614938 0
  outer loop
   vertex 0.966074 0.25403 -1
   vertex 0.966074 0.25403 1
   vertex 0.964157 0.256488 -1
  endloop
 endfacet
 facet normal -0.788575 -0.614938 0
  outer loop
   vertex 0.964157 0.256488 -1
   vertex 0.966074 0.25403 1
   vertex 0.964157 0.256488 1
  endloop
 endfacet
 facet normal -0.768237 -0.640165 0
  outer loop
   vertex 0.964157 0.256488 -1
   vertex 0.964157 0.256488 1
   vertex 0.962161 0.258883 -1
  endloop
 endfacet
 facet normal -0.768237 -0.640165 0
  outer loop
   vertex 0.962161 0.258883 -1
   vertex 0.964157 0.256488 1
   vertex 0.962161 0.258883 1
  endloop
 endfacet
 facet normal -0.747438 -0.664332 0
  outer loop
   vertex 0.962161 0.258883 -1
   vertex 0.962161 0.258883 1
   vertex 0.96009 0.261214 -1
  endloop
 endfacet
 facet normal -0.747438 -0.664332 0
  outer loop
   vertex 0.96009 0.261214 -1
   vertex 0.962161 0.258883 1
   vertex 0.96009 0.261214 1
  endloop
 endfacet
 facet normal -0.725671 -0.688042 0
  outer loop
   vertex 0.96009 0.261214 -1
   vertex 0.96009 0.261214 1
   vertex 0.957945 0.263476 -1
  endloop
 endfacet
 facet normal -0.725671 -0.688042 0
  outer loop
   vertex 0.957945 0.263476 -1
   vertex 0.96009 0.261214 1
   vertex 0.957945 0.263476 1
  endloop
 endfacet
 facet normal -0.703282 -0.710911 0
  outer loop
   vertex 0.957945 0.263476 -1
   vertex 0.957945 0.263476 1
   vertex 0.955729 0.265668 -1
  endloop
 endfacet
 facet normal -0.703282 -0.710911 0
  outer loop
   vertex 0.955729 0.265668 -1
   vertex 0.957945 0.263476 1
   vertex 0.955729 0.265668 1
  endloop
 endfacet
 facet normal -0.679964 -0.733246 0
  outer loop
   vertex 0.955729 0.265668 -1
   vertex 0.955729 0.265668 1
   vertex 0.953443 0.267788 -1
  endloop
 endfacet
 facet normal -0.679964 -0.733246 0
  outer loop
   vertex 0.953443 0.267788 -1
   vertex 0.955729 0.265668 1
   vertex 0.953443 0.267788 1
  endloop
 endfacet
 facet normal -0.656015 -0.754748 0
  outer loop
   vertex 0.953443 0.267788 -1
   vertex 0.953443 0.267788 1
   vertex 0.95109 0.269833 -1
  endloop
 endfacet
 facet normal -0.656015 -0.754748 0
  outer loop
   vertex 0.95109 0.269833 -1
   vertex 0.953443 0.267788 1
   vertex 0.95109 0.269833 1
  endloop
 endfacet
 facet normal -0.631542 -0.775342 0
  outer loop
   vertex 0.95109 0.269833 -1
   vertex 0.95109 0.269833 1
   vertex 0.948673 0.271802 -1
  endloop
 endfacet
 facet normal -0.631542 -0.775342 0
  outer loop
   vertex 0.948673 0.271802 -1
   vertex 0.95109 0.269833 1
   vertex 0.948673 0.271802 1
  endloop
 endfacet
 facet normal -0.606136 -0.795361 0
  outer loop
   vertex 0.948673 0.271802 -1
   vertex 0.948673 0.271802 1
   vertex 0.946193 0.273692 -1
  endloop
 endfacet
 facet normal -0.606136 -0.795361 0
  outer loop
   vertex 0.946193 0.273692 -1
   vertex 0.948673 0.271802 1
   vertex 0.946193 0.273692 1
  endloop
 endfacet
 facet normal -0.580334 -0.814379 0
  outer loop
   vertex 0.946193 0.273692 -1
   vertex 0.946193 0.273692 1
   vertex 0.943654 0.275501 -1
  endloop
 endfacet
 facet normal -0.580334 -0.814379 0
  outer loop
   vertex 0.943654 0.275501 -1
   vertex 0.946193 0.273692 1
   vertex 0.943654 0.275501 1
  endloop
 endfacet
 facet normal -0.55401 -0.83251 0
  outer loop
   vertex 0.943654 0.275501 -1
   vertex 0.943654 0.275501 1
   vertex 0.941059 0.277228 -1
  endloop
 endfacet
 facet normal -0.55401 -0.83251 0
  outer loop
   vertex 0.941059 0.277228 -1
   vertex 0.943654 0.275501 1
   vertex 0.941059 0.277228 1
  endloop
 endfacet
 facet normal -0.52682 -0.849977 0
  outer loop
   vertex 0.941059 0.277228 -1
   vertex 0.941059 0.277228 1
   vertex 0.938409 0.278871 -1
  endloop
 endfacet
 facet normal -0.52682 -0.849977 0
  outer loop
   vertex 0.938409 0.278871 -1
   vertex 0.941059 0.277228 1
   vertex 0.938409 0.278871 1
  endloop
 endfacet
 facet normal -0.499299 -0.86643 0
  outer loop
   vertex 0.938409 0.278871 -1
   vertex 0.938409 0.278871 1
   vertex 0.935708 0.280427 -1
  endloop
 endfacet
 facet normal -0.499299 -0.86643 0
  outer loop
   vertex 0.935708 0.280427 -1
   vertex 0.938409 0.278871 1
   vertex 0.935708 0.280427 1
  endloop
 endfacet
 facet normal -0.471199 -0.882027 0
  outer loop
   vertex 0.935708 0.280427 -1
   vertex 0.935708 0.280427 1
   vertex 0.932958 0.281896 -1
  endloop
 endfacet
 facet normal -0.471199 -0.882027 0
  outer loop
   vertex 0.932958 0.281896 -1
   vertex 0.935708 0.280427 1
   vertex 0.932958 0.281896 1
  endloop
 endfacet
 facet normal -0.442667 -0.896686 0
  outer loop
   vertex 0.932958 0.281896 -1
   vertex 0.932958 0.281896 1
   vertex 0.930163 0.283276 -1
  endloop
 endfacet
 facet normal -0.442667 -0.896686 0
  outer loop
   vertex 0.930163 0.283276 -1
   vertex 0.932958 0.281896 1
   vertex 0.930163 0.283276 1
  endloop
 endfacet
 facet normal -0.413493 -0.910507 0
  outer loop
   vertex 0.930163 0.283276 -1
   vertex 0.930163 0.283276 1
   vertex 0.927324 0.284565 -1
  endloop
 endfacet
 facet normal -0.413493 -0.910507 0
  outer loop
   vertex 0.927324 0.284565 -1
   vertex 0.930163 0.283276 1
   vertex 0.927324 0.284565 1
  endloop
 endfacet
 facet normal -0.384131 -0.923279 0
  outer loop
   vertex 0.927324 0.284565 -1
   vertex 0.927324 0.284565 1
   vertex 0.924446 0.285763 -1
  endloop
 endfacet
 facet normal -0.384131 -0.923279 0
  outer loop
   vertex 0.924446 0.285763 -1
   vertex 0.927324 0.284565 1
   vertex 0.924446 0.285763 1
  endloop
 endfacet
 facet normal -0.354296 -0.935133 0
  outer loop
   vertex 0.924446 0.285763 -1
   vertex 0.924446 0.285763 1
   vertex 0.921531 0.286867 -1
  endloop
 endfacet
 facet normal -0.354296 -0.935133 0
  outer loop
   vertex 0.921531 0.286867 -1
   vertex 0.924446 0.285763 1
   vertex 0.921531 0.286867 1
  endloop
 endfacet
 facet normal -0.323942 -0.946077 0
  outer loop
   vertex 0.921531 0.286867 -1
   vertex 0.921531 0.286867 1
   vertex 0.918581 0.287877 -1
  endloop
 endfacet
 facet normal -0.323942 -0.946077 0
  outer loop
   vertex 0.918581 0.287877 -1
   vertex 0.921531 0.286867 1
   vertex 0.918581 0.287877 1
  endloop
 endfacet
 facet normal -0.293494 -0.955961 0
  outer loop
   vertex 0.918581 0.287877 -1
   vertex 0.918581 0.287877 1
   vertex 0.915601 0.288792 -1
  endloop
 endfacet
 facet normal -0.293494 -0.955961 0
  outer loop
   vertex 0.915601 0.288792 -1
   vertex 0.918581 0.287877 1
   vertex 0.915601 0.288792 1
  endloop
 endfacet
 facet normal -0.26259 -0.964908 0
  outer loop
   vertex 0.915601 0.288792 -1
   vertex 0.915601 0.288792 1
   vertex 0.912593 0.289611 -1
  endloop
 endfacet
 facet normal -0.26259 -0.964908 0
  outer loop
   vertex 0.912593 0.289611 -1
   vertex 0.915601 0.288792 1
   vertex 0.912593 0.289611 1
  endloop
 endfacet
 facet normal -0.231426 -0.972852 0
  outer loop
   vertex 0.912593 0.289611 -1
   vertex 0.912593 0.289611 1
   vertex 0.90956 0.290332 -1
  endloop
 endfacet
 facet normal -0.231426 -0.972852 0
  outer loop
   vertex 0.90956 0.290332 -1
   vertex 0.912593 0.289611 1
   vertex 0.90956 0.290332 1
  endloop
 endfacet
 facet normal -0.200092 -0.979777 0
  outer loop
   vertex 0.90956 0.290332 -1
   vertex 0.90956 0.290332 1
   vertex 0.906506 0.290956 -1
  endloop
 endfacet
 facet normal -0.200092 -0.979777 0
  outer loop
   vertex 0.906506 0.290956 -1
   vertex 0.90956 0.290332 1
   vertex 0.906506 0.290956 1
  endloop
 endfacet
 facet normal -0.168467 -0.985707 0
  outer loop
   vertex 0.906506 0.290956 -1
   vertex 0.906506 0.290956 1
   vertex 0.903433 0.291481 -1
  endloop
 endfacet
 facet normal -0.168467 -0.985707 0
  outer loop
   vertex 0.903433 0.291481 -1
   vertex 0.906506 0.290956 1
   vertex 0.903433 0.291481 1
  endloop
 endfacet
 facet normal -0.13671 -0.990611 0
  outer loop
   vertex 0.903433 0.291481 -1
   vertex 0.903433 0.291481 1
   vertex 0.900344 0.291907 -1
  endloop
 endfacet
 facet normal -0.13671 -0.990611 0
  outer loop
   vertex 0.900344 0.291907 -1
   vertex 0.903433 0.291481 1
   vertex 0.900344 0.291907 1
  endloop
 endfacet
 facet normal -0.104836 -0.994489 0
  outer loop
   vertex 0.900344 0.291907 -1
   vertex 0.900344 0.291907 1
   vertex 0.897244 0.292234 -1
  endloop
 endfacet
 facet normal -0.104836 -0.994489 0
  outer loop
   vertex 0.897244 0.292234 -1
   vertex 0.900344 0.291907 1
   vertex 0.897244 0.292234 1
  endloop
 endfacet
 facet normal -0.0728207 -0.997345 0
  outer loop
   vertex 0.897244 0.292234 -1
   vertex 0.897244 0.292234 1
   vertex 0.894135 0.292461 -1
  endloop
 endfacet
 facet normal -0.0728207 -0.997345 0
  outer loop
   vertex 0.894135 0.292461 -1
   vertex 0.897244 0.292234 1
   vertex 0.894135 0.292461 1
  endloop
 endfacet
 facet normal -0.0407053 -0.999171 0
  outer loop
   vertex 0.894135 0.292461 -1
   vertex 0.894135 0.292461 1
   vertex 0.89102 0.292588 -1
  endloop
 endfacet
 facet normal -0.0407053 -0.999171 0
  outer loop
   vertex 0.89102 0.292588 -1
   vertex 0.894135 0.292461 1
   vertex 0.89102 0.292588 1
  endloop
 endfacet
 facet normal -0.999847 -0.0174948 -0
  outer loop
   vertex 0.886863 0.296602 1
   vertex 0.886828 0.298602 1
   vertex 0.886863 0.296602 -1
  endloop
 endfacet
 facet normal -0.999847 -0.0174948 0
  outer loop
   vertex 0.886863 0.296602 -1
   vertex 0.886828 0.298602 1
   vertex 0.886828 0.298602 -1
  endloop
 endfacet
 facet normal 0 0 -1
  outer loop
   vertex 0.886863 0.296602 -1
   vertex 0.886828 0.298602 -1
   vertex 0.89102 0.292588 -1
  endloop
 endfacet
 facet normal 0 0 -1
  outer loop
   vertex 0.89102 0.292588 -1
   vertex 0.886828 0.298602 -1
   vertex 0.890025 0.298608 -1
  endloop
 endfacet
 facet normal 0 0 -1
  outer loop
   vertex 0.89102 0.292588 -1
   vertex 0.890025 0.298608 -1
   vertex 0.894135 0.292461 -1
  endloop
 endfacet
 facet normal 0 0 -1
  outer loop
   vertex 0.894135 0.292461 -1
   vertex 0.890025 0.298608 -1
   vertex 0.893222 0.298515 -1
  endloop
 endfacet
 facet normal 0 0 -1
  outer loop
   vertex 0.894135 0.292461 -1
   vertex 0.893222 0.298515 -1
   vertex 0.897244 0.292234 -1
  endloop
 endfacet
 facet normal 0 0 -1
  outer loop
   vertex 0.897244 0.292234 -1
   vertex 0.893222 0.298515 -1
   vertex 0.896413 0.298323 -1
  endloop
 endfacet
 facet normal 0 0 -1
  outer loop
   vertex 0.897244 0.292234 -1
   vertex 0.896413 0.298323 -1
   vertex 0.900344 0.291907 -1
  endloop
 endfacet
 facet normal 0 0 -1
  outer loop
   vertex 0.900344 0.291907 -1
   vertex 0.896413 0.298323 -1
   vertex 0.899598 0.298032 -1
  endloop
 endfacet
 facet normal 0 0 -1
  outer loop
   vertex 0.900344 0.291907 -1
   vertex 0.899598 0.298032 -1
   vertex 0.903433 0.291481 -1
  endloop
 endfacet
 facet normal 0 0 -1
  outer loop
   vertex 0.986422 0.180113 -1
   vertex 0.984447 0.180426 -1
   vertex 0.990913 0.183376 -1
  endloop
 endfacet
 facet normal -0 0 -1
  outer loop
   vertex 0.990913 0.183376 -1
   vertex 0.984447 0.180426 -1
   vertex 0.984885 0.183513 -1
  endloop
 endfacet
 facet normal 0 0 -1
  outer loop
   vertex 0.990913 0.183376 -1
   vertex 0.984885 0.183513 -1
   vertex 0.991243 0.186557 -1
  endloop
 endfacet
 facet normal -0 0 -1
  outer loop
   vertex 0.991243 0.186557 -1
   vertex 0.984885 0.183513 -1
   vertex 0.985224 0.186612 -1
  endloop
 endfacet
 facet normal 0 0 -1
  outer loop
   vertex 0.991243 0.186557 -1
   vertex 0.985224 0.186612 -1
   vertex 0.991474 0.189746 -1
  endloop
 endfacet
 facet normal 0 0 -1
  outer loop
   vertex 0.991474 0.189746 -1
   vertex 0.985224 0.186612 -1
   vertex 0.985462 0.18972 -1
  endloop
 endfacet
 facet normal -0 0 -1
  outer loop
   vertex 0.991474 0.189746 -1
   vertex 0.985462 0.18972 -1
   vertex 0.991607 0.19294 -1
  endloop
 endfacet
 facet normal 0 0 -1
  outer loop
   vertex 0.991607 0.19294 -1
   vertex 0.985462 0.18972 -1
   vertex 0.985602 0.192835 -1
  endloop
 endfacet
 facet normal -0 0 -1
  outer loop
   vertex 0.991607 0.19294 -1
   vertex 0.985602 0.192835 -1
   vertex 0.99164 0.196138 -1
  endloop
 endfacet
 facet normal 0 0 -1
  outer loop
   vertex 0.99164 0.196138 -1
   vertex 0.985602 0.192835 -1
   vertex 0.98564 0.195952 -1
  endloop
 endfacet
 facet normal -0 0 -1
  outer loop
   vertex 0.99164 0.196138 -1
   vertex 0.98564 0.195952 -1
   vertex 0.991573 0.199334 -1
  endloop
 endfacet
 facet normal 0 0 -1
  outer loop
   vertex 0.991573 0.199334 -1
   vertex 0.98564 0.195952 -1
   vertex 0.985579 0.199069 -1
  endloop
 endfacet
 facet normal -0 0 -1
  outer loop
   vertex 0.991573 0.199334 -1
   vertex 0.985579 0.199069 -1
   vertex 0.991408 0.202528 -1
  endloop
 endfacet
 facet normal 0 0 -1
  outer loop
   vertex 0.991408 0.202528 -1
   vertex 0.985579 0.199069 -1
   vertex 0.985418 0.202182 -1
  endloop
 endfacet
 facet normal -0 0 -1
  outer loop
   vertex 0.991408 0.202528 -1
   vertex 0.985418 0.202182 -1
   vertex 0.991144 0.205714 -1
  endloop
 endfacet
 facet normal 0 0 -1
  outer loop
   vertex 0.991144 0.205714 -1
   vertex 0.985418 0.202182 -1
   vertex 0.985156 0.205289 -1
  endloop
 endfacet
 facet normal -0 0 -1
  outer loop
   vertex 0.991144 0.205714 -1
   vertex 0.985156 0.205289 -1
   vertex 0.99078 0.208891 -1
  endloop
 endfacet
 facet normal 0 0 -1
  outer loop
   vertex 0.99078 0.208891 -1
   vertex 0.985156 0.205289 -1
   vertex 0.984795 0.208385 -1
  endloop
 endfacet
 facet normal -0 0 -1
  outer loop
   vertex 0.99078 0.208891 -1
   vertex 0.984795 0.208385 -1
   vertex 0.990319 0.212055 -1
  endloop
 endfacet
 facet normal 0 0 -1
  outer loop
   vertex 0.990319 0.212055 -1
   vertex 0.984795 0.208385 -1
   vertex 0.984335 0.211469 -1
  endloop
 endfacet
 facet normal -0 0 -1
  outer loop
   vertex 0.990319 0.212055 -1
   vertex 0.984335 0.211469 -1
   vertex 0.989759 0.215203 -1
  endloop
 endfacet
 facet normal 0 0 -1
  outer loop
   vertex 0.989759 0.215203 -1
   vertex 0.984335 0.211469 -1
   vertex 0.983776 0.214536 -1
  endloop
 endfacet
 facet normal -0 0 -1
  outer loop
   vertex 0.989759 0.215203 -1
   vertex 0.983776 0.214536 -1
   vertex 0.989102 0.218332 -1
  endloop
 endfacet
 facet normal 0 0 -1
  outer loop
   vertex 0.989102 0.218332 -1
   vertex 0.983776 0.214536 -1
   vertex 0.983118 0.217583 -1
  endloop
 endfacet
 facet normal -0 0 -1
  outer loop
   vertex 0.989102 0.218332 -1
   vertex 0.983118 0.217583 -1
   vertex 0.988348 0.22144 -1
  endloop
 endfacet
 facet normal 0 0 -1
  outer loop
   vertex 0.988348 0.22144 -1
   vertex 0.983118 0.217583 -1
   vertex 0.982363 0.220608 -1
  endloop
 endfacet
 facet normal -0 0 -1
  outer loop
   vertex 0.988348 0.22144 -1
   vertex 0.982363 0.220608 -1
   vertex 0.987498 0.224522 -1
  endloop
 endfacet
 facet normal 0 0 -1
  outer loop
   vertex 0.987498 0.224522 -1
   vertex 0.982363 0.220608 -1
   vertex 0.981511 0.223607 -1
  endloop
 endfacet
 facet normal -0 0 -1
  outer loop
   vertex 0.987498 0.224522 -1
   vertex 0.981511 0.223607 -1
   vertex 0.986553 0.227577 -1
  endloop
 endfacet
 facet normal 0 0 -1
  outer loop
   vertex 0.986553 0.227577 -1
   vertex 0.981511 0.223607 -1
   vertex 0.980564 0.226577 -1
  endloop
 endfacet
 facet normal -0 0 -1
  outer loop
   vertex 0.986553 0.227577 -1
   vertex 0.980564 0.226577 -1
   vertex 0.985514 0.230601 -1
  endloop
 endfacet
 facet normal 0 0 -1
  outer loop
   vertex 0.985514 0.230601 -1
   vertex 0.980564 0.226577 -1
   vertex 0.979521 0.229514 -1
  endloop
 endfacet
 facet normal -0 0 -1
  outer loop
   vertex 0.985514 0.230601 -1
   vertex 0.979521 0.229514 -1
   vertex 0.984381 0.233591 -1
  endloop
 endfacet
 facet normal 0 0 -1
  outer loop
   vertex 0.984381 0.233591 -1
   vertex 0.979521 0.229514 -1
   vertex 0.978385 0.232417 -1
  endloop
 endfacet
 facet normal -0 0 -1
  outer loop
   vertex 0.984381 0.233591 -1
   vertex 0.978385 0.232417 -1
   vertex 0.983156 0.236544 -1
  endloop
 endfacet
 facet normal 0 0 -1
  outer loop
   vertex 0.983156 0.236544 -1
   vertex 0.978385 0.232417 -1
   vertex 0.977155 0.235282 -1
  endloop
 endfacet
 facet normal -0 0 -1
  outer loop
   vertex 0.983156 0.236544 -1
   vertex 0.977155 0.235282 -1
   vertex 0.98184 0.239458 -1
  endloop
 endfacet
 facet normal 0 0 -1
  outer loop
   vertex 0.98184 0.239458 -1
   vertex 0.977155 0.235282 -1
   vertex 0.975835 0.238106 -1
  endloop
 endfacet
 facet normal -0 0 -1
  outer loop
   vertex 0.98184 0.239458 -1
   vertex 0.975835 0.238106 -1
   vertex 0.980434 0.24233 -1
  endloop
 endfacet
 facet normal 0 0 -1
  outer loop
   vertex 0.980434 0.24233 -1
   vertex 0.975835 0.238106 -1
   vertex 0.974424 0.240886 -1
  endloop
 endfacet
 facet normal -0 0 -1
  outer loop
   vertex 0.980434 0.24233 -1
   vertex 0.974424 0.240886 -1
   vertex 0.978939 0.245157 -1
  endloop
 endfacet
 facet normal 0 0 -1
  outer loop
   vertex 0.978939 0.245157 -1
   vertex 0.974424 0.240886 -1
   vertex 0.972925 0.24362 -1
  endloop
 endfacet
 facet normal 0 0 -1
  outer loop
   vertex 0.899598 0.298032 -1
   vertex 0.902771 0.297642 -1
   vertex 0.903433 0.291481 -1
  endloop
 endfacet
 facet normal 0 0 -1
  outer loop
   vertex 0.903433 0.291481 -1
   vertex 0.902771 0.297642 -1
   vertex 0.905931 0.297154 -1
  endloop
 endfacet
 facet normal 0 0 -1
  outer loop
   vertex 0.903433 0.291481 -1
   vertex 0.905931 0.297154 -1
   vertex 0.906506 0.290956 -1
  endloop
 endfacet
 facet normal 0 0 -1
  outer loop
   vertex 0.906506 0.290956 -1
   vertex 0.905931 0.297154 -1
   vertex 0.909075 0.296568 -1
  endloop
 endfacet
 facet normal 0 0 -1
  outer loop
   vertex 0.906506 0.290956 -1
   vertex 0.909075 0.296568 -1
   vertex 0.90956 0.290332 -1
  endloop
 endfacet
 facet normal 0 0 -1
  outer loop
   vertex 0.90956 0.290332 -1
   vertex 0.909075 0.296568 -1
   vertex 0.912198 0.295884 -1
  endloop
 endfacet
 facet normal 0 0 -1
  outer loop
   vertex 0.90956 0.290332 -1
   vertex 0.912198 0.295884 -1
   vertex 0.912593 0.289611 -1
  endloop
 endfacet
 facet normal 0 0 -1
  outer loop
   vertex 0.912593 0.289611 -1
   vertex 0.912198 0.295884 -1
   vertex 0.915299 0.295105 -1
  endloop
 endfacet
 facet normal 0 0 -1
  outer loop
   vertex 0.912593 0.289611 -1
   vertex 0.915299 0.295105 -1
   vertex 0.915601 0.288792 -1
  endloop
 endfacet
 facet normal 0 0 -1
  outer loop
   vertex 0.915601 0.288792 -1
   vertex 0.915299 0.295105 -1
   vertex 0.918374 0.294229 -1
  endloop
 endfacet
 facet normal 0 0 -1
  outer loop
   vertex 0.915601 0.288792 -1
   vertex 0.918374 0.294229 -1
   vertex 0.918581 0.287877 -1
  endloop
 endfacet
 facet normal 0 0 -1
  outer loop
   vertex 0.918581 0.287877 -1
   vertex 0.918374 0.294229 -1
   vertex 0.921421 0.293258 -1
  endloop
 endfacet
 facet normal 0 0 -1
  outer loop
   vertex 0.918581 0.287877 -1
   vertex 0.921421 0.293258 -1
   vertex 0.921531 0.286867 -1
  endloop
 endfacet
 facet normal 0 0 -1
  outer loop
   vertex 0.921531 0.286867 -1
   vertex 0.921421 0.293258 -1
   vertex 0.924436 0.292193 -1
  endloop
 endfacet
 facet normal 0 0 -1
  outer loop
   vertex 0.921531 0.286867 -1
   vertex 0.924436 0.292193 -1
   vertex 0.924446 0.285763 -1
  endloop
 endfacet
 facet normal 0 0 -1
  outer loop
   vertex 0.924446 0.285763 -1
   vertex 0.924436 0.292193 -1
   vertex 0.927416 0.291035 -1
  endloop
 endfacet
 facet normal 0 0 -1
  outer loop
   vertex 0.924446 0.285763 -1
   vertex 0.927416 0.291035 -1
   vertex 0.927324 0.284565 -1
  endloop
 endfacet
 facet normal 0 0 -1
  outer loop
   vertex 0.927324 0.284565 -1
   vertex 0.927416 0.291035 -1
   vertex 0.930359 0.289785 -1
  endloop
 endfacet
 facet normal 0 0 -1
  outer loop
   vertex 0.927324 0.284565 -1
   vertex 0.930359 0.289785 -1
   vertex 0.930163 0.283276 -1
  endloop
 endfacet
 facet normal 0 0 -1
  outer loop
   vertex 0.930163 0.283276 -1
   vertex 0.930359 0.289785 -1
   vertex 0.933262 0.288445 -1
  endloop
 endfacet
 facet normal 0 0 -1
  outer loop
   vertex 0.930163 0.283276 -1
   vertex 0.933262 0.288445 -1
   vertex 0.932958 0.281896 -1
  endloop
 endfacet
 facet normal 0 0 -1
  outer loop
   vertex 0.932958 0.281896 -1
   vertex 0.933262 0.288445 -1
   vertex 0.936122 0.287015 -1
  endloop
 endfacet
 facet normal 0 0 -1
  outer loop
   vertex 0.932958 0.281896 -1
   vertex 0.936122 0.287015 -1
   vertex 0.935708 0.280427 -1
  endloop
 endfacet
 facet normal 0 0 -1
  outer loop
   vertex 0.935708 0.280427 -1
   vertex 0.936122 0.287015 -1
   vertex 0.938936 0.285497 -1
  endloop
 endfacet
 facet normal 0 0 -1
  outer loop
   vertex 0.935708 0.280427 -1
   vertex 0.938936 0.285497 -1
   vertex 0.938409 0.278871 -1
  endloop
 endfacet
 facet normal 0 0 -1
  outer loop
   vertex 0.938409 0.278871 -1
   vertex 0.938936 0.285497 -1
   vertex 0.941702 0.283892 -1
  endloop
 endfacet
 facet normal 0 0 -1
  outer loop
   vertex 0.938409 0.278871 -1
   vertex 0.941702 0.283892 -1
   vertex 0.941059 0.277228 -1
  endloop
 endfacet
 facet normal 0 0 -1
  outer loop
   vertex 0.941059 0.277228 -1
   vertex 0.941702 0.283892 -1
   vertex 0.944417 0.282202 -1
  endloop
 endfacet
 facet normal 0 0 -1
  outer loop
   vertex 0.941059 0.277228 -1
   vertex 0.944417 0.282202 -1
   vertex 0.943654 0.275501 -1
  endloop
 endfacet
 facet normal 0 0 -1
  outer loop
   vertex 0.943654 0.275501 -1
   vertex 0.944417 0.282202 -1
   vertex 0.947077 0.280429 -1
  endloop
 endfacet
 facet normal 0 0 -1
  outer loop
   vertex 0.943654 0.275501 -1
   vertex 0.947077 0.280429 -1
   vertex 0.946193 0.273692 -1
  endloop
 endfacet
 facet normal 0 0 -1
  outer loop
   vertex 0.946193 0.273692 -1
   vertex 0.947077 0.280429 -1
   vertex 0.949682 0.278574 -1
  endloop
 endfacet
 facet normal 0 0 -1
  outer loop
   vertex 0.946193 0.273692 -1
   vertex 0.949682 0.278574 -1
   vertex 0.948673 0.271802 -1
  endloop
 endfacet
 facet normal 0 0 -1
  outer loop
   vertex 0.948673 0.271802 -1
   vertex 0.949682 0.278574 -1
   vertex 0.952228 0.276639 -1
  endloop
 endfacet
 facet normal 0 0 -1
  outer loop
   vertex 0.948673 0.271802 -1
   vertex 0.952228 0.276639 -1
   vertex 0.95109 0.269833 -1
  endloop
 endfacet
 facet normal 0 0 -1
  outer loop
   vertex 0.95109 0.269833 -1
   vertex 0.952228 0.276639 -1
   vertex 0.954712 0.274626 -1
  endloop
 endfacet
 facet normal 0 0 -1
  outer loop
   vertex 0.95109 0.269833 -1
   vertex 0.954712 0.274626 -1
   vertex 0.953443 0.267788 -1
  endloop
 endfacet
 facet normal 0 0 -1
  outer loop
   vertex 0.953443 0.267788 -1
   vertex 0.954712 0.274626 -1
   vertex 0.957133 0.272537 -1
  endloop
 endfacet
 facet normal 0 0 -1
  outer loop
   vertex 0.953443 0.267788 -1
   vertex 0.957133 0.272537 -1
   vertex 0.955729 0.265668 -1
  endloop
 endfacet
 facet normal 0 0 -1
  outer loop
   vertex 0.955729 0.265668 -1
   vertex 0.957133 0.272537 -1
   vertex 0.959487 0.270374 -1
  endloop
 endfacet
 facet normal 0 0 -1
  outer loop
   vertex 0.955729 0.265668 -1
   vertex 0.959487 0.270374 -1
   vertex 0.957945 0.263476 -1
  endloop
 endfacet
 facet normal 0 0 -1
  outer loop
   vertex 0.957945 0.263476 -1
   vertex 0.959487 0.270374 -1
   vertex 0.961774 0.268139 -1
  endloop
 endfacet
 facet normal 0 0 -1
  outer loop
   vertex 0.957945 0.263476 -1
   vertex 0.961774 0.268139 -1
   vertex 0.96009 0.261214 -1
  endloop
 endfacet
 facet normal 0 0 -1
  outer loop
   vertex 0.96009 0.261214 -1
   vertex 0.961774 0.268139 -1
   vertex 0.96399 0.265834 -1
  endloop
 endfacet
 facet normal 0 0 -1
  outer loop
   vertex 0.96009 0.261214 -1
   vertex 0.96399 0.265834 -1
   vertex 0.962161 0.258883 -1
  endloop
 endfacet
 facet normal 0 0 -1
  outer loop
   vertex 0.962161 0.258883 -1
   vertex 0.96399 0.265834 -1
   vertex 0.966133 0.263461 -1
  endloop
 endfacet
 facet normal 0 0 -1
  outer loop
   vertex 0.962161 0.258883 -1
   vertex 0.966133 0.263461 -1
   vertex 0.964157 0.256488 -1
  endloop
 endfacet
 facet normal 0 0 -1
  outer loop
   vertex 0.964157 0.256488 -1
   vertex 0.966133 0.263461 -1
   vertex 0.968202 0.261023 -1
  endloop
 endfacet
 facet normal 0 0 -1
  outer loop
   vertex 0.964157 0.256488 -1
   vertex 0.968202 0.261023 -1
   vertex 0.966074 0.25403 -1
  endloop
 endfacet
 facet normal 0 0 -1
  outer loop
   vertex 0.966074 0.25403 -1
   vertex 0.968202 0.261023 -1
   vertex 0.970194 0.258522 -1
  endloop
 endfacet
 facet normal 0 0 -1
  outer loop
   vertex 0.966074 0.25403 -1
   vertex 0.970194 0.258522 -1
   vertex 0.967911 0.251511 -1
  endloop
 endfacet
 facet normal 0 0 -1
  outer loop
   vertex 0.967911 0.251511 -1
   vertex 0.970194 0.258522 -1
   vertex 0.972107 0.25596 -1
  endloop
 endfacet
 facet normal 0 0 -1
  outer loop
   vertex 0.967911 0.251511 -1
   vertex 0.972107 0.25596 -1
   vertex 0.969667 0.248935 -1
  endloop
 endfacet
 facet normal 0 0 -1
  outer loop
   vertex 0.969667 0.248935 -1
   vertex 0.972107 0.25596 -1
   vertex 0.97394 0.25334 -1
  endloop
 endfacet
 facet normal 0 0 -1
  outer loop
   vertex 0.969667 0.248935 -1
   vertex 0.97394 0.25334 -1
   vertex 0.971338 0.246304 -1
  endloop
 endfacet
 facet normal 0 0 -1
  outer loop
   vertex 0.971338 0.246304 -1
   vertex 0.97394 0.25334 -1
   vertex 0.975691 0.250664 -1
  endloop
 endfacet
 facet normal 0 0 -1
  outer loop
   vertex 0.971338 0.246304 -1
   vertex 0.975691 0.250664 -1
   vertex 0.972925 0.24362 -1
  endloop
 endfacet
 facet normal 0 0 -1
  outer loop
   vertex 0.972925 0.24362 -1
   vertex 0.975691 0.250664 -1
   vertex 0.977358 0.247936 -1
  endloop
 endfacet
 facet normal 0 0 -1
  outer loop
   vertex 0.972925 0.24362 -1
   vertex 0.977358 0.247936 -1
   vertex 0.978939 0.245157 -1
  endloop
 endfacet
 facet normal -0 0 1
  outer loop
   vertex 0.886828 0.298602 1
   vertex 0.886863 0.296602 1
   vertex 0.890025 0.298608 1
  endloop
 endfacet
 facet normal 0 0 1
  outer loop
   vertex 0.890025 0.298608 1
   vertex 0.886863 0.296602 1
   vertex 0.89102 0.292588 1
  endloop
 endfacet
 facet normal 0 0 1
  outer loop
   vertex 0.890025 0.298608 1
   vertex 0.89102 0.292588 1
   vertex 0.893222 0.298515 1
  endloop
 endfacet
 facet normal 0 0 1
  outer loop
   vertex 0.893222 0.298515 1
   vertex 0.89102 0.292588 1
   vertex 0.894135 0.292461 1
  endloop
 endfacet
 facet normal 0 0 1
  outer loop
   vertex 0.893222 0.298515 1
   vertex 0.894135 0.292461 1
   vertex 0.896413 0.298323 1
  endloop
 endfacet
 facet normal 0 0 1
  outer loop
   vertex 0.896413 0.298323 1
   vertex 0.894135 0.292461 1
   vertex 0.897244 0.292234 1
  endloop
 endfacet
 facet normal 0 0 1
  outer loop
   vertex 0.896413 0.298323 1
   vertex 0.897244 0.292234 1
   vertex 0.899598 0.298032 1
  endloop
 endfacet
 facet normal 0 0 1
  outer loop
   vertex 0.899598 0.298032 1
   vertex 0.897244 0.292234 1
   vertex 0.900344 0.291907 1
  endloop
 endfacet
 facet normal 0 0 1
  outer loop
   vertex 0.899598 0.298032 1
   vertex 0.900344 0.291907 1
   vertex 0.902771 0.297642 1
  endloop
 endfacet
 facet normal 0 0 1
  outer loop
   vertex 0.902771 0.297642 1
   vertex 0.900344 0.291907 1
   vertex 0.903433 0.291481 1
  endloop
 endfacet
 facet normal 0 0 1
  outer loop
   vertex 0.902771 0.297642 1
   vertex 0.903433 0.291481 1
   vertex 0.905931 0.297154 1
  endloop
 endfacet
 facet normal 0 0 1
  outer loop
   vertex 0.905931 0.297154 1
   vertex 0.903433 0.291481 1
   vertex 0.906506 0.290956 1
  endloop
 endfacet
 facet normal -0 0 1
  outer loop
   vertex 0.984447 0.180426 1
   vertex 0.986422 0.180113 1
   vertex 0.984885 0.183513 1
  endloop
 endfacet
 facet normal 0 0 1
  outer loop
   vertex 0.984885 0.183513 1
   vertex 0.986422 0.180113 1
   vertex 0.990913 0.183376 1
  endloop
 endfacet
 facet normal -0 0 1
  outer loop
   vertex 0.984885 0.183513 1
   vertex 0.990913 0.183376 1
   vertex 0.985224 0.186612 1
  endloop
 endfacet
 facet normal 0 0 1
  outer loop
   vertex 0.985224 0.186612 1
   vertex 0.990913 0.183376 1
   vertex 0.991243 0.186557 1
  endloop
 endfacet
 facet normal -0 0 1
  outer loop
   vertex 0.985224 0.186612 1
   vertex 0.991243 0.186557 1
   vertex 0.985462 0.18972 1
  endloop
 endfacet
 facet normal -0 0 1
  outer loop
   vertex 0.985462 0.18972 1
   vertex 0.991243 0.186557 1
   vertex 0.991474 0.189746 1
  endloop
 endfacet
 facet normal 0 0 1
  outer loop
   vertex 0.985462 0.18972 1
   vertex 0.991474 0.189746 1
   vertex 0.985602 0.192835 1
  endloop
 endfacet
 facet normal -0 0 1
  outer loop
   vertex 0.985602 0.192835 1
   vertex 0.991474 0.189746 1
   vertex 0.991607 0.19294 1
  endloop
 endfacet
 facet normal 0 0 1
  outer loop
   vertex 0.985602 0.192835 1
   vertex 0.991607 0.19294 1
   vertex 0.98564 0.195952 1
  endloop
 endfacet
 facet normal -0 0 1
  outer loop
   vertex 0.98564 0.195952 1
   vertex 0.991607 0.19294 1
   vertex 0.99164 0.196138 1
  endloop
 endfacet
 facet normal 0 -0 1
  outer loop
   vertex 0.98564 0.195952 1
   vertex 0.99164 0.196138 1
   vertex 0.985579 0.199069 1
  endloop
 endfacet
 facet normal -0 0 1
  outer loop
   vertex 0.985579 0.199069 1
   vertex 0.99164 0.196138 1
   vertex 0.991573 0.199334 1
  endloop
 endfacet
 facet normal 0 -0 1
  outer loop
   vertex 0.985579 0.199069 1
   vertex 0.991573 0.199334 1
   vertex 0.985418 0.202182 1
  endloop
 endfacet
 facet normal -0 0 1
  outer loop
   vertex 0.985418 0.202182 1
   vertex 0.991573 0.199334 1
   vertex 0.991408 0.202528 1
  endloop
 endfacet
 facet normal 0 -0 1
  outer loop
   vertex 0.985418 0.202182 1
   vertex 0.991408 0.202528 1
   vertex 0.985156 0.205289 1
  endloop
 endfacet
 facet normal -0 0 1
  outer loop
   vertex 0.985156 0.205289 1
   vertex 0.991408 0.202528 1
   vertex 0.991144 0.205714 1
  endloop
 endfacet
 facet normal 0 -0 1
  outer loop
   vertex 0.985156 0.205289 1
   vertex 0.991144 0.205714 1
   vertex 0.984795 0.208385 1
  endloop
 endfacet
 facet normal -0 0 1
  outer loop
   vertex 0.984795 0.208385 1
   vertex 0.991144 0.205714 1
   vertex 0.99078 0.208891 1
  endloop
 endfacet
 facet normal 0 -0 1
  outer loop
   vertex 0.984795 0.208385 1
   vertex 0.99078 0.208891 1
   vertex 0.984335 0.211469 1
  endloop
 endfacet
 facet normal -0 0 1
  outer loop
   vertex 0.984335 0.211469 1
   vertex 0.99078 0.208891 1
   vertex 0.990319 0.212055 1
  endloop
 endfacet
 facet normal 0 -0 1
  outer loop
   vertex 0.984335 0.211469 1
   vertex 0.990319 0.212055 1
   vertex 0.983776 0.214536 1
  endloop
 endfacet
 facet normal -0 0 1
  outer loop
   vertex 0.983776 0.214536 1
   vertex 0.990319 0.212055 1
   vertex 0.989759 0.215203 1
  endloop
 endfacet
 facet normal 0 -0 1
  outer loop
   vertex 0.983776 0.214536 1
   vertex 0.989759 0.215203 1
   vertex 0.983118 0.217583 1
  endloop
 endfacet
 facet normal -0 0 1
  outer loop
   vertex 0.983118 0.217583 1
   vertex 0.989759 0.215203 1
   vertex 0.989102 0.218332 1
  endloop
 endfacet
 facet normal 0 -0 1
  outer loop
   vertex 0.983118 0.217583 1
   vertex 0.989102 0.218332 1
   vertex 0.982363 0.220608 1
  endloop
 endfacet
 facet normal -0 0 1
  outer loop
   vertex 0.982363 0.220608 1
   vertex 0.989102 0.218332 1
   vertex 0.988348 0.22144 1
  endloop
 endfacet
 facet normal 0 -0 1
  outer loop
   vertex 0.982363 0.220608 1
   vertex 0.988348 0.22144 1
   vertex 0.981511 0.223607 1
  endloop
 endfacet
 facet normal -0 0 1
  outer loop
   vertex 0.981511 0.223607 1
   vertex 0.988348 0.22144 1
   vertex 0.987498 0.224522 1
  endloop
 endfacet
 facet normal 0 -0 1
  outer loop
   vertex 0.981511 0.223607 1
   vertex 0.987498 0.224522 1
   vertex 0.980564 0.226577 1
  endloop
 endfacet
 facet normal -0 0 1
  outer loop
   vertex 0.980564 0.226577 1
   vertex 0.987498 0.224522 1
   vertex 0.986553 0.227577 1
  endloop
 endfacet
 facet normal 0 -0 1
  outer loop
   vertex 0.980564 0.226577 1
   vertex 0.986553 0.227577 1
   vertex 0.979521 0.229514 1
  endloop
 endfacet
 facet normal -0 0 1
  outer loop
   vertex 0.979521 0.229514 1
   vertex 0.986553 0.227577 1
   vertex 0.985514 0.230601 1
  endloop
 endfacet
 facet normal 0 -0 1
  outer loop
   vertex 0.979521 0.229514 1
   vertex 0.985514 0.230601 1
   vertex 0.978385 0.232417 1
  endloop
 endfacet
 facet normal -0 0 1
  outer loop
   vertex 0.978385 0.232417 1
   vertex 0.985514 0.230601 1
   vertex 0.984381 0.233591 1
  endloop
 endfacet
 facet normal 0 -0 1
  outer loop
   vertex 0.978385 0.232417 1
   vertex 0.984381 0.233591 1
   vertex 0.977155 0.235282 1
  endloop
 endfacet
 facet normal -0 0 1
  outer loop
   vertex 0.977155 0.235282 1
   vertex 0.984381 0.233591 1
   vertex 0.983156 0.236544 1
  endloop
 endfacet
 facet normal 0 -0 1
  outer loop
   vertex 0.977155 0.235282 1
   vertex 0.983156 0.236544 1
   vertex 0.975835 0.238106 1
  endloop
 endfacet
 facet normal -0 0 1
  outer loop
   vertex 0.975835 0.238106 1
   vertex 0.983156 0.236544 1
   vertex 0.98184 0.239458 1
  endloop
 endfacet
 facet normal 0 -0 1
  outer loop
   vertex 0.975835 0.238106 1
   vertex 0.98184 0.239458 1
   vertex 0.974424 0.240886 1
  endloop
 endfacet
 facet normal 0 0 1
  outer loop
   vertex 0.98184 0.239458 1
   vertex 0.980434 0.24233 1
   vertex 0.974424 0.240886 1
  endloop
 endfacet
 facet normal 0 0 1
  outer loop
   vertex 0.974424 0.240886 1
   vertex 0.980434 0.24233 1
   vertex 0.978939 0.245157 1
  endloop
 endfacet
 facet normal 0 -0 1
  outer loop
   vertex 0.974424 0.240886 1
   vertex 0.978939 0.245157 1
   vertex 0.972925 0.24362 1
  endloop
 endfacet
 facet normal 0 0 1
  outer loop
   vertex 0.972925 0.24362 1
   vertex 0.978939 0.245157 1
   vertex 0.977358 0.247936 1
  endloop
 endfacet
 facet normal 0 -0 1
  outer loop
   vertex 0.972925 0.24362 1
   vertex 0.977358 0.247936 1
   vertex 0.971338 0.246304 1
  endloop
 endfacet
 facet normal 0 0 1
  outer loop
   vertex 0.971338 0.246304 1
   vertex 0.977358 0.247936 1
   vertex 0.975691 0.250664 1
  endloop
 endfacet
 facet normal 0 -0 1
  outer loop
   vertex 0.971338 0.246304 1
   vertex 0.975691 0.250664 1
   vertex 0.969667 0.248935 1
  endloop
 endfacet
 facet normal 0 0 1
  outer loop
   vertex 0.969667 0.248935 1
   vertex 0.975691 0.250664 1
   vertex 0.97394 0.25334 1
  endloop
 endfacet
 facet normal 0 -0 1
  outer loop
   vertex 0.969667 0.248935 1
   vertex 0.97394 0.25334 1
   vertex 0.967911 0.251511 1
  endloop
 endfacet
 facet normal 0 0 1
  outer loop
   vertex 0.967911 0.251511 1
   vertex 0.97394 0.25334 1
   vertex 0.972107 0.25596 1
  endloop
 endfacet
 facet normal 0 -0 1
  outer loop
   vertex 0.967911 0.251511 1
   vertex 0.972107 0.25596 1
   vertex 0.966074 0.25403 1
  endloop
 endfacet
 facet normal 0 0 1
  outer loop
   vertex 0.966074 0.25403 1
   vertex 0.972107 0.25596 1
   vertex 0.970194 0.258522 1
  endloop
 endfacet
 facet normal 0 -0 1
  outer loop
   vertex 0.966074 0.25403 1
   vertex 0.970194 0.258522 1
   vertex 0.964157 0.256488 1
  endloop
 endfacet
 facet normal 0 0 1
  outer loop
   vertex 0.964157 0.256488 1
   vertex 0.970194 0.258522 1
   vertex 0.968202 0.261023 1
  endloop
 endfacet
 facet normal 0 -0 1
  outer loop
   vertex 0.964157 0.256488 1
   vertex 0.968202 0.261023 1
   vertex 0.962161 0.258883 1
  endloop
 endfacet
 facet normal 0 0 1
  outer loop
   vertex 0.962161 0.258883 1
   vertex 0.968202 0.261023 1
   vertex 0.966133 0.263461 1
  endloop
 endfacet
 facet normal 0 -0 1
  outer loop
   vertex 0.962161 0.258883 1
   vertex 0.966133 0.263461 1
   vertex 0.96009 0.261214 1
  endloop
 endfacet
 facet normal 0 0 1
  outer loop
   vertex 0.96009 0.261214 1
   vertex 0.966133 0.263461 1
   vertex 0.96399 0.265834 1
  endloop
 endfacet
 facet normal 0 -0 1
  outer loop
   vertex 0.96009 0.261214 1
   vertex 0.96399 0.265834 1
   vertex 0.957945 0.263476 1
  endloop
 endfacet
 facet normal 0 0 1
  outer loop
   vertex 0.957945 0.263476 1
   vertex 0.96399 0.265834 1
   vertex 0.961774 0.268139 1
  endloop
 endfacet
 facet normal 0 -0 1
  outer loop
   vertex 0.957945 0.263476 1
   vertex 0.961774 0.268139 1
   vertex 0.955729 0.265668 1
  endloop
 endfacet
 facet normal 0 0 1
  outer loop
   vertex 0.955729 0.265668 1
   vertex 0.961774 0.268139 1
   vertex 0.959487 0.270374 1
  endloop
 endfacet
 facet normal 0 -0 1
  outer loop
   vertex 0.955729 0.265668 1
   vertex 0.959487 0.270374 1
   vertex 0.953443 0.267788 1
  endloop
 endfacet
 facet normal 0 0 1
  outer loop
   vertex 0.953443 0.267788 1
   vertex 0.959487 0.270374 1
   vertex 0.957133 0.272537 1
  endloop
 endfacet
 facet normal 0 -0 1
  outer loop
   vertex 0.953443 0.267788 1
   vertex 0.957133 0.272537 1
   vertex 0.95109 0.269833 1
  endloop
 endfacet
 facet normal 0 0 1
  outer loop
   vertex 0.95109 0.269833 1
   vertex 0.957133 0.272537 1
   vertex 0.954712 0.274626 1
  endloop
 endfacet
 facet normal 0 -0 1
  outer loop
   vertex 0.95109 0.269833 1
   vertex 0.954712 0.274626 1
   vertex 0.948673 0.271802 1
  endloop
 endfacet
 facet normal 0 0 1
  outer loop
   vertex 0.948673 0.271802 1
   vertex 0.954712 0.274626 1
   vertex 0.952228 0.276639 1
  endloop
 endfacet
 facet normal 0 -0 1
  outer loop
   vertex 0.948673 0.271802 1
   vertex 0.952228 0.276639 1
   vertex 0.946193 0.273692 1
  endloop
 endfacet
 facet normal 0 0 1
  outer loop
   vertex 0.946193 0.273692 1
   vertex 0.952228 0.276639 1
   vertex 0.949682 0.278574 1
  endloop
 endfacet
 facet normal 0 -0 1
  outer loop
   vertex 0.946193 0.273692 1
   vertex 0.949682 0.278574 1
   vertex 0.943654 0.275501 1
  endloop
 endfacet
 facet normal 0 0 1
  outer loop
   vertex 0.943654 0.275501 1
   vertex 0.949682 0.278574 1
   vertex 0.947077 0.280429 1
  endloop
 endfacet
 facet normal 0 -0 1
  outer loop
   vertex 0.943654 0.275501 1
   vertex 0.947077 0.280429 1
   vertex 0.941059 0.277228 1
  endloop
 endfacet
 facet normal 0 0 1
  outer loop
   vertex 0.941059 0.277228 1
   vertex 0.947077 0.280429 1
   vertex 0.944417 0.282202 1
  endloop
 endfacet
 facet normal 0 -0 1
  outer loop
   vertex 0.941059 0.277228 1
   vertex 0.944417 0.282202 1
   vertex 0.938409 0.278871 1
  endloop
 endfacet
 facet normal 0 0 1
  outer loop
   vertex 0.938409 0.278871 1
   vertex 0.944417 0.282202 1
   vertex 0.941702 0.283892 1
  endloop
 endfacet
 facet normal 0 -0 1
  outer loop
   vertex 0.938409 0.278871 1
   vertex 0.941702 0.283892 1
   vertex 0.935708 0.280427 1
  endloop
 endfacet
 facet normal 0 0 1
  outer loop
   vertex 0.935708 0.280427 1
   vertex 0.941702 0.283892 1
   vertex 0.938936 0.285497 1
  endloop
 endfacet
 facet normal 0 -0 1
  outer loop
   vertex 0.935708 0.280427 1
   vertex 0.938936 0.285497 1
   vertex 0.932958 0.281896 1
  endloop
 endfacet
 facet normal 0 0 1
  outer loop
   vertex 0.932958 0.281896 1
   vertex 0.938936 0.285497 1
   vertex 0.936122 0.287015 1
  endloop
 endfacet
 facet normal 0 -0 1
  outer loop
   vertex 0.932958 0.281896 1
   vertex 0.936122 0.287015 1
   vertex 0.930163 0.283276 1
  endloop
 endfacet
 facet normal 0 0 1
  outer loop
   vertex 0.930163 0.283276 1
   vertex 0.936122 0.287015 1
   vertex 0.933262 0.288445 1
  endloop
 endfacet
 facet normal 0 -0 1
  outer loop
   vertex 0.930163 0.283276 1
   vertex 0.933262 0.288445 1
   vertex 0.927324 0.284565 1
  endloop
 endfacet
 facet normal 0 0 1
  outer loop
   vertex 0.927324 0.284565 1
   vertex 0.933262 0.288445 1
   vertex 0.930359 0.289785 1
  endloop
 endfacet
 facet normal 0 -0 1
  outer loop
   vertex 0.927324 0.284565 1
   vertex 0.930359 0.289785 1
   vertex 0.924446 0.285763 1
  endloop
 endfacet
 facet normal 0 0 1
  outer loop
   vertex 0.924446 0.285763 1
   vertex 0.930359 0.289785 1
   vertex 0.927416 0.291035 1
  endloop
 endfacet
 facet normal 0 -0 1
  outer loop
   vertex 0.924446 0.285763 1
   vertex 0.927416 0.291035 1
   vertex 0.921531 0.286867 1
  endloop
 endfacet
 facet normal 0 0 1
  outer loop
   vertex 0.921531 0.286867 1
   vertex 0.927416 0.291035 1
   vertex 0.924436 0.292193 1
  endloop
 endfacet
 facet normal 0 -0 1
  outer loop
   vertex 0.921531 0.286867 1
   vertex 0.924436 0.292193 1
   vertex 0.918581 0.287877 1
  endloop
 endfacet
 facet normal 0 0 1
  outer loop
   vertex 0.918581 0.287877 1
   vertex 0.924436 0.292193 1
   vertex 0.921421 0.293258 1
  endloop
 endfacet
 facet normal 0 -0 1
  outer loop
   vertex 0.918581 0.287877 1
   vertex 0.921421 0.293258 1
   vertex 0.915601 0.288792 1
  endloop
 endfacet
 facet normal 0 0 1
  outer loop
   vertex 0.915601 0.288792 1
   vertex 0.921421 0.293258 1
   vertex 0.918374 0.294229 1
  endloop
 endfacet
 facet normal 0 -0 1
  outer loop
   vertex 0.915601 0.288792 1
   vertex 0.918374 0.294229 1
   vertex 0.912593 0.289611 1
  endloop
 endfacet
 facet normal 0 0 1
  outer loop
   vertex 0.912593 0.289611 1
   vertex 0.918374 0.294229 1
   vertex 0.915299 0.295105 1
  endloop
 endfacet
 facet normal 0 -0 1
  outer loop
   vertex 0.912593 0.289611 1
   vertex 0.915299 0.295105 1
   vertex 0.90956 0.290332 1
  endloop
 endfacet
 facet normal 0 0 1
  outer loop
   vertex 0.90956 0.290332 1
   vertex 0.915299 0.295105 1
   vertex 0.912198 0.295884 1
  endloop
 endfacet
 facet normal 0 -0 1
  outer loop
   vertex 0.90956 0.290332 1
   vertex 0.912198 0.295884 1
   vertex 0.906506 0.290956 1
  endloop
 endfacet
 facet normal 0 0 1
  outer loop
   vertex 0.906506 0.290956 1
   vertex 0.912198 0.295884 1
   vertex 0.909075 0.296568 1
  endloop
 endfacet
 facet normal 0 -0 1
  outer loop
   vertex 0.906506 0.290956 1
   vertex 0.909075 0.296568 1
   vertex 0.905931 0.297154 1
  endloop
 endfacet
 facet normal 0.587787 -0.809015 0
  outer loop
   vertex 0.990913 0.183376 1
   vertex 0.986422 0.180113 1
   vertex 0.990913 0.183376 -1
  endloop
 endfacet
 facet normal 0.587787 -0.809015 0
  outer loop
   vertex 0.990913 0.183376 -1
   vertex 0.986422 0.180113 1
   vertex 0.986422 0.180113 -1
  endloop
 endfacet
 facet normal -0.694652 -0.719346 -0
  outer loop
   vertex 0.89102 0.292588 1
   vertex 0.886863 0.296602 1
   vertex 0.89102 0.292588 -1
  endloop
 endfacet
 facet normal -0.694652 -0.719346 0
  outer loop
   vertex 0.89102 0.292588 -1
   vertex 0.886863 0.296602 1
   vertex 0.886863 0.296602 -1
  endloop
 endfacet
endsolid tunner_vane
