solid tunner_vane
 facet normal -0.00202342 0.999998 0
  outer loop
   vertex 0.0332242 -0.0200097 -1
   vertex 0.0332242 -0.0200097 1
   vertex 0.0337038 -0.0200087 1
  endloop
 endfacet
 facet normal -0.00202342 0.999998 0
  outer loop
   vertex 0.0332242 -0.0200097 -1
   vertex 0.0337038 -0.0200087 1
   vertex 0.0337038 -0.0200087 -1
  endloop
 endfacet
 facet normal 0.0291706 0.999574 -0
  outer loop
   vertex 0.0337038 -0.0200087 -1
   vertex 0.0337038 -0.0200087 1
   vertex 0.0341832 -0.0200227 1
  endloop
 endfacet
 facet normal 0.0291706 0.999574 0
  outer loop
   vertex 0.0337038 -0.0200087 -1
   vertex 0.0341832 -0.0200227 1
   vertex 0.0341832 -0.0200227 -1
  endloop
 endfacet
 facet normal 0.0601661 0.998188 -0
  outer loop
   vertex 0.0341832 -0.0200227 -1
   vertex 0.0341832 -0.0200227 1
   vertex 0.034662 -0.0200516 1
  endloop
 endfacet
 facet normal 0.0601661 0.998188 0
  outer loop
   vertex 0.0341832 -0.0200227 -1
   vertex 0.034662 -0.0200516 1
   vertex 0.034662 -0.0200516 -1
  endloop
 endfacet
 facet normal 0.0910374 0.995847 -0
  outer loop
   vertex 0.034662 -0.0200516 -1
   vertex 0.034662 -0.0200516 1
   vertex 0.0351397 -0.0200953 1
  endloop
 endfacet
 facet normal 0.0910374 0.995847 0
  outer loop
   vertex 0.034662 -0.0200516 -1
   vertex 0.0351397 -0.0200953 1
   vertex 0.0351397 -0.0200953 -1
  endloop
 endfacet
 facet normal 0.121858 0.992547 -0
  outer loop
   vertex 0.0351397 -0.0200953 -1
   vertex 0.0351397 -0.0200953 1
   vertex 0.0356157 -0.0201537 1
  endloop
 endfacet
 facet normal 0.121858 0.992547 0
  outer loop
   vertex 0.0351397 -0.0200953 -1
   vertex 0.0356157 -0.0201537 1
   vertex 0.0356157 -0.0201537 -1
  endloop
 endfacet
 facet normal 0.152683 0.988275 -0
  outer loop
   vertex 0.0356157 -0.0201537 -1
   vertex 0.0356157 -0.0201537 1
   vertex 0.0360897 -0.0202269 1
  endloop
 endfacet
 facet normal 0.152683 0.988275 0
  outer loop
   vertex 0.0356157 -0.0201537 -1
   vertex 0.0360897 -0.0202269 1
   vertex 0.0360897 -0.0202269 -1
  endloop
 endfacet
 facet normal 0.183269 0.983063 -0
  outer loop
   vertex 0.0360897 -0.0202269 -1
   vertex 0.0360897 -0.0202269 1
   vertex 0.0365612 -0.0203148 1
  endloop
 endfacet
 facet normal 0.183269 0.983063 0
  outer loop
   vertex 0.0360897 -0.0202269 -1
   vertex 0.0365612 -0.0203148 1
   vertex 0.0365612 -0.0203148 -1
  endloop
 endfacet
 facet normal 0.213727 0.976893 -0
  outer loop
   vertex 0.0365612 -0.0203148 -1
   vertex 0.0365612 -0.0203148 1
   vertex 0.0370297 -0.0204173 1
  endloop
 endfacet
 facet normal 0.213727 0.976893 0
  outer loop
   vertex 0.0365612 -0.0203148 -1
   vertex 0.0370297 -0.0204173 1
   vertex 0.0370297 -0.0204173 -1
  endloop
 endfacet
 facet normal 0.243849 0.969813 -0
  outer loop
   vertex 0.0370297 -0.0204173 -1
   vertex 0.0370297 -0.0204173 1
   vertex 0.0374949 -0.0205343 1
  endloop
 endfacet
 facet normal 0.243849 0.969813 0
  outer loop
   vertex 0.0370297 -0.0204173 -1
   vertex 0.0374949 -0.0205343 1
   vertex 0.0374949 -0.0205343 -1
  endloop
 endfacet
 facet normal 0.273947 0.961745 -0
  outer loop
   vertex 0.0374949 -0.0205343 -1
   vertex 0.0374949 -0.0205343 1
   vertex 0.0379561 -0.0206657 1
  endloop
 endfacet
 facet normal 0.273947 0.961745 0
  outer loop
   vertex 0.0374949 -0.0205343 -1
   vertex 0.0379561 -0.0206657 1
   vertex 0.0379561 -0.0206657 -1
  endloop
 endfacet
 facet normal 0.303585 0.952804 -0
  outer loop
   vertex 0.0379561 -0.0206657 -1
   vertex 0.0379561 -0.0206657 1
   vertex 0.0384131 -0.0208113 1
  endloop
 endfacet
 facet normal 0.303585 0.952804 0
  outer loop
   vertex 0.0379561 -0.0206657 -1
   vertex 0.0384131 -0.0208113 1
   vertex 0.0384131 -0.0208113 -1
  endloop
 endfacet
 facet normal 0.332996 0.942928 -0
  outer loop
   vertex 0.0384131 -0.0208113 -1
   vertex 0.0384131 -0.0208113 1
   vertex 0.0388654 -0.020971 1
  endloop
 endfacet
 facet normal 0.332996 0.942928 0
  outer loop
   vertex 0.0384131 -0.0208113 -1
   vertex 0.0388654 -0.020971 1
   vertex 0.0388654 -0.020971 -1
  endloop
 endfacet
 facet normal 0.362097 0.93214 -0
  outer loop
   vertex 0.0388654 -0.020971 -1
   vertex 0.0388654 -0.020971 1
   vertex 0.0393125 -0.0211447 1
  endloop
 endfacet
 facet normal 0.362097 0.93214 0
  outer loop
   vertex 0.0388654 -0.020971 -1
   vertex 0.0393125 -0.0211447 1
   vertex 0.0393125 -0.0211447 -1
  endloop
 endfacet
 facet normal 0.390938 0.920417 -0
  outer loop
   vertex 0.0393125 -0.0211447 -1
   vertex 0.0393125 -0.0211447 1
   vertex 0.0397539 -0.0213322 1
  endloop
 endfacet
 facet normal 0.390938 0.920417 0
  outer loop
   vertex 0.0393125 -0.0211447 -1
   vertex 0.0397539 -0.0213322 1
   vertex 0.0397539 -0.0213322 -1
  endloop
 endfacet
 facet normal 0.419195 0.907896 -0
  outer loop
   vertex 0.0397539 -0.0213322 -1
   vertex 0.0397539 -0.0213322 1
   vertex 0.0401894 -0.0215332 1
  endloop
 endfacet
 facet normal 0.419195 0.907896 0
  outer loop
   vertex 0.0397539 -0.0213322 -1
   vertex 0.0401894 -0.0215332 1
   vertex 0.0401894 -0.0215332 -1
  endloop
 endfacet
 facet normal 0.447314 0.894377 -0
  outer loop
   vertex 0.0401894 -0.0215332 -1
   vertex 0.0401894 -0.0215332 1
   vertex 0.0406183 -0.0217478 1
  endloop
 endfacet
 facet normal 0.447314 0.894377 0
  outer loop
   vertex 0.0401894 -0.0215332 -1
   vertex 0.0406183 -0.0217478 1
   vertex 0.0406183 -0.0217478 -1
  endloop
 endfacet
 facet normal 0.474718 0.880138 -0
  outer loop
   vertex 0.0406183 -0.0217478 -1
   vertex 0.0406183 -0.0217478 1
   vertex 0.0410405 -0.0219755 1
  endloop
 endfacet
 facet normal 0.474718 0.880138 0
  outer loop
   vertex 0.0406183 -0.0217478 -1
   vertex 0.0410405 -0.0219755 1
   vertex 0.0410405 -0.0219755 -1
  endloop
 endfacet
 facet normal 0.501899 0.864926 -0
  outer loop
   vertex 0.0410405 -0.0219755 -1
   vertex 0.0410405 -0.0219755 1
   vertex 0.0414553 -0.0222162 1
  endloop
 endfacet
 facet normal 0.501899 0.864926 0
  outer loop
   vertex 0.0410405 -0.0219755 -1
   vertex 0.0414553 -0.0222162 1
   vertex 0.0414553 -0.0222162 -1
  endloop
 endfacet
 facet normal 0.528454 0.848962 -0
  outer loop
   vertex 0.0414553 -0.0222162 -1
   vertex 0.0414553 -0.0222162 1
   vertex 0.0418625 -0.0224697 1
  endloop
 endfacet
 facet normal 0.528454 0.848962 0
  outer loop
   vertex 0.0414553 -0.0222162 -1
   vertex 0.0418625 -0.0224697 1
   vertex 0.0418625 -0.0224697 -1
  endloop
 endfacet
 facet normal 0.554574 0.832135 -0
  outer loop
   vertex 0.0418625 -0.0224697 -1
   vertex 0.0418625 -0.0224697 1
   vertex 0.0422616 -0.0227356 1
  endloop
 endfacet
 facet normal 0.554574 0.832135 0
  outer loop
   vertex 0.0418625 -0.0224697 -1
   vertex 0.0422616 -0.0227356 1
   vertex 0.0422616 -0.0227356 -1
  endloop
 endfacet
 facet normal 0.580075 0.814563 -0
  outer loop
   vertex 0.0422616 -0.0227356 -1
   vertex 0.0422616 -0.0227356 1
   vertex 0.0426523 -0.0230139 1
  endloop
 endfacet
 facet normal 0.580075 0.814563 0
  outer loop
   vertex 0.0422616 -0.0227356 -1
   vertex 0.0426523 -0.0230139 1
   vertex 0.0426523 -0.0230139 -1
  endloop
 endfacet
 facet normal 0.605181 0.796088 -0
  outer loop
   vertex 0.0426523 -0.0230139 -1
   vertex 0.0426523 -0.0230139 1
   vertex 0.0430341 -0.0233041 1
  endloop
 endfacet
 facet normal 0.605181 0.796088 0
  outer loop
   vertex 0.0426523 -0.0230139 -1
   vertex 0.0430341 -0.0233041 1
   vertex 0.0430341 -0.0233041 -1
  endloop
 endfacet
 facet normal 0.629475 0.777021 -0
  outer loop
   vertex 0.0430341 -0.0233041 -1
   vertex 0.0430341 -0.0233041 1
   vertex 0.0434068 -0.023606 1
  endloop
 endfacet
 facet normal 0.629475 0.777021 0
  outer loop
   vertex 0.0430341 -0.0233041 -1
   vertex 0.0434068 -0.023606 1
   vertex 0.0434068 -0.023606 -1
  endloop
 endfacet
 facet normal 0.653349 0.757056 -0
  outer loop
   vertex 0.0434068 -0.023606 -1
   vertex 0.0434068 -0.023606 1
   vertex 0.0437699 -0.0239194 1
  endloop
 endfacet
 facet normal 0.653349 0.757056 0
  outer loop
   vertex 0.0434068 -0.023606 -1
   vertex 0.0437699 -0.0239194 1
   vertex 0.0437699 -0.0239194 -1
  endloop
 endfacet
 facet normal 0.676534 0.736412 -0
  outer loop
   vertex 0.0437699 -0.0239194 -1
   vertex 0.0437699 -0.0239194 1
   vertex 0.0441231 -0.0242439 1
  endloop
 endfacet
 facet normal 0.676534 0.736412 0
  outer loop
   vertex 0.0437699 -0.0239194 -1
   vertex 0.0441231 -0.0242439 1
   vertex 0.0441231 -0.0242439 -1
  endloop
 endfacet
 facet normal 0.699011 0.715111 -0
  outer loop
   vertex 0.0441231 -0.0242439 -1
   vertex 0.0441231 -0.0242439 1
   vertex 0.0444661 -0.0245792 1
  endloop
 endfacet
 facet normal 0.699011 0.715111 0
  outer loop
   vertex 0.0441231 -0.0242439 -1
   vertex 0.0444661 -0.0245792 1
   vertex 0.0444661 -0.0245792 -1
  endloop
 endfacet
 facet normal 0.721012 0.692923 -0
  outer loop
   vertex 0.0444661 -0.0245792 -1
   vertex 0.0444661 -0.0245792 1
   vertex 0.0447984 -0.0249249 1
  endloop
 endfacet
 facet normal 0.721012 0.692923 0
  outer loop
   vertex 0.0444661 -0.0245792 -1
   vertex 0.0447984 -0.0249249 1
   vertex 0.0447984 -0.0249249 -1
  endloop
 endfacet
 facet normal 0.742078 0.670314 -0
  outer loop
   vertex 0.0447984 -0.0249249 -1
   vertex 0.0447984 -0.0249249 1
   vertex 0.0451199 -0.0252808 1
  endloop
 endfacet
 facet normal 0.742078 0.670314 0
  outer loop
   vertex 0.0447984 -0.0249249 -1
   vertex 0.0451199 -0.0252808 1
   vertex 0.0451199 -0.0252808 -1
  endloop
 endfacet
 facet normal 0.762519 0.646965 -0
  outer loop
   vertex 0.0451199 -0.0252808 -1
   vertex 0.0451199 -0.0252808 1
   vertex 0.0454302 -0.0256466 1
  endloop
 endfacet
 facet normal 0.762519 0.646965 0
  outer loop
   vertex 0.0451199 -0.0252808 -1
   vertex 0.0454302 -0.0256466 1
   vertex 0.0454302 -0.0256466 -1
  endloop
 endfacet
 facet normal 0.782224 0.622998 -0
  outer loop
   vertex 0.0454302 -0.0256466 -1
   vertex 0.0454302 -0.0256466 1
   vertex 0.045729 -0.0260217 1
  endloop
 endfacet
 facet normal 0.782224 0.622998 0
  outer loop
   vertex 0.0454302 -0.0256466 -1
   vertex 0.045729 -0.0260217 1
   vertex 0.045729 -0.0260217 -1
  endloop
 endfacet
 facet normal 0.801101 0.598529 -0
  outer loop
   vertex 0.045729 -0.0260217 -1
   vertex 0.045729 -0.0260217 1
   vertex 0.0460161 -0.026406 1
  endloop
 endfacet
 facet normal 0.801101 0.598529 0
  outer loop
   vertex 0.045729 -0.0260217 -1
   vertex 0.0460161 -0.026406 1
   vertex 0.0460161 -0.026406 -1
  endloop
 endfacet
 facet normal 0.819428 0.573183 -0
  outer loop
   vertex 0.0460161 -0.026406 -1
   vertex 0.0460161 -0.026406 1
   vertex 0.046291 -0.026799 1
  endloop
 endfacet
 facet normal 0.819428 0.573183 0
  outer loop
   vertex 0.0460161 -0.026406 -1
   vertex 0.046291 -0.026799 1
   vertex 0.046291 -0.026799 -1
  endloop
 endfacet
 facet normal 0.836787 0.547529 -0
  outer loop
   vertex 0.046291 -0.026799 -1
   vertex 0.046291 -0.026799 1
   vertex 0.0465536 -0.0272003 1
  endloop
 endfacet
 facet normal 0.836787 0.547529 0
  outer loop
   vertex 0.046291 -0.026799 -1
   vertex 0.0465536 -0.0272003 1
   vertex 0.0465536 -0.0272003 -1
  endloop
 endfacet
 facet normal 0.853301 0.521419 -0
  outer loop
   vertex 0.0465536 -0.0272003 -1
   vertex 0.0465536 -0.0272003 1
   vertex 0.0468037 -0.0276096 1
  endloop
 endfacet
 facet normal 0.853301 0.521419 0
  outer loop
   vertex 0.0465536 -0.0272003 -1
   vertex 0.0468037 -0.0276096 1
   vertex 0.0468037 -0.0276096 -1
  endloop
 endfacet
 facet normal 0.869144 0.494559 -0
  outer loop
   vertex 0.0468037 -0.0276096 -1
   vertex 0.0468037 -0.0276096 1
   vertex 0.0470409 -0.0280265 1
  endloop
 endfacet
 facet normal 0.869144 0.494559 0
  outer loop
   vertex 0.0468037 -0.0276096 -1
   vertex 0.0470409 -0.0280265 1
   vertex 0.0470409 -0.0280265 -1
  endloop
 endfacet
 facet normal 0.884024 0.467441 -0
  outer loop
   vertex 0.0470409 -0.0280265 -1
   vertex 0.0470409 -0.0280265 1
   vertex 0.0472651 -0.0284505 1
  endloop
 endfacet
 facet normal 0.884024 0.467441 0
  outer loop
   vertex 0.0470409 -0.0280265 -1
   vertex 0.0472651 -0.0284505 1
   vertex 0.0472651 -0.0284505 -1
  endloop
 endfacet
 facet normal 0.898222 0.439543 -0
  outer loop
   vertex 0.0472651 -0.0284505 -1
   vertex 0.0472651 -0.0284505 1
   vertex 0.0474759 -0.0288813 1
  endloop
 endfacet
 facet normal 0.898222 0.439543 0
  outer loop
   vertex 0.0472651 -0.0284505 -1
   vertex 0.0474759 -0.0288813 1
   vertex 0.0474759 -0.0288813 -1
  endloop
 endfacet
 facet normal 0.911295 0.411755 -0
  outer loop
   vertex 0.0474759 -0.0288813 -1
   vertex 0.0474759 -0.0288813 1
   vertex 0.0476734 -0.0293184 1
  endloop
 endfacet
 facet normal 0.911295 0.411755 0
  outer loop
   vertex 0.0474759 -0.0288813 -1
   vertex 0.0476734 -0.0293184 1
   vertex 0.0476734 -0.0293184 -1
  endloop
 endfacet
 facet normal 0.923739 0.383024 -0
  outer loop
   vertex 0.0476734 -0.0293184 -1
   vertex 0.0476734 -0.0293184 1
   vertex 0.0478571 -0.0297614 1
  endloop
 endfacet
 facet normal 0.923739 0.383024 0
  outer loop
   vertex 0.0476734 -0.0293184 -1
   vertex 0.0478571 -0.0297614 1
   vertex 0.0478571 -0.0297614 -1
  endloop
 endfacet
 facet normal 0.935084 0.354427 -0
  outer loop
   vertex 0.0478571 -0.0297614 -1
   vertex 0.0478571 -0.0297614 1
   vertex 0.0480271 -0.0302099 1
  endloop
 endfacet
 facet normal 0.935084 0.354427 0
  outer loop
   vertex 0.0478571 -0.0297614 -1
   vertex 0.0480271 -0.0302099 1
   vertex 0.0480271 -0.0302099 -1
  endloop
 endfacet
 facet normal 0.945694 0.325059 -0
  outer loop
   vertex 0.0480271 -0.0302099 -1
   vertex 0.0480271 -0.0302099 1
   vertex 0.048183 -0.0306635 1
  endloop
 endfacet
 facet normal 0.945694 0.325059 0
  outer loop
   vertex 0.0480271 -0.0302099 -1
   vertex 0.048183 -0.0306635 1
   vertex 0.048183 -0.0306635 -1
  endloop
 endfacet
 facet normal 0.9553 0.295637 -0
  outer loop
   vertex 0.048183 -0.0306635 -1
   vertex 0.048183 -0.0306635 1
   vertex 0.0483248 -0.0311217 1
  endloop
 endfacet
 facet normal 0.9553 0.295637 0
  outer loop
   vertex 0.048183 -0.0306635 -1
   vertex 0.0483248 -0.0311217 1
   vertex 0.0483248 -0.0311217 -1
  endloop
 endfacet
 facet normal 0.964073 0.265638 -0
  outer loop
   vertex 0.0483248 -0.0311217 -1
   vertex 0.0483248 -0.0311217 1
   vertex 0.0484522 -0.031584 1
  endloop
 endfacet
 facet normal 0.964073 0.265638 0
  outer loop
   vertex 0.0483248 -0.0311217 -1
   vertex 0.0484522 -0.031584 1
   vertex 0.0484522 -0.031584 -1
  endloop
 endfacet
 facet normal 0.971801 0.235804 -0
  outer loop
   vertex 0.0484522 -0.031584 -1
   vertex 0.0484522 -0.031584 1
   vertex 0.0485653 -0.0320501 1
  endloop
 endfacet
 facet normal 0.971801 0.235804 0
  outer loop
   vertex 0.0484522 -0.031584 -1
   vertex 0.0485653 -0.0320501 1
   vertex 0.0485653 -0.0320501 -1
  endloop
 endfacet
 facet normal 0.978641 0.205575 -0
  outer loop
   vertex 0.0485653 -0.0320501 -1
   vertex 0.0485653 -0.0320501 1
   vertex 0.0486639 -0.0325195 1
  endloop
 endfacet
 facet normal 0.978641 0.205575 0
  outer loop
   vertex 0.0485653 -0.0320501 -1
   vertex 0.0486639 -0.0325195 1
   vertex 0.0486639 -0.0325195 -1
  endloop
 endfacet
 facet normal 0.98458 0.174934 -0
  outer loop
   vertex 0.0486639 -0.0325195 -1
   vertex 0.0486639 -0.0325195 1
   vertex 0.0487478 -0.0329918 1
  endloop
 endfacet
 facet normal 0.98458 0.174934 0
  outer loop
   vertex 0.0486639 -0.0325195 -1
   vertex 0.0487478 -0.0329918 1
   vertex 0.0487478 -0.0329918 -1
  endloop
 endfacet
 facet normal 0.989536 0.144284 -0
  outer loop
   vertex 0.0487478 -0.0329918 -1
   vertex 0.0487478 -0.0329918 1
   vertex 0.048817 -0.0334663 1
  endloop
 endfacet
 facet normal 0.989536 0.144284 0
  outer loop
   vertex 0.0487478 -0.0329918 -1
   vertex 0.048817 -0.0334663 1
   vertex 0.048817 -0.0334663 -1
  endloop
 endfacet
 facet normal 0.993524 0.113627 -0
  outer loop
   vertex 0.048817 -0.0334663 -1
   vertex 0.048817 -0.0334663 1
   vertex 0.0488715 -0.0339429 1
  endloop
 endfacet
 facet normal 0.993524 0.113627 0
  outer loop
   vertex 0.048817 -0.0334663 -1
   vertex 0.0488715 -0.0339429 1
   vertex 0.0488715 -0.0339429 -1
  endloop
 endfacet
 facet normal 0.996568 0.0827737 -0
  outer loop
   vertex 0.0488715 -0.0339429 -1
   vertex 0.0488715 -0.0339429 1
   vertex 0.0489112 -0.0344208 1
  endloop
 endfacet
 facet normal 0.996568 0.0827737 0
  outer loop
   vertex 0.0488715 -0.0339429 -1
   vertex 0.0489112 -0.0344208 1
   vertex 0.0489112 -0.0344208 -1
  endloop
 endfacet
 facet normal 0.998662 0.0517048 -0
  outer loop
   vertex 0.0489112 -0.0344208 -1
   vertex 0.0489112 -0.0344208 1
   vertex 0.048936 -0.0348998 1
  endloop
 endfacet
 facet normal 0.998662 0.0517048 0
  outer loop
   vertex 0.0489112 -0.0344208 -1
   vertex 0.048936 -0.0348998 1
   vertex 0.048936 -0.0348998 -1
  endloop
 endfacet
 facet normal 0.999783 0.0208547 -0
  outer loop
   vertex 0.048936 -0.0348998 -1
   vertex 0.048936 -0.0348998 1
   vertex 0.048946 -0.0353794 1
  endloop
 endfacet
 facet normal 0.999783 0.0208547 0
  outer loop
   vertex 0.048936 -0.0348998 -1
   vertex 0.048946 -0.0353794 1
   vertex 0.048946 -0.0353794 -1
  endloop
 endfacet
 facet normal 0.999946 -0.0104234 0
  outer loop
   vertex 0.048946 -0.0353794 -1
   vertex 0.048946 -0.0353794 1
   vertex 0.048941 -0.035859 1
  endloop
 endfacet
 facet normal 0.999946 -0.0104234 0
  outer loop
   vertex 0.048946 -0.0353794 -1
   vertex 0.048941 -0.035859 1
   vertex 0.048941 -0.035859 -1
  endloop
 endfacet
 facet normal 0.999148 -0.0412792 0
  outer loop
   vertex 0.048941 -0.035859 -1
   vertex 0.048941 -0.035859 1
   vertex 0.0489212 -0.0363382 1
  endloop
 endfacet
 facet normal 0.999148 -0.0412792 0
  outer loop
   vertex 0.048941 -0.035859 -1
   vertex 0.0489212 -0.0363382 1
   vertex 0.0489212 -0.0363382 -1
  endloop
 endfacet
 facet normal 0.997379 -0.0723577 0
  outer loop
   vertex 0.0489212 -0.0363382 -1
   vertex 0.0489212 -0.0363382 1
   vertex 0.0488865 -0.0368165 1
  endloop
 endfacet
 facet normal 0.997379 -0.0723577 0
  outer loop
   vertex 0.0489212 -0.0363382 -1
   vertex 0.0488865 -0.0368165 1
   vertex 0.0488865 -0.0368165 -1
  endloop
 endfacet
 facet normal 0.99464 -0.103403 0
  outer loop
   vertex 0.0488865 -0.0368165 -1
   vertex 0.0488865 -0.0368165 1
   vertex 0.0488369 -0.0372936 1
  endloop
 endfacet
 facet normal 0.99464 -0.103403 0
  outer loop
   vertex 0.0488865 -0.0368165 -1
   vertex 0.0488369 -0.0372936 1
   vertex 0.0488369 -0.0372936 -1
  endloop
 endfacet
 facet normal -0.156405 -0.987693 -0
  outer loop
   vertex 0.0481633 -0.037783 1
   vertex 0.047867 -0.0377361 1
   vertex 0.0481633 -0.037783 -1
  endloop
 endfacet
 facet normal -0.156405 -0.987693 0
  outer loop
   vertex 0.0481633 -0.037783 -1
   vertex 0.047867 -0.0377361 1
   vertex 0.047867 -0.0377361 -1
  endloop
 endfacet
 facet normal -0.990081 0.140494 0
  outer loop
   vertex 0.047867 -0.0377361 -1
   vertex 0.047867 -0.0377361 1
   vertex 0.0479327 -0.0372731 -1
  endloop
 endfacet
 facet normal -0.990081 0.140494 0
  outer loop
   vertex 0.0479327 -0.0372731 -1
   vertex 0.047867 -0.0377361 1
   vertex 0.0479327 -0.0372731 1
  endloop
 endfacet
 facet normal -0.994081 0.108637 0
  outer loop
   vertex 0.0479327 -0.0372731 -1
   vertex 0.0479327 -0.0372731 1
   vertex 0.0479835 -0.0368083 -1
  endloop
 endfacet
 facet normal -0.994081 0.108637 0
  outer loop
   vertex 0.0479835 -0.0368083 -1
   vertex 0.0479327 -0.0372731 1
   vertex 0.0479835 -0.0368083 1
  endloop
 endfacet
 facet normal -0.997049 0.0767664 0
  outer loop
   vertex 0.0479835 -0.0368083 -1
   vertex 0.0479835 -0.0368083 1
   vertex 0.0480194 -0.036342 -1
  endloop
 endfacet
 facet normal -0.997049 0.0767664 0
  outer loop
   vertex 0.0480194 -0.036342 -1
   vertex 0.0479835 -0.0368083 1
   vertex 0.0480194 -0.036342 1
  endloop
 endfacet
 facet normal -0.99901 0.0444776 0
  outer loop
   vertex 0.0480194 -0.036342 -1
   vertex 0.0480194 -0.036342 1
   vertex 0.0480402 -0.0358748 -1
  endloop
 endfacet
 facet normal -0.99901 0.0444776 0
  outer loop
   vertex 0.0480402 -0.0358748 -1
   vertex 0.0480194 -0.036342 1
   vertex 0.0480402 -0.0358748 1
  endloop
 endfacet
 facet normal -0.99992 0.0126187 0
  outer loop
   vertex 0.0480402 -0.0358748 -1
   vertex 0.0480402 -0.0358748 1
   vertex 0.0480461 -0.0354072 -1
  endloop
 endfacet
 facet normal -0.99992 0.0126187 0
  outer loop
   vertex 0.0480461 -0.0354072 -1
   vertex 0.0480402 -0.0358748 1
   vertex 0.0480461 -0.0354072 1
  endloop
 endfacet
 facet normal -0.999806 -0.0196768 0
  outer loop
   vertex 0.0480461 -0.0354072 -1
   vertex 0.0480461 -0.0354072 1
   vertex 0.0480369 -0.0349397 -1
  endloop
 endfacet
 facet normal -0.999806 -0.0196768 0
  outer loop
   vertex 0.0480369 -0.0349397 -1
   vertex 0.0480461 -0.0354072 1
   vertex 0.0480369 -0.0349397 1
  endloop
 endfacet
 facet normal -0.998649 -0.051963 0
  outer loop
   vertex 0.0480369 -0.0349397 -1
   vertex 0.0480369 -0.0349397 1
   vertex 0.0480126 -0.0344727 -1
  endloop
 endfacet
 facet normal -0.998649 -0.051963 0
  outer loop
   vertex 0.0480126 -0.0344727 -1
   vertex 0.0480369 -0.0349397 1
   vertex 0.0480126 -0.0344727 1
  endloop
 endfacet
 facet normal -0.996481 -0.0838223 0
  outer loop
   vertex 0.0480126 -0.0344727 -1
   vertex 0.0480126 -0.0344727 1
   vertex 0.0479734 -0.0340067 -1
  endloop
 endfacet
 facet normal -0.996481 -0.0838223 0
  outer loop
   vertex 0.0479734 -0.0340067 -1
   vertex 0.0480126 -0.0344727 1
   vertex 0.0479734 -0.0340067 1
  endloop
 endfacet
 facet normal -0.993285 -0.115697 0
  outer loop
   vertex 0.0479734 -0.0340067 -1
   vertex 0.0479734 -0.0340067 1
   vertex 0.0479193 -0.0335422 -1
  endloop
 endfacet
 facet normal -0.993285 -0.115697 0
  outer loop
   vertex 0.0479193 -0.0335422 -1
   vertex 0.0479734 -0.0340067 1
   vertex 0.0479193 -0.0335422 1
  endloop
 endfacet
 facet normal -0.989022 -0.147766 0
  outer loop
   vertex 0.0479193 -0.0335422 -1
   vertex 0.0479193 -0.0335422 1
   vertex 0.0478502 -0.0330797 -1
  endloop
 endfacet
 facet normal -0.989022 -0.147766 0
  outer loop
   vertex 0.0478502 -0.0330797 -1
   vertex 0.0479193 -0.0335422 1
   vertex 0.0478502 -0.0330797 1
  endloop
 endfacet
 facet normal -0.983774 -0.17941 0
  outer loop
   vertex 0.0478502 -0.0330797 -1
   vertex 0.0478502 -0.0330797 1
   vertex 0.0477663 -0.0326197 -1
  endloop
 endfacet
 facet normal -0.983774 -0.17941 0
  outer loop
   vertex 0.0477663 -0.0326197 -1
   vertex 0.0478502 -0.0330797 1
   vertex 0.0477663 -0.0326197 1
  endloop
 endfacet
 facet normal -0.977518 -0.210851 0
  outer loop
   vertex 0.0477663 -0.0326197 -1
   vertex 0.0477663 -0.0326197 1
   vertex 0.0476677 -0.0321626 -1
  endloop
 endfacet
 facet normal -0.977518 -0.210851 0
  outer loop
   vertex 0.0476677 -0.0321626 -1
   vertex 0.0477663 -0.0326197 1
   vertex 0.0476677 -0.0321626 1
  endloop
 endfacet
 facet normal -0.970257 -0.242079 0
  outer loop
   vertex 0.0476677 -0.0321626 -1
   vertex 0.0476677 -0.0321626 1
   vertex 0.0475545 -0.0317089 -1
  endloop
 endfacet
 facet normal -0.970257 -0.242079 0
  outer loop
   vertex 0.0475545 -0.0317089 -1
   vertex 0.0476677 -0.0321626 1
   vertex 0.0475545 -0.0317089 1
  endloop
 endfacet
 facet normal -0.961931 -0.273291 0
  outer loop
   vertex 0.0475545 -0.0317089 -1
   vertex 0.0475545 -0.0317089 1
   vertex 0.0474267 -0.031259 -1
  endloop
 endfacet
 facet normal -0.961931 -0.273291 0
  outer loop
   vertex 0.0474267 -0.031259 -1
   vertex 0.0475545 -0.0317089 1
   vertex 0.0474267 -0.031259 1
  endloop
 endfacet
 facet normal -0.952709 -0.303886 0
  outer loop
   vertex 0.0474267 -0.031259 -1
   vertex 0.0474267 -0.031259 1
   vertex 0.0472846 -0.0308135 -1
  endloop
 endfacet
 facet normal -0.952709 -0.303886 0
  outer loop
   vertex 0.0472846 -0.0308135 -1
   vertex 0.0474267 -0.031259 1
   vertex 0.0472846 -0.0308135 1
  endloop
 endfacet
 facet normal -0.942343 -0.334648 0
  outer loop
   vertex 0.0472846 -0.0308135 -1
   vertex 0.0472846 -0.0308135 1
   vertex 0.0471281 -0.0303728 -1
  endloop
 endfacet
 facet normal -0.942343 -0.334648 0
  outer loop
   vertex 0.0471281 -0.0303728 -1
   vertex 0.0472846 -0.0308135 1
   vertex 0.0471281 -0.0303728 1
  endloop
 endfacet
 facet normal -0.931239 -0.364409 0
  outer loop
   vertex 0.0471281 -0.0303728 -1
   vertex 0.0471281 -0.0303728 1
   vertex 0.0469577 -0.0299374 -1
  endloop
 endfacet
 facet normal -0.931239 -0.364409 0
  outer loop
   vertex 0.0469577 -0.0299374 -1
   vertex 0.0471281 -0.0303728 1
   vertex 0.0469577 -0.0299374 1
  endloop
 endfacet
 facet normal -0.918969 -0.39433 0
  outer loop
   vertex 0.0469577 -0.0299374 -1
   vertex 0.0469577 -0.0299374 1
   vertex 0.0467733 -0.0295076 -1
  endloop
 endfacet
 facet normal -0.918969 -0.39433 0
  outer loop
   vertex 0.0467733 -0.0295076 -1
   vertex 0.0469577 -0.0299374 1
   vertex 0.0467733 -0.0295076 1
  endloop
 endfacet
 facet normal -0.90584 -0.423619 0
  outer loop
   vertex 0.0467733 -0.0295076 -1
   vertex 0.0467733 -0.0295076 1
   vertex 0.0465752 -0.029084 -1
  endloop
 endfacet
 facet normal -0.90584 -0.423619 0
  outer loop
   vertex 0.0465752 -0.029084 -1
   vertex 0.0467733 -0.0295076 1
   vertex 0.0465752 -0.029084 1
  endloop
 endfacet
 facet normal -0.891767 -0.452495 0
  outer loop
   vertex 0.0465752 -0.029084 -1
   vertex 0.0465752 -0.029084 1
   vertex 0.0463636 -0.028667 -1
  endloop
 endfacet
 facet normal -0.891767 -0.452495 0
  outer loop
   vertex 0.0463636 -0.028667 -1
   vertex 0.0465752 -0.029084 1
   vertex 0.0463636 -0.028667 1
  endloop
 endfacet
 facet normal -0.876758 -0.480933 0
  outer loop
   vertex 0.0463636 -0.028667 -1
   vertex 0.0463636 -0.028667 1
   vertex 0.0461387 -0.028257 -1
  endloop
 endfacet
 facet normal -0.876758 -0.480933 0
  outer loop
   vertex 0.0461387 -0.028257 -1
   vertex 0.0463636 -0.028667 1
   vertex 0.0461387 -0.028257 1
  endloop
 endfacet
 facet normal -0.860906 -0.508764 0
  outer loop
   vertex 0.0461387 -0.028257 -1
   vertex 0.0461387 -0.028257 1
   vertex 0.0459008 -0.0278545 -1
  endloop
 endfacet
 facet normal -0.860906 -0.508764 0
  outer loop
   vertex 0.0459008 -0.0278545 -1
   vertex 0.0461387 -0.028257 1
   vertex 0.0459008 -0.0278545 1
  endloop
 endfacet
 facet normal -0.844028 -0.5363 0
  outer loop
   vertex 0.0459008 -0.0278545 -1
   vertex 0.0459008 -0.0278545 1
   vertex 0.04565 -0.0274598 -1
  endloop
 endfacet
 facet normal -0.844028 -0.5363 0
  outer loop
   vertex 0.04565 -0.0274598 -1
   vertex 0.0459008 -0.0278545 1
   vertex 0.04565 -0.0274598 1
  endloop
 endfacet
 facet normal -0.826415 -0.563061 0
  outer loop
   vertex 0.04565 -0.0274598 -1
   vertex 0.04565 -0.0274598 1
   vertex 0.0453867 -0.0270733 -1
  endloop
 endfacet
 facet normal -0.826415 -0.563061 0
  outer loop
   vertex 0.0453867 -0.0270733 -1
   vertex 0.04565 -0.0274598 1
   vertex 0.0453867 -0.0270733 1
  endloop
 endfacet
 facet normal -0.807876 -0.589352 0
  outer loop
   vertex 0.0453867 -0.0270733 -1
   vertex 0.0453867 -0.0270733 1
   vertex 0.0451111 -0.0266955 -1
  endloop
 endfacet
 facet normal -0.807876 -0.589352 0
  outer loop
   vertex 0.0451111 -0.0266955 -1
   vertex 0.0453867 -0.0270733 1
   vertex 0.0451111 -0.0266955 1
  endloop
 endfacet
 facet normal -0.78852 -0.615009 0
  outer loop
   vertex 0.0451111 -0.0266955 -1
   vertex 0.0451111 -0.0266955 1
   vertex 0.0448235 -0.0263268 -1
  endloop
 endfacet
 facet normal -0.78852 -0.615009 0
  outer loop
   vertex 0.0448235 -0.0263268 -1
   vertex 0.0451111 -0.0266955 1
   vertex 0.0448235 -0.0263268 1
  endloop
 endfacet
 facet normal -0.768343 -0.640038 0
  outer loop
   vertex 0.0448235 -0.0263268 -1
   vertex 0.0448235 -0.0263268 1
   vertex 0.0445242 -0.0259675 -1
  endloop
 endfacet
 facet normal -0.768343 -0.640038 0
  outer loop
   vertex 0.0445242 -0.0259675 -1
   vertex 0.0448235 -0.0263268 1
   vertex 0.0445242 -0.0259675 1
  endloop
 endfacet
 facet normal -0.747383 -0.664394 0
  outer loop
   vertex 0.0445242 -0.0259675 -1
   vertex 0.0445242 -0.0259675 1
   vertex 0.0442135 -0.025618 -1
  endloop
 endfacet
 facet normal -0.747383 -0.664394 0
  outer loop
   vertex 0.0442135 -0.025618 -1
   vertex 0.0445242 -0.0259675 1
   vertex 0.0442135 -0.025618 1
  endloop
 endfacet
 facet normal -0.725727 -0.687983 0
  outer loop
   vertex 0.0442135 -0.025618 -1
   vertex 0.0442135 -0.025618 1
   vertex 0.0438918 -0.0252786 -1
  endloop
 endfacet
 facet normal -0.725727 -0.687983 0
  outer loop
   vertex 0.0438918 -0.0252786 -1
   vertex 0.0442135 -0.025618 1
   vertex 0.0438918 -0.0252786 1
  endloop
 endfacet
 facet normal -0.703164 -0.711027 0
  outer loop
   vertex 0.0438918 -0.0252786 -1
   vertex 0.0438918 -0.0252786 1
   vertex 0.0435593 -0.0249498 -1
  endloop
 endfacet
 facet normal -0.703164 -0.711027 0
  outer loop
   vertex 0.0435593 -0.0249498 -1
   vertex 0.0438918 -0.0252786 1
   vertex 0.0435593 -0.0249498 1
  endloop
 endfacet
 facet normal -0.679959 -0.73325 0
  outer loop
   vertex 0.0435593 -0.0249498 -1
   vertex 0.0435593 -0.0249498 1
   vertex 0.0432164 -0.0246318 -1
  endloop
 endfacet
 facet normal -0.679959 -0.73325 0
  outer loop
   vertex 0.0432164 -0.0246318 -1
   vertex 0.0435593 -0.0249498 1
   vertex 0.0432164 -0.0246318 1
  endloop
 endfacet
 facet normal -0.656094 -0.75468 0
  outer loop
   vertex 0.0432164 -0.0246318 -1
   vertex 0.0432164 -0.0246318 1
   vertex 0.0428635 -0.024325 -1
  endloop
 endfacet
 facet normal -0.656094 -0.75468 0
  outer loop
   vertex 0.0428635 -0.024325 -1
   vertex 0.0432164 -0.0246318 1
   vertex 0.0428635 -0.024325 1
  endloop
 endfacet
 facet normal -0.631477 -0.775395 0
  outer loop
   vertex 0.0428635 -0.024325 -1
   vertex 0.0428635 -0.024325 1
   vertex 0.0425009 -0.0240297 -1
  endloop
 endfacet
 facet normal -0.631477 -0.775395 0
  outer loop
   vertex 0.0425009 -0.0240297 -1
   vertex 0.0428635 -0.024325 1
   vertex 0.0425009 -0.0240297 1
  endloop
 endfacet
 facet normal -0.60623 -0.795289 0
  outer loop
   vertex 0.0425009 -0.0240297 -1
   vertex 0.0425009 -0.0240297 1
   vertex 0.042129 -0.0237462 -1
  endloop
 endfacet
 facet normal -0.60623 -0.795289 0
  outer loop
   vertex 0.042129 -0.0237462 -1
   vertex 0.0425009 -0.0240297 1
   vertex 0.042129 -0.0237462 1
  endloop
 endfacet
 facet normal -0.580389 -0.814339 0
  outer loop
   vertex 0.042129 -0.0237462 -1
   vertex 0.042129 -0.0237462 1
   vertex 0.0417482 -0.0234748 -1
  endloop
 endfacet
 facet normal -0.580389 -0.814339 0
  outer loop
   vertex 0.0417482 -0.0234748 -1
   vertex 0.042129 -0.0237462 1
   vertex 0.0417482 -0.0234748 1
  endloop
 endfacet
 facet normal -0.55384 -0.832623 0
  outer loop
   vertex 0.0417482 -0.0234748 -1
   vertex 0.0417482 -0.0234748 1
   vertex 0.0413588 -0.0232158 -1
  endloop
 endfacet
 facet normal -0.55384 -0.832623 0
  outer loop
   vertex 0.0413588 -0.0232158 -1
   vertex 0.0417482 -0.0234748 1
   vertex 0.0413588 -0.0232158 1
  endloop
 endfacet
 facet normal -0.526944 -0.8499 0
  outer loop
   vertex 0.0413588 -0.0232158 -1
   vertex 0.0413588 -0.0232158 1
   vertex 0.0409614 -0.0229694 -1
  endloop
 endfacet
 facet normal -0.526944 -0.8499 0
  outer loop
   vertex 0.0409614 -0.0229694 -1
   vertex 0.0413588 -0.0232158 1
   vertex 0.0409614 -0.0229694 1
  endloop
 endfacet
 facet normal -0.499258 -0.866453 0
  outer loop
   vertex 0.0409614 -0.0229694 -1
   vertex 0.0409614 -0.0229694 1
   vertex 0.0405562 -0.0227359 -1
  endloop
 endfacet
 facet normal -0.499258 -0.866453 0
  outer loop
   vertex 0.0405562 -0.0227359 -1
   vertex 0.0409614 -0.0229694 1
   vertex 0.0405562 -0.0227359 1
  endloop
 endfacet
 facet normal -0.47117 -0.882043 0
  outer loop
   vertex 0.0405562 -0.0227359 -1
   vertex 0.0405562 -0.0227359 1
   vertex 0.0401437 -0.0225156 -1
  endloop
 endfacet
 facet normal -0.47117 -0.882043 0
  outer loop
   vertex 0.0401437 -0.0225156 -1
   vertex 0.0405562 -0.0227359 1
   vertex 0.0401437 -0.0225156 1
  endloop
 endfacet
 facet normal -0.442623 -0.896708 0
  outer loop
   vertex 0.0401437 -0.0225156 -1
   vertex 0.0401437 -0.0225156 1
   vertex 0.0397244 -0.0223086 -1
  endloop
 endfacet
 facet normal -0.442623 -0.896708 0
  outer loop
   vertex 0.0397244 -0.0223086 -1
   vertex 0.0401437 -0.0225156 1
   vertex 0.0397244 -0.0223086 1
  endloop
 endfacet
 facet normal -0.413643 -0.910439 0
  outer loop
   vertex 0.0397244 -0.0223086 -1
   vertex 0.0397244 -0.0223086 1
   vertex 0.0392987 -0.0221152 -1
  endloop
 endfacet
 facet normal -0.413643 -0.910439 0
  outer loop
   vertex 0.0392987 -0.0221152 -1
   vertex 0.0397244 -0.0223086 1
   vertex 0.0392987 -0.0221152 1
  endloop
 endfacet
 facet normal -0.384076 -0.923301 0
  outer loop
   vertex 0.0392987 -0.0221152 -1
   vertex 0.0392987 -0.0221152 1
   vertex 0.0388669 -0.0219356 -1
  endloop
 endfacet
 facet normal -0.384076 -0.923301 0
  outer loop
   vertex 0.0388669 -0.0219356 -1
   vertex 0.0392987 -0.0221152 1
   vertex 0.0388669 -0.0219356 1
  endloop
 endfacet
 facet normal -0.354237 -0.935156 0
  outer loop
   vertex 0.0388669 -0.0219356 -1
   vertex 0.0388669 -0.0219356 1
   vertex 0.0384296 -0.0217699 -1
  endloop
 endfacet
 facet normal -0.354237 -0.935156 0
  outer loop
   vertex 0.0384296 -0.0217699 -1
   vertex 0.0388669 -0.0219356 1
   vertex 0.0384296 -0.0217699 1
  endloop
 endfacet
 facet normal -0.324018 -0.946051 0
  outer loop
   vertex 0.0384296 -0.0217699 -1
   vertex 0.0384296 -0.0217699 1
   vertex 0.0379872 -0.0216184 -1
  endloop
 endfacet
 facet normal -0.324018 -0.946051 0
  outer loop
   vertex 0.0379872 -0.0216184 -1
   vertex 0.0384296 -0.0217699 1
   vertex 0.0379872 -0.0216184 1
  endloop
 endfacet
 facet normal -0.293465 -0.95597 0
  outer loop
   vertex 0.0379872 -0.0216184 -1
   vertex 0.0379872 -0.0216184 1
   vertex 0.0375402 -0.0214812 -1
  endloop
 endfacet
 facet normal -0.293465 -0.95597 0
  outer loop
   vertex 0.0375402 -0.0214812 -1
   vertex 0.0379872 -0.0216184 1
   vertex 0.0375402 -0.0214812 1
  endloop
 endfacet
 facet normal -0.262556 -0.964917 0
  outer loop
   vertex 0.0375402 -0.0214812 -1
   vertex 0.0375402 -0.0214812 1
   vertex 0.0370889 -0.0213584 -1
  endloop
 endfacet
 facet normal -0.262556 -0.964917 0
  outer loop
   vertex 0.0370889 -0.0213584 -1
   vertex 0.0375402 -0.0214812 1
   vertex 0.0370889 -0.0213584 1
  endloop
 endfacet
 facet normal -0.231437 -0.97285 0
  outer loop
   vertex 0.0370889 -0.0213584 -1
   vertex 0.0370889 -0.0213584 1
   vertex 0.036634 -0.0212502 -1
  endloop
 endfacet
 facet normal -0.231437 -0.97285 0
  outer loop
   vertex 0.036634 -0.0212502 -1
   vertex 0.0370889 -0.0213584 1
   vertex 0.036634 -0.0212502 1
  endloop
 endfacet
 facet normal -0.200063 -0.979783 0
  outer loop
   vertex 0.036634 -0.0212502 -1
   vertex 0.036634 -0.0212502 1
   vertex 0.0361758 -0.0211566 -1
  endloop
 endfacet
 facet normal -0.200063 -0.979783 0
  outer loop
   vertex 0.0361758 -0.0211566 -1
   vertex 0.036634 -0.0212502 1
   vertex 0.0361758 -0.0211566 1
  endloop
 endfacet
 facet normal -0.168503 -0.985701 0
  outer loop
   vertex 0.0361758 -0.0211566 -1
   vertex 0.0361758 -0.0211566 1
   vertex 0.0357149 -0.0210778 -1
  endloop
 endfacet
 facet normal -0.168503 -0.985701 0
  outer loop
   vertex 0.0357149 -0.0210778 -1
   vertex 0.0361758 -0.0211566 1
   vertex 0.0357149 -0.0210778 1
  endloop
 endfacet
 facet normal -0.136694 -0.990613 0
  outer loop
   vertex 0.0357149 -0.0210778 -1
   vertex 0.0357149 -0.0210778 1
   vertex 0.0352516 -0.0210139 -1
  endloop
 endfacet
 facet normal -0.136694 -0.990613 0
  outer loop
   vertex 0.0352516 -0.0210139 -1
   vertex 0.0357149 -0.0210778 1
   vertex 0.0352516 -0.0210139 1
  endloop
 endfacet
 facet normal -0.104797 -0.994494 0
  outer loop
   vertex 0.0352516 -0.0210139 -1
   vertex 0.0352516 -0.0210139 1
   vertex 0.0347866 -0.0209649 -1
  endloop
 endfacet
 facet normal -0.104797 -0.994494 0
  outer loop
   vertex 0.0347866 -0.0209649 -1
   vertex 0.0352516 -0.0210139 1
   vertex 0.0347866 -0.0209649 1
  endloop
 endfacet
 facet normal -0.0728542 -0.997343 0
  outer loop
   vertex 0.0347866 -0.0209649 -1
   vertex 0.0347866 -0.0209649 1
   vertex 0.0343202 -0.0209308 -1
  endloop
 endfacet
 facet normal -0.0728542 -0.997343 0
  outer loop
   vertex 0.0343202 -0.0209308 -1
   vertex 0.0347866 -0.0209649 1
   vertex 0.0343202 -0.0209308 1
  endloop
 endfacet
 facet normal -0.0406983 -0.999171 0
  outer loop
   vertex 0.0343202 -0.0209308 -1
   vertex 0.0343202 -0.0209308 1
   vertex 0.033853 -0.0209118 -1
  endloop
 endfacet
 facet normal -0.0406983 -0.999171 0
  outer loop
   vertex 0.033853 -0.0209118 -1
   vertex 0.0343202 -0.0209308 1
   vertex 0.033853 -0.0209118 1
  endloop
 endfacet
 facet normal -0.999844 -0.0176705 -0
  outer loop
   vertex 0.0332295 -0.0203097 1
   vertex 0.0332242 -0.0200097 1
   vertex 0.0332295 -0.0203097 -1
  endloop
 endfacet
 facet normal -0.999844 -0.0176705 0
  outer loop
   vertex 0.0332295 -0.0203097 -1
   vertex 0.0332242 -0.0200097 1
   vertex 0.0332242 -0.0200097 -1
  endloop
 endfacet
 facet normal 0 0 -1
  outer loop
   vertex 0.0332295 -0.0203097 -1
   vertex 0.0332242 -0.0200097 -1
   vertex 0.033853 -0.0209118 -1
  endloop
 endfacet
 facet normal 0 0 -1
  outer loop
   vertex 0.033853 -0.0209118 -1
   vertex 0.0332242 -0.0200097 -1
   vertex 0.0337038 -0.0200087 -1
  endloop
 endfacet
 facet normal 0 0 -1
  outer loop
   vertex 0.033853 -0.0209118 -1
   vertex 0.0337038 -0.0200087 -1
   vertex 0.0343202 -0.0209308 -1
  endloop
 endfacet
 facet normal 0 0 -1
  outer loop
   vertex 0.0343202 -0.0209308 -1
   vertex 0.0337038 -0.0200087 -1
   vertex 0.0341832 -0.0200227 -1
  endloop
 endfacet
 facet normal 0 0 -1
  outer loop
   vertex 0.0343202 -0.0209308 -1
   vertex 0.0341832 -0.0200227 -1
   vertex 0.0347866 -0.0209649 -1
  endloop
 endfacet
 facet normal 0 0 -1
  outer loop
   vertex 0.0347866 -0.0209649 -1
   vertex 0.0341832 -0.0200227 -1
   vertex 0.034662 -0.0200516 -1
  endloop
 endfacet
 facet normal 0 0 -1
  outer loop
   vertex 0.0347866 -0.0209649 -1
   vertex 0.034662 -0.0200516 -1
   vertex 0.0352516 -0.0210139 -1
  endloop
 endfacet
 facet normal 0 0 -1
  outer loop
   vertex 0.0352516 -0.0210139 -1
   vertex 0.034662 -0.0200516 -1
   vertex 0.0351397 -0.0200953 -1
  endloop
 endfacet
 facet normal 0 0 -1
  outer loop
   vertex 0.0352516 -0.0210139 -1
   vertex 0.0351397 -0.0200953 -1
   vertex 0.0357149 -0.0210778 -1
  endloop
 endfacet
 facet normal 0 0 -1
  outer loop
   vertex 0.0481633 -0.037783 -1
   vertex 0.047867 -0.0377361 -1
   vertex 0.0488369 -0.0372936 -1
  endloop
 endfacet
 facet normal -0 0 -1
  outer loop
   vertex 0.0488369 -0.0372936 -1
   vertex 0.047867 -0.0377361 -1
   vertex 0.0479327 -0.0372731 -1
  endloop
 endfacet
 facet normal 0 0 -1
  outer loop
   vertex 0.0488369 -0.0372936 -1
   vertex 0.0479327 -0.0372731 -1
   vertex 0.0488865 -0.0368165 -1
  endloop
 endfacet
 facet normal -0 0 -1
  outer loop
   vertex 0.0488865 -0.0368165 -1
   vertex 0.0479327 -0.0372731 -1
   vertex 0.0479835 -0.0368083 -1
  endloop
 endfacet
 facet normal 0 0 -1
  outer loop
   vertex 0.0488865 -0.0368165 -1
   vertex 0.0479835 -0.0368083 -1
   vertex 0.0489212 -0.0363382 -1
  endloop
 endfacet
 facet normal 0 0 -1
  outer loop
   vertex 0.0489212 -0.0363382 -1
   vertex 0.0479835 -0.0368083 -1
   vertex 0.0480194 -0.036342 -1
  endloop
 endfacet
 facet normal -0 0 -1
  outer loop
   vertex 0.0489212 -0.0363382 -1
   vertex 0.0480194 -0.036342 -1
   vertex 0.048941 -0.035859 -1
  endloop
 endfacet
 facet normal 0 0 -1
  outer loop
   vertex 0.048941 -0.035859 -1
   vertex 0.0480194 -0.036342 -1
   vertex 0.0480402 -0.0358748 -1
  endloop
 endfacet
 facet normal -0 0 -1
  outer loop
   vertex 0.048941 -0.035859 -1
   vertex 0.0480402 -0.0358748 -1
   vertex 0.048946 -0.0353794 -1
  endloop
 endfacet
 facet normal 0 0 -1
  outer loop
   vertex 0.048946 -0.0353794 -1
   vertex 0.0480402 -0.0358748 -1
   vertex 0.0480461 -0.0354072 -1
  endloop
 endfacet
 facet normal -0 0 -1
  outer loop
   vertex 0.048946 -0.0353794 -1
   vertex 0.0480461 -0.0354072 -1
   vertex 0.048936 -0.0348998 -1
  endloop
 endfacet
 facet normal 0 0 -1
  outer loop
   vertex 0.048936 -0.0348998 -1
   vertex 0.0480461 -0.0354072 -1
   vertex 0.0480369 -0.0349397 -1
  endloop
 endfacet
 facet normal -0 0 -1
  outer loop
   vertex 0.048936 -0.0348998 -1
   vertex 0.0480369 -0.0349397 -1
   vertex 0.0489112 -0.0344208 -1
  endloop
 endfacet
 facet normal 0 0 -1
  outer loop
   vertex 0.0489112 -0.0344208 -1
   vertex 0.0480369 -0.0349397 -1
   vertex 0.0480126 -0.0344727 -1
  endloop
 endfacet
 facet normal -0 0 -1
  outer loop
   vertex 0.0489112 -0.0344208 -1
   vertex 0.0480126 -0.0344727 -1
   vertex 0.0488715 -0.0339429 -1
  endloop
 endfacet
 facet normal 0 0 -1
  outer loop
   vertex 0.0488715 -0.0339429 -1
   vertex 0.0480126 -0.0344727 -1
   vertex 0.0479734 -0.0340067 -1
  endloop
 endfacet
 facet normal -0 0 -1
  outer loop
   vertex 0.0488715 -0.0339429 -1
   vertex 0.0479734 -0.0340067 -1
   vertex 0.048817 -0.0334663 -1
  endloop
 endfacet
 facet normal 0 0 -1
  outer loop
   vertex 0.048817 -0.0334663 -1
   vertex 0.0479734 -0.0340067 -1
   vertex 0.0479193 -0.0335422 -1
  endloop
 endfacet
 facet normal -0 0 -1
  outer loop
   vertex 0.048817 -0.0334663 -1
   vertex 0.0479193 -0.0335422 -1
   vertex 0.0487478 -0.0329918 -1
  endloop
 endfacet
 facet normal 0 0 -1
  outer loop
   vertex 0.0487478 -0.0329918 -1
   vertex 0.0479193 -0.0335422 -1
   vertex 0.0478502 -0.0330797 -1
  endloop
 endfacet
 facet normal -0 0 -1
  outer loop
   vertex 0.0487478 -0.0329918 -1
   vertex 0.0478502 -0.0330797 -1
   vertex 0.0486639 -0.0325195 -1
  endloop
 endfacet
 facet normal 0 0 -1
  outer loop
   vertex 0.0486639 -0.0325195 -1
   vertex 0.0478502 -0.0330797 -1
   vertex 0.0477663 -0.0326197 -1
  endloop
 endfacet
 facet normal -0 0 -1
  outer loop
   vertex 0.0486639 -0.0325195 -1
   vertex 0.0477663 -0.0326197 -1
   vertex 0.0485653 -0.0320501 -1
  endloop
 endfacet
 facet normal 0 0 -1
  outer loop
   vertex 0.0485653 -0.0320501 -1
   vertex 0.0477663 -0.0326197 -1
   vertex 0.0476677 -0.0321626 -1
  endloop
 endfacet
 facet normal -0 0 -1
  outer loop
   vertex 0.0485653 -0.0320501 -1
   vertex 0.0476677 -0.0321626 -1
   vertex 0.0484522 -0.031584 -1
  endloop
 endfacet
 facet normal 0 0 -1
  outer loop
   vertex 0.0484522 -0.031584 -1
   vertex 0.0476677 -0.0321626 -1
   vertex 0.0475545 -0.0317089 -1
  endloop
 endfacet
 facet normal -0 0 -1
  outer loop
   vertex 0.0484522 -0.031584 -1
   vertex 0.0475545 -0.0317089 -1
   vertex 0.0483248 -0.0311217 -1
  endloop
 endfacet
 facet normal 0 0 -1
  outer loop
   vertex 0.0483248 -0.0311217 -1
   vertex 0.0475545 -0.0317089 -1
   vertex 0.0474267 -0.031259 -1
  endloop
 endfacet
 facet normal -0 0 -1
  outer loop
   vertex 0.0483248 -0.0311217 -1
   vertex 0.0474267 -0.031259 -1
   vertex 0.048183 -0.0306635 -1
  endloop
 endfacet
 facet normal 0 0 -1
  outer loop
   vertex 0.048183 -0.0306635 -1
   vertex 0.0474267 -0.031259 -1
   vertex 0.0472846 -0.0308135 -1
  endloop
 endfacet
 facet normal -0 0 -1
  outer loop
   vertex 0.048183 -0.0306635 -1
   vertex 0.0472846 -0.0308135 -1
   vertex 0.0480271 -0.0302099 -1
  endloop
 endfacet
 facet normal 0 0 -1
  outer loop
   vertex 0.0480271 -0.0302099 -1
   vertex 0.0472846 -0.0308135 -1
   vertex 0.0471281 -0.0303728 -1
  endloop
 endfacet
 facet normal -0 0 -1
  outer loop
   vertex 0.0480271 -0.0302099 -1
   vertex 0.0471281 -0.0303728 -1
   vertex 0.0478571 -0.0297614 -1
  endloop
 endfacet
 facet normal 0 0 -1
  outer loop
   vertex 0.0478571 -0.0297614 -1
   vertex 0.0471281 -0.0303728 -1
   vertex 0.0469577 -0.0299374 -1
  endloop
 endfacet
 facet normal -0 0 -1
  outer loop
   vertex 0.0478571 -0.0297614 -1
   vertex 0.0469577 -0.0299374 -1
   vertex 0.0476734 -0.0293184 -1
  endloop
 endfacet
 facet normal 0 0 -1
  outer loop
   vertex 0.0476734 -0.0293184 -1
   vertex 0.0469577 -0.0299374 -1
   vertex 0.0467733 -0.0295076 -1
  endloop
 endfacet
 facet normal -0 0 -1
  outer loop
   vertex 0.0476734 -0.0293184 -1
   vertex 0.0467733 -0.0295076 -1
   vertex 0.0474759 -0.0288813 -1
  endloop
 endfacet
 facet normal 0 0 -1
  outer loop
   vertex 0.0474759 -0.0288813 -1
   vertex 0.0467733 -0.0295076 -1
   vertex 0.0465752 -0.029084 -1
  endloop
 endfacet
 facet normal -0 0 -1
  outer loop
   vertex 0.0474759 -0.0288813 -1
   vertex 0.0465752 -0.029084 -1
   vertex 0.0472651 -0.0284505 -1
  endloop
 endfacet
 facet normal 0 0 -1
  outer loop
   vertex 0.0472651 -0.0284505 -1
   vertex 0.0465752 -0.029084 -1
   vertex 0.0463636 -0.028667 -1
  endloop
 endfacet
 facet normal -0 0 -1
  outer loop
   vertex 0.0472651 -0.0284505 -1
   vertex 0.0463636 -0.028667 -1
   vertex 0.0470409 -0.0280265 -1
  endloop
 endfacet
 facet normal 0 0 -1
  outer loop
   vertex 0.0470409 -0.0280265 -1
   vertex 0.0463636 -0.028667 -1
   vertex 0.0461387 -0.028257 -1
  endloop
 endfacet
 facet normal 0 0 -1
  outer loop
   vertex 0.0351397 -0.0200953 -1
   vertex 0.0356157 -0.0201537 -1
   vertex 0.0357149 -0.0210778 -1
  endloop
 endfacet
 facet normal 0 0 -1
  outer loop
   vertex 0.0357149 -0.0210778 -1
   vertex 0.0356157 -0.0201537 -1
   vertex 0.0360897 -0.0202269 -1
  endloop
 endfacet
 facet normal 0 0 -1
  outer loop
   vertex 0.0357149 -0.0210778 -1
   vertex 0.0360897 -0.0202269 -1
   vertex 0.0361758 -0.0211566 -1
  endloop
 endfacet
 facet normal 0 0 -1
  outer loop
   vertex 0.0361758 -0.0211566 -1
   vertex 0.0360897 -0.0202269 -1
   vertex 0.0365612 -0.0203148 -1
  endloop
 endfacet
 facet normal 0 0 -1
  outer loop
   vertex 0.0361758 -0.0211566 -1
   vertex 0.0365612 -0.0203148 -1
   vertex 0.036634 -0.0212502 -1
  endloop
 endfacet
 facet normal 0 0 -1
  outer loop
   vertex 0.036634 -0.0212502 -1
   vertex 0.0365612 -0.0203148 -1
   vertex 0.0370297 -0.0204173 -1
  endloop
 endfacet
 facet normal 0 0 -1
  outer loop
   vertex 0.036634 -0.0212502 -1
   vertex 0.0370297 -0.0204173 -1
   vertex 0.0370889 -0.0213584 -1
  endloop
 endfacet
 facet normal 0 0 -1
  outer loop
   vertex 0.0370889 -0.0213584 -1
   vertex 0.0370297 -0.0204173 -1
   vertex 0.0374949 -0.0205343 -1
  endloop
 endfacet
 facet normal 0 0 -1
  outer loop
   vertex 0.0370889 -0.0213584 -1
   vertex 0.0374949 -0.0205343 -1
   vertex 0.0375402 -0.0214812 -1
  endloop
 endfacet
 facet normal 0 0 -1
  outer loop
   vertex 0.0375402 -0.0214812 -1
   vertex 0.0374949 -0.0205343 -1
   vertex 0.0379561 -0.0206657 -1
  endloop
 endfacet
 facet normal 0 0 -1
  outer loop
   vertex 0.0375402 -0.0214812 -1
   vertex 0.0379561 -0.0206657 -1
   vertex 0.0379872 -0.0216184 -1
  endloop
 endfacet
 facet normal 0 0 -1
  outer loop
   vertex 0.0379872 -0.0216184 -1
   vertex 0.0379561 -0.0206657 -1
   vertex 0.0384131 -0.0208113 -1
  endloop
 endfacet
 facet normal 0 0 -1
  outer loop
   vertex 0.0379872 -0.0216184 -1
   vertex 0.0384131 -0.0208113 -1
   vertex 0.0384296 -0.0217699 -1
  endloop
 endfacet
 facet normal 0 0 -1
  outer loop
   vertex 0.0384296 -0.0217699 -1
   vertex 0.0384131 -0.0208113 -1
   vertex 0.0388654 -0.020971 -1
  endloop
 endfacet
 facet normal 0 0 -1
  outer loop
   vertex 0.0384296 -0.0217699 -1
   vertex 0.0388654 -0.020971 -1
   vertex 0.0388669 -0.0219356 -1
  endloop
 endfacet
 facet normal 0 0 -1
  outer loop
   vertex 0.0388669 -0.0219356 -1
   vertex 0.0388654 -0.020971 -1
   vertex 0.0393125 -0.0211447 -1
  endloop
 endfacet
 facet normal 0 0 -1
  outer loop
   vertex 0.0388669 -0.0219356 -1
   vertex 0.0393125 -0.0211447 -1
   vertex 0.0392987 -0.0221152 -1
  endloop
 endfacet
 facet normal 0 0 -1
  outer loop
   vertex 0.0392987 -0.0221152 -1
   vertex 0.0393125 -0.0211447 -1
   vertex 0.0397539 -0.0213322 -1
  endloop
 endfacet
 facet normal 0 0 -1
  outer loop
   vertex 0.0392987 -0.0221152 -1
   vertex 0.0397539 -0.0213322 -1
   vertex 0.0397244 -0.0223086 -1
  endloop
 endfacet
 facet normal 0 0 -1
  outer loop
   vertex 0.0397244 -0.0223086 -1
   vertex 0.0397539 -0.0213322 -1
   vertex 0.0401894 -0.0215332 -1
  endloop
 endfacet
 facet normal 0 0 -1
  outer loop
   vertex 0.0397244 -0.0223086 -1
   vertex 0.0401894 -0.0215332 -1
   vertex 0.0401437 -0.0225156 -1
  endloop
 endfacet
 facet normal 0 0 -1
  outer loop
   vertex 0.0401437 -0.0225156 -1
   vertex 0.0401894 -0.0215332 -1
   vertex 0.0406183 -0.0217478 -1
  endloop
 endfacet
 facet normal 0 0 -1
  outer loop
   vertex 0.0401437 -0.0225156 -1
   vertex 0.0406183 -0.0217478 -1
   vertex 0.0405562 -0.0227359 -1
  endloop
 endfacet
 facet normal 0 0 -1
  outer loop
   vertex 0.0405562 -0.0227359 -1
   vertex 0.0406183 -0.0217478 -1
   vertex 0.0410405 -0.0219755 -1
  endloop
 endfacet
 facet normal 0 0 -1
  outer loop
   vertex 0.0405562 -0.0227359 -1
   vertex 0.0410405 -0.0219755 -1
   vertex 0.0409614 -0.0229694 -1
  endloop
 endfacet
 facet normal 0 0 -1
  outer loop
   vertex 0.0409614 -0.0229694 -1
   vertex 0.0410405 -0.0219755 -1
   vertex 0.0414553 -0.0222162 -1
  endloop
 endfacet
 facet normal 0 0 -1
  outer loop
   vertex 0.0409614 -0.0229694 -1
   vertex 0.0414553 -0.0222162 -1
   vertex 0.0413588 -0.0232158 -1
  endloop
 endfacet
 facet normal 0 0 -1
  outer loop
   vertex 0.0413588 -0.0232158 -1
   vertex 0.0414553 -0.0222162 -1
   vertex 0.0418625 -0.0224697 -1
  endloop
 endfacet
 facet normal 0 0 -1
  outer loop
   vertex 0.0413588 -0.0232158 -1
   vertex 0.0418625 -0.0224697 -1
   vertex 0.0417482 -0.0234748 -1
  endloop
 endfacet
 facet normal 0 0 -1
  outer loop
   vertex 0.0417482 -0.0234748 -1
   vertex 0.0418625 -0.0224697 -1
   vertex 0.0422616 -0.0227356 -1
  endloop
 endfacet
 facet normal 0 0 -1
  outer loop
   vertex 0.0417482 -0.0234748 -1
   vertex 0.0422616 -0.0227356 -1
   vertex 0.042129 -0.0237462 -1
  endloop
 endfacet
 facet normal 0 0 -1
  outer loop
   vertex 0.042129 -0.0237462 -1
   vertex 0.0422616 -0.0227356 -1
   vertex 0.0426523 -0.0230139 -1
  endloop
 endfacet
 facet normal 0 0 -1
  outer loop
   vertex 0.042129 -0.0237462 -1
   vertex 0.0426523 -0.0230139 -1
   vertex 0.0425009 -0.0240297 -1
  endloop
 endfacet
 facet normal 0 0 -1
  outer loop
   vertex 0.0425009 -0.0240297 -1
   vertex 0.0426523 -0.0230139 -1
   vertex 0.0430341 -0.0233041 -1
  endloop
 endfacet
 facet normal 0 0 -1
  outer loop
   vertex 0.0425009 -0.0240297 -1
   vertex 0.0430341 -0.0233041 -1
   vertex 0.0428635 -0.024325 -1
  endloop
 endfacet
 facet normal 0 0 -1
  outer loop
   vertex 0.0428635 -0.024325 -1
   vertex 0.0430341 -0.0233041 -1
   vertex 0.0434068 -0.023606 -1
  endloop
 endfacet
 facet normal 0 0 -1
  outer loop
   vertex 0.0428635 -0.024325 -1
   vertex 0.0434068 -0.023606 -1
   vertex 0.0432164 -0.0246318 -1
  endloop
 endfacet
 facet normal 0 0 -1
  outer loop
   vertex 0.0432164 -0.0246318 -1
   vertex 0.0434068 -0.023606 -1
   vertex 0.0437699 -0.0239194 -1
  endloop
 endfacet
 facet normal 0 0 -1
  outer loop
   vertex 0.0432164 -0.0246318 -1
   vertex 0.0437699 -0.0239194 -1
   vertex 0.0435593 -0.0249498 -1
  endloop
 endfacet
 facet normal 0 0 -1
  outer loop
   vertex 0.0435593 -0.0249498 -1
   vertex 0.0437699 -0.0239194 -1
   vertex 0.0441231 -0.0242439 -1
  endloop
 endfacet
 facet normal 0 0 -1
  outer loop
   vertex 0.0435593 -0.0249498 -1
   vertex 0.0441231 -0.0242439 -1
   vertex 0.0438918 -0.0252786 -1
  endloop
 endfacet
 facet normal 0 0 -1
  outer loop
   vertex 0.0438918 -0.0252786 -1
   vertex 0.0441231 -0.0242439 -1
   vertex 0.0444661 -0.0245792 -1
  endloop
 endfacet
 facet normal 0 0 -1
  outer loop
   vertex 0.0438918 -0.0252786 -1
   vertex 0.0444661 -0.0245792 -1
   vertex 0.0442135 -0.025618 -1
  endloop
 endfacet
 facet normal 0 0 -1
  outer loop
   vertex 0.0442135 -0.025618 -1
   vertex 0.0444661 -0.0245792 -1
   vertex 0.0447984 -0.0249249 -1
  endloop
 endfacet
 facet normal 0 0 -1
  outer loop
   vertex 0.0442135 -0.025618 -1
   vertex 0.0447984 -0.0249249 -1
   vertex 0.0445242 -0.0259675 -1
  endloop
 endfacet
 facet normal 0 0 -1
  outer loop
   vertex 0.0445242 -0.0259675 -1
   vertex 0.0447984 -0.0249249 -1
   vertex 0.0451199 -0.0252808 -1
  endloop
 endfacet
 facet normal 0 0 -1
  outer loop
   vertex 0.0445242 -0.0259675 -1
   vertex 0.0451199 -0.0252808 -1
   vertex 0.0448235 -0.0263268 -1
  endloop
 endfacet
 facet normal 0 0 -1
  outer loop
   vertex 0.0448235 -0.0263268 -1
   vertex 0.0451199 -0.0252808 -1
   vertex 0.0454302 -0.0256466 -1
  endloop
 endfacet
 facet normal 0 0 -1
  outer loop
   vertex 0.0448235 -0.0263268 -1
   vertex 0.0454302 -0.0256466 -1
   vertex 0.0451111 -0.0266955 -1
  endloop
 endfacet
 facet normal 0 0 -1
  outer loop
   vertex 0.0451111 -0.0266955 -1
   vertex 0.0454302 -0.0256466 -1
   vertex 0.045729 -0.0260217 -1
  endloop
 endfacet
 facet normal 0 0 -1
  outer loop
   vertex 0.0451111 -0.0266955 -1
   vertex 0.045729 -0.0260217 -1
   vertex 0.0453867 -0.0270733 -1
  endloop
 endfacet
 facet normal 0 0 -1
  outer loop
   vertex 0.0453867 -0.0270733 -1
   vertex 0.045729 -0.0260217 -1
   vertex 0.0460161 -0.026406 -1
  endloop
 endfacet
 facet normal 0 0 -1
  outer loop
   vertex 0.0453867 -0.0270733 -1
   vertex 0.0460161 -0.026406 -1
   vertex 0.04565 -0.0274598 -1
  endloop
 endfacet
 facet normal 0 0 -1
  outer loop
   vertex 0.04565 -0.0274598 -1
   vertex 0.0460161 -0.026406 -1
   vertex 0.046291 -0.026799 -1
  endloop
 endfacet
 facet normal 0 0 -1
  outer loop
   vertex 0.04565 -0.0274598 -1
   vertex 0.046291 -0.026799 -1
   vertex 0.0459008 -0.0278545 -1
  endloop
 endfacet
 facet normal 0 0 -1
  outer loop
   vertex 0.0459008 -0.0278545 -1
   vertex 0.046291 -0.026799 -1
   vertex 0.0465536 -0.0272003 -1
  endloop
 endfacet
 facet normal 0 0 -1
  outer loop
   vertex 0.0459008 -0.0278545 -1
   vertex 0.0465536 -0.0272003 -1
   vertex 0.0461387 -0.028257 -1
  endloop
 endfacet
 facet normal 0 0 -1
  outer loop
   vertex 0.0461387 -0.028257 -1
   vertex 0.0465536 -0.0272003 -1
   vertex 0.0468037 -0.0276096 -1
  endloop
 endfacet
 facet normal 0 0 -1
  outer loop
   vertex 0.0461387 -0.028257 -1
   vertex 0.0468037 -0.0276096 -1
   vertex 0.0470409 -0.0280265 -1
  endloop
 endfacet
 facet normal -0 0 1
  outer loop
   vertex 0.0332242 -0.0200097 1
   vertex 0.0332295 -0.0203097 1
   vertex 0.0337038 -0.0200087 1
  endloop
 endfacet
 facet normal 0 0 1
  outer loop
   vertex 0.0337038 -0.0200087 1
   vertex 0.0332295 -0.0203097 1
   vertex 0.033853 -0.0209118 1
  endloop
 endfacet
 facet normal 0 0 1
  outer loop
   vertex 0.0337038 -0.0200087 1
   vertex 0.033853 -0.0209118 1
   vertex 0.0341832 -0.0200227 1
  endloop
 endfacet
 facet normal 0 0 1
  outer loop
   vertex 0.0341832 -0.0200227 1
   vertex 0.033853 -0.0209118 1
   vertex 0.0343202 -0.0209308 1
  endloop
 endfacet
 facet normal 0 0 1
  outer loop
   vertex 0.0341832 -0.0200227 1
   vertex 0.0343202 -0.0209308 1
   vertex 0.034662 -0.0200516 1
  endloop
 endfacet
 facet normal 0 0 1
  outer loop
   vertex 0.034662 -0.0200516 1
   vertex 0.0343202 -0.0209308 1
   vertex 0.0347866 -0.0209649 1
  endloop
 endfacet
 facet normal 0 0 1
  outer loop
   vertex 0.034662 -0.0200516 1
   vertex 0.0347866 -0.0209649 1
   vertex 0.0351397 -0.0200953 1
  endloop
 endfacet
 facet normal 0 0 1
  outer loop
   vertex 0.0351397 -0.0200953 1
   vertex 0.0347866 -0.0209649 1
   vertex 0.0352516 -0.0210139 1
  endloop
 endfacet
 facet normal 0 0 1
  outer loop
   vertex 0.0351397 -0.0200953 1
   vertex 0.0352516 -0.0210139 1
   vertex 0.0356157 -0.0201537 1
  endloop
 endfacet
 facet normal 0 0 1
  outer loop
   vertex 0.0356157 -0.0201537 1
   vertex 0.0352516 -0.0210139 1
   vertex 0.0357149 -0.0210778 1
  endloop
 endfacet
 facet normal 0 0 1
  outer loop
   vertex 0.0356157 -0.0201537 1
   vertex 0.0357149 -0.0210778 1
   vertex 0.0360897 -0.0202269 1
  endloop
 endfacet
 facet normal 0 0 1
  outer loop
   vertex 0.0360897 -0.0202269 1
   vertex 0.0357149 -0.0210778 1
   vertex 0.0361758 -0.0211566 1
  endloop
 endfacet
 facet normal -0 0 1
  outer loop
   vertex 0.047867 -0.0377361 1
   vertex 0.0481633 -0.037783 1
   vertex 0.0479327 -0.0372731 1
  endloop
 endfacet
 facet normal 0 0 1
  outer loop
   vertex 0.0479327 -0.0372731 1
   vertex 0.0481633 -0.037783 1
   vertex 0.0488369 -0.0372936 1
  endloop
 endfacet
 facet normal -0 0 1
  outer loop
   vertex 0.0479327 -0.0372731 1
   vertex 0.0488369 -0.0372936 1
   vertex 0.0479835 -0.0368083 1
  endloop
 endfacet
 facet normal 0 0 1
  outer loop
   vertex 0.0479835 -0.0368083 1
   vertex 0.0488369 -0.0372936 1
   vertex 0.0488865 -0.0368165 1
  endloop
 endfacet
 facet normal -0 0 1
  outer loop
   vertex 0.0479835 -0.0368083 1
   vertex 0.0488865 -0.0368165 1
   vertex 0.0480194 -0.036342 1
  endloop
 endfacet
 facet normal -0 0 1
  outer loop
   vertex 0.0480194 -0.036342 1
   vertex 0.0488865 -0.0368165 1
   vertex 0.0489212 -0.0363382 1
  endloop
 endfacet
 facet normal 0 0 1
  outer loop
   vertex 0.0480194 -0.036342 1
   vertex 0.0489212 -0.0363382 1
   vertex 0.0480402 -0.0358748 1
  endloop
 endfacet
 facet normal -0 0 1
  outer loop
   vertex 0.0480402 -0.0358748 1
   vertex 0.0489212 -0.0363382 1
   vertex 0.048941 -0.035859 1
  endloop
 endfacet
 facet normal 0 0 1
  outer loop
   vertex 0.0480402 -0.0358748 1
   vertex 0.048941 -0.035859 1
   vertex 0.0480461 -0.0354072 1
  endloop
 endfacet
 facet normal -0 0 1
  outer loop
   vertex 0.0480461 -0.0354072 1
   vertex 0.048941 -0.035859 1
   vertex 0.048946 -0.0353794 1
  endloop
 endfacet
 facet normal 0 -0 1
  outer loop
   vertex 0.0480461 -0.0354072 1
   vertex 0.048946 -0.0353794 1
   vertex 0.0480369 -0.0349397 1
  endloop
 endfacet
 facet normal -0 0 1
  outer loop
   vertex 0.0480369 -0.0349397 1
   vertex 0.048946 -0.0353794 1
   vertex 0.048936 -0.0348998 1
  endloop
 endfacet
 facet normal 0 -0 1
  outer loop
   vertex 0.0480369 -0.0349397 1
   vertex 0.048936 -0.0348998 1
   vertex 0.0480126 -0.0344727 1
  endloop
 endfacet
 facet normal -0 0 1
  outer loop
   vertex 0.0480126 -0.0344727 1
   vertex 0.048936 -0.0348998 1
   vertex 0.0489112 -0.0344208 1
  endloop
 endfacet
 facet normal 0 -0 1
  outer loop
   vertex 0.0480126 -0.0344727 1
   vertex 0.0489112 -0.0344208 1
   vertex 0.0479734 -0.0340067 1
  endloop
 endfacet
 facet normal -0 0 1
  outer loop
   vertex 0.0479734 -0.0340067 1
   vertex 0.0489112 -0.0344208 1
   vertex 0.0488715 -0.0339429 1
  endloop
 endfacet
 facet normal 0 -0 1
  outer loop
   vertex 0.0479734 -0.0340067 1
   vertex 0.0488715 -0.0339429 1
   vertex 0.0479193 -0.0335422 1
  endloop
 endfacet
 facet normal -0 0 1
  outer loop
   vertex 0.0479193 -0.0335422 1
   vertex 0.0488715 -0.0339429 1
   vertex 0.048817 -0.0334663 1
  endloop
 endfacet
 facet normal 0 -0 1
  outer loop
   vertex 0.0479193 -0.0335422 1
   vertex 0.048817 -0.0334663 1
   vertex 0.0478502 -0.0330797 1
  endloop
 endfacet
 facet normal -0 0 1
  outer loop
   vertex 0.0478502 -0.0330797 1
   vertex 0.048817 -0.0334663 1
   vertex 0.0487478 -0.0329918 1
  endloop
 endfacet
 facet normal 0 -0 1
  outer loop
   vertex 0.0478502 -0.0330797 1
   vertex 0.0487478 -0.0329918 1
   vertex 0.0477663 -0.0326197 1
  endloop
 endfacet
 facet normal -0 0 1
  outer loop
   vertex 0.0477663 -0.0326197 1
   vertex 0.0487478 -0.0329918 1
   vertex 0.0486639 -0.0325195 1
  endloop
 endfacet
 facet normal 0 -0 1
  outer loop
   vertex 0.0477663 -0.0326197 1
   vertex 0.0486639 -0.0325195 1
   vertex 0.0476677 -0.0321626 1
  endloop
 endfacet
 facet normal -0 0 1
  outer loop
   vertex 0.0476677 -0.0321626 1
   vertex 0.0486639 -0.0325195 1
   vertex 0.0485653 -0.0320501 1
  endloop
 endfacet
 facet normal 0 -0 1
  outer loop
   vertex 0.0476677 -0.0321626 1
   vertex 0.0485653 -0.0320501 1
   vertex 0.0475545 -0.0317089 1
  endloop
 endfacet
 facet normal -0 0 1
  outer loop
   vertex 0.0475545 -0.0317089 1
   vertex 0.0485653 -0.0320501 1
   vertex 0.0484522 -0.031584 1
  endloop
 endfacet
 facet normal 0 -0 1
  outer loop
   vertex 0.0475545 -0.0317089 1
   vertex 0.0484522 -0.031584 1
   vertex 0.0474267 -0.031259 1
  endloop
 endfacet
 facet normal -0 0 1
  outer loop
   vertex 0.0474267 -0.031259 1
   vertex 0.0484522 -0.031584 1
   vertex 0.0483248 -0.0311217 1
  endloop
 endfacet
 facet normal 0 -0 1
  outer loop
   vertex 0.0474267 -0.031259 1
   vertex 0.0483248 -0.0311217 1
   vertex 0.0472846 -0.0308135 1
  endloop
 endfacet
 facet normal -0 0 1
  outer loop
   vertex 0.0472846 -0.0308135 1
   vertex 0.0483248 -0.0311217 1
   vertex 0.048183 -0.0306635 1
  endloop
 endfacet
 facet normal 0 -0 1
  outer loop
   vertex 0.0472846 -0.0308135 1
   vertex 0.048183 -0.0306635 1
   vertex 0.0471281 -0.0303728 1
  endloop
 endfacet
 facet normal -0 0 1
  outer loop
   vertex 0.0471281 -0.0303728 1
   vertex 0.048183 -0.0306635 1
   vertex 0.0480271 -0.0302099 1
  endloop
 endfacet
 facet normal 0 -0 1
  outer loop
   vertex 0.0471281 -0.0303728 1
   vertex 0.0480271 -0.0302099 1
   vertex 0.0469577 -0.0299374 1
  endloop
 endfacet
 facet normal -0 0 1
  outer loop
   vertex 0.0469577 -0.0299374 1
   vertex 0.0480271 -0.0302099 1
   vertex 0.0478571 -0.0297614 1
  endloop
 endfacet
 facet normal 0 -0 1
  outer loop
   vertex 0.0469577 -0.0299374 1
   vertex 0.0478571 -0.0297614 1
   vertex 0.0467733 -0.0295076 1
  endloop
 endfacet
 facet normal -0 0 1
  outer loop
   vertex 0.0467733 -0.0295076 1
   vertex 0.0478571 -0.0297614 1
   vertex 0.0476734 -0.0293184 1
  endloop
 endfacet
 facet normal 0 -0 1
  outer loop
   vertex 0.0467733 -0.0295076 1
   vertex 0.0476734 -0.0293184 1
   vertex 0.0465752 -0.029084 1
  endloop
 endfacet
 facet normal -0 0 1
  outer loop
   vertex 0.0465752 -0.029084 1
   vertex 0.0476734 -0.0293184 1
   vertex 0.0474759 -0.0288813 1
  endloop
 endfacet
 facet normal 0 -0 1
  outer loop
   vertex 0.0465752 -0.029084 1
   vertex 0.0474759 -0.0288813 1
   vertex 0.0463636 -0.028667 1
  endloop
 endfacet
 facet normal 0 0 1
  outer loop
   vertex 0.0474759 -0.0288813 1
   vertex 0.0472651 -0.0284505 1
   vertex 0.0463636 -0.028667 1
  endloop
 endfacet
 facet normal 0 0 1
  outer loop
   vertex 0.0463636 -0.028667 1
   vertex 0.0472651 -0.0284505 1
   vertex 0.0470409 -0.0280265 1
  endloop
 endfacet
 facet normal 0 -0 1
  outer loop
   vertex 0.0463636 -0.028667 1
   vertex 0.0470409 -0.0280265 1
   vertex 0.0461387 -0.028257 1
  endloop
 endfacet
 facet normal 0 0 1
  outer loop
   vertex 0.0461387 -0.028257 1
   vertex 0.0470409 -0.0280265 1
   vertex 0.0468037 -0.0276096 1
  endloop
 endfacet
 facet normal 0 -0 1
  outer loop
   vertex 0.0461387 -0.028257 1
   vertex 0.0468037 -0.0276096 1
   vertex 0.0459008 -0.0278545 1
  endloop
 endfacet
 facet normal 0 0 1
  outer loop
   vertex 0.0459008 -0.0278545 1
   vertex 0.0468037 -0.0276096 1
   vertex 0.0465536 -0.0272003 1
  endloop
 endfacet
 facet normal 0 -0 1
  outer loop
   vertex 0.0459008 -0.0278545 1
   vertex 0.0465536 -0.0272003 1
   vertex 0.04565 -0.0274598 1
  endloop
 endfacet
 facet normal 0 0 1
  outer loop
   vertex 0.04565 -0.0274598 1
   vertex 0.0465536 -0.0272003 1
   vertex 0.046291 -0.026799 1
  endloop
 endfacet
 facet normal 0 -0 1
  outer loop
   vertex 0.04565 -0.0274598 1
   vertex 0.046291 -0.026799 1
   vertex 0.0453867 -0.0270733 1
  endloop
 endfacet
 facet normal 0 0 1
  outer loop
   vertex 0.0453867 -0.0270733 1
   vertex 0.046291 -0.026799 1
   vertex 0.0460161 -0.026406 1
  endloop
 endfacet
 facet normal 0 -0 1
  outer loop
   vertex 0.0453867 -0.0270733 1
   vertex 0.0460161 -0.026406 1
   vertex 0.0451111 -0.0266955 1
  endloop
 endfacet
 facet normal 0 0 1
  outer loop
   vertex 0.0451111 -0.0266955 1
   vertex 0.0460161 -0.026406 1
   vertex 0.045729 -0.0260217 1
  endloop
 endfacet
 facet normal 0 -0 1
  outer loop
   vertex 0.0451111 -0.0266955 1
   vertex 0.045729 -0.0260217 1
   vertex 0.0448235 -0.0263268 1
  endloop
 endfacet
 facet normal 0 0 1
  outer loop
   vertex 0.0448235 -0.0263268 1
   vertex 0.045729 -0.0260217 1
   vertex 0.0454302 -0.0256466 1
  endloop
 endfacet
 facet normal 0 -0 1
  outer loop
   vertex 0.0448235 -0.0263268 1
   vertex 0.0454302 -0.0256466 1
   vertex 0.0445242 -0.0259675 1
  endloop
 endfacet
 facet normal 0 0 1
  outer loop
   vertex 0.0445242 -0.0259675 1
   vertex 0.0454302 -0.0256466 1
   vertex 0.0451199 -0.0252808 1
  endloop
 endfacet
 facet normal 0 -0 1
  outer loop
   vertex 0.0445242 -0.0259675 1
   vertex 0.0451199 -0.0252808 1
   vertex 0.0442135 -0.025618 1
  endloop
 endfacet
 facet normal 0 0 1
  outer loop
   vertex 0.0442135 -0.025618 1
   vertex 0.0451199 -0.0252808 1
   vertex 0.0447984 -0.0249249 1
  endloop
 endfacet
 facet normal 0 -0 1
  outer loop
   vertex 0.0442135 -0.025618 1
   vertex 0.0447984 -0.0249249 1
   vertex 0.0438918 -0.0252786 1
  endloop
 endfacet
 facet normal 0 0 1
  outer loop
   vertex 0.0438918 -0.0252786 1
   vertex 0.0447984 -0.0249249 1
   vertex 0.0444661 -0.0245792 1
  endloop
 endfacet
 facet normal 0 -0 1
  outer loop
   vertex 0.0438918 -0.0252786 1
   vertex 0.0444661 -0.0245792 1
   vertex 0.0435593 -0.0249498 1
  endloop
 endfacet
 facet normal 0 0 1
  outer loop
   vertex 0.0435593 -0.0249498 1
   vertex 0.0444661 -0.0245792 1
   vertex 0.0441231 -0.0242439 1
  endloop
 endfacet
 facet normal 0 -0 1
  outer loop
   vertex 0.0435593 -0.0249498 1
   vertex 0.0441231 -0.0242439 1
   vertex 0.0432164 -0.0246318 1
  endloop
 endfacet
 facet normal 0 0 1
  outer loop
   vertex 0.0432164 -0.0246318 1
   vertex 0.0441231 -0.0242439 1
   vertex 0.0437699 -0.0239194 1
  endloop
 endfacet
 facet normal 0 -0 1
  outer loop
   vertex 0.0432164 -0.0246318 1
   vertex 0.0437699 -0.0239194 1
   vertex 0.0428635 -0.024325 1
  endloop
 endfacet
 facet normal 0 0 1
  outer loop
   vertex 0.0428635 -0.024325 1
   vertex 0.0437699 -0.0239194 1
   vertex 0.0434068 -0.023606 1
  endloop
 endfacet
 facet normal 0 -0 1
  outer loop
   vertex 0.0428635 -0.024325 1
   vertex 0.0434068 -0.023606 1
   vertex 0.0425009 -0.0240297 1
  endloop
 endfacet
 facet normal 0 0 1
  outer loop
   vertex 0.0425009 -0.0240297 1
   vertex 0.0434068 -0.023606 1
   vertex 0.0430341 -0.0233041 1
  endloop
 endfacet
 facet normal 0 -0 1
  outer loop
   vertex 0.0425009 -0.0240297 1
   vertex 0.0430341 -0.0233041 1
   vertex 0.042129 -0.0237462 1
  endloop
 endfacet
 facet normal 0 0 1
  outer loop
   vertex 0.042129 -0.0237462 1
   vertex 0.0430341 -0.0233041 1
   vertex 0.0426523 -0.0230139 1
  endloop
 endfacet
 facet normal 0 -0 1
  outer loop
   vertex 0.042129 -0.0237462 1
   vertex 0.0426523 -0.0230139 1
   vertex 0.0417482 -0.0234748 1
  endloop
 endfacet
 facet normal 0 0 1
  outer loop
   vertex 0.0417482 -0.0234748 1
   vertex 0.0426523 -0.0230139 1
   vertex 0.0422616 -0.0227356 1
  endloop
 endfacet
 facet normal 0 -0 1
  outer loop
   vertex 0.0417482 -0.0234748 1
   vertex 0.0422616 -0.0227356 1
   vertex 0.0413588 -0.0232158 1
  endloop
 endfacet
 facet normal 0 0 1
  outer loop
   vertex 0.0413588 -0.0232158 1
   vertex 0.0422616 -0.0227356 1
   vertex 0.0418625 -0.0224697 1
  endloop
 endfacet
 facet normal 0 -0 1
  outer loop
   vertex 0.0413588 -0.0232158 1
   vertex 0.0418625 -0.0224697 1
   vertex 0.0409614 -0.0229694 1
  endloop
 endfacet
 facet normal 0 0 1
  outer loop
   vertex 0.0409614 -0.0229694 1
   vertex 0.0418625 -0.0224697 1
   vertex 0.0414553 -0.0222162 1
  endloop
 endfacet
 facet normal 0 -0 1
  outer loop
   vertex 0.0409614 -0.0229694 1
   vertex 0.0414553 -0.0222162 1
   vertex 0.0405562 -0.0227359 1
  endloop
 endfacet
 facet normal 0 0 1
  outer loop
   vertex 0.0405562 -0.0227359 1
   vertex 0.0414553 -0.0222162 1
   vertex 0.0410405 -0.0219755 1
  endloop
 endfacet
 facet normal 0 -0 1
  outer loop
   vertex 0.0405562 -0.0227359 1
   vertex 0.0410405 -0.0219755 1
   vertex 0.0401437 -0.0225156 1
  endloop
 endfacet
 facet normal 0 0 1
  outer loop
   vertex 0.0401437 -0.0225156 1
   vertex 0.0410405 -0.0219755 1
   vertex 0.0406183 -0.0217478 1
  endloop
 endfacet
 facet normal 0 -0 1
  outer loop
   vertex 0.0401437 -0.0225156 1
   vertex 0.0406183 -0.0217478 1
   vertex 0.0397244 -0.0223086 1
  endloop
 endfacet
 facet normal 0 0 1
  outer loop
   vertex 0.0397244 -0.0223086 1
   vertex 0.0406183 -0.0217478 1
   vertex 0.0401894 -0.0215332 1
  endloop
 endfacet
 facet normal 0 -0 1
  outer loop
   vertex 0.0397244 -0.0223086 1
   vertex 0.0401894 -0.0215332 1
   vertex 0.0392987 -0.0221152 1
  endloop
 endfacet
 facet normal 0 0 1
  outer loop
   vertex 0.0392987 -0.0221152 1
   vertex 0.0401894 -0.0215332 1
   vertex 0.0397539 -0.0213322 1
  endloop
 endfacet
 facet normal 0 -0 1
  outer loop
   vertex 0.0392987 -0.0221152 1
   vertex 0.0397539 -0.0213322 1
   vertex 0.0388669 -0.0219356 1
  endloop
 endfacet
 facet normal 0 0 1
  outer loop
   vertex 0.0388669 -0.0219356 1
   vertex 0.0397539 -0.0213322 1
   vertex 0.0393125 -0.0211447 1
  endloop
 endfacet
 facet normal 0 -0 1
  outer loop
   vertex 0.0388669 -0.0219356 1
   vertex 0.0393125 -0.0211447 1
   vertex 0.0384296 -0.0217699 1
  endloop
 endfacet
 facet normal 0 0 1
  outer loop
   vertex 0.0384296 -0.0217699 1
   vertex 0.0393125 -0.0211447 1
   vertex 0.0388654 -0.020971 1
  endloop
 endfacet
 facet normal 0 -0 1
  outer loop
   vertex 0.0384296 -0.0217699 1
   vertex 0.0388654 -0.020971 1
   vertex 0.0379872 -0.0216184 1
  endloop
 endfacet
 facet normal 0 0 1
  outer loop
   vertex 0.0379872 -0.0216184 1
   vertex 0.0388654 -0.020971 1
   vertex 0.0384131 -0.0208113 1
  endloop
 endfacet
 facet normal 0 -0 1
  outer loop
   vertex 0.0379872 -0.0216184 1
   vertex 0.0384131 -0.0208113 1
   vertex 0.0375402 -0.0214812 1
  endloop
 endfacet
 facet normal 0 0 1
  outer loop
   vertex 0.0375402 -0.0214812 1
   vertex 0.0384131 -0.0208113 1
   vertex 0.0379561 -0.0206657 1
  endloop
 endfacet
 facet normal 0 -0 1
  outer loop
   vertex 0.0375402 -0.0214812 1
   vertex 0.0379561 -0.0206657 1
   vertex 0.0370889 -0.0213584 1
  endloop
 endfacet
 facet normal 0 0 1
  outer loop
   vertex 0.0370889 -0.0213584 1
   vertex 0.0379561 -0.0206657 1
   vertex 0.0374949 -0.0205343 1
  endloop
 endfacet
 facet normal 0 -0 1
  outer loop
   vertex 0.0370889 -0.0213584 1
   vertex 0.0374949 -0.0205343 1
   vertex 0.036634 -0.0212502 1
  endloop
 endfacet
 facet normal 0 0 1
  outer loop
   vertex 0.036634 -0.0212502 1
   vertex 0.0374949 -0.0205343 1
   vertex 0.0370297 -0.0204173 1
  endloop
 endfacet
 facet normal 0 -0 1
  outer loop
   vertex 0.036634 -0.0212502 1
   vertex 0.0370297 -0.0204173 1
   vertex 0.0361758 -0.0211566 1
  endloop
 endfacet
 facet normal 0 0 1
  outer loop
   vertex 0.0361758 -0.0211566 1
   vertex 0.0370297 -0.0204173 1
   vertex 0.0365612 -0.0203148 1
  endloop
 endfacet
 facet normal 0 -0 1
  outer loop
   vertex 0.0361758 -0.0211566 1
   vertex 0.0365612 -0.0203148 1
   vertex 0.0360897 -0.0202269 1
  endloop
 endfacet
 facet normal 0.587792 -0.809012 0
  outer loop
   vertex 0.0488369 -0.0372936 1
   vertex 0.0481633 -0.037783 1
   vertex 0.0488369 -0.0372936 -1
  endloop
 endfacet
 facet normal 0.587792 -0.809012 0
  outer loop
   vertex 0.0488369 -0.0372936 -1
   vertex 0.0481633 -0.037783 1
   vertex 0.0481633 -0.037783 -1
  endloop
 endfacet
 facet normal -0.694673 -0.719325 -0
  outer loop
   vertex 0.033853 -0.0209118 1
   vertex 0.0332295 -0.0203097 1
   vertex 0.033853 -0.0209118 -1
  endloop
 endfacet
 facet normal -0.694673 -0.719325 0
  outer loop
   vertex 0.033853 -0.0209118 -1
   vertex 0.0332295 -0.0203097 1
   vertex 0.0332295 -0.0203097 -1
  endloop
 endfacet
endsolid tunner_vane
