solid tunner_vane
 facet normal 0.0957808 0.995402 -0
  outer loop
   vertex 1.16524 -0.337124 -1
   vertex 1.16524 -0.337124 1
   vertex 1.17485 -0.338048 1
  endloop
 endfacet
 facet normal 0.0957808 0.995402 0
  outer loop
   vertex 1.16524 -0.337124 -1
   vertex 1.17485 -0.338048 1
   vertex 1.17485 -0.338048 -1
  endloop
 endfacet
 facet normal 0.186801 0.982398 -0
  outer loop
   vertex 1.17485 -0.338048 -1
   vertex 1.17485 -0.338048 1
   vertex 1.18433 -0.339851 1
  endloop
 endfacet
 facet normal 0.186801 0.982398 0
  outer loop
   vertex 1.17485 -0.338048 -1
   vertex 1.18433 -0.339851 1
   vertex 1.18433 -0.339851 -1
  endloop
 endfacet
 facet normal 0.276303 0.96107 -0
  outer loop
   vertex 1.18433 -0.339851 -1
   vertex 1.18433 -0.339851 1
   vertex 1.1936 -0.342516 1
  endloop
 endfacet
 facet normal 0.276303 0.96107 0
  outer loop
   vertex 1.18433 -0.339851 -1
   vertex 1.1936 -0.342516 1
   vertex 1.1936 -0.342516 -1
  endloop
 endfacet
 facet normal 0.363267 0.931685 -0
  outer loop
   vertex 1.1936 -0.342516 -1
   vertex 1.1936 -0.342516 1
   vertex 1.20259 -0.346021 1
  endloop
 endfacet
 facet normal 0.363267 0.931685 0
  outer loop
   vertex 1.1936 -0.342516 -1
   vertex 1.20259 -0.346021 1
   vertex 1.20259 -0.346021 -1
  endloop
 endfacet
 facet normal 0.44727 0.894399 -0
  outer loop
   vertex 1.20259 -0.346021 -1
   vertex 1.20259 -0.346021 1
   vertex 1.21122 -0.350337 1
  endloop
 endfacet
 facet normal 0.44727 0.894399 0
  outer loop
   vertex 1.20259 -0.346021 -1
   vertex 1.21122 -0.350337 1
   vertex 1.21122 -0.350337 -1
  endloop
 endfacet
 facet normal 0.527385 0.849627 -0
  outer loop
   vertex 1.21122 -0.350337 -1
   vertex 1.21122 -0.350337 1
   vertex 1.21942 -0.355427 1
  endloop
 endfacet
 facet normal 0.527385 0.849627 0
  outer loop
   vertex 1.21122 -0.350337 -1
   vertex 1.21942 -0.355427 1
   vertex 1.21942 -0.355427 -1
  endloop
 endfacet
 facet normal 0.603028 0.79772 -0
  outer loop
   vertex 1.21942 -0.355427 -1
   vertex 1.21942 -0.355427 1
   vertex 1.22712 -0.361248 1
  endloop
 endfacet
 facet normal 0.603028 0.79772 0
  outer loop
   vertex 1.21942 -0.355427 -1
   vertex 1.22712 -0.361248 1
   vertex 1.22712 -0.361248 -1
  endloop
 endfacet
 facet normal 0.673873 0.738847 -0
  outer loop
   vertex 1.22712 -0.361248 -1
   vertex 1.22712 -0.361248 1
   vertex 1.23425 -0.367751 1
  endloop
 endfacet
 facet normal 0.673873 0.738847 0
  outer loop
   vertex 1.22712 -0.361248 -1
   vertex 1.23425 -0.367751 1
   vertex 1.23425 -0.367751 -1
  endloop
 endfacet
 facet normal 0.738992 0.673715 -0
  outer loop
   vertex 1.23425 -0.367751 -1
   vertex 1.23425 -0.367751 1
   vertex 1.24075 -0.37488 1
  endloop
 endfacet
 facet normal 0.738992 0.673715 0
  outer loop
   vertex 1.23425 -0.367751 -1
   vertex 1.24075 -0.37488 1
   vertex 1.24075 -0.37488 -1
  endloop
 endfacet
 facet normal 0.797626 0.603152 -0
  outer loop
   vertex 1.24075 -0.37488 -1
   vertex 1.24075 -0.37488 1
   vertex 1.24657 -0.382577 1
  endloop
 endfacet
 facet normal 0.797626 0.603152 0
  outer loop
   vertex 1.24075 -0.37488 -1
   vertex 1.24657 -0.382577 1
   vertex 1.24657 -0.382577 -1
  endloop
 endfacet
 facet normal 0.84958 0.527459 -0
  outer loop
   vertex 1.24657 -0.382577 -1
   vertex 1.24657 -0.382577 1
   vertex 1.25166 -0.390776 1
  endloop
 endfacet
 facet normal 0.84958 0.527459 0
  outer loop
   vertex 1.24657 -0.382577 -1
   vertex 1.25166 -0.390776 1
   vertex 1.25166 -0.390776 -1
  endloop
 endfacet
 facet normal 0.89424 0.447588 -0
  outer loop
   vertex 1.25166 -0.390776 -1
   vertex 1.25166 -0.390776 1
   vertex 1.25598 -0.399407 1
  endloop
 endfacet
 facet normal 0.89424 0.447588 0
  outer loop
   vertex 1.25166 -0.390776 -1
   vertex 1.25598 -0.399407 1
   vertex 1.25598 -0.399407 -1
  endloop
 endfacet
 facet normal 0.931881 0.362763 -0
  outer loop
   vertex 1.25598 -0.399407 -1
   vertex 1.25598 -0.399407 1
   vertex 1.25948 -0.408398 1
  endloop
 endfacet
 facet normal 0.931881 0.362763 0
  outer loop
   vertex 1.25598 -0.399407 -1
   vertex 1.25948 -0.408398 1
   vertex 1.25948 -0.408398 -1
  endloop
 endfacet
 facet normal 0.960969 0.276655 -0
  outer loop
   vertex 1.25948 -0.408398 -1
   vertex 1.25948 -0.408398 1
   vertex 1.26215 -0.417672 1
  endloop
 endfacet
 facet normal 0.960969 0.276655 0
  outer loop
   vertex 1.25948 -0.408398 -1
   vertex 1.26215 -0.417672 1
   vertex 1.26215 -0.417672 -1
  endloop
 endfacet
 facet normal 0.982449 0.186533 -0
  outer loop
   vertex 1.26215 -0.417672 -1
   vertex 1.26215 -0.417672 1
   vertex 1.26395 -0.427152 1
  endloop
 endfacet
 facet normal 0.982449 0.186533 0
  outer loop
   vertex 1.26215 -0.417672 -1
   vertex 1.26395 -0.427152 1
   vertex 1.26395 -0.427152 -1
  endloop
 endfacet
 facet normal 0.995346 0.0963649 -0
  outer loop
   vertex 1.26395 -0.427152 -1
   vertex 1.26395 -0.427152 1
   vertex 1.26488 -0.436758 1
  endloop
 endfacet
 facet normal 0.995346 0.0963649 0
  outer loop
   vertex 1.26395 -0.427152 -1
   vertex 1.26488 -0.436758 1
   vertex 1.26488 -0.436758 -1
  endloop
 endfacet
 facet normal -0.995109 -0.0987847 0
  outer loop
   vertex 1.25489 -0.437258 -1
   vertex 1.25489 -0.437258 1
   vertex 1.25397 -0.42799 -1
  endloop
 endfacet
 facet normal -0.995109 -0.0987847 0
  outer loop
   vertex 1.25397 -0.42799 -1
   vertex 1.25489 -0.437258 1
   vertex 1.25397 -0.42799 1
  endloop
 endfacet
 facet normal -0.980508 -0.19648 0
  outer loop
   vertex 1.25397 -0.42799 -1
   vertex 1.25397 -0.42799 1
   vertex 1.25214 -0.418858 -1
  endloop
 endfacet
 facet normal -0.980508 -0.19648 0
  outer loop
   vertex 1.25214 -0.418858 -1
   vertex 1.25397 -0.42799 1
   vertex 1.25214 -0.418858 1
  endloop
 endfacet
 facet normal -0.957021 -0.290019 0
  outer loop
   vertex 1.25214 -0.418858 -1
   vertex 1.25214 -0.418858 1
   vertex 1.24944 -0.409948 -1
  endloop
 endfacet
 facet normal -0.957021 -0.290019 0
  outer loop
   vertex 1.24944 -0.409948 -1
   vertex 1.25214 -0.418858 1
   vertex 1.24944 -0.409948 1
  endloop
 endfacet
 facet normal -0.923618 -0.383313 0
  outer loop
   vertex 1.24944 -0.409948 -1
   vertex 1.24944 -0.409948 1
   vertex 1.24587 -0.401346 -1
  endloop
 endfacet
 facet normal -0.923618 -0.383313 0
  outer loop
   vertex 1.24587 -0.401346 -1
   vertex 1.24944 -0.409948 1
   vertex 1.24587 -0.401346 1
  endloop
 endfacet
 facet normal -0.881433 -0.472309 0
  outer loop
   vertex 1.24587 -0.401346 -1
   vertex 1.24587 -0.401346 1
   vertex 1.24147 -0.393135 -1
  endloop
 endfacet
 facet normal -0.881433 -0.472309 0
  outer loop
   vertex 1.24147 -0.393135 -1
   vertex 1.24587 -0.401346 1
   vertex 1.24147 -0.393135 1
  endloop
 endfacet
 facet normal -0.831615 -0.555352 0
  outer loop
   vertex 1.24147 -0.393135 -1
   vertex 1.24147 -0.393135 1
   vertex 1.2363 -0.385393 -1
  endloop
 endfacet
 facet normal -0.831615 -0.555352 0
  outer loop
   vertex 1.2363 -0.385393 -1
   vertex 1.24147 -0.393135 1
   vertex 1.2363 -0.385393 1
  endloop
 endfacet
 facet normal -0.772868 -0.634567 0
  outer loop
   vertex 1.2363 -0.385393 -1
   vertex 1.2363 -0.385393 1
   vertex 1.23039 -0.378195 -1
  endloop
 endfacet
 facet normal -0.772868 -0.634567 0
  outer loop
   vertex 1.23039 -0.378195 -1
   vertex 1.2363 -0.385393 1
   vertex 1.23039 -0.378195 1
  endloop
 endfacet
 facet normal -0.707376 -0.706838 0
  outer loop
   vertex 1.23039 -0.378195 -1
   vertex 1.23039 -0.378195 1
   vertex 1.22381 -0.37161 -1
  endloop
 endfacet
 facet normal -0.707376 -0.706838 0
  outer loop
   vertex 1.22381 -0.37161 -1
   vertex 1.23039 -0.378195 1
   vertex 1.22381 -0.37161 1
  endloop
 endfacet
 facet normal -0.634381 -0.77302 0
  outer loop
   vertex 1.22381 -0.37161 -1
   vertex 1.22381 -0.37161 1
   vertex 1.21661 -0.365701 -1
  endloop
 endfacet
 facet normal -0.634381 -0.77302 0
  outer loop
   vertex 1.21661 -0.365701 -1
   vertex 1.22381 -0.37161 1
   vertex 1.21661 -0.365701 1
  endloop
 endfacet
 facet normal -0.555872 -0.831268 0
  outer loop
   vertex 1.21661 -0.365701 -1
   vertex 1.21661 -0.365701 1
   vertex 1.20887 -0.360525 -1
  endloop
 endfacet
 facet normal -0.555872 -0.831268 0
  outer loop
   vertex 1.20887 -0.360525 -1
   vertex 1.21661 -0.365701 1
   vertex 1.20887 -0.360525 1
  endloop
 endfacet
 facet normal -0.471345 -0.881949 0
  outer loop
   vertex 1.20887 -0.360525 -1
   vertex 1.20887 -0.360525 1
   vertex 1.20065 -0.356132 -1
  endloop
 endfacet
 facet normal -0.471345 -0.881949 0
  outer loop
   vertex 1.20065 -0.356132 -1
   vertex 1.20887 -0.360525 1
   vertex 1.20065 -0.356132 1
  endloop
 endfacet
 facet normal -0.383212 -0.923661 0
  outer loop
   vertex 1.20065 -0.356132 -1
   vertex 1.20065 -0.356132 1
   vertex 1.19205 -0.352564 -1
  endloop
 endfacet
 facet normal -0.383212 -0.923661 0
  outer loop
   vertex 1.19205 -0.352564 -1
   vertex 1.20065 -0.356132 1
   vertex 1.19205 -0.352564 1
  endloop
 endfacet
 facet normal -0.290875 -0.956761 0
  outer loop
   vertex 1.19205 -0.352564 -1
   vertex 1.19205 -0.352564 1
   vertex 1.18314 -0.349856 -1
  endloop
 endfacet
 facet normal -0.290875 -0.956761 0
  outer loop
   vertex 1.18314 -0.349856 -1
   vertex 1.19205 -0.352564 1
   vertex 1.18314 -0.349856 1
  endloop
 endfacet
 facet normal -0.195868 -0.98063 0
  outer loop
   vertex 1.18314 -0.349856 -1
   vertex 1.18314 -0.349856 1
   vertex 1.17401 -0.348032 -1
  endloop
 endfacet
 facet normal -0.195868 -0.98063 0
  outer loop
   vertex 1.17401 -0.348032 -1
   vertex 1.18314 -0.349856 1
   vertex 1.17401 -0.348032 1
  endloop
 endfacet
 facet normal -0.0988335 -0.995104 0
  outer loop
   vertex 1.17401 -0.348032 -1
   vertex 1.17401 -0.348032 1
   vertex 1.16474 -0.347111 -1
  endloop
 endfacet
 facet normal -0.0988335 -0.995104 0
  outer loop
   vertex 1.16474 -0.347111 -1
   vertex 1.17401 -0.348032 1
   vertex 1.16474 -0.347111 1
  endloop
 endfacet
 facet normal 0 0 -1
  outer loop
   vertex 1.22381 -0.37161 -1
   vertex 1.23425 -0.367751 -1
   vertex 1.23039 -0.378195 -1
  endloop
 endfacet
 facet normal 0 0 -1
  outer loop
   vertex 1.23039 -0.378195 -1
   vertex 1.23425 -0.367751 -1
   vertex 1.24075 -0.37488 -1
  endloop
 endfacet
 facet normal 0 0 -1
  outer loop
   vertex 1.23039 -0.378195 -1
   vertex 1.24075 -0.37488 -1
   vertex 1.2363 -0.385393 -1
  endloop
 endfacet
 facet normal 0 0 -1
  outer loop
   vertex 1.2363 -0.385393 -1
   vertex 1.24075 -0.37488 -1
   vertex 1.24657 -0.382577 -1
  endloop
 endfacet
 facet normal 0 0 -1
  outer loop
   vertex 1.2363 -0.385393 -1
   vertex 1.24657 -0.382577 -1
   vertex 1.24147 -0.393135 -1
  endloop
 endfacet
 facet normal 0 0 -1
  outer loop
   vertex 1.24147 -0.393135 -1
   vertex 1.24657 -0.382577 -1
   vertex 1.25166 -0.390776 -1
  endloop
 endfacet
 facet normal 0 0 -1
  outer loop
   vertex 1.24147 -0.393135 -1
   vertex 1.25166 -0.390776 -1
   vertex 1.24587 -0.401346 -1
  endloop
 endfacet
 facet normal 0 0 -1
  outer loop
   vertex 1.24587 -0.401346 -1
   vertex 1.25166 -0.390776 -1
   vertex 1.25598 -0.399407 -1
  endloop
 endfacet
 facet normal 0 0 -1
  outer loop
   vertex 1.24587 -0.401346 -1
   vertex 1.25598 -0.399407 -1
   vertex 1.24944 -0.409948 -1
  endloop
 endfacet
 facet normal 0 0 -1
  outer loop
   vertex 1.24944 -0.409948 -1
   vertex 1.25598 -0.399407 -1
   vertex 1.25948 -0.408398 -1
  endloop
 endfacet
 facet normal 0 0 -1
  outer loop
   vertex 1.24944 -0.409948 -1
   vertex 1.25948 -0.408398 -1
   vertex 1.25214 -0.418858 -1
  endloop
 endfacet
 facet normal 0 0 -1
  outer loop
   vertex 1.25214 -0.418858 -1
   vertex 1.25948 -0.408398 -1
   vertex 1.26215 -0.417672 -1
  endloop
 endfacet
 facet normal 0 0 -1
  outer loop
   vertex 1.25214 -0.418858 -1
   vertex 1.26215 -0.417672 -1
   vertex 1.25397 -0.42799 -1
  endloop
 endfacet
 facet normal 0 0 -1
  outer loop
   vertex 1.25397 -0.42799 -1
   vertex 1.26215 -0.417672 -1
   vertex 1.26395 -0.427152 -1
  endloop
 endfacet
 facet normal 0 0 -1
  outer loop
   vertex 1.25397 -0.42799 -1
   vertex 1.26395 -0.427152 -1
   vertex 1.25489 -0.437258 -1
  endloop
 endfacet
 facet normal 0 0 -1
  outer loop
   vertex 1.25489 -0.437258 -1
   vertex 1.26395 -0.427152 -1
   vertex 1.26488 -0.436758 -1
  endloop
 endfacet
 facet normal 0 0 -1
  outer loop
   vertex 1.25489 -0.437258 -1
   vertex 1.26488 -0.436758 -1
   vertex 1.26485 -0.437567 -1
  endloop
 endfacet
 facet normal 0 0 -1
  outer loop
   vertex 1.16288 -0.337586 -1
   vertex 1.16364 -0.337304 -1
   vertex 1.16474 -0.347111 -1
  endloop
 endfacet
 facet normal -0 0 -1
  outer loop
   vertex 1.26485 -0.437567 -1
   vertex 1.2647 -0.438361 -1
   vertex 1.25489 -0.437258 -1
  endloop
 endfacet
 facet normal 0 0 -1
  outer loop
   vertex 1.25489 -0.437258 -1
   vertex 1.2647 -0.438361 -1
   vertex 1.26441 -0.43912 -1
  endloop
 endfacet
 facet normal 0 0 -1
  outer loop
   vertex 1.25489 -0.437258 -1
   vertex 1.26441 -0.43912 -1
   vertex 1.26401 -0.439824 -1
  endloop
 endfacet
 facet normal 0 0 -1
  outer loop
   vertex 1.16364 -0.337304 -1
   vertex 1.16443 -0.337149 -1
   vertex 1.16474 -0.347111 -1
  endloop
 endfacet
 facet normal 0 0 -1
  outer loop
   vertex 1.16474 -0.347111 -1
   vertex 1.16443 -0.337149 -1
   vertex 1.16524 -0.337124 -1
  endloop
 endfacet
 facet normal 0 0 -1
  outer loop
   vertex 1.16474 -0.347111 -1
   vertex 1.16524 -0.337124 -1
   vertex 1.17401 -0.348032 -1
  endloop
 endfacet
 facet normal 0 0 -1
  outer loop
   vertex 1.17401 -0.348032 -1
   vertex 1.16524 -0.337124 -1
   vertex 1.17485 -0.338048 -1
  endloop
 endfacet
 facet normal 0 0 -1
  outer loop
   vertex 1.17401 -0.348032 -1
   vertex 1.17485 -0.338048 -1
   vertex 1.18314 -0.349856 -1
  endloop
 endfacet
 facet normal 0 0 -1
  outer loop
   vertex 1.18314 -0.349856 -1
   vertex 1.17485 -0.338048 -1
   vertex 1.18433 -0.339851 -1
  endloop
 endfacet
 facet normal 0 0 -1
  outer loop
   vertex 1.18314 -0.349856 -1
   vertex 1.18433 -0.339851 -1
   vertex 1.19205 -0.352564 -1
  endloop
 endfacet
 facet normal 0 0 -1
  outer loop
   vertex 1.19205 -0.352564 -1
   vertex 1.18433 -0.339851 -1
   vertex 1.1936 -0.342516 -1
  endloop
 endfacet
 facet normal 0 0 -1
  outer loop
   vertex 1.19205 -0.352564 -1
   vertex 1.1936 -0.342516 -1
   vertex 1.20065 -0.356132 -1
  endloop
 endfacet
 facet normal 0 0 -1
  outer loop
   vertex 1.20065 -0.356132 -1
   vertex 1.1936 -0.342516 -1
   vertex 1.20259 -0.346021 -1
  endloop
 endfacet
 facet normal 0 0 -1
  outer loop
   vertex 1.20065 -0.356132 -1
   vertex 1.20259 -0.346021 -1
   vertex 1.20887 -0.360525 -1
  endloop
 endfacet
 facet normal 0 0 -1
  outer loop
   vertex 1.20887 -0.360525 -1
   vertex 1.20259 -0.346021 -1
   vertex 1.21122 -0.350337 -1
  endloop
 endfacet
 facet normal 0 0 -1
  outer loop
   vertex 1.20887 -0.360525 -1
   vertex 1.21122 -0.350337 -1
   vertex 1.21661 -0.365701 -1
  endloop
 endfacet
 facet normal 0 0 -1
  outer loop
   vertex 1.21661 -0.365701 -1
   vertex 1.21122 -0.350337 -1
   vertex 1.21942 -0.355427 -1
  endloop
 endfacet
 facet normal 0 0 -1
  outer loop
   vertex 1.21661 -0.365701 -1
   vertex 1.21942 -0.355427 -1
   vertex 1.22381 -0.37161 -1
  endloop
 endfacet
 facet normal 0 0 -1
  outer loop
   vertex 1.22381 -0.37161 -1
   vertex 1.21942 -0.355427 -1
   vertex 1.22712 -0.361248 -1
  endloop
 endfacet
 facet normal 0 0 -1
  outer loop
   vertex 1.22381 -0.37161 -1
   vertex 1.22712 -0.361248 -1
   vertex 1.23425 -0.367751 -1
  endloop
 endfacet
 facet normal 0 0 -1
  outer loop
   vertex 1.25489 -0.437258 -1
   vertex 1.26222 -0.441428 -1
   vertex 1.26148 -0.441747 -1
  endloop
 endfacet
 facet normal -0 0 -1
  outer loop
   vertex 1.26148 -0.441747 -1
   vertex 1.26069 -0.441942 -1
   vertex 1.25489 -0.437258 -1
  endloop
 endfacet
 facet normal 0 0 -1
  outer loop
   vertex 1.25489 -0.437258 -1
   vertex 1.26069 -0.441942 -1
   vertex 1.25988 -0.442007 -1
  endloop
 endfacet
 facet normal 0 0 -1
  outer loop
   vertex 1.25489 -0.437258 -1
   vertex 1.25988 -0.442007 -1
   vertex 1.25904 -0.441936 -1
  endloop
 endfacet
 facet normal -0 0 -1
  outer loop
   vertex 1.26401 -0.439824 -1
   vertex 1.26351 -0.440454 -1
   vertex 1.25489 -0.437258 -1
  endloop
 endfacet
 facet normal 0 0 -1
  outer loop
   vertex 1.25489 -0.437258 -1
   vertex 1.26351 -0.440454 -1
   vertex 1.2629 -0.440993 -1
  endloop
 endfacet
 facet normal 0 0 -1
  outer loop
   vertex 1.25489 -0.437258 -1
   vertex 1.2629 -0.440993 -1
   vertex 1.26222 -0.441428 -1
  endloop
 endfacet
 facet normal 0 0 -1
  outer loop
   vertex 1.25675 -0.440908 -1
   vertex 1.25614 -0.440327 -1
   vertex 1.25746 -0.441379 -1
  endloop
 endfacet
 facet normal 0 0 -1
  outer loop
   vertex 1.25746 -0.441379 -1
   vertex 1.25614 -0.440327 -1
   vertex 1.25564 -0.439651 -1
  endloop
 endfacet
 facet normal 0 0 -1
  outer loop
   vertex 1.25746 -0.441379 -1
   vertex 1.25564 -0.439651 -1
   vertex 1.25525 -0.438899 -1
  endloop
 endfacet
 facet normal 0 0 -1
  outer loop
   vertex 1.25904 -0.441936 -1
   vertex 1.25822 -0.441725 -1
   vertex 1.25489 -0.437258 -1
  endloop
 endfacet
 facet normal 0 0 -1
  outer loop
   vertex 1.25489 -0.437258 -1
   vertex 1.25822 -0.441725 -1
   vertex 1.25746 -0.441379 -1
  endloop
 endfacet
 facet normal 0 0 -1
  outer loop
   vertex 1.25489 -0.437258 -1
   vertex 1.25746 -0.441379 -1
   vertex 1.255 -0.438094 -1
  endloop
 endfacet
 facet normal 0 0 -1
  outer loop
   vertex 1.255 -0.438094 -1
   vertex 1.25746 -0.441379 -1
   vertex 1.25525 -0.438899 -1
  endloop
 endfacet
 facet normal 0 0 -1
  outer loop
   vertex 1.16006 -0.341311 -1
   vertex 1.16025 -0.340525 -1
   vertex 1.16474 -0.347111 -1
  endloop
 endfacet
 facet normal 0 0 -1
  outer loop
   vertex 1.16474 -0.347111 -1
   vertex 1.16025 -0.340525 -1
   vertex 1.16057 -0.339781 -1
  endloop
 endfacet
 facet normal 0 0 -1
  outer loop
   vertex 1.16474 -0.347111 -1
   vertex 1.16057 -0.339781 -1
   vertex 1.16101 -0.339098 -1
  endloop
 endfacet
 facet normal 0 0 -1
  outer loop
   vertex 1.16101 -0.339098 -1
   vertex 1.16155 -0.338495 -1
   vertex 1.16474 -0.347111 -1
  endloop
 endfacet
 facet normal 0 0 -1
  outer loop
   vertex 1.16474 -0.347111 -1
   vertex 1.16155 -0.338495 -1
   vertex 1.16218 -0.337986 -1
  endloop
 endfacet
 facet normal 0 0 -1
  outer loop
   vertex 1.16474 -0.347111 -1
   vertex 1.16218 -0.337986 -1
   vertex 1.16288 -0.337586 -1
  endloop
 endfacet
 facet normal 0 -0 -1
  outer loop
   vertex 1.16006 -0.341311 -1
   vertex 1.16474 -0.347111 -1
   vertex 1.15999 -0.342117 -1
  endloop
 endfacet
 facet normal 0 0 -1
  outer loop
   vertex 1.15999 -0.342117 -1
   vertex 1.16474 -0.347111 -1
   vertex 1.16391 -0.346998 -1
  endloop
 endfacet
 facet normal 0 0 -1
  outer loop
   vertex 1.15999 -0.342117 -1
   vertex 1.16391 -0.346998 -1
   vertex 1.1631 -0.346746 -1
  endloop
 endfacet
 facet normal 0 0 -1
  outer loop
   vertex 1.16235 -0.346362 -1
   vertex 1.16167 -0.345857 -1
   vertex 1.1631 -0.346746 -1
  endloop
 endfacet
 facet normal 0 0 -1
  outer loop
   vertex 1.1631 -0.346746 -1
   vertex 1.16167 -0.345857 -1
   vertex 1.16109 -0.345245 -1
  endloop
 endfacet
 facet normal 0 0 -1
  outer loop
   vertex 1.1631 -0.346746 -1
   vertex 1.16109 -0.345245 -1
   vertex 1.16062 -0.344545 -1
  endloop
 endfacet
 facet normal 0 0 -1
  outer loop
   vertex 1.16062 -0.344545 -1
   vertex 1.16028 -0.343775 -1
   vertex 1.1631 -0.346746 -1
  endloop
 endfacet
 facet normal 0 0 -1
  outer loop
   vertex 1.1631 -0.346746 -1
   vertex 1.16028 -0.343775 -1
   vertex 1.16006 -0.342958 -1
  endloop
 endfacet
 facet normal 0 0 -1
  outer loop
   vertex 1.1631 -0.346746 -1
   vertex 1.16006 -0.342958 -1
   vertex 1.15999 -0.342117 -1
  endloop
 endfacet
 facet normal 0 0 1
  outer loop
   vertex 1.16443 -0.337149 1
   vertex 1.16364 -0.337304 1
   vertex 1.16474 -0.347111 1
  endloop
 endfacet
 facet normal 0 -0 1
  outer loop
   vertex 1.23039 -0.378195 1
   vertex 1.23425 -0.367751 1
   vertex 1.22381 -0.37161 1
  endloop
 endfacet
 facet normal 0 0 1
  outer loop
   vertex 1.22381 -0.37161 1
   vertex 1.23425 -0.367751 1
   vertex 1.22712 -0.361248 1
  endloop
 endfacet
 facet normal 0 -0 1
  outer loop
   vertex 1.22381 -0.37161 1
   vertex 1.22712 -0.361248 1
   vertex 1.21661 -0.365701 1
  endloop
 endfacet
 facet normal 0 0 1
  outer loop
   vertex 1.21661 -0.365701 1
   vertex 1.22712 -0.361248 1
   vertex 1.21942 -0.355427 1
  endloop
 endfacet
 facet normal 0 -0 1
  outer loop
   vertex 1.21661 -0.365701 1
   vertex 1.21942 -0.355427 1
   vertex 1.20887 -0.360525 1
  endloop
 endfacet
 facet normal 0 0 1
  outer loop
   vertex 1.20887 -0.360525 1
   vertex 1.21942 -0.355427 1
   vertex 1.21122 -0.350337 1
  endloop
 endfacet
 facet normal 0 -0 1
  outer loop
   vertex 1.20887 -0.360525 1
   vertex 1.21122 -0.350337 1
   vertex 1.20065 -0.356132 1
  endloop
 endfacet
 facet normal 0 0 1
  outer loop
   vertex 1.20065 -0.356132 1
   vertex 1.21122 -0.350337 1
   vertex 1.20259 -0.346021 1
  endloop
 endfacet
 facet normal 0 -0 1
  outer loop
   vertex 1.20065 -0.356132 1
   vertex 1.20259 -0.346021 1
   vertex 1.19205 -0.352564 1
  endloop
 endfacet
 facet normal 0 0 1
  outer loop
   vertex 1.19205 -0.352564 1
   vertex 1.20259 -0.346021 1
   vertex 1.1936 -0.342516 1
  endloop
 endfacet
 facet normal 0 -0 1
  outer loop
   vertex 1.19205 -0.352564 1
   vertex 1.1936 -0.342516 1
   vertex 1.18314 -0.349856 1
  endloop
 endfacet
 facet normal 0 0 1
  outer loop
   vertex 1.18314 -0.349856 1
   vertex 1.1936 -0.342516 1
   vertex 1.18433 -0.339851 1
  endloop
 endfacet
 facet normal 0 -0 1
  outer loop
   vertex 1.18314 -0.349856 1
   vertex 1.18433 -0.339851 1
   vertex 1.17401 -0.348032 1
  endloop
 endfacet
 facet normal 0 0 1
  outer loop
   vertex 1.17401 -0.348032 1
   vertex 1.18433 -0.339851 1
   vertex 1.17485 -0.338048 1
  endloop
 endfacet
 facet normal 0 -0 1
  outer loop
   vertex 1.17401 -0.348032 1
   vertex 1.17485 -0.338048 1
   vertex 1.16474 -0.347111 1
  endloop
 endfacet
 facet normal 0 0 1
  outer loop
   vertex 1.16474 -0.347111 1
   vertex 1.17485 -0.338048 1
   vertex 1.16524 -0.337124 1
  endloop
 endfacet
 facet normal 0 -0 1
  outer loop
   vertex 1.16474 -0.347111 1
   vertex 1.16524 -0.337124 1
   vertex 1.16443 -0.337149 1
  endloop
 endfacet
 facet normal 0 -0 1
  outer loop
   vertex 1.26441 -0.43912 1
   vertex 1.2647 -0.438361 1
   vertex 1.25489 -0.437258 1
  endloop
 endfacet
 facet normal 0 -0 1
  outer loop
   vertex 1.25988 -0.442007 1
   vertex 1.26069 -0.441942 1
   vertex 1.25489 -0.437258 1
  endloop
 endfacet
 facet normal 0 -0 1
  outer loop
   vertex 1.2647 -0.438361 1
   vertex 1.26485 -0.437567 1
   vertex 1.25489 -0.437258 1
  endloop
 endfacet
 facet normal -0 0 1
  outer loop
   vertex 1.25489 -0.437258 1
   vertex 1.26485 -0.437567 1
   vertex 1.26488 -0.436758 1
  endloop
 endfacet
 facet normal 0 -0 1
  outer loop
   vertex 1.25489 -0.437258 1
   vertex 1.26488 -0.436758 1
   vertex 1.25397 -0.42799 1
  endloop
 endfacet
 facet normal -0 0 1
  outer loop
   vertex 1.25397 -0.42799 1
   vertex 1.26488 -0.436758 1
   vertex 1.26395 -0.427152 1
  endloop
 endfacet
 facet normal 0 -0 1
  outer loop
   vertex 1.25397 -0.42799 1
   vertex 1.26395 -0.427152 1
   vertex 1.25214 -0.418858 1
  endloop
 endfacet
 facet normal -0 0 1
  outer loop
   vertex 1.25214 -0.418858 1
   vertex 1.26395 -0.427152 1
   vertex 1.26215 -0.417672 1
  endloop
 endfacet
 facet normal 0 -0 1
  outer loop
   vertex 1.25214 -0.418858 1
   vertex 1.26215 -0.417672 1
   vertex 1.24944 -0.409948 1
  endloop
 endfacet
 facet normal -0 0 1
  outer loop
   vertex 1.24944 -0.409948 1
   vertex 1.26215 -0.417672 1
   vertex 1.25948 -0.408398 1
  endloop
 endfacet
 facet normal 0 -0 1
  outer loop
   vertex 1.24944 -0.409948 1
   vertex 1.25948 -0.408398 1
   vertex 1.24587 -0.401346 1
  endloop
 endfacet
 facet normal -0 0 1
  outer loop
   vertex 1.24587 -0.401346 1
   vertex 1.25948 -0.408398 1
   vertex 1.25598 -0.399407 1
  endloop
 endfacet
 facet normal 0 -0 1
  outer loop
   vertex 1.24587 -0.401346 1
   vertex 1.25598 -0.399407 1
   vertex 1.24147 -0.393135 1
  endloop
 endfacet
 facet normal -0 0 1
  outer loop
   vertex 1.24147 -0.393135 1
   vertex 1.25598 -0.399407 1
   vertex 1.25166 -0.390776 1
  endloop
 endfacet
 facet normal 0 -0 1
  outer loop
   vertex 1.24147 -0.393135 1
   vertex 1.25166 -0.390776 1
   vertex 1.2363 -0.385393 1
  endloop
 endfacet
 facet normal -0 0 1
  outer loop
   vertex 1.2363 -0.385393 1
   vertex 1.25166 -0.390776 1
   vertex 1.24657 -0.382577 1
  endloop
 endfacet
 facet normal 0 -0 1
  outer loop
   vertex 1.2363 -0.385393 1
   vertex 1.24657 -0.382577 1
   vertex 1.23039 -0.378195 1
  endloop
 endfacet
 facet normal -0 0 1
  outer loop
   vertex 1.23039 -0.378195 1
   vertex 1.24657 -0.382577 1
   vertex 1.24075 -0.37488 1
  endloop
 endfacet
 facet normal 0 0 1
  outer loop
   vertex 1.23039 -0.378195 1
   vertex 1.24075 -0.37488 1
   vertex 1.23425 -0.367751 1
  endloop
 endfacet
 facet normal 0 0 1
  outer loop
   vertex 1.25988 -0.442007 1
   vertex 1.25489 -0.437258 1
   vertex 1.25904 -0.441936 1
  endloop
 endfacet
 facet normal 0 0 1
  outer loop
   vertex 1.16364 -0.337304 1
   vertex 1.16288 -0.337586 1
   vertex 1.16474 -0.347111 1
  endloop
 endfacet
 facet normal 0 0 1
  outer loop
   vertex 1.16474 -0.347111 1
   vertex 1.16288 -0.337586 1
   vertex 1.16218 -0.337986 1
  endloop
 endfacet
 facet normal 0 0 1
  outer loop
   vertex 1.16474 -0.347111 1
   vertex 1.16218 -0.337986 1
   vertex 1.16155 -0.338495 1
  endloop
 endfacet
 facet normal 0 0 1
  outer loop
   vertex 1.16155 -0.338495 1
   vertex 1.16101 -0.339098 1
   vertex 1.16474 -0.347111 1
  endloop
 endfacet
 facet normal 0 0 1
  outer loop
   vertex 1.16474 -0.347111 1
   vertex 1.16101 -0.339098 1
   vertex 1.16057 -0.339781 1
  endloop
 endfacet
 facet normal 0 0 1
  outer loop
   vertex 1.16474 -0.347111 1
   vertex 1.16057 -0.339781 1
   vertex 1.16025 -0.340525 1
  endloop
 endfacet
 facet normal 0 0 1
  outer loop
   vertex 1.16025 -0.340525 1
   vertex 1.16006 -0.341311 1
   vertex 1.16474 -0.347111 1
  endloop
 endfacet
 facet normal 0 0 1
  outer loop
   vertex 1.16474 -0.347111 1
   vertex 1.16006 -0.341311 1
   vertex 1.15999 -0.342117 1
  endloop
 endfacet
 facet normal 0 0 1
  outer loop
   vertex 1.16474 -0.347111 1
   vertex 1.15999 -0.342117 1
   vertex 1.16391 -0.346998 1
  endloop
 endfacet
 facet normal 0 0 1
  outer loop
   vertex 1.255 -0.438094 1
   vertex 1.25525 -0.438899 1
   vertex 1.25746 -0.441379 1
  endloop
 endfacet
 facet normal 0 -0 1
  outer loop
   vertex 1.26069 -0.441942 1
   vertex 1.26148 -0.441747 1
   vertex 1.25489 -0.437258 1
  endloop
 endfacet
 facet normal 0 0 1
  outer loop
   vertex 1.25489 -0.437258 1
   vertex 1.26148 -0.441747 1
   vertex 1.26222 -0.441428 1
  endloop
 endfacet
 facet normal 0 0 1
  outer loop
   vertex 1.25489 -0.437258 1
   vertex 1.26222 -0.441428 1
   vertex 1.2629 -0.440993 1
  endloop
 endfacet
 facet normal 0 0 1
  outer loop
   vertex 1.16028 -0.343775 1
   vertex 1.16062 -0.344545 1
   vertex 1.1631 -0.346746 1
  endloop
 endfacet
 facet normal -0 -0 1
  outer loop
   vertex 1.255 -0.438094 1
   vertex 1.25746 -0.441379 1
   vertex 1.25489 -0.437258 1
  endloop
 endfacet
 facet normal 0 0 1
  outer loop
   vertex 1.25489 -0.437258 1
   vertex 1.25746 -0.441379 1
   vertex 1.25822 -0.441725 1
  endloop
 endfacet
 facet normal 0 0 1
  outer loop
   vertex 1.25489 -0.437258 1
   vertex 1.25822 -0.441725 1
   vertex 1.25904 -0.441936 1
  endloop
 endfacet
 facet normal 0 -0 1
  outer loop
   vertex 1.2629 -0.440993 1
   vertex 1.26351 -0.440454 1
   vertex 1.25489 -0.437258 1
  endloop
 endfacet
 facet normal 0 0 1
  outer loop
   vertex 1.25489 -0.437258 1
   vertex 1.26351 -0.440454 1
   vertex 1.26401 -0.439824 1
  endloop
 endfacet
 facet normal 0 0 1
  outer loop
   vertex 1.25489 -0.437258 1
   vertex 1.26401 -0.439824 1
   vertex 1.26441 -0.43912 1
  endloop
 endfacet
 facet normal 0 0 1
  outer loop
   vertex 1.25525 -0.438899 1
   vertex 1.25564 -0.439651 1
   vertex 1.25746 -0.441379 1
  endloop
 endfacet
 facet normal 0 0 1
  outer loop
   vertex 1.25746 -0.441379 1
   vertex 1.25564 -0.439651 1
   vertex 1.25614 -0.440327 1
  endloop
 endfacet
 facet normal 0 0 1
  outer loop
   vertex 1.25746 -0.441379 1
   vertex 1.25614 -0.440327 1
   vertex 1.25675 -0.440908 1
  endloop
 endfacet
 facet normal 0 0 1
  outer loop
   vertex 1.16391 -0.346998 1
   vertex 1.15999 -0.342117 1
   vertex 1.1631 -0.346746 1
  endloop
 endfacet
 facet normal 0 0 1
  outer loop
   vertex 1.1631 -0.346746 1
   vertex 1.15999 -0.342117 1
   vertex 1.16006 -0.342958 1
  endloop
 endfacet
 facet normal 0 0 1
  outer loop
   vertex 1.1631 -0.346746 1
   vertex 1.16006 -0.342958 1
   vertex 1.16028 -0.343775 1
  endloop
 endfacet
 facet normal 0 0 1
  outer loop
   vertex 1.16062 -0.344545 1
   vertex 1.16109 -0.345245 1
   vertex 1.1631 -0.346746 1
  endloop
 endfacet
 facet normal 0 0 1
  outer loop
   vertex 1.1631 -0.346746 1
   vertex 1.16109 -0.345245 1
   vertex 1.16167 -0.345857 1
  endloop
 endfacet
 facet normal 0 0 1
  outer loop
   vertex 1.1631 -0.346746 1
   vertex 1.16167 -0.345857 1
   vertex 1.16235 -0.346362 1
  endloop
 endfacet
 facet normal 0.999317 -0.0369514 0
  outer loop
   vertex 1.26488 -0.436758 -1
   vertex 1.26488 -0.436758 1
   vertex 1.26485 -0.437567 1
  endloop
 endfacet
 facet normal 0.999317 -0.0369514 0
  outer loop
   vertex 1.26488 -0.436758 -1
   vertex 1.26485 -0.437567 1
   vertex 1.26485 -0.437567 -1
  endloop
 endfacet
 facet normal 0.982648 -0.185479 0
  outer loop
   vertex 1.26485 -0.437567 -1
   vertex 1.26485 -0.437567 1
   vertex 1.2647 -0.438361 1
  endloop
 endfacet
 facet normal 0.982648 -0.185479 0
  outer loop
   vertex 1.26485 -0.437567 -1
   vertex 1.2647 -0.438361 1
   vertex 1.2647 -0.438361 -1
  endloop
 endfacet
 facet normal 0.934121 -0.356956 0
  outer loop
   vertex 1.2647 -0.438361 -1
   vertex 1.2647 -0.438361 1
   vertex 1.26441 -0.43912 1
  endloop
 endfacet
 facet normal 0.934121 -0.356956 0
  outer loop
   vertex 1.2647 -0.438361 -1
   vertex 1.26441 -0.43912 1
   vertex 1.26441 -0.43912 -1
  endloop
 endfacet
 facet normal 0.869302 -0.494282 0
  outer loop
   vertex 1.26441 -0.43912 -1
   vertex 1.26441 -0.43912 1
   vertex 1.26401 -0.439824 1
  endloop
 endfacet
 facet normal 0.869302 -0.494282 0
  outer loop
   vertex 1.26441 -0.43912 -1
   vertex 1.26401 -0.439824 1
   vertex 1.26401 -0.439824 -1
  endloop
 endfacet
 facet normal 0.783214 -0.621753 0
  outer loop
   vertex 1.26401 -0.439824 -1
   vertex 1.26401 -0.439824 1
   vertex 1.26351 -0.440454 1
  endloop
 endfacet
 facet normal 0.783214 -0.621753 0
  outer loop
   vertex 1.26401 -0.439824 -1
   vertex 1.26351 -0.440454 1
   vertex 1.26351 -0.440454 -1
  endloop
 endfacet
 facet normal 0.662429 -0.749125 0
  outer loop
   vertex 1.26351 -0.440454 -1
   vertex 1.26351 -0.440454 1
   vertex 1.2629 -0.440993 1
  endloop
 endfacet
 facet normal 0.662429 -0.749125 0
  outer loop
   vertex 1.26351 -0.440454 -1
   vertex 1.2629 -0.440993 1
   vertex 1.2629 -0.440993 -1
  endloop
 endfacet
 facet normal 0.538897 -0.842372 0
  outer loop
   vertex 1.2629 -0.440993 -1
   vertex 1.2629 -0.440993 1
   vertex 1.26222 -0.441428 1
  endloop
 endfacet
 facet normal 0.538897 -0.842372 0
  outer loop
   vertex 1.2629 -0.440993 -1
   vertex 1.26222 -0.441428 1
   vertex 1.26222 -0.441428 -1
  endloop
 endfacet
 facet normal 0.395944 -0.918275 0
  outer loop
   vertex 1.26222 -0.441428 -1
   vertex 1.26222 -0.441428 1
   vertex 1.26148 -0.441747 1
  endloop
 endfacet
 facet normal 0.395944 -0.918275 0
  outer loop
   vertex 1.26222 -0.441428 -1
   vertex 1.26148 -0.441747 1
   vertex 1.26148 -0.441747 -1
  endloop
 endfacet
 facet normal 0.239531 -0.970889 0
  outer loop
   vertex 1.26148 -0.441747 -1
   vertex 1.26148 -0.441747 1
   vertex 1.26069 -0.441942 1
  endloop
 endfacet
 facet normal 0.239531 -0.970889 0
  outer loop
   vertex 1.26148 -0.441747 -1
   vertex 1.26069 -0.441942 1
   vertex 1.26069 -0.441942 -1
  endloop
 endfacet
 facet normal 0.080596 -0.996747 0
  outer loop
   vertex 1.26069 -0.441942 -1
   vertex 1.26069 -0.441942 1
   vertex 1.25988 -0.442007 1
  endloop
 endfacet
 facet normal 0.080596 -0.996747 0
  outer loop
   vertex 1.26069 -0.441942 -1
   vertex 1.25988 -0.442007 1
   vertex 1.25988 -0.442007 -1
  endloop
 endfacet
 facet normal -0.0844659 -0.996426 0
  outer loop
   vertex 1.25988 -0.442007 -1
   vertex 1.25988 -0.442007 1
   vertex 1.25904 -0.441936 1
  endloop
 endfacet
 facet normal -0.0844659 -0.996426 0
  outer loop
   vertex 1.25988 -0.442007 -1
   vertex 1.25904 -0.441936 1
   vertex 1.25904 -0.441936 -1
  endloop
 endfacet
 facet normal -0.249848 -0.968285 0
  outer loop
   vertex 1.25904 -0.441936 -1
   vertex 1.25904 -0.441936 1
   vertex 1.25822 -0.441725 1
  endloop
 endfacet
 facet normal -0.249848 -0.968285 0
  outer loop
   vertex 1.25904 -0.441936 -1
   vertex 1.25822 -0.441725 1
   vertex 1.25822 -0.441725 -1
  endloop
 endfacet
 facet normal -0.414364 -0.910111 0
  outer loop
   vertex 1.25822 -0.441725 -1
   vertex 1.25822 -0.441725 1
   vertex 1.25746 -0.441379 1
  endloop
 endfacet
 facet normal -0.414364 -0.910111 0
  outer loop
   vertex 1.25822 -0.441725 -1
   vertex 1.25746 -0.441379 1
   vertex 1.25746 -0.441379 -1
  endloop
 endfacet
 facet normal -0.552308 -0.83364 0
  outer loop
   vertex 1.25746 -0.441379 -1
   vertex 1.25746 -0.441379 1
   vertex 1.25675 -0.440908 1
  endloop
 endfacet
 facet normal -0.552308 -0.83364 0
  outer loop
   vertex 1.25746 -0.441379 -1
   vertex 1.25675 -0.440908 1
   vertex 1.25675 -0.440908 -1
  endloop
 endfacet
 facet normal -0.690061 -0.723751 0
  outer loop
   vertex 1.25675 -0.440908 -1
   vertex 1.25675 -0.440908 1
   vertex 1.25614 -0.440327 1
  endloop
 endfacet
 facet normal -0.690061 -0.723751 0
  outer loop
   vertex 1.25675 -0.440908 -1
   vertex 1.25614 -0.440327 1
   vertex 1.25614 -0.440327 -1
  endloop
 endfacet
 facet normal -0.804083 -0.594517 0
  outer loop
   vertex 1.25614 -0.440327 -1
   vertex 1.25614 -0.440327 1
   vertex 1.25564 -0.439651 1
  endloop
 endfacet
 facet normal -0.804083 -0.594517 0
  outer loop
   vertex 1.25614 -0.440327 -1
   vertex 1.25564 -0.439651 1
   vertex 1.25564 -0.439651 -1
  endloop
 endfacet
 facet normal -0.887544 -0.460724 0
  outer loop
   vertex 1.25564 -0.439651 -1
   vertex 1.25564 -0.439651 1
   vertex 1.25525 -0.438899 1
  endloop
 endfacet
 facet normal -0.887544 -0.460724 0
  outer loop
   vertex 1.25564 -0.439651 -1
   vertex 1.25525 -0.438899 1
   vertex 1.25525 -0.438899 -1
  endloop
 endfacet
 facet normal -0.955044 -0.296465 0
  outer loop
   vertex 1.25525 -0.438899 -1
   vertex 1.25525 -0.438899 1
   vertex 1.255 -0.438094 1
  endloop
 endfacet
 facet normal -0.955044 -0.296465 0
  outer loop
   vertex 1.25525 -0.438899 -1
   vertex 1.255 -0.438094 1
   vertex 1.255 -0.438094 -1
  endloop
 endfacet
 facet normal -0.991456 -0.130444 0
  outer loop
   vertex 1.255 -0.438094 -1
   vertex 1.255 -0.438094 1
   vertex 1.25489 -0.437258 1
  endloop
 endfacet
 facet normal -0.991456 -0.130444 0
  outer loop
   vertex 1.255 -0.438094 -1
   vertex 1.25489 -0.437258 1
   vertex 1.25489 -0.437258 -1
  endloop
 endfacet
 facet normal -0.996247 0.0865546 0
  outer loop
   vertex 1.15999 -0.342117 -1
   vertex 1.15999 -0.342117 1
   vertex 1.16006 -0.341311 1
  endloop
 endfacet
 facet normal -0.996247 0.0865546 0
  outer loop
   vertex 1.15999 -0.342117 -1
   vertex 1.16006 -0.341311 1
   vertex 1.16006 -0.341311 -1
  endloop
 endfacet
 facet normal -0.972019 0.234903 0
  outer loop
   vertex 1.16006 -0.341311 -1
   vertex 1.16006 -0.341311 1
   vertex 1.16025 -0.340525 1
  endloop
 endfacet
 facet normal -0.972019 0.234903 0
  outer loop
   vertex 1.16006 -0.341311 -1
   vertex 1.16025 -0.340525 1
   vertex 1.16025 -0.340525 -1
  endloop
 endfacet
 facet normal -0.918579 0.395236 0
  outer loop
   vertex 1.16025 -0.340525 -1
   vertex 1.16025 -0.340525 1
   vertex 1.16057 -0.339781 1
  endloop
 endfacet
 facet normal -0.918579 0.395236 0
  outer loop
   vertex 1.16025 -0.340525 -1
   vertex 1.16057 -0.339781 1
   vertex 1.16057 -0.339781 -1
  endloop
 endfacet
 facet normal -0.840586 0.541679 0
  outer loop
   vertex 1.16057 -0.339781 -1
   vertex 1.16057 -0.339781 1
   vertex 1.16101 -0.339098 1
  endloop
 endfacet
 facet normal -0.840586 0.541679 0
  outer loop
   vertex 1.16057 -0.339781 -1
   vertex 1.16101 -0.339098 1
   vertex 1.16101 -0.339098 -1
  endloop
 endfacet
 facet normal -0.745214 0.666825 0
  outer loop
   vertex 1.16101 -0.339098 -1
   vertex 1.16101 -0.339098 1
   vertex 1.16155 -0.338495 1
  endloop
 endfacet
 facet normal -0.745214 0.666825 0
  outer loop
   vertex 1.16101 -0.339098 -1
   vertex 1.16155 -0.338495 1
   vertex 1.16155 -0.338495 -1
  endloop
 endfacet
 facet normal -0.628212 0.778043 0
  outer loop
   vertex 1.16155 -0.338495 -1
   vertex 1.16155 -0.338495 1
   vertex 1.16218 -0.337986 1
  endloop
 endfacet
 facet normal -0.628212 0.778043 0
  outer loop
   vertex 1.16155 -0.338495 -1
   vertex 1.16218 -0.337986 1
   vertex 1.16218 -0.337986 -1
  endloop
 endfacet
 facet normal -0.496513 0.86803 0
  outer loop
   vertex 1.16218 -0.337986 -1
   vertex 1.16218 -0.337986 1
   vertex 1.16288 -0.337586 1
  endloop
 endfacet
 facet normal -0.496513 0.86803 0
  outer loop
   vertex 1.16218 -0.337986 -1
   vertex 1.16288 -0.337586 1
   vertex 1.16288 -0.337586 -1
  endloop
 endfacet
 facet normal -0.347305 0.937752 0
  outer loop
   vertex 1.16288 -0.337586 -1
   vertex 1.16288 -0.337586 1
   vertex 1.16364 -0.337304 1
  endloop
 endfacet
 facet normal -0.347305 0.937752 0
  outer loop
   vertex 1.16288 -0.337586 -1
   vertex 1.16364 -0.337304 1
   vertex 1.16364 -0.337304 -1
  endloop
 endfacet
 facet normal -0.19289 0.98122 0
  outer loop
   vertex 1.16364 -0.337304 -1
   vertex 1.16364 -0.337304 1
   vertex 1.16443 -0.337149 1
  endloop
 endfacet
 facet normal -0.19289 0.98122 0
  outer loop
   vertex 1.16364 -0.337304 -1
   vertex 1.16443 -0.337149 1
   vertex 1.16443 -0.337149 -1
  endloop
 endfacet
 facet normal -0.030973 0.99952 0
  outer loop
   vertex 1.16443 -0.337149 -1
   vertex 1.16443 -0.337149 1
   vertex 1.16524 -0.337124 1
  endloop
 endfacet
 facet normal -0.030973 0.99952 0
  outer loop
   vertex 1.16443 -0.337149 -1
   vertex 1.16524 -0.337124 1
   vertex 1.16524 -0.337124 -1
  endloop
 endfacet
 facet normal -0.135145 -0.990826 0
  outer loop
   vertex 1.16474 -0.347111 -1
   vertex 1.16474 -0.347111 1
   vertex 1.16391 -0.346998 1
  endloop
 endfacet
 facet normal -0.135145 -0.990826 0
  outer loop
   vertex 1.16474 -0.347111 -1
   vertex 1.16391 -0.346998 1
   vertex 1.16391 -0.346998 -1
  endloop
 endfacet
 facet normal -0.297271 -0.954793 0
  outer loop
   vertex 1.16391 -0.346998 -1
   vertex 1.16391 -0.346998 1
   vertex 1.1631 -0.346746 1
  endloop
 endfacet
 facet normal -0.297271 -0.954793 0
  outer loop
   vertex 1.16391 -0.346998 -1
   vertex 1.1631 -0.346746 1
   vertex 1.1631 -0.346746 -1
  endloop
 endfacet
 facet normal -0.455764 -0.890101 0
  outer loop
   vertex 1.1631 -0.346746 -1
   vertex 1.1631 -0.346746 1
   vertex 1.16235 -0.346362 1
  endloop
 endfacet
 facet normal -0.455764 -0.890101 0
  outer loop
   vertex 1.1631 -0.346746 -1
   vertex 1.16235 -0.346362 1
   vertex 1.16235 -0.346362 -1
  endloop
 endfacet
 facet normal -0.596165 -0.802862 0
  outer loop
   vertex 1.16235 -0.346362 -1
   vertex 1.16235 -0.346362 1
   vertex 1.16167 -0.345857 1
  endloop
 endfacet
 facet normal -0.596165 -0.802862 0
  outer loop
   vertex 1.16235 -0.346362 -1
   vertex 1.16167 -0.345857 1
   vertex 1.16167 -0.345857 -1
  endloop
 endfacet
 facet normal -0.72552 -0.688201 0
  outer loop
   vertex 1.16167 -0.345857 -1
   vertex 1.16167 -0.345857 1
   vertex 1.16109 -0.345245 1
  endloop
 endfacet
 facet normal -0.72552 -0.688201 0
  outer loop
   vertex 1.16167 -0.345857 -1
   vertex 1.16109 -0.345245 1
   vertex 1.16109 -0.345245 -1
  endloop
 endfacet
 facet normal -0.830382 -0.557194 0
  outer loop
   vertex 1.16109 -0.345245 -1
   vertex 1.16109 -0.345245 1
   vertex 1.16062 -0.344545 1
  endloop
 endfacet
 facet normal -0.830382 -0.557194 0
  outer loop
   vertex 1.16109 -0.345245 -1
   vertex 1.16062 -0.344545 1
   vertex 1.16062 -0.344545 -1
  endloop
 endfacet
 facet normal -0.914737 -0.404051 0
  outer loop
   vertex 1.16062 -0.344545 -1
   vertex 1.16062 -0.344545 1
   vertex 1.16028 -0.343775 1
  endloop
 endfacet
 facet normal -0.914737 -0.404051 0
  outer loop
   vertex 1.16062 -0.344545 -1
   vertex 1.16028 -0.343775 1
   vertex 1.16028 -0.343775 -1
  endloop
 endfacet
 facet normal -0.965614 -0.259981 0
  outer loop
   vertex 1.16028 -0.343775 -1
   vertex 1.16028 -0.343775 1
   vertex 1.16006 -0.342958 1
  endloop
 endfacet
 facet normal -0.965614 -0.259981 0
  outer loop
   vertex 1.16028 -0.343775 -1
   vertex 1.16006 -0.342958 1
   vertex 1.16006 -0.342958 -1
  endloop
 endfacet
 facet normal -0.996544 -0.0830689 0
  outer loop
   vertex 1.16006 -0.342958 -1
   vertex 1.16006 -0.342958 1
   vertex 1.15999 -0.342117 1
  endloop
 endfacet
 facet normal -0.996544 -0.0830689 0
  outer loop
   vertex 1.16006 -0.342958 -1
   vertex 1.15999 -0.342117 1
   vertex 1.15999 -0.342117 -1
  endloop
 endfacet
endsolid tunner_vane
