solid tunner_vane
 facet normal -0.00202343 0.999998 0
  outer loop
   vertex 0.0132242 -0.0400097 -1
   vertex 0.0132242 -0.0400097 1
   vertex 0.0137038 -0.0400087 1
  endloop
 endfacet
 facet normal -0.00202343 0.999998 0
  outer loop
   vertex 0.0132242 -0.0400097 -1
   vertex 0.0137038 -0.0400087 1
   vertex 0.0137038 -0.0400087 -1
  endloop
 endfacet
 facet normal 0.0291706 0.999574 -0
  outer loop
   vertex 0.0137038 -0.0400087 -1
   vertex 0.0137038 -0.0400087 1
   vertex 0.0141832 -0.0400227 1
  endloop
 endfacet
 facet normal 0.0291706 0.999574 0
  outer loop
   vertex 0.0137038 -0.0400087 -1
   vertex 0.0141832 -0.0400227 1
   vertex 0.0141832 -0.0400227 -1
  endloop
 endfacet
 facet normal 0.0601661 0.998188 -0
  outer loop
   vertex 0.0141832 -0.0400227 -1
   vertex 0.0141832 -0.0400227 1
   vertex 0.014662 -0.0400516 1
  endloop
 endfacet
 facet normal 0.0601661 0.998188 0
  outer loop
   vertex 0.0141832 -0.0400227 -1
   vertex 0.014662 -0.0400516 1
   vertex 0.014662 -0.0400516 -1
  endloop
 endfacet
 facet normal 0.0910371 0.995848 -0
  outer loop
   vertex 0.014662 -0.0400516 -1
   vertex 0.014662 -0.0400516 1
   vertex 0.0151397 -0.0400953 1
  endloop
 endfacet
 facet normal 0.0910371 0.995848 0
  outer loop
   vertex 0.014662 -0.0400516 -1
   vertex 0.0151397 -0.0400953 1
   vertex 0.0151397 -0.0400953 -1
  endloop
 endfacet
 facet normal 0.121859 0.992547 -0
  outer loop
   vertex 0.0151397 -0.0400953 -1
   vertex 0.0151397 -0.0400953 1
   vertex 0.0156157 -0.0401537 1
  endloop
 endfacet
 facet normal 0.121859 0.992547 0
  outer loop
   vertex 0.0151397 -0.0400953 -1
   vertex 0.0156157 -0.0401537 1
   vertex 0.0156157 -0.0401537 -1
  endloop
 endfacet
 facet normal 0.152682 0.988275 -0
  outer loop
   vertex 0.0156157 -0.0401537 -1
   vertex 0.0156157 -0.0401537 1
   vertex 0.0160897 -0.0402269 1
  endloop
 endfacet
 facet normal 0.152682 0.988275 0
  outer loop
   vertex 0.0156157 -0.0401537 -1
   vertex 0.0160897 -0.0402269 1
   vertex 0.0160897 -0.0402269 -1
  endloop
 endfacet
 facet normal 0.183269 0.983063 -0
  outer loop
   vertex 0.0160897 -0.0402269 -1
   vertex 0.0160897 -0.0402269 1
   vertex 0.0165612 -0.0403148 1
  endloop
 endfacet
 facet normal 0.183269 0.983063 0
  outer loop
   vertex 0.0160897 -0.0402269 -1
   vertex 0.0165612 -0.0403148 1
   vertex 0.0165612 -0.0403148 -1
  endloop
 endfacet
 facet normal 0.213727 0.976893 -0
  outer loop
   vertex 0.0165612 -0.0403148 -1
   vertex 0.0165612 -0.0403148 1
   vertex 0.0170297 -0.0404173 1
  endloop
 endfacet
 facet normal 0.213727 0.976893 0
  outer loop
   vertex 0.0165612 -0.0403148 -1
   vertex 0.0170297 -0.0404173 1
   vertex 0.0170297 -0.0404173 -1
  endloop
 endfacet
 facet normal 0.243851 0.969813 -0
  outer loop
   vertex 0.0170297 -0.0404173 -1
   vertex 0.0170297 -0.0404173 1
   vertex 0.0174949 -0.0405343 1
  endloop
 endfacet
 facet normal 0.243851 0.969813 0
  outer loop
   vertex 0.0170297 -0.0404173 -1
   vertex 0.0174949 -0.0405343 1
   vertex 0.0174949 -0.0405343 -1
  endloop
 endfacet
 facet normal 0.273946 0.961745 -0
  outer loop
   vertex 0.0174949 -0.0405343 -1
   vertex 0.0174949 -0.0405343 1
   vertex 0.0179561 -0.0406657 1
  endloop
 endfacet
 facet normal 0.273946 0.961745 0
  outer loop
   vertex 0.0174949 -0.0405343 -1
   vertex 0.0179561 -0.0406657 1
   vertex 0.0179561 -0.0406657 -1
  endloop
 endfacet
 facet normal 0.303585 0.952804 -0
  outer loop
   vertex 0.0179561 -0.0406657 -1
   vertex 0.0179561 -0.0406657 1
   vertex 0.0184131 -0.0408113 1
  endloop
 endfacet
 facet normal 0.303585 0.952804 0
  outer loop
   vertex 0.0179561 -0.0406657 -1
   vertex 0.0184131 -0.0408113 1
   vertex 0.0184131 -0.0408113 -1
  endloop
 endfacet
 facet normal 0.332995 0.942929 -0
  outer loop
   vertex 0.0184131 -0.0408113 -1
   vertex 0.0184131 -0.0408113 1
   vertex 0.0188654 -0.040971 1
  endloop
 endfacet
 facet normal 0.332995 0.942929 0
  outer loop
   vertex 0.0184131 -0.0408113 -1
   vertex 0.0188654 -0.040971 1
   vertex 0.0188654 -0.040971 -1
  endloop
 endfacet
 facet normal 0.362099 0.932139 -0
  outer loop
   vertex 0.0188654 -0.040971 -1
   vertex 0.0188654 -0.040971 1
   vertex 0.0193125 -0.0411447 1
  endloop
 endfacet
 facet normal 0.362099 0.932139 0
  outer loop
   vertex 0.0188654 -0.040971 -1
   vertex 0.0193125 -0.0411447 1
   vertex 0.0193125 -0.0411447 -1
  endloop
 endfacet
 facet normal 0.390937 0.920417 -0
  outer loop
   vertex 0.0193125 -0.0411447 -1
   vertex 0.0193125 -0.0411447 1
   vertex 0.0197539 -0.0413322 1
  endloop
 endfacet
 facet normal 0.390937 0.920417 0
  outer loop
   vertex 0.0193125 -0.0411447 -1
   vertex 0.0197539 -0.0413322 1
   vertex 0.0197539 -0.0413322 -1
  endloop
 endfacet
 facet normal 0.419195 0.907896 -0
  outer loop
   vertex 0.0197539 -0.0413322 -1
   vertex 0.0197539 -0.0413322 1
   vertex 0.0201894 -0.0415332 1
  endloop
 endfacet
 facet normal 0.419195 0.907896 0
  outer loop
   vertex 0.0197539 -0.0413322 -1
   vertex 0.0201894 -0.0415332 1
   vertex 0.0201894 -0.0415332 -1
  endloop
 endfacet
 facet normal 0.447314 0.894377 -0
  outer loop
   vertex 0.0201894 -0.0415332 -1
   vertex 0.0201894 -0.0415332 1
   vertex 0.0206183 -0.0417478 1
  endloop
 endfacet
 facet normal 0.447314 0.894377 0
  outer loop
   vertex 0.0201894 -0.0415332 -1
   vertex 0.0206183 -0.0417478 1
   vertex 0.0206183 -0.0417478 -1
  endloop
 endfacet
 facet normal 0.474718 0.880138 -0
  outer loop
   vertex 0.0206183 -0.0417478 -1
   vertex 0.0206183 -0.0417478 1
   vertex 0.0210405 -0.0419755 1
  endloop
 endfacet
 facet normal 0.474718 0.880138 0
  outer loop
   vertex 0.0206183 -0.0417478 -1
   vertex 0.0210405 -0.0419755 1
   vertex 0.0210405 -0.0419755 -1
  endloop
 endfacet
 facet normal 0.501899 0.864926 -0
  outer loop
   vertex 0.0210405 -0.0419755 -1
   vertex 0.0210405 -0.0419755 1
   vertex 0.0214553 -0.0422162 1
  endloop
 endfacet
 facet normal 0.501899 0.864926 0
  outer loop
   vertex 0.0210405 -0.0419755 -1
   vertex 0.0214553 -0.0422162 1
   vertex 0.0214553 -0.0422162 -1
  endloop
 endfacet
 facet normal 0.528454 0.848962 -0
  outer loop
   vertex 0.0214553 -0.0422162 -1
   vertex 0.0214553 -0.0422162 1
   vertex 0.0218625 -0.0424697 1
  endloop
 endfacet
 facet normal 0.528454 0.848962 0
  outer loop
   vertex 0.0214553 -0.0422162 -1
   vertex 0.0218625 -0.0424697 1
   vertex 0.0218625 -0.0424697 -1
  endloop
 endfacet
 facet normal 0.554576 0.832133 -0
  outer loop
   vertex 0.0218625 -0.0424697 -1
   vertex 0.0218625 -0.0424697 1
   vertex 0.0222616 -0.0427356 1
  endloop
 endfacet
 facet normal 0.554576 0.832133 0
  outer loop
   vertex 0.0218625 -0.0424697 -1
   vertex 0.0222616 -0.0427356 1
   vertex 0.0222616 -0.0427356 -1
  endloop
 endfacet
 facet normal 0.580075 0.814563 -0
  outer loop
   vertex 0.0222616 -0.0427356 -1
   vertex 0.0222616 -0.0427356 1
   vertex 0.0226523 -0.0430139 1
  endloop
 endfacet
 facet normal 0.580075 0.814563 0
  outer loop
   vertex 0.0222616 -0.0427356 -1
   vertex 0.0226523 -0.0430139 1
   vertex 0.0226523 -0.0430139 -1
  endloop
 endfacet
 facet normal 0.605179 0.796089 -0
  outer loop
   vertex 0.0226523 -0.0430139 -1
   vertex 0.0226523 -0.0430139 1
   vertex 0.0230341 -0.0433041 1
  endloop
 endfacet
 facet normal 0.605179 0.796089 0
  outer loop
   vertex 0.0226523 -0.0430139 -1
   vertex 0.0230341 -0.0433041 1
   vertex 0.0230341 -0.0433041 -1
  endloop
 endfacet
 facet normal 0.629475 0.777021 -0
  outer loop
   vertex 0.0230341 -0.0433041 -1
   vertex 0.0230341 -0.0433041 1
   vertex 0.0234068 -0.043606 1
  endloop
 endfacet
 facet normal 0.629475 0.777021 0
  outer loop
   vertex 0.0230341 -0.0433041 -1
   vertex 0.0234068 -0.043606 1
   vertex 0.0234068 -0.043606 -1
  endloop
 endfacet
 facet normal 0.653349 0.757056 -0
  outer loop
   vertex 0.0234068 -0.043606 -1
   vertex 0.0234068 -0.043606 1
   vertex 0.0237699 -0.0439194 1
  endloop
 endfacet
 facet normal 0.653349 0.757056 0
  outer loop
   vertex 0.0234068 -0.043606 -1
   vertex 0.0237699 -0.0439194 1
   vertex 0.0237699 -0.0439194 -1
  endloop
 endfacet
 facet normal 0.676532 0.736413 -0
  outer loop
   vertex 0.0237699 -0.0439194 -1
   vertex 0.0237699 -0.0439194 1
   vertex 0.0241231 -0.0442439 1
  endloop
 endfacet
 facet normal 0.676532 0.736413 0
  outer loop
   vertex 0.0237699 -0.0439194 -1
   vertex 0.0241231 -0.0442439 1
   vertex 0.0241231 -0.0442439 -1
  endloop
 endfacet
 facet normal 0.699015 0.715107 -0
  outer loop
   vertex 0.0241231 -0.0442439 -1
   vertex 0.0241231 -0.0442439 1
   vertex 0.0244661 -0.0445792 1
  endloop
 endfacet
 facet normal 0.699015 0.715107 0
  outer loop
   vertex 0.0241231 -0.0442439 -1
   vertex 0.0244661 -0.0445792 1
   vertex 0.0244661 -0.0445792 -1
  endloop
 endfacet
 facet normal 0.72101 0.692925 -0
  outer loop
   vertex 0.0244661 -0.0445792 -1
   vertex 0.0244661 -0.0445792 1
   vertex 0.0247984 -0.0449249 1
  endloop
 endfacet
 facet normal 0.72101 0.692925 0
  outer loop
   vertex 0.0244661 -0.0445792 -1
   vertex 0.0247984 -0.0449249 1
   vertex 0.0247984 -0.0449249 -1
  endloop
 endfacet
 facet normal 0.742078 0.670314 -0
  outer loop
   vertex 0.0247984 -0.0449249 -1
   vertex 0.0247984 -0.0449249 1
   vertex 0.0251199 -0.0452808 1
  endloop
 endfacet
 facet normal 0.742078 0.670314 0
  outer loop
   vertex 0.0247984 -0.0449249 -1
   vertex 0.0251199 -0.0452808 1
   vertex 0.0251199 -0.0452808 -1
  endloop
 endfacet
 facet normal 0.762517 0.646968 -0
  outer loop
   vertex 0.0251199 -0.0452808 -1
   vertex 0.0251199 -0.0452808 1
   vertex 0.0254302 -0.0456466 1
  endloop
 endfacet
 facet normal 0.762517 0.646968 0
  outer loop
   vertex 0.0251199 -0.0452808 -1
   vertex 0.0254302 -0.0456466 1
   vertex 0.0254302 -0.0456466 -1
  endloop
 endfacet
 facet normal 0.782226 0.622995 -0
  outer loop
   vertex 0.0254302 -0.0456466 -1
   vertex 0.0254302 -0.0456466 1
   vertex 0.025729 -0.0460217 1
  endloop
 endfacet
 facet normal 0.782226 0.622995 0
  outer loop
   vertex 0.0254302 -0.0456466 -1
   vertex 0.025729 -0.0460217 1
   vertex 0.025729 -0.0460217 -1
  endloop
 endfacet
 facet normal 0.801103 0.598526 -0
  outer loop
   vertex 0.025729 -0.0460217 -1
   vertex 0.025729 -0.0460217 1
   vertex 0.0260161 -0.046406 1
  endloop
 endfacet
 facet normal 0.801103 0.598526 0
  outer loop
   vertex 0.025729 -0.0460217 -1
   vertex 0.0260161 -0.046406 1
   vertex 0.0260161 -0.046406 -1
  endloop
 endfacet
 facet normal 0.819428 0.573183 -0
  outer loop
   vertex 0.0260161 -0.046406 -1
   vertex 0.0260161 -0.046406 1
   vertex 0.026291 -0.046799 1
  endloop
 endfacet
 facet normal 0.819428 0.573183 0
  outer loop
   vertex 0.0260161 -0.046406 -1
   vertex 0.026291 -0.046799 1
   vertex 0.026291 -0.046799 -1
  endloop
 endfacet
 facet normal 0.836787 0.547529 -0
  outer loop
   vertex 0.026291 -0.046799 -1
   vertex 0.026291 -0.046799 1
   vertex 0.0265536 -0.0472003 1
  endloop
 endfacet
 facet normal 0.836787 0.547529 0
  outer loop
   vertex 0.026291 -0.046799 -1
   vertex 0.0265536 -0.0472003 1
   vertex 0.0265536 -0.0472003 -1
  endloop
 endfacet
 facet normal 0.853301 0.521419 -0
  outer loop
   vertex 0.0265536 -0.0472003 -1
   vertex 0.0265536 -0.0472003 1
   vertex 0.0268037 -0.0476096 1
  endloop
 endfacet
 facet normal 0.853301 0.521419 0
  outer loop
   vertex 0.0265536 -0.0472003 -1
   vertex 0.0268037 -0.0476096 1
   vertex 0.0268037 -0.0476096 -1
  endloop
 endfacet
 facet normal 0.869141 0.494565 -0
  outer loop
   vertex 0.0268037 -0.0476096 -1
   vertex 0.0268037 -0.0476096 1
   vertex 0.0270409 -0.0480265 1
  endloop
 endfacet
 facet normal 0.869141 0.494565 0
  outer loop
   vertex 0.0268037 -0.0476096 -1
   vertex 0.0270409 -0.0480265 1
   vertex 0.0270409 -0.0480265 -1
  endloop
 endfacet
 facet normal 0.884027 0.467435 -0
  outer loop
   vertex 0.0270409 -0.0480265 -1
   vertex 0.0270409 -0.0480265 1
   vertex 0.0272651 -0.0484505 1
  endloop
 endfacet
 facet normal 0.884027 0.467435 0
  outer loop
   vertex 0.0270409 -0.0480265 -1
   vertex 0.0272651 -0.0484505 1
   vertex 0.0272651 -0.0484505 -1
  endloop
 endfacet
 facet normal 0.898222 0.439543 -0
  outer loop
   vertex 0.0272651 -0.0484505 -1
   vertex 0.0272651 -0.0484505 1
   vertex 0.0274759 -0.0488813 1
  endloop
 endfacet
 facet normal 0.898222 0.439543 0
  outer loop
   vertex 0.0272651 -0.0484505 -1
   vertex 0.0274759 -0.0488813 1
   vertex 0.0274759 -0.0488813 -1
  endloop
 endfacet
 facet normal 0.911295 0.411755 -0
  outer loop
   vertex 0.0274759 -0.0488813 -1
   vertex 0.0274759 -0.0488813 1
   vertex 0.0276734 -0.0493184 1
  endloop
 endfacet
 facet normal 0.911295 0.411755 0
  outer loop
   vertex 0.0274759 -0.0488813 -1
   vertex 0.0276734 -0.0493184 1
   vertex 0.0276734 -0.0493184 -1
  endloop
 endfacet
 facet normal 0.923736 0.38303 -0
  outer loop
   vertex 0.0276734 -0.0493184 -1
   vertex 0.0276734 -0.0493184 1
   vertex 0.0278571 -0.0497614 1
  endloop
 endfacet
 facet normal 0.923736 0.38303 0
  outer loop
   vertex 0.0276734 -0.0493184 -1
   vertex 0.0278571 -0.0497614 1
   vertex 0.0278571 -0.0497614 -1
  endloop
 endfacet
 facet normal 0.935084 0.354427 -0
  outer loop
   vertex 0.0278571 -0.0497614 -1
   vertex 0.0278571 -0.0497614 1
   vertex 0.0280271 -0.0502099 1
  endloop
 endfacet
 facet normal 0.935084 0.354427 0
  outer loop
   vertex 0.0278571 -0.0497614 -1
   vertex 0.0280271 -0.0502099 1
   vertex 0.0280271 -0.0502099 -1
  endloop
 endfacet
 facet normal 0.945696 0.325052 -0
  outer loop
   vertex 0.0280271 -0.0502099 -1
   vertex 0.0280271 -0.0502099 1
   vertex 0.028183 -0.0506635 1
  endloop
 endfacet
 facet normal 0.945696 0.325052 0
  outer loop
   vertex 0.0280271 -0.0502099 -1
   vertex 0.028183 -0.0506635 1
   vertex 0.028183 -0.0506635 -1
  endloop
 endfacet
 facet normal 0.9553 0.295637 -0
  outer loop
   vertex 0.028183 -0.0506635 -1
   vertex 0.028183 -0.0506635 1
   vertex 0.0283248 -0.0511217 1
  endloop
 endfacet
 facet normal 0.9553 0.295637 0
  outer loop
   vertex 0.028183 -0.0506635 -1
   vertex 0.0283248 -0.0511217 1
   vertex 0.0283248 -0.0511217 -1
  endloop
 endfacet
 facet normal 0.964071 0.265645 -0
  outer loop
   vertex 0.0283248 -0.0511217 -1
   vertex 0.0283248 -0.0511217 1
   vertex 0.0284522 -0.051584 1
  endloop
 endfacet
 facet normal 0.964071 0.265645 0
  outer loop
   vertex 0.0283248 -0.0511217 -1
   vertex 0.0284522 -0.051584 1
   vertex 0.0284522 -0.051584 -1
  endloop
 endfacet
 facet normal 0.971801 0.235804 -0
  outer loop
   vertex 0.0284522 -0.051584 -1
   vertex 0.0284522 -0.051584 1
   vertex 0.0285653 -0.0520501 1
  endloop
 endfacet
 facet normal 0.971801 0.235804 0
  outer loop
   vertex 0.0284522 -0.051584 -1
   vertex 0.0285653 -0.0520501 1
   vertex 0.0285653 -0.0520501 -1
  endloop
 endfacet
 facet normal 0.978642 0.205572 -0
  outer loop
   vertex 0.0285653 -0.0520501 -1
   vertex 0.0285653 -0.0520501 1
   vertex 0.0286639 -0.0525195 1
  endloop
 endfacet
 facet normal 0.978642 0.205572 0
  outer loop
   vertex 0.0285653 -0.0520501 -1
   vertex 0.0286639 -0.0525195 1
   vertex 0.0286639 -0.0525195 -1
  endloop
 endfacet
 facet normal 0.98458 0.174934 -0
  outer loop
   vertex 0.0286639 -0.0525195 -1
   vertex 0.0286639 -0.0525195 1
   vertex 0.0287478 -0.0529918 1
  endloop
 endfacet
 facet normal 0.98458 0.174934 0
  outer loop
   vertex 0.0286639 -0.0525195 -1
   vertex 0.0287478 -0.0529918 1
   vertex 0.0287478 -0.0529918 -1
  endloop
 endfacet
 facet normal 0.989537 0.14428 -0
  outer loop
   vertex 0.0287478 -0.0529918 -1
   vertex 0.0287478 -0.0529918 1
   vertex 0.028817 -0.0534663 1
  endloop
 endfacet
 facet normal 0.989537 0.14428 0
  outer loop
   vertex 0.0287478 -0.0529918 -1
   vertex 0.028817 -0.0534663 1
   vertex 0.028817 -0.0534663 -1
  endloop
 endfacet
 facet normal 0.993523 0.113634 -0
  outer loop
   vertex 0.028817 -0.0534663 -1
   vertex 0.028817 -0.0534663 1
   vertex 0.0288715 -0.0539429 1
  endloop
 endfacet
 facet normal 0.993523 0.113634 0
  outer loop
   vertex 0.028817 -0.0534663 -1
   vertex 0.0288715 -0.0539429 1
   vertex 0.0288715 -0.0539429 -1
  endloop
 endfacet
 facet normal 0.996569 0.0827699 -0
  outer loop
   vertex 0.0288715 -0.0539429 -1
   vertex 0.0288715 -0.0539429 1
   vertex 0.0289112 -0.0544208 1
  endloop
 endfacet
 facet normal 0.996569 0.0827699 0
  outer loop
   vertex 0.0288715 -0.0539429 -1
   vertex 0.0289112 -0.0544208 1
   vertex 0.0289112 -0.0544208 -1
  endloop
 endfacet
 facet normal 0.998662 0.0517087 -0
  outer loop
   vertex 0.0289112 -0.0544208 -1
   vertex 0.0289112 -0.0544208 1
   vertex 0.028936 -0.0548998 1
  endloop
 endfacet
 facet normal 0.998662 0.0517087 0
  outer loop
   vertex 0.0289112 -0.0544208 -1
   vertex 0.028936 -0.0548998 1
   vertex 0.028936 -0.0548998 -1
  endloop
 endfacet
 facet normal 0.999783 0.0208469 -0
  outer loop
   vertex 0.028936 -0.0548998 -1
   vertex 0.028936 -0.0548998 1
   vertex 0.028946 -0.0553794 1
  endloop
 endfacet
 facet normal 0.999783 0.0208469 0
  outer loop
   vertex 0.028936 -0.0548998 -1
   vertex 0.028946 -0.0553794 1
   vertex 0.028946 -0.0553794 -1
  endloop
 endfacet
 facet normal 0.999946 -0.0104234 0
  outer loop
   vertex 0.028946 -0.0553794 -1
   vertex 0.028946 -0.0553794 1
   vertex 0.028941 -0.055859 1
  endloop
 endfacet
 facet normal 0.999946 -0.0104234 0
  outer loop
   vertex 0.028946 -0.0553794 -1
   vertex 0.028941 -0.055859 1
   vertex 0.028941 -0.055859 -1
  endloop
 endfacet
 facet normal 0.999148 -0.0412792 0
  outer loop
   vertex 0.028941 -0.055859 -1
   vertex 0.028941 -0.055859 1
   vertex 0.0289212 -0.0563382 1
  endloop
 endfacet
 facet normal 0.999148 -0.0412792 0
  outer loop
   vertex 0.028941 -0.055859 -1
   vertex 0.0289212 -0.0563382 1
   vertex 0.0289212 -0.0563382 -1
  endloop
 endfacet
 facet normal 0.997379 -0.0723538 0
  outer loop
   vertex 0.0289212 -0.0563382 -1
   vertex 0.0289212 -0.0563382 1
   vertex 0.0288865 -0.0568165 1
  endloop
 endfacet
 facet normal 0.997379 -0.0723538 0
  outer loop
   vertex 0.0289212 -0.0563382 -1
   vertex 0.0288865 -0.0568165 1
   vertex 0.0288865 -0.0568165 -1
  endloop
 endfacet
 facet normal 0.994639 -0.103407 0
  outer loop
   vertex 0.0288865 -0.0568165 -1
   vertex 0.0288865 -0.0568165 1
   vertex 0.0288369 -0.0572936 1
  endloop
 endfacet
 facet normal 0.994639 -0.103407 0
  outer loop
   vertex 0.0288865 -0.0568165 -1
   vertex 0.0288369 -0.0572936 1
   vertex 0.0288369 -0.0572936 -1
  endloop
 endfacet
 facet normal -0.156404 -0.987693 -0
  outer loop
   vertex 0.0281633 -0.057783 1
   vertex 0.027867 -0.0577361 1
   vertex 0.0281633 -0.057783 -1
  endloop
 endfacet
 facet normal -0.156404 -0.987693 0
  outer loop
   vertex 0.0281633 -0.057783 -1
   vertex 0.027867 -0.0577361 1
   vertex 0.027867 -0.0577361 -1
  endloop
 endfacet
 facet normal -0.990081 0.140494 0
  outer loop
   vertex 0.027867 -0.0577361 -1
   vertex 0.027867 -0.0577361 1
   vertex 0.0279327 -0.0572731 -1
  endloop
 endfacet
 facet normal -0.990081 0.140494 0
  outer loop
   vertex 0.0279327 -0.0572731 -1
   vertex 0.027867 -0.0577361 1
   vertex 0.0279327 -0.0572731 1
  endloop
 endfacet
 facet normal -0.994082 0.108633 0
  outer loop
   vertex 0.0279327 -0.0572731 -1
   vertex 0.0279327 -0.0572731 1
   vertex 0.0279835 -0.0568083 -1
  endloop
 endfacet
 facet normal -0.994082 0.108633 0
  outer loop
   vertex 0.0279835 -0.0568083 -1
   vertex 0.0279327 -0.0572731 1
   vertex 0.0279835 -0.0568083 1
  endloop
 endfacet
 facet normal -0.997049 0.0767664 0
  outer loop
   vertex 0.0279835 -0.0568083 -1
   vertex 0.0279835 -0.0568083 1
   vertex 0.0280194 -0.056342 -1
  endloop
 endfacet
 facet normal -0.997049 0.0767664 0
  outer loop
   vertex 0.0280194 -0.056342 -1
   vertex 0.0279835 -0.0568083 1
   vertex 0.0280194 -0.056342 1
  endloop
 endfacet
 facet normal -0.99901 0.0444816 0
  outer loop
   vertex 0.0280194 -0.056342 -1
   vertex 0.0280194 -0.056342 1
   vertex 0.0280402 -0.0558748 -1
  endloop
 endfacet
 facet normal -0.99901 0.0444816 0
  outer loop
   vertex 0.0280402 -0.0558748 -1
   vertex 0.0280194 -0.056342 1
   vertex 0.0280402 -0.0558748 1
  endloop
 endfacet
 facet normal -0.99992 0.0126147 0
  outer loop
   vertex 0.0280402 -0.0558748 -1
   vertex 0.0280402 -0.0558748 1
   vertex 0.0280461 -0.0554072 -1
  endloop
 endfacet
 facet normal -0.99992 0.0126147 0
  outer loop
   vertex 0.0280461 -0.0554072 -1
   vertex 0.0280402 -0.0558748 1
   vertex 0.0280461 -0.0554072 1
  endloop
 endfacet
 facet normal -0.999806 -0.0196728 0
  outer loop
   vertex 0.0280461 -0.0554072 -1
   vertex 0.0280461 -0.0554072 1
   vertex 0.0280369 -0.0549397 -1
  endloop
 endfacet
 facet normal -0.999806 -0.0196728 0
  outer loop
   vertex 0.0280369 -0.0549397 -1
   vertex 0.0280461 -0.0554072 1
   vertex 0.0280369 -0.0549397 1
  endloop
 endfacet
 facet normal -0.998649 -0.051963 0
  outer loop
   vertex 0.0280369 -0.0549397 -1
   vertex 0.0280369 -0.0549397 1
   vertex 0.0280126 -0.0544727 -1
  endloop
 endfacet
 facet normal -0.998649 -0.051963 0
  outer loop
   vertex 0.0280126 -0.0544727 -1
   vertex 0.0280369 -0.0549397 1
   vertex 0.0280126 -0.0544727 1
  endloop
 endfacet
 facet normal -0.99648 -0.0838263 0
  outer loop
   vertex 0.0280126 -0.0544727 -1
   vertex 0.0280126 -0.0544727 1
   vertex 0.0279734 -0.0540067 -1
  endloop
 endfacet
 facet normal -0.99648 -0.0838263 0
  outer loop
   vertex 0.0279734 -0.0540067 -1
   vertex 0.0280126 -0.0544727 1
   vertex 0.0279734 -0.0540067 1
  endloop
 endfacet
 facet normal -0.993285 -0.115693 0
  outer loop
   vertex 0.0279734 -0.0540067 -1
   vertex 0.0279734 -0.0540067 1
   vertex 0.0279193 -0.0535422 -1
  endloop
 endfacet
 facet normal -0.993285 -0.115693 0
  outer loop
   vertex 0.0279193 -0.0535422 -1
   vertex 0.0279734 -0.0540067 1
   vertex 0.0279193 -0.0535422 1
  endloop
 endfacet
 facet normal -0.989022 -0.147766 0
  outer loop
   vertex 0.0279193 -0.0535422 -1
   vertex 0.0279193 -0.0535422 1
   vertex 0.0278502 -0.0530797 -1
  endloop
 endfacet
 facet normal -0.989022 -0.147766 0
  outer loop
   vertex 0.0278502 -0.0530797 -1
   vertex 0.0279193 -0.0535422 1
   vertex 0.0278502 -0.0530797 1
  endloop
 endfacet
 facet normal -0.983774 -0.179414 0
  outer loop
   vertex 0.0278502 -0.0530797 -1
   vertex 0.0278502 -0.0530797 1
   vertex 0.0277663 -0.0526197 -1
  endloop
 endfacet
 facet normal -0.983774 -0.179414 0
  outer loop
   vertex 0.0277663 -0.0526197 -1
   vertex 0.0278502 -0.0530797 1
   vertex 0.0277663 -0.0526197 1
  endloop
 endfacet
 facet normal -0.977518 -0.210851 0
  outer loop
   vertex 0.0277663 -0.0526197 -1
   vertex 0.0277663 -0.0526197 1
   vertex 0.0276677 -0.0521626 -1
  endloop
 endfacet
 facet normal -0.977518 -0.210851 0
  outer loop
   vertex 0.0276677 -0.0521626 -1
   vertex 0.0277663 -0.0526197 1
   vertex 0.0276677 -0.0521626 1
  endloop
 endfacet
 facet normal -0.970258 -0.242075 0
  outer loop
   vertex 0.0276677 -0.0521626 -1
   vertex 0.0276677 -0.0521626 1
   vertex 0.0275545 -0.0517089 -1
  endloop
 endfacet
 facet normal -0.970258 -0.242075 0
  outer loop
   vertex 0.0275545 -0.0517089 -1
   vertex 0.0276677 -0.0521626 1
   vertex 0.0275545 -0.0517089 1
  endloop
 endfacet
 facet normal -0.96193 -0.273295 0
  outer loop
   vertex 0.0275545 -0.0517089 -1
   vertex 0.0275545 -0.0517089 1
   vertex 0.0274267 -0.051259 -1
  endloop
 endfacet
 facet normal -0.96193 -0.273295 0
  outer loop
   vertex 0.0274267 -0.051259 -1
   vertex 0.0275545 -0.0517089 1
   vertex 0.0274267 -0.051259 1
  endloop
 endfacet
 facet normal -0.95271 -0.303882 0
  outer loop
   vertex 0.0274267 -0.051259 -1
   vertex 0.0274267 -0.051259 1
   vertex 0.0272846 -0.0508135 -1
  endloop
 endfacet
 facet normal -0.95271 -0.303882 0
  outer loop
   vertex 0.0272846 -0.0508135 -1
   vertex 0.0274267 -0.051259 1
   vertex 0.0272846 -0.0508135 1
  endloop
 endfacet
 facet normal -0.942343 -0.334648 0
  outer loop
   vertex 0.0272846 -0.0508135 -1
   vertex 0.0272846 -0.0508135 1
   vertex 0.0271281 -0.0503728 -1
  endloop
 endfacet
 facet normal -0.942343 -0.334648 0
  outer loop
   vertex 0.0271281 -0.0503728 -1
   vertex 0.0272846 -0.0508135 1
   vertex 0.0271281 -0.0503728 1
  endloop
 endfacet
 facet normal -0.931238 -0.364412 0
  outer loop
   vertex 0.0271281 -0.0503728 -1
   vertex 0.0271281 -0.0503728 1
   vertex 0.0269577 -0.0499374 -1
  endloop
 endfacet
 facet normal -0.931238 -0.364412 0
  outer loop
   vertex 0.0269577 -0.0499374 -1
   vertex 0.0271281 -0.0503728 1
   vertex 0.0269577 -0.0499374 1
  endloop
 endfacet
 facet normal -0.91897 -0.394327 0
  outer loop
   vertex 0.0269577 -0.0499374 -1
   vertex 0.0269577 -0.0499374 1
   vertex 0.0267733 -0.0495076 -1
  endloop
 endfacet
 facet normal -0.91897 -0.394327 0
  outer loop
   vertex 0.0267733 -0.0495076 -1
   vertex 0.0269577 -0.0499374 1
   vertex 0.0267733 -0.0495076 1
  endloop
 endfacet
 facet normal -0.90584 -0.423619 0
  outer loop
   vertex 0.0267733 -0.0495076 -1
   vertex 0.0267733 -0.0495076 1
   vertex 0.0265752 -0.049084 -1
  endloop
 endfacet
 facet normal -0.90584 -0.423619 0
  outer loop
   vertex 0.0265752 -0.049084 -1
   vertex 0.0267733 -0.0495076 1
   vertex 0.0265752 -0.049084 1
  endloop
 endfacet
 facet normal -0.891767 -0.452495 0
  outer loop
   vertex 0.0265752 -0.049084 -1
   vertex 0.0265752 -0.049084 1
   vertex 0.0263636 -0.048667 -1
  endloop
 endfacet
 facet normal -0.891767 -0.452495 0
  outer loop
   vertex 0.0263636 -0.048667 -1
   vertex 0.0265752 -0.049084 1
   vertex 0.0263636 -0.048667 1
  endloop
 endfacet
 facet normal -0.876758 -0.480933 0
  outer loop
   vertex 0.0263636 -0.048667 -1
   vertex 0.0263636 -0.048667 1
   vertex 0.0261387 -0.048257 -1
  endloop
 endfacet
 facet normal -0.876758 -0.480933 0
  outer loop
   vertex 0.0261387 -0.048257 -1
   vertex 0.0263636 -0.048667 1
   vertex 0.0261387 -0.048257 1
  endloop
 endfacet
 facet normal -0.860906 -0.508764 0
  outer loop
   vertex 0.0261387 -0.048257 -1
   vertex 0.0261387 -0.048257 1
   vertex 0.0259008 -0.0478545 -1
  endloop
 endfacet
 facet normal -0.860906 -0.508764 0
  outer loop
   vertex 0.0259008 -0.0478545 -1
   vertex 0.0261387 -0.048257 1
   vertex 0.0259008 -0.0478545 1
  endloop
 endfacet
 facet normal -0.844026 -0.536303 0
  outer loop
   vertex 0.0259008 -0.0478545 -1
   vertex 0.0259008 -0.0478545 1
   vertex 0.02565 -0.0474598 -1
  endloop
 endfacet
 facet normal -0.844026 -0.536303 0
  outer loop
   vertex 0.02565 -0.0474598 -1
   vertex 0.0259008 -0.0478545 1
   vertex 0.02565 -0.0474598 1
  endloop
 endfacet
 facet normal -0.826415 -0.563061 0
  outer loop
   vertex 0.02565 -0.0474598 -1
   vertex 0.02565 -0.0474598 1
   vertex 0.0253867 -0.0470733 -1
  endloop
 endfacet
 facet normal -0.826415 -0.563061 0
  outer loop
   vertex 0.0253867 -0.0470733 -1
   vertex 0.02565 -0.0474598 1
   vertex 0.0253867 -0.0470733 1
  endloop
 endfacet
 facet normal -0.807876 -0.589352 0
  outer loop
   vertex 0.0253867 -0.0470733 -1
   vertex 0.0253867 -0.0470733 1
   vertex 0.0251111 -0.0466955 -1
  endloop
 endfacet
 facet normal -0.807876 -0.589352 0
  outer loop
   vertex 0.0251111 -0.0466955 -1
   vertex 0.0253867 -0.0470733 1
   vertex 0.0251111 -0.0466955 1
  endloop
 endfacet
 facet normal -0.78852 -0.615009 0
  outer loop
   vertex 0.0251111 -0.0466955 -1
   vertex 0.0251111 -0.0466955 1
   vertex 0.0248235 -0.0463268 -1
  endloop
 endfacet
 facet normal -0.78852 -0.615009 0
  outer loop
   vertex 0.0248235 -0.0463268 -1
   vertex 0.0251111 -0.0466955 1
   vertex 0.0248235 -0.0463268 1
  endloop
 endfacet
 facet normal -0.768345 -0.640036 0
  outer loop
   vertex 0.0248235 -0.0463268 -1
   vertex 0.0248235 -0.0463268 1
   vertex 0.0245242 -0.0459675 -1
  endloop
 endfacet
 facet normal -0.768345 -0.640036 0
  outer loop
   vertex 0.0245242 -0.0459675 -1
   vertex 0.0248235 -0.0463268 1
   vertex 0.0245242 -0.0459675 1
  endloop
 endfacet
 facet normal -0.747383 -0.664394 0
  outer loop
   vertex 0.0245242 -0.0459675 -1
   vertex 0.0245242 -0.0459675 1
   vertex 0.0242135 -0.045618 -1
  endloop
 endfacet
 facet normal -0.747383 -0.664394 0
  outer loop
   vertex 0.0242135 -0.045618 -1
   vertex 0.0245242 -0.0459675 1
   vertex 0.0242135 -0.045618 1
  endloop
 endfacet
 facet normal -0.725727 -0.687983 0
  outer loop
   vertex 0.0242135 -0.045618 -1
   vertex 0.0242135 -0.045618 1
   vertex 0.0238918 -0.0452786 -1
  endloop
 endfacet
 facet normal -0.725727 -0.687983 0
  outer loop
   vertex 0.0238918 -0.0452786 -1
   vertex 0.0242135 -0.045618 1
   vertex 0.0238918 -0.0452786 1
  endloop
 endfacet
 facet normal -0.703162 -0.711029 0
  outer loop
   vertex 0.0238918 -0.0452786 -1
   vertex 0.0238918 -0.0452786 1
   vertex 0.0235593 -0.0449498 -1
  endloop
 endfacet
 facet normal -0.703162 -0.711029 0
  outer loop
   vertex 0.0235593 -0.0449498 -1
   vertex 0.0238918 -0.0452786 1
   vertex 0.0235593 -0.0449498 1
  endloop
 endfacet
 facet normal -0.679961 -0.733249 0
  outer loop
   vertex 0.0235593 -0.0449498 -1
   vertex 0.0235593 -0.0449498 1
   vertex 0.0232164 -0.0446318 -1
  endloop
 endfacet
 facet normal -0.679961 -0.733249 0
  outer loop
   vertex 0.0232164 -0.0446318 -1
   vertex 0.0235593 -0.0449498 1
   vertex 0.0232164 -0.0446318 1
  endloop
 endfacet
 facet normal -0.656094 -0.75468 0
  outer loop
   vertex 0.0232164 -0.0446318 -1
   vertex 0.0232164 -0.0446318 1
   vertex 0.0228635 -0.044325 -1
  endloop
 endfacet
 facet normal -0.656094 -0.75468 0
  outer loop
   vertex 0.0228635 -0.044325 -1
   vertex 0.0232164 -0.0446318 1
   vertex 0.0228635 -0.044325 1
  endloop
 endfacet
 facet normal -0.631479 -0.775393 0
  outer loop
   vertex 0.0228635 -0.044325 -1
   vertex 0.0228635 -0.044325 1
   vertex 0.0225009 -0.0440297 -1
  endloop
 endfacet
 facet normal -0.631479 -0.775393 0
  outer loop
   vertex 0.0225009 -0.0440297 -1
   vertex 0.0228635 -0.044325 1
   vertex 0.0225009 -0.0440297 1
  endloop
 endfacet
 facet normal -0.606228 -0.795291 0
  outer loop
   vertex 0.0225009 -0.0440297 -1
   vertex 0.0225009 -0.0440297 1
   vertex 0.022129 -0.0437462 -1
  endloop
 endfacet
 facet normal -0.606228 -0.795291 0
  outer loop
   vertex 0.022129 -0.0437462 -1
   vertex 0.0225009 -0.0440297 1
   vertex 0.022129 -0.0437462 1
  endloop
 endfacet
 facet normal -0.580389 -0.814339 0
  outer loop
   vertex 0.022129 -0.0437462 -1
   vertex 0.022129 -0.0437462 1
   vertex 0.0217482 -0.0434748 -1
  endloop
 endfacet
 facet normal -0.580389 -0.814339 0
  outer loop
   vertex 0.0217482 -0.0434748 -1
   vertex 0.022129 -0.0437462 1
   vertex 0.0217482 -0.0434748 1
  endloop
 endfacet
 facet normal -0.55384 -0.832623 0
  outer loop
   vertex 0.0217482 -0.0434748 -1
   vertex 0.0217482 -0.0434748 1
   vertex 0.0213588 -0.0432158 -1
  endloop
 endfacet
 facet normal -0.55384 -0.832623 0
  outer loop
   vertex 0.0213588 -0.0432158 -1
   vertex 0.0217482 -0.0434748 1
   vertex 0.0213588 -0.0432158 1
  endloop
 endfacet
 facet normal -0.526944 -0.8499 0
  outer loop
   vertex 0.0213588 -0.0432158 -1
   vertex 0.0213588 -0.0432158 1
   vertex 0.0209614 -0.0429694 -1
  endloop
 endfacet
 facet normal -0.526944 -0.8499 0
  outer loop
   vertex 0.0209614 -0.0429694 -1
   vertex 0.0213588 -0.0432158 1
   vertex 0.0209614 -0.0429694 1
  endloop
 endfacet
 facet normal -0.499258 -0.866453 0
  outer loop
   vertex 0.0209614 -0.0429694 -1
   vertex 0.0209614 -0.0429694 1
   vertex 0.0205562 -0.0427359 -1
  endloop
 endfacet
 facet normal -0.499258 -0.866453 0
  outer loop
   vertex 0.0205562 -0.0427359 -1
   vertex 0.0209614 -0.0429694 1
   vertex 0.0205562 -0.0427359 1
  endloop
 endfacet
 facet normal -0.471171 -0.882042 0
  outer loop
   vertex 0.0205562 -0.0427359 -1
   vertex 0.0205562 -0.0427359 1
   vertex 0.0201437 -0.0425156 -1
  endloop
 endfacet
 facet normal -0.471171 -0.882042 0
  outer loop
   vertex 0.0201437 -0.0425156 -1
   vertex 0.0205562 -0.0427359 1
   vertex 0.0201437 -0.0425156 1
  endloop
 endfacet
 facet normal -0.442623 -0.896708 0
  outer loop
   vertex 0.0201437 -0.0425156 -1
   vertex 0.0201437 -0.0425156 1
   vertex 0.0197244 -0.0423086 -1
  endloop
 endfacet
 facet normal -0.442623 -0.896708 0
  outer loop
   vertex 0.0197244 -0.0423086 -1
   vertex 0.0201437 -0.0425156 1
   vertex 0.0197244 -0.0423086 1
  endloop
 endfacet
 facet normal -0.413643 -0.910439 0
  outer loop
   vertex 0.0197244 -0.0423086 -1
   vertex 0.0197244 -0.0423086 1
   vertex 0.0192987 -0.0421152 -1
  endloop
 endfacet
 facet normal -0.413643 -0.910439 0
  outer loop
   vertex 0.0192987 -0.0421152 -1
   vertex 0.0197244 -0.0423086 1
   vertex 0.0192987 -0.0421152 1
  endloop
 endfacet
 facet normal -0.384075 -0.923302 0
  outer loop
   vertex 0.0192987 -0.0421152 -1
   vertex 0.0192987 -0.0421152 1
   vertex 0.0188669 -0.0419356 -1
  endloop
 endfacet
 facet normal -0.384075 -0.923302 0
  outer loop
   vertex 0.0188669 -0.0419356 -1
   vertex 0.0192987 -0.0421152 1
   vertex 0.0188669 -0.0419356 1
  endloop
 endfacet
 facet normal -0.354237 -0.935156 0
  outer loop
   vertex 0.0188669 -0.0419356 -1
   vertex 0.0188669 -0.0419356 1
   vertex 0.0184296 -0.0417699 -1
  endloop
 endfacet
 facet normal -0.354237 -0.935156 0
  outer loop
   vertex 0.0184296 -0.0417699 -1
   vertex 0.0188669 -0.0419356 1
   vertex 0.0184296 -0.0417699 1
  endloop
 endfacet
 facet normal -0.324018 -0.946051 0
  outer loop
   vertex 0.0184296 -0.0417699 -1
   vertex 0.0184296 -0.0417699 1
   vertex 0.0179872 -0.0416184 -1
  endloop
 endfacet
 facet normal -0.324018 -0.946051 0
  outer loop
   vertex 0.0179872 -0.0416184 -1
   vertex 0.0184296 -0.0417699 1
   vertex 0.0179872 -0.0416184 1
  endloop
 endfacet
 facet normal -0.293464 -0.95597 0
  outer loop
   vertex 0.0179872 -0.0416184 -1
   vertex 0.0179872 -0.0416184 1
   vertex 0.0175402 -0.0414812 -1
  endloop
 endfacet
 facet normal -0.293464 -0.95597 0
  outer loop
   vertex 0.0175402 -0.0414812 -1
   vertex 0.0179872 -0.0416184 1
   vertex 0.0175402 -0.0414812 1
  endloop
 endfacet
 facet normal -0.262556 -0.964917 0
  outer loop
   vertex 0.0175402 -0.0414812 -1
   vertex 0.0175402 -0.0414812 1
   vertex 0.0170889 -0.0413584 -1
  endloop
 endfacet
 facet normal -0.262556 -0.964917 0
  outer loop
   vertex 0.0170889 -0.0413584 -1
   vertex 0.0175402 -0.0414812 1
   vertex 0.0170889 -0.0413584 1
  endloop
 endfacet
 facet normal -0.231439 -0.972849 0
  outer loop
   vertex 0.0170889 -0.0413584 -1
   vertex 0.0170889 -0.0413584 1
   vertex 0.016634 -0.0412502 -1
  endloop
 endfacet
 facet normal -0.231439 -0.972849 0
  outer loop
   vertex 0.016634 -0.0412502 -1
   vertex 0.0170889 -0.0413584 1
   vertex 0.016634 -0.0412502 1
  endloop
 endfacet
 facet normal -0.200062 -0.979783 0
  outer loop
   vertex 0.016634 -0.0412502 -1
   vertex 0.016634 -0.0412502 1
   vertex 0.0161758 -0.0411566 -1
  endloop
 endfacet
 facet normal -0.200062 -0.979783 0
  outer loop
   vertex 0.0161758 -0.0411566 -1
   vertex 0.016634 -0.0412502 1
   vertex 0.0161758 -0.0411566 1
  endloop
 endfacet
 facet normal -0.168504 -0.985701 0
  outer loop
   vertex 0.0161758 -0.0411566 -1
   vertex 0.0161758 -0.0411566 1
   vertex 0.0157149 -0.0410778 -1
  endloop
 endfacet
 facet normal -0.168504 -0.985701 0
  outer loop
   vertex 0.0157149 -0.0410778 -1
   vertex 0.0161758 -0.0411566 1
   vertex 0.0157149 -0.0410778 1
  endloop
 endfacet
 facet normal -0.136693 -0.990613 0
  outer loop
   vertex 0.0157149 -0.0410778 -1
   vertex 0.0157149 -0.0410778 1
   vertex 0.0152516 -0.0410139 -1
  endloop
 endfacet
 facet normal -0.136693 -0.990613 0
  outer loop
   vertex 0.0152516 -0.0410139 -1
   vertex 0.0157149 -0.0410778 1
   vertex 0.0152516 -0.0410139 1
  endloop
 endfacet
 facet normal -0.104796 -0.994494 0
  outer loop
   vertex 0.0152516 -0.0410139 -1
   vertex 0.0152516 -0.0410139 1
   vertex 0.0147866 -0.0409649 -1
  endloop
 endfacet
 facet normal -0.104796 -0.994494 0
  outer loop
   vertex 0.0147866 -0.0409649 -1
   vertex 0.0152516 -0.0410139 1
   vertex 0.0147866 -0.0409649 1
  endloop
 endfacet
 facet normal -0.072854 -0.997343 0
  outer loop
   vertex 0.0147866 -0.0409649 -1
   vertex 0.0147866 -0.0409649 1
   vertex 0.0143202 -0.0409308 -1
  endloop
 endfacet
 facet normal -0.072854 -0.997343 0
  outer loop
   vertex 0.0143202 -0.0409308 -1
   vertex 0.0147866 -0.0409649 1
   vertex 0.0143202 -0.0409308 1
  endloop
 endfacet
 facet normal -0.0406986 -0.999171 0
  outer loop
   vertex 0.0143202 -0.0409308 -1
   vertex 0.0143202 -0.0409308 1
   vertex 0.013853 -0.0409118 -1
  endloop
 endfacet
 facet normal -0.0406986 -0.999171 0
  outer loop
   vertex 0.013853 -0.0409118 -1
   vertex 0.0143202 -0.0409308 1
   vertex 0.013853 -0.0409118 1
  endloop
 endfacet
 facet normal -0.999844 -0.0176643 -0
  outer loop
   vertex 0.0132295 -0.0403097 1
   vertex 0.0132242 -0.0400097 1
   vertex 0.0132295 -0.0403097 -1
  endloop
 endfacet
 facet normal -0.999844 -0.0176643 0
  outer loop
   vertex 0.0132295 -0.0403097 -1
   vertex 0.0132242 -0.0400097 1
   vertex 0.0132242 -0.0400097 -1
  endloop
 endfacet
 facet normal 0 0 -1
  outer loop
   vertex 0.0132295 -0.0403097 -1
   vertex 0.0132242 -0.0400097 -1
   vertex 0.013853 -0.0409118 -1
  endloop
 endfacet
 facet normal 0 0 -1
  outer loop
   vertex 0.013853 -0.0409118 -1
   vertex 0.0132242 -0.0400097 -1
   vertex 0.0137038 -0.0400087 -1
  endloop
 endfacet
 facet normal 0 0 -1
  outer loop
   vertex 0.013853 -0.0409118 -1
   vertex 0.0137038 -0.0400087 -1
   vertex 0.0143202 -0.0409308 -1
  endloop
 endfacet
 facet normal 0 0 -1
  outer loop
   vertex 0.0143202 -0.0409308 -1
   vertex 0.0137038 -0.0400087 -1
   vertex 0.0141832 -0.0400227 -1
  endloop
 endfacet
 facet normal 0 0 -1
  outer loop
   vertex 0.0143202 -0.0409308 -1
   vertex 0.0141832 -0.0400227 -1
   vertex 0.0147866 -0.0409649 -1
  endloop
 endfacet
 facet normal 0 0 -1
  outer loop
   vertex 0.0147866 -0.0409649 -1
   vertex 0.0141832 -0.0400227 -1
   vertex 0.014662 -0.0400516 -1
  endloop
 endfacet
 facet normal 0 0 -1
  outer loop
   vertex 0.0147866 -0.0409649 -1
   vertex 0.014662 -0.0400516 -1
   vertex 0.0152516 -0.0410139 -1
  endloop
 endfacet
 facet normal 0 0 -1
  outer loop
   vertex 0.0152516 -0.0410139 -1
   vertex 0.014662 -0.0400516 -1
   vertex 0.0151397 -0.0400953 -1
  endloop
 endfacet
 facet normal 0 0 -1
  outer loop
   vertex 0.0152516 -0.0410139 -1
   vertex 0.0151397 -0.0400953 -1
   vertex 0.0157149 -0.0410778 -1
  endloop
 endfacet
 facet normal 0 0 -1
  outer loop
   vertex 0.0281633 -0.057783 -1
   vertex 0.027867 -0.0577361 -1
   vertex 0.0288369 -0.0572936 -1
  endloop
 endfacet
 facet normal -0 0 -1
  outer loop
   vertex 0.0288369 -0.0572936 -1
   vertex 0.027867 -0.0577361 -1
   vertex 0.0279327 -0.0572731 -1
  endloop
 endfacet
 facet normal 0 0 -1
  outer loop
   vertex 0.0288369 -0.0572936 -1
   vertex 0.0279327 -0.0572731 -1
   vertex 0.0288865 -0.0568165 -1
  endloop
 endfacet
 facet normal -0 0 -1
  outer loop
   vertex 0.0288865 -0.0568165 -1
   vertex 0.0279327 -0.0572731 -1
   vertex 0.0279835 -0.0568083 -1
  endloop
 endfacet
 facet normal 0 0 -1
  outer loop
   vertex 0.0288865 -0.0568165 -1
   vertex 0.0279835 -0.0568083 -1
   vertex 0.0289212 -0.0563382 -1
  endloop
 endfacet
 facet normal 0 0 -1
  outer loop
   vertex 0.0289212 -0.0563382 -1
   vertex 0.0279835 -0.0568083 -1
   vertex 0.0280194 -0.056342 -1
  endloop
 endfacet
 facet normal -0 0 -1
  outer loop
   vertex 0.0289212 -0.0563382 -1
   vertex 0.0280194 -0.056342 -1
   vertex 0.028941 -0.055859 -1
  endloop
 endfacet
 facet normal 0 0 -1
  outer loop
   vertex 0.028941 -0.055859 -1
   vertex 0.0280194 -0.056342 -1
   vertex 0.0280402 -0.0558748 -1
  endloop
 endfacet
 facet normal -0 0 -1
  outer loop
   vertex 0.028941 -0.055859 -1
   vertex 0.0280402 -0.0558748 -1
   vertex 0.028946 -0.0553794 -1
  endloop
 endfacet
 facet normal 0 0 -1
  outer loop
   vertex 0.028946 -0.0553794 -1
   vertex 0.0280402 -0.0558748 -1
   vertex 0.0280461 -0.0554072 -1
  endloop
 endfacet
 facet normal -0 0 -1
  outer loop
   vertex 0.028946 -0.0553794 -1
   vertex 0.0280461 -0.0554072 -1
   vertex 0.028936 -0.0548998 -1
  endloop
 endfacet
 facet normal 0 0 -1
  outer loop
   vertex 0.028936 -0.0548998 -1
   vertex 0.0280461 -0.0554072 -1
   vertex 0.0280369 -0.0549397 -1
  endloop
 endfacet
 facet normal -0 0 -1
  outer loop
   vertex 0.028936 -0.0548998 -1
   vertex 0.0280369 -0.0549397 -1
   vertex 0.0289112 -0.0544208 -1
  endloop
 endfacet
 facet normal 0 0 -1
  outer loop
   vertex 0.0289112 -0.0544208 -1
   vertex 0.0280369 -0.0549397 -1
   vertex 0.0280126 -0.0544727 -1
  endloop
 endfacet
 facet normal -0 0 -1
  outer loop
   vertex 0.0289112 -0.0544208 -1
   vertex 0.0280126 -0.0544727 -1
   vertex 0.0288715 -0.0539429 -1
  endloop
 endfacet
 facet normal 0 0 -1
  outer loop
   vertex 0.0288715 -0.0539429 -1
   vertex 0.0280126 -0.0544727 -1
   vertex 0.0279734 -0.0540067 -1
  endloop
 endfacet
 facet normal -0 0 -1
  outer loop
   vertex 0.0288715 -0.0539429 -1
   vertex 0.0279734 -0.0540067 -1
   vertex 0.028817 -0.0534663 -1
  endloop
 endfacet
 facet normal 0 0 -1
  outer loop
   vertex 0.028817 -0.0534663 -1
   vertex 0.0279734 -0.0540067 -1
   vertex 0.0279193 -0.0535422 -1
  endloop
 endfacet
 facet normal -0 0 -1
  outer loop
   vertex 0.028817 -0.0534663 -1
   vertex 0.0279193 -0.0535422 -1
   vertex 0.0287478 -0.0529918 -1
  endloop
 endfacet
 facet normal 0 0 -1
  outer loop
   vertex 0.0287478 -0.0529918 -1
   vertex 0.0279193 -0.0535422 -1
   vertex 0.0278502 -0.0530797 -1
  endloop
 endfacet
 facet normal -0 0 -1
  outer loop
   vertex 0.0287478 -0.0529918 -1
   vertex 0.0278502 -0.0530797 -1
   vertex 0.0286639 -0.0525195 -1
  endloop
 endfacet
 facet normal 0 0 -1
  outer loop
   vertex 0.0286639 -0.0525195 -1
   vertex 0.0278502 -0.0530797 -1
   vertex 0.0277663 -0.0526197 -1
  endloop
 endfacet
 facet normal -0 0 -1
  outer loop
   vertex 0.0286639 -0.0525195 -1
   vertex 0.0277663 -0.0526197 -1
   vertex 0.0285653 -0.0520501 -1
  endloop
 endfacet
 facet normal 0 0 -1
  outer loop
   vertex 0.0285653 -0.0520501 -1
   vertex 0.0277663 -0.0526197 -1
   vertex 0.0276677 -0.0521626 -1
  endloop
 endfacet
 facet normal -0 0 -1
  outer loop
   vertex 0.0285653 -0.0520501 -1
   vertex 0.0276677 -0.0521626 -1
   vertex 0.0284522 -0.051584 -1
  endloop
 endfacet
 facet normal 0 0 -1
  outer loop
   vertex 0.0284522 -0.051584 -1
   vertex 0.0276677 -0.0521626 -1
   vertex 0.0275545 -0.0517089 -1
  endloop
 endfacet
 facet normal -0 0 -1
  outer loop
   vertex 0.0284522 -0.051584 -1
   vertex 0.0275545 -0.0517089 -1
   vertex 0.0283248 -0.0511217 -1
  endloop
 endfacet
 facet normal 0 0 -1
  outer loop
   vertex 0.0283248 -0.0511217 -1
   vertex 0.0275545 -0.0517089 -1
   vertex 0.0274267 -0.051259 -1
  endloop
 endfacet
 facet normal -0 0 -1
  outer loop
   vertex 0.0283248 -0.0511217 -1
   vertex 0.0274267 -0.051259 -1
   vertex 0.028183 -0.0506635 -1
  endloop
 endfacet
 facet normal 0 0 -1
  outer loop
   vertex 0.028183 -0.0506635 -1
   vertex 0.0274267 -0.051259 -1
   vertex 0.0272846 -0.0508135 -1
  endloop
 endfacet
 facet normal -0 0 -1
  outer loop
   vertex 0.028183 -0.0506635 -1
   vertex 0.0272846 -0.0508135 -1
   vertex 0.0280271 -0.0502099 -1
  endloop
 endfacet
 facet normal 0 0 -1
  outer loop
   vertex 0.0280271 -0.0502099 -1
   vertex 0.0272846 -0.0508135 -1
   vertex 0.0271281 -0.0503728 -1
  endloop
 endfacet
 facet normal -0 0 -1
  outer loop
   vertex 0.0280271 -0.0502099 -1
   vertex 0.0271281 -0.0503728 -1
   vertex 0.0278571 -0.0497614 -1
  endloop
 endfacet
 facet normal 0 0 -1
  outer loop
   vertex 0.0278571 -0.0497614 -1
   vertex 0.0271281 -0.0503728 -1
   vertex 0.0269577 -0.0499374 -1
  endloop
 endfacet
 facet normal -0 0 -1
  outer loop
   vertex 0.0278571 -0.0497614 -1
   vertex 0.0269577 -0.0499374 -1
   vertex 0.0276734 -0.0493184 -1
  endloop
 endfacet
 facet normal 0 0 -1
  outer loop
   vertex 0.0276734 -0.0493184 -1
   vertex 0.0269577 -0.0499374 -1
   vertex 0.0267733 -0.0495076 -1
  endloop
 endfacet
 facet normal -0 0 -1
  outer loop
   vertex 0.0276734 -0.0493184 -1
   vertex 0.0267733 -0.0495076 -1
   vertex 0.0274759 -0.0488813 -1
  endloop
 endfacet
 facet normal 0 0 -1
  outer loop
   vertex 0.0274759 -0.0488813 -1
   vertex 0.0267733 -0.0495076 -1
   vertex 0.0265752 -0.049084 -1
  endloop
 endfacet
 facet normal -0 0 -1
  outer loop
   vertex 0.0274759 -0.0488813 -1
   vertex 0.0265752 -0.049084 -1
   vertex 0.0272651 -0.0484505 -1
  endloop
 endfacet
 facet normal 0 0 -1
  outer loop
   vertex 0.0272651 -0.0484505 -1
   vertex 0.0265752 -0.049084 -1
   vertex 0.0263636 -0.048667 -1
  endloop
 endfacet
 facet normal -0 0 -1
  outer loop
   vertex 0.0272651 -0.0484505 -1
   vertex 0.0263636 -0.048667 -1
   vertex 0.0270409 -0.0480265 -1
  endloop
 endfacet
 facet normal 0 0 -1
  outer loop
   vertex 0.0270409 -0.0480265 -1
   vertex 0.0263636 -0.048667 -1
   vertex 0.0261387 -0.048257 -1
  endloop
 endfacet
 facet normal 0 0 -1
  outer loop
   vertex 0.0151397 -0.0400953 -1
   vertex 0.0156157 -0.0401537 -1
   vertex 0.0157149 -0.0410778 -1
  endloop
 endfacet
 facet normal 0 0 -1
  outer loop
   vertex 0.0157149 -0.0410778 -1
   vertex 0.0156157 -0.0401537 -1
   vertex 0.0160897 -0.0402269 -1
  endloop
 endfacet
 facet normal 0 0 -1
  outer loop
   vertex 0.0157149 -0.0410778 -1
   vertex 0.0160897 -0.0402269 -1
   vertex 0.0161758 -0.0411566 -1
  endloop
 endfacet
 facet normal 0 0 -1
  outer loop
   vertex 0.0161758 -0.0411566 -1
   vertex 0.0160897 -0.0402269 -1
   vertex 0.0165612 -0.0403148 -1
  endloop
 endfacet
 facet normal 0 0 -1
  outer loop
   vertex 0.0161758 -0.0411566 -1
   vertex 0.0165612 -0.0403148 -1
   vertex 0.016634 -0.0412502 -1
  endloop
 endfacet
 facet normal 0 0 -1
  outer loop
   vertex 0.016634 -0.0412502 -1
   vertex 0.0165612 -0.0403148 -1
   vertex 0.0170297 -0.0404173 -1
  endloop
 endfacet
 facet normal 0 0 -1
  outer loop
   vertex 0.016634 -0.0412502 -1
   vertex 0.0170297 -0.0404173 -1
   vertex 0.0170889 -0.0413584 -1
  endloop
 endfacet
 facet normal 0 0 -1
  outer loop
   vertex 0.0170889 -0.0413584 -1
   vertex 0.0170297 -0.0404173 -1
   vertex 0.0174949 -0.0405343 -1
  endloop
 endfacet
 facet normal 0 0 -1
  outer loop
   vertex 0.0170889 -0.0413584 -1
   vertex 0.0174949 -0.0405343 -1
   vertex 0.0175402 -0.0414812 -1
  endloop
 endfacet
 facet normal 0 0 -1
  outer loop
   vertex 0.0175402 -0.0414812 -1
   vertex 0.0174949 -0.0405343 -1
   vertex 0.0179561 -0.0406657 -1
  endloop
 endfacet
 facet normal 0 0 -1
  outer loop
   vertex 0.0175402 -0.0414812 -1
   vertex 0.0179561 -0.0406657 -1
   vertex 0.0179872 -0.0416184 -1
  endloop
 endfacet
 facet normal 0 0 -1
  outer loop
   vertex 0.0179872 -0.0416184 -1
   vertex 0.0179561 -0.0406657 -1
   vertex 0.0184131 -0.0408113 -1
  endloop
 endfacet
 facet normal 0 0 -1
  outer loop
   vertex 0.0179872 -0.0416184 -1
   vertex 0.0184131 -0.0408113 -1
   vertex 0.0184296 -0.0417699 -1
  endloop
 endfacet
 facet normal 0 0 -1
  outer loop
   vertex 0.0184296 -0.0417699 -1
   vertex 0.0184131 -0.0408113 -1
   vertex 0.0188654 -0.040971 -1
  endloop
 endfacet
 facet normal 0 0 -1
  outer loop
   vertex 0.0184296 -0.0417699 -1
   vertex 0.0188654 -0.040971 -1
   vertex 0.0188669 -0.0419356 -1
  endloop
 endfacet
 facet normal 0 0 -1
  outer loop
   vertex 0.0188669 -0.0419356 -1
   vertex 0.0188654 -0.040971 -1
   vertex 0.0193125 -0.0411447 -1
  endloop
 endfacet
 facet normal 0 0 -1
  outer loop
   vertex 0.0188669 -0.0419356 -1
   vertex 0.0193125 -0.0411447 -1
   vertex 0.0192987 -0.0421152 -1
  endloop
 endfacet
 facet normal 0 0 -1
  outer loop
   vertex 0.0192987 -0.0421152 -1
   vertex 0.0193125 -0.0411447 -1
   vertex 0.0197539 -0.0413322 -1
  endloop
 endfacet
 facet normal 0 0 -1
  outer loop
   vertex 0.0192987 -0.0421152 -1
   vertex 0.0197539 -0.0413322 -1
   vertex 0.0197244 -0.0423086 -1
  endloop
 endfacet
 facet normal 0 0 -1
  outer loop
   vertex 0.0197244 -0.0423086 -1
   vertex 0.0197539 -0.0413322 -1
   vertex 0.0201894 -0.0415332 -1
  endloop
 endfacet
 facet normal 0 0 -1
  outer loop
   vertex 0.0197244 -0.0423086 -1
   vertex 0.0201894 -0.0415332 -1
   vertex 0.0201437 -0.0425156 -1
  endloop
 endfacet
 facet normal 0 0 -1
  outer loop
   vertex 0.0201437 -0.0425156 -1
   vertex 0.0201894 -0.0415332 -1
   vertex 0.0206183 -0.0417478 -1
  endloop
 endfacet
 facet normal 0 0 -1
  outer loop
   vertex 0.0201437 -0.0425156 -1
   vertex 0.0206183 -0.0417478 -1
   vertex 0.0205562 -0.0427359 -1
  endloop
 endfacet
 facet normal 0 0 -1
  outer loop
   vertex 0.0205562 -0.0427359 -1
   vertex 0.0206183 -0.0417478 -1
   vertex 0.0210405 -0.0419755 -1
  endloop
 endfacet
 facet normal 0 0 -1
  outer loop
   vertex 0.0205562 -0.0427359 -1
   vertex 0.0210405 -0.0419755 -1
   vertex 0.0209614 -0.0429694 -1
  endloop
 endfacet
 facet normal 0 0 -1
  outer loop
   vertex 0.0209614 -0.0429694 -1
   vertex 0.0210405 -0.0419755 -1
   vertex 0.0214553 -0.0422162 -1
  endloop
 endfacet
 facet normal 0 0 -1
  outer loop
   vertex 0.0209614 -0.0429694 -1
   vertex 0.0214553 -0.0422162 -1
   vertex 0.0213588 -0.0432158 -1
  endloop
 endfacet
 facet normal 0 0 -1
  outer loop
   vertex 0.0213588 -0.0432158 -1
   vertex 0.0214553 -0.0422162 -1
   vertex 0.0218625 -0.0424697 -1
  endloop
 endfacet
 facet normal 0 0 -1
  outer loop
   vertex 0.0213588 -0.0432158 -1
   vertex 0.0218625 -0.0424697 -1
   vertex 0.0217482 -0.0434748 -1
  endloop
 endfacet
 facet normal 0 0 -1
  outer loop
   vertex 0.0217482 -0.0434748 -1
   vertex 0.0218625 -0.0424697 -1
   vertex 0.0222616 -0.0427356 -1
  endloop
 endfacet
 facet normal 0 0 -1
  outer loop
   vertex 0.0217482 -0.0434748 -1
   vertex 0.0222616 -0.0427356 -1
   vertex 0.022129 -0.0437462 -1
  endloop
 endfacet
 facet normal 0 0 -1
  outer loop
   vertex 0.022129 -0.0437462 -1
   vertex 0.0222616 -0.0427356 -1
   vertex 0.0226523 -0.0430139 -1
  endloop
 endfacet
 facet normal 0 0 -1
  outer loop
   vertex 0.022129 -0.0437462 -1
   vertex 0.0226523 -0.0430139 -1
   vertex 0.0225009 -0.0440297 -1
  endloop
 endfacet
 facet normal 0 0 -1
  outer loop
   vertex 0.0225009 -0.0440297 -1
   vertex 0.0226523 -0.0430139 -1
   vertex 0.0230341 -0.0433041 -1
  endloop
 endfacet
 facet normal 0 0 -1
  outer loop
   vertex 0.0225009 -0.0440297 -1
   vertex 0.0230341 -0.0433041 -1
   vertex 0.0228635 -0.044325 -1
  endloop
 endfacet
 facet normal 0 0 -1
  outer loop
   vertex 0.0228635 -0.044325 -1
   vertex 0.0230341 -0.0433041 -1
   vertex 0.0234068 -0.043606 -1
  endloop
 endfacet
 facet normal 0 0 -1
  outer loop
   vertex 0.0228635 -0.044325 -1
   vertex 0.0234068 -0.043606 -1
   vertex 0.0232164 -0.0446318 -1
  endloop
 endfacet
 facet normal 0 0 -1
  outer loop
   vertex 0.0232164 -0.0446318 -1
   vertex 0.0234068 -0.043606 -1
   vertex 0.0237699 -0.0439194 -1
  endloop
 endfacet
 facet normal 0 0 -1
  outer loop
   vertex 0.0232164 -0.0446318 -1
   vertex 0.0237699 -0.0439194 -1
   vertex 0.0235593 -0.0449498 -1
  endloop
 endfacet
 facet normal 0 0 -1
  outer loop
   vertex 0.0235593 -0.0449498 -1
   vertex 0.0237699 -0.0439194 -1
   vertex 0.0241231 -0.0442439 -1
  endloop
 endfacet
 facet normal 0 0 -1
  outer loop
   vertex 0.0235593 -0.0449498 -1
   vertex 0.0241231 -0.0442439 -1
   vertex 0.0238918 -0.0452786 -1
  endloop
 endfacet
 facet normal 0 0 -1
  outer loop
   vertex 0.0238918 -0.0452786 -1
   vertex 0.0241231 -0.0442439 -1
   vertex 0.0244661 -0.0445792 -1
  endloop
 endfacet
 facet normal 0 0 -1
  outer loop
   vertex 0.0238918 -0.0452786 -1
   vertex 0.0244661 -0.0445792 -1
   vertex 0.0242135 -0.045618 -1
  endloop
 endfacet
 facet normal 0 0 -1
  outer loop
   vertex 0.0242135 -0.045618 -1
   vertex 0.0244661 -0.0445792 -1
   vertex 0.0247984 -0.0449249 -1
  endloop
 endfacet
 facet normal 0 0 -1
  outer loop
   vertex 0.0242135 -0.045618 -1
   vertex 0.0247984 -0.0449249 -1
   vertex 0.0245242 -0.0459675 -1
  endloop
 endfacet
 facet normal 0 0 -1
  outer loop
   vertex 0.0245242 -0.0459675 -1
   vertex 0.0247984 -0.0449249 -1
   vertex 0.0251199 -0.0452808 -1
  endloop
 endfacet
 facet normal 0 0 -1
  outer loop
   vertex 0.0245242 -0.0459675 -1
   vertex 0.0251199 -0.0452808 -1
   vertex 0.0248235 -0.0463268 -1
  endloop
 endfacet
 facet normal 0 0 -1
  outer loop
   vertex 0.0248235 -0.0463268 -1
   vertex 0.0251199 -0.0452808 -1
   vertex 0.0254302 -0.0456466 -1
  endloop
 endfacet
 facet normal 0 0 -1
  outer loop
   vertex 0.0248235 -0.0463268 -1
   vertex 0.0254302 -0.0456466 -1
   vertex 0.0251111 -0.0466955 -1
  endloop
 endfacet
 facet normal 0 0 -1
  outer loop
   vertex 0.0251111 -0.0466955 -1
   vertex 0.0254302 -0.0456466 -1
   vertex 0.025729 -0.0460217 -1
  endloop
 endfacet
 facet normal 0 0 -1
  outer loop
   vertex 0.0251111 -0.0466955 -1
   vertex 0.025729 -0.0460217 -1
   vertex 0.0253867 -0.0470733 -1
  endloop
 endfacet
 facet normal 0 0 -1
  outer loop
   vertex 0.0253867 -0.0470733 -1
   vertex 0.025729 -0.0460217 -1
   vertex 0.0260161 -0.046406 -1
  endloop
 endfacet
 facet normal 0 0 -1
  outer loop
   vertex 0.0253867 -0.0470733 -1
   vertex 0.0260161 -0.046406 -1
   vertex 0.02565 -0.0474598 -1
  endloop
 endfacet
 facet normal 0 0 -1
  outer loop
   vertex 0.02565 -0.0474598 -1
   vertex 0.0260161 -0.046406 -1
   vertex 0.026291 -0.046799 -1
  endloop
 endfacet
 facet normal 0 0 -1
  outer loop
   vertex 0.02565 -0.0474598 -1
   vertex 0.026291 -0.046799 -1
   vertex 0.0259008 -0.0478545 -1
  endloop
 endfacet
 facet normal 0 0 -1
  outer loop
   vertex 0.0259008 -0.0478545 -1
   vertex 0.026291 -0.046799 -1
   vertex 0.0265536 -0.0472003 -1
  endloop
 endfacet
 facet normal 0 0 -1
  outer loop
   vertex 0.0259008 -0.0478545 -1
   vertex 0.0265536 -0.0472003 -1
   vertex 0.0261387 -0.048257 -1
  endloop
 endfacet
 facet normal 0 0 -1
  outer loop
   vertex 0.0261387 -0.048257 -1
   vertex 0.0265536 -0.0472003 -1
   vertex 0.0268037 -0.0476096 -1
  endloop
 endfacet
 facet normal 0 0 -1
  outer loop
   vertex 0.0261387 -0.048257 -1
   vertex 0.0268037 -0.0476096 -1
   vertex 0.0270409 -0.0480265 -1
  endloop
 endfacet
 facet normal -0 0 1
  outer loop
   vertex 0.0132242 -0.0400097 1
   vertex 0.0132295 -0.0403097 1
   vertex 0.0137038 -0.0400087 1
  endloop
 endfacet
 facet normal 0 0 1
  outer loop
   vertex 0.0137038 -0.0400087 1
   vertex 0.0132295 -0.0403097 1
   vertex 0.013853 -0.0409118 1
  endloop
 endfacet
 facet normal 0 0 1
  outer loop
   vertex 0.0137038 -0.0400087 1
   vertex 0.013853 -0.0409118 1
   vertex 0.0141832 -0.0400227 1
  endloop
 endfacet
 facet normal 0 0 1
  outer loop
   vertex 0.0141832 -0.0400227 1
   vertex 0.013853 -0.0409118 1
   vertex 0.0143202 -0.0409308 1
  endloop
 endfacet
 facet normal 0 0 1
  outer loop
   vertex 0.0141832 -0.0400227 1
   vertex 0.0143202 -0.0409308 1
   vertex 0.014662 -0.0400516 1
  endloop
 endfacet
 facet normal 0 0 1
  outer loop
   vertex 0.014662 -0.0400516 1
   vertex 0.0143202 -0.0409308 1
   vertex 0.0147866 -0.0409649 1
  endloop
 endfacet
 facet normal 0 0 1
  outer loop
   vertex 0.014662 -0.0400516 1
   vertex 0.0147866 -0.0409649 1
   vertex 0.0151397 -0.0400953 1
  endloop
 endfacet
 facet normal 0 0 1
  outer loop
   vertex 0.0151397 -0.0400953 1
   vertex 0.0147866 -0.0409649 1
   vertex 0.0152516 -0.0410139 1
  endloop
 endfacet
 facet normal 0 0 1
  outer loop
   vertex 0.0151397 -0.0400953 1
   vertex 0.0152516 -0.0410139 1
   vertex 0.0156157 -0.0401537 1
  endloop
 endfacet
 facet normal 0 0 1
  outer loop
   vertex 0.0156157 -0.0401537 1
   vertex 0.0152516 -0.0410139 1
   vertex 0.0157149 -0.0410778 1
  endloop
 endfacet
 facet normal 0 0 1
  outer loop
   vertex 0.0156157 -0.0401537 1
   vertex 0.0157149 -0.0410778 1
   vertex 0.0160897 -0.0402269 1
  endloop
 endfacet
 facet normal 0 0 1
  outer loop
   vertex 0.0160897 -0.0402269 1
   vertex 0.0157149 -0.0410778 1
   vertex 0.0161758 -0.0411566 1
  endloop
 endfacet
 facet normal -0 0 1
  outer loop
   vertex 0.027867 -0.0577361 1
   vertex 0.0281633 -0.057783 1
   vertex 0.0279327 -0.0572731 1
  endloop
 endfacet
 facet normal 0 0 1
  outer loop
   vertex 0.0279327 -0.0572731 1
   vertex 0.0281633 -0.057783 1
   vertex 0.0288369 -0.0572936 1
  endloop
 endfacet
 facet normal -0 0 1
  outer loop
   vertex 0.0279327 -0.0572731 1
   vertex 0.0288369 -0.0572936 1
   vertex 0.0279835 -0.0568083 1
  endloop
 endfacet
 facet normal 0 0 1
  outer loop
   vertex 0.0279835 -0.0568083 1
   vertex 0.0288369 -0.0572936 1
   vertex 0.0288865 -0.0568165 1
  endloop
 endfacet
 facet normal -0 0 1
  outer loop
   vertex 0.0279835 -0.0568083 1
   vertex 0.0288865 -0.0568165 1
   vertex 0.0280194 -0.056342 1
  endloop
 endfacet
 facet normal -0 0 1
  outer loop
   vertex 0.0280194 -0.056342 1
   vertex 0.0288865 -0.0568165 1
   vertex 0.0289212 -0.0563382 1
  endloop
 endfacet
 facet normal 0 0 1
  outer loop
   vertex 0.0280194 -0.056342 1
   vertex 0.0289212 -0.0563382 1
   vertex 0.0280402 -0.0558748 1
  endloop
 endfacet
 facet normal -0 0 1
  outer loop
   vertex 0.0280402 -0.0558748 1
   vertex 0.0289212 -0.0563382 1
   vertex 0.028941 -0.055859 1
  endloop
 endfacet
 facet normal 0 0 1
  outer loop
   vertex 0.0280402 -0.0558748 1
   vertex 0.028941 -0.055859 1
   vertex 0.0280461 -0.0554072 1
  endloop
 endfacet
 facet normal -0 0 1
  outer loop
   vertex 0.0280461 -0.0554072 1
   vertex 0.028941 -0.055859 1
   vertex 0.028946 -0.0553794 1
  endloop
 endfacet
 facet normal 0 -0 1
  outer loop
   vertex 0.0280461 -0.0554072 1
   vertex 0.028946 -0.0553794 1
   vertex 0.0280369 -0.0549397 1
  endloop
 endfacet
 facet normal -0 0 1
  outer loop
   vertex 0.0280369 -0.0549397 1
   vertex 0.028946 -0.0553794 1
   vertex 0.028936 -0.0548998 1
  endloop
 endfacet
 facet normal 0 -0 1
  outer loop
   vertex 0.0280369 -0.0549397 1
   vertex 0.028936 -0.0548998 1
   vertex 0.0280126 -0.0544727 1
  endloop
 endfacet
 facet normal -0 0 1
  outer loop
   vertex 0.0280126 -0.0544727 1
   vertex 0.028936 -0.0548998 1
   vertex 0.0289112 -0.0544208 1
  endloop
 endfacet
 facet normal 0 -0 1
  outer loop
   vertex 0.0280126 -0.0544727 1
   vertex 0.0289112 -0.0544208 1
   vertex 0.0279734 -0.0540067 1
  endloop
 endfacet
 facet normal -0 0 1
  outer loop
   vertex 0.0279734 -0.0540067 1
   vertex 0.0289112 -0.0544208 1
   vertex 0.0288715 -0.0539429 1
  endloop
 endfacet
 facet normal 0 -0 1
  outer loop
   vertex 0.0279734 -0.0540067 1
   vertex 0.0288715 -0.0539429 1
   vertex 0.0279193 -0.0535422 1
  endloop
 endfacet
 facet normal -0 0 1
  outer loop
   vertex 0.0279193 -0.0535422 1
   vertex 0.0288715 -0.0539429 1
   vertex 0.028817 -0.0534663 1
  endloop
 endfacet
 facet normal 0 -0 1
  outer loop
   vertex 0.0279193 -0.0535422 1
   vertex 0.028817 -0.0534663 1
   vertex 0.0278502 -0.0530797 1
  endloop
 endfacet
 facet normal -0 0 1
  outer loop
   vertex 0.0278502 -0.0530797 1
   vertex 0.028817 -0.0534663 1
   vertex 0.0287478 -0.0529918 1
  endloop
 endfacet
 facet normal 0 -0 1
  outer loop
   vertex 0.0278502 -0.0530797 1
   vertex 0.0287478 -0.0529918 1
   vertex 0.0277663 -0.0526197 1
  endloop
 endfacet
 facet normal -0 0 1
  outer loop
   vertex 0.0277663 -0.0526197 1
   vertex 0.0287478 -0.0529918 1
   vertex 0.0286639 -0.0525195 1
  endloop
 endfacet
 facet normal 0 -0 1
  outer loop
   vertex 0.0277663 -0.0526197 1
   vertex 0.0286639 -0.0525195 1
   vertex 0.0276677 -0.0521626 1
  endloop
 endfacet
 facet normal -0 0 1
  outer loop
   vertex 0.0276677 -0.0521626 1
   vertex 0.0286639 -0.0525195 1
   vertex 0.0285653 -0.0520501 1
  endloop
 endfacet
 facet normal 0 -0 1
  outer loop
   vertex 0.0276677 -0.0521626 1
   vertex 0.0285653 -0.0520501 1
   vertex 0.0275545 -0.0517089 1
  endloop
 endfacet
 facet normal -0 0 1
  outer loop
   vertex 0.0275545 -0.0517089 1
   vertex 0.0285653 -0.0520501 1
   vertex 0.0284522 -0.051584 1
  endloop
 endfacet
 facet normal 0 -0 1
  outer loop
   vertex 0.0275545 -0.0517089 1
   vertex 0.0284522 -0.051584 1
   vertex 0.0274267 -0.051259 1
  endloop
 endfacet
 facet normal -0 0 1
  outer loop
   vertex 0.0274267 -0.051259 1
   vertex 0.0284522 -0.051584 1
   vertex 0.0283248 -0.0511217 1
  endloop
 endfacet
 facet normal 0 -0 1
  outer loop
   vertex 0.0274267 -0.051259 1
   vertex 0.0283248 -0.0511217 1
   vertex 0.0272846 -0.0508135 1
  endloop
 endfacet
 facet normal -0 0 1
  outer loop
   vertex 0.0272846 -0.0508135 1
   vertex 0.0283248 -0.0511217 1
   vertex 0.028183 -0.0506635 1
  endloop
 endfacet
 facet normal 0 -0 1
  outer loop
   vertex 0.0272846 -0.0508135 1
   vertex 0.028183 -0.0506635 1
   vertex 0.0271281 -0.0503728 1
  endloop
 endfacet
 facet normal -0 0 1
  outer loop
   vertex 0.0271281 -0.0503728 1
   vertex 0.028183 -0.0506635 1
   vertex 0.0280271 -0.0502099 1
  endloop
 endfacet
 facet normal 0 -0 1
  outer loop
   vertex 0.0271281 -0.0503728 1
   vertex 0.0280271 -0.0502099 1
   vertex 0.0269577 -0.0499374 1
  endloop
 endfacet
 facet normal -0 0 1
  outer loop
   vertex 0.0269577 -0.0499374 1
   vertex 0.0280271 -0.0502099 1
   vertex 0.0278571 -0.0497614 1
  endloop
 endfacet
 facet normal 0 -0 1
  outer loop
   vertex 0.0269577 -0.0499374 1
   vertex 0.0278571 -0.0497614 1
   vertex 0.0267733 -0.0495076 1
  endloop
 endfacet
 facet normal -0 0 1
  outer loop
   vertex 0.0267733 -0.0495076 1
   vertex 0.0278571 -0.0497614 1
   vertex 0.0276734 -0.0493184 1
  endloop
 endfacet
 facet normal 0 -0 1
  outer loop
   vertex 0.0267733 -0.0495076 1
   vertex 0.0276734 -0.0493184 1
   vertex 0.0265752 -0.049084 1
  endloop
 endfacet
 facet normal -0 0 1
  outer loop
   vertex 0.0265752 -0.049084 1
   vertex 0.0276734 -0.0493184 1
   vertex 0.0274759 -0.0488813 1
  endloop
 endfacet
 facet normal 0 -0 1
  outer loop
   vertex 0.0265752 -0.049084 1
   vertex 0.0274759 -0.0488813 1
   vertex 0.0263636 -0.048667 1
  endloop
 endfacet
 facet normal 0 0 1
  outer loop
   vertex 0.0274759 -0.0488813 1
   vertex 0.0272651 -0.0484505 1
   vertex 0.0263636 -0.048667 1
  endloop
 endfacet
 facet normal 0 0 1
  outer loop
   vertex 0.0263636 -0.048667 1
   vertex 0.0272651 -0.0484505 1
   vertex 0.0270409 -0.0480265 1
  endloop
 endfacet
 facet normal 0 -0 1
  outer loop
   vertex 0.0263636 -0.048667 1
   vertex 0.0270409 -0.0480265 1
   vertex 0.0261387 -0.048257 1
  endloop
 endfacet
 facet normal 0 0 1
  outer loop
   vertex 0.0261387 -0.048257 1
   vertex 0.0270409 -0.0480265 1
   vertex 0.0268037 -0.0476096 1
  endloop
 endfacet
 facet normal 0 -0 1
  outer loop
   vertex 0.0261387 -0.048257 1
   vertex 0.0268037 -0.0476096 1
   vertex 0.0259008 -0.0478545 1
  endloop
 endfacet
 facet normal 0 0 1
  outer loop
   vertex 0.0259008 -0.0478545 1
   vertex 0.0268037 -0.0476096 1
   vertex 0.0265536 -0.0472003 1
  endloop
 endfacet
 facet normal 0 -0 1
  outer loop
   vertex 0.0259008 -0.0478545 1
   vertex 0.0265536 -0.0472003 1
   vertex 0.02565 -0.0474598 1
  endloop
 endfacet
 facet normal 0 0 1
  outer loop
   vertex 0.02565 -0.0474598 1
   vertex 0.0265536 -0.0472003 1
   vertex 0.026291 -0.046799 1
  endloop
 endfacet
 facet normal 0 -0 1
  outer loop
   vertex 0.02565 -0.0474598 1
   vertex 0.026291 -0.046799 1
   vertex 0.0253867 -0.0470733 1
  endloop
 endfacet
 facet normal 0 0 1
  outer loop
   vertex 0.0253867 -0.0470733 1
   vertex 0.026291 -0.046799 1
   vertex 0.0260161 -0.046406 1
  endloop
 endfacet
 facet normal 0 -0 1
  outer loop
   vertex 0.0253867 -0.0470733 1
   vertex 0.0260161 -0.046406 1
   vertex 0.0251111 -0.0466955 1
  endloop
 endfacet
 facet normal 0 0 1
  outer loop
   vertex 0.0251111 -0.0466955 1
   vertex 0.0260161 -0.046406 1
   vertex 0.025729 -0.0460217 1
  endloop
 endfacet
 facet normal 0 -0 1
  outer loop
   vertex 0.0251111 -0.0466955 1
   vertex 0.025729 -0.0460217 1
   vertex 0.0248235 -0.0463268 1
  endloop
 endfacet
 facet normal 0 0 1
  outer loop
   vertex 0.0248235 -0.0463268 1
   vertex 0.025729 -0.0460217 1
   vertex 0.0254302 -0.0456466 1
  endloop
 endfacet
 facet normal 0 -0 1
  outer loop
   vertex 0.0248235 -0.0463268 1
   vertex 0.0254302 -0.0456466 1
   vertex 0.0245242 -0.0459675 1
  endloop
 endfacet
 facet normal 0 0 1
  outer loop
   vertex 0.0245242 -0.0459675 1
   vertex 0.0254302 -0.0456466 1
   vertex 0.0251199 -0.0452808 1
  endloop
 endfacet
 facet normal 0 -0 1
  outer loop
   vertex 0.0245242 -0.0459675 1
   vertex 0.0251199 -0.0452808 1
   vertex 0.0242135 -0.045618 1
  endloop
 endfacet
 facet normal 0 0 1
  outer loop
   vertex 0.0242135 -0.045618 1
   vertex 0.0251199 -0.0452808 1
   vertex 0.0247984 -0.0449249 1
  endloop
 endfacet
 facet normal 0 -0 1
  outer loop
   vertex 0.0242135 -0.045618 1
   vertex 0.0247984 -0.0449249 1
   vertex 0.0238918 -0.0452786 1
  endloop
 endfacet
 facet normal 0 0 1
  outer loop
   vertex 0.0238918 -0.0452786 1
   vertex 0.0247984 -0.0449249 1
   vertex 0.0244661 -0.0445792 1
  endloop
 endfacet
 facet normal 0 -0 1
  outer loop
   vertex 0.0238918 -0.0452786 1
   vertex 0.0244661 -0.0445792 1
   vertex 0.0235593 -0.0449498 1
  endloop
 endfacet
 facet normal 0 0 1
  outer loop
   vertex 0.0235593 -0.0449498 1
   vertex 0.0244661 -0.0445792 1
   vertex 0.0241231 -0.0442439 1
  endloop
 endfacet
 facet normal 0 -0 1
  outer loop
   vertex 0.0235593 -0.0449498 1
   vertex 0.0241231 -0.0442439 1
   vertex 0.0232164 -0.0446318 1
  endloop
 endfacet
 facet normal 0 0 1
  outer loop
   vertex 0.0232164 -0.0446318 1
   vertex 0.0241231 -0.0442439 1
   vertex 0.0237699 -0.0439194 1
  endloop
 endfacet
 facet normal 0 -0 1
  outer loop
   vertex 0.0232164 -0.0446318 1
   vertex 0.0237699 -0.0439194 1
   vertex 0.0228635 -0.044325 1
  endloop
 endfacet
 facet normal 0 0 1
  outer loop
   vertex 0.0228635 -0.044325 1
   vertex 0.0237699 -0.0439194 1
   vertex 0.0234068 -0.043606 1
  endloop
 endfacet
 facet normal 0 -0 1
  outer loop
   vertex 0.0228635 -0.044325 1
   vertex 0.0234068 -0.043606 1
   vertex 0.0225009 -0.0440297 1
  endloop
 endfacet
 facet normal 0 0 1
  outer loop
   vertex 0.0225009 -0.0440297 1
   vertex 0.0234068 -0.043606 1
   vertex 0.0230341 -0.0433041 1
  endloop
 endfacet
 facet normal 0 -0 1
  outer loop
   vertex 0.0225009 -0.0440297 1
   vertex 0.0230341 -0.0433041 1
   vertex 0.022129 -0.0437462 1
  endloop
 endfacet
 facet normal 0 0 1
  outer loop
   vertex 0.022129 -0.0437462 1
   vertex 0.0230341 -0.0433041 1
   vertex 0.0226523 -0.0430139 1
  endloop
 endfacet
 facet normal 0 -0 1
  outer loop
   vertex 0.022129 -0.0437462 1
   vertex 0.0226523 -0.0430139 1
   vertex 0.0217482 -0.0434748 1
  endloop
 endfacet
 facet normal 0 0 1
  outer loop
   vertex 0.0217482 -0.0434748 1
   vertex 0.0226523 -0.0430139 1
   vertex 0.0222616 -0.0427356 1
  endloop
 endfacet
 facet normal 0 -0 1
  outer loop
   vertex 0.0217482 -0.0434748 1
   vertex 0.0222616 -0.0427356 1
   vertex 0.0213588 -0.0432158 1
  endloop
 endfacet
 facet normal 0 0 1
  outer loop
   vertex 0.0213588 -0.0432158 1
   vertex 0.0222616 -0.0427356 1
   vertex 0.0218625 -0.0424697 1
  endloop
 endfacet
 facet normal 0 -0 1
  outer loop
   vertex 0.0213588 -0.0432158 1
   vertex 0.0218625 -0.0424697 1
   vertex 0.0209614 -0.0429694 1
  endloop
 endfacet
 facet normal 0 0 1
  outer loop
   vertex 0.0209614 -0.0429694 1
   vertex 0.0218625 -0.0424697 1
   vertex 0.0214553 -0.0422162 1
  endloop
 endfacet
 facet normal 0 -0 1
  outer loop
   vertex 0.0209614 -0.0429694 1
   vertex 0.0214553 -0.0422162 1
   vertex 0.0205562 -0.0427359 1
  endloop
 endfacet
 facet normal 0 0 1
  outer loop
   vertex 0.0205562 -0.0427359 1
   vertex 0.0214553 -0.0422162 1
   vertex 0.0210405 -0.0419755 1
  endloop
 endfacet
 facet normal 0 -0 1
  outer loop
   vertex 0.0205562 -0.0427359 1
   vertex 0.0210405 -0.0419755 1
   vertex 0.0201437 -0.0425156 1
  endloop
 endfacet
 facet normal 0 0 1
  outer loop
   vertex 0.0201437 -0.0425156 1
   vertex 0.0210405 -0.0419755 1
   vertex 0.0206183 -0.0417478 1
  endloop
 endfacet
 facet normal 0 -0 1
  outer loop
   vertex 0.0201437 -0.0425156 1
   vertex 0.0206183 -0.0417478 1
   vertex 0.0197244 -0.0423086 1
  endloop
 endfacet
 facet normal 0 0 1
  outer loop
   vertex 0.0197244 -0.0423086 1
   vertex 0.0206183 -0.0417478 1
   vertex 0.0201894 -0.0415332 1
  endloop
 endfacet
 facet normal 0 -0 1
  outer loop
   vertex 0.0197244 -0.0423086 1
   vertex 0.0201894 -0.0415332 1
   vertex 0.0192987 -0.0421152 1
  endloop
 endfacet
 facet normal 0 0 1
  outer loop
   vertex 0.0192987 -0.0421152 1
   vertex 0.0201894 -0.0415332 1
   vertex 0.0197539 -0.0413322 1
  endloop
 endfacet
 facet normal 0 -0 1
  outer loop
   vertex 0.0192987 -0.0421152 1
   vertex 0.0197539 -0.0413322 1
   vertex 0.0188669 -0.0419356 1
  endloop
 endfacet
 facet normal 0 0 1
  outer loop
   vertex 0.0188669 -0.0419356 1
   vertex 0.0197539 -0.0413322 1
   vertex 0.0193125 -0.0411447 1
  endloop
 endfacet
 facet normal 0 -0 1
  outer loop
   vertex 0.0188669 -0.0419356 1
   vertex 0.0193125 -0.0411447 1
   vertex 0.0184296 -0.0417699 1
  endloop
 endfacet
 facet normal 0 0 1
  outer loop
   vertex 0.0184296 -0.0417699 1
   vertex 0.0193125 -0.0411447 1
   vertex 0.0188654 -0.040971 1
  endloop
 endfacet
 facet normal 0 -0 1
  outer loop
   vertex 0.0184296 -0.0417699 1
   vertex 0.0188654 -0.040971 1
   vertex 0.0179872 -0.0416184 1
  endloop
 endfacet
 facet normal 0 0 1
  outer loop
   vertex 0.0179872 -0.0416184 1
   vertex 0.0188654 -0.040971 1
   vertex 0.0184131 -0.0408113 1
  endloop
 endfacet
 facet normal 0 -0 1
  outer loop
   vertex 0.0179872 -0.0416184 1
   vertex 0.0184131 -0.0408113 1
   vertex 0.0175402 -0.0414812 1
  endloop
 endfacet
 facet normal 0 0 1
  outer loop
   vertex 0.0175402 -0.0414812 1
   vertex 0.0184131 -0.0408113 1
   vertex 0.0179561 -0.0406657 1
  endloop
 endfacet
 facet normal 0 -0 1
  outer loop
   vertex 0.0175402 -0.0414812 1
   vertex 0.0179561 -0.0406657 1
   vertex 0.0170889 -0.0413584 1
  endloop
 endfacet
 facet normal 0 0 1
  outer loop
   vertex 0.0170889 -0.0413584 1
   vertex 0.0179561 -0.0406657 1
   vertex 0.0174949 -0.0405343 1
  endloop
 endfacet
 facet normal 0 -0 1
  outer loop
   vertex 0.0170889 -0.0413584 1
   vertex 0.0174949 -0.0405343 1
   vertex 0.016634 -0.0412502 1
  endloop
 endfacet
 facet normal 0 0 1
  outer loop
   vertex 0.016634 -0.0412502 1
   vertex 0.0174949 -0.0405343 1
   vertex 0.0170297 -0.0404173 1
  endloop
 endfacet
 facet normal 0 -0 1
  outer loop
   vertex 0.016634 -0.0412502 1
   vertex 0.0170297 -0.0404173 1
   vertex 0.0161758 -0.0411566 1
  endloop
 endfacet
 facet normal 0 0 1
  outer loop
   vertex 0.0161758 -0.0411566 1
   vertex 0.0170297 -0.0404173 1
   vertex 0.0165612 -0.0403148 1
  endloop
 endfacet
 facet normal 0 -0 1
  outer loop
   vertex 0.0161758 -0.0411566 1
   vertex 0.0165612 -0.0403148 1
   vertex 0.0160897 -0.0402269 1
  endloop
 endfacet
 facet normal 0.587794 -0.809011 0
  outer loop
   vertex 0.0288369 -0.0572936 1
   vertex 0.0281633 -0.057783 1
   vertex 0.0288369 -0.0572936 -1
  endloop
 endfacet
 facet normal 0.587794 -0.809011 0
  outer loop
   vertex 0.0288369 -0.0572936 -1
   vertex 0.0281633 -0.057783 1
   vertex 0.0281633 -0.057783 -1
  endloop
 endfacet
 facet normal -0.694672 -0.719326 -0
  outer loop
   vertex 0.013853 -0.0409118 1
   vertex 0.0132295 -0.0403097 1
   vertex 0.013853 -0.0409118 -1
  endloop
 endfacet
 facet normal -0.694672 -0.719326 0
  outer loop
   vertex 0.013853 -0.0409118 -1
   vertex 0.0132295 -0.0403097 1
   vertex 0.0132295 -0.0403097 -1
  endloop
 endfacet
endsolid tunner_vane
