solid tunner_vane
 facet normal -0.00193896 0.999998 0
  outer loop
   vertex 0.761828 0.173602 -1
   vertex 0.761828 0.173602 1
   vertex 0.765025 0.173608 1
  endloop
 endfacet
 facet normal -0.00193896 0.999998 0
  outer loop
   vertex 0.761828 0.173602 -1
   vertex 0.765025 0.173608 1
   vertex 0.765025 0.173608 -1
  endloop
 endfacet
 facet normal 0.0290785 0.999577 -0
  outer loop
   vertex 0.765025 0.173608 -1
   vertex 0.765025 0.173608 1
   vertex 0.768222 0.173515 1
  endloop
 endfacet
 facet normal 0.0290785 0.999577 0
  outer loop
   vertex 0.765025 0.173608 -1
   vertex 0.768222 0.173515 1
   vertex 0.768222 0.173515 -1
  endloop
 endfacet
 facet normal 0.0601216 0.998191 -0
  outer loop
   vertex 0.768222 0.173515 -1
   vertex 0.768222 0.173515 1
   vertex 0.771413 0.173323 1
  endloop
 endfacet
 facet normal 0.0601216 0.998191 0
  outer loop
   vertex 0.768222 0.173515 -1
   vertex 0.771413 0.173323 1
   vertex 0.771413 0.173323 -1
  endloop
 endfacet
 facet normal 0.0910491 0.995846 -0
  outer loop
   vertex 0.771413 0.173323 -1
   vertex 0.771413 0.173323 1
   vertex 0.774598 0.173032 1
  endloop
 endfacet
 facet normal 0.0910491 0.995846 0
  outer loop
   vertex 0.771413 0.173323 -1
   vertex 0.774598 0.173032 1
   vertex 0.774598 0.173032 -1
  endloop
 endfacet
 facet normal 0.121963 0.992535 -0
  outer loop
   vertex 0.774598 0.173032 -1
   vertex 0.774598 0.173032 1
   vertex 0.777771 0.172642 1
  endloop
 endfacet
 facet normal 0.121963 0.992535 0
  outer loop
   vertex 0.774598 0.173032 -1
   vertex 0.777771 0.172642 1
   vertex 0.777771 0.172642 -1
  endloop
 endfacet
 facet normal 0.152652 0.98828 -0
  outer loop
   vertex 0.777771 0.172642 -1
   vertex 0.777771 0.172642 1
   vertex 0.780931 0.172154 1
  endloop
 endfacet
 facet normal 0.152652 0.98828 0
  outer loop
   vertex 0.777771 0.172642 -1
   vertex 0.780931 0.172154 1
   vertex 0.780931 0.172154 -1
  endloop
 endfacet
 facet normal 0.18326 0.983064 -0
  outer loop
   vertex 0.780931 0.172154 -1
   vertex 0.780931 0.172154 1
   vertex 0.784075 0.171568 1
  endloop
 endfacet
 facet normal 0.18326 0.983064 0
  outer loop
   vertex 0.780931 0.172154 -1
   vertex 0.784075 0.171568 1
   vertex 0.784075 0.171568 -1
  endloop
 endfacet
 facet normal 0.213711 0.976897 -0
  outer loop
   vertex 0.784075 0.171568 -1
   vertex 0.784075 0.171568 1
   vertex 0.787198 0.170884 1
  endloop
 endfacet
 facet normal 0.213711 0.976897 0
  outer loop
   vertex 0.784075 0.171568 -1
   vertex 0.787198 0.170884 1
   vertex 0.787198 0.170884 -1
  endloop
 endfacet
 facet normal 0.243904 0.969799 -0
  outer loop
   vertex 0.787198 0.170884 -1
   vertex 0.787198 0.170884 1
   vertex 0.790299 0.170105 1
  endloop
 endfacet
 facet normal 0.243904 0.969799 0
  outer loop
   vertex 0.787198 0.170884 -1
   vertex 0.790299 0.170105 1
   vertex 0.790299 0.170105 -1
  endloop
 endfacet
 facet normal 0.27392 0.961753 -0
  outer loop
   vertex 0.790299 0.170105 -1
   vertex 0.790299 0.170105 1
   vertex 0.793374 0.169229 1
  endloop
 endfacet
 facet normal 0.27392 0.961753 0
  outer loop
   vertex 0.790299 0.170105 -1
   vertex 0.793374 0.169229 1
   vertex 0.793374 0.169229 -1
  endloop
 endfacet
 facet normal 0.303546 0.952817 -0
  outer loop
   vertex 0.793374 0.169229 -1
   vertex 0.793374 0.169229 1
   vertex 0.796421 0.168258 1
  endloop
 endfacet
 facet normal 0.303546 0.952817 0
  outer loop
   vertex 0.793374 0.169229 -1
   vertex 0.796421 0.168258 1
   vertex 0.796421 0.168258 -1
  endloop
 endfacet
 facet normal 0.333012 0.942923 -0
  outer loop
   vertex 0.796421 0.168258 -1
   vertex 0.796421 0.168258 1
   vertex 0.799436 0.167193 1
  endloop
 endfacet
 facet normal 0.333012 0.942923 0
  outer loop
   vertex 0.796421 0.168258 -1
   vertex 0.799436 0.167193 1
   vertex 0.799436 0.167193 -1
  endloop
 endfacet
 facet normal 0.362172 0.932111 -0
  outer loop
   vertex 0.799436 0.167193 -1
   vertex 0.799436 0.167193 1
   vertex 0.802416 0.166035 1
  endloop
 endfacet
 facet normal 0.362172 0.932111 0
  outer loop
   vertex 0.799436 0.167193 -1
   vertex 0.802416 0.166035 1
   vertex 0.802416 0.166035 -1
  endloop
 endfacet
 facet normal 0.390912 0.920428 -0
  outer loop
   vertex 0.802416 0.166035 -1
   vertex 0.802416 0.166035 1
   vertex 0.805359 0.164785 1
  endloop
 endfacet
 facet normal 0.390912 0.920428 0
  outer loop
   vertex 0.802416 0.166035 -1
   vertex 0.805359 0.164785 1
   vertex 0.805359 0.164785 -1
  endloop
 endfacet
 facet normal 0.419254 0.907869 -0
  outer loop
   vertex 0.805359 0.164785 -1
   vertex 0.805359 0.164785 1
   vertex 0.808262 0.163445 1
  endloop
 endfacet
 facet normal 0.419254 0.907869 0
  outer loop
   vertex 0.805359 0.164785 -1
   vertex 0.808262 0.163445 1
   vertex 0.808262 0.163445 -1
  endloop
 endfacet
 facet normal 0.447213 0.894428 -0
  outer loop
   vertex 0.808262 0.163445 -1
   vertex 0.808262 0.163445 1
   vertex 0.811122 0.162015 1
  endloop
 endfacet
 facet normal 0.447213 0.894428 0
  outer loop
   vertex 0.808262 0.163445 -1
   vertex 0.811122 0.162015 1
   vertex 0.811122 0.162015 -1
  endloop
 endfacet
 facet normal 0.474796 0.880096 -0
  outer loop
   vertex 0.811122 0.162015 -1
   vertex 0.811122 0.162015 1
   vertex 0.813936 0.160497 1
  endloop
 endfacet
 facet normal 0.474796 0.880096 0
  outer loop
   vertex 0.811122 0.162015 -1
   vertex 0.813936 0.160497 1
   vertex 0.813936 0.160497 -1
  endloop
 endfacet
 facet normal 0.501814 0.864975 -0
  outer loop
   vertex 0.813936 0.160497 -1
   vertex 0.813936 0.160497 1
   vertex 0.816702 0.158892 1
  endloop
 endfacet
 facet normal 0.501814 0.864975 0
  outer loop
   vertex 0.813936 0.160497 -1
   vertex 0.816702 0.158892 1
   vertex 0.816702 0.158892 -1
  endloop
 endfacet
 facet normal 0.528408 0.848991 -0
  outer loop
   vertex 0.816702 0.158892 -1
   vertex 0.816702 0.158892 1
   vertex 0.819417 0.157202 1
  endloop
 endfacet
 facet normal 0.528408 0.848991 0
  outer loop
   vertex 0.816702 0.158892 -1
   vertex 0.819417 0.157202 1
   vertex 0.819417 0.157202 -1
  endloop
 endfacet
 facet normal 0.554675 0.832067 -0
  outer loop
   vertex 0.819417 0.157202 -1
   vertex 0.819417 0.157202 1
   vertex 0.822077 0.155429 1
  endloop
 endfacet
 facet normal 0.554675 0.832067 0
  outer loop
   vertex 0.819417 0.157202 -1
   vertex 0.822077 0.155429 1
   vertex 0.822077 0.155429 -1
  endloop
 endfacet
 facet normal 0.580031 0.814595 -0
  outer loop
   vertex 0.822077 0.155429 -1
   vertex 0.822077 0.155429 1
   vertex 0.824682 0.153574 1
  endloop
 endfacet
 facet normal 0.580031 0.814595 0
  outer loop
   vertex 0.822077 0.155429 -1
   vertex 0.824682 0.153574 1
   vertex 0.824682 0.153574 -1
  endloop
 endfacet
 facet normal 0.60507 0.796173 -0
  outer loop
   vertex 0.824682 0.153574 -1
   vertex 0.824682 0.153574 1
   vertex 0.827228 0.151639 1
  endloop
 endfacet
 facet normal 0.60507 0.796173 0
  outer loop
   vertex 0.824682 0.153574 -1
   vertex 0.827228 0.151639 1
   vertex 0.827228 0.151639 -1
  endloop
 endfacet
 facet normal 0.629571 0.776943 -0
  outer loop
   vertex 0.827228 0.151639 -1
   vertex 0.827228 0.151639 1
   vertex 0.829712 0.149626 1
  endloop
 endfacet
 facet normal 0.629571 0.776943 0
  outer loop
   vertex 0.827228 0.151639 -1
   vertex 0.829712 0.149626 1
   vertex 0.829712 0.149626 -1
  endloop
 endfacet
 facet normal 0.6533 0.757099 -0
  outer loop
   vertex 0.829712 0.149626 -1
   vertex 0.829712 0.149626 1
   vertex 0.832133 0.147537 1
  endloop
 endfacet
 facet normal 0.6533 0.757099 0
  outer loop
   vertex 0.829712 0.149626 -1
   vertex 0.832133 0.147537 1
   vertex 0.832133 0.147537 -1
  endloop
 endfacet
 facet normal 0.676632 0.736321 -0
  outer loop
   vertex 0.832133 0.147537 -1
   vertex 0.832133 0.147537 1
   vertex 0.834487 0.145374 1
  endloop
 endfacet
 facet normal 0.676632 0.736321 0
  outer loop
   vertex 0.832133 0.147537 -1
   vertex 0.834487 0.145374 1
   vertex 0.834487 0.145374 -1
  endloop
 endfacet
 facet normal 0.698966 0.715155 -0
  outer loop
   vertex 0.834487 0.145374 -1
   vertex 0.834487 0.145374 1
   vertex 0.836774 0.143139 1
  endloop
 endfacet
 facet normal 0.698966 0.715155 0
  outer loop
   vertex 0.834487 0.145374 -1
   vertex 0.836774 0.143139 1
   vertex 0.836774 0.143139 -1
  endloop
 endfacet
 facet normal 0.720905 0.693034 -0
  outer loop
   vertex 0.836774 0.143139 -1
   vertex 0.836774 0.143139 1
   vertex 0.83899 0.140834 1
  endloop
 endfacet
 facet normal 0.720905 0.693034 0
  outer loop
   vertex 0.836774 0.143139 -1
   vertex 0.83899 0.140834 1
   vertex 0.83899 0.140834 -1
  endloop
 endfacet
 facet normal 0.742126 0.67026 -0
  outer loop
   vertex 0.83899 0.140834 -1
   vertex 0.83899 0.140834 1
   vertex 0.841133 0.138461 1
  endloop
 endfacet
 facet normal 0.742126 0.67026 0
  outer loop
   vertex 0.83899 0.140834 -1
   vertex 0.841133 0.138461 1
   vertex 0.841133 0.138461 -1
  endloop
 endfacet
 facet normal 0.762462 0.647033 -0
  outer loop
   vertex 0.841133 0.138461 -1
   vertex 0.841133 0.138461 1
   vertex 0.843202 0.136023 1
  endloop
 endfacet
 facet normal 0.762462 0.647033 0
  outer loop
   vertex 0.841133 0.138461 -1
   vertex 0.843202 0.136023 1
   vertex 0.843202 0.136023 -1
  endloop
 endfacet
 facet normal 0.782236 0.622983 -0
  outer loop
   vertex 0.843202 0.136023 -1
   vertex 0.843202 0.136023 1
   vertex 0.845194 0.133522 1
  endloop
 endfacet
 facet normal 0.782236 0.622983 0
  outer loop
   vertex 0.843202 0.136023 -1
   vertex 0.845194 0.133522 1
   vertex 0.845194 0.133522 -1
  endloop
 endfacet
 facet normal 0.80125 0.598329 -0
  outer loop
   vertex 0.845194 0.133522 -1
   vertex 0.845194 0.133522 1
   vertex 0.847107 0.13096 1
  endloop
 endfacet
 facet normal 0.80125 0.598329 0
  outer loop
   vertex 0.845194 0.133522 -1
   vertex 0.847107 0.13096 1
   vertex 0.847107 0.13096 -1
  endloop
 endfacet
 facet normal 0.819365 0.573272 -0
  outer loop
   vertex 0.847107 0.13096 -1
   vertex 0.847107 0.13096 1
   vertex 0.84894 0.12834 1
  endloop
 endfacet
 facet normal 0.819365 0.573272 0
  outer loop
   vertex 0.847107 0.13096 -1
   vertex 0.84894 0.12834 1
   vertex 0.84894 0.12834 -1
  endloop
 endfacet
 facet normal 0.836746 0.547591 -0
  outer loop
   vertex 0.84894 0.12834 -1
   vertex 0.84894 0.12834 1
   vertex 0.850691 0.125664 1
  endloop
 endfacet
 facet normal 0.836746 0.547591 0
  outer loop
   vertex 0.84894 0.12834 -1
   vertex 0.850691 0.125664 1
   vertex 0.850691 0.125664 -1
  endloop
 endfacet
 facet normal 0.853354 0.521331 -0
  outer loop
   vertex 0.850691 0.125664 -1
   vertex 0.850691 0.125664 1
   vertex 0.852358 0.122936 1
  endloop
 endfacet
 facet normal 0.853354 0.521331 0
  outer loop
   vertex 0.850691 0.125664 -1
   vertex 0.852358 0.122936 1
   vertex 0.852358 0.122936 -1
  endloop
 endfacet
 facet normal 0.869188 0.494483 -0
  outer loop
   vertex 0.852358 0.122936 -1
   vertex 0.852358 0.122936 1
   vertex 0.853939 0.120157 1
  endloop
 endfacet
 facet normal 0.869188 0.494483 0
  outer loop
   vertex 0.852358 0.122936 -1
   vertex 0.853939 0.120157 1
   vertex 0.853939 0.120157 -1
  endloop
 endfacet
 facet normal 0.88398 0.467524 -0
  outer loop
   vertex 0.853939 0.120157 -1
   vertex 0.853939 0.120157 1
   vertex 0.855434 0.11733 1
  endloop
 endfacet
 facet normal 0.88398 0.467524 0
  outer loop
   vertex 0.853939 0.120157 -1
   vertex 0.855434 0.11733 1
   vertex 0.855434 0.11733 -1
  endloop
 endfacet
 facet normal 0.898137 0.439716 -0
  outer loop
   vertex 0.855434 0.11733 -1
   vertex 0.855434 0.11733 1
   vertex 0.85684 0.114458 1
  endloop
 endfacet
 facet normal 0.898137 0.439716 0
  outer loop
   vertex 0.855434 0.11733 -1
   vertex 0.85684 0.114458 1
   vertex 0.85684 0.114458 -1
  endloop
 endfacet
 facet normal 0.911368 0.411592 -0
  outer loop
   vertex 0.85684 0.114458 -1
   vertex 0.85684 0.114458 1
   vertex 0.858156 0.111544 1
  endloop
 endfacet
 facet normal 0.911368 0.411592 0
  outer loop
   vertex 0.85684 0.114458 -1
   vertex 0.858156 0.111544 1
   vertex 0.858156 0.111544 -1
  endloop
 endfacet
 facet normal 0.923702 0.383111 -0
  outer loop
   vertex 0.858156 0.111544 -1
   vertex 0.858156 0.111544 1
   vertex 0.859381 0.108591 1
  endloop
 endfacet
 facet normal 0.923702 0.383111 0
  outer loop
   vertex 0.858156 0.111544 -1
   vertex 0.859381 0.108591 1
   vertex 0.859381 0.108591 -1
  endloop
 endfacet
 facet normal 0.935125 0.354317 -0
  outer loop
   vertex 0.859381 0.108591 -1
   vertex 0.859381 0.108591 1
   vertex 0.860514 0.105601 1
  endloop
 endfacet
 facet normal 0.935125 0.354317 0
  outer loop
   vertex 0.859381 0.108591 -1
   vertex 0.860514 0.105601 1
   vertex 0.860514 0.105601 -1
  endloop
 endfacet
 facet normal 0.945722 0.324977 -0
  outer loop
   vertex 0.860514 0.105601 -1
   vertex 0.860514 0.105601 1
   vertex 0.861553 0.102577 1
  endloop
 endfacet
 facet normal 0.945722 0.324977 0
  outer loop
   vertex 0.860514 0.105601 -1
   vertex 0.861553 0.102577 1
   vertex 0.861553 0.102577 -1
  endloop
 endfacet
 facet normal 0.95533 0.295541 -0
  outer loop
   vertex 0.861553 0.102577 -1
   vertex 0.861553 0.102577 1
   vertex 0.862498 0.0995223 1
  endloop
 endfacet
 facet normal 0.95533 0.295541 0
  outer loop
   vertex 0.861553 0.102577 -1
   vertex 0.862498 0.0995223 1
   vertex 0.862498 0.0995223 -1
  endloop
 endfacet
 facet normal 0.964018 0.265835 -0
  outer loop
   vertex 0.862498 0.0995223 -1
   vertex 0.862498 0.0995223 1
   vertex 0.863348 0.0964398 1
  endloop
 endfacet
 facet normal 0.964018 0.265835 0
  outer loop
   vertex 0.862498 0.0995223 -1
   vertex 0.863348 0.0964398 1
   vertex 0.863348 0.0964398 -1
  endloop
 endfacet
 facet normal 0.971801 0.235804 -0
  outer loop
   vertex 0.863348 0.0964398 -1
   vertex 0.863348 0.0964398 1
   vertex 0.864102 0.0933324 1
  endloop
 endfacet
 facet normal 0.971801 0.235804 0
  outer loop
   vertex 0.863348 0.0964398 -1
   vertex 0.864102 0.0933324 1
   vertex 0.864102 0.0933324 -1
  endloop
 endfacet
 facet normal 0.978662 0.205478 -0
  outer loop
   vertex 0.864102 0.0933324 -1
   vertex 0.864102 0.0933324 1
   vertex 0.864759 0.0902031 1
  endloop
 endfacet
 facet normal 0.978662 0.205478 0
  outer loop
   vertex 0.864102 0.0933324 -1
   vertex 0.864759 0.0902031 1
   vertex 0.864759 0.0902031 -1
  endloop
 endfacet
 facet normal 0.984545 0.175131 -0
  outer loop
   vertex 0.864759 0.0902031 -1
   vertex 0.864759 0.0902031 1
   vertex 0.865319 0.087055 1
  endloop
 endfacet
 facet normal 0.984545 0.175131 0
  outer loop
   vertex 0.864759 0.0902031 -1
   vertex 0.865319 0.087055 1
   vertex 0.865319 0.087055 -1
  endloop
 endfacet
 facet normal 0.989552 0.144174 -0
  outer loop
   vertex 0.865319 0.087055 -1
   vertex 0.865319 0.087055 1
   vertex 0.86578 0.083891 1
  endloop
 endfacet
 facet normal 0.989552 0.144174 0
  outer loop
   vertex 0.865319 0.087055 -1
   vertex 0.86578 0.083891 1
   vertex 0.86578 0.083891 -1
  endloop
 endfacet
 facet normal 0.993499 0.113838 -0
  outer loop
   vertex 0.86578 0.083891 -1
   vertex 0.86578 0.083891 1
   vertex 0.866144 0.0807142 1
  endloop
 endfacet
 facet normal 0.993499 0.113838 0
  outer loop
   vertex 0.86578 0.083891 -1
   vertex 0.866144 0.0807142 1
   vertex 0.866144 0.0807142 -1
  endloop
 endfacet
 facet normal 0.996586 0.0825632 -0
  outer loop
   vertex 0.866144 0.0807142 -1
   vertex 0.866144 0.0807142 1
   vertex 0.866408 0.0775277 1
  endloop
 endfacet
 facet normal 0.996586 0.0825632 0
  outer loop
   vertex 0.866144 0.0807142 -1
   vertex 0.866408 0.0775277 1
   vertex 0.866408 0.0775277 -1
  endloop
 endfacet
 facet normal 0.998668 0.0515974 -0
  outer loop
   vertex 0.866408 0.0775277 -1
   vertex 0.866408 0.0775277 1
   vertex 0.866573 0.0743344 1
  endloop
 endfacet
 facet normal 0.998668 0.0515974 0
  outer loop
   vertex 0.866408 0.0775277 -1
   vertex 0.866573 0.0743344 1
   vertex 0.866573 0.0743344 -1
  endloop
 endfacet
 facet normal 0.99978 0.0209525 -0
  outer loop
   vertex 0.866573 0.0743344 -1
   vertex 0.866573 0.0743344 1
   vertex 0.86664 0.0711376 1
  endloop
 endfacet
 facet normal 0.99978 0.0209525 0
  outer loop
   vertex 0.866573 0.0743344 -1
   vertex 0.86664 0.0711376 1
   vertex 0.86664 0.0711376 -1
  endloop
 endfacet
 facet normal 0.999947 -0.0103086 0
  outer loop
   vertex 0.86664 0.0711376 -1
   vertex 0.86664 0.0711376 1
   vertex 0.866607 0.0679403 1
  endloop
 endfacet
 facet normal 0.999947 -0.0103086 0
  outer loop
   vertex 0.86664 0.0711376 -1
   vertex 0.866607 0.0679403 1
   vertex 0.866607 0.0679403 -1
  endloop
 endfacet
 facet normal 0.999134 -0.0416071 0
  outer loop
   vertex 0.866607 0.0679403 -1
   vertex 0.866607 0.0679403 1
   vertex 0.866474 0.0647456 1
  endloop
 endfacet
 facet normal 0.999134 -0.0416071 0
  outer loop
   vertex 0.866607 0.0679403 -1
   vertex 0.866474 0.0647456 1
   vertex 0.866474 0.0647456 -1
  endloop
 endfacet
 facet normal 0.997388 -0.072235 0
  outer loop
   vertex 0.866474 0.0647456 -1
   vertex 0.866474 0.0647456 1
   vertex 0.866243 0.0615565 1
  endloop
 endfacet
 facet normal 0.997388 -0.072235 0
  outer loop
   vertex 0.866474 0.0647456 -1
   vertex 0.866243 0.0615565 1
   vertex 0.866243 0.0615565 -1
  endloop
 endfacet
 facet normal 0.994659 -0.103216 0
  outer loop
   vertex 0.866243 0.0615565 -1
   vertex 0.866243 0.0615565 1
   vertex 0.865913 0.0583761 1
  endloop
 endfacet
 facet normal 0.994659 -0.103216 0
  outer loop
   vertex 0.866243 0.0615565 -1
   vertex 0.865913 0.0583761 1
   vertex 0.865913 0.0583761 -1
  endloop
 endfacet
 facet normal -0.156478 -0.987681 -0
  outer loop
   vertex 0.861422 0.0551132 1
   vertex 0.859447 0.0554261 1
   vertex 0.861422 0.0551132 -1
  endloop
 endfacet
 facet normal -0.156478 -0.987681 0
  outer loop
   vertex 0.861422 0.0551132 -1
   vertex 0.859447 0.0554261 1
   vertex 0.859447 0.0554261 -1
  endloop
 endfacet
 facet normal -0.990082 0.140488 0
  outer loop
   vertex 0.859447 0.0554261 -1
   vertex 0.859447 0.0554261 1
   vertex 0.859885 0.0585127 -1
  endloop
 endfacet
 facet normal -0.990082 0.140488 0
  outer loop
   vertex 0.859885 0.0585127 -1
   vertex 0.859447 0.0554261 1
   vertex 0.859885 0.0585127 1
  endloop
 endfacet
 facet normal -0.994069 0.108748 0
  outer loop
   vertex 0.859885 0.0585127 -1
   vertex 0.859885 0.0585127 1
   vertex 0.860224 0.0616118 -1
  endloop
 endfacet
 facet normal -0.994069 0.108748 0
  outer loop
   vertex 0.860224 0.0616118 -1
   vertex 0.859885 0.0585127 1
   vertex 0.860224 0.0616118 1
  endloop
 endfacet
 facet normal -0.997081 0.0763461 0
  outer loop
   vertex 0.860224 0.0616118 -1
   vertex 0.860224 0.0616118 1
   vertex 0.860462 0.0647201 -1
  endloop
 endfacet
 facet normal -0.997081 0.0763461 0
  outer loop
   vertex 0.860462 0.0647201 -1
   vertex 0.860224 0.0616118 1
   vertex 0.860462 0.0647201 1
  endloop
 endfacet
 facet normal -0.998991 0.0449107 0
  outer loop
   vertex 0.860462 0.0647201 -1
   vertex 0.860462 0.0647201 1
   vertex 0.860602 0.0678345 -1
  endloop
 endfacet
 facet normal -0.998991 0.0449107 0
  outer loop
   vertex 0.860602 0.0678345 -1
   vertex 0.860462 0.0647201 1
   vertex 0.860602 0.0678345 1
  endloop
 endfacet
 facet normal -0.999926 0.0121789 0
  outer loop
   vertex 0.860602 0.0678345 -1
   vertex 0.860602 0.0678345 1
   vertex 0.86064 0.0709518 -1
  endloop
 endfacet
 facet normal -0.999926 0.0121789 0
  outer loop
   vertex 0.86064 0.0709518 -1
   vertex 0.860602 0.0678345 1
   vertex 0.86064 0.0709518 1
  endloop
 endfacet
 facet normal -0.999809 -0.0195591 0
  outer loop
   vertex 0.86064 0.0709518 -1
   vertex 0.86064 0.0709518 1
   vertex 0.860579 0.0740687 -1
  endloop
 endfacet
 facet normal -0.999809 -0.0195591 0
  outer loop
   vertex 0.860579 0.0740687 -1
   vertex 0.86064 0.0709518 1
   vertex 0.860579 0.0740687 1
  endloop
 endfacet
 facet normal -0.998666 -0.0516404 0
  outer loop
   vertex 0.860579 0.0740687 -1
   vertex 0.860579 0.0740687 1
   vertex 0.860418 0.0771821 -1
  endloop
 endfacet
 facet normal -0.998666 -0.0516404 0
  outer loop
   vertex 0.860418 0.0771821 -1
   vertex 0.860579 0.0740687 1
   vertex 0.860418 0.0771821 1
  endloop
 endfacet
 facet normal -0.996462 -0.0840479 0
  outer loop
   vertex 0.860418 0.0771821 -1
   vertex 0.860418 0.0771821 1
   vertex 0.860156 0.0802886 -1
  endloop
 endfacet
 facet normal -0.996462 -0.0840479 0
  outer loop
   vertex 0.860156 0.0802886 -1
   vertex 0.860418 0.0771821 1
   vertex 0.860156 0.0802886 1
  endloop
 endfacet
 facet normal -0.993272 -0.115803 0
  outer loop
   vertex 0.860156 0.0802886 -1
   vertex 0.860156 0.0802886 1
   vertex 0.859795 0.0833852 -1
  endloop
 endfacet
 facet normal -0.993272 -0.115803 0
  outer loop
   vertex 0.859795 0.0833852 -1
   vertex 0.860156 0.0802886 1
   vertex 0.859795 0.0833852 1
  endloop
 endfacet
 facet normal -0.989055 -0.147548 0
  outer loop
   vertex 0.859795 0.0833852 -1
   vertex 0.859795 0.0833852 1
   vertex 0.859335 0.0864685 -1
  endloop
 endfacet
 facet normal -0.989055 -0.147548 0
  outer loop
   vertex 0.859335 0.0864685 -1
   vertex 0.859795 0.0833852 1
   vertex 0.859335 0.0864685 1
  endloop
 endfacet
 facet normal -0.983791 -0.179319 0
  outer loop
   vertex 0.859335 0.0864685 -1
   vertex 0.859335 0.0864685 1
   vertex 0.858776 0.0895355 -1
  endloop
 endfacet
 facet normal -0.983791 -0.179319 0
  outer loop
   vertex 0.858776 0.0895355 -1
   vertex 0.859335 0.0864685 1
   vertex 0.858776 0.0895355 1
  endloop
 endfacet
 facet normal -0.977475 -0.21105 0
  outer loop
   vertex 0.858776 0.0895355 -1
   vertex 0.858776 0.0895355 1
   vertex 0.858118 0.0925829 -1
  endloop
 endfacet
 facet normal -0.977475 -0.21105 0
  outer loop
   vertex 0.858118 0.0925829 -1
   vertex 0.858776 0.0895355 1
   vertex 0.858118 0.0925829 1
  endloop
 endfacet
 facet normal -0.97023 -0.242184 0
  outer loop
   vertex 0.858118 0.0925829 -1
   vertex 0.858118 0.0925829 1
   vertex 0.857363 0.0956076 -1
  endloop
 endfacet
 facet normal -0.97023 -0.242184 0
  outer loop
   vertex 0.857363 0.0956076 -1
   vertex 0.858118 0.0925829 1
   vertex 0.857363 0.0956076 1
  endloop
 endfacet
 facet normal -0.961933 -0.273286 0
  outer loop
   vertex 0.857363 0.0956076 -1
   vertex 0.857363 0.0956076 1
   vertex 0.856511 0.0986065 -1
  endloop
 endfacet
 facet normal -0.961933 -0.273286 0
  outer loop
   vertex 0.856511 0.0986065 -1
   vertex 0.857363 0.0956076 1
   vertex 0.856511 0.0986065 1
  endloop
 endfacet
 facet normal -0.95274 -0.303786 0
  outer loop
   vertex 0.856511 0.0986065 -1
   vertex 0.856511 0.0986065 1
   vertex 0.855564 0.101577 -1
  endloop
 endfacet
 facet normal -0.95274 -0.303786 0
  outer loop
   vertex 0.855564 0.101577 -1
   vertex 0.856511 0.0986065 1
   vertex 0.855564 0.101577 1
  endloop
 endfacet
 facet normal -0.942377 -0.334554 0
  outer loop
   vertex 0.855564 0.101577 -1
   vertex 0.855564 0.101577 1
   vertex 0.854521 0.104514 -1
  endloop
 endfacet
 facet normal -0.942377 -0.334554 0
  outer loop
   vertex 0.854521 0.104514 -1
   vertex 0.855564 0.101577 1
   vertex 0.854521 0.104514 1
  endloop
 endfacet
 facet normal -0.931236 -0.364417 0
  outer loop
   vertex 0.854521 0.104514 -1
   vertex 0.854521 0.104514 1
   vertex 0.853385 0.107417 -1
  endloop
 endfacet
 facet normal -0.931236 -0.364417 0
  outer loop
   vertex 0.853385 0.107417 -1
   vertex 0.854521 0.104514 1
   vertex 0.853385 0.107417 1
  endloop
 endfacet
 facet normal -0.918903 -0.394483 0
  outer loop
   vertex 0.853385 0.107417 -1
   vertex 0.853385 0.107417 1
   vertex 0.852155 0.110282 -1
  endloop
 endfacet
 facet normal -0.918903 -0.394483 0
  outer loop
   vertex 0.852155 0.110282 -1
   vertex 0.853385 0.107417 1
   vertex 0.852155 0.110282 1
  endloop
 endfacet
 facet normal -0.905919 -0.423451 0
  outer loop
   vertex 0.852155 0.110282 -1
   vertex 0.852155 0.110282 1
   vertex 0.850835 0.113106 -1
  endloop
 endfacet
 facet normal -0.905919 -0.423451 0
  outer loop
   vertex 0.850835 0.113106 -1
   vertex 0.852155 0.110282 1
   vertex 0.850835 0.113106 1
  endloop
 endfacet
 facet normal -0.891715 -0.452597 0
  outer loop
   vertex 0.850835 0.113106 -1
   vertex 0.850835 0.113106 1
   vertex 0.849424 0.115886 -1
  endloop
 endfacet
 facet normal -0.891715 -0.452597 0
  outer loop
   vertex 0.849424 0.115886 -1
   vertex 0.850835 0.113106 1
   vertex 0.849424 0.115886 1
  endloop
 endfacet
 facet normal -0.876802 -0.480851 0
  outer loop
   vertex 0.849424 0.115886 -1
   vertex 0.849424 0.115886 1
   vertex 0.847925 0.11862 -1
  endloop
 endfacet
 facet normal -0.876802 -0.480851 0
  outer loop
   vertex 0.847925 0.11862 -1
   vertex 0.849424 0.115886 1
   vertex 0.847925 0.11862 1
  endloop
 endfacet
 facet normal -0.860763 -0.509006 0
  outer loop
   vertex 0.847925 0.11862 -1
   vertex 0.847925 0.11862 1
   vertex 0.846338 0.121304 -1
  endloop
 endfacet
 facet normal -0.860763 -0.509006 0
  outer loop
   vertex 0.846338 0.121304 -1
   vertex 0.847925 0.11862 1
   vertex 0.846338 0.121304 1
  endloop
 endfacet
 facet normal -0.844182 -0.536057 0
  outer loop
   vertex 0.846338 0.121304 -1
   vertex 0.846338 0.121304 1
   vertex 0.844667 0.123935 -1
  endloop
 endfacet
 facet normal -0.844182 -0.536057 0
  outer loop
   vertex 0.844667 0.123935 -1
   vertex 0.846338 0.121304 1
   vertex 0.844667 0.123935 1
  endloop
 endfacet
 facet normal -0.826314 -0.563209 0
  outer loop
   vertex 0.844667 0.123935 -1
   vertex 0.844667 0.123935 1
   vertex 0.842911 0.126511 -1
  endloop
 endfacet
 facet normal -0.826314 -0.563209 0
  outer loop
   vertex 0.842911 0.126511 -1
   vertex 0.844667 0.123935 1
   vertex 0.842911 0.126511 1
  endloop
 endfacet
 facet normal -0.807921 -0.589291 0
  outer loop
   vertex 0.842911 0.126511 -1
   vertex 0.842911 0.126511 1
   vertex 0.841074 0.12903 -1
  endloop
 endfacet
 facet normal -0.807921 -0.589291 0
  outer loop
   vertex 0.841074 0.12903 -1
   vertex 0.842911 0.126511 1
   vertex 0.841074 0.12903 1
  endloop
 endfacet
 facet normal -0.788575 -0.614938 0
  outer loop
   vertex 0.841074 0.12903 -1
   vertex 0.841074 0.12903 1
   vertex 0.839157 0.131488 -1
  endloop
 endfacet
 facet normal -0.788575 -0.614938 0
  outer loop
   vertex 0.839157 0.131488 -1
   vertex 0.841074 0.12903 1
   vertex 0.839157 0.131488 1
  endloop
 endfacet
 facet normal -0.768237 -0.640165 0
  outer loop
   vertex 0.839157 0.131488 -1
   vertex 0.839157 0.131488 1
   vertex 0.837161 0.133883 -1
  endloop
 endfacet
 facet normal -0.768237 -0.640165 0
  outer loop
   vertex 0.837161 0.133883 -1
   vertex 0.839157 0.131488 1
   vertex 0.837161 0.133883 1
  endloop
 endfacet
 facet normal -0.747438 -0.664332 0
  outer loop
   vertex 0.837161 0.133883 -1
   vertex 0.837161 0.133883 1
   vertex 0.83509 0.136214 -1
  endloop
 endfacet
 facet normal -0.747438 -0.664332 0
  outer loop
   vertex 0.83509 0.136214 -1
   vertex 0.837161 0.133883 1
   vertex 0.83509 0.136214 1
  endloop
 endfacet
 facet normal -0.725671 -0.688042 0
  outer loop
   vertex 0.83509 0.136214 -1
   vertex 0.83509 0.136214 1
   vertex 0.832945 0.138476 -1
  endloop
 endfacet
 facet normal -0.725671 -0.688042 0
  outer loop
   vertex 0.832945 0.138476 -1
   vertex 0.83509 0.136214 1
   vertex 0.832945 0.138476 1
  endloop
 endfacet
 facet normal -0.703282 -0.710911 0
  outer loop
   vertex 0.832945 0.138476 -1
   vertex 0.832945 0.138476 1
   vertex 0.830729 0.140668 -1
  endloop
 endfacet
 facet normal -0.703282 -0.710911 0
  outer loop
   vertex 0.830729 0.140668 -1
   vertex 0.832945 0.138476 1
   vertex 0.830729 0.140668 1
  endloop
 endfacet
 facet normal -0.679964 -0.733246 0
  outer loop
   vertex 0.830729 0.140668 -1
   vertex 0.830729 0.140668 1
   vertex 0.828443 0.142788 -1
  endloop
 endfacet
 facet normal -0.679964 -0.733246 0
  outer loop
   vertex 0.828443 0.142788 -1
   vertex 0.830729 0.140668 1
   vertex 0.828443 0.142788 1
  endloop
 endfacet
 facet normal -0.656015 -0.754748 0
  outer loop
   vertex 0.828443 0.142788 -1
   vertex 0.828443 0.142788 1
   vertex 0.82609 0.144833 -1
  endloop
 endfacet
 facet normal -0.656015 -0.754748 0
  outer loop
   vertex 0.82609 0.144833 -1
   vertex 0.828443 0.142788 1
   vertex 0.82609 0.144833 1
  endloop
 endfacet
 facet normal -0.631542 -0.775342 0
  outer loop
   vertex 0.82609 0.144833 -1
   vertex 0.82609 0.144833 1
   vertex 0.823673 0.146802 -1
  endloop
 endfacet
 facet normal -0.631542 -0.775342 0
  outer loop
   vertex 0.823673 0.146802 -1
   vertex 0.82609 0.144833 1
   vertex 0.823673 0.146802 1
  endloop
 endfacet
 facet normal -0.606136 -0.795361 0
  outer loop
   vertex 0.823673 0.146802 -1
   vertex 0.823673 0.146802 1
   vertex 0.821193 0.148692 -1
  endloop
 endfacet
 facet normal -0.606136 -0.795361 0
  outer loop
   vertex 0.821193 0.148692 -1
   vertex 0.823673 0.146802 1
   vertex 0.821193 0.148692 1
  endloop
 endfacet
 facet normal -0.580334 -0.814379 0
  outer loop
   vertex 0.821193 0.148692 -1
   vertex 0.821193 0.148692 1
   vertex 0.818654 0.150501 -1
  endloop
 endfacet
 facet normal -0.580334 -0.814379 0
  outer loop
   vertex 0.818654 0.150501 -1
   vertex 0.821193 0.148692 1
   vertex 0.818654 0.150501 1
  endloop
 endfacet
 facet normal -0.55401 -0.83251 0
  outer loop
   vertex 0.818654 0.150501 -1
   vertex 0.818654 0.150501 1
   vertex 0.816059 0.152228 -1
  endloop
 endfacet
 facet normal -0.55401 -0.83251 0
  outer loop
   vertex 0.816059 0.152228 -1
   vertex 0.818654 0.150501 1
   vertex 0.816059 0.152228 1
  endloop
 endfacet
 facet normal -0.52682 -0.849977 0
  outer loop
   vertex 0.816059 0.152228 -1
   vertex 0.816059 0.152228 1
   vertex 0.813409 0.153871 -1
  endloop
 endfacet
 facet normal -0.52682 -0.849977 0
  outer loop
   vertex 0.813409 0.153871 -1
   vertex 0.816059 0.152228 1
   vertex 0.813409 0.153871 1
  endloop
 endfacet
 facet normal -0.499299 -0.86643 0
  outer loop
   vertex 0.813409 0.153871 -1
   vertex 0.813409 0.153871 1
   vertex 0.810708 0.155427 -1
  endloop
 endfacet
 facet normal -0.499299 -0.86643 0
  outer loop
   vertex 0.810708 0.155427 -1
   vertex 0.813409 0.153871 1
   vertex 0.810708 0.155427 1
  endloop
 endfacet
 facet normal -0.471199 -0.882027 0
  outer loop
   vertex 0.810708 0.155427 -1
   vertex 0.810708 0.155427 1
   vertex 0.807958 0.156896 -1
  endloop
 endfacet
 facet normal -0.471199 -0.882027 0
  outer loop
   vertex 0.807958 0.156896 -1
   vertex 0.810708 0.155427 1
   vertex 0.807958 0.156896 1
  endloop
 endfacet
 facet normal -0.442667 -0.896686 0
  outer loop
   vertex 0.807958 0.156896 -1
   vertex 0.807958 0.156896 1
   vertex 0.805163 0.158276 -1
  endloop
 endfacet
 facet normal -0.442667 -0.896686 0
  outer loop
   vertex 0.805163 0.158276 -1
   vertex 0.807958 0.156896 1
   vertex 0.805163 0.158276 1
  endloop
 endfacet
 facet normal -0.413493 -0.910507 0
  outer loop
   vertex 0.805163 0.158276 -1
   vertex 0.805163 0.158276 1
   vertex 0.802324 0.159565 -1
  endloop
 endfacet
 facet normal -0.413493 -0.910507 0
  outer loop
   vertex 0.802324 0.159565 -1
   vertex 0.805163 0.158276 1
   vertex 0.802324 0.159565 1
  endloop
 endfacet
 facet normal -0.384131 -0.923279 0
  outer loop
   vertex 0.802324 0.159565 -1
   vertex 0.802324 0.159565 1
   vertex 0.799446 0.160763 -1
  endloop
 endfacet
 facet normal -0.384131 -0.923279 0
  outer loop
   vertex 0.799446 0.160763 -1
   vertex 0.802324 0.159565 1
   vertex 0.799446 0.160763 1
  endloop
 endfacet
 facet normal -0.354296 -0.935133 0
  outer loop
   vertex 0.799446 0.160763 -1
   vertex 0.799446 0.160763 1
   vertex 0.796531 0.161867 -1
  endloop
 endfacet
 facet normal -0.354296 -0.935133 0
  outer loop
   vertex 0.796531 0.161867 -1
   vertex 0.799446 0.160763 1
   vertex 0.796531 0.161867 1
  endloop
 endfacet
 facet normal -0.323942 -0.946077 0
  outer loop
   vertex 0.796531 0.161867 -1
   vertex 0.796531 0.161867 1
   vertex 0.793581 0.162877 -1
  endloop
 endfacet
 facet normal -0.323942 -0.946077 0
  outer loop
   vertex 0.793581 0.162877 -1
   vertex 0.796531 0.161867 1
   vertex 0.793581 0.162877 1
  endloop
 endfacet
 facet normal -0.293494 -0.955961 0
  outer loop
   vertex 0.793581 0.162877 -1
   vertex 0.793581 0.162877 1
   vertex 0.790601 0.163792 -1
  endloop
 endfacet
 facet normal -0.293494 -0.955961 0
  outer loop
   vertex 0.790601 0.163792 -1
   vertex 0.793581 0.162877 1
   vertex 0.790601 0.163792 1
  endloop
 endfacet
 facet normal -0.26259 -0.964908 0
  outer loop
   vertex 0.790601 0.163792 -1
   vertex 0.790601 0.163792 1
   vertex 0.787593 0.164611 -1
  endloop
 endfacet
 facet normal -0.26259 -0.964908 0
  outer loop
   vertex 0.787593 0.164611 -1
   vertex 0.790601 0.163792 1
   vertex 0.787593 0.164611 1
  endloop
 endfacet
 facet normal -0.231426 -0.972852 0
  outer loop
   vertex 0.787593 0.164611 -1
   vertex 0.787593 0.164611 1
   vertex 0.78456 0.165332 -1
  endloop
 endfacet
 facet normal -0.231426 -0.972852 0
  outer loop
   vertex 0.78456 0.165332 -1
   vertex 0.787593 0.164611 1
   vertex 0.78456 0.165332 1
  endloop
 endfacet
 facet normal -0.200092 -0.979777 0
  outer loop
   vertex 0.78456 0.165332 -1
   vertex 0.78456 0.165332 1
   vertex 0.781506 0.165956 -1
  endloop
 endfacet
 facet normal -0.200092 -0.979777 0
  outer loop
   vertex 0.781506 0.165956 -1
   vertex 0.78456 0.165332 1
   vertex 0.781506 0.165956 1
  endloop
 endfacet
 facet normal -0.168467 -0.985707 0
  outer loop
   vertex 0.781506 0.165956 -1
   vertex 0.781506 0.165956 1
   vertex 0.778433 0.166481 -1
  endloop
 endfacet
 facet normal -0.168467 -0.985707 0
  outer loop
   vertex 0.778433 0.166481 -1
   vertex 0.781506 0.165956 1
   vertex 0.778433 0.166481 1
  endloop
 endfacet
 facet normal -0.13671 -0.990611 0
  outer loop
   vertex 0.778433 0.166481 -1
   vertex 0.778433 0.166481 1
   vertex 0.775344 0.166907 -1
  endloop
 endfacet
 facet normal -0.13671 -0.990611 0
  outer loop
   vertex 0.775344 0.166907 -1
   vertex 0.778433 0.166481 1
   vertex 0.775344 0.166907 1
  endloop
 endfacet
 facet normal -0.104836 -0.994489 0
  outer loop
   vertex 0.775344 0.166907 -1
   vertex 0.775344 0.166907 1
   vertex 0.772244 0.167234 -1
  endloop
 endfacet
 facet normal -0.104836 -0.994489 0
  outer loop
   vertex 0.772244 0.167234 -1
   vertex 0.775344 0.166907 1
   vertex 0.772244 0.167234 1
  endloop
 endfacet
 facet normal -0.0728207 -0.997345 0
  outer loop
   vertex 0.772244 0.167234 -1
   vertex 0.772244 0.167234 1
   vertex 0.769135 0.167461 -1
  endloop
 endfacet
 facet normal -0.0728207 -0.997345 0
  outer loop
   vertex 0.769135 0.167461 -1
   vertex 0.772244 0.167234 1
   vertex 0.769135 0.167461 1
  endloop
 endfacet
 facet normal -0.0407053 -0.999171 0
  outer loop
   vertex 0.769135 0.167461 -1
   vertex 0.769135 0.167461 1
   vertex 0.76602 0.167588 -1
  endloop
 endfacet
 facet normal -0.0407053 -0.999171 0
  outer loop
   vertex 0.76602 0.167588 -1
   vertex 0.769135 0.167461 1
   vertex 0.76602 0.167588 1
  endloop
 endfacet
 facet normal -0.999847 -0.0174948 -0
  outer loop
   vertex 0.761863 0.171602 1
   vertex 0.761828 0.173602 1
   vertex 0.761863 0.171602 -1
  endloop
 endfacet
 facet normal -0.999847 -0.0174948 0
  outer loop
   vertex 0.761863 0.171602 -1
   vertex 0.761828 0.173602 1
   vertex 0.761828 0.173602 -1
  endloop
 endfacet
 facet normal 0 0 -1
  outer loop
   vertex 0.761863 0.171602 -1
   vertex 0.761828 0.173602 -1
   vertex 0.76602 0.167588 -1
  endloop
 endfacet
 facet normal 0 0 -1
  outer loop
   vertex 0.76602 0.167588 -1
   vertex 0.761828 0.173602 -1
   vertex 0.765025 0.173608 -1
  endloop
 endfacet
 facet normal 0 0 -1
  outer loop
   vertex 0.76602 0.167588 -1
   vertex 0.765025 0.173608 -1
   vertex 0.769135 0.167461 -1
  endloop
 endfacet
 facet normal 0 0 -1
  outer loop
   vertex 0.769135 0.167461 -1
   vertex 0.765025 0.173608 -1
   vertex 0.768222 0.173515 -1
  endloop
 endfacet
 facet normal 0 0 -1
  outer loop
   vertex 0.769135 0.167461 -1
   vertex 0.768222 0.173515 -1
   vertex 0.772244 0.167234 -1
  endloop
 endfacet
 facet normal 0 0 -1
  outer loop
   vertex 0.772244 0.167234 -1
   vertex 0.768222 0.173515 -1
   vertex 0.771413 0.173323 -1
  endloop
 endfacet
 facet normal 0 0 -1
  outer loop
   vertex 0.772244 0.167234 -1
   vertex 0.771413 0.173323 -1
   vertex 0.775344 0.166907 -1
  endloop
 endfacet
 facet normal 0 0 -1
  outer loop
   vertex 0.775344 0.166907 -1
   vertex 0.771413 0.173323 -1
   vertex 0.774598 0.173032 -1
  endloop
 endfacet
 facet normal 0 0 -1
  outer loop
   vertex 0.775344 0.166907 -1
   vertex 0.774598 0.173032 -1
   vertex 0.778433 0.166481 -1
  endloop
 endfacet
 facet normal 0 0 -1
  outer loop
   vertex 0.861422 0.0551132 -1
   vertex 0.859447 0.0554261 -1
   vertex 0.865913 0.0583761 -1
  endloop
 endfacet
 facet normal -0 0 -1
  outer loop
   vertex 0.865913 0.0583761 -1
   vertex 0.859447 0.0554261 -1
   vertex 0.859885 0.0585127 -1
  endloop
 endfacet
 facet normal 0 0 -1
  outer loop
   vertex 0.865913 0.0583761 -1
   vertex 0.859885 0.0585127 -1
   vertex 0.866243 0.0615565 -1
  endloop
 endfacet
 facet normal -0 0 -1
  outer loop
   vertex 0.866243 0.0615565 -1
   vertex 0.859885 0.0585127 -1
   vertex 0.860224 0.0616118 -1
  endloop
 endfacet
 facet normal 0 0 -1
  outer loop
   vertex 0.866243 0.0615565 -1
   vertex 0.860224 0.0616118 -1
   vertex 0.866474 0.0647456 -1
  endloop
 endfacet
 facet normal 0 0 -1
  outer loop
   vertex 0.866474 0.0647456 -1
   vertex 0.860224 0.0616118 -1
   vertex 0.860462 0.0647201 -1
  endloop
 endfacet
 facet normal -0 0 -1
  outer loop
   vertex 0.866474 0.0647456 -1
   vertex 0.860462 0.0647201 -1
   vertex 0.866607 0.0679403 -1
  endloop
 endfacet
 facet normal 0 0 -1
  outer loop
   vertex 0.866607 0.0679403 -1
   vertex 0.860462 0.0647201 -1
   vertex 0.860602 0.0678345 -1
  endloop
 endfacet
 facet normal -0 0 -1
  outer loop
   vertex 0.866607 0.0679403 -1
   vertex 0.860602 0.0678345 -1
   vertex 0.86664 0.0711376 -1
  endloop
 endfacet
 facet normal 0 0 -1
  outer loop
   vertex 0.86664 0.0711376 -1
   vertex 0.860602 0.0678345 -1
   vertex 0.86064 0.0709518 -1
  endloop
 endfacet
 facet normal -0 0 -1
  outer loop
   vertex 0.86664 0.0711376 -1
   vertex 0.86064 0.0709518 -1
   vertex 0.866573 0.0743344 -1
  endloop
 endfacet
 facet normal 0 0 -1
  outer loop
   vertex 0.866573 0.0743344 -1
   vertex 0.86064 0.0709518 -1
   vertex 0.860579 0.0740687 -1
  endloop
 endfacet
 facet normal -0 0 -1
  outer loop
   vertex 0.866573 0.0743344 -1
   vertex 0.860579 0.0740687 -1
   vertex 0.866408 0.0775277 -1
  endloop
 endfacet
 facet normal 0 0 -1
  outer loop
   vertex 0.866408 0.0775277 -1
   vertex 0.860579 0.0740687 -1
   vertex 0.860418 0.0771821 -1
  endloop
 endfacet
 facet normal -0 0 -1
  outer loop
   vertex 0.866408 0.0775277 -1
   vertex 0.860418 0.0771821 -1
   vertex 0.866144 0.0807142 -1
  endloop
 endfacet
 facet normal 0 0 -1
  outer loop
   vertex 0.866144 0.0807142 -1
   vertex 0.860418 0.0771821 -1
   vertex 0.860156 0.0802886 -1
  endloop
 endfacet
 facet normal -0 0 -1
  outer loop
   vertex 0.866144 0.0807142 -1
   vertex 0.860156 0.0802886 -1
   vertex 0.86578 0.083891 -1
  endloop
 endfacet
 facet normal 0 0 -1
  outer loop
   vertex 0.86578 0.083891 -1
   vertex 0.860156 0.0802886 -1
   vertex 0.859795 0.0833852 -1
  endloop
 endfacet
 facet normal -0 0 -1
  outer loop
   vertex 0.86578 0.083891 -1
   vertex 0.859795 0.0833852 -1
   vertex 0.865319 0.087055 -1
  endloop
 endfacet
 facet normal 0 0 -1
  outer loop
   vertex 0.865319 0.087055 -1
   vertex 0.859795 0.0833852 -1
   vertex 0.859335 0.0864685 -1
  endloop
 endfacet
 facet normal -0 0 -1
  outer loop
   vertex 0.865319 0.087055 -1
   vertex 0.859335 0.0864685 -1
   vertex 0.864759 0.0902031 -1
  endloop
 endfacet
 facet normal 0 0 -1
  outer loop
   vertex 0.864759 0.0902031 -1
   vertex 0.859335 0.0864685 -1
   vertex 0.858776 0.0895355 -1
  endloop
 endfacet
 facet normal -0 0 -1
  outer loop
   vertex 0.864759 0.0902031 -1
   vertex 0.858776 0.0895355 -1
   vertex 0.864102 0.0933324 -1
  endloop
 endfacet
 facet normal 0 0 -1
  outer loop
   vertex 0.864102 0.0933324 -1
   vertex 0.858776 0.0895355 -1
   vertex 0.858118 0.0925829 -1
  endloop
 endfacet
 facet normal -0 0 -1
  outer loop
   vertex 0.864102 0.0933324 -1
   vertex 0.858118 0.0925829 -1
   vertex 0.863348 0.0964398 -1
  endloop
 endfacet
 facet normal 0 0 -1
  outer loop
   vertex 0.863348 0.0964398 -1
   vertex 0.858118 0.0925829 -1
   vertex 0.857363 0.0956076 -1
  endloop
 endfacet
 facet normal -0 0 -1
  outer loop
   vertex 0.863348 0.0964398 -1
   vertex 0.857363 0.0956076 -1
   vertex 0.862498 0.0995223 -1
  endloop
 endfacet
 facet normal 0 0 -1
  outer loop
   vertex 0.862498 0.0995223 -1
   vertex 0.857363 0.0956076 -1
   vertex 0.856511 0.0986065 -1
  endloop
 endfacet
 facet normal -0 0 -1
  outer loop
   vertex 0.862498 0.0995223 -1
   vertex 0.856511 0.0986065 -1
   vertex 0.861553 0.102577 -1
  endloop
 endfacet
 facet normal 0 0 -1
  outer loop
   vertex 0.861553 0.102577 -1
   vertex 0.856511 0.0986065 -1
   vertex 0.855564 0.101577 -1
  endloop
 endfacet
 facet normal -0 0 -1
  outer loop
   vertex 0.861553 0.102577 -1
   vertex 0.855564 0.101577 -1
   vertex 0.860514 0.105601 -1
  endloop
 endfacet
 facet normal 0 0 -1
  outer loop
   vertex 0.860514 0.105601 -1
   vertex 0.855564 0.101577 -1
   vertex 0.854521 0.104514 -1
  endloop
 endfacet
 facet normal -0 0 -1
  outer loop
   vertex 0.860514 0.105601 -1
   vertex 0.854521 0.104514 -1
   vertex 0.859381 0.108591 -1
  endloop
 endfacet
 facet normal 0 0 -1
  outer loop
   vertex 0.859381 0.108591 -1
   vertex 0.854521 0.104514 -1
   vertex 0.853385 0.107417 -1
  endloop
 endfacet
 facet normal -0 0 -1
  outer loop
   vertex 0.859381 0.108591 -1
   vertex 0.853385 0.107417 -1
   vertex 0.858156 0.111544 -1
  endloop
 endfacet
 facet normal 0 0 -1
  outer loop
   vertex 0.858156 0.111544 -1
   vertex 0.853385 0.107417 -1
   vertex 0.852155 0.110282 -1
  endloop
 endfacet
 facet normal -0 0 -1
  outer loop
   vertex 0.858156 0.111544 -1
   vertex 0.852155 0.110282 -1
   vertex 0.85684 0.114458 -1
  endloop
 endfacet
 facet normal 0 0 -1
  outer loop
   vertex 0.85684 0.114458 -1
   vertex 0.852155 0.110282 -1
   vertex 0.850835 0.113106 -1
  endloop
 endfacet
 facet normal -0 0 -1
  outer loop
   vertex 0.85684 0.114458 -1
   vertex 0.850835 0.113106 -1
   vertex 0.855434 0.11733 -1
  endloop
 endfacet
 facet normal 0 0 -1
  outer loop
   vertex 0.855434 0.11733 -1
   vertex 0.850835 0.113106 -1
   vertex 0.849424 0.115886 -1
  endloop
 endfacet
 facet normal -0 0 -1
  outer loop
   vertex 0.855434 0.11733 -1
   vertex 0.849424 0.115886 -1
   vertex 0.853939 0.120157 -1
  endloop
 endfacet
 facet normal 0 0 -1
  outer loop
   vertex 0.853939 0.120157 -1
   vertex 0.849424 0.115886 -1
   vertex 0.847925 0.11862 -1
  endloop
 endfacet
 facet normal 0 0 -1
  outer loop
   vertex 0.774598 0.173032 -1
   vertex 0.777771 0.172642 -1
   vertex 0.778433 0.166481 -1
  endloop
 endfacet
 facet normal 0 0 -1
  outer loop
   vertex 0.778433 0.166481 -1
   vertex 0.777771 0.172642 -1
   vertex 0.780931 0.172154 -1
  endloop
 endfacet
 facet normal 0 0 -1
  outer loop
   vertex 0.778433 0.166481 -1
   vertex 0.780931 0.172154 -1
   vertex 0.781506 0.165956 -1
  endloop
 endfacet
 facet normal 0 0 -1
  outer loop
   vertex 0.781506 0.165956 -1
   vertex 0.780931 0.172154 -1
   vertex 0.784075 0.171568 -1
  endloop
 endfacet
 facet normal 0 0 -1
  outer loop
   vertex 0.781506 0.165956 -1
   vertex 0.784075 0.171568 -1
   vertex 0.78456 0.165332 -1
  endloop
 endfacet
 facet normal 0 0 -1
  outer loop
   vertex 0.78456 0.165332 -1
   vertex 0.784075 0.171568 -1
   vertex 0.787198 0.170884 -1
  endloop
 endfacet
 facet normal 0 0 -1
  outer loop
   vertex 0.78456 0.165332 -1
   vertex 0.787198 0.170884 -1
   vertex 0.787593 0.164611 -1
  endloop
 endfacet
 facet normal 0 0 -1
  outer loop
   vertex 0.787593 0.164611 -1
   vertex 0.787198 0.170884 -1
   vertex 0.790299 0.170105 -1
  endloop
 endfacet
 facet normal 0 0 -1
  outer loop
   vertex 0.787593 0.164611 -1
   vertex 0.790299 0.170105 -1
   vertex 0.790601 0.163792 -1
  endloop
 endfacet
 facet normal 0 0 -1
  outer loop
   vertex 0.790601 0.163792 -1
   vertex 0.790299 0.170105 -1
   vertex 0.793374 0.169229 -1
  endloop
 endfacet
 facet normal 0 0 -1
  outer loop
   vertex 0.790601 0.163792 -1
   vertex 0.793374 0.169229 -1
   vertex 0.793581 0.162877 -1
  endloop
 endfacet
 facet normal 0 0 -1
  outer loop
   vertex 0.793581 0.162877 -1
   vertex 0.793374 0.169229 -1
   vertex 0.796421 0.168258 -1
  endloop
 endfacet
 facet normal 0 0 -1
  outer loop
   vertex 0.793581 0.162877 -1
   vertex 0.796421 0.168258 -1
   vertex 0.796531 0.161867 -1
  endloop
 endfacet
 facet normal 0 0 -1
  outer loop
   vertex 0.796531 0.161867 -1
   vertex 0.796421 0.168258 -1
   vertex 0.799436 0.167193 -1
  endloop
 endfacet
 facet normal 0 0 -1
  outer loop
   vertex 0.796531 0.161867 -1
   vertex 0.799436 0.167193 -1
   vertex 0.799446 0.160763 -1
  endloop
 endfacet
 facet normal 0 0 -1
  outer loop
   vertex 0.799446 0.160763 -1
   vertex 0.799436 0.167193 -1
   vertex 0.802416 0.166035 -1
  endloop
 endfacet
 facet normal 0 0 -1
  outer loop
   vertex 0.799446 0.160763 -1
   vertex 0.802416 0.166035 -1
   vertex 0.802324 0.159565 -1
  endloop
 endfacet
 facet normal 0 0 -1
  outer loop
   vertex 0.802324 0.159565 -1
   vertex 0.802416 0.166035 -1
   vertex 0.805359 0.164785 -1
  endloop
 endfacet
 facet normal 0 0 -1
  outer loop
   vertex 0.802324 0.159565 -1
   vertex 0.805359 0.164785 -1
   vertex 0.805163 0.158276 -1
  endloop
 endfacet
 facet normal 0 0 -1
  outer loop
   vertex 0.805163 0.158276 -1
   vertex 0.805359 0.164785 -1
   vertex 0.808262 0.163445 -1
  endloop
 endfacet
 facet normal 0 0 -1
  outer loop
   vertex 0.805163 0.158276 -1
   vertex 0.808262 0.163445 -1
   vertex 0.807958 0.156896 -1
  endloop
 endfacet
 facet normal 0 0 -1
  outer loop
   vertex 0.807958 0.156896 -1
   vertex 0.808262 0.163445 -1
   vertex 0.811122 0.162015 -1
  endloop
 endfacet
 facet normal 0 0 -1
  outer loop
   vertex 0.807958 0.156896 -1
   vertex 0.811122 0.162015 -1
   vertex 0.810708 0.155427 -1
  endloop
 endfacet
 facet normal 0 0 -1
  outer loop
   vertex 0.810708 0.155427 -1
   vertex 0.811122 0.162015 -1
   vertex 0.813936 0.160497 -1
  endloop
 endfacet
 facet normal 0 0 -1
  outer loop
   vertex 0.810708 0.155427 -1
   vertex 0.813936 0.160497 -1
   vertex 0.813409 0.153871 -1
  endloop
 endfacet
 facet normal 0 0 -1
  outer loop
   vertex 0.813409 0.153871 -1
   vertex 0.813936 0.160497 -1
   vertex 0.816702 0.158892 -1
  endloop
 endfacet
 facet normal 0 0 -1
  outer loop
   vertex 0.813409 0.153871 -1
   vertex 0.816702 0.158892 -1
   vertex 0.816059 0.152228 -1
  endloop
 endfacet
 facet normal 0 0 -1
  outer loop
   vertex 0.816059 0.152228 -1
   vertex 0.816702 0.158892 -1
   vertex 0.819417 0.157202 -1
  endloop
 endfacet
 facet normal 0 0 -1
  outer loop
   vertex 0.816059 0.152228 -1
   vertex 0.819417 0.157202 -1
   vertex 0.818654 0.150501 -1
  endloop
 endfacet
 facet normal 0 0 -1
  outer loop
   vertex 0.818654 0.150501 -1
   vertex 0.819417 0.157202 -1
   vertex 0.822077 0.155429 -1
  endloop
 endfacet
 facet normal 0 0 -1
  outer loop
   vertex 0.818654 0.150501 -1
   vertex 0.822077 0.155429 -1
   vertex 0.821193 0.148692 -1
  endloop
 endfacet
 facet normal 0 0 -1
  outer loop
   vertex 0.821193 0.148692 -1
   vertex 0.822077 0.155429 -1
   vertex 0.824682 0.153574 -1
  endloop
 endfacet
 facet normal 0 0 -1
  outer loop
   vertex 0.821193 0.148692 -1
   vertex 0.824682 0.153574 -1
   vertex 0.823673 0.146802 -1
  endloop
 endfacet
 facet normal 0 0 -1
  outer loop
   vertex 0.823673 0.146802 -1
   vertex 0.824682 0.153574 -1
   vertex 0.827228 0.151639 -1
  endloop
 endfacet
 facet normal 0 0 -1
  outer loop
   vertex 0.823673 0.146802 -1
   vertex 0.827228 0.151639 -1
   vertex 0.82609 0.144833 -1
  endloop
 endfacet
 facet normal 0 0 -1
  outer loop
   vertex 0.82609 0.144833 -1
   vertex 0.827228 0.151639 -1
   vertex 0.829712 0.149626 -1
  endloop
 endfacet
 facet normal 0 0 -1
  outer loop
   vertex 0.82609 0.144833 -1
   vertex 0.829712 0.149626 -1
   vertex 0.828443 0.142788 -1
  endloop
 endfacet
 facet normal 0 0 -1
  outer loop
   vertex 0.828443 0.142788 -1
   vertex 0.829712 0.149626 -1
   vertex 0.832133 0.147537 -1
  endloop
 endfacet
 facet normal 0 0 -1
  outer loop
   vertex 0.828443 0.142788 -1
   vertex 0.832133 0.147537 -1
   vertex 0.830729 0.140668 -1
  endloop
 endfacet
 facet normal 0 0 -1
  outer loop
   vertex 0.830729 0.140668 -1
   vertex 0.832133 0.147537 -1
   vertex 0.834487 0.145374 -1
  endloop
 endfacet
 facet normal 0 0 -1
  outer loop
   vertex 0.830729 0.140668 -1
   vertex 0.834487 0.145374 -1
   vertex 0.832945 0.138476 -1
  endloop
 endfacet
 facet normal 0 0 -1
  outer loop
   vertex 0.832945 0.138476 -1
   vertex 0.834487 0.145374 -1
   vertex 0.836774 0.143139 -1
  endloop
 endfacet
 facet normal 0 0 -1
  outer loop
   vertex 0.832945 0.138476 -1
   vertex 0.836774 0.143139 -1
   vertex 0.83509 0.136214 -1
  endloop
 endfacet
 facet normal 0 0 -1
  outer loop
   vertex 0.83509 0.136214 -1
   vertex 0.836774 0.143139 -1
   vertex 0.83899 0.140834 -1
  endloop
 endfacet
 facet normal 0 0 -1
  outer loop
   vertex 0.83509 0.136214 -1
   vertex 0.83899 0.140834 -1
   vertex 0.837161 0.133883 -1
  endloop
 endfacet
 facet normal 0 0 -1
  outer loop
   vertex 0.837161 0.133883 -1
   vertex 0.83899 0.140834 -1
   vertex 0.841133 0.138461 -1
  endloop
 endfacet
 facet normal 0 0 -1
  outer loop
   vertex 0.837161 0.133883 -1
   vertex 0.841133 0.138461 -1
   vertex 0.839157 0.131488 -1
  endloop
 endfacet
 facet normal 0 0 -1
  outer loop
   vertex 0.839157 0.131488 -1
   vertex 0.841133 0.138461 -1
   vertex 0.843202 0.136023 -1
  endloop
 endfacet
 facet normal 0 0 -1
  outer loop
   vertex 0.839157 0.131488 -1
   vertex 0.843202 0.136023 -1
   vertex 0.841074 0.12903 -1
  endloop
 endfacet
 facet normal 0 0 -1
  outer loop
   vertex 0.841074 0.12903 -1
   vertex 0.843202 0.136023 -1
   vertex 0.845194 0.133522 -1
  endloop
 endfacet
 facet normal 0 0 -1
  outer loop
   vertex 0.841074 0.12903 -1
   vertex 0.845194 0.133522 -1
   vertex 0.842911 0.126511 -1
  endloop
 endfacet
 facet normal 0 0 -1
  outer loop
   vertex 0.842911 0.126511 -1
   vertex 0.845194 0.133522 -1
   vertex 0.847107 0.13096 -1
  endloop
 endfacet
 facet normal 0 0 -1
  outer loop
   vertex 0.842911 0.126511 -1
   vertex 0.847107 0.13096 -1
   vertex 0.844667 0.123935 -1
  endloop
 endfacet
 facet normal 0 0 -1
  outer loop
   vertex 0.844667 0.123935 -1
   vertex 0.847107 0.13096 -1
   vertex 0.84894 0.12834 -1
  endloop
 endfacet
 facet normal 0 0 -1
  outer loop
   vertex 0.844667 0.123935 -1
   vertex 0.84894 0.12834 -1
   vertex 0.846338 0.121304 -1
  endloop
 endfacet
 facet normal 0 0 -1
  outer loop
   vertex 0.846338 0.121304 -1
   vertex 0.84894 0.12834 -1
   vertex 0.850691 0.125664 -1
  endloop
 endfacet
 facet normal 0 0 -1
  outer loop
   vertex 0.846338 0.121304 -1
   vertex 0.850691 0.125664 -1
   vertex 0.847925 0.11862 -1
  endloop
 endfacet
 facet normal 0 0 -1
  outer loop
   vertex 0.847925 0.11862 -1
   vertex 0.850691 0.125664 -1
   vertex 0.852358 0.122936 -1
  endloop
 endfacet
 facet normal 0 0 -1
  outer loop
   vertex 0.847925 0.11862 -1
   vertex 0.852358 0.122936 -1
   vertex 0.853939 0.120157 -1
  endloop
 endfacet
 facet normal -0 0 1
  outer loop
   vertex 0.761828 0.173602 1
   vertex 0.761863 0.171602 1
   vertex 0.765025 0.173608 1
  endloop
 endfacet
 facet normal 0 0 1
  outer loop
   vertex 0.765025 0.173608 1
   vertex 0.761863 0.171602 1
   vertex 0.76602 0.167588 1
  endloop
 endfacet
 facet normal 0 0 1
  outer loop
   vertex 0.765025 0.173608 1
   vertex 0.76602 0.167588 1
   vertex 0.768222 0.173515 1
  endloop
 endfacet
 facet normal 0 0 1
  outer loop
   vertex 0.768222 0.173515 1
   vertex 0.76602 0.167588 1
   vertex 0.769135 0.167461 1
  endloop
 endfacet
 facet normal 0 0 1
  outer loop
   vertex 0.768222 0.173515 1
   vertex 0.769135 0.167461 1
   vertex 0.771413 0.173323 1
  endloop
 endfacet
 facet normal 0 0 1
  outer loop
   vertex 0.771413 0.173323 1
   vertex 0.769135 0.167461 1
   vertex 0.772244 0.167234 1
  endloop
 endfacet
 facet normal 0 0 1
  outer loop
   vertex 0.771413 0.173323 1
   vertex 0.772244 0.167234 1
   vertex 0.774598 0.173032 1
  endloop
 endfacet
 facet normal 0 0 1
  outer loop
   vertex 0.774598 0.173032 1
   vertex 0.772244 0.167234 1
   vertex 0.775344 0.166907 1
  endloop
 endfacet
 facet normal 0 0 1
  outer loop
   vertex 0.774598 0.173032 1
   vertex 0.775344 0.166907 1
   vertex 0.777771 0.172642 1
  endloop
 endfacet
 facet normal 0 0 1
  outer loop
   vertex 0.777771 0.172642 1
   vertex 0.775344 0.166907 1
   vertex 0.778433 0.166481 1
  endloop
 endfacet
 facet normal 0 0 1
  outer loop
   vertex 0.777771 0.172642 1
   vertex 0.778433 0.166481 1
   vertex 0.780931 0.172154 1
  endloop
 endfacet
 facet normal 0 0 1
  outer loop
   vertex 0.780931 0.172154 1
   vertex 0.778433 0.166481 1
   vertex 0.781506 0.165956 1
  endloop
 endfacet
 facet normal -0 0 1
  outer loop
   vertex 0.859447 0.0554261 1
   vertex 0.861422 0.0551132 1
   vertex 0.859885 0.0585127 1
  endloop
 endfacet
 facet normal 0 0 1
  outer loop
   vertex 0.859885 0.0585127 1
   vertex 0.861422 0.0551132 1
   vertex 0.865913 0.0583761 1
  endloop
 endfacet
 facet normal -0 0 1
  outer loop
   vertex 0.859885 0.0585127 1
   vertex 0.865913 0.0583761 1
   vertex 0.860224 0.0616118 1
  endloop
 endfacet
 facet normal 0 0 1
  outer loop
   vertex 0.860224 0.0616118 1
   vertex 0.865913 0.0583761 1
   vertex 0.866243 0.0615565 1
  endloop
 endfacet
 facet normal -0 0 1
  outer loop
   vertex 0.860224 0.0616118 1
   vertex 0.866243 0.0615565 1
   vertex 0.860462 0.0647201 1
  endloop
 endfacet
 facet normal -0 0 1
  outer loop
   vertex 0.860462 0.0647201 1
   vertex 0.866243 0.0615565 1
   vertex 0.866474 0.0647456 1
  endloop
 endfacet
 facet normal 0 0 1
  outer loop
   vertex 0.860462 0.0647201 1
   vertex 0.866474 0.0647456 1
   vertex 0.860602 0.0678345 1
  endloop
 endfacet
 facet normal -0 0 1
  outer loop
   vertex 0.860602 0.0678345 1
   vertex 0.866474 0.0647456 1
   vertex 0.866607 0.0679403 1
  endloop
 endfacet
 facet normal 0 0 1
  outer loop
   vertex 0.860602 0.0678345 1
   vertex 0.866607 0.0679403 1
   vertex 0.86064 0.0709518 1
  endloop
 endfacet
 facet normal -0 0 1
  outer loop
   vertex 0.86064 0.0709518 1
   vertex 0.866607 0.0679403 1
   vertex 0.86664 0.0711376 1
  endloop
 endfacet
 facet normal 0 -0 1
  outer loop
   vertex 0.86064 0.0709518 1
   vertex 0.86664 0.0711376 1
   vertex 0.860579 0.0740687 1
  endloop
 endfacet
 facet normal -0 0 1
  outer loop
   vertex 0.860579 0.0740687 1
   vertex 0.86664 0.0711376 1
   vertex 0.866573 0.0743344 1
  endloop
 endfacet
 facet normal 0 -0 1
  outer loop
   vertex 0.860579 0.0740687 1
   vertex 0.866573 0.0743344 1
   vertex 0.860418 0.0771821 1
  endloop
 endfacet
 facet normal -0 0 1
  outer loop
   vertex 0.860418 0.0771821 1
   vertex 0.866573 0.0743344 1
   vertex 0.866408 0.0775277 1
  endloop
 endfacet
 facet normal 0 -0 1
  outer loop
   vertex 0.860418 0.0771821 1
   vertex 0.866408 0.0775277 1
   vertex 0.860156 0.0802886 1
  endloop
 endfacet
 facet normal -0 0 1
  outer loop
   vertex 0.860156 0.0802886 1
   vertex 0.866408 0.0775277 1
   vertex 0.866144 0.0807142 1
  endloop
 endfacet
 facet normal 0 -0 1
  outer loop
   vertex 0.860156 0.0802886 1
   vertex 0.866144 0.0807142 1
   vertex 0.859795 0.0833852 1
  endloop
 endfacet
 facet normal -0 0 1
  outer loop
   vertex 0.859795 0.0833852 1
   vertex 0.866144 0.0807142 1
   vertex 0.86578 0.083891 1
  endloop
 endfacet
 facet normal 0 -0 1
  outer loop
   vertex 0.859795 0.0833852 1
   vertex 0.86578 0.083891 1
   vertex 0.859335 0.0864685 1
  endloop
 endfacet
 facet normal -0 0 1
  outer loop
   vertex 0.859335 0.0864685 1
   vertex 0.86578 0.083891 1
   vertex 0.865319 0.087055 1
  endloop
 endfacet
 facet normal 0 -0 1
  outer loop
   vertex 0.859335 0.0864685 1
   vertex 0.865319 0.087055 1
   vertex 0.858776 0.0895355 1
  endloop
 endfacet
 facet normal -0 0 1
  outer loop
   vertex 0.858776 0.0895355 1
   vertex 0.865319 0.087055 1
   vertex 0.864759 0.0902031 1
  endloop
 endfacet
 facet normal 0 -0 1
  outer loop
   vertex 0.858776 0.0895355 1
   vertex 0.864759 0.0902031 1
   vertex 0.858118 0.0925829 1
  endloop
 endfacet
 facet normal -0 0 1
  outer loop
   vertex 0.858118 0.0925829 1
   vertex 0.864759 0.0902031 1
   vertex 0.864102 0.0933324 1
  endloop
 endfacet
 facet normal 0 -0 1
  outer loop
   vertex 0.858118 0.0925829 1
   vertex 0.864102 0.0933324 1
   vertex 0.857363 0.0956076 1
  endloop
 endfacet
 facet normal -0 0 1
  outer loop
   vertex 0.857363 0.0956076 1
   vertex 0.864102 0.0933324 1
   vertex 0.863348 0.0964398 1
  endloop
 endfacet
 facet normal 0 -0 1
  outer loop
   vertex 0.857363 0.0956076 1
   vertex 0.863348 0.0964398 1
   vertex 0.856511 0.0986065 1
  endloop
 endfacet
 facet normal -0 0 1
  outer loop
   vertex 0.856511 0.0986065 1
   vertex 0.863348 0.0964398 1
   vertex 0.862498 0.0995223 1
  endloop
 endfacet
 facet normal 0 -0 1
  outer loop
   vertex 0.856511 0.0986065 1
   vertex 0.862498 0.0995223 1
   vertex 0.855564 0.101577 1
  endloop
 endfacet
 facet normal -0 0 1
  outer loop
   vertex 0.855564 0.101577 1
   vertex 0.862498 0.0995223 1
   vertex 0.861553 0.102577 1
  endloop
 endfacet
 facet normal 0 -0 1
  outer loop
   vertex 0.855564 0.101577 1
   vertex 0.861553 0.102577 1
   vertex 0.854521 0.104514 1
  endloop
 endfacet
 facet normal -0 0 1
  outer loop
   vertex 0.854521 0.104514 1
   vertex 0.861553 0.102577 1
   vertex 0.860514 0.105601 1
  endloop
 endfacet
 facet normal 0 -0 1
  outer loop
   vertex 0.854521 0.104514 1
   vertex 0.860514 0.105601 1
   vertex 0.853385 0.107417 1
  endloop
 endfacet
 facet normal -0 0 1
  outer loop
   vertex 0.853385 0.107417 1
   vertex 0.860514 0.105601 1
   vertex 0.859381 0.108591 1
  endloop
 endfacet
 facet normal 0 -0 1
  outer loop
   vertex 0.853385 0.107417 1
   vertex 0.859381 0.108591 1
   vertex 0.852155 0.110282 1
  endloop
 endfacet
 facet normal -0 0 1
  outer loop
   vertex 0.852155 0.110282 1
   vertex 0.859381 0.108591 1
   vertex 0.858156 0.111544 1
  endloop
 endfacet
 facet normal 0 -0 1
  outer loop
   vertex 0.852155 0.110282 1
   vertex 0.858156 0.111544 1
   vertex 0.850835 0.113106 1
  endloop
 endfacet
 facet normal -0 0 1
  outer loop
   vertex 0.850835 0.113106 1
   vertex 0.858156 0.111544 1
   vertex 0.85684 0.114458 1
  endloop
 endfacet
 facet normal 0 -0 1
  outer loop
   vertex 0.850835 0.113106 1
   vertex 0.85684 0.114458 1
   vertex 0.849424 0.115886 1
  endloop
 endfacet
 facet normal 0 0 1
  outer loop
   vertex 0.85684 0.114458 1
   vertex 0.855434 0.11733 1
   vertex 0.849424 0.115886 1
  endloop
 endfacet
 facet normal 0 0 1
  outer loop
   vertex 0.849424 0.115886 1
   vertex 0.855434 0.11733 1
   vertex 0.853939 0.120157 1
  endloop
 endfacet
 facet normal 0 -0 1
  outer loop
   vertex 0.849424 0.115886 1
   vertex 0.853939 0.120157 1
   vertex 0.847925 0.11862 1
  endloop
 endfacet
 facet normal 0 0 1
  outer loop
   vertex 0.847925 0.11862 1
   vertex 0.853939 0.120157 1
   vertex 0.852358 0.122936 1
  endloop
 endfacet
 facet normal 0 -0 1
  outer loop
   vertex 0.847925 0.11862 1
   vertex 0.852358 0.122936 1
   vertex 0.846338 0.121304 1
  endloop
 endfacet
 facet normal 0 0 1
  outer loop
   vertex 0.846338 0.121304 1
   vertex 0.852358 0.122936 1
   vertex 0.850691 0.125664 1
  endloop
 endfacet
 facet normal 0 -0 1
  outer loop
   vertex 0.846338 0.121304 1
   vertex 0.850691 0.125664 1
   vertex 0.844667 0.123935 1
  endloop
 endfacet
 facet normal 0 0 1
  outer loop
   vertex 0.844667 0.123935 1
   vertex 0.850691 0.125664 1
   vertex 0.84894 0.12834 1
  endloop
 endfacet
 facet normal 0 -0 1
  outer loop
   vertex 0.844667 0.123935 1
   vertex 0.84894 0.12834 1
   vertex 0.842911 0.126511 1
  endloop
 endfacet
 facet normal 0 0 1
  outer loop
   vertex 0.842911 0.126511 1
   vertex 0.84894 0.12834 1
   vertex 0.847107 0.13096 1
  endloop
 endfacet
 facet normal 0 -0 1
  outer loop
   vertex 0.842911 0.126511 1
   vertex 0.847107 0.13096 1
   vertex 0.841074 0.12903 1
  endloop
 endfacet
 facet normal 0 0 1
  outer loop
   vertex 0.841074 0.12903 1
   vertex 0.847107 0.13096 1
   vertex 0.845194 0.133522 1
  endloop
 endfacet
 facet normal 0 -0 1
  outer loop
   vertex 0.841074 0.12903 1
   vertex 0.845194 0.133522 1
   vertex 0.839157 0.131488 1
  endloop
 endfacet
 facet normal 0 0 1
  outer loop
   vertex 0.839157 0.131488 1
   vertex 0.845194 0.133522 1
   vertex 0.843202 0.136023 1
  endloop
 endfacet
 facet normal 0 -0 1
  outer loop
   vertex 0.839157 0.131488 1
   vertex 0.843202 0.136023 1
   vertex 0.837161 0.133883 1
  endloop
 endfacet
 facet normal 0 0 1
  outer loop
   vertex 0.837161 0.133883 1
   vertex 0.843202 0.136023 1
   vertex 0.841133 0.138461 1
  endloop
 endfacet
 facet normal 0 -0 1
  outer loop
   vertex 0.837161 0.133883 1
   vertex 0.841133 0.138461 1
   vertex 0.83509 0.136214 1
  endloop
 endfacet
 facet normal 0 0 1
  outer loop
   vertex 0.83509 0.136214 1
   vertex 0.841133 0.138461 1
   vertex 0.83899 0.140834 1
  endloop
 endfacet
 facet normal 0 -0 1
  outer loop
   vertex 0.83509 0.136214 1
   vertex 0.83899 0.140834 1
   vertex 0.832945 0.138476 1
  endloop
 endfacet
 facet normal 0 0 1
  outer loop
   vertex 0.832945 0.138476 1
   vertex 0.83899 0.140834 1
   vertex 0.836774 0.143139 1
  endloop
 endfacet
 facet normal 0 -0 1
  outer loop
   vertex 0.832945 0.138476 1
   vertex 0.836774 0.143139 1
   vertex 0.830729 0.140668 1
  endloop
 endfacet
 facet normal 0 0 1
  outer loop
   vertex 0.830729 0.140668 1
   vertex 0.836774 0.143139 1
   vertex 0.834487 0.145374 1
  endloop
 endfacet
 facet normal 0 -0 1
  outer loop
   vertex 0.830729 0.140668 1
   vertex 0.834487 0.145374 1
   vertex 0.828443 0.142788 1
  endloop
 endfacet
 facet normal 0 0 1
  outer loop
   vertex 0.828443 0.142788 1
   vertex 0.834487 0.145374 1
   vertex 0.832133 0.147537 1
  endloop
 endfacet
 facet normal 0 -0 1
  outer loop
   vertex 0.828443 0.142788 1
   vertex 0.832133 0.147537 1
   vertex 0.82609 0.144833 1
  endloop
 endfacet
 facet normal 0 0 1
  outer loop
   vertex 0.82609 0.144833 1
   vertex 0.832133 0.147537 1
   vertex 0.829712 0.149626 1
  endloop
 endfacet
 facet normal 0 -0 1
  outer loop
   vertex 0.82609 0.144833 1
   vertex 0.829712 0.149626 1
   vertex 0.823673 0.146802 1
  endloop
 endfacet
 facet normal 0 0 1
  outer loop
   vertex 0.823673 0.146802 1
   vertex 0.829712 0.149626 1
   vertex 0.827228 0.151639 1
  endloop
 endfacet
 facet normal 0 -0 1
  outer loop
   vertex 0.823673 0.146802 1
   vertex 0.827228 0.151639 1
   vertex 0.821193 0.148692 1
  endloop
 endfacet
 facet normal 0 0 1
  outer loop
   vertex 0.821193 0.148692 1
   vertex 0.827228 0.151639 1
   vertex 0.824682 0.153574 1
  endloop
 endfacet
 facet normal 0 -0 1
  outer loop
   vertex 0.821193 0.148692 1
   vertex 0.824682 0.153574 1
   vertex 0.818654 0.150501 1
  endloop
 endfacet
 facet normal 0 0 1
  outer loop
   vertex 0.818654 0.150501 1
   vertex 0.824682 0.153574 1
   vertex 0.822077 0.155429 1
  endloop
 endfacet
 facet normal 0 -0 1
  outer loop
   vertex 0.818654 0.150501 1
   vertex 0.822077 0.155429 1
   vertex 0.816059 0.152228 1
  endloop
 endfacet
 facet normal 0 0 1
  outer loop
   vertex 0.816059 0.152228 1
   vertex 0.822077 0.155429 1
   vertex 0.819417 0.157202 1
  endloop
 endfacet
 facet normal 0 -0 1
  outer loop
   vertex 0.816059 0.152228 1
   vertex 0.819417 0.157202 1
   vertex 0.813409 0.153871 1
  endloop
 endfacet
 facet normal 0 0 1
  outer loop
   vertex 0.813409 0.153871 1
   vertex 0.819417 0.157202 1
   vertex 0.816702 0.158892 1
  endloop
 endfacet
 facet normal 0 -0 1
  outer loop
   vertex 0.813409 0.153871 1
   vertex 0.816702 0.158892 1
   vertex 0.810708 0.155427 1
  endloop
 endfacet
 facet normal 0 0 1
  outer loop
   vertex 0.810708 0.155427 1
   vertex 0.816702 0.158892 1
   vertex 0.813936 0.160497 1
  endloop
 endfacet
 facet normal 0 -0 1
  outer loop
   vertex 0.810708 0.155427 1
   vertex 0.813936 0.160497 1
   vertex 0.807958 0.156896 1
  endloop
 endfacet
 facet normal 0 0 1
  outer loop
   vertex 0.807958 0.156896 1
   vertex 0.813936 0.160497 1
   vertex 0.811122 0.162015 1
  endloop
 endfacet
 facet normal 0 -0 1
  outer loop
   vertex 0.807958 0.156896 1
   vertex 0.811122 0.162015 1
   vertex 0.805163 0.158276 1
  endloop
 endfacet
 facet normal 0 0 1
  outer loop
   vertex 0.805163 0.158276 1
   vertex 0.811122 0.162015 1
   vertex 0.808262 0.163445 1
  endloop
 endfacet
 facet normal 0 -0 1
  outer loop
   vertex 0.805163 0.158276 1
   vertex 0.808262 0.163445 1
   vertex 0.802324 0.159565 1
  endloop
 endfacet
 facet normal 0 0 1
  outer loop
   vertex 0.802324 0.159565 1
   vertex 0.808262 0.163445 1
   vertex 0.805359 0.164785 1
  endloop
 endfacet
 facet normal 0 -0 1
  outer loop
   vertex 0.802324 0.159565 1
   vertex 0.805359 0.164785 1
   vertex 0.799446 0.160763 1
  endloop
 endfacet
 facet normal 0 0 1
  outer loop
   vertex 0.799446 0.160763 1
   vertex 0.805359 0.164785 1
   vertex 0.802416 0.166035 1
  endloop
 endfacet
 facet normal 0 -0 1
  outer loop
   vertex 0.799446 0.160763 1
   vertex 0.802416 0.166035 1
   vertex 0.796531 0.161867 1
  endloop
 endfacet
 facet normal 0 0 1
  outer loop
   vertex 0.796531 0.161867 1
   vertex 0.802416 0.166035 1
   vertex 0.799436 0.167193 1
  endloop
 endfacet
 facet normal 0 -0 1
  outer loop
   vertex 0.796531 0.161867 1
   vertex 0.799436 0.167193 1
   vertex 0.793581 0.162877 1
  endloop
 endfacet
 facet normal 0 0 1
  outer loop
   vertex 0.793581 0.162877 1
   vertex 0.799436 0.167193 1
   vertex 0.796421 0.168258 1
  endloop
 endfacet
 facet normal 0 -0 1
  outer loop
   vertex 0.793581 0.162877 1
   vertex 0.796421 0.168258 1
   vertex 0.790601 0.163792 1
  endloop
 endfacet
 facet normal 0 0 1
  outer loop
   vertex 0.790601 0.163792 1
   vertex 0.796421 0.168258 1
   vertex 0.793374 0.169229 1
  endloop
 endfacet
 facet normal 0 -0 1
  outer loop
   vertex 0.790601 0.163792 1
   vertex 0.793374 0.169229 1
   vertex 0.787593 0.164611 1
  endloop
 endfacet
 facet normal 0 0 1
  outer loop
   vertex 0.787593 0.164611 1
   vertex 0.793374 0.169229 1
   vertex 0.790299 0.170105 1
  endloop
 endfacet
 facet normal 0 -0 1
  outer loop
   vertex 0.787593 0.164611 1
   vertex 0.790299 0.170105 1
   vertex 0.78456 0.165332 1
  endloop
 endfacet
 facet normal 0 0 1
  outer loop
   vertex 0.78456 0.165332 1
   vertex 0.790299 0.170105 1
   vertex 0.787198 0.170884 1
  endloop
 endfacet
 facet normal 0 -0 1
  outer loop
   vertex 0.78456 0.165332 1
   vertex 0.787198 0.170884 1
   vertex 0.781506 0.165956 1
  endloop
 endfacet
 facet normal 0 0 1
  outer loop
   vertex 0.781506 0.165956 1
   vertex 0.787198 0.170884 1
   vertex 0.784075 0.171568 1
  endloop
 endfacet
 facet normal 0 -0 1
  outer loop
   vertex 0.781506 0.165956 1
   vertex 0.784075 0.171568 1
   vertex 0.780931 0.172154 1
  endloop
 endfacet
 facet normal 0.587787 -0.809015 0
  outer loop
   vertex 0.865913 0.0583761 1
   vertex 0.861422 0.0551132 1
   vertex 0.865913 0.0583761 -1
  endloop
 endfacet
 facet normal 0.587787 -0.809015 0
  outer loop
   vertex 0.865913 0.0583761 -1
   vertex 0.861422 0.0551132 1
   vertex 0.861422 0.0551132 -1
  endloop
 endfacet
 facet normal -0.694652 -0.719346 -0
  outer loop
   vertex 0.76602 0.167588 1
   vertex 0.761863 0.171602 1
   vertex 0.76602 0.167588 -1
  endloop
 endfacet
 facet normal -0.694652 -0.719346 0
  outer loop
   vertex 0.76602 0.167588 -1
   vertex 0.761863 0.171602 1
   vertex 0.761863 0.171602 -1
  endloop
 endfacet
endsolid tunner_vane
