solid tunner_vane
 facet normal 0.0957796 0.995403 -0
  outer loop
   vertex 1.37524 -0.127124 -1
   vertex 1.37524 -0.127124 1
   vertex 1.38485 -0.128048 1
  endloop
 endfacet
 facet normal 0.0957796 0.995403 0
  outer loop
   vertex 1.37524 -0.127124 -1
   vertex 1.38485 -0.128048 1
   vertex 1.38485 -0.128048 -1
  endloop
 endfacet
 facet normal 0.186801 0.982398 -0
  outer loop
   vertex 1.38485 -0.128048 -1
   vertex 1.38485 -0.128048 1
   vertex 1.39433 -0.129851 1
  endloop
 endfacet
 facet normal 0.186801 0.982398 0
  outer loop
   vertex 1.38485 -0.128048 -1
   vertex 1.39433 -0.129851 1
   vertex 1.39433 -0.129851 -1
  endloop
 endfacet
 facet normal 0.276307 0.96107 -0
  outer loop
   vertex 1.39433 -0.129851 -1
   vertex 1.39433 -0.129851 1
   vertex 1.4036 -0.132516 1
  endloop
 endfacet
 facet normal 0.276307 0.96107 0
  outer loop
   vertex 1.39433 -0.129851 -1
   vertex 1.4036 -0.132516 1
   vertex 1.4036 -0.132516 -1
  endloop
 endfacet
 facet normal 0.363263 0.931687 -0
  outer loop
   vertex 1.4036 -0.132516 -1
   vertex 1.4036 -0.132516 1
   vertex 1.41259 -0.136021 1
  endloop
 endfacet
 facet normal 0.363263 0.931687 0
  outer loop
   vertex 1.4036 -0.132516 -1
   vertex 1.41259 -0.136021 1
   vertex 1.41259 -0.136021 -1
  endloop
 endfacet
 facet normal 0.447275 0.894397 -0
  outer loop
   vertex 1.41259 -0.136021 -1
   vertex 1.41259 -0.136021 1
   vertex 1.42122 -0.140337 1
  endloop
 endfacet
 facet normal 0.447275 0.894397 0
  outer loop
   vertex 1.41259 -0.136021 -1
   vertex 1.42122 -0.140337 1
   vertex 1.42122 -0.140337 -1
  endloop
 endfacet
 facet normal 0.527379 0.84963 -0
  outer loop
   vertex 1.42122 -0.140337 -1
   vertex 1.42122 -0.140337 1
   vertex 1.42942 -0.145427 1
  endloop
 endfacet
 facet normal 0.527379 0.84963 0
  outer loop
   vertex 1.42122 -0.140337 -1
   vertex 1.42942 -0.145427 1
   vertex 1.42942 -0.145427 -1
  endloop
 endfacet
 facet normal 0.603034 0.797715 -0
  outer loop
   vertex 1.42942 -0.145427 -1
   vertex 1.42942 -0.145427 1
   vertex 1.43712 -0.151248 1
  endloop
 endfacet
 facet normal 0.603034 0.797715 0
  outer loop
   vertex 1.42942 -0.145427 -1
   vertex 1.43712 -0.151248 1
   vertex 1.43712 -0.151248 -1
  endloop
 endfacet
 facet normal 0.673867 0.738853 -0
  outer loop
   vertex 1.43712 -0.151248 -1
   vertex 1.43712 -0.151248 1
   vertex 1.44425 -0.157751 1
  endloop
 endfacet
 facet normal 0.673867 0.738853 0
  outer loop
   vertex 1.43712 -0.151248 -1
   vertex 1.44425 -0.157751 1
   vertex 1.44425 -0.157751 -1
  endloop
 endfacet
 facet normal 0.738992 0.673715 -0
  outer loop
   vertex 1.44425 -0.157751 -1
   vertex 1.44425 -0.157751 1
   vertex 1.45075 -0.16488 1
  endloop
 endfacet
 facet normal 0.738992 0.673715 0
  outer loop
   vertex 1.44425 -0.157751 -1
   vertex 1.45075 -0.16488 1
   vertex 1.45075 -0.16488 -1
  endloop
 endfacet
 facet normal 0.797626 0.603152 -0
  outer loop
   vertex 1.45075 -0.16488 -1
   vertex 1.45075 -0.16488 1
   vertex 1.45657 -0.172577 1
  endloop
 endfacet
 facet normal 0.797626 0.603152 0
  outer loop
   vertex 1.45075 -0.16488 -1
   vertex 1.45657 -0.172577 1
   vertex 1.45657 -0.172577 -1
  endloop
 endfacet
 facet normal 0.84958 0.527459 -0
  outer loop
   vertex 1.45657 -0.172577 -1
   vertex 1.45657 -0.172577 1
   vertex 1.46166 -0.180776 1
  endloop
 endfacet
 facet normal 0.84958 0.527459 0
  outer loop
   vertex 1.45657 -0.172577 -1
   vertex 1.46166 -0.180776 1
   vertex 1.46166 -0.180776 -1
  endloop
 endfacet
 facet normal 0.89424 0.447588 -0
  outer loop
   vertex 1.46166 -0.180776 -1
   vertex 1.46166 -0.180776 1
   vertex 1.46598 -0.189407 1
  endloop
 endfacet
 facet normal 0.89424 0.447588 0
  outer loop
   vertex 1.46166 -0.180776 -1
   vertex 1.46598 -0.189407 1
   vertex 1.46598 -0.189407 -1
  endloop
 endfacet
 facet normal 0.931881 0.362763 -0
  outer loop
   vertex 1.46598 -0.189407 -1
   vertex 1.46598 -0.189407 1
   vertex 1.46948 -0.198398 1
  endloop
 endfacet
 facet normal 0.931881 0.362763 0
  outer loop
   vertex 1.46598 -0.189407 -1
   vertex 1.46948 -0.198398 1
   vertex 1.46948 -0.198398 -1
  endloop
 endfacet
 facet normal 0.960973 0.276644 -0
  outer loop
   vertex 1.46948 -0.198398 -1
   vertex 1.46948 -0.198398 1
   vertex 1.47215 -0.207672 1
  endloop
 endfacet
 facet normal 0.960973 0.276644 0
  outer loop
   vertex 1.46948 -0.198398 -1
   vertex 1.47215 -0.207672 1
   vertex 1.47215 -0.207672 -1
  endloop
 endfacet
 facet normal 0.982446 0.186545 -0
  outer loop
   vertex 1.47215 -0.207672 -1
   vertex 1.47215 -0.207672 1
   vertex 1.47395 -0.217152 1
  endloop
 endfacet
 facet normal 0.982446 0.186545 0
  outer loop
   vertex 1.47215 -0.207672 -1
   vertex 1.47395 -0.217152 1
   vertex 1.47395 -0.217152 -1
  endloop
 endfacet
 facet normal 0.995346 0.0963649 -0
  outer loop
   vertex 1.47395 -0.217152 -1
   vertex 1.47395 -0.217152 1
   vertex 1.47488 -0.226758 1
  endloop
 endfacet
 facet normal 0.995346 0.0963649 0
  outer loop
   vertex 1.47395 -0.217152 -1
   vertex 1.47488 -0.226758 1
   vertex 1.47488 -0.226758 -1
  endloop
 endfacet
 facet normal -0.995108 -0.0987974 0
  outer loop
   vertex 1.46489 -0.227258 -1
   vertex 1.46489 -0.227258 1
   vertex 1.46397 -0.21799 -1
  endloop
 endfacet
 facet normal -0.995108 -0.0987974 0
  outer loop
   vertex 1.46397 -0.21799 -1
   vertex 1.46489 -0.227258 1
   vertex 1.46397 -0.21799 1
  endloop
 endfacet
 facet normal -0.980508 -0.19648 0
  outer loop
   vertex 1.46397 -0.21799 -1
   vertex 1.46397 -0.21799 1
   vertex 1.46214 -0.208858 -1
  endloop
 endfacet
 facet normal -0.980508 -0.19648 0
  outer loop
   vertex 1.46214 -0.208858 -1
   vertex 1.46397 -0.21799 1
   vertex 1.46214 -0.208858 1
  endloop
 endfacet
 facet normal -0.957024 -0.290008 0
  outer loop
   vertex 1.46214 -0.208858 -1
   vertex 1.46214 -0.208858 1
   vertex 1.45944 -0.199948 -1
  endloop
 endfacet
 facet normal -0.957024 -0.290008 0
  outer loop
   vertex 1.45944 -0.199948 -1
   vertex 1.46214 -0.208858 1
   vertex 1.45944 -0.199948 1
  endloop
 endfacet
 facet normal -0.923618 -0.383313 0
  outer loop
   vertex 1.45944 -0.199948 -1
   vertex 1.45944 -0.199948 1
   vertex 1.45587 -0.191346 -1
  endloop
 endfacet
 facet normal -0.923618 -0.383313 0
  outer loop
   vertex 1.45587 -0.191346 -1
   vertex 1.45944 -0.199948 1
   vertex 1.45587 -0.191346 1
  endloop
 endfacet
 facet normal -0.881433 -0.472309 0
  outer loop
   vertex 1.45587 -0.191346 -1
   vertex 1.45587 -0.191346 1
   vertex 1.45147 -0.183135 -1
  endloop
 endfacet
 facet normal -0.881433 -0.472309 0
  outer loop
   vertex 1.45147 -0.183135 -1
   vertex 1.45587 -0.191346 1
   vertex 1.45147 -0.183135 1
  endloop
 endfacet
 facet normal -0.831615 -0.555352 0
  outer loop
   vertex 1.45147 -0.183135 -1
   vertex 1.45147 -0.183135 1
   vertex 1.4463 -0.175393 -1
  endloop
 endfacet
 facet normal -0.831615 -0.555352 0
  outer loop
   vertex 1.4463 -0.175393 -1
   vertex 1.45147 -0.183135 1
   vertex 1.4463 -0.175393 1
  endloop
 endfacet
 facet normal -0.772868 -0.634567 0
  outer loop
   vertex 1.4463 -0.175393 -1
   vertex 1.4463 -0.175393 1
   vertex 1.44039 -0.168195 -1
  endloop
 endfacet
 facet normal -0.772868 -0.634567 0
  outer loop
   vertex 1.44039 -0.168195 -1
   vertex 1.4463 -0.175393 1
   vertex 1.44039 -0.168195 1
  endloop
 endfacet
 facet normal -0.707376 -0.706838 0
  outer loop
   vertex 1.44039 -0.168195 -1
   vertex 1.44039 -0.168195 1
   vertex 1.43381 -0.16161 -1
  endloop
 endfacet
 facet normal -0.707376 -0.706838 0
  outer loop
   vertex 1.43381 -0.16161 -1
   vertex 1.44039 -0.168195 1
   vertex 1.43381 -0.16161 1
  endloop
 endfacet
 facet normal -0.634381 -0.77302 0
  outer loop
   vertex 1.43381 -0.16161 -1
   vertex 1.43381 -0.16161 1
   vertex 1.42661 -0.155701 -1
  endloop
 endfacet
 facet normal -0.634381 -0.77302 0
  outer loop
   vertex 1.42661 -0.155701 -1
   vertex 1.43381 -0.16161 1
   vertex 1.42661 -0.155701 1
  endloop
 endfacet
 facet normal -0.555866 -0.831272 0
  outer loop
   vertex 1.42661 -0.155701 -1
   vertex 1.42661 -0.155701 1
   vertex 1.41887 -0.150525 -1
  endloop
 endfacet
 facet normal -0.555866 -0.831272 0
  outer loop
   vertex 1.41887 -0.150525 -1
   vertex 1.42661 -0.155701 1
   vertex 1.41887 -0.150525 1
  endloop
 endfacet
 facet normal -0.47135 -0.881946 0
  outer loop
   vertex 1.41887 -0.150525 -1
   vertex 1.41887 -0.150525 1
   vertex 1.41065 -0.146132 -1
  endloop
 endfacet
 facet normal -0.47135 -0.881946 0
  outer loop
   vertex 1.41065 -0.146132 -1
   vertex 1.41887 -0.150525 1
   vertex 1.41065 -0.146132 1
  endloop
 endfacet
 facet normal -0.383212 -0.923661 0
  outer loop
   vertex 1.41065 -0.146132 -1
   vertex 1.41065 -0.146132 1
   vertex 1.40205 -0.142564 -1
  endloop
 endfacet
 facet normal -0.383212 -0.923661 0
  outer loop
   vertex 1.40205 -0.142564 -1
   vertex 1.41065 -0.146132 1
   vertex 1.40205 -0.142564 1
  endloop
 endfacet
 facet normal -0.290871 -0.956762 0
  outer loop
   vertex 1.40205 -0.142564 -1
   vertex 1.40205 -0.142564 1
   vertex 1.39314 -0.139856 -1
  endloop
 endfacet
 facet normal -0.290871 -0.956762 0
  outer loop
   vertex 1.39314 -0.139856 -1
   vertex 1.40205 -0.142564 1
   vertex 1.39314 -0.139856 1
  endloop
 endfacet
 facet normal -0.195868 -0.98063 0
  outer loop
   vertex 1.39314 -0.139856 -1
   vertex 1.39314 -0.139856 1
   vertex 1.38401 -0.138032 -1
  endloop
 endfacet
 facet normal -0.195868 -0.98063 0
  outer loop
   vertex 1.38401 -0.138032 -1
   vertex 1.39314 -0.139856 1
   vertex 1.38401 -0.138032 1
  endloop
 endfacet
 facet normal -0.0988348 -0.995104 0
  outer loop
   vertex 1.38401 -0.138032 -1
   vertex 1.38401 -0.138032 1
   vertex 1.37474 -0.137111 -1
  endloop
 endfacet
 facet normal -0.0988348 -0.995104 0
  outer loop
   vertex 1.37474 -0.137111 -1
   vertex 1.38401 -0.138032 1
   vertex 1.37474 -0.137111 1
  endloop
 endfacet
 facet normal 0 0 -1
  outer loop
   vertex 1.43381 -0.16161 -1
   vertex 1.44425 -0.157751 -1
   vertex 1.44039 -0.168195 -1
  endloop
 endfacet
 facet normal 0 0 -1
  outer loop
   vertex 1.44039 -0.168195 -1
   vertex 1.44425 -0.157751 -1
   vertex 1.45075 -0.16488 -1
  endloop
 endfacet
 facet normal 0 0 -1
  outer loop
   vertex 1.44039 -0.168195 -1
   vertex 1.45075 -0.16488 -1
   vertex 1.4463 -0.175393 -1
  endloop
 endfacet
 facet normal 0 0 -1
  outer loop
   vertex 1.4463 -0.175393 -1
   vertex 1.45075 -0.16488 -1
   vertex 1.45657 -0.172577 -1
  endloop
 endfacet
 facet normal 0 0 -1
  outer loop
   vertex 1.4463 -0.175393 -1
   vertex 1.45657 -0.172577 -1
   vertex 1.45147 -0.183135 -1
  endloop
 endfacet
 facet normal 0 0 -1
  outer loop
   vertex 1.45147 -0.183135 -1
   vertex 1.45657 -0.172577 -1
   vertex 1.46166 -0.180776 -1
  endloop
 endfacet
 facet normal 0 0 -1
  outer loop
   vertex 1.45147 -0.183135 -1
   vertex 1.46166 -0.180776 -1
   vertex 1.45587 -0.191346 -1
  endloop
 endfacet
 facet normal 0 0 -1
  outer loop
   vertex 1.45587 -0.191346 -1
   vertex 1.46166 -0.180776 -1
   vertex 1.46598 -0.189407 -1
  endloop
 endfacet
 facet normal 0 0 -1
  outer loop
   vertex 1.45587 -0.191346 -1
   vertex 1.46598 -0.189407 -1
   vertex 1.45944 -0.199948 -1
  endloop
 endfacet
 facet normal 0 0 -1
  outer loop
   vertex 1.45944 -0.199948 -1
   vertex 1.46598 -0.189407 -1
   vertex 1.46948 -0.198398 -1
  endloop
 endfacet
 facet normal 0 0 -1
  outer loop
   vertex 1.45944 -0.199948 -1
   vertex 1.46948 -0.198398 -1
   vertex 1.46214 -0.208858 -1
  endloop
 endfacet
 facet normal 0 0 -1
  outer loop
   vertex 1.46214 -0.208858 -1
   vertex 1.46948 -0.198398 -1
   vertex 1.47215 -0.207672 -1
  endloop
 endfacet
 facet normal 0 0 -1
  outer loop
   vertex 1.46214 -0.208858 -1
   vertex 1.47215 -0.207672 -1
   vertex 1.46397 -0.21799 -1
  endloop
 endfacet
 facet normal 0 0 -1
  outer loop
   vertex 1.46397 -0.21799 -1
   vertex 1.47215 -0.207672 -1
   vertex 1.47395 -0.217152 -1
  endloop
 endfacet
 facet normal 0 0 -1
  outer loop
   vertex 1.46397 -0.21799 -1
   vertex 1.47395 -0.217152 -1
   vertex 1.46489 -0.227258 -1
  endloop
 endfacet
 facet normal 0 0 -1
  outer loop
   vertex 1.46489 -0.227258 -1
   vertex 1.47395 -0.217152 -1
   vertex 1.47488 -0.226758 -1
  endloop
 endfacet
 facet normal 0 0 -1
  outer loop
   vertex 1.46489 -0.227258 -1
   vertex 1.47488 -0.226758 -1
   vertex 1.47485 -0.227567 -1
  endloop
 endfacet
 facet normal 0 0 -1
  outer loop
   vertex 1.37288 -0.127586 -1
   vertex 1.37364 -0.127304 -1
   vertex 1.37474 -0.137111 -1
  endloop
 endfacet
 facet normal -0 0 -1
  outer loop
   vertex 1.47485 -0.227567 -1
   vertex 1.4747 -0.228361 -1
   vertex 1.46489 -0.227258 -1
  endloop
 endfacet
 facet normal 0 0 -1
  outer loop
   vertex 1.46489 -0.227258 -1
   vertex 1.4747 -0.228361 -1
   vertex 1.47441 -0.22912 -1
  endloop
 endfacet
 facet normal 0 0 -1
  outer loop
   vertex 1.46489 -0.227258 -1
   vertex 1.47441 -0.22912 -1
   vertex 1.47401 -0.229824 -1
  endloop
 endfacet
 facet normal 0 0 -1
  outer loop
   vertex 1.37364 -0.127304 -1
   vertex 1.37443 -0.127149 -1
   vertex 1.37474 -0.137111 -1
  endloop
 endfacet
 facet normal 0 0 -1
  outer loop
   vertex 1.37474 -0.137111 -1
   vertex 1.37443 -0.127149 -1
   vertex 1.37524 -0.127124 -1
  endloop
 endfacet
 facet normal 0 0 -1
  outer loop
   vertex 1.37474 -0.137111 -1
   vertex 1.37524 -0.127124 -1
   vertex 1.38401 -0.138032 -1
  endloop
 endfacet
 facet normal 0 0 -1
  outer loop
   vertex 1.38401 -0.138032 -1
   vertex 1.37524 -0.127124 -1
   vertex 1.38485 -0.128048 -1
  endloop
 endfacet
 facet normal 0 0 -1
  outer loop
   vertex 1.38401 -0.138032 -1
   vertex 1.38485 -0.128048 -1
   vertex 1.39314 -0.139856 -1
  endloop
 endfacet
 facet normal 0 0 -1
  outer loop
   vertex 1.39314 -0.139856 -1
   vertex 1.38485 -0.128048 -1
   vertex 1.39433 -0.129851 -1
  endloop
 endfacet
 facet normal 0 0 -1
  outer loop
   vertex 1.39314 -0.139856 -1
   vertex 1.39433 -0.129851 -1
   vertex 1.40205 -0.142564 -1
  endloop
 endfacet
 facet normal 0 0 -1
  outer loop
   vertex 1.40205 -0.142564 -1
   vertex 1.39433 -0.129851 -1
   vertex 1.4036 -0.132516 -1
  endloop
 endfacet
 facet normal 0 0 -1
  outer loop
   vertex 1.40205 -0.142564 -1
   vertex 1.4036 -0.132516 -1
   vertex 1.41065 -0.146132 -1
  endloop
 endfacet
 facet normal 0 0 -1
  outer loop
   vertex 1.41065 -0.146132 -1
   vertex 1.4036 -0.132516 -1
   vertex 1.41259 -0.136021 -1
  endloop
 endfacet
 facet normal 0 0 -1
  outer loop
   vertex 1.41065 -0.146132 -1
   vertex 1.41259 -0.136021 -1
   vertex 1.41887 -0.150525 -1
  endloop
 endfacet
 facet normal 0 0 -1
  outer loop
   vertex 1.41887 -0.150525 -1
   vertex 1.41259 -0.136021 -1
   vertex 1.42122 -0.140337 -1
  endloop
 endfacet
 facet normal 0 0 -1
  outer loop
   vertex 1.41887 -0.150525 -1
   vertex 1.42122 -0.140337 -1
   vertex 1.42661 -0.155701 -1
  endloop
 endfacet
 facet normal 0 0 -1
  outer loop
   vertex 1.42661 -0.155701 -1
   vertex 1.42122 -0.140337 -1
   vertex 1.42942 -0.145427 -1
  endloop
 endfacet
 facet normal 0 0 -1
  outer loop
   vertex 1.42661 -0.155701 -1
   vertex 1.42942 -0.145427 -1
   vertex 1.43381 -0.16161 -1
  endloop
 endfacet
 facet normal 0 0 -1
  outer loop
   vertex 1.43381 -0.16161 -1
   vertex 1.42942 -0.145427 -1
   vertex 1.43712 -0.151248 -1
  endloop
 endfacet
 facet normal 0 0 -1
  outer loop
   vertex 1.43381 -0.16161 -1
   vertex 1.43712 -0.151248 -1
   vertex 1.44425 -0.157751 -1
  endloop
 endfacet
 facet normal 0 0 -1
  outer loop
   vertex 1.46489 -0.227258 -1
   vertex 1.47222 -0.231428 -1
   vertex 1.47148 -0.231747 -1
  endloop
 endfacet
 facet normal -0 0 -1
  outer loop
   vertex 1.47148 -0.231747 -1
   vertex 1.47069 -0.231942 -1
   vertex 1.46489 -0.227258 -1
  endloop
 endfacet
 facet normal 0 0 -1
  outer loop
   vertex 1.46489 -0.227258 -1
   vertex 1.47069 -0.231942 -1
   vertex 1.46988 -0.232007 -1
  endloop
 endfacet
 facet normal 0 0 -1
  outer loop
   vertex 1.46489 -0.227258 -1
   vertex 1.46988 -0.232007 -1
   vertex 1.46904 -0.231936 -1
  endloop
 endfacet
 facet normal -0 0 -1
  outer loop
   vertex 1.47401 -0.229824 -1
   vertex 1.47351 -0.230454 -1
   vertex 1.46489 -0.227258 -1
  endloop
 endfacet
 facet normal 0 0 -1
  outer loop
   vertex 1.46489 -0.227258 -1
   vertex 1.47351 -0.230454 -1
   vertex 1.4729 -0.230993 -1
  endloop
 endfacet
 facet normal 0 0 -1
  outer loop
   vertex 1.46489 -0.227258 -1
   vertex 1.4729 -0.230993 -1
   vertex 1.47222 -0.231428 -1
  endloop
 endfacet
 facet normal 0 0 -1
  outer loop
   vertex 1.46675 -0.230908 -1
   vertex 1.46614 -0.230327 -1
   vertex 1.46746 -0.231379 -1
  endloop
 endfacet
 facet normal 0 0 -1
  outer loop
   vertex 1.46746 -0.231379 -1
   vertex 1.46614 -0.230327 -1
   vertex 1.46564 -0.229651 -1
  endloop
 endfacet
 facet normal 0 0 -1
  outer loop
   vertex 1.46746 -0.231379 -1
   vertex 1.46564 -0.229651 -1
   vertex 1.46525 -0.228899 -1
  endloop
 endfacet
 facet normal 0 0 -1
  outer loop
   vertex 1.46904 -0.231936 -1
   vertex 1.46822 -0.231725 -1
   vertex 1.46489 -0.227258 -1
  endloop
 endfacet
 facet normal 0 0 -1
  outer loop
   vertex 1.46489 -0.227258 -1
   vertex 1.46822 -0.231725 -1
   vertex 1.46746 -0.231379 -1
  endloop
 endfacet
 facet normal 0 0 -1
  outer loop
   vertex 1.46489 -0.227258 -1
   vertex 1.46746 -0.231379 -1
   vertex 1.465 -0.228094 -1
  endloop
 endfacet
 facet normal 0 0 -1
  outer loop
   vertex 1.465 -0.228094 -1
   vertex 1.46746 -0.231379 -1
   vertex 1.46525 -0.228899 -1
  endloop
 endfacet
 facet normal 0 0 -1
  outer loop
   vertex 1.37006 -0.131311 -1
   vertex 1.37025 -0.130525 -1
   vertex 1.37474 -0.137111 -1
  endloop
 endfacet
 facet normal 0 0 -1
  outer loop
   vertex 1.37474 -0.137111 -1
   vertex 1.37025 -0.130525 -1
   vertex 1.37057 -0.129781 -1
  endloop
 endfacet
 facet normal 0 0 -1
  outer loop
   vertex 1.37474 -0.137111 -1
   vertex 1.37057 -0.129781 -1
   vertex 1.37101 -0.129098 -1
  endloop
 endfacet
 facet normal 0 0 -1
  outer loop
   vertex 1.37101 -0.129098 -1
   vertex 1.37155 -0.128495 -1
   vertex 1.37474 -0.137111 -1
  endloop
 endfacet
 facet normal 0 0 -1
  outer loop
   vertex 1.37474 -0.137111 -1
   vertex 1.37155 -0.128495 -1
   vertex 1.37218 -0.127986 -1
  endloop
 endfacet
 facet normal 0 0 -1
  outer loop
   vertex 1.37474 -0.137111 -1
   vertex 1.37218 -0.127986 -1
   vertex 1.37288 -0.127586 -1
  endloop
 endfacet
 facet normal 0 -0 -1
  outer loop
   vertex 1.37006 -0.131311 -1
   vertex 1.37474 -0.137111 -1
   vertex 1.36999 -0.132117 -1
  endloop
 endfacet
 facet normal 0 0 -1
  outer loop
   vertex 1.36999 -0.132117 -1
   vertex 1.37474 -0.137111 -1
   vertex 1.37391 -0.136998 -1
  endloop
 endfacet
 facet normal 0 0 -1
  outer loop
   vertex 1.36999 -0.132117 -1
   vertex 1.37391 -0.136998 -1
   vertex 1.3731 -0.136746 -1
  endloop
 endfacet
 facet normal 0 0 -1
  outer loop
   vertex 1.37235 -0.136362 -1
   vertex 1.37167 -0.135857 -1
   vertex 1.3731 -0.136746 -1
  endloop
 endfacet
 facet normal 0 0 -1
  outer loop
   vertex 1.3731 -0.136746 -1
   vertex 1.37167 -0.135857 -1
   vertex 1.37109 -0.135245 -1
  endloop
 endfacet
 facet normal 0 0 -1
  outer loop
   vertex 1.3731 -0.136746 -1
   vertex 1.37109 -0.135245 -1
   vertex 1.37062 -0.134545 -1
  endloop
 endfacet
 facet normal 0 0 -1
  outer loop
   vertex 1.37062 -0.134545 -1
   vertex 1.37028 -0.133775 -1
   vertex 1.3731 -0.136746 -1
  endloop
 endfacet
 facet normal 0 0 -1
  outer loop
   vertex 1.3731 -0.136746 -1
   vertex 1.37028 -0.133775 -1
   vertex 1.37006 -0.132958 -1
  endloop
 endfacet
 facet normal 0 0 -1
  outer loop
   vertex 1.3731 -0.136746 -1
   vertex 1.37006 -0.132958 -1
   vertex 1.36999 -0.132117 -1
  endloop
 endfacet
 facet normal 0 0 1
  outer loop
   vertex 1.37443 -0.127149 1
   vertex 1.37364 -0.127304 1
   vertex 1.37474 -0.137111 1
  endloop
 endfacet
 facet normal 0 -0 1
  outer loop
   vertex 1.44039 -0.168195 1
   vertex 1.44425 -0.157751 1
   vertex 1.43381 -0.16161 1
  endloop
 endfacet
 facet normal 0 0 1
  outer loop
   vertex 1.43381 -0.16161 1
   vertex 1.44425 -0.157751 1
   vertex 1.43712 -0.151248 1
  endloop
 endfacet
 facet normal 0 -0 1
  outer loop
   vertex 1.43381 -0.16161 1
   vertex 1.43712 -0.151248 1
   vertex 1.42661 -0.155701 1
  endloop
 endfacet
 facet normal 0 0 1
  outer loop
   vertex 1.42661 -0.155701 1
   vertex 1.43712 -0.151248 1
   vertex 1.42942 -0.145427 1
  endloop
 endfacet
 facet normal 0 -0 1
  outer loop
   vertex 1.42661 -0.155701 1
   vertex 1.42942 -0.145427 1
   vertex 1.41887 -0.150525 1
  endloop
 endfacet
 facet normal 0 0 1
  outer loop
   vertex 1.41887 -0.150525 1
   vertex 1.42942 -0.145427 1
   vertex 1.42122 -0.140337 1
  endloop
 endfacet
 facet normal 0 -0 1
  outer loop
   vertex 1.41887 -0.150525 1
   vertex 1.42122 -0.140337 1
   vertex 1.41065 -0.146132 1
  endloop
 endfacet
 facet normal 0 0 1
  outer loop
   vertex 1.41065 -0.146132 1
   vertex 1.42122 -0.140337 1
   vertex 1.41259 -0.136021 1
  endloop
 endfacet
 facet normal 0 -0 1
  outer loop
   vertex 1.41065 -0.146132 1
   vertex 1.41259 -0.136021 1
   vertex 1.40205 -0.142564 1
  endloop
 endfacet
 facet normal 0 0 1
  outer loop
   vertex 1.40205 -0.142564 1
   vertex 1.41259 -0.136021 1
   vertex 1.4036 -0.132516 1
  endloop
 endfacet
 facet normal 0 -0 1
  outer loop
   vertex 1.40205 -0.142564 1
   vertex 1.4036 -0.132516 1
   vertex 1.39314 -0.139856 1
  endloop
 endfacet
 facet normal 0 0 1
  outer loop
   vertex 1.39314 -0.139856 1
   vertex 1.4036 -0.132516 1
   vertex 1.39433 -0.129851 1
  endloop
 endfacet
 facet normal 0 -0 1
  outer loop
   vertex 1.39314 -0.139856 1
   vertex 1.39433 -0.129851 1
   vertex 1.38401 -0.138032 1
  endloop
 endfacet
 facet normal 0 0 1
  outer loop
   vertex 1.38401 -0.138032 1
   vertex 1.39433 -0.129851 1
   vertex 1.38485 -0.128048 1
  endloop
 endfacet
 facet normal 0 -0 1
  outer loop
   vertex 1.38401 -0.138032 1
   vertex 1.38485 -0.128048 1
   vertex 1.37474 -0.137111 1
  endloop
 endfacet
 facet normal 0 0 1
  outer loop
   vertex 1.37474 -0.137111 1
   vertex 1.38485 -0.128048 1
   vertex 1.37524 -0.127124 1
  endloop
 endfacet
 facet normal 0 -0 1
  outer loop
   vertex 1.37474 -0.137111 1
   vertex 1.37524 -0.127124 1
   vertex 1.37443 -0.127149 1
  endloop
 endfacet
 facet normal 0 -0 1
  outer loop
   vertex 1.47441 -0.22912 1
   vertex 1.4747 -0.228361 1
   vertex 1.46489 -0.227258 1
  endloop
 endfacet
 facet normal 0 -0 1
  outer loop
   vertex 1.46988 -0.232007 1
   vertex 1.47069 -0.231942 1
   vertex 1.46489 -0.227258 1
  endloop
 endfacet
 facet normal 0 -0 1
  outer loop
   vertex 1.4747 -0.228361 1
   vertex 1.47485 -0.227567 1
   vertex 1.46489 -0.227258 1
  endloop
 endfacet
 facet normal -0 0 1
  outer loop
   vertex 1.46489 -0.227258 1
   vertex 1.47485 -0.227567 1
   vertex 1.47488 -0.226758 1
  endloop
 endfacet
 facet normal 0 -0 1
  outer loop
   vertex 1.46489 -0.227258 1
   vertex 1.47488 -0.226758 1
   vertex 1.46397 -0.21799 1
  endloop
 endfacet
 facet normal -0 0 1
  outer loop
   vertex 1.46397 -0.21799 1
   vertex 1.47488 -0.226758 1
   vertex 1.47395 -0.217152 1
  endloop
 endfacet
 facet normal 0 -0 1
  outer loop
   vertex 1.46397 -0.21799 1
   vertex 1.47395 -0.217152 1
   vertex 1.46214 -0.208858 1
  endloop
 endfacet
 facet normal -0 0 1
  outer loop
   vertex 1.46214 -0.208858 1
   vertex 1.47395 -0.217152 1
   vertex 1.47215 -0.207672 1
  endloop
 endfacet
 facet normal 0 -0 1
  outer loop
   vertex 1.46214 -0.208858 1
   vertex 1.47215 -0.207672 1
   vertex 1.45944 -0.199948 1
  endloop
 endfacet
 facet normal -0 0 1
  outer loop
   vertex 1.45944 -0.199948 1
   vertex 1.47215 -0.207672 1
   vertex 1.46948 -0.198398 1
  endloop
 endfacet
 facet normal 0 -0 1
  outer loop
   vertex 1.45944 -0.199948 1
   vertex 1.46948 -0.198398 1
   vertex 1.45587 -0.191346 1
  endloop
 endfacet
 facet normal -0 0 1
  outer loop
   vertex 1.45587 -0.191346 1
   vertex 1.46948 -0.198398 1
   vertex 1.46598 -0.189407 1
  endloop
 endfacet
 facet normal 0 -0 1
  outer loop
   vertex 1.45587 -0.191346 1
   vertex 1.46598 -0.189407 1
   vertex 1.45147 -0.183135 1
  endloop
 endfacet
 facet normal -0 0 1
  outer loop
   vertex 1.45147 -0.183135 1
   vertex 1.46598 -0.189407 1
   vertex 1.46166 -0.180776 1
  endloop
 endfacet
 facet normal 0 -0 1
  outer loop
   vertex 1.45147 -0.183135 1
   vertex 1.46166 -0.180776 1
   vertex 1.4463 -0.175393 1
  endloop
 endfacet
 facet normal -0 0 1
  outer loop
   vertex 1.4463 -0.175393 1
   vertex 1.46166 -0.180776 1
   vertex 1.45657 -0.172577 1
  endloop
 endfacet
 facet normal 0 -0 1
  outer loop
   vertex 1.4463 -0.175393 1
   vertex 1.45657 -0.172577 1
   vertex 1.44039 -0.168195 1
  endloop
 endfacet
 facet normal -0 0 1
  outer loop
   vertex 1.44039 -0.168195 1
   vertex 1.45657 -0.172577 1
   vertex 1.45075 -0.16488 1
  endloop
 endfacet
 facet normal 0 0 1
  outer loop
   vertex 1.44039 -0.168195 1
   vertex 1.45075 -0.16488 1
   vertex 1.44425 -0.157751 1
  endloop
 endfacet
 facet normal 0 0 1
  outer loop
   vertex 1.46988 -0.232007 1
   vertex 1.46489 -0.227258 1
   vertex 1.46904 -0.231936 1
  endloop
 endfacet
 facet normal 0 0 1
  outer loop
   vertex 1.37364 -0.127304 1
   vertex 1.37288 -0.127586 1
   vertex 1.37474 -0.137111 1
  endloop
 endfacet
 facet normal 0 0 1
  outer loop
   vertex 1.37474 -0.137111 1
   vertex 1.37288 -0.127586 1
   vertex 1.37218 -0.127986 1
  endloop
 endfacet
 facet normal 0 0 1
  outer loop
   vertex 1.37474 -0.137111 1
   vertex 1.37218 -0.127986 1
   vertex 1.37155 -0.128495 1
  endloop
 endfacet
 facet normal 0 0 1
  outer loop
   vertex 1.37155 -0.128495 1
   vertex 1.37101 -0.129098 1
   vertex 1.37474 -0.137111 1
  endloop
 endfacet
 facet normal 0 0 1
  outer loop
   vertex 1.37474 -0.137111 1
   vertex 1.37101 -0.129098 1
   vertex 1.37057 -0.129781 1
  endloop
 endfacet
 facet normal 0 0 1
  outer loop
   vertex 1.37474 -0.137111 1
   vertex 1.37057 -0.129781 1
   vertex 1.37025 -0.130525 1
  endloop
 endfacet
 facet normal 0 0 1
  outer loop
   vertex 1.37025 -0.130525 1
   vertex 1.37006 -0.131311 1
   vertex 1.37474 -0.137111 1
  endloop
 endfacet
 facet normal 0 0 1
  outer loop
   vertex 1.37474 -0.137111 1
   vertex 1.37006 -0.131311 1
   vertex 1.36999 -0.132117 1
  endloop
 endfacet
 facet normal 0 0 1
  outer loop
   vertex 1.37474 -0.137111 1
   vertex 1.36999 -0.132117 1
   vertex 1.37391 -0.136998 1
  endloop
 endfacet
 facet normal 0 0 1
  outer loop
   vertex 1.465 -0.228094 1
   vertex 1.46525 -0.228899 1
   vertex 1.46746 -0.231379 1
  endloop
 endfacet
 facet normal 0 -0 1
  outer loop
   vertex 1.47069 -0.231942 1
   vertex 1.47148 -0.231747 1
   vertex 1.46489 -0.227258 1
  endloop
 endfacet
 facet normal 0 0 1
  outer loop
   vertex 1.46489 -0.227258 1
   vertex 1.47148 -0.231747 1
   vertex 1.47222 -0.231428 1
  endloop
 endfacet
 facet normal 0 0 1
  outer loop
   vertex 1.46489 -0.227258 1
   vertex 1.47222 -0.231428 1
   vertex 1.4729 -0.230993 1
  endloop
 endfacet
 facet normal 0 0 1
  outer loop
   vertex 1.37028 -0.133775 1
   vertex 1.37062 -0.134545 1
   vertex 1.3731 -0.136746 1
  endloop
 endfacet
 facet normal -0 -0 1
  outer loop
   vertex 1.465 -0.228094 1
   vertex 1.46746 -0.231379 1
   vertex 1.46489 -0.227258 1
  endloop
 endfacet
 facet normal 0 0 1
  outer loop
   vertex 1.46489 -0.227258 1
   vertex 1.46746 -0.231379 1
   vertex 1.46822 -0.231725 1
  endloop
 endfacet
 facet normal 0 0 1
  outer loop
   vertex 1.46489 -0.227258 1
   vertex 1.46822 -0.231725 1
   vertex 1.46904 -0.231936 1
  endloop
 endfacet
 facet normal 0 -0 1
  outer loop
   vertex 1.4729 -0.230993 1
   vertex 1.47351 -0.230454 1
   vertex 1.46489 -0.227258 1
  endloop
 endfacet
 facet normal 0 0 1
  outer loop
   vertex 1.46489 -0.227258 1
   vertex 1.47351 -0.230454 1
   vertex 1.47401 -0.229824 1
  endloop
 endfacet
 facet normal 0 0 1
  outer loop
   vertex 1.46489 -0.227258 1
   vertex 1.47401 -0.229824 1
   vertex 1.47441 -0.22912 1
  endloop
 endfacet
 facet normal 0 0 1
  outer loop
   vertex 1.46525 -0.228899 1
   vertex 1.46564 -0.229651 1
   vertex 1.46746 -0.231379 1
  endloop
 endfacet
 facet normal 0 0 1
  outer loop
   vertex 1.46746 -0.231379 1
   vertex 1.46564 -0.229651 1
   vertex 1.46614 -0.230327 1
  endloop
 endfacet
 facet normal 0 0 1
  outer loop
   vertex 1.46746 -0.231379 1
   vertex 1.46614 -0.230327 1
   vertex 1.46675 -0.230908 1
  endloop
 endfacet
 facet normal 0 0 1
  outer loop
   vertex 1.37391 -0.136998 1
   vertex 1.36999 -0.132117 1
   vertex 1.3731 -0.136746 1
  endloop
 endfacet
 facet normal 0 0 1
  outer loop
   vertex 1.3731 -0.136746 1
   vertex 1.36999 -0.132117 1
   vertex 1.37006 -0.132958 1
  endloop
 endfacet
 facet normal 0 0 1
  outer loop
   vertex 1.3731 -0.136746 1
   vertex 1.37006 -0.132958 1
   vertex 1.37028 -0.133775 1
  endloop
 endfacet
 facet normal 0 0 1
  outer loop
   vertex 1.37062 -0.134545 1
   vertex 1.37109 -0.135245 1
   vertex 1.3731 -0.136746 1
  endloop
 endfacet
 facet normal 0 0 1
  outer loop
   vertex 1.3731 -0.136746 1
   vertex 1.37109 -0.135245 1
   vertex 1.37167 -0.135857 1
  endloop
 endfacet
 facet normal 0 0 1
  outer loop
   vertex 1.3731 -0.136746 1
   vertex 1.37167 -0.135857 1
   vertex 1.37235 -0.136362 1
  endloop
 endfacet
 facet normal 0.999317 -0.0369514 0
  outer loop
   vertex 1.47488 -0.226758 -1
   vertex 1.47488 -0.226758 1
   vertex 1.47485 -0.227567 1
  endloop
 endfacet
 facet normal 0.999317 -0.0369514 0
  outer loop
   vertex 1.47488 -0.226758 -1
   vertex 1.47485 -0.227567 1
   vertex 1.47485 -0.227567 -1
  endloop
 endfacet
 facet normal 0.982621 -0.185621 0
  outer loop
   vertex 1.47485 -0.227567 -1
   vertex 1.47485 -0.227567 1
   vertex 1.4747 -0.228361 1
  endloop
 endfacet
 facet normal 0.982621 -0.185621 0
  outer loop
   vertex 1.47485 -0.227567 -1
   vertex 1.4747 -0.228361 1
   vertex 1.4747 -0.228361 -1
  endloop
 endfacet
 facet normal 0.93417 -0.356828 0
  outer loop
   vertex 1.4747 -0.228361 -1
   vertex 1.4747 -0.228361 1
   vertex 1.47441 -0.22912 1
  endloop
 endfacet
 facet normal 0.93417 -0.356828 0
  outer loop
   vertex 1.4747 -0.228361 -1
   vertex 1.47441 -0.22912 1
   vertex 1.47441 -0.22912 -1
  endloop
 endfacet
 facet normal 0.869302 -0.494282 0
  outer loop
   vertex 1.47441 -0.22912 -1
   vertex 1.47441 -0.22912 1
   vertex 1.47401 -0.229824 1
  endloop
 endfacet
 facet normal 0.869302 -0.494282 0
  outer loop
   vertex 1.47441 -0.22912 -1
   vertex 1.47401 -0.229824 1
   vertex 1.47401 -0.229824 -1
  endloop
 endfacet
 facet normal 0.783214 -0.621753 0
  outer loop
   vertex 1.47401 -0.229824 -1
   vertex 1.47401 -0.229824 1
   vertex 1.47351 -0.230454 1
  endloop
 endfacet
 facet normal 0.783214 -0.621753 0
  outer loop
   vertex 1.47401 -0.229824 -1
   vertex 1.47351 -0.230454 1
   vertex 1.47351 -0.230454 -1
  endloop
 endfacet
 facet normal 0.662429 -0.749125 0
  outer loop
   vertex 1.47351 -0.230454 -1
   vertex 1.47351 -0.230454 1
   vertex 1.4729 -0.230993 1
  endloop
 endfacet
 facet normal 0.662429 -0.749125 0
  outer loop
   vertex 1.47351 -0.230454 -1
   vertex 1.4729 -0.230993 1
   vertex 1.4729 -0.230993 -1
  endloop
 endfacet
 facet normal 0.53883 -0.842415 0
  outer loop
   vertex 1.4729 -0.230993 -1
   vertex 1.4729 -0.230993 1
   vertex 1.47222 -0.231428 1
  endloop
 endfacet
 facet normal 0.53883 -0.842415 0
  outer loop
   vertex 1.4729 -0.230993 -1
   vertex 1.47222 -0.231428 1
   vertex 1.47222 -0.231428 -1
  endloop
 endfacet
 facet normal 0.395998 -0.918251 0
  outer loop
   vertex 1.47222 -0.231428 -1
   vertex 1.47222 -0.231428 1
   vertex 1.47148 -0.231747 1
  endloop
 endfacet
 facet normal 0.395998 -0.918251 0
  outer loop
   vertex 1.47222 -0.231428 -1
   vertex 1.47148 -0.231747 1
   vertex 1.47148 -0.231747 -1
  endloop
 endfacet
 facet normal 0.239531 -0.970889 0
  outer loop
   vertex 1.47148 -0.231747 -1
   vertex 1.47148 -0.231747 1
   vertex 1.47069 -0.231942 1
  endloop
 endfacet
 facet normal 0.239531 -0.970889 0
  outer loop
   vertex 1.47148 -0.231747 -1
   vertex 1.47069 -0.231942 1
   vertex 1.47069 -0.231942 -1
  endloop
 endfacet
 facet normal 0.080596 -0.996747 0
  outer loop
   vertex 1.47069 -0.231942 -1
   vertex 1.47069 -0.231942 1
   vertex 1.46988 -0.232007 1
  endloop
 endfacet
 facet normal 0.080596 -0.996747 0
  outer loop
   vertex 1.47069 -0.231942 -1
   vertex 1.46988 -0.232007 1
   vertex 1.46988 -0.232007 -1
  endloop
 endfacet
 facet normal -0.0844659 -0.996426 0
  outer loop
   vertex 1.46988 -0.232007 -1
   vertex 1.46988 -0.232007 1
   vertex 1.46904 -0.231936 1
  endloop
 endfacet
 facet normal -0.0844659 -0.996426 0
  outer loop
   vertex 1.46988 -0.232007 -1
   vertex 1.46904 -0.231936 1
   vertex 1.46904 -0.231936 -1
  endloop
 endfacet
 facet normal -0.249848 -0.968285 0
  outer loop
   vertex 1.46904 -0.231936 -1
   vertex 1.46904 -0.231936 1
   vertex 1.46822 -0.231725 1
  endloop
 endfacet
 facet normal -0.249848 -0.968285 0
  outer loop
   vertex 1.46904 -0.231936 -1
   vertex 1.46822 -0.231725 1
   vertex 1.46822 -0.231725 -1
  endloop
 endfacet
 facet normal -0.414364 -0.910111 0
  outer loop
   vertex 1.46822 -0.231725 -1
   vertex 1.46822 -0.231725 1
   vertex 1.46746 -0.231379 1
  endloop
 endfacet
 facet normal -0.414364 -0.910111 0
  outer loop
   vertex 1.46822 -0.231725 -1
   vertex 1.46746 -0.231379 1
   vertex 1.46746 -0.231379 -1
  endloop
 endfacet
 facet normal -0.552308 -0.83364 0
  outer loop
   vertex 1.46746 -0.231379 -1
   vertex 1.46746 -0.231379 1
   vertex 1.46675 -0.230908 1
  endloop
 endfacet
 facet normal -0.552308 -0.83364 0
  outer loop
   vertex 1.46746 -0.231379 -1
   vertex 1.46675 -0.230908 1
   vertex 1.46675 -0.230908 -1
  endloop
 endfacet
 facet normal -0.690061 -0.723751 0
  outer loop
   vertex 1.46675 -0.230908 -1
   vertex 1.46675 -0.230908 1
   vertex 1.46614 -0.230327 1
  endloop
 endfacet
 facet normal -0.690061 -0.723751 0
  outer loop
   vertex 1.46675 -0.230908 -1
   vertex 1.46614 -0.230327 1
   vertex 1.46614 -0.230327 -1
  endloop
 endfacet
 facet normal -0.804015 -0.594609 0
  outer loop
   vertex 1.46614 -0.230327 -1
   vertex 1.46614 -0.230327 1
   vertex 1.46564 -0.229651 1
  endloop
 endfacet
 facet normal -0.804015 -0.594609 0
  outer loop
   vertex 1.46614 -0.230327 -1
   vertex 1.46564 -0.229651 1
   vertex 1.46564 -0.229651 -1
  endloop
 endfacet
 facet normal -0.887601 -0.460613 0
  outer loop
   vertex 1.46564 -0.229651 -1
   vertex 1.46564 -0.229651 1
   vertex 1.46525 -0.228899 1
  endloop
 endfacet
 facet normal -0.887601 -0.460613 0
  outer loop
   vertex 1.46564 -0.229651 -1
   vertex 1.46525 -0.228899 1
   vertex 1.46525 -0.228899 -1
  endloop
 endfacet
 facet normal -0.955044 -0.296465 0
  outer loop
   vertex 1.46525 -0.228899 -1
   vertex 1.46525 -0.228899 1
   vertex 1.465 -0.228094 1
  endloop
 endfacet
 facet normal -0.955044 -0.296465 0
  outer loop
   vertex 1.46525 -0.228899 -1
   vertex 1.465 -0.228094 1
   vertex 1.465 -0.228094 -1
  endloop
 endfacet
 facet normal -0.991456 -0.130444 0
  outer loop
   vertex 1.465 -0.228094 -1
   vertex 1.465 -0.228094 1
   vertex 1.46489 -0.227258 1
  endloop
 endfacet
 facet normal -0.991456 -0.130444 0
  outer loop
   vertex 1.465 -0.228094 -1
   vertex 1.46489 -0.227258 1
   vertex 1.46489 -0.227258 -1
  endloop
 endfacet
 facet normal -0.99626 0.0864085 0
  outer loop
   vertex 1.36999 -0.132117 -1
   vertex 1.36999 -0.132117 1
   vertex 1.37006 -0.131311 1
  endloop
 endfacet
 facet normal -0.99626 0.0864085 0
  outer loop
   vertex 1.36999 -0.132117 -1
   vertex 1.37006 -0.131311 1
   vertex 1.37006 -0.131311 -1
  endloop
 endfacet
 facet normal -0.971985 0.235042 0
  outer loop
   vertex 1.37006 -0.131311 -1
   vertex 1.37006 -0.131311 1
   vertex 1.37025 -0.130525 1
  endloop
 endfacet
 facet normal -0.971985 0.235042 0
  outer loop
   vertex 1.37006 -0.131311 -1
   vertex 1.37025 -0.130525 1
   vertex 1.37025 -0.130525 -1
  endloop
 endfacet
 facet normal -0.918633 0.395112 0
  outer loop
   vertex 1.37025 -0.130525 -1
   vertex 1.37025 -0.130525 1
   vertex 1.37057 -0.129781 1
  endloop
 endfacet
 facet normal -0.918633 0.395112 0
  outer loop
   vertex 1.37025 -0.130525 -1
   vertex 1.37057 -0.129781 1
   vertex 1.37057 -0.129781 -1
  endloop
 endfacet
 facet normal -0.840586 0.541679 0
  outer loop
   vertex 1.37057 -0.129781 -1
   vertex 1.37057 -0.129781 1
   vertex 1.37101 -0.129098 1
  endloop
 endfacet
 facet normal -0.840586 0.541679 0
  outer loop
   vertex 1.37057 -0.129781 -1
   vertex 1.37101 -0.129098 1
   vertex 1.37101 -0.129098 -1
  endloop
 endfacet
 facet normal -0.745214 0.666825 0
  outer loop
   vertex 1.37101 -0.129098 -1
   vertex 1.37101 -0.129098 1
   vertex 1.37155 -0.128495 1
  endloop
 endfacet
 facet normal -0.745214 0.666825 0
  outer loop
   vertex 1.37101 -0.129098 -1
   vertex 1.37155 -0.128495 1
   vertex 1.37155 -0.128495 -1
  endloop
 endfacet
 facet normal -0.62814 0.778101 0
  outer loop
   vertex 1.37155 -0.128495 -1
   vertex 1.37155 -0.128495 1
   vertex 1.37218 -0.127986 1
  endloop
 endfacet
 facet normal -0.62814 0.778101 0
  outer loop
   vertex 1.37155 -0.128495 -1
   vertex 1.37218 -0.127986 1
   vertex 1.37218 -0.127986 -1
  endloop
 endfacet
 facet normal -0.496513 0.86803 0
  outer loop
   vertex 1.37218 -0.127986 -1
   vertex 1.37218 -0.127986 1
   vertex 1.37288 -0.127586 1
  endloop
 endfacet
 facet normal -0.496513 0.86803 0
  outer loop
   vertex 1.37218 -0.127986 -1
   vertex 1.37288 -0.127586 1
   vertex 1.37288 -0.127586 -1
  endloop
 endfacet
 facet normal -0.347353 0.937735 0
  outer loop
   vertex 1.37288 -0.127586 -1
   vertex 1.37288 -0.127586 1
   vertex 1.37364 -0.127304 1
  endloop
 endfacet
 facet normal -0.347353 0.937735 0
  outer loop
   vertex 1.37288 -0.127586 -1
   vertex 1.37364 -0.127304 1
   vertex 1.37364 -0.127304 -1
  endloop
 endfacet
 facet normal -0.19289 0.98122 0
  outer loop
   vertex 1.37364 -0.127304 -1
   vertex 1.37364 -0.127304 1
   vertex 1.37443 -0.127149 1
  endloop
 endfacet
 facet normal -0.19289 0.98122 0
  outer loop
   vertex 1.37364 -0.127304 -1
   vertex 1.37443 -0.127149 1
   vertex 1.37443 -0.127149 -1
  endloop
 endfacet
 facet normal -0.030973 0.99952 0
  outer loop
   vertex 1.37443 -0.127149 -1
   vertex 1.37443 -0.127149 1
   vertex 1.37524 -0.127124 1
  endloop
 endfacet
 facet normal -0.030973 0.99952 0
  outer loop
   vertex 1.37443 -0.127149 -1
   vertex 1.37524 -0.127124 1
   vertex 1.37524 -0.127124 -1
  endloop
 endfacet
 facet normal -0.135126 -0.990828 0
  outer loop
   vertex 1.37474 -0.137111 -1
   vertex 1.37474 -0.137111 1
   vertex 1.37391 -0.136998 1
  endloop
 endfacet
 facet normal -0.135126 -0.990828 0
  outer loop
   vertex 1.37474 -0.137111 -1
   vertex 1.37391 -0.136998 1
   vertex 1.37391 -0.136998 -1
  endloop
 endfacet
 facet normal -0.297311 -0.954781 0
  outer loop
   vertex 1.37391 -0.136998 -1
   vertex 1.37391 -0.136998 1
   vertex 1.3731 -0.136746 1
  endloop
 endfacet
 facet normal -0.297311 -0.954781 0
  outer loop
   vertex 1.37391 -0.136998 -1
   vertex 1.3731 -0.136746 1
   vertex 1.3731 -0.136746 -1
  endloop
 endfacet
 facet normal -0.455706 -0.89013 0
  outer loop
   vertex 1.3731 -0.136746 -1
   vertex 1.3731 -0.136746 1
   vertex 1.37235 -0.136362 1
  endloop
 endfacet
 facet normal -0.455706 -0.89013 0
  outer loop
   vertex 1.3731 -0.136746 -1
   vertex 1.37235 -0.136362 1
   vertex 1.37235 -0.136362 -1
  endloop
 endfacet
 facet normal -0.596233 -0.802812 0
  outer loop
   vertex 1.37235 -0.136362 -1
   vertex 1.37235 -0.136362 1
   vertex 1.37167 -0.135857 1
  endloop
 endfacet
 facet normal -0.596233 -0.802812 0
  outer loop
   vertex 1.37235 -0.136362 -1
   vertex 1.37167 -0.135857 1
   vertex 1.37167 -0.135857 -1
  endloop
 endfacet
 facet normal -0.72552 -0.688201 0
  outer loop
   vertex 1.37167 -0.135857 -1
   vertex 1.37167 -0.135857 1
   vertex 1.37109 -0.135245 1
  endloop
 endfacet
 facet normal -0.72552 -0.688201 0
  outer loop
   vertex 1.37167 -0.135857 -1
   vertex 1.37109 -0.135245 1
   vertex 1.37109 -0.135245 -1
  endloop
 endfacet
 facet normal -0.830382 -0.557194 0
  outer loop
   vertex 1.37109 -0.135245 -1
   vertex 1.37109 -0.135245 1
   vertex 1.37062 -0.134545 1
  endloop
 endfacet
 facet normal -0.830382 -0.557194 0
  outer loop
   vertex 1.37109 -0.135245 -1
   vertex 1.37062 -0.134545 1
   vertex 1.37062 -0.134545 -1
  endloop
 endfacet
 facet normal -0.914737 -0.404051 0
  outer loop
   vertex 1.37062 -0.134545 -1
   vertex 1.37062 -0.134545 1
   vertex 1.37028 -0.133775 1
  endloop
 endfacet
 facet normal -0.914737 -0.404051 0
  outer loop
   vertex 1.37062 -0.134545 -1
   vertex 1.37028 -0.133775 1
   vertex 1.37028 -0.133775 -1
  endloop
 endfacet
 facet normal -0.965578 -0.260112 0
  outer loop
   vertex 1.37028 -0.133775 -1
   vertex 1.37028 -0.133775 1
   vertex 1.37006 -0.132958 1
  endloop
 endfacet
 facet normal -0.965578 -0.260112 0
  outer loop
   vertex 1.37028 -0.133775 -1
   vertex 1.37006 -0.132958 1
   vertex 1.37006 -0.132958 -1
  endloop
 endfacet
 facet normal -0.996555 -0.0829286 0
  outer loop
   vertex 1.37006 -0.132958 -1
   vertex 1.37006 -0.132958 1
   vertex 1.36999 -0.132117 1
  endloop
 endfacet
 facet normal -0.996555 -0.0829286 0
  outer loop
   vertex 1.37006 -0.132958 -1
   vertex 1.36999 -0.132117 1
   vertex 1.36999 -0.132117 -1
  endloop
 endfacet
endsolid tunner_vane
