solid tunner_vane
 facet normal 0.095809 0.9954 -0
  outer loop
   vertex 1.68049 0.176452 -1
   vertex 1.68049 0.176452 1
   vertex 1.6997 0.174603 1
  endloop
 endfacet
 facet normal 0.095809 0.9954 0
  outer loop
   vertex 1.68049 0.176452 -1
   vertex 1.6997 0.174603 1
   vertex 1.6997 0.174603 -1
  endloop
 endfacet
 facet normal 0.186791 0.9824 -0
  outer loop
   vertex 1.6997 0.174603 -1
   vertex 1.6997 0.174603 1
   vertex 1.71866 0.170998 1
  endloop
 endfacet
 facet normal 0.186791 0.9824 0
  outer loop
   vertex 1.6997 0.174603 -1
   vertex 1.71866 0.170998 1
   vertex 1.71866 0.170998 -1
  endloop
 endfacet
 facet normal 0.276172 0.961108 -0
  outer loop
   vertex 1.71866 0.170998 -1
   vertex 1.71866 0.170998 1
   vertex 1.73721 0.165668 1
  endloop
 endfacet
 facet normal 0.276172 0.961108 0
  outer loop
   vertex 1.71866 0.170998 -1
   vertex 1.73721 0.165668 1
   vertex 1.73721 0.165668 -1
  endloop
 endfacet
 facet normal 0.363274 0.931682 -0
  outer loop
   vertex 1.73721 0.165668 -1
   vertex 1.73721 0.165668 1
   vertex 1.75519 0.158657 1
  endloop
 endfacet
 facet normal 0.363274 0.931682 0
  outer loop
   vertex 1.73721 0.165668 -1
   vertex 1.75519 0.158657 1
   vertex 1.75519 0.158657 -1
  endloop
 endfacet
 facet normal 0.447273 0.894398 -0
  outer loop
   vertex 1.75519 0.158657 -1
   vertex 1.75519 0.158657 1
   vertex 1.77245 0.150026 1
  endloop
 endfacet
 facet normal 0.447273 0.894398 0
  outer loop
   vertex 1.75519 0.158657 -1
   vertex 1.77245 0.150026 1
   vertex 1.77245 0.150026 -1
  endloop
 endfacet
 facet normal 0.527378 0.849631 -0
  outer loop
   vertex 1.77245 0.150026 -1
   vertex 1.77245 0.150026 1
   vertex 1.78885 0.139846 1
  endloop
 endfacet
 facet normal 0.527378 0.849631 0
  outer loop
   vertex 1.77245 0.150026 -1
   vertex 1.78885 0.139846 1
   vertex 1.78885 0.139846 -1
  endloop
 endfacet
 facet normal 0.603281 0.797529 -0
  outer loop
   vertex 1.78885 0.139846 -1
   vertex 1.78885 0.139846 1
   vertex 1.80424 0.128204 1
  endloop
 endfacet
 facet normal 0.603281 0.797529 0
  outer loop
   vertex 1.78885 0.139846 -1
   vertex 1.80424 0.128204 1
   vertex 1.80424 0.128204 -1
  endloop
 endfacet
 facet normal 0.673864 0.738856 -0
  outer loop
   vertex 1.80424 0.128204 -1
   vertex 1.80424 0.128204 1
   vertex 1.8185 0.115199 1
  endloop
 endfacet
 facet normal 0.673864 0.738856 0
  outer loop
   vertex 1.80424 0.128204 -1
   vertex 1.8185 0.115199 1
   vertex 1.8185 0.115199 -1
  endloop
 endfacet
 facet normal 0.738994 0.673712 -0
  outer loop
   vertex 1.8185 0.115199 -1
   vertex 1.8185 0.115199 1
   vertex 1.8315 0.100939 1
  endloop
 endfacet
 facet normal 0.738994 0.673712 0
  outer loop
   vertex 1.8185 0.115199 -1
   vertex 1.8315 0.100939 1
   vertex 1.8315 0.100939 -1
  endloop
 endfacet
 facet normal 0.797382 0.603475 -0
  outer loop
   vertex 1.8315 0.100939 -1
   vertex 1.8315 0.100939 1
   vertex 1.84315 0.0855457 1
  endloop
 endfacet
 facet normal 0.797382 0.603475 0
  outer loop
   vertex 1.8315 0.100939 -1
   vertex 1.84315 0.0855457 1
   vertex 1.84315 0.0855457 -1
  endloop
 endfacet
 facet normal 0.84958 0.52746 -0
  outer loop
   vertex 1.84315 0.0855457 -1
   vertex 1.84315 0.0855457 1
   vertex 1.85333 0.0691488 1
  endloop
 endfacet
 facet normal 0.84958 0.52746 0
  outer loop
   vertex 1.84315 0.0855457 -1
   vertex 1.85333 0.0691488 1
   vertex 1.85333 0.0691488 -1
  endloop
 endfacet
 facet normal 0.894448 0.447172 -0
  outer loop
   vertex 1.85333 0.0691488 -1
   vertex 1.85333 0.0691488 1
   vertex 1.86196 0.0518867 1
  endloop
 endfacet
 facet normal 0.894448 0.447172 0
  outer loop
   vertex 1.85333 0.0691488 -1
   vertex 1.86196 0.0518867 1
   vertex 1.86196 0.0518867 -1
  endloop
 endfacet
 facet normal 0.931704 0.363218 -0
  outer loop
   vertex 1.86196 0.0518867 -1
   vertex 1.86196 0.0518867 1
   vertex 1.86897 0.0339051 1
  endloop
 endfacet
 facet normal 0.931704 0.363218 0
  outer loop
   vertex 1.86196 0.0518867 -1
   vertex 1.86897 0.0339051 1
   vertex 1.86897 0.0339051 -1
  endloop
 endfacet
 facet normal 0.961108 0.276173 -0
  outer loop
   vertex 1.86897 0.0339051 -1
   vertex 1.86897 0.0339051 1
   vertex 1.8743 0.0153563 1
  endloop
 endfacet
 facet normal 0.961108 0.276173 0
  outer loop
   vertex 1.86897 0.0339051 -1
   vertex 1.8743 0.0153563 1
   vertex 1.8743 0.0153563 -1
  endloop
 endfacet
 facet normal 0.982449 0.186533 -0
  outer loop
   vertex 1.8743 0.0153563 -1
   vertex 1.8743 0.0153563 1
   vertex 1.8779 -0.0036045 1
  endloop
 endfacet
 facet normal 0.982449 0.186533 0
  outer loop
   vertex 1.8743 0.0153563 -1
   vertex 1.8779 -0.0036045 1
   vertex 1.8779 -0.0036045 -1
  endloop
 endfacet
 facet normal 0.995395 0.0958595 -0
  outer loop
   vertex 1.8779 -0.0036045 -1
   vertex 1.8779 -0.0036045 1
   vertex 1.87975 -0.0228148 1
  endloop
 endfacet
 facet normal 0.995395 0.0958595 0
  outer loop
   vertex 1.8779 -0.0036045 -1
   vertex 1.87975 -0.0228148 1
   vertex 1.87975 -0.0228148 -1
  endloop
 endfacet
 facet normal -0.995108 -0.09879 0
  outer loop
   vertex 1.85978 -0.023815 -1
   vertex 1.85978 -0.023815 1
   vertex 1.85794 -0.0052808 -1
  endloop
 endfacet
 facet normal -0.995108 -0.09879 0
  outer loop
   vertex 1.85794 -0.0052808 -1
   vertex 1.85978 -0.023815 1
   vertex 1.85794 -0.0052808 1
  endloop
 endfacet
 facet normal -0.980611 -0.195965 0
  outer loop
   vertex 1.85794 -0.0052808 -1
   vertex 1.85794 -0.0052808 1
   vertex 1.85429 0.0129836 -1
  endloop
 endfacet
 facet normal -0.980611 -0.195965 0
  outer loop
   vertex 1.85429 0.0129836 -1
   vertex 1.85794 -0.0052808 1
   vertex 1.85429 0.0129836 1
  endloop
 endfacet
 facet normal -0.956726 -0.290989 0
  outer loop
   vertex 1.85429 0.0129836 -1
   vertex 1.85429 0.0129836 1
   vertex 1.84887 0.0308036 -1
  endloop
 endfacet
 facet normal -0.956726 -0.290989 0
  outer loop
   vertex 1.84887 0.0308036 -1
   vertex 1.85429 0.0129836 1
   vertex 1.84887 0.0308036 1
  endloop
 endfacet
 facet normal -0.923805 -0.382864 0
  outer loop
   vertex 1.84887 0.0308036 -1
   vertex 1.84887 0.0308036 1
   vertex 1.84174 0.0480075 -1
  endloop
 endfacet
 facet normal -0.923805 -0.382864 0
  outer loop
   vertex 1.84174 0.0480075 -1
   vertex 1.84887 0.0308036 1
   vertex 1.84174 0.0480075 1
  endloop
 endfacet
 facet normal -0.881656 -0.471892 0
  outer loop
   vertex 1.84174 0.0480075 -1
   vertex 1.84174 0.0480075 1
   vertex 1.83295 0.0644303 -1
  endloop
 endfacet
 facet normal -0.881656 -0.471892 0
  outer loop
   vertex 1.83295 0.0644303 -1
   vertex 1.84174 0.0480075 1
   vertex 1.83295 0.0644303 1
  endloop
 endfacet
 facet normal -0.83137 -0.555719 0
  outer loop
   vertex 1.83295 0.0644303 -1
   vertex 1.83295 0.0644303 1
   vertex 1.8226 0.0799141 -1
  endloop
 endfacet
 facet normal -0.83137 -0.555719 0
  outer loop
   vertex 1.8226 0.0799141 -1
   vertex 1.83295 0.0644303 1
   vertex 1.8226 0.0799141 1
  endloop
 endfacet
 facet normal -0.772867 -0.634569 0
  outer loop
   vertex 1.8226 0.0799141 -1
   vertex 1.8226 0.0799141 1
   vertex 1.81078 0.0943101 -1
  endloop
 endfacet
 facet normal -0.772867 -0.634569 0
  outer loop
   vertex 1.81078 0.0943101 -1
   vertex 1.8226 0.0799141 1
   vertex 1.81078 0.0943101 1
  endloop
 endfacet
 facet normal -0.707107 -0.707107 0
  outer loop
   vertex 1.81078 0.0943101 -1
   vertex 1.81078 0.0943101 1
   vertex 1.79761 0.10748 -1
  endloop
 endfacet
 facet normal -0.707107 -0.707107 0
  outer loop
   vertex 1.79761 0.10748 -1
   vertex 1.81078 0.0943101 1
   vertex 1.79761 0.10748 1
  endloop
 endfacet
 facet normal -0.634384 -0.773018 0
  outer loop
   vertex 1.79761 0.10748 -1
   vertex 1.79761 0.10748 1
   vertex 1.78321 0.119298 -1
  endloop
 endfacet
 facet normal -0.634384 -0.773018 0
  outer loop
   vertex 1.78321 0.119298 -1
   vertex 1.79761 0.10748 1
   vertex 1.78321 0.119298 1
  endloop
 endfacet
 facet normal -0.55587 -0.83127 0
  outer loop
   vertex 1.78321 0.119298 -1
   vertex 1.78321 0.119298 1
   vertex 1.76773 0.129649 -1
  endloop
 endfacet
 facet normal -0.55587 -0.83127 0
  outer loop
   vertex 1.76773 0.129649 -1
   vertex 1.78321 0.119298 1
   vertex 1.76773 0.129649 1
  endloop
 endfacet
 facet normal -0.471782 -0.881715 0
  outer loop
   vertex 1.76773 0.129649 -1
   vertex 1.76773 0.129649 1
   vertex 1.75131 0.138435 -1
  endloop
 endfacet
 facet normal -0.471782 -0.881715 0
  outer loop
   vertex 1.75131 0.138435 -1
   vertex 1.76773 0.129649 1
   vertex 1.75131 0.138435 1
  endloop
 endfacet
 facet normal -0.383026 -0.923738 0
  outer loop
   vertex 1.75131 0.138435 -1
   vertex 1.75131 0.138435 1
   vertex 1.7341 0.145571 -1
  endloop
 endfacet
 facet normal -0.383026 -0.923738 0
  outer loop
   vertex 1.7341 0.145571 -1
   vertex 1.75131 0.138435 1
   vertex 1.7341 0.145571 1
  endloop
 endfacet
 facet normal -0.290878 -0.95676 0
  outer loop
   vertex 1.7341 0.145571 -1
   vertex 1.7341 0.145571 1
   vertex 1.71628 0.150989 -1
  endloop
 endfacet
 facet normal -0.290878 -0.95676 0
  outer loop
   vertex 1.71628 0.150989 -1
   vertex 1.7341 0.145571 1
   vertex 1.71628 0.150989 1
  endloop
 endfacet
 facet normal -0.195853 -0.980633 0
  outer loop
   vertex 1.71628 0.150989 -1
   vertex 1.71628 0.150989 1
   vertex 1.69802 0.154636 -1
  endloop
 endfacet
 facet normal -0.195853 -0.980633 0
  outer loop
   vertex 1.69802 0.154636 -1
   vertex 1.71628 0.150989 1
   vertex 1.69802 0.154636 1
  endloop
 endfacet
 facet normal -0.09885 -0.995102 0
  outer loop
   vertex 1.69802 0.154636 -1
   vertex 1.69802 0.154636 1
   vertex 1.67948 0.156477 -1
  endloop
 endfacet
 facet normal -0.09885 -0.995102 0
  outer loop
   vertex 1.67948 0.156477 -1
   vertex 1.69802 0.154636 1
   vertex 1.67948 0.156477 1
  endloop
 endfacet
 facet normal 0 0 -1
  outer loop
   vertex 1.79761 0.10748 -1
   vertex 1.8185 0.115199 -1
   vertex 1.81078 0.0943101 -1
  endloop
 endfacet
 facet normal 0 0 -1
  outer loop
   vertex 1.81078 0.0943101 -1
   vertex 1.8185 0.115199 -1
   vertex 1.8315 0.100939 -1
  endloop
 endfacet
 facet normal 0 0 -1
  outer loop
   vertex 1.81078 0.0943101 -1
   vertex 1.8315 0.100939 -1
   vertex 1.8226 0.0799141 -1
  endloop
 endfacet
 facet normal 0 0 -1
  outer loop
   vertex 1.8226 0.0799141 -1
   vertex 1.8315 0.100939 -1
   vertex 1.84315 0.0855457 -1
  endloop
 endfacet
 facet normal 0 0 -1
  outer loop
   vertex 1.8226 0.0799141 -1
   vertex 1.84315 0.0855457 -1
   vertex 1.83295 0.0644303 -1
  endloop
 endfacet
 facet normal 0 0 -1
  outer loop
   vertex 1.83295 0.0644303 -1
   vertex 1.84315 0.0855457 -1
   vertex 1.85333 0.0691488 -1
  endloop
 endfacet
 facet normal 0 0 -1
  outer loop
   vertex 1.83295 0.0644303 -1
   vertex 1.85333 0.0691488 -1
   vertex 1.84174 0.0480075 -1
  endloop
 endfacet
 facet normal 0 0 -1
  outer loop
   vertex 1.84174 0.0480075 -1
   vertex 1.85333 0.0691488 -1
   vertex 1.86196 0.0518867 -1
  endloop
 endfacet
 facet normal 0 0 -1
  outer loop
   vertex 1.84174 0.0480075 -1
   vertex 1.86196 0.0518867 -1
   vertex 1.84887 0.0308036 -1
  endloop
 endfacet
 facet normal 0 0 -1
  outer loop
   vertex 1.84887 0.0308036 -1
   vertex 1.86196 0.0518867 -1
   vertex 1.86897 0.0339051 -1
  endloop
 endfacet
 facet normal 0 0 -1
  outer loop
   vertex 1.84887 0.0308036 -1
   vertex 1.86897 0.0339051 -1
   vertex 1.85429 0.0129836 -1
  endloop
 endfacet
 facet normal 0 0 -1
  outer loop
   vertex 1.85429 0.0129836 -1
   vertex 1.86897 0.0339051 -1
   vertex 1.8743 0.0153563 -1
  endloop
 endfacet
 facet normal 0 0 -1
  outer loop
   vertex 1.85429 0.0129836 -1
   vertex 1.8743 0.0153563 -1
   vertex 1.85794 -0.0052808 -1
  endloop
 endfacet
 facet normal 0 0 -1
  outer loop
   vertex 1.85794 -0.0052808 -1
   vertex 1.8743 0.0153563 -1
   vertex 1.8779 -0.0036045 -1
  endloop
 endfacet
 facet normal 0 0 -1
  outer loop
   vertex 1.85794 -0.0052808 -1
   vertex 1.8779 -0.0036045 -1
   vertex 1.85978 -0.023815 -1
  endloop
 endfacet
 facet normal 0 0 -1
  outer loop
   vertex 1.85978 -0.023815 -1
   vertex 1.8779 -0.0036045 -1
   vertex 1.87975 -0.0228148 -1
  endloop
 endfacet
 facet normal 0 0 -1
  outer loop
   vertex 1.85978 -0.023815 -1
   vertex 1.87975 -0.0228148 -1
   vertex 1.8797 -0.0244333 -1
  endloop
 endfacet
 facet normal 0 0 -1
  outer loop
   vertex 1.67576 0.175528 -1
   vertex 1.67728 0.176091 -1
   vertex 1.67948 0.156477 -1
  endloop
 endfacet
 facet normal -0 0 -1
  outer loop
   vertex 1.8797 -0.0244333 -1
   vertex 1.87939 -0.0260223 -1
   vertex 1.85978 -0.023815 -1
  endloop
 endfacet
 facet normal 0 0 -1
  outer loop
   vertex 1.85978 -0.023815 -1
   vertex 1.87939 -0.0260223 -1
   vertex 1.87883 -0.0275401 -1
  endloop
 endfacet
 facet normal 0 0 -1
  outer loop
   vertex 1.85978 -0.023815 -1
   vertex 1.87883 -0.0275401 -1
   vertex 1.87803 -0.0289474 -1
  endloop
 endfacet
 facet normal 0 0 -1
  outer loop
   vertex 1.67728 0.176091 -1
   vertex 1.67887 0.176402 -1
   vertex 1.67948 0.156477 -1
  endloop
 endfacet
 facet normal 0 0 -1
  outer loop
   vertex 1.67948 0.156477 -1
   vertex 1.67887 0.176402 -1
   vertex 1.68049 0.176452 -1
  endloop
 endfacet
 facet normal 0 0 -1
  outer loop
   vertex 1.67948 0.156477 -1
   vertex 1.68049 0.176452 -1
   vertex 1.69802 0.154636 -1
  endloop
 endfacet
 facet normal 0 0 -1
  outer loop
   vertex 1.69802 0.154636 -1
   vertex 1.68049 0.176452 -1
   vertex 1.6997 0.174603 -1
  endloop
 endfacet
 facet normal 0 0 -1
  outer loop
   vertex 1.69802 0.154636 -1
   vertex 1.6997 0.174603 -1
   vertex 1.71628 0.150989 -1
  endloop
 endfacet
 facet normal 0 0 -1
  outer loop
   vertex 1.71628 0.150989 -1
   vertex 1.6997 0.174603 -1
   vertex 1.71866 0.170998 -1
  endloop
 endfacet
 facet normal 0 0 -1
  outer loop
   vertex 1.71628 0.150989 -1
   vertex 1.71866 0.170998 -1
   vertex 1.7341 0.145571 -1
  endloop
 endfacet
 facet normal 0 0 -1
  outer loop
   vertex 1.7341 0.145571 -1
   vertex 1.71866 0.170998 -1
   vertex 1.73721 0.165668 -1
  endloop
 endfacet
 facet normal 0 0 -1
  outer loop
   vertex 1.7341 0.145571 -1
   vertex 1.73721 0.165668 -1
   vertex 1.75131 0.138435 -1
  endloop
 endfacet
 facet normal 0 0 -1
  outer loop
   vertex 1.75131 0.138435 -1
   vertex 1.73721 0.165668 -1
   vertex 1.75519 0.158657 -1
  endloop
 endfacet
 facet normal 0 0 -1
  outer loop
   vertex 1.75131 0.138435 -1
   vertex 1.75519 0.158657 -1
   vertex 1.76773 0.129649 -1
  endloop
 endfacet
 facet normal 0 0 -1
  outer loop
   vertex 1.76773 0.129649 -1
   vertex 1.75519 0.158657 -1
   vertex 1.77245 0.150026 -1
  endloop
 endfacet
 facet normal 0 0 -1
  outer loop
   vertex 1.76773 0.129649 -1
   vertex 1.77245 0.150026 -1
   vertex 1.78321 0.119298 -1
  endloop
 endfacet
 facet normal 0 0 -1
  outer loop
   vertex 1.78321 0.119298 -1
   vertex 1.77245 0.150026 -1
   vertex 1.78885 0.139846 -1
  endloop
 endfacet
 facet normal 0 0 -1
  outer loop
   vertex 1.78321 0.119298 -1
   vertex 1.78885 0.139846 -1
   vertex 1.79761 0.10748 -1
  endloop
 endfacet
 facet normal 0 0 -1
  outer loop
   vertex 1.79761 0.10748 -1
   vertex 1.78885 0.139846 -1
   vertex 1.80424 0.128204 -1
  endloop
 endfacet
 facet normal 0 0 -1
  outer loop
   vertex 1.79761 0.10748 -1
   vertex 1.80424 0.128204 -1
   vertex 1.8185 0.115199 -1
  endloop
 endfacet
 facet normal 0 0 -1
  outer loop
   vertex 1.85978 -0.023815 -1
   vertex 1.87444 -0.0321563 -1
   vertex 1.87295 -0.0327944 -1
  endloop
 endfacet
 facet normal -0 0 -1
  outer loop
   vertex 1.87295 -0.0327944 -1
   vertex 1.87138 -0.0331839 -1
   vertex 1.85978 -0.023815 -1
  endloop
 endfacet
 facet normal 0 0 -1
  outer loop
   vertex 1.85978 -0.023815 -1
   vertex 1.87138 -0.0331839 -1
   vertex 1.86977 -0.033315 -1
  endloop
 endfacet
 facet normal 0 0 -1
  outer loop
   vertex 1.85978 -0.023815 -1
   vertex 1.86977 -0.033315 -1
   vertex 1.86808 -0.0331727 -1
  endloop
 endfacet
 facet normal -0 0 -1
  outer loop
   vertex 1.87803 -0.0289474 -1
   vertex 1.87701 -0.0302074 -1
   vertex 1.85978 -0.023815 -1
  endloop
 endfacet
 facet normal 0 0 -1
  outer loop
   vertex 1.85978 -0.023815 -1
   vertex 1.87701 -0.0302074 -1
   vertex 1.8758 -0.0312861 -1
  endloop
 endfacet
 facet normal 0 0 -1
  outer loop
   vertex 1.85978 -0.023815 -1
   vertex 1.8758 -0.0312861 -1
   vertex 1.87444 -0.0321563 -1
  endloop
 endfacet
 facet normal 0 0 -1
  outer loop
   vertex 1.86351 -0.0311168 -1
   vertex 1.86229 -0.0299531 -1
   vertex 1.86491 -0.0320578 -1
  endloop
 endfacet
 facet normal 0 0 -1
  outer loop
   vertex 1.86491 -0.0320578 -1
   vertex 1.86229 -0.0299531 -1
   vertex 1.86128 -0.028601 -1
  endloop
 endfacet
 facet normal 0 0 -1
  outer loop
   vertex 1.86491 -0.0320578 -1
   vertex 1.86128 -0.028601 -1
   vertex 1.86051 -0.027098 -1
  endloop
 endfacet
 facet normal 0 0 -1
  outer loop
   vertex 1.86808 -0.0331727 -1
   vertex 1.86645 -0.0327492 -1
   vertex 1.85978 -0.023815 -1
  endloop
 endfacet
 facet normal 0 0 -1
  outer loop
   vertex 1.85978 -0.023815 -1
   vertex 1.86645 -0.0327492 -1
   vertex 1.86491 -0.0320578 -1
  endloop
 endfacet
 facet normal 0 0 -1
  outer loop
   vertex 1.85978 -0.023815 -1
   vertex 1.86491 -0.0320578 -1
   vertex 1.86 -0.0254877 -1
  endloop
 endfacet
 facet normal 0 0 -1
  outer loop
   vertex 1.86 -0.0254877 -1
   vertex 1.86491 -0.0320578 -1
   vertex 1.86051 -0.027098 -1
  endloop
 endfacet
 facet normal 0 0 -1
  outer loop
   vertex 1.67012 0.168079 -1
   vertex 1.67051 0.16965 -1
   vertex 1.67948 0.156477 -1
  endloop
 endfacet
 facet normal 0 0 -1
  outer loop
   vertex 1.67948 0.156477 -1
   vertex 1.67051 0.16965 -1
   vertex 1.67114 0.171138 -1
  endloop
 endfacet
 facet normal 0 0 -1
  outer loop
   vertex 1.67948 0.156477 -1
   vertex 1.67114 0.171138 -1
   vertex 1.67201 0.172503 -1
  endloop
 endfacet
 facet normal 0 0 -1
  outer loop
   vertex 1.67201 0.172503 -1
   vertex 1.67309 0.173711 -1
   vertex 1.67948 0.156477 -1
  endloop
 endfacet
 facet normal 0 0 -1
  outer loop
   vertex 1.67948 0.156477 -1
   vertex 1.67309 0.173711 -1
   vertex 1.67435 0.174728 -1
  endloop
 endfacet
 facet normal 0 0 -1
  outer loop
   vertex 1.67948 0.156477 -1
   vertex 1.67435 0.174728 -1
   vertex 1.67576 0.175528 -1
  endloop
 endfacet
 facet normal 0 -0 -1
  outer loop
   vertex 1.67012 0.168079 -1
   vertex 1.67948 0.156477 -1
   vertex 1.66999 0.166465 -1
  endloop
 endfacet
 facet normal 0 0 -1
  outer loop
   vertex 1.66999 0.166465 -1
   vertex 1.67948 0.156477 -1
   vertex 1.67781 0.156704 -1
  endloop
 endfacet
 facet normal 0 0 -1
  outer loop
   vertex 1.66999 0.166465 -1
   vertex 1.67781 0.156704 -1
   vertex 1.6762 0.157208 -1
  endloop
 endfacet
 facet normal 0 0 -1
  outer loop
   vertex 1.6747 0.157976 -1
   vertex 1.67335 0.158986 -1
   vertex 1.6762 0.157208 -1
  endloop
 endfacet
 facet normal 0 0 -1
  outer loop
   vertex 1.6762 0.157208 -1
   vertex 1.67335 0.158986 -1
   vertex 1.67218 0.160209 -1
  endloop
 endfacet
 facet normal 0 0 -1
  outer loop
   vertex 1.6762 0.157208 -1
   vertex 1.67218 0.160209 -1
   vertex 1.67124 0.16161 -1
  endloop
 endfacet
 facet normal 0 0 -1
  outer loop
   vertex 1.67124 0.16161 -1
   vertex 1.67055 0.163149 -1
   vertex 1.6762 0.157208 -1
  endloop
 endfacet
 facet normal 0 0 -1
  outer loop
   vertex 1.6762 0.157208 -1
   vertex 1.67055 0.163149 -1
   vertex 1.67013 0.164783 -1
  endloop
 endfacet
 facet normal 0 0 -1
  outer loop
   vertex 1.6762 0.157208 -1
   vertex 1.67013 0.164783 -1
   vertex 1.66999 0.166465 -1
  endloop
 endfacet
 facet normal 0 0 1
  outer loop
   vertex 1.67887 0.176402 1
   vertex 1.67728 0.176091 1
   vertex 1.67948 0.156477 1
  endloop
 endfacet
 facet normal 0 -0 1
  outer loop
   vertex 1.81078 0.0943101 1
   vertex 1.8185 0.115199 1
   vertex 1.79761 0.10748 1
  endloop
 endfacet
 facet normal 0 0 1
  outer loop
   vertex 1.79761 0.10748 1
   vertex 1.8185 0.115199 1
   vertex 1.80424 0.128204 1
  endloop
 endfacet
 facet normal 0 -0 1
  outer loop
   vertex 1.79761 0.10748 1
   vertex 1.80424 0.128204 1
   vertex 1.78321 0.119298 1
  endloop
 endfacet
 facet normal 0 0 1
  outer loop
   vertex 1.78321 0.119298 1
   vertex 1.80424 0.128204 1
   vertex 1.78885 0.139846 1
  endloop
 endfacet
 facet normal 0 -0 1
  outer loop
   vertex 1.78321 0.119298 1
   vertex 1.78885 0.139846 1
   vertex 1.76773 0.129649 1
  endloop
 endfacet
 facet normal 0 0 1
  outer loop
   vertex 1.76773 0.129649 1
   vertex 1.78885 0.139846 1
   vertex 1.77245 0.150026 1
  endloop
 endfacet
 facet normal 0 -0 1
  outer loop
   vertex 1.76773 0.129649 1
   vertex 1.77245 0.150026 1
   vertex 1.75131 0.138435 1
  endloop
 endfacet
 facet normal 0 0 1
  outer loop
   vertex 1.75131 0.138435 1
   vertex 1.77245 0.150026 1
   vertex 1.75519 0.158657 1
  endloop
 endfacet
 facet normal 0 -0 1
  outer loop
   vertex 1.75131 0.138435 1
   vertex 1.75519 0.158657 1
   vertex 1.7341 0.145571 1
  endloop
 endfacet
 facet normal 0 0 1
  outer loop
   vertex 1.7341 0.145571 1
   vertex 1.75519 0.158657 1
   vertex 1.73721 0.165668 1
  endloop
 endfacet
 facet normal 0 -0 1
  outer loop
   vertex 1.7341 0.145571 1
   vertex 1.73721 0.165668 1
   vertex 1.71628 0.150989 1
  endloop
 endfacet
 facet normal 0 0 1
  outer loop
   vertex 1.71628 0.150989 1
   vertex 1.73721 0.165668 1
   vertex 1.71866 0.170998 1
  endloop
 endfacet
 facet normal 0 -0 1
  outer loop
   vertex 1.71628 0.150989 1
   vertex 1.71866 0.170998 1
   vertex 1.69802 0.154636 1
  endloop
 endfacet
 facet normal 0 0 1
  outer loop
   vertex 1.69802 0.154636 1
   vertex 1.71866 0.170998 1
   vertex 1.6997 0.174603 1
  endloop
 endfacet
 facet normal 0 -0 1
  outer loop
   vertex 1.69802 0.154636 1
   vertex 1.6997 0.174603 1
   vertex 1.67948 0.156477 1
  endloop
 endfacet
 facet normal 0 0 1
  outer loop
   vertex 1.67948 0.156477 1
   vertex 1.6997 0.174603 1
   vertex 1.68049 0.176452 1
  endloop
 endfacet
 facet normal 0 -0 1
  outer loop
   vertex 1.67948 0.156477 1
   vertex 1.68049 0.176452 1
   vertex 1.67887 0.176402 1
  endloop
 endfacet
 facet normal 0 -0 1
  outer loop
   vertex 1.87883 -0.0275401 1
   vertex 1.87939 -0.0260223 1
   vertex 1.85978 -0.023815 1
  endloop
 endfacet
 facet normal 0 -0 1
  outer loop
   vertex 1.86977 -0.033315 1
   vertex 1.87138 -0.0331839 1
   vertex 1.85978 -0.023815 1
  endloop
 endfacet
 facet normal 0 -0 1
  outer loop
   vertex 1.87939 -0.0260223 1
   vertex 1.8797 -0.0244333 1
   vertex 1.85978 -0.023815 1
  endloop
 endfacet
 facet normal -0 0 1
  outer loop
   vertex 1.85978 -0.023815 1
   vertex 1.8797 -0.0244333 1
   vertex 1.87975 -0.0228148 1
  endloop
 endfacet
 facet normal 0 -0 1
  outer loop
   vertex 1.85978 -0.023815 1
   vertex 1.87975 -0.0228148 1
   vertex 1.85794 -0.0052808 1
  endloop
 endfacet
 facet normal -0 0 1
  outer loop
   vertex 1.85794 -0.0052808 1
   vertex 1.87975 -0.0228148 1
   vertex 1.8779 -0.0036045 1
  endloop
 endfacet
 facet normal 0 -0 1
  outer loop
   vertex 1.85794 -0.0052808 1
   vertex 1.8779 -0.0036045 1
   vertex 1.85429 0.0129836 1
  endloop
 endfacet
 facet normal -0 0 1
  outer loop
   vertex 1.85429 0.0129836 1
   vertex 1.8779 -0.0036045 1
   vertex 1.8743 0.0153563 1
  endloop
 endfacet
 facet normal 0 -0 1
  outer loop
   vertex 1.85429 0.0129836 1
   vertex 1.8743 0.0153563 1
   vertex 1.84887 0.0308036 1
  endloop
 endfacet
 facet normal -0 0 1
  outer loop
   vertex 1.84887 0.0308036 1
   vertex 1.8743 0.0153563 1
   vertex 1.86897 0.0339051 1
  endloop
 endfacet
 facet normal 0 -0 1
  outer loop
   vertex 1.84887 0.0308036 1
   vertex 1.86897 0.0339051 1
   vertex 1.84174 0.0480075 1
  endloop
 endfacet
 facet normal -0 0 1
  outer loop
   vertex 1.84174 0.0480075 1
   vertex 1.86897 0.0339051 1
   vertex 1.86196 0.0518867 1
  endloop
 endfacet
 facet normal 0 -0 1
  outer loop
   vertex 1.84174 0.0480075 1
   vertex 1.86196 0.0518867 1
   vertex 1.83295 0.0644303 1
  endloop
 endfacet
 facet normal -0 0 1
  outer loop
   vertex 1.83295 0.0644303 1
   vertex 1.86196 0.0518867 1
   vertex 1.85333 0.0691488 1
  endloop
 endfacet
 facet normal 0 -0 1
  outer loop
   vertex 1.83295 0.0644303 1
   vertex 1.85333 0.0691488 1
   vertex 1.8226 0.0799141 1
  endloop
 endfacet
 facet normal -0 0 1
  outer loop
   vertex 1.8226 0.0799141 1
   vertex 1.85333 0.0691488 1
   vertex 1.84315 0.0855457 1
  endloop
 endfacet
 facet normal 0 -0 1
  outer loop
   vertex 1.8226 0.0799141 1
   vertex 1.84315 0.0855457 1
   vertex 1.81078 0.0943101 1
  endloop
 endfacet
 facet normal -0 0 1
  outer loop
   vertex 1.81078 0.0943101 1
   vertex 1.84315 0.0855457 1
   vertex 1.8315 0.100939 1
  endloop
 endfacet
 facet normal 0 0 1
  outer loop
   vertex 1.81078 0.0943101 1
   vertex 1.8315 0.100939 1
   vertex 1.8185 0.115199 1
  endloop
 endfacet
 facet normal 0 0 1
  outer loop
   vertex 1.86977 -0.033315 1
   vertex 1.85978 -0.023815 1
   vertex 1.86808 -0.0331727 1
  endloop
 endfacet
 facet normal 0 0 1
  outer loop
   vertex 1.67728 0.176091 1
   vertex 1.67576 0.175528 1
   vertex 1.67948 0.156477 1
  endloop
 endfacet
 facet normal 0 0 1
  outer loop
   vertex 1.67948 0.156477 1
   vertex 1.67576 0.175528 1
   vertex 1.67435 0.174728 1
  endloop
 endfacet
 facet normal 0 0 1
  outer loop
   vertex 1.67948 0.156477 1
   vertex 1.67435 0.174728 1
   vertex 1.67309 0.173711 1
  endloop
 endfacet
 facet normal 0 0 1
  outer loop
   vertex 1.67309 0.173711 1
   vertex 1.67201 0.172503 1
   vertex 1.67948 0.156477 1
  endloop
 endfacet
 facet normal 0 0 1
  outer loop
   vertex 1.67948 0.156477 1
   vertex 1.67201 0.172503 1
   vertex 1.67114 0.171138 1
  endloop
 endfacet
 facet normal 0 0 1
  outer loop
   vertex 1.67948 0.156477 1
   vertex 1.67114 0.171138 1
   vertex 1.67051 0.16965 1
  endloop
 endfacet
 facet normal 0 0 1
  outer loop
   vertex 1.67051 0.16965 1
   vertex 1.67012 0.168079 1
   vertex 1.67948 0.156477 1
  endloop
 endfacet
 facet normal 0 0 1
  outer loop
   vertex 1.67948 0.156477 1
   vertex 1.67012 0.168079 1
   vertex 1.66999 0.166465 1
  endloop
 endfacet
 facet normal 0 0 1
  outer loop
   vertex 1.67948 0.156477 1
   vertex 1.66999 0.166465 1
   vertex 1.67781 0.156704 1
  endloop
 endfacet
 facet normal 0 0 1
  outer loop
   vertex 1.86 -0.0254877 1
   vertex 1.86051 -0.027098 1
   vertex 1.86491 -0.0320578 1
  endloop
 endfacet
 facet normal 0 -0 1
  outer loop
   vertex 1.87138 -0.0331839 1
   vertex 1.87295 -0.0327944 1
   vertex 1.85978 -0.023815 1
  endloop
 endfacet
 facet normal 0 0 1
  outer loop
   vertex 1.85978 -0.023815 1
   vertex 1.87295 -0.0327944 1
   vertex 1.87444 -0.0321563 1
  endloop
 endfacet
 facet normal 0 0 1
  outer loop
   vertex 1.85978 -0.023815 1
   vertex 1.87444 -0.0321563 1
   vertex 1.8758 -0.0312861 1
  endloop
 endfacet
 facet normal 0 0 1
  outer loop
   vertex 1.67055 0.163149 1
   vertex 1.67124 0.16161 1
   vertex 1.6762 0.157208 1
  endloop
 endfacet
 facet normal -0 -0 1
  outer loop
   vertex 1.86 -0.0254877 1
   vertex 1.86491 -0.0320578 1
   vertex 1.85978 -0.023815 1
  endloop
 endfacet
 facet normal 0 0 1
  outer loop
   vertex 1.85978 -0.023815 1
   vertex 1.86491 -0.0320578 1
   vertex 1.86645 -0.0327492 1
  endloop
 endfacet
 facet normal 0 0 1
  outer loop
   vertex 1.85978 -0.023815 1
   vertex 1.86645 -0.0327492 1
   vertex 1.86808 -0.0331727 1
  endloop
 endfacet
 facet normal 0 -0 1
  outer loop
   vertex 1.8758 -0.0312861 1
   vertex 1.87701 -0.0302074 1
   vertex 1.85978 -0.023815 1
  endloop
 endfacet
 facet normal 0 0 1
  outer loop
   vertex 1.85978 -0.023815 1
   vertex 1.87701 -0.0302074 1
   vertex 1.87803 -0.0289474 1
  endloop
 endfacet
 facet normal 0 0 1
  outer loop
   vertex 1.85978 -0.023815 1
   vertex 1.87803 -0.0289474 1
   vertex 1.87883 -0.0275401 1
  endloop
 endfacet
 facet normal 0 0 1
  outer loop
   vertex 1.86051 -0.027098 1
   vertex 1.86128 -0.028601 1
   vertex 1.86491 -0.0320578 1
  endloop
 endfacet
 facet normal 0 0 1
  outer loop
   vertex 1.86491 -0.0320578 1
   vertex 1.86128 -0.028601 1
   vertex 1.86229 -0.0299531 1
  endloop
 endfacet
 facet normal 0 0 1
  outer loop
   vertex 1.86491 -0.0320578 1
   vertex 1.86229 -0.0299531 1
   vertex 1.86351 -0.0311168 1
  endloop
 endfacet
 facet normal 0 0 1
  outer loop
   vertex 1.67781 0.156704 1
   vertex 1.66999 0.166465 1
   vertex 1.6762 0.157208 1
  endloop
 endfacet
 facet normal 0 0 1
  outer loop
   vertex 1.6762 0.157208 1
   vertex 1.66999 0.166465 1
   vertex 1.67013 0.164783 1
  endloop
 endfacet
 facet normal 0 0 1
  outer loop
   vertex 1.6762 0.157208 1
   vertex 1.67013 0.164783 1
   vertex 1.67055 0.163149 1
  endloop
 endfacet
 facet normal 0 0 1
  outer loop
   vertex 1.67124 0.16161 1
   vertex 1.67218 0.160209 1
   vertex 1.6762 0.157208 1
  endloop
 endfacet
 facet normal 0 0 1
  outer loop
   vertex 1.6762 0.157208 1
   vertex 1.67218 0.160209 1
   vertex 1.67335 0.158986 1
  endloop
 endfacet
 facet normal 0 0 1
  outer loop
   vertex 1.6762 0.157208 1
   vertex 1.67335 0.158986 1
   vertex 1.6747 0.157976 1
  endloop
 endfacet
 facet normal 0.999522 -0.03092 0
  outer loop
   vertex 1.87975 -0.0228148 -1
   vertex 1.87975 -0.0228148 1
   vertex 1.8797 -0.0244333 1
  endloop
 endfacet
 facet normal 0.999522 -0.03092 0
  outer loop
   vertex 1.87975 -0.0228148 -1
   vertex 1.8797 -0.0244333 1
   vertex 1.8797 -0.0244333 -1
  endloop
 endfacet
 facet normal 0.981503 -0.191448 0
  outer loop
   vertex 1.8797 -0.0244333 -1
   vertex 1.8797 -0.0244333 1
   vertex 1.87939 -0.0260223 1
  endloop
 endfacet
 facet normal 0.981503 -0.191448 0
  outer loop
   vertex 1.8797 -0.0244333 -1
   vertex 1.87939 -0.0260223 1
   vertex 1.87939 -0.0260223 -1
  endloop
 endfacet
 facet normal 0.938172 -0.346171 0
  outer loop
   vertex 1.87939 -0.0260223 -1
   vertex 1.87939 -0.0260223 1
   vertex 1.87883 -0.0275401 1
  endloop
 endfacet
 facet normal 0.938172 -0.346171 0
  outer loop
   vertex 1.87939 -0.0260223 -1
   vertex 1.87883 -0.0275401 1
   vertex 1.87883 -0.0275401 -1
  endloop
 endfacet
 facet normal 0.869348 -0.494201 0
  outer loop
   vertex 1.87883 -0.0275401 -1
   vertex 1.87883 -0.0275401 1
   vertex 1.87803 -0.0289474 1
  endloop
 endfacet
 facet normal 0.869348 -0.494201 0
  outer loop
   vertex 1.87883 -0.0275401 -1
   vertex 1.87803 -0.0289474 1
   vertex 1.87803 -0.0289474 -1
  endloop
 endfacet
 facet normal 0.777258 -0.629182 0
  outer loop
   vertex 1.87803 -0.0289474 -1
   vertex 1.87803 -0.0289474 1
   vertex 1.87701 -0.0302074 1
  endloop
 endfacet
 facet normal 0.777258 -0.629182 0
  outer loop
   vertex 1.87803 -0.0289474 -1
   vertex 1.87701 -0.0302074 1
   vertex 1.87701 -0.0302074 -1
  endloop
 endfacet
 facet normal 0.665455 -0.746438 0
  outer loop
   vertex 1.87701 -0.0302074 -1
   vertex 1.87701 -0.0302074 1
   vertex 1.8758 -0.0312861 1
  endloop
 endfacet
 facet normal 0.665455 -0.746438 0
  outer loop
   vertex 1.87701 -0.0302074 -1
   vertex 1.8758 -0.0312861 1
   vertex 1.8758 -0.0312861 -1
  endloop
 endfacet
 facet normal 0.538948 -0.842339 0
  outer loop
   vertex 1.8758 -0.0312861 -1
   vertex 1.8758 -0.0312861 1
   vertex 1.87444 -0.0321563 1
  endloop
 endfacet
 facet normal 0.538948 -0.842339 0
  outer loop
   vertex 1.8758 -0.0312861 -1
   vertex 1.87444 -0.0321563 1
   vertex 1.87444 -0.0321563 -1
  endloop
 endfacet
 facet normal 0.393673 -0.919251 0
  outer loop
   vertex 1.87444 -0.0321563 -1
   vertex 1.87444 -0.0321563 1
   vertex 1.87295 -0.0327944 1
  endloop
 endfacet
 facet normal 0.393673 -0.919251 0
  outer loop
   vertex 1.87444 -0.0321563 -1
   vertex 1.87295 -0.0327944 1
   vertex 1.87295 -0.0327944 -1
  endloop
 endfacet
 facet normal 0.240793 -0.970577 0
  outer loop
   vertex 1.87295 -0.0327944 -1
   vertex 1.87295 -0.0327944 1
   vertex 1.87138 -0.0331839 1
  endloop
 endfacet
 facet normal 0.240793 -0.970577 0
  outer loop
   vertex 1.87295 -0.0327944 -1
   vertex 1.87138 -0.0331839 1
   vertex 1.87138 -0.0331839 -1
  endloop
 endfacet
 facet normal 0.0811641 -0.996701 0
  outer loop
   vertex 1.87138 -0.0331839 -1
   vertex 1.87138 -0.0331839 1
   vertex 1.86977 -0.033315 1
  endloop
 endfacet
 facet normal 0.0811641 -0.996701 0
  outer loop
   vertex 1.87138 -0.0331839 -1
   vertex 1.86977 -0.033315 1
   vertex 1.86977 -0.033315 -1
  endloop
 endfacet
 facet normal -0.083902 -0.996474 0
  outer loop
   vertex 1.86977 -0.033315 -1
   vertex 1.86977 -0.033315 1
   vertex 1.86808 -0.0331727 1
  endloop
 endfacet
 facet normal -0.083902 -0.996474 0
  outer loop
   vertex 1.86977 -0.033315 -1
   vertex 1.86808 -0.0331727 1
   vertex 1.86808 -0.0331727 -1
  endloop
 endfacet
 facet normal -0.251456 -0.967869 0
  outer loop
   vertex 1.86808 -0.0331727 -1
   vertex 1.86808 -0.0331727 1
   vertex 1.86645 -0.0327492 1
  endloop
 endfacet
 facet normal -0.251456 -0.967869 0
  outer loop
   vertex 1.86808 -0.0331727 -1
   vertex 1.86645 -0.0327492 1
   vertex 1.86645 -0.0327492 -1
  endloop
 endfacet
 facet normal -0.409588 -0.912271 0
  outer loop
   vertex 1.86645 -0.0327492 -1
   vertex 1.86645 -0.0327492 1
   vertex 1.86491 -0.0320578 1
  endloop
 endfacet
 facet normal -0.409588 -0.912271 0
  outer loop
   vertex 1.86645 -0.0327492 -1
   vertex 1.86491 -0.0320578 1
   vertex 1.86491 -0.0320578 -1
  endloop
 endfacet
 facet normal -0.557845 -0.829945 0
  outer loop
   vertex 1.86491 -0.0320578 -1
   vertex 1.86491 -0.0320578 1
   vertex 1.86351 -0.0311168 1
  endloop
 endfacet
 facet normal -0.557845 -0.829945 0
  outer loop
   vertex 1.86491 -0.0320578 -1
   vertex 1.86351 -0.0311168 1
   vertex 1.86351 -0.0311168 -1
  endloop
 endfacet
 facet normal -0.690219 -0.723601 0
  outer loop
   vertex 1.86351 -0.0311168 -1
   vertex 1.86351 -0.0311168 1
   vertex 1.86229 -0.0299531 1
  endloop
 endfacet
 facet normal -0.690219 -0.723601 0
  outer loop
   vertex 1.86351 -0.0311168 -1
   vertex 1.86229 -0.0299531 1
   vertex 1.86229 -0.0299531 -1
  endloop
 endfacet
 facet normal -0.801139 -0.598478 0
  outer loop
   vertex 1.86229 -0.0299531 -1
   vertex 1.86229 -0.0299531 1
   vertex 1.86128 -0.028601 1
  endloop
 endfacet
 facet normal -0.801139 -0.598478 0
  outer loop
   vertex 1.86229 -0.0299531 -1
   vertex 1.86128 -0.028601 1
   vertex 1.86128 -0.028601 -1
  endloop
 endfacet
 facet normal -0.89001 -0.455942 0
  outer loop
   vertex 1.86128 -0.028601 -1
   vertex 1.86128 -0.028601 1
   vertex 1.86051 -0.027098 1
  endloop
 endfacet
 facet normal -0.89001 -0.455942 0
  outer loop
   vertex 1.86128 -0.028601 -1
   vertex 1.86051 -0.027098 1
   vertex 1.86051 -0.027098 -1
  endloop
 endfacet
 facet normal -0.953334 -0.301919 0
  outer loop
   vertex 1.86051 -0.027098 -1
   vertex 1.86051 -0.027098 1
   vertex 1.86 -0.0254877 1
  endloop
 endfacet
 facet normal -0.953334 -0.301919 0
  outer loop
   vertex 1.86051 -0.027098 -1
   vertex 1.86 -0.0254877 1
   vertex 1.86 -0.0254877 -1
  endloop
 endfacet
 facet normal -0.991457 -0.130436 0
  outer loop
   vertex 1.86 -0.0254877 -1
   vertex 1.86 -0.0254877 1
   vertex 1.85978 -0.023815 1
  endloop
 endfacet
 facet normal -0.991457 -0.130436 0
  outer loop
   vertex 1.86 -0.0254877 -1
   vertex 1.85978 -0.023815 1
   vertex 1.85978 -0.023815 -1
  endloop
 endfacet
 facet normal -0.996769 0.0803253 0
  outer loop
   vertex 1.66999 0.166465 -1
   vertex 1.66999 0.166465 1
   vertex 1.67012 0.168079 1
  endloop
 endfacet
 facet normal -0.996769 0.0803253 0
  outer loop
   vertex 1.66999 0.166465 -1
   vertex 1.67012 0.168079 1
   vertex 1.67012 0.168079 -1
  endloop
 endfacet
 facet normal -0.970533 0.240967 0
  outer loop
   vertex 1.67012 0.168079 -1
   vertex 1.67012 0.168079 1
   vertex 1.67051 0.16965 1
  endloop
 endfacet
 facet normal -0.970533 0.240967 0
  outer loop
   vertex 1.67012 0.168079 -1
   vertex 1.67051 0.16965 1
   vertex 1.67051 0.16965 -1
  endloop
 endfacet
 facet normal -0.920887 0.389831 0
  outer loop
   vertex 1.67051 0.16965 -1
   vertex 1.67051 0.16965 1
   vertex 1.67114 0.171138 1
  endloop
 endfacet
 facet normal -0.920887 0.389831 0
  outer loop
   vertex 1.67051 0.16965 -1
   vertex 1.67114 0.171138 1
   vertex 1.67114 0.171138 -1
  endloop
 endfacet
 facet normal -0.843282 0.537471 0
  outer loop
   vertex 1.67114 0.171138 -1
   vertex 1.67114 0.171138 1
   vertex 1.67201 0.172503 1
  endloop
 endfacet
 facet normal -0.843282 0.537471 0
  outer loop
   vertex 1.67114 0.171138 -1
   vertex 1.67201 0.172503 1
   vertex 1.67201 0.172503 -1
  endloop
 endfacet
 facet normal -0.745488 0.666519 0
  outer loop
   vertex 1.67201 0.172503 -1
   vertex 1.67201 0.172503 1
   vertex 1.67309 0.173711 1
  endloop
 endfacet
 facet normal -0.745488 0.666519 0
  outer loop
   vertex 1.67201 0.172503 -1
   vertex 1.67309 0.173711 1
   vertex 1.67309 0.173711 -1
  endloop
 endfacet
 facet normal -0.628067 0.778159 0
  outer loop
   vertex 1.67309 0.173711 -1
   vertex 1.67309 0.173711 1
   vertex 1.67435 0.174728 1
  endloop
 endfacet
 facet normal -0.628067 0.778159 0
  outer loop
   vertex 1.67309 0.173711 -1
   vertex 1.67435 0.174728 1
   vertex 1.67435 0.174728 -1
  endloop
 endfacet
 facet normal -0.493477 0.869759 0
  outer loop
   vertex 1.67435 0.174728 -1
   vertex 1.67435 0.174728 1
   vertex 1.67576 0.175528 1
  endloop
 endfacet
 facet normal -0.493477 0.869759 0
  outer loop
   vertex 1.67435 0.174728 -1
   vertex 1.67576 0.175528 1
   vertex 1.67576 0.175528 -1
  endloop
 endfacet
 facet normal -0.347348 0.937736 0
  outer loop
   vertex 1.67576 0.175528 -1
   vertex 1.67576 0.175528 1
   vertex 1.67728 0.176091 1
  endloop
 endfacet
 facet normal -0.347348 0.937736 0
  outer loop
   vertex 1.67576 0.175528 -1
   vertex 1.67728 0.176091 1
   vertex 1.67728 0.176091 -1
  endloop
 endfacet
 facet normal -0.19196 0.981403 0
  outer loop
   vertex 1.67728 0.176091 -1
   vertex 1.67728 0.176091 1
   vertex 1.67887 0.176402 1
  endloop
 endfacet
 facet normal -0.19196 0.981403 0
  outer loop
   vertex 1.67728 0.176091 -1
   vertex 1.67887 0.176402 1
   vertex 1.67887 0.176402 -1
  endloop
 endfacet
 facet normal -0.030849 0.999524 0
  outer loop
   vertex 1.67887 0.176402 -1
   vertex 1.67887 0.176402 1
   vertex 1.68049 0.176452 1
  endloop
 endfacet
 facet normal -0.030849 0.999524 0
  outer loop
   vertex 1.67887 0.176402 -1
   vertex 1.68049 0.176452 1
   vertex 1.68049 0.176452 -1
  endloop
 endfacet
 facet normal -0.134453 -0.99092 0
  outer loop
   vertex 1.67948 0.156477 -1
   vertex 1.67948 0.156477 1
   vertex 1.67781 0.156704 1
  endloop
 endfacet
 facet normal -0.134453 -0.99092 0
  outer loop
   vertex 1.67948 0.156477 -1
   vertex 1.67781 0.156704 1
   vertex 1.67781 0.156704 -1
  endloop
 endfacet
 facet normal -0.298762 -0.954328 0
  outer loop
   vertex 1.67781 0.156704 -1
   vertex 1.67781 0.156704 1
   vertex 1.6762 0.157208 1
  endloop
 endfacet
 facet normal -0.298762 -0.954328 0
  outer loop
   vertex 1.67781 0.156704 -1
   vertex 1.6762 0.157208 1
   vertex 1.6762 0.157208 -1
  endloop
 endfacet
 facet normal -0.45583 -0.890067 0
  outer loop
   vertex 1.6762 0.157208 -1
   vertex 1.6762 0.157208 1
   vertex 1.6747 0.157976 1
  endloop
 endfacet
 facet normal -0.45583 -0.890067 0
  outer loop
   vertex 1.6762 0.157208 -1
   vertex 1.6747 0.157976 1
   vertex 1.6747 0.157976 -1
  endloop
 endfacet
 facet normal -0.598885 -0.800835 0
  outer loop
   vertex 1.6747 0.157976 -1
   vertex 1.6747 0.157976 1
   vertex 1.67335 0.158986 1
  endloop
 endfacet
 facet normal -0.598885 -0.800835 0
  outer loop
   vertex 1.6747 0.157976 -1
   vertex 1.67335 0.158986 1
   vertex 1.67335 0.158986 -1
  endloop
 endfacet
 facet normal -0.722757 -0.691103 0
  outer loop
   vertex 1.67335 0.158986 -1
   vertex 1.67335 0.158986 1
   vertex 1.67218 0.160209 1
  endloop
 endfacet
 facet normal -0.722757 -0.691103 0
  outer loop
   vertex 1.67335 0.158986 -1
   vertex 1.67218 0.160209 1
   vertex 1.67218 0.160209 -1
  endloop
 endfacet
 facet normal -0.830382 -0.557194 0
  outer loop
   vertex 1.67218 0.160209 -1
   vertex 1.67218 0.160209 1
   vertex 1.67124 0.16161 1
  endloop
 endfacet
 facet normal -0.830382 -0.557194 0
  outer loop
   vertex 1.67218 0.160209 -1
   vertex 1.67124 0.16161 1
   vertex 1.67124 0.16161 -1
  endloop
 endfacet
 facet normal -0.91247 -0.409143 0
  outer loop
   vertex 1.67124 0.16161 -1
   vertex 1.67124 0.16161 1
   vertex 1.67055 0.163149 1
  endloop
 endfacet
 facet normal -0.91247 -0.409143 0
  outer loop
   vertex 1.67124 0.16161 -1
   vertex 1.67055 0.163149 1
   vertex 1.67055 0.163149 -1
  endloop
 endfacet
 facet normal -0.968529 -0.248902 0
  outer loop
   vertex 1.67055 0.163149 -1
   vertex 1.67055 0.163149 1
   vertex 1.67013 0.164783 1
  endloop
 endfacet
 facet normal -0.968529 -0.248902 0
  outer loop
   vertex 1.67055 0.163149 -1
   vertex 1.67013 0.164783 1
   vertex 1.67013 0.164783 -1
  endloop
 endfacet
 facet normal -0.99655 -0.0829991 0
  outer loop
   vertex 1.67013 0.164783 -1
   vertex 1.67013 0.164783 1
   vertex 1.66999 0.166465 1
  endloop
 endfacet
 facet normal -0.99655 -0.0829991 0
  outer loop
   vertex 1.67013 0.164783 -1
   vertex 1.66999 0.166465 1
   vertex 1.66999 0.166465 -1
  endloop
 endfacet
endsolid tunner_vane
