solid tunner_vane
 facet normal -0.00202342 0.999998 0
  outer loop
   vertex 0.0927242 0.0399903 -1
   vertex 0.0927242 0.0399903 1
   vertex 0.0932038 0.0399913 1
  endloop
 endfacet
 facet normal -0.00202342 0.999998 0
  outer loop
   vertex 0.0927242 0.0399903 -1
   vertex 0.0932038 0.0399913 1
   vertex 0.0932038 0.0399913 -1
  endloop
 endfacet
 facet normal 0.0291706 0.999574 -0
  outer loop
   vertex 0.0932038 0.0399913 -1
   vertex 0.0932038 0.0399913 1
   vertex 0.0936832 0.0399773 1
  endloop
 endfacet
 facet normal 0.0291706 0.999574 0
  outer loop
   vertex 0.0932038 0.0399913 -1
   vertex 0.0936832 0.0399773 1
   vertex 0.0936832 0.0399773 -1
  endloop
 endfacet
 facet normal 0.0601656 0.998188 -0
  outer loop
   vertex 0.0936832 0.0399773 -1
   vertex 0.0936832 0.0399773 1
   vertex 0.094162 0.0399484 1
  endloop
 endfacet
 facet normal 0.0601656 0.998188 0
  outer loop
   vertex 0.0936832 0.0399773 -1
   vertex 0.094162 0.0399484 1
   vertex 0.094162 0.0399484 -1
  endloop
 endfacet
 facet normal 0.0910367 0.995848 -0
  outer loop
   vertex 0.094162 0.0399484 -1
   vertex 0.094162 0.0399484 1
   vertex 0.0946397 0.0399047 1
  endloop
 endfacet
 facet normal 0.0910367 0.995848 0
  outer loop
   vertex 0.094162 0.0399484 -1
   vertex 0.0946397 0.0399047 1
   vertex 0.0946397 0.0399047 -1
  endloop
 endfacet
 facet normal 0.12186 0.992547 -0
  outer loop
   vertex 0.0946397 0.0399047 -1
   vertex 0.0946397 0.0399047 1
   vertex 0.0951157 0.0398463 1
  endloop
 endfacet
 facet normal 0.12186 0.992547 0
  outer loop
   vertex 0.0946397 0.0399047 -1
   vertex 0.0951157 0.0398463 1
   vertex 0.0951157 0.0398463 -1
  endloop
 endfacet
 facet normal 0.152683 0.988275 -0
  outer loop
   vertex 0.0951157 0.0398463 -1
   vertex 0.0951157 0.0398463 1
   vertex 0.0955897 0.0397731 1
  endloop
 endfacet
 facet normal 0.152683 0.988275 0
  outer loop
   vertex 0.0951157 0.0398463 -1
   vertex 0.0955897 0.0397731 1
   vertex 0.0955897 0.0397731 -1
  endloop
 endfacet
 facet normal 0.183268 0.983063 -0
  outer loop
   vertex 0.0955897 0.0397731 -1
   vertex 0.0955897 0.0397731 1
   vertex 0.0960612 0.0396852 1
  endloop
 endfacet
 facet normal 0.183268 0.983063 0
  outer loop
   vertex 0.0955897 0.0397731 -1
   vertex 0.0960612 0.0396852 1
   vertex 0.0960612 0.0396852 -1
  endloop
 endfacet
 facet normal 0.213727 0.976893 -0
  outer loop
   vertex 0.0960612 0.0396852 -1
   vertex 0.0960612 0.0396852 1
   vertex 0.0965297 0.0395827 1
  endloop
 endfacet
 facet normal 0.213727 0.976893 0
  outer loop
   vertex 0.0960612 0.0396852 -1
   vertex 0.0965297 0.0395827 1
   vertex 0.0965297 0.0395827 -1
  endloop
 endfacet
 facet normal 0.243851 0.969813 -0
  outer loop
   vertex 0.0965297 0.0395827 -1
   vertex 0.0965297 0.0395827 1
   vertex 0.0969949 0.0394657 1
  endloop
 endfacet
 facet normal 0.243851 0.969813 0
  outer loop
   vertex 0.0965297 0.0395827 -1
   vertex 0.0969949 0.0394657 1
   vertex 0.0969949 0.0394657 -1
  endloop
 endfacet
 facet normal 0.273947 0.961745 -0
  outer loop
   vertex 0.0969949 0.0394657 -1
   vertex 0.0969949 0.0394657 1
   vertex 0.0974561 0.0393343 1
  endloop
 endfacet
 facet normal 0.273947 0.961745 0
  outer loop
   vertex 0.0969949 0.0394657 -1
   vertex 0.0974561 0.0393343 1
   vertex 0.0974561 0.0393343 -1
  endloop
 endfacet
 facet normal 0.303583 0.952805 -0
  outer loop
   vertex 0.0974561 0.0393343 -1
   vertex 0.0974561 0.0393343 1
   vertex 0.0979131 0.0391887 1
  endloop
 endfacet
 facet normal 0.303583 0.952805 0
  outer loop
   vertex 0.0974561 0.0393343 -1
   vertex 0.0979131 0.0391887 1
   vertex 0.0979131 0.0391887 -1
  endloop
 endfacet
 facet normal 0.332994 0.942929 -0
  outer loop
   vertex 0.0979131 0.0391887 -1
   vertex 0.0979131 0.0391887 1
   vertex 0.0983654 0.039029 1
  endloop
 endfacet
 facet normal 0.332994 0.942929 0
  outer loop
   vertex 0.0979131 0.0391887 -1
   vertex 0.0983654 0.039029 1
   vertex 0.0983654 0.039029 -1
  endloop
 endfacet
 facet normal 0.362102 0.932138 -0
  outer loop
   vertex 0.0983654 0.039029 -1
   vertex 0.0983654 0.039029 1
   vertex 0.0988125 0.0388553 1
  endloop
 endfacet
 facet normal 0.362102 0.932138 0
  outer loop
   vertex 0.0983654 0.039029 -1
   vertex 0.0988125 0.0388553 1
   vertex 0.0988125 0.0388553 -1
  endloop
 endfacet
 facet normal 0.390936 0.920418 -0
  outer loop
   vertex 0.0988125 0.0388553 -1
   vertex 0.0988125 0.0388553 1
   vertex 0.0992539 0.0386678 1
  endloop
 endfacet
 facet normal 0.390936 0.920418 0
  outer loop
   vertex 0.0988125 0.0388553 -1
   vertex 0.0992539 0.0386678 1
   vertex 0.0992539 0.0386678 -1
  endloop
 endfacet
 facet normal 0.419195 0.907896 -0
  outer loop
   vertex 0.0992539 0.0386678 -1
   vertex 0.0992539 0.0386678 1
   vertex 0.0996894 0.0384668 1
  endloop
 endfacet
 facet normal 0.419195 0.907896 0
  outer loop
   vertex 0.0992539 0.0386678 -1
   vertex 0.0996894 0.0384668 1
   vertex 0.0996894 0.0384668 -1
  endloop
 endfacet
 facet normal 0.447569 0.89425 -0
  outer loop
   vertex 0.0996894 0.0384668 -1
   vertex 0.0996894 0.0384668 1
   vertex 0.100118 0.0382522 1
  endloop
 endfacet
 facet normal 0.447569 0.89425 0
  outer loop
   vertex 0.0996894 0.0384668 -1
   vertex 0.100118 0.0382522 1
   vertex 0.100118 0.0382522 -1
  endloop
 endfacet
 facet normal 0.47489 0.880045 -0
  outer loop
   vertex 0.100118 0.0382522 -1
   vertex 0.100118 0.0382522 1
   vertex 0.10054 0.0380245 1
  endloop
 endfacet
 facet normal 0.47489 0.880045 0
  outer loop
   vertex 0.100118 0.0382522 -1
   vertex 0.10054 0.0380245 1
   vertex 0.10054 0.0380245 -1
  endloop
 endfacet
 facet normal 0.501714 0.865034 -0
  outer loop
   vertex 0.10054 0.0380245 -1
   vertex 0.10054 0.0380245 1
   vertex 0.100955 0.0377838 1
  endloop
 endfacet
 facet normal 0.501714 0.865034 0
  outer loop
   vertex 0.10054 0.0380245 -1
   vertex 0.100955 0.0377838 1
   vertex 0.100955 0.0377838 -1
  endloop
 endfacet
 facet normal 0.528645 0.848843 -0
  outer loop
   vertex 0.100955 0.0377838 -1
   vertex 0.100955 0.0377838 1
   vertex 0.101362 0.0375303 1
  endloop
 endfacet
 facet normal 0.528645 0.848843 0
  outer loop
   vertex 0.100955 0.0377838 -1
   vertex 0.101362 0.0375303 1
   vertex 0.101362 0.0375303 -1
  endloop
 endfacet
 facet normal 0.553711 0.832709 -0
  outer loop
   vertex 0.101362 0.0375303 -1
   vertex 0.101362 0.0375303 1
   vertex 0.101762 0.0372644 1
  endloop
 endfacet
 facet normal 0.553711 0.832709 0
  outer loop
   vertex 0.101362 0.0375303 -1
   vertex 0.101762 0.0372644 1
   vertex 0.101762 0.0372644 -1
  endloop
 endfacet
 facet normal 0.580765 0.814071 -0
  outer loop
   vertex 0.101762 0.0372644 -1
   vertex 0.101762 0.0372644 1
   vertex 0.102152 0.0369861 1
  endloop
 endfacet
 facet normal 0.580765 0.814071 0
  outer loop
   vertex 0.101762 0.0372644 -1
   vertex 0.102152 0.0369861 1
   vertex 0.102152 0.0369861 -1
  endloop
 endfacet
 facet normal 0.604972 0.796247 -0
  outer loop
   vertex 0.102152 0.0369861 -1
   vertex 0.102152 0.0369861 1
   vertex 0.102534 0.0366959 1
  endloop
 endfacet
 facet normal 0.604972 0.796247 0
  outer loop
   vertex 0.102152 0.0369861 -1
   vertex 0.102534 0.0366959 1
   vertex 0.102534 0.0366959 -1
  endloop
 endfacet
 facet normal 0.629171 0.777267 -0
  outer loop
   vertex 0.102534 0.0366959 -1
   vertex 0.102534 0.0366959 1
   vertex 0.102907 0.036394 1
  endloop
 endfacet
 facet normal 0.629171 0.777267 0
  outer loop
   vertex 0.102534 0.0366959 -1
   vertex 0.102907 0.036394 1
   vertex 0.102907 0.036394 -1
  endloop
 endfacet
 facet normal 0.653453 0.756967 -0
  outer loop
   vertex 0.102907 0.036394 -1
   vertex 0.102907 0.036394 1
   vertex 0.10327 0.0360806 1
  endloop
 endfacet
 facet normal 0.653453 0.756967 0
  outer loop
   vertex 0.102907 0.036394 -1
   vertex 0.10327 0.0360806 1
   vertex 0.10327 0.0360806 -1
  endloop
 endfacet
 facet normal 0.676739 0.736223 -0
  outer loop
   vertex 0.10327 0.0360806 -1
   vertex 0.10327 0.0360806 1
   vertex 0.103623 0.0357561 1
  endloop
 endfacet
 facet normal 0.676739 0.736223 0
  outer loop
   vertex 0.10327 0.0360806 -1
   vertex 0.103623 0.0357561 1
   vertex 0.103623 0.0357561 -1
  endloop
 endfacet
 facet normal 0.699019 0.715103 -0
  outer loop
   vertex 0.103623 0.0357561 -1
   vertex 0.103623 0.0357561 1
   vertex 0.103966 0.0354208 1
  endloop
 endfacet
 facet normal 0.699019 0.715103 0
  outer loop
   vertex 0.103623 0.0357561 -1
   vertex 0.103966 0.0354208 1
   vertex 0.103966 0.0354208 -1
  endloop
 endfacet
 facet normal 0.721318 0.692604 -0
  outer loop
   vertex 0.103966 0.0354208 -1
   vertex 0.103966 0.0354208 1
   vertex 0.104298 0.0350751 1
  endloop
 endfacet
 facet normal 0.721318 0.692604 0
  outer loop
   vertex 0.103966 0.0354208 -1
   vertex 0.104298 0.0350751 1
   vertex 0.104298 0.0350751 -1
  endloop
 endfacet
 facet normal 0.74156 0.670886 -0
  outer loop
   vertex 0.104298 0.0350751 -1
   vertex 0.104298 0.0350751 1
   vertex 0.10462 0.0347192 1
  endloop
 endfacet
 facet normal 0.74156 0.670886 0
  outer loop
   vertex 0.104298 0.0350751 -1
   vertex 0.10462 0.0347192 1
   vertex 0.10462 0.0347192 -1
  endloop
 endfacet
 facet normal 0.76283 0.646599 -0
  outer loop
   vertex 0.10462 0.0347192 -1
   vertex 0.10462 0.0347192 1
   vertex 0.10493 0.0343534 1
  endloop
 endfacet
 facet normal 0.76283 0.646599 0
  outer loop
   vertex 0.10462 0.0347192 -1
   vertex 0.10493 0.0343534 1
   vertex 0.10493 0.0343534 -1
  endloop
 endfacet
 facet normal 0.782023 0.623249 -0
  outer loop
   vertex 0.10493 0.0343534 -1
   vertex 0.10493 0.0343534 1
   vertex 0.105229 0.0339783 1
  endloop
 endfacet
 facet normal 0.782023 0.623249 0
  outer loop
   vertex 0.10493 0.0343534 -1
   vertex 0.105229 0.0339783 1
   vertex 0.105229 0.0339783 -1
  endloop
 endfacet
 facet normal 0.801198 0.598399 -0
  outer loop
   vertex 0.105229 0.0339783 -1
   vertex 0.105229 0.0339783 1
   vertex 0.105516 0.033594 1
  endloop
 endfacet
 facet normal 0.801198 0.598399 0
  outer loop
   vertex 0.105229 0.0339783 -1
   vertex 0.105516 0.033594 1
   vertex 0.105516 0.033594 -1
  endloop
 endfacet
 facet normal 0.819329 0.573324 -0
  outer loop
   vertex 0.105516 0.033594 -1
   vertex 0.105516 0.033594 1
   vertex 0.105791 0.033201 1
  endloop
 endfacet
 facet normal 0.819329 0.573324 0
  outer loop
   vertex 0.105516 0.033594 -1
   vertex 0.105791 0.033201 1
   vertex 0.105791 0.033201 -1
  endloop
 endfacet
 facet normal 0.836406 0.54811 -0
  outer loop
   vertex 0.105791 0.033201 -1
   vertex 0.105791 0.033201 1
   vertex 0.106054 0.0327997 1
  endloop
 endfacet
 facet normal 0.836406 0.54811 0
  outer loop
   vertex 0.105791 0.033201 -1
   vertex 0.106054 0.0327997 1
   vertex 0.106054 0.0327997 -1
  endloop
 endfacet
 facet normal 0.853398 0.52126 -0
  outer loop
   vertex 0.106054 0.0327997 -1
   vertex 0.106054 0.0327997 1
   vertex 0.106304 0.0323904 1
  endloop
 endfacet
 facet normal 0.853398 0.52126 0
  outer loop
   vertex 0.106054 0.0327997 -1
   vertex 0.106304 0.0323904 1
   vertex 0.106304 0.0323904 -1
  endloop
 endfacet
 facet normal 0.869317 0.494254 -0
  outer loop
   vertex 0.106304 0.0323904 -1
   vertex 0.106304 0.0323904 1
   vertex 0.106541 0.0319735 1
  endloop
 endfacet
 facet normal 0.869317 0.494254 0
  outer loop
   vertex 0.106304 0.0323904 -1
   vertex 0.106541 0.0319735 1
   vertex 0.106541 0.0319735 -1
  endloop
 endfacet
 facet normal 0.884197 0.467113 -0
  outer loop
   vertex 0.106541 0.0319735 -1
   vertex 0.106541 0.0319735 1
   vertex 0.106765 0.0315495 1
  endloop
 endfacet
 facet normal 0.884197 0.467113 0
  outer loop
   vertex 0.106541 0.0319735 -1
   vertex 0.106765 0.0315495 1
   vertex 0.106765 0.0315495 -1
  endloop
 endfacet
 facet normal 0.898056 0.439881 -0
  outer loop
   vertex 0.106765 0.0315495 -1
   vertex 0.106765 0.0315495 1
   vertex 0.106976 0.0311187 1
  endloop
 endfacet
 facet normal 0.898056 0.439881 0
  outer loop
   vertex 0.106765 0.0315495 -1
   vertex 0.106976 0.0311187 1
   vertex 0.106976 0.0311187 -1
  endloop
 endfacet
 facet normal 0.911685 0.41089 -0
  outer loop
   vertex 0.106976 0.0311187 -1
   vertex 0.106976 0.0311187 1
   vertex 0.107173 0.0306816 1
  endloop
 endfacet
 facet normal 0.911685 0.41089 0
  outer loop
   vertex 0.106976 0.0311187 -1
   vertex 0.107173 0.0306816 1
   vertex 0.107173 0.0306816 -1
  endloop
 endfacet
 facet normal 0.923516 0.38356 -0
  outer loop
   vertex 0.107173 0.0306816 -1
   vertex 0.107173 0.0306816 1
   vertex 0.107357 0.0302386 1
  endloop
 endfacet
 facet normal 0.923516 0.38356 0
  outer loop
   vertex 0.107173 0.0306816 -1
   vertex 0.107357 0.0302386 1
   vertex 0.107357 0.0302386 -1
  endloop
 endfacet
 facet normal 0.935084 0.354427 -0
  outer loop
   vertex 0.107357 0.0302386 -1
   vertex 0.107357 0.0302386 1
   vertex 0.107527 0.0297901 1
  endloop
 endfacet
 facet normal 0.935084 0.354427 0
  outer loop
   vertex 0.107357 0.0302386 -1
   vertex 0.107527 0.0297901 1
   vertex 0.107527 0.0297901 -1
  endloop
 endfacet
 facet normal 0.945632 0.325239 -0
  outer loop
   vertex 0.107527 0.0297901 -1
   vertex 0.107527 0.0297901 1
   vertex 0.107683 0.0293365 1
  endloop
 endfacet
 facet normal 0.945632 0.325239 0
  outer loop
   vertex 0.107527 0.0297901 -1
   vertex 0.107683 0.0293365 1
   vertex 0.107683 0.0293365 -1
  endloop
 endfacet
 facet normal 0.955182 0.29602 -0
  outer loop
   vertex 0.107683 0.0293365 -1
   vertex 0.107683 0.0293365 1
   vertex 0.107825 0.0288783 1
  endloop
 endfacet
 facet normal 0.955182 0.29602 0
  outer loop
   vertex 0.107683 0.0293365 -1
   vertex 0.107825 0.0288783 1
   vertex 0.107825 0.0288783 -1
  endloop
 endfacet
 facet normal 0.964287 0.264858 -0
  outer loop
   vertex 0.107825 0.0288783 -1
   vertex 0.107825 0.0288783 1
   vertex 0.107952 0.028416 1
  endloop
 endfacet
 facet normal 0.964287 0.264858 0
  outer loop
   vertex 0.107825 0.0288783 -1
   vertex 0.107952 0.028416 1
   vertex 0.107952 0.028416 -1
  endloop
 endfacet
 facet normal 0.971847 0.235613 -0
  outer loop
   vertex 0.107952 0.028416 -1
   vertex 0.107952 0.028416 1
   vertex 0.108065 0.0279499 1
  endloop
 endfacet
 facet normal 0.971847 0.235613 0
  outer loop
   vertex 0.107952 0.028416 -1
   vertex 0.108065 0.0279499 1
   vertex 0.108065 0.0279499 -1
  endloop
 endfacet
 facet normal 0.978475 0.206364 -0
  outer loop
   vertex 0.108065 0.0279499 -1
   vertex 0.108065 0.0279499 1
   vertex 0.108164 0.0274805 1
  endloop
 endfacet
 facet normal 0.978475 0.206364 0
  outer loop
   vertex 0.108065 0.0279499 -1
   vertex 0.108164 0.0274805 1
   vertex 0.108164 0.0274805 -1
  endloop
 endfacet
 facet normal 0.984543 0.175145 -0
  outer loop
   vertex 0.108164 0.0274805 -1
   vertex 0.108164 0.0274805 1
   vertex 0.108248 0.0270082 1
  endloop
 endfacet
 facet normal 0.984543 0.175145 0
  outer loop
   vertex 0.108164 0.0274805 -1
   vertex 0.108248 0.0270082 1
   vertex 0.108248 0.0270082 -1
  endloop
 endfacet
 facet normal 0.989596 0.143873 -0
  outer loop
   vertex 0.108248 0.0270082 -1
   vertex 0.108248 0.0270082 1
   vertex 0.108317 0.0265337 1
  endloop
 endfacet
 facet normal 0.989596 0.143873 0
  outer loop
   vertex 0.108248 0.0270082 -1
   vertex 0.108317 0.0265337 1
   vertex 0.108317 0.0265337 -1
  endloop
 endfacet
 facet normal 0.993405 0.114662 -0
  outer loop
   vertex 0.108317 0.0265337 -1
   vertex 0.108317 0.0265337 1
   vertex 0.108372 0.0260571 1
  endloop
 endfacet
 facet normal 0.993405 0.114662 0
  outer loop
   vertex 0.108317 0.0265337 -1
   vertex 0.108372 0.0260571 1
   vertex 0.108372 0.0260571 -1
  endloop
 endfacet
 facet normal 0.996688 0.0813156 -0
  outer loop
   vertex 0.108372 0.0260571 -1
   vertex 0.108372 0.0260571 1
   vertex 0.108411 0.0255792 1
  endloop
 endfacet
 facet normal 0.996688 0.0813156 0
  outer loop
   vertex 0.108372 0.0260571 -1
   vertex 0.108411 0.0255792 1
   vertex 0.108411 0.0255792 -1
  endloop
 endfacet
 facet normal 0.99864 0.0521308 -0
  outer loop
   vertex 0.108411 0.0255792 -1
   vertex 0.108411 0.0255792 1
   vertex 0.108436 0.0251002 1
  endloop
 endfacet
 facet normal 0.99864 0.0521308 0
  outer loop
   vertex 0.108411 0.0255792 -1
   vertex 0.108436 0.0251002 1
   vertex 0.108436 0.0251002 -1
  endloop
 endfacet
 facet normal 0.999783 0.0208469 -0
  outer loop
   vertex 0.108436 0.0251002 -1
   vertex 0.108436 0.0251002 1
   vertex 0.108446 0.0246206 1
  endloop
 endfacet
 facet normal 0.999783 0.0208469 0
  outer loop
   vertex 0.108436 0.0251002 -1
   vertex 0.108446 0.0246206 1
   vertex 0.108446 0.0246206 -1
  endloop
 endfacet
 facet normal 0.999946 -0.0104234 0
  outer loop
   vertex 0.108446 0.0246206 -1
   vertex 0.108446 0.0246206 1
   vertex 0.108441 0.024141 1
  endloop
 endfacet
 facet normal 0.999946 -0.0104234 0
  outer loop
   vertex 0.108446 0.0246206 -1
   vertex 0.108441 0.024141 1
   vertex 0.108441 0.024141 -1
  endloop
 endfacet
 facet normal 0.99913 -0.0417056 0
  outer loop
   vertex 0.108441 0.024141 -1
   vertex 0.108441 0.024141 1
   vertex 0.108421 0.0236618 1
  endloop
 endfacet
 facet normal 0.99913 -0.0417056 0
  outer loop
   vertex 0.108441 0.024141 -1
   vertex 0.108421 0.0236618 1
   vertex 0.108421 0.0236618 -1
  endloop
 endfacet
 facet normal 0.997334 -0.0729681 0
  outer loop
   vertex 0.108421 0.0236618 -1
   vertex 0.108421 0.0236618 1
   vertex 0.108386 0.0231835 1
  endloop
 endfacet
 facet normal 0.997334 -0.0729681 0
  outer loop
   vertex 0.108421 0.0236618 -1
   vertex 0.108386 0.0231835 1
   vertex 0.108386 0.0231835 -1
  endloop
 endfacet
 facet normal 0.994767 -0.102174 0
  outer loop
   vertex 0.108386 0.0231835 -1
   vertex 0.108386 0.0231835 1
   vertex 0.108337 0.0227064 1
  endloop
 endfacet
 facet normal 0.994767 -0.102174 0
  outer loop
   vertex 0.108386 0.0231835 -1
   vertex 0.108337 0.0227064 1
   vertex 0.108337 0.0227064 -1
  endloop
 endfacet
 facet normal -0.156561 -0.987668 -0
  outer loop
   vertex 0.107663 0.022217 1
   vertex 0.107367 0.0222639 1
   vertex 0.107663 0.022217 -1
  endloop
 endfacet
 facet normal -0.156561 -0.987668 0
  outer loop
   vertex 0.107663 0.022217 -1
   vertex 0.107367 0.0222639 1
   vertex 0.107367 0.0222639 -1
  endloop
 endfacet
 facet normal -0.989993 0.141119 0
  outer loop
   vertex 0.107367 0.0222639 -1
   vertex 0.107367 0.0222639 1
   vertex 0.107433 0.0227269 -1
  endloop
 endfacet
 facet normal -0.989993 0.141119 0
  outer loop
   vertex 0.107433 0.0227269 -1
   vertex 0.107367 0.0222639 1
   vertex 0.107433 0.0227269 1
  endloop
 endfacet
 facet normal -0.994036 0.109055 0
  outer loop
   vertex 0.107433 0.0227269 -1
   vertex 0.107433 0.0227269 1
   vertex 0.107484 0.0231917 -1
  endloop
 endfacet
 facet normal -0.994036 0.109055 0
  outer loop
   vertex 0.107484 0.0231917 -1
   vertex 0.107433 0.0227269 1
   vertex 0.107484 0.0231917 1
  endloop
 endfacet
 facet normal -0.997194 0.0748575 0
  outer loop
   vertex 0.107484 0.0231917 -1
   vertex 0.107484 0.0231917 1
   vertex 0.107519 0.023658 -1
  endloop
 endfacet
 facet normal -0.997194 0.0748575 0
  outer loop
   vertex 0.107519 0.023658 -1
   vertex 0.107484 0.0231917 1
   vertex 0.107519 0.023658 1
  endloop
 endfacet
 facet normal -0.998992 0.044899 0
  outer loop
   vertex 0.107519 0.023658 -1
   vertex 0.107519 0.023658 1
   vertex 0.10754 0.0241252 -1
  endloop
 endfacet
 facet normal -0.998992 0.044899 0
  outer loop
   vertex 0.10754 0.0241252 -1
   vertex 0.107519 0.023658 1
   vertex 0.10754 0.0241252 1
  endloop
 endfacet
 facet normal -0.999918 0.0128417 0
  outer loop
   vertex 0.10754 0.0241252 -1
   vertex 0.10754 0.0241252 1
   vertex 0.107546 0.0245928 -1
  endloop
 endfacet
 facet normal -0.999918 0.0128417 0
  outer loop
   vertex 0.107546 0.0245928 -1
   vertex 0.10754 0.0241252 1
   vertex 0.107546 0.0245928 1
  endloop
 endfacet
 facet normal -0.999815 -0.0192468 0
  outer loop
   vertex 0.107546 0.0245928 -1
   vertex 0.107546 0.0245928 1
   vertex 0.107537 0.0250603 -1
  endloop
 endfacet
 facet normal -0.999815 -0.0192468 0
  outer loop
   vertex 0.107537 0.0250603 -1
   vertex 0.107546 0.0245928 1
   vertex 0.107537 0.0250603 1
  endloop
 endfacet
 facet normal -0.998682 -0.0513195 0
  outer loop
   vertex 0.107537 0.0250603 -1
   vertex 0.107537 0.0250603 1
   vertex 0.107513 0.0255273 -1
  endloop
 endfacet
 facet normal -0.998682 -0.0513195 0
  outer loop
   vertex 0.107513 0.0255273 -1
   vertex 0.107537 0.0250603 1
   vertex 0.107513 0.0255273 1
  endloop
 endfacet
 facet normal -0.996336 -0.0855306 0
  outer loop
   vertex 0.107513 0.0255273 -1
   vertex 0.107513 0.0255273 1
   vertex 0.107473 0.0259933 -1
  endloop
 endfacet
 facet normal -0.996336 -0.0855306 0
  outer loop
   vertex 0.107473 0.0259933 -1
   vertex 0.107513 0.0255273 1
   vertex 0.107473 0.0259933 1
  endloop
 endfacet
 facet normal -0.993309 -0.115485 0
  outer loop
   vertex 0.107473 0.0259933 -1
   vertex 0.107473 0.0259933 1
   vertex 0.107419 0.0264578 -1
  endloop
 endfacet
 facet normal -0.993309 -0.115485 0
  outer loop
   vertex 0.107419 0.0264578 -1
   vertex 0.107473 0.0259933 1
   vertex 0.107419 0.0264578 1
  endloop
 endfacet
 facet normal -0.989054 -0.147556 0
  outer loop
   vertex 0.107419 0.0264578 -1
   vertex 0.107419 0.0264578 1
   vertex 0.10735 0.0269203 -1
  endloop
 endfacet
 facet normal -0.989054 -0.147556 0
  outer loop
   vertex 0.10735 0.0269203 -1
   vertex 0.107419 0.0264578 1
   vertex 0.10735 0.0269203 1
  endloop
 endfacet
 facet normal -0.983736 -0.179618 0
  outer loop
   vertex 0.10735 0.0269203 -1
   vertex 0.10735 0.0269203 1
   vertex 0.107266 0.0273803 -1
  endloop
 endfacet
 facet normal -0.983736 -0.179618 0
  outer loop
   vertex 0.107266 0.0273803 -1
   vertex 0.10735 0.0269203 1
   vertex 0.107266 0.0273803 1
  endloop
 endfacet
 facet normal -0.97778 -0.209633 0
  outer loop
   vertex 0.107266 0.0273803 -1
   vertex 0.107266 0.0273803 1
   vertex 0.107168 0.0278374 -1
  endloop
 endfacet
 facet normal -0.97778 -0.209633 0
  outer loop
   vertex 0.107168 0.0278374 -1
   vertex 0.107266 0.0273803 1
   vertex 0.107168 0.0278374 1
  endloop
 endfacet
 facet normal -0.969857 -0.243675 0
  outer loop
   vertex 0.107168 0.0278374 -1
   vertex 0.107168 0.0278374 1
   vertex 0.107054 0.0282911 -1
  endloop
 endfacet
 facet normal -0.969857 -0.243675 0
  outer loop
   vertex 0.107054 0.0282911 -1
   vertex 0.107168 0.0278374 1
   vertex 0.107054 0.0282911 1
  endloop
 endfacet
 facet normal -0.962378 -0.271713 0
  outer loop
   vertex 0.107054 0.0282911 -1
   vertex 0.107054 0.0282911 1
   vertex 0.106927 0.028741 -1
  endloop
 endfacet
 facet normal -0.962378 -0.271713 0
  outer loop
   vertex 0.106927 0.028741 -1
   vertex 0.107054 0.0282911 1
   vertex 0.106927 0.028741 1
  endloop
 endfacet
 facet normal -0.952771 -0.30369 0
  outer loop
   vertex 0.106927 0.028741 -1
   vertex 0.106927 0.028741 1
   vertex 0.106785 0.0291865 -1
  endloop
 endfacet
 facet normal -0.952771 -0.30369 0
  outer loop
   vertex 0.106785 0.0291865 -1
   vertex 0.106927 0.028741 1
   vertex 0.106785 0.0291865 1
  endloop
 endfacet
 facet normal -0.942006 -0.335596 0
  outer loop
   vertex 0.106785 0.0291865 -1
   vertex 0.106785 0.0291865 1
   vertex 0.106628 0.0296272 -1
  endloop
 endfacet
 facet normal -0.942006 -0.335596 0
  outer loop
   vertex 0.106628 0.0296272 -1
   vertex 0.106785 0.0291865 1
   vertex 0.106628 0.0296272 1
  endloop
 endfacet
 facet normal -0.931528 -0.363669 0
  outer loop
   vertex 0.106628 0.0296272 -1
   vertex 0.106628 0.0296272 1
   vertex 0.106458 0.0300626 -1
  endloop
 endfacet
 facet normal -0.931528 -0.363669 0
  outer loop
   vertex 0.106458 0.0300626 -1
   vertex 0.106628 0.0296272 1
   vertex 0.106458 0.0300626 1
  endloop
 endfacet
 facet normal -0.918506 -0.395406 0
  outer loop
   vertex 0.106458 0.0300626 -1
   vertex 0.106458 0.0300626 1
   vertex 0.106273 0.0304924 -1
  endloop
 endfacet
 facet normal -0.918506 -0.395406 0
  outer loop
   vertex 0.106273 0.0304924 -1
   vertex 0.106458 0.0300626 1
   vertex 0.106273 0.0304924 1
  endloop
 endfacet
 facet normal -0.905917 -0.423456 0
  outer loop
   vertex 0.106273 0.0304924 -1
   vertex 0.106273 0.0304924 1
   vertex 0.106075 0.030916 -1
  endloop
 endfacet
 facet normal -0.905917 -0.423456 0
  outer loop
   vertex 0.106075 0.030916 -1
   vertex 0.106273 0.0304924 1
   vertex 0.106075 0.030916 1
  endloop
 endfacet
 facet normal -0.892291 -0.451461 0
  outer loop
   vertex 0.106075 0.030916 -1
   vertex 0.106075 0.030916 1
   vertex 0.105864 0.031333 -1
  endloop
 endfacet
 facet normal -0.892291 -0.451461 0
  outer loop
   vertex 0.105864 0.031333 -1
   vertex 0.106075 0.030916 1
   vertex 0.105864 0.031333 1
  endloop
 endfacet
 facet normal -0.876667 -0.481098 0
  outer loop
   vertex 0.105864 0.031333 -1
   vertex 0.105864 0.031333 1
   vertex 0.105639 0.031743 -1
  endloop
 endfacet
 facet normal -0.876667 -0.481098 0
  outer loop
   vertex 0.105639 0.031743 -1
   vertex 0.105864 0.031333 1
   vertex 0.105639 0.031743 1
  endloop
 endfacet
 facet normal -0.860812 -0.508924 0
  outer loop
   vertex 0.105639 0.031743 -1
   vertex 0.105639 0.031743 1
   vertex 0.105401 0.0321455 -1
  endloop
 endfacet
 facet normal -0.860812 -0.508924 0
  outer loop
   vertex 0.105401 0.0321455 -1
   vertex 0.105639 0.031743 1
   vertex 0.105401 0.0321455 1
  endloop
 endfacet
 facet normal -0.843829 -0.536612 0
  outer loop
   vertex 0.105401 0.0321455 -1
   vertex 0.105401 0.0321455 1
   vertex 0.10515 0.0325402 -1
  endloop
 endfacet
 facet normal -0.843829 -0.536612 0
  outer loop
   vertex 0.10515 0.0325402 -1
   vertex 0.105401 0.0321455 1
   vertex 0.10515 0.0325402 1
  endloop
 endfacet
 facet normal -0.826716 -0.56262 0
  outer loop
   vertex 0.10515 0.0325402 -1
   vertex 0.10515 0.0325402 1
   vertex 0.104887 0.0329267 -1
  endloop
 endfacet
 facet normal -0.826716 -0.56262 0
  outer loop
   vertex 0.104887 0.0329267 -1
   vertex 0.10515 0.0325402 1
   vertex 0.104887 0.0329267 1
  endloop
 endfacet
 facet normal -0.80747 -0.589908 0
  outer loop
   vertex 0.104887 0.0329267 -1
   vertex 0.104887 0.0329267 1
   vertex 0.104611 0.0333045 -1
  endloop
 endfacet
 facet normal -0.80747 -0.589908 0
  outer loop
   vertex 0.104611 0.0333045 -1
   vertex 0.104887 0.0329267 1
   vertex 0.104611 0.0333045 1
  endloop
 endfacet
 facet normal -0.788103 -0.615543 0
  outer loop
   vertex 0.104611 0.0333045 -1
   vertex 0.104611 0.0333045 1
   vertex 0.104323 0.0336732 -1
  endloop
 endfacet
 facet normal -0.788103 -0.615543 0
  outer loop
   vertex 0.104323 0.0336732 -1
   vertex 0.104611 0.0333045 1
   vertex 0.104323 0.0336732 1
  endloop
 endfacet
 facet normal -0.76866 -0.639657 0
  outer loop
   vertex 0.104323 0.0336732 -1
   vertex 0.104323 0.0336732 1
   vertex 0.104024 0.0340325 -1
  endloop
 endfacet
 facet normal -0.76866 -0.639657 0
  outer loop
   vertex 0.104024 0.0340325 -1
   vertex 0.104323 0.0336732 1
   vertex 0.104024 0.0340325 1
  endloop
 endfacet
 facet normal -0.748123 -0.66356 0
  outer loop
   vertex 0.104024 0.0340325 -1
   vertex 0.104024 0.0340325 1
   vertex 0.103714 0.034382 -1
  endloop
 endfacet
 facet normal -0.748123 -0.66356 0
  outer loop
   vertex 0.103714 0.034382 -1
   vertex 0.104024 0.0340325 1
   vertex 0.103714 0.034382 1
  endloop
 endfacet
 facet normal -0.725408 -0.688319 0
  outer loop
   vertex 0.103714 0.034382 -1
   vertex 0.103714 0.034382 1
   vertex 0.103392 0.0347214 -1
  endloop
 endfacet
 facet normal -0.725408 -0.688319 0
  outer loop
   vertex 0.103392 0.0347214 -1
   vertex 0.103714 0.034382 1
   vertex 0.103392 0.0347214 1
  endloop
 endfacet
 facet normal -0.702631 -0.711555 0
  outer loop
   vertex 0.103392 0.0347214 -1
   vertex 0.103392 0.0347214 1
   vertex 0.103059 0.0350502 -1
  endloop
 endfacet
 facet normal -0.702631 -0.711555 0
  outer loop
   vertex 0.103059 0.0350502 -1
   vertex 0.103392 0.0347214 1
   vertex 0.103059 0.0350502 1
  endloop
 endfacet
 facet normal -0.679851 -0.73335 0
  outer loop
   vertex 0.103059 0.0350502 -1
   vertex 0.103059 0.0350502 1
   vertex 0.102716 0.0353682 -1
  endloop
 endfacet
 facet normal -0.679851 -0.73335 0
  outer loop
   vertex 0.102716 0.0353682 -1
   vertex 0.103059 0.0350502 1
   vertex 0.102716 0.0353682 1
  endloop
 endfacet
 facet normal -0.655987 -0.754772 0
  outer loop
   vertex 0.102716 0.0353682 -1
   vertex 0.102716 0.0353682 1
   vertex 0.102363 0.035675 -1
  endloop
 endfacet
 facet normal -0.655987 -0.754772 0
  outer loop
   vertex 0.102363 0.035675 -1
   vertex 0.102716 0.0353682 1
   vertex 0.102363 0.035675 1
  endloop
 endfacet
 facet normal -0.632105 -0.774883 0
  outer loop
   vertex 0.102363 0.035675 -1
   vertex 0.102363 0.035675 1
   vertex 0.102001 0.0359703 -1
  endloop
 endfacet
 facet normal -0.632105 -0.774883 0
  outer loop
   vertex 0.102001 0.0359703 -1
   vertex 0.102363 0.035675 1
   vertex 0.102001 0.0359703 1
  endloop
 endfacet
 facet normal -0.606126 -0.795368 0
  outer loop
   vertex 0.102001 0.0359703 -1
   vertex 0.102001 0.0359703 1
   vertex 0.101629 0.0362538 -1
  endloop
 endfacet
 facet normal -0.606126 -0.795368 0
  outer loop
   vertex 0.101629 0.0362538 -1
   vertex 0.102001 0.0359703 1
   vertex 0.101629 0.0362538 1
  endloop
 endfacet
 facet normal -0.580193 -0.814479 0
  outer loop
   vertex 0.101629 0.0362538 -1
   vertex 0.101629 0.0362538 1
   vertex 0.101248 0.0365252 -1
  endloop
 endfacet
 facet normal -0.580193 -0.814479 0
  outer loop
   vertex 0.101248 0.0365252 -1
   vertex 0.101629 0.0362538 1
   vertex 0.101248 0.0365252 1
  endloop
 endfacet
 facet normal -0.554234 -0.832361 0
  outer loop
   vertex 0.101248 0.0365252 -1
   vertex 0.101248 0.0365252 1
   vertex 0.100859 0.0367842 -1
  endloop
 endfacet
 facet normal -0.554234 -0.832361 0
  outer loop
   vertex 0.100859 0.0367842 -1
   vertex 0.101248 0.0365252 1
   vertex 0.100859 0.0367842 1
  endloop
 endfacet
 facet normal -0.526366 -0.850258 0
  outer loop
   vertex 0.100859 0.0367842 -1
   vertex 0.100859 0.0367842 1
   vertex 0.100461 0.0370306 -1
  endloop
 endfacet
 facet normal -0.526366 -0.850258 0
  outer loop
   vertex 0.100461 0.0370306 -1
   vertex 0.100859 0.0367842 1
   vertex 0.100461 0.0370306 1
  endloop
 endfacet
 facet normal -0.499444 -0.866346 0
  outer loop
   vertex 0.100461 0.0370306 -1
   vertex 0.100461 0.0370306 1
   vertex 0.100056 0.0372641 -1
  endloop
 endfacet
 facet normal -0.499444 -0.866346 0
  outer loop
   vertex 0.100056 0.0372641 -1
   vertex 0.100461 0.0370306 1
   vertex 0.100056 0.0372641 1
  endloop
 endfacet
 facet normal -0.471348 -0.881947 0
  outer loop
   vertex 0.100056 0.0372641 -1
   vertex 0.100056 0.0372641 1
   vertex 0.0996437 0.0374844 -1
  endloop
 endfacet
 facet normal -0.471348 -0.881947 0
  outer loop
   vertex 0.0996437 0.0374844 -1
   vertex 0.100056 0.0372641 1
   vertex 0.0996437 0.0374844 1
  endloop
 endfacet
 facet normal -0.442626 -0.896706 0
  outer loop
   vertex 0.0996437 0.0374844 -1
   vertex 0.0996437 0.0374844 1
   vertex 0.0992244 0.0376914 -1
  endloop
 endfacet
 facet normal -0.442626 -0.896706 0
  outer loop
   vertex 0.0992244 0.0376914 -1
   vertex 0.0996437 0.0374844 1
   vertex 0.0992244 0.0376914 1
  endloop
 endfacet
 facet normal -0.41364 -0.91044 0
  outer loop
   vertex 0.0992244 0.0376914 -1
   vertex 0.0992244 0.0376914 1
   vertex 0.0987987 0.0378848 -1
  endloop
 endfacet
 facet normal -0.41364 -0.91044 0
  outer loop
   vertex 0.0987987 0.0378848 -1
   vertex 0.0992244 0.0376914 1
   vertex 0.0987987 0.0378848 1
  endloop
 endfacet
 facet normal -0.384076 -0.923301 0
  outer loop
   vertex 0.0987987 0.0378848 -1
   vertex 0.0987987 0.0378848 1
   vertex 0.0983669 0.0380644 -1
  endloop
 endfacet
 facet normal -0.384076 -0.923301 0
  outer loop
   vertex 0.0983669 0.0380644 -1
   vertex 0.0987987 0.0378848 1
   vertex 0.0983669 0.0380644 1
  endloop
 endfacet
 facet normal -0.354235 -0.935157 0
  outer loop
   vertex 0.0983669 0.0380644 -1
   vertex 0.0983669 0.0380644 1
   vertex 0.0979296 0.0382301 -1
  endloop
 endfacet
 facet normal -0.354235 -0.935157 0
  outer loop
   vertex 0.0979296 0.0382301 -1
   vertex 0.0983669 0.0380644 1
   vertex 0.0979296 0.0382301 1
  endloop
 endfacet
 facet normal -0.324018 -0.946051 0
  outer loop
   vertex 0.0979296 0.0382301 -1
   vertex 0.0979296 0.0382301 1
   vertex 0.0974872 0.0383816 -1
  endloop
 endfacet
 facet normal -0.324018 -0.946051 0
  outer loop
   vertex 0.0974872 0.0383816 -1
   vertex 0.0979296 0.0382301 1
   vertex 0.0974872 0.0383816 1
  endloop
 endfacet
 facet normal -0.293465 -0.95597 0
  outer loop
   vertex 0.0974872 0.0383816 -1
   vertex 0.0974872 0.0383816 1
   vertex 0.0970402 0.0385188 -1
  endloop
 endfacet
 facet normal -0.293465 -0.95597 0
  outer loop
   vertex 0.0970402 0.0385188 -1
   vertex 0.0974872 0.0383816 1
   vertex 0.0970402 0.0385188 1
  endloop
 endfacet
 facet normal -0.262558 -0.964916 0
  outer loop
   vertex 0.0970402 0.0385188 -1
   vertex 0.0970402 0.0385188 1
   vertex 0.0965889 0.0386416 -1
  endloop
 endfacet
 facet normal -0.262558 -0.964916 0
  outer loop
   vertex 0.0965889 0.0386416 -1
   vertex 0.0970402 0.0385188 1
   vertex 0.0965889 0.0386416 1
  endloop
 endfacet
 facet normal -0.231437 -0.97285 0
  outer loop
   vertex 0.0965889 0.0386416 -1
   vertex 0.0965889 0.0386416 1
   vertex 0.096134 0.0387498 -1
  endloop
 endfacet
 facet normal -0.231437 -0.97285 0
  outer loop
   vertex 0.096134 0.0387498 -1
   vertex 0.0965889 0.0386416 1
   vertex 0.096134 0.0387498 1
  endloop
 endfacet
 facet normal -0.200064 -0.979783 0
  outer loop
   vertex 0.096134 0.0387498 -1
   vertex 0.096134 0.0387498 1
   vertex 0.0956758 0.0388434 -1
  endloop
 endfacet
 facet normal -0.200064 -0.979783 0
  outer loop
   vertex 0.0956758 0.0388434 -1
   vertex 0.096134 0.0387498 1
   vertex 0.0956758 0.0388434 1
  endloop
 endfacet
 facet normal -0.168503 -0.985701 0
  outer loop
   vertex 0.0956758 0.0388434 -1
   vertex 0.0956758 0.0388434 1
   vertex 0.0952149 0.0389222 -1
  endloop
 endfacet
 facet normal -0.168503 -0.985701 0
  outer loop
   vertex 0.0952149 0.0389222 -1
   vertex 0.0956758 0.0388434 1
   vertex 0.0952149 0.0389222 1
  endloop
 endfacet
 facet normal -0.136691 -0.990614 0
  outer loop
   vertex 0.0952149 0.0389222 -1
   vertex 0.0952149 0.0389222 1
   vertex 0.0947516 0.0389861 -1
  endloop
 endfacet
 facet normal -0.136691 -0.990614 0
  outer loop
   vertex 0.0947516 0.0389861 -1
   vertex 0.0952149 0.0389222 1
   vertex 0.0947516 0.0389861 1
  endloop
 endfacet
 facet normal -0.104797 -0.994494 0
  outer loop
   vertex 0.0947516 0.0389861 -1
   vertex 0.0947516 0.0389861 1
   vertex 0.0942866 0.0390351 -1
  endloop
 endfacet
 facet normal -0.104797 -0.994494 0
  outer loop
   vertex 0.0942866 0.0390351 -1
   vertex 0.0947516 0.0389861 1
   vertex 0.0942866 0.0390351 1
  endloop
 endfacet
 facet normal -0.0728542 -0.997343 0
  outer loop
   vertex 0.0942866 0.0390351 -1
   vertex 0.0942866 0.0390351 1
   vertex 0.0938202 0.0390692 -1
  endloop
 endfacet
 facet normal -0.0728542 -0.997343 0
  outer loop
   vertex 0.0938202 0.0390692 -1
   vertex 0.0942866 0.0390351 1
   vertex 0.0938202 0.0390692 1
  endloop
 endfacet
 facet normal -0.040699 -0.999171 0
  outer loop
   vertex 0.0938202 0.0390692 -1
   vertex 0.0938202 0.0390692 1
   vertex 0.093353 0.0390882 -1
  endloop
 endfacet
 facet normal -0.040699 -0.999171 0
  outer loop
   vertex 0.093353 0.0390882 -1
   vertex 0.0938202 0.0390692 1
   vertex 0.093353 0.0390882 1
  endloop
 endfacet
 facet normal -0.999844 -0.0176829 -0
  outer loop
   vertex 0.0927295 0.0396903 1
   vertex 0.0927242 0.0399903 1
   vertex 0.0927295 0.0396903 -1
  endloop
 endfacet
 facet normal -0.999844 -0.0176829 0
  outer loop
   vertex 0.0927295 0.0396903 -1
   vertex 0.0927242 0.0399903 1
   vertex 0.0927242 0.0399903 -1
  endloop
 endfacet
 facet normal 0 0 -1
  outer loop
   vertex 0.0927295 0.0396903 -1
   vertex 0.0927242 0.0399903 -1
   vertex 0.093353 0.0390882 -1
  endloop
 endfacet
 facet normal 0 0 -1
  outer loop
   vertex 0.093353 0.0390882 -1
   vertex 0.0927242 0.0399903 -1
   vertex 0.0932038 0.0399913 -1
  endloop
 endfacet
 facet normal 0 0 -1
  outer loop
   vertex 0.093353 0.0390882 -1
   vertex 0.0932038 0.0399913 -1
   vertex 0.0938202 0.0390692 -1
  endloop
 endfacet
 facet normal 0 0 -1
  outer loop
   vertex 0.0938202 0.0390692 -1
   vertex 0.0932038 0.0399913 -1
   vertex 0.0936832 0.0399773 -1
  endloop
 endfacet
 facet normal 0 0 -1
  outer loop
   vertex 0.0938202 0.0390692 -1
   vertex 0.0936832 0.0399773 -1
   vertex 0.0942866 0.0390351 -1
  endloop
 endfacet
 facet normal 0 0 -1
  outer loop
   vertex 0.0942866 0.0390351 -1
   vertex 0.0936832 0.0399773 -1
   vertex 0.094162 0.0399484 -1
  endloop
 endfacet
 facet normal 0 0 -1
  outer loop
   vertex 0.0942866 0.0390351 -1
   vertex 0.094162 0.0399484 -1
   vertex 0.0947516 0.0389861 -1
  endloop
 endfacet
 facet normal 0 0 -1
  outer loop
   vertex 0.0947516 0.0389861 -1
   vertex 0.094162 0.0399484 -1
   vertex 0.0946397 0.0399047 -1
  endloop
 endfacet
 facet normal 0 0 -1
  outer loop
   vertex 0.0947516 0.0389861 -1
   vertex 0.0946397 0.0399047 -1
   vertex 0.0952149 0.0389222 -1
  endloop
 endfacet
 facet normal 0 0 -1
  outer loop
   vertex 0.107663 0.022217 -1
   vertex 0.107367 0.0222639 -1
   vertex 0.108337 0.0227064 -1
  endloop
 endfacet
 facet normal -0 0 -1
  outer loop
   vertex 0.108337 0.0227064 -1
   vertex 0.107367 0.0222639 -1
   vertex 0.107433 0.0227269 -1
  endloop
 endfacet
 facet normal 0 0 -1
  outer loop
   vertex 0.108337 0.0227064 -1
   vertex 0.107433 0.0227269 -1
   vertex 0.108386 0.0231835 -1
  endloop
 endfacet
 facet normal -0 0 -1
  outer loop
   vertex 0.108386 0.0231835 -1
   vertex 0.107433 0.0227269 -1
   vertex 0.107484 0.0231917 -1
  endloop
 endfacet
 facet normal 0 0 -1
  outer loop
   vertex 0.108386 0.0231835 -1
   vertex 0.107484 0.0231917 -1
   vertex 0.108421 0.0236618 -1
  endloop
 endfacet
 facet normal 0 0 -1
  outer loop
   vertex 0.108421 0.0236618 -1
   vertex 0.107484 0.0231917 -1
   vertex 0.107519 0.023658 -1
  endloop
 endfacet
 facet normal -0 0 -1
  outer loop
   vertex 0.108421 0.0236618 -1
   vertex 0.107519 0.023658 -1
   vertex 0.108441 0.024141 -1
  endloop
 endfacet
 facet normal 0 0 -1
  outer loop
   vertex 0.108441 0.024141 -1
   vertex 0.107519 0.023658 -1
   vertex 0.10754 0.0241252 -1
  endloop
 endfacet
 facet normal -0 0 -1
  outer loop
   vertex 0.108441 0.024141 -1
   vertex 0.10754 0.0241252 -1
   vertex 0.108446 0.0246206 -1
  endloop
 endfacet
 facet normal 0 0 -1
  outer loop
   vertex 0.108446 0.0246206 -1
   vertex 0.10754 0.0241252 -1
   vertex 0.107546 0.0245928 -1
  endloop
 endfacet
 facet normal -0 0 -1
  outer loop
   vertex 0.108446 0.0246206 -1
   vertex 0.107546 0.0245928 -1
   vertex 0.108436 0.0251002 -1
  endloop
 endfacet
 facet normal 0 0 -1
  outer loop
   vertex 0.108436 0.0251002 -1
   vertex 0.107546 0.0245928 -1
   vertex 0.107537 0.0250603 -1
  endloop
 endfacet
 facet normal -0 0 -1
  outer loop
   vertex 0.108436 0.0251002 -1
   vertex 0.107537 0.0250603 -1
   vertex 0.108411 0.0255792 -1
  endloop
 endfacet
 facet normal 0 0 -1
  outer loop
   vertex 0.108411 0.0255792 -1
   vertex 0.107537 0.0250603 -1
   vertex 0.107513 0.0255273 -1
  endloop
 endfacet
 facet normal -0 0 -1
  outer loop
   vertex 0.108411 0.0255792 -1
   vertex 0.107513 0.0255273 -1
   vertex 0.108372 0.0260571 -1
  endloop
 endfacet
 facet normal 0 0 -1
  outer loop
   vertex 0.108372 0.0260571 -1
   vertex 0.107513 0.0255273 -1
   vertex 0.107473 0.0259933 -1
  endloop
 endfacet
 facet normal -0 0 -1
  outer loop
   vertex 0.108372 0.0260571 -1
   vertex 0.107473 0.0259933 -1
   vertex 0.108317 0.0265337 -1
  endloop
 endfacet
 facet normal 0 0 -1
  outer loop
   vertex 0.108317 0.0265337 -1
   vertex 0.107473 0.0259933 -1
   vertex 0.107419 0.0264578 -1
  endloop
 endfacet
 facet normal -0 0 -1
  outer loop
   vertex 0.108317 0.0265337 -1
   vertex 0.107419 0.0264578 -1
   vertex 0.108248 0.0270082 -1
  endloop
 endfacet
 facet normal 0 0 -1
  outer loop
   vertex 0.108248 0.0270082 -1
   vertex 0.107419 0.0264578 -1
   vertex 0.10735 0.0269203 -1
  endloop
 endfacet
 facet normal -0 0 -1
  outer loop
   vertex 0.108248 0.0270082 -1
   vertex 0.10735 0.0269203 -1
   vertex 0.108164 0.0274805 -1
  endloop
 endfacet
 facet normal 0 0 -1
  outer loop
   vertex 0.108164 0.0274805 -1
   vertex 0.10735 0.0269203 -1
   vertex 0.107266 0.0273803 -1
  endloop
 endfacet
 facet normal -0 0 -1
  outer loop
   vertex 0.108164 0.0274805 -1
   vertex 0.107266 0.0273803 -1
   vertex 0.108065 0.0279499 -1
  endloop
 endfacet
 facet normal 0 0 -1
  outer loop
   vertex 0.108065 0.0279499 -1
   vertex 0.107266 0.0273803 -1
   vertex 0.107168 0.0278374 -1
  endloop
 endfacet
 facet normal -0 0 -1
  outer loop
   vertex 0.108065 0.0279499 -1
   vertex 0.107168 0.0278374 -1
   vertex 0.107952 0.028416 -1
  endloop
 endfacet
 facet normal 0 0 -1
  outer loop
   vertex 0.107952 0.028416 -1
   vertex 0.107168 0.0278374 -1
   vertex 0.107054 0.0282911 -1
  endloop
 endfacet
 facet normal -0 0 -1
  outer loop
   vertex 0.107952 0.028416 -1
   vertex 0.107054 0.0282911 -1
   vertex 0.107825 0.0288783 -1
  endloop
 endfacet
 facet normal 0 0 -1
  outer loop
   vertex 0.107825 0.0288783 -1
   vertex 0.107054 0.0282911 -1
   vertex 0.106927 0.028741 -1
  endloop
 endfacet
 facet normal -0 0 -1
  outer loop
   vertex 0.107825 0.0288783 -1
   vertex 0.106927 0.028741 -1
   vertex 0.107683 0.0293365 -1
  endloop
 endfacet
 facet normal 0 0 -1
  outer loop
   vertex 0.107683 0.0293365 -1
   vertex 0.106927 0.028741 -1
   vertex 0.106785 0.0291865 -1
  endloop
 endfacet
 facet normal -0 0 -1
  outer loop
   vertex 0.107683 0.0293365 -1
   vertex 0.106785 0.0291865 -1
   vertex 0.107527 0.0297901 -1
  endloop
 endfacet
 facet normal 0 0 -1
  outer loop
   vertex 0.107527 0.0297901 -1
   vertex 0.106785 0.0291865 -1
   vertex 0.106628 0.0296272 -1
  endloop
 endfacet
 facet normal -0 0 -1
  outer loop
   vertex 0.107527 0.0297901 -1
   vertex 0.106628 0.0296272 -1
   vertex 0.107357 0.0302386 -1
  endloop
 endfacet
 facet normal 0 0 -1
  outer loop
   vertex 0.107357 0.0302386 -1
   vertex 0.106628 0.0296272 -1
   vertex 0.106458 0.0300626 -1
  endloop
 endfacet
 facet normal -0 0 -1
  outer loop
   vertex 0.107357 0.0302386 -1
   vertex 0.106458 0.0300626 -1
   vertex 0.107173 0.0306816 -1
  endloop
 endfacet
 facet normal 0 0 -1
  outer loop
   vertex 0.107173 0.0306816 -1
   vertex 0.106458 0.0300626 -1
   vertex 0.106273 0.0304924 -1
  endloop
 endfacet
 facet normal -0 0 -1
  outer loop
   vertex 0.107173 0.0306816 -1
   vertex 0.106273 0.0304924 -1
   vertex 0.106976 0.0311187 -1
  endloop
 endfacet
 facet normal 0 0 -1
  outer loop
   vertex 0.106976 0.0311187 -1
   vertex 0.106273 0.0304924 -1
   vertex 0.106075 0.030916 -1
  endloop
 endfacet
 facet normal -0 0 -1
  outer loop
   vertex 0.106976 0.0311187 -1
   vertex 0.106075 0.030916 -1
   vertex 0.106765 0.0315495 -1
  endloop
 endfacet
 facet normal 0 0 -1
  outer loop
   vertex 0.106765 0.0315495 -1
   vertex 0.106075 0.030916 -1
   vertex 0.105864 0.031333 -1
  endloop
 endfacet
 facet normal -0 0 -1
  outer loop
   vertex 0.106765 0.0315495 -1
   vertex 0.105864 0.031333 -1
   vertex 0.106541 0.0319735 -1
  endloop
 endfacet
 facet normal 0 0 -1
  outer loop
   vertex 0.106541 0.0319735 -1
   vertex 0.105864 0.031333 -1
   vertex 0.105639 0.031743 -1
  endloop
 endfacet
 facet normal 0 0 -1
  outer loop
   vertex 0.0946397 0.0399047 -1
   vertex 0.0951157 0.0398463 -1
   vertex 0.0952149 0.0389222 -1
  endloop
 endfacet
 facet normal 0 0 -1
  outer loop
   vertex 0.0952149 0.0389222 -1
   vertex 0.0951157 0.0398463 -1
   vertex 0.0955897 0.0397731 -1
  endloop
 endfacet
 facet normal 0 0 -1
  outer loop
   vertex 0.0952149 0.0389222 -1
   vertex 0.0955897 0.0397731 -1
   vertex 0.0956758 0.0388434 -1
  endloop
 endfacet
 facet normal 0 0 -1
  outer loop
   vertex 0.0956758 0.0388434 -1
   vertex 0.0955897 0.0397731 -1
   vertex 0.0960612 0.0396852 -1
  endloop
 endfacet
 facet normal 0 0 -1
  outer loop
   vertex 0.0956758 0.0388434 -1
   vertex 0.0960612 0.0396852 -1
   vertex 0.096134 0.0387498 -1
  endloop
 endfacet
 facet normal 0 0 -1
  outer loop
   vertex 0.096134 0.0387498 -1
   vertex 0.0960612 0.0396852 -1
   vertex 0.0965297 0.0395827 -1
  endloop
 endfacet
 facet normal 0 0 -1
  outer loop
   vertex 0.096134 0.0387498 -1
   vertex 0.0965297 0.0395827 -1
   vertex 0.0965889 0.0386416 -1
  endloop
 endfacet
 facet normal 0 0 -1
  outer loop
   vertex 0.0965889 0.0386416 -1
   vertex 0.0965297 0.0395827 -1
   vertex 0.0969949 0.0394657 -1
  endloop
 endfacet
 facet normal 0 0 -1
  outer loop
   vertex 0.0965889 0.0386416 -1
   vertex 0.0969949 0.0394657 -1
   vertex 0.0970402 0.0385188 -1
  endloop
 endfacet
 facet normal 0 0 -1
  outer loop
   vertex 0.0970402 0.0385188 -1
   vertex 0.0969949 0.0394657 -1
   vertex 0.0974561 0.0393343 -1
  endloop
 endfacet
 facet normal 0 0 -1
  outer loop
   vertex 0.0970402 0.0385188 -1
   vertex 0.0974561 0.0393343 -1
   vertex 0.0974872 0.0383816 -1
  endloop
 endfacet
 facet normal 0 0 -1
  outer loop
   vertex 0.0974872 0.0383816 -1
   vertex 0.0974561 0.0393343 -1
   vertex 0.0979131 0.0391887 -1
  endloop
 endfacet
 facet normal 0 0 -1
  outer loop
   vertex 0.0974872 0.0383816 -1
   vertex 0.0979131 0.0391887 -1
   vertex 0.0979296 0.0382301 -1
  endloop
 endfacet
 facet normal 0 0 -1
  outer loop
   vertex 0.0979296 0.0382301 -1
   vertex 0.0979131 0.0391887 -1
   vertex 0.0983654 0.039029 -1
  endloop
 endfacet
 facet normal 0 0 -1
  outer loop
   vertex 0.0979296 0.0382301 -1
   vertex 0.0983654 0.039029 -1
   vertex 0.0983669 0.0380644 -1
  endloop
 endfacet
 facet normal 0 0 -1
  outer loop
   vertex 0.0983669 0.0380644 -1
   vertex 0.0983654 0.039029 -1
   vertex 0.0988125 0.0388553 -1
  endloop
 endfacet
 facet normal 0 0 -1
  outer loop
   vertex 0.0983669 0.0380644 -1
   vertex 0.0988125 0.0388553 -1
   vertex 0.0987987 0.0378848 -1
  endloop
 endfacet
 facet normal 0 0 -1
  outer loop
   vertex 0.0987987 0.0378848 -1
   vertex 0.0988125 0.0388553 -1
   vertex 0.0992539 0.0386678 -1
  endloop
 endfacet
 facet normal 0 0 -1
  outer loop
   vertex 0.0987987 0.0378848 -1
   vertex 0.0992539 0.0386678 -1
   vertex 0.0992244 0.0376914 -1
  endloop
 endfacet
 facet normal 0 0 -1
  outer loop
   vertex 0.0992244 0.0376914 -1
   vertex 0.0992539 0.0386678 -1
   vertex 0.0996894 0.0384668 -1
  endloop
 endfacet
 facet normal 0 0 -1
  outer loop
   vertex 0.0992244 0.0376914 -1
   vertex 0.0996894 0.0384668 -1
   vertex 0.0996437 0.0374844 -1
  endloop
 endfacet
 facet normal 0 0 -1
  outer loop
   vertex 0.0996437 0.0374844 -1
   vertex 0.0996894 0.0384668 -1
   vertex 0.100118 0.0382522 -1
  endloop
 endfacet
 facet normal 0 0 -1
  outer loop
   vertex 0.0996437 0.0374844 -1
   vertex 0.100118 0.0382522 -1
   vertex 0.100056 0.0372641 -1
  endloop
 endfacet
 facet normal 0 0 -1
  outer loop
   vertex 0.100056 0.0372641 -1
   vertex 0.100118 0.0382522 -1
   vertex 0.10054 0.0380245 -1
  endloop
 endfacet
 facet normal 0 0 -1
  outer loop
   vertex 0.100056 0.0372641 -1
   vertex 0.10054 0.0380245 -1
   vertex 0.100461 0.0370306 -1
  endloop
 endfacet
 facet normal 0 0 -1
  outer loop
   vertex 0.100461 0.0370306 -1
   vertex 0.10054 0.0380245 -1
   vertex 0.100955 0.0377838 -1
  endloop
 endfacet
 facet normal 0 0 -1
  outer loop
   vertex 0.100461 0.0370306 -1
   vertex 0.100955 0.0377838 -1
   vertex 0.100859 0.0367842 -1
  endloop
 endfacet
 facet normal 0 0 -1
  outer loop
   vertex 0.100859 0.0367842 -1
   vertex 0.100955 0.0377838 -1
   vertex 0.101362 0.0375303 -1
  endloop
 endfacet
 facet normal 0 0 -1
  outer loop
   vertex 0.100859 0.0367842 -1
   vertex 0.101362 0.0375303 -1
   vertex 0.101248 0.0365252 -1
  endloop
 endfacet
 facet normal 0 0 -1
  outer loop
   vertex 0.101248 0.0365252 -1
   vertex 0.101362 0.0375303 -1
   vertex 0.101762 0.0372644 -1
  endloop
 endfacet
 facet normal 0 0 -1
  outer loop
   vertex 0.101248 0.0365252 -1
   vertex 0.101762 0.0372644 -1
   vertex 0.101629 0.0362538 -1
  endloop
 endfacet
 facet normal 0 0 -1
  outer loop
   vertex 0.101629 0.0362538 -1
   vertex 0.101762 0.0372644 -1
   vertex 0.102152 0.0369861 -1
  endloop
 endfacet
 facet normal 0 0 -1
  outer loop
   vertex 0.101629 0.0362538 -1
   vertex 0.102152 0.0369861 -1
   vertex 0.102001 0.0359703 -1
  endloop
 endfacet
 facet normal 0 0 -1
  outer loop
   vertex 0.102001 0.0359703 -1
   vertex 0.102152 0.0369861 -1
   vertex 0.102534 0.0366959 -1
  endloop
 endfacet
 facet normal 0 0 -1
  outer loop
   vertex 0.102001 0.0359703 -1
   vertex 0.102534 0.0366959 -1
   vertex 0.102363 0.035675 -1
  endloop
 endfacet
 facet normal 0 0 -1
  outer loop
   vertex 0.102363 0.035675 -1
   vertex 0.102534 0.0366959 -1
   vertex 0.102907 0.036394 -1
  endloop
 endfacet
 facet normal 0 0 -1
  outer loop
   vertex 0.102363 0.035675 -1
   vertex 0.102907 0.036394 -1
   vertex 0.102716 0.0353682 -1
  endloop
 endfacet
 facet normal 0 0 -1
  outer loop
   vertex 0.102716 0.0353682 -1
   vertex 0.102907 0.036394 -1
   vertex 0.10327 0.0360806 -1
  endloop
 endfacet
 facet normal 0 0 -1
  outer loop
   vertex 0.102716 0.0353682 -1
   vertex 0.10327 0.0360806 -1
   vertex 0.103059 0.0350502 -1
  endloop
 endfacet
 facet normal 0 0 -1
  outer loop
   vertex 0.103059 0.0350502 -1
   vertex 0.10327 0.0360806 -1
   vertex 0.103623 0.0357561 -1
  endloop
 endfacet
 facet normal 0 0 -1
  outer loop
   vertex 0.103059 0.0350502 -1
   vertex 0.103623 0.0357561 -1
   vertex 0.103392 0.0347214 -1
  endloop
 endfacet
 facet normal 0 0 -1
  outer loop
   vertex 0.103392 0.0347214 -1
   vertex 0.103623 0.0357561 -1
   vertex 0.103966 0.0354208 -1
  endloop
 endfacet
 facet normal 0 0 -1
  outer loop
   vertex 0.103392 0.0347214 -1
   vertex 0.103966 0.0354208 -1
   vertex 0.103714 0.034382 -1
  endloop
 endfacet
 facet normal 0 0 -1
  outer loop
   vertex 0.103714 0.034382 -1
   vertex 0.103966 0.0354208 -1
   vertex 0.104298 0.0350751 -1
  endloop
 endfacet
 facet normal 0 0 -1
  outer loop
   vertex 0.103714 0.034382 -1
   vertex 0.104298 0.0350751 -1
   vertex 0.104024 0.0340325 -1
  endloop
 endfacet
 facet normal 0 0 -1
  outer loop
   vertex 0.104024 0.0340325 -1
   vertex 0.104298 0.0350751 -1
   vertex 0.10462 0.0347192 -1
  endloop
 endfacet
 facet normal 0 0 -1
  outer loop
   vertex 0.104024 0.0340325 -1
   vertex 0.10462 0.0347192 -1
   vertex 0.104323 0.0336732 -1
  endloop
 endfacet
 facet normal 0 0 -1
  outer loop
   vertex 0.104323 0.0336732 -1
   vertex 0.10462 0.0347192 -1
   vertex 0.10493 0.0343534 -1
  endloop
 endfacet
 facet normal 0 0 -1
  outer loop
   vertex 0.104323 0.0336732 -1
   vertex 0.10493 0.0343534 -1
   vertex 0.104611 0.0333045 -1
  endloop
 endfacet
 facet normal 0 0 -1
  outer loop
   vertex 0.104611 0.0333045 -1
   vertex 0.10493 0.0343534 -1
   vertex 0.105229 0.0339783 -1
  endloop
 endfacet
 facet normal 0 0 -1
  outer loop
   vertex 0.104611 0.0333045 -1
   vertex 0.105229 0.0339783 -1
   vertex 0.104887 0.0329267 -1
  endloop
 endfacet
 facet normal 0 0 -1
  outer loop
   vertex 0.104887 0.0329267 -1
   vertex 0.105229 0.0339783 -1
   vertex 0.105516 0.033594 -1
  endloop
 endfacet
 facet normal 0 0 -1
  outer loop
   vertex 0.104887 0.0329267 -1
   vertex 0.105516 0.033594 -1
   vertex 0.10515 0.0325402 -1
  endloop
 endfacet
 facet normal 0 0 -1
  outer loop
   vertex 0.10515 0.0325402 -1
   vertex 0.105516 0.033594 -1
   vertex 0.105791 0.033201 -1
  endloop
 endfacet
 facet normal 0 0 -1
  outer loop
   vertex 0.10515 0.0325402 -1
   vertex 0.105791 0.033201 -1
   vertex 0.105401 0.0321455 -1
  endloop
 endfacet
 facet normal 0 0 -1
  outer loop
   vertex 0.105401 0.0321455 -1
   vertex 0.105791 0.033201 -1
   vertex 0.106054 0.0327997 -1
  endloop
 endfacet
 facet normal 0 0 -1
  outer loop
   vertex 0.105401 0.0321455 -1
   vertex 0.106054 0.0327997 -1
   vertex 0.105639 0.031743 -1
  endloop
 endfacet
 facet normal 0 0 -1
  outer loop
   vertex 0.105639 0.031743 -1
   vertex 0.106054 0.0327997 -1
   vertex 0.106304 0.0323904 -1
  endloop
 endfacet
 facet normal 0 0 -1
  outer loop
   vertex 0.105639 0.031743 -1
   vertex 0.106304 0.0323904 -1
   vertex 0.106541 0.0319735 -1
  endloop
 endfacet
 facet normal -0 0 1
  outer loop
   vertex 0.0927242 0.0399903 1
   vertex 0.0927295 0.0396903 1
   vertex 0.0932038 0.0399913 1
  endloop
 endfacet
 facet normal 0 0 1
  outer loop
   vertex 0.0932038 0.0399913 1
   vertex 0.0927295 0.0396903 1
   vertex 0.093353 0.0390882 1
  endloop
 endfacet
 facet normal 0 0 1
  outer loop
   vertex 0.0932038 0.0399913 1
   vertex 0.093353 0.0390882 1
   vertex 0.0936832 0.0399773 1
  endloop
 endfacet
 facet normal 0 0 1
  outer loop
   vertex 0.0936832 0.0399773 1
   vertex 0.093353 0.0390882 1
   vertex 0.0938202 0.0390692 1
  endloop
 endfacet
 facet normal 0 0 1
  outer loop
   vertex 0.0936832 0.0399773 1
   vertex 0.0938202 0.0390692 1
   vertex 0.094162 0.0399484 1
  endloop
 endfacet
 facet normal 0 0 1
  outer loop
   vertex 0.094162 0.0399484 1
   vertex 0.0938202 0.0390692 1
   vertex 0.0942866 0.0390351 1
  endloop
 endfacet
 facet normal 0 0 1
  outer loop
   vertex 0.094162 0.0399484 1
   vertex 0.0942866 0.0390351 1
   vertex 0.0946397 0.0399047 1
  endloop
 endfacet
 facet normal 0 0 1
  outer loop
   vertex 0.0946397 0.0399047 1
   vertex 0.0942866 0.0390351 1
   vertex 0.0947516 0.0389861 1
  endloop
 endfacet
 facet normal 0 0 1
  outer loop
   vertex 0.0946397 0.0399047 1
   vertex 0.0947516 0.0389861 1
   vertex 0.0951157 0.0398463 1
  endloop
 endfacet
 facet normal 0 0 1
  outer loop
   vertex 0.0951157 0.0398463 1
   vertex 0.0947516 0.0389861 1
   vertex 0.0952149 0.0389222 1
  endloop
 endfacet
 facet normal 0 0 1
  outer loop
   vertex 0.0951157 0.0398463 1
   vertex 0.0952149 0.0389222 1
   vertex 0.0955897 0.0397731 1
  endloop
 endfacet
 facet normal 0 0 1
  outer loop
   vertex 0.0955897 0.0397731 1
   vertex 0.0952149 0.0389222 1
   vertex 0.0956758 0.0388434 1
  endloop
 endfacet
 facet normal -0 0 1
  outer loop
   vertex 0.107367 0.0222639 1
   vertex 0.107663 0.022217 1
   vertex 0.107433 0.0227269 1
  endloop
 endfacet
 facet normal 0 0 1
  outer loop
   vertex 0.107433 0.0227269 1
   vertex 0.107663 0.022217 1
   vertex 0.108337 0.0227064 1
  endloop
 endfacet
 facet normal -0 0 1
  outer loop
   vertex 0.107433 0.0227269 1
   vertex 0.108337 0.0227064 1
   vertex 0.107484 0.0231917 1
  endloop
 endfacet
 facet normal 0 0 1
  outer loop
   vertex 0.107484 0.0231917 1
   vertex 0.108337 0.0227064 1
   vertex 0.108386 0.0231835 1
  endloop
 endfacet
 facet normal -0 0 1
  outer loop
   vertex 0.107484 0.0231917 1
   vertex 0.108386 0.0231835 1
   vertex 0.107519 0.023658 1
  endloop
 endfacet
 facet normal -0 0 1
  outer loop
   vertex 0.107519 0.023658 1
   vertex 0.108386 0.0231835 1
   vertex 0.108421 0.0236618 1
  endloop
 endfacet
 facet normal 0 0 1
  outer loop
   vertex 0.107519 0.023658 1
   vertex 0.108421 0.0236618 1
   vertex 0.10754 0.0241252 1
  endloop
 endfacet
 facet normal -0 0 1
  outer loop
   vertex 0.10754 0.0241252 1
   vertex 0.108421 0.0236618 1
   vertex 0.108441 0.024141 1
  endloop
 endfacet
 facet normal 0 0 1
  outer loop
   vertex 0.10754 0.0241252 1
   vertex 0.108441 0.024141 1
   vertex 0.107546 0.0245928 1
  endloop
 endfacet
 facet normal -0 0 1
  outer loop
   vertex 0.107546 0.0245928 1
   vertex 0.108441 0.024141 1
   vertex 0.108446 0.0246206 1
  endloop
 endfacet
 facet normal 0 -0 1
  outer loop
   vertex 0.107546 0.0245928 1
   vertex 0.108446 0.0246206 1
   vertex 0.107537 0.0250603 1
  endloop
 endfacet
 facet normal -0 0 1
  outer loop
   vertex 0.107537 0.0250603 1
   vertex 0.108446 0.0246206 1
   vertex 0.108436 0.0251002 1
  endloop
 endfacet
 facet normal 0 -0 1
  outer loop
   vertex 0.107537 0.0250603 1
   vertex 0.108436 0.0251002 1
   vertex 0.107513 0.0255273 1
  endloop
 endfacet
 facet normal -0 0 1
  outer loop
   vertex 0.107513 0.0255273 1
   vertex 0.108436 0.0251002 1
   vertex 0.108411 0.0255792 1
  endloop
 endfacet
 facet normal 0 -0 1
  outer loop
   vertex 0.107513 0.0255273 1
   vertex 0.108411 0.0255792 1
   vertex 0.107473 0.0259933 1
  endloop
 endfacet
 facet normal -0 0 1
  outer loop
   vertex 0.107473 0.0259933 1
   vertex 0.108411 0.0255792 1
   vertex 0.108372 0.0260571 1
  endloop
 endfacet
 facet normal 0 -0 1
  outer loop
   vertex 0.107473 0.0259933 1
   vertex 0.108372 0.0260571 1
   vertex 0.107419 0.0264578 1
  endloop
 endfacet
 facet normal -0 0 1
  outer loop
   vertex 0.107419 0.0264578 1
   vertex 0.108372 0.0260571 1
   vertex 0.108317 0.0265337 1
  endloop
 endfacet
 facet normal 0 -0 1
  outer loop
   vertex 0.107419 0.0264578 1
   vertex 0.108317 0.0265337 1
   vertex 0.10735 0.0269203 1
  endloop
 endfacet
 facet normal -0 0 1
  outer loop
   vertex 0.10735 0.0269203 1
   vertex 0.108317 0.0265337 1
   vertex 0.108248 0.0270082 1
  endloop
 endfacet
 facet normal 0 -0 1
  outer loop
   vertex 0.10735 0.0269203 1
   vertex 0.108248 0.0270082 1
   vertex 0.107266 0.0273803 1
  endloop
 endfacet
 facet normal -0 0 1
  outer loop
   vertex 0.107266 0.0273803 1
   vertex 0.108248 0.0270082 1
   vertex 0.108164 0.0274805 1
  endloop
 endfacet
 facet normal 0 -0 1
  outer loop
   vertex 0.107266 0.0273803 1
   vertex 0.108164 0.0274805 1
   vertex 0.107168 0.0278374 1
  endloop
 endfacet
 facet normal -0 0 1
  outer loop
   vertex 0.107168 0.0278374 1
   vertex 0.108164 0.0274805 1
   vertex 0.108065 0.0279499 1
  endloop
 endfacet
 facet normal 0 -0 1
  outer loop
   vertex 0.107168 0.0278374 1
   vertex 0.108065 0.0279499 1
   vertex 0.107054 0.0282911 1
  endloop
 endfacet
 facet normal -0 0 1
  outer loop
   vertex 0.107054 0.0282911 1
   vertex 0.108065 0.0279499 1
   vertex 0.107952 0.028416 1
  endloop
 endfacet
 facet normal 0 -0 1
  outer loop
   vertex 0.107054 0.0282911 1
   vertex 0.107952 0.028416 1
   vertex 0.106927 0.028741 1
  endloop
 endfacet
 facet normal -0 0 1
  outer loop
   vertex 0.106927 0.028741 1
   vertex 0.107952 0.028416 1
   vertex 0.107825 0.0288783 1
  endloop
 endfacet
 facet normal 0 -0 1
  outer loop
   vertex 0.106927 0.028741 1
   vertex 0.107825 0.0288783 1
   vertex 0.106785 0.0291865 1
  endloop
 endfacet
 facet normal -0 0 1
  outer loop
   vertex 0.106785 0.0291865 1
   vertex 0.107825 0.0288783 1
   vertex 0.107683 0.0293365 1
  endloop
 endfacet
 facet normal 0 -0 1
  outer loop
   vertex 0.106785 0.0291865 1
   vertex 0.107683 0.0293365 1
   vertex 0.106628 0.0296272 1
  endloop
 endfacet
 facet normal -0 0 1
  outer loop
   vertex 0.106628 0.0296272 1
   vertex 0.107683 0.0293365 1
   vertex 0.107527 0.0297901 1
  endloop
 endfacet
 facet normal 0 -0 1
  outer loop
   vertex 0.106628 0.0296272 1
   vertex 0.107527 0.0297901 1
   vertex 0.106458 0.0300626 1
  endloop
 endfacet
 facet normal -0 0 1
  outer loop
   vertex 0.106458 0.0300626 1
   vertex 0.107527 0.0297901 1
   vertex 0.107357 0.0302386 1
  endloop
 endfacet
 facet normal 0 -0 1
  outer loop
   vertex 0.106458 0.0300626 1
   vertex 0.107357 0.0302386 1
   vertex 0.106273 0.0304924 1
  endloop
 endfacet
 facet normal -0 0 1
  outer loop
   vertex 0.106273 0.0304924 1
   vertex 0.107357 0.0302386 1
   vertex 0.107173 0.0306816 1
  endloop
 endfacet
 facet normal 0 -0 1
  outer loop
   vertex 0.106273 0.0304924 1
   vertex 0.107173 0.0306816 1
   vertex 0.106075 0.030916 1
  endloop
 endfacet
 facet normal -0 0 1
  outer loop
   vertex 0.106075 0.030916 1
   vertex 0.107173 0.0306816 1
   vertex 0.106976 0.0311187 1
  endloop
 endfacet
 facet normal 0 -0 1
  outer loop
   vertex 0.106075 0.030916 1
   vertex 0.106976 0.0311187 1
   vertex 0.105864 0.031333 1
  endloop
 endfacet
 facet normal 0 0 1
  outer loop
   vertex 0.106976 0.0311187 1
   vertex 0.106765 0.0315495 1
   vertex 0.105864 0.031333 1
  endloop
 endfacet
 facet normal 0 0 1
  outer loop
   vertex 0.105864 0.031333 1
   vertex 0.106765 0.0315495 1
   vertex 0.106541 0.0319735 1
  endloop
 endfacet
 facet normal 0 -0 1
  outer loop
   vertex 0.105864 0.031333 1
   vertex 0.106541 0.0319735 1
   vertex 0.105639 0.031743 1
  endloop
 endfacet
 facet normal 0 0 1
  outer loop
   vertex 0.105639 0.031743 1
   vertex 0.106541 0.0319735 1
   vertex 0.106304 0.0323904 1
  endloop
 endfacet
 facet normal 0 -0 1
  outer loop
   vertex 0.105639 0.031743 1
   vertex 0.106304 0.0323904 1
   vertex 0.105401 0.0321455 1
  endloop
 endfacet
 facet normal 0 0 1
  outer loop
   vertex 0.105401 0.0321455 1
   vertex 0.106304 0.0323904 1
   vertex 0.106054 0.0327997 1
  endloop
 endfacet
 facet normal 0 -0 1
  outer loop
   vertex 0.105401 0.0321455 1
   vertex 0.106054 0.0327997 1
   vertex 0.10515 0.0325402 1
  endloop
 endfacet
 facet normal 0 0 1
  outer loop
   vertex 0.10515 0.0325402 1
   vertex 0.106054 0.0327997 1
   vertex 0.105791 0.033201 1
  endloop
 endfacet
 facet normal 0 -0 1
  outer loop
   vertex 0.10515 0.0325402 1
   vertex 0.105791 0.033201 1
   vertex 0.104887 0.0329267 1
  endloop
 endfacet
 facet normal 0 0 1
  outer loop
   vertex 0.104887 0.0329267 1
   vertex 0.105791 0.033201 1
   vertex 0.105516 0.033594 1
  endloop
 endfacet
 facet normal 0 -0 1
  outer loop
   vertex 0.104887 0.0329267 1
   vertex 0.105516 0.033594 1
   vertex 0.104611 0.0333045 1
  endloop
 endfacet
 facet normal 0 0 1
  outer loop
   vertex 0.104611 0.0333045 1
   vertex 0.105516 0.033594 1
   vertex 0.105229 0.0339783 1
  endloop
 endfacet
 facet normal 0 -0 1
  outer loop
   vertex 0.104611 0.0333045 1
   vertex 0.105229 0.0339783 1
   vertex 0.104323 0.0336732 1
  endloop
 endfacet
 facet normal 0 0 1
  outer loop
   vertex 0.104323 0.0336732 1
   vertex 0.105229 0.0339783 1
   vertex 0.10493 0.0343534 1
  endloop
 endfacet
 facet normal 0 -0 1
  outer loop
   vertex 0.104323 0.0336732 1
   vertex 0.10493 0.0343534 1
   vertex 0.104024 0.0340325 1
  endloop
 endfacet
 facet normal 0 0 1
  outer loop
   vertex 0.104024 0.0340325 1
   vertex 0.10493 0.0343534 1
   vertex 0.10462 0.0347192 1
  endloop
 endfacet
 facet normal 0 -0 1
  outer loop
   vertex 0.104024 0.0340325 1
   vertex 0.10462 0.0347192 1
   vertex 0.103714 0.034382 1
  endloop
 endfacet
 facet normal 0 0 1
  outer loop
   vertex 0.103714 0.034382 1
   vertex 0.10462 0.0347192 1
   vertex 0.104298 0.0350751 1
  endloop
 endfacet
 facet normal 0 -0 1
  outer loop
   vertex 0.103714 0.034382 1
   vertex 0.104298 0.0350751 1
   vertex 0.103392 0.0347214 1
  endloop
 endfacet
 facet normal 0 0 1
  outer loop
   vertex 0.103392 0.0347214 1
   vertex 0.104298 0.0350751 1
   vertex 0.103966 0.0354208 1
  endloop
 endfacet
 facet normal 0 -0 1
  outer loop
   vertex 0.103392 0.0347214 1
   vertex 0.103966 0.0354208 1
   vertex 0.103059 0.0350502 1
  endloop
 endfacet
 facet normal 0 0 1
  outer loop
   vertex 0.103059 0.0350502 1
   vertex 0.103966 0.0354208 1
   vertex 0.103623 0.0357561 1
  endloop
 endfacet
 facet normal 0 -0 1
  outer loop
   vertex 0.103059 0.0350502 1
   vertex 0.103623 0.0357561 1
   vertex 0.102716 0.0353682 1
  endloop
 endfacet
 facet normal 0 0 1
  outer loop
   vertex 0.102716 0.0353682 1
   vertex 0.103623 0.0357561 1
   vertex 0.10327 0.0360806 1
  endloop
 endfacet
 facet normal 0 -0 1
  outer loop
   vertex 0.102716 0.0353682 1
   vertex 0.10327 0.0360806 1
   vertex 0.102363 0.035675 1
  endloop
 endfacet
 facet normal 0 0 1
  outer loop
   vertex 0.102363 0.035675 1
   vertex 0.10327 0.0360806 1
   vertex 0.102907 0.036394 1
  endloop
 endfacet
 facet normal 0 -0 1
  outer loop
   vertex 0.102363 0.035675 1
   vertex 0.102907 0.036394 1
   vertex 0.102001 0.0359703 1
  endloop
 endfacet
 facet normal 0 0 1
  outer loop
   vertex 0.102001 0.0359703 1
   vertex 0.102907 0.036394 1
   vertex 0.102534 0.0366959 1
  endloop
 endfacet
 facet normal 0 -0 1
  outer loop
   vertex 0.102001 0.0359703 1
   vertex 0.102534 0.0366959 1
   vertex 0.101629 0.0362538 1
  endloop
 endfacet
 facet normal 0 0 1
  outer loop
   vertex 0.101629 0.0362538 1
   vertex 0.102534 0.0366959 1
   vertex 0.102152 0.0369861 1
  endloop
 endfacet
 facet normal 0 -0 1
  outer loop
   vertex 0.101629 0.0362538 1
   vertex 0.102152 0.0369861 1
   vertex 0.101248 0.0365252 1
  endloop
 endfacet
 facet normal 0 0 1
  outer loop
   vertex 0.101248 0.0365252 1
   vertex 0.102152 0.0369861 1
   vertex 0.101762 0.0372644 1
  endloop
 endfacet
 facet normal 0 -0 1
  outer loop
   vertex 0.101248 0.0365252 1
   vertex 0.101762 0.0372644 1
   vertex 0.100859 0.0367842 1
  endloop
 endfacet
 facet normal 0 0 1
  outer loop
   vertex 0.100859 0.0367842 1
   vertex 0.101762 0.0372644 1
   vertex 0.101362 0.0375303 1
  endloop
 endfacet
 facet normal 0 -0 1
  outer loop
   vertex 0.100859 0.0367842 1
   vertex 0.101362 0.0375303 1
   vertex 0.100461 0.0370306 1
  endloop
 endfacet
 facet normal 0 0 1
  outer loop
   vertex 0.100461 0.0370306 1
   vertex 0.101362 0.0375303 1
   vertex 0.100955 0.0377838 1
  endloop
 endfacet
 facet normal 0 -0 1
  outer loop
   vertex 0.100461 0.0370306 1
   vertex 0.100955 0.0377838 1
   vertex 0.100056 0.0372641 1
  endloop
 endfacet
 facet normal 0 0 1
  outer loop
   vertex 0.100056 0.0372641 1
   vertex 0.100955 0.0377838 1
   vertex 0.10054 0.0380245 1
  endloop
 endfacet
 facet normal 0 -0 1
  outer loop
   vertex 0.100056 0.0372641 1
   vertex 0.10054 0.0380245 1
   vertex 0.0996437 0.0374844 1
  endloop
 endfacet
 facet normal 0 0 1
  outer loop
   vertex 0.0996437 0.0374844 1
   vertex 0.10054 0.0380245 1
   vertex 0.100118 0.0382522 1
  endloop
 endfacet
 facet normal 0 -0 1
  outer loop
   vertex 0.0996437 0.0374844 1
   vertex 0.100118 0.0382522 1
   vertex 0.0992244 0.0376914 1
  endloop
 endfacet
 facet normal 0 0 1
  outer loop
   vertex 0.0992244 0.0376914 1
   vertex 0.100118 0.0382522 1
   vertex 0.0996894 0.0384668 1
  endloop
 endfacet
 facet normal 0 -0 1
  outer loop
   vertex 0.0992244 0.0376914 1
   vertex 0.0996894 0.0384668 1
   vertex 0.0987987 0.0378848 1
  endloop
 endfacet
 facet normal 0 0 1
  outer loop
   vertex 0.0987987 0.0378848 1
   vertex 0.0996894 0.0384668 1
   vertex 0.0992539 0.0386678 1
  endloop
 endfacet
 facet normal 0 -0 1
  outer loop
   vertex 0.0987987 0.0378848 1
   vertex 0.0992539 0.0386678 1
   vertex 0.0983669 0.0380644 1
  endloop
 endfacet
 facet normal 0 0 1
  outer loop
   vertex 0.0983669 0.0380644 1
   vertex 0.0992539 0.0386678 1
   vertex 0.0988125 0.0388553 1
  endloop
 endfacet
 facet normal 0 -0 1
  outer loop
   vertex 0.0983669 0.0380644 1
   vertex 0.0988125 0.0388553 1
   vertex 0.0979296 0.0382301 1
  endloop
 endfacet
 facet normal 0 0 1
  outer loop
   vertex 0.0979296 0.0382301 1
   vertex 0.0988125 0.0388553 1
   vertex 0.0983654 0.039029 1
  endloop
 endfacet
 facet normal 0 -0 1
  outer loop
   vertex 0.0979296 0.0382301 1
   vertex 0.0983654 0.039029 1
   vertex 0.0974872 0.0383816 1
  endloop
 endfacet
 facet normal 0 0 1
  outer loop
   vertex 0.0974872 0.0383816 1
   vertex 0.0983654 0.039029 1
   vertex 0.0979131 0.0391887 1
  endloop
 endfacet
 facet normal 0 -0 1
  outer loop
   vertex 0.0974872 0.0383816 1
   vertex 0.0979131 0.0391887 1
   vertex 0.0970402 0.0385188 1
  endloop
 endfacet
 facet normal 0 0 1
  outer loop
   vertex 0.0970402 0.0385188 1
   vertex 0.0979131 0.0391887 1
   vertex 0.0974561 0.0393343 1
  endloop
 endfacet
 facet normal 0 -0 1
  outer loop
   vertex 0.0970402 0.0385188 1
   vertex 0.0974561 0.0393343 1
   vertex 0.0965889 0.0386416 1
  endloop
 endfacet
 facet normal 0 0 1
  outer loop
   vertex 0.0965889 0.0386416 1
   vertex 0.0974561 0.0393343 1
   vertex 0.0969949 0.0394657 1
  endloop
 endfacet
 facet normal 0 -0 1
  outer loop
   vertex 0.0965889 0.0386416 1
   vertex 0.0969949 0.0394657 1
   vertex 0.096134 0.0387498 1
  endloop
 endfacet
 facet normal 0 0 1
  outer loop
   vertex 0.096134 0.0387498 1
   vertex 0.0969949 0.0394657 1
   vertex 0.0965297 0.0395827 1
  endloop
 endfacet
 facet normal 0 -0 1
  outer loop
   vertex 0.096134 0.0387498 1
   vertex 0.0965297 0.0395827 1
   vertex 0.0956758 0.0388434 1
  endloop
 endfacet
 facet normal 0 0 1
  outer loop
   vertex 0.0956758 0.0388434 1
   vertex 0.0965297 0.0395827 1
   vertex 0.0960612 0.0396852 1
  endloop
 endfacet
 facet normal 0 -0 1
  outer loop
   vertex 0.0956758 0.0388434 1
   vertex 0.0960612 0.0396852 1
   vertex 0.0955897 0.0397731 1
  endloop
 endfacet
 facet normal 0.587564 -0.809177 0
  outer loop
   vertex 0.108337 0.0227064 1
   vertex 0.107663 0.022217 1
   vertex 0.108337 0.0227064 -1
  endloop
 endfacet
 facet normal 0.587564 -0.809177 0
  outer loop
   vertex 0.108337 0.0227064 -1
   vertex 0.107663 0.022217 1
   vertex 0.107663 0.022217 -1
  endloop
 endfacet
 facet normal -0.694671 -0.719327 -0
  outer loop
   vertex 0.093353 0.0390882 1
   vertex 0.0927295 0.0396903 1
   vertex 0.093353 0.0390882 -1
  endloop
 endfacet
 facet normal -0.694671 -0.719327 0
  outer loop
   vertex 0.093353 0.0390882 -1
   vertex 0.0927295 0.0396903 1
   vertex 0.0927295 0.0396903 -1
  endloop
 endfacet
endsolid tunner_vane
