solid tunner_vane
 facet normal -0.00193896 0.999998 0
  outer loop
   vertex 0.698828 0.110902 -1
   vertex 0.698828 0.110902 1
   vertex 0.702025 0.110908 1
  endloop
 endfacet
 facet normal -0.00193896 0.999998 0
  outer loop
   vertex 0.698828 0.110902 -1
   vertex 0.702025 0.110908 1
   vertex 0.702025 0.110908 -1
  endloop
 endfacet
 facet normal 0.0290779 0.999577 -0
  outer loop
   vertex 0.702025 0.110908 -1
   vertex 0.702025 0.110908 1
   vertex 0.705222 0.110815 1
  endloop
 endfacet
 facet normal 0.0290779 0.999577 0
  outer loop
   vertex 0.702025 0.110908 -1
   vertex 0.705222 0.110815 1
   vertex 0.705222 0.110815 -1
  endloop
 endfacet
 facet normal 0.0601227 0.998191 -0
  outer loop
   vertex 0.705222 0.110815 -1
   vertex 0.705222 0.110815 1
   vertex 0.708413 0.110623 1
  endloop
 endfacet
 facet normal 0.0601227 0.998191 0
  outer loop
   vertex 0.705222 0.110815 -1
   vertex 0.708413 0.110623 1
   vertex 0.708413 0.110623 -1
  endloop
 endfacet
 facet normal 0.0910491 0.995846 -0
  outer loop
   vertex 0.708413 0.110623 -1
   vertex 0.708413 0.110623 1
   vertex 0.711598 0.110332 1
  endloop
 endfacet
 facet normal 0.0910491 0.995846 0
  outer loop
   vertex 0.708413 0.110623 -1
   vertex 0.711598 0.110332 1
   vertex 0.711598 0.110332 -1
  endloop
 endfacet
 facet normal 0.121963 0.992535 -0
  outer loop
   vertex 0.711598 0.110332 -1
   vertex 0.711598 0.110332 1
   vertex 0.714771 0.109942 1
  endloop
 endfacet
 facet normal 0.121963 0.992535 0
  outer loop
   vertex 0.711598 0.110332 -1
   vertex 0.714771 0.109942 1
   vertex 0.714771 0.109942 -1
  endloop
 endfacet
 facet normal 0.152652 0.98828 -0
  outer loop
   vertex 0.714771 0.109942 -1
   vertex 0.714771 0.109942 1
   vertex 0.717931 0.109454 1
  endloop
 endfacet
 facet normal 0.152652 0.98828 0
  outer loop
   vertex 0.714771 0.109942 -1
   vertex 0.717931 0.109454 1
   vertex 0.717931 0.109454 -1
  endloop
 endfacet
 facet normal 0.18326 0.983064 -0
  outer loop
   vertex 0.717931 0.109454 -1
   vertex 0.717931 0.109454 1
   vertex 0.721075 0.108868 1
  endloop
 endfacet
 facet normal 0.18326 0.983064 0
  outer loop
   vertex 0.717931 0.109454 -1
   vertex 0.721075 0.108868 1
   vertex 0.721075 0.108868 -1
  endloop
 endfacet
 facet normal 0.213711 0.976897 -0
  outer loop
   vertex 0.721075 0.108868 -1
   vertex 0.721075 0.108868 1
   vertex 0.724198 0.108184 1
  endloop
 endfacet
 facet normal 0.213711 0.976897 0
  outer loop
   vertex 0.721075 0.108868 -1
   vertex 0.724198 0.108184 1
   vertex 0.724198 0.108184 -1
  endloop
 endfacet
 facet normal 0.243904 0.969799 -0
  outer loop
   vertex 0.724198 0.108184 -1
   vertex 0.724198 0.108184 1
   vertex 0.727299 0.107405 1
  endloop
 endfacet
 facet normal 0.243904 0.969799 0
  outer loop
   vertex 0.724198 0.108184 -1
   vertex 0.727299 0.107405 1
   vertex 0.727299 0.107405 -1
  endloop
 endfacet
 facet normal 0.27392 0.961753 -0
  outer loop
   vertex 0.727299 0.107405 -1
   vertex 0.727299 0.107405 1
   vertex 0.730374 0.106529 1
  endloop
 endfacet
 facet normal 0.27392 0.961753 0
  outer loop
   vertex 0.727299 0.107405 -1
   vertex 0.730374 0.106529 1
   vertex 0.730374 0.106529 -1
  endloop
 endfacet
 facet normal 0.303541 0.952818 -0
  outer loop
   vertex 0.730374 0.106529 -1
   vertex 0.730374 0.106529 1
   vertex 0.733421 0.105558 1
  endloop
 endfacet
 facet normal 0.303541 0.952818 0
  outer loop
   vertex 0.730374 0.106529 -1
   vertex 0.733421 0.105558 1
   vertex 0.733421 0.105558 -1
  endloop
 endfacet
 facet normal 0.333012 0.942923 -0
  outer loop
   vertex 0.733421 0.105558 -1
   vertex 0.733421 0.105558 1
   vertex 0.736436 0.104493 1
  endloop
 endfacet
 facet normal 0.333012 0.942923 0
  outer loop
   vertex 0.733421 0.105558 -1
   vertex 0.736436 0.104493 1
   vertex 0.736436 0.104493 -1
  endloop
 endfacet
 facet normal 0.362178 0.932109 -0
  outer loop
   vertex 0.736436 0.104493 -1
   vertex 0.736436 0.104493 1
   vertex 0.739416 0.103335 1
  endloop
 endfacet
 facet normal 0.362178 0.932109 0
  outer loop
   vertex 0.736436 0.104493 -1
   vertex 0.739416 0.103335 1
   vertex 0.739416 0.103335 -1
  endloop
 endfacet
 facet normal 0.390912 0.920428 -0
  outer loop
   vertex 0.739416 0.103335 -1
   vertex 0.739416 0.103335 1
   vertex 0.742359 0.102085 1
  endloop
 endfacet
 facet normal 0.390912 0.920428 0
  outer loop
   vertex 0.739416 0.103335 -1
   vertex 0.742359 0.102085 1
   vertex 0.742359 0.102085 -1
  endloop
 endfacet
 facet normal 0.419247 0.907872 -0
  outer loop
   vertex 0.742359 0.102085 -1
   vertex 0.742359 0.102085 1
   vertex 0.745262 0.100745 1
  endloop
 endfacet
 facet normal 0.419247 0.907872 0
  outer loop
   vertex 0.742359 0.102085 -1
   vertex 0.745262 0.100745 1
   vertex 0.745262 0.100745 -1
  endloop
 endfacet
 facet normal 0.44722 0.894424 -0
  outer loop
   vertex 0.745262 0.100745 -1
   vertex 0.745262 0.100745 1
   vertex 0.748122 0.0993149 1
  endloop
 endfacet
 facet normal 0.44722 0.894424 0
  outer loop
   vertex 0.745262 0.100745 -1
   vertex 0.748122 0.0993149 1
   vertex 0.748122 0.0993149 -1
  endloop
 endfacet
 facet normal 0.474796 0.880096 -0
  outer loop
   vertex 0.748122 0.0993149 -1
   vertex 0.748122 0.0993149 1
   vertex 0.750936 0.0977968 1
  endloop
 endfacet
 facet normal 0.474796 0.880096 0
  outer loop
   vertex 0.748122 0.0993149 -1
   vertex 0.750936 0.0977968 1
   vertex 0.750936 0.0977968 -1
  endloop
 endfacet
 facet normal 0.501814 0.864975 -0
  outer loop
   vertex 0.750936 0.0977968 -1
   vertex 0.750936 0.0977968 1
   vertex 0.753702 0.0961921 1
  endloop
 endfacet
 facet normal 0.501814 0.864975 0
  outer loop
   vertex 0.750936 0.0977968 -1
   vertex 0.753702 0.0961921 1
   vertex 0.753702 0.0961921 -1
  endloop
 endfacet
 facet normal 0.528408 0.848991 -0
  outer loop
   vertex 0.753702 0.0961921 -1
   vertex 0.753702 0.0961921 1
   vertex 0.756417 0.0945023 1
  endloop
 endfacet
 facet normal 0.528408 0.848991 0
  outer loop
   vertex 0.753702 0.0961921 -1
   vertex 0.756417 0.0945023 1
   vertex 0.756417 0.0945023 -1
  endloop
 endfacet
 facet normal 0.554666 0.832073 -0
  outer loop
   vertex 0.756417 0.0945023 -1
   vertex 0.756417 0.0945023 1
   vertex 0.759077 0.0927291 1
  endloop
 endfacet
 facet normal 0.554666 0.832073 0
  outer loop
   vertex 0.756417 0.0945023 -1
   vertex 0.759077 0.0927291 1
   vertex 0.759077 0.0927291 -1
  endloop
 endfacet
 facet normal 0.580039 0.814588 -0
  outer loop
   vertex 0.759077 0.0927291 -1
   vertex 0.759077 0.0927291 1
   vertex 0.761682 0.0908742 1
  endloop
 endfacet
 facet normal 0.580039 0.814588 0
  outer loop
   vertex 0.759077 0.0927291 -1
   vertex 0.761682 0.0908742 1
   vertex 0.761682 0.0908742 -1
  endloop
 endfacet
 facet normal 0.60507 0.796173 -0
  outer loop
   vertex 0.761682 0.0908742 -1
   vertex 0.761682 0.0908742 1
   vertex 0.764228 0.0889393 1
  endloop
 endfacet
 facet normal 0.60507 0.796173 0
  outer loop
   vertex 0.761682 0.0908742 -1
   vertex 0.764228 0.0889393 1
   vertex 0.764228 0.0889393 -1
  endloop
 endfacet
 facet normal 0.629562 0.77695 -0
  outer loop
   vertex 0.764228 0.0889393 -1
   vertex 0.764228 0.0889393 1
   vertex 0.766712 0.0869265 1
  endloop
 endfacet
 facet normal 0.629562 0.77695 0
  outer loop
   vertex 0.764228 0.0889393 -1
   vertex 0.766712 0.0869265 1
   vertex 0.766712 0.0869265 -1
  endloop
 endfacet
 facet normal 0.653309 0.757091 -0
  outer loop
   vertex 0.766712 0.0869265 -1
   vertex 0.766712 0.0869265 1
   vertex 0.769133 0.0848374 1
  endloop
 endfacet
 facet normal 0.653309 0.757091 0
  outer loop
   vertex 0.766712 0.0869265 -1
   vertex 0.769133 0.0848374 1
   vertex 0.769133 0.0848374 -1
  endloop
 endfacet
 facet normal 0.676632 0.736321 -0
  outer loop
   vertex 0.769133 0.0848374 -1
   vertex 0.769133 0.0848374 1
   vertex 0.771487 0.0826742 1
  endloop
 endfacet
 facet normal 0.676632 0.736321 0
  outer loop
   vertex 0.769133 0.0848374 -1
   vertex 0.771487 0.0826742 1
   vertex 0.771487 0.0826742 -1
  endloop
 endfacet
 facet normal 0.698957 0.715164 -0
  outer loop
   vertex 0.771487 0.0826742 -1
   vertex 0.771487 0.0826742 1
   vertex 0.773774 0.080439 1
  endloop
 endfacet
 facet normal 0.698957 0.715164 0
  outer loop
   vertex 0.771487 0.0826742 -1
   vertex 0.773774 0.080439 1
   vertex 0.773774 0.080439 -1
  endloop
 endfacet
 facet normal 0.720905 0.693034 -0
  outer loop
   vertex 0.773774 0.080439 -1
   vertex 0.773774 0.080439 1
   vertex 0.77599 0.0781339 1
  endloop
 endfacet
 facet normal 0.720905 0.693034 0
  outer loop
   vertex 0.773774 0.080439 -1
   vertex 0.77599 0.0781339 1
   vertex 0.77599 0.0781339 -1
  endloop
 endfacet
 facet normal 0.742135 0.67025 -0
  outer loop
   vertex 0.77599 0.0781339 -1
   vertex 0.77599 0.0781339 1
   vertex 0.778133 0.0757611 1
  endloop
 endfacet
 facet normal 0.742135 0.67025 0
  outer loop
   vertex 0.77599 0.0781339 -1
   vertex 0.778133 0.0757611 1
   vertex 0.778133 0.0757611 -1
  endloop
 endfacet
 facet normal 0.762462 0.647033 -0
  outer loop
   vertex 0.778133 0.0757611 -1
   vertex 0.778133 0.0757611 1
   vertex 0.780202 0.073323 1
  endloop
 endfacet
 facet normal 0.762462 0.647033 0
  outer loop
   vertex 0.778133 0.0757611 -1
   vertex 0.780202 0.073323 1
   vertex 0.780202 0.073323 -1
  endloop
 endfacet
 facet normal 0.782227 0.622994 -0
  outer loop
   vertex 0.780202 0.073323 -1
   vertex 0.780202 0.073323 1
   vertex 0.782194 0.0708218 1
  endloop
 endfacet
 facet normal 0.782227 0.622994 0
  outer loop
   vertex 0.780202 0.073323 -1
   vertex 0.782194 0.0708218 1
   vertex 0.782194 0.0708218 -1
  endloop
 endfacet
 facet normal 0.80125 0.598329 -0
  outer loop
   vertex 0.782194 0.0708218 -1
   vertex 0.782194 0.0708218 1
   vertex 0.784107 0.06826 1
  endloop
 endfacet
 facet normal 0.80125 0.598329 0
  outer loop
   vertex 0.782194 0.0708218 -1
   vertex 0.784107 0.06826 1
   vertex 0.784107 0.06826 -1
  endloop
 endfacet
 facet normal 0.819374 0.573259 -0
  outer loop
   vertex 0.784107 0.06826 -1
   vertex 0.784107 0.06826 1
   vertex 0.78594 0.0656401 1
  endloop
 endfacet
 facet normal 0.819374 0.573259 0
  outer loop
   vertex 0.784107 0.06826 -1
   vertex 0.78594 0.0656401 1
   vertex 0.78594 0.0656401 -1
  endloop
 endfacet
 facet normal 0.836746 0.547591 -0
  outer loop
   vertex 0.78594 0.0656401 -1
   vertex 0.78594 0.0656401 1
   vertex 0.787691 0.0629645 1
  endloop
 endfacet
 facet normal 0.836746 0.547591 0
  outer loop
   vertex 0.78594 0.0656401 -1
   vertex 0.787691 0.0629645 1
   vertex 0.787691 0.0629645 -1
  endloop
 endfacet
 facet normal 0.853346 0.521345 -0
  outer loop
   vertex 0.787691 0.0629645 -1
   vertex 0.787691 0.0629645 1
   vertex 0.789358 0.0602359 1
  endloop
 endfacet
 facet normal 0.853346 0.521345 0
  outer loop
   vertex 0.787691 0.0629645 -1
   vertex 0.789358 0.0602359 1
   vertex 0.789358 0.0602359 -1
  endloop
 endfacet
 facet normal 0.869196 0.494469 -0
  outer loop
   vertex 0.789358 0.0602359 -1
   vertex 0.789358 0.0602359 1
   vertex 0.790939 0.0574568 1
  endloop
 endfacet
 facet normal 0.869196 0.494469 0
  outer loop
   vertex 0.789358 0.0602359 -1
   vertex 0.790939 0.0574568 1
   vertex 0.790939 0.0574568 -1
  endloop
 endfacet
 facet normal 0.88398 0.467524 -0
  outer loop
   vertex 0.790939 0.0574568 -1
   vertex 0.790939 0.0574568 1
   vertex 0.792434 0.0546301 1
  endloop
 endfacet
 facet normal 0.88398 0.467524 0
  outer loop
   vertex 0.790939 0.0574568 -1
   vertex 0.792434 0.0546301 1
   vertex 0.792434 0.0546301 -1
  endloop
 endfacet
 facet normal 0.898137 0.439716 -0
  outer loop
   vertex 0.792434 0.0546301 -1
   vertex 0.792434 0.0546301 1
   vertex 0.79384 0.0517583 1
  endloop
 endfacet
 facet normal 0.898137 0.439716 0
  outer loop
   vertex 0.792434 0.0546301 -1
   vertex 0.79384 0.0517583 1
   vertex 0.79384 0.0517583 -1
  endloop
 endfacet
 facet normal 0.911368 0.411592 -0
  outer loop
   vertex 0.79384 0.0517583 -1
   vertex 0.79384 0.0517583 1
   vertex 0.795156 0.0488443 1
  endloop
 endfacet
 facet normal 0.911368 0.411592 0
  outer loop
   vertex 0.79384 0.0517583 -1
   vertex 0.795156 0.0488443 1
   vertex 0.795156 0.0488443 -1
  endloop
 endfacet
 facet normal 0.923702 0.383111 -0
  outer loop
   vertex 0.795156 0.0488443 -1
   vertex 0.795156 0.0488443 1
   vertex 0.796381 0.0458908 1
  endloop
 endfacet
 facet normal 0.923702 0.383111 0
  outer loop
   vertex 0.795156 0.0488443 -1
   vertex 0.796381 0.0458908 1
   vertex 0.796381 0.0458908 -1
  endloop
 endfacet
 facet normal 0.935119 0.354333 -0
  outer loop
   vertex 0.796381 0.0458908 -1
   vertex 0.796381 0.0458908 1
   vertex 0.797514 0.0429006 1
  endloop
 endfacet
 facet normal 0.935119 0.354333 0
  outer loop
   vertex 0.796381 0.0458908 -1
   vertex 0.797514 0.0429006 1
   vertex 0.797514 0.0429006 -1
  endloop
 endfacet
 facet normal 0.945728 0.32496 -0
  outer loop
   vertex 0.797514 0.0429006 -1
   vertex 0.797514 0.0429006 1
   vertex 0.798553 0.0398769 1
  endloop
 endfacet
 facet normal 0.945728 0.32496 0
  outer loop
   vertex 0.797514 0.0429006 -1
   vertex 0.798553 0.0398769 1
   vertex 0.798553 0.0398769 -1
  endloop
 endfacet
 facet normal 0.955325 0.295558 -0
  outer loop
   vertex 0.798553 0.0398769 -1
   vertex 0.798553 0.0398769 1
   vertex 0.799498 0.0368223 1
  endloop
 endfacet
 facet normal 0.955325 0.295558 0
  outer loop
   vertex 0.798553 0.0398769 -1
   vertex 0.799498 0.0368223 1
   vertex 0.799498 0.0368223 -1
  endloop
 endfacet
 facet normal 0.964023 0.265818 -0
  outer loop
   vertex 0.799498 0.0368223 -1
   vertex 0.799498 0.0368223 1
   vertex 0.800348 0.0337398 1
  endloop
 endfacet
 facet normal 0.964023 0.265818 0
  outer loop
   vertex 0.799498 0.0368223 -1
   vertex 0.800348 0.0337398 1
   vertex 0.800348 0.0337398 -1
  endloop
 endfacet
 facet normal 0.971801 0.235804 -0
  outer loop
   vertex 0.800348 0.0337398 -1
   vertex 0.800348 0.0337398 1
   vertex 0.801102 0.0306324 1
  endloop
 endfacet
 facet normal 0.971801 0.235804 0
  outer loop
   vertex 0.800348 0.0337398 -1
   vertex 0.801102 0.0306324 1
   vertex 0.801102 0.0306324 -1
  endloop
 endfacet
 facet normal 0.978662 0.205478 -0
  outer loop
   vertex 0.801102 0.0306324 -1
   vertex 0.801102 0.0306324 1
   vertex 0.801759 0.0275031 1
  endloop
 endfacet
 facet normal 0.978662 0.205478 0
  outer loop
   vertex 0.801102 0.0306324 -1
   vertex 0.801759 0.0275031 1
   vertex 0.801759 0.0275031 -1
  endloop
 endfacet
 facet normal 0.984545 0.175131 -0
  outer loop
   vertex 0.801759 0.0275031 -1
   vertex 0.801759 0.0275031 1
   vertex 0.802319 0.024355 1
  endloop
 endfacet
 facet normal 0.984545 0.175131 0
  outer loop
   vertex 0.801759 0.0275031 -1
   vertex 0.802319 0.024355 1
   vertex 0.802319 0.024355 -1
  endloop
 endfacet
 facet normal 0.989552 0.144174 -0
  outer loop
   vertex 0.802319 0.024355 -1
   vertex 0.802319 0.024355 1
   vertex 0.80278 0.021191 1
  endloop
 endfacet
 facet normal 0.989552 0.144174 0
  outer loop
   vertex 0.802319 0.024355 -1
   vertex 0.80278 0.021191 1
   vertex 0.80278 0.021191 -1
  endloop
 endfacet
 facet normal 0.993499 0.113838 -0
  outer loop
   vertex 0.80278 0.021191 -1
   vertex 0.80278 0.021191 1
   vertex 0.803144 0.0180142 1
  endloop
 endfacet
 facet normal 0.993499 0.113838 0
  outer loop
   vertex 0.80278 0.021191 -1
   vertex 0.803144 0.0180142 1
   vertex 0.803144 0.0180142 -1
  endloop
 endfacet
 facet normal 0.996584 0.0825817 -0
  outer loop
   vertex 0.803144 0.0180142 -1
   vertex 0.803144 0.0180142 1
   vertex 0.803408 0.0148277 1
  endloop
 endfacet
 facet normal 0.996584 0.0825817 0
  outer loop
   vertex 0.803144 0.0180142 -1
   vertex 0.803408 0.0148277 1
   vertex 0.803408 0.0148277 -1
  endloop
 endfacet
 facet normal 0.998668 0.0515974 -0
  outer loop
   vertex 0.803408 0.0148277 -1
   vertex 0.803408 0.0148277 1
   vertex 0.803573 0.0116344 1
  endloop
 endfacet
 facet normal 0.998668 0.0515974 0
  outer loop
   vertex 0.803408 0.0148277 -1
   vertex 0.803573 0.0116344 1
   vertex 0.803573 0.0116344 -1
  endloop
 endfacet
 facet normal 0.99978 0.0209525 -0
  outer loop
   vertex 0.803573 0.0116344 -1
   vertex 0.803573 0.0116344 1
   vertex 0.80364 0.0084376 1
  endloop
 endfacet
 facet normal 0.99978 0.0209525 0
  outer loop
   vertex 0.803573 0.0116344 -1
   vertex 0.80364 0.0084376 1
   vertex 0.80364 0.0084376 -1
  endloop
 endfacet
 facet normal 0.999947 -0.0103272 0
  outer loop
   vertex 0.80364 0.0084376 -1
   vertex 0.80364 0.0084376 1
   vertex 0.803607 0.0052403 1
  endloop
 endfacet
 facet normal 0.999947 -0.0103272 0
  outer loop
   vertex 0.80364 0.0084376 -1
   vertex 0.803607 0.0052403 1
   vertex 0.803607 0.0052403 -1
  endloop
 endfacet
 facet normal 0.999135 -0.0415885 0
  outer loop
   vertex 0.803607 0.0052403 -1
   vertex 0.803607 0.0052403 1
   vertex 0.803474 0.0020456 1
  endloop
 endfacet
 facet normal 0.999135 -0.0415885 0
  outer loop
   vertex 0.803607 0.0052403 -1
   vertex 0.803474 0.0020456 1
   vertex 0.803474 0.0020456 -1
  endloop
 endfacet
 facet normal 0.997386 -0.0722536 0
  outer loop
   vertex 0.803474 0.0020456 -1
   vertex 0.803474 0.0020456 1
   vertex 0.803243 -0.0011435 1
  endloop
 endfacet
 facet normal 0.997386 -0.0722536 0
  outer loop
   vertex 0.803474 0.0020456 -1
   vertex 0.803243 -0.0011435 1
   vertex 0.803243 -0.0011435 -1
  endloop
 endfacet
 facet normal 0.994661 -0.103198 0
  outer loop
   vertex 0.803243 -0.0011435 -1
   vertex 0.803243 -0.0011435 1
   vertex 0.802913 -0.0043239 1
  endloop
 endfacet
 facet normal 0.994661 -0.103198 0
  outer loop
   vertex 0.803243 -0.0011435 -1
   vertex 0.802913 -0.0043239 1
   vertex 0.802913 -0.0043239 -1
  endloop
 endfacet
 facet normal -0.156478 -0.987681 -0
  outer loop
   vertex 0.798422 -0.0075868 1
   vertex 0.796447 -0.0072739 1
   vertex 0.798422 -0.0075868 -1
  endloop
 endfacet
 facet normal -0.156478 -0.987681 0
  outer loop
   vertex 0.798422 -0.0075868 -1
   vertex 0.796447 -0.0072739 1
   vertex 0.796447 -0.0072739 -1
  endloop
 endfacet
 facet normal -0.99008 0.140507 0
  outer loop
   vertex 0.796447 -0.0072739 -1
   vertex 0.796447 -0.0072739 1
   vertex 0.796885 -0.0041873 -1
  endloop
 endfacet
 facet normal -0.99008 0.140507 0
  outer loop
   vertex 0.796885 -0.0041873 -1
   vertex 0.796447 -0.0072739 1
   vertex 0.796885 -0.0041873 1
  endloop
 endfacet
 facet normal -0.994071 0.108729 0
  outer loop
   vertex 0.796885 -0.0041873 -1
   vertex 0.796885 -0.0041873 1
   vertex 0.797224 -0.0010882 -1
  endloop
 endfacet
 facet normal -0.994071 0.108729 0
  outer loop
   vertex 0.797224 -0.0010882 -1
   vertex 0.796885 -0.0041873 1
   vertex 0.797224 -0.0010882 1
  endloop
 endfacet
 facet normal -0.997081 0.0763461 0
  outer loop
   vertex 0.797224 -0.0010882 -1
   vertex 0.797224 -0.0010882 1
   vertex 0.797462 0.0020201 -1
  endloop
 endfacet
 facet normal -0.997081 0.0763461 0
  outer loop
   vertex 0.797462 0.0020201 -1
   vertex 0.797224 -0.0010882 1
   vertex 0.797462 0.0020201 1
  endloop
 endfacet
 facet normal -0.998991 0.0449107 0
  outer loop
   vertex 0.797462 0.0020201 -1
   vertex 0.797462 0.0020201 1
   vertex 0.797602 0.0051345 -1
  endloop
 endfacet
 facet normal -0.998991 0.0449107 0
  outer loop
   vertex 0.797602 0.0051345 -1
   vertex 0.797462 0.0020201 1
   vertex 0.797602 0.0051345 1
  endloop
 endfacet
 facet normal -0.999926 0.012198 0
  outer loop
   vertex 0.797602 0.0051345 -1
   vertex 0.797602 0.0051345 1
   vertex 0.79764 0.0082518 -1
  endloop
 endfacet
 facet normal -0.999926 0.012198 0
  outer loop
   vertex 0.79764 0.0082518 -1
   vertex 0.797602 0.0051345 1
   vertex 0.79764 0.0082518 1
  endloop
 endfacet
 facet normal -0.999808 -0.0195782 0
  outer loop
   vertex 0.79764 0.0082518 -1
   vertex 0.79764 0.0082518 1
   vertex 0.797579 0.0113687 -1
  endloop
 endfacet
 facet normal -0.999808 -0.0195782 0
  outer loop
   vertex 0.797579 0.0113687 -1
   vertex 0.79764 0.0082518 1
   vertex 0.797579 0.0113687 1
  endloop
 endfacet
 facet normal -0.998666 -0.0516404 0
  outer loop
   vertex 0.797579 0.0113687 -1
   vertex 0.797579 0.0113687 1
   vertex 0.797418 0.0144821 -1
  endloop
 endfacet
 facet normal -0.998666 -0.0516404 0
  outer loop
   vertex 0.797418 0.0144821 -1
   vertex 0.797579 0.0113687 1
   vertex 0.797418 0.0144821 1
  endloop
 endfacet
 facet normal -0.996462 -0.0840479 0
  outer loop
   vertex 0.797418 0.0144821 -1
   vertex 0.797418 0.0144821 1
   vertex 0.797156 0.0175886 -1
  endloop
 endfacet
 facet normal -0.996462 -0.0840479 0
  outer loop
   vertex 0.797156 0.0175886 -1
   vertex 0.797418 0.0144821 1
   vertex 0.797156 0.0175886 1
  endloop
 endfacet
 facet normal -0.993274 -0.115784 0
  outer loop
   vertex 0.797156 0.0175886 -1
   vertex 0.797156 0.0175886 1
   vertex 0.796795 0.0206852 -1
  endloop
 endfacet
 facet normal -0.993274 -0.115784 0
  outer loop
   vertex 0.796795 0.0206852 -1
   vertex 0.797156 0.0175886 1
   vertex 0.796795 0.0206852 1
  endloop
 endfacet
 facet normal -0.989052 -0.147567 0
  outer loop
   vertex 0.796795 0.0206852 -1
   vertex 0.796795 0.0206852 1
   vertex 0.796335 0.0237685 -1
  endloop
 endfacet
 facet normal -0.989052 -0.147567 0
  outer loop
   vertex 0.796335 0.0237685 -1
   vertex 0.796795 0.0206852 1
   vertex 0.796335 0.0237685 1
  endloop
 endfacet
 facet normal -0.983794 -0.1793 0
  outer loop
   vertex 0.796335 0.0237685 -1
   vertex 0.796335 0.0237685 1
   vertex 0.795776 0.0268355 -1
  endloop
 endfacet
 facet normal -0.983794 -0.1793 0
  outer loop
   vertex 0.795776 0.0268355 -1
   vertex 0.796335 0.0237685 1
   vertex 0.795776 0.0268355 1
  endloop
 endfacet
 facet normal -0.977471 -0.211069 0
  outer loop
   vertex 0.795776 0.0268355 -1
   vertex 0.795776 0.0268355 1
   vertex 0.795118 0.0298829 -1
  endloop
 endfacet
 facet normal -0.977471 -0.211069 0
  outer loop
   vertex 0.795118 0.0298829 -1
   vertex 0.795776 0.0268355 1
   vertex 0.795118 0.0298829 1
  endloop
 endfacet
 facet normal -0.970235 -0.242166 0
  outer loop
   vertex 0.795118 0.0298829 -1
   vertex 0.795118 0.0298829 1
   vertex 0.794363 0.0329076 -1
  endloop
 endfacet
 facet normal -0.970235 -0.242166 0
  outer loop
   vertex 0.794363 0.0329076 -1
   vertex 0.795118 0.0298829 1
   vertex 0.794363 0.0329076 1
  endloop
 endfacet
 facet normal -0.961928 -0.273303 0
  outer loop
   vertex 0.794363 0.0329076 -1
   vertex 0.794363 0.0329076 1
   vertex 0.793511 0.0359065 -1
  endloop
 endfacet
 facet normal -0.961928 -0.273303 0
  outer loop
   vertex 0.793511 0.0359065 -1
   vertex 0.794363 0.0329076 1
   vertex 0.793511 0.0359065 1
  endloop
 endfacet
 facet normal -0.95274 -0.303786 0
  outer loop
   vertex 0.793511 0.0359065 -1
   vertex 0.793511 0.0359065 1
   vertex 0.792564 0.0388765 -1
  endloop
 endfacet
 facet normal -0.95274 -0.303786 0
  outer loop
   vertex 0.792564 0.0388765 -1
   vertex 0.793511 0.0359065 1
   vertex 0.792564 0.0388765 1
  endloop
 endfacet
 facet normal -0.942383 -0.334537 0
  outer loop
   vertex 0.792564 0.0388765 -1
   vertex 0.792564 0.0388765 1
   vertex 0.791521 0.0418145 -1
  endloop
 endfacet
 facet normal -0.942383 -0.334537 0
  outer loop
   vertex 0.791521 0.0418145 -1
   vertex 0.792564 0.0388765 1
   vertex 0.791521 0.0418145 1
  endloop
 endfacet
 facet normal -0.931236 -0.364417 0
  outer loop
   vertex 0.791521 0.0418145 -1
   vertex 0.791521 0.0418145 1
   vertex 0.790385 0.0447175 -1
  endloop
 endfacet
 facet normal -0.931236 -0.364417 0
  outer loop
   vertex 0.790385 0.0447175 -1
   vertex 0.791521 0.0418145 1
   vertex 0.790385 0.0447175 1
  endloop
 endfacet
 facet normal -0.918896 -0.394499 0
  outer loop
   vertex 0.790385 0.0447175 -1
   vertex 0.790385 0.0447175 1
   vertex 0.789155 0.0475825 -1
  endloop
 endfacet
 facet normal -0.918896 -0.394499 0
  outer loop
   vertex 0.789155 0.0475825 -1
   vertex 0.790385 0.0447175 1
   vertex 0.789155 0.0475825 1
  endloop
 endfacet
 facet normal -0.905919 -0.423451 0
  outer loop
   vertex 0.789155 0.0475825 -1
   vertex 0.789155 0.0475825 1
   vertex 0.787835 0.0504064 -1
  endloop
 endfacet
 facet normal -0.905919 -0.423451 0
  outer loop
   vertex 0.787835 0.0504064 -1
   vertex 0.789155 0.0475825 1
   vertex 0.787835 0.0504064 1
  endloop
 endfacet
 facet normal -0.891715 -0.452597 0
  outer loop
   vertex 0.787835 0.0504064 -1
   vertex 0.787835 0.0504064 1
   vertex 0.786424 0.0531865 -1
  endloop
 endfacet
 facet normal -0.891715 -0.452597 0
  outer loop
   vertex 0.786424 0.0531865 -1
   vertex 0.787835 0.0504064 1
   vertex 0.786424 0.0531865 1
  endloop
 endfacet
 facet normal -0.876802 -0.480851 0
  outer loop
   vertex 0.786424 0.0531865 -1
   vertex 0.786424 0.0531865 1
   vertex 0.784925 0.0559198 -1
  endloop
 endfacet
 facet normal -0.876802 -0.480851 0
  outer loop
   vertex 0.784925 0.0559198 -1
   vertex 0.786424 0.0531865 1
   vertex 0.784925 0.0559198 1
  endloop
 endfacet
 facet normal -0.860771 -0.508992 0
  outer loop
   vertex 0.784925 0.0559198 -1
   vertex 0.784925 0.0559198 1
   vertex 0.783338 0.0586036 -1
  endloop
 endfacet
 facet normal -0.860771 -0.508992 0
  outer loop
   vertex 0.783338 0.0586036 -1
   vertex 0.784925 0.0559198 1
   vertex 0.783338 0.0586036 1
  endloop
 endfacet
 facet normal -0.844173 -0.536071 0
  outer loop
   vertex 0.783338 0.0586036 -1
   vertex 0.783338 0.0586036 1
   vertex 0.781667 0.061235 -1
  endloop
 endfacet
 facet normal -0.844173 -0.536071 0
  outer loop
   vertex 0.781667 0.061235 -1
   vertex 0.783338 0.0586036 1
   vertex 0.781667 0.061235 1
  endloop
 endfacet
 facet normal -0.826314 -0.563209 0
  outer loop
   vertex 0.781667 0.061235 -1
   vertex 0.781667 0.061235 1
   vertex 0.779911 0.0638113 -1
  endloop
 endfacet
 facet normal -0.826314 -0.563209 0
  outer loop
   vertex 0.779911 0.0638113 -1
   vertex 0.781667 0.061235 1
   vertex 0.779911 0.0638113 1
  endloop
 endfacet
 facet normal -0.80793 -0.589278 0
  outer loop
   vertex 0.779911 0.0638113 -1
   vertex 0.779911 0.0638113 1
   vertex 0.778074 0.0663299 -1
  endloop
 endfacet
 facet normal -0.80793 -0.589278 0
  outer loop
   vertex 0.778074 0.0663299 -1
   vertex 0.779911 0.0638113 1
   vertex 0.778074 0.0663299 1
  endloop
 endfacet
 facet normal -0.788575 -0.614938 0
  outer loop
   vertex 0.778074 0.0663299 -1
   vertex 0.778074 0.0663299 1
   vertex 0.776157 0.0687882 -1
  endloop
 endfacet
 facet normal -0.788575 -0.614938 0
  outer loop
   vertex 0.776157 0.0687882 -1
   vertex 0.778074 0.0663299 1
   vertex 0.776157 0.0687882 1
  endloop
 endfacet
 facet normal -0.768228 -0.640176 0
  outer loop
   vertex 0.776157 0.0687882 -1
   vertex 0.776157 0.0687882 1
   vertex 0.774161 0.0711835 -1
  endloop
 endfacet
 facet normal -0.768228 -0.640176 0
  outer loop
   vertex 0.774161 0.0711835 -1
   vertex 0.776157 0.0687882 1
   vertex 0.774161 0.0711835 1
  endloop
 endfacet
 facet normal -0.747447 -0.664321 0
  outer loop
   vertex 0.774161 0.0711835 -1
   vertex 0.774161 0.0711835 1
   vertex 0.77209 0.0735136 -1
  endloop
 endfacet
 facet normal -0.747447 -0.664321 0
  outer loop
   vertex 0.77209 0.0735136 -1
   vertex 0.774161 0.0711835 1
   vertex 0.77209 0.0735136 1
  endloop
 endfacet
 facet normal -0.725671 -0.688042 0
  outer loop
   vertex 0.77209 0.0735136 -1
   vertex 0.77209 0.0735136 1
   vertex 0.769945 0.0757759 -1
  endloop
 endfacet
 facet normal -0.725671 -0.688042 0
  outer loop
   vertex 0.769945 0.0757759 -1
   vertex 0.77209 0.0735136 1
   vertex 0.769945 0.0757759 1
  endloop
 endfacet
 facet normal -0.703272 -0.710921 0
  outer loop
   vertex 0.769945 0.0757759 -1
   vertex 0.769945 0.0757759 1
   vertex 0.767729 0.0779681 -1
  endloop
 endfacet
 facet normal -0.703272 -0.710921 0
  outer loop
   vertex 0.767729 0.0779681 -1
   vertex 0.769945 0.0757759 1
   vertex 0.767729 0.0779681 1
  endloop
 endfacet
 facet normal -0.679973 -0.733237 0
  outer loop
   vertex 0.767729 0.0779681 -1
   vertex 0.767729 0.0779681 1
   vertex 0.765443 0.080088 -1
  endloop
 endfacet
 facet normal -0.679973 -0.733237 0
  outer loop
   vertex 0.765443 0.080088 -1
   vertex 0.767729 0.0779681 1
   vertex 0.765443 0.080088 1
  endloop
 endfacet
 facet normal -0.656015 -0.754748 0
  outer loop
   vertex 0.765443 0.080088 -1
   vertex 0.765443 0.080088 1
   vertex 0.76309 0.0821332 -1
  endloop
 endfacet
 facet normal -0.656015 -0.754748 0
  outer loop
   vertex 0.76309 0.0821332 -1
   vertex 0.765443 0.080088 1
   vertex 0.76309 0.0821332 1
  endloop
 endfacet
 facet normal -0.631532 -0.77535 0
  outer loop
   vertex 0.76309 0.0821332 -1
   vertex 0.76309 0.0821332 1
   vertex 0.760673 0.0841019 -1
  endloop
 endfacet
 facet normal -0.631532 -0.77535 0
  outer loop
   vertex 0.760673 0.0841019 -1
   vertex 0.76309 0.0821332 1
   vertex 0.760673 0.0841019 1
  endloop
 endfacet
 facet normal -0.606145 -0.795354 0
  outer loop
   vertex 0.760673 0.0841019 -1
   vertex 0.760673 0.0841019 1
   vertex 0.758193 0.0859919 -1
  endloop
 endfacet
 facet normal -0.606145 -0.795354 0
  outer loop
   vertex 0.758193 0.0859919 -1
   vertex 0.760673 0.0841019 1
   vertex 0.758193 0.0859919 1
  endloop
 endfacet
 facet normal -0.580325 -0.814385 0
  outer loop
   vertex 0.758193 0.0859919 -1
   vertex 0.758193 0.0859919 1
   vertex 0.755654 0.0878012 -1
  endloop
 endfacet
 facet normal -0.580325 -0.814385 0
  outer loop
   vertex 0.755654 0.0878012 -1
   vertex 0.758193 0.0859919 1
   vertex 0.755654 0.0878012 1
  endloop
 endfacet
 facet normal -0.554019 -0.832504 0
  outer loop
   vertex 0.755654 0.0878012 -1
   vertex 0.755654 0.0878012 1
   vertex 0.753059 0.0895281 -1
  endloop
 endfacet
 facet normal -0.554019 -0.832504 0
  outer loop
   vertex 0.753059 0.0895281 -1
   vertex 0.755654 0.0878012 1
   vertex 0.753059 0.0895281 1
  endloop
 endfacet
 facet normal -0.52682 -0.849977 0
  outer loop
   vertex 0.753059 0.0895281 -1
   vertex 0.753059 0.0895281 1
   vertex 0.750409 0.0911706 -1
  endloop
 endfacet
 facet normal -0.52682 -0.849977 0
  outer loop
   vertex 0.750409 0.0911706 -1
   vertex 0.753059 0.0895281 1
   vertex 0.750409 0.0911706 1
  endloop
 endfacet
 facet normal -0.499299 -0.86643 0
  outer loop
   vertex 0.750409 0.0911706 -1
   vertex 0.750409 0.0911706 1
   vertex 0.747708 0.0927271 -1
  endloop
 endfacet
 facet normal -0.499299 -0.86643 0
  outer loop
   vertex 0.747708 0.0927271 -1
   vertex 0.750409 0.0911706 1
   vertex 0.747708 0.0927271 1
  endloop
 endfacet
 facet normal -0.471191 -0.882031 0
  outer loop
   vertex 0.747708 0.0927271 -1
   vertex 0.747708 0.0927271 1
   vertex 0.744958 0.0941962 -1
  endloop
 endfacet
 facet normal -0.471191 -0.882031 0
  outer loop
   vertex 0.744958 0.0941962 -1
   vertex 0.747708 0.0927271 1
   vertex 0.744958 0.0941962 1
  endloop
 endfacet
 facet normal -0.442667 -0.896686 0
  outer loop
   vertex 0.744958 0.0941962 -1
   vertex 0.744958 0.0941962 1
   vertex 0.742163 0.095576 -1
  endloop
 endfacet
 facet normal -0.442667 -0.896686 0
  outer loop
   vertex 0.742163 0.095576 -1
   vertex 0.744958 0.0941962 1
   vertex 0.742163 0.095576 1
  endloop
 endfacet
 facet normal -0.413493 -0.910507 0
  outer loop
   vertex 0.742163 0.095576 -1
   vertex 0.742163 0.095576 1
   vertex 0.739324 0.0968653 -1
  endloop
 endfacet
 facet normal -0.413493 -0.910507 0
  outer loop
   vertex 0.739324 0.0968653 -1
   vertex 0.742163 0.095576 1
   vertex 0.739324 0.0968653 1
  endloop
 endfacet
 facet normal -0.384137 -0.923276 0
  outer loop
   vertex 0.739324 0.0968653 -1
   vertex 0.739324 0.0968653 1
   vertex 0.736446 0.0980627 -1
  endloop
 endfacet
 facet normal -0.384137 -0.923276 0
  outer loop
   vertex 0.736446 0.0980627 -1
   vertex 0.739324 0.0968653 1
   vertex 0.736446 0.0980627 1
  endloop
 endfacet
 facet normal -0.35429 -0.935136 0
  outer loop
   vertex 0.736446 0.0980627 -1
   vertex 0.736446 0.0980627 1
   vertex 0.733531 0.0991671 -1
  endloop
 endfacet
 facet normal -0.35429 -0.935136 0
  outer loop
   vertex 0.733531 0.0991671 -1
   vertex 0.736446 0.0980627 1
   vertex 0.733531 0.0991671 1
  endloop
 endfacet
 facet normal -0.323942 -0.946077 0
  outer loop
   vertex 0.733531 0.0991671 -1
   vertex 0.733531 0.0991671 1
   vertex 0.730581 0.100177 -1
  endloop
 endfacet
 facet normal -0.323942 -0.946077 0
  outer loop
   vertex 0.730581 0.100177 -1
   vertex 0.733531 0.0991671 1
   vertex 0.730581 0.100177 1
  endloop
 endfacet
 facet normal -0.293494 -0.955961 0
  outer loop
   vertex 0.730581 0.100177 -1
   vertex 0.730581 0.100177 1
   vertex 0.727601 0.101092 -1
  endloop
 endfacet
 facet normal -0.293494 -0.955961 0
  outer loop
   vertex 0.727601 0.101092 -1
   vertex 0.730581 0.100177 1
   vertex 0.727601 0.101092 1
  endloop
 endfacet
 facet normal -0.26259 -0.964908 0
  outer loop
   vertex 0.727601 0.101092 -1
   vertex 0.727601 0.101092 1
   vertex 0.724593 0.101911 -1
  endloop
 endfacet
 facet normal -0.26259 -0.964908 0
  outer loop
   vertex 0.724593 0.101911 -1
   vertex 0.727601 0.101092 1
   vertex 0.724593 0.101911 1
  endloop
 endfacet
 facet normal -0.231426 -0.972852 0
  outer loop
   vertex 0.724593 0.101911 -1
   vertex 0.724593 0.101911 1
   vertex 0.72156 0.102632 -1
  endloop
 endfacet
 facet normal -0.231426 -0.972852 0
  outer loop
   vertex 0.72156 0.102632 -1
   vertex 0.724593 0.101911 1
   vertex 0.72156 0.102632 1
  endloop
 endfacet
 facet normal -0.200092 -0.979777 0
  outer loop
   vertex 0.72156 0.102632 -1
   vertex 0.72156 0.102632 1
   vertex 0.718506 0.103256 -1
  endloop
 endfacet
 facet normal -0.200092 -0.979777 0
  outer loop
   vertex 0.718506 0.103256 -1
   vertex 0.72156 0.102632 1
   vertex 0.718506 0.103256 1
  endloop
 endfacet
 facet normal -0.168467 -0.985707 0
  outer loop
   vertex 0.718506 0.103256 -1
   vertex 0.718506 0.103256 1
   vertex 0.715433 0.103781 -1
  endloop
 endfacet
 facet normal -0.168467 -0.985707 0
  outer loop
   vertex 0.715433 0.103781 -1
   vertex 0.718506 0.103256 1
   vertex 0.715433 0.103781 1
  endloop
 endfacet
 facet normal -0.13671 -0.990611 0
  outer loop
   vertex 0.715433 0.103781 -1
   vertex 0.715433 0.103781 1
   vertex 0.712344 0.104207 -1
  endloop
 endfacet
 facet normal -0.13671 -0.990611 0
  outer loop
   vertex 0.712344 0.104207 -1
   vertex 0.715433 0.103781 1
   vertex 0.712344 0.104207 1
  endloop
 endfacet
 facet normal -0.104838 -0.994489 0
  outer loop
   vertex 0.712344 0.104207 -1
   vertex 0.712344 0.104207 1
   vertex 0.709244 0.104534 -1
  endloop
 endfacet
 facet normal -0.104838 -0.994489 0
  outer loop
   vertex 0.709244 0.104534 -1
   vertex 0.712344 0.104207 1
   vertex 0.709244 0.104534 1
  endloop
 endfacet
 facet normal -0.0728193 -0.997345 0
  outer loop
   vertex 0.709244 0.104534 -1
   vertex 0.709244 0.104534 1
   vertex 0.706135 0.104761 -1
  endloop
 endfacet
 facet normal -0.0728193 -0.997345 0
  outer loop
   vertex 0.706135 0.104761 -1
   vertex 0.709244 0.104534 1
   vertex 0.706135 0.104761 1
  endloop
 endfacet
 facet normal -0.0407053 -0.999171 0
  outer loop
   vertex 0.706135 0.104761 -1
   vertex 0.706135 0.104761 1
   vertex 0.70302 0.104888 -1
  endloop
 endfacet
 facet normal -0.0407053 -0.999171 0
  outer loop
   vertex 0.70302 0.104888 -1
   vertex 0.706135 0.104761 1
   vertex 0.70302 0.104888 1
  endloop
 endfacet
 facet normal -0.999846 -0.0175246 -0
  outer loop
   vertex 0.698863 0.108902 1
   vertex 0.698828 0.110902 1
   vertex 0.698863 0.108902 -1
  endloop
 endfacet
 facet normal -0.999846 -0.0175246 0
  outer loop
   vertex 0.698863 0.108902 -1
   vertex 0.698828 0.110902 1
   vertex 0.698828 0.110902 -1
  endloop
 endfacet
 facet normal 0 0 -1
  outer loop
   vertex 0.698863 0.108902 -1
   vertex 0.698828 0.110902 -1
   vertex 0.70302 0.104888 -1
  endloop
 endfacet
 facet normal 0 0 -1
  outer loop
   vertex 0.70302 0.104888 -1
   vertex 0.698828 0.110902 -1
   vertex 0.702025 0.110908 -1
  endloop
 endfacet
 facet normal 0 0 -1
  outer loop
   vertex 0.70302 0.104888 -1
   vertex 0.702025 0.110908 -1
   vertex 0.706135 0.104761 -1
  endloop
 endfacet
 facet normal 0 0 -1
  outer loop
   vertex 0.706135 0.104761 -1
   vertex 0.702025 0.110908 -1
   vertex 0.705222 0.110815 -1
  endloop
 endfacet
 facet normal 0 0 -1
  outer loop
   vertex 0.706135 0.104761 -1
   vertex 0.705222 0.110815 -1
   vertex 0.709244 0.104534 -1
  endloop
 endfacet
 facet normal 0 0 -1
  outer loop
   vertex 0.709244 0.104534 -1
   vertex 0.705222 0.110815 -1
   vertex 0.708413 0.110623 -1
  endloop
 endfacet
 facet normal 0 0 -1
  outer loop
   vertex 0.709244 0.104534 -1
   vertex 0.708413 0.110623 -1
   vertex 0.712344 0.104207 -1
  endloop
 endfacet
 facet normal 0 0 -1
  outer loop
   vertex 0.712344 0.104207 -1
   vertex 0.708413 0.110623 -1
   vertex 0.711598 0.110332 -1
  endloop
 endfacet
 facet normal 0 0 -1
  outer loop
   vertex 0.712344 0.104207 -1
   vertex 0.711598 0.110332 -1
   vertex 0.715433 0.103781 -1
  endloop
 endfacet
 facet normal 0 0 -1
  outer loop
   vertex 0.798422 -0.0075868 -1
   vertex 0.796447 -0.0072739 -1
   vertex 0.802913 -0.0043239 -1
  endloop
 endfacet
 facet normal -0 0 -1
  outer loop
   vertex 0.802913 -0.0043239 -1
   vertex 0.796447 -0.0072739 -1
   vertex 0.796885 -0.0041873 -1
  endloop
 endfacet
 facet normal 0 0 -1
  outer loop
   vertex 0.802913 -0.0043239 -1
   vertex 0.796885 -0.0041873 -1
   vertex 0.803243 -0.0011435 -1
  endloop
 endfacet
 facet normal -0 0 -1
  outer loop
   vertex 0.803243 -0.0011435 -1
   vertex 0.796885 -0.0041873 -1
   vertex 0.797224 -0.0010882 -1
  endloop
 endfacet
 facet normal 0 0 -1
  outer loop
   vertex 0.803243 -0.0011435 -1
   vertex 0.797224 -0.0010882 -1
   vertex 0.803474 0.0020456 -1
  endloop
 endfacet
 facet normal 0 0 -1
  outer loop
   vertex 0.803474 0.0020456 -1
   vertex 0.797224 -0.0010882 -1
   vertex 0.797462 0.0020201 -1
  endloop
 endfacet
 facet normal -0 0 -1
  outer loop
   vertex 0.803474 0.0020456 -1
   vertex 0.797462 0.0020201 -1
   vertex 0.803607 0.0052403 -1
  endloop
 endfacet
 facet normal 0 0 -1
  outer loop
   vertex 0.803607 0.0052403 -1
   vertex 0.797462 0.0020201 -1
   vertex 0.797602 0.0051345 -1
  endloop
 endfacet
 facet normal -0 0 -1
  outer loop
   vertex 0.803607 0.0052403 -1
   vertex 0.797602 0.0051345 -1
   vertex 0.80364 0.0084376 -1
  endloop
 endfacet
 facet normal 0 0 -1
  outer loop
   vertex 0.80364 0.0084376 -1
   vertex 0.797602 0.0051345 -1
   vertex 0.79764 0.0082518 -1
  endloop
 endfacet
 facet normal -0 0 -1
  outer loop
   vertex 0.80364 0.0084376 -1
   vertex 0.79764 0.0082518 -1
   vertex 0.803573 0.0116344 -1
  endloop
 endfacet
 facet normal 0 0 -1
  outer loop
   vertex 0.803573 0.0116344 -1
   vertex 0.79764 0.0082518 -1
   vertex 0.797579 0.0113687 -1
  endloop
 endfacet
 facet normal -0 0 -1
  outer loop
   vertex 0.803573 0.0116344 -1
   vertex 0.797579 0.0113687 -1
   vertex 0.803408 0.0148277 -1
  endloop
 endfacet
 facet normal 0 0 -1
  outer loop
   vertex 0.803408 0.0148277 -1
   vertex 0.797579 0.0113687 -1
   vertex 0.797418 0.0144821 -1
  endloop
 endfacet
 facet normal -0 0 -1
  outer loop
   vertex 0.803408 0.0148277 -1
   vertex 0.797418 0.0144821 -1
   vertex 0.803144 0.0180142 -1
  endloop
 endfacet
 facet normal 0 0 -1
  outer loop
   vertex 0.803144 0.0180142 -1
   vertex 0.797418 0.0144821 -1
   vertex 0.797156 0.0175886 -1
  endloop
 endfacet
 facet normal -0 0 -1
  outer loop
   vertex 0.803144 0.0180142 -1
   vertex 0.797156 0.0175886 -1
   vertex 0.80278 0.021191 -1
  endloop
 endfacet
 facet normal 0 0 -1
  outer loop
   vertex 0.80278 0.021191 -1
   vertex 0.797156 0.0175886 -1
   vertex 0.796795 0.0206852 -1
  endloop
 endfacet
 facet normal -0 0 -1
  outer loop
   vertex 0.80278 0.021191 -1
   vertex 0.796795 0.0206852 -1
   vertex 0.802319 0.024355 -1
  endloop
 endfacet
 facet normal 0 0 -1
  outer loop
   vertex 0.802319 0.024355 -1
   vertex 0.796795 0.0206852 -1
   vertex 0.796335 0.0237685 -1
  endloop
 endfacet
 facet normal -0 0 -1
  outer loop
   vertex 0.802319 0.024355 -1
   vertex 0.796335 0.0237685 -1
   vertex 0.801759 0.0275031 -1
  endloop
 endfacet
 facet normal 0 0 -1
  outer loop
   vertex 0.801759 0.0275031 -1
   vertex 0.796335 0.0237685 -1
   vertex 0.795776 0.0268355 -1
  endloop
 endfacet
 facet normal -0 0 -1
  outer loop
   vertex 0.801759 0.0275031 -1
   vertex 0.795776 0.0268355 -1
   vertex 0.801102 0.0306324 -1
  endloop
 endfacet
 facet normal 0 0 -1
  outer loop
   vertex 0.801102 0.0306324 -1
   vertex 0.795776 0.0268355 -1
   vertex 0.795118 0.0298829 -1
  endloop
 endfacet
 facet normal -0 0 -1
  outer loop
   vertex 0.801102 0.0306324 -1
   vertex 0.795118 0.0298829 -1
   vertex 0.800348 0.0337398 -1
  endloop
 endfacet
 facet normal 0 0 -1
  outer loop
   vertex 0.800348 0.0337398 -1
   vertex 0.795118 0.0298829 -1
   vertex 0.794363 0.0329076 -1
  endloop
 endfacet
 facet normal -0 0 -1
  outer loop
   vertex 0.800348 0.0337398 -1
   vertex 0.794363 0.0329076 -1
   vertex 0.799498 0.0368223 -1
  endloop
 endfacet
 facet normal 0 0 -1
  outer loop
   vertex 0.799498 0.0368223 -1
   vertex 0.794363 0.0329076 -1
   vertex 0.793511 0.0359065 -1
  endloop
 endfacet
 facet normal -0 0 -1
  outer loop
   vertex 0.799498 0.0368223 -1
   vertex 0.793511 0.0359065 -1
   vertex 0.798553 0.0398769 -1
  endloop
 endfacet
 facet normal 0 0 -1
  outer loop
   vertex 0.798553 0.0398769 -1
   vertex 0.793511 0.0359065 -1
   vertex 0.792564 0.0388765 -1
  endloop
 endfacet
 facet normal -0 0 -1
  outer loop
   vertex 0.798553 0.0398769 -1
   vertex 0.792564 0.0388765 -1
   vertex 0.797514 0.0429006 -1
  endloop
 endfacet
 facet normal 0 0 -1
  outer loop
   vertex 0.797514 0.0429006 -1
   vertex 0.792564 0.0388765 -1
   vertex 0.791521 0.0418145 -1
  endloop
 endfacet
 facet normal -0 0 -1
  outer loop
   vertex 0.797514 0.0429006 -1
   vertex 0.791521 0.0418145 -1
   vertex 0.796381 0.0458908 -1
  endloop
 endfacet
 facet normal 0 0 -1
  outer loop
   vertex 0.796381 0.0458908 -1
   vertex 0.791521 0.0418145 -1
   vertex 0.790385 0.0447175 -1
  endloop
 endfacet
 facet normal -0 0 -1
  outer loop
   vertex 0.796381 0.0458908 -1
   vertex 0.790385 0.0447175 -1
   vertex 0.795156 0.0488443 -1
  endloop
 endfacet
 facet normal 0 0 -1
  outer loop
   vertex 0.795156 0.0488443 -1
   vertex 0.790385 0.0447175 -1
   vertex 0.789155 0.0475825 -1
  endloop
 endfacet
 facet normal -0 0 -1
  outer loop
   vertex 0.795156 0.0488443 -1
   vertex 0.789155 0.0475825 -1
   vertex 0.79384 0.0517583 -1
  endloop
 endfacet
 facet normal 0 0 -1
  outer loop
   vertex 0.79384 0.0517583 -1
   vertex 0.789155 0.0475825 -1
   vertex 0.787835 0.0504064 -1
  endloop
 endfacet
 facet normal -0 0 -1
  outer loop
   vertex 0.79384 0.0517583 -1
   vertex 0.787835 0.0504064 -1
   vertex 0.792434 0.0546301 -1
  endloop
 endfacet
 facet normal 0 0 -1
  outer loop
   vertex 0.792434 0.0546301 -1
   vertex 0.787835 0.0504064 -1
   vertex 0.786424 0.0531865 -1
  endloop
 endfacet
 facet normal -0 0 -1
  outer loop
   vertex 0.792434 0.0546301 -1
   vertex 0.786424 0.0531865 -1
   vertex 0.790939 0.0574568 -1
  endloop
 endfacet
 facet normal 0 0 -1
  outer loop
   vertex 0.790939 0.0574568 -1
   vertex 0.786424 0.0531865 -1
   vertex 0.784925 0.0559198 -1
  endloop
 endfacet
 facet normal 0 0 -1
  outer loop
   vertex 0.711598 0.110332 -1
   vertex 0.714771 0.109942 -1
   vertex 0.715433 0.103781 -1
  endloop
 endfacet
 facet normal 0 0 -1
  outer loop
   vertex 0.715433 0.103781 -1
   vertex 0.714771 0.109942 -1
   vertex 0.717931 0.109454 -1
  endloop
 endfacet
 facet normal 0 0 -1
  outer loop
   vertex 0.715433 0.103781 -1
   vertex 0.717931 0.109454 -1
   vertex 0.718506 0.103256 -1
  endloop
 endfacet
 facet normal 0 0 -1
  outer loop
   vertex 0.718506 0.103256 -1
   vertex 0.717931 0.109454 -1
   vertex 0.721075 0.108868 -1
  endloop
 endfacet
 facet normal 0 0 -1
  outer loop
   vertex 0.718506 0.103256 -1
   vertex 0.721075 0.108868 -1
   vertex 0.72156 0.102632 -1
  endloop
 endfacet
 facet normal 0 0 -1
  outer loop
   vertex 0.72156 0.102632 -1
   vertex 0.721075 0.108868 -1
   vertex 0.724198 0.108184 -1
  endloop
 endfacet
 facet normal 0 0 -1
  outer loop
   vertex 0.72156 0.102632 -1
   vertex 0.724198 0.108184 -1
   vertex 0.724593 0.101911 -1
  endloop
 endfacet
 facet normal 0 0 -1
  outer loop
   vertex 0.724593 0.101911 -1
   vertex 0.724198 0.108184 -1
   vertex 0.727299 0.107405 -1
  endloop
 endfacet
 facet normal 0 0 -1
  outer loop
   vertex 0.724593 0.101911 -1
   vertex 0.727299 0.107405 -1
   vertex 0.727601 0.101092 -1
  endloop
 endfacet
 facet normal 0 0 -1
  outer loop
   vertex 0.727601 0.101092 -1
   vertex 0.727299 0.107405 -1
   vertex 0.730374 0.106529 -1
  endloop
 endfacet
 facet normal 0 0 -1
  outer loop
   vertex 0.727601 0.101092 -1
   vertex 0.730374 0.106529 -1
   vertex 0.730581 0.100177 -1
  endloop
 endfacet
 facet normal 0 0 -1
  outer loop
   vertex 0.730581 0.100177 -1
   vertex 0.730374 0.106529 -1
   vertex 0.733421 0.105558 -1
  endloop
 endfacet
 facet normal 0 0 -1
  outer loop
   vertex 0.730581 0.100177 -1
   vertex 0.733421 0.105558 -1
   vertex 0.733531 0.0991671 -1
  endloop
 endfacet
 facet normal 0 0 -1
  outer loop
   vertex 0.733531 0.0991671 -1
   vertex 0.733421 0.105558 -1
   vertex 0.736436 0.104493 -1
  endloop
 endfacet
 facet normal 0 0 -1
  outer loop
   vertex 0.733531 0.0991671 -1
   vertex 0.736436 0.104493 -1
   vertex 0.736446 0.0980627 -1
  endloop
 endfacet
 facet normal 0 0 -1
  outer loop
   vertex 0.736446 0.0980627 -1
   vertex 0.736436 0.104493 -1
   vertex 0.739416 0.103335 -1
  endloop
 endfacet
 facet normal 0 0 -1
  outer loop
   vertex 0.736446 0.0980627 -1
   vertex 0.739416 0.103335 -1
   vertex 0.739324 0.0968653 -1
  endloop
 endfacet
 facet normal 0 0 -1
  outer loop
   vertex 0.739324 0.0968653 -1
   vertex 0.739416 0.103335 -1
   vertex 0.742359 0.102085 -1
  endloop
 endfacet
 facet normal 0 0 -1
  outer loop
   vertex 0.739324 0.0968653 -1
   vertex 0.742359 0.102085 -1
   vertex 0.742163 0.095576 -1
  endloop
 endfacet
 facet normal 0 0 -1
  outer loop
   vertex 0.742163 0.095576 -1
   vertex 0.742359 0.102085 -1
   vertex 0.745262 0.100745 -1
  endloop
 endfacet
 facet normal 0 0 -1
  outer loop
   vertex 0.742163 0.095576 -1
   vertex 0.745262 0.100745 -1
   vertex 0.744958 0.0941962 -1
  endloop
 endfacet
 facet normal 0 0 -1
  outer loop
   vertex 0.744958 0.0941962 -1
   vertex 0.745262 0.100745 -1
   vertex 0.748122 0.0993149 -1
  endloop
 endfacet
 facet normal 0 0 -1
  outer loop
   vertex 0.744958 0.0941962 -1
   vertex 0.748122 0.0993149 -1
   vertex 0.747708 0.0927271 -1
  endloop
 endfacet
 facet normal 0 0 -1
  outer loop
   vertex 0.747708 0.0927271 -1
   vertex 0.748122 0.0993149 -1
   vertex 0.750936 0.0977968 -1
  endloop
 endfacet
 facet normal 0 0 -1
  outer loop
   vertex 0.747708 0.0927271 -1
   vertex 0.750936 0.0977968 -1
   vertex 0.750409 0.0911706 -1
  endloop
 endfacet
 facet normal 0 0 -1
  outer loop
   vertex 0.750409 0.0911706 -1
   vertex 0.750936 0.0977968 -1
   vertex 0.753702 0.0961921 -1
  endloop
 endfacet
 facet normal 0 0 -1
  outer loop
   vertex 0.750409 0.0911706 -1
   vertex 0.753702 0.0961921 -1
   vertex 0.753059 0.0895281 -1
  endloop
 endfacet
 facet normal 0 0 -1
  outer loop
   vertex 0.753059 0.0895281 -1
   vertex 0.753702 0.0961921 -1
   vertex 0.756417 0.0945023 -1
  endloop
 endfacet
 facet normal 0 0 -1
  outer loop
   vertex 0.753059 0.0895281 -1
   vertex 0.756417 0.0945023 -1
   vertex 0.755654 0.0878012 -1
  endloop
 endfacet
 facet normal 0 0 -1
  outer loop
   vertex 0.755654 0.0878012 -1
   vertex 0.756417 0.0945023 -1
   vertex 0.759077 0.0927291 -1
  endloop
 endfacet
 facet normal 0 0 -1
  outer loop
   vertex 0.755654 0.0878012 -1
   vertex 0.759077 0.0927291 -1
   vertex 0.758193 0.0859919 -1
  endloop
 endfacet
 facet normal 0 0 -1
  outer loop
   vertex 0.758193 0.0859919 -1
   vertex 0.759077 0.0927291 -1
   vertex 0.761682 0.0908742 -1
  endloop
 endfacet
 facet normal 0 0 -1
  outer loop
   vertex 0.758193 0.0859919 -1
   vertex 0.761682 0.0908742 -1
   vertex 0.760673 0.0841019 -1
  endloop
 endfacet
 facet normal 0 0 -1
  outer loop
   vertex 0.760673 0.0841019 -1
   vertex 0.761682 0.0908742 -1
   vertex 0.764228 0.0889393 -1
  endloop
 endfacet
 facet normal 0 0 -1
  outer loop
   vertex 0.760673 0.0841019 -1
   vertex 0.764228 0.0889393 -1
   vertex 0.76309 0.0821332 -1
  endloop
 endfacet
 facet normal 0 0 -1
  outer loop
   vertex 0.76309 0.0821332 -1
   vertex 0.764228 0.0889393 -1
   vertex 0.766712 0.0869265 -1
  endloop
 endfacet
 facet normal 0 0 -1
  outer loop
   vertex 0.76309 0.0821332 -1
   vertex 0.766712 0.0869265 -1
   vertex 0.765443 0.080088 -1
  endloop
 endfacet
 facet normal 0 0 -1
  outer loop
   vertex 0.765443 0.080088 -1
   vertex 0.766712 0.0869265 -1
   vertex 0.769133 0.0848374 -1
  endloop
 endfacet
 facet normal 0 0 -1
  outer loop
   vertex 0.765443 0.080088 -1
   vertex 0.769133 0.0848374 -1
   vertex 0.767729 0.0779681 -1
  endloop
 endfacet
 facet normal 0 0 -1
  outer loop
   vertex 0.767729 0.0779681 -1
   vertex 0.769133 0.0848374 -1
   vertex 0.771487 0.0826742 -1
  endloop
 endfacet
 facet normal 0 0 -1
  outer loop
   vertex 0.767729 0.0779681 -1
   vertex 0.771487 0.0826742 -1
   vertex 0.769945 0.0757759 -1
  endloop
 endfacet
 facet normal 0 0 -1
  outer loop
   vertex 0.769945 0.0757759 -1
   vertex 0.771487 0.0826742 -1
   vertex 0.773774 0.080439 -1
  endloop
 endfacet
 facet normal 0 0 -1
  outer loop
   vertex 0.769945 0.0757759 -1
   vertex 0.773774 0.080439 -1
   vertex 0.77209 0.0735136 -1
  endloop
 endfacet
 facet normal 0 0 -1
  outer loop
   vertex 0.77209 0.0735136 -1
   vertex 0.773774 0.080439 -1
   vertex 0.77599 0.0781339 -1
  endloop
 endfacet
 facet normal 0 0 -1
  outer loop
   vertex 0.77209 0.0735136 -1
   vertex 0.77599 0.0781339 -1
   vertex 0.774161 0.0711835 -1
  endloop
 endfacet
 facet normal 0 0 -1
  outer loop
   vertex 0.774161 0.0711835 -1
   vertex 0.77599 0.0781339 -1
   vertex 0.778133 0.0757611 -1
  endloop
 endfacet
 facet normal 0 0 -1
  outer loop
   vertex 0.774161 0.0711835 -1
   vertex 0.778133 0.0757611 -1
   vertex 0.776157 0.0687882 -1
  endloop
 endfacet
 facet normal 0 0 -1
  outer loop
   vertex 0.776157 0.0687882 -1
   vertex 0.778133 0.0757611 -1
   vertex 0.780202 0.073323 -1
  endloop
 endfacet
 facet normal 0 0 -1
  outer loop
   vertex 0.776157 0.0687882 -1
   vertex 0.780202 0.073323 -1
   vertex 0.778074 0.0663299 -1
  endloop
 endfacet
 facet normal 0 0 -1
  outer loop
   vertex 0.778074 0.0663299 -1
   vertex 0.780202 0.073323 -1
   vertex 0.782194 0.0708218 -1
  endloop
 endfacet
 facet normal 0 0 -1
  outer loop
   vertex 0.778074 0.0663299 -1
   vertex 0.782194 0.0708218 -1
   vertex 0.779911 0.0638113 -1
  endloop
 endfacet
 facet normal 0 0 -1
  outer loop
   vertex 0.779911 0.0638113 -1
   vertex 0.782194 0.0708218 -1
   vertex 0.784107 0.06826 -1
  endloop
 endfacet
 facet normal 0 0 -1
  outer loop
   vertex 0.779911 0.0638113 -1
   vertex 0.784107 0.06826 -1
   vertex 0.781667 0.061235 -1
  endloop
 endfacet
 facet normal 0 0 -1
  outer loop
   vertex 0.781667 0.061235 -1
   vertex 0.784107 0.06826 -1
   vertex 0.78594 0.0656401 -1
  endloop
 endfacet
 facet normal 0 0 -1
  outer loop
   vertex 0.781667 0.061235 -1
   vertex 0.78594 0.0656401 -1
   vertex 0.783338 0.0586036 -1
  endloop
 endfacet
 facet normal 0 0 -1
  outer loop
   vertex 0.783338 0.0586036 -1
   vertex 0.78594 0.0656401 -1
   vertex 0.787691 0.0629645 -1
  endloop
 endfacet
 facet normal 0 0 -1
  outer loop
   vertex 0.783338 0.0586036 -1
   vertex 0.787691 0.0629645 -1
   vertex 0.784925 0.0559198 -1
  endloop
 endfacet
 facet normal 0 0 -1
  outer loop
   vertex 0.784925 0.0559198 -1
   vertex 0.787691 0.0629645 -1
   vertex 0.789358 0.0602359 -1
  endloop
 endfacet
 facet normal 0 0 -1
  outer loop
   vertex 0.784925 0.0559198 -1
   vertex 0.789358 0.0602359 -1
   vertex 0.790939 0.0574568 -1
  endloop
 endfacet
 facet normal -0 0 1
  outer loop
   vertex 0.698828 0.110902 1
   vertex 0.698863 0.108902 1
   vertex 0.702025 0.110908 1
  endloop
 endfacet
 facet normal 0 0 1
  outer loop
   vertex 0.702025 0.110908 1
   vertex 0.698863 0.108902 1
   vertex 0.70302 0.104888 1
  endloop
 endfacet
 facet normal 0 0 1
  outer loop
   vertex 0.702025 0.110908 1
   vertex 0.70302 0.104888 1
   vertex 0.705222 0.110815 1
  endloop
 endfacet
 facet normal 0 0 1
  outer loop
   vertex 0.705222 0.110815 1
   vertex 0.70302 0.104888 1
   vertex 0.706135 0.104761 1
  endloop
 endfacet
 facet normal 0 0 1
  outer loop
   vertex 0.705222 0.110815 1
   vertex 0.706135 0.104761 1
   vertex 0.708413 0.110623 1
  endloop
 endfacet
 facet normal 0 0 1
  outer loop
   vertex 0.708413 0.110623 1
   vertex 0.706135 0.104761 1
   vertex 0.709244 0.104534 1
  endloop
 endfacet
 facet normal 0 0 1
  outer loop
   vertex 0.708413 0.110623 1
   vertex 0.709244 0.104534 1
   vertex 0.711598 0.110332 1
  endloop
 endfacet
 facet normal 0 0 1
  outer loop
   vertex 0.711598 0.110332 1
   vertex 0.709244 0.104534 1
   vertex 0.712344 0.104207 1
  endloop
 endfacet
 facet normal 0 0 1
  outer loop
   vertex 0.711598 0.110332 1
   vertex 0.712344 0.104207 1
   vertex 0.714771 0.109942 1
  endloop
 endfacet
 facet normal 0 0 1
  outer loop
   vertex 0.714771 0.109942 1
   vertex 0.712344 0.104207 1
   vertex 0.715433 0.103781 1
  endloop
 endfacet
 facet normal 0 0 1
  outer loop
   vertex 0.714771 0.109942 1
   vertex 0.715433 0.103781 1
   vertex 0.717931 0.109454 1
  endloop
 endfacet
 facet normal 0 0 1
  outer loop
   vertex 0.717931 0.109454 1
   vertex 0.715433 0.103781 1
   vertex 0.718506 0.103256 1
  endloop
 endfacet
 facet normal -0 0 1
  outer loop
   vertex 0.796447 -0.0072739 1
   vertex 0.798422 -0.0075868 1
   vertex 0.796885 -0.0041873 1
  endloop
 endfacet
 facet normal 0 0 1
  outer loop
   vertex 0.796885 -0.0041873 1
   vertex 0.798422 -0.0075868 1
   vertex 0.802913 -0.0043239 1
  endloop
 endfacet
 facet normal -0 0 1
  outer loop
   vertex 0.796885 -0.0041873 1
   vertex 0.802913 -0.0043239 1
   vertex 0.797224 -0.0010882 1
  endloop
 endfacet
 facet normal 0 0 1
  outer loop
   vertex 0.797224 -0.0010882 1
   vertex 0.802913 -0.0043239 1
   vertex 0.803243 -0.0011435 1
  endloop
 endfacet
 facet normal -0 0 1
  outer loop
   vertex 0.797224 -0.0010882 1
   vertex 0.803243 -0.0011435 1
   vertex 0.797462 0.0020201 1
  endloop
 endfacet
 facet normal -0 0 1
  outer loop
   vertex 0.797462 0.0020201 1
   vertex 0.803243 -0.0011435 1
   vertex 0.803474 0.0020456 1
  endloop
 endfacet
 facet normal 0 0 1
  outer loop
   vertex 0.797462 0.0020201 1
   vertex 0.803474 0.0020456 1
   vertex 0.797602 0.0051345 1
  endloop
 endfacet
 facet normal -0 0 1
  outer loop
   vertex 0.797602 0.0051345 1
   vertex 0.803474 0.0020456 1
   vertex 0.803607 0.0052403 1
  endloop
 endfacet
 facet normal 0 0 1
  outer loop
   vertex 0.797602 0.0051345 1
   vertex 0.803607 0.0052403 1
   vertex 0.79764 0.0082518 1
  endloop
 endfacet
 facet normal -0 0 1
  outer loop
   vertex 0.79764 0.0082518 1
   vertex 0.803607 0.0052403 1
   vertex 0.80364 0.0084376 1
  endloop
 endfacet
 facet normal 0 -0 1
  outer loop
   vertex 0.79764 0.0082518 1
   vertex 0.80364 0.0084376 1
   vertex 0.797579 0.0113687 1
  endloop
 endfacet
 facet normal -0 0 1
  outer loop
   vertex 0.797579 0.0113687 1
   vertex 0.80364 0.0084376 1
   vertex 0.803573 0.0116344 1
  endloop
 endfacet
 facet normal 0 -0 1
  outer loop
   vertex 0.797579 0.0113687 1
   vertex 0.803573 0.0116344 1
   vertex 0.797418 0.0144821 1
  endloop
 endfacet
 facet normal -0 0 1
  outer loop
   vertex 0.797418 0.0144821 1
   vertex 0.803573 0.0116344 1
   vertex 0.803408 0.0148277 1
  endloop
 endfacet
 facet normal 0 -0 1
  outer loop
   vertex 0.797418 0.0144821 1
   vertex 0.803408 0.0148277 1
   vertex 0.797156 0.0175886 1
  endloop
 endfacet
 facet normal -0 0 1
  outer loop
   vertex 0.797156 0.0175886 1
   vertex 0.803408 0.0148277 1
   vertex 0.803144 0.0180142 1
  endloop
 endfacet
 facet normal 0 -0 1
  outer loop
   vertex 0.797156 0.0175886 1
   vertex 0.803144 0.0180142 1
   vertex 0.796795 0.0206852 1
  endloop
 endfacet
 facet normal -0 0 1
  outer loop
   vertex 0.796795 0.0206852 1
   vertex 0.803144 0.0180142 1
   vertex 0.80278 0.021191 1
  endloop
 endfacet
 facet normal 0 -0 1
  outer loop
   vertex 0.796795 0.0206852 1
   vertex 0.80278 0.021191 1
   vertex 0.796335 0.0237685 1
  endloop
 endfacet
 facet normal -0 0 1
  outer loop
   vertex 0.796335 0.0237685 1
   vertex 0.80278 0.021191 1
   vertex 0.802319 0.024355 1
  endloop
 endfacet
 facet normal 0 -0 1
  outer loop
   vertex 0.796335 0.0237685 1
   vertex 0.802319 0.024355 1
   vertex 0.795776 0.0268355 1
  endloop
 endfacet
 facet normal -0 0 1
  outer loop
   vertex 0.795776 0.0268355 1
   vertex 0.802319 0.024355 1
   vertex 0.801759 0.0275031 1
  endloop
 endfacet
 facet normal 0 -0 1
  outer loop
   vertex 0.795776 0.0268355 1
   vertex 0.801759 0.0275031 1
   vertex 0.795118 0.0298829 1
  endloop
 endfacet
 facet normal -0 0 1
  outer loop
   vertex 0.795118 0.0298829 1
   vertex 0.801759 0.0275031 1
   vertex 0.801102 0.0306324 1
  endloop
 endfacet
 facet normal 0 -0 1
  outer loop
   vertex 0.795118 0.0298829 1
   vertex 0.801102 0.0306324 1
   vertex 0.794363 0.0329076 1
  endloop
 endfacet
 facet normal -0 0 1
  outer loop
   vertex 0.794363 0.0329076 1
   vertex 0.801102 0.0306324 1
   vertex 0.800348 0.0337398 1
  endloop
 endfacet
 facet normal 0 -0 1
  outer loop
   vertex 0.794363 0.0329076 1
   vertex 0.800348 0.0337398 1
   vertex 0.793511 0.0359065 1
  endloop
 endfacet
 facet normal -0 0 1
  outer loop
   vertex 0.793511 0.0359065 1
   vertex 0.800348 0.0337398 1
   vertex 0.799498 0.0368223 1
  endloop
 endfacet
 facet normal 0 -0 1
  outer loop
   vertex 0.793511 0.0359065 1
   vertex 0.799498 0.0368223 1
   vertex 0.792564 0.0388765 1
  endloop
 endfacet
 facet normal -0 0 1
  outer loop
   vertex 0.792564 0.0388765 1
   vertex 0.799498 0.0368223 1
   vertex 0.798553 0.0398769 1
  endloop
 endfacet
 facet normal 0 -0 1
  outer loop
   vertex 0.792564 0.0388765 1
   vertex 0.798553 0.0398769 1
   vertex 0.791521 0.0418145 1
  endloop
 endfacet
 facet normal -0 0 1
  outer loop
   vertex 0.791521 0.0418145 1
   vertex 0.798553 0.0398769 1
   vertex 0.797514 0.0429006 1
  endloop
 endfacet
 facet normal 0 -0 1
  outer loop
   vertex 0.791521 0.0418145 1
   vertex 0.797514 0.0429006 1
   vertex 0.790385 0.0447175 1
  endloop
 endfacet
 facet normal -0 0 1
  outer loop
   vertex 0.790385 0.0447175 1
   vertex 0.797514 0.0429006 1
   vertex 0.796381 0.0458908 1
  endloop
 endfacet
 facet normal 0 -0 1
  outer loop
   vertex 0.790385 0.0447175 1
   vertex 0.796381 0.0458908 1
   vertex 0.789155 0.0475825 1
  endloop
 endfacet
 facet normal -0 0 1
  outer loop
   vertex 0.789155 0.0475825 1
   vertex 0.796381 0.0458908 1
   vertex 0.795156 0.0488443 1
  endloop
 endfacet
 facet normal 0 -0 1
  outer loop
   vertex 0.789155 0.0475825 1
   vertex 0.795156 0.0488443 1
   vertex 0.787835 0.0504064 1
  endloop
 endfacet
 facet normal -0 0 1
  outer loop
   vertex 0.787835 0.0504064 1
   vertex 0.795156 0.0488443 1
   vertex 0.79384 0.0517583 1
  endloop
 endfacet
 facet normal 0 -0 1
  outer loop
   vertex 0.787835 0.0504064 1
   vertex 0.79384 0.0517583 1
   vertex 0.786424 0.0531865 1
  endloop
 endfacet
 facet normal 0 0 1
  outer loop
   vertex 0.79384 0.0517583 1
   vertex 0.792434 0.0546301 1
   vertex 0.786424 0.0531865 1
  endloop
 endfacet
 facet normal 0 0 1
  outer loop
   vertex 0.786424 0.0531865 1
   vertex 0.792434 0.0546301 1
   vertex 0.790939 0.0574568 1
  endloop
 endfacet
 facet normal 0 -0 1
  outer loop
   vertex 0.786424 0.0531865 1
   vertex 0.790939 0.0574568 1
   vertex 0.784925 0.0559198 1
  endloop
 endfacet
 facet normal 0 0 1
  outer loop
   vertex 0.784925 0.0559198 1
   vertex 0.790939 0.0574568 1
   vertex 0.789358 0.0602359 1
  endloop
 endfacet
 facet normal 0 -0 1
  outer loop
   vertex 0.784925 0.0559198 1
   vertex 0.789358 0.0602359 1
   vertex 0.783338 0.0586036 1
  endloop
 endfacet
 facet normal 0 0 1
  outer loop
   vertex 0.783338 0.0586036 1
   vertex 0.789358 0.0602359 1
   vertex 0.787691 0.0629645 1
  endloop
 endfacet
 facet normal 0 -0 1
  outer loop
   vertex 0.783338 0.0586036 1
   vertex 0.787691 0.0629645 1
   vertex 0.781667 0.061235 1
  endloop
 endfacet
 facet normal 0 0 1
  outer loop
   vertex 0.781667 0.061235 1
   vertex 0.787691 0.0629645 1
   vertex 0.78594 0.0656401 1
  endloop
 endfacet
 facet normal 0 -0 1
  outer loop
   vertex 0.781667 0.061235 1
   vertex 0.78594 0.0656401 1
   vertex 0.779911 0.0638113 1
  endloop
 endfacet
 facet normal 0 0 1
  outer loop
   vertex 0.779911 0.0638113 1
   vertex 0.78594 0.0656401 1
   vertex 0.784107 0.06826 1
  endloop
 endfacet
 facet normal 0 -0 1
  outer loop
   vertex 0.779911 0.0638113 1
   vertex 0.784107 0.06826 1
   vertex 0.778074 0.0663299 1
  endloop
 endfacet
 facet normal 0 0 1
  outer loop
   vertex 0.778074 0.0663299 1
   vertex 0.784107 0.06826 1
   vertex 0.782194 0.0708218 1
  endloop
 endfacet
 facet normal 0 -0 1
  outer loop
   vertex 0.778074 0.0663299 1
   vertex 0.782194 0.0708218 1
   vertex 0.776157 0.0687882 1
  endloop
 endfacet
 facet normal 0 0 1
  outer loop
   vertex 0.776157 0.0687882 1
   vertex 0.782194 0.0708218 1
   vertex 0.780202 0.073323 1
  endloop
 endfacet
 facet normal 0 -0 1
  outer loop
   vertex 0.776157 0.0687882 1
   vertex 0.780202 0.073323 1
   vertex 0.774161 0.0711835 1
  endloop
 endfacet
 facet normal 0 0 1
  outer loop
   vertex 0.774161 0.0711835 1
   vertex 0.780202 0.073323 1
   vertex 0.778133 0.0757611 1
  endloop
 endfacet
 facet normal 0 -0 1
  outer loop
   vertex 0.774161 0.0711835 1
   vertex 0.778133 0.0757611 1
   vertex 0.77209 0.0735136 1
  endloop
 endfacet
 facet normal 0 0 1
  outer loop
   vertex 0.77209 0.0735136 1
   vertex 0.778133 0.0757611 1
   vertex 0.77599 0.0781339 1
  endloop
 endfacet
 facet normal 0 -0 1
  outer loop
   vertex 0.77209 0.0735136 1
   vertex 0.77599 0.0781339 1
   vertex 0.769945 0.0757759 1
  endloop
 endfacet
 facet normal 0 0 1
  outer loop
   vertex 0.769945 0.0757759 1
   vertex 0.77599 0.0781339 1
   vertex 0.773774 0.080439 1
  endloop
 endfacet
 facet normal 0 -0 1
  outer loop
   vertex 0.769945 0.0757759 1
   vertex 0.773774 0.080439 1
   vertex 0.767729 0.0779681 1
  endloop
 endfacet
 facet normal 0 0 1
  outer loop
   vertex 0.767729 0.0779681 1
   vertex 0.773774 0.080439 1
   vertex 0.771487 0.0826742 1
  endloop
 endfacet
 facet normal 0 -0 1
  outer loop
   vertex 0.767729 0.0779681 1
   vertex 0.771487 0.0826742 1
   vertex 0.765443 0.080088 1
  endloop
 endfacet
 facet normal 0 0 1
  outer loop
   vertex 0.765443 0.080088 1
   vertex 0.771487 0.0826742 1
   vertex 0.769133 0.0848374 1
  endloop
 endfacet
 facet normal 0 -0 1
  outer loop
   vertex 0.765443 0.080088 1
   vertex 0.769133 0.0848374 1
   vertex 0.76309 0.0821332 1
  endloop
 endfacet
 facet normal 0 0 1
  outer loop
   vertex 0.76309 0.0821332 1
   vertex 0.769133 0.0848374 1
   vertex 0.766712 0.0869265 1
  endloop
 endfacet
 facet normal 0 -0 1
  outer loop
   vertex 0.76309 0.0821332 1
   vertex 0.766712 0.0869265 1
   vertex 0.760673 0.0841019 1
  endloop
 endfacet
 facet normal 0 0 1
  outer loop
   vertex 0.760673 0.0841019 1
   vertex 0.766712 0.0869265 1
   vertex 0.764228 0.0889393 1
  endloop
 endfacet
 facet normal 0 -0 1
  outer loop
   vertex 0.760673 0.0841019 1
   vertex 0.764228 0.0889393 1
   vertex 0.758193 0.0859919 1
  endloop
 endfacet
 facet normal 0 0 1
  outer loop
   vertex 0.758193 0.0859919 1
   vertex 0.764228 0.0889393 1
   vertex 0.761682 0.0908742 1
  endloop
 endfacet
 facet normal 0 -0 1
  outer loop
   vertex 0.758193 0.0859919 1
   vertex 0.761682 0.0908742 1
   vertex 0.755654 0.0878012 1
  endloop
 endfacet
 facet normal 0 0 1
  outer loop
   vertex 0.755654 0.0878012 1
   vertex 0.761682 0.0908742 1
   vertex 0.759077 0.0927291 1
  endloop
 endfacet
 facet normal 0 -0 1
  outer loop
   vertex 0.755654 0.0878012 1
   vertex 0.759077 0.0927291 1
   vertex 0.753059 0.0895281 1
  endloop
 endfacet
 facet normal 0 0 1
  outer loop
   vertex 0.753059 0.0895281 1
   vertex 0.759077 0.0927291 1
   vertex 0.756417 0.0945023 1
  endloop
 endfacet
 facet normal 0 -0 1
  outer loop
   vertex 0.753059 0.0895281 1
   vertex 0.756417 0.0945023 1
   vertex 0.750409 0.0911706 1
  endloop
 endfacet
 facet normal 0 0 1
  outer loop
   vertex 0.750409 0.0911706 1
   vertex 0.756417 0.0945023 1
   vertex 0.753702 0.0961921 1
  endloop
 endfacet
 facet normal 0 -0 1
  outer loop
   vertex 0.750409 0.0911706 1
   vertex 0.753702 0.0961921 1
   vertex 0.747708 0.0927271 1
  endloop
 endfacet
 facet normal 0 0 1
  outer loop
   vertex 0.747708 0.0927271 1
   vertex 0.753702 0.0961921 1
   vertex 0.750936 0.0977968 1
  endloop
 endfacet
 facet normal 0 -0 1
  outer loop
   vertex 0.747708 0.0927271 1
   vertex 0.750936 0.0977968 1
   vertex 0.744958 0.0941962 1
  endloop
 endfacet
 facet normal 0 0 1
  outer loop
   vertex 0.744958 0.0941962 1
   vertex 0.750936 0.0977968 1
   vertex 0.748122 0.0993149 1
  endloop
 endfacet
 facet normal 0 -0 1
  outer loop
   vertex 0.744958 0.0941962 1
   vertex 0.748122 0.0993149 1
   vertex 0.742163 0.095576 1
  endloop
 endfacet
 facet normal 0 0 1
  outer loop
   vertex 0.742163 0.095576 1
   vertex 0.748122 0.0993149 1
   vertex 0.745262 0.100745 1
  endloop
 endfacet
 facet normal 0 -0 1
  outer loop
   vertex 0.742163 0.095576 1
   vertex 0.745262 0.100745 1
   vertex 0.739324 0.0968653 1
  endloop
 endfacet
 facet normal 0 0 1
  outer loop
   vertex 0.739324 0.0968653 1
   vertex 0.745262 0.100745 1
   vertex 0.742359 0.102085 1
  endloop
 endfacet
 facet normal 0 -0 1
  outer loop
   vertex 0.739324 0.0968653 1
   vertex 0.742359 0.102085 1
   vertex 0.736446 0.0980627 1
  endloop
 endfacet
 facet normal 0 0 1
  outer loop
   vertex 0.736446 0.0980627 1
   vertex 0.742359 0.102085 1
   vertex 0.739416 0.103335 1
  endloop
 endfacet
 facet normal 0 -0 1
  outer loop
   vertex 0.736446 0.0980627 1
   vertex 0.739416 0.103335 1
   vertex 0.733531 0.0991671 1
  endloop
 endfacet
 facet normal 0 0 1
  outer loop
   vertex 0.733531 0.0991671 1
   vertex 0.739416 0.103335 1
   vertex 0.736436 0.104493 1
  endloop
 endfacet
 facet normal 0 -0 1
  outer loop
   vertex 0.733531 0.0991671 1
   vertex 0.736436 0.104493 1
   vertex 0.730581 0.100177 1
  endloop
 endfacet
 facet normal 0 0 1
  outer loop
   vertex 0.730581 0.100177 1
   vertex 0.736436 0.104493 1
   vertex 0.733421 0.105558 1
  endloop
 endfacet
 facet normal 0 -0 1
  outer loop
   vertex 0.730581 0.100177 1
   vertex 0.733421 0.105558 1
   vertex 0.727601 0.101092 1
  endloop
 endfacet
 facet normal 0 0 1
  outer loop
   vertex 0.727601 0.101092 1
   vertex 0.733421 0.105558 1
   vertex 0.730374 0.106529 1
  endloop
 endfacet
 facet normal 0 -0 1
  outer loop
   vertex 0.727601 0.101092 1
   vertex 0.730374 0.106529 1
   vertex 0.724593 0.101911 1
  endloop
 endfacet
 facet normal 0 0 1
  outer loop
   vertex 0.724593 0.101911 1
   vertex 0.730374 0.106529 1
   vertex 0.727299 0.107405 1
  endloop
 endfacet
 facet normal 0 -0 1
  outer loop
   vertex 0.724593 0.101911 1
   vertex 0.727299 0.107405 1
   vertex 0.72156 0.102632 1
  endloop
 endfacet
 facet normal 0 0 1
  outer loop
   vertex 0.72156 0.102632 1
   vertex 0.727299 0.107405 1
   vertex 0.724198 0.108184 1
  endloop
 endfacet
 facet normal 0 -0 1
  outer loop
   vertex 0.72156 0.102632 1
   vertex 0.724198 0.108184 1
   vertex 0.718506 0.103256 1
  endloop
 endfacet
 facet normal 0 0 1
  outer loop
   vertex 0.718506 0.103256 1
   vertex 0.724198 0.108184 1
   vertex 0.721075 0.108868 1
  endloop
 endfacet
 facet normal 0 -0 1
  outer loop
   vertex 0.718506 0.103256 1
   vertex 0.721075 0.108868 1
   vertex 0.717931 0.109454 1
  endloop
 endfacet
 facet normal 0.587782 -0.809019 0
  outer loop
   vertex 0.802913 -0.0043239 1
   vertex 0.798422 -0.0075868 1
   vertex 0.802913 -0.0043239 -1
  endloop
 endfacet
 facet normal 0.587782 -0.809019 0
  outer loop
   vertex 0.802913 -0.0043239 -1
   vertex 0.798422 -0.0075868 1
   vertex 0.798422 -0.0075868 -1
  endloop
 endfacet
 facet normal -0.694657 -0.719341 -0
  outer loop
   vertex 0.70302 0.104888 1
   vertex 0.698863 0.108902 1
   vertex 0.70302 0.104888 -1
  endloop
 endfacet
 facet normal -0.694657 -0.719341 0
  outer loop
   vertex 0.70302 0.104888 -1
   vertex 0.698863 0.108902 1
   vertex 0.698863 0.108902 -1
  endloop
 endfacet
endsolid tunner_vane
