solid tunner_vane
 facet normal -0.00202342 0.999998 0
  outer loop
   vertex 0.0632242 0.00995029 -1
   vertex 0.0632242 0.00995029 1
   vertex 0.0637038 0.00995126 1
  endloop
 endfacet
 facet normal -0.00202342 0.999998 0
  outer loop
   vertex 0.0632242 0.00995029 -1
   vertex 0.0637038 0.00995126 1
   vertex 0.0637038 0.00995126 -1
  endloop
 endfacet
 facet normal 0.0291706 0.999574 -0
  outer loop
   vertex 0.0637038 0.00995126 -1
   vertex 0.0637038 0.00995126 1
   vertex 0.0641832 0.00993727 1
  endloop
 endfacet
 facet normal 0.0291706 0.999574 0
  outer loop
   vertex 0.0637038 0.00995126 -1
   vertex 0.0641832 0.00993727 1
   vertex 0.0641832 0.00993727 -1
  endloop
 endfacet
 facet normal 0.0601656 0.998188 -0
  outer loop
   vertex 0.0641832 0.00993727 -1
   vertex 0.0641832 0.00993727 1
   vertex 0.064662 0.00990841 1
  endloop
 endfacet
 facet normal 0.0601656 0.998188 0
  outer loop
   vertex 0.0641832 0.00993727 -1
   vertex 0.064662 0.00990841 1
   vertex 0.064662 0.00990841 -1
  endloop
 endfacet
 facet normal 0.0910367 0.995848 -0
  outer loop
   vertex 0.064662 0.00990841 -1
   vertex 0.064662 0.00990841 1
   vertex 0.0651397 0.00986474 1
  endloop
 endfacet
 facet normal 0.0910367 0.995848 0
  outer loop
   vertex 0.064662 0.00990841 -1
   vertex 0.0651397 0.00986474 1
   vertex 0.0651397 0.00986474 -1
  endloop
 endfacet
 facet normal 0.12186 0.992547 -0
  outer loop
   vertex 0.0651397 0.00986474 -1
   vertex 0.0651397 0.00986474 1
   vertex 0.0656157 0.0098063 1
  endloop
 endfacet
 facet normal 0.12186 0.992547 0
  outer loop
   vertex 0.0651397 0.00986474 -1
   vertex 0.0656157 0.0098063 1
   vertex 0.0656157 0.0098063 -1
  endloop
 endfacet
 facet normal 0.152683 0.988275 -0
  outer loop
   vertex 0.0656157 0.0098063 -1
   vertex 0.0656157 0.0098063 1
   vertex 0.0660897 0.00973307 1
  endloop
 endfacet
 facet normal 0.152683 0.988275 0
  outer loop
   vertex 0.0656157 0.0098063 -1
   vertex 0.0660897 0.00973307 1
   vertex 0.0660897 0.00973307 -1
  endloop
 endfacet
 facet normal 0.183268 0.983063 -0
  outer loop
   vertex 0.0660897 0.00973307 -1
   vertex 0.0660897 0.00973307 1
   vertex 0.0665612 0.00964517 1
  endloop
 endfacet
 facet normal 0.183268 0.983063 0
  outer loop
   vertex 0.0660897 0.00973307 -1
   vertex 0.0665612 0.00964517 1
   vertex 0.0665612 0.00964517 -1
  endloop
 endfacet
 facet normal 0.213727 0.976893 -0
  outer loop
   vertex 0.0665612 0.00964517 -1
   vertex 0.0665612 0.00964517 1
   vertex 0.0670297 0.00954267 1
  endloop
 endfacet
 facet normal 0.213727 0.976893 0
  outer loop
   vertex 0.0665612 0.00964517 -1
   vertex 0.0670297 0.00954267 1
   vertex 0.0670297 0.00954267 -1
  endloop
 endfacet
 facet normal 0.243851 0.969813 -0
  outer loop
   vertex 0.0670297 0.00954267 -1
   vertex 0.0670297 0.00954267 1
   vertex 0.0674949 0.0094257 1
  endloop
 endfacet
 facet normal 0.243851 0.969813 0
  outer loop
   vertex 0.0670297 0.00954267 -1
   vertex 0.0674949 0.0094257 1
   vertex 0.0674949 0.0094257 -1
  endloop
 endfacet
 facet normal 0.273947 0.961745 -0
  outer loop
   vertex 0.0674949 0.0094257 -1
   vertex 0.0674949 0.0094257 1
   vertex 0.0679561 0.00929433 1
  endloop
 endfacet
 facet normal 0.273947 0.961745 0
  outer loop
   vertex 0.0674949 0.0094257 -1
   vertex 0.0679561 0.00929433 1
   vertex 0.0679561 0.00929433 -1
  endloop
 endfacet
 facet normal 0.303583 0.952805 -0
  outer loop
   vertex 0.0679561 0.00929433 -1
   vertex 0.0679561 0.00929433 1
   vertex 0.0684131 0.00914872 1
  endloop
 endfacet
 facet normal 0.303583 0.952805 0
  outer loop
   vertex 0.0679561 0.00929433 -1
   vertex 0.0684131 0.00914872 1
   vertex 0.0684131 0.00914872 -1
  endloop
 endfacet
 facet normal 0.332994 0.942929 -0
  outer loop
   vertex 0.0684131 0.00914872 -1
   vertex 0.0684131 0.00914872 1
   vertex 0.0688654 0.00898899 1
  endloop
 endfacet
 facet normal 0.332994 0.942929 0
  outer loop
   vertex 0.0684131 0.00914872 -1
   vertex 0.0688654 0.00898899 1
   vertex 0.0688654 0.00898899 -1
  endloop
 endfacet
 facet normal 0.362102 0.932138 -0
  outer loop
   vertex 0.0688654 0.00898899 -1
   vertex 0.0688654 0.00898899 1
   vertex 0.0693125 0.00881531 1
  endloop
 endfacet
 facet normal 0.362102 0.932138 0
  outer loop
   vertex 0.0688654 0.00898899 -1
   vertex 0.0693125 0.00881531 1
   vertex 0.0693125 0.00881531 -1
  endloop
 endfacet
 facet normal 0.390936 0.920418 -0
  outer loop
   vertex 0.0693125 0.00881531 -1
   vertex 0.0693125 0.00881531 1
   vertex 0.0697539 0.00862783 1
  endloop
 endfacet
 facet normal 0.390936 0.920418 0
  outer loop
   vertex 0.0693125 0.00881531 -1
   vertex 0.0697539 0.00862783 1
   vertex 0.0697539 0.00862783 -1
  endloop
 endfacet
 facet normal 0.419195 0.907896 -0
  outer loop
   vertex 0.0697539 0.00862783 -1
   vertex 0.0697539 0.00862783 1
   vertex 0.0701894 0.00842675 1
  endloop
 endfacet
 facet normal 0.419195 0.907896 0
  outer loop
   vertex 0.0697539 0.00862783 -1
   vertex 0.0701894 0.00842675 1
   vertex 0.0701894 0.00842675 -1
  endloop
 endfacet
 facet normal 0.447314 0.894377 -0
  outer loop
   vertex 0.0701894 0.00842675 -1
   vertex 0.0701894 0.00842675 1
   vertex 0.0706183 0.00821224 1
  endloop
 endfacet
 facet normal 0.447314 0.894377 0
  outer loop
   vertex 0.0701894 0.00842675 -1
   vertex 0.0706183 0.00821224 1
   vertex 0.0706183 0.00821224 -1
  endloop
 endfacet
 facet normal 0.474715 0.88014 -0
  outer loop
   vertex 0.0706183 0.00821224 -1
   vertex 0.0706183 0.00821224 1
   vertex 0.0710405 0.00798452 1
  endloop
 endfacet
 facet normal 0.474715 0.88014 0
  outer loop
   vertex 0.0706183 0.00821224 -1
   vertex 0.0710405 0.00798452 1
   vertex 0.0710405 0.00798452 -1
  endloop
 endfacet
 facet normal 0.501902 0.864924 -0
  outer loop
   vertex 0.0710405 0.00798452 -1
   vertex 0.0710405 0.00798452 1
   vertex 0.0714553 0.00774382 1
  endloop
 endfacet
 facet normal 0.501902 0.864924 0
  outer loop
   vertex 0.0710405 0.00798452 -1
   vertex 0.0714553 0.00774382 1
   vertex 0.0714553 0.00774382 -1
  endloop
 endfacet
 facet normal 0.528457 0.84896 -0
  outer loop
   vertex 0.0714553 0.00774382 -1
   vertex 0.0714553 0.00774382 1
   vertex 0.0718625 0.00749035 1
  endloop
 endfacet
 facet normal 0.528457 0.84896 0
  outer loop
   vertex 0.0714553 0.00774382 -1
   vertex 0.0718625 0.00749035 1
   vertex 0.0718625 0.00749035 -1
  endloop
 endfacet
 facet normal 0.55457 0.832137 -0
  outer loop
   vertex 0.0718625 0.00749035 -1
   vertex 0.0718625 0.00749035 1
   vertex 0.0722616 0.00722437 1
  endloop
 endfacet
 facet normal 0.55457 0.832137 0
  outer loop
   vertex 0.0718625 0.00749035 -1
   vertex 0.0722616 0.00722437 1
   vertex 0.0722616 0.00722437 -1
  endloop
 endfacet
 facet normal 0.580075 0.814563 -0
  outer loop
   vertex 0.0722616 0.00722437 -1
   vertex 0.0722616 0.00722437 1
   vertex 0.0726523 0.00694614 1
  endloop
 endfacet
 facet normal 0.580075 0.814563 0
  outer loop
   vertex 0.0722616 0.00722437 -1
   vertex 0.0726523 0.00694614 1
   vertex 0.0726523 0.00694614 -1
  endloop
 endfacet
 facet normal 0.605181 0.796088 -0
  outer loop
   vertex 0.0726523 0.00694614 -1
   vertex 0.0726523 0.00694614 1
   vertex 0.0730341 0.0066559 1
  endloop
 endfacet
 facet normal 0.605181 0.796088 0
  outer loop
   vertex 0.0726523 0.00694614 -1
   vertex 0.0730341 0.0066559 1
   vertex 0.0730341 0.0066559 -1
  endloop
 endfacet
 facet normal 0.629475 0.777021 -0
  outer loop
   vertex 0.0730341 0.0066559 -1
   vertex 0.0730341 0.0066559 1
   vertex 0.0734068 0.00635397 1
  endloop
 endfacet
 facet normal 0.629475 0.777021 0
  outer loop
   vertex 0.0730341 0.0066559 -1
   vertex 0.0734068 0.00635397 1
   vertex 0.0734068 0.00635397 -1
  endloop
 endfacet
 facet normal 0.653353 0.757053 -0
  outer loop
   vertex 0.0734068 0.00635397 -1
   vertex 0.0734068 0.00635397 1
   vertex 0.0737699 0.00604061 1
  endloop
 endfacet
 facet normal 0.653353 0.757053 0
  outer loop
   vertex 0.0734068 0.00635397 -1
   vertex 0.0737699 0.00604061 1
   vertex 0.0737699 0.00604061 -1
  endloop
 endfacet
 facet normal 0.67653 0.736415 -0
  outer loop
   vertex 0.0737699 0.00604061 -1
   vertex 0.0737699 0.00604061 1
   vertex 0.0741231 0.00571613 1
  endloop
 endfacet
 facet normal 0.67653 0.736415 0
  outer loop
   vertex 0.0737699 0.00604061 -1
   vertex 0.0741231 0.00571613 1
   vertex 0.0741231 0.00571613 -1
  endloop
 endfacet
 facet normal 0.699011 0.715111 -0
  outer loop
   vertex 0.0741231 0.00571613 -1
   vertex 0.0741231 0.00571613 1
   vertex 0.0744661 0.00538085 1
  endloop
 endfacet
 facet normal 0.699011 0.715111 0
  outer loop
   vertex 0.0741231 0.00571613 -1
   vertex 0.0744661 0.00538085 1
   vertex 0.0744661 0.00538085 -1
  endloop
 endfacet
 facet normal 0.721015 0.692919 -0
  outer loop
   vertex 0.0744661 0.00538085 -1
   vertex 0.0744661 0.00538085 1
   vertex 0.0747984 0.00503508 1
  endloop
 endfacet
 facet normal 0.721015 0.692919 0
  outer loop
   vertex 0.0744661 0.00538085 -1
   vertex 0.0747984 0.00503508 1
   vertex 0.0747984 0.00503508 -1
  endloop
 endfacet
 facet normal 0.742078 0.670314 -0
  outer loop
   vertex 0.0747984 0.00503508 -1
   vertex 0.0747984 0.00503508 1
   vertex 0.0751199 0.00467916 1
  endloop
 endfacet
 facet normal 0.742078 0.670314 0
  outer loop
   vertex 0.0747984 0.00503508 -1
   vertex 0.0751199 0.00467916 1
   vertex 0.0751199 0.00467916 -1
  endloop
 endfacet
 facet normal 0.762516 0.64697 -0
  outer loop
   vertex 0.0751199 0.00467916 -1
   vertex 0.0751199 0.00467916 1
   vertex 0.0754302 0.00431344 1
  endloop
 endfacet
 facet normal 0.762516 0.64697 0
  outer loop
   vertex 0.0751199 0.00467916 -1
   vertex 0.0754302 0.00431344 1
   vertex 0.0754302 0.00431344 -1
  endloop
 endfacet
 facet normal 0.782228 0.622993 -0
  outer loop
   vertex 0.0754302 0.00431344 -1
   vertex 0.0754302 0.00431344 1
   vertex 0.075729 0.00393827 1
  endloop
 endfacet
 facet normal 0.782228 0.622993 0
  outer loop
   vertex 0.0754302 0.00431344 -1
   vertex 0.075729 0.00393827 1
   vertex 0.075729 0.00393827 -1
  endloop
 endfacet
 facet normal 0.801101 0.598529 -0
  outer loop
   vertex 0.075729 0.00393827 -1
   vertex 0.075729 0.00393827 1
   vertex 0.0760161 0.003554 1
  endloop
 endfacet
 facet normal 0.801101 0.598529 0
  outer loop
   vertex 0.075729 0.00393827 -1
   vertex 0.0760161 0.003554 1
   vertex 0.0760161 0.003554 -1
  endloop
 endfacet
 facet normal 0.819424 0.573188 -0
  outer loop
   vertex 0.0760161 0.003554 -1
   vertex 0.0760161 0.003554 1
   vertex 0.076291 0.003161 1
  endloop
 endfacet
 facet normal 0.819424 0.573188 0
  outer loop
   vertex 0.0760161 0.003554 -1
   vertex 0.076291 0.003161 1
   vertex 0.076291 0.003161 -1
  endloop
 endfacet
 facet normal 0.83679 0.547523 -0
  outer loop
   vertex 0.076291 0.003161 -1
   vertex 0.076291 0.003161 1
   vertex 0.0765536 0.00275967 1
  endloop
 endfacet
 facet normal 0.83679 0.547523 0
  outer loop
   vertex 0.076291 0.003161 -1
   vertex 0.0765536 0.00275967 1
   vertex 0.0765536 0.00275967 -1
  endloop
 endfacet
 facet normal 0.853301 0.521419 -0
  outer loop
   vertex 0.0765536 0.00275967 -1
   vertex 0.0765536 0.00275967 1
   vertex 0.0768037 0.00235038 1
  endloop
 endfacet
 facet normal 0.853301 0.521419 0
  outer loop
   vertex 0.0765536 0.00275967 -1
   vertex 0.0768037 0.00235038 1
   vertex 0.0768037 0.00235038 -1
  endloop
 endfacet
 facet normal 0.869137 0.494571 -0
  outer loop
   vertex 0.0768037 0.00235038 -1
   vertex 0.0768037 0.00235038 1
   vertex 0.0770409 0.00193353 1
  endloop
 endfacet
 facet normal 0.869137 0.494571 0
  outer loop
   vertex 0.0768037 0.00235038 -1
   vertex 0.0770409 0.00193353 1
   vertex 0.0770409 0.00193353 -1
  endloop
 endfacet
 facet normal 0.884031 0.467429 -0
  outer loop
   vertex 0.0770409 0.00193353 -1
   vertex 0.0770409 0.00193353 1
   vertex 0.0772651 0.00150952 1
  endloop
 endfacet
 facet normal 0.884031 0.467429 0
  outer loop
   vertex 0.0770409 0.00193353 -1
   vertex 0.0772651 0.00150952 1
   vertex 0.0772651 0.00150952 -1
  endloop
 endfacet
 facet normal 0.898222 0.439543 -0
  outer loop
   vertex 0.0772651 0.00150952 -1
   vertex 0.0772651 0.00150952 1
   vertex 0.0774759 0.00107874 1
  endloop
 endfacet
 facet normal 0.898222 0.439543 0
  outer loop
   vertex 0.0772651 0.00150952 -1
   vertex 0.0774759 0.00107874 1
   vertex 0.0774759 0.00107874 -1
  endloop
 endfacet
 facet normal 0.911295 0.411755 -0
  outer loop
   vertex 0.0774759 0.00107874 -1
   vertex 0.0774759 0.00107874 1
   vertex 0.0776734 0.000641634 1
  endloop
 endfacet
 facet normal 0.911295 0.411755 0
  outer loop
   vertex 0.0774759 0.00107874 -1
   vertex 0.0776734 0.000641634 1
   vertex 0.0776734 0.000641634 -1
  endloop
 endfacet
 facet normal 0.923736 0.38303 -0
  outer loop
   vertex 0.0776734 0.000641634 -1
   vertex 0.0776734 0.000641634 1
   vertex 0.0778571 0.00019861 1
  endloop
 endfacet
 facet normal 0.923736 0.38303 0
  outer loop
   vertex 0.0776734 0.000641634 -1
   vertex 0.0778571 0.00019861 1
   vertex 0.0778571 0.00019861 -1
  endloop
 endfacet
 facet normal 0.935084 0.354427 -0
  outer loop
   vertex 0.0778571 0.00019861 -1
   vertex 0.0778571 0.00019861 1
   vertex 0.0780271 -0.0002499 1
  endloop
 endfacet
 facet normal 0.935084 0.354427 0
  outer loop
   vertex 0.0778571 0.00019861 -1
   vertex 0.0780271 -0.0002499 1
   vertex 0.0780271 -0.0002499 -1
  endloop
 endfacet
 facet normal 0.945694 0.325059 -0
  outer loop
   vertex 0.0780271 -0.0002499 -1
   vertex 0.0780271 -0.0002499 1
   vertex 0.078183 -0.00070347 1
  endloop
 endfacet
 facet normal 0.945694 0.325059 0
  outer loop
   vertex 0.0780271 -0.0002499 -1
   vertex 0.078183 -0.00070347 1
   vertex 0.078183 -0.00070347 -1
  endloop
 endfacet
 facet normal 0.9553 0.295637 -0
  outer loop
   vertex 0.078183 -0.00070347 -1
   vertex 0.078183 -0.00070347 1
   vertex 0.0783248 -0.00116167 1
  endloop
 endfacet
 facet normal 0.9553 0.295637 0
  outer loop
   vertex 0.078183 -0.00070347 -1
   vertex 0.0783248 -0.00116167 1
   vertex 0.0783248 -0.00116167 -1
  endloop
 endfacet
 facet normal 0.964073 0.265638 -0
  outer loop
   vertex 0.0783248 -0.00116167 -1
   vertex 0.0783248 -0.00116167 1
   vertex 0.0784522 -0.00162403 1
  endloop
 endfacet
 facet normal 0.964073 0.265638 0
  outer loop
   vertex 0.0783248 -0.00116167 -1
   vertex 0.0784522 -0.00162403 1
   vertex 0.0784522 -0.00162403 -1
  endloop
 endfacet
 facet normal 0.971801 0.235804 -0
  outer loop
   vertex 0.0784522 -0.00162403 -1
   vertex 0.0784522 -0.00162403 1
   vertex 0.0785653 -0.00209014 1
  endloop
 endfacet
 facet normal 0.971801 0.235804 0
  outer loop
   vertex 0.0784522 -0.00162403 -1
   vertex 0.0785653 -0.00209014 1
   vertex 0.0785653 -0.00209014 -1
  endloop
 endfacet
 facet normal 0.978641 0.205575 -0
  outer loop
   vertex 0.0785653 -0.00209014 -1
   vertex 0.0785653 -0.00209014 1
   vertex 0.0786639 -0.00255953 1
  endloop
 endfacet
 facet normal 0.978641 0.205575 0
  outer loop
   vertex 0.0785653 -0.00209014 -1
   vertex 0.0786639 -0.00255953 1
   vertex 0.0786639 -0.00255953 -1
  endloop
 endfacet
 facet normal 0.98458 0.174934 -0
  outer loop
   vertex 0.0786639 -0.00255953 -1
   vertex 0.0786639 -0.00255953 1
   vertex 0.0787478 -0.00303175 1
  endloop
 endfacet
 facet normal 0.98458 0.174934 0
  outer loop
   vertex 0.0786639 -0.00255953 -1
   vertex 0.0787478 -0.00303175 1
   vertex 0.0787478 -0.00303175 -1
  endloop
 endfacet
 facet normal 0.989536 0.144284 -0
  outer loop
   vertex 0.0787478 -0.00303175 -1
   vertex 0.0787478 -0.00303175 1
   vertex 0.078817 -0.00350635 1
  endloop
 endfacet
 facet normal 0.989536 0.144284 0
  outer loop
   vertex 0.0787478 -0.00303175 -1
   vertex 0.078817 -0.00350635 1
   vertex 0.078817 -0.00350635 -1
  endloop
 endfacet
 facet normal 0.993523 0.113634 -0
  outer loop
   vertex 0.078817 -0.00350635 -1
   vertex 0.078817 -0.00350635 1
   vertex 0.0788715 -0.00398286 1
  endloop
 endfacet
 facet normal 0.993523 0.113634 0
  outer loop
   vertex 0.078817 -0.00350635 -1
   vertex 0.0788715 -0.00398286 1
   vertex 0.0788715 -0.00398286 -1
  endloop
 endfacet
 facet normal 0.996569 0.082766 -0
  outer loop
   vertex 0.0788715 -0.00398286 -1
   vertex 0.0788715 -0.00398286 1
   vertex 0.0789112 -0.00446084 1
  endloop
 endfacet
 facet normal 0.996569 0.082766 0
  outer loop
   vertex 0.0788715 -0.00398286 -1
   vertex 0.0789112 -0.00446084 1
   vertex 0.0789112 -0.00446084 -1
  endloop
 endfacet
 facet normal 0.998662 0.0517126 -0
  outer loop
   vertex 0.0789112 -0.00446084 -1
   vertex 0.0789112 -0.00446084 1
   vertex 0.078936 -0.00493983 1
  endloop
 endfacet
 facet normal 0.998662 0.0517126 0
  outer loop
   vertex 0.0789112 -0.00446084 -1
   vertex 0.078936 -0.00493983 1
   vertex 0.078936 -0.00493983 -1
  endloop
 endfacet
 facet normal 0.999783 0.0208469 -0
  outer loop
   vertex 0.078936 -0.00493983 -1
   vertex 0.078936 -0.00493983 1
   vertex 0.078946 -0.00541935 1
  endloop
 endfacet
 facet normal 0.999783 0.0208469 0
  outer loop
   vertex 0.078936 -0.00493983 -1
   vertex 0.078946 -0.00541935 1
   vertex 0.078946 -0.00541935 -1
  endloop
 endfacet
 facet normal 0.999946 -0.0104234 0
  outer loop
   vertex 0.078946 -0.00541935 -1
   vertex 0.078946 -0.00541935 1
   vertex 0.078941 -0.00589895 1
  endloop
 endfacet
 facet normal 0.999946 -0.0104234 0
  outer loop
   vertex 0.078946 -0.00541935 -1
   vertex 0.078941 -0.00589895 1
   vertex 0.078941 -0.00589895 -1
  endloop
 endfacet
 facet normal 0.999147 -0.0412869 0
  outer loop
   vertex 0.078941 -0.00589895 -1
   vertex 0.078941 -0.00589895 1
   vertex 0.0789212 -0.0063782 1
  endloop
 endfacet
 facet normal 0.999147 -0.0412869 0
  outer loop
   vertex 0.078941 -0.00589895 -1
   vertex 0.0789212 -0.0063782 1
   vertex 0.0789212 -0.0063782 -1
  endloop
 endfacet
 facet normal 0.997379 -0.07235 0
  outer loop
   vertex 0.0789212 -0.0063782 -1
   vertex 0.0789212 -0.0063782 1
   vertex 0.0788865 -0.00685652 1
  endloop
 endfacet
 facet normal 0.997379 -0.07235 0
  outer loop
   vertex 0.0789212 -0.0063782 -1
   vertex 0.0788865 -0.00685652 1
   vertex 0.0788865 -0.00685652 -1
  endloop
 endfacet
 facet normal 0.99464 -0.103403 0
  outer loop
   vertex 0.0788865 -0.00685652 -1
   vertex 0.0788865 -0.00685652 1
   vertex 0.0788369 -0.00733361 1
  endloop
 endfacet
 facet normal 0.99464 -0.103403 0
  outer loop
   vertex 0.0788865 -0.00685652 -1
   vertex 0.0788369 -0.00733361 1
   vertex 0.0788369 -0.00733361 -1
  endloop
 endfacet
 facet normal -0.156403 -0.987693 -0
  outer loop
   vertex 0.0781633 -0.00782302 1
   vertex 0.077867 -0.0077761 1
   vertex 0.0781633 -0.00782302 -1
  endloop
 endfacet
 facet normal -0.156403 -0.987693 0
  outer loop
   vertex 0.0781633 -0.00782302 -1
   vertex 0.077867 -0.0077761 1
   vertex 0.077867 -0.0077761 -1
  endloop
 endfacet
 facet normal -0.990081 0.140494 0
  outer loop
   vertex 0.077867 -0.0077761 -1
   vertex 0.077867 -0.0077761 1
   vertex 0.0779327 -0.00731311 -1
  endloop
 endfacet
 facet normal -0.990081 0.140494 0
  outer loop
   vertex 0.0779327 -0.00731311 -1
   vertex 0.077867 -0.0077761 1
   vertex 0.0779327 -0.00731311 1
  endloop
 endfacet
 facet normal -0.994082 0.10863 0
  outer loop
   vertex 0.0779327 -0.00731311 -1
   vertex 0.0779327 -0.00731311 1
   vertex 0.0779835 -0.00684825 -1
  endloop
 endfacet
 facet normal -0.994082 0.10863 0
  outer loop
   vertex 0.0779835 -0.00684825 -1
   vertex 0.0779327 -0.00731311 1
   vertex 0.0779835 -0.00684825 1
  endloop
 endfacet
 facet normal -0.997048 0.0767743 0
  outer loop
   vertex 0.0779835 -0.00684825 -1
   vertex 0.0779835 -0.00684825 1
   vertex 0.0780194 -0.00638197 -1
  endloop
 endfacet
 facet normal -0.997048 0.0767743 0
  outer loop
   vertex 0.0780194 -0.00638197 -1
   vertex 0.0779835 -0.00684825 1
   vertex 0.0780194 -0.00638197 1
  endloop
 endfacet
 facet normal -0.999011 0.0444697 0
  outer loop
   vertex 0.0780194 -0.00638197 -1
   vertex 0.0780194 -0.00638197 1
   vertex 0.0780402 -0.00591482 -1
  endloop
 endfacet
 facet normal -0.999011 0.0444697 0
  outer loop
   vertex 0.0780402 -0.00591482 -1
   vertex 0.0780194 -0.00638197 1
   vertex 0.0780402 -0.00591482 1
  endloop
 endfacet
 facet normal -0.99992 0.0126187 0
  outer loop
   vertex 0.0780402 -0.00591482 -1
   vertex 0.0780402 -0.00591482 1
   vertex 0.0780461 -0.00544723 -1
  endloop
 endfacet
 facet normal -0.99992 0.0126187 0
  outer loop
   vertex 0.0780461 -0.00544723 -1
   vertex 0.0780402 -0.00591482 1
   vertex 0.0780461 -0.00544723 1
  endloop
 endfacet
 facet normal -0.999806 -0.0196768 0
  outer loop
   vertex 0.0780461 -0.00544723 -1
   vertex 0.0780461 -0.00544723 1
   vertex 0.0780369 -0.00497969 -1
  endloop
 endfacet
 facet normal -0.999806 -0.0196768 0
  outer loop
   vertex 0.0780369 -0.00497969 -1
   vertex 0.0780461 -0.00544723 1
   vertex 0.0780369 -0.00497969 1
  endloop
 endfacet
 facet normal -0.998649 -0.0519551 0
  outer loop
   vertex 0.0780369 -0.00497969 -1
   vertex 0.0780369 -0.00497969 1
   vertex 0.0780126 -0.00451268 -1
  endloop
 endfacet
 facet normal -0.998649 -0.0519551 0
  outer loop
   vertex 0.0780126 -0.00451268 -1
   vertex 0.0780369 -0.00497969 1
   vertex 0.0780126 -0.00451268 1
  endloop
 endfacet
 facet normal -0.996481 -0.0838223 0
  outer loop
   vertex 0.0780126 -0.00451268 -1
   vertex 0.0780126 -0.00451268 1
   vertex 0.0779734 -0.0040467 -1
  endloop
 endfacet
 facet normal -0.996481 -0.0838223 0
  outer loop
   vertex 0.0779734 -0.0040467 -1
   vertex 0.0780126 -0.00451268 1
   vertex 0.0779734 -0.0040467 1
  endloop
 endfacet
 facet normal -0.993284 -0.115705 0
  outer loop
   vertex 0.0779734 -0.0040467 -1
   vertex 0.0779734 -0.0040467 1
   vertex 0.0779193 -0.00358222 -1
  endloop
 endfacet
 facet normal -0.993284 -0.115705 0
  outer loop
   vertex 0.0779193 -0.00358222 -1
   vertex 0.0779734 -0.0040467 1
   vertex 0.0779193 -0.00358222 1
  endloop
 endfacet
 facet normal -0.989023 -0.147758 0
  outer loop
   vertex 0.0779193 -0.00358222 -1
   vertex 0.0779193 -0.00358222 1
   vertex 0.0778502 -0.00311972 -1
  endloop
 endfacet
 facet normal -0.989023 -0.147758 0
  outer loop
   vertex 0.0778502 -0.00311972 -1
   vertex 0.0779193 -0.00358222 1
   vertex 0.0778502 -0.00311972 1
  endloop
 endfacet
 facet normal -0.983773 -0.179418 0
  outer loop
   vertex 0.0778502 -0.00311972 -1
   vertex 0.0778502 -0.00311972 1
   vertex 0.0777663 -0.00265968 -1
  endloop
 endfacet
 facet normal -0.983773 -0.179418 0
  outer loop
   vertex 0.0777663 -0.00265968 -1
   vertex 0.0778502 -0.00311972 1
   vertex 0.0777663 -0.00265968 1
  endloop
 endfacet
 facet normal -0.977518 -0.210851 0
  outer loop
   vertex 0.0777663 -0.00265968 -1
   vertex 0.0777663 -0.00265968 1
   vertex 0.0776677 -0.00220256 -1
  endloop
 endfacet
 facet normal -0.977518 -0.210851 0
  outer loop
   vertex 0.0776677 -0.00220256 -1
   vertex 0.0777663 -0.00265968 1
   vertex 0.0776677 -0.00220256 1
  endloop
 endfacet
 facet normal -0.970259 -0.242071 0
  outer loop
   vertex 0.0776677 -0.00220256 -1
   vertex 0.0776677 -0.00220256 1
   vertex 0.0775545 -0.00174885 -1
  endloop
 endfacet
 facet normal -0.970259 -0.242071 0
  outer loop
   vertex 0.0775545 -0.00174885 -1
   vertex 0.0776677 -0.00220256 1
   vertex 0.0775545 -0.00174885 1
  endloop
 endfacet
 facet normal -0.961931 -0.273291 0
  outer loop
   vertex 0.0775545 -0.00174885 -1
   vertex 0.0775545 -0.00174885 1
   vertex 0.0774267 -0.00129902 -1
  endloop
 endfacet
 facet normal -0.961931 -0.273291 0
  outer loop
   vertex 0.0774267 -0.00129902 -1
   vertex 0.0775545 -0.00174885 1
   vertex 0.0774267 -0.00129902 1
  endloop
 endfacet
 facet normal -0.952706 -0.303893 0
  outer loop
   vertex 0.0774267 -0.00129902 -1
   vertex 0.0774267 -0.00129902 1
   vertex 0.0772846 -0.00085352 -1
  endloop
 endfacet
 facet normal -0.952706 -0.303893 0
  outer loop
   vertex 0.0772846 -0.00085352 -1
   vertex 0.0774267 -0.00129902 1
   vertex 0.0772846 -0.00085352 1
  endloop
 endfacet
 facet normal -0.942343 -0.334648 0
  outer loop
   vertex 0.0772846 -0.00085352 -1
   vertex 0.0772846 -0.00085352 1
   vertex 0.0771281 -0.00041283 -1
  endloop
 endfacet
 facet normal -0.942343 -0.334648 0
  outer loop
   vertex 0.0771281 -0.00041283 -1
   vertex 0.0772846 -0.00085352 1
   vertex 0.0771281 -0.00041283 1
  endloop
 endfacet
 facet normal -0.931242 -0.364402 0
  outer loop
   vertex 0.0771281 -0.00041283 -1
   vertex 0.0771281 -0.00041283 1
   vertex 0.0769577 2.262e-05 -1
  endloop
 endfacet
 facet normal -0.931242 -0.364402 0
  outer loop
   vertex 0.0769577 2.262e-05 -1
   vertex 0.0771281 -0.00041283 1
   vertex 0.0769577 2.262e-05 1
  endloop
 endfacet
 facet normal -0.918969 -0.39433 0
  outer loop
   vertex 0.0769577 2.262e-05 -1
   vertex 0.0769577 2.262e-05 1
   vertex 0.0767733 0.00045236 -1
  endloop
 endfacet
 facet normal -0.918969 -0.39433 0
  outer loop
   vertex 0.0767733 0.00045236 -1
   vertex 0.0769577 2.262e-05 1
   vertex 0.0767733 0.00045236 1
  endloop
 endfacet
 facet normal -0.905837 -0.423626 0
  outer loop
   vertex 0.0767733 0.00045236 -1
   vertex 0.0767733 0.00045236 1
   vertex 0.0765752 0.000875964 -1
  endloop
 endfacet
 facet normal -0.905837 -0.423626 0
  outer loop
   vertex 0.0765752 0.000875964 -1
   vertex 0.0767733 0.00045236 1
   vertex 0.0765752 0.000875964 1
  endloop
 endfacet
 facet normal -0.89177 -0.452489 0
  outer loop
   vertex 0.0765752 0.000875964 -1
   vertex 0.0765752 0.000875964 1
   vertex 0.0763636 0.00129298 -1
  endloop
 endfacet
 facet normal -0.89177 -0.452489 0
  outer loop
   vertex 0.0763636 0.00129298 -1
   vertex 0.0765752 0.000875964 1
   vertex 0.0763636 0.00129298 1
  endloop
 endfacet
 facet normal -0.876754 -0.480939 0
  outer loop
   vertex 0.0763636 0.00129298 -1
   vertex 0.0763636 0.00129298 1
   vertex 0.0761387 0.00170298 -1
  endloop
 endfacet
 facet normal -0.876754 -0.480939 0
  outer loop
   vertex 0.0761387 0.00170298 -1
   vertex 0.0763636 0.00129298 1
   vertex 0.0761387 0.00170298 1
  endloop
 endfacet
 facet normal -0.860909 -0.508758 0
  outer loop
   vertex 0.0761387 0.00170298 -1
   vertex 0.0761387 0.00170298 1
   vertex 0.0759008 0.00210555 -1
  endloop
 endfacet
 facet normal -0.860909 -0.508758 0
  outer loop
   vertex 0.0759008 0.00210555 -1
   vertex 0.0761387 0.00170298 1
   vertex 0.0759008 0.00210555 1
  endloop
 endfacet
 facet normal -0.844024 -0.536306 0
  outer loop
   vertex 0.0759008 0.00210555 -1
   vertex 0.0759008 0.00210555 1
   vertex 0.07565 0.00250025 -1
  endloop
 endfacet
 facet normal -0.844024 -0.536306 0
  outer loop
   vertex 0.07565 0.00250025 -1
   vertex 0.0759008 0.00210555 1
   vertex 0.07565 0.00250025 1
  endloop
 endfacet
 facet normal -0.826419 -0.563056 0
  outer loop
   vertex 0.07565 0.00250025 -1
   vertex 0.07565 0.00250025 1
   vertex 0.0753867 0.0028867 -1
  endloop
 endfacet
 facet normal -0.826419 -0.563056 0
  outer loop
   vertex 0.0753867 0.0028867 -1
   vertex 0.07565 0.00250025 1
   vertex 0.0753867 0.0028867 1
  endloop
 endfacet
 facet normal -0.807873 -0.589357 0
  outer loop
   vertex 0.0753867 0.0028867 -1
   vertex 0.0753867 0.0028867 1
   vertex 0.0751111 0.00326449 -1
  endloop
 endfacet
 facet normal -0.807873 -0.589357 0
  outer loop
   vertex 0.0751111 0.00326449 -1
   vertex 0.0753867 0.0028867 1
   vertex 0.0751111 0.00326449 1
  endloop
 endfacet
 facet normal -0.78852 -0.615009 0
  outer loop
   vertex 0.0751111 0.00326449 -1
   vertex 0.0751111 0.00326449 1
   vertex 0.0748235 0.00363323 -1
  endloop
 endfacet
 facet normal -0.78852 -0.615009 0
  outer loop
   vertex 0.0748235 0.00363323 -1
   vertex 0.0751111 0.00326449 1
   vertex 0.0748235 0.00363323 1
  endloop
 endfacet
 facet normal -0.768347 -0.640034 0
  outer loop
   vertex 0.0748235 0.00363323 -1
   vertex 0.0748235 0.00363323 1
   vertex 0.0745242 0.00399253 -1
  endloop
 endfacet
 facet normal -0.768347 -0.640034 0
  outer loop
   vertex 0.0745242 0.00399253 -1
   vertex 0.0748235 0.00363323 1
   vertex 0.0745242 0.00399253 1
  endloop
 endfacet
 facet normal -0.747379 -0.664398 0
  outer loop
   vertex 0.0745242 0.00399253 -1
   vertex 0.0745242 0.00399253 1
   vertex 0.0742135 0.00434204 -1
  endloop
 endfacet
 facet normal -0.747379 -0.664398 0
  outer loop
   vertex 0.0742135 0.00434204 -1
   vertex 0.0745242 0.00399253 1
   vertex 0.0742135 0.00434204 1
  endloop
 endfacet
 facet normal -0.725735 -0.687975 0
  outer loop
   vertex 0.0742135 0.00434204 -1
   vertex 0.0742135 0.00434204 1
   vertex 0.0738918 0.00468139 -1
  endloop
 endfacet
 facet normal -0.725735 -0.687975 0
  outer loop
   vertex 0.0738918 0.00468139 -1
   vertex 0.0742135 0.00434204 1
   vertex 0.0738918 0.00468139 1
  endloop
 endfacet
 facet normal -0.703156 -0.711035 0
  outer loop
   vertex 0.0738918 0.00468139 -1
   vertex 0.0738918 0.00468139 1
   vertex 0.0735593 0.00501021 -1
  endloop
 endfacet
 facet normal -0.703156 -0.711035 0
  outer loop
   vertex 0.0735593 0.00501021 -1
   vertex 0.0738918 0.00468139 1
   vertex 0.0735593 0.00501021 1
  endloop
 endfacet
 facet normal -0.679963 -0.733247 0
  outer loop
   vertex 0.0735593 0.00501021 -1
   vertex 0.0735593 0.00501021 1
   vertex 0.0732164 0.00532819 -1
  endloop
 endfacet
 facet normal -0.679963 -0.733247 0
  outer loop
   vertex 0.0732164 0.00532819 -1
   vertex 0.0735593 0.00501021 1
   vertex 0.0732164 0.00532819 1
  endloop
 endfacet
 facet normal -0.65609 -0.754683 0
  outer loop
   vertex 0.0732164 0.00532819 -1
   vertex 0.0732164 0.00532819 1
   vertex 0.0728635 0.00563499 -1
  endloop
 endfacet
 facet normal -0.65609 -0.754683 0
  outer loop
   vertex 0.0728635 0.00563499 -1
   vertex 0.0732164 0.00532819 1
   vertex 0.0728635 0.00563499 1
  endloop
 endfacet
 facet normal -0.631481 -0.775392 0
  outer loop
   vertex 0.0728635 0.00563499 -1
   vertex 0.0728635 0.00563499 1
   vertex 0.0725009 0.00593029 -1
  endloop
 endfacet
 facet normal -0.631481 -0.775392 0
  outer loop
   vertex 0.0725009 0.00593029 -1
   vertex 0.0728635 0.00563499 1
   vertex 0.0725009 0.00593029 1
  endloop
 endfacet
 facet normal -0.606234 -0.795287 0
  outer loop
   vertex 0.0725009 0.00593029 -1
   vertex 0.0725009 0.00593029 1
   vertex 0.072129 0.00621378 -1
  endloop
 endfacet
 facet normal -0.606234 -0.795287 0
  outer loop
   vertex 0.072129 0.00621378 -1
   vertex 0.0725009 0.00593029 1
   vertex 0.072129 0.00621378 1
  endloop
 endfacet
 facet normal -0.580382 -0.814345 0
  outer loop
   vertex 0.072129 0.00621378 -1
   vertex 0.072129 0.00621378 1
   vertex 0.0717482 0.00648518 -1
  endloop
 endfacet
 facet normal -0.580382 -0.814345 0
  outer loop
   vertex 0.0717482 0.00648518 -1
   vertex 0.072129 0.00621378 1
   vertex 0.0717482 0.00648518 1
  endloop
 endfacet
 facet normal -0.553844 -0.83262 0
  outer loop
   vertex 0.0717482 0.00648518 -1
   vertex 0.0717482 0.00648518 1
   vertex 0.0713588 0.0067442 -1
  endloop
 endfacet
 facet normal -0.553844 -0.83262 0
  outer loop
   vertex 0.0713588 0.0067442 -1
   vertex 0.0717482 0.00648518 1
   vertex 0.0713588 0.0067442 1
  endloop
 endfacet
 facet normal -0.526944 -0.8499 0
  outer loop
   vertex 0.0713588 0.0067442 -1
   vertex 0.0713588 0.0067442 1
   vertex 0.0709614 0.00699059 -1
  endloop
 endfacet
 facet normal -0.526944 -0.8499 0
  outer loop
   vertex 0.0709614 0.00699059 -1
   vertex 0.0713588 0.0067442 1
   vertex 0.0709614 0.00699059 1
  endloop
 endfacet
 facet normal -0.499258 -0.866453 0
  outer loop
   vertex 0.0709614 0.00699059 -1
   vertex 0.0709614 0.00699059 1
   vertex 0.0705562 0.00722407 -1
  endloop
 endfacet
 facet normal -0.499258 -0.866453 0
  outer loop
   vertex 0.0705562 0.00722407 -1
   vertex 0.0709614 0.00699059 1
   vertex 0.0705562 0.00722407 1
  endloop
 endfacet
 facet normal -0.47117 -0.882043 0
  outer loop
   vertex 0.0705562 0.00722407 -1
   vertex 0.0705562 0.00722407 1
   vertex 0.0701437 0.00744442 -1
  endloop
 endfacet
 facet normal -0.47117 -0.882043 0
  outer loop
   vertex 0.0701437 0.00744442 -1
   vertex 0.0705562 0.00722407 1
   vertex 0.0701437 0.00744442 1
  endloop
 endfacet
 facet normal -0.442626 -0.896706 0
  outer loop
   vertex 0.0701437 0.00744442 -1
   vertex 0.0701437 0.00744442 1
   vertex 0.0697244 0.00765139 -1
  endloop
 endfacet
 facet normal -0.442626 -0.896706 0
  outer loop
   vertex 0.0697244 0.00765139 -1
   vertex 0.0701437 0.00744442 1
   vertex 0.0697244 0.00765139 1
  endloop
 endfacet
 facet normal -0.41364 -0.91044 0
  outer loop
   vertex 0.0697244 0.00765139 -1
   vertex 0.0697244 0.00765139 1
   vertex 0.0692987 0.0078448 -1
  endloop
 endfacet
 facet normal -0.41364 -0.91044 0
  outer loop
   vertex 0.0692987 0.0078448 -1
   vertex 0.0697244 0.00765139 1
   vertex 0.0692987 0.0078448 1
  endloop
 endfacet
 facet normal -0.384076 -0.923301 0
  outer loop
   vertex 0.0692987 0.0078448 -1
   vertex 0.0692987 0.0078448 1
   vertex 0.0688669 0.00802442 -1
  endloop
 endfacet
 facet normal -0.384076 -0.923301 0
  outer loop
   vertex 0.0688669 0.00802442 -1
   vertex 0.0692987 0.0078448 1
   vertex 0.0688669 0.00802442 1
  endloop
 endfacet
 facet normal -0.354235 -0.935157 0
  outer loop
   vertex 0.0688669 0.00802442 -1
   vertex 0.0688669 0.00802442 1
   vertex 0.0684296 0.00819007 -1
  endloop
 endfacet
 facet normal -0.354235 -0.935157 0
  outer loop
   vertex 0.0684296 0.00819007 -1
   vertex 0.0688669 0.00802442 1
   vertex 0.0684296 0.00819007 1
  endloop
 endfacet
 facet normal -0.324023 -0.946049 0
  outer loop
   vertex 0.0684296 0.00819007 -1
   vertex 0.0684296 0.00819007 1
   vertex 0.0679872 0.00834159 -1
  endloop
 endfacet
 facet normal -0.324023 -0.946049 0
  outer loop
   vertex 0.0679872 0.00834159 -1
   vertex 0.0684296 0.00819007 1
   vertex 0.0679872 0.00834159 1
  endloop
 endfacet
 facet normal -0.293461 -0.955971 0
  outer loop
   vertex 0.0679872 0.00834159 -1
   vertex 0.0679872 0.00834159 1
   vertex 0.0675402 0.00847881 -1
  endloop
 endfacet
 facet normal -0.293461 -0.955971 0
  outer loop
   vertex 0.0675402 0.00847881 -1
   vertex 0.0679872 0.00834159 1
   vertex 0.0675402 0.00847881 1
  endloop
 endfacet
 facet normal -0.262558 -0.964916 0
  outer loop
   vertex 0.0675402 0.00847881 -1
   vertex 0.0675402 0.00847881 1
   vertex 0.0670889 0.00860161 -1
  endloop
 endfacet
 facet normal -0.262558 -0.964916 0
  outer loop
   vertex 0.0670889 0.00860161 -1
   vertex 0.0675402 0.00847881 1
   vertex 0.0670889 0.00860161 1
  endloop
 endfacet
 facet normal -0.231437 -0.97285 0
  outer loop
   vertex 0.0670889 0.00860161 -1
   vertex 0.0670889 0.00860161 1
   vertex 0.066634 0.00870983 -1
  endloop
 endfacet
 facet normal -0.231437 -0.97285 0
  outer loop
   vertex 0.066634 0.00870983 -1
   vertex 0.0670889 0.00860161 1
   vertex 0.066634 0.00870983 1
  endloop
 endfacet
 facet normal -0.200064 -0.979783 0
  outer loop
   vertex 0.066634 0.00870983 -1
   vertex 0.066634 0.00870983 1
   vertex 0.0661758 0.00880339 -1
  endloop
 endfacet
 facet normal -0.200064 -0.979783 0
  outer loop
   vertex 0.0661758 0.00880339 -1
   vertex 0.066634 0.00870983 1
   vertex 0.0661758 0.00880339 1
  endloop
 endfacet
 facet normal -0.168503 -0.985701 0
  outer loop
   vertex 0.0661758 0.00880339 -1
   vertex 0.0661758 0.00880339 1
   vertex 0.0657149 0.00888218 -1
  endloop
 endfacet
 facet normal -0.168503 -0.985701 0
  outer loop
   vertex 0.0657149 0.00888218 -1
   vertex 0.0661758 0.00880339 1
   vertex 0.0657149 0.00888218 1
  endloop
 endfacet
 facet normal -0.136694 -0.990613 0
  outer loop
   vertex 0.0657149 0.00888218 -1
   vertex 0.0657149 0.00888218 1
   vertex 0.0652516 0.00894611 -1
  endloop
 endfacet
 facet normal -0.136694 -0.990613 0
  outer loop
   vertex 0.0652516 0.00894611 -1
   vertex 0.0657149 0.00888218 1
   vertex 0.0652516 0.00894611 1
  endloop
 endfacet
 facet normal -0.104795 -0.994494 0
  outer loop
   vertex 0.0652516 0.00894611 -1
   vertex 0.0652516 0.00894611 1
   vertex 0.0647866 0.00899511 -1
  endloop
 endfacet
 facet normal -0.104795 -0.994494 0
  outer loop
   vertex 0.0647866 0.00899511 -1
   vertex 0.0652516 0.00894611 1
   vertex 0.0647866 0.00899511 1
  endloop
 endfacet
 facet normal -0.0728542 -0.997343 0
  outer loop
   vertex 0.0647866 0.00899511 -1
   vertex 0.0647866 0.00899511 1
   vertex 0.0643202 0.00902918 -1
  endloop
 endfacet
 facet normal -0.0728542 -0.997343 0
  outer loop
   vertex 0.0643202 0.00902918 -1
   vertex 0.0647866 0.00899511 1
   vertex 0.0643202 0.00902918 1
  endloop
 endfacet
 facet normal -0.040699 -0.999171 0
  outer loop
   vertex 0.0643202 0.00902918 -1
   vertex 0.0643202 0.00902918 1
   vertex 0.063853 0.00904821 -1
  endloop
 endfacet
 facet normal -0.040699 -0.999171 0
  outer loop
   vertex 0.063853 0.00904821 -1
   vertex 0.0643202 0.00902918 1
   vertex 0.063853 0.00904821 1
  endloop
 endfacet
 facet normal -0.999844 -0.0176829 -0
  outer loop
   vertex 0.0632295 0.00965034 1
   vertex 0.0632242 0.00995029 1
   vertex 0.0632295 0.00965034 -1
  endloop
 endfacet
 facet normal -0.999844 -0.0176829 0
  outer loop
   vertex 0.0632295 0.00965034 -1
   vertex 0.0632242 0.00995029 1
   vertex 0.0632242 0.00995029 -1
  endloop
 endfacet
 facet normal 0 0 -1
  outer loop
   vertex 0.0632295 0.00965034 -1
   vertex 0.0632242 0.00995029 -1
   vertex 0.063853 0.00904821 -1
  endloop
 endfacet
 facet normal 0 0 -1
  outer loop
   vertex 0.063853 0.00904821 -1
   vertex 0.0632242 0.00995029 -1
   vertex 0.0637038 0.00995126 -1
  endloop
 endfacet
 facet normal 0 0 -1
  outer loop
   vertex 0.063853 0.00904821 -1
   vertex 0.0637038 0.00995126 -1
   vertex 0.0643202 0.00902918 -1
  endloop
 endfacet
 facet normal 0 0 -1
  outer loop
   vertex 0.0643202 0.00902918 -1
   vertex 0.0637038 0.00995126 -1
   vertex 0.0641832 0.00993727 -1
  endloop
 endfacet
 facet normal 0 0 -1
  outer loop
   vertex 0.0643202 0.00902918 -1
   vertex 0.0641832 0.00993727 -1
   vertex 0.0647866 0.00899511 -1
  endloop
 endfacet
 facet normal 0 0 -1
  outer loop
   vertex 0.0647866 0.00899511 -1
   vertex 0.0641832 0.00993727 -1
   vertex 0.064662 0.00990841 -1
  endloop
 endfacet
 facet normal 0 0 -1
  outer loop
   vertex 0.0647866 0.00899511 -1
   vertex 0.064662 0.00990841 -1
   vertex 0.0652516 0.00894611 -1
  endloop
 endfacet
 facet normal 0 0 -1
  outer loop
   vertex 0.0652516 0.00894611 -1
   vertex 0.064662 0.00990841 -1
   vertex 0.0651397 0.00986474 -1
  endloop
 endfacet
 facet normal 0 0 -1
  outer loop
   vertex 0.0652516 0.00894611 -1
   vertex 0.0651397 0.00986474 -1
   vertex 0.0657149 0.00888218 -1
  endloop
 endfacet
 facet normal 0 0 -1
  outer loop
   vertex 0.0781633 -0.00782302 -1
   vertex 0.077867 -0.0077761 -1
   vertex 0.0788369 -0.00733361 -1
  endloop
 endfacet
 facet normal -0 0 -1
  outer loop
   vertex 0.0788369 -0.00733361 -1
   vertex 0.077867 -0.0077761 -1
   vertex 0.0779327 -0.00731311 -1
  endloop
 endfacet
 facet normal 0 0 -1
  outer loop
   vertex 0.0788369 -0.00733361 -1
   vertex 0.0779327 -0.00731311 -1
   vertex 0.0788865 -0.00685652 -1
  endloop
 endfacet
 facet normal -0 0 -1
  outer loop
   vertex 0.0788865 -0.00685652 -1
   vertex 0.0779327 -0.00731311 -1
   vertex 0.0779835 -0.00684825 -1
  endloop
 endfacet
 facet normal 0 0 -1
  outer loop
   vertex 0.0788865 -0.00685652 -1
   vertex 0.0779835 -0.00684825 -1
   vertex 0.0789212 -0.0063782 -1
  endloop
 endfacet
 facet normal 0 0 -1
  outer loop
   vertex 0.0789212 -0.0063782 -1
   vertex 0.0779835 -0.00684825 -1
   vertex 0.0780194 -0.00638197 -1
  endloop
 endfacet
 facet normal -0 0 -1
  outer loop
   vertex 0.0789212 -0.0063782 -1
   vertex 0.0780194 -0.00638197 -1
   vertex 0.078941 -0.00589895 -1
  endloop
 endfacet
 facet normal 0 0 -1
  outer loop
   vertex 0.078941 -0.00589895 -1
   vertex 0.0780194 -0.00638197 -1
   vertex 0.0780402 -0.00591482 -1
  endloop
 endfacet
 facet normal -0 0 -1
  outer loop
   vertex 0.078941 -0.00589895 -1
   vertex 0.0780402 -0.00591482 -1
   vertex 0.078946 -0.00541935 -1
  endloop
 endfacet
 facet normal 0 0 -1
  outer loop
   vertex 0.078946 -0.00541935 -1
   vertex 0.0780402 -0.00591482 -1
   vertex 0.0780461 -0.00544723 -1
  endloop
 endfacet
 facet normal -0 0 -1
  outer loop
   vertex 0.078946 -0.00541935 -1
   vertex 0.0780461 -0.00544723 -1
   vertex 0.078936 -0.00493983 -1
  endloop
 endfacet
 facet normal 0 0 -1
  outer loop
   vertex 0.078936 -0.00493983 -1
   vertex 0.0780461 -0.00544723 -1
   vertex 0.0780369 -0.00497969 -1
  endloop
 endfacet
 facet normal -0 0 -1
  outer loop
   vertex 0.078936 -0.00493983 -1
   vertex 0.0780369 -0.00497969 -1
   vertex 0.0789112 -0.00446084 -1
  endloop
 endfacet
 facet normal 0 0 -1
  outer loop
   vertex 0.0789112 -0.00446084 -1
   vertex 0.0780369 -0.00497969 -1
   vertex 0.0780126 -0.00451268 -1
  endloop
 endfacet
 facet normal -0 0 -1
  outer loop
   vertex 0.0789112 -0.00446084 -1
   vertex 0.0780126 -0.00451268 -1
   vertex 0.0788715 -0.00398286 -1
  endloop
 endfacet
 facet normal 0 0 -1
  outer loop
   vertex 0.0788715 -0.00398286 -1
   vertex 0.0780126 -0.00451268 -1
   vertex 0.0779734 -0.0040467 -1
  endloop
 endfacet
 facet normal -0 0 -1
  outer loop
   vertex 0.0788715 -0.00398286 -1
   vertex 0.0779734 -0.0040467 -1
   vertex 0.078817 -0.00350635 -1
  endloop
 endfacet
 facet normal 0 0 -1
  outer loop
   vertex 0.078817 -0.00350635 -1
   vertex 0.0779734 -0.0040467 -1
   vertex 0.0779193 -0.00358222 -1
  endloop
 endfacet
 facet normal -0 0 -1
  outer loop
   vertex 0.078817 -0.00350635 -1
   vertex 0.0779193 -0.00358222 -1
   vertex 0.0787478 -0.00303175 -1
  endloop
 endfacet
 facet normal 0 0 -1
  outer loop
   vertex 0.0787478 -0.00303175 -1
   vertex 0.0779193 -0.00358222 -1
   vertex 0.0778502 -0.00311972 -1
  endloop
 endfacet
 facet normal -0 0 -1
  outer loop
   vertex 0.0787478 -0.00303175 -1
   vertex 0.0778502 -0.00311972 -1
   vertex 0.0786639 -0.00255953 -1
  endloop
 endfacet
 facet normal 0 0 -1
  outer loop
   vertex 0.0786639 -0.00255953 -1
   vertex 0.0778502 -0.00311972 -1
   vertex 0.0777663 -0.00265968 -1
  endloop
 endfacet
 facet normal -0 0 -1
  outer loop
   vertex 0.0786639 -0.00255953 -1
   vertex 0.0777663 -0.00265968 -1
   vertex 0.0785653 -0.00209014 -1
  endloop
 endfacet
 facet normal 0 0 -1
  outer loop
   vertex 0.0785653 -0.00209014 -1
   vertex 0.0777663 -0.00265968 -1
   vertex 0.0776677 -0.00220256 -1
  endloop
 endfacet
 facet normal -0 0 -1
  outer loop
   vertex 0.0785653 -0.00209014 -1
   vertex 0.0776677 -0.00220256 -1
   vertex 0.0784522 -0.00162403 -1
  endloop
 endfacet
 facet normal 0 0 -1
  outer loop
   vertex 0.0784522 -0.00162403 -1
   vertex 0.0776677 -0.00220256 -1
   vertex 0.0775545 -0.00174885 -1
  endloop
 endfacet
 facet normal -0 0 -1
  outer loop
   vertex 0.0784522 -0.00162403 -1
   vertex 0.0775545 -0.00174885 -1
   vertex 0.0783248 -0.00116167 -1
  endloop
 endfacet
 facet normal 0 0 -1
  outer loop
   vertex 0.0783248 -0.00116167 -1
   vertex 0.0775545 -0.00174885 -1
   vertex 0.0774267 -0.00129902 -1
  endloop
 endfacet
 facet normal -0 0 -1
  outer loop
   vertex 0.0783248 -0.00116167 -1
   vertex 0.0774267 -0.00129902 -1
   vertex 0.078183 -0.00070347 -1
  endloop
 endfacet
 facet normal 0 0 -1
  outer loop
   vertex 0.078183 -0.00070347 -1
   vertex 0.0774267 -0.00129902 -1
   vertex 0.0772846 -0.00085352 -1
  endloop
 endfacet
 facet normal -0 0 -1
  outer loop
   vertex 0.078183 -0.00070347 -1
   vertex 0.0772846 -0.00085352 -1
   vertex 0.0780271 -0.0002499 -1
  endloop
 endfacet
 facet normal 0 0 -1
  outer loop
   vertex 0.0780271 -0.0002499 -1
   vertex 0.0772846 -0.00085352 -1
   vertex 0.0771281 -0.00041283 -1
  endloop
 endfacet
 facet normal -0 0 -1
  outer loop
   vertex 0.0780271 -0.0002499 -1
   vertex 0.0771281 -0.00041283 -1
   vertex 0.0778571 0.00019861 -1
  endloop
 endfacet
 facet normal 0 0 -1
  outer loop
   vertex 0.0778571 0.00019861 -1
   vertex 0.0771281 -0.00041283 -1
   vertex 0.0769577 2.262e-05 -1
  endloop
 endfacet
 facet normal -0 0 -1
  outer loop
   vertex 0.0778571 0.00019861 -1
   vertex 0.0769577 2.262e-05 -1
   vertex 0.0776734 0.000641634 -1
  endloop
 endfacet
 facet normal 0 0 -1
  outer loop
   vertex 0.0776734 0.000641634 -1
   vertex 0.0769577 2.262e-05 -1
   vertex 0.0767733 0.00045236 -1
  endloop
 endfacet
 facet normal -0 0 -1
  outer loop
   vertex 0.0776734 0.000641634 -1
   vertex 0.0767733 0.00045236 -1
   vertex 0.0774759 0.00107874 -1
  endloop
 endfacet
 facet normal 0 0 -1
  outer loop
   vertex 0.0774759 0.00107874 -1
   vertex 0.0767733 0.00045236 -1
   vertex 0.0765752 0.000875964 -1
  endloop
 endfacet
 facet normal -0 0 -1
  outer loop
   vertex 0.0774759 0.00107874 -1
   vertex 0.0765752 0.000875964 -1
   vertex 0.0772651 0.00150952 -1
  endloop
 endfacet
 facet normal 0 0 -1
  outer loop
   vertex 0.0772651 0.00150952 -1
   vertex 0.0765752 0.000875964 -1
   vertex 0.0763636 0.00129298 -1
  endloop
 endfacet
 facet normal -0 0 -1
  outer loop
   vertex 0.0772651 0.00150952 -1
   vertex 0.0763636 0.00129298 -1
   vertex 0.0770409 0.00193353 -1
  endloop
 endfacet
 facet normal 0 0 -1
  outer loop
   vertex 0.0770409 0.00193353 -1
   vertex 0.0763636 0.00129298 -1
   vertex 0.0761387 0.00170298 -1
  endloop
 endfacet
 facet normal 0 0 -1
  outer loop
   vertex 0.0651397 0.00986474 -1
   vertex 0.0656157 0.0098063 -1
   vertex 0.0657149 0.00888218 -1
  endloop
 endfacet
 facet normal 0 0 -1
  outer loop
   vertex 0.0657149 0.00888218 -1
   vertex 0.0656157 0.0098063 -1
   vertex 0.0660897 0.00973307 -1
  endloop
 endfacet
 facet normal 0 0 -1
  outer loop
   vertex 0.0657149 0.00888218 -1
   vertex 0.0660897 0.00973307 -1
   vertex 0.0661758 0.00880339 -1
  endloop
 endfacet
 facet normal 0 0 -1
  outer loop
   vertex 0.0661758 0.00880339 -1
   vertex 0.0660897 0.00973307 -1
   vertex 0.0665612 0.00964517 -1
  endloop
 endfacet
 facet normal 0 0 -1
  outer loop
   vertex 0.0661758 0.00880339 -1
   vertex 0.0665612 0.00964517 -1
   vertex 0.066634 0.00870983 -1
  endloop
 endfacet
 facet normal 0 0 -1
  outer loop
   vertex 0.066634 0.00870983 -1
   vertex 0.0665612 0.00964517 -1
   vertex 0.0670297 0.00954267 -1
  endloop
 endfacet
 facet normal 0 0 -1
  outer loop
   vertex 0.066634 0.00870983 -1
   vertex 0.0670297 0.00954267 -1
   vertex 0.0670889 0.00860161 -1
  endloop
 endfacet
 facet normal 0 0 -1
  outer loop
   vertex 0.0670889 0.00860161 -1
   vertex 0.0670297 0.00954267 -1
   vertex 0.0674949 0.0094257 -1
  endloop
 endfacet
 facet normal 0 0 -1
  outer loop
   vertex 0.0670889 0.00860161 -1
   vertex 0.0674949 0.0094257 -1
   vertex 0.0675402 0.00847881 -1
  endloop
 endfacet
 facet normal 0 0 -1
  outer loop
   vertex 0.0675402 0.00847881 -1
   vertex 0.0674949 0.0094257 -1
   vertex 0.0679561 0.00929433 -1
  endloop
 endfacet
 facet normal 0 0 -1
  outer loop
   vertex 0.0675402 0.00847881 -1
   vertex 0.0679561 0.00929433 -1
   vertex 0.0679872 0.00834159 -1
  endloop
 endfacet
 facet normal 0 0 -1
  outer loop
   vertex 0.0679872 0.00834159 -1
   vertex 0.0679561 0.00929433 -1
   vertex 0.0684131 0.00914872 -1
  endloop
 endfacet
 facet normal 0 0 -1
  outer loop
   vertex 0.0679872 0.00834159 -1
   vertex 0.0684131 0.00914872 -1
   vertex 0.0684296 0.00819007 -1
  endloop
 endfacet
 facet normal 0 0 -1
  outer loop
   vertex 0.0684296 0.00819007 -1
   vertex 0.0684131 0.00914872 -1
   vertex 0.0688654 0.00898899 -1
  endloop
 endfacet
 facet normal 0 0 -1
  outer loop
   vertex 0.0684296 0.00819007 -1
   vertex 0.0688654 0.00898899 -1
   vertex 0.0688669 0.00802442 -1
  endloop
 endfacet
 facet normal 0 0 -1
  outer loop
   vertex 0.0688669 0.00802442 -1
   vertex 0.0688654 0.00898899 -1
   vertex 0.0693125 0.00881531 -1
  endloop
 endfacet
 facet normal 0 0 -1
  outer loop
   vertex 0.0688669 0.00802442 -1
   vertex 0.0693125 0.00881531 -1
   vertex 0.0692987 0.0078448 -1
  endloop
 endfacet
 facet normal 0 0 -1
  outer loop
   vertex 0.0692987 0.0078448 -1
   vertex 0.0693125 0.00881531 -1
   vertex 0.0697539 0.00862783 -1
  endloop
 endfacet
 facet normal 0 0 -1
  outer loop
   vertex 0.0692987 0.0078448 -1
   vertex 0.0697539 0.00862783 -1
   vertex 0.0697244 0.00765139 -1
  endloop
 endfacet
 facet normal 0 0 -1
  outer loop
   vertex 0.0697244 0.00765139 -1
   vertex 0.0697539 0.00862783 -1
   vertex 0.0701894 0.00842675 -1
  endloop
 endfacet
 facet normal 0 0 -1
  outer loop
   vertex 0.0697244 0.00765139 -1
   vertex 0.0701894 0.00842675 -1
   vertex 0.0701437 0.00744442 -1
  endloop
 endfacet
 facet normal 0 0 -1
  outer loop
   vertex 0.0701437 0.00744442 -1
   vertex 0.0701894 0.00842675 -1
   vertex 0.0706183 0.00821224 -1
  endloop
 endfacet
 facet normal 0 0 -1
  outer loop
   vertex 0.0701437 0.00744442 -1
   vertex 0.0706183 0.00821224 -1
   vertex 0.0705562 0.00722407 -1
  endloop
 endfacet
 facet normal 0 0 -1
  outer loop
   vertex 0.0705562 0.00722407 -1
   vertex 0.0706183 0.00821224 -1
   vertex 0.0710405 0.00798452 -1
  endloop
 endfacet
 facet normal 0 0 -1
  outer loop
   vertex 0.0705562 0.00722407 -1
   vertex 0.0710405 0.00798452 -1
   vertex 0.0709614 0.00699059 -1
  endloop
 endfacet
 facet normal 0 0 -1
  outer loop
   vertex 0.0709614 0.00699059 -1
   vertex 0.0710405 0.00798452 -1
   vertex 0.0714553 0.00774382 -1
  endloop
 endfacet
 facet normal 0 0 -1
  outer loop
   vertex 0.0709614 0.00699059 -1
   vertex 0.0714553 0.00774382 -1
   vertex 0.0713588 0.0067442 -1
  endloop
 endfacet
 facet normal 0 0 -1
  outer loop
   vertex 0.0713588 0.0067442 -1
   vertex 0.0714553 0.00774382 -1
   vertex 0.0718625 0.00749035 -1
  endloop
 endfacet
 facet normal 0 0 -1
  outer loop
   vertex 0.0713588 0.0067442 -1
   vertex 0.0718625 0.00749035 -1
   vertex 0.0717482 0.00648518 -1
  endloop
 endfacet
 facet normal 0 0 -1
  outer loop
   vertex 0.0717482 0.00648518 -1
   vertex 0.0718625 0.00749035 -1
   vertex 0.0722616 0.00722437 -1
  endloop
 endfacet
 facet normal 0 0 -1
  outer loop
   vertex 0.0717482 0.00648518 -1
   vertex 0.0722616 0.00722437 -1
   vertex 0.072129 0.00621378 -1
  endloop
 endfacet
 facet normal 0 0 -1
  outer loop
   vertex 0.072129 0.00621378 -1
   vertex 0.0722616 0.00722437 -1
   vertex 0.0726523 0.00694614 -1
  endloop
 endfacet
 facet normal 0 0 -1
  outer loop
   vertex 0.072129 0.00621378 -1
   vertex 0.0726523 0.00694614 -1
   vertex 0.0725009 0.00593029 -1
  endloop
 endfacet
 facet normal 0 0 -1
  outer loop
   vertex 0.0725009 0.00593029 -1
   vertex 0.0726523 0.00694614 -1
   vertex 0.0730341 0.0066559 -1
  endloop
 endfacet
 facet normal 0 0 -1
  outer loop
   vertex 0.0725009 0.00593029 -1
   vertex 0.0730341 0.0066559 -1
   vertex 0.0728635 0.00563499 -1
  endloop
 endfacet
 facet normal 0 0 -1
  outer loop
   vertex 0.0728635 0.00563499 -1
   vertex 0.0730341 0.0066559 -1
   vertex 0.0734068 0.00635397 -1
  endloop
 endfacet
 facet normal 0 0 -1
  outer loop
   vertex 0.0728635 0.00563499 -1
   vertex 0.0734068 0.00635397 -1
   vertex 0.0732164 0.00532819 -1
  endloop
 endfacet
 facet normal 0 0 -1
  outer loop
   vertex 0.0732164 0.00532819 -1
   vertex 0.0734068 0.00635397 -1
   vertex 0.0737699 0.00604061 -1
  endloop
 endfacet
 facet normal 0 0 -1
  outer loop
   vertex 0.0732164 0.00532819 -1
   vertex 0.0737699 0.00604061 -1
   vertex 0.0735593 0.00501021 -1
  endloop
 endfacet
 facet normal 0 0 -1
  outer loop
   vertex 0.0735593 0.00501021 -1
   vertex 0.0737699 0.00604061 -1
   vertex 0.0741231 0.00571613 -1
  endloop
 endfacet
 facet normal 0 0 -1
  outer loop
   vertex 0.0735593 0.00501021 -1
   vertex 0.0741231 0.00571613 -1
   vertex 0.0738918 0.00468139 -1
  endloop
 endfacet
 facet normal 0 0 -1
  outer loop
   vertex 0.0738918 0.00468139 -1
   vertex 0.0741231 0.00571613 -1
   vertex 0.0744661 0.00538085 -1
  endloop
 endfacet
 facet normal 0 0 -1
  outer loop
   vertex 0.0738918 0.00468139 -1
   vertex 0.0744661 0.00538085 -1
   vertex 0.0742135 0.00434204 -1
  endloop
 endfacet
 facet normal 0 0 -1
  outer loop
   vertex 0.0742135 0.00434204 -1
   vertex 0.0744661 0.00538085 -1
   vertex 0.0747984 0.00503508 -1
  endloop
 endfacet
 facet normal 0 0 -1
  outer loop
   vertex 0.0742135 0.00434204 -1
   vertex 0.0747984 0.00503508 -1
   vertex 0.0745242 0.00399253 -1
  endloop
 endfacet
 facet normal 0 0 -1
  outer loop
   vertex 0.0745242 0.00399253 -1
   vertex 0.0747984 0.00503508 -1
   vertex 0.0751199 0.00467916 -1
  endloop
 endfacet
 facet normal 0 0 -1
  outer loop
   vertex 0.0745242 0.00399253 -1
   vertex 0.0751199 0.00467916 -1
   vertex 0.0748235 0.00363323 -1
  endloop
 endfacet
 facet normal 0 0 -1
  outer loop
   vertex 0.0748235 0.00363323 -1
   vertex 0.0751199 0.00467916 -1
   vertex 0.0754302 0.00431344 -1
  endloop
 endfacet
 facet normal 0 0 -1
  outer loop
   vertex 0.0748235 0.00363323 -1
   vertex 0.0754302 0.00431344 -1
   vertex 0.0751111 0.00326449 -1
  endloop
 endfacet
 facet normal 0 0 -1
  outer loop
   vertex 0.0751111 0.00326449 -1
   vertex 0.0754302 0.00431344 -1
   vertex 0.075729 0.00393827 -1
  endloop
 endfacet
 facet normal 0 0 -1
  outer loop
   vertex 0.0751111 0.00326449 -1
   vertex 0.075729 0.00393827 -1
   vertex 0.0753867 0.0028867 -1
  endloop
 endfacet
 facet normal 0 0 -1
  outer loop
   vertex 0.0753867 0.0028867 -1
   vertex 0.075729 0.00393827 -1
   vertex 0.0760161 0.003554 -1
  endloop
 endfacet
 facet normal 0 0 -1
  outer loop
   vertex 0.0753867 0.0028867 -1
   vertex 0.0760161 0.003554 -1
   vertex 0.07565 0.00250025 -1
  endloop
 endfacet
 facet normal 0 0 -1
  outer loop
   vertex 0.07565 0.00250025 -1
   vertex 0.0760161 0.003554 -1
   vertex 0.076291 0.003161 -1
  endloop
 endfacet
 facet normal 0 0 -1
  outer loop
   vertex 0.07565 0.00250025 -1
   vertex 0.076291 0.003161 -1
   vertex 0.0759008 0.00210555 -1
  endloop
 endfacet
 facet normal 0 0 -1
  outer loop
   vertex 0.0759008 0.00210555 -1
   vertex 0.076291 0.003161 -1
   vertex 0.0765536 0.00275967 -1
  endloop
 endfacet
 facet normal 0 0 -1
  outer loop
   vertex 0.0759008 0.00210555 -1
   vertex 0.0765536 0.00275967 -1
   vertex 0.0761387 0.00170298 -1
  endloop
 endfacet
 facet normal 0 0 -1
  outer loop
   vertex 0.0761387 0.00170298 -1
   vertex 0.0765536 0.00275967 -1
   vertex 0.0768037 0.00235038 -1
  endloop
 endfacet
 facet normal 0 0 -1
  outer loop
   vertex 0.0761387 0.00170298 -1
   vertex 0.0768037 0.00235038 -1
   vertex 0.0770409 0.00193353 -1
  endloop
 endfacet
 facet normal -0 0 1
  outer loop
   vertex 0.0632242 0.00995029 1
   vertex 0.0632295 0.00965034 1
   vertex 0.0637038 0.00995126 1
  endloop
 endfacet
 facet normal 0 0 1
  outer loop
   vertex 0.0637038 0.00995126 1
   vertex 0.0632295 0.00965034 1
   vertex 0.063853 0.00904821 1
  endloop
 endfacet
 facet normal 0 0 1
  outer loop
   vertex 0.0637038 0.00995126 1
   vertex 0.063853 0.00904821 1
   vertex 0.0641832 0.00993727 1
  endloop
 endfacet
 facet normal 0 0 1
  outer loop
   vertex 0.0641832 0.00993727 1
   vertex 0.063853 0.00904821 1
   vertex 0.0643202 0.00902918 1
  endloop
 endfacet
 facet normal 0 0 1
  outer loop
   vertex 0.0641832 0.00993727 1
   vertex 0.0643202 0.00902918 1
   vertex 0.064662 0.00990841 1
  endloop
 endfacet
 facet normal 0 0 1
  outer loop
   vertex 0.064662 0.00990841 1
   vertex 0.0643202 0.00902918 1
   vertex 0.0647866 0.00899511 1
  endloop
 endfacet
 facet normal 0 0 1
  outer loop
   vertex 0.064662 0.00990841 1
   vertex 0.0647866 0.00899511 1
   vertex 0.0651397 0.00986474 1
  endloop
 endfacet
 facet normal 0 0 1
  outer loop
   vertex 0.0651397 0.00986474 1
   vertex 0.0647866 0.00899511 1
   vertex 0.0652516 0.00894611 1
  endloop
 endfacet
 facet normal 0 0 1
  outer loop
   vertex 0.0651397 0.00986474 1
   vertex 0.0652516 0.00894611 1
   vertex 0.0656157 0.0098063 1
  endloop
 endfacet
 facet normal 0 0 1
  outer loop
   vertex 0.0656157 0.0098063 1
   vertex 0.0652516 0.00894611 1
   vertex 0.0657149 0.00888218 1
  endloop
 endfacet
 facet normal 0 0 1
  outer loop
   vertex 0.0656157 0.0098063 1
   vertex 0.0657149 0.00888218 1
   vertex 0.0660897 0.00973307 1
  endloop
 endfacet
 facet normal 0 0 1
  outer loop
   vertex 0.0660897 0.00973307 1
   vertex 0.0657149 0.00888218 1
   vertex 0.0661758 0.00880339 1
  endloop
 endfacet
 facet normal -0 0 1
  outer loop
   vertex 0.077867 -0.0077761 1
   vertex 0.0781633 -0.00782302 1
   vertex 0.0779327 -0.00731311 1
  endloop
 endfacet
 facet normal 0 0 1
  outer loop
   vertex 0.0779327 -0.00731311 1
   vertex 0.0781633 -0.00782302 1
   vertex 0.0788369 -0.00733361 1
  endloop
 endfacet
 facet normal -0 0 1
  outer loop
   vertex 0.0779327 -0.00731311 1
   vertex 0.0788369 -0.00733361 1
   vertex 0.0779835 -0.00684825 1
  endloop
 endfacet
 facet normal 0 0 1
  outer loop
   vertex 0.0779835 -0.00684825 1
   vertex 0.0788369 -0.00733361 1
   vertex 0.0788865 -0.00685652 1
  endloop
 endfacet
 facet normal -0 0 1
  outer loop
   vertex 0.0779835 -0.00684825 1
   vertex 0.0788865 -0.00685652 1
   vertex 0.0780194 -0.00638197 1
  endloop
 endfacet
 facet normal -0 0 1
  outer loop
   vertex 0.0780194 -0.00638197 1
   vertex 0.0788865 -0.00685652 1
   vertex 0.0789212 -0.0063782 1
  endloop
 endfacet
 facet normal 0 0 1
  outer loop
   vertex 0.0780194 -0.00638197 1
   vertex 0.0789212 -0.0063782 1
   vertex 0.0780402 -0.00591482 1
  endloop
 endfacet
 facet normal -0 0 1
  outer loop
   vertex 0.0780402 -0.00591482 1
   vertex 0.0789212 -0.0063782 1
   vertex 0.078941 -0.00589895 1
  endloop
 endfacet
 facet normal 0 0 1
  outer loop
   vertex 0.0780402 -0.00591482 1
   vertex 0.078941 -0.00589895 1
   vertex 0.0780461 -0.00544723 1
  endloop
 endfacet
 facet normal -0 0 1
  outer loop
   vertex 0.0780461 -0.00544723 1
   vertex 0.078941 -0.00589895 1
   vertex 0.078946 -0.00541935 1
  endloop
 endfacet
 facet normal 0 -0 1
  outer loop
   vertex 0.0780461 -0.00544723 1
   vertex 0.078946 -0.00541935 1
   vertex 0.0780369 -0.00497969 1
  endloop
 endfacet
 facet normal -0 0 1
  outer loop
   vertex 0.0780369 -0.00497969 1
   vertex 0.078946 -0.00541935 1
   vertex 0.078936 -0.00493983 1
  endloop
 endfacet
 facet normal 0 -0 1
  outer loop
   vertex 0.0780369 -0.00497969 1
   vertex 0.078936 -0.00493983 1
   vertex 0.0780126 -0.00451268 1
  endloop
 endfacet
 facet normal -0 0 1
  outer loop
   vertex 0.0780126 -0.00451268 1
   vertex 0.078936 -0.00493983 1
   vertex 0.0789112 -0.00446084 1
  endloop
 endfacet
 facet normal 0 -0 1
  outer loop
   vertex 0.0780126 -0.00451268 1
   vertex 0.0789112 -0.00446084 1
   vertex 0.0779734 -0.0040467 1
  endloop
 endfacet
 facet normal -0 0 1
  outer loop
   vertex 0.0779734 -0.0040467 1
   vertex 0.0789112 -0.00446084 1
   vertex 0.0788715 -0.00398286 1
  endloop
 endfacet
 facet normal 0 -0 1
  outer loop
   vertex 0.0779734 -0.0040467 1
   vertex 0.0788715 -0.00398286 1
   vertex 0.0779193 -0.00358222 1
  endloop
 endfacet
 facet normal -0 0 1
  outer loop
   vertex 0.0779193 -0.00358222 1
   vertex 0.0788715 -0.00398286 1
   vertex 0.078817 -0.00350635 1
  endloop
 endfacet
 facet normal 0 -0 1
  outer loop
   vertex 0.0779193 -0.00358222 1
   vertex 0.078817 -0.00350635 1
   vertex 0.0778502 -0.00311972 1
  endloop
 endfacet
 facet normal -0 0 1
  outer loop
   vertex 0.0778502 -0.00311972 1
   vertex 0.078817 -0.00350635 1
   vertex 0.0787478 -0.00303175 1
  endloop
 endfacet
 facet normal 0 -0 1
  outer loop
   vertex 0.0778502 -0.00311972 1
   vertex 0.0787478 -0.00303175 1
   vertex 0.0777663 -0.00265968 1
  endloop
 endfacet
 facet normal -0 0 1
  outer loop
   vertex 0.0777663 -0.00265968 1
   vertex 0.0787478 -0.00303175 1
   vertex 0.0786639 -0.00255953 1
  endloop
 endfacet
 facet normal 0 -0 1
  outer loop
   vertex 0.0777663 -0.00265968 1
   vertex 0.0786639 -0.00255953 1
   vertex 0.0776677 -0.00220256 1
  endloop
 endfacet
 facet normal -0 0 1
  outer loop
   vertex 0.0776677 -0.00220256 1
   vertex 0.0786639 -0.00255953 1
   vertex 0.0785653 -0.00209014 1
  endloop
 endfacet
 facet normal 0 -0 1
  outer loop
   vertex 0.0776677 -0.00220256 1
   vertex 0.0785653 -0.00209014 1
   vertex 0.0775545 -0.00174885 1
  endloop
 endfacet
 facet normal -0 0 1
  outer loop
   vertex 0.0775545 -0.00174885 1
   vertex 0.0785653 -0.00209014 1
   vertex 0.0784522 -0.00162403 1
  endloop
 endfacet
 facet normal 0 -0 1
  outer loop
   vertex 0.0775545 -0.00174885 1
   vertex 0.0784522 -0.00162403 1
   vertex 0.0774267 -0.00129902 1
  endloop
 endfacet
 facet normal -0 0 1
  outer loop
   vertex 0.0774267 -0.00129902 1
   vertex 0.0784522 -0.00162403 1
   vertex 0.0783248 -0.00116167 1
  endloop
 endfacet
 facet normal 0 -0 1
  outer loop
   vertex 0.0774267 -0.00129902 1
   vertex 0.0783248 -0.00116167 1
   vertex 0.0772846 -0.00085352 1
  endloop
 endfacet
 facet normal -0 0 1
  outer loop
   vertex 0.0772846 -0.00085352 1
   vertex 0.0783248 -0.00116167 1
   vertex 0.078183 -0.00070347 1
  endloop
 endfacet
 facet normal 0 -0 1
  outer loop
   vertex 0.0772846 -0.00085352 1
   vertex 0.078183 -0.00070347 1
   vertex 0.0771281 -0.00041283 1
  endloop
 endfacet
 facet normal -0 0 1
  outer loop
   vertex 0.0771281 -0.00041283 1
   vertex 0.078183 -0.00070347 1
   vertex 0.0780271 -0.0002499 1
  endloop
 endfacet
 facet normal 0 -0 1
  outer loop
   vertex 0.0771281 -0.00041283 1
   vertex 0.0780271 -0.0002499 1
   vertex 0.0769577 2.262e-05 1
  endloop
 endfacet
 facet normal -0 0 1
  outer loop
   vertex 0.0769577 2.262e-05 1
   vertex 0.0780271 -0.0002499 1
   vertex 0.0778571 0.00019861 1
  endloop
 endfacet
 facet normal 0 -0 1
  outer loop
   vertex 0.0769577 2.262e-05 1
   vertex 0.0778571 0.00019861 1
   vertex 0.0767733 0.00045236 1
  endloop
 endfacet
 facet normal -0 0 1
  outer loop
   vertex 0.0767733 0.00045236 1
   vertex 0.0778571 0.00019861 1
   vertex 0.0776734 0.000641634 1
  endloop
 endfacet
 facet normal 0 -0 1
  outer loop
   vertex 0.0767733 0.00045236 1
   vertex 0.0776734 0.000641634 1
   vertex 0.0765752 0.000875964 1
  endloop
 endfacet
 facet normal -0 0 1
  outer loop
   vertex 0.0765752 0.000875964 1
   vertex 0.0776734 0.000641634 1
   vertex 0.0774759 0.00107874 1
  endloop
 endfacet
 facet normal 0 -0 1
  outer loop
   vertex 0.0765752 0.000875964 1
   vertex 0.0774759 0.00107874 1
   vertex 0.0763636 0.00129298 1
  endloop
 endfacet
 facet normal 0 0 1
  outer loop
   vertex 0.0774759 0.00107874 1
   vertex 0.0772651 0.00150952 1
   vertex 0.0763636 0.00129298 1
  endloop
 endfacet
 facet normal 0 0 1
  outer loop
   vertex 0.0763636 0.00129298 1
   vertex 0.0772651 0.00150952 1
   vertex 0.0770409 0.00193353 1
  endloop
 endfacet
 facet normal 0 -0 1
  outer loop
   vertex 0.0763636 0.00129298 1
   vertex 0.0770409 0.00193353 1
   vertex 0.0761387 0.00170298 1
  endloop
 endfacet
 facet normal 0 0 1
  outer loop
   vertex 0.0761387 0.00170298 1
   vertex 0.0770409 0.00193353 1
   vertex 0.0768037 0.00235038 1
  endloop
 endfacet
 facet normal 0 -0 1
  outer loop
   vertex 0.0761387 0.00170298 1
   vertex 0.0768037 0.00235038 1
   vertex 0.0759008 0.00210555 1
  endloop
 endfacet
 facet normal 0 0 1
  outer loop
   vertex 0.0759008 0.00210555 1
   vertex 0.0768037 0.00235038 1
   vertex 0.0765536 0.00275967 1
  endloop
 endfacet
 facet normal 0 -0 1
  outer loop
   vertex 0.0759008 0.00210555 1
   vertex 0.0765536 0.00275967 1
   vertex 0.07565 0.00250025 1
  endloop
 endfacet
 facet normal 0 0 1
  outer loop
   vertex 0.07565 0.00250025 1
   vertex 0.0765536 0.00275967 1
   vertex 0.076291 0.003161 1
  endloop
 endfacet
 facet normal 0 -0 1
  outer loop
   vertex 0.07565 0.00250025 1
   vertex 0.076291 0.003161 1
   vertex 0.0753867 0.0028867 1
  endloop
 endfacet
 facet normal 0 0 1
  outer loop
   vertex 0.0753867 0.0028867 1
   vertex 0.076291 0.003161 1
   vertex 0.0760161 0.003554 1
  endloop
 endfacet
 facet normal 0 -0 1
  outer loop
   vertex 0.0753867 0.0028867 1
   vertex 0.0760161 0.003554 1
   vertex 0.0751111 0.00326449 1
  endloop
 endfacet
 facet normal 0 0 1
  outer loop
   vertex 0.0751111 0.00326449 1
   vertex 0.0760161 0.003554 1
   vertex 0.075729 0.00393827 1
  endloop
 endfacet
 facet normal 0 -0 1
  outer loop
   vertex 0.0751111 0.00326449 1
   vertex 0.075729 0.00393827 1
   vertex 0.0748235 0.00363323 1
  endloop
 endfacet
 facet normal 0 0 1
  outer loop
   vertex 0.0748235 0.00363323 1
   vertex 0.075729 0.00393827 1
   vertex 0.0754302 0.00431344 1
  endloop
 endfacet
 facet normal 0 -0 1
  outer loop
   vertex 0.0748235 0.00363323 1
   vertex 0.0754302 0.00431344 1
   vertex 0.0745242 0.00399253 1
  endloop
 endfacet
 facet normal 0 0 1
  outer loop
   vertex 0.0745242 0.00399253 1
   vertex 0.0754302 0.00431344 1
   vertex 0.0751199 0.00467916 1
  endloop
 endfacet
 facet normal 0 -0 1
  outer loop
   vertex 0.0745242 0.00399253 1
   vertex 0.0751199 0.00467916 1
   vertex 0.0742135 0.00434204 1
  endloop
 endfacet
 facet normal 0 0 1
  outer loop
   vertex 0.0742135 0.00434204 1
   vertex 0.0751199 0.00467916 1
   vertex 0.0747984 0.00503508 1
  endloop
 endfacet
 facet normal 0 -0 1
  outer loop
   vertex 0.0742135 0.00434204 1
   vertex 0.0747984 0.00503508 1
   vertex 0.0738918 0.00468139 1
  endloop
 endfacet
 facet normal 0 0 1
  outer loop
   vertex 0.0738918 0.00468139 1
   vertex 0.0747984 0.00503508 1
   vertex 0.0744661 0.00538085 1
  endloop
 endfacet
 facet normal 0 -0 1
  outer loop
   vertex 0.0738918 0.00468139 1
   vertex 0.0744661 0.00538085 1
   vertex 0.0735593 0.00501021 1
  endloop
 endfacet
 facet normal 0 0 1
  outer loop
   vertex 0.0735593 0.00501021 1
   vertex 0.0744661 0.00538085 1
   vertex 0.0741231 0.00571613 1
  endloop
 endfacet
 facet normal 0 -0 1
  outer loop
   vertex 0.0735593 0.00501021 1
   vertex 0.0741231 0.00571613 1
   vertex 0.0732164 0.00532819 1
  endloop
 endfacet
 facet normal 0 0 1
  outer loop
   vertex 0.0732164 0.00532819 1
   vertex 0.0741231 0.00571613 1
   vertex 0.0737699 0.00604061 1
  endloop
 endfacet
 facet normal 0 -0 1
  outer loop
   vertex 0.0732164 0.00532819 1
   vertex 0.0737699 0.00604061 1
   vertex 0.0728635 0.00563499 1
  endloop
 endfacet
 facet normal 0 0 1
  outer loop
   vertex 0.0728635 0.00563499 1
   vertex 0.0737699 0.00604061 1
   vertex 0.0734068 0.00635397 1
  endloop
 endfacet
 facet normal 0 -0 1
  outer loop
   vertex 0.0728635 0.00563499 1
   vertex 0.0734068 0.00635397 1
   vertex 0.0725009 0.00593029 1
  endloop
 endfacet
 facet normal 0 0 1
  outer loop
   vertex 0.0725009 0.00593029 1
   vertex 0.0734068 0.00635397 1
   vertex 0.0730341 0.0066559 1
  endloop
 endfacet
 facet normal 0 -0 1
  outer loop
   vertex 0.0725009 0.00593029 1
   vertex 0.0730341 0.0066559 1
   vertex 0.072129 0.00621378 1
  endloop
 endfacet
 facet normal 0 0 1
  outer loop
   vertex 0.072129 0.00621378 1
   vertex 0.0730341 0.0066559 1
   vertex 0.0726523 0.00694614 1
  endloop
 endfacet
 facet normal 0 -0 1
  outer loop
   vertex 0.072129 0.00621378 1
   vertex 0.0726523 0.00694614 1
   vertex 0.0717482 0.00648518 1
  endloop
 endfacet
 facet normal 0 0 1
  outer loop
   vertex 0.0717482 0.00648518 1
   vertex 0.0726523 0.00694614 1
   vertex 0.0722616 0.00722437 1
  endloop
 endfacet
 facet normal 0 -0 1
  outer loop
   vertex 0.0717482 0.00648518 1
   vertex 0.0722616 0.00722437 1
   vertex 0.0713588 0.0067442 1
  endloop
 endfacet
 facet normal 0 0 1
  outer loop
   vertex 0.0713588 0.0067442 1
   vertex 0.0722616 0.00722437 1
   vertex 0.0718625 0.00749035 1
  endloop
 endfacet
 facet normal 0 -0 1
  outer loop
   vertex 0.0713588 0.0067442 1
   vertex 0.0718625 0.00749035 1
   vertex 0.0709614 0.00699059 1
  endloop
 endfacet
 facet normal 0 0 1
  outer loop
   vertex 0.0709614 0.00699059 1
   vertex 0.0718625 0.00749035 1
   vertex 0.0714553 0.00774382 1
  endloop
 endfacet
 facet normal 0 -0 1
  outer loop
   vertex 0.0709614 0.00699059 1
   vertex 0.0714553 0.00774382 1
   vertex 0.0705562 0.00722407 1
  endloop
 endfacet
 facet normal 0 0 1
  outer loop
   vertex 0.0705562 0.00722407 1
   vertex 0.0714553 0.00774382 1
   vertex 0.0710405 0.00798452 1
  endloop
 endfacet
 facet normal 0 -0 1
  outer loop
   vertex 0.0705562 0.00722407 1
   vertex 0.0710405 0.00798452 1
   vertex 0.0701437 0.00744442 1
  endloop
 endfacet
 facet normal 0 0 1
  outer loop
   vertex 0.0701437 0.00744442 1
   vertex 0.0710405 0.00798452 1
   vertex 0.0706183 0.00821224 1
  endloop
 endfacet
 facet normal 0 -0 1
  outer loop
   vertex 0.0701437 0.00744442 1
   vertex 0.0706183 0.00821224 1
   vertex 0.0697244 0.00765139 1
  endloop
 endfacet
 facet normal 0 0 1
  outer loop
   vertex 0.0697244 0.00765139 1
   vertex 0.0706183 0.00821224 1
   vertex 0.0701894 0.00842675 1
  endloop
 endfacet
 facet normal 0 -0 1
  outer loop
   vertex 0.0697244 0.00765139 1
   vertex 0.0701894 0.00842675 1
   vertex 0.0692987 0.0078448 1
  endloop
 endfacet
 facet normal 0 0 1
  outer loop
   vertex 0.0692987 0.0078448 1
   vertex 0.0701894 0.00842675 1
   vertex 0.0697539 0.00862783 1
  endloop
 endfacet
 facet normal 0 -0 1
  outer loop
   vertex 0.0692987 0.0078448 1
   vertex 0.0697539 0.00862783 1
   vertex 0.0688669 0.00802442 1
  endloop
 endfacet
 facet normal 0 0 1
  outer loop
   vertex 0.0688669 0.00802442 1
   vertex 0.0697539 0.00862783 1
   vertex 0.0693125 0.00881531 1
  endloop
 endfacet
 facet normal 0 -0 1
  outer loop
   vertex 0.0688669 0.00802442 1
   vertex 0.0693125 0.00881531 1
   vertex 0.0684296 0.00819007 1
  endloop
 endfacet
 facet normal 0 0 1
  outer loop
   vertex 0.0684296 0.00819007 1
   vertex 0.0693125 0.00881531 1
   vertex 0.0688654 0.00898899 1
  endloop
 endfacet
 facet normal 0 -0 1
  outer loop
   vertex 0.0684296 0.00819007 1
   vertex 0.0688654 0.00898899 1
   vertex 0.0679872 0.00834159 1
  endloop
 endfacet
 facet normal 0 0 1
  outer loop
   vertex 0.0679872 0.00834159 1
   vertex 0.0688654 0.00898899 1
   vertex 0.0684131 0.00914872 1
  endloop
 endfacet
 facet normal 0 -0 1
  outer loop
   vertex 0.0679872 0.00834159 1
   vertex 0.0684131 0.00914872 1
   vertex 0.0675402 0.00847881 1
  endloop
 endfacet
 facet normal 0 0 1
  outer loop
   vertex 0.0675402 0.00847881 1
   vertex 0.0684131 0.00914872 1
   vertex 0.0679561 0.00929433 1
  endloop
 endfacet
 facet normal 0 -0 1
  outer loop
   vertex 0.0675402 0.00847881 1
   vertex 0.0679561 0.00929433 1
   vertex 0.0670889 0.00860161 1
  endloop
 endfacet
 facet normal 0 0 1
  outer loop
   vertex 0.0670889 0.00860161 1
   vertex 0.0679561 0.00929433 1
   vertex 0.0674949 0.0094257 1
  endloop
 endfacet
 facet normal 0 -0 1
  outer loop
   vertex 0.0670889 0.00860161 1
   vertex 0.0674949 0.0094257 1
   vertex 0.066634 0.00870983 1
  endloop
 endfacet
 facet normal 0 0 1
  outer loop
   vertex 0.066634 0.00870983 1
   vertex 0.0674949 0.0094257 1
   vertex 0.0670297 0.00954267 1
  endloop
 endfacet
 facet normal 0 -0 1
  outer loop
   vertex 0.066634 0.00870983 1
   vertex 0.0670297 0.00954267 1
   vertex 0.0661758 0.00880339 1
  endloop
 endfacet
 facet normal 0 0 1
  outer loop
   vertex 0.0661758 0.00880339 1
   vertex 0.0670297 0.00954267 1
   vertex 0.0665612 0.00964517 1
  endloop
 endfacet
 facet normal 0 -0 1
  outer loop
   vertex 0.0661758 0.00880339 1
   vertex 0.0665612 0.00964517 1
   vertex 0.0660897 0.00973307 1
  endloop
 endfacet
 facet normal 0.587794 -0.809011 0
  outer loop
   vertex 0.0788369 -0.00733361 1
   vertex 0.0781633 -0.00782302 1
   vertex 0.0788369 -0.00733361 -1
  endloop
 endfacet
 facet normal 0.587794 -0.809011 0
  outer loop
   vertex 0.0788369 -0.00733361 -1
   vertex 0.0781633 -0.00782302 1
   vertex 0.0781633 -0.00782302 -1
  endloop
 endfacet
 facet normal -0.694671 -0.719327 -0
  outer loop
   vertex 0.063853 0.00904821 1
   vertex 0.0632295 0.00965034 1
   vertex 0.063853 0.00904821 -1
  endloop
 endfacet
 facet normal -0.694671 -0.719327 0
  outer loop
   vertex 0.063853 0.00904821 -1
   vertex 0.0632295 0.00965034 1
   vertex 0.0632295 0.00965034 -1
  endloop
 endfacet
endsolid tunner_vane
