solid tunner_vane
 facet normal 0.095809 0.9954 -0
  outer loop
   vertex 1.90049 0.398752 -1
   vertex 1.90049 0.398752 1
   vertex 1.9197 0.396903 1
  endloop
 endfacet
 facet normal 0.095809 0.9954 0
  outer loop
   vertex 1.90049 0.398752 -1
   vertex 1.9197 0.396903 1
   vertex 1.9197 0.396903 -1
  endloop
 endfacet
 facet normal 0.186791 0.9824 -0
  outer loop
   vertex 1.9197 0.396903 -1
   vertex 1.9197 0.396903 1
   vertex 1.93866 0.393298 1
  endloop
 endfacet
 facet normal 0.186791 0.9824 0
  outer loop
   vertex 1.9197 0.396903 -1
   vertex 1.93866 0.393298 1
   vertex 1.93866 0.393298 -1
  endloop
 endfacet
 facet normal 0.276173 0.961108 -0
  outer loop
   vertex 1.93866 0.393298 -1
   vertex 1.93866 0.393298 1
   vertex 1.95721 0.387968 1
  endloop
 endfacet
 facet normal 0.276173 0.961108 0
  outer loop
   vertex 1.93866 0.393298 -1
   vertex 1.95721 0.387968 1
   vertex 1.95721 0.387968 -1
  endloop
 endfacet
 facet normal 0.363272 0.931683 -0
  outer loop
   vertex 1.95721 0.387968 -1
   vertex 1.95721 0.387968 1
   vertex 1.97519 0.380957 1
  endloop
 endfacet
 facet normal 0.363272 0.931683 0
  outer loop
   vertex 1.95721 0.387968 -1
   vertex 1.97519 0.380957 1
   vertex 1.97519 0.380957 -1
  endloop
 endfacet
 facet normal 0.447273 0.894398 -0
  outer loop
   vertex 1.97519 0.380957 -1
   vertex 1.97519 0.380957 1
   vertex 1.99245 0.372326 1
  endloop
 endfacet
 facet normal 0.447273 0.894398 0
  outer loop
   vertex 1.97519 0.380957 -1
   vertex 1.99245 0.372326 1
   vertex 1.99245 0.372326 -1
  endloop
 endfacet
 facet normal 0.527375 0.849633 -0
  outer loop
   vertex 1.99245 0.372326 -1
   vertex 1.99245 0.372326 1
   vertex 2.00885 0.362146 1
  endloop
 endfacet
 facet normal 0.527375 0.849633 0
  outer loop
   vertex 1.99245 0.372326 -1
   vertex 2.00885 0.362146 1
   vertex 2.00885 0.362146 -1
  endloop
 endfacet
 facet normal 0.603284 0.797527 -0
  outer loop
   vertex 2.00885 0.362146 -1
   vertex 2.00885 0.362146 1
   vertex 2.02424 0.350504 1
  endloop
 endfacet
 facet normal 0.603284 0.797527 0
  outer loop
   vertex 2.00885 0.362146 -1
   vertex 2.02424 0.350504 1
   vertex 2.02424 0.350504 -1
  endloop
 endfacet
 facet normal 0.673864 0.738856 -0
  outer loop
   vertex 2.02424 0.350504 -1
   vertex 2.02424 0.350504 1
   vertex 2.0385 0.337499 1
  endloop
 endfacet
 facet normal 0.673864 0.738856 0
  outer loop
   vertex 2.02424 0.350504 -1
   vertex 2.0385 0.337499 1
   vertex 2.0385 0.337499 -1
  endloop
 endfacet
 facet normal 0.738994 0.673712 -0
  outer loop
   vertex 2.0385 0.337499 -1
   vertex 2.0385 0.337499 1
   vertex 2.0515 0.323239 1
  endloop
 endfacet
 facet normal 0.738994 0.673712 0
  outer loop
   vertex 2.0385 0.337499 -1
   vertex 2.0515 0.323239 1
   vertex 2.0515 0.323239 -1
  endloop
 endfacet
 facet normal 0.797385 0.603471 -0
  outer loop
   vertex 2.0515 0.323239 -1
   vertex 2.0515 0.323239 1
   vertex 2.06315 0.307846 1
  endloop
 endfacet
 facet normal 0.797385 0.603471 0
  outer loop
   vertex 2.0515 0.323239 -1
   vertex 2.06315 0.307846 1
   vertex 2.06315 0.307846 -1
  endloop
 endfacet
 facet normal 0.84958 0.52746 -0
  outer loop
   vertex 2.06315 0.307846 -1
   vertex 2.06315 0.307846 1
   vertex 2.07333 0.291449 1
  endloop
 endfacet
 facet normal 0.84958 0.52746 0
  outer loop
   vertex 2.06315 0.307846 -1
   vertex 2.07333 0.291449 1
   vertex 2.07333 0.291449 -1
  endloop
 endfacet
 facet normal 0.894448 0.447172 -0
  outer loop
   vertex 2.07333 0.291449 -1
   vertex 2.07333 0.291449 1
   vertex 2.08196 0.274187 1
  endloop
 endfacet
 facet normal 0.894448 0.447172 0
  outer loop
   vertex 2.07333 0.291449 -1
   vertex 2.08196 0.274187 1
   vertex 2.08196 0.274187 -1
  endloop
 endfacet
 facet normal 0.931704 0.363218 -0
  outer loop
   vertex 2.08196 0.274187 -1
   vertex 2.08196 0.274187 1
   vertex 2.08897 0.256205 1
  endloop
 endfacet
 facet normal 0.931704 0.363218 0
  outer loop
   vertex 2.08196 0.274187 -1
   vertex 2.08897 0.256205 1
   vertex 2.08897 0.256205 -1
  endloop
 endfacet
 facet normal 0.961106 0.276178 -0
  outer loop
   vertex 2.08897 0.256205 -1
   vertex 2.08897 0.256205 1
   vertex 2.0943 0.237656 1
  endloop
 endfacet
 facet normal 0.961106 0.276178 0
  outer loop
   vertex 2.08897 0.256205 -1
   vertex 2.0943 0.237656 1
   vertex 2.0943 0.237656 -1
  endloop
 endfacet
 facet normal 0.98245 0.186527 -0
  outer loop
   vertex 2.0943 0.237656 -1
   vertex 2.0943 0.237656 1
   vertex 2.0979 0.218696 1
  endloop
 endfacet
 facet normal 0.98245 0.186527 0
  outer loop
   vertex 2.0943 0.237656 -1
   vertex 2.0979 0.218696 1
   vertex 2.0979 0.218696 -1
  endloop
 endfacet
 facet normal 0.995394 0.0958656 -0
  outer loop
   vertex 2.0979 0.218696 -1
   vertex 2.0979 0.218696 1
   vertex 2.09975 0.199485 1
  endloop
 endfacet
 facet normal 0.995394 0.0958656 0
  outer loop
   vertex 2.0979 0.218696 -1
   vertex 2.09975 0.199485 1
   vertex 2.09975 0.199485 -1
  endloop
 endfacet
 facet normal -0.995108 -0.0987964 0
  outer loop
   vertex 2.07978 0.198485 -1
   vertex 2.07978 0.198485 1
   vertex 2.07794 0.217019 -1
  endloop
 endfacet
 facet normal -0.995108 -0.0987964 0
  outer loop
   vertex 2.07794 0.217019 -1
   vertex 2.07978 0.198485 1
   vertex 2.07794 0.217019 1
  endloop
 endfacet
 facet normal -0.980611 -0.195965 0
  outer loop
   vertex 2.07794 0.217019 -1
   vertex 2.07794 0.217019 1
   vertex 2.07429 0.235284 -1
  endloop
 endfacet
 facet normal -0.980611 -0.195965 0
  outer loop
   vertex 2.07429 0.235284 -1
   vertex 2.07794 0.217019 1
   vertex 2.07429 0.235284 1
  endloop
 endfacet
 facet normal -0.956726 -0.290989 0
  outer loop
   vertex 2.07429 0.235284 -1
   vertex 2.07429 0.235284 1
   vertex 2.06887 0.253104 -1
  endloop
 endfacet
 facet normal -0.956726 -0.290989 0
  outer loop
   vertex 2.06887 0.253104 -1
   vertex 2.07429 0.235284 1
   vertex 2.06887 0.253104 1
  endloop
 endfacet
 facet normal -0.923802 -0.382869 0
  outer loop
   vertex 2.06887 0.253104 -1
   vertex 2.06887 0.253104 1
   vertex 2.06174 0.270307 -1
  endloop
 endfacet
 facet normal -0.923802 -0.382869 0
  outer loop
   vertex 2.06174 0.270307 -1
   vertex 2.06887 0.253104 1
   vertex 2.06174 0.270307 1
  endloop
 endfacet
 facet normal -0.881656 -0.471892 0
  outer loop
   vertex 2.06174 0.270307 -1
   vertex 2.06174 0.270307 1
   vertex 2.05295 0.28673 -1
  endloop
 endfacet
 facet normal -0.881656 -0.471892 0
  outer loop
   vertex 2.05295 0.28673 -1
   vertex 2.06174 0.270307 1
   vertex 2.05295 0.28673 1
  endloop
 endfacet
 facet normal -0.83137 -0.555719 0
  outer loop
   vertex 2.05295 0.28673 -1
   vertex 2.05295 0.28673 1
   vertex 2.0426 0.302214 -1
  endloop
 endfacet
 facet normal -0.83137 -0.555719 0
  outer loop
   vertex 2.0426 0.302214 -1
   vertex 2.05295 0.28673 1
   vertex 2.0426 0.302214 1
  endloop
 endfacet
 facet normal -0.77287 -0.634565 0
  outer loop
   vertex 2.0426 0.302214 -1
   vertex 2.0426 0.302214 1
   vertex 2.03078 0.31661 -1
  endloop
 endfacet
 facet normal -0.77287 -0.634565 0
  outer loop
   vertex 2.03078 0.31661 -1
   vertex 2.0426 0.302214 1
   vertex 2.03078 0.31661 1
  endloop
 endfacet
 facet normal -0.707107 -0.707107 0
  outer loop
   vertex 2.03078 0.31661 -1
   vertex 2.03078 0.31661 1
   vertex 2.01761 0.32978 -1
  endloop
 endfacet
 facet normal -0.707107 -0.707107 0
  outer loop
   vertex 2.01761 0.32978 -1
   vertex 2.03078 0.31661 1
   vertex 2.01761 0.32978 1
  endloop
 endfacet
 facet normal -0.634384 -0.773018 0
  outer loop
   vertex 2.01761 0.32978 -1
   vertex 2.01761 0.32978 1
   vertex 2.00321 0.341598 -1
  endloop
 endfacet
 facet normal -0.634384 -0.773018 0
  outer loop
   vertex 2.00321 0.341598 -1
   vertex 2.01761 0.32978 1
   vertex 2.00321 0.341598 1
  endloop
 endfacet
 facet normal -0.55587 -0.83127 0
  outer loop
   vertex 2.00321 0.341598 -1
   vertex 2.00321 0.341598 1
   vertex 1.98773 0.351949 -1
  endloop
 endfacet
 facet normal -0.55587 -0.83127 0
  outer loop
   vertex 1.98773 0.351949 -1
   vertex 2.00321 0.341598 1
   vertex 1.98773 0.351949 1
  endloop
 endfacet
 facet normal -0.471782 -0.881715 0
  outer loop
   vertex 1.98773 0.351949 -1
   vertex 1.98773 0.351949 1
   vertex 1.97131 0.360735 -1
  endloop
 endfacet
 facet normal -0.471782 -0.881715 0
  outer loop
   vertex 1.97131 0.360735 -1
   vertex 1.98773 0.351949 1
   vertex 1.97131 0.360735 1
  endloop
 endfacet
 facet normal -0.383026 -0.923738 0
  outer loop
   vertex 1.97131 0.360735 -1
   vertex 1.97131 0.360735 1
   vertex 1.9541 0.367871 -1
  endloop
 endfacet
 facet normal -0.383026 -0.923738 0
  outer loop
   vertex 1.9541 0.367871 -1
   vertex 1.97131 0.360735 1
   vertex 1.9541 0.367871 1
  endloop
 endfacet
 facet normal -0.290878 -0.95676 0
  outer loop
   vertex 1.9541 0.367871 -1
   vertex 1.9541 0.367871 1
   vertex 1.93628 0.373289 -1
  endloop
 endfacet
 facet normal -0.290878 -0.95676 0
  outer loop
   vertex 1.93628 0.373289 -1
   vertex 1.9541 0.367871 1
   vertex 1.93628 0.373289 1
  endloop
 endfacet
 facet normal -0.195853 -0.980633 0
  outer loop
   vertex 1.93628 0.373289 -1
   vertex 1.93628 0.373289 1
   vertex 1.91802 0.376936 -1
  endloop
 endfacet
 facet normal -0.195853 -0.980633 0
  outer loop
   vertex 1.91802 0.376936 -1
   vertex 1.93628 0.373289 1
   vertex 1.91802 0.376936 1
  endloop
 endfacet
 facet normal -0.09885 -0.995102 0
  outer loop
   vertex 1.91802 0.376936 -1
   vertex 1.91802 0.376936 1
   vertex 1.89948 0.378777 -1
  endloop
 endfacet
 facet normal -0.09885 -0.995102 0
  outer loop
   vertex 1.89948 0.378777 -1
   vertex 1.91802 0.376936 1
   vertex 1.89948 0.378777 1
  endloop
 endfacet
 facet normal 0 0 -1
  outer loop
   vertex 2.01761 0.32978 -1
   vertex 2.0385 0.337499 -1
   vertex 2.03078 0.31661 -1
  endloop
 endfacet
 facet normal 0 0 -1
  outer loop
   vertex 2.03078 0.31661 -1
   vertex 2.0385 0.337499 -1
   vertex 2.0515 0.323239 -1
  endloop
 endfacet
 facet normal 0 0 -1
  outer loop
   vertex 2.03078 0.31661 -1
   vertex 2.0515 0.323239 -1
   vertex 2.0426 0.302214 -1
  endloop
 endfacet
 facet normal 0 0 -1
  outer loop
   vertex 2.0426 0.302214 -1
   vertex 2.0515 0.323239 -1
   vertex 2.06315 0.307846 -1
  endloop
 endfacet
 facet normal 0 0 -1
  outer loop
   vertex 2.0426 0.302214 -1
   vertex 2.06315 0.307846 -1
   vertex 2.05295 0.28673 -1
  endloop
 endfacet
 facet normal 0 0 -1
  outer loop
   vertex 2.05295 0.28673 -1
   vertex 2.06315 0.307846 -1
   vertex 2.07333 0.291449 -1
  endloop
 endfacet
 facet normal 0 0 -1
  outer loop
   vertex 2.05295 0.28673 -1
   vertex 2.07333 0.291449 -1
   vertex 2.06174 0.270307 -1
  endloop
 endfacet
 facet normal 0 0 -1
  outer loop
   vertex 2.06174 0.270307 -1
   vertex 2.07333 0.291449 -1
   vertex 2.08196 0.274187 -1
  endloop
 endfacet
 facet normal 0 0 -1
  outer loop
   vertex 2.06174 0.270307 -1
   vertex 2.08196 0.274187 -1
   vertex 2.06887 0.253104 -1
  endloop
 endfacet
 facet normal 0 0 -1
  outer loop
   vertex 2.06887 0.253104 -1
   vertex 2.08196 0.274187 -1
   vertex 2.08897 0.256205 -1
  endloop
 endfacet
 facet normal 0 0 -1
  outer loop
   vertex 2.06887 0.253104 -1
   vertex 2.08897 0.256205 -1
   vertex 2.07429 0.235284 -1
  endloop
 endfacet
 facet normal 0 0 -1
  outer loop
   vertex 2.07429 0.235284 -1
   vertex 2.08897 0.256205 -1
   vertex 2.0943 0.237656 -1
  endloop
 endfacet
 facet normal 0 0 -1
  outer loop
   vertex 2.07429 0.235284 -1
   vertex 2.0943 0.237656 -1
   vertex 2.07794 0.217019 -1
  endloop
 endfacet
 facet normal 0 0 -1
  outer loop
   vertex 2.07794 0.217019 -1
   vertex 2.0943 0.237656 -1
   vertex 2.0979 0.218696 -1
  endloop
 endfacet
 facet normal 0 0 -1
  outer loop
   vertex 2.07794 0.217019 -1
   vertex 2.0979 0.218696 -1
   vertex 2.07978 0.198485 -1
  endloop
 endfacet
 facet normal 0 0 -1
  outer loop
   vertex 2.07978 0.198485 -1
   vertex 2.0979 0.218696 -1
   vertex 2.09975 0.199485 -1
  endloop
 endfacet
 facet normal 0 0 -1
  outer loop
   vertex 2.07978 0.198485 -1
   vertex 2.09975 0.199485 -1
   vertex 2.0997 0.197867 -1
  endloop
 endfacet
 facet normal 0 0 -1
  outer loop
   vertex 1.89576 0.397828 -1
   vertex 1.89728 0.398391 -1
   vertex 1.89948 0.378777 -1
  endloop
 endfacet
 facet normal -0 0 -1
  outer loop
   vertex 2.0997 0.197867 -1
   vertex 2.09939 0.196278 -1
   vertex 2.07978 0.198485 -1
  endloop
 endfacet
 facet normal 0 0 -1
  outer loop
   vertex 2.07978 0.198485 -1
   vertex 2.09939 0.196278 -1
   vertex 2.09883 0.19476 -1
  endloop
 endfacet
 facet normal 0 0 -1
  outer loop
   vertex 2.07978 0.198485 -1
   vertex 2.09883 0.19476 -1
   vertex 2.09803 0.193353 -1
  endloop
 endfacet
 facet normal 0 0 -1
  outer loop
   vertex 1.89728 0.398391 -1
   vertex 1.89887 0.398702 -1
   vertex 1.89948 0.378777 -1
  endloop
 endfacet
 facet normal 0 0 -1
  outer loop
   vertex 1.89948 0.378777 -1
   vertex 1.89887 0.398702 -1
   vertex 1.90049 0.398752 -1
  endloop
 endfacet
 facet normal 0 0 -1
  outer loop
   vertex 1.89948 0.378777 -1
   vertex 1.90049 0.398752 -1
   vertex 1.91802 0.376936 -1
  endloop
 endfacet
 facet normal 0 0 -1
  outer loop
   vertex 1.91802 0.376936 -1
   vertex 1.90049 0.398752 -1
   vertex 1.9197 0.396903 -1
  endloop
 endfacet
 facet normal 0 0 -1
  outer loop
   vertex 1.91802 0.376936 -1
   vertex 1.9197 0.396903 -1
   vertex 1.93628 0.373289 -1
  endloop
 endfacet
 facet normal 0 0 -1
  outer loop
   vertex 1.93628 0.373289 -1
   vertex 1.9197 0.396903 -1
   vertex 1.93866 0.393298 -1
  endloop
 endfacet
 facet normal 0 0 -1
  outer loop
   vertex 1.93628 0.373289 -1
   vertex 1.93866 0.393298 -1
   vertex 1.9541 0.367871 -1
  endloop
 endfacet
 facet normal 0 0 -1
  outer loop
   vertex 1.9541 0.367871 -1
   vertex 1.93866 0.393298 -1
   vertex 1.95721 0.387968 -1
  endloop
 endfacet
 facet normal 0 0 -1
  outer loop
   vertex 1.9541 0.367871 -1
   vertex 1.95721 0.387968 -1
   vertex 1.97131 0.360735 -1
  endloop
 endfacet
 facet normal 0 0 -1
  outer loop
   vertex 1.97131 0.360735 -1
   vertex 1.95721 0.387968 -1
   vertex 1.97519 0.380957 -1
  endloop
 endfacet
 facet normal 0 0 -1
  outer loop
   vertex 1.97131 0.360735 -1
   vertex 1.97519 0.380957 -1
   vertex 1.98773 0.351949 -1
  endloop
 endfacet
 facet normal 0 0 -1
  outer loop
   vertex 1.98773 0.351949 -1
   vertex 1.97519 0.380957 -1
   vertex 1.99245 0.372326 -1
  endloop
 endfacet
 facet normal 0 0 -1
  outer loop
   vertex 1.98773 0.351949 -1
   vertex 1.99245 0.372326 -1
   vertex 2.00321 0.341598 -1
  endloop
 endfacet
 facet normal 0 0 -1
  outer loop
   vertex 2.00321 0.341598 -1
   vertex 1.99245 0.372326 -1
   vertex 2.00885 0.362146 -1
  endloop
 endfacet
 facet normal 0 0 -1
  outer loop
   vertex 2.00321 0.341598 -1
   vertex 2.00885 0.362146 -1
   vertex 2.01761 0.32978 -1
  endloop
 endfacet
 facet normal 0 0 -1
  outer loop
   vertex 2.01761 0.32978 -1
   vertex 2.00885 0.362146 -1
   vertex 2.02424 0.350504 -1
  endloop
 endfacet
 facet normal 0 0 -1
  outer loop
   vertex 2.01761 0.32978 -1
   vertex 2.02424 0.350504 -1
   vertex 2.0385 0.337499 -1
  endloop
 endfacet
 facet normal 0 0 -1
  outer loop
   vertex 2.07978 0.198485 -1
   vertex 2.09444 0.190144 -1
   vertex 2.09295 0.189506 -1
  endloop
 endfacet
 facet normal -0 0 -1
  outer loop
   vertex 2.09295 0.189506 -1
   vertex 2.09138 0.189116 -1
   vertex 2.07978 0.198485 -1
  endloop
 endfacet
 facet normal 0 0 -1
  outer loop
   vertex 2.07978 0.198485 -1
   vertex 2.09138 0.189116 -1
   vertex 2.08977 0.188985 -1
  endloop
 endfacet
 facet normal 0 0 -1
  outer loop
   vertex 2.07978 0.198485 -1
   vertex 2.08977 0.188985 -1
   vertex 2.08808 0.189127 -1
  endloop
 endfacet
 facet normal -0 0 -1
  outer loop
   vertex 2.09803 0.193353 -1
   vertex 2.09701 0.192093 -1
   vertex 2.07978 0.198485 -1
  endloop
 endfacet
 facet normal 0 0 -1
  outer loop
   vertex 2.07978 0.198485 -1
   vertex 2.09701 0.192093 -1
   vertex 2.0958 0.191014 -1
  endloop
 endfacet
 facet normal 0 0 -1
  outer loop
   vertex 2.07978 0.198485 -1
   vertex 2.0958 0.191014 -1
   vertex 2.09444 0.190144 -1
  endloop
 endfacet
 facet normal 0 0 -1
  outer loop
   vertex 2.08351 0.191183 -1
   vertex 2.08229 0.192347 -1
   vertex 2.08491 0.190242 -1
  endloop
 endfacet
 facet normal 0 0 -1
  outer loop
   vertex 2.08491 0.190242 -1
   vertex 2.08229 0.192347 -1
   vertex 2.08128 0.193699 -1
  endloop
 endfacet
 facet normal 0 0 -1
  outer loop
   vertex 2.08491 0.190242 -1
   vertex 2.08128 0.193699 -1
   vertex 2.08051 0.195202 -1
  endloop
 endfacet
 facet normal 0 0 -1
  outer loop
   vertex 2.08808 0.189127 -1
   vertex 2.08645 0.189551 -1
   vertex 2.07978 0.198485 -1
  endloop
 endfacet
 facet normal 0 0 -1
  outer loop
   vertex 2.07978 0.198485 -1
   vertex 2.08645 0.189551 -1
   vertex 2.08491 0.190242 -1
  endloop
 endfacet
 facet normal 0 0 -1
  outer loop
   vertex 2.07978 0.198485 -1
   vertex 2.08491 0.190242 -1
   vertex 2.08 0.196812 -1
  endloop
 endfacet
 facet normal 0 0 -1
  outer loop
   vertex 2.08 0.196812 -1
   vertex 2.08491 0.190242 -1
   vertex 2.08051 0.195202 -1
  endloop
 endfacet
 facet normal 0 0 -1
  outer loop
   vertex 1.89012 0.390379 -1
   vertex 1.89051 0.39195 -1
   vertex 1.89948 0.378777 -1
  endloop
 endfacet
 facet normal 0 0 -1
  outer loop
   vertex 1.89948 0.378777 -1
   vertex 1.89051 0.39195 -1
   vertex 1.89114 0.393438 -1
  endloop
 endfacet
 facet normal 0 0 -1
  outer loop
   vertex 1.89948 0.378777 -1
   vertex 1.89114 0.393438 -1
   vertex 1.89201 0.394803 -1
  endloop
 endfacet
 facet normal 0 0 -1
  outer loop
   vertex 1.89201 0.394803 -1
   vertex 1.89309 0.396011 -1
   vertex 1.89948 0.378777 -1
  endloop
 endfacet
 facet normal 0 0 -1
  outer loop
   vertex 1.89948 0.378777 -1
   vertex 1.89309 0.396011 -1
   vertex 1.89435 0.397028 -1
  endloop
 endfacet
 facet normal 0 0 -1
  outer loop
   vertex 1.89948 0.378777 -1
   vertex 1.89435 0.397028 -1
   vertex 1.89576 0.397828 -1
  endloop
 endfacet
 facet normal 0 -0 -1
  outer loop
   vertex 1.89012 0.390379 -1
   vertex 1.89948 0.378777 -1
   vertex 1.88999 0.388765 -1
  endloop
 endfacet
 facet normal 0 0 -1
  outer loop
   vertex 1.88999 0.388765 -1
   vertex 1.89948 0.378777 -1
   vertex 1.89781 0.379004 -1
  endloop
 endfacet
 facet normal 0 0 -1
  outer loop
   vertex 1.88999 0.388765 -1
   vertex 1.89781 0.379004 -1
   vertex 1.8962 0.379508 -1
  endloop
 endfacet
 facet normal 0 0 -1
  outer loop
   vertex 1.8947 0.380276 -1
   vertex 1.89335 0.381286 -1
   vertex 1.8962 0.379508 -1
  endloop
 endfacet
 facet normal 0 0 -1
  outer loop
   vertex 1.8962 0.379508 -1
   vertex 1.89335 0.381286 -1
   vertex 1.89218 0.382509 -1
  endloop
 endfacet
 facet normal 0 0 -1
  outer loop
   vertex 1.8962 0.379508 -1
   vertex 1.89218 0.382509 -1
   vertex 1.89124 0.38391 -1
  endloop
 endfacet
 facet normal 0 0 -1
  outer loop
   vertex 1.89124 0.38391 -1
   vertex 1.89055 0.385449 -1
   vertex 1.8962 0.379508 -1
  endloop
 endfacet
 facet normal 0 0 -1
  outer loop
   vertex 1.8962 0.379508 -1
   vertex 1.89055 0.385449 -1
   vertex 1.89013 0.387083 -1
  endloop
 endfacet
 facet normal 0 0 -1
  outer loop
   vertex 1.8962 0.379508 -1
   vertex 1.89013 0.387083 -1
   vertex 1.88999 0.388765 -1
  endloop
 endfacet
 facet normal 0 0 1
  outer loop
   vertex 1.89887 0.398702 1
   vertex 1.89728 0.398391 1
   vertex 1.89948 0.378777 1
  endloop
 endfacet
 facet normal 0 -0 1
  outer loop
   vertex 2.03078 0.31661 1
   vertex 2.0385 0.337499 1
   vertex 2.01761 0.32978 1
  endloop
 endfacet
 facet normal 0 0 1
  outer loop
   vertex 2.01761 0.32978 1
   vertex 2.0385 0.337499 1
   vertex 2.02424 0.350504 1
  endloop
 endfacet
 facet normal 0 -0 1
  outer loop
   vertex 2.01761 0.32978 1
   vertex 2.02424 0.350504 1
   vertex 2.00321 0.341598 1
  endloop
 endfacet
 facet normal 0 0 1
  outer loop
   vertex 2.00321 0.341598 1
   vertex 2.02424 0.350504 1
   vertex 2.00885 0.362146 1
  endloop
 endfacet
 facet normal 0 -0 1
  outer loop
   vertex 2.00321 0.341598 1
   vertex 2.00885 0.362146 1
   vertex 1.98773 0.351949 1
  endloop
 endfacet
 facet normal 0 0 1
  outer loop
   vertex 1.98773 0.351949 1
   vertex 2.00885 0.362146 1
   vertex 1.99245 0.372326 1
  endloop
 endfacet
 facet normal 0 -0 1
  outer loop
   vertex 1.98773 0.351949 1
   vertex 1.99245 0.372326 1
   vertex 1.97131 0.360735 1
  endloop
 endfacet
 facet normal 0 0 1
  outer loop
   vertex 1.97131 0.360735 1
   vertex 1.99245 0.372326 1
   vertex 1.97519 0.380957 1
  endloop
 endfacet
 facet normal 0 -0 1
  outer loop
   vertex 1.97131 0.360735 1
   vertex 1.97519 0.380957 1
   vertex 1.9541 0.367871 1
  endloop
 endfacet
 facet normal 0 0 1
  outer loop
   vertex 1.9541 0.367871 1
   vertex 1.97519 0.380957 1
   vertex 1.95721 0.387968 1
  endloop
 endfacet
 facet normal 0 -0 1
  outer loop
   vertex 1.9541 0.367871 1
   vertex 1.95721 0.387968 1
   vertex 1.93628 0.373289 1
  endloop
 endfacet
 facet normal 0 0 1
  outer loop
   vertex 1.93628 0.373289 1
   vertex 1.95721 0.387968 1
   vertex 1.93866 0.393298 1
  endloop
 endfacet
 facet normal 0 -0 1
  outer loop
   vertex 1.93628 0.373289 1
   vertex 1.93866 0.393298 1
   vertex 1.91802 0.376936 1
  endloop
 endfacet
 facet normal 0 0 1
  outer loop
   vertex 1.91802 0.376936 1
   vertex 1.93866 0.393298 1
   vertex 1.9197 0.396903 1
  endloop
 endfacet
 facet normal 0 -0 1
  outer loop
   vertex 1.91802 0.376936 1
   vertex 1.9197 0.396903 1
   vertex 1.89948 0.378777 1
  endloop
 endfacet
 facet normal 0 0 1
  outer loop
   vertex 1.89948 0.378777 1
   vertex 1.9197 0.396903 1
   vertex 1.90049 0.398752 1
  endloop
 endfacet
 facet normal 0 -0 1
  outer loop
   vertex 1.89948 0.378777 1
   vertex 1.90049 0.398752 1
   vertex 1.89887 0.398702 1
  endloop
 endfacet
 facet normal 0 -0 1
  outer loop
   vertex 2.09883 0.19476 1
   vertex 2.09939 0.196278 1
   vertex 2.07978 0.198485 1
  endloop
 endfacet
 facet normal 0 -0 1
  outer loop
   vertex 2.08977 0.188985 1
   vertex 2.09138 0.189116 1
   vertex 2.07978 0.198485 1
  endloop
 endfacet
 facet normal 0 -0 1
  outer loop
   vertex 2.09939 0.196278 1
   vertex 2.0997 0.197867 1
   vertex 2.07978 0.198485 1
  endloop
 endfacet
 facet normal -0 0 1
  outer loop
   vertex 2.07978 0.198485 1
   vertex 2.0997 0.197867 1
   vertex 2.09975 0.199485 1
  endloop
 endfacet
 facet normal 0 -0 1
  outer loop
   vertex 2.07978 0.198485 1
   vertex 2.09975 0.199485 1
   vertex 2.07794 0.217019 1
  endloop
 endfacet
 facet normal -0 0 1
  outer loop
   vertex 2.07794 0.217019 1
   vertex 2.09975 0.199485 1
   vertex 2.0979 0.218696 1
  endloop
 endfacet
 facet normal 0 -0 1
  outer loop
   vertex 2.07794 0.217019 1
   vertex 2.0979 0.218696 1
   vertex 2.07429 0.235284 1
  endloop
 endfacet
 facet normal -0 0 1
  outer loop
   vertex 2.07429 0.235284 1
   vertex 2.0979 0.218696 1
   vertex 2.0943 0.237656 1
  endloop
 endfacet
 facet normal 0 -0 1
  outer loop
   vertex 2.07429 0.235284 1
   vertex 2.0943 0.237656 1
   vertex 2.06887 0.253104 1
  endloop
 endfacet
 facet normal -0 0 1
  outer loop
   vertex 2.06887 0.253104 1
   vertex 2.0943 0.237656 1
   vertex 2.08897 0.256205 1
  endloop
 endfacet
 facet normal 0 -0 1
  outer loop
   vertex 2.06887 0.253104 1
   vertex 2.08897 0.256205 1
   vertex 2.06174 0.270307 1
  endloop
 endfacet
 facet normal -0 0 1
  outer loop
   vertex 2.06174 0.270307 1
   vertex 2.08897 0.256205 1
   vertex 2.08196 0.274187 1
  endloop
 endfacet
 facet normal 0 -0 1
  outer loop
   vertex 2.06174 0.270307 1
   vertex 2.08196 0.274187 1
   vertex 2.05295 0.28673 1
  endloop
 endfacet
 facet normal -0 0 1
  outer loop
   vertex 2.05295 0.28673 1
   vertex 2.08196 0.274187 1
   vertex 2.07333 0.291449 1
  endloop
 endfacet
 facet normal 0 -0 1
  outer loop
   vertex 2.05295 0.28673 1
   vertex 2.07333 0.291449 1
   vertex 2.0426 0.302214 1
  endloop
 endfacet
 facet normal -0 0 1
  outer loop
   vertex 2.0426 0.302214 1
   vertex 2.07333 0.291449 1
   vertex 2.06315 0.307846 1
  endloop
 endfacet
 facet normal 0 -0 1
  outer loop
   vertex 2.0426 0.302214 1
   vertex 2.06315 0.307846 1
   vertex 2.03078 0.31661 1
  endloop
 endfacet
 facet normal -0 0 1
  outer loop
   vertex 2.03078 0.31661 1
   vertex 2.06315 0.307846 1
   vertex 2.0515 0.323239 1
  endloop
 endfacet
 facet normal 0 0 1
  outer loop
   vertex 2.03078 0.31661 1
   vertex 2.0515 0.323239 1
   vertex 2.0385 0.337499 1
  endloop
 endfacet
 facet normal 0 0 1
  outer loop
   vertex 2.08977 0.188985 1
   vertex 2.07978 0.198485 1
   vertex 2.08808 0.189127 1
  endloop
 endfacet
 facet normal 0 0 1
  outer loop
   vertex 1.89728 0.398391 1
   vertex 1.89576 0.397828 1
   vertex 1.89948 0.378777 1
  endloop
 endfacet
 facet normal 0 0 1
  outer loop
   vertex 1.89948 0.378777 1
   vertex 1.89576 0.397828 1
   vertex 1.89435 0.397028 1
  endloop
 endfacet
 facet normal 0 0 1
  outer loop
   vertex 1.89948 0.378777 1
   vertex 1.89435 0.397028 1
   vertex 1.89309 0.396011 1
  endloop
 endfacet
 facet normal 0 0 1
  outer loop
   vertex 1.89309 0.396011 1
   vertex 1.89201 0.394803 1
   vertex 1.89948 0.378777 1
  endloop
 endfacet
 facet normal 0 0 1
  outer loop
   vertex 1.89948 0.378777 1
   vertex 1.89201 0.394803 1
   vertex 1.89114 0.393438 1
  endloop
 endfacet
 facet normal 0 0 1
  outer loop
   vertex 1.89948 0.378777 1
   vertex 1.89114 0.393438 1
   vertex 1.89051 0.39195 1
  endloop
 endfacet
 facet normal 0 0 1
  outer loop
   vertex 1.89051 0.39195 1
   vertex 1.89012 0.390379 1
   vertex 1.89948 0.378777 1
  endloop
 endfacet
 facet normal 0 0 1
  outer loop
   vertex 1.89948 0.378777 1
   vertex 1.89012 0.390379 1
   vertex 1.88999 0.388765 1
  endloop
 endfacet
 facet normal 0 0 1
  outer loop
   vertex 1.89948 0.378777 1
   vertex 1.88999 0.388765 1
   vertex 1.89781 0.379004 1
  endloop
 endfacet
 facet normal 0 0 1
  outer loop
   vertex 2.08 0.196812 1
   vertex 2.08051 0.195202 1
   vertex 2.08491 0.190242 1
  endloop
 endfacet
 facet normal 0 -0 1
  outer loop
   vertex 2.09138 0.189116 1
   vertex 2.09295 0.189506 1
   vertex 2.07978 0.198485 1
  endloop
 endfacet
 facet normal 0 0 1
  outer loop
   vertex 2.07978 0.198485 1
   vertex 2.09295 0.189506 1
   vertex 2.09444 0.190144 1
  endloop
 endfacet
 facet normal 0 0 1
  outer loop
   vertex 2.07978 0.198485 1
   vertex 2.09444 0.190144 1
   vertex 2.0958 0.191014 1
  endloop
 endfacet
 facet normal 0 0 1
  outer loop
   vertex 1.89055 0.385449 1
   vertex 1.89124 0.38391 1
   vertex 1.8962 0.379508 1
  endloop
 endfacet
 facet normal -0 -0 1
  outer loop
   vertex 2.08 0.196812 1
   vertex 2.08491 0.190242 1
   vertex 2.07978 0.198485 1
  endloop
 endfacet
 facet normal 0 0 1
  outer loop
   vertex 2.07978 0.198485 1
   vertex 2.08491 0.190242 1
   vertex 2.08645 0.189551 1
  endloop
 endfacet
 facet normal 0 0 1
  outer loop
   vertex 2.07978 0.198485 1
   vertex 2.08645 0.189551 1
   vertex 2.08808 0.189127 1
  endloop
 endfacet
 facet normal 0 -0 1
  outer loop
   vertex 2.0958 0.191014 1
   vertex 2.09701 0.192093 1
   vertex 2.07978 0.198485 1
  endloop
 endfacet
 facet normal 0 0 1
  outer loop
   vertex 2.07978 0.198485 1
   vertex 2.09701 0.192093 1
   vertex 2.09803 0.193353 1
  endloop
 endfacet
 facet normal 0 0 1
  outer loop
   vertex 2.07978 0.198485 1
   vertex 2.09803 0.193353 1
   vertex 2.09883 0.19476 1
  endloop
 endfacet
 facet normal 0 0 1
  outer loop
   vertex 2.08051 0.195202 1
   vertex 2.08128 0.193699 1
   vertex 2.08491 0.190242 1
  endloop
 endfacet
 facet normal 0 0 1
  outer loop
   vertex 2.08491 0.190242 1
   vertex 2.08128 0.193699 1
   vertex 2.08229 0.192347 1
  endloop
 endfacet
 facet normal 0 0 1
  outer loop
   vertex 2.08491 0.190242 1
   vertex 2.08229 0.192347 1
   vertex 2.08351 0.191183 1
  endloop
 endfacet
 facet normal 0 0 1
  outer loop
   vertex 1.89781 0.379004 1
   vertex 1.88999 0.388765 1
   vertex 1.8962 0.379508 1
  endloop
 endfacet
 facet normal 0 0 1
  outer loop
   vertex 1.8962 0.379508 1
   vertex 1.88999 0.388765 1
   vertex 1.89013 0.387083 1
  endloop
 endfacet
 facet normal 0 0 1
  outer loop
   vertex 1.8962 0.379508 1
   vertex 1.89013 0.387083 1
   vertex 1.89055 0.385449 1
  endloop
 endfacet
 facet normal 0 0 1
  outer loop
   vertex 1.89124 0.38391 1
   vertex 1.89218 0.382509 1
   vertex 1.8962 0.379508 1
  endloop
 endfacet
 facet normal 0 0 1
  outer loop
   vertex 1.8962 0.379508 1
   vertex 1.89218 0.382509 1
   vertex 1.89335 0.381286 1
  endloop
 endfacet
 facet normal 0 0 1
  outer loop
   vertex 1.8962 0.379508 1
   vertex 1.89335 0.381286 1
   vertex 1.8947 0.380276 1
  endloop
 endfacet
 facet normal 0.999522 -0.03092 0
  outer loop
   vertex 2.09975 0.199485 -1
   vertex 2.09975 0.199485 1
   vertex 2.0997 0.197867 1
  endloop
 endfacet
 facet normal 0.999522 -0.03092 0
  outer loop
   vertex 2.09975 0.199485 -1
   vertex 2.0997 0.197867 1
   vertex 2.0997 0.197867 -1
  endloop
 endfacet
 facet normal 0.981503 -0.191448 0
  outer loop
   vertex 2.0997 0.197867 -1
   vertex 2.0997 0.197867 1
   vertex 2.09939 0.196278 1
  endloop
 endfacet
 facet normal 0.981503 -0.191448 0
  outer loop
   vertex 2.0997 0.197867 -1
   vertex 2.09939 0.196278 1
   vertex 2.09939 0.196278 -1
  endloop
 endfacet
 facet normal 0.938172 -0.346171 0
  outer loop
   vertex 2.09939 0.196278 -1
   vertex 2.09939 0.196278 1
   vertex 2.09883 0.19476 1
  endloop
 endfacet
 facet normal 0.938172 -0.346171 0
  outer loop
   vertex 2.09939 0.196278 -1
   vertex 2.09883 0.19476 1
   vertex 2.09883 0.19476 -1
  endloop
 endfacet
 facet normal 0.869379 -0.494145 0
  outer loop
   vertex 2.09883 0.19476 -1
   vertex 2.09883 0.19476 1
   vertex 2.09803 0.193353 1
  endloop
 endfacet
 facet normal 0.869379 -0.494145 0
  outer loop
   vertex 2.09883 0.19476 -1
   vertex 2.09803 0.193353 1
   vertex 2.09803 0.193353 -1
  endloop
 endfacet
 facet normal 0.777186 -0.629271 0
  outer loop
   vertex 2.09803 0.193353 -1
   vertex 2.09803 0.193353 1
   vertex 2.09701 0.192093 1
  endloop
 endfacet
 facet normal 0.777186 -0.629271 0
  outer loop
   vertex 2.09803 0.193353 -1
   vertex 2.09701 0.192093 1
   vertex 2.09701 0.192093 -1
  endloop
 endfacet
 facet normal 0.665455 -0.746438 0
  outer loop
   vertex 2.09701 0.192093 -1
   vertex 2.09701 0.192093 1
   vertex 2.0958 0.191014 1
  endloop
 endfacet
 facet normal 0.665455 -0.746438 0
  outer loop
   vertex 2.09701 0.192093 -1
   vertex 2.0958 0.191014 1
   vertex 2.0958 0.191014 -1
  endloop
 endfacet
 facet normal 0.538982 -0.842317 0
  outer loop
   vertex 2.0958 0.191014 -1
   vertex 2.0958 0.191014 1
   vertex 2.09444 0.190144 1
  endloop
 endfacet
 facet normal 0.538982 -0.842317 0
  outer loop
   vertex 2.0958 0.191014 -1
   vertex 2.09444 0.190144 1
   vertex 2.09444 0.190144 -1
  endloop
 endfacet
 facet normal 0.3937 -0.919239 0
  outer loop
   vertex 2.09444 0.190144 -1
   vertex 2.09444 0.190144 1
   vertex 2.09295 0.189506 1
  endloop
 endfacet
 facet normal 0.3937 -0.919239 0
  outer loop
   vertex 2.09444 0.190144 -1
   vertex 2.09295 0.189506 1
   vertex 2.09295 0.189506 -1
  endloop
 endfacet
 facet normal 0.240758 -0.970585 0
  outer loop
   vertex 2.09295 0.189506 -1
   vertex 2.09295 0.189506 1
   vertex 2.09138 0.189116 1
  endloop
 endfacet
 facet normal 0.240758 -0.970585 0
  outer loop
   vertex 2.09295 0.189506 -1
   vertex 2.09138 0.189116 1
   vertex 2.09138 0.189116 -1
  endloop
 endfacet
 facet normal 0.0811701 -0.9967 0
  outer loop
   vertex 2.09138 0.189116 -1
   vertex 2.09138 0.189116 1
   vertex 2.08977 0.188985 1
  endloop
 endfacet
 facet normal 0.0811701 -0.9967 0
  outer loop
   vertex 2.09138 0.189116 -1
   vertex 2.08977 0.188985 1
   vertex 2.08977 0.188985 -1
  endloop
 endfacet
 facet normal -0.0838961 -0.996475 0
  outer loop
   vertex 2.08977 0.188985 -1
   vertex 2.08977 0.188985 1
   vertex 2.08808 0.189127 1
  endloop
 endfacet
 facet normal -0.0838961 -0.996475 0
  outer loop
   vertex 2.08977 0.188985 -1
   vertex 2.08808 0.189127 1
   vertex 2.08808 0.189127 -1
  endloop
 endfacet
 facet normal -0.251491 -0.96786 0
  outer loop
   vertex 2.08808 0.189127 -1
   vertex 2.08808 0.189127 1
   vertex 2.08645 0.189551 1
  endloop
 endfacet
 facet normal -0.251491 -0.96786 0
  outer loop
   vertex 2.08808 0.189127 -1
   vertex 2.08645 0.189551 1
   vertex 2.08645 0.189551 -1
  endloop
 endfacet
 facet normal -0.409535 -0.912294 0
  outer loop
   vertex 2.08645 0.189551 -1
   vertex 2.08645 0.189551 1
   vertex 2.08491 0.190242 1
  endloop
 endfacet
 facet normal -0.409535 -0.912294 0
  outer loop
   vertex 2.08645 0.189551 -1
   vertex 2.08491 0.190242 1
   vertex 2.08491 0.190242 -1
  endloop
 endfacet
 facet normal -0.557845 -0.829945 0
  outer loop
   vertex 2.08491 0.190242 -1
   vertex 2.08491 0.190242 1
   vertex 2.08351 0.191183 1
  endloop
 endfacet
 facet normal -0.557845 -0.829945 0
  outer loop
   vertex 2.08491 0.190242 -1
   vertex 2.08351 0.191183 1
   vertex 2.08351 0.191183 -1
  endloop
 endfacet
 facet normal -0.690219 -0.723601 0
  outer loop
   vertex 2.08351 0.191183 -1
   vertex 2.08351 0.191183 1
   vertex 2.08229 0.192347 1
  endloop
 endfacet
 facet normal -0.690219 -0.723601 0
  outer loop
   vertex 2.08351 0.191183 -1
   vertex 2.08229 0.192347 1
   vertex 2.08229 0.192347 -1
  endloop
 endfacet
 facet normal -0.801173 -0.598433 0
  outer loop
   vertex 2.08229 0.192347 -1
   vertex 2.08229 0.192347 1
   vertex 2.08128 0.193699 1
  endloop
 endfacet
 facet normal -0.801173 -0.598433 0
  outer loop
   vertex 2.08229 0.192347 -1
   vertex 2.08128 0.193699 1
   vertex 2.08128 0.193699 -1
  endloop
 endfacet
 facet normal -0.889981 -0.455998 0
  outer loop
   vertex 2.08128 0.193699 -1
   vertex 2.08128 0.193699 1
   vertex 2.08051 0.195202 1
  endloop
 endfacet
 facet normal -0.889981 -0.455998 0
  outer loop
   vertex 2.08128 0.193699 -1
   vertex 2.08051 0.195202 1
   vertex 2.08051 0.195202 -1
  endloop
 endfacet
 facet normal -0.953334 -0.301919 0
  outer loop
   vertex 2.08051 0.195202 -1
   vertex 2.08051 0.195202 1
   vertex 2.08 0.196812 1
  endloop
 endfacet
 facet normal -0.953334 -0.301919 0
  outer loop
   vertex 2.08051 0.195202 -1
   vertex 2.08 0.196812 1
   vertex 2.08 0.196812 -1
  endloop
 endfacet
 facet normal -0.991475 -0.130297 0
  outer loop
   vertex 2.08 0.196812 -1
   vertex 2.08 0.196812 1
   vertex 2.07978 0.198485 1
  endloop
 endfacet
 facet normal -0.991475 -0.130297 0
  outer loop
   vertex 2.08 0.196812 -1
   vertex 2.07978 0.198485 1
   vertex 2.07978 0.198485 -1
  endloop
 endfacet
 facet normal -0.996769 0.0803253 0
  outer loop
   vertex 1.88999 0.388765 -1
   vertex 1.88999 0.388765 1
   vertex 1.89012 0.390379 1
  endloop
 endfacet
 facet normal -0.996769 0.0803253 0
  outer loop
   vertex 1.88999 0.388765 -1
   vertex 1.89012 0.390379 1
   vertex 1.89012 0.390379 -1
  endloop
 endfacet
 facet normal -0.970551 0.240898 0
  outer loop
   vertex 1.89012 0.390379 -1
   vertex 1.89012 0.390379 1
   vertex 1.89051 0.39195 1
  endloop
 endfacet
 facet normal -0.970551 0.240898 0
  outer loop
   vertex 1.89012 0.390379 -1
   vertex 1.89051 0.39195 1
   vertex 1.89051 0.39195 -1
  endloop
 endfacet
 facet normal -0.92086 0.389893 0
  outer loop
   vertex 1.89051 0.39195 -1
   vertex 1.89051 0.39195 1
   vertex 1.89114 0.393438 1
  endloop
 endfacet
 facet normal -0.92086 0.389893 0
  outer loop
   vertex 1.89051 0.39195 -1
   vertex 1.89114 0.393438 1
   vertex 1.89114 0.393438 -1
  endloop
 endfacet
 facet normal -0.843282 0.537471 0
  outer loop
   vertex 1.89114 0.393438 -1
   vertex 1.89114 0.393438 1
   vertex 1.89201 0.394803 1
  endloop
 endfacet
 facet normal -0.843282 0.537471 0
  outer loop
   vertex 1.89114 0.393438 -1
   vertex 1.89201 0.394803 1
   vertex 1.89201 0.394803 -1
  endloop
 endfacet
 facet normal -0.745488 0.666519 0
  outer loop
   vertex 1.89201 0.394803 -1
   vertex 1.89201 0.394803 1
   vertex 1.89309 0.396011 1
  endloop
 endfacet
 facet normal -0.745488 0.666519 0
  outer loop
   vertex 1.89201 0.394803 -1
   vertex 1.89309 0.396011 1
   vertex 1.89309 0.396011 -1
  endloop
 endfacet
 facet normal -0.628067 0.778159 0
  outer loop
   vertex 1.89309 0.396011 -1
   vertex 1.89309 0.396011 1
   vertex 1.89435 0.397028 1
  endloop
 endfacet
 facet normal -0.628067 0.778159 0
  outer loop
   vertex 1.89309 0.396011 -1
   vertex 1.89435 0.397028 1
   vertex 1.89435 0.397028 -1
  endloop
 endfacet
 facet normal -0.493477 0.869759 0
  outer loop
   vertex 1.89435 0.397028 -1
   vertex 1.89435 0.397028 1
   vertex 1.89576 0.397828 1
  endloop
 endfacet
 facet normal -0.493477 0.869759 0
  outer loop
   vertex 1.89435 0.397028 -1
   vertex 1.89576 0.397828 1
   vertex 1.89576 0.397828 -1
  endloop
 endfacet
 facet normal -0.347348 0.937736 0
  outer loop
   vertex 1.89576 0.397828 -1
   vertex 1.89576 0.397828 1
   vertex 1.89728 0.398391 1
  endloop
 endfacet
 facet normal -0.347348 0.937736 0
  outer loop
   vertex 1.89576 0.397828 -1
   vertex 1.89728 0.398391 1
   vertex 1.89728 0.398391 -1
  endloop
 endfacet
 facet normal -0.19196 0.981403 0
  outer loop
   vertex 1.89728 0.398391 -1
   vertex 1.89728 0.398391 1
   vertex 1.89887 0.398702 1
  endloop
 endfacet
 facet normal -0.19196 0.981403 0
  outer loop
   vertex 1.89728 0.398391 -1
   vertex 1.89887 0.398702 1
   vertex 1.89887 0.398702 -1
  endloop
 endfacet
 facet normal -0.030849 0.999524 0
  outer loop
   vertex 1.89887 0.398702 -1
   vertex 1.89887 0.398702 1
   vertex 1.90049 0.398752 1
  endloop
 endfacet
 facet normal -0.030849 0.999524 0
  outer loop
   vertex 1.89887 0.398702 -1
   vertex 1.90049 0.398752 1
   vertex 1.90049 0.398752 -1
  endloop
 endfacet
 facet normal -0.134453 -0.99092 0
  outer loop
   vertex 1.89948 0.378777 -1
   vertex 1.89948 0.378777 1
   vertex 1.89781 0.379004 1
  endloop
 endfacet
 facet normal -0.134453 -0.99092 0
  outer loop
   vertex 1.89948 0.378777 -1
   vertex 1.89781 0.379004 1
   vertex 1.89781 0.379004 -1
  endloop
 endfacet
 facet normal -0.298742 -0.954334 0
  outer loop
   vertex 1.89781 0.379004 -1
   vertex 1.89781 0.379004 1
   vertex 1.8962 0.379508 1
  endloop
 endfacet
 facet normal -0.298742 -0.954334 0
  outer loop
   vertex 1.89781 0.379004 -1
   vertex 1.8962 0.379508 1
   vertex 1.8962 0.379508 -1
  endloop
 endfacet
 facet normal -0.455858 -0.890052 0
  outer loop
   vertex 1.8962 0.379508 -1
   vertex 1.8962 0.379508 1
   vertex 1.8947 0.380276 1
  endloop
 endfacet
 facet normal -0.455858 -0.890052 0
  outer loop
   vertex 1.8962 0.379508 -1
   vertex 1.8947 0.380276 1
   vertex 1.8947 0.380276 -1
  endloop
 endfacet
 facet normal -0.598885 -0.800835 0
  outer loop
   vertex 1.8947 0.380276 -1
   vertex 1.8947 0.380276 1
   vertex 1.89335 0.381286 1
  endloop
 endfacet
 facet normal -0.598885 -0.800835 0
  outer loop
   vertex 1.8947 0.380276 -1
   vertex 1.89335 0.381286 1
   vertex 1.89335 0.381286 -1
  endloop
 endfacet
 facet normal -0.722721 -0.69114 0
  outer loop
   vertex 1.89335 0.381286 -1
   vertex 1.89335 0.381286 1
   vertex 1.89218 0.382509 1
  endloop
 endfacet
 facet normal -0.722721 -0.69114 0
  outer loop
   vertex 1.89335 0.381286 -1
   vertex 1.89218 0.382509 1
   vertex 1.89218 0.382509 -1
  endloop
 endfacet
 facet normal -0.830415 -0.557146 0
  outer loop
   vertex 1.89218 0.382509 -1
   vertex 1.89218 0.382509 1
   vertex 1.89124 0.38391 1
  endloop
 endfacet
 facet normal -0.830415 -0.557146 0
  outer loop
   vertex 1.89218 0.382509 -1
   vertex 1.89124 0.38391 1
   vertex 1.89124 0.38391 -1
  endloop
 endfacet
 facet normal -0.91247 -0.409143 0
  outer loop
   vertex 1.89124 0.38391 -1
   vertex 1.89124 0.38391 1
   vertex 1.89055 0.385449 1
  endloop
 endfacet
 facet normal -0.91247 -0.409143 0
  outer loop
   vertex 1.89124 0.38391 -1
   vertex 1.89055 0.385449 1
   vertex 1.89055 0.385449 -1
  endloop
 endfacet
 facet normal -0.968529 -0.248902 0
  outer loop
   vertex 1.89055 0.385449 -1
   vertex 1.89055 0.385449 1
   vertex 1.89013 0.387083 1
  endloop
 endfacet
 facet normal -0.968529 -0.248902 0
  outer loop
   vertex 1.89055 0.385449 -1
   vertex 1.89013 0.387083 1
   vertex 1.89013 0.387083 -1
  endloop
 endfacet
 facet normal -0.99655 -0.0829991 0
  outer loop
   vertex 1.89013 0.387083 -1
   vertex 1.89013 0.387083 1
   vertex 1.88999 0.388765 1
  endloop
 endfacet
 facet normal -0.99655 -0.0829991 0
  outer loop
   vertex 1.89013 0.387083 -1
   vertex 1.88999 0.388765 1
   vertex 1.88999 0.388765 -1
  endloop
 endfacet
endsolid tunner_vane
