solid tunner_vane
 facet normal -0.00203004 0.999998 0
  outer loop
   vertex -0.00827578 0.00849029 -1
   vertex -0.00827578 0.00849029 1
   vertex -0.0077962 0.00849126 1
  endloop
 endfacet
 facet normal -0.00203004 0.999998 0
  outer loop
   vertex -0.00827578 0.00849029 -1
   vertex -0.0077962 0.00849126 1
   vertex -0.0077962 0.00849126 -1
  endloop
 endfacet
 facet normal 0.0291601 0.999575 -0
  outer loop
   vertex -0.0077962 0.00849126 -1
   vertex -0.0077962 0.00849126 1
   vertex -0.00731675 0.00847727 1
  endloop
 endfacet
 facet normal 0.0291601 0.999575 0
  outer loop
   vertex -0.0077962 0.00849126 -1
   vertex -0.00731675 0.00847727 1
   vertex -0.00731675 0.00847727 -1
  endloop
 endfacet
 facet normal 0.0601831 0.998187 -0
  outer loop
   vertex -0.00731675 0.00847727 -1
   vertex -0.00731675 0.00847727 1
   vertex -0.00683796 0.00844841 1
  endloop
 endfacet
 facet normal 0.0601831 0.998187 0
  outer loop
   vertex -0.00731675 0.00847727 -1
   vertex -0.00683796 0.00844841 1
   vertex -0.00683796 0.00844841 -1
  endloop
 endfacet
 facet normal 0.0910373 0.995847 -0
  outer loop
   vertex -0.00683796 0.00844841 -1
   vertex -0.00683796 0.00844841 1
   vertex -0.00636034 0.00840474 1
  endloop
 endfacet
 facet normal 0.0910373 0.995847 0
  outer loop
   vertex -0.00683796 0.00844841 -1
   vertex -0.00636034 0.00840474 1
   vertex -0.00636034 0.00840474 -1
  endloop
 endfacet
 facet normal 0.121858 0.992548 -0
  outer loop
   vertex -0.00636034 0.00840474 -1
   vertex -0.00636034 0.00840474 1
   vertex -0.00588433 0.0083463 1
  endloop
 endfacet
 facet normal 0.121858 0.992548 0
  outer loop
   vertex -0.00636034 0.00840474 -1
   vertex -0.00588433 0.0083463 1
   vertex -0.00588433 0.0083463 -1
  endloop
 endfacet
 facet normal 0.152695 0.988273 -0
  outer loop
   vertex -0.00588433 0.0083463 -1
   vertex -0.00588433 0.0083463 1
   vertex -0.00541032 0.00827307 1
  endloop
 endfacet
 facet normal 0.152695 0.988273 0
  outer loop
   vertex -0.00588433 0.0083463 -1
   vertex -0.00541032 0.00827307 1
   vertex -0.00541032 0.00827307 -1
  endloop
 endfacet
 facet normal 0.183264 0.983064 -0
  outer loop
   vertex -0.00541032 0.00827307 -1
   vertex -0.00541032 0.00827307 1
   vertex -0.00493882 0.00818517 1
  endloop
 endfacet
 facet normal 0.183264 0.983064 0
  outer loop
   vertex -0.00541032 0.00827307 -1
   vertex -0.00493882 0.00818517 1
   vertex -0.00493882 0.00818517 -1
  endloop
 endfacet
 facet normal 0.213691 0.976901 -0
  outer loop
   vertex -0.00493882 0.00818517 -1
   vertex -0.00493882 0.00818517 1
   vertex -0.00447026 0.00808267 1
  endloop
 endfacet
 facet normal 0.213691 0.976901 0
  outer loop
   vertex -0.00493882 0.00818517 -1
   vertex -0.00447026 0.00808267 1
   vertex -0.00447026 0.00808267 -1
  endloop
 endfacet
 facet normal 0.243893 0.969802 -0
  outer loop
   vertex -0.00447026 0.00808267 -1
   vertex -0.00447026 0.00808267 1
   vertex -0.00400513 0.0079657 1
  endloop
 endfacet
 facet normal 0.243893 0.969802 0
  outer loop
   vertex -0.00447026 0.00808267 -1
   vertex -0.00400513 0.0079657 1
   vertex -0.00400513 0.0079657 -1
  endloop
 endfacet
 facet normal 0.273893 0.96176 -0
  outer loop
   vertex -0.00400513 0.0079657 -1
   vertex -0.00400513 0.0079657 1
   vertex -0.00354385 0.00783433 1
  endloop
 endfacet
 facet normal 0.273893 0.96176 0
  outer loop
   vertex -0.00400513 0.0079657 -1
   vertex -0.00354385 0.00783433 1
   vertex -0.00354385 0.00783433 -1
  endloop
 endfacet
 facet normal 0.303605 0.952798 -0
  outer loop
   vertex -0.00354385 0.00783433 -1
   vertex -0.00354385 0.00783433 1
   vertex -0.00308686 0.00768872 1
  endloop
 endfacet
 facet normal 0.303605 0.952798 0
  outer loop
   vertex -0.00354385 0.00783433 -1
   vertex -0.00308686 0.00768872 1
   vertex -0.00308686 0.00768872 -1
  endloop
 endfacet
 facet normal 0.333034 0.942915 -0
  outer loop
   vertex -0.00308686 0.00768872 -1
   vertex -0.00308686 0.00768872 1
   vertex -0.00263461 0.00752899 1
  endloop
 endfacet
 facet normal 0.333034 0.942915 0
  outer loop
   vertex -0.00308686 0.00768872 -1
   vertex -0.00263461 0.00752899 1
   vertex -0.00263461 0.00752899 -1
  endloop
 endfacet
 facet normal 0.362106 0.932137 -0
  outer loop
   vertex -0.00263461 0.00752899 -1
   vertex -0.00263461 0.00752899 1
   vertex -0.00218754 0.00735531 1
  endloop
 endfacet
 facet normal 0.362106 0.932137 0
  outer loop
   vertex -0.00263461 0.00752899 -1
   vertex -0.00218754 0.00735531 1
   vertex -0.00218754 0.00735531 -1
  endloop
 endfacet
 facet normal 0.390888 0.920438 -0
  outer loop
   vertex -0.00218754 0.00735531 -1
   vertex -0.00218754 0.00735531 1
   vertex -0.00174608 0.00716783 1
  endloop
 endfacet
 facet normal 0.390888 0.920438 0
  outer loop
   vertex -0.00218754 0.00735531 -1
   vertex -0.00174608 0.00716783 1
   vertex -0.00174608 0.00716783 -1
  endloop
 endfacet
 facet normal 0.41926 0.907866 -0
  outer loop
   vertex -0.00174608 0.00716783 -1
   vertex -0.00174608 0.00716783 1
   vertex -0.00131064 0.00696675 1
  endloop
 endfacet
 facet normal 0.41926 0.907866 0
  outer loop
   vertex -0.00174608 0.00716783 -1
   vertex -0.00131064 0.00696675 1
   vertex -0.00131064 0.00696675 -1
  endloop
 endfacet
 facet normal 0.447237 0.894415 -0
  outer loop
   vertex -0.00131064 0.00696675 -1
   vertex -0.00131064 0.00696675 1
   vertex -0.00088166 0.00675224 1
  endloop
 endfacet
 facet normal 0.447237 0.894415 0
  outer loop
   vertex -0.00131064 0.00696675 -1
   vertex -0.00088166 0.00675224 1
   vertex -0.00088166 0.00675224 -1
  endloop
 endfacet
 facet normal 0.474781 0.880104 -0
  outer loop
   vertex -0.00088166 0.00675224 -1
   vertex -0.00088166 0.00675224 1
   vertex -0.000459545 0.00652452 1
  endloop
 endfacet
 facet normal 0.474781 0.880104 0
  outer loop
   vertex -0.00088166 0.00675224 -1
   vertex -0.000459545 0.00652452 1
   vertex -0.000459545 0.00652452 -1
  endloop
 endfacet
 facet normal 0.50187 0.864943 -0
  outer loop
   vertex -0.000459545 0.00652452 -1
   vertex -0.000459545 0.00652452 1
   vertex -4.46979e-05 0.00628382 1
  endloop
 endfacet
 facet normal 0.50187 0.864943 0
  outer loop
   vertex -0.000459545 0.00652452 -1
   vertex -4.46979e-05 0.00628382 1
   vertex -4.46979e-05 0.00628382 -1
  endloop
 endfacet
 facet normal 0.528458 0.84896 -0
  outer loop
   vertex -4.46979e-05 0.00628382 -1
   vertex -4.46979e-05 0.00628382 1
   vertex 0.000362488 0.00603035 1
  endloop
 endfacet
 facet normal 0.528458 0.84896 0
  outer loop
   vertex -4.46979e-05 0.00628382 -1
   vertex 0.000362488 0.00603035 1
   vertex 0.000362488 0.00603035 -1
  endloop
 endfacet
 facet normal 0.554556 0.832146 -0
  outer loop
   vertex 0.000362488 0.00603035 -1
   vertex 0.000362488 0.00603035 1
   vertex 0.000761605 0.00576437 1
  endloop
 endfacet
 facet normal 0.554556 0.832146 0
  outer loop
   vertex 0.000362488 0.00603035 -1
   vertex 0.000761605 0.00576437 1
   vertex 0.000761605 0.00576437 -1
  endloop
 endfacet
 facet normal 0.580119 0.814532 -0
  outer loop
   vertex 0.000761605 0.00576437 -1
   vertex 0.000761605 0.00576437 1
   vertex 0.00115227 0.00548614 1
  endloop
 endfacet
 facet normal 0.580119 0.814532 0
  outer loop
   vertex 0.000761605 0.00576437 -1
   vertex 0.00115227 0.00548614 1
   vertex 0.00115227 0.00548614 -1
  endloop
 endfacet
 facet normal 0.605126 0.79613 -0
  outer loop
   vertex 0.00115227 0.00548614 -1
   vertex 0.00115227 0.00548614 1
   vertex 0.00153411 0.0051959 1
  endloop
 endfacet
 facet normal 0.605126 0.79613 0
  outer loop
   vertex 0.00115227 0.00548614 -1
   vertex 0.00153411 0.0051959 1
   vertex 0.00153411 0.0051959 -1
  endloop
 endfacet
 facet normal 0.629527 0.776978 -0
  outer loop
   vertex 0.00153411 0.0051959 -1
   vertex 0.00153411 0.0051959 1
   vertex 0.00190677 0.00489397 1
  endloop
 endfacet
 facet normal 0.629527 0.776978 0
  outer loop
   vertex 0.00153411 0.0051959 -1
   vertex 0.00190677 0.00489397 1
   vertex 0.00190677 0.00489397 -1
  endloop
 endfacet
 facet normal 0.653339 0.757065 -0
  outer loop
   vertex 0.00190677 0.00489397 -1
   vertex 0.00190677 0.00489397 1
   vertex 0.00226988 0.00458061 1
  endloop
 endfacet
 facet normal 0.653339 0.757065 0
  outer loop
   vertex 0.00190677 0.00489397 -1
   vertex 0.00226988 0.00458061 1
   vertex 0.00226988 0.00458061 -1
  endloop
 endfacet
 facet normal 0.676526 0.736419 -0
  outer loop
   vertex 0.00226988 0.00458061 -1
   vertex 0.00226988 0.00458061 1
   vertex 0.00262309 0.00425613 1
  endloop
 endfacet
 facet normal 0.676526 0.736419 0
  outer loop
   vertex 0.00226988 0.00458061 -1
   vertex 0.00262309 0.00425613 1
   vertex 0.00262309 0.00425613 -1
  endloop
 endfacet
 facet normal 0.699057 0.715066 -0
  outer loop
   vertex 0.00262309 0.00425613 -1
   vertex 0.00262309 0.00425613 1
   vertex 0.00296605 0.00392085 1
  endloop
 endfacet
 facet normal 0.699057 0.715066 0
  outer loop
   vertex 0.00262309 0.00425613 -1
   vertex 0.00296605 0.00392085 1
   vertex 0.00296605 0.00392085 -1
  endloop
 endfacet
 facet normal 0.720907 0.693032 -0
  outer loop
   vertex 0.00296605 0.00392085 -1
   vertex 0.00296605 0.00392085 1
   vertex 0.00329844 0.00357508 1
  endloop
 endfacet
 facet normal 0.720907 0.693032 0
  outer loop
   vertex 0.00296605 0.00392085 -1
   vertex 0.00329844 0.00357508 1
   vertex 0.00329844 0.00357508 -1
  endloop
 endfacet
 facet normal 0.742084 0.670307 -0
  outer loop
   vertex 0.00329844 0.00357508 -1
   vertex 0.00329844 0.00357508 1
   vertex 0.00361994 0.00321916 1
  endloop
 endfacet
 facet normal 0.742084 0.670307 0
  outer loop
   vertex 0.00329844 0.00357508 -1
   vertex 0.00361994 0.00321916 1
   vertex 0.00361994 0.00321916 -1
  endloop
 endfacet
 facet normal 0.762507 0.64698 -0
  outer loop
   vertex 0.00361994 0.00321916 -1
   vertex 0.00361994 0.00321916 1
   vertex 0.00393024 0.00285344 1
  endloop
 endfacet
 facet normal 0.762507 0.64698 0
  outer loop
   vertex 0.00361994 0.00321916 -1
   vertex 0.00393024 0.00285344 1
   vertex 0.00393024 0.00285344 -1
  endloop
 endfacet
 facet normal 0.78223 0.62299 -0
  outer loop
   vertex 0.00393024 0.00285344 -1
   vertex 0.00393024 0.00285344 1
   vertex 0.00422904 0.00247827 1
  endloop
 endfacet
 facet normal 0.78223 0.62299 0
  outer loop
   vertex 0.00393024 0.00285344 -1
   vertex 0.00422904 0.00247827 1
   vertex 0.00422904 0.00247827 -1
  endloop
 endfacet
 facet normal 0.801186 0.598416 -0
  outer loop
   vertex 0.00422904 0.00247827 -1
   vertex 0.00422904 0.00247827 1
   vertex 0.00451606 0.002094 1
  endloop
 endfacet
 facet normal 0.801186 0.598416 0
  outer loop
   vertex 0.00422904 0.00247827 -1
   vertex 0.00451606 0.002094 1
   vertex 0.00451606 0.002094 -1
  endloop
 endfacet
 facet normal 0.819375 0.573258 -0
  outer loop
   vertex 0.00451606 0.002094 -1
   vertex 0.00451606 0.002094 1
   vertex 0.00479101 0.001701 1
  endloop
 endfacet
 facet normal 0.819375 0.573258 0
  outer loop
   vertex 0.00451606 0.002094 -1
   vertex 0.00479101 0.001701 1
   vertex 0.00479101 0.001701 -1
  endloop
 endfacet
 facet normal 0.836774 0.547549 -0
  outer loop
   vertex 0.00479101 0.001701 -1
   vertex 0.00479101 0.001701 1
   vertex 0.00505362 0.00129967 1
  endloop
 endfacet
 facet normal 0.836774 0.547549 0
  outer loop
   vertex 0.00479101 0.001701 -1
   vertex 0.00505362 0.00129967 1
   vertex 0.00505362 0.00129967 -1
  endloop
 endfacet
 facet normal 0.853356 0.521328 -0
  outer loop
   vertex 0.00505362 0.00129967 -1
   vertex 0.00505362 0.00129967 1
   vertex 0.00530367 0.00089038 1
  endloop
 endfacet
 facet normal 0.853356 0.521328 0
  outer loop
   vertex 0.00505362 0.00129967 -1
   vertex 0.00530367 0.00089038 1
   vertex 0.00530367 0.00089038 -1
  endloop
 endfacet
 facet normal 0.869126 0.49459 -0
  outer loop
   vertex 0.00530367 0.00089038 -1
   vertex 0.00530367 0.00089038 1
   vertex 0.00554088 0.000473528 1
  endloop
 endfacet
 facet normal 0.869126 0.49459 0
  outer loop
   vertex 0.00530367 0.00089038 -1
   vertex 0.00554088 0.000473528 1
   vertex 0.00554088 0.000473528 -1
  endloop
 endfacet
 facet normal 0.884059 0.467375 -0
  outer loop
   vertex 0.00554088 0.000473528 -1
   vertex 0.00554088 0.000473528 1
   vertex 0.00576505 4.95158e-05 1
  endloop
 endfacet
 facet normal 0.884059 0.467375 0
  outer loop
   vertex 0.00554088 0.000473528 -1
   vertex 0.00576505 4.95158e-05 1
   vertex 0.00576505 4.95158e-05 -1
  endloop
 endfacet
 facet normal 0.898143 0.439704 -0
  outer loop
   vertex 0.00576505 4.95158e-05 -1
   vertex 0.00576505 4.95158e-05 1
   vertex 0.00597594 -0.00038126 1
  endloop
 endfacet
 facet normal 0.898143 0.439704 0
  outer loop
   vertex 0.00576505 4.95158e-05 -1
   vertex 0.00597594 -0.00038126 1
   vertex 0.00597594 -0.00038126 -1
  endloop
 endfacet
 facet normal 0.911354 0.411623 -0
  outer loop
   vertex 0.00597594 -0.00038126 -1
   vertex 0.00597594 -0.00038126 1
   vertex 0.00617336 -0.000818366 1
  endloop
 endfacet
 facet normal 0.911354 0.411623 0
  outer loop
   vertex 0.00597594 -0.00038126 -1
   vertex 0.00617336 -0.000818366 1
   vertex 0.00617336 -0.000818366 -1
  endloop
 endfacet
 facet normal 0.923687 0.383147 -0
  outer loop
   vertex 0.00617336 -0.000818366 -1
   vertex 0.00617336 -0.000818366 1
   vertex 0.00635713 -0.00126139 1
  endloop
 endfacet
 facet normal 0.923687 0.383147 0
  outer loop
   vertex 0.00617336 -0.000818366 -1
   vertex 0.00635713 -0.00126139 1
   vertex 0.00635713 -0.00126139 -1
  endloop
 endfacet
 facet normal 0.935133 0.354296 -0
  outer loop
   vertex 0.00635713 -0.00126139 -1
   vertex 0.00635713 -0.00126139 1
   vertex 0.00652706 -0.0017099 1
  endloop
 endfacet
 facet normal 0.935133 0.354296 0
  outer loop
   vertex 0.00635713 -0.00126139 -1
   vertex 0.00652706 -0.0017099 1
   vertex 0.00652706 -0.0017099 -1
  endloop
 endfacet
 facet normal 0.945679 0.325101 -0
  outer loop
   vertex 0.00652706 -0.0017099 -1
   vertex 0.00652706 -0.0017099 1
   vertex 0.00668298 -0.00216347 1
  endloop
 endfacet
 facet normal 0.945679 0.325101 0
  outer loop
   vertex 0.00652706 -0.0017099 -1
   vertex 0.00668298 -0.00216347 1
   vertex 0.00668298 -0.00216347 -1
  endloop
 endfacet
 facet normal 0.955316 0.295585 -0
  outer loop
   vertex 0.00668298 -0.00216347 -1
   vertex 0.00668298 -0.00216347 1
   vertex 0.00682476 -0.00262167 1
  endloop
 endfacet
 facet normal 0.955316 0.295585 0
  outer loop
   vertex 0.00668298 -0.00216347 -1
   vertex 0.00682476 -0.00262167 1
   vertex 0.00682476 -0.00262167 -1
  endloop
 endfacet
 facet normal 0.964024 0.265814 -0
  outer loop
   vertex 0.00682476 -0.00262167 -1
   vertex 0.00682476 -0.00262167 1
   vertex 0.00695224 -0.00308403 1
  endloop
 endfacet
 facet normal 0.964024 0.265814 0
  outer loop
   vertex 0.00682476 -0.00262167 -1
   vertex 0.00695224 -0.00308403 1
   vertex 0.00695224 -0.00308403 -1
  endloop
 endfacet
 facet normal 0.971814 0.235748 -0
  outer loop
   vertex 0.00695224 -0.00308403 -1
   vertex 0.00695224 -0.00308403 1
   vertex 0.00706532 -0.00355014 1
  endloop
 endfacet
 facet normal 0.971814 0.235748 0
  outer loop
   vertex 0.00695224 -0.00308403 -1
   vertex 0.00706532 -0.00355014 1
   vertex 0.00706532 -0.00355014 -1
  endloop
 endfacet
 facet normal 0.978658 0.205495 -0
  outer loop
   vertex 0.00706532 -0.00355014 -1
   vertex 0.00706532 -0.00355014 1
   vertex 0.00716388 -0.00401953 1
  endloop
 endfacet
 facet normal 0.978658 0.205495 0
  outer loop
   vertex 0.00706532 -0.00355014 -1
   vertex 0.00716388 -0.00401953 1
   vertex 0.00716388 -0.00401953 -1
  endloop
 endfacet
 facet normal 0.984568 0.175003 -0
  outer loop
   vertex 0.00716388 -0.00401953 -1
   vertex 0.00716388 -0.00401953 1
   vertex 0.00724781 -0.00449175 1
  endloop
 endfacet
 facet normal 0.984568 0.175003 0
  outer loop
   vertex 0.00716388 -0.00401953 -1
   vertex 0.00724781 -0.00449175 1
   vertex 0.00724781 -0.00449175 -1
  endloop
 endfacet
 facet normal 0.989525 0.144361 -0
  outer loop
   vertex 0.00724781 -0.00449175 -1
   vertex 0.00724781 -0.00449175 1
   vertex 0.00731705 -0.00496635 1
  endloop
 endfacet
 facet normal 0.989525 0.144361 0
  outer loop
   vertex 0.00724781 -0.00449175 -1
   vertex 0.00731705 -0.00496635 1
   vertex 0.00731705 -0.00496635 -1
  endloop
 endfacet
 facet normal 0.993527 0.113596 -0
  outer loop
   vertex 0.00731705 -0.00496635 -1
   vertex 0.00731705 -0.00496635 1
   vertex 0.00737153 -0.00544286 1
  endloop
 endfacet
 facet normal 0.993527 0.113596 0
  outer loop
   vertex 0.00731705 -0.00496635 -1
   vertex 0.00737153 -0.00544286 1
   vertex 0.00737153 -0.00544286 -1
  endloop
 endfacet
 facet normal 0.996575 0.0826986 -0
  outer loop
   vertex 0.00737153 -0.00544286 -1
   vertex 0.00737153 -0.00544286 1
   vertex 0.0074112 -0.00592084 1
  endloop
 endfacet
 facet normal 0.996575 0.0826986 0
  outer loop
   vertex 0.00737153 -0.00544286 -1
   vertex 0.0074112 -0.00592084 1
   vertex 0.0074112 -0.00592084 -1
  endloop
 endfacet
 facet normal 0.998662 0.0517223 -0
  outer loop
   vertex 0.0074112 -0.00592084 -1
   vertex 0.0074112 -0.00592084 1
   vertex 0.00743601 -0.00639983 1
  endloop
 endfacet
 facet normal 0.998662 0.0517223 0
  outer loop
   vertex 0.0074112 -0.00592084 -1
   vertex 0.00743601 -0.00639983 1
   vertex 0.00743601 -0.00639983 -1
  endloop
 endfacet
 facet normal 0.999785 0.0207415 -0
  outer loop
   vertex 0.00743601 -0.00639983 -1
   vertex 0.00743601 -0.00639983 1
   vertex 0.00744595 -0.00687935 1
  endloop
 endfacet
 facet normal 0.999785 0.0207415 0
  outer loop
   vertex 0.00743601 -0.00639983 -1
   vertex 0.00744595 -0.00687935 1
   vertex 0.00744595 -0.00687935 -1
  endloop
 endfacet
 facet normal 0.999946 -0.0103446 0
  outer loop
   vertex 0.00744595 -0.00687935 -1
   vertex 0.00744595 -0.00687935 1
   vertex 0.00744099 -0.00735895 1
  endloop
 endfacet
 facet normal 0.999946 -0.0103446 0
  outer loop
   vertex 0.00744595 -0.00687935 -1
   vertex 0.00744099 -0.00735895 1
   vertex 0.00744099 -0.00735895 -1
  endloop
 endfacet
 facet normal 0.999147 -0.0412893 0
  outer loop
   vertex 0.00744099 -0.00735895 -1
   vertex 0.00744099 -0.00735895 1
   vertex 0.00742119 -0.0078382 1
  endloop
 endfacet
 facet normal 0.999147 -0.0412893 0
  outer loop
   vertex 0.00744099 -0.00735895 -1
   vertex 0.00742119 -0.0078382 1
   vertex 0.00742119 -0.0078382 -1
  endloop
 endfacet
 facet normal 0.997373 -0.0724397 0
  outer loop
   vertex 0.00742119 -0.0078382 -1
   vertex 0.00742119 -0.0078382 1
   vertex 0.00738645 -0.00831652 1
  endloop
 endfacet
 facet normal 0.997373 -0.0724397 0
  outer loop
   vertex 0.00742119 -0.0078382 -1
   vertex 0.00738645 -0.00831652 1
   vertex 0.00738645 -0.00831652 -1
  endloop
 endfacet
 facet normal 0.994662 -0.103185 0
  outer loop
   vertex 0.00738645 -0.00831652 -1
   vertex 0.00738645 -0.00831652 1
   vertex 0.00733695 -0.00879361 1
  endloop
 endfacet
 facet normal 0.994662 -0.103185 0
  outer loop
   vertex 0.00738645 -0.00831652 -1
   vertex 0.00733695 -0.00879361 1
   vertex 0.00733695 -0.00879361 -1
  endloop
 endfacet
 facet normal -0.156397 -0.987694 -0
  outer loop
   vertex 0.0066633 -0.00928302 1
   vertex 0.006367 -0.0092361 1
   vertex 0.0066633 -0.00928302 -1
  endloop
 endfacet
 facet normal -0.156397 -0.987694 0
  outer loop
   vertex 0.0066633 -0.00928302 -1
   vertex 0.006367 -0.0092361 1
   vertex 0.006367 -0.0092361 -1
  endloop
 endfacet
 facet normal -0.990073 0.140553 0
  outer loop
   vertex 0.006367 -0.0092361 -1
   vertex 0.006367 -0.0092361 1
   vertex 0.00643273 -0.00877311 -1
  endloop
 endfacet
 facet normal -0.990073 0.140553 0
  outer loop
   vertex 0.00643273 -0.00877311 -1
   vertex 0.006367 -0.0092361 1
   vertex 0.00643273 -0.00877311 1
  endloop
 endfacet
 facet normal -0.994079 0.108658 0
  outer loop
   vertex 0.00643273 -0.00877311 -1
   vertex 0.00643273 -0.00877311 1
   vertex 0.00648354 -0.00830825 -1
  endloop
 endfacet
 facet normal -0.994079 0.108658 0
  outer loop
   vertex 0.00648354 -0.00830825 -1
   vertex 0.00643273 -0.00877311 1
   vertex 0.00648354 -0.00830825 1
  endloop
 endfacet
 facet normal -0.997061 0.0766116 0
  outer loop
   vertex 0.00648354 -0.00830825 -1
   vertex 0.00648354 -0.00830825 1
   vertex 0.00651937 -0.00784197 -1
  endloop
 endfacet
 facet normal -0.997061 0.0766116 0
  outer loop
   vertex 0.00651937 -0.00784197 -1
   vertex 0.00648354 -0.00830825 1
   vertex 0.00651937 -0.00784197 1
  endloop
 endfacet
 facet normal -0.999005 0.0446082 0
  outer loop
   vertex 0.00651937 -0.00784197 -1
   vertex 0.00651937 -0.00784197 1
   vertex 0.00654023 -0.00737482 -1
  endloop
 endfacet
 facet normal -0.999005 0.0446082 0
  outer loop
   vertex 0.00654023 -0.00737482 -1
   vertex 0.00651937 -0.00784197 1
   vertex 0.00654023 -0.00737482 1
  endloop
 endfacet
 facet normal -0.999922 0.0124701 0
  outer loop
   vertex 0.00654023 -0.00737482 -1
   vertex 0.00654023 -0.00737482 1
   vertex 0.00654606 -0.00690723 -1
  endloop
 endfacet
 facet normal -0.999922 0.0124701 0
  outer loop
   vertex 0.00654606 -0.00690723 -1
   vertex 0.00654023 -0.00737482 1
   vertex 0.00654606 -0.00690723 1
  endloop
 endfacet
 facet normal -0.999807 -0.0196673 0
  outer loop
   vertex 0.00654606 -0.00690723 -1
   vertex 0.00654606 -0.00690723 1
   vertex 0.00653686 -0.00643969 -1
  endloop
 endfacet
 facet normal -0.999807 -0.0196673 0
  outer loop
   vertex 0.00653686 -0.00643969 -1
   vertex 0.00654606 -0.00690723 1
   vertex 0.00653686 -0.00643969 1
  endloop
 endfacet
 facet normal -0.998658 -0.0517835 0
  outer loop
   vertex 0.00653686 -0.00643969 -1
   vertex 0.00653686 -0.00643969 1
   vertex 0.00651264 -0.00597268 -1
  endloop
 endfacet
 facet normal -0.998658 -0.0517835 0
  outer loop
   vertex 0.00651264 -0.00597268 -1
   vertex 0.00653686 -0.00643969 1
   vertex 0.00651264 -0.00597268 1
  endloop
 endfacet
 facet normal -0.99648 -0.083829 0
  outer loop
   vertex 0.00651264 -0.00597268 -1
   vertex 0.00651264 -0.00597268 1
   vertex 0.00647344 -0.0055067 -1
  endloop
 endfacet
 facet normal -0.99648 -0.083829 0
  outer loop
   vertex 0.00647344 -0.0055067 -1
   vertex 0.00651264 -0.00597268 1
   vertex 0.00647344 -0.0055067 1
  endloop
 endfacet
 facet normal -0.99327 -0.115822 0
  outer loop
   vertex 0.00647344 -0.0055067 -1
   vertex 0.00647344 -0.0055067 1
   vertex 0.00641928 -0.00504222 -1
  endloop
 endfacet
 facet normal -0.99327 -0.115822 0
  outer loop
   vertex 0.00641928 -0.00504222 -1
   vertex 0.00647344 -0.0055067 1
   vertex 0.00641928 -0.00504222 1
  endloop
 endfacet
 facet normal -0.989036 -0.147675 0
  outer loop
   vertex 0.00641928 -0.00504222 -1
   vertex 0.00641928 -0.00504222 1
   vertex 0.00635023 -0.00457972 -1
  endloop
 endfacet
 facet normal -0.989036 -0.147675 0
  outer loop
   vertex 0.00635023 -0.00457972 -1
   vertex 0.00641928 -0.00504222 1
   vertex 0.00635023 -0.00457972 1
  endloop
 endfacet
 facet normal -0.983781 -0.179375 0
  outer loop
   vertex 0.00635023 -0.00457972 -1
   vertex 0.00635023 -0.00457972 1
   vertex 0.00626634 -0.00411968 -1
  endloop
 endfacet
 facet normal -0.983781 -0.179375 0
  outer loop
   vertex 0.00626634 -0.00411968 -1
   vertex 0.00635023 -0.00457972 1
   vertex 0.00626634 -0.00411968 1
  endloop
 endfacet
 facet normal -0.977513 -0.210873 0
  outer loop
   vertex 0.00626634 -0.00411968 -1
   vertex 0.00626634 -0.00411968 1
   vertex 0.00616773 -0.00366256 -1
  endloop
 endfacet
 facet normal -0.977513 -0.210873 0
  outer loop
   vertex 0.00616773 -0.00366256 -1
   vertex 0.00626634 -0.00411968 1
   vertex 0.00616773 -0.00366256 1
  endloop
 endfacet
 facet normal -0.970231 -0.24218 0
  outer loop
   vertex 0.00616773 -0.00366256 -1
   vertex 0.00616773 -0.00366256 1
   vertex 0.00605448 -0.00320885 -1
  endloop
 endfacet
 facet normal -0.970231 -0.24218 0
  outer loop
   vertex 0.00605448 -0.00320885 -1
   vertex 0.00616773 -0.00366256 1
   vertex 0.00605448 -0.00320885 1
  endloop
 endfacet
 facet normal -0.961944 -0.273247 0
  outer loop
   vertex 0.00605448 -0.00320885 -1
   vertex 0.00605448 -0.00320885 1
   vertex 0.00592671 -0.00275902 -1
  endloop
 endfacet
 facet normal -0.961944 -0.273247 0
  outer loop
   vertex 0.00592671 -0.00275902 -1
   vertex 0.00605448 -0.00320885 1
   vertex 0.00592671 -0.00275902 1
  endloop
 endfacet
 facet normal -0.952675 -0.303991 0
  outer loop
   vertex 0.00592671 -0.00275902 -1
   vertex 0.00592671 -0.00275902 1
   vertex 0.00578455 -0.00231352 -1
  endloop
 endfacet
 facet normal -0.952675 -0.303991 0
  outer loop
   vertex 0.00578455 -0.00231352 -1
   vertex 0.00592671 -0.00275902 1
   vertex 0.00578455 -0.00231352 1
  endloop
 endfacet
 facet normal -0.942409 -0.334463 0
  outer loop
   vertex 0.00578455 -0.00231352 -1
   vertex 0.00578455 -0.00231352 1
   vertex 0.00562815 -0.00187283 -1
  endloop
 endfacet
 facet normal -0.942409 -0.334463 0
  outer loop
   vertex 0.00562815 -0.00187283 -1
   vertex 0.00578455 -0.00231352 1
   vertex 0.00562815 -0.00187283 1
  endloop
 endfacet
 facet normal -0.931182 -0.364554 0
  outer loop
   vertex 0.00562815 -0.00187283 -1
   vertex 0.00562815 -0.00187283 1
   vertex 0.00545767 -0.00143738 -1
  endloop
 endfacet
 facet normal -0.931182 -0.364554 0
  outer loop
   vertex 0.00545767 -0.00143738 -1
   vertex 0.00562815 -0.00187283 1
   vertex 0.00545767 -0.00143738 1
  endloop
 endfacet
 facet normal -0.918983 -0.394297 0
  outer loop
   vertex 0.00545767 -0.00143738 -1
   vertex 0.00545767 -0.00143738 1
   vertex 0.00527329 -0.00100764 -1
  endloop
 endfacet
 facet normal -0.918983 -0.394297 0
  outer loop
   vertex 0.00527329 -0.00100764 -1
   vertex 0.00545767 -0.00143738 1
   vertex 0.00527329 -0.00100764 1
  endloop
 endfacet
 facet normal -0.90584 -0.42362 0
  outer loop
   vertex 0.00527329 -0.00100764 -1
   vertex 0.00527329 -0.00100764 1
   vertex 0.00507519 -0.000584036 -1
  endloop
 endfacet
 facet normal -0.90584 -0.42362 0
  outer loop
   vertex 0.00507519 -0.000584036 -1
   vertex 0.00527329 -0.00100764 1
   vertex 0.00507519 -0.000584036 1
  endloop
 endfacet
 facet normal -0.891766 -0.452498 0
  outer loop
   vertex 0.00507519 -0.000584036 -1
   vertex 0.00507519 -0.000584036 1
   vertex 0.00486359 -0.000167019 -1
  endloop
 endfacet
 facet normal -0.891766 -0.452498 0
  outer loop
   vertex 0.00486359 -0.000167019 -1
   vertex 0.00507519 -0.000584036 1
   vertex 0.00486359 -0.000167019 1
  endloop
 endfacet
 facet normal -0.876769 -0.480911 0
  outer loop
   vertex 0.00486359 -0.000167019 -1
   vertex 0.00486359 -0.000167019 1
   vertex 0.0046387 0.000242981 -1
  endloop
 endfacet
 facet normal -0.876769 -0.480911 0
  outer loop
   vertex 0.0046387 0.000242981 -1
   vertex 0.00486359 -0.000167019 1
   vertex 0.0046387 0.000242981 1
  endloop
 endfacet
 facet normal -0.860857 -0.508847 0
  outer loop
   vertex 0.0046387 0.000242981 -1
   vertex 0.0046387 0.000242981 1
   vertex 0.00440075 0.000645545 -1
  endloop
 endfacet
 facet normal -0.860857 -0.508847 0
  outer loop
   vertex 0.00440075 0.000645545 -1
   vertex 0.0046387 0.000242981 1
   vertex 0.00440075 0.000645545 1
  endloop
 endfacet
 facet normal -0.844066 -0.53624 0
  outer loop
   vertex 0.00440075 0.000645545 -1
   vertex 0.00440075 0.000645545 1
   vertex 0.00414999 0.00104025 -1
  endloop
 endfacet
 facet normal -0.844066 -0.53624 0
  outer loop
   vertex 0.00414999 0.00104025 -1
   vertex 0.00440075 0.000645545 1
   vertex 0.00414999 0.00104025 1
  endloop
 endfacet
 facet normal -0.826403 -0.56308 0
  outer loop
   vertex 0.00414999 0.00104025 -1
   vertex 0.00414999 0.00104025 1
   vertex 0.00388667 0.0014267 -1
  endloop
 endfacet
 facet normal -0.826403 -0.56308 0
  outer loop
   vertex 0.00388667 0.0014267 -1
   vertex 0.00414999 0.00104025 1
   vertex 0.00388667 0.0014267 1
  endloop
 endfacet
 facet normal -0.807871 -0.589359 0
  outer loop
   vertex 0.00388667 0.0014267 -1
   vertex 0.00388667 0.0014267 1
   vertex 0.00361107 0.00180449 -1
  endloop
 endfacet
 facet normal -0.807871 -0.589359 0
  outer loop
   vertex 0.00361107 0.00180449 -1
   vertex 0.00388667 0.0014267 1
   vertex 0.00361107 0.00180449 1
  endloop
 endfacet
 facet normal -0.788533 -0.614992 0
  outer loop
   vertex 0.00361107 0.00180449 -1
   vertex 0.00361107 0.00180449 1
   vertex 0.00332348 0.00217323 -1
  endloop
 endfacet
 facet normal -0.788533 -0.614992 0
  outer loop
   vertex 0.00332348 0.00217323 -1
   vertex 0.00361107 0.00180449 1
   vertex 0.00332348 0.00217323 1
  endloop
 endfacet
 facet normal -0.768361 -0.640016 0
  outer loop
   vertex 0.00332348 0.00217323 -1
   vertex 0.00332348 0.00217323 1
   vertex 0.00302419 0.00253253 -1
  endloop
 endfacet
 facet normal -0.768361 -0.640016 0
  outer loop
   vertex 0.00302419 0.00253253 -1
   vertex 0.00332348 0.00217323 1
   vertex 0.00302419 0.00253253 1
  endloop
 endfacet
 facet normal -0.747396 -0.664379 0
  outer loop
   vertex 0.00302419 0.00253253 -1
   vertex 0.00302419 0.00253253 1
   vertex 0.00271351 0.00288204 -1
  endloop
 endfacet
 facet normal -0.747396 -0.664379 0
  outer loop
   vertex 0.00271351 0.00288204 -1
   vertex 0.00302419 0.00253253 1
   vertex 0.00271351 0.00288204 1
  endloop
 endfacet
 facet normal -0.72568 -0.688032 0
  outer loop
   vertex 0.00271351 0.00288204 -1
   vertex 0.00271351 0.00288204 1
   vertex 0.00239177 0.00322139 -1
  endloop
 endfacet
 facet normal -0.72568 -0.688032 0
  outer loop
   vertex 0.00239177 0.00322139 -1
   vertex 0.00271351 0.00288204 1
   vertex 0.00239177 0.00322139 1
  endloop
 endfacet
 facet normal -0.703184 -0.711008 0
  outer loop
   vertex 0.00239177 0.00322139 -1
   vertex 0.00239177 0.00322139 1
   vertex 0.00205928 0.00355021 -1
  endloop
 endfacet
 facet normal -0.703184 -0.711008 0
  outer loop
   vertex 0.00205928 0.00355021 -1
   vertex 0.00239177 0.00322139 1
   vertex 0.00205928 0.00355021 1
  endloop
 endfacet
 facet normal -0.679968 -0.733242 0
  outer loop
   vertex 0.00205928 0.00355021 -1
   vertex 0.00205928 0.00355021 1
   vertex 0.0017164 0.00386819 -1
  endloop
 endfacet
 facet normal -0.679968 -0.733242 0
  outer loop
   vertex 0.0017164 0.00386819 -1
   vertex 0.00205928 0.00355021 1
   vertex 0.0017164 0.00386819 1
  endloop
 endfacet
 facet normal -0.656077 -0.754694 0
  outer loop
   vertex 0.0017164 0.00386819 -1
   vertex 0.0017164 0.00386819 1
   vertex 0.00136348 0.00417499 -1
  endloop
 endfacet
 facet normal -0.656077 -0.754694 0
  outer loop
   vertex 0.00136348 0.00417499 -1
   vertex 0.0017164 0.00386819 1
   vertex 0.00136348 0.00417499 1
  endloop
 endfacet
 facet normal -0.631483 -0.77539 0
  outer loop
   vertex 0.00136348 0.00417499 -1
   vertex 0.00136348 0.00417499 1
   vertex 0.00100088 0.00447029 -1
  endloop
 endfacet
 facet normal -0.631483 -0.77539 0
  outer loop
   vertex 0.00100088 0.00447029 -1
   vertex 0.00136348 0.00417499 1
   vertex 0.00100088 0.00447029 1
  endloop
 endfacet
 facet normal -0.606229 -0.79529 0
  outer loop
   vertex 0.00100088 0.00447029 -1
   vertex 0.00100088 0.00447029 1
   vertex 0.000628985 0.00475378 -1
  endloop
 endfacet
 facet normal -0.606229 -0.79529 0
  outer loop
   vertex 0.000628985 0.00475378 -1
   vertex 0.00100088 0.00447029 1
   vertex 0.000628985 0.00475378 1
  endloop
 endfacet
 facet normal -0.580376 -0.814349 0
  outer loop
   vertex 0.000628985 0.00475378 -1
   vertex 0.000628985 0.00475378 1
   vertex 0.000248168 0.00502518 -1
  endloop
 endfacet
 facet normal -0.580376 -0.814349 0
  outer loop
   vertex 0.000248168 0.00502518 -1
   vertex 0.000628985 0.00475378 1
   vertex 0.000248168 0.00502518 1
  endloop
 endfacet
 facet normal -0.553909 -0.832578 0
  outer loop
   vertex 0.000248168 0.00502518 -1
   vertex 0.000248168 0.00502518 1
   vertex -0.000141165 0.0052842 -1
  endloop
 endfacet
 facet normal -0.553909 -0.832578 0
  outer loop
   vertex -0.000141165 0.0052842 -1
   vertex 0.000248168 0.00502518 1
   vertex -0.000141165 0.0052842 1
  endloop
 endfacet
 facet normal -0.526886 -0.849936 0
  outer loop
   vertex -0.000141165 0.0052842 -1
   vertex -0.000141165 0.0052842 1
   vertex -0.000538624 0.00553059 -1
  endloop
 endfacet
 facet normal -0.526886 -0.849936 0
  outer loop
   vertex -0.000538624 0.00553059 -1
   vertex -0.000141165 0.0052842 1
   vertex -0.000538624 0.00553059 1
  endloop
 endfacet
 facet normal -0.499281 -0.86644 0
  outer loop
   vertex -0.000538624 0.00553059 -1
   vertex -0.000538624 0.00553059 1
   vertex -0.000943792 0.00576407 -1
  endloop
 endfacet
 facet normal -0.499281 -0.86644 0
  outer loop
   vertex -0.000943792 0.00576407 -1
   vertex -0.000538624 0.00553059 1
   vertex -0.000943792 0.00576407 1
  endloop
 endfacet
 facet normal -0.471199 -0.882027 0
  outer loop
   vertex -0.000943792 0.00576407 -1
   vertex -0.000943792 0.00576407 1
   vertex -0.00135626 0.00598442 -1
  endloop
 endfacet
 facet normal -0.471199 -0.882027 0
  outer loop
   vertex -0.00135626 0.00598442 -1
   vertex -0.000943792 0.00576407 1
   vertex -0.00135626 0.00598442 1
  endloop
 endfacet
 facet normal -0.442613 -0.896713 0
  outer loop
   vertex -0.00135626 0.00598442 -1
   vertex -0.00135626 0.00598442 1
   vertex -0.00177558 0.00619139 -1
  endloop
 endfacet
 facet normal -0.442613 -0.896713 0
  outer loop
   vertex -0.00177558 0.00619139 -1
   vertex -0.00135626 0.00598442 1
   vertex -0.00177558 0.00619139 1
  endloop
 endfacet
 facet normal -0.413587 -0.910464 0
  outer loop
   vertex -0.00177558 0.00619139 -1
   vertex -0.00177558 0.00619139 1
   vertex -0.00220134 0.0063848 -1
  endloop
 endfacet
 facet normal -0.413587 -0.910464 0
  outer loop
   vertex -0.00220134 0.0063848 -1
   vertex -0.00177558 0.00619139 1
   vertex -0.00220134 0.0063848 1
  endloop
 endfacet
 facet normal -0.384108 -0.923288 0
  outer loop
   vertex -0.00220134 0.0063848 -1
   vertex -0.00220134 0.0063848 1
   vertex -0.0026331 0.00656442 -1
  endloop
 endfacet
 facet normal -0.384108 -0.923288 0
  outer loop
   vertex -0.0026331 0.00656442 -1
   vertex -0.00220134 0.0063848 1
   vertex -0.0026331 0.00656442 1
  endloop
 endfacet
 facet normal -0.354243 -0.935153 0
  outer loop
   vertex -0.0026331 0.00656442 -1
   vertex -0.0026331 0.00656442 1
   vertex -0.00307041 0.00673007 -1
  endloop
 endfacet
 facet normal -0.354243 -0.935153 0
  outer loop
   vertex -0.00307041 0.00673007 -1
   vertex -0.0026331 0.00656442 1
   vertex -0.00307041 0.00673007 1
  endloop
 endfacet
 facet normal -0.324009 -0.946054 0
  outer loop
   vertex -0.00307041 0.00673007 -1
   vertex -0.00307041 0.00673007 1
   vertex -0.00351281 0.00688159 -1
  endloop
 endfacet
 facet normal -0.324009 -0.946054 0
  outer loop
   vertex -0.00351281 0.00688159 -1
   vertex -0.00307041 0.00673007 1
   vertex -0.00351281 0.00688159 1
  endloop
 endfacet
 facet normal -0.293446 -0.955976 0
  outer loop
   vertex -0.00351281 0.00688159 -1
   vertex -0.00351281 0.00688159 1
   vertex -0.00395985 0.00701881 -1
  endloop
 endfacet
 facet normal -0.293446 -0.955976 0
  outer loop
   vertex -0.00395985 0.00701881 -1
   vertex -0.00351281 0.00688159 1
   vertex -0.00395985 0.00701881 1
  endloop
 endfacet
 facet normal -0.262588 -0.964908 0
  outer loop
   vertex -0.00395985 0.00701881 -1
   vertex -0.00395985 0.00701881 1
   vertex -0.00441107 0.00714161 -1
  endloop
 endfacet
 facet normal -0.262588 -0.964908 0
  outer loop
   vertex -0.00441107 0.00714161 -1
   vertex -0.00395985 0.00701881 1
   vertex -0.00441107 0.00714161 1
  endloop
 endfacet
 facet normal -0.231432 -0.972851 0
  outer loop
   vertex -0.00441107 0.00714161 -1
   vertex -0.00441107 0.00714161 1
   vertex -0.004866 0.00724983 -1
  endloop
 endfacet
 facet normal -0.231432 -0.972851 0
  outer loop
   vertex -0.004866 0.00724983 -1
   vertex -0.00441107 0.00714161 1
   vertex -0.004866 0.00724983 1
  endloop
 endfacet
 facet normal -0.200066 -0.979782 0
  outer loop
   vertex -0.004866 0.00724983 -1
   vertex -0.004866 0.00724983 1
   vertex -0.00532418 0.00734339 -1
  endloop
 endfacet
 facet normal -0.200066 -0.979782 0
  outer loop
   vertex -0.00532418 0.00734339 -1
   vertex -0.004866 0.00724983 1
   vertex -0.00532418 0.00734339 1
  endloop
 endfacet
 facet normal -0.168483 -0.985705 0
  outer loop
   vertex -0.00532418 0.00734339 -1
   vertex -0.00532418 0.00734339 1
   vertex -0.00578512 0.00742218 -1
  endloop
 endfacet
 facet normal -0.168483 -0.985705 0
  outer loop
   vertex -0.00578512 0.00742218 -1
   vertex -0.00532418 0.00734339 1
   vertex -0.00578512 0.00742218 1
  endloop
 endfacet
 facet normal -0.136718 -0.99061 0
  outer loop
   vertex -0.00578512 0.00742218 -1
   vertex -0.00578512 0.00742218 1
   vertex -0.00624836 0.00748611 -1
  endloop
 endfacet
 facet normal -0.136718 -0.99061 0
  outer loop
   vertex -0.00624836 0.00748611 -1
   vertex -0.00578512 0.00742218 1
   vertex -0.00624836 0.00748611 1
  endloop
 endfacet
 facet normal -0.104785 -0.994495 0
  outer loop
   vertex -0.00624836 0.00748611 -1
   vertex -0.00624836 0.00748611 1
   vertex -0.00671339 0.00753511 -1
  endloop
 endfacet
 facet normal -0.104785 -0.994495 0
  outer loop
   vertex -0.00671339 0.00753511 -1
   vertex -0.00624836 0.00748611 1
   vertex -0.00671339 0.00753511 1
  endloop
 endfacet
 facet normal -0.0728525 -0.997343 0
  outer loop
   vertex -0.00671339 0.00753511 -1
   vertex -0.00671339 0.00753511 1
   vertex -0.0071798 0.00756918 -1
  endloop
 endfacet
 facet normal -0.0728525 -0.997343 0
  outer loop
   vertex -0.0071798 0.00756918 -1
   vertex -0.00671339 0.00753511 1
   vertex -0.0071798 0.00756918 1
  endloop
 endfacet
 facet normal -0.0407122 -0.999171 0
  outer loop
   vertex -0.0071798 0.00756918 -1
   vertex -0.0071798 0.00756918 1
   vertex -0.00764703 0.00758821 -1
  endloop
 endfacet
 facet normal -0.0407122 -0.999171 0
  outer loop
   vertex -0.00764703 0.00758821 -1
   vertex -0.0071798 0.00756918 1
   vertex -0.00764703 0.00758821 1
  endloop
 endfacet
 facet normal -0.999848 -0.0174249 -0
  outer loop
   vertex -0.00827055 0.00819034 1
   vertex -0.00827578 0.00849029 1
   vertex -0.00827055 0.00819034 -1
  endloop
 endfacet
 facet normal -0.999848 -0.0174249 0
  outer loop
   vertex -0.00827055 0.00819034 -1
   vertex -0.00827578 0.00849029 1
   vertex -0.00827578 0.00849029 -1
  endloop
 endfacet
 facet normal 0 0 -1
  outer loop
   vertex -0.00827055 0.00819034 -1
   vertex -0.00827578 0.00849029 -1
   vertex -0.00764703 0.00758821 -1
  endloop
 endfacet
 facet normal 0 0 -1
  outer loop
   vertex -0.00764703 0.00758821 -1
   vertex -0.00827578 0.00849029 -1
   vertex -0.0077962 0.00849126 -1
  endloop
 endfacet
 facet normal 0 0 -1
  outer loop
   vertex -0.00764703 0.00758821 -1
   vertex -0.0077962 0.00849126 -1
   vertex -0.0071798 0.00756918 -1
  endloop
 endfacet
 facet normal 0 0 -1
  outer loop
   vertex -0.0071798 0.00756918 -1
   vertex -0.0077962 0.00849126 -1
   vertex -0.00731675 0.00847727 -1
  endloop
 endfacet
 facet normal 0 0 -1
  outer loop
   vertex -0.0071798 0.00756918 -1
   vertex -0.00731675 0.00847727 -1
   vertex -0.00671339 0.00753511 -1
  endloop
 endfacet
 facet normal 0 0 -1
  outer loop
   vertex -0.00671339 0.00753511 -1
   vertex -0.00731675 0.00847727 -1
   vertex -0.00683796 0.00844841 -1
  endloop
 endfacet
 facet normal 0 0 -1
  outer loop
   vertex -0.00671339 0.00753511 -1
   vertex -0.00683796 0.00844841 -1
   vertex -0.00624836 0.00748611 -1
  endloop
 endfacet
 facet normal 0 0 -1
  outer loop
   vertex -0.00624836 0.00748611 -1
   vertex -0.00683796 0.00844841 -1
   vertex -0.00636034 0.00840474 -1
  endloop
 endfacet
 facet normal 0 0 -1
  outer loop
   vertex -0.00624836 0.00748611 -1
   vertex -0.00636034 0.00840474 -1
   vertex -0.00578512 0.00742218 -1
  endloop
 endfacet
 facet normal 0 0 -1
  outer loop
   vertex 0.0066633 -0.00928302 -1
   vertex 0.006367 -0.0092361 -1
   vertex 0.00733695 -0.00879361 -1
  endloop
 endfacet
 facet normal -0 0 -1
  outer loop
   vertex 0.00733695 -0.00879361 -1
   vertex 0.006367 -0.0092361 -1
   vertex 0.00643273 -0.00877311 -1
  endloop
 endfacet
 facet normal 0 0 -1
  outer loop
   vertex 0.00733695 -0.00879361 -1
   vertex 0.00643273 -0.00877311 -1
   vertex 0.00738645 -0.00831652 -1
  endloop
 endfacet
 facet normal -0 0 -1
  outer loop
   vertex 0.00738645 -0.00831652 -1
   vertex 0.00643273 -0.00877311 -1
   vertex 0.00648354 -0.00830825 -1
  endloop
 endfacet
 facet normal 0 0 -1
  outer loop
   vertex 0.00738645 -0.00831652 -1
   vertex 0.00648354 -0.00830825 -1
   vertex 0.00742119 -0.0078382 -1
  endloop
 endfacet
 facet normal 0 0 -1
  outer loop
   vertex 0.00742119 -0.0078382 -1
   vertex 0.00648354 -0.00830825 -1
   vertex 0.00651937 -0.00784197 -1
  endloop
 endfacet
 facet normal -0 0 -1
  outer loop
   vertex 0.00742119 -0.0078382 -1
   vertex 0.00651937 -0.00784197 -1
   vertex 0.00744099 -0.00735895 -1
  endloop
 endfacet
 facet normal 0 0 -1
  outer loop
   vertex 0.00744099 -0.00735895 -1
   vertex 0.00651937 -0.00784197 -1
   vertex 0.00654023 -0.00737482 -1
  endloop
 endfacet
 facet normal -0 0 -1
  outer loop
   vertex 0.00744099 -0.00735895 -1
   vertex 0.00654023 -0.00737482 -1
   vertex 0.00744595 -0.00687935 -1
  endloop
 endfacet
 facet normal 0 0 -1
  outer loop
   vertex 0.00744595 -0.00687935 -1
   vertex 0.00654023 -0.00737482 -1
   vertex 0.00654606 -0.00690723 -1
  endloop
 endfacet
 facet normal -0 0 -1
  outer loop
   vertex 0.00744595 -0.00687935 -1
   vertex 0.00654606 -0.00690723 -1
   vertex 0.00743601 -0.00639983 -1
  endloop
 endfacet
 facet normal 0 0 -1
  outer loop
   vertex 0.00743601 -0.00639983 -1
   vertex 0.00654606 -0.00690723 -1
   vertex 0.00653686 -0.00643969 -1
  endloop
 endfacet
 facet normal -0 0 -1
  outer loop
   vertex 0.00743601 -0.00639983 -1
   vertex 0.00653686 -0.00643969 -1
   vertex 0.0074112 -0.00592084 -1
  endloop
 endfacet
 facet normal 0 0 -1
  outer loop
   vertex 0.0074112 -0.00592084 -1
   vertex 0.00653686 -0.00643969 -1
   vertex 0.00651264 -0.00597268 -1
  endloop
 endfacet
 facet normal -0 0 -1
  outer loop
   vertex 0.0074112 -0.00592084 -1
   vertex 0.00651264 -0.00597268 -1
   vertex 0.00737153 -0.00544286 -1
  endloop
 endfacet
 facet normal 0 0 -1
  outer loop
   vertex 0.00737153 -0.00544286 -1
   vertex 0.00651264 -0.00597268 -1
   vertex 0.00647344 -0.0055067 -1
  endloop
 endfacet
 facet normal -0 0 -1
  outer loop
   vertex 0.00737153 -0.00544286 -1
   vertex 0.00647344 -0.0055067 -1
   vertex 0.00731705 -0.00496635 -1
  endloop
 endfacet
 facet normal 0 0 -1
  outer loop
   vertex 0.00731705 -0.00496635 -1
   vertex 0.00647344 -0.0055067 -1
   vertex 0.00641928 -0.00504222 -1
  endloop
 endfacet
 facet normal -0 0 -1
  outer loop
   vertex 0.00731705 -0.00496635 -1
   vertex 0.00641928 -0.00504222 -1
   vertex 0.00724781 -0.00449175 -1
  endloop
 endfacet
 facet normal 0 0 -1
  outer loop
   vertex 0.00724781 -0.00449175 -1
   vertex 0.00641928 -0.00504222 -1
   vertex 0.00635023 -0.00457972 -1
  endloop
 endfacet
 facet normal -0 0 -1
  outer loop
   vertex 0.00724781 -0.00449175 -1
   vertex 0.00635023 -0.00457972 -1
   vertex 0.00716388 -0.00401953 -1
  endloop
 endfacet
 facet normal 0 0 -1
  outer loop
   vertex 0.00716388 -0.00401953 -1
   vertex 0.00635023 -0.00457972 -1
   vertex 0.00626634 -0.00411968 -1
  endloop
 endfacet
 facet normal -0 0 -1
  outer loop
   vertex 0.00716388 -0.00401953 -1
   vertex 0.00626634 -0.00411968 -1
   vertex 0.00706532 -0.00355014 -1
  endloop
 endfacet
 facet normal 0 0 -1
  outer loop
   vertex 0.00706532 -0.00355014 -1
   vertex 0.00626634 -0.00411968 -1
   vertex 0.00616773 -0.00366256 -1
  endloop
 endfacet
 facet normal -0 0 -1
  outer loop
   vertex 0.00706532 -0.00355014 -1
   vertex 0.00616773 -0.00366256 -1
   vertex 0.00695224 -0.00308403 -1
  endloop
 endfacet
 facet normal 0 0 -1
  outer loop
   vertex 0.00695224 -0.00308403 -1
   vertex 0.00616773 -0.00366256 -1
   vertex 0.00605448 -0.00320885 -1
  endloop
 endfacet
 facet normal -0 0 -1
  outer loop
   vertex 0.00695224 -0.00308403 -1
   vertex 0.00605448 -0.00320885 -1
   vertex 0.00682476 -0.00262167 -1
  endloop
 endfacet
 facet normal 0 0 -1
  outer loop
   vertex 0.00682476 -0.00262167 -1
   vertex 0.00605448 -0.00320885 -1
   vertex 0.00592671 -0.00275902 -1
  endloop
 endfacet
 facet normal -0 0 -1
  outer loop
   vertex 0.00682476 -0.00262167 -1
   vertex 0.00592671 -0.00275902 -1
   vertex 0.00668298 -0.00216347 -1
  endloop
 endfacet
 facet normal 0 0 -1
  outer loop
   vertex 0.00668298 -0.00216347 -1
   vertex 0.00592671 -0.00275902 -1
   vertex 0.00578455 -0.00231352 -1
  endloop
 endfacet
 facet normal -0 0 -1
  outer loop
   vertex 0.00668298 -0.00216347 -1
   vertex 0.00578455 -0.00231352 -1
   vertex 0.00652706 -0.0017099 -1
  endloop
 endfacet
 facet normal 0 0 -1
  outer loop
   vertex 0.00652706 -0.0017099 -1
   vertex 0.00578455 -0.00231352 -1
   vertex 0.00562815 -0.00187283 -1
  endloop
 endfacet
 facet normal -0 0 -1
  outer loop
   vertex 0.00652706 -0.0017099 -1
   vertex 0.00562815 -0.00187283 -1
   vertex 0.00635713 -0.00126139 -1
  endloop
 endfacet
 facet normal 0 0 -1
  outer loop
   vertex 0.00635713 -0.00126139 -1
   vertex 0.00562815 -0.00187283 -1
   vertex 0.00545767 -0.00143738 -1
  endloop
 endfacet
 facet normal -0 0 -1
  outer loop
   vertex 0.00635713 -0.00126139 -1
   vertex 0.00545767 -0.00143738 -1
   vertex 0.00617336 -0.000818366 -1
  endloop
 endfacet
 facet normal 0 0 -1
  outer loop
   vertex 0.00617336 -0.000818366 -1
   vertex 0.00545767 -0.00143738 -1
   vertex 0.00527329 -0.00100764 -1
  endloop
 endfacet
 facet normal -0 0 -1
  outer loop
   vertex 0.00617336 -0.000818366 -1
   vertex 0.00527329 -0.00100764 -1
   vertex 0.00597594 -0.00038126 -1
  endloop
 endfacet
 facet normal 0 0 -1
  outer loop
   vertex 0.00597594 -0.00038126 -1
   vertex 0.00527329 -0.00100764 -1
   vertex 0.00507519 -0.000584036 -1
  endloop
 endfacet
 facet normal -0 0 -1
  outer loop
   vertex 0.00597594 -0.00038126 -1
   vertex 0.00507519 -0.000584036 -1
   vertex 0.00576505 4.95158e-05 -1
  endloop
 endfacet
 facet normal 0 0 -1
  outer loop
   vertex 0.00576505 4.95158e-05 -1
   vertex 0.00507519 -0.000584036 -1
   vertex 0.00486359 -0.000167019 -1
  endloop
 endfacet
 facet normal -0 0 -1
  outer loop
   vertex 0.00576505 4.95158e-05 -1
   vertex 0.00486359 -0.000167019 -1
   vertex 0.00554088 0.000473528 -1
  endloop
 endfacet
 facet normal 0 0 -1
  outer loop
   vertex 0.00554088 0.000473528 -1
   vertex 0.00486359 -0.000167019 -1
   vertex 0.0046387 0.000242981 -1
  endloop
 endfacet
 facet normal 0 0 -1
  outer loop
   vertex -0.00636034 0.00840474 -1
   vertex -0.00588433 0.0083463 -1
   vertex -0.00578512 0.00742218 -1
  endloop
 endfacet
 facet normal 0 0 -1
  outer loop
   vertex -0.00578512 0.00742218 -1
   vertex -0.00588433 0.0083463 -1
   vertex -0.00541032 0.00827307 -1
  endloop
 endfacet
 facet normal 0 0 -1
  outer loop
   vertex -0.00578512 0.00742218 -1
   vertex -0.00541032 0.00827307 -1
   vertex -0.00532418 0.00734339 -1
  endloop
 endfacet
 facet normal 0 0 -1
  outer loop
   vertex -0.00532418 0.00734339 -1
   vertex -0.00541032 0.00827307 -1
   vertex -0.00493882 0.00818517 -1
  endloop
 endfacet
 facet normal 0 0 -1
  outer loop
   vertex -0.00532418 0.00734339 -1
   vertex -0.00493882 0.00818517 -1
   vertex -0.004866 0.00724983 -1
  endloop
 endfacet
 facet normal 0 0 -1
  outer loop
   vertex -0.004866 0.00724983 -1
   vertex -0.00493882 0.00818517 -1
   vertex -0.00447026 0.00808267 -1
  endloop
 endfacet
 facet normal 0 0 -1
  outer loop
   vertex -0.004866 0.00724983 -1
   vertex -0.00447026 0.00808267 -1
   vertex -0.00441107 0.00714161 -1
  endloop
 endfacet
 facet normal 0 0 -1
  outer loop
   vertex -0.00441107 0.00714161 -1
   vertex -0.00447026 0.00808267 -1
   vertex -0.00400513 0.0079657 -1
  endloop
 endfacet
 facet normal 0 0 -1
  outer loop
   vertex -0.00441107 0.00714161 -1
   vertex -0.00400513 0.0079657 -1
   vertex -0.00395985 0.00701881 -1
  endloop
 endfacet
 facet normal 0 0 -1
  outer loop
   vertex -0.00395985 0.00701881 -1
   vertex -0.00400513 0.0079657 -1
   vertex -0.00354385 0.00783433 -1
  endloop
 endfacet
 facet normal 0 0 -1
  outer loop
   vertex -0.00395985 0.00701881 -1
   vertex -0.00354385 0.00783433 -1
   vertex -0.00351281 0.00688159 -1
  endloop
 endfacet
 facet normal 0 0 -1
  outer loop
   vertex -0.00351281 0.00688159 -1
   vertex -0.00354385 0.00783433 -1
   vertex -0.00308686 0.00768872 -1
  endloop
 endfacet
 facet normal 0 0 -1
  outer loop
   vertex -0.00351281 0.00688159 -1
   vertex -0.00308686 0.00768872 -1
   vertex -0.00307041 0.00673007 -1
  endloop
 endfacet
 facet normal 0 0 -1
  outer loop
   vertex -0.00307041 0.00673007 -1
   vertex -0.00308686 0.00768872 -1
   vertex -0.00263461 0.00752899 -1
  endloop
 endfacet
 facet normal 0 0 -1
  outer loop
   vertex -0.00307041 0.00673007 -1
   vertex -0.00263461 0.00752899 -1
   vertex -0.0026331 0.00656442 -1
  endloop
 endfacet
 facet normal 0 0 -1
  outer loop
   vertex -0.0026331 0.00656442 -1
   vertex -0.00263461 0.00752899 -1
   vertex -0.00218754 0.00735531 -1
  endloop
 endfacet
 facet normal 0 0 -1
  outer loop
   vertex -0.0026331 0.00656442 -1
   vertex -0.00218754 0.00735531 -1
   vertex -0.00220134 0.0063848 -1
  endloop
 endfacet
 facet normal 0 0 -1
  outer loop
   vertex -0.00220134 0.0063848 -1
   vertex -0.00218754 0.00735531 -1
   vertex -0.00174608 0.00716783 -1
  endloop
 endfacet
 facet normal 0 0 -1
  outer loop
   vertex -0.00220134 0.0063848 -1
   vertex -0.00174608 0.00716783 -1
   vertex -0.00177558 0.00619139 -1
  endloop
 endfacet
 facet normal 0 0 -1
  outer loop
   vertex -0.00177558 0.00619139 -1
   vertex -0.00174608 0.00716783 -1
   vertex -0.00131064 0.00696675 -1
  endloop
 endfacet
 facet normal 0 0 -1
  outer loop
   vertex -0.00177558 0.00619139 -1
   vertex -0.00131064 0.00696675 -1
   vertex -0.00135626 0.00598442 -1
  endloop
 endfacet
 facet normal 0 0 -1
  outer loop
   vertex -0.00135626 0.00598442 -1
   vertex -0.00131064 0.00696675 -1
   vertex -0.00088166 0.00675224 -1
  endloop
 endfacet
 facet normal 0 0 -1
  outer loop
   vertex -0.00135626 0.00598442 -1
   vertex -0.00088166 0.00675224 -1
   vertex -0.000943792 0.00576407 -1
  endloop
 endfacet
 facet normal 0 0 -1
  outer loop
   vertex -0.000943792 0.00576407 -1
   vertex -0.00088166 0.00675224 -1
   vertex -0.000459545 0.00652452 -1
  endloop
 endfacet
 facet normal 0 0 -1
  outer loop
   vertex -0.000943792 0.00576407 -1
   vertex -0.000459545 0.00652452 -1
   vertex -0.000538624 0.00553059 -1
  endloop
 endfacet
 facet normal 0 0 -1
  outer loop
   vertex -0.000538624 0.00553059 -1
   vertex -0.000459545 0.00652452 -1
   vertex -4.46979e-05 0.00628382 -1
  endloop
 endfacet
 facet normal 0 0 -1
  outer loop
   vertex -0.000538624 0.00553059 -1
   vertex -4.46979e-05 0.00628382 -1
   vertex -0.000141165 0.0052842 -1
  endloop
 endfacet
 facet normal 0 0 -1
  outer loop
   vertex -0.000141165 0.0052842 -1
   vertex -4.46979e-05 0.00628382 -1
   vertex 0.000362488 0.00603035 -1
  endloop
 endfacet
 facet normal 0 0 -1
  outer loop
   vertex -0.000141165 0.0052842 -1
   vertex 0.000362488 0.00603035 -1
   vertex 0.000248168 0.00502518 -1
  endloop
 endfacet
 facet normal 0 0 -1
  outer loop
   vertex 0.000248168 0.00502518 -1
   vertex 0.000362488 0.00603035 -1
   vertex 0.000761605 0.00576437 -1
  endloop
 endfacet
 facet normal 0 0 -1
  outer loop
   vertex 0.000248168 0.00502518 -1
   vertex 0.000761605 0.00576437 -1
   vertex 0.000628985 0.00475378 -1
  endloop
 endfacet
 facet normal 0 0 -1
  outer loop
   vertex 0.000628985 0.00475378 -1
   vertex 0.000761605 0.00576437 -1
   vertex 0.00115227 0.00548614 -1
  endloop
 endfacet
 facet normal 0 0 -1
  outer loop
   vertex 0.000628985 0.00475378 -1
   vertex 0.00115227 0.00548614 -1
   vertex 0.00100088 0.00447029 -1
  endloop
 endfacet
 facet normal 0 0 -1
  outer loop
   vertex 0.00100088 0.00447029 -1
   vertex 0.00115227 0.00548614 -1
   vertex 0.00153411 0.0051959 -1
  endloop
 endfacet
 facet normal 0 0 -1
  outer loop
   vertex 0.00100088 0.00447029 -1
   vertex 0.00153411 0.0051959 -1
   vertex 0.00136348 0.00417499 -1
  endloop
 endfacet
 facet normal 0 0 -1
  outer loop
   vertex 0.00136348 0.00417499 -1
   vertex 0.00153411 0.0051959 -1
   vertex 0.00190677 0.00489397 -1
  endloop
 endfacet
 facet normal 0 0 -1
  outer loop
   vertex 0.00136348 0.00417499 -1
   vertex 0.00190677 0.00489397 -1
   vertex 0.0017164 0.00386819 -1
  endloop
 endfacet
 facet normal 0 0 -1
  outer loop
   vertex 0.0017164 0.00386819 -1
   vertex 0.00190677 0.00489397 -1
   vertex 0.00226988 0.00458061 -1
  endloop
 endfacet
 facet normal 0 0 -1
  outer loop
   vertex 0.0017164 0.00386819 -1
   vertex 0.00226988 0.00458061 -1
   vertex 0.00205928 0.00355021 -1
  endloop
 endfacet
 facet normal 0 0 -1
  outer loop
   vertex 0.00205928 0.00355021 -1
   vertex 0.00226988 0.00458061 -1
   vertex 0.00262309 0.00425613 -1
  endloop
 endfacet
 facet normal 0 0 -1
  outer loop
   vertex 0.00205928 0.00355021 -1
   vertex 0.00262309 0.00425613 -1
   vertex 0.00239177 0.00322139 -1
  endloop
 endfacet
 facet normal 0 0 -1
  outer loop
   vertex 0.00239177 0.00322139 -1
   vertex 0.00262309 0.00425613 -1
   vertex 0.00296605 0.00392085 -1
  endloop
 endfacet
 facet normal 0 0 -1
  outer loop
   vertex 0.00239177 0.00322139 -1
   vertex 0.00296605 0.00392085 -1
   vertex 0.00271351 0.00288204 -1
  endloop
 endfacet
 facet normal 0 0 -1
  outer loop
   vertex 0.00271351 0.00288204 -1
   vertex 0.00296605 0.00392085 -1
   vertex 0.00329844 0.00357508 -1
  endloop
 endfacet
 facet normal 0 0 -1
  outer loop
   vertex 0.00271351 0.00288204 -1
   vertex 0.00329844 0.00357508 -1
   vertex 0.00302419 0.00253253 -1
  endloop
 endfacet
 facet normal 0 0 -1
  outer loop
   vertex 0.00302419 0.00253253 -1
   vertex 0.00329844 0.00357508 -1
   vertex 0.00361994 0.00321916 -1
  endloop
 endfacet
 facet normal 0 0 -1
  outer loop
   vertex 0.00302419 0.00253253 -1
   vertex 0.00361994 0.00321916 -1
   vertex 0.00332348 0.00217323 -1
  endloop
 endfacet
 facet normal 0 0 -1
  outer loop
   vertex 0.00332348 0.00217323 -1
   vertex 0.00361994 0.00321916 -1
   vertex 0.00393024 0.00285344 -1
  endloop
 endfacet
 facet normal 0 0 -1
  outer loop
   vertex 0.00332348 0.00217323 -1
   vertex 0.00393024 0.00285344 -1
   vertex 0.00361107 0.00180449 -1
  endloop
 endfacet
 facet normal 0 0 -1
  outer loop
   vertex 0.00361107 0.00180449 -1
   vertex 0.00393024 0.00285344 -1
   vertex 0.00422904 0.00247827 -1
  endloop
 endfacet
 facet normal 0 0 -1
  outer loop
   vertex 0.00361107 0.00180449 -1
   vertex 0.00422904 0.00247827 -1
   vertex 0.00388667 0.0014267 -1
  endloop
 endfacet
 facet normal 0 0 -1
  outer loop
   vertex 0.00388667 0.0014267 -1
   vertex 0.00422904 0.00247827 -1
   vertex 0.00451606 0.002094 -1
  endloop
 endfacet
 facet normal 0 0 -1
  outer loop
   vertex 0.00388667 0.0014267 -1
   vertex 0.00451606 0.002094 -1
   vertex 0.00414999 0.00104025 -1
  endloop
 endfacet
 facet normal 0 0 -1
  outer loop
   vertex 0.00414999 0.00104025 -1
   vertex 0.00451606 0.002094 -1
   vertex 0.00479101 0.001701 -1
  endloop
 endfacet
 facet normal 0 0 -1
  outer loop
   vertex 0.00414999 0.00104025 -1
   vertex 0.00479101 0.001701 -1
   vertex 0.00440075 0.000645545 -1
  endloop
 endfacet
 facet normal 0 0 -1
  outer loop
   vertex 0.00440075 0.000645545 -1
   vertex 0.00479101 0.001701 -1
   vertex 0.00505362 0.00129967 -1
  endloop
 endfacet
 facet normal 0 0 -1
  outer loop
   vertex 0.00440075 0.000645545 -1
   vertex 0.00505362 0.00129967 -1
   vertex 0.0046387 0.000242981 -1
  endloop
 endfacet
 facet normal 0 0 -1
  outer loop
   vertex 0.0046387 0.000242981 -1
   vertex 0.00505362 0.00129967 -1
   vertex 0.00530367 0.00089038 -1
  endloop
 endfacet
 facet normal 0 0 -1
  outer loop
   vertex 0.0046387 0.000242981 -1
   vertex 0.00530367 0.00089038 -1
   vertex 0.00554088 0.000473528 -1
  endloop
 endfacet
 facet normal -0 0 1
  outer loop
   vertex -0.00827578 0.00849029 1
   vertex -0.00827055 0.00819034 1
   vertex -0.0077962 0.00849126 1
  endloop
 endfacet
 facet normal 0 0 1
  outer loop
   vertex -0.0077962 0.00849126 1
   vertex -0.00827055 0.00819034 1
   vertex -0.00764703 0.00758821 1
  endloop
 endfacet
 facet normal 0 0 1
  outer loop
   vertex -0.0077962 0.00849126 1
   vertex -0.00764703 0.00758821 1
   vertex -0.00731675 0.00847727 1
  endloop
 endfacet
 facet normal 0 0 1
  outer loop
   vertex -0.00731675 0.00847727 1
   vertex -0.00764703 0.00758821 1
   vertex -0.0071798 0.00756918 1
  endloop
 endfacet
 facet normal 0 0 1
  outer loop
   vertex -0.00731675 0.00847727 1
   vertex -0.0071798 0.00756918 1
   vertex -0.00683796 0.00844841 1
  endloop
 endfacet
 facet normal 0 0 1
  outer loop
   vertex -0.00683796 0.00844841 1
   vertex -0.0071798 0.00756918 1
   vertex -0.00671339 0.00753511 1
  endloop
 endfacet
 facet normal 0 0 1
  outer loop
   vertex -0.00683796 0.00844841 1
   vertex -0.00671339 0.00753511 1
   vertex -0.00636034 0.00840474 1
  endloop
 endfacet
 facet normal 0 0 1
  outer loop
   vertex -0.00636034 0.00840474 1
   vertex -0.00671339 0.00753511 1
   vertex -0.00624836 0.00748611 1
  endloop
 endfacet
 facet normal 0 0 1
  outer loop
   vertex -0.00636034 0.00840474 1
   vertex -0.00624836 0.00748611 1
   vertex -0.00588433 0.0083463 1
  endloop
 endfacet
 facet normal 0 0 1
  outer loop
   vertex -0.00588433 0.0083463 1
   vertex -0.00624836 0.00748611 1
   vertex -0.00578512 0.00742218 1
  endloop
 endfacet
 facet normal 0 0 1
  outer loop
   vertex -0.00588433 0.0083463 1
   vertex -0.00578512 0.00742218 1
   vertex -0.00541032 0.00827307 1
  endloop
 endfacet
 facet normal 0 0 1
  outer loop
   vertex -0.00541032 0.00827307 1
   vertex -0.00578512 0.00742218 1
   vertex -0.00532418 0.00734339 1
  endloop
 endfacet
 facet normal -0 0 1
  outer loop
   vertex 0.006367 -0.0092361 1
   vertex 0.0066633 -0.00928302 1
   vertex 0.00643273 -0.00877311 1
  endloop
 endfacet
 facet normal 0 0 1
  outer loop
   vertex 0.00643273 -0.00877311 1
   vertex 0.0066633 -0.00928302 1
   vertex 0.00733695 -0.00879361 1
  endloop
 endfacet
 facet normal -0 0 1
  outer loop
   vertex 0.00643273 -0.00877311 1
   vertex 0.00733695 -0.00879361 1
   vertex 0.00648354 -0.00830825 1
  endloop
 endfacet
 facet normal 0 0 1
  outer loop
   vertex 0.00648354 -0.00830825 1
   vertex 0.00733695 -0.00879361 1
   vertex 0.00738645 -0.00831652 1
  endloop
 endfacet
 facet normal -0 0 1
  outer loop
   vertex 0.00648354 -0.00830825 1
   vertex 0.00738645 -0.00831652 1
   vertex 0.00651937 -0.00784197 1
  endloop
 endfacet
 facet normal -0 0 1
  outer loop
   vertex 0.00651937 -0.00784197 1
   vertex 0.00738645 -0.00831652 1
   vertex 0.00742119 -0.0078382 1
  endloop
 endfacet
 facet normal 0 0 1
  outer loop
   vertex 0.00651937 -0.00784197 1
   vertex 0.00742119 -0.0078382 1
   vertex 0.00654023 -0.00737482 1
  endloop
 endfacet
 facet normal -0 0 1
  outer loop
   vertex 0.00654023 -0.00737482 1
   vertex 0.00742119 -0.0078382 1
   vertex 0.00744099 -0.00735895 1
  endloop
 endfacet
 facet normal 0 0 1
  outer loop
   vertex 0.00654023 -0.00737482 1
   vertex 0.00744099 -0.00735895 1
   vertex 0.00654606 -0.00690723 1
  endloop
 endfacet
 facet normal -0 0 1
  outer loop
   vertex 0.00654606 -0.00690723 1
   vertex 0.00744099 -0.00735895 1
   vertex 0.00744595 -0.00687935 1
  endloop
 endfacet
 facet normal 0 -0 1
  outer loop
   vertex 0.00654606 -0.00690723 1
   vertex 0.00744595 -0.00687935 1
   vertex 0.00653686 -0.00643969 1
  endloop
 endfacet
 facet normal -0 0 1
  outer loop
   vertex 0.00653686 -0.00643969 1
   vertex 0.00744595 -0.00687935 1
   vertex 0.00743601 -0.00639983 1
  endloop
 endfacet
 facet normal 0 -0 1
  outer loop
   vertex 0.00653686 -0.00643969 1
   vertex 0.00743601 -0.00639983 1
   vertex 0.00651264 -0.00597268 1
  endloop
 endfacet
 facet normal -0 0 1
  outer loop
   vertex 0.00651264 -0.00597268 1
   vertex 0.00743601 -0.00639983 1
   vertex 0.0074112 -0.00592084 1
  endloop
 endfacet
 facet normal 0 -0 1
  outer loop
   vertex 0.00651264 -0.00597268 1
   vertex 0.0074112 -0.00592084 1
   vertex 0.00647344 -0.0055067 1
  endloop
 endfacet
 facet normal -0 0 1
  outer loop
   vertex 0.00647344 -0.0055067 1
   vertex 0.0074112 -0.00592084 1
   vertex 0.00737153 -0.00544286 1
  endloop
 endfacet
 facet normal 0 -0 1
  outer loop
   vertex 0.00647344 -0.0055067 1
   vertex 0.00737153 -0.00544286 1
   vertex 0.00641928 -0.00504222 1
  endloop
 endfacet
 facet normal -0 0 1
  outer loop
   vertex 0.00641928 -0.00504222 1
   vertex 0.00737153 -0.00544286 1
   vertex 0.00731705 -0.00496635 1
  endloop
 endfacet
 facet normal 0 -0 1
  outer loop
   vertex 0.00641928 -0.00504222 1
   vertex 0.00731705 -0.00496635 1
   vertex 0.00635023 -0.00457972 1
  endloop
 endfacet
 facet normal -0 0 1
  outer loop
   vertex 0.00635023 -0.00457972 1
   vertex 0.00731705 -0.00496635 1
   vertex 0.00724781 -0.00449175 1
  endloop
 endfacet
 facet normal 0 -0 1
  outer loop
   vertex 0.00635023 -0.00457972 1
   vertex 0.00724781 -0.00449175 1
   vertex 0.00626634 -0.00411968 1
  endloop
 endfacet
 facet normal -0 0 1
  outer loop
   vertex 0.00626634 -0.00411968 1
   vertex 0.00724781 -0.00449175 1
   vertex 0.00716388 -0.00401953 1
  endloop
 endfacet
 facet normal 0 -0 1
  outer loop
   vertex 0.00626634 -0.00411968 1
   vertex 0.00716388 -0.00401953 1
   vertex 0.00616773 -0.00366256 1
  endloop
 endfacet
 facet normal -0 0 1
  outer loop
   vertex 0.00616773 -0.00366256 1
   vertex 0.00716388 -0.00401953 1
   vertex 0.00706532 -0.00355014 1
  endloop
 endfacet
 facet normal 0 -0 1
  outer loop
   vertex 0.00616773 -0.00366256 1
   vertex 0.00706532 -0.00355014 1
   vertex 0.00605448 -0.00320885 1
  endloop
 endfacet
 facet normal -0 0 1
  outer loop
   vertex 0.00605448 -0.00320885 1
   vertex 0.00706532 -0.00355014 1
   vertex 0.00695224 -0.00308403 1
  endloop
 endfacet
 facet normal 0 -0 1
  outer loop
   vertex 0.00605448 -0.00320885 1
   vertex 0.00695224 -0.00308403 1
   vertex 0.00592671 -0.00275902 1
  endloop
 endfacet
 facet normal -0 0 1
  outer loop
   vertex 0.00592671 -0.00275902 1
   vertex 0.00695224 -0.00308403 1
   vertex 0.00682476 -0.00262167 1
  endloop
 endfacet
 facet normal 0 -0 1
  outer loop
   vertex 0.00592671 -0.00275902 1
   vertex 0.00682476 -0.00262167 1
   vertex 0.00578455 -0.00231352 1
  endloop
 endfacet
 facet normal -0 0 1
  outer loop
   vertex 0.00578455 -0.00231352 1
   vertex 0.00682476 -0.00262167 1
   vertex 0.00668298 -0.00216347 1
  endloop
 endfacet
 facet normal 0 -0 1
  outer loop
   vertex 0.00578455 -0.00231352 1
   vertex 0.00668298 -0.00216347 1
   vertex 0.00562815 -0.00187283 1
  endloop
 endfacet
 facet normal -0 0 1
  outer loop
   vertex 0.00562815 -0.00187283 1
   vertex 0.00668298 -0.00216347 1
   vertex 0.00652706 -0.0017099 1
  endloop
 endfacet
 facet normal 0 -0 1
  outer loop
   vertex 0.00562815 -0.00187283 1
   vertex 0.00652706 -0.0017099 1
   vertex 0.00545767 -0.00143738 1
  endloop
 endfacet
 facet normal -0 0 1
  outer loop
   vertex 0.00545767 -0.00143738 1
   vertex 0.00652706 -0.0017099 1
   vertex 0.00635713 -0.00126139 1
  endloop
 endfacet
 facet normal 0 -0 1
  outer loop
   vertex 0.00545767 -0.00143738 1
   vertex 0.00635713 -0.00126139 1
   vertex 0.00527329 -0.00100764 1
  endloop
 endfacet
 facet normal -0 0 1
  outer loop
   vertex 0.00527329 -0.00100764 1
   vertex 0.00635713 -0.00126139 1
   vertex 0.00617336 -0.000818366 1
  endloop
 endfacet
 facet normal 0 -0 1
  outer loop
   vertex 0.00527329 -0.00100764 1
   vertex 0.00617336 -0.000818366 1
   vertex 0.00507519 -0.000584036 1
  endloop
 endfacet
 facet normal -0 0 1
  outer loop
   vertex 0.00507519 -0.000584036 1
   vertex 0.00617336 -0.000818366 1
   vertex 0.00597594 -0.00038126 1
  endloop
 endfacet
 facet normal 0 -0 1
  outer loop
   vertex 0.00507519 -0.000584036 1
   vertex 0.00597594 -0.00038126 1
   vertex 0.00486359 -0.000167019 1
  endloop
 endfacet
 facet normal 0 0 1
  outer loop
   vertex 0.00597594 -0.00038126 1
   vertex 0.00576505 4.95158e-05 1
   vertex 0.00486359 -0.000167019 1
  endloop
 endfacet
 facet normal 0 0 1
  outer loop
   vertex 0.00486359 -0.000167019 1
   vertex 0.00576505 4.95158e-05 1
   vertex 0.00554088 0.000473528 1
  endloop
 endfacet
 facet normal 0 -0 1
  outer loop
   vertex 0.00486359 -0.000167019 1
   vertex 0.00554088 0.000473528 1
   vertex 0.0046387 0.000242981 1
  endloop
 endfacet
 facet normal 0 0 1
  outer loop
   vertex 0.0046387 0.000242981 1
   vertex 0.00554088 0.000473528 1
   vertex 0.00530367 0.00089038 1
  endloop
 endfacet
 facet normal 0 -0 1
  outer loop
   vertex 0.0046387 0.000242981 1
   vertex 0.00530367 0.00089038 1
   vertex 0.00440075 0.000645545 1
  endloop
 endfacet
 facet normal 0 0 1
  outer loop
   vertex 0.00440075 0.000645545 1
   vertex 0.00530367 0.00089038 1
   vertex 0.00505362 0.00129967 1
  endloop
 endfacet
 facet normal 0 -0 1
  outer loop
   vertex 0.00440075 0.000645545 1
   vertex 0.00505362 0.00129967 1
   vertex 0.00414999 0.00104025 1
  endloop
 endfacet
 facet normal 0 0 1
  outer loop
   vertex 0.00414999 0.00104025 1
   vertex 0.00505362 0.00129967 1
   vertex 0.00479101 0.001701 1
  endloop
 endfacet
 facet normal 0 -0 1
  outer loop
   vertex 0.00414999 0.00104025 1
   vertex 0.00479101 0.001701 1
   vertex 0.00388667 0.0014267 1
  endloop
 endfacet
 facet normal 0 0 1
  outer loop
   vertex 0.00388667 0.0014267 1
   vertex 0.00479101 0.001701 1
   vertex 0.00451606 0.002094 1
  endloop
 endfacet
 facet normal 0 -0 1
  outer loop
   vertex 0.00388667 0.0014267 1
   vertex 0.00451606 0.002094 1
   vertex 0.00361107 0.00180449 1
  endloop
 endfacet
 facet normal 0 0 1
  outer loop
   vertex 0.00361107 0.00180449 1
   vertex 0.00451606 0.002094 1
   vertex 0.00422904 0.00247827 1
  endloop
 endfacet
 facet normal 0 -0 1
  outer loop
   vertex 0.00361107 0.00180449 1
   vertex 0.00422904 0.00247827 1
   vertex 0.00332348 0.00217323 1
  endloop
 endfacet
 facet normal 0 0 1
  outer loop
   vertex 0.00332348 0.00217323 1
   vertex 0.00422904 0.00247827 1
   vertex 0.00393024 0.00285344 1
  endloop
 endfacet
 facet normal 0 -0 1
  outer loop
   vertex 0.00332348 0.00217323 1
   vertex 0.00393024 0.00285344 1
   vertex 0.00302419 0.00253253 1
  endloop
 endfacet
 facet normal 0 0 1
  outer loop
   vertex 0.00302419 0.00253253 1
   vertex 0.00393024 0.00285344 1
   vertex 0.00361994 0.00321916 1
  endloop
 endfacet
 facet normal 0 -0 1
  outer loop
   vertex 0.00302419 0.00253253 1
   vertex 0.00361994 0.00321916 1
   vertex 0.00271351 0.00288204 1
  endloop
 endfacet
 facet normal 0 0 1
  outer loop
   vertex 0.00271351 0.00288204 1
   vertex 0.00361994 0.00321916 1
   vertex 0.00329844 0.00357508 1
  endloop
 endfacet
 facet normal 0 -0 1
  outer loop
   vertex 0.00271351 0.00288204 1
   vertex 0.00329844 0.00357508 1
   vertex 0.00239177 0.00322139 1
  endloop
 endfacet
 facet normal 0 0 1
  outer loop
   vertex 0.00239177 0.00322139 1
   vertex 0.00329844 0.00357508 1
   vertex 0.00296605 0.00392085 1
  endloop
 endfacet
 facet normal 0 -0 1
  outer loop
   vertex 0.00239177 0.00322139 1
   vertex 0.00296605 0.00392085 1
   vertex 0.00205928 0.00355021 1
  endloop
 endfacet
 facet normal 0 0 1
  outer loop
   vertex 0.00205928 0.00355021 1
   vertex 0.00296605 0.00392085 1
   vertex 0.00262309 0.00425613 1
  endloop
 endfacet
 facet normal 0 -0 1
  outer loop
   vertex 0.00205928 0.00355021 1
   vertex 0.00262309 0.00425613 1
   vertex 0.0017164 0.00386819 1
  endloop
 endfacet
 facet normal 0 0 1
  outer loop
   vertex 0.0017164 0.00386819 1
   vertex 0.00262309 0.00425613 1
   vertex 0.00226988 0.00458061 1
  endloop
 endfacet
 facet normal 0 -0 1
  outer loop
   vertex 0.0017164 0.00386819 1
   vertex 0.00226988 0.00458061 1
   vertex 0.00136348 0.00417499 1
  endloop
 endfacet
 facet normal 0 0 1
  outer loop
   vertex 0.00136348 0.00417499 1
   vertex 0.00226988 0.00458061 1
   vertex 0.00190677 0.00489397 1
  endloop
 endfacet
 facet normal 0 -0 1
  outer loop
   vertex 0.00136348 0.00417499 1
   vertex 0.00190677 0.00489397 1
   vertex 0.00100088 0.00447029 1
  endloop
 endfacet
 facet normal 0 0 1
  outer loop
   vertex 0.00100088 0.00447029 1
   vertex 0.00190677 0.00489397 1
   vertex 0.00153411 0.0051959 1
  endloop
 endfacet
 facet normal 0 -0 1
  outer loop
   vertex 0.00100088 0.00447029 1
   vertex 0.00153411 0.0051959 1
   vertex 0.000628985 0.00475378 1
  endloop
 endfacet
 facet normal 0 0 1
  outer loop
   vertex 0.000628985 0.00475378 1
   vertex 0.00153411 0.0051959 1
   vertex 0.00115227 0.00548614 1
  endloop
 endfacet
 facet normal 0 -0 1
  outer loop
   vertex 0.000628985 0.00475378 1
   vertex 0.00115227 0.00548614 1
   vertex 0.000248168 0.00502518 1
  endloop
 endfacet
 facet normal 0 0 1
  outer loop
   vertex 0.000248168 0.00502518 1
   vertex 0.00115227 0.00548614 1
   vertex 0.000761605 0.00576437 1
  endloop
 endfacet
 facet normal 0 -0 1
  outer loop
   vertex 0.000248168 0.00502518 1
   vertex 0.000761605 0.00576437 1
   vertex -0.000141165 0.0052842 1
  endloop
 endfacet
 facet normal 0 0 1
  outer loop
   vertex -0.000141165 0.0052842 1
   vertex 0.000761605 0.00576437 1
   vertex 0.000362488 0.00603035 1
  endloop
 endfacet
 facet normal 0 -0 1
  outer loop
   vertex -0.000141165 0.0052842 1
   vertex 0.000362488 0.00603035 1
   vertex -0.000538624 0.00553059 1
  endloop
 endfacet
 facet normal 0 0 1
  outer loop
   vertex -0.000538624 0.00553059 1
   vertex 0.000362488 0.00603035 1
   vertex -4.46979e-05 0.00628382 1
  endloop
 endfacet
 facet normal 0 -0 1
  outer loop
   vertex -0.000538624 0.00553059 1
   vertex -4.46979e-05 0.00628382 1
   vertex -0.000943792 0.00576407 1
  endloop
 endfacet
 facet normal 0 0 1
  outer loop
   vertex -0.000943792 0.00576407 1
   vertex -4.46979e-05 0.00628382 1
   vertex -0.000459545 0.00652452 1
  endloop
 endfacet
 facet normal 0 -0 1
  outer loop
   vertex -0.000943792 0.00576407 1
   vertex -0.000459545 0.00652452 1
   vertex -0.00135626 0.00598442 1
  endloop
 endfacet
 facet normal 0 0 1
  outer loop
   vertex -0.00135626 0.00598442 1
   vertex -0.000459545 0.00652452 1
   vertex -0.00088166 0.00675224 1
  endloop
 endfacet
 facet normal 0 -0 1
  outer loop
   vertex -0.00135626 0.00598442 1
   vertex -0.00088166 0.00675224 1
   vertex -0.00177558 0.00619139 1
  endloop
 endfacet
 facet normal 0 0 1
  outer loop
   vertex -0.00177558 0.00619139 1
   vertex -0.00088166 0.00675224 1
   vertex -0.00131064 0.00696675 1
  endloop
 endfacet
 facet normal 0 -0 1
  outer loop
   vertex -0.00177558 0.00619139 1
   vertex -0.00131064 0.00696675 1
   vertex -0.00220134 0.0063848 1
  endloop
 endfacet
 facet normal 0 0 1
  outer loop
   vertex -0.00220134 0.0063848 1
   vertex -0.00131064 0.00696675 1
   vertex -0.00174608 0.00716783 1
  endloop
 endfacet
 facet normal 0 -0 1
  outer loop
   vertex -0.00220134 0.0063848 1
   vertex -0.00174608 0.00716783 1
   vertex -0.0026331 0.00656442 1
  endloop
 endfacet
 facet normal 0 0 1
  outer loop
   vertex -0.0026331 0.00656442 1
   vertex -0.00174608 0.00716783 1
   vertex -0.00218754 0.00735531 1
  endloop
 endfacet
 facet normal 0 -0 1
  outer loop
   vertex -0.0026331 0.00656442 1
   vertex -0.00218754 0.00735531 1
   vertex -0.00307041 0.00673007 1
  endloop
 endfacet
 facet normal 0 0 1
  outer loop
   vertex -0.00307041 0.00673007 1
   vertex -0.00218754 0.00735531 1
   vertex -0.00263461 0.00752899 1
  endloop
 endfacet
 facet normal 0 -0 1
  outer loop
   vertex -0.00307041 0.00673007 1
   vertex -0.00263461 0.00752899 1
   vertex -0.00351281 0.00688159 1
  endloop
 endfacet
 facet normal 0 0 1
  outer loop
   vertex -0.00351281 0.00688159 1
   vertex -0.00263461 0.00752899 1
   vertex -0.00308686 0.00768872 1
  endloop
 endfacet
 facet normal 0 -0 1
  outer loop
   vertex -0.00351281 0.00688159 1
   vertex -0.00308686 0.00768872 1
   vertex -0.00395985 0.00701881 1
  endloop
 endfacet
 facet normal 0 0 1
  outer loop
   vertex -0.00395985 0.00701881 1
   vertex -0.00308686 0.00768872 1
   vertex -0.00354385 0.00783433 1
  endloop
 endfacet
 facet normal 0 -0 1
  outer loop
   vertex -0.00395985 0.00701881 1
   vertex -0.00354385 0.00783433 1
   vertex -0.00441107 0.00714161 1
  endloop
 endfacet
 facet normal 0 0 1
  outer loop
   vertex -0.00441107 0.00714161 1
   vertex -0.00354385 0.00783433 1
   vertex -0.00400513 0.0079657 1
  endloop
 endfacet
 facet normal 0 -0 1
  outer loop
   vertex -0.00441107 0.00714161 1
   vertex -0.00400513 0.0079657 1
   vertex -0.004866 0.00724983 1
  endloop
 endfacet
 facet normal 0 0 1
  outer loop
   vertex -0.004866 0.00724983 1
   vertex -0.00400513 0.0079657 1
   vertex -0.00447026 0.00808267 1
  endloop
 endfacet
 facet normal 0 -0 1
  outer loop
   vertex -0.004866 0.00724983 1
   vertex -0.00447026 0.00808267 1
   vertex -0.00532418 0.00734339 1
  endloop
 endfacet
 facet normal 0 0 1
  outer loop
   vertex -0.00532418 0.00734339 1
   vertex -0.00447026 0.00808267 1
   vertex -0.00493882 0.00818517 1
  endloop
 endfacet
 facet normal 0 -0 1
  outer loop
   vertex -0.00532418 0.00734339 1
   vertex -0.00493882 0.00818517 1
   vertex -0.00541032 0.00827307 1
  endloop
 endfacet
 facet normal 0.587758 -0.809037 0
  outer loop
   vertex 0.00733695 -0.00879361 1
   vertex 0.0066633 -0.00928302 1
   vertex 0.00733695 -0.00879361 -1
  endloop
 endfacet
 facet normal 0.587758 -0.809037 0
  outer loop
   vertex 0.00733695 -0.00879361 -1
   vertex 0.0066633 -0.00928302 1
   vertex 0.0066633 -0.00928302 -1
  endloop
 endfacet
 facet normal -0.694659 -0.719339 -0
  outer loop
   vertex -0.00764703 0.00758821 1
   vertex -0.00827055 0.00819034 1
   vertex -0.00764703 0.00758821 -1
  endloop
 endfacet
 facet normal -0.694659 -0.719339 0
  outer loop
   vertex -0.00764703 0.00758821 -1
   vertex -0.00827055 0.00819034 1
   vertex -0.00827055 0.00819034 -1
  endloop
 endfacet
endsolid tunner_vane
