solid tunner_vane
 facet normal -0.00193896 0.999998 0
  outer loop
   vertex 0.823828 0.235602 -1
   vertex 0.823828 0.235602 1
   vertex 0.827025 0.235608 1
  endloop
 endfacet
 facet normal -0.00193896 0.999998 0
  outer loop
   vertex 0.823828 0.235602 -1
   vertex 0.827025 0.235608 1
   vertex 0.827025 0.235608 -1
  endloop
 endfacet
 facet normal 0.0290779 0.999577 -0
  outer loop
   vertex 0.827025 0.235608 -1
   vertex 0.827025 0.235608 1
   vertex 0.830222 0.235515 1
  endloop
 endfacet
 facet normal 0.0290779 0.999577 0
  outer loop
   vertex 0.827025 0.235608 -1
   vertex 0.830222 0.235515 1
   vertex 0.830222 0.235515 -1
  endloop
 endfacet
 facet normal 0.0601227 0.998191 -0
  outer loop
   vertex 0.830222 0.235515 -1
   vertex 0.830222 0.235515 1
   vertex 0.833413 0.235323 1
  endloop
 endfacet
 facet normal 0.0601227 0.998191 0
  outer loop
   vertex 0.830222 0.235515 -1
   vertex 0.833413 0.235323 1
   vertex 0.833413 0.235323 -1
  endloop
 endfacet
 facet normal 0.0910491 0.995846 -0
  outer loop
   vertex 0.833413 0.235323 -1
   vertex 0.833413 0.235323 1
   vertex 0.836598 0.235032 1
  endloop
 endfacet
 facet normal 0.0910491 0.995846 0
  outer loop
   vertex 0.833413 0.235323 -1
   vertex 0.836598 0.235032 1
   vertex 0.836598 0.235032 -1
  endloop
 endfacet
 facet normal 0.121963 0.992535 -0
  outer loop
   vertex 0.836598 0.235032 -1
   vertex 0.836598 0.235032 1
   vertex 0.839771 0.234642 1
  endloop
 endfacet
 facet normal 0.121963 0.992535 0
  outer loop
   vertex 0.836598 0.235032 -1
   vertex 0.839771 0.234642 1
   vertex 0.839771 0.234642 -1
  endloop
 endfacet
 facet normal 0.152652 0.98828 -0
  outer loop
   vertex 0.839771 0.234642 -1
   vertex 0.839771 0.234642 1
   vertex 0.842931 0.234154 1
  endloop
 endfacet
 facet normal 0.152652 0.98828 0
  outer loop
   vertex 0.839771 0.234642 -1
   vertex 0.842931 0.234154 1
   vertex 0.842931 0.234154 -1
  endloop
 endfacet
 facet normal 0.18326 0.983064 -0
  outer loop
   vertex 0.842931 0.234154 -1
   vertex 0.842931 0.234154 1
   vertex 0.846075 0.233568 1
  endloop
 endfacet
 facet normal 0.18326 0.983064 0
  outer loop
   vertex 0.842931 0.234154 -1
   vertex 0.846075 0.233568 1
   vertex 0.846075 0.233568 -1
  endloop
 endfacet
 facet normal 0.213711 0.976897 -0
  outer loop
   vertex 0.846075 0.233568 -1
   vertex 0.846075 0.233568 1
   vertex 0.849198 0.232884 1
  endloop
 endfacet
 facet normal 0.213711 0.976897 0
  outer loop
   vertex 0.846075 0.233568 -1
   vertex 0.849198 0.232884 1
   vertex 0.849198 0.232884 -1
  endloop
 endfacet
 facet normal 0.243904 0.969799 -0
  outer loop
   vertex 0.849198 0.232884 -1
   vertex 0.849198 0.232884 1
   vertex 0.852299 0.232105 1
  endloop
 endfacet
 facet normal 0.243904 0.969799 0
  outer loop
   vertex 0.849198 0.232884 -1
   vertex 0.852299 0.232105 1
   vertex 0.852299 0.232105 -1
  endloop
 endfacet
 facet normal 0.27392 0.961753 -0
  outer loop
   vertex 0.852299 0.232105 -1
   vertex 0.852299 0.232105 1
   vertex 0.855374 0.231229 1
  endloop
 endfacet
 facet normal 0.27392 0.961753 0
  outer loop
   vertex 0.852299 0.232105 -1
   vertex 0.855374 0.231229 1
   vertex 0.855374 0.231229 -1
  endloop
 endfacet
 facet normal 0.303541 0.952818 -0
  outer loop
   vertex 0.855374 0.231229 -1
   vertex 0.855374 0.231229 1
   vertex 0.858421 0.230258 1
  endloop
 endfacet
 facet normal 0.303541 0.952818 0
  outer loop
   vertex 0.855374 0.231229 -1
   vertex 0.858421 0.230258 1
   vertex 0.858421 0.230258 -1
  endloop
 endfacet
 facet normal 0.333012 0.942923 -0
  outer loop
   vertex 0.858421 0.230258 -1
   vertex 0.858421 0.230258 1
   vertex 0.861436 0.229193 1
  endloop
 endfacet
 facet normal 0.333012 0.942923 0
  outer loop
   vertex 0.858421 0.230258 -1
   vertex 0.861436 0.229193 1
   vertex 0.861436 0.229193 -1
  endloop
 endfacet
 facet normal 0.362178 0.932109 -0
  outer loop
   vertex 0.861436 0.229193 -1
   vertex 0.861436 0.229193 1
   vertex 0.864416 0.228035 1
  endloop
 endfacet
 facet normal 0.362178 0.932109 0
  outer loop
   vertex 0.861436 0.229193 -1
   vertex 0.864416 0.228035 1
   vertex 0.864416 0.228035 -1
  endloop
 endfacet
 facet normal 0.390912 0.920428 -0
  outer loop
   vertex 0.864416 0.228035 -1
   vertex 0.864416 0.228035 1
   vertex 0.867359 0.226785 1
  endloop
 endfacet
 facet normal 0.390912 0.920428 0
  outer loop
   vertex 0.864416 0.228035 -1
   vertex 0.867359 0.226785 1
   vertex 0.867359 0.226785 -1
  endloop
 endfacet
 facet normal 0.419247 0.907872 -0
  outer loop
   vertex 0.867359 0.226785 -1
   vertex 0.867359 0.226785 1
   vertex 0.870262 0.225445 1
  endloop
 endfacet
 facet normal 0.419247 0.907872 0
  outer loop
   vertex 0.867359 0.226785 -1
   vertex 0.870262 0.225445 1
   vertex 0.870262 0.225445 -1
  endloop
 endfacet
 facet normal 0.44722 0.894424 -0
  outer loop
   vertex 0.870262 0.225445 -1
   vertex 0.870262 0.225445 1
   vertex 0.873122 0.224015 1
  endloop
 endfacet
 facet normal 0.44722 0.894424 0
  outer loop
   vertex 0.870262 0.225445 -1
   vertex 0.873122 0.224015 1
   vertex 0.873122 0.224015 -1
  endloop
 endfacet
 facet normal 0.474796 0.880096 -0
  outer loop
   vertex 0.873122 0.224015 -1
   vertex 0.873122 0.224015 1
   vertex 0.875936 0.222497 1
  endloop
 endfacet
 facet normal 0.474796 0.880096 0
  outer loop
   vertex 0.873122 0.224015 -1
   vertex 0.875936 0.222497 1
   vertex 0.875936 0.222497 -1
  endloop
 endfacet
 facet normal 0.501814 0.864975 -0
  outer loop
   vertex 0.875936 0.222497 -1
   vertex 0.875936 0.222497 1
   vertex 0.878702 0.220892 1
  endloop
 endfacet
 facet normal 0.501814 0.864975 0
  outer loop
   vertex 0.875936 0.222497 -1
   vertex 0.878702 0.220892 1
   vertex 0.878702 0.220892 -1
  endloop
 endfacet
 facet normal 0.528408 0.848991 -0
  outer loop
   vertex 0.878702 0.220892 -1
   vertex 0.878702 0.220892 1
   vertex 0.881417 0.219202 1
  endloop
 endfacet
 facet normal 0.528408 0.848991 0
  outer loop
   vertex 0.878702 0.220892 -1
   vertex 0.881417 0.219202 1
   vertex 0.881417 0.219202 -1
  endloop
 endfacet
 facet normal 0.554666 0.832073 -0
  outer loop
   vertex 0.881417 0.219202 -1
   vertex 0.881417 0.219202 1
   vertex 0.884077 0.217429 1
  endloop
 endfacet
 facet normal 0.554666 0.832073 0
  outer loop
   vertex 0.881417 0.219202 -1
   vertex 0.884077 0.217429 1
   vertex 0.884077 0.217429 -1
  endloop
 endfacet
 facet normal 0.580039 0.814588 -0
  outer loop
   vertex 0.884077 0.217429 -1
   vertex 0.884077 0.217429 1
   vertex 0.886682 0.215574 1
  endloop
 endfacet
 facet normal 0.580039 0.814588 0
  outer loop
   vertex 0.884077 0.217429 -1
   vertex 0.886682 0.215574 1
   vertex 0.886682 0.215574 -1
  endloop
 endfacet
 facet normal 0.60507 0.796173 -0
  outer loop
   vertex 0.886682 0.215574 -1
   vertex 0.886682 0.215574 1
   vertex 0.889228 0.213639 1
  endloop
 endfacet
 facet normal 0.60507 0.796173 0
  outer loop
   vertex 0.886682 0.215574 -1
   vertex 0.889228 0.213639 1
   vertex 0.889228 0.213639 -1
  endloop
 endfacet
 facet normal 0.629562 0.77695 -0
  outer loop
   vertex 0.889228 0.213639 -1
   vertex 0.889228 0.213639 1
   vertex 0.891712 0.211626 1
  endloop
 endfacet
 facet normal 0.629562 0.77695 0
  outer loop
   vertex 0.889228 0.213639 -1
   vertex 0.891712 0.211626 1
   vertex 0.891712 0.211626 -1
  endloop
 endfacet
 facet normal 0.653309 0.757091 -0
  outer loop
   vertex 0.891712 0.211626 -1
   vertex 0.891712 0.211626 1
   vertex 0.894133 0.209537 1
  endloop
 endfacet
 facet normal 0.653309 0.757091 0
  outer loop
   vertex 0.891712 0.211626 -1
   vertex 0.894133 0.209537 1
   vertex 0.894133 0.209537 -1
  endloop
 endfacet
 facet normal 0.676632 0.736321 -0
  outer loop
   vertex 0.894133 0.209537 -1
   vertex 0.894133 0.209537 1
   vertex 0.896487 0.207374 1
  endloop
 endfacet
 facet normal 0.676632 0.736321 0
  outer loop
   vertex 0.894133 0.209537 -1
   vertex 0.896487 0.207374 1
   vertex 0.896487 0.207374 -1
  endloop
 endfacet
 facet normal 0.698957 0.715164 -0
  outer loop
   vertex 0.896487 0.207374 -1
   vertex 0.896487 0.207374 1
   vertex 0.898774 0.205139 1
  endloop
 endfacet
 facet normal 0.698957 0.715164 0
  outer loop
   vertex 0.896487 0.207374 -1
   vertex 0.898774 0.205139 1
   vertex 0.898774 0.205139 -1
  endloop
 endfacet
 facet normal 0.720905 0.693034 -0
  outer loop
   vertex 0.898774 0.205139 -1
   vertex 0.898774 0.205139 1
   vertex 0.90099 0.202834 1
  endloop
 endfacet
 facet normal 0.720905 0.693034 0
  outer loop
   vertex 0.898774 0.205139 -1
   vertex 0.90099 0.202834 1
   vertex 0.90099 0.202834 -1
  endloop
 endfacet
 facet normal 0.742135 0.67025 -0
  outer loop
   vertex 0.90099 0.202834 -1
   vertex 0.90099 0.202834 1
   vertex 0.903133 0.200461 1
  endloop
 endfacet
 facet normal 0.742135 0.67025 0
  outer loop
   vertex 0.90099 0.202834 -1
   vertex 0.903133 0.200461 1
   vertex 0.903133 0.200461 -1
  endloop
 endfacet
 facet normal 0.762462 0.647033 -0
  outer loop
   vertex 0.903133 0.200461 -1
   vertex 0.903133 0.200461 1
   vertex 0.905202 0.198023 1
  endloop
 endfacet
 facet normal 0.762462 0.647033 0
  outer loop
   vertex 0.903133 0.200461 -1
   vertex 0.905202 0.198023 1
   vertex 0.905202 0.198023 -1
  endloop
 endfacet
 facet normal 0.782227 0.622994 -0
  outer loop
   vertex 0.905202 0.198023 -1
   vertex 0.905202 0.198023 1
   vertex 0.907194 0.195522 1
  endloop
 endfacet
 facet normal 0.782227 0.622994 0
  outer loop
   vertex 0.905202 0.198023 -1
   vertex 0.907194 0.195522 1
   vertex 0.907194 0.195522 -1
  endloop
 endfacet
 facet normal 0.80125 0.598329 -0
  outer loop
   vertex 0.907194 0.195522 -1
   vertex 0.907194 0.195522 1
   vertex 0.909107 0.19296 1
  endloop
 endfacet
 facet normal 0.80125 0.598329 0
  outer loop
   vertex 0.907194 0.195522 -1
   vertex 0.909107 0.19296 1
   vertex 0.909107 0.19296 -1
  endloop
 endfacet
 facet normal 0.819374 0.573259 -0
  outer loop
   vertex 0.909107 0.19296 -1
   vertex 0.909107 0.19296 1
   vertex 0.91094 0.19034 1
  endloop
 endfacet
 facet normal 0.819374 0.573259 0
  outer loop
   vertex 0.909107 0.19296 -1
   vertex 0.91094 0.19034 1
   vertex 0.91094 0.19034 -1
  endloop
 endfacet
 facet normal 0.836746 0.547591 -0
  outer loop
   vertex 0.91094 0.19034 -1
   vertex 0.91094 0.19034 1
   vertex 0.912691 0.187664 1
  endloop
 endfacet
 facet normal 0.836746 0.547591 0
  outer loop
   vertex 0.91094 0.19034 -1
   vertex 0.912691 0.187664 1
   vertex 0.912691 0.187664 -1
  endloop
 endfacet
 facet normal 0.853346 0.521345 -0
  outer loop
   vertex 0.912691 0.187664 -1
   vertex 0.912691 0.187664 1
   vertex 0.914358 0.184936 1
  endloop
 endfacet
 facet normal 0.853346 0.521345 0
  outer loop
   vertex 0.912691 0.187664 -1
   vertex 0.914358 0.184936 1
   vertex 0.914358 0.184936 -1
  endloop
 endfacet
 facet normal 0.869196 0.494469 -0
  outer loop
   vertex 0.914358 0.184936 -1
   vertex 0.914358 0.184936 1
   vertex 0.915939 0.182157 1
  endloop
 endfacet
 facet normal 0.869196 0.494469 0
  outer loop
   vertex 0.914358 0.184936 -1
   vertex 0.915939 0.182157 1
   vertex 0.915939 0.182157 -1
  endloop
 endfacet
 facet normal 0.88398 0.467524 -0
  outer loop
   vertex 0.915939 0.182157 -1
   vertex 0.915939 0.182157 1
   vertex 0.917434 0.17933 1
  endloop
 endfacet
 facet normal 0.88398 0.467524 0
  outer loop
   vertex 0.915939 0.182157 -1
   vertex 0.917434 0.17933 1
   vertex 0.917434 0.17933 -1
  endloop
 endfacet
 facet normal 0.898137 0.439716 -0
  outer loop
   vertex 0.917434 0.17933 -1
   vertex 0.917434 0.17933 1
   vertex 0.91884 0.176458 1
  endloop
 endfacet
 facet normal 0.898137 0.439716 0
  outer loop
   vertex 0.917434 0.17933 -1
   vertex 0.91884 0.176458 1
   vertex 0.91884 0.176458 -1
  endloop
 endfacet
 facet normal 0.911368 0.411592 -0
  outer loop
   vertex 0.91884 0.176458 -1
   vertex 0.91884 0.176458 1
   vertex 0.920156 0.173544 1
  endloop
 endfacet
 facet normal 0.911368 0.411592 0
  outer loop
   vertex 0.91884 0.176458 -1
   vertex 0.920156 0.173544 1
   vertex 0.920156 0.173544 -1
  endloop
 endfacet
 facet normal 0.923702 0.383111 -0
  outer loop
   vertex 0.920156 0.173544 -1
   vertex 0.920156 0.173544 1
   vertex 0.921381 0.170591 1
  endloop
 endfacet
 facet normal 0.923702 0.383111 0
  outer loop
   vertex 0.920156 0.173544 -1
   vertex 0.921381 0.170591 1
   vertex 0.921381 0.170591 -1
  endloop
 endfacet
 facet normal 0.935119 0.354333 -0
  outer loop
   vertex 0.921381 0.170591 -1
   vertex 0.921381 0.170591 1
   vertex 0.922514 0.167601 1
  endloop
 endfacet
 facet normal 0.935119 0.354333 0
  outer loop
   vertex 0.921381 0.170591 -1
   vertex 0.922514 0.167601 1
   vertex 0.922514 0.167601 -1
  endloop
 endfacet
 facet normal 0.945728 0.32496 -0
  outer loop
   vertex 0.922514 0.167601 -1
   vertex 0.922514 0.167601 1
   vertex 0.923553 0.164577 1
  endloop
 endfacet
 facet normal 0.945728 0.32496 0
  outer loop
   vertex 0.922514 0.167601 -1
   vertex 0.923553 0.164577 1
   vertex 0.923553 0.164577 -1
  endloop
 endfacet
 facet normal 0.955325 0.295558 -0
  outer loop
   vertex 0.923553 0.164577 -1
   vertex 0.923553 0.164577 1
   vertex 0.924498 0.161522 1
  endloop
 endfacet
 facet normal 0.955325 0.295558 0
  outer loop
   vertex 0.923553 0.164577 -1
   vertex 0.924498 0.161522 1
   vertex 0.924498 0.161522 -1
  endloop
 endfacet
 facet normal 0.964023 0.265818 -0
  outer loop
   vertex 0.924498 0.161522 -1
   vertex 0.924498 0.161522 1
   vertex 0.925348 0.15844 1
  endloop
 endfacet
 facet normal 0.964023 0.265818 0
  outer loop
   vertex 0.924498 0.161522 -1
   vertex 0.925348 0.15844 1
   vertex 0.925348 0.15844 -1
  endloop
 endfacet
 facet normal 0.971801 0.235804 -0
  outer loop
   vertex 0.925348 0.15844 -1
   vertex 0.925348 0.15844 1
   vertex 0.926102 0.155332 1
  endloop
 endfacet
 facet normal 0.971801 0.235804 0
  outer loop
   vertex 0.925348 0.15844 -1
   vertex 0.926102 0.155332 1
   vertex 0.926102 0.155332 -1
  endloop
 endfacet
 facet normal 0.978662 0.205478 -0
  outer loop
   vertex 0.926102 0.155332 -1
   vertex 0.926102 0.155332 1
   vertex 0.926759 0.152203 1
  endloop
 endfacet
 facet normal 0.978662 0.205478 0
  outer loop
   vertex 0.926102 0.155332 -1
   vertex 0.926759 0.152203 1
   vertex 0.926759 0.152203 -1
  endloop
 endfacet
 facet normal 0.984545 0.175131 -0
  outer loop
   vertex 0.926759 0.152203 -1
   vertex 0.926759 0.152203 1
   vertex 0.927319 0.149055 1
  endloop
 endfacet
 facet normal 0.984545 0.175131 0
  outer loop
   vertex 0.926759 0.152203 -1
   vertex 0.927319 0.149055 1
   vertex 0.927319 0.149055 -1
  endloop
 endfacet
 facet normal 0.989552 0.144174 -0
  outer loop
   vertex 0.927319 0.149055 -1
   vertex 0.927319 0.149055 1
   vertex 0.92778 0.145891 1
  endloop
 endfacet
 facet normal 0.989552 0.144174 0
  outer loop
   vertex 0.927319 0.149055 -1
   vertex 0.92778 0.145891 1
   vertex 0.92778 0.145891 -1
  endloop
 endfacet
 facet normal 0.993499 0.113838 -0
  outer loop
   vertex 0.92778 0.145891 -1
   vertex 0.92778 0.145891 1
   vertex 0.928144 0.142714 1
  endloop
 endfacet
 facet normal 0.993499 0.113838 0
  outer loop
   vertex 0.92778 0.145891 -1
   vertex 0.928144 0.142714 1
   vertex 0.928144 0.142714 -1
  endloop
 endfacet
 facet normal 0.996584 0.0825817 -0
  outer loop
   vertex 0.928144 0.142714 -1
   vertex 0.928144 0.142714 1
   vertex 0.928408 0.139528 1
  endloop
 endfacet
 facet normal 0.996584 0.0825817 0
  outer loop
   vertex 0.928144 0.142714 -1
   vertex 0.928408 0.139528 1
   vertex 0.928408 0.139528 -1
  endloop
 endfacet
 facet normal 0.998668 0.0515974 -0
  outer loop
   vertex 0.928408 0.139528 -1
   vertex 0.928408 0.139528 1
   vertex 0.928573 0.136334 1
  endloop
 endfacet
 facet normal 0.998668 0.0515974 0
  outer loop
   vertex 0.928408 0.139528 -1
   vertex 0.928573 0.136334 1
   vertex 0.928573 0.136334 -1
  endloop
 endfacet
 facet normal 0.99978 0.0209525 -0
  outer loop
   vertex 0.928573 0.136334 -1
   vertex 0.928573 0.136334 1
   vertex 0.92864 0.133138 1
  endloop
 endfacet
 facet normal 0.99978 0.0209525 0
  outer loop
   vertex 0.928573 0.136334 -1
   vertex 0.92864 0.133138 1
   vertex 0.92864 0.133138 -1
  endloop
 endfacet
 facet normal 0.999947 -0.0103272 0
  outer loop
   vertex 0.92864 0.133138 -1
   vertex 0.92864 0.133138 1
   vertex 0.928607 0.12994 1
  endloop
 endfacet
 facet normal 0.999947 -0.0103272 0
  outer loop
   vertex 0.92864 0.133138 -1
   vertex 0.928607 0.12994 1
   vertex 0.928607 0.12994 -1
  endloop
 endfacet
 facet normal 0.999135 -0.0415885 0
  outer loop
   vertex 0.928607 0.12994 -1
   vertex 0.928607 0.12994 1
   vertex 0.928474 0.126746 1
  endloop
 endfacet
 facet normal 0.999135 -0.0415885 0
  outer loop
   vertex 0.928607 0.12994 -1
   vertex 0.928474 0.126746 1
   vertex 0.928474 0.126746 -1
  endloop
 endfacet
 facet normal 0.997386 -0.0722536 0
  outer loop
   vertex 0.928474 0.126746 -1
   vertex 0.928474 0.126746 1
   vertex 0.928243 0.123557 1
  endloop
 endfacet
 facet normal 0.997386 -0.0722536 0
  outer loop
   vertex 0.928474 0.126746 -1
   vertex 0.928243 0.123557 1
   vertex 0.928243 0.123557 -1
  endloop
 endfacet
 facet normal 0.994661 -0.103198 0
  outer loop
   vertex 0.928243 0.123557 -1
   vertex 0.928243 0.123557 1
   vertex 0.927913 0.120376 1
  endloop
 endfacet
 facet normal 0.994661 -0.103198 0
  outer loop
   vertex 0.928243 0.123557 -1
   vertex 0.927913 0.120376 1
   vertex 0.927913 0.120376 -1
  endloop
 endfacet
 facet normal -0.156478 -0.987681 -0
  outer loop
   vertex 0.923422 0.117113 1
   vertex 0.921447 0.117426 1
   vertex 0.923422 0.117113 -1
  endloop
 endfacet
 facet normal -0.156478 -0.987681 0
  outer loop
   vertex 0.923422 0.117113 -1
   vertex 0.921447 0.117426 1
   vertex 0.921447 0.117426 -1
  endloop
 endfacet
 facet normal -0.99008 0.140507 0
  outer loop
   vertex 0.921447 0.117426 -1
   vertex 0.921447 0.117426 1
   vertex 0.921885 0.120513 -1
  endloop
 endfacet
 facet normal -0.99008 0.140507 0
  outer loop
   vertex 0.921885 0.120513 -1
   vertex 0.921447 0.117426 1
   vertex 0.921885 0.120513 1
  endloop
 endfacet
 facet normal -0.994071 0.108729 0
  outer loop
   vertex 0.921885 0.120513 -1
   vertex 0.921885 0.120513 1
   vertex 0.922224 0.123612 -1
  endloop
 endfacet
 facet normal -0.994071 0.108729 0
  outer loop
   vertex 0.922224 0.123612 -1
   vertex 0.921885 0.120513 1
   vertex 0.922224 0.123612 1
  endloop
 endfacet
 facet normal -0.997081 0.0763461 0
  outer loop
   vertex 0.922224 0.123612 -1
   vertex 0.922224 0.123612 1
   vertex 0.922462 0.12672 -1
  endloop
 endfacet
 facet normal -0.997081 0.0763461 0
  outer loop
   vertex 0.922462 0.12672 -1
   vertex 0.922224 0.123612 1
   vertex 0.922462 0.12672 1
  endloop
 endfacet
 facet normal -0.998991 0.0449107 0
  outer loop
   vertex 0.922462 0.12672 -1
   vertex 0.922462 0.12672 1
   vertex 0.922602 0.129835 -1
  endloop
 endfacet
 facet normal -0.998991 0.0449107 0
  outer loop
   vertex 0.922602 0.129835 -1
   vertex 0.922462 0.12672 1
   vertex 0.922602 0.129835 1
  endloop
 endfacet
 facet normal -0.999926 0.012198 0
  outer loop
   vertex 0.922602 0.129835 -1
   vertex 0.922602 0.129835 1
   vertex 0.92264 0.132952 -1
  endloop
 endfacet
 facet normal -0.999926 0.012198 0
  outer loop
   vertex 0.92264 0.132952 -1
   vertex 0.922602 0.129835 1
   vertex 0.92264 0.132952 1
  endloop
 endfacet
 facet normal -0.999808 -0.0195782 0
  outer loop
   vertex 0.92264 0.132952 -1
   vertex 0.92264 0.132952 1
   vertex 0.922579 0.136069 -1
  endloop
 endfacet
 facet normal -0.999808 -0.0195782 0
  outer loop
   vertex 0.922579 0.136069 -1
   vertex 0.92264 0.132952 1
   vertex 0.922579 0.136069 1
  endloop
 endfacet
 facet normal -0.998666 -0.0516404 0
  outer loop
   vertex 0.922579 0.136069 -1
   vertex 0.922579 0.136069 1
   vertex 0.922418 0.139182 -1
  endloop
 endfacet
 facet normal -0.998666 -0.0516404 0
  outer loop
   vertex 0.922418 0.139182 -1
   vertex 0.922579 0.136069 1
   vertex 0.922418 0.139182 1
  endloop
 endfacet
 facet normal -0.996462 -0.0840479 0
  outer loop
   vertex 0.922418 0.139182 -1
   vertex 0.922418 0.139182 1
   vertex 0.922156 0.142289 -1
  endloop
 endfacet
 facet normal -0.996462 -0.0840479 0
  outer loop
   vertex 0.922156 0.142289 -1
   vertex 0.922418 0.139182 1
   vertex 0.922156 0.142289 1
  endloop
 endfacet
 facet normal -0.993274 -0.115784 0
  outer loop
   vertex 0.922156 0.142289 -1
   vertex 0.922156 0.142289 1
   vertex 0.921795 0.145385 -1
  endloop
 endfacet
 facet normal -0.993274 -0.115784 0
  outer loop
   vertex 0.921795 0.145385 -1
   vertex 0.922156 0.142289 1
   vertex 0.921795 0.145385 1
  endloop
 endfacet
 facet normal -0.989052 -0.147567 0
  outer loop
   vertex 0.921795 0.145385 -1
   vertex 0.921795 0.145385 1
   vertex 0.921335 0.148469 -1
  endloop
 endfacet
 facet normal -0.989052 -0.147567 0
  outer loop
   vertex 0.921335 0.148469 -1
   vertex 0.921795 0.145385 1
   vertex 0.921335 0.148469 1
  endloop
 endfacet
 facet normal -0.983794 -0.1793 0
  outer loop
   vertex 0.921335 0.148469 -1
   vertex 0.921335 0.148469 1
   vertex 0.920776 0.151536 -1
  endloop
 endfacet
 facet normal -0.983794 -0.1793 0
  outer loop
   vertex 0.920776 0.151536 -1
   vertex 0.921335 0.148469 1
   vertex 0.920776 0.151536 1
  endloop
 endfacet
 facet normal -0.977471 -0.211069 0
  outer loop
   vertex 0.920776 0.151536 -1
   vertex 0.920776 0.151536 1
   vertex 0.920118 0.154583 -1
  endloop
 endfacet
 facet normal -0.977471 -0.211069 0
  outer loop
   vertex 0.920118 0.154583 -1
   vertex 0.920776 0.151536 1
   vertex 0.920118 0.154583 1
  endloop
 endfacet
 facet normal -0.970235 -0.242166 0
  outer loop
   vertex 0.920118 0.154583 -1
   vertex 0.920118 0.154583 1
   vertex 0.919363 0.157608 -1
  endloop
 endfacet
 facet normal -0.970235 -0.242166 0
  outer loop
   vertex 0.919363 0.157608 -1
   vertex 0.920118 0.154583 1
   vertex 0.919363 0.157608 1
  endloop
 endfacet
 facet normal -0.961928 -0.273303 0
  outer loop
   vertex 0.919363 0.157608 -1
   vertex 0.919363 0.157608 1
   vertex 0.918511 0.160607 -1
  endloop
 endfacet
 facet normal -0.961928 -0.273303 0
  outer loop
   vertex 0.918511 0.160607 -1
   vertex 0.919363 0.157608 1
   vertex 0.918511 0.160607 1
  endloop
 endfacet
 facet normal -0.95274 -0.303786 0
  outer loop
   vertex 0.918511 0.160607 -1
   vertex 0.918511 0.160607 1
   vertex 0.917564 0.163577 -1
  endloop
 endfacet
 facet normal -0.95274 -0.303786 0
  outer loop
   vertex 0.917564 0.163577 -1
   vertex 0.918511 0.160607 1
   vertex 0.917564 0.163577 1
  endloop
 endfacet
 facet normal -0.942383 -0.334537 0
  outer loop
   vertex 0.917564 0.163577 -1
   vertex 0.917564 0.163577 1
   vertex 0.916521 0.166514 -1
  endloop
 endfacet
 facet normal -0.942383 -0.334537 0
  outer loop
   vertex 0.916521 0.166514 -1
   vertex 0.917564 0.163577 1
   vertex 0.916521 0.166514 1
  endloop
 endfacet
 facet normal -0.931236 -0.364417 0
  outer loop
   vertex 0.916521 0.166514 -1
   vertex 0.916521 0.166514 1
   vertex 0.915385 0.169417 -1
  endloop
 endfacet
 facet normal -0.931236 -0.364417 0
  outer loop
   vertex 0.915385 0.169417 -1
   vertex 0.916521 0.166514 1
   vertex 0.915385 0.169417 1
  endloop
 endfacet
 facet normal -0.918896 -0.394499 0
  outer loop
   vertex 0.915385 0.169417 -1
   vertex 0.915385 0.169417 1
   vertex 0.914155 0.172282 -1
  endloop
 endfacet
 facet normal -0.918896 -0.394499 0
  outer loop
   vertex 0.914155 0.172282 -1
   vertex 0.915385 0.169417 1
   vertex 0.914155 0.172282 1
  endloop
 endfacet
 facet normal -0.905919 -0.423451 0
  outer loop
   vertex 0.914155 0.172282 -1
   vertex 0.914155 0.172282 1
   vertex 0.912835 0.175106 -1
  endloop
 endfacet
 facet normal -0.905919 -0.423451 0
  outer loop
   vertex 0.912835 0.175106 -1
   vertex 0.914155 0.172282 1
   vertex 0.912835 0.175106 1
  endloop
 endfacet
 facet normal -0.891715 -0.452597 0
  outer loop
   vertex 0.912835 0.175106 -1
   vertex 0.912835 0.175106 1
   vertex 0.911424 0.177886 -1
  endloop
 endfacet
 facet normal -0.891715 -0.452597 0
  outer loop
   vertex 0.911424 0.177886 -1
   vertex 0.912835 0.175106 1
   vertex 0.911424 0.177886 1
  endloop
 endfacet
 facet normal -0.876802 -0.480851 0
  outer loop
   vertex 0.911424 0.177886 -1
   vertex 0.911424 0.177886 1
   vertex 0.909925 0.18062 -1
  endloop
 endfacet
 facet normal -0.876802 -0.480851 0
  outer loop
   vertex 0.909925 0.18062 -1
   vertex 0.911424 0.177886 1
   vertex 0.909925 0.18062 1
  endloop
 endfacet
 facet normal -0.860771 -0.508992 0
  outer loop
   vertex 0.909925 0.18062 -1
   vertex 0.909925 0.18062 1
   vertex 0.908338 0.183304 -1
  endloop
 endfacet
 facet normal -0.860771 -0.508992 0
  outer loop
   vertex 0.908338 0.183304 -1
   vertex 0.909925 0.18062 1
   vertex 0.908338 0.183304 1
  endloop
 endfacet
 facet normal -0.844173 -0.536071 0
  outer loop
   vertex 0.908338 0.183304 -1
   vertex 0.908338 0.183304 1
   vertex 0.906667 0.185935 -1
  endloop
 endfacet
 facet normal -0.844173 -0.536071 0
  outer loop
   vertex 0.906667 0.185935 -1
   vertex 0.908338 0.183304 1
   vertex 0.906667 0.185935 1
  endloop
 endfacet
 facet normal -0.826314 -0.563209 0
  outer loop
   vertex 0.906667 0.185935 -1
   vertex 0.906667 0.185935 1
   vertex 0.904911 0.188511 -1
  endloop
 endfacet
 facet normal -0.826314 -0.563209 0
  outer loop
   vertex 0.904911 0.188511 -1
   vertex 0.906667 0.185935 1
   vertex 0.904911 0.188511 1
  endloop
 endfacet
 facet normal -0.80793 -0.589278 0
  outer loop
   vertex 0.904911 0.188511 -1
   vertex 0.904911 0.188511 1
   vertex 0.903074 0.19103 -1
  endloop
 endfacet
 facet normal -0.80793 -0.589278 0
  outer loop
   vertex 0.903074 0.19103 -1
   vertex 0.904911 0.188511 1
   vertex 0.903074 0.19103 1
  endloop
 endfacet
 facet normal -0.788575 -0.614938 0
  outer loop
   vertex 0.903074 0.19103 -1
   vertex 0.903074 0.19103 1
   vertex 0.901157 0.193488 -1
  endloop
 endfacet
 facet normal -0.788575 -0.614938 0
  outer loop
   vertex 0.901157 0.193488 -1
   vertex 0.903074 0.19103 1
   vertex 0.901157 0.193488 1
  endloop
 endfacet
 facet normal -0.768228 -0.640176 0
  outer loop
   vertex 0.901157 0.193488 -1
   vertex 0.901157 0.193488 1
   vertex 0.899161 0.195883 -1
  endloop
 endfacet
 facet normal -0.768228 -0.640176 0
  outer loop
   vertex 0.899161 0.195883 -1
   vertex 0.901157 0.193488 1
   vertex 0.899161 0.195883 1
  endloop
 endfacet
 facet normal -0.747447 -0.664321 0
  outer loop
   vertex 0.899161 0.195883 -1
   vertex 0.899161 0.195883 1
   vertex 0.89709 0.198214 -1
  endloop
 endfacet
 facet normal -0.747447 -0.664321 0
  outer loop
   vertex 0.89709 0.198214 -1
   vertex 0.899161 0.195883 1
   vertex 0.89709 0.198214 1
  endloop
 endfacet
 facet normal -0.725671 -0.688042 0
  outer loop
   vertex 0.89709 0.198214 -1
   vertex 0.89709 0.198214 1
   vertex 0.894945 0.200476 -1
  endloop
 endfacet
 facet normal -0.725671 -0.688042 0
  outer loop
   vertex 0.894945 0.200476 -1
   vertex 0.89709 0.198214 1
   vertex 0.894945 0.200476 1
  endloop
 endfacet
 facet normal -0.703272 -0.710921 0
  outer loop
   vertex 0.894945 0.200476 -1
   vertex 0.894945 0.200476 1
   vertex 0.892729 0.202668 -1
  endloop
 endfacet
 facet normal -0.703272 -0.710921 0
  outer loop
   vertex 0.892729 0.202668 -1
   vertex 0.894945 0.200476 1
   vertex 0.892729 0.202668 1
  endloop
 endfacet
 facet normal -0.679973 -0.733237 0
  outer loop
   vertex 0.892729 0.202668 -1
   vertex 0.892729 0.202668 1
   vertex 0.890443 0.204788 -1
  endloop
 endfacet
 facet normal -0.679973 -0.733237 0
  outer loop
   vertex 0.890443 0.204788 -1
   vertex 0.892729 0.202668 1
   vertex 0.890443 0.204788 1
  endloop
 endfacet
 facet normal -0.656015 -0.754748 0
  outer loop
   vertex 0.890443 0.204788 -1
   vertex 0.890443 0.204788 1
   vertex 0.88809 0.206833 -1
  endloop
 endfacet
 facet normal -0.656015 -0.754748 0
  outer loop
   vertex 0.88809 0.206833 -1
   vertex 0.890443 0.204788 1
   vertex 0.88809 0.206833 1
  endloop
 endfacet
 facet normal -0.631532 -0.77535 0
  outer loop
   vertex 0.88809 0.206833 -1
   vertex 0.88809 0.206833 1
   vertex 0.885673 0.208802 -1
  endloop
 endfacet
 facet normal -0.631532 -0.77535 0
  outer loop
   vertex 0.885673 0.208802 -1
   vertex 0.88809 0.206833 1
   vertex 0.885673 0.208802 1
  endloop
 endfacet
 facet normal -0.606145 -0.795354 0
  outer loop
   vertex 0.885673 0.208802 -1
   vertex 0.885673 0.208802 1
   vertex 0.883193 0.210692 -1
  endloop
 endfacet
 facet normal -0.606145 -0.795354 0
  outer loop
   vertex 0.883193 0.210692 -1
   vertex 0.885673 0.208802 1
   vertex 0.883193 0.210692 1
  endloop
 endfacet
 facet normal -0.580325 -0.814385 0
  outer loop
   vertex 0.883193 0.210692 -1
   vertex 0.883193 0.210692 1
   vertex 0.880654 0.212501 -1
  endloop
 endfacet
 facet normal -0.580325 -0.814385 0
  outer loop
   vertex 0.880654 0.212501 -1
   vertex 0.883193 0.210692 1
   vertex 0.880654 0.212501 1
  endloop
 endfacet
 facet normal -0.554019 -0.832504 0
  outer loop
   vertex 0.880654 0.212501 -1
   vertex 0.880654 0.212501 1
   vertex 0.878059 0.214228 -1
  endloop
 endfacet
 facet normal -0.554019 -0.832504 0
  outer loop
   vertex 0.878059 0.214228 -1
   vertex 0.880654 0.212501 1
   vertex 0.878059 0.214228 1
  endloop
 endfacet
 facet normal -0.52682 -0.849977 0
  outer loop
   vertex 0.878059 0.214228 -1
   vertex 0.878059 0.214228 1
   vertex 0.875409 0.215871 -1
  endloop
 endfacet
 facet normal -0.52682 -0.849977 0
  outer loop
   vertex 0.875409 0.215871 -1
   vertex 0.878059 0.214228 1
   vertex 0.875409 0.215871 1
  endloop
 endfacet
 facet normal -0.499299 -0.86643 0
  outer loop
   vertex 0.875409 0.215871 -1
   vertex 0.875409 0.215871 1
   vertex 0.872708 0.217427 -1
  endloop
 endfacet
 facet normal -0.499299 -0.86643 0
  outer loop
   vertex 0.872708 0.217427 -1
   vertex 0.875409 0.215871 1
   vertex 0.872708 0.217427 1
  endloop
 endfacet
 facet normal -0.471191 -0.882031 0
  outer loop
   vertex 0.872708 0.217427 -1
   vertex 0.872708 0.217427 1
   vertex 0.869958 0.218896 -1
  endloop
 endfacet
 facet normal -0.471191 -0.882031 0
  outer loop
   vertex 0.869958 0.218896 -1
   vertex 0.872708 0.217427 1
   vertex 0.869958 0.218896 1
  endloop
 endfacet
 facet normal -0.442667 -0.896686 0
  outer loop
   vertex 0.869958 0.218896 -1
   vertex 0.869958 0.218896 1
   vertex 0.867163 0.220276 -1
  endloop
 endfacet
 facet normal -0.442667 -0.896686 0
  outer loop
   vertex 0.867163 0.220276 -1
   vertex 0.869958 0.218896 1
   vertex 0.867163 0.220276 1
  endloop
 endfacet
 facet normal -0.413493 -0.910507 0
  outer loop
   vertex 0.867163 0.220276 -1
   vertex 0.867163 0.220276 1
   vertex 0.864324 0.221565 -1
  endloop
 endfacet
 facet normal -0.413493 -0.910507 0
  outer loop
   vertex 0.864324 0.221565 -1
   vertex 0.867163 0.220276 1
   vertex 0.864324 0.221565 1
  endloop
 endfacet
 facet normal -0.384137 -0.923276 0
  outer loop
   vertex 0.864324 0.221565 -1
   vertex 0.864324 0.221565 1
   vertex 0.861446 0.222763 -1
  endloop
 endfacet
 facet normal -0.384137 -0.923276 0
  outer loop
   vertex 0.861446 0.222763 -1
   vertex 0.864324 0.221565 1
   vertex 0.861446 0.222763 1
  endloop
 endfacet
 facet normal -0.35429 -0.935136 0
  outer loop
   vertex 0.861446 0.222763 -1
   vertex 0.861446 0.222763 1
   vertex 0.858531 0.223867 -1
  endloop
 endfacet
 facet normal -0.35429 -0.935136 0
  outer loop
   vertex 0.858531 0.223867 -1
   vertex 0.861446 0.222763 1
   vertex 0.858531 0.223867 1
  endloop
 endfacet
 facet normal -0.323942 -0.946077 0
  outer loop
   vertex 0.858531 0.223867 -1
   vertex 0.858531 0.223867 1
   vertex 0.855581 0.224877 -1
  endloop
 endfacet
 facet normal -0.323942 -0.946077 0
  outer loop
   vertex 0.855581 0.224877 -1
   vertex 0.858531 0.223867 1
   vertex 0.855581 0.224877 1
  endloop
 endfacet
 facet normal -0.293494 -0.955961 0
  outer loop
   vertex 0.855581 0.224877 -1
   vertex 0.855581 0.224877 1
   vertex 0.852601 0.225792 -1
  endloop
 endfacet
 facet normal -0.293494 -0.955961 0
  outer loop
   vertex 0.852601 0.225792 -1
   vertex 0.855581 0.224877 1
   vertex 0.852601 0.225792 1
  endloop
 endfacet
 facet normal -0.26259 -0.964908 0
  outer loop
   vertex 0.852601 0.225792 -1
   vertex 0.852601 0.225792 1
   vertex 0.849593 0.226611 -1
  endloop
 endfacet
 facet normal -0.26259 -0.964908 0
  outer loop
   vertex 0.849593 0.226611 -1
   vertex 0.852601 0.225792 1
   vertex 0.849593 0.226611 1
  endloop
 endfacet
 facet normal -0.231426 -0.972852 0
  outer loop
   vertex 0.849593 0.226611 -1
   vertex 0.849593 0.226611 1
   vertex 0.84656 0.227332 -1
  endloop
 endfacet
 facet normal -0.231426 -0.972852 0
  outer loop
   vertex 0.84656 0.227332 -1
   vertex 0.849593 0.226611 1
   vertex 0.84656 0.227332 1
  endloop
 endfacet
 facet normal -0.200092 -0.979777 0
  outer loop
   vertex 0.84656 0.227332 -1
   vertex 0.84656 0.227332 1
   vertex 0.843506 0.227956 -1
  endloop
 endfacet
 facet normal -0.200092 -0.979777 0
  outer loop
   vertex 0.843506 0.227956 -1
   vertex 0.84656 0.227332 1
   vertex 0.843506 0.227956 1
  endloop
 endfacet
 facet normal -0.168467 -0.985707 0
  outer loop
   vertex 0.843506 0.227956 -1
   vertex 0.843506 0.227956 1
   vertex 0.840433 0.228481 -1
  endloop
 endfacet
 facet normal -0.168467 -0.985707 0
  outer loop
   vertex 0.840433 0.228481 -1
   vertex 0.843506 0.227956 1
   vertex 0.840433 0.228481 1
  endloop
 endfacet
 facet normal -0.13671 -0.990611 0
  outer loop
   vertex 0.840433 0.228481 -1
   vertex 0.840433 0.228481 1
   vertex 0.837344 0.228907 -1
  endloop
 endfacet
 facet normal -0.13671 -0.990611 0
  outer loop
   vertex 0.837344 0.228907 -1
   vertex 0.840433 0.228481 1
   vertex 0.837344 0.228907 1
  endloop
 endfacet
 facet normal -0.104838 -0.994489 0
  outer loop
   vertex 0.837344 0.228907 -1
   vertex 0.837344 0.228907 1
   vertex 0.834244 0.229234 -1
  endloop
 endfacet
 facet normal -0.104838 -0.994489 0
  outer loop
   vertex 0.834244 0.229234 -1
   vertex 0.837344 0.228907 1
   vertex 0.834244 0.229234 1
  endloop
 endfacet
 facet normal -0.0728193 -0.997345 0
  outer loop
   vertex 0.834244 0.229234 -1
   vertex 0.834244 0.229234 1
   vertex 0.831135 0.229461 -1
  endloop
 endfacet
 facet normal -0.0728193 -0.997345 0
  outer loop
   vertex 0.831135 0.229461 -1
   vertex 0.834244 0.229234 1
   vertex 0.831135 0.229461 1
  endloop
 endfacet
 facet normal -0.0407053 -0.999171 0
  outer loop
   vertex 0.831135 0.229461 -1
   vertex 0.831135 0.229461 1
   vertex 0.82802 0.229588 -1
  endloop
 endfacet
 facet normal -0.0407053 -0.999171 0
  outer loop
   vertex 0.82802 0.229588 -1
   vertex 0.831135 0.229461 1
   vertex 0.82802 0.229588 1
  endloop
 endfacet
 facet normal -0.999846 -0.0175246 -0
  outer loop
   vertex 0.823863 0.233602 1
   vertex 0.823828 0.235602 1
   vertex 0.823863 0.233602 -1
  endloop
 endfacet
 facet normal -0.999846 -0.0175246 0
  outer loop
   vertex 0.823863 0.233602 -1
   vertex 0.823828 0.235602 1
   vertex 0.823828 0.235602 -1
  endloop
 endfacet
 facet normal 0 0 -1
  outer loop
   vertex 0.823863 0.233602 -1
   vertex 0.823828 0.235602 -1
   vertex 0.82802 0.229588 -1
  endloop
 endfacet
 facet normal 0 0 -1
  outer loop
   vertex 0.82802 0.229588 -1
   vertex 0.823828 0.235602 -1
   vertex 0.827025 0.235608 -1
  endloop
 endfacet
 facet normal 0 0 -1
  outer loop
   vertex 0.82802 0.229588 -1
   vertex 0.827025 0.235608 -1
   vertex 0.831135 0.229461 -1
  endloop
 endfacet
 facet normal 0 0 -1
  outer loop
   vertex 0.831135 0.229461 -1
   vertex 0.827025 0.235608 -1
   vertex 0.830222 0.235515 -1
  endloop
 endfacet
 facet normal 0 0 -1
  outer loop
   vertex 0.831135 0.229461 -1
   vertex 0.830222 0.235515 -1
   vertex 0.834244 0.229234 -1
  endloop
 endfacet
 facet normal 0 0 -1
  outer loop
   vertex 0.834244 0.229234 -1
   vertex 0.830222 0.235515 -1
   vertex 0.833413 0.235323 -1
  endloop
 endfacet
 facet normal 0 0 -1
  outer loop
   vertex 0.834244 0.229234 -1
   vertex 0.833413 0.235323 -1
   vertex 0.837344 0.228907 -1
  endloop
 endfacet
 facet normal 0 0 -1
  outer loop
   vertex 0.837344 0.228907 -1
   vertex 0.833413 0.235323 -1
   vertex 0.836598 0.235032 -1
  endloop
 endfacet
 facet normal 0 0 -1
  outer loop
   vertex 0.837344 0.228907 -1
   vertex 0.836598 0.235032 -1
   vertex 0.840433 0.228481 -1
  endloop
 endfacet
 facet normal 0 0 -1
  outer loop
   vertex 0.923422 0.117113 -1
   vertex 0.921447 0.117426 -1
   vertex 0.927913 0.120376 -1
  endloop
 endfacet
 facet normal -0 0 -1
  outer loop
   vertex 0.927913 0.120376 -1
   vertex 0.921447 0.117426 -1
   vertex 0.921885 0.120513 -1
  endloop
 endfacet
 facet normal 0 0 -1
  outer loop
   vertex 0.927913 0.120376 -1
   vertex 0.921885 0.120513 -1
   vertex 0.928243 0.123557 -1
  endloop
 endfacet
 facet normal -0 0 -1
  outer loop
   vertex 0.928243 0.123557 -1
   vertex 0.921885 0.120513 -1
   vertex 0.922224 0.123612 -1
  endloop
 endfacet
 facet normal 0 0 -1
  outer loop
   vertex 0.928243 0.123557 -1
   vertex 0.922224 0.123612 -1
   vertex 0.928474 0.126746 -1
  endloop
 endfacet
 facet normal 0 0 -1
  outer loop
   vertex 0.928474 0.126746 -1
   vertex 0.922224 0.123612 -1
   vertex 0.922462 0.12672 -1
  endloop
 endfacet
 facet normal -0 0 -1
  outer loop
   vertex 0.928474 0.126746 -1
   vertex 0.922462 0.12672 -1
   vertex 0.928607 0.12994 -1
  endloop
 endfacet
 facet normal 0 0 -1
  outer loop
   vertex 0.928607 0.12994 -1
   vertex 0.922462 0.12672 -1
   vertex 0.922602 0.129835 -1
  endloop
 endfacet
 facet normal -0 0 -1
  outer loop
   vertex 0.928607 0.12994 -1
   vertex 0.922602 0.129835 -1
   vertex 0.92864 0.133138 -1
  endloop
 endfacet
 facet normal 0 0 -1
  outer loop
   vertex 0.92864 0.133138 -1
   vertex 0.922602 0.129835 -1
   vertex 0.92264 0.132952 -1
  endloop
 endfacet
 facet normal -0 0 -1
  outer loop
   vertex 0.92864 0.133138 -1
   vertex 0.92264 0.132952 -1
   vertex 0.928573 0.136334 -1
  endloop
 endfacet
 facet normal 0 0 -1
  outer loop
   vertex 0.928573 0.136334 -1
   vertex 0.92264 0.132952 -1
   vertex 0.922579 0.136069 -1
  endloop
 endfacet
 facet normal -0 0 -1
  outer loop
   vertex 0.928573 0.136334 -1
   vertex 0.922579 0.136069 -1
   vertex 0.928408 0.139528 -1
  endloop
 endfacet
 facet normal 0 0 -1
  outer loop
   vertex 0.928408 0.139528 -1
   vertex 0.922579 0.136069 -1
   vertex 0.922418 0.139182 -1
  endloop
 endfacet
 facet normal -0 0 -1
  outer loop
   vertex 0.928408 0.139528 -1
   vertex 0.922418 0.139182 -1
   vertex 0.928144 0.142714 -1
  endloop
 endfacet
 facet normal 0 0 -1
  outer loop
   vertex 0.928144 0.142714 -1
   vertex 0.922418 0.139182 -1
   vertex 0.922156 0.142289 -1
  endloop
 endfacet
 facet normal -0 0 -1
  outer loop
   vertex 0.928144 0.142714 -1
   vertex 0.922156 0.142289 -1
   vertex 0.92778 0.145891 -1
  endloop
 endfacet
 facet normal 0 0 -1
  outer loop
   vertex 0.92778 0.145891 -1
   vertex 0.922156 0.142289 -1
   vertex 0.921795 0.145385 -1
  endloop
 endfacet
 facet normal -0 0 -1
  outer loop
   vertex 0.92778 0.145891 -1
   vertex 0.921795 0.145385 -1
   vertex 0.927319 0.149055 -1
  endloop
 endfacet
 facet normal 0 0 -1
  outer loop
   vertex 0.927319 0.149055 -1
   vertex 0.921795 0.145385 -1
   vertex 0.921335 0.148469 -1
  endloop
 endfacet
 facet normal -0 0 -1
  outer loop
   vertex 0.927319 0.149055 -1
   vertex 0.921335 0.148469 -1
   vertex 0.926759 0.152203 -1
  endloop
 endfacet
 facet normal 0 0 -1
  outer loop
   vertex 0.926759 0.152203 -1
   vertex 0.921335 0.148469 -1
   vertex 0.920776 0.151536 -1
  endloop
 endfacet
 facet normal -0 0 -1
  outer loop
   vertex 0.926759 0.152203 -1
   vertex 0.920776 0.151536 -1
   vertex 0.926102 0.155332 -1
  endloop
 endfacet
 facet normal 0 0 -1
  outer loop
   vertex 0.926102 0.155332 -1
   vertex 0.920776 0.151536 -1
   vertex 0.920118 0.154583 -1
  endloop
 endfacet
 facet normal -0 0 -1
  outer loop
   vertex 0.926102 0.155332 -1
   vertex 0.920118 0.154583 -1
   vertex 0.925348 0.15844 -1
  endloop
 endfacet
 facet normal 0 0 -1
  outer loop
   vertex 0.925348 0.15844 -1
   vertex 0.920118 0.154583 -1
   vertex 0.919363 0.157608 -1
  endloop
 endfacet
 facet normal -0 0 -1
  outer loop
   vertex 0.925348 0.15844 -1
   vertex 0.919363 0.157608 -1
   vertex 0.924498 0.161522 -1
  endloop
 endfacet
 facet normal 0 0 -1
  outer loop
   vertex 0.924498 0.161522 -1
   vertex 0.919363 0.157608 -1
   vertex 0.918511 0.160607 -1
  endloop
 endfacet
 facet normal -0 0 -1
  outer loop
   vertex 0.924498 0.161522 -1
   vertex 0.918511 0.160607 -1
   vertex 0.923553 0.164577 -1
  endloop
 endfacet
 facet normal 0 0 -1
  outer loop
   vertex 0.923553 0.164577 -1
   vertex 0.918511 0.160607 -1
   vertex 0.917564 0.163577 -1
  endloop
 endfacet
 facet normal -0 0 -1
  outer loop
   vertex 0.923553 0.164577 -1
   vertex 0.917564 0.163577 -1
   vertex 0.922514 0.167601 -1
  endloop
 endfacet
 facet normal 0 0 -1
  outer loop
   vertex 0.922514 0.167601 -1
   vertex 0.917564 0.163577 -1
   vertex 0.916521 0.166514 -1
  endloop
 endfacet
 facet normal -0 0 -1
  outer loop
   vertex 0.922514 0.167601 -1
   vertex 0.916521 0.166514 -1
   vertex 0.921381 0.170591 -1
  endloop
 endfacet
 facet normal 0 0 -1
  outer loop
   vertex 0.921381 0.170591 -1
   vertex 0.916521 0.166514 -1
   vertex 0.915385 0.169417 -1
  endloop
 endfacet
 facet normal -0 0 -1
  outer loop
   vertex 0.921381 0.170591 -1
   vertex 0.915385 0.169417 -1
   vertex 0.920156 0.173544 -1
  endloop
 endfacet
 facet normal 0 0 -1
  outer loop
   vertex 0.920156 0.173544 -1
   vertex 0.915385 0.169417 -1
   vertex 0.914155 0.172282 -1
  endloop
 endfacet
 facet normal -0 0 -1
  outer loop
   vertex 0.920156 0.173544 -1
   vertex 0.914155 0.172282 -1
   vertex 0.91884 0.176458 -1
  endloop
 endfacet
 facet normal 0 0 -1
  outer loop
   vertex 0.91884 0.176458 -1
   vertex 0.914155 0.172282 -1
   vertex 0.912835 0.175106 -1
  endloop
 endfacet
 facet normal -0 0 -1
  outer loop
   vertex 0.91884 0.176458 -1
   vertex 0.912835 0.175106 -1
   vertex 0.917434 0.17933 -1
  endloop
 endfacet
 facet normal 0 0 -1
  outer loop
   vertex 0.917434 0.17933 -1
   vertex 0.912835 0.175106 -1
   vertex 0.911424 0.177886 -1
  endloop
 endfacet
 facet normal -0 0 -1
  outer loop
   vertex 0.917434 0.17933 -1
   vertex 0.911424 0.177886 -1
   vertex 0.915939 0.182157 -1
  endloop
 endfacet
 facet normal 0 0 -1
  outer loop
   vertex 0.915939 0.182157 -1
   vertex 0.911424 0.177886 -1
   vertex 0.909925 0.18062 -1
  endloop
 endfacet
 facet normal 0 0 -1
  outer loop
   vertex 0.836598 0.235032 -1
   vertex 0.839771 0.234642 -1
   vertex 0.840433 0.228481 -1
  endloop
 endfacet
 facet normal 0 0 -1
  outer loop
   vertex 0.840433 0.228481 -1
   vertex 0.839771 0.234642 -1
   vertex 0.842931 0.234154 -1
  endloop
 endfacet
 facet normal 0 0 -1
  outer loop
   vertex 0.840433 0.228481 -1
   vertex 0.842931 0.234154 -1
   vertex 0.843506 0.227956 -1
  endloop
 endfacet
 facet normal 0 0 -1
  outer loop
   vertex 0.843506 0.227956 -1
   vertex 0.842931 0.234154 -1
   vertex 0.846075 0.233568 -1
  endloop
 endfacet
 facet normal 0 0 -1
  outer loop
   vertex 0.843506 0.227956 -1
   vertex 0.846075 0.233568 -1
   vertex 0.84656 0.227332 -1
  endloop
 endfacet
 facet normal 0 0 -1
  outer loop
   vertex 0.84656 0.227332 -1
   vertex 0.846075 0.233568 -1
   vertex 0.849198 0.232884 -1
  endloop
 endfacet
 facet normal 0 0 -1
  outer loop
   vertex 0.84656 0.227332 -1
   vertex 0.849198 0.232884 -1
   vertex 0.849593 0.226611 -1
  endloop
 endfacet
 facet normal 0 0 -1
  outer loop
   vertex 0.849593 0.226611 -1
   vertex 0.849198 0.232884 -1
   vertex 0.852299 0.232105 -1
  endloop
 endfacet
 facet normal 0 0 -1
  outer loop
   vertex 0.849593 0.226611 -1
   vertex 0.852299 0.232105 -1
   vertex 0.852601 0.225792 -1
  endloop
 endfacet
 facet normal 0 0 -1
  outer loop
   vertex 0.852601 0.225792 -1
   vertex 0.852299 0.232105 -1
   vertex 0.855374 0.231229 -1
  endloop
 endfacet
 facet normal 0 0 -1
  outer loop
   vertex 0.852601 0.225792 -1
   vertex 0.855374 0.231229 -1
   vertex 0.855581 0.224877 -1
  endloop
 endfacet
 facet normal 0 0 -1
  outer loop
   vertex 0.855581 0.224877 -1
   vertex 0.855374 0.231229 -1
   vertex 0.858421 0.230258 -1
  endloop
 endfacet
 facet normal 0 0 -1
  outer loop
   vertex 0.855581 0.224877 -1
   vertex 0.858421 0.230258 -1
   vertex 0.858531 0.223867 -1
  endloop
 endfacet
 facet normal 0 0 -1
  outer loop
   vertex 0.858531 0.223867 -1
   vertex 0.858421 0.230258 -1
   vertex 0.861436 0.229193 -1
  endloop
 endfacet
 facet normal 0 0 -1
  outer loop
   vertex 0.858531 0.223867 -1
   vertex 0.861436 0.229193 -1
   vertex 0.861446 0.222763 -1
  endloop
 endfacet
 facet normal 0 0 -1
  outer loop
   vertex 0.861446 0.222763 -1
   vertex 0.861436 0.229193 -1
   vertex 0.864416 0.228035 -1
  endloop
 endfacet
 facet normal 0 0 -1
  outer loop
   vertex 0.861446 0.222763 -1
   vertex 0.864416 0.228035 -1
   vertex 0.864324 0.221565 -1
  endloop
 endfacet
 facet normal 0 0 -1
  outer loop
   vertex 0.864324 0.221565 -1
   vertex 0.864416 0.228035 -1
   vertex 0.867359 0.226785 -1
  endloop
 endfacet
 facet normal 0 0 -1
  outer loop
   vertex 0.864324 0.221565 -1
   vertex 0.867359 0.226785 -1
   vertex 0.867163 0.220276 -1
  endloop
 endfacet
 facet normal 0 0 -1
  outer loop
   vertex 0.867163 0.220276 -1
   vertex 0.867359 0.226785 -1
   vertex 0.870262 0.225445 -1
  endloop
 endfacet
 facet normal 0 0 -1
  outer loop
   vertex 0.867163 0.220276 -1
   vertex 0.870262 0.225445 -1
   vertex 0.869958 0.218896 -1
  endloop
 endfacet
 facet normal 0 0 -1
  outer loop
   vertex 0.869958 0.218896 -1
   vertex 0.870262 0.225445 -1
   vertex 0.873122 0.224015 -1
  endloop
 endfacet
 facet normal 0 0 -1
  outer loop
   vertex 0.869958 0.218896 -1
   vertex 0.873122 0.224015 -1
   vertex 0.872708 0.217427 -1
  endloop
 endfacet
 facet normal 0 0 -1
  outer loop
   vertex 0.872708 0.217427 -1
   vertex 0.873122 0.224015 -1
   vertex 0.875936 0.222497 -1
  endloop
 endfacet
 facet normal 0 0 -1
  outer loop
   vertex 0.872708 0.217427 -1
   vertex 0.875936 0.222497 -1
   vertex 0.875409 0.215871 -1
  endloop
 endfacet
 facet normal 0 0 -1
  outer loop
   vertex 0.875409 0.215871 -1
   vertex 0.875936 0.222497 -1
   vertex 0.878702 0.220892 -1
  endloop
 endfacet
 facet normal 0 0 -1
  outer loop
   vertex 0.875409 0.215871 -1
   vertex 0.878702 0.220892 -1
   vertex 0.878059 0.214228 -1
  endloop
 endfacet
 facet normal 0 0 -1
  outer loop
   vertex 0.878059 0.214228 -1
   vertex 0.878702 0.220892 -1
   vertex 0.881417 0.219202 -1
  endloop
 endfacet
 facet normal 0 0 -1
  outer loop
   vertex 0.878059 0.214228 -1
   vertex 0.881417 0.219202 -1
   vertex 0.880654 0.212501 -1
  endloop
 endfacet
 facet normal 0 0 -1
  outer loop
   vertex 0.880654 0.212501 -1
   vertex 0.881417 0.219202 -1
   vertex 0.884077 0.217429 -1
  endloop
 endfacet
 facet normal 0 0 -1
  outer loop
   vertex 0.880654 0.212501 -1
   vertex 0.884077 0.217429 -1
   vertex 0.883193 0.210692 -1
  endloop
 endfacet
 facet normal 0 0 -1
  outer loop
   vertex 0.883193 0.210692 -1
   vertex 0.884077 0.217429 -1
   vertex 0.886682 0.215574 -1
  endloop
 endfacet
 facet normal 0 0 -1
  outer loop
   vertex 0.883193 0.210692 -1
   vertex 0.886682 0.215574 -1
   vertex 0.885673 0.208802 -1
  endloop
 endfacet
 facet normal 0 0 -1
  outer loop
   vertex 0.885673 0.208802 -1
   vertex 0.886682 0.215574 -1
   vertex 0.889228 0.213639 -1
  endloop
 endfacet
 facet normal 0 0 -1
  outer loop
   vertex 0.885673 0.208802 -1
   vertex 0.889228 0.213639 -1
   vertex 0.88809 0.206833 -1
  endloop
 endfacet
 facet normal 0 0 -1
  outer loop
   vertex 0.88809 0.206833 -1
   vertex 0.889228 0.213639 -1
   vertex 0.891712 0.211626 -1
  endloop
 endfacet
 facet normal 0 0 -1
  outer loop
   vertex 0.88809 0.206833 -1
   vertex 0.891712 0.211626 -1
   vertex 0.890443 0.204788 -1
  endloop
 endfacet
 facet normal 0 0 -1
  outer loop
   vertex 0.890443 0.204788 -1
   vertex 0.891712 0.211626 -1
   vertex 0.894133 0.209537 -1
  endloop
 endfacet
 facet normal 0 0 -1
  outer loop
   vertex 0.890443 0.204788 -1
   vertex 0.894133 0.209537 -1
   vertex 0.892729 0.202668 -1
  endloop
 endfacet
 facet normal 0 0 -1
  outer loop
   vertex 0.892729 0.202668 -1
   vertex 0.894133 0.209537 -1
   vertex 0.896487 0.207374 -1
  endloop
 endfacet
 facet normal 0 0 -1
  outer loop
   vertex 0.892729 0.202668 -1
   vertex 0.896487 0.207374 -1
   vertex 0.894945 0.200476 -1
  endloop
 endfacet
 facet normal 0 0 -1
  outer loop
   vertex 0.894945 0.200476 -1
   vertex 0.896487 0.207374 -1
   vertex 0.898774 0.205139 -1
  endloop
 endfacet
 facet normal 0 0 -1
  outer loop
   vertex 0.894945 0.200476 -1
   vertex 0.898774 0.205139 -1
   vertex 0.89709 0.198214 -1
  endloop
 endfacet
 facet normal 0 0 -1
  outer loop
   vertex 0.89709 0.198214 -1
   vertex 0.898774 0.205139 -1
   vertex 0.90099 0.202834 -1
  endloop
 endfacet
 facet normal 0 0 -1
  outer loop
   vertex 0.89709 0.198214 -1
   vertex 0.90099 0.202834 -1
   vertex 0.899161 0.195883 -1
  endloop
 endfacet
 facet normal 0 0 -1
  outer loop
   vertex 0.899161 0.195883 -1
   vertex 0.90099 0.202834 -1
   vertex 0.903133 0.200461 -1
  endloop
 endfacet
 facet normal 0 0 -1
  outer loop
   vertex 0.899161 0.195883 -1
   vertex 0.903133 0.200461 -1
   vertex 0.901157 0.193488 -1
  endloop
 endfacet
 facet normal 0 0 -1
  outer loop
   vertex 0.901157 0.193488 -1
   vertex 0.903133 0.200461 -1
   vertex 0.905202 0.198023 -1
  endloop
 endfacet
 facet normal 0 0 -1
  outer loop
   vertex 0.901157 0.193488 -1
   vertex 0.905202 0.198023 -1
   vertex 0.903074 0.19103 -1
  endloop
 endfacet
 facet normal 0 0 -1
  outer loop
   vertex 0.903074 0.19103 -1
   vertex 0.905202 0.198023 -1
   vertex 0.907194 0.195522 -1
  endloop
 endfacet
 facet normal 0 0 -1
  outer loop
   vertex 0.903074 0.19103 -1
   vertex 0.907194 0.195522 -1
   vertex 0.904911 0.188511 -1
  endloop
 endfacet
 facet normal 0 0 -1
  outer loop
   vertex 0.904911 0.188511 -1
   vertex 0.907194 0.195522 -1
   vertex 0.909107 0.19296 -1
  endloop
 endfacet
 facet normal 0 0 -1
  outer loop
   vertex 0.904911 0.188511 -1
   vertex 0.909107 0.19296 -1
   vertex 0.906667 0.185935 -1
  endloop
 endfacet
 facet normal 0 0 -1
  outer loop
   vertex 0.906667 0.185935 -1
   vertex 0.909107 0.19296 -1
   vertex 0.91094 0.19034 -1
  endloop
 endfacet
 facet normal 0 0 -1
  outer loop
   vertex 0.906667 0.185935 -1
   vertex 0.91094 0.19034 -1
   vertex 0.908338 0.183304 -1
  endloop
 endfacet
 facet normal 0 0 -1
  outer loop
   vertex 0.908338 0.183304 -1
   vertex 0.91094 0.19034 -1
   vertex 0.912691 0.187664 -1
  endloop
 endfacet
 facet normal 0 0 -1
  outer loop
   vertex 0.908338 0.183304 -1
   vertex 0.912691 0.187664 -1
   vertex 0.909925 0.18062 -1
  endloop
 endfacet
 facet normal 0 0 -1
  outer loop
   vertex 0.909925 0.18062 -1
   vertex 0.912691 0.187664 -1
   vertex 0.914358 0.184936 -1
  endloop
 endfacet
 facet normal 0 0 -1
  outer loop
   vertex 0.909925 0.18062 -1
   vertex 0.914358 0.184936 -1
   vertex 0.915939 0.182157 -1
  endloop
 endfacet
 facet normal -0 0 1
  outer loop
   vertex 0.823828 0.235602 1
   vertex 0.823863 0.233602 1
   vertex 0.827025 0.235608 1
  endloop
 endfacet
 facet normal 0 0 1
  outer loop
   vertex 0.827025 0.235608 1
   vertex 0.823863 0.233602 1
   vertex 0.82802 0.229588 1
  endloop
 endfacet
 facet normal 0 0 1
  outer loop
   vertex 0.827025 0.235608 1
   vertex 0.82802 0.229588 1
   vertex 0.830222 0.235515 1
  endloop
 endfacet
 facet normal 0 0 1
  outer loop
   vertex 0.830222 0.235515 1
   vertex 0.82802 0.229588 1
   vertex 0.831135 0.229461 1
  endloop
 endfacet
 facet normal 0 0 1
  outer loop
   vertex 0.830222 0.235515 1
   vertex 0.831135 0.229461 1
   vertex 0.833413 0.235323 1
  endloop
 endfacet
 facet normal 0 0 1
  outer loop
   vertex 0.833413 0.235323 1
   vertex 0.831135 0.229461 1
   vertex 0.834244 0.229234 1
  endloop
 endfacet
 facet normal 0 0 1
  outer loop
   vertex 0.833413 0.235323 1
   vertex 0.834244 0.229234 1
   vertex 0.836598 0.235032 1
  endloop
 endfacet
 facet normal 0 0 1
  outer loop
   vertex 0.836598 0.235032 1
   vertex 0.834244 0.229234 1
   vertex 0.837344 0.228907 1
  endloop
 endfacet
 facet normal 0 0 1
  outer loop
   vertex 0.836598 0.235032 1
   vertex 0.837344 0.228907 1
   vertex 0.839771 0.234642 1
  endloop
 endfacet
 facet normal 0 0 1
  outer loop
   vertex 0.839771 0.234642 1
   vertex 0.837344 0.228907 1
   vertex 0.840433 0.228481 1
  endloop
 endfacet
 facet normal 0 0 1
  outer loop
   vertex 0.839771 0.234642 1
   vertex 0.840433 0.228481 1
   vertex 0.842931 0.234154 1
  endloop
 endfacet
 facet normal 0 0 1
  outer loop
   vertex 0.842931 0.234154 1
   vertex 0.840433 0.228481 1
   vertex 0.843506 0.227956 1
  endloop
 endfacet
 facet normal -0 0 1
  outer loop
   vertex 0.921447 0.117426 1
   vertex 0.923422 0.117113 1
   vertex 0.921885 0.120513 1
  endloop
 endfacet
 facet normal 0 0 1
  outer loop
   vertex 0.921885 0.120513 1
   vertex 0.923422 0.117113 1
   vertex 0.927913 0.120376 1
  endloop
 endfacet
 facet normal -0 0 1
  outer loop
   vertex 0.921885 0.120513 1
   vertex 0.927913 0.120376 1
   vertex 0.922224 0.123612 1
  endloop
 endfacet
 facet normal 0 0 1
  outer loop
   vertex 0.922224 0.123612 1
   vertex 0.927913 0.120376 1
   vertex 0.928243 0.123557 1
  endloop
 endfacet
 facet normal -0 0 1
  outer loop
   vertex 0.922224 0.123612 1
   vertex 0.928243 0.123557 1
   vertex 0.922462 0.12672 1
  endloop
 endfacet
 facet normal -0 0 1
  outer loop
   vertex 0.922462 0.12672 1
   vertex 0.928243 0.123557 1
   vertex 0.928474 0.126746 1
  endloop
 endfacet
 facet normal 0 0 1
  outer loop
   vertex 0.922462 0.12672 1
   vertex 0.928474 0.126746 1
   vertex 0.922602 0.129835 1
  endloop
 endfacet
 facet normal -0 0 1
  outer loop
   vertex 0.922602 0.129835 1
   vertex 0.928474 0.126746 1
   vertex 0.928607 0.12994 1
  endloop
 endfacet
 facet normal 0 0 1
  outer loop
   vertex 0.922602 0.129835 1
   vertex 0.928607 0.12994 1
   vertex 0.92264 0.132952 1
  endloop
 endfacet
 facet normal -0 0 1
  outer loop
   vertex 0.92264 0.132952 1
   vertex 0.928607 0.12994 1
   vertex 0.92864 0.133138 1
  endloop
 endfacet
 facet normal 0 -0 1
  outer loop
   vertex 0.92264 0.132952 1
   vertex 0.92864 0.133138 1
   vertex 0.922579 0.136069 1
  endloop
 endfacet
 facet normal -0 0 1
  outer loop
   vertex 0.922579 0.136069 1
   vertex 0.92864 0.133138 1
   vertex 0.928573 0.136334 1
  endloop
 endfacet
 facet normal 0 -0 1
  outer loop
   vertex 0.922579 0.136069 1
   vertex 0.928573 0.136334 1
   vertex 0.922418 0.139182 1
  endloop
 endfacet
 facet normal -0 0 1
  outer loop
   vertex 0.922418 0.139182 1
   vertex 0.928573 0.136334 1
   vertex 0.928408 0.139528 1
  endloop
 endfacet
 facet normal 0 -0 1
  outer loop
   vertex 0.922418 0.139182 1
   vertex 0.928408 0.139528 1
   vertex 0.922156 0.142289 1
  endloop
 endfacet
 facet normal -0 0 1
  outer loop
   vertex 0.922156 0.142289 1
   vertex 0.928408 0.139528 1
   vertex 0.928144 0.142714 1
  endloop
 endfacet
 facet normal 0 -0 1
  outer loop
   vertex 0.922156 0.142289 1
   vertex 0.928144 0.142714 1
   vertex 0.921795 0.145385 1
  endloop
 endfacet
 facet normal -0 0 1
  outer loop
   vertex 0.921795 0.145385 1
   vertex 0.928144 0.142714 1
   vertex 0.92778 0.145891 1
  endloop
 endfacet
 facet normal 0 -0 1
  outer loop
   vertex 0.921795 0.145385 1
   vertex 0.92778 0.145891 1
   vertex 0.921335 0.148469 1
  endloop
 endfacet
 facet normal -0 0 1
  outer loop
   vertex 0.921335 0.148469 1
   vertex 0.92778 0.145891 1
   vertex 0.927319 0.149055 1
  endloop
 endfacet
 facet normal 0 -0 1
  outer loop
   vertex 0.921335 0.148469 1
   vertex 0.927319 0.149055 1
   vertex 0.920776 0.151536 1
  endloop
 endfacet
 facet normal -0 0 1
  outer loop
   vertex 0.920776 0.151536 1
   vertex 0.927319 0.149055 1
   vertex 0.926759 0.152203 1
  endloop
 endfacet
 facet normal 0 -0 1
  outer loop
   vertex 0.920776 0.151536 1
   vertex 0.926759 0.152203 1
   vertex 0.920118 0.154583 1
  endloop
 endfacet
 facet normal -0 0 1
  outer loop
   vertex 0.920118 0.154583 1
   vertex 0.926759 0.152203 1
   vertex 0.926102 0.155332 1
  endloop
 endfacet
 facet normal 0 -0 1
  outer loop
   vertex 0.920118 0.154583 1
   vertex 0.926102 0.155332 1
   vertex 0.919363 0.157608 1
  endloop
 endfacet
 facet normal -0 0 1
  outer loop
   vertex 0.919363 0.157608 1
   vertex 0.926102 0.155332 1
   vertex 0.925348 0.15844 1
  endloop
 endfacet
 facet normal 0 -0 1
  outer loop
   vertex 0.919363 0.157608 1
   vertex 0.925348 0.15844 1
   vertex 0.918511 0.160607 1
  endloop
 endfacet
 facet normal -0 0 1
  outer loop
   vertex 0.918511 0.160607 1
   vertex 0.925348 0.15844 1
   vertex 0.924498 0.161522 1
  endloop
 endfacet
 facet normal 0 -0 1
  outer loop
   vertex 0.918511 0.160607 1
   vertex 0.924498 0.161522 1
   vertex 0.917564 0.163577 1
  endloop
 endfacet
 facet normal -0 0 1
  outer loop
   vertex 0.917564 0.163577 1
   vertex 0.924498 0.161522 1
   vertex 0.923553 0.164577 1
  endloop
 endfacet
 facet normal 0 -0 1
  outer loop
   vertex 0.917564 0.163577 1
   vertex 0.923553 0.164577 1
   vertex 0.916521 0.166514 1
  endloop
 endfacet
 facet normal -0 0 1
  outer loop
   vertex 0.916521 0.166514 1
   vertex 0.923553 0.164577 1
   vertex 0.922514 0.167601 1
  endloop
 endfacet
 facet normal 0 -0 1
  outer loop
   vertex 0.916521 0.166514 1
   vertex 0.922514 0.167601 1
   vertex 0.915385 0.169417 1
  endloop
 endfacet
 facet normal -0 0 1
  outer loop
   vertex 0.915385 0.169417 1
   vertex 0.922514 0.167601 1
   vertex 0.921381 0.170591 1
  endloop
 endfacet
 facet normal 0 -0 1
  outer loop
   vertex 0.915385 0.169417 1
   vertex 0.921381 0.170591 1
   vertex 0.914155 0.172282 1
  endloop
 endfacet
 facet normal -0 0 1
  outer loop
   vertex 0.914155 0.172282 1
   vertex 0.921381 0.170591 1
   vertex 0.920156 0.173544 1
  endloop
 endfacet
 facet normal 0 -0 1
  outer loop
   vertex 0.914155 0.172282 1
   vertex 0.920156 0.173544 1
   vertex 0.912835 0.175106 1
  endloop
 endfacet
 facet normal -0 0 1
  outer loop
   vertex 0.912835 0.175106 1
   vertex 0.920156 0.173544 1
   vertex 0.91884 0.176458 1
  endloop
 endfacet
 facet normal 0 -0 1
  outer loop
   vertex 0.912835 0.175106 1
   vertex 0.91884 0.176458 1
   vertex 0.911424 0.177886 1
  endloop
 endfacet
 facet normal 0 0 1
  outer loop
   vertex 0.91884 0.176458 1
   vertex 0.917434 0.17933 1
   vertex 0.911424 0.177886 1
  endloop
 endfacet
 facet normal 0 0 1
  outer loop
   vertex 0.911424 0.177886 1
   vertex 0.917434 0.17933 1
   vertex 0.915939 0.182157 1
  endloop
 endfacet
 facet normal 0 -0 1
  outer loop
   vertex 0.911424 0.177886 1
   vertex 0.915939 0.182157 1
   vertex 0.909925 0.18062 1
  endloop
 endfacet
 facet normal 0 0 1
  outer loop
   vertex 0.909925 0.18062 1
   vertex 0.915939 0.182157 1
   vertex 0.914358 0.184936 1
  endloop
 endfacet
 facet normal 0 -0 1
  outer loop
   vertex 0.909925 0.18062 1
   vertex 0.914358 0.184936 1
   vertex 0.908338 0.183304 1
  endloop
 endfacet
 facet normal 0 0 1
  outer loop
   vertex 0.908338 0.183304 1
   vertex 0.914358 0.184936 1
   vertex 0.912691 0.187664 1
  endloop
 endfacet
 facet normal 0 -0 1
  outer loop
   vertex 0.908338 0.183304 1
   vertex 0.912691 0.187664 1
   vertex 0.906667 0.185935 1
  endloop
 endfacet
 facet normal 0 0 1
  outer loop
   vertex 0.906667 0.185935 1
   vertex 0.912691 0.187664 1
   vertex 0.91094 0.19034 1
  endloop
 endfacet
 facet normal 0 -0 1
  outer loop
   vertex 0.906667 0.185935 1
   vertex 0.91094 0.19034 1
   vertex 0.904911 0.188511 1
  endloop
 endfacet
 facet normal 0 0 1
  outer loop
   vertex 0.904911 0.188511 1
   vertex 0.91094 0.19034 1
   vertex 0.909107 0.19296 1
  endloop
 endfacet
 facet normal 0 -0 1
  outer loop
   vertex 0.904911 0.188511 1
   vertex 0.909107 0.19296 1
   vertex 0.903074 0.19103 1
  endloop
 endfacet
 facet normal 0 0 1
  outer loop
   vertex 0.903074 0.19103 1
   vertex 0.909107 0.19296 1
   vertex 0.907194 0.195522 1
  endloop
 endfacet
 facet normal 0 -0 1
  outer loop
   vertex 0.903074 0.19103 1
   vertex 0.907194 0.195522 1
   vertex 0.901157 0.193488 1
  endloop
 endfacet
 facet normal 0 0 1
  outer loop
   vertex 0.901157 0.193488 1
   vertex 0.907194 0.195522 1
   vertex 0.905202 0.198023 1
  endloop
 endfacet
 facet normal 0 -0 1
  outer loop
   vertex 0.901157 0.193488 1
   vertex 0.905202 0.198023 1
   vertex 0.899161 0.195883 1
  endloop
 endfacet
 facet normal 0 0 1
  outer loop
   vertex 0.899161 0.195883 1
   vertex 0.905202 0.198023 1
   vertex 0.903133 0.200461 1
  endloop
 endfacet
 facet normal 0 -0 1
  outer loop
   vertex 0.899161 0.195883 1
   vertex 0.903133 0.200461 1
   vertex 0.89709 0.198214 1
  endloop
 endfacet
 facet normal 0 0 1
  outer loop
   vertex 0.89709 0.198214 1
   vertex 0.903133 0.200461 1
   vertex 0.90099 0.202834 1
  endloop
 endfacet
 facet normal 0 -0 1
  outer loop
   vertex 0.89709 0.198214 1
   vertex 0.90099 0.202834 1
   vertex 0.894945 0.200476 1
  endloop
 endfacet
 facet normal 0 0 1
  outer loop
   vertex 0.894945 0.200476 1
   vertex 0.90099 0.202834 1
   vertex 0.898774 0.205139 1
  endloop
 endfacet
 facet normal 0 -0 1
  outer loop
   vertex 0.894945 0.200476 1
   vertex 0.898774 0.205139 1
   vertex 0.892729 0.202668 1
  endloop
 endfacet
 facet normal 0 0 1
  outer loop
   vertex 0.892729 0.202668 1
   vertex 0.898774 0.205139 1
   vertex 0.896487 0.207374 1
  endloop
 endfacet
 facet normal 0 -0 1
  outer loop
   vertex 0.892729 0.202668 1
   vertex 0.896487 0.207374 1
   vertex 0.890443 0.204788 1
  endloop
 endfacet
 facet normal 0 0 1
  outer loop
   vertex 0.890443 0.204788 1
   vertex 0.896487 0.207374 1
   vertex 0.894133 0.209537 1
  endloop
 endfacet
 facet normal 0 -0 1
  outer loop
   vertex 0.890443 0.204788 1
   vertex 0.894133 0.209537 1
   vertex 0.88809 0.206833 1
  endloop
 endfacet
 facet normal 0 0 1
  outer loop
   vertex 0.88809 0.206833 1
   vertex 0.894133 0.209537 1
   vertex 0.891712 0.211626 1
  endloop
 endfacet
 facet normal 0 -0 1
  outer loop
   vertex 0.88809 0.206833 1
   vertex 0.891712 0.211626 1
   vertex 0.885673 0.208802 1
  endloop
 endfacet
 facet normal 0 0 1
  outer loop
   vertex 0.885673 0.208802 1
   vertex 0.891712 0.211626 1
   vertex 0.889228 0.213639 1
  endloop
 endfacet
 facet normal 0 -0 1
  outer loop
   vertex 0.885673 0.208802 1
   vertex 0.889228 0.213639 1
   vertex 0.883193 0.210692 1
  endloop
 endfacet
 facet normal 0 0 1
  outer loop
   vertex 0.883193 0.210692 1
   vertex 0.889228 0.213639 1
   vertex 0.886682 0.215574 1
  endloop
 endfacet
 facet normal 0 -0 1
  outer loop
   vertex 0.883193 0.210692 1
   vertex 0.886682 0.215574 1
   vertex 0.880654 0.212501 1
  endloop
 endfacet
 facet normal 0 0 1
  outer loop
   vertex 0.880654 0.212501 1
   vertex 0.886682 0.215574 1
   vertex 0.884077 0.217429 1
  endloop
 endfacet
 facet normal 0 -0 1
  outer loop
   vertex 0.880654 0.212501 1
   vertex 0.884077 0.217429 1
   vertex 0.878059 0.214228 1
  endloop
 endfacet
 facet normal 0 0 1
  outer loop
   vertex 0.878059 0.214228 1
   vertex 0.884077 0.217429 1
   vertex 0.881417 0.219202 1
  endloop
 endfacet
 facet normal 0 -0 1
  outer loop
   vertex 0.878059 0.214228 1
   vertex 0.881417 0.219202 1
   vertex 0.875409 0.215871 1
  endloop
 endfacet
 facet normal 0 0 1
  outer loop
   vertex 0.875409 0.215871 1
   vertex 0.881417 0.219202 1
   vertex 0.878702 0.220892 1
  endloop
 endfacet
 facet normal 0 -0 1
  outer loop
   vertex 0.875409 0.215871 1
   vertex 0.878702 0.220892 1
   vertex 0.872708 0.217427 1
  endloop
 endfacet
 facet normal 0 0 1
  outer loop
   vertex 0.872708 0.217427 1
   vertex 0.878702 0.220892 1
   vertex 0.875936 0.222497 1
  endloop
 endfacet
 facet normal 0 -0 1
  outer loop
   vertex 0.872708 0.217427 1
   vertex 0.875936 0.222497 1
   vertex 0.869958 0.218896 1
  endloop
 endfacet
 facet normal 0 0 1
  outer loop
   vertex 0.869958 0.218896 1
   vertex 0.875936 0.222497 1
   vertex 0.873122 0.224015 1
  endloop
 endfacet
 facet normal 0 -0 1
  outer loop
   vertex 0.869958 0.218896 1
   vertex 0.873122 0.224015 1
   vertex 0.867163 0.220276 1
  endloop
 endfacet
 facet normal 0 0 1
  outer loop
   vertex 0.867163 0.220276 1
   vertex 0.873122 0.224015 1
   vertex 0.870262 0.225445 1
  endloop
 endfacet
 facet normal 0 -0 1
  outer loop
   vertex 0.867163 0.220276 1
   vertex 0.870262 0.225445 1
   vertex 0.864324 0.221565 1
  endloop
 endfacet
 facet normal 0 0 1
  outer loop
   vertex 0.864324 0.221565 1
   vertex 0.870262 0.225445 1
   vertex 0.867359 0.226785 1
  endloop
 endfacet
 facet normal 0 -0 1
  outer loop
   vertex 0.864324 0.221565 1
   vertex 0.867359 0.226785 1
   vertex 0.861446 0.222763 1
  endloop
 endfacet
 facet normal 0 0 1
  outer loop
   vertex 0.861446 0.222763 1
   vertex 0.867359 0.226785 1
   vertex 0.864416 0.228035 1
  endloop
 endfacet
 facet normal 0 -0 1
  outer loop
   vertex 0.861446 0.222763 1
   vertex 0.864416 0.228035 1
   vertex 0.858531 0.223867 1
  endloop
 endfacet
 facet normal 0 0 1
  outer loop
   vertex 0.858531 0.223867 1
   vertex 0.864416 0.228035 1
   vertex 0.861436 0.229193 1
  endloop
 endfacet
 facet normal 0 -0 1
  outer loop
   vertex 0.858531 0.223867 1
   vertex 0.861436 0.229193 1
   vertex 0.855581 0.224877 1
  endloop
 endfacet
 facet normal 0 0 1
  outer loop
   vertex 0.855581 0.224877 1
   vertex 0.861436 0.229193 1
   vertex 0.858421 0.230258 1
  endloop
 endfacet
 facet normal 0 -0 1
  outer loop
   vertex 0.855581 0.224877 1
   vertex 0.858421 0.230258 1
   vertex 0.852601 0.225792 1
  endloop
 endfacet
 facet normal 0 0 1
  outer loop
   vertex 0.852601 0.225792 1
   vertex 0.858421 0.230258 1
   vertex 0.855374 0.231229 1
  endloop
 endfacet
 facet normal 0 -0 1
  outer loop
   vertex 0.852601 0.225792 1
   vertex 0.855374 0.231229 1
   vertex 0.849593 0.226611 1
  endloop
 endfacet
 facet normal 0 0 1
  outer loop
   vertex 0.849593 0.226611 1
   vertex 0.855374 0.231229 1
   vertex 0.852299 0.232105 1
  endloop
 endfacet
 facet normal 0 -0 1
  outer loop
   vertex 0.849593 0.226611 1
   vertex 0.852299 0.232105 1
   vertex 0.84656 0.227332 1
  endloop
 endfacet
 facet normal 0 0 1
  outer loop
   vertex 0.84656 0.227332 1
   vertex 0.852299 0.232105 1
   vertex 0.849198 0.232884 1
  endloop
 endfacet
 facet normal 0 -0 1
  outer loop
   vertex 0.84656 0.227332 1
   vertex 0.849198 0.232884 1
   vertex 0.843506 0.227956 1
  endloop
 endfacet
 facet normal 0 0 1
  outer loop
   vertex 0.843506 0.227956 1
   vertex 0.849198 0.232884 1
   vertex 0.846075 0.233568 1
  endloop
 endfacet
 facet normal 0 -0 1
  outer loop
   vertex 0.843506 0.227956 1
   vertex 0.846075 0.233568 1
   vertex 0.842931 0.234154 1
  endloop
 endfacet
 facet normal 0.587782 -0.809019 0
  outer loop
   vertex 0.927913 0.120376 1
   vertex 0.923422 0.117113 1
   vertex 0.927913 0.120376 -1
  endloop
 endfacet
 facet normal 0.587782 -0.809019 0
  outer loop
   vertex 0.927913 0.120376 -1
   vertex 0.923422 0.117113 1
   vertex 0.923422 0.117113 -1
  endloop
 endfacet
 facet normal -0.694657 -0.719341 -0
  outer loop
   vertex 0.82802 0.229588 1
   vertex 0.823863 0.233602 1
   vertex 0.82802 0.229588 -1
  endloop
 endfacet
 facet normal -0.694657 -0.719341 0
  outer loop
   vertex 0.82802 0.229588 -1
   vertex 0.823863 0.233602 1
   vertex 0.823863 0.233602 -1
  endloop
 endfacet
endsolid tunner_vane
