solid tunner_vane
 facet normal 0.0957796 0.995403 -0
  outer loop
   vertex 1.74524 0.241876 -1
   vertex 1.74524 0.241876 1
   vertex 1.75485 0.240952 1
  endloop
 endfacet
 facet normal 0.0957796 0.995403 0
  outer loop
   vertex 1.74524 0.241876 -1
   vertex 1.75485 0.240952 1
   vertex 1.75485 0.240952 -1
  endloop
 endfacet
 facet normal 0.186801 0.982398 -0
  outer loop
   vertex 1.75485 0.240952 -1
   vertex 1.75485 0.240952 1
   vertex 1.76433 0.239149 1
  endloop
 endfacet
 facet normal 0.186801 0.982398 0
  outer loop
   vertex 1.75485 0.240952 -1
   vertex 1.76433 0.239149 1
   vertex 1.76433 0.239149 -1
  endloop
 endfacet
 facet normal 0.276307 0.96107 -0
  outer loop
   vertex 1.76433 0.239149 -1
   vertex 1.76433 0.239149 1
   vertex 1.7736 0.236484 1
  endloop
 endfacet
 facet normal 0.276307 0.96107 0
  outer loop
   vertex 1.76433 0.239149 -1
   vertex 1.7736 0.236484 1
   vertex 1.7736 0.236484 -1
  endloop
 endfacet
 facet normal 0.363263 0.931687 -0
  outer loop
   vertex 1.7736 0.236484 -1
   vertex 1.7736 0.236484 1
   vertex 1.78259 0.232979 1
  endloop
 endfacet
 facet normal 0.363263 0.931687 0
  outer loop
   vertex 1.7736 0.236484 -1
   vertex 1.78259 0.232979 1
   vertex 1.78259 0.232979 -1
  endloop
 endfacet
 facet normal 0.447275 0.894397 -0
  outer loop
   vertex 1.78259 0.232979 -1
   vertex 1.78259 0.232979 1
   vertex 1.79122 0.228663 1
  endloop
 endfacet
 facet normal 0.447275 0.894397 0
  outer loop
   vertex 1.78259 0.232979 -1
   vertex 1.79122 0.228663 1
   vertex 1.79122 0.228663 -1
  endloop
 endfacet
 facet normal 0.527379 0.84963 -0
  outer loop
   vertex 1.79122 0.228663 -1
   vertex 1.79122 0.228663 1
   vertex 1.79942 0.223573 1
  endloop
 endfacet
 facet normal 0.527379 0.84963 0
  outer loop
   vertex 1.79122 0.228663 -1
   vertex 1.79942 0.223573 1
   vertex 1.79942 0.223573 -1
  endloop
 endfacet
 facet normal 0.603034 0.797715 -0
  outer loop
   vertex 1.79942 0.223573 -1
   vertex 1.79942 0.223573 1
   vertex 1.80712 0.217752 1
  endloop
 endfacet
 facet normal 0.603034 0.797715 0
  outer loop
   vertex 1.79942 0.223573 -1
   vertex 1.80712 0.217752 1
   vertex 1.80712 0.217752 -1
  endloop
 endfacet
 facet normal 0.673867 0.738853 -0
  outer loop
   vertex 1.80712 0.217752 -1
   vertex 1.80712 0.217752 1
   vertex 1.81425 0.211249 1
  endloop
 endfacet
 facet normal 0.673867 0.738853 0
  outer loop
   vertex 1.80712 0.217752 -1
   vertex 1.81425 0.211249 1
   vertex 1.81425 0.211249 -1
  endloop
 endfacet
 facet normal 0.738992 0.673715 -0
  outer loop
   vertex 1.81425 0.211249 -1
   vertex 1.81425 0.211249 1
   vertex 1.82075 0.20412 1
  endloop
 endfacet
 facet normal 0.738992 0.673715 0
  outer loop
   vertex 1.81425 0.211249 -1
   vertex 1.82075 0.20412 1
   vertex 1.82075 0.20412 -1
  endloop
 endfacet
 facet normal 0.797626 0.603152 -0
  outer loop
   vertex 1.82075 0.20412 -1
   vertex 1.82075 0.20412 1
   vertex 1.82657 0.196423 1
  endloop
 endfacet
 facet normal 0.797626 0.603152 0
  outer loop
   vertex 1.82075 0.20412 -1
   vertex 1.82657 0.196423 1
   vertex 1.82657 0.196423 -1
  endloop
 endfacet
 facet normal 0.84958 0.527459 -0
  outer loop
   vertex 1.82657 0.196423 -1
   vertex 1.82657 0.196423 1
   vertex 1.83166 0.188224 1
  endloop
 endfacet
 facet normal 0.84958 0.527459 0
  outer loop
   vertex 1.82657 0.196423 -1
   vertex 1.83166 0.188224 1
   vertex 1.83166 0.188224 -1
  endloop
 endfacet
 facet normal 0.89424 0.447588 -0
  outer loop
   vertex 1.83166 0.188224 -1
   vertex 1.83166 0.188224 1
   vertex 1.83598 0.179593 1
  endloop
 endfacet
 facet normal 0.89424 0.447588 0
  outer loop
   vertex 1.83166 0.188224 -1
   vertex 1.83598 0.179593 1
   vertex 1.83598 0.179593 -1
  endloop
 endfacet
 facet normal 0.931881 0.362763 -0
  outer loop
   vertex 1.83598 0.179593 -1
   vertex 1.83598 0.179593 1
   vertex 1.83948 0.170602 1
  endloop
 endfacet
 facet normal 0.931881 0.362763 0
  outer loop
   vertex 1.83598 0.179593 -1
   vertex 1.83948 0.170602 1
   vertex 1.83948 0.170602 -1
  endloop
 endfacet
 facet normal 0.960973 0.276644 -0
  outer loop
   vertex 1.83948 0.170602 -1
   vertex 1.83948 0.170602 1
   vertex 1.84215 0.161328 1
  endloop
 endfacet
 facet normal 0.960973 0.276644 0
  outer loop
   vertex 1.83948 0.170602 -1
   vertex 1.84215 0.161328 1
   vertex 1.84215 0.161328 -1
  endloop
 endfacet
 facet normal 0.982446 0.186545 -0
  outer loop
   vertex 1.84215 0.161328 -1
   vertex 1.84215 0.161328 1
   vertex 1.84395 0.151848 1
  endloop
 endfacet
 facet normal 0.982446 0.186545 0
  outer loop
   vertex 1.84215 0.161328 -1
   vertex 1.84395 0.151848 1
   vertex 1.84395 0.151848 -1
  endloop
 endfacet
 facet normal 0.995346 0.0963649 -0
  outer loop
   vertex 1.84395 0.151848 -1
   vertex 1.84395 0.151848 1
   vertex 1.84488 0.142242 1
  endloop
 endfacet
 facet normal 0.995346 0.0963649 0
  outer loop
   vertex 1.84395 0.151848 -1
   vertex 1.84488 0.142242 1
   vertex 1.84488 0.142242 -1
  endloop
 endfacet
 facet normal -0.995108 -0.0987974 0
  outer loop
   vertex 1.83489 0.141742 -1
   vertex 1.83489 0.141742 1
   vertex 1.83397 0.15101 -1
  endloop
 endfacet
 facet normal -0.995108 -0.0987974 0
  outer loop
   vertex 1.83397 0.15101 -1
   vertex 1.83489 0.141742 1
   vertex 1.83397 0.15101 1
  endloop
 endfacet
 facet normal -0.980508 -0.19648 0
  outer loop
   vertex 1.83397 0.15101 -1
   vertex 1.83397 0.15101 1
   vertex 1.83214 0.160142 -1
  endloop
 endfacet
 facet normal -0.980508 -0.19648 0
  outer loop
   vertex 1.83214 0.160142 -1
   vertex 1.83397 0.15101 1
   vertex 1.83214 0.160142 1
  endloop
 endfacet
 facet normal -0.957024 -0.290008 0
  outer loop
   vertex 1.83214 0.160142 -1
   vertex 1.83214 0.160142 1
   vertex 1.82944 0.169052 -1
  endloop
 endfacet
 facet normal -0.957024 -0.290008 0
  outer loop
   vertex 1.82944 0.169052 -1
   vertex 1.83214 0.160142 1
   vertex 1.82944 0.169052 1
  endloop
 endfacet
 facet normal -0.923618 -0.383313 0
  outer loop
   vertex 1.82944 0.169052 -1
   vertex 1.82944 0.169052 1
   vertex 1.82587 0.177654 -1
  endloop
 endfacet
 facet normal -0.923618 -0.383313 0
  outer loop
   vertex 1.82587 0.177654 -1
   vertex 1.82944 0.169052 1
   vertex 1.82587 0.177654 1
  endloop
 endfacet
 facet normal -0.881433 -0.472309 0
  outer loop
   vertex 1.82587 0.177654 -1
   vertex 1.82587 0.177654 1
   vertex 1.82147 0.185865 -1
  endloop
 endfacet
 facet normal -0.881433 -0.472309 0
  outer loop
   vertex 1.82147 0.185865 -1
   vertex 1.82587 0.177654 1
   vertex 1.82147 0.185865 1
  endloop
 endfacet
 facet normal -0.831615 -0.555352 0
  outer loop
   vertex 1.82147 0.185865 -1
   vertex 1.82147 0.185865 1
   vertex 1.8163 0.193607 -1
  endloop
 endfacet
 facet normal -0.831615 -0.555352 0
  outer loop
   vertex 1.8163 0.193607 -1
   vertex 1.82147 0.185865 1
   vertex 1.8163 0.193607 1
  endloop
 endfacet
 facet normal -0.772868 -0.634567 0
  outer loop
   vertex 1.8163 0.193607 -1
   vertex 1.8163 0.193607 1
   vertex 1.81039 0.200805 -1
  endloop
 endfacet
 facet normal -0.772868 -0.634567 0
  outer loop
   vertex 1.81039 0.200805 -1
   vertex 1.8163 0.193607 1
   vertex 1.81039 0.200805 1
  endloop
 endfacet
 facet normal -0.707376 -0.706838 0
  outer loop
   vertex 1.81039 0.200805 -1
   vertex 1.81039 0.200805 1
   vertex 1.80381 0.20739 -1
  endloop
 endfacet
 facet normal -0.707376 -0.706838 0
  outer loop
   vertex 1.80381 0.20739 -1
   vertex 1.81039 0.200805 1
   vertex 1.80381 0.20739 1
  endloop
 endfacet
 facet normal -0.634381 -0.77302 0
  outer loop
   vertex 1.80381 0.20739 -1
   vertex 1.80381 0.20739 1
   vertex 1.79661 0.213299 -1
  endloop
 endfacet
 facet normal -0.634381 -0.77302 0
  outer loop
   vertex 1.79661 0.213299 -1
   vertex 1.80381 0.20739 1
   vertex 1.79661 0.213299 1
  endloop
 endfacet
 facet normal -0.555866 -0.831272 0
  outer loop
   vertex 1.79661 0.213299 -1
   vertex 1.79661 0.213299 1
   vertex 1.78887 0.218475 -1
  endloop
 endfacet
 facet normal -0.555866 -0.831272 0
  outer loop
   vertex 1.78887 0.218475 -1
   vertex 1.79661 0.213299 1
   vertex 1.78887 0.218475 1
  endloop
 endfacet
 facet normal -0.47135 -0.881946 0
  outer loop
   vertex 1.78887 0.218475 -1
   vertex 1.78887 0.218475 1
   vertex 1.78065 0.222868 -1
  endloop
 endfacet
 facet normal -0.47135 -0.881946 0
  outer loop
   vertex 1.78065 0.222868 -1
   vertex 1.78887 0.218475 1
   vertex 1.78065 0.222868 1
  endloop
 endfacet
 facet normal -0.383212 -0.923661 0
  outer loop
   vertex 1.78065 0.222868 -1
   vertex 1.78065 0.222868 1
   vertex 1.77205 0.226436 -1
  endloop
 endfacet
 facet normal -0.383212 -0.923661 0
  outer loop
   vertex 1.77205 0.226436 -1
   vertex 1.78065 0.222868 1
   vertex 1.77205 0.226436 1
  endloop
 endfacet
 facet normal -0.290871 -0.956762 0
  outer loop
   vertex 1.77205 0.226436 -1
   vertex 1.77205 0.226436 1
   vertex 1.76314 0.229144 -1
  endloop
 endfacet
 facet normal -0.290871 -0.956762 0
  outer loop
   vertex 1.76314 0.229144 -1
   vertex 1.77205 0.226436 1
   vertex 1.76314 0.229144 1
  endloop
 endfacet
 facet normal -0.195868 -0.98063 0
  outer loop
   vertex 1.76314 0.229144 -1
   vertex 1.76314 0.229144 1
   vertex 1.75401 0.230968 -1
  endloop
 endfacet
 facet normal -0.195868 -0.98063 0
  outer loop
   vertex 1.75401 0.230968 -1
   vertex 1.76314 0.229144 1
   vertex 1.75401 0.230968 1
  endloop
 endfacet
 facet normal -0.0988348 -0.995104 0
  outer loop
   vertex 1.75401 0.230968 -1
   vertex 1.75401 0.230968 1
   vertex 1.74474 0.231889 -1
  endloop
 endfacet
 facet normal -0.0988348 -0.995104 0
  outer loop
   vertex 1.74474 0.231889 -1
   vertex 1.75401 0.230968 1
   vertex 1.74474 0.231889 1
  endloop
 endfacet
 facet normal 0 0 -1
  outer loop
   vertex 1.80381 0.20739 -1
   vertex 1.81425 0.211249 -1
   vertex 1.81039 0.200805 -1
  endloop
 endfacet
 facet normal 0 0 -1
  outer loop
   vertex 1.81039 0.200805 -1
   vertex 1.81425 0.211249 -1
   vertex 1.82075 0.20412 -1
  endloop
 endfacet
 facet normal 0 0 -1
  outer loop
   vertex 1.81039 0.200805 -1
   vertex 1.82075 0.20412 -1
   vertex 1.8163 0.193607 -1
  endloop
 endfacet
 facet normal 0 0 -1
  outer loop
   vertex 1.8163 0.193607 -1
   vertex 1.82075 0.20412 -1
   vertex 1.82657 0.196423 -1
  endloop
 endfacet
 facet normal 0 0 -1
  outer loop
   vertex 1.8163 0.193607 -1
   vertex 1.82657 0.196423 -1
   vertex 1.82147 0.185865 -1
  endloop
 endfacet
 facet normal 0 0 -1
  outer loop
   vertex 1.82147 0.185865 -1
   vertex 1.82657 0.196423 -1
   vertex 1.83166 0.188224 -1
  endloop
 endfacet
 facet normal 0 0 -1
  outer loop
   vertex 1.82147 0.185865 -1
   vertex 1.83166 0.188224 -1
   vertex 1.82587 0.177654 -1
  endloop
 endfacet
 facet normal 0 0 -1
  outer loop
   vertex 1.82587 0.177654 -1
   vertex 1.83166 0.188224 -1
   vertex 1.83598 0.179593 -1
  endloop
 endfacet
 facet normal 0 0 -1
  outer loop
   vertex 1.82587 0.177654 -1
   vertex 1.83598 0.179593 -1
   vertex 1.82944 0.169052 -1
  endloop
 endfacet
 facet normal 0 0 -1
  outer loop
   vertex 1.82944 0.169052 -1
   vertex 1.83598 0.179593 -1
   vertex 1.83948 0.170602 -1
  endloop
 endfacet
 facet normal 0 0 -1
  outer loop
   vertex 1.82944 0.169052 -1
   vertex 1.83948 0.170602 -1
   vertex 1.83214 0.160142 -1
  endloop
 endfacet
 facet normal 0 0 -1
  outer loop
   vertex 1.83214 0.160142 -1
   vertex 1.83948 0.170602 -1
   vertex 1.84215 0.161328 -1
  endloop
 endfacet
 facet normal 0 0 -1
  outer loop
   vertex 1.83214 0.160142 -1
   vertex 1.84215 0.161328 -1
   vertex 1.83397 0.15101 -1
  endloop
 endfacet
 facet normal 0 0 -1
  outer loop
   vertex 1.83397 0.15101 -1
   vertex 1.84215 0.161328 -1
   vertex 1.84395 0.151848 -1
  endloop
 endfacet
 facet normal 0 0 -1
  outer loop
   vertex 1.83397 0.15101 -1
   vertex 1.84395 0.151848 -1
   vertex 1.83489 0.141742 -1
  endloop
 endfacet
 facet normal 0 0 -1
  outer loop
   vertex 1.83489 0.141742 -1
   vertex 1.84395 0.151848 -1
   vertex 1.84488 0.142242 -1
  endloop
 endfacet
 facet normal 0 0 -1
  outer loop
   vertex 1.83489 0.141742 -1
   vertex 1.84488 0.142242 -1
   vertex 1.84485 0.141433 -1
  endloop
 endfacet
 facet normal 0 0 -1
  outer loop
   vertex 1.74288 0.241414 -1
   vertex 1.74364 0.241696 -1
   vertex 1.74474 0.231889 -1
  endloop
 endfacet
 facet normal -0 0 -1
  outer loop
   vertex 1.84485 0.141433 -1
   vertex 1.8447 0.140639 -1
   vertex 1.83489 0.141742 -1
  endloop
 endfacet
 facet normal 0 0 -1
  outer loop
   vertex 1.83489 0.141742 -1
   vertex 1.8447 0.140639 -1
   vertex 1.84441 0.13988 -1
  endloop
 endfacet
 facet normal 0 0 -1
  outer loop
   vertex 1.83489 0.141742 -1
   vertex 1.84441 0.13988 -1
   vertex 1.84401 0.139176 -1
  endloop
 endfacet
 facet normal 0 0 -1
  outer loop
   vertex 1.74364 0.241696 -1
   vertex 1.74443 0.241851 -1
   vertex 1.74474 0.231889 -1
  endloop
 endfacet
 facet normal 0 0 -1
  outer loop
   vertex 1.74474 0.231889 -1
   vertex 1.74443 0.241851 -1
   vertex 1.74524 0.241876 -1
  endloop
 endfacet
 facet normal 0 0 -1
  outer loop
   vertex 1.74474 0.231889 -1
   vertex 1.74524 0.241876 -1
   vertex 1.75401 0.230968 -1
  endloop
 endfacet
 facet normal 0 0 -1
  outer loop
   vertex 1.75401 0.230968 -1
   vertex 1.74524 0.241876 -1
   vertex 1.75485 0.240952 -1
  endloop
 endfacet
 facet normal 0 0 -1
  outer loop
   vertex 1.75401 0.230968 -1
   vertex 1.75485 0.240952 -1
   vertex 1.76314 0.229144 -1
  endloop
 endfacet
 facet normal 0 0 -1
  outer loop
   vertex 1.76314 0.229144 -1
   vertex 1.75485 0.240952 -1
   vertex 1.76433 0.239149 -1
  endloop
 endfacet
 facet normal 0 0 -1
  outer loop
   vertex 1.76314 0.229144 -1
   vertex 1.76433 0.239149 -1
   vertex 1.77205 0.226436 -1
  endloop
 endfacet
 facet normal 0 0 -1
  outer loop
   vertex 1.77205 0.226436 -1
   vertex 1.76433 0.239149 -1
   vertex 1.7736 0.236484 -1
  endloop
 endfacet
 facet normal 0 0 -1
  outer loop
   vertex 1.77205 0.226436 -1
   vertex 1.7736 0.236484 -1
   vertex 1.78065 0.222868 -1
  endloop
 endfacet
 facet normal 0 0 -1
  outer loop
   vertex 1.78065 0.222868 -1
   vertex 1.7736 0.236484 -1
   vertex 1.78259 0.232979 -1
  endloop
 endfacet
 facet normal 0 0 -1
  outer loop
   vertex 1.78065 0.222868 -1
   vertex 1.78259 0.232979 -1
   vertex 1.78887 0.218475 -1
  endloop
 endfacet
 facet normal 0 0 -1
  outer loop
   vertex 1.78887 0.218475 -1
   vertex 1.78259 0.232979 -1
   vertex 1.79122 0.228663 -1
  endloop
 endfacet
 facet normal 0 0 -1
  outer loop
   vertex 1.78887 0.218475 -1
   vertex 1.79122 0.228663 -1
   vertex 1.79661 0.213299 -1
  endloop
 endfacet
 facet normal 0 0 -1
  outer loop
   vertex 1.79661 0.213299 -1
   vertex 1.79122 0.228663 -1
   vertex 1.79942 0.223573 -1
  endloop
 endfacet
 facet normal 0 0 -1
  outer loop
   vertex 1.79661 0.213299 -1
   vertex 1.79942 0.223573 -1
   vertex 1.80381 0.20739 -1
  endloop
 endfacet
 facet normal 0 0 -1
  outer loop
   vertex 1.80381 0.20739 -1
   vertex 1.79942 0.223573 -1
   vertex 1.80712 0.217752 -1
  endloop
 endfacet
 facet normal 0 0 -1
  outer loop
   vertex 1.80381 0.20739 -1
   vertex 1.80712 0.217752 -1
   vertex 1.81425 0.211249 -1
  endloop
 endfacet
 facet normal 0 0 -1
  outer loop
   vertex 1.83489 0.141742 -1
   vertex 1.84222 0.137572 -1
   vertex 1.84148 0.137253 -1
  endloop
 endfacet
 facet normal -0 0 -1
  outer loop
   vertex 1.84148 0.137253 -1
   vertex 1.84069 0.137058 -1
   vertex 1.83489 0.141742 -1
  endloop
 endfacet
 facet normal 0 0 -1
  outer loop
   vertex 1.83489 0.141742 -1
   vertex 1.84069 0.137058 -1
   vertex 1.83988 0.136993 -1
  endloop
 endfacet
 facet normal 0 0 -1
  outer loop
   vertex 1.83489 0.141742 -1
   vertex 1.83988 0.136993 -1
   vertex 1.83904 0.137064 -1
  endloop
 endfacet
 facet normal -0 0 -1
  outer loop
   vertex 1.84401 0.139176 -1
   vertex 1.84351 0.138546 -1
   vertex 1.83489 0.141742 -1
  endloop
 endfacet
 facet normal 0 0 -1
  outer loop
   vertex 1.83489 0.141742 -1
   vertex 1.84351 0.138546 -1
   vertex 1.8429 0.138007 -1
  endloop
 endfacet
 facet normal 0 0 -1
  outer loop
   vertex 1.83489 0.141742 -1
   vertex 1.8429 0.138007 -1
   vertex 1.84222 0.137572 -1
  endloop
 endfacet
 facet normal 0 0 -1
  outer loop
   vertex 1.83675 0.138092 -1
   vertex 1.83614 0.138673 -1
   vertex 1.83746 0.137621 -1
  endloop
 endfacet
 facet normal 0 0 -1
  outer loop
   vertex 1.83746 0.137621 -1
   vertex 1.83614 0.138673 -1
   vertex 1.83564 0.139349 -1
  endloop
 endfacet
 facet normal 0 0 -1
  outer loop
   vertex 1.83746 0.137621 -1
   vertex 1.83564 0.139349 -1
   vertex 1.83525 0.140101 -1
  endloop
 endfacet
 facet normal 0 0 -1
  outer loop
   vertex 1.83904 0.137064 -1
   vertex 1.83822 0.137275 -1
   vertex 1.83489 0.141742 -1
  endloop
 endfacet
 facet normal 0 0 -1
  outer loop
   vertex 1.83489 0.141742 -1
   vertex 1.83822 0.137275 -1
   vertex 1.83746 0.137621 -1
  endloop
 endfacet
 facet normal 0 0 -1
  outer loop
   vertex 1.83489 0.141742 -1
   vertex 1.83746 0.137621 -1
   vertex 1.835 0.140906 -1
  endloop
 endfacet
 facet normal 0 0 -1
  outer loop
   vertex 1.835 0.140906 -1
   vertex 1.83746 0.137621 -1
   vertex 1.83525 0.140101 -1
  endloop
 endfacet
 facet normal 0 0 -1
  outer loop
   vertex 1.74006 0.237689 -1
   vertex 1.74025 0.238475 -1
   vertex 1.74474 0.231889 -1
  endloop
 endfacet
 facet normal 0 0 -1
  outer loop
   vertex 1.74474 0.231889 -1
   vertex 1.74025 0.238475 -1
   vertex 1.74057 0.239219 -1
  endloop
 endfacet
 facet normal 0 0 -1
  outer loop
   vertex 1.74474 0.231889 -1
   vertex 1.74057 0.239219 -1
   vertex 1.74101 0.239902 -1
  endloop
 endfacet
 facet normal 0 0 -1
  outer loop
   vertex 1.74101 0.239902 -1
   vertex 1.74155 0.240505 -1
   vertex 1.74474 0.231889 -1
  endloop
 endfacet
 facet normal 0 0 -1
  outer loop
   vertex 1.74474 0.231889 -1
   vertex 1.74155 0.240505 -1
   vertex 1.74218 0.241014 -1
  endloop
 endfacet
 facet normal 0 0 -1
  outer loop
   vertex 1.74474 0.231889 -1
   vertex 1.74218 0.241014 -1
   vertex 1.74288 0.241414 -1
  endloop
 endfacet
 facet normal 0 -0 -1
  outer loop
   vertex 1.74006 0.237689 -1
   vertex 1.74474 0.231889 -1
   vertex 1.73999 0.236883 -1
  endloop
 endfacet
 facet normal 0 0 -1
  outer loop
   vertex 1.73999 0.236883 -1
   vertex 1.74474 0.231889 -1
   vertex 1.74391 0.232002 -1
  endloop
 endfacet
 facet normal 0 0 -1
  outer loop
   vertex 1.73999 0.236883 -1
   vertex 1.74391 0.232002 -1
   vertex 1.7431 0.232254 -1
  endloop
 endfacet
 facet normal 0 0 -1
  outer loop
   vertex 1.74235 0.232638 -1
   vertex 1.74167 0.233143 -1
   vertex 1.7431 0.232254 -1
  endloop
 endfacet
 facet normal 0 0 -1
  outer loop
   vertex 1.7431 0.232254 -1
   vertex 1.74167 0.233143 -1
   vertex 1.74109 0.233755 -1
  endloop
 endfacet
 facet normal 0 0 -1
  outer loop
   vertex 1.7431 0.232254 -1
   vertex 1.74109 0.233755 -1
   vertex 1.74062 0.234455 -1
  endloop
 endfacet
 facet normal 0 0 -1
  outer loop
   vertex 1.74062 0.234455 -1
   vertex 1.74028 0.235225 -1
   vertex 1.7431 0.232254 -1
  endloop
 endfacet
 facet normal 0 0 -1
  outer loop
   vertex 1.7431 0.232254 -1
   vertex 1.74028 0.235225 -1
   vertex 1.74006 0.236042 -1
  endloop
 endfacet
 facet normal 0 0 -1
  outer loop
   vertex 1.7431 0.232254 -1
   vertex 1.74006 0.236042 -1
   vertex 1.73999 0.236883 -1
  endloop
 endfacet
 facet normal 0 0 1
  outer loop
   vertex 1.74443 0.241851 1
   vertex 1.74364 0.241696 1
   vertex 1.74474 0.231889 1
  endloop
 endfacet
 facet normal 0 -0 1
  outer loop
   vertex 1.81039 0.200805 1
   vertex 1.81425 0.211249 1
   vertex 1.80381 0.20739 1
  endloop
 endfacet
 facet normal 0 0 1
  outer loop
   vertex 1.80381 0.20739 1
   vertex 1.81425 0.211249 1
   vertex 1.80712 0.217752 1
  endloop
 endfacet
 facet normal 0 -0 1
  outer loop
   vertex 1.80381 0.20739 1
   vertex 1.80712 0.217752 1
   vertex 1.79661 0.213299 1
  endloop
 endfacet
 facet normal 0 0 1
  outer loop
   vertex 1.79661 0.213299 1
   vertex 1.80712 0.217752 1
   vertex 1.79942 0.223573 1
  endloop
 endfacet
 facet normal 0 -0 1
  outer loop
   vertex 1.79661 0.213299 1
   vertex 1.79942 0.223573 1
   vertex 1.78887 0.218475 1
  endloop
 endfacet
 facet normal 0 0 1
  outer loop
   vertex 1.78887 0.218475 1
   vertex 1.79942 0.223573 1
   vertex 1.79122 0.228663 1
  endloop
 endfacet
 facet normal 0 -0 1
  outer loop
   vertex 1.78887 0.218475 1
   vertex 1.79122 0.228663 1
   vertex 1.78065 0.222868 1
  endloop
 endfacet
 facet normal 0 0 1
  outer loop
   vertex 1.78065 0.222868 1
   vertex 1.79122 0.228663 1
   vertex 1.78259 0.232979 1
  endloop
 endfacet
 facet normal 0 -0 1
  outer loop
   vertex 1.78065 0.222868 1
   vertex 1.78259 0.232979 1
   vertex 1.77205 0.226436 1
  endloop
 endfacet
 facet normal 0 0 1
  outer loop
   vertex 1.77205 0.226436 1
   vertex 1.78259 0.232979 1
   vertex 1.7736 0.236484 1
  endloop
 endfacet
 facet normal 0 -0 1
  outer loop
   vertex 1.77205 0.226436 1
   vertex 1.7736 0.236484 1
   vertex 1.76314 0.229144 1
  endloop
 endfacet
 facet normal 0 0 1
  outer loop
   vertex 1.76314 0.229144 1
   vertex 1.7736 0.236484 1
   vertex 1.76433 0.239149 1
  endloop
 endfacet
 facet normal 0 -0 1
  outer loop
   vertex 1.76314 0.229144 1
   vertex 1.76433 0.239149 1
   vertex 1.75401 0.230968 1
  endloop
 endfacet
 facet normal 0 0 1
  outer loop
   vertex 1.75401 0.230968 1
   vertex 1.76433 0.239149 1
   vertex 1.75485 0.240952 1
  endloop
 endfacet
 facet normal 0 -0 1
  outer loop
   vertex 1.75401 0.230968 1
   vertex 1.75485 0.240952 1
   vertex 1.74474 0.231889 1
  endloop
 endfacet
 facet normal 0 0 1
  outer loop
   vertex 1.74474 0.231889 1
   vertex 1.75485 0.240952 1
   vertex 1.74524 0.241876 1
  endloop
 endfacet
 facet normal 0 -0 1
  outer loop
   vertex 1.74474 0.231889 1
   vertex 1.74524 0.241876 1
   vertex 1.74443 0.241851 1
  endloop
 endfacet
 facet normal 0 -0 1
  outer loop
   vertex 1.84441 0.13988 1
   vertex 1.8447 0.140639 1
   vertex 1.83489 0.141742 1
  endloop
 endfacet
 facet normal 0 -0 1
  outer loop
   vertex 1.83988 0.136993 1
   vertex 1.84069 0.137058 1
   vertex 1.83489 0.141742 1
  endloop
 endfacet
 facet normal 0 -0 1
  outer loop
   vertex 1.8447 0.140639 1
   vertex 1.84485 0.141433 1
   vertex 1.83489 0.141742 1
  endloop
 endfacet
 facet normal -0 0 1
  outer loop
   vertex 1.83489 0.141742 1
   vertex 1.84485 0.141433 1
   vertex 1.84488 0.142242 1
  endloop
 endfacet
 facet normal 0 -0 1
  outer loop
   vertex 1.83489 0.141742 1
   vertex 1.84488 0.142242 1
   vertex 1.83397 0.15101 1
  endloop
 endfacet
 facet normal -0 0 1
  outer loop
   vertex 1.83397 0.15101 1
   vertex 1.84488 0.142242 1
   vertex 1.84395 0.151848 1
  endloop
 endfacet
 facet normal 0 -0 1
  outer loop
   vertex 1.83397 0.15101 1
   vertex 1.84395 0.151848 1
   vertex 1.83214 0.160142 1
  endloop
 endfacet
 facet normal -0 0 1
  outer loop
   vertex 1.83214 0.160142 1
   vertex 1.84395 0.151848 1
   vertex 1.84215 0.161328 1
  endloop
 endfacet
 facet normal 0 -0 1
  outer loop
   vertex 1.83214 0.160142 1
   vertex 1.84215 0.161328 1
   vertex 1.82944 0.169052 1
  endloop
 endfacet
 facet normal -0 0 1
  outer loop
   vertex 1.82944 0.169052 1
   vertex 1.84215 0.161328 1
   vertex 1.83948 0.170602 1
  endloop
 endfacet
 facet normal 0 -0 1
  outer loop
   vertex 1.82944 0.169052 1
   vertex 1.83948 0.170602 1
   vertex 1.82587 0.177654 1
  endloop
 endfacet
 facet normal -0 0 1
  outer loop
   vertex 1.82587 0.177654 1
   vertex 1.83948 0.170602 1
   vertex 1.83598 0.179593 1
  endloop
 endfacet
 facet normal 0 -0 1
  outer loop
   vertex 1.82587 0.177654 1
   vertex 1.83598 0.179593 1
   vertex 1.82147 0.185865 1
  endloop
 endfacet
 facet normal -0 0 1
  outer loop
   vertex 1.82147 0.185865 1
   vertex 1.83598 0.179593 1
   vertex 1.83166 0.188224 1
  endloop
 endfacet
 facet normal 0 -0 1
  outer loop
   vertex 1.82147 0.185865 1
   vertex 1.83166 0.188224 1
   vertex 1.8163 0.193607 1
  endloop
 endfacet
 facet normal -0 0 1
  outer loop
   vertex 1.8163 0.193607 1
   vertex 1.83166 0.188224 1
   vertex 1.82657 0.196423 1
  endloop
 endfacet
 facet normal 0 -0 1
  outer loop
   vertex 1.8163 0.193607 1
   vertex 1.82657 0.196423 1
   vertex 1.81039 0.200805 1
  endloop
 endfacet
 facet normal -0 0 1
  outer loop
   vertex 1.81039 0.200805 1
   vertex 1.82657 0.196423 1
   vertex 1.82075 0.20412 1
  endloop
 endfacet
 facet normal 0 0 1
  outer loop
   vertex 1.81039 0.200805 1
   vertex 1.82075 0.20412 1
   vertex 1.81425 0.211249 1
  endloop
 endfacet
 facet normal 0 0 1
  outer loop
   vertex 1.83988 0.136993 1
   vertex 1.83489 0.141742 1
   vertex 1.83904 0.137064 1
  endloop
 endfacet
 facet normal 0 0 1
  outer loop
   vertex 1.74364 0.241696 1
   vertex 1.74288 0.241414 1
   vertex 1.74474 0.231889 1
  endloop
 endfacet
 facet normal 0 0 1
  outer loop
   vertex 1.74474 0.231889 1
   vertex 1.74288 0.241414 1
   vertex 1.74218 0.241014 1
  endloop
 endfacet
 facet normal 0 0 1
  outer loop
   vertex 1.74474 0.231889 1
   vertex 1.74218 0.241014 1
   vertex 1.74155 0.240505 1
  endloop
 endfacet
 facet normal 0 0 1
  outer loop
   vertex 1.74155 0.240505 1
   vertex 1.74101 0.239902 1
   vertex 1.74474 0.231889 1
  endloop
 endfacet
 facet normal 0 0 1
  outer loop
   vertex 1.74474 0.231889 1
   vertex 1.74101 0.239902 1
   vertex 1.74057 0.239219 1
  endloop
 endfacet
 facet normal 0 0 1
  outer loop
   vertex 1.74474 0.231889 1
   vertex 1.74057 0.239219 1
   vertex 1.74025 0.238475 1
  endloop
 endfacet
 facet normal 0 0 1
  outer loop
   vertex 1.74025 0.238475 1
   vertex 1.74006 0.237689 1
   vertex 1.74474 0.231889 1
  endloop
 endfacet
 facet normal 0 0 1
  outer loop
   vertex 1.74474 0.231889 1
   vertex 1.74006 0.237689 1
   vertex 1.73999 0.236883 1
  endloop
 endfacet
 facet normal 0 0 1
  outer loop
   vertex 1.74474 0.231889 1
   vertex 1.73999 0.236883 1
   vertex 1.74391 0.232002 1
  endloop
 endfacet
 facet normal 0 0 1
  outer loop
   vertex 1.835 0.140906 1
   vertex 1.83525 0.140101 1
   vertex 1.83746 0.137621 1
  endloop
 endfacet
 facet normal 0 -0 1
  outer loop
   vertex 1.84069 0.137058 1
   vertex 1.84148 0.137253 1
   vertex 1.83489 0.141742 1
  endloop
 endfacet
 facet normal 0 0 1
  outer loop
   vertex 1.83489 0.141742 1
   vertex 1.84148 0.137253 1
   vertex 1.84222 0.137572 1
  endloop
 endfacet
 facet normal 0 0 1
  outer loop
   vertex 1.83489 0.141742 1
   vertex 1.84222 0.137572 1
   vertex 1.8429 0.138007 1
  endloop
 endfacet
 facet normal 0 0 1
  outer loop
   vertex 1.74028 0.235225 1
   vertex 1.74062 0.234455 1
   vertex 1.7431 0.232254 1
  endloop
 endfacet
 facet normal -0 -0 1
  outer loop
   vertex 1.835 0.140906 1
   vertex 1.83746 0.137621 1
   vertex 1.83489 0.141742 1
  endloop
 endfacet
 facet normal 0 0 1
  outer loop
   vertex 1.83489 0.141742 1
   vertex 1.83746 0.137621 1
   vertex 1.83822 0.137275 1
  endloop
 endfacet
 facet normal 0 0 1
  outer loop
   vertex 1.83489 0.141742 1
   vertex 1.83822 0.137275 1
   vertex 1.83904 0.137064 1
  endloop
 endfacet
 facet normal 0 -0 1
  outer loop
   vertex 1.8429 0.138007 1
   vertex 1.84351 0.138546 1
   vertex 1.83489 0.141742 1
  endloop
 endfacet
 facet normal 0 0 1
  outer loop
   vertex 1.83489 0.141742 1
   vertex 1.84351 0.138546 1
   vertex 1.84401 0.139176 1
  endloop
 endfacet
 facet normal 0 0 1
  outer loop
   vertex 1.83489 0.141742 1
   vertex 1.84401 0.139176 1
   vertex 1.84441 0.13988 1
  endloop
 endfacet
 facet normal 0 0 1
  outer loop
   vertex 1.83525 0.140101 1
   vertex 1.83564 0.139349 1
   vertex 1.83746 0.137621 1
  endloop
 endfacet
 facet normal 0 0 1
  outer loop
   vertex 1.83746 0.137621 1
   vertex 1.83564 0.139349 1
   vertex 1.83614 0.138673 1
  endloop
 endfacet
 facet normal 0 0 1
  outer loop
   vertex 1.83746 0.137621 1
   vertex 1.83614 0.138673 1
   vertex 1.83675 0.138092 1
  endloop
 endfacet
 facet normal 0 0 1
  outer loop
   vertex 1.74391 0.232002 1
   vertex 1.73999 0.236883 1
   vertex 1.7431 0.232254 1
  endloop
 endfacet
 facet normal 0 0 1
  outer loop
   vertex 1.7431 0.232254 1
   vertex 1.73999 0.236883 1
   vertex 1.74006 0.236042 1
  endloop
 endfacet
 facet normal 0 0 1
  outer loop
   vertex 1.7431 0.232254 1
   vertex 1.74006 0.236042 1
   vertex 1.74028 0.235225 1
  endloop
 endfacet
 facet normal 0 0 1
  outer loop
   vertex 1.74062 0.234455 1
   vertex 1.74109 0.233755 1
   vertex 1.7431 0.232254 1
  endloop
 endfacet
 facet normal 0 0 1
  outer loop
   vertex 1.7431 0.232254 1
   vertex 1.74109 0.233755 1
   vertex 1.74167 0.233143 1
  endloop
 endfacet
 facet normal 0 0 1
  outer loop
   vertex 1.7431 0.232254 1
   vertex 1.74167 0.233143 1
   vertex 1.74235 0.232638 1
  endloop
 endfacet
 facet normal 0.999312 -0.0370984 0
  outer loop
   vertex 1.84488 0.142242 -1
   vertex 1.84488 0.142242 1
   vertex 1.84485 0.141433 1
  endloop
 endfacet
 facet normal 0.999312 -0.0370984 0
  outer loop
   vertex 1.84488 0.142242 -1
   vertex 1.84485 0.141433 1
   vertex 1.84485 0.141433 -1
  endloop
 endfacet
 facet normal 0.982648 -0.185479 0
  outer loop
   vertex 1.84485 0.141433 -1
   vertex 1.84485 0.141433 1
   vertex 1.8447 0.140639 1
  endloop
 endfacet
 facet normal 0.982648 -0.185479 0
  outer loop
   vertex 1.84485 0.141433 -1
   vertex 1.8447 0.140639 1
   vertex 1.8447 0.140639 -1
  endloop
 endfacet
 facet normal 0.934121 -0.356956 0
  outer loop
   vertex 1.8447 0.140639 -1
   vertex 1.8447 0.140639 1
   vertex 1.84441 0.13988 1
  endloop
 endfacet
 facet normal 0.934121 -0.356956 0
  outer loop
   vertex 1.8447 0.140639 -1
   vertex 1.84441 0.13988 1
   vertex 1.84441 0.13988 -1
  endloop
 endfacet
 facet normal 0.869365 -0.494171 0
  outer loop
   vertex 1.84441 0.13988 -1
   vertex 1.84441 0.13988 1
   vertex 1.84401 0.139176 1
  endloop
 endfacet
 facet normal 0.869365 -0.494171 0
  outer loop
   vertex 1.84441 0.13988 -1
   vertex 1.84401 0.139176 1
   vertex 1.84401 0.139176 -1
  endloop
 endfacet
 facet normal 0.783214 -0.621753 0
  outer loop
   vertex 1.84401 0.139176 -1
   vertex 1.84401 0.139176 1
   vertex 1.84351 0.138546 1
  endloop
 endfacet
 facet normal 0.783214 -0.621753 0
  outer loop
   vertex 1.84401 0.139176 -1
   vertex 1.84351 0.138546 1
   vertex 1.84351 0.138546 -1
  endloop
 endfacet
 facet normal 0.662429 -0.749125 0
  outer loop
   vertex 1.84351 0.138546 -1
   vertex 1.84351 0.138546 1
   vertex 1.8429 0.138007 1
  endloop
 endfacet
 facet normal 0.662429 -0.749125 0
  outer loop
   vertex 1.84351 0.138546 -1
   vertex 1.8429 0.138007 1
   vertex 1.8429 0.138007 -1
  endloop
 endfacet
 facet normal 0.53883 -0.842415 0
  outer loop
   vertex 1.8429 0.138007 -1
   vertex 1.8429 0.138007 1
   vertex 1.84222 0.137572 1
  endloop
 endfacet
 facet normal 0.53883 -0.842415 0
  outer loop
   vertex 1.8429 0.138007 -1
   vertex 1.84222 0.137572 1
   vertex 1.84222 0.137572 -1
  endloop
 endfacet
 facet normal 0.395998 -0.918251 0
  outer loop
   vertex 1.84222 0.137572 -1
   vertex 1.84222 0.137572 1
   vertex 1.84148 0.137253 1
  endloop
 endfacet
 facet normal 0.395998 -0.918251 0
  outer loop
   vertex 1.84222 0.137572 -1
   vertex 1.84148 0.137253 1
   vertex 1.84148 0.137253 -1
  endloop
 endfacet
 facet normal 0.239531 -0.970889 0
  outer loop
   vertex 1.84148 0.137253 -1
   vertex 1.84148 0.137253 1
   vertex 1.84069 0.137058 1
  endloop
 endfacet
 facet normal 0.239531 -0.970889 0
  outer loop
   vertex 1.84148 0.137253 -1
   vertex 1.84069 0.137058 1
   vertex 1.84069 0.137058 -1
  endloop
 endfacet
 facet normal 0.080596 -0.996747 0
  outer loop
   vertex 1.84069 0.137058 -1
   vertex 1.84069 0.137058 1
   vertex 1.83988 0.136993 1
  endloop
 endfacet
 facet normal 0.080596 -0.996747 0
  outer loop
   vertex 1.84069 0.137058 -1
   vertex 1.83988 0.136993 1
   vertex 1.83988 0.136993 -1
  endloop
 endfacet
 facet normal -0.0844659 -0.996426 0
  outer loop
   vertex 1.83988 0.136993 -1
   vertex 1.83988 0.136993 1
   vertex 1.83904 0.137064 1
  endloop
 endfacet
 facet normal -0.0844659 -0.996426 0
  outer loop
   vertex 1.83988 0.136993 -1
   vertex 1.83904 0.137064 1
   vertex 1.83904 0.137064 -1
  endloop
 endfacet
 facet normal -0.249848 -0.968285 0
  outer loop
   vertex 1.83904 0.137064 -1
   vertex 1.83904 0.137064 1
   vertex 1.83822 0.137275 1
  endloop
 endfacet
 facet normal -0.249848 -0.968285 0
  outer loop
   vertex 1.83904 0.137064 -1
   vertex 1.83822 0.137275 1
   vertex 1.83822 0.137275 -1
  endloop
 endfacet
 facet normal -0.414364 -0.910111 0
  outer loop
   vertex 1.83822 0.137275 -1
   vertex 1.83822 0.137275 1
   vertex 1.83746 0.137621 1
  endloop
 endfacet
 facet normal -0.414364 -0.910111 0
  outer loop
   vertex 1.83822 0.137275 -1
   vertex 1.83746 0.137621 1
   vertex 1.83746 0.137621 -1
  endloop
 endfacet
 facet normal -0.552308 -0.83364 0
  outer loop
   vertex 1.83746 0.137621 -1
   vertex 1.83746 0.137621 1
   vertex 1.83675 0.138092 1
  endloop
 endfacet
 facet normal -0.552308 -0.83364 0
  outer loop
   vertex 1.83746 0.137621 -1
   vertex 1.83675 0.138092 1
   vertex 1.83675 0.138092 -1
  endloop
 endfacet
 facet normal -0.690061 -0.723751 0
  outer loop
   vertex 1.83675 0.138092 -1
   vertex 1.83675 0.138092 1
   vertex 1.83614 0.138673 1
  endloop
 endfacet
 facet normal -0.690061 -0.723751 0
  outer loop
   vertex 1.83675 0.138092 -1
   vertex 1.83614 0.138673 1
   vertex 1.83614 0.138673 -1
  endloop
 endfacet
 facet normal -0.804015 -0.594609 0
  outer loop
   vertex 1.83614 0.138673 -1
   vertex 1.83614 0.138673 1
   vertex 1.83564 0.139349 1
  endloop
 endfacet
 facet normal -0.804015 -0.594609 0
  outer loop
   vertex 1.83614 0.138673 -1
   vertex 1.83564 0.139349 1
   vertex 1.83564 0.139349 -1
  endloop
 endfacet
 facet normal -0.887601 -0.460613 0
  outer loop
   vertex 1.83564 0.139349 -1
   vertex 1.83564 0.139349 1
   vertex 1.83525 0.140101 1
  endloop
 endfacet
 facet normal -0.887601 -0.460613 0
  outer loop
   vertex 1.83564 0.139349 -1
   vertex 1.83525 0.140101 1
   vertex 1.83525 0.140101 -1
  endloop
 endfacet
 facet normal -0.955044 -0.296465 0
  outer loop
   vertex 1.83525 0.140101 -1
   vertex 1.83525 0.140101 1
   vertex 1.835 0.140906 1
  endloop
 endfacet
 facet normal -0.955044 -0.296465 0
  outer loop
   vertex 1.83525 0.140101 -1
   vertex 1.835 0.140906 1
   vertex 1.835 0.140906 -1
  endloop
 endfacet
 facet normal -0.991456 -0.130444 0
  outer loop
   vertex 1.835 0.140906 -1
   vertex 1.835 0.140906 1
   vertex 1.83489 0.141742 1
  endloop
 endfacet
 facet normal -0.991456 -0.130444 0
  outer loop
   vertex 1.835 0.140906 -1
   vertex 1.83489 0.141742 1
   vertex 1.83489 0.141742 -1
  endloop
 endfacet
 facet normal -0.99626 0.0864085 0
  outer loop
   vertex 1.73999 0.236883 -1
   vertex 1.73999 0.236883 1
   vertex 1.74006 0.237689 1
  endloop
 endfacet
 facet normal -0.99626 0.0864085 0
  outer loop
   vertex 1.73999 0.236883 -1
   vertex 1.74006 0.237689 1
   vertex 1.74006 0.237689 -1
  endloop
 endfacet
 facet normal -0.971985 0.235042 0
  outer loop
   vertex 1.74006 0.237689 -1
   vertex 1.74006 0.237689 1
   vertex 1.74025 0.238475 1
  endloop
 endfacet
 facet normal -0.971985 0.235042 0
  outer loop
   vertex 1.74006 0.237689 -1
   vertex 1.74025 0.238475 1
   vertex 1.74025 0.238475 -1
  endloop
 endfacet
 facet normal -0.918633 0.395112 0
  outer loop
   vertex 1.74025 0.238475 -1
   vertex 1.74025 0.238475 1
   vertex 1.74057 0.239219 1
  endloop
 endfacet
 facet normal -0.918633 0.395112 0
  outer loop
   vertex 1.74025 0.238475 -1
   vertex 1.74057 0.239219 1
   vertex 1.74057 0.239219 -1
  endloop
 endfacet
 facet normal -0.840586 0.541679 0
  outer loop
   vertex 1.74057 0.239219 -1
   vertex 1.74057 0.239219 1
   vertex 1.74101 0.239902 1
  endloop
 endfacet
 facet normal -0.840586 0.541679 0
  outer loop
   vertex 1.74057 0.239219 -1
   vertex 1.74101 0.239902 1
   vertex 1.74101 0.239902 -1
  endloop
 endfacet
 facet normal -0.745214 0.666825 0
  outer loop
   vertex 1.74101 0.239902 -1
   vertex 1.74101 0.239902 1
   vertex 1.74155 0.240505 1
  endloop
 endfacet
 facet normal -0.745214 0.666825 0
  outer loop
   vertex 1.74101 0.239902 -1
   vertex 1.74155 0.240505 1
   vertex 1.74155 0.240505 -1
  endloop
 endfacet
 facet normal -0.62814 0.778101 0
  outer loop
   vertex 1.74155 0.240505 -1
   vertex 1.74155 0.240505 1
   vertex 1.74218 0.241014 1
  endloop
 endfacet
 facet normal -0.62814 0.778101 0
  outer loop
   vertex 1.74155 0.240505 -1
   vertex 1.74218 0.241014 1
   vertex 1.74218 0.241014 -1
  endloop
 endfacet
 facet normal -0.496513 0.86803 0
  outer loop
   vertex 1.74218 0.241014 -1
   vertex 1.74218 0.241014 1
   vertex 1.74288 0.241414 1
  endloop
 endfacet
 facet normal -0.496513 0.86803 0
  outer loop
   vertex 1.74218 0.241014 -1
   vertex 1.74288 0.241414 1
   vertex 1.74288 0.241414 -1
  endloop
 endfacet
 facet normal -0.347353 0.937735 0
  outer loop
   vertex 1.74288 0.241414 -1
   vertex 1.74288 0.241414 1
   vertex 1.74364 0.241696 1
  endloop
 endfacet
 facet normal -0.347353 0.937735 0
  outer loop
   vertex 1.74288 0.241414 -1
   vertex 1.74364 0.241696 1
   vertex 1.74364 0.241696 -1
  endloop
 endfacet
 facet normal -0.19289 0.98122 0
  outer loop
   vertex 1.74364 0.241696 -1
   vertex 1.74364 0.241696 1
   vertex 1.74443 0.241851 1
  endloop
 endfacet
 facet normal -0.19289 0.98122 0
  outer loop
   vertex 1.74364 0.241696 -1
   vertex 1.74443 0.241851 1
   vertex 1.74443 0.241851 -1
  endloop
 endfacet
 facet normal -0.030973 0.99952 0
  outer loop
   vertex 1.74443 0.241851 -1
   vertex 1.74443 0.241851 1
   vertex 1.74524 0.241876 1
  endloop
 endfacet
 facet normal -0.030973 0.99952 0
  outer loop
   vertex 1.74443 0.241851 -1
   vertex 1.74524 0.241876 1
   vertex 1.74524 0.241876 -1
  endloop
 endfacet
 facet normal -0.135126 -0.990828 0
  outer loop
   vertex 1.74474 0.231889 -1
   vertex 1.74474 0.231889 1
   vertex 1.74391 0.232002 1
  endloop
 endfacet
 facet normal -0.135126 -0.990828 0
  outer loop
   vertex 1.74474 0.231889 -1
   vertex 1.74391 0.232002 1
   vertex 1.74391 0.232002 -1
  endloop
 endfacet
 facet normal -0.297311 -0.954781 0
  outer loop
   vertex 1.74391 0.232002 -1
   vertex 1.74391 0.232002 1
   vertex 1.7431 0.232254 1
  endloop
 endfacet
 facet normal -0.297311 -0.954781 0
  outer loop
   vertex 1.74391 0.232002 -1
   vertex 1.7431 0.232254 1
   vertex 1.7431 0.232254 -1
  endloop
 endfacet
 facet normal -0.455706 -0.89013 0
  outer loop
   vertex 1.7431 0.232254 -1
   vertex 1.7431 0.232254 1
   vertex 1.74235 0.232638 1
  endloop
 endfacet
 facet normal -0.455706 -0.89013 0
  outer loop
   vertex 1.7431 0.232254 -1
   vertex 1.74235 0.232638 1
   vertex 1.74235 0.232638 -1
  endloop
 endfacet
 facet normal -0.596233 -0.802812 0
  outer loop
   vertex 1.74235 0.232638 -1
   vertex 1.74235 0.232638 1
   vertex 1.74167 0.233143 1
  endloop
 endfacet
 facet normal -0.596233 -0.802812 0
  outer loop
   vertex 1.74235 0.232638 -1
   vertex 1.74167 0.233143 1
   vertex 1.74167 0.233143 -1
  endloop
 endfacet
 facet normal -0.72552 -0.688201 0
  outer loop
   vertex 1.74167 0.233143 -1
   vertex 1.74167 0.233143 1
   vertex 1.74109 0.233755 1
  endloop
 endfacet
 facet normal -0.72552 -0.688201 0
  outer loop
   vertex 1.74167 0.233143 -1
   vertex 1.74109 0.233755 1
   vertex 1.74109 0.233755 -1
  endloop
 endfacet
 facet normal -0.830382 -0.557194 0
  outer loop
   vertex 1.74109 0.233755 -1
   vertex 1.74109 0.233755 1
   vertex 1.74062 0.234455 1
  endloop
 endfacet
 facet normal -0.830382 -0.557194 0
  outer loop
   vertex 1.74109 0.233755 -1
   vertex 1.74062 0.234455 1
   vertex 1.74062 0.234455 -1
  endloop
 endfacet
 facet normal -0.914737 -0.404051 0
  outer loop
   vertex 1.74062 0.234455 -1
   vertex 1.74062 0.234455 1
   vertex 1.74028 0.235225 1
  endloop
 endfacet
 facet normal -0.914737 -0.404051 0
  outer loop
   vertex 1.74062 0.234455 -1
   vertex 1.74028 0.235225 1
   vertex 1.74028 0.235225 -1
  endloop
 endfacet
 facet normal -0.965578 -0.260112 0
  outer loop
   vertex 1.74028 0.235225 -1
   vertex 1.74028 0.235225 1
   vertex 1.74006 0.236042 1
  endloop
 endfacet
 facet normal -0.965578 -0.260112 0
  outer loop
   vertex 1.74028 0.235225 -1
   vertex 1.74006 0.236042 1
   vertex 1.74006 0.236042 -1
  endloop
 endfacet
 facet normal -0.996555 -0.0829286 0
  outer loop
   vertex 1.74006 0.236042 -1
   vertex 1.74006 0.236042 1
   vertex 1.73999 0.236883 1
  endloop
 endfacet
 facet normal -0.996555 -0.0829286 0
  outer loop
   vertex 1.74006 0.236042 -1
   vertex 1.73999 0.236883 1
   vertex 1.73999 0.236883 -1
  endloop
 endfacet
endsolid tunner_vane
