solid tunner_vane
 facet normal -0.00202342 0.999998 0
  outer loop
   vertex 0.0532242 -4.97104e-05 -1
   vertex 0.0532242 -4.97104e-05 1
   vertex 0.0537038 -4.874e-05 1
  endloop
 endfacet
 facet normal -0.00202342 0.999998 0
  outer loop
   vertex 0.0532242 -4.97104e-05 -1
   vertex 0.0537038 -4.874e-05 1
   vertex 0.0537038 -4.874e-05 -1
  endloop
 endfacet
 facet normal 0.0291706 0.999574 -0
  outer loop
   vertex 0.0537038 -4.874e-05 -1
   vertex 0.0537038 -4.874e-05 1
   vertex 0.0541832 -6.27303e-05 1
  endloop
 endfacet
 facet normal 0.0291706 0.999574 0
  outer loop
   vertex 0.0537038 -4.874e-05 -1
   vertex 0.0541832 -6.27303e-05 1
   vertex 0.0541832 -6.27303e-05 -1
  endloop
 endfacet
 facet normal 0.0601661 0.998188 -0
  outer loop
   vertex 0.0541832 -6.27303e-05 -1
   vertex 0.0541832 -6.27303e-05 1
   vertex 0.054662 -9.15902e-05 1
  endloop
 endfacet
 facet normal 0.0601661 0.998188 0
  outer loop
   vertex 0.0541832 -6.27303e-05 -1
   vertex 0.054662 -9.15902e-05 1
   vertex 0.054662 -9.15902e-05 -1
  endloop
 endfacet
 facet normal 0.0910367 0.995848 -0
  outer loop
   vertex 0.054662 -9.15902e-05 -1
   vertex 0.054662 -9.15902e-05 1
   vertex 0.0551397 -0.00013526 1
  endloop
 endfacet
 facet normal 0.0910367 0.995848 0
  outer loop
   vertex 0.054662 -9.15902e-05 -1
   vertex 0.0551397 -0.00013526 1
   vertex 0.0551397 -0.00013526 -1
  endloop
 endfacet
 facet normal 0.121859 0.992547 -0
  outer loop
   vertex 0.0551397 -0.00013526 -1
   vertex 0.0551397 -0.00013526 1
   vertex 0.0556157 -0.0001937 1
  endloop
 endfacet
 facet normal 0.121859 0.992547 0
  outer loop
   vertex 0.0551397 -0.00013526 -1
   vertex 0.0556157 -0.0001937 1
   vertex 0.0556157 -0.0001937 -1
  endloop
 endfacet
 facet normal 0.152683 0.988275 -0
  outer loop
   vertex 0.0556157 -0.0001937 -1
   vertex 0.0556157 -0.0001937 1
   vertex 0.0560897 -0.00026693 1
  endloop
 endfacet
 facet normal 0.152683 0.988275 0
  outer loop
   vertex 0.0556157 -0.0001937 -1
   vertex 0.0560897 -0.00026693 1
   vertex 0.0560897 -0.00026693 -1
  endloop
 endfacet
 facet normal 0.183268 0.983063 -0
  outer loop
   vertex 0.0560897 -0.00026693 -1
   vertex 0.0560897 -0.00026693 1
   vertex 0.0565612 -0.00035483 1
  endloop
 endfacet
 facet normal 0.183268 0.983063 0
  outer loop
   vertex 0.0560897 -0.00026693 -1
   vertex 0.0565612 -0.00035483 1
   vertex 0.0565612 -0.00035483 -1
  endloop
 endfacet
 facet normal 0.213727 0.976893 -0
  outer loop
   vertex 0.0565612 -0.00035483 -1
   vertex 0.0565612 -0.00035483 1
   vertex 0.0570297 -0.00045733 1
  endloop
 endfacet
 facet normal 0.213727 0.976893 0
  outer loop
   vertex 0.0565612 -0.00035483 -1
   vertex 0.0570297 -0.00045733 1
   vertex 0.0570297 -0.00045733 -1
  endloop
 endfacet
 facet normal 0.243851 0.969813 -0
  outer loop
   vertex 0.0570297 -0.00045733 -1
   vertex 0.0570297 -0.00045733 1
   vertex 0.0574949 -0.0005743 1
  endloop
 endfacet
 facet normal 0.243851 0.969813 0
  outer loop
   vertex 0.0570297 -0.00045733 -1
   vertex 0.0574949 -0.0005743 1
   vertex 0.0574949 -0.0005743 -1
  endloop
 endfacet
 facet normal 0.273947 0.961745 -0
  outer loop
   vertex 0.0574949 -0.0005743 -1
   vertex 0.0574949 -0.0005743 1
   vertex 0.0579561 -0.00070567 1
  endloop
 endfacet
 facet normal 0.273947 0.961745 0
  outer loop
   vertex 0.0574949 -0.0005743 -1
   vertex 0.0579561 -0.00070567 1
   vertex 0.0579561 -0.00070567 -1
  endloop
 endfacet
 facet normal 0.303585 0.952804 -0
  outer loop
   vertex 0.0579561 -0.00070567 -1
   vertex 0.0579561 -0.00070567 1
   vertex 0.0584131 -0.00085128 1
  endloop
 endfacet
 facet normal 0.303585 0.952804 0
  outer loop
   vertex 0.0579561 -0.00070567 -1
   vertex 0.0584131 -0.00085128 1
   vertex 0.0584131 -0.00085128 -1
  endloop
 endfacet
 facet normal 0.332996 0.942928 -0
  outer loop
   vertex 0.0584131 -0.00085128 -1
   vertex 0.0584131 -0.00085128 1
   vertex 0.0588654 -0.00101101 1
  endloop
 endfacet
 facet normal 0.332996 0.942928 0
  outer loop
   vertex 0.0584131 -0.00085128 -1
   vertex 0.0588654 -0.00101101 1
   vertex 0.0588654 -0.00101101 -1
  endloop
 endfacet
 facet normal 0.362097 0.93214 -0
  outer loop
   vertex 0.0588654 -0.00101101 -1
   vertex 0.0588654 -0.00101101 1
   vertex 0.0593125 -0.00118469 1
  endloop
 endfacet
 facet normal 0.362097 0.93214 0
  outer loop
   vertex 0.0588654 -0.00101101 -1
   vertex 0.0593125 -0.00118469 1
   vertex 0.0593125 -0.00118469 -1
  endloop
 endfacet
 facet normal 0.390938 0.920417 -0
  outer loop
   vertex 0.0593125 -0.00118469 -1
   vertex 0.0593125 -0.00118469 1
   vertex 0.0597539 -0.00137217 1
  endloop
 endfacet
 facet normal 0.390938 0.920417 0
  outer loop
   vertex 0.0593125 -0.00118469 -1
   vertex 0.0597539 -0.00137217 1
   vertex 0.0597539 -0.00137217 -1
  endloop
 endfacet
 facet normal 0.419195 0.907896 -0
  outer loop
   vertex 0.0597539 -0.00137217 -1
   vertex 0.0597539 -0.00137217 1
   vertex 0.0601894 -0.00157325 1
  endloop
 endfacet
 facet normal 0.419195 0.907896 0
  outer loop
   vertex 0.0597539 -0.00137217 -1
   vertex 0.0601894 -0.00157325 1
   vertex 0.0601894 -0.00157325 -1
  endloop
 endfacet
 facet normal 0.447314 0.894377 -0
  outer loop
   vertex 0.0601894 -0.00157325 -1
   vertex 0.0601894 -0.00157325 1
   vertex 0.0606183 -0.00178776 1
  endloop
 endfacet
 facet normal 0.447314 0.894377 0
  outer loop
   vertex 0.0601894 -0.00157325 -1
   vertex 0.0606183 -0.00178776 1
   vertex 0.0606183 -0.00178776 -1
  endloop
 endfacet
 facet normal 0.474718 0.880138 -0
  outer loop
   vertex 0.0606183 -0.00178776 -1
   vertex 0.0606183 -0.00178776 1
   vertex 0.0610405 -0.00201548 1
  endloop
 endfacet
 facet normal 0.474718 0.880138 0
  outer loop
   vertex 0.0606183 -0.00178776 -1
   vertex 0.0610405 -0.00201548 1
   vertex 0.0610405 -0.00201548 -1
  endloop
 endfacet
 facet normal 0.501899 0.864926 -0
  outer loop
   vertex 0.0610405 -0.00201548 -1
   vertex 0.0610405 -0.00201548 1
   vertex 0.0614553 -0.00225618 1
  endloop
 endfacet
 facet normal 0.501899 0.864926 0
  outer loop
   vertex 0.0610405 -0.00201548 -1
   vertex 0.0614553 -0.00225618 1
   vertex 0.0614553 -0.00225618 -1
  endloop
 endfacet
 facet normal 0.528454 0.848962 -0
  outer loop
   vertex 0.0614553 -0.00225618 -1
   vertex 0.0614553 -0.00225618 1
   vertex 0.0618625 -0.00250965 1
  endloop
 endfacet
 facet normal 0.528454 0.848962 0
  outer loop
   vertex 0.0614553 -0.00225618 -1
   vertex 0.0618625 -0.00250965 1
   vertex 0.0618625 -0.00250965 -1
  endloop
 endfacet
 facet normal 0.554574 0.832135 -0
  outer loop
   vertex 0.0618625 -0.00250965 -1
   vertex 0.0618625 -0.00250965 1
   vertex 0.0622616 -0.00277563 1
  endloop
 endfacet
 facet normal 0.554574 0.832135 0
  outer loop
   vertex 0.0618625 -0.00250965 -1
   vertex 0.0622616 -0.00277563 1
   vertex 0.0622616 -0.00277563 -1
  endloop
 endfacet
 facet normal 0.580078 0.814561 -0
  outer loop
   vertex 0.0622616 -0.00277563 -1
   vertex 0.0622616 -0.00277563 1
   vertex 0.0626523 -0.00305386 1
  endloop
 endfacet
 facet normal 0.580078 0.814561 0
  outer loop
   vertex 0.0622616 -0.00277563 -1
   vertex 0.0626523 -0.00305386 1
   vertex 0.0626523 -0.00305386 -1
  endloop
 endfacet
 facet normal 0.605174 0.796094 -0
  outer loop
   vertex 0.0626523 -0.00305386 -1
   vertex 0.0626523 -0.00305386 1
   vertex 0.0630341 -0.0033441 1
  endloop
 endfacet
 facet normal 0.605174 0.796094 0
  outer loop
   vertex 0.0626523 -0.00305386 -1
   vertex 0.0630341 -0.0033441 1
   vertex 0.0630341 -0.0033441 -1
  endloop
 endfacet
 facet normal 0.629475 0.777021 -0
  outer loop
   vertex 0.0630341 -0.0033441 -1
   vertex 0.0630341 -0.0033441 1
   vertex 0.0634068 -0.00364603 1
  endloop
 endfacet
 facet normal 0.629475 0.777021 0
  outer loop
   vertex 0.0630341 -0.0033441 -1
   vertex 0.0634068 -0.00364603 1
   vertex 0.0634068 -0.00364603 -1
  endloop
 endfacet
 facet normal 0.653353 0.757053 -0
  outer loop
   vertex 0.0634068 -0.00364603 -1
   vertex 0.0634068 -0.00364603 1
   vertex 0.0637699 -0.00395939 1
  endloop
 endfacet
 facet normal 0.653353 0.757053 0
  outer loop
   vertex 0.0634068 -0.00364603 -1
   vertex 0.0637699 -0.00395939 1
   vertex 0.0637699 -0.00395939 -1
  endloop
 endfacet
 facet normal 0.67653 0.736415 -0
  outer loop
   vertex 0.0637699 -0.00395939 -1
   vertex 0.0637699 -0.00395939 1
   vertex 0.0641231 -0.00428387 1
  endloop
 endfacet
 facet normal 0.67653 0.736415 0
  outer loop
   vertex 0.0637699 -0.00395939 -1
   vertex 0.0641231 -0.00428387 1
   vertex 0.0641231 -0.00428387 -1
  endloop
 endfacet
 facet normal 0.699019 0.715103 -0
  outer loop
   vertex 0.0641231 -0.00428387 -1
   vertex 0.0641231 -0.00428387 1
   vertex 0.0644661 -0.00461915 1
  endloop
 endfacet
 facet normal 0.699019 0.715103 0
  outer loop
   vertex 0.0641231 -0.00428387 -1
   vertex 0.0644661 -0.00461915 1
   vertex 0.0644661 -0.00461915 -1
  endloop
 endfacet
 facet normal 0.721008 0.692927 -0
  outer loop
   vertex 0.0644661 -0.00461915 -1
   vertex 0.0644661 -0.00461915 1
   vertex 0.0647984 -0.00496492 1
  endloop
 endfacet
 facet normal 0.721008 0.692927 0
  outer loop
   vertex 0.0644661 -0.00461915 -1
   vertex 0.0647984 -0.00496492 1
   vertex 0.0647984 -0.00496492 -1
  endloop
 endfacet
 facet normal 0.742078 0.670314 -0
  outer loop
   vertex 0.0647984 -0.00496492 -1
   vertex 0.0647984 -0.00496492 1
   vertex 0.0651199 -0.00532084 1
  endloop
 endfacet
 facet normal 0.742078 0.670314 0
  outer loop
   vertex 0.0647984 -0.00496492 -1
   vertex 0.0651199 -0.00532084 1
   vertex 0.0651199 -0.00532084 -1
  endloop
 endfacet
 facet normal 0.762516 0.64697 -0
  outer loop
   vertex 0.0651199 -0.00532084 -1
   vertex 0.0651199 -0.00532084 1
   vertex 0.0654302 -0.00568656 1
  endloop
 endfacet
 facet normal 0.762516 0.64697 0
  outer loop
   vertex 0.0651199 -0.00532084 -1
   vertex 0.0654302 -0.00568656 1
   vertex 0.0654302 -0.00568656 -1
  endloop
 endfacet
 facet normal 0.782228 0.622993 -0
  outer loop
   vertex 0.0654302 -0.00568656 -1
   vertex 0.0654302 -0.00568656 1
   vertex 0.065729 -0.00606173 1
  endloop
 endfacet
 facet normal 0.782228 0.622993 0
  outer loop
   vertex 0.0654302 -0.00568656 -1
   vertex 0.065729 -0.00606173 1
   vertex 0.065729 -0.00606173 -1
  endloop
 endfacet
 facet normal 0.801101 0.598529 -0
  outer loop
   vertex 0.065729 -0.00606173 -1
   vertex 0.065729 -0.00606173 1
   vertex 0.0660161 -0.006446 1
  endloop
 endfacet
 facet normal 0.801101 0.598529 0
  outer loop
   vertex 0.065729 -0.00606173 -1
   vertex 0.0660161 -0.006446 1
   vertex 0.0660161 -0.006446 -1
  endloop
 endfacet
 facet normal 0.819431 0.573178 -0
  outer loop
   vertex 0.0660161 -0.006446 -1
   vertex 0.0660161 -0.006446 1
   vertex 0.066291 -0.006839 1
  endloop
 endfacet
 facet normal 0.819431 0.573178 0
  outer loop
   vertex 0.0660161 -0.006446 -1
   vertex 0.066291 -0.006839 1
   vertex 0.066291 -0.006839 -1
  endloop
 endfacet
 facet normal 0.836783 0.547534 -0
  outer loop
   vertex 0.066291 -0.006839 -1
   vertex 0.066291 -0.006839 1
   vertex 0.0665536 -0.00724033 1
  endloop
 endfacet
 facet normal 0.836783 0.547534 0
  outer loop
   vertex 0.066291 -0.006839 -1
   vertex 0.0665536 -0.00724033 1
   vertex 0.0665536 -0.00724033 -1
  endloop
 endfacet
 facet normal 0.853301 0.521419 -0
  outer loop
   vertex 0.0665536 -0.00724033 -1
   vertex 0.0665536 -0.00724033 1
   vertex 0.0668037 -0.00764962 1
  endloop
 endfacet
 facet normal 0.853301 0.521419 0
  outer loop
   vertex 0.0665536 -0.00724033 -1
   vertex 0.0668037 -0.00764962 1
   vertex 0.0668037 -0.00764962 -1
  endloop
 endfacet
 facet normal 0.869144 0.494559 -0
  outer loop
   vertex 0.0668037 -0.00764962 -1
   vertex 0.0668037 -0.00764962 1
   vertex 0.0670409 -0.00806647 1
  endloop
 endfacet
 facet normal 0.869144 0.494559 0
  outer loop
   vertex 0.0668037 -0.00764962 -1
   vertex 0.0670409 -0.00806647 1
   vertex 0.0670409 -0.00806647 -1
  endloop
 endfacet
 facet normal 0.884024 0.467441 -0
  outer loop
   vertex 0.0670409 -0.00806647 -1
   vertex 0.0670409 -0.00806647 1
   vertex 0.0672651 -0.00849048 1
  endloop
 endfacet
 facet normal 0.884024 0.467441 0
  outer loop
   vertex 0.0670409 -0.00806647 -1
   vertex 0.0672651 -0.00849048 1
   vertex 0.0672651 -0.00849048 -1
  endloop
 endfacet
 facet normal 0.898222 0.439543 -0
  outer loop
   vertex 0.0672651 -0.00849048 -1
   vertex 0.0672651 -0.00849048 1
   vertex 0.0674759 -0.00892126 1
  endloop
 endfacet
 facet normal 0.898222 0.439543 0
  outer loop
   vertex 0.0672651 -0.00849048 -1
   vertex 0.0674759 -0.00892126 1
   vertex 0.0674759 -0.00892126 -1
  endloop
 endfacet
 facet normal 0.911295 0.411755 -0
  outer loop
   vertex 0.0674759 -0.00892126 -1
   vertex 0.0674759 -0.00892126 1
   vertex 0.0676734 -0.00935837 1
  endloop
 endfacet
 facet normal 0.911295 0.411755 0
  outer loop
   vertex 0.0674759 -0.00892126 -1
   vertex 0.0676734 -0.00935837 1
   vertex 0.0676734 -0.00935837 -1
  endloop
 endfacet
 facet normal 0.923736 0.38303 -0
  outer loop
   vertex 0.0676734 -0.00935837 -1
   vertex 0.0676734 -0.00935837 1
   vertex 0.0678571 -0.00980139 1
  endloop
 endfacet
 facet normal 0.923736 0.38303 0
  outer loop
   vertex 0.0676734 -0.00935837 -1
   vertex 0.0678571 -0.00980139 1
   vertex 0.0678571 -0.00980139 -1
  endloop
 endfacet
 facet normal 0.935084 0.354427 -0
  outer loop
   vertex 0.0678571 -0.00980139 -1
   vertex 0.0678571 -0.00980139 1
   vertex 0.0680271 -0.0102499 1
  endloop
 endfacet
 facet normal 0.935084 0.354427 0
  outer loop
   vertex 0.0678571 -0.00980139 -1
   vertex 0.0680271 -0.0102499 1
   vertex 0.0680271 -0.0102499 -1
  endloop
 endfacet
 facet normal 0.945699 0.325045 -0
  outer loop
   vertex 0.0680271 -0.0102499 -1
   vertex 0.0680271 -0.0102499 1
   vertex 0.068183 -0.0107035 1
  endloop
 endfacet
 facet normal 0.945699 0.325045 0
  outer loop
   vertex 0.0680271 -0.0102499 -1
   vertex 0.068183 -0.0107035 1
   vertex 0.068183 -0.0107035 -1
  endloop
 endfacet
 facet normal 0.9553 0.295637 -0
  outer loop
   vertex 0.068183 -0.0107035 -1
   vertex 0.068183 -0.0107035 1
   vertex 0.0683248 -0.0111617 1
  endloop
 endfacet
 facet normal 0.9553 0.295637 0
  outer loop
   vertex 0.068183 -0.0107035 -1
   vertex 0.0683248 -0.0111617 1
   vertex 0.0683248 -0.0111617 -1
  endloop
 endfacet
 facet normal 0.964069 0.265653 -0
  outer loop
   vertex 0.0683248 -0.0111617 -1
   vertex 0.0683248 -0.0111617 1
   vertex 0.0684522 -0.011624 1
  endloop
 endfacet
 facet normal 0.964069 0.265653 0
  outer loop
   vertex 0.0683248 -0.0111617 -1
   vertex 0.0684522 -0.011624 1
   vertex 0.0684522 -0.011624 -1
  endloop
 endfacet
 facet normal 0.971801 0.235804 -0
  outer loop
   vertex 0.0684522 -0.011624 -1
   vertex 0.0684522 -0.011624 1
   vertex 0.0685653 -0.0120901 1
  endloop
 endfacet
 facet normal 0.971801 0.235804 0
  outer loop
   vertex 0.0684522 -0.011624 -1
   vertex 0.0685653 -0.0120901 1
   vertex 0.0685653 -0.0120901 -1
  endloop
 endfacet
 facet normal 0.978641 0.205575 -0
  outer loop
   vertex 0.0685653 -0.0120901 -1
   vertex 0.0685653 -0.0120901 1
   vertex 0.0686639 -0.0125595 1
  endloop
 endfacet
 facet normal 0.978641 0.205575 0
  outer loop
   vertex 0.0685653 -0.0120901 -1
   vertex 0.0686639 -0.0125595 1
   vertex 0.0686639 -0.0125595 -1
  endloop
 endfacet
 facet normal 0.98458 0.174934 -0
  outer loop
   vertex 0.0686639 -0.0125595 -1
   vertex 0.0686639 -0.0125595 1
   vertex 0.0687478 -0.0130318 1
  endloop
 endfacet
 facet normal 0.98458 0.174934 0
  outer loop
   vertex 0.0686639 -0.0125595 -1
   vertex 0.0687478 -0.0130318 1
   vertex 0.0687478 -0.0130318 -1
  endloop
 endfacet
 facet normal 0.989539 0.144268 -0
  outer loop
   vertex 0.0687478 -0.0130318 -1
   vertex 0.0687478 -0.0130318 1
   vertex 0.068817 -0.0135063 1
  endloop
 endfacet
 facet normal 0.989539 0.144268 0
  outer loop
   vertex 0.0687478 -0.0130318 -1
   vertex 0.068817 -0.0135063 1
   vertex 0.068817 -0.0135063 -1
  endloop
 endfacet
 facet normal 0.993523 0.113634 -0
  outer loop
   vertex 0.068817 -0.0135063 -1
   vertex 0.068817 -0.0135063 1
   vertex 0.0688715 -0.0139829 1
  endloop
 endfacet
 facet normal 0.993523 0.113634 0
  outer loop
   vertex 0.068817 -0.0135063 -1
   vertex 0.0688715 -0.0139829 1
   vertex 0.0688715 -0.0139829 -1
  endloop
 endfacet
 facet normal 0.996568 0.0827815 -0
  outer loop
   vertex 0.0688715 -0.0139829 -1
   vertex 0.0688715 -0.0139829 1
   vertex 0.0689112 -0.0144608 1
  endloop
 endfacet
 facet normal 0.996568 0.0827815 0
  outer loop
   vertex 0.0688715 -0.0139829 -1
   vertex 0.0689112 -0.0144608 1
   vertex 0.0689112 -0.0144608 -1
  endloop
 endfacet
 facet normal 0.998663 0.0516971 -0
  outer loop
   vertex 0.0689112 -0.0144608 -1
   vertex 0.0689112 -0.0144608 1
   vertex 0.068936 -0.0149398 1
  endloop
 endfacet
 facet normal 0.998663 0.0516971 0
  outer loop
   vertex 0.0689112 -0.0144608 -1
   vertex 0.068936 -0.0149398 1
   vertex 0.068936 -0.0149398 -1
  endloop
 endfacet
 facet normal 0.999783 0.0208469 -0
  outer loop
   vertex 0.068936 -0.0149398 -1
   vertex 0.068936 -0.0149398 1
   vertex 0.068946 -0.0154194 1
  endloop
 endfacet
 facet normal 0.999783 0.0208469 0
  outer loop
   vertex 0.068936 -0.0149398 -1
   vertex 0.068946 -0.0154194 1
   vertex 0.068946 -0.0154194 -1
  endloop
 endfacet
 facet normal 0.999946 -0.0104234 0
  outer loop
   vertex 0.068946 -0.0154194 -1
   vertex 0.068946 -0.0154194 1
   vertex 0.068941 -0.015899 1
  endloop
 endfacet
 facet normal 0.999946 -0.0104234 0
  outer loop
   vertex 0.068946 -0.0154194 -1
   vertex 0.068941 -0.015899 1
   vertex 0.068941 -0.015899 -1
  endloop
 endfacet
 facet normal 0.999148 -0.0412714 0
  outer loop
   vertex 0.068941 -0.015899 -1
   vertex 0.068941 -0.015899 1
   vertex 0.0689212 -0.0163782 1
  endloop
 endfacet
 facet normal 0.999148 -0.0412714 0
  outer loop
   vertex 0.068941 -0.015899 -1
   vertex 0.0689212 -0.0163782 1
   vertex 0.0689212 -0.0163782 -1
  endloop
 endfacet
 facet normal 0.997379 -0.07235 0
  outer loop
   vertex 0.0689212 -0.0163782 -1
   vertex 0.0689212 -0.0163782 1
   vertex 0.0688865 -0.0168565 1
  endloop
 endfacet
 facet normal 0.997379 -0.07235 0
  outer loop
   vertex 0.0689212 -0.0163782 -1
   vertex 0.0688865 -0.0168565 1
   vertex 0.0688865 -0.0168565 -1
  endloop
 endfacet
 facet normal 0.994638 -0.103418 0
  outer loop
   vertex 0.0688865 -0.0168565 -1
   vertex 0.0688865 -0.0168565 1
   vertex 0.0688369 -0.0173336 1
  endloop
 endfacet
 facet normal 0.994638 -0.103418 0
  outer loop
   vertex 0.0688865 -0.0168565 -1
   vertex 0.0688369 -0.0173336 1
   vertex 0.0688369 -0.0173336 -1
  endloop
 endfacet
 facet normal -0.156407 -0.987693 -0
  outer loop
   vertex 0.0681633 -0.017823 1
   vertex 0.067867 -0.0177761 1
   vertex 0.0681633 -0.017823 -1
  endloop
 endfacet
 facet normal -0.156407 -0.987693 0
  outer loop
   vertex 0.0681633 -0.017823 -1
   vertex 0.067867 -0.0177761 1
   vertex 0.067867 -0.0177761 -1
  endloop
 endfacet
 facet normal -0.990081 0.140494 0
  outer loop
   vertex 0.067867 -0.0177761 -1
   vertex 0.067867 -0.0177761 1
   vertex 0.0679327 -0.0173131 -1
  endloop
 endfacet
 facet normal -0.990081 0.140494 0
  outer loop
   vertex 0.0679327 -0.0173131 -1
   vertex 0.067867 -0.0177761 1
   vertex 0.0679327 -0.0173131 1
  endloop
 endfacet
 facet normal -0.994082 0.10863 0
  outer loop
   vertex 0.0679327 -0.0173131 -1
   vertex 0.0679327 -0.0173131 1
   vertex 0.0679835 -0.0168483 -1
  endloop
 endfacet
 facet normal -0.994082 0.10863 0
  outer loop
   vertex 0.0679835 -0.0168483 -1
   vertex 0.0679327 -0.0173131 1
   vertex 0.0679835 -0.0168483 1
  endloop
 endfacet
 facet normal -0.99705 0.0767585 0
  outer loop
   vertex 0.0679835 -0.0168483 -1
   vertex 0.0679835 -0.0168483 1
   vertex 0.0680194 -0.016382 -1
  endloop
 endfacet
 facet normal -0.99705 0.0767585 0
  outer loop
   vertex 0.0680194 -0.016382 -1
   vertex 0.0679835 -0.0168483 1
   vertex 0.0680194 -0.016382 1
  endloop
 endfacet
 facet normal -0.99901 0.0444856 0
  outer loop
   vertex 0.0680194 -0.016382 -1
   vertex 0.0680194 -0.016382 1
   vertex 0.0680402 -0.0159148 -1
  endloop
 endfacet
 facet normal -0.99901 0.0444856 0
  outer loop
   vertex 0.0680402 -0.0159148 -1
   vertex 0.0680194 -0.016382 1
   vertex 0.0680402 -0.0159148 1
  endloop
 endfacet
 facet normal -0.99992 0.0126187 0
  outer loop
   vertex 0.0680402 -0.0159148 -1
   vertex 0.0680402 -0.0159148 1
   vertex 0.0680461 -0.0154472 -1
  endloop
 endfacet
 facet normal -0.99992 0.0126187 0
  outer loop
   vertex 0.0680461 -0.0154472 -1
   vertex 0.0680402 -0.0159148 1
   vertex 0.0680461 -0.0154472 1
  endloop
 endfacet
 facet normal -0.999806 -0.0196768 0
  outer loop
   vertex 0.0680461 -0.0154472 -1
   vertex 0.0680461 -0.0154472 1
   vertex 0.0680369 -0.0149797 -1
  endloop
 endfacet
 facet normal -0.999806 -0.0196768 0
  outer loop
   vertex 0.0680369 -0.0149797 -1
   vertex 0.0680461 -0.0154472 1
   vertex 0.0680369 -0.0149797 1
  endloop
 endfacet
 facet normal -0.998649 -0.0519551 0
  outer loop
   vertex 0.0680369 -0.0149797 -1
   vertex 0.0680369 -0.0149797 1
   vertex 0.0680126 -0.0145127 -1
  endloop
 endfacet
 facet normal -0.998649 -0.0519551 0
  outer loop
   vertex 0.0680126 -0.0145127 -1
   vertex 0.0680369 -0.0149797 1
   vertex 0.0680126 -0.0145127 1
  endloop
 endfacet
 facet normal -0.996479 -0.0838382 0
  outer loop
   vertex 0.0680126 -0.0145127 -1
   vertex 0.0680126 -0.0145127 1
   vertex 0.0679734 -0.0140467 -1
  endloop
 endfacet
 facet normal -0.996479 -0.0838382 0
  outer loop
   vertex 0.0679734 -0.0140467 -1
   vertex 0.0680126 -0.0145127 1
   vertex 0.0679734 -0.0140467 1
  endloop
 endfacet
 facet normal -0.993285 -0.115689 0
  outer loop
   vertex 0.0679734 -0.0140467 -1
   vertex 0.0679734 -0.0140467 1
   vertex 0.0679193 -0.0135822 -1
  endloop
 endfacet
 facet normal -0.993285 -0.115689 0
  outer loop
   vertex 0.0679193 -0.0135822 -1
   vertex 0.0679734 -0.0140467 1
   vertex 0.0679193 -0.0135822 1
  endloop
 endfacet
 facet normal -0.989023 -0.147758 0
  outer loop
   vertex 0.0679193 -0.0135822 -1
   vertex 0.0679193 -0.0135822 1
   vertex 0.0678502 -0.0131197 -1
  endloop
 endfacet
 facet normal -0.989023 -0.147758 0
  outer loop
   vertex 0.0678502 -0.0131197 -1
   vertex 0.0679193 -0.0135822 1
   vertex 0.0678502 -0.0131197 1
  endloop
 endfacet
 facet normal -0.983773 -0.179418 0
  outer loop
   vertex 0.0678502 -0.0131197 -1
   vertex 0.0678502 -0.0131197 1
   vertex 0.0677663 -0.0126597 -1
  endloop
 endfacet
 facet normal -0.983773 -0.179418 0
  outer loop
   vertex 0.0677663 -0.0126597 -1
   vertex 0.0678502 -0.0131197 1
   vertex 0.0677663 -0.0126597 1
  endloop
 endfacet
 facet normal -0.977518 -0.210851 0
  outer loop
   vertex 0.0677663 -0.0126597 -1
   vertex 0.0677663 -0.0126597 1
   vertex 0.0676677 -0.0122026 -1
  endloop
 endfacet
 facet normal -0.977518 -0.210851 0
  outer loop
   vertex 0.0676677 -0.0122026 -1
   vertex 0.0677663 -0.0126597 1
   vertex 0.0676677 -0.0122026 1
  endloop
 endfacet
 facet normal -0.970259 -0.242071 0
  outer loop
   vertex 0.0676677 -0.0122026 -1
   vertex 0.0676677 -0.0122026 1
   vertex 0.0675545 -0.0117489 -1
  endloop
 endfacet
 facet normal -0.970259 -0.242071 0
  outer loop
   vertex 0.0675545 -0.0117489 -1
   vertex 0.0676677 -0.0122026 1
   vertex 0.0675545 -0.0117489 1
  endloop
 endfacet
 facet normal -0.961927 -0.273306 0
  outer loop
   vertex 0.0675545 -0.0117489 -1
   vertex 0.0675545 -0.0117489 1
   vertex 0.0674267 -0.011299 -1
  endloop
 endfacet
 facet normal -0.961927 -0.273306 0
  outer loop
   vertex 0.0674267 -0.011299 -1
   vertex 0.0675545 -0.0117489 1
   vertex 0.0674267 -0.011299 1
  endloop
 endfacet
 facet normal -0.952711 -0.303878 0
  outer loop
   vertex 0.0674267 -0.011299 -1
   vertex 0.0674267 -0.011299 1
   vertex 0.0672846 -0.0108535 -1
  endloop
 endfacet
 facet normal -0.952711 -0.303878 0
  outer loop
   vertex 0.0672846 -0.0108535 -1
   vertex 0.0674267 -0.011299 1
   vertex 0.0672846 -0.0108535 1
  endloop
 endfacet
 facet normal -0.942343 -0.334648 0
  outer loop
   vertex 0.0672846 -0.0108535 -1
   vertex 0.0672846 -0.0108535 1
   vertex 0.0671281 -0.0104128 -1
  endloop
 endfacet
 facet normal -0.942343 -0.334648 0
  outer loop
   vertex 0.0671281 -0.0104128 -1
   vertex 0.0672846 -0.0108535 1
   vertex 0.0671281 -0.0104128 1
  endloop
 endfacet
 facet normal -0.931236 -0.364416 0
  outer loop
   vertex 0.0671281 -0.0104128 -1
   vertex 0.0671281 -0.0104128 1
   vertex 0.0669577 -0.00997738 -1
  endloop
 endfacet
 facet normal -0.931236 -0.364416 0
  outer loop
   vertex 0.0669577 -0.00997738 -1
   vertex 0.0671281 -0.0104128 1
   vertex 0.0669577 -0.00997738 1
  endloop
 endfacet
 facet normal -0.918974 -0.394317 0
  outer loop
   vertex 0.0669577 -0.00997738 -1
   vertex 0.0669577 -0.00997738 1
   vertex 0.0667733 -0.00954764 -1
  endloop
 endfacet
 facet normal -0.918974 -0.394317 0
  outer loop
   vertex 0.0667733 -0.00954764 -1
   vertex 0.0669577 -0.00997738 1
   vertex 0.0667733 -0.00954764 1
  endloop
 endfacet
 facet normal -0.905837 -0.423626 0
  outer loop
   vertex 0.0667733 -0.00954764 -1
   vertex 0.0667733 -0.00954764 1
   vertex 0.0665752 -0.00912404 -1
  endloop
 endfacet
 facet normal -0.905837 -0.423626 0
  outer loop
   vertex 0.0665752 -0.00912404 -1
   vertex 0.0667733 -0.00954764 1
   vertex 0.0665752 -0.00912404 1
  endloop
 endfacet
 facet normal -0.89177 -0.452489 0
  outer loop
   vertex 0.0665752 -0.00912404 -1
   vertex 0.0665752 -0.00912404 1
   vertex 0.0663636 -0.00870702 -1
  endloop
 endfacet
 facet normal -0.89177 -0.452489 0
  outer loop
   vertex 0.0663636 -0.00870702 -1
   vertex 0.0665752 -0.00912404 1
   vertex 0.0663636 -0.00870702 1
  endloop
 endfacet
 facet normal -0.876754 -0.480939 0
  outer loop
   vertex 0.0663636 -0.00870702 -1
   vertex 0.0663636 -0.00870702 1
   vertex 0.0661387 -0.00829702 -1
  endloop
 endfacet
 facet normal -0.876754 -0.480939 0
  outer loop
   vertex 0.0661387 -0.00829702 -1
   vertex 0.0663636 -0.00870702 1
   vertex 0.0661387 -0.00829702 1
  endloop
 endfacet
 facet normal -0.860909 -0.508758 0
  outer loop
   vertex 0.0661387 -0.00829702 -1
   vertex 0.0661387 -0.00829702 1
   vertex 0.0659008 -0.00789445 -1
  endloop
 endfacet
 facet normal -0.860909 -0.508758 0
  outer loop
   vertex 0.0659008 -0.00789445 -1
   vertex 0.0661387 -0.00829702 1
   vertex 0.0659008 -0.00789445 1
  endloop
 endfacet
 facet normal -0.844024 -0.536306 0
  outer loop
   vertex 0.0659008 -0.00789445 -1
   vertex 0.0659008 -0.00789445 1
   vertex 0.06565 -0.00749975 -1
  endloop
 endfacet
 facet normal -0.844024 -0.536306 0
  outer loop
   vertex 0.06565 -0.00749975 -1
   vertex 0.0659008 -0.00789445 1
   vertex 0.06565 -0.00749975 1
  endloop
 endfacet
 facet normal -0.826412 -0.563066 0
  outer loop
   vertex 0.06565 -0.00749975 -1
   vertex 0.06565 -0.00749975 1
   vertex 0.0653867 -0.0071133 -1
  endloop
 endfacet
 facet normal -0.826412 -0.563066 0
  outer loop
   vertex 0.0653867 -0.0071133 -1
   vertex 0.06565 -0.00749975 1
   vertex 0.0653867 -0.0071133 1
  endloop
 endfacet
 facet normal -0.80788 -0.589347 0
  outer loop
   vertex 0.0653867 -0.0071133 -1
   vertex 0.0653867 -0.0071133 1
   vertex 0.0651111 -0.00673551 -1
  endloop
 endfacet
 facet normal -0.80788 -0.589347 0
  outer loop
   vertex 0.0651111 -0.00673551 -1
   vertex 0.0653867 -0.0071133 1
   vertex 0.0651111 -0.00673551 1
  endloop
 endfacet
 facet normal -0.78852 -0.615009 0
  outer loop
   vertex 0.0651111 -0.00673551 -1
   vertex 0.0651111 -0.00673551 1
   vertex 0.0648235 -0.00636677 -1
  endloop
 endfacet
 facet normal -0.78852 -0.615009 0
  outer loop
   vertex 0.0648235 -0.00636677 -1
   vertex 0.0651111 -0.00673551 1
   vertex 0.0648235 -0.00636677 1
  endloop
 endfacet
 facet normal -0.768347 -0.640034 0
  outer loop
   vertex 0.0648235 -0.00636677 -1
   vertex 0.0648235 -0.00636677 1
   vertex 0.0645242 -0.00600747 -1
  endloop
 endfacet
 facet normal -0.768347 -0.640034 0
  outer loop
   vertex 0.0645242 -0.00600747 -1
   vertex 0.0648235 -0.00636677 1
   vertex 0.0645242 -0.00600747 1
  endloop
 endfacet
 facet normal -0.747379 -0.664398 0
  outer loop
   vertex 0.0645242 -0.00600747 -1
   vertex 0.0645242 -0.00600747 1
   vertex 0.0642135 -0.00565796 -1
  endloop
 endfacet
 facet normal -0.747379 -0.664398 0
  outer loop
   vertex 0.0642135 -0.00565796 -1
   vertex 0.0645242 -0.00600747 1
   vertex 0.0642135 -0.00565796 1
  endloop
 endfacet
 facet normal -0.725727 -0.687983 0
  outer loop
   vertex 0.0642135 -0.00565796 -1
   vertex 0.0642135 -0.00565796 1
   vertex 0.0638918 -0.00531861 -1
  endloop
 endfacet
 facet normal -0.725727 -0.687983 0
  outer loop
   vertex 0.0638918 -0.00531861 -1
   vertex 0.0642135 -0.00565796 1
   vertex 0.0638918 -0.00531861 1
  endloop
 endfacet
 facet normal -0.703164 -0.711027 0
  outer loop
   vertex 0.0638918 -0.00531861 -1
   vertex 0.0638918 -0.00531861 1
   vertex 0.0635593 -0.00498979 -1
  endloop
 endfacet
 facet normal -0.703164 -0.711027 0
  outer loop
   vertex 0.0635593 -0.00498979 -1
   vertex 0.0638918 -0.00531861 1
   vertex 0.0635593 -0.00498979 1
  endloop
 endfacet
 facet normal -0.679963 -0.733247 0
  outer loop
   vertex 0.0635593 -0.00498979 -1
   vertex 0.0635593 -0.00498979 1
   vertex 0.0632164 -0.00467181 -1
  endloop
 endfacet
 facet normal -0.679963 -0.733247 0
  outer loop
   vertex 0.0632164 -0.00467181 -1
   vertex 0.0635593 -0.00498979 1
   vertex 0.0632164 -0.00467181 1
  endloop
 endfacet
 facet normal -0.65609 -0.754683 0
  outer loop
   vertex 0.0632164 -0.00467181 -1
   vertex 0.0632164 -0.00467181 1
   vertex 0.0628635 -0.00436501 -1
  endloop
 endfacet
 facet normal -0.65609 -0.754683 0
  outer loop
   vertex 0.0628635 -0.00436501 -1
   vertex 0.0632164 -0.00467181 1
   vertex 0.0628635 -0.00436501 1
  endloop
 endfacet
 facet normal -0.631481 -0.775392 0
  outer loop
   vertex 0.0628635 -0.00436501 -1
   vertex 0.0628635 -0.00436501 1
   vertex 0.0625009 -0.00406971 -1
  endloop
 endfacet
 facet normal -0.631481 -0.775392 0
  outer loop
   vertex 0.0625009 -0.00406971 -1
   vertex 0.0628635 -0.00436501 1
   vertex 0.0625009 -0.00406971 1
  endloop
 endfacet
 facet normal -0.606226 -0.795292 0
  outer loop
   vertex 0.0625009 -0.00406971 -1
   vertex 0.0625009 -0.00406971 1
   vertex 0.062129 -0.00378622 -1
  endloop
 endfacet
 facet normal -0.606226 -0.795292 0
  outer loop
   vertex 0.062129 -0.00378622 -1
   vertex 0.0625009 -0.00406971 1
   vertex 0.062129 -0.00378622 1
  endloop
 endfacet
 facet normal -0.580389 -0.814339 0
  outer loop
   vertex 0.062129 -0.00378622 -1
   vertex 0.062129 -0.00378622 1
   vertex 0.0617482 -0.00351482 -1
  endloop
 endfacet
 facet normal -0.580389 -0.814339 0
  outer loop
   vertex 0.0617482 -0.00351482 -1
   vertex 0.062129 -0.00378622 1
   vertex 0.0617482 -0.00351482 1
  endloop
 endfacet
 facet normal -0.55384 -0.832623 0
  outer loop
   vertex 0.0617482 -0.00351482 -1
   vertex 0.0617482 -0.00351482 1
   vertex 0.0613588 -0.0032558 -1
  endloop
 endfacet
 facet normal -0.55384 -0.832623 0
  outer loop
   vertex 0.0613588 -0.0032558 -1
   vertex 0.0617482 -0.00351482 1
   vertex 0.0613588 -0.0032558 1
  endloop
 endfacet
 facet normal -0.526944 -0.8499 0
  outer loop
   vertex 0.0613588 -0.0032558 -1
   vertex 0.0613588 -0.0032558 1
   vertex 0.0609614 -0.00300941 -1
  endloop
 endfacet
 facet normal -0.526944 -0.8499 0
  outer loop
   vertex 0.0609614 -0.00300941 -1
   vertex 0.0613588 -0.0032558 1
   vertex 0.0609614 -0.00300941 1
  endloop
 endfacet
 facet normal -0.499258 -0.866453 0
  outer loop
   vertex 0.0609614 -0.00300941 -1
   vertex 0.0609614 -0.00300941 1
   vertex 0.0605562 -0.00277593 -1
  endloop
 endfacet
 facet normal -0.499258 -0.866453 0
  outer loop
   vertex 0.0605562 -0.00277593 -1
   vertex 0.0609614 -0.00300941 1
   vertex 0.0605562 -0.00277593 1
  endloop
 endfacet
 facet normal -0.471173 -0.882041 0
  outer loop
   vertex 0.0605562 -0.00277593 -1
   vertex 0.0605562 -0.00277593 1
   vertex 0.0601437 -0.00255558 -1
  endloop
 endfacet
 facet normal -0.471173 -0.882041 0
  outer loop
   vertex 0.0601437 -0.00255558 -1
   vertex 0.0605562 -0.00277593 1
   vertex 0.0601437 -0.00255558 1
  endloop
 endfacet
 facet normal -0.442623 -0.896708 0
  outer loop
   vertex 0.0601437 -0.00255558 -1
   vertex 0.0601437 -0.00255558 1
   vertex 0.0597244 -0.00234861 -1
  endloop
 endfacet
 facet normal -0.442623 -0.896708 0
  outer loop
   vertex 0.0597244 -0.00234861 -1
   vertex 0.0601437 -0.00255558 1
   vertex 0.0597244 -0.00234861 1
  endloop
 endfacet
 facet normal -0.413643 -0.910439 0
  outer loop
   vertex 0.0597244 -0.00234861 -1
   vertex 0.0597244 -0.00234861 1
   vertex 0.0592987 -0.0021552 -1
  endloop
 endfacet
 facet normal -0.413643 -0.910439 0
  outer loop
   vertex 0.0592987 -0.0021552 -1
   vertex 0.0597244 -0.00234861 1
   vertex 0.0592987 -0.0021552 1
  endloop
 endfacet
 facet normal -0.384073 -0.923303 0
  outer loop
   vertex 0.0592987 -0.0021552 -1
   vertex 0.0592987 -0.0021552 1
   vertex 0.0588669 -0.00197558 -1
  endloop
 endfacet
 facet normal -0.384073 -0.923303 0
  outer loop
   vertex 0.0588669 -0.00197558 -1
   vertex 0.0592987 -0.0021552 1
   vertex 0.0588669 -0.00197558 1
  endloop
 endfacet
 facet normal -0.354237 -0.935156 0
  outer loop
   vertex 0.0588669 -0.00197558 -1
   vertex 0.0588669 -0.00197558 1
   vertex 0.0584296 -0.00180993 -1
  endloop
 endfacet
 facet normal -0.354237 -0.935156 0
  outer loop
   vertex 0.0584296 -0.00180993 -1
   vertex 0.0588669 -0.00197558 1
   vertex 0.0584296 -0.00180993 1
  endloop
 endfacet
 facet normal -0.324018 -0.946051 0
  outer loop
   vertex 0.0584296 -0.00180993 -1
   vertex 0.0584296 -0.00180993 1
   vertex 0.0579872 -0.00165841 -1
  endloop
 endfacet
 facet normal -0.324018 -0.946051 0
  outer loop
   vertex 0.0579872 -0.00165841 -1
   vertex 0.0584296 -0.00180993 1
   vertex 0.0579872 -0.00165841 1
  endloop
 endfacet
 facet normal -0.293465 -0.95597 0
  outer loop
   vertex 0.0579872 -0.00165841 -1
   vertex 0.0579872 -0.00165841 1
   vertex 0.0575402 -0.00152119 -1
  endloop
 endfacet
 facet normal -0.293465 -0.95597 0
  outer loop
   vertex 0.0575402 -0.00152119 -1
   vertex 0.0579872 -0.00165841 1
   vertex 0.0575402 -0.00152119 1
  endloop
 endfacet
 facet normal -0.262556 -0.964917 0
  outer loop
   vertex 0.0575402 -0.00152119 -1
   vertex 0.0575402 -0.00152119 1
   vertex 0.0570889 -0.00139839 -1
  endloop
 endfacet
 facet normal -0.262556 -0.964917 0
  outer loop
   vertex 0.0570889 -0.00139839 -1
   vertex 0.0575402 -0.00152119 1
   vertex 0.0570889 -0.00139839 1
  endloop
 endfacet
 facet normal -0.231439 -0.972849 0
  outer loop
   vertex 0.0570889 -0.00139839 -1
   vertex 0.0570889 -0.00139839 1
   vertex 0.056634 -0.00129017 -1
  endloop
 endfacet
 facet normal -0.231439 -0.972849 0
  outer loop
   vertex 0.056634 -0.00129017 -1
   vertex 0.0570889 -0.00139839 1
   vertex 0.056634 -0.00129017 1
  endloop
 endfacet
 facet normal -0.200061 -0.979783 0
  outer loop
   vertex 0.056634 -0.00129017 -1
   vertex 0.056634 -0.00129017 1
   vertex 0.0561758 -0.00119661 -1
  endloop
 endfacet
 facet normal -0.200061 -0.979783 0
  outer loop
   vertex 0.0561758 -0.00119661 -1
   vertex 0.056634 -0.00129017 1
   vertex 0.0561758 -0.00119661 1
  endloop
 endfacet
 facet normal -0.168505 -0.985701 0
  outer loop
   vertex 0.0561758 -0.00119661 -1
   vertex 0.0561758 -0.00119661 1
   vertex 0.0557149 -0.00111782 -1
  endloop
 endfacet
 facet normal -0.168505 -0.985701 0
  outer loop
   vertex 0.0557149 -0.00111782 -1
   vertex 0.0561758 -0.00119661 1
   vertex 0.0557149 -0.00111782 1
  endloop
 endfacet
 facet normal -0.136693 -0.990614 0
  outer loop
   vertex 0.0557149 -0.00111782 -1
   vertex 0.0557149 -0.00111782 1
   vertex 0.0552516 -0.00105389 -1
  endloop
 endfacet
 facet normal -0.136693 -0.990614 0
  outer loop
   vertex 0.0552516 -0.00105389 -1
   vertex 0.0557149 -0.00111782 1
   vertex 0.0552516 -0.00105389 1
  endloop
 endfacet
 facet normal -0.104797 -0.994494 0
  outer loop
   vertex 0.0552516 -0.00105389 -1
   vertex 0.0552516 -0.00105389 1
   vertex 0.0547866 -0.00100489 -1
  endloop
 endfacet
 facet normal -0.104797 -0.994494 0
  outer loop
   vertex 0.0547866 -0.00100489 -1
   vertex 0.0552516 -0.00105389 1
   vertex 0.0547866 -0.00100489 1
  endloop
 endfacet
 facet normal -0.0728542 -0.997343 0
  outer loop
   vertex 0.0547866 -0.00100489 -1
   vertex 0.0547866 -0.00100489 1
   vertex 0.0543202 -0.00097082 -1
  endloop
 endfacet
 facet normal -0.0728542 -0.997343 0
  outer loop
   vertex 0.0543202 -0.00097082 -1
   vertex 0.0547866 -0.00100489 1
   vertex 0.0543202 -0.00097082 1
  endloop
 endfacet
 facet normal -0.0406987 -0.999171 0
  outer loop
   vertex 0.0543202 -0.00097082 -1
   vertex 0.0543202 -0.00097082 1
   vertex 0.053853 -0.00095179 -1
  endloop
 endfacet
 facet normal -0.0406987 -0.999171 0
  outer loop
   vertex 0.053853 -0.00095179 -1
   vertex 0.0543202 -0.00097082 1
   vertex 0.053853 -0.00095179 1
  endloop
 endfacet
 facet normal -0.999844 -0.0176705 -0
  outer loop
   vertex 0.0532295 -0.00034966 1
   vertex 0.0532242 -4.97104e-05 1
   vertex 0.0532295 -0.00034966 -1
  endloop
 endfacet
 facet normal -0.999844 -0.0176705 0
  outer loop
   vertex 0.0532295 -0.00034966 -1
   vertex 0.0532242 -4.97104e-05 1
   vertex 0.0532242 -4.97104e-05 -1
  endloop
 endfacet
 facet normal 0 0 -1
  outer loop
   vertex 0.0532295 -0.00034966 -1
   vertex 0.0532242 -4.97104e-05 -1
   vertex 0.053853 -0.00095179 -1
  endloop
 endfacet
 facet normal 0 0 -1
  outer loop
   vertex 0.053853 -0.00095179 -1
   vertex 0.0532242 -4.97104e-05 -1
   vertex 0.0537038 -4.874e-05 -1
  endloop
 endfacet
 facet normal 0 0 -1
  outer loop
   vertex 0.053853 -0.00095179 -1
   vertex 0.0537038 -4.874e-05 -1
   vertex 0.0543202 -0.00097082 -1
  endloop
 endfacet
 facet normal 0 0 -1
  outer loop
   vertex 0.0543202 -0.00097082 -1
   vertex 0.0537038 -4.874e-05 -1
   vertex 0.0541832 -6.27303e-05 -1
  endloop
 endfacet
 facet normal 0 0 -1
  outer loop
   vertex 0.0543202 -0.00097082 -1
   vertex 0.0541832 -6.27303e-05 -1
   vertex 0.0547866 -0.00100489 -1
  endloop
 endfacet
 facet normal 0 0 -1
  outer loop
   vertex 0.0547866 -0.00100489 -1
   vertex 0.0541832 -6.27303e-05 -1
   vertex 0.054662 -9.15902e-05 -1
  endloop
 endfacet
 facet normal 0 0 -1
  outer loop
   vertex 0.0547866 -0.00100489 -1
   vertex 0.054662 -9.15902e-05 -1
   vertex 0.0552516 -0.00105389 -1
  endloop
 endfacet
 facet normal 0 0 -1
  outer loop
   vertex 0.0552516 -0.00105389 -1
   vertex 0.054662 -9.15902e-05 -1
   vertex 0.0551397 -0.00013526 -1
  endloop
 endfacet
 facet normal 0 0 -1
  outer loop
   vertex 0.0552516 -0.00105389 -1
   vertex 0.0551397 -0.00013526 -1
   vertex 0.0557149 -0.00111782 -1
  endloop
 endfacet
 facet normal 0 0 -1
  outer loop
   vertex 0.0681633 -0.017823 -1
   vertex 0.067867 -0.0177761 -1
   vertex 0.0688369 -0.0173336 -1
  endloop
 endfacet
 facet normal -0 0 -1
  outer loop
   vertex 0.0688369 -0.0173336 -1
   vertex 0.067867 -0.0177761 -1
   vertex 0.0679327 -0.0173131 -1
  endloop
 endfacet
 facet normal 0 0 -1
  outer loop
   vertex 0.0688369 -0.0173336 -1
   vertex 0.0679327 -0.0173131 -1
   vertex 0.0688865 -0.0168565 -1
  endloop
 endfacet
 facet normal -0 0 -1
  outer loop
   vertex 0.0688865 -0.0168565 -1
   vertex 0.0679327 -0.0173131 -1
   vertex 0.0679835 -0.0168483 -1
  endloop
 endfacet
 facet normal 0 0 -1
  outer loop
   vertex 0.0688865 -0.0168565 -1
   vertex 0.0679835 -0.0168483 -1
   vertex 0.0689212 -0.0163782 -1
  endloop
 endfacet
 facet normal 0 0 -1
  outer loop
   vertex 0.0689212 -0.0163782 -1
   vertex 0.0679835 -0.0168483 -1
   vertex 0.0680194 -0.016382 -1
  endloop
 endfacet
 facet normal -0 0 -1
  outer loop
   vertex 0.0689212 -0.0163782 -1
   vertex 0.0680194 -0.016382 -1
   vertex 0.068941 -0.015899 -1
  endloop
 endfacet
 facet normal 0 0 -1
  outer loop
   vertex 0.068941 -0.015899 -1
   vertex 0.0680194 -0.016382 -1
   vertex 0.0680402 -0.0159148 -1
  endloop
 endfacet
 facet normal -0 0 -1
  outer loop
   vertex 0.068941 -0.015899 -1
   vertex 0.0680402 -0.0159148 -1
   vertex 0.068946 -0.0154194 -1
  endloop
 endfacet
 facet normal 0 0 -1
  outer loop
   vertex 0.068946 -0.0154194 -1
   vertex 0.0680402 -0.0159148 -1
   vertex 0.0680461 -0.0154472 -1
  endloop
 endfacet
 facet normal -0 0 -1
  outer loop
   vertex 0.068946 -0.0154194 -1
   vertex 0.0680461 -0.0154472 -1
   vertex 0.068936 -0.0149398 -1
  endloop
 endfacet
 facet normal 0 0 -1
  outer loop
   vertex 0.068936 -0.0149398 -1
   vertex 0.0680461 -0.0154472 -1
   vertex 0.0680369 -0.0149797 -1
  endloop
 endfacet
 facet normal -0 0 -1
  outer loop
   vertex 0.068936 -0.0149398 -1
   vertex 0.0680369 -0.0149797 -1
   vertex 0.0689112 -0.0144608 -1
  endloop
 endfacet
 facet normal 0 0 -1
  outer loop
   vertex 0.0689112 -0.0144608 -1
   vertex 0.0680369 -0.0149797 -1
   vertex 0.0680126 -0.0145127 -1
  endloop
 endfacet
 facet normal -0 0 -1
  outer loop
   vertex 0.0689112 -0.0144608 -1
   vertex 0.0680126 -0.0145127 -1
   vertex 0.0688715 -0.0139829 -1
  endloop
 endfacet
 facet normal 0 0 -1
  outer loop
   vertex 0.0688715 -0.0139829 -1
   vertex 0.0680126 -0.0145127 -1
   vertex 0.0679734 -0.0140467 -1
  endloop
 endfacet
 facet normal -0 0 -1
  outer loop
   vertex 0.0688715 -0.0139829 -1
   vertex 0.0679734 -0.0140467 -1
   vertex 0.068817 -0.0135063 -1
  endloop
 endfacet
 facet normal 0 0 -1
  outer loop
   vertex 0.068817 -0.0135063 -1
   vertex 0.0679734 -0.0140467 -1
   vertex 0.0679193 -0.0135822 -1
  endloop
 endfacet
 facet normal -0 0 -1
  outer loop
   vertex 0.068817 -0.0135063 -1
   vertex 0.0679193 -0.0135822 -1
   vertex 0.0687478 -0.0130318 -1
  endloop
 endfacet
 facet normal 0 0 -1
  outer loop
   vertex 0.0687478 -0.0130318 -1
   vertex 0.0679193 -0.0135822 -1
   vertex 0.0678502 -0.0131197 -1
  endloop
 endfacet
 facet normal -0 0 -1
  outer loop
   vertex 0.0687478 -0.0130318 -1
   vertex 0.0678502 -0.0131197 -1
   vertex 0.0686639 -0.0125595 -1
  endloop
 endfacet
 facet normal 0 0 -1
  outer loop
   vertex 0.0686639 -0.0125595 -1
   vertex 0.0678502 -0.0131197 -1
   vertex 0.0677663 -0.0126597 -1
  endloop
 endfacet
 facet normal -0 0 -1
  outer loop
   vertex 0.0686639 -0.0125595 -1
   vertex 0.0677663 -0.0126597 -1
   vertex 0.0685653 -0.0120901 -1
  endloop
 endfacet
 facet normal 0 0 -1
  outer loop
   vertex 0.0685653 -0.0120901 -1
   vertex 0.0677663 -0.0126597 -1
   vertex 0.0676677 -0.0122026 -1
  endloop
 endfacet
 facet normal -0 0 -1
  outer loop
   vertex 0.0685653 -0.0120901 -1
   vertex 0.0676677 -0.0122026 -1
   vertex 0.0684522 -0.011624 -1
  endloop
 endfacet
 facet normal 0 0 -1
  outer loop
   vertex 0.0684522 -0.011624 -1
   vertex 0.0676677 -0.0122026 -1
   vertex 0.0675545 -0.0117489 -1
  endloop
 endfacet
 facet normal -0 0 -1
  outer loop
   vertex 0.0684522 -0.011624 -1
   vertex 0.0675545 -0.0117489 -1
   vertex 0.0683248 -0.0111617 -1
  endloop
 endfacet
 facet normal 0 0 -1
  outer loop
   vertex 0.0683248 -0.0111617 -1
   vertex 0.0675545 -0.0117489 -1
   vertex 0.0674267 -0.011299 -1
  endloop
 endfacet
 facet normal -0 0 -1
  outer loop
   vertex 0.0683248 -0.0111617 -1
   vertex 0.0674267 -0.011299 -1
   vertex 0.068183 -0.0107035 -1
  endloop
 endfacet
 facet normal 0 0 -1
  outer loop
   vertex 0.068183 -0.0107035 -1
   vertex 0.0674267 -0.011299 -1
   vertex 0.0672846 -0.0108535 -1
  endloop
 endfacet
 facet normal -0 0 -1
  outer loop
   vertex 0.068183 -0.0107035 -1
   vertex 0.0672846 -0.0108535 -1
   vertex 0.0680271 -0.0102499 -1
  endloop
 endfacet
 facet normal 0 0 -1
  outer loop
   vertex 0.0680271 -0.0102499 -1
   vertex 0.0672846 -0.0108535 -1
   vertex 0.0671281 -0.0104128 -1
  endloop
 endfacet
 facet normal -0 0 -1
  outer loop
   vertex 0.0680271 -0.0102499 -1
   vertex 0.0671281 -0.0104128 -1
   vertex 0.0678571 -0.00980139 -1
  endloop
 endfacet
 facet normal 0 0 -1
  outer loop
   vertex 0.0678571 -0.00980139 -1
   vertex 0.0671281 -0.0104128 -1
   vertex 0.0669577 -0.00997738 -1
  endloop
 endfacet
 facet normal -0 0 -1
  outer loop
   vertex 0.0678571 -0.00980139 -1
   vertex 0.0669577 -0.00997738 -1
   vertex 0.0676734 -0.00935837 -1
  endloop
 endfacet
 facet normal 0 0 -1
  outer loop
   vertex 0.0676734 -0.00935837 -1
   vertex 0.0669577 -0.00997738 -1
   vertex 0.0667733 -0.00954764 -1
  endloop
 endfacet
 facet normal -0 0 -1
  outer loop
   vertex 0.0676734 -0.00935837 -1
   vertex 0.0667733 -0.00954764 -1
   vertex 0.0674759 -0.00892126 -1
  endloop
 endfacet
 facet normal 0 0 -1
  outer loop
   vertex 0.0674759 -0.00892126 -1
   vertex 0.0667733 -0.00954764 -1
   vertex 0.0665752 -0.00912404 -1
  endloop
 endfacet
 facet normal -0 0 -1
  outer loop
   vertex 0.0674759 -0.00892126 -1
   vertex 0.0665752 -0.00912404 -1
   vertex 0.0672651 -0.00849048 -1
  endloop
 endfacet
 facet normal 0 0 -1
  outer loop
   vertex 0.0672651 -0.00849048 -1
   vertex 0.0665752 -0.00912404 -1
   vertex 0.0663636 -0.00870702 -1
  endloop
 endfacet
 facet normal -0 0 -1
  outer loop
   vertex 0.0672651 -0.00849048 -1
   vertex 0.0663636 -0.00870702 -1
   vertex 0.0670409 -0.00806647 -1
  endloop
 endfacet
 facet normal 0 0 -1
  outer loop
   vertex 0.0670409 -0.00806647 -1
   vertex 0.0663636 -0.00870702 -1
   vertex 0.0661387 -0.00829702 -1
  endloop
 endfacet
 facet normal 0 0 -1
  outer loop
   vertex 0.0551397 -0.00013526 -1
   vertex 0.0556157 -0.0001937 -1
   vertex 0.0557149 -0.00111782 -1
  endloop
 endfacet
 facet normal 0 0 -1
  outer loop
   vertex 0.0557149 -0.00111782 -1
   vertex 0.0556157 -0.0001937 -1
   vertex 0.0560897 -0.00026693 -1
  endloop
 endfacet
 facet normal 0 0 -1
  outer loop
   vertex 0.0557149 -0.00111782 -1
   vertex 0.0560897 -0.00026693 -1
   vertex 0.0561758 -0.00119661 -1
  endloop
 endfacet
 facet normal 0 0 -1
  outer loop
   vertex 0.0561758 -0.00119661 -1
   vertex 0.0560897 -0.00026693 -1
   vertex 0.0565612 -0.00035483 -1
  endloop
 endfacet
 facet normal 0 0 -1
  outer loop
   vertex 0.0561758 -0.00119661 -1
   vertex 0.0565612 -0.00035483 -1
   vertex 0.056634 -0.00129017 -1
  endloop
 endfacet
 facet normal 0 0 -1
  outer loop
   vertex 0.056634 -0.00129017 -1
   vertex 0.0565612 -0.00035483 -1
   vertex 0.0570297 -0.00045733 -1
  endloop
 endfacet
 facet normal 0 0 -1
  outer loop
   vertex 0.056634 -0.00129017 -1
   vertex 0.0570297 -0.00045733 -1
   vertex 0.0570889 -0.00139839 -1
  endloop
 endfacet
 facet normal 0 0 -1
  outer loop
   vertex 0.0570889 -0.00139839 -1
   vertex 0.0570297 -0.00045733 -1
   vertex 0.0574949 -0.0005743 -1
  endloop
 endfacet
 facet normal 0 0 -1
  outer loop
   vertex 0.0570889 -0.00139839 -1
   vertex 0.0574949 -0.0005743 -1
   vertex 0.0575402 -0.00152119 -1
  endloop
 endfacet
 facet normal 0 0 -1
  outer loop
   vertex 0.0575402 -0.00152119 -1
   vertex 0.0574949 -0.0005743 -1
   vertex 0.0579561 -0.00070567 -1
  endloop
 endfacet
 facet normal 0 0 -1
  outer loop
   vertex 0.0575402 -0.00152119 -1
   vertex 0.0579561 -0.00070567 -1
   vertex 0.0579872 -0.00165841 -1
  endloop
 endfacet
 facet normal 0 0 -1
  outer loop
   vertex 0.0579872 -0.00165841 -1
   vertex 0.0579561 -0.00070567 -1
   vertex 0.0584131 -0.00085128 -1
  endloop
 endfacet
 facet normal 0 0 -1
  outer loop
   vertex 0.0579872 -0.00165841 -1
   vertex 0.0584131 -0.00085128 -1
   vertex 0.0584296 -0.00180993 -1
  endloop
 endfacet
 facet normal 0 0 -1
  outer loop
   vertex 0.0584296 -0.00180993 -1
   vertex 0.0584131 -0.00085128 -1
   vertex 0.0588654 -0.00101101 -1
  endloop
 endfacet
 facet normal 0 0 -1
  outer loop
   vertex 0.0584296 -0.00180993 -1
   vertex 0.0588654 -0.00101101 -1
   vertex 0.0588669 -0.00197558 -1
  endloop
 endfacet
 facet normal 0 0 -1
  outer loop
   vertex 0.0588669 -0.00197558 -1
   vertex 0.0588654 -0.00101101 -1
   vertex 0.0593125 -0.00118469 -1
  endloop
 endfacet
 facet normal 0 0 -1
  outer loop
   vertex 0.0588669 -0.00197558 -1
   vertex 0.0593125 -0.00118469 -1
   vertex 0.0592987 -0.0021552 -1
  endloop
 endfacet
 facet normal 0 0 -1
  outer loop
   vertex 0.0592987 -0.0021552 -1
   vertex 0.0593125 -0.00118469 -1
   vertex 0.0597539 -0.00137217 -1
  endloop
 endfacet
 facet normal 0 0 -1
  outer loop
   vertex 0.0592987 -0.0021552 -1
   vertex 0.0597539 -0.00137217 -1
   vertex 0.0597244 -0.00234861 -1
  endloop
 endfacet
 facet normal 0 0 -1
  outer loop
   vertex 0.0597244 -0.00234861 -1
   vertex 0.0597539 -0.00137217 -1
   vertex 0.0601894 -0.00157325 -1
  endloop
 endfacet
 facet normal 0 0 -1
  outer loop
   vertex 0.0597244 -0.00234861 -1
   vertex 0.0601894 -0.00157325 -1
   vertex 0.0601437 -0.00255558 -1
  endloop
 endfacet
 facet normal 0 0 -1
  outer loop
   vertex 0.0601437 -0.00255558 -1
   vertex 0.0601894 -0.00157325 -1
   vertex 0.0606183 -0.00178776 -1
  endloop
 endfacet
 facet normal 0 0 -1
  outer loop
   vertex 0.0601437 -0.00255558 -1
   vertex 0.0606183 -0.00178776 -1
   vertex 0.0605562 -0.00277593 -1
  endloop
 endfacet
 facet normal 0 0 -1
  outer loop
   vertex 0.0605562 -0.00277593 -1
   vertex 0.0606183 -0.00178776 -1
   vertex 0.0610405 -0.00201548 -1
  endloop
 endfacet
 facet normal 0 0 -1
  outer loop
   vertex 0.0605562 -0.00277593 -1
   vertex 0.0610405 -0.00201548 -1
   vertex 0.0609614 -0.00300941 -1
  endloop
 endfacet
 facet normal 0 0 -1
  outer loop
   vertex 0.0609614 -0.00300941 -1
   vertex 0.0610405 -0.00201548 -1
   vertex 0.0614553 -0.00225618 -1
  endloop
 endfacet
 facet normal 0 0 -1
  outer loop
   vertex 0.0609614 -0.00300941 -1
   vertex 0.0614553 -0.00225618 -1
   vertex 0.0613588 -0.0032558 -1
  endloop
 endfacet
 facet normal 0 0 -1
  outer loop
   vertex 0.0613588 -0.0032558 -1
   vertex 0.0614553 -0.00225618 -1
   vertex 0.0618625 -0.00250965 -1
  endloop
 endfacet
 facet normal 0 0 -1
  outer loop
   vertex 0.0613588 -0.0032558 -1
   vertex 0.0618625 -0.00250965 -1
   vertex 0.0617482 -0.00351482 -1
  endloop
 endfacet
 facet normal 0 0 -1
  outer loop
   vertex 0.0617482 -0.00351482 -1
   vertex 0.0618625 -0.00250965 -1
   vertex 0.0622616 -0.00277563 -1
  endloop
 endfacet
 facet normal 0 0 -1
  outer loop
   vertex 0.0617482 -0.00351482 -1
   vertex 0.0622616 -0.00277563 -1
   vertex 0.062129 -0.00378622 -1
  endloop
 endfacet
 facet normal 0 0 -1
  outer loop
   vertex 0.062129 -0.00378622 -1
   vertex 0.0622616 -0.00277563 -1
   vertex 0.0626523 -0.00305386 -1
  endloop
 endfacet
 facet normal 0 0 -1
  outer loop
   vertex 0.062129 -0.00378622 -1
   vertex 0.0626523 -0.00305386 -1
   vertex 0.0625009 -0.00406971 -1
  endloop
 endfacet
 facet normal 0 0 -1
  outer loop
   vertex 0.0625009 -0.00406971 -1
   vertex 0.0626523 -0.00305386 -1
   vertex 0.0630341 -0.0033441 -1
  endloop
 endfacet
 facet normal 0 0 -1
  outer loop
   vertex 0.0625009 -0.00406971 -1
   vertex 0.0630341 -0.0033441 -1
   vertex 0.0628635 -0.00436501 -1
  endloop
 endfacet
 facet normal 0 0 -1
  outer loop
   vertex 0.0628635 -0.00436501 -1
   vertex 0.0630341 -0.0033441 -1
   vertex 0.0634068 -0.00364603 -1
  endloop
 endfacet
 facet normal 0 0 -1
  outer loop
   vertex 0.0628635 -0.00436501 -1
   vertex 0.0634068 -0.00364603 -1
   vertex 0.0632164 -0.00467181 -1
  endloop
 endfacet
 facet normal 0 0 -1
  outer loop
   vertex 0.0632164 -0.00467181 -1
   vertex 0.0634068 -0.00364603 -1
   vertex 0.0637699 -0.00395939 -1
  endloop
 endfacet
 facet normal 0 0 -1
  outer loop
   vertex 0.0632164 -0.00467181 -1
   vertex 0.0637699 -0.00395939 -1
   vertex 0.0635593 -0.00498979 -1
  endloop
 endfacet
 facet normal 0 0 -1
  outer loop
   vertex 0.0635593 -0.00498979 -1
   vertex 0.0637699 -0.00395939 -1
   vertex 0.0641231 -0.00428387 -1
  endloop
 endfacet
 facet normal 0 0 -1
  outer loop
   vertex 0.0635593 -0.00498979 -1
   vertex 0.0641231 -0.00428387 -1
   vertex 0.0638918 -0.00531861 -1
  endloop
 endfacet
 facet normal 0 0 -1
  outer loop
   vertex 0.0638918 -0.00531861 -1
   vertex 0.0641231 -0.00428387 -1
   vertex 0.0644661 -0.00461915 -1
  endloop
 endfacet
 facet normal 0 0 -1
  outer loop
   vertex 0.0638918 -0.00531861 -1
   vertex 0.0644661 -0.00461915 -1
   vertex 0.0642135 -0.00565796 -1
  endloop
 endfacet
 facet normal 0 0 -1
  outer loop
   vertex 0.0642135 -0.00565796 -1
   vertex 0.0644661 -0.00461915 -1
   vertex 0.0647984 -0.00496492 -1
  endloop
 endfacet
 facet normal 0 0 -1
  outer loop
   vertex 0.0642135 -0.00565796 -1
   vertex 0.0647984 -0.00496492 -1
   vertex 0.0645242 -0.00600747 -1
  endloop
 endfacet
 facet normal 0 0 -1
  outer loop
   vertex 0.0645242 -0.00600747 -1
   vertex 0.0647984 -0.00496492 -1
   vertex 0.0651199 -0.00532084 -1
  endloop
 endfacet
 facet normal 0 0 -1
  outer loop
   vertex 0.0645242 -0.00600747 -1
   vertex 0.0651199 -0.00532084 -1
   vertex 0.0648235 -0.00636677 -1
  endloop
 endfacet
 facet normal 0 0 -1
  outer loop
   vertex 0.0648235 -0.00636677 -1
   vertex 0.0651199 -0.00532084 -1
   vertex 0.0654302 -0.00568656 -1
  endloop
 endfacet
 facet normal 0 0 -1
  outer loop
   vertex 0.0648235 -0.00636677 -1
   vertex 0.0654302 -0.00568656 -1
   vertex 0.0651111 -0.00673551 -1
  endloop
 endfacet
 facet normal 0 0 -1
  outer loop
   vertex 0.0651111 -0.00673551 -1
   vertex 0.0654302 -0.00568656 -1
   vertex 0.065729 -0.00606173 -1
  endloop
 endfacet
 facet normal 0 0 -1
  outer loop
   vertex 0.0651111 -0.00673551 -1
   vertex 0.065729 -0.00606173 -1
   vertex 0.0653867 -0.0071133 -1
  endloop
 endfacet
 facet normal 0 0 -1
  outer loop
   vertex 0.0653867 -0.0071133 -1
   vertex 0.065729 -0.00606173 -1
   vertex 0.0660161 -0.006446 -1
  endloop
 endfacet
 facet normal 0 0 -1
  outer loop
   vertex 0.0653867 -0.0071133 -1
   vertex 0.0660161 -0.006446 -1
   vertex 0.06565 -0.00749975 -1
  endloop
 endfacet
 facet normal 0 0 -1
  outer loop
   vertex 0.06565 -0.00749975 -1
   vertex 0.0660161 -0.006446 -1
   vertex 0.066291 -0.006839 -1
  endloop
 endfacet
 facet normal 0 0 -1
  outer loop
   vertex 0.06565 -0.00749975 -1
   vertex 0.066291 -0.006839 -1
   vertex 0.0659008 -0.00789445 -1
  endloop
 endfacet
 facet normal 0 0 -1
  outer loop
   vertex 0.0659008 -0.00789445 -1
   vertex 0.066291 -0.006839 -1
   vertex 0.0665536 -0.00724033 -1
  endloop
 endfacet
 facet normal 0 0 -1
  outer loop
   vertex 0.0659008 -0.00789445 -1
   vertex 0.0665536 -0.00724033 -1
   vertex 0.0661387 -0.00829702 -1
  endloop
 endfacet
 facet normal 0 0 -1
  outer loop
   vertex 0.0661387 -0.00829702 -1
   vertex 0.0665536 -0.00724033 -1
   vertex 0.0668037 -0.00764962 -1
  endloop
 endfacet
 facet normal 0 0 -1
  outer loop
   vertex 0.0661387 -0.00829702 -1
   vertex 0.0668037 -0.00764962 -1
   vertex 0.0670409 -0.00806647 -1
  endloop
 endfacet
 facet normal -0 0 1
  outer loop
   vertex 0.0532242 -4.97104e-05 1
   vertex 0.0532295 -0.00034966 1
   vertex 0.0537038 -4.874e-05 1
  endloop
 endfacet
 facet normal 0 0 1
  outer loop
   vertex 0.0537038 -4.874e-05 1
   vertex 0.0532295 -0.00034966 1
   vertex 0.053853 -0.00095179 1
  endloop
 endfacet
 facet normal 0 0 1
  outer loop
   vertex 0.0537038 -4.874e-05 1
   vertex 0.053853 -0.00095179 1
   vertex 0.0541832 -6.27303e-05 1
  endloop
 endfacet
 facet normal 0 0 1
  outer loop
   vertex 0.0541832 -6.27303e-05 1
   vertex 0.053853 -0.00095179 1
   vertex 0.0543202 -0.00097082 1
  endloop
 endfacet
 facet normal 0 0 1
  outer loop
   vertex 0.0541832 -6.27303e-05 1
   vertex 0.0543202 -0.00097082 1
   vertex 0.054662 -9.15902e-05 1
  endloop
 endfacet
 facet normal 0 0 1
  outer loop
   vertex 0.054662 -9.15902e-05 1
   vertex 0.0543202 -0.00097082 1
   vertex 0.0547866 -0.00100489 1
  endloop
 endfacet
 facet normal 0 0 1
  outer loop
   vertex 0.054662 -9.15902e-05 1
   vertex 0.0547866 -0.00100489 1
   vertex 0.0551397 -0.00013526 1
  endloop
 endfacet
 facet normal 0 0 1
  outer loop
   vertex 0.0551397 -0.00013526 1
   vertex 0.0547866 -0.00100489 1
   vertex 0.0552516 -0.00105389 1
  endloop
 endfacet
 facet normal 0 0 1
  outer loop
   vertex 0.0551397 -0.00013526 1
   vertex 0.0552516 -0.00105389 1
   vertex 0.0556157 -0.0001937 1
  endloop
 endfacet
 facet normal 0 0 1
  outer loop
   vertex 0.0556157 -0.0001937 1
   vertex 0.0552516 -0.00105389 1
   vertex 0.0557149 -0.00111782 1
  endloop
 endfacet
 facet normal 0 0 1
  outer loop
   vertex 0.0556157 -0.0001937 1
   vertex 0.0557149 -0.00111782 1
   vertex 0.0560897 -0.00026693 1
  endloop
 endfacet
 facet normal 0 0 1
  outer loop
   vertex 0.0560897 -0.00026693 1
   vertex 0.0557149 -0.00111782 1
   vertex 0.0561758 -0.00119661 1
  endloop
 endfacet
 facet normal -0 0 1
  outer loop
   vertex 0.067867 -0.0177761 1
   vertex 0.0681633 -0.017823 1
   vertex 0.0679327 -0.0173131 1
  endloop
 endfacet
 facet normal 0 0 1
  outer loop
   vertex 0.0679327 -0.0173131 1
   vertex 0.0681633 -0.017823 1
   vertex 0.0688369 -0.0173336 1
  endloop
 endfacet
 facet normal -0 0 1
  outer loop
   vertex 0.0679327 -0.0173131 1
   vertex 0.0688369 -0.0173336 1
   vertex 0.0679835 -0.0168483 1
  endloop
 endfacet
 facet normal 0 0 1
  outer loop
   vertex 0.0679835 -0.0168483 1
   vertex 0.0688369 -0.0173336 1
   vertex 0.0688865 -0.0168565 1
  endloop
 endfacet
 facet normal -0 0 1
  outer loop
   vertex 0.0679835 -0.0168483 1
   vertex 0.0688865 -0.0168565 1
   vertex 0.0680194 -0.016382 1
  endloop
 endfacet
 facet normal -0 0 1
  outer loop
   vertex 0.0680194 -0.016382 1
   vertex 0.0688865 -0.0168565 1
   vertex 0.0689212 -0.0163782 1
  endloop
 endfacet
 facet normal 0 0 1
  outer loop
   vertex 0.0680194 -0.016382 1
   vertex 0.0689212 -0.0163782 1
   vertex 0.0680402 -0.0159148 1
  endloop
 endfacet
 facet normal -0 0 1
  outer loop
   vertex 0.0680402 -0.0159148 1
   vertex 0.0689212 -0.0163782 1
   vertex 0.068941 -0.015899 1
  endloop
 endfacet
 facet normal 0 0 1
  outer loop
   vertex 0.0680402 -0.0159148 1
   vertex 0.068941 -0.015899 1
   vertex 0.0680461 -0.0154472 1
  endloop
 endfacet
 facet normal -0 0 1
  outer loop
   vertex 0.0680461 -0.0154472 1
   vertex 0.068941 -0.015899 1
   vertex 0.068946 -0.0154194 1
  endloop
 endfacet
 facet normal 0 -0 1
  outer loop
   vertex 0.0680461 -0.0154472 1
   vertex 0.068946 -0.0154194 1
   vertex 0.0680369 -0.0149797 1
  endloop
 endfacet
 facet normal -0 0 1
  outer loop
   vertex 0.0680369 -0.0149797 1
   vertex 0.068946 -0.0154194 1
   vertex 0.068936 -0.0149398 1
  endloop
 endfacet
 facet normal 0 -0 1
  outer loop
   vertex 0.0680369 -0.0149797 1
   vertex 0.068936 -0.0149398 1
   vertex 0.0680126 -0.0145127 1
  endloop
 endfacet
 facet normal -0 0 1
  outer loop
   vertex 0.0680126 -0.0145127 1
   vertex 0.068936 -0.0149398 1
   vertex 0.0689112 -0.0144608 1
  endloop
 endfacet
 facet normal 0 -0 1
  outer loop
   vertex 0.0680126 -0.0145127 1
   vertex 0.0689112 -0.0144608 1
   vertex 0.0679734 -0.0140467 1
  endloop
 endfacet
 facet normal -0 0 1
  outer loop
   vertex 0.0679734 -0.0140467 1
   vertex 0.0689112 -0.0144608 1
   vertex 0.0688715 -0.0139829 1
  endloop
 endfacet
 facet normal 0 -0 1
  outer loop
   vertex 0.0679734 -0.0140467 1
   vertex 0.0688715 -0.0139829 1
   vertex 0.0679193 -0.0135822 1
  endloop
 endfacet
 facet normal -0 0 1
  outer loop
   vertex 0.0679193 -0.0135822 1
   vertex 0.0688715 -0.0139829 1
   vertex 0.068817 -0.0135063 1
  endloop
 endfacet
 facet normal 0 -0 1
  outer loop
   vertex 0.0679193 -0.0135822 1
   vertex 0.068817 -0.0135063 1
   vertex 0.0678502 -0.0131197 1
  endloop
 endfacet
 facet normal -0 0 1
  outer loop
   vertex 0.0678502 -0.0131197 1
   vertex 0.068817 -0.0135063 1
   vertex 0.0687478 -0.0130318 1
  endloop
 endfacet
 facet normal 0 -0 1
  outer loop
   vertex 0.0678502 -0.0131197 1
   vertex 0.0687478 -0.0130318 1
   vertex 0.0677663 -0.0126597 1
  endloop
 endfacet
 facet normal -0 0 1
  outer loop
   vertex 0.0677663 -0.0126597 1
   vertex 0.0687478 -0.0130318 1
   vertex 0.0686639 -0.0125595 1
  endloop
 endfacet
 facet normal 0 -0 1
  outer loop
   vertex 0.0677663 -0.0126597 1
   vertex 0.0686639 -0.0125595 1
   vertex 0.0676677 -0.0122026 1
  endloop
 endfacet
 facet normal -0 0 1
  outer loop
   vertex 0.0676677 -0.0122026 1
   vertex 0.0686639 -0.0125595 1
   vertex 0.0685653 -0.0120901 1
  endloop
 endfacet
 facet normal 0 -0 1
  outer loop
   vertex 0.0676677 -0.0122026 1
   vertex 0.0685653 -0.0120901 1
   vertex 0.0675545 -0.0117489 1
  endloop
 endfacet
 facet normal -0 0 1
  outer loop
   vertex 0.0675545 -0.0117489 1
   vertex 0.0685653 -0.0120901 1
   vertex 0.0684522 -0.011624 1
  endloop
 endfacet
 facet normal 0 -0 1
  outer loop
   vertex 0.0675545 -0.0117489 1
   vertex 0.0684522 -0.011624 1
   vertex 0.0674267 -0.011299 1
  endloop
 endfacet
 facet normal -0 0 1
  outer loop
   vertex 0.0674267 -0.011299 1
   vertex 0.0684522 -0.011624 1
   vertex 0.0683248 -0.0111617 1
  endloop
 endfacet
 facet normal 0 -0 1
  outer loop
   vertex 0.0674267 -0.011299 1
   vertex 0.0683248 -0.0111617 1
   vertex 0.0672846 -0.0108535 1
  endloop
 endfacet
 facet normal -0 0 1
  outer loop
   vertex 0.0672846 -0.0108535 1
   vertex 0.0683248 -0.0111617 1
   vertex 0.068183 -0.0107035 1
  endloop
 endfacet
 facet normal 0 -0 1
  outer loop
   vertex 0.0672846 -0.0108535 1
   vertex 0.068183 -0.0107035 1
   vertex 0.0671281 -0.0104128 1
  endloop
 endfacet
 facet normal -0 0 1
  outer loop
   vertex 0.0671281 -0.0104128 1
   vertex 0.068183 -0.0107035 1
   vertex 0.0680271 -0.0102499 1
  endloop
 endfacet
 facet normal 0 -0 1
  outer loop
   vertex 0.0671281 -0.0104128 1
   vertex 0.0680271 -0.0102499 1
   vertex 0.0669577 -0.00997738 1
  endloop
 endfacet
 facet normal -0 0 1
  outer loop
   vertex 0.0669577 -0.00997738 1
   vertex 0.0680271 -0.0102499 1
   vertex 0.0678571 -0.00980139 1
  endloop
 endfacet
 facet normal 0 -0 1
  outer loop
   vertex 0.0669577 -0.00997738 1
   vertex 0.0678571 -0.00980139 1
   vertex 0.0667733 -0.00954764 1
  endloop
 endfacet
 facet normal -0 0 1
  outer loop
   vertex 0.0667733 -0.00954764 1
   vertex 0.0678571 -0.00980139 1
   vertex 0.0676734 -0.00935837 1
  endloop
 endfacet
 facet normal 0 -0 1
  outer loop
   vertex 0.0667733 -0.00954764 1
   vertex 0.0676734 -0.00935837 1
   vertex 0.0665752 -0.00912404 1
  endloop
 endfacet
 facet normal -0 0 1
  outer loop
   vertex 0.0665752 -0.00912404 1
   vertex 0.0676734 -0.00935837 1
   vertex 0.0674759 -0.00892126 1
  endloop
 endfacet
 facet normal 0 -0 1
  outer loop
   vertex 0.0665752 -0.00912404 1
   vertex 0.0674759 -0.00892126 1
   vertex 0.0663636 -0.00870702 1
  endloop
 endfacet
 facet normal 0 0 1
  outer loop
   vertex 0.0674759 -0.00892126 1
   vertex 0.0672651 -0.00849048 1
   vertex 0.0663636 -0.00870702 1
  endloop
 endfacet
 facet normal 0 0 1
  outer loop
   vertex 0.0663636 -0.00870702 1
   vertex 0.0672651 -0.00849048 1
   vertex 0.0670409 -0.00806647 1
  endloop
 endfacet
 facet normal 0 -0 1
  outer loop
   vertex 0.0663636 -0.00870702 1
   vertex 0.0670409 -0.00806647 1
   vertex 0.0661387 -0.00829702 1
  endloop
 endfacet
 facet normal 0 0 1
  outer loop
   vertex 0.0661387 -0.00829702 1
   vertex 0.0670409 -0.00806647 1
   vertex 0.0668037 -0.00764962 1
  endloop
 endfacet
 facet normal 0 -0 1
  outer loop
   vertex 0.0661387 -0.00829702 1
   vertex 0.0668037 -0.00764962 1
   vertex 0.0659008 -0.00789445 1
  endloop
 endfacet
 facet normal 0 0 1
  outer loop
   vertex 0.0659008 -0.00789445 1
   vertex 0.0668037 -0.00764962 1
   vertex 0.0665536 -0.00724033 1
  endloop
 endfacet
 facet normal 0 -0 1
  outer loop
   vertex 0.0659008 -0.00789445 1
   vertex 0.0665536 -0.00724033 1
   vertex 0.06565 -0.00749975 1
  endloop
 endfacet
 facet normal 0 0 1
  outer loop
   vertex 0.06565 -0.00749975 1
   vertex 0.0665536 -0.00724033 1
   vertex 0.066291 -0.006839 1
  endloop
 endfacet
 facet normal 0 -0 1
  outer loop
   vertex 0.06565 -0.00749975 1
   vertex 0.066291 -0.006839 1
   vertex 0.0653867 -0.0071133 1
  endloop
 endfacet
 facet normal 0 0 1
  outer loop
   vertex 0.0653867 -0.0071133 1
   vertex 0.066291 -0.006839 1
   vertex 0.0660161 -0.006446 1
  endloop
 endfacet
 facet normal 0 -0 1
  outer loop
   vertex 0.0653867 -0.0071133 1
   vertex 0.0660161 -0.006446 1
   vertex 0.0651111 -0.00673551 1
  endloop
 endfacet
 facet normal 0 0 1
  outer loop
   vertex 0.0651111 -0.00673551 1
   vertex 0.0660161 -0.006446 1
   vertex 0.065729 -0.00606173 1
  endloop
 endfacet
 facet normal 0 -0 1
  outer loop
   vertex 0.0651111 -0.00673551 1
   vertex 0.065729 -0.00606173 1
   vertex 0.0648235 -0.00636677 1
  endloop
 endfacet
 facet normal 0 0 1
  outer loop
   vertex 0.0648235 -0.00636677 1
   vertex 0.065729 -0.00606173 1
   vertex 0.0654302 -0.00568656 1
  endloop
 endfacet
 facet normal 0 -0 1
  outer loop
   vertex 0.0648235 -0.00636677 1
   vertex 0.0654302 -0.00568656 1
   vertex 0.0645242 -0.00600747 1
  endloop
 endfacet
 facet normal 0 0 1
  outer loop
   vertex 0.0645242 -0.00600747 1
   vertex 0.0654302 -0.00568656 1
   vertex 0.0651199 -0.00532084 1
  endloop
 endfacet
 facet normal 0 -0 1
  outer loop
   vertex 0.0645242 -0.00600747 1
   vertex 0.0651199 -0.00532084 1
   vertex 0.0642135 -0.00565796 1
  endloop
 endfacet
 facet normal 0 0 1
  outer loop
   vertex 0.0642135 -0.00565796 1
   vertex 0.0651199 -0.00532084 1
   vertex 0.0647984 -0.00496492 1
  endloop
 endfacet
 facet normal 0 -0 1
  outer loop
   vertex 0.0642135 -0.00565796 1
   vertex 0.0647984 -0.00496492 1
   vertex 0.0638918 -0.00531861 1
  endloop
 endfacet
 facet normal 0 0 1
  outer loop
   vertex 0.0638918 -0.00531861 1
   vertex 0.0647984 -0.00496492 1
   vertex 0.0644661 -0.00461915 1
  endloop
 endfacet
 facet normal 0 -0 1
  outer loop
   vertex 0.0638918 -0.00531861 1
   vertex 0.0644661 -0.00461915 1
   vertex 0.0635593 -0.00498979 1
  endloop
 endfacet
 facet normal 0 0 1
  outer loop
   vertex 0.0635593 -0.00498979 1
   vertex 0.0644661 -0.00461915 1
   vertex 0.0641231 -0.00428387 1
  endloop
 endfacet
 facet normal 0 -0 1
  outer loop
   vertex 0.0635593 -0.00498979 1
   vertex 0.0641231 -0.00428387 1
   vertex 0.0632164 -0.00467181 1
  endloop
 endfacet
 facet normal 0 0 1
  outer loop
   vertex 0.0632164 -0.00467181 1
   vertex 0.0641231 -0.00428387 1
   vertex 0.0637699 -0.00395939 1
  endloop
 endfacet
 facet normal 0 -0 1
  outer loop
   vertex 0.0632164 -0.00467181 1
   vertex 0.0637699 -0.00395939 1
   vertex 0.0628635 -0.00436501 1
  endloop
 endfacet
 facet normal 0 0 1
  outer loop
   vertex 0.0628635 -0.00436501 1
   vertex 0.0637699 -0.00395939 1
   vertex 0.0634068 -0.00364603 1
  endloop
 endfacet
 facet normal 0 -0 1
  outer loop
   vertex 0.0628635 -0.00436501 1
   vertex 0.0634068 -0.00364603 1
   vertex 0.0625009 -0.00406971 1
  endloop
 endfacet
 facet normal 0 0 1
  outer loop
   vertex 0.0625009 -0.00406971 1
   vertex 0.0634068 -0.00364603 1
   vertex 0.0630341 -0.0033441 1
  endloop
 endfacet
 facet normal 0 -0 1
  outer loop
   vertex 0.0625009 -0.00406971 1
   vertex 0.0630341 -0.0033441 1
   vertex 0.062129 -0.00378622 1
  endloop
 endfacet
 facet normal 0 0 1
  outer loop
   vertex 0.062129 -0.00378622 1
   vertex 0.0630341 -0.0033441 1
   vertex 0.0626523 -0.00305386 1
  endloop
 endfacet
 facet normal 0 -0 1
  outer loop
   vertex 0.062129 -0.00378622 1
   vertex 0.0626523 -0.00305386 1
   vertex 0.0617482 -0.00351482 1
  endloop
 endfacet
 facet normal 0 0 1
  outer loop
   vertex 0.0617482 -0.00351482 1
   vertex 0.0626523 -0.00305386 1
   vertex 0.0622616 -0.00277563 1
  endloop
 endfacet
 facet normal 0 -0 1
  outer loop
   vertex 0.0617482 -0.00351482 1
   vertex 0.0622616 -0.00277563 1
   vertex 0.0613588 -0.0032558 1
  endloop
 endfacet
 facet normal 0 0 1
  outer loop
   vertex 0.0613588 -0.0032558 1
   vertex 0.0622616 -0.00277563 1
   vertex 0.0618625 -0.00250965 1
  endloop
 endfacet
 facet normal 0 -0 1
  outer loop
   vertex 0.0613588 -0.0032558 1
   vertex 0.0618625 -0.00250965 1
   vertex 0.0609614 -0.00300941 1
  endloop
 endfacet
 facet normal 0 0 1
  outer loop
   vertex 0.0609614 -0.00300941 1
   vertex 0.0618625 -0.00250965 1
   vertex 0.0614553 -0.00225618 1
  endloop
 endfacet
 facet normal 0 -0 1
  outer loop
   vertex 0.0609614 -0.00300941 1
   vertex 0.0614553 -0.00225618 1
   vertex 0.0605562 -0.00277593 1
  endloop
 endfacet
 facet normal 0 0 1
  outer loop
   vertex 0.0605562 -0.00277593 1
   vertex 0.0614553 -0.00225618 1
   vertex 0.0610405 -0.00201548 1
  endloop
 endfacet
 facet normal 0 -0 1
  outer loop
   vertex 0.0605562 -0.00277593 1
   vertex 0.0610405 -0.00201548 1
   vertex 0.0601437 -0.00255558 1
  endloop
 endfacet
 facet normal 0 0 1
  outer loop
   vertex 0.0601437 -0.00255558 1
   vertex 0.0610405 -0.00201548 1
   vertex 0.0606183 -0.00178776 1
  endloop
 endfacet
 facet normal 0 -0 1
  outer loop
   vertex 0.0601437 -0.00255558 1
   vertex 0.0606183 -0.00178776 1
   vertex 0.0597244 -0.00234861 1
  endloop
 endfacet
 facet normal 0 0 1
  outer loop
   vertex 0.0597244 -0.00234861 1
   vertex 0.0606183 -0.00178776 1
   vertex 0.0601894 -0.00157325 1
  endloop
 endfacet
 facet normal 0 -0 1
  outer loop
   vertex 0.0597244 -0.00234861 1
   vertex 0.0601894 -0.00157325 1
   vertex 0.0592987 -0.0021552 1
  endloop
 endfacet
 facet normal 0 0 1
  outer loop
   vertex 0.0592987 -0.0021552 1
   vertex 0.0601894 -0.00157325 1
   vertex 0.0597539 -0.00137217 1
  endloop
 endfacet
 facet normal 0 -0 1
  outer loop
   vertex 0.0592987 -0.0021552 1
   vertex 0.0597539 -0.00137217 1
   vertex 0.0588669 -0.00197558 1
  endloop
 endfacet
 facet normal 0 0 1
  outer loop
   vertex 0.0588669 -0.00197558 1
   vertex 0.0597539 -0.00137217 1
   vertex 0.0593125 -0.00118469 1
  endloop
 endfacet
 facet normal 0 -0 1
  outer loop
   vertex 0.0588669 -0.00197558 1
   vertex 0.0593125 -0.00118469 1
   vertex 0.0584296 -0.00180993 1
  endloop
 endfacet
 facet normal 0 0 1
  outer loop
   vertex 0.0584296 -0.00180993 1
   vertex 0.0593125 -0.00118469 1
   vertex 0.0588654 -0.00101101 1
  endloop
 endfacet
 facet normal 0 -0 1
  outer loop
   vertex 0.0584296 -0.00180993 1
   vertex 0.0588654 -0.00101101 1
   vertex 0.0579872 -0.00165841 1
  endloop
 endfacet
 facet normal 0 0 1
  outer loop
   vertex 0.0579872 -0.00165841 1
   vertex 0.0588654 -0.00101101 1
   vertex 0.0584131 -0.00085128 1
  endloop
 endfacet
 facet normal 0 -0 1
  outer loop
   vertex 0.0579872 -0.00165841 1
   vertex 0.0584131 -0.00085128 1
   vertex 0.0575402 -0.00152119 1
  endloop
 endfacet
 facet normal 0 0 1
  outer loop
   vertex 0.0575402 -0.00152119 1
   vertex 0.0584131 -0.00085128 1
   vertex 0.0579561 -0.00070567 1
  endloop
 endfacet
 facet normal 0 -0 1
  outer loop
   vertex 0.0575402 -0.00152119 1
   vertex 0.0579561 -0.00070567 1
   vertex 0.0570889 -0.00139839 1
  endloop
 endfacet
 facet normal 0 0 1
  outer loop
   vertex 0.0570889 -0.00139839 1
   vertex 0.0579561 -0.00070567 1
   vertex 0.0574949 -0.0005743 1
  endloop
 endfacet
 facet normal 0 -0 1
  outer loop
   vertex 0.0570889 -0.00139839 1
   vertex 0.0574949 -0.0005743 1
   vertex 0.056634 -0.00129017 1
  endloop
 endfacet
 facet normal 0 0 1
  outer loop
   vertex 0.056634 -0.00129017 1
   vertex 0.0574949 -0.0005743 1
   vertex 0.0570297 -0.00045733 1
  endloop
 endfacet
 facet normal 0 -0 1
  outer loop
   vertex 0.056634 -0.00129017 1
   vertex 0.0570297 -0.00045733 1
   vertex 0.0561758 -0.00119661 1
  endloop
 endfacet
 facet normal 0 0 1
  outer loop
   vertex 0.0561758 -0.00119661 1
   vertex 0.0570297 -0.00045733 1
   vertex 0.0565612 -0.00035483 1
  endloop
 endfacet
 facet normal 0 -0 1
  outer loop
   vertex 0.0561758 -0.00119661 1
   vertex 0.0565612 -0.00035483 1
   vertex 0.0560897 -0.00026693 1
  endloop
 endfacet
 facet normal 0.587794 -0.809011 0
  outer loop
   vertex 0.0688369 -0.0173336 1
   vertex 0.0681633 -0.017823 1
   vertex 0.0688369 -0.0173336 -1
  endloop
 endfacet
 facet normal 0.587794 -0.809011 0
  outer loop
   vertex 0.0688369 -0.0173336 -1
   vertex 0.0681633 -0.017823 1
   vertex 0.0681633 -0.017823 -1
  endloop
 endfacet
 facet normal -0.694671 -0.719327 -0
  outer loop
   vertex 0.053853 -0.00095179 1
   vertex 0.0532295 -0.00034966 1
   vertex 0.053853 -0.00095179 -1
  endloop
 endfacet
 facet normal -0.694671 -0.719327 0
  outer loop
   vertex 0.053853 -0.00095179 -1
   vertex 0.0532295 -0.00034966 1
   vertex 0.0532295 -0.00034966 -1
  endloop
 endfacet
endsolid tunner_vane
