solid tunner_vane
 facet normal 0.0957796 0.995403 -0
  outer loop
   vertex 1.11524 -0.390124 -1
   vertex 1.11524 -0.390124 1
   vertex 1.12485 -0.391048 1
  endloop
 endfacet
 facet normal 0.0957796 0.995403 0
  outer loop
   vertex 1.11524 -0.390124 -1
   vertex 1.12485 -0.391048 1
   vertex 1.12485 -0.391048 -1
  endloop
 endfacet
 facet normal 0.186801 0.982398 -0
  outer loop
   vertex 1.12485 -0.391048 -1
   vertex 1.12485 -0.391048 1
   vertex 1.13433 -0.392851 1
  endloop
 endfacet
 facet normal 0.186801 0.982398 0
  outer loop
   vertex 1.12485 -0.391048 -1
   vertex 1.13433 -0.392851 1
   vertex 1.13433 -0.392851 -1
  endloop
 endfacet
 facet normal 0.276307 0.96107 -0
  outer loop
   vertex 1.13433 -0.392851 -1
   vertex 1.13433 -0.392851 1
   vertex 1.1436 -0.395516 1
  endloop
 endfacet
 facet normal 0.276307 0.96107 0
  outer loop
   vertex 1.13433 -0.392851 -1
   vertex 1.1436 -0.395516 1
   vertex 1.1436 -0.395516 -1
  endloop
 endfacet
 facet normal 0.363263 0.931687 -0
  outer loop
   vertex 1.1436 -0.395516 -1
   vertex 1.1436 -0.395516 1
   vertex 1.15259 -0.399021 1
  endloop
 endfacet
 facet normal 0.363263 0.931687 0
  outer loop
   vertex 1.1436 -0.395516 -1
   vertex 1.15259 -0.399021 1
   vertex 1.15259 -0.399021 -1
  endloop
 endfacet
 facet normal 0.447275 0.894397 -0
  outer loop
   vertex 1.15259 -0.399021 -1
   vertex 1.15259 -0.399021 1
   vertex 1.16122 -0.403337 1
  endloop
 endfacet
 facet normal 0.447275 0.894397 0
  outer loop
   vertex 1.15259 -0.399021 -1
   vertex 1.16122 -0.403337 1
   vertex 1.16122 -0.403337 -1
  endloop
 endfacet
 facet normal 0.527379 0.84963 -0
  outer loop
   vertex 1.16122 -0.403337 -1
   vertex 1.16122 -0.403337 1
   vertex 1.16942 -0.408427 1
  endloop
 endfacet
 facet normal 0.527379 0.84963 0
  outer loop
   vertex 1.16122 -0.403337 -1
   vertex 1.16942 -0.408427 1
   vertex 1.16942 -0.408427 -1
  endloop
 endfacet
 facet normal 0.603034 0.797715 -0
  outer loop
   vertex 1.16942 -0.408427 -1
   vertex 1.16942 -0.408427 1
   vertex 1.17712 -0.414248 1
  endloop
 endfacet
 facet normal 0.603034 0.797715 0
  outer loop
   vertex 1.16942 -0.408427 -1
   vertex 1.17712 -0.414248 1
   vertex 1.17712 -0.414248 -1
  endloop
 endfacet
 facet normal 0.673867 0.738853 -0
  outer loop
   vertex 1.17712 -0.414248 -1
   vertex 1.17712 -0.414248 1
   vertex 1.18425 -0.420751 1
  endloop
 endfacet
 facet normal 0.673867 0.738853 0
  outer loop
   vertex 1.17712 -0.414248 -1
   vertex 1.18425 -0.420751 1
   vertex 1.18425 -0.420751 -1
  endloop
 endfacet
 facet normal 0.738992 0.673715 -0
  outer loop
   vertex 1.18425 -0.420751 -1
   vertex 1.18425 -0.420751 1
   vertex 1.19075 -0.42788 1
  endloop
 endfacet
 facet normal 0.738992 0.673715 0
  outer loop
   vertex 1.18425 -0.420751 -1
   vertex 1.19075 -0.42788 1
   vertex 1.19075 -0.42788 -1
  endloop
 endfacet
 facet normal 0.797626 0.603152 -0
  outer loop
   vertex 1.19075 -0.42788 -1
   vertex 1.19075 -0.42788 1
   vertex 1.19657 -0.435577 1
  endloop
 endfacet
 facet normal 0.797626 0.603152 0
  outer loop
   vertex 1.19075 -0.42788 -1
   vertex 1.19657 -0.435577 1
   vertex 1.19657 -0.435577 -1
  endloop
 endfacet
 facet normal 0.84958 0.527459 -0
  outer loop
   vertex 1.19657 -0.435577 -1
   vertex 1.19657 -0.435577 1
   vertex 1.20166 -0.443776 1
  endloop
 endfacet
 facet normal 0.84958 0.527459 0
  outer loop
   vertex 1.19657 -0.435577 -1
   vertex 1.20166 -0.443776 1
   vertex 1.20166 -0.443776 -1
  endloop
 endfacet
 facet normal 0.894245 0.447578 -0
  outer loop
   vertex 1.20166 -0.443776 -1
   vertex 1.20166 -0.443776 1
   vertex 1.20598 -0.452407 1
  endloop
 endfacet
 facet normal 0.894245 0.447578 0
  outer loop
   vertex 1.20166 -0.443776 -1
   vertex 1.20598 -0.452407 1
   vertex 1.20598 -0.452407 -1
  endloop
 endfacet
 facet normal 0.931877 0.362774 -0
  outer loop
   vertex 1.20598 -0.452407 -1
   vertex 1.20598 -0.452407 1
   vertex 1.20948 -0.461398 1
  endloop
 endfacet
 facet normal 0.931877 0.362774 0
  outer loop
   vertex 1.20598 -0.452407 -1
   vertex 1.20948 -0.461398 1
   vertex 1.20948 -0.461398 -1
  endloop
 endfacet
 facet normal 0.960973 0.276644 -0
  outer loop
   vertex 1.20948 -0.461398 -1
   vertex 1.20948 -0.461398 1
   vertex 1.21215 -0.470672 1
  endloop
 endfacet
 facet normal 0.960973 0.276644 0
  outer loop
   vertex 1.20948 -0.461398 -1
   vertex 1.21215 -0.470672 1
   vertex 1.21215 -0.470672 -1
  endloop
 endfacet
 facet normal 0.982446 0.186545 -0
  outer loop
   vertex 1.21215 -0.470672 -1
   vertex 1.21215 -0.470672 1
   vertex 1.21395 -0.480152 1
  endloop
 endfacet
 facet normal 0.982446 0.186545 0
  outer loop
   vertex 1.21215 -0.470672 -1
   vertex 1.21395 -0.480152 1
   vertex 1.21395 -0.480152 -1
  endloop
 endfacet
 facet normal 0.995346 0.0963649 -0
  outer loop
   vertex 1.21395 -0.480152 -1
   vertex 1.21395 -0.480152 1
   vertex 1.21488 -0.489758 1
  endloop
 endfacet
 facet normal 0.995346 0.0963649 0
  outer loop
   vertex 1.21395 -0.480152 -1
   vertex 1.21488 -0.489758 1
   vertex 1.21488 -0.489758 -1
  endloop
 endfacet
 facet normal -0.995108 -0.0987974 0
  outer loop
   vertex 1.20489 -0.490258 -1
   vertex 1.20489 -0.490258 1
   vertex 1.20397 -0.48099 -1
  endloop
 endfacet
 facet normal -0.995108 -0.0987974 0
  outer loop
   vertex 1.20397 -0.48099 -1
   vertex 1.20489 -0.490258 1
   vertex 1.20397 -0.48099 1
  endloop
 endfacet
 facet normal -0.980508 -0.19648 0
  outer loop
   vertex 1.20397 -0.48099 -1
   vertex 1.20397 -0.48099 1
   vertex 1.20214 -0.471858 -1
  endloop
 endfacet
 facet normal -0.980508 -0.19648 0
  outer loop
   vertex 1.20214 -0.471858 -1
   vertex 1.20397 -0.48099 1
   vertex 1.20214 -0.471858 1
  endloop
 endfacet
 facet normal -0.957024 -0.290008 0
  outer loop
   vertex 1.20214 -0.471858 -1
   vertex 1.20214 -0.471858 1
   vertex 1.19944 -0.462948 -1
  endloop
 endfacet
 facet normal -0.957024 -0.290008 0
  outer loop
   vertex 1.19944 -0.462948 -1
   vertex 1.20214 -0.471858 1
   vertex 1.19944 -0.462948 1
  endloop
 endfacet
 facet normal -0.923618 -0.383313 0
  outer loop
   vertex 1.19944 -0.462948 -1
   vertex 1.19944 -0.462948 1
   vertex 1.19587 -0.454346 -1
  endloop
 endfacet
 facet normal -0.923618 -0.383313 0
  outer loop
   vertex 1.19587 -0.454346 -1
   vertex 1.19944 -0.462948 1
   vertex 1.19587 -0.454346 1
  endloop
 endfacet
 facet normal -0.881433 -0.472309 0
  outer loop
   vertex 1.19587 -0.454346 -1
   vertex 1.19587 -0.454346 1
   vertex 1.19147 -0.446135 -1
  endloop
 endfacet
 facet normal -0.881433 -0.472309 0
  outer loop
   vertex 1.19147 -0.446135 -1
   vertex 1.19587 -0.454346 1
   vertex 1.19147 -0.446135 1
  endloop
 endfacet
 facet normal -0.831615 -0.555352 0
  outer loop
   vertex 1.19147 -0.446135 -1
   vertex 1.19147 -0.446135 1
   vertex 1.1863 -0.438393 -1
  endloop
 endfacet
 facet normal -0.831615 -0.555352 0
  outer loop
   vertex 1.1863 -0.438393 -1
   vertex 1.19147 -0.446135 1
   vertex 1.1863 -0.438393 1
  endloop
 endfacet
 facet normal -0.772868 -0.634567 0
  outer loop
   vertex 1.1863 -0.438393 -1
   vertex 1.1863 -0.438393 1
   vertex 1.18039 -0.431195 -1
  endloop
 endfacet
 facet normal -0.772868 -0.634567 0
  outer loop
   vertex 1.18039 -0.431195 -1
   vertex 1.1863 -0.438393 1
   vertex 1.18039 -0.431195 1
  endloop
 endfacet
 facet normal -0.707376 -0.706838 0
  outer loop
   vertex 1.18039 -0.431195 -1
   vertex 1.18039 -0.431195 1
   vertex 1.17381 -0.42461 -1
  endloop
 endfacet
 facet normal -0.707376 -0.706838 0
  outer loop
   vertex 1.17381 -0.42461 -1
   vertex 1.18039 -0.431195 1
   vertex 1.17381 -0.42461 1
  endloop
 endfacet
 facet normal -0.634381 -0.77302 0
  outer loop
   vertex 1.17381 -0.42461 -1
   vertex 1.17381 -0.42461 1
   vertex 1.16661 -0.418701 -1
  endloop
 endfacet
 facet normal -0.634381 -0.77302 0
  outer loop
   vertex 1.16661 -0.418701 -1
   vertex 1.17381 -0.42461 1
   vertex 1.16661 -0.418701 1
  endloop
 endfacet
 facet normal -0.555866 -0.831272 0
  outer loop
   vertex 1.16661 -0.418701 -1
   vertex 1.16661 -0.418701 1
   vertex 1.15887 -0.413525 -1
  endloop
 endfacet
 facet normal -0.555866 -0.831272 0
  outer loop
   vertex 1.15887 -0.413525 -1
   vertex 1.16661 -0.418701 1
   vertex 1.15887 -0.413525 1
  endloop
 endfacet
 facet normal -0.47135 -0.881946 0
  outer loop
   vertex 1.15887 -0.413525 -1
   vertex 1.15887 -0.413525 1
   vertex 1.15065 -0.409132 -1
  endloop
 endfacet
 facet normal -0.47135 -0.881946 0
  outer loop
   vertex 1.15065 -0.409132 -1
   vertex 1.15887 -0.413525 1
   vertex 1.15065 -0.409132 1
  endloop
 endfacet
 facet normal -0.383212 -0.923661 0
  outer loop
   vertex 1.15065 -0.409132 -1
   vertex 1.15065 -0.409132 1
   vertex 1.14205 -0.405564 -1
  endloop
 endfacet
 facet normal -0.383212 -0.923661 0
  outer loop
   vertex 1.14205 -0.405564 -1
   vertex 1.15065 -0.409132 1
   vertex 1.14205 -0.405564 1
  endloop
 endfacet
 facet normal -0.290871 -0.956762 0
  outer loop
   vertex 1.14205 -0.405564 -1
   vertex 1.14205 -0.405564 1
   vertex 1.13314 -0.402856 -1
  endloop
 endfacet
 facet normal -0.290871 -0.956762 0
  outer loop
   vertex 1.13314 -0.402856 -1
   vertex 1.14205 -0.405564 1
   vertex 1.13314 -0.402856 1
  endloop
 endfacet
 facet normal -0.195868 -0.98063 0
  outer loop
   vertex 1.13314 -0.402856 -1
   vertex 1.13314 -0.402856 1
   vertex 1.12401 -0.401032 -1
  endloop
 endfacet
 facet normal -0.195868 -0.98063 0
  outer loop
   vertex 1.12401 -0.401032 -1
   vertex 1.13314 -0.402856 1
   vertex 1.12401 -0.401032 1
  endloop
 endfacet
 facet normal -0.0988348 -0.995104 0
  outer loop
   vertex 1.12401 -0.401032 -1
   vertex 1.12401 -0.401032 1
   vertex 1.11474 -0.400111 -1
  endloop
 endfacet
 facet normal -0.0988348 -0.995104 0
  outer loop
   vertex 1.11474 -0.400111 -1
   vertex 1.12401 -0.401032 1
   vertex 1.11474 -0.400111 1
  endloop
 endfacet
 facet normal 0 0 -1
  outer loop
   vertex 1.17381 -0.42461 -1
   vertex 1.18425 -0.420751 -1
   vertex 1.18039 -0.431195 -1
  endloop
 endfacet
 facet normal 0 0 -1
  outer loop
   vertex 1.18039 -0.431195 -1
   vertex 1.18425 -0.420751 -1
   vertex 1.19075 -0.42788 -1
  endloop
 endfacet
 facet normal 0 0 -1
  outer loop
   vertex 1.18039 -0.431195 -1
   vertex 1.19075 -0.42788 -1
   vertex 1.1863 -0.438393 -1
  endloop
 endfacet
 facet normal 0 0 -1
  outer loop
   vertex 1.1863 -0.438393 -1
   vertex 1.19075 -0.42788 -1
   vertex 1.19657 -0.435577 -1
  endloop
 endfacet
 facet normal 0 0 -1
  outer loop
   vertex 1.1863 -0.438393 -1
   vertex 1.19657 -0.435577 -1
   vertex 1.19147 -0.446135 -1
  endloop
 endfacet
 facet normal 0 0 -1
  outer loop
   vertex 1.19147 -0.446135 -1
   vertex 1.19657 -0.435577 -1
   vertex 1.20166 -0.443776 -1
  endloop
 endfacet
 facet normal 0 0 -1
  outer loop
   vertex 1.19147 -0.446135 -1
   vertex 1.20166 -0.443776 -1
   vertex 1.19587 -0.454346 -1
  endloop
 endfacet
 facet normal 0 0 -1
  outer loop
   vertex 1.19587 -0.454346 -1
   vertex 1.20166 -0.443776 -1
   vertex 1.20598 -0.452407 -1
  endloop
 endfacet
 facet normal 0 0 -1
  outer loop
   vertex 1.19587 -0.454346 -1
   vertex 1.20598 -0.452407 -1
   vertex 1.19944 -0.462948 -1
  endloop
 endfacet
 facet normal 0 0 -1
  outer loop
   vertex 1.19944 -0.462948 -1
   vertex 1.20598 -0.452407 -1
   vertex 1.20948 -0.461398 -1
  endloop
 endfacet
 facet normal 0 0 -1
  outer loop
   vertex 1.19944 -0.462948 -1
   vertex 1.20948 -0.461398 -1
   vertex 1.20214 -0.471858 -1
  endloop
 endfacet
 facet normal 0 0 -1
  outer loop
   vertex 1.20214 -0.471858 -1
   vertex 1.20948 -0.461398 -1
   vertex 1.21215 -0.470672 -1
  endloop
 endfacet
 facet normal 0 0 -1
  outer loop
   vertex 1.20214 -0.471858 -1
   vertex 1.21215 -0.470672 -1
   vertex 1.20397 -0.48099 -1
  endloop
 endfacet
 facet normal 0 0 -1
  outer loop
   vertex 1.20397 -0.48099 -1
   vertex 1.21215 -0.470672 -1
   vertex 1.21395 -0.480152 -1
  endloop
 endfacet
 facet normal 0 0 -1
  outer loop
   vertex 1.20397 -0.48099 -1
   vertex 1.21395 -0.480152 -1
   vertex 1.20489 -0.490258 -1
  endloop
 endfacet
 facet normal 0 0 -1
  outer loop
   vertex 1.20489 -0.490258 -1
   vertex 1.21395 -0.480152 -1
   vertex 1.21488 -0.489758 -1
  endloop
 endfacet
 facet normal 0 0 -1
  outer loop
   vertex 1.20489 -0.490258 -1
   vertex 1.21488 -0.489758 -1
   vertex 1.21485 -0.490567 -1
  endloop
 endfacet
 facet normal 0 0 -1
  outer loop
   vertex 1.11288 -0.390586 -1
   vertex 1.11364 -0.390304 -1
   vertex 1.11474 -0.400111 -1
  endloop
 endfacet
 facet normal -0 0 -1
  outer loop
   vertex 1.21485 -0.490567 -1
   vertex 1.2147 -0.491361 -1
   vertex 1.20489 -0.490258 -1
  endloop
 endfacet
 facet normal 0 0 -1
  outer loop
   vertex 1.20489 -0.490258 -1
   vertex 1.2147 -0.491361 -1
   vertex 1.21441 -0.49212 -1
  endloop
 endfacet
 facet normal 0 0 -1
  outer loop
   vertex 1.20489 -0.490258 -1
   vertex 1.21441 -0.49212 -1
   vertex 1.21401 -0.492824 -1
  endloop
 endfacet
 facet normal 0 0 -1
  outer loop
   vertex 1.11364 -0.390304 -1
   vertex 1.11443 -0.390149 -1
   vertex 1.11474 -0.400111 -1
  endloop
 endfacet
 facet normal 0 0 -1
  outer loop
   vertex 1.11474 -0.400111 -1
   vertex 1.11443 -0.390149 -1
   vertex 1.11524 -0.390124 -1
  endloop
 endfacet
 facet normal 0 0 -1
  outer loop
   vertex 1.11474 -0.400111 -1
   vertex 1.11524 -0.390124 -1
   vertex 1.12401 -0.401032 -1
  endloop
 endfacet
 facet normal 0 0 -1
  outer loop
   vertex 1.12401 -0.401032 -1
   vertex 1.11524 -0.390124 -1
   vertex 1.12485 -0.391048 -1
  endloop
 endfacet
 facet normal 0 0 -1
  outer loop
   vertex 1.12401 -0.401032 -1
   vertex 1.12485 -0.391048 -1
   vertex 1.13314 -0.402856 -1
  endloop
 endfacet
 facet normal 0 0 -1
  outer loop
   vertex 1.13314 -0.402856 -1
   vertex 1.12485 -0.391048 -1
   vertex 1.13433 -0.392851 -1
  endloop
 endfacet
 facet normal 0 0 -1
  outer loop
   vertex 1.13314 -0.402856 -1
   vertex 1.13433 -0.392851 -1
   vertex 1.14205 -0.405564 -1
  endloop
 endfacet
 facet normal 0 0 -1
  outer loop
   vertex 1.14205 -0.405564 -1
   vertex 1.13433 -0.392851 -1
   vertex 1.1436 -0.395516 -1
  endloop
 endfacet
 facet normal 0 0 -1
  outer loop
   vertex 1.14205 -0.405564 -1
   vertex 1.1436 -0.395516 -1
   vertex 1.15065 -0.409132 -1
  endloop
 endfacet
 facet normal 0 0 -1
  outer loop
   vertex 1.15065 -0.409132 -1
   vertex 1.1436 -0.395516 -1
   vertex 1.15259 -0.399021 -1
  endloop
 endfacet
 facet normal 0 0 -1
  outer loop
   vertex 1.15065 -0.409132 -1
   vertex 1.15259 -0.399021 -1
   vertex 1.15887 -0.413525 -1
  endloop
 endfacet
 facet normal 0 0 -1
  outer loop
   vertex 1.15887 -0.413525 -1
   vertex 1.15259 -0.399021 -1
   vertex 1.16122 -0.403337 -1
  endloop
 endfacet
 facet normal 0 0 -1
  outer loop
   vertex 1.15887 -0.413525 -1
   vertex 1.16122 -0.403337 -1
   vertex 1.16661 -0.418701 -1
  endloop
 endfacet
 facet normal 0 0 -1
  outer loop
   vertex 1.16661 -0.418701 -1
   vertex 1.16122 -0.403337 -1
   vertex 1.16942 -0.408427 -1
  endloop
 endfacet
 facet normal 0 0 -1
  outer loop
   vertex 1.16661 -0.418701 -1
   vertex 1.16942 -0.408427 -1
   vertex 1.17381 -0.42461 -1
  endloop
 endfacet
 facet normal 0 0 -1
  outer loop
   vertex 1.17381 -0.42461 -1
   vertex 1.16942 -0.408427 -1
   vertex 1.17712 -0.414248 -1
  endloop
 endfacet
 facet normal 0 0 -1
  outer loop
   vertex 1.17381 -0.42461 -1
   vertex 1.17712 -0.414248 -1
   vertex 1.18425 -0.420751 -1
  endloop
 endfacet
 facet normal 0 0 -1
  outer loop
   vertex 1.20489 -0.490258 -1
   vertex 1.21222 -0.494428 -1
   vertex 1.21148 -0.494747 -1
  endloop
 endfacet
 facet normal -0 0 -1
  outer loop
   vertex 1.21148 -0.494747 -1
   vertex 1.21069 -0.494942 -1
   vertex 1.20489 -0.490258 -1
  endloop
 endfacet
 facet normal 0 0 -1
  outer loop
   vertex 1.20489 -0.490258 -1
   vertex 1.21069 -0.494942 -1
   vertex 1.20988 -0.495007 -1
  endloop
 endfacet
 facet normal 0 0 -1
  outer loop
   vertex 1.20489 -0.490258 -1
   vertex 1.20988 -0.495007 -1
   vertex 1.20904 -0.494936 -1
  endloop
 endfacet
 facet normal -0 0 -1
  outer loop
   vertex 1.21401 -0.492824 -1
   vertex 1.21351 -0.493454 -1
   vertex 1.20489 -0.490258 -1
  endloop
 endfacet
 facet normal 0 0 -1
  outer loop
   vertex 1.20489 -0.490258 -1
   vertex 1.21351 -0.493454 -1
   vertex 1.2129 -0.493993 -1
  endloop
 endfacet
 facet normal 0 0 -1
  outer loop
   vertex 1.20489 -0.490258 -1
   vertex 1.2129 -0.493993 -1
   vertex 1.21222 -0.494428 -1
  endloop
 endfacet
 facet normal 0 0 -1
  outer loop
   vertex 1.20675 -0.493908 -1
   vertex 1.20614 -0.493327 -1
   vertex 1.20746 -0.494379 -1
  endloop
 endfacet
 facet normal 0 0 -1
  outer loop
   vertex 1.20746 -0.494379 -1
   vertex 1.20614 -0.493327 -1
   vertex 1.20564 -0.492651 -1
  endloop
 endfacet
 facet normal 0 0 -1
  outer loop
   vertex 1.20746 -0.494379 -1
   vertex 1.20564 -0.492651 -1
   vertex 1.20525 -0.491899 -1
  endloop
 endfacet
 facet normal 0 0 -1
  outer loop
   vertex 1.20904 -0.494936 -1
   vertex 1.20822 -0.494725 -1
   vertex 1.20489 -0.490258 -1
  endloop
 endfacet
 facet normal 0 0 -1
  outer loop
   vertex 1.20489 -0.490258 -1
   vertex 1.20822 -0.494725 -1
   vertex 1.20746 -0.494379 -1
  endloop
 endfacet
 facet normal 0 0 -1
  outer loop
   vertex 1.20489 -0.490258 -1
   vertex 1.20746 -0.494379 -1
   vertex 1.205 -0.491094 -1
  endloop
 endfacet
 facet normal 0 0 -1
  outer loop
   vertex 1.205 -0.491094 -1
   vertex 1.20746 -0.494379 -1
   vertex 1.20525 -0.491899 -1
  endloop
 endfacet
 facet normal 0 0 -1
  outer loop
   vertex 1.11006 -0.394311 -1
   vertex 1.11025 -0.393525 -1
   vertex 1.11474 -0.400111 -1
  endloop
 endfacet
 facet normal 0 0 -1
  outer loop
   vertex 1.11474 -0.400111 -1
   vertex 1.11025 -0.393525 -1
   vertex 1.11057 -0.392781 -1
  endloop
 endfacet
 facet normal 0 0 -1
  outer loop
   vertex 1.11474 -0.400111 -1
   vertex 1.11057 -0.392781 -1
   vertex 1.11101 -0.392098 -1
  endloop
 endfacet
 facet normal 0 0 -1
  outer loop
   vertex 1.11101 -0.392098 -1
   vertex 1.11155 -0.391495 -1
   vertex 1.11474 -0.400111 -1
  endloop
 endfacet
 facet normal 0 0 -1
  outer loop
   vertex 1.11474 -0.400111 -1
   vertex 1.11155 -0.391495 -1
   vertex 1.11218 -0.390986 -1
  endloop
 endfacet
 facet normal 0 0 -1
  outer loop
   vertex 1.11474 -0.400111 -1
   vertex 1.11218 -0.390986 -1
   vertex 1.11288 -0.390586 -1
  endloop
 endfacet
 facet normal 0 -0 -1
  outer loop
   vertex 1.11006 -0.394311 -1
   vertex 1.11474 -0.400111 -1
   vertex 1.10999 -0.395117 -1
  endloop
 endfacet
 facet normal 0 0 -1
  outer loop
   vertex 1.10999 -0.395117 -1
   vertex 1.11474 -0.400111 -1
   vertex 1.11391 -0.399998 -1
  endloop
 endfacet
 facet normal 0 0 -1
  outer loop
   vertex 1.10999 -0.395117 -1
   vertex 1.11391 -0.399998 -1
   vertex 1.1131 -0.399746 -1
  endloop
 endfacet
 facet normal 0 0 -1
  outer loop
   vertex 1.11235 -0.399362 -1
   vertex 1.11167 -0.398857 -1
   vertex 1.1131 -0.399746 -1
  endloop
 endfacet
 facet normal 0 0 -1
  outer loop
   vertex 1.1131 -0.399746 -1
   vertex 1.11167 -0.398857 -1
   vertex 1.11109 -0.398245 -1
  endloop
 endfacet
 facet normal 0 0 -1
  outer loop
   vertex 1.1131 -0.399746 -1
   vertex 1.11109 -0.398245 -1
   vertex 1.11062 -0.397545 -1
  endloop
 endfacet
 facet normal 0 0 -1
  outer loop
   vertex 1.11062 -0.397545 -1
   vertex 1.11028 -0.396775 -1
   vertex 1.1131 -0.399746 -1
  endloop
 endfacet
 facet normal 0 0 -1
  outer loop
   vertex 1.1131 -0.399746 -1
   vertex 1.11028 -0.396775 -1
   vertex 1.11006 -0.395958 -1
  endloop
 endfacet
 facet normal 0 0 -1
  outer loop
   vertex 1.1131 -0.399746 -1
   vertex 1.11006 -0.395958 -1
   vertex 1.10999 -0.395117 -1
  endloop
 endfacet
 facet normal 0 0 1
  outer loop
   vertex 1.11443 -0.390149 1
   vertex 1.11364 -0.390304 1
   vertex 1.11474 -0.400111 1
  endloop
 endfacet
 facet normal 0 -0 1
  outer loop
   vertex 1.18039 -0.431195 1
   vertex 1.18425 -0.420751 1
   vertex 1.17381 -0.42461 1
  endloop
 endfacet
 facet normal 0 0 1
  outer loop
   vertex 1.17381 -0.42461 1
   vertex 1.18425 -0.420751 1
   vertex 1.17712 -0.414248 1
  endloop
 endfacet
 facet normal 0 -0 1
  outer loop
   vertex 1.17381 -0.42461 1
   vertex 1.17712 -0.414248 1
   vertex 1.16661 -0.418701 1
  endloop
 endfacet
 facet normal 0 0 1
  outer loop
   vertex 1.16661 -0.418701 1
   vertex 1.17712 -0.414248 1
   vertex 1.16942 -0.408427 1
  endloop
 endfacet
 facet normal 0 -0 1
  outer loop
   vertex 1.16661 -0.418701 1
   vertex 1.16942 -0.408427 1
   vertex 1.15887 -0.413525 1
  endloop
 endfacet
 facet normal 0 0 1
  outer loop
   vertex 1.15887 -0.413525 1
   vertex 1.16942 -0.408427 1
   vertex 1.16122 -0.403337 1
  endloop
 endfacet
 facet normal 0 -0 1
  outer loop
   vertex 1.15887 -0.413525 1
   vertex 1.16122 -0.403337 1
   vertex 1.15065 -0.409132 1
  endloop
 endfacet
 facet normal 0 0 1
  outer loop
   vertex 1.15065 -0.409132 1
   vertex 1.16122 -0.403337 1
   vertex 1.15259 -0.399021 1
  endloop
 endfacet
 facet normal 0 -0 1
  outer loop
   vertex 1.15065 -0.409132 1
   vertex 1.15259 -0.399021 1
   vertex 1.14205 -0.405564 1
  endloop
 endfacet
 facet normal 0 0 1
  outer loop
   vertex 1.14205 -0.405564 1
   vertex 1.15259 -0.399021 1
   vertex 1.1436 -0.395516 1
  endloop
 endfacet
 facet normal 0 -0 1
  outer loop
   vertex 1.14205 -0.405564 1
   vertex 1.1436 -0.395516 1
   vertex 1.13314 -0.402856 1
  endloop
 endfacet
 facet normal 0 0 1
  outer loop
   vertex 1.13314 -0.402856 1
   vertex 1.1436 -0.395516 1
   vertex 1.13433 -0.392851 1
  endloop
 endfacet
 facet normal 0 -0 1
  outer loop
   vertex 1.13314 -0.402856 1
   vertex 1.13433 -0.392851 1
   vertex 1.12401 -0.401032 1
  endloop
 endfacet
 facet normal 0 0 1
  outer loop
   vertex 1.12401 -0.401032 1
   vertex 1.13433 -0.392851 1
   vertex 1.12485 -0.391048 1
  endloop
 endfacet
 facet normal 0 -0 1
  outer loop
   vertex 1.12401 -0.401032 1
   vertex 1.12485 -0.391048 1
   vertex 1.11474 -0.400111 1
  endloop
 endfacet
 facet normal 0 0 1
  outer loop
   vertex 1.11474 -0.400111 1
   vertex 1.12485 -0.391048 1
   vertex 1.11524 -0.390124 1
  endloop
 endfacet
 facet normal 0 -0 1
  outer loop
   vertex 1.11474 -0.400111 1
   vertex 1.11524 -0.390124 1
   vertex 1.11443 -0.390149 1
  endloop
 endfacet
 facet normal 0 -0 1
  outer loop
   vertex 1.21441 -0.49212 1
   vertex 1.2147 -0.491361 1
   vertex 1.20489 -0.490258 1
  endloop
 endfacet
 facet normal 0 -0 1
  outer loop
   vertex 1.20988 -0.495007 1
   vertex 1.21069 -0.494942 1
   vertex 1.20489 -0.490258 1
  endloop
 endfacet
 facet normal 0 -0 1
  outer loop
   vertex 1.2147 -0.491361 1
   vertex 1.21485 -0.490567 1
   vertex 1.20489 -0.490258 1
  endloop
 endfacet
 facet normal -0 0 1
  outer loop
   vertex 1.20489 -0.490258 1
   vertex 1.21485 -0.490567 1
   vertex 1.21488 -0.489758 1
  endloop
 endfacet
 facet normal 0 -0 1
  outer loop
   vertex 1.20489 -0.490258 1
   vertex 1.21488 -0.489758 1
   vertex 1.20397 -0.48099 1
  endloop
 endfacet
 facet normal -0 0 1
  outer loop
   vertex 1.20397 -0.48099 1
   vertex 1.21488 -0.489758 1
   vertex 1.21395 -0.480152 1
  endloop
 endfacet
 facet normal 0 -0 1
  outer loop
   vertex 1.20397 -0.48099 1
   vertex 1.21395 -0.480152 1
   vertex 1.20214 -0.471858 1
  endloop
 endfacet
 facet normal -0 0 1
  outer loop
   vertex 1.20214 -0.471858 1
   vertex 1.21395 -0.480152 1
   vertex 1.21215 -0.470672 1
  endloop
 endfacet
 facet normal 0 -0 1
  outer loop
   vertex 1.20214 -0.471858 1
   vertex 1.21215 -0.470672 1
   vertex 1.19944 -0.462948 1
  endloop
 endfacet
 facet normal -0 0 1
  outer loop
   vertex 1.19944 -0.462948 1
   vertex 1.21215 -0.470672 1
   vertex 1.20948 -0.461398 1
  endloop
 endfacet
 facet normal 0 -0 1
  outer loop
   vertex 1.19944 -0.462948 1
   vertex 1.20948 -0.461398 1
   vertex 1.19587 -0.454346 1
  endloop
 endfacet
 facet normal -0 0 1
  outer loop
   vertex 1.19587 -0.454346 1
   vertex 1.20948 -0.461398 1
   vertex 1.20598 -0.452407 1
  endloop
 endfacet
 facet normal 0 -0 1
  outer loop
   vertex 1.19587 -0.454346 1
   vertex 1.20598 -0.452407 1
   vertex 1.19147 -0.446135 1
  endloop
 endfacet
 facet normal -0 0 1
  outer loop
   vertex 1.19147 -0.446135 1
   vertex 1.20598 -0.452407 1
   vertex 1.20166 -0.443776 1
  endloop
 endfacet
 facet normal 0 -0 1
  outer loop
   vertex 1.19147 -0.446135 1
   vertex 1.20166 -0.443776 1
   vertex 1.1863 -0.438393 1
  endloop
 endfacet
 facet normal -0 0 1
  outer loop
   vertex 1.1863 -0.438393 1
   vertex 1.20166 -0.443776 1
   vertex 1.19657 -0.435577 1
  endloop
 endfacet
 facet normal 0 -0 1
  outer loop
   vertex 1.1863 -0.438393 1
   vertex 1.19657 -0.435577 1
   vertex 1.18039 -0.431195 1
  endloop
 endfacet
 facet normal -0 0 1
  outer loop
   vertex 1.18039 -0.431195 1
   vertex 1.19657 -0.435577 1
   vertex 1.19075 -0.42788 1
  endloop
 endfacet
 facet normal 0 0 1
  outer loop
   vertex 1.18039 -0.431195 1
   vertex 1.19075 -0.42788 1
   vertex 1.18425 -0.420751 1
  endloop
 endfacet
 facet normal 0 0 1
  outer loop
   vertex 1.20988 -0.495007 1
   vertex 1.20489 -0.490258 1
   vertex 1.20904 -0.494936 1
  endloop
 endfacet
 facet normal 0 0 1
  outer loop
   vertex 1.11364 -0.390304 1
   vertex 1.11288 -0.390586 1
   vertex 1.11474 -0.400111 1
  endloop
 endfacet
 facet normal 0 0 1
  outer loop
   vertex 1.11474 -0.400111 1
   vertex 1.11288 -0.390586 1
   vertex 1.11218 -0.390986 1
  endloop
 endfacet
 facet normal 0 0 1
  outer loop
   vertex 1.11474 -0.400111 1
   vertex 1.11218 -0.390986 1
   vertex 1.11155 -0.391495 1
  endloop
 endfacet
 facet normal 0 0 1
  outer loop
   vertex 1.11155 -0.391495 1
   vertex 1.11101 -0.392098 1
   vertex 1.11474 -0.400111 1
  endloop
 endfacet
 facet normal 0 0 1
  outer loop
   vertex 1.11474 -0.400111 1
   vertex 1.11101 -0.392098 1
   vertex 1.11057 -0.392781 1
  endloop
 endfacet
 facet normal 0 0 1
  outer loop
   vertex 1.11474 -0.400111 1
   vertex 1.11057 -0.392781 1
   vertex 1.11025 -0.393525 1
  endloop
 endfacet
 facet normal 0 0 1
  outer loop
   vertex 1.11025 -0.393525 1
   vertex 1.11006 -0.394311 1
   vertex 1.11474 -0.400111 1
  endloop
 endfacet
 facet normal 0 0 1
  outer loop
   vertex 1.11474 -0.400111 1
   vertex 1.11006 -0.394311 1
   vertex 1.10999 -0.395117 1
  endloop
 endfacet
 facet normal 0 0 1
  outer loop
   vertex 1.11474 -0.400111 1
   vertex 1.10999 -0.395117 1
   vertex 1.11391 -0.399998 1
  endloop
 endfacet
 facet normal 0 0 1
  outer loop
   vertex 1.205 -0.491094 1
   vertex 1.20525 -0.491899 1
   vertex 1.20746 -0.494379 1
  endloop
 endfacet
 facet normal 0 -0 1
  outer loop
   vertex 1.21069 -0.494942 1
   vertex 1.21148 -0.494747 1
   vertex 1.20489 -0.490258 1
  endloop
 endfacet
 facet normal 0 0 1
  outer loop
   vertex 1.20489 -0.490258 1
   vertex 1.21148 -0.494747 1
   vertex 1.21222 -0.494428 1
  endloop
 endfacet
 facet normal 0 0 1
  outer loop
   vertex 1.20489 -0.490258 1
   vertex 1.21222 -0.494428 1
   vertex 1.2129 -0.493993 1
  endloop
 endfacet
 facet normal 0 0 1
  outer loop
   vertex 1.11028 -0.396775 1
   vertex 1.11062 -0.397545 1
   vertex 1.1131 -0.399746 1
  endloop
 endfacet
 facet normal -0 -0 1
  outer loop
   vertex 1.205 -0.491094 1
   vertex 1.20746 -0.494379 1
   vertex 1.20489 -0.490258 1
  endloop
 endfacet
 facet normal 0 0 1
  outer loop
   vertex 1.20489 -0.490258 1
   vertex 1.20746 -0.494379 1
   vertex 1.20822 -0.494725 1
  endloop
 endfacet
 facet normal 0 0 1
  outer loop
   vertex 1.20489 -0.490258 1
   vertex 1.20822 -0.494725 1
   vertex 1.20904 -0.494936 1
  endloop
 endfacet
 facet normal 0 -0 1
  outer loop
   vertex 1.2129 -0.493993 1
   vertex 1.21351 -0.493454 1
   vertex 1.20489 -0.490258 1
  endloop
 endfacet
 facet normal 0 0 1
  outer loop
   vertex 1.20489 -0.490258 1
   vertex 1.21351 -0.493454 1
   vertex 1.21401 -0.492824 1
  endloop
 endfacet
 facet normal 0 0 1
  outer loop
   vertex 1.20489 -0.490258 1
   vertex 1.21401 -0.492824 1
   vertex 1.21441 -0.49212 1
  endloop
 endfacet
 facet normal 0 0 1
  outer loop
   vertex 1.20525 -0.491899 1
   vertex 1.20564 -0.492651 1
   vertex 1.20746 -0.494379 1
  endloop
 endfacet
 facet normal 0 0 1
  outer loop
   vertex 1.20746 -0.494379 1
   vertex 1.20564 -0.492651 1
   vertex 1.20614 -0.493327 1
  endloop
 endfacet
 facet normal 0 0 1
  outer loop
   vertex 1.20746 -0.494379 1
   vertex 1.20614 -0.493327 1
   vertex 1.20675 -0.493908 1
  endloop
 endfacet
 facet normal 0 0 1
  outer loop
   vertex 1.11391 -0.399998 1
   vertex 1.10999 -0.395117 1
   vertex 1.1131 -0.399746 1
  endloop
 endfacet
 facet normal 0 0 1
  outer loop
   vertex 1.1131 -0.399746 1
   vertex 1.10999 -0.395117 1
   vertex 1.11006 -0.395958 1
  endloop
 endfacet
 facet normal 0 0 1
  outer loop
   vertex 1.1131 -0.399746 1
   vertex 1.11006 -0.395958 1
   vertex 1.11028 -0.396775 1
  endloop
 endfacet
 facet normal 0 0 1
  outer loop
   vertex 1.11062 -0.397545 1
   vertex 1.11109 -0.398245 1
   vertex 1.1131 -0.399746 1
  endloop
 endfacet
 facet normal 0 0 1
  outer loop
   vertex 1.1131 -0.399746 1
   vertex 1.11109 -0.398245 1
   vertex 1.11167 -0.398857 1
  endloop
 endfacet
 facet normal 0 0 1
  outer loop
   vertex 1.1131 -0.399746 1
   vertex 1.11167 -0.398857 1
   vertex 1.11235 -0.399362 1
  endloop
 endfacet
 facet normal 0.999312 -0.0370984 0
  outer loop
   vertex 1.21488 -0.489758 -1
   vertex 1.21488 -0.489758 1
   vertex 1.21485 -0.490567 1
  endloop
 endfacet
 facet normal 0.999312 -0.0370984 0
  outer loop
   vertex 1.21488 -0.489758 -1
   vertex 1.21485 -0.490567 1
   vertex 1.21485 -0.490567 -1
  endloop
 endfacet
 facet normal 0.982648 -0.185479 0
  outer loop
   vertex 1.21485 -0.490567 -1
   vertex 1.21485 -0.490567 1
   vertex 1.2147 -0.491361 1
  endloop
 endfacet
 facet normal 0.982648 -0.185479 0
  outer loop
   vertex 1.21485 -0.490567 -1
   vertex 1.2147 -0.491361 1
   vertex 1.2147 -0.491361 -1
  endloop
 endfacet
 facet normal 0.934121 -0.356956 0
  outer loop
   vertex 1.2147 -0.491361 -1
   vertex 1.2147 -0.491361 1
   vertex 1.21441 -0.49212 1
  endloop
 endfacet
 facet normal 0.934121 -0.356956 0
  outer loop
   vertex 1.2147 -0.491361 -1
   vertex 1.21441 -0.49212 1
   vertex 1.21441 -0.49212 -1
  endloop
 endfacet
 facet normal 0.869365 -0.494171 0
  outer loop
   vertex 1.21441 -0.49212 -1
   vertex 1.21441 -0.49212 1
   vertex 1.21401 -0.492824 1
  endloop
 endfacet
 facet normal 0.869365 -0.494171 0
  outer loop
   vertex 1.21441 -0.49212 -1
   vertex 1.21401 -0.492824 1
   vertex 1.21401 -0.492824 -1
  endloop
 endfacet
 facet normal 0.783214 -0.621753 0
  outer loop
   vertex 1.21401 -0.492824 -1
   vertex 1.21401 -0.492824 1
   vertex 1.21351 -0.493454 1
  endloop
 endfacet
 facet normal 0.783214 -0.621753 0
  outer loop
   vertex 1.21401 -0.492824 -1
   vertex 1.21351 -0.493454 1
   vertex 1.21351 -0.493454 -1
  endloop
 endfacet
 facet normal 0.662429 -0.749125 0
  outer loop
   vertex 1.21351 -0.493454 -1
   vertex 1.21351 -0.493454 1
   vertex 1.2129 -0.493993 1
  endloop
 endfacet
 facet normal 0.662429 -0.749125 0
  outer loop
   vertex 1.21351 -0.493454 -1
   vertex 1.2129 -0.493993 1
   vertex 1.2129 -0.493993 -1
  endloop
 endfacet
 facet normal 0.53883 -0.842415 0
  outer loop
   vertex 1.2129 -0.493993 -1
   vertex 1.2129 -0.493993 1
   vertex 1.21222 -0.494428 1
  endloop
 endfacet
 facet normal 0.53883 -0.842415 0
  outer loop
   vertex 1.2129 -0.493993 -1
   vertex 1.21222 -0.494428 1
   vertex 1.21222 -0.494428 -1
  endloop
 endfacet
 facet normal 0.395998 -0.918251 0
  outer loop
   vertex 1.21222 -0.494428 -1
   vertex 1.21222 -0.494428 1
   vertex 1.21148 -0.494747 1
  endloop
 endfacet
 facet normal 0.395998 -0.918251 0
  outer loop
   vertex 1.21222 -0.494428 -1
   vertex 1.21148 -0.494747 1
   vertex 1.21148 -0.494747 -1
  endloop
 endfacet
 facet normal 0.239531 -0.970889 0
  outer loop
   vertex 1.21148 -0.494747 -1
   vertex 1.21148 -0.494747 1
   vertex 1.21069 -0.494942 1
  endloop
 endfacet
 facet normal 0.239531 -0.970889 0
  outer loop
   vertex 1.21148 -0.494747 -1
   vertex 1.21069 -0.494942 1
   vertex 1.21069 -0.494942 -1
  endloop
 endfacet
 facet normal 0.080596 -0.996747 0
  outer loop
   vertex 1.21069 -0.494942 -1
   vertex 1.21069 -0.494942 1
   vertex 1.20988 -0.495007 1
  endloop
 endfacet
 facet normal 0.080596 -0.996747 0
  outer loop
   vertex 1.21069 -0.494942 -1
   vertex 1.20988 -0.495007 1
   vertex 1.20988 -0.495007 -1
  endloop
 endfacet
 facet normal -0.0844659 -0.996426 0
  outer loop
   vertex 1.20988 -0.495007 -1
   vertex 1.20988 -0.495007 1
   vertex 1.20904 -0.494936 1
  endloop
 endfacet
 facet normal -0.0844659 -0.996426 0
  outer loop
   vertex 1.20988 -0.495007 -1
   vertex 1.20904 -0.494936 1
   vertex 1.20904 -0.494936 -1
  endloop
 endfacet
 facet normal -0.249848 -0.968285 0
  outer loop
   vertex 1.20904 -0.494936 -1
   vertex 1.20904 -0.494936 1
   vertex 1.20822 -0.494725 1
  endloop
 endfacet
 facet normal -0.249848 -0.968285 0
  outer loop
   vertex 1.20904 -0.494936 -1
   vertex 1.20822 -0.494725 1
   vertex 1.20822 -0.494725 -1
  endloop
 endfacet
 facet normal -0.414364 -0.910111 0
  outer loop
   vertex 1.20822 -0.494725 -1
   vertex 1.20822 -0.494725 1
   vertex 1.20746 -0.494379 1
  endloop
 endfacet
 facet normal -0.414364 -0.910111 0
  outer loop
   vertex 1.20822 -0.494725 -1
   vertex 1.20746 -0.494379 1
   vertex 1.20746 -0.494379 -1
  endloop
 endfacet
 facet normal -0.552308 -0.83364 0
  outer loop
   vertex 1.20746 -0.494379 -1
   vertex 1.20746 -0.494379 1
   vertex 1.20675 -0.493908 1
  endloop
 endfacet
 facet normal -0.552308 -0.83364 0
  outer loop
   vertex 1.20746 -0.494379 -1
   vertex 1.20675 -0.493908 1
   vertex 1.20675 -0.493908 -1
  endloop
 endfacet
 facet normal -0.690061 -0.723751 0
  outer loop
   vertex 1.20675 -0.493908 -1
   vertex 1.20675 -0.493908 1
   vertex 1.20614 -0.493327 1
  endloop
 endfacet
 facet normal -0.690061 -0.723751 0
  outer loop
   vertex 1.20675 -0.493908 -1
   vertex 1.20614 -0.493327 1
   vertex 1.20614 -0.493327 -1
  endloop
 endfacet
 facet normal -0.804015 -0.594609 0
  outer loop
   vertex 1.20614 -0.493327 -1
   vertex 1.20614 -0.493327 1
   vertex 1.20564 -0.492651 1
  endloop
 endfacet
 facet normal -0.804015 -0.594609 0
  outer loop
   vertex 1.20614 -0.493327 -1
   vertex 1.20564 -0.492651 1
   vertex 1.20564 -0.492651 -1
  endloop
 endfacet
 facet normal -0.887601 -0.460613 0
  outer loop
   vertex 1.20564 -0.492651 -1
   vertex 1.20564 -0.492651 1
   vertex 1.20525 -0.491899 1
  endloop
 endfacet
 facet normal -0.887601 -0.460613 0
  outer loop
   vertex 1.20564 -0.492651 -1
   vertex 1.20525 -0.491899 1
   vertex 1.20525 -0.491899 -1
  endloop
 endfacet
 facet normal -0.955044 -0.296465 0
  outer loop
   vertex 1.20525 -0.491899 -1
   vertex 1.20525 -0.491899 1
   vertex 1.205 -0.491094 1
  endloop
 endfacet
 facet normal -0.955044 -0.296465 0
  outer loop
   vertex 1.20525 -0.491899 -1
   vertex 1.205 -0.491094 1
   vertex 1.205 -0.491094 -1
  endloop
 endfacet
 facet normal -0.991456 -0.130444 0
  outer loop
   vertex 1.205 -0.491094 -1
   vertex 1.205 -0.491094 1
   vertex 1.20489 -0.490258 1
  endloop
 endfacet
 facet normal -0.991456 -0.130444 0
  outer loop
   vertex 1.205 -0.491094 -1
   vertex 1.20489 -0.490258 1
   vertex 1.20489 -0.490258 -1
  endloop
 endfacet
 facet normal -0.99626 0.0864085 0
  outer loop
   vertex 1.10999 -0.395117 -1
   vertex 1.10999 -0.395117 1
   vertex 1.11006 -0.394311 1
  endloop
 endfacet
 facet normal -0.99626 0.0864085 0
  outer loop
   vertex 1.10999 -0.395117 -1
   vertex 1.11006 -0.394311 1
   vertex 1.11006 -0.394311 -1
  endloop
 endfacet
 facet normal -0.971985 0.235042 0
  outer loop
   vertex 1.11006 -0.394311 -1
   vertex 1.11006 -0.394311 1
   vertex 1.11025 -0.393525 1
  endloop
 endfacet
 facet normal -0.971985 0.235042 0
  outer loop
   vertex 1.11006 -0.394311 -1
   vertex 1.11025 -0.393525 1
   vertex 1.11025 -0.393525 -1
  endloop
 endfacet
 facet normal -0.918633 0.395112 0
  outer loop
   vertex 1.11025 -0.393525 -1
   vertex 1.11025 -0.393525 1
   vertex 1.11057 -0.392781 1
  endloop
 endfacet
 facet normal -0.918633 0.395112 0
  outer loop
   vertex 1.11025 -0.393525 -1
   vertex 1.11057 -0.392781 1
   vertex 1.11057 -0.392781 -1
  endloop
 endfacet
 facet normal -0.840586 0.541679 0
  outer loop
   vertex 1.11057 -0.392781 -1
   vertex 1.11057 -0.392781 1
   vertex 1.11101 -0.392098 1
  endloop
 endfacet
 facet normal -0.840586 0.541679 0
  outer loop
   vertex 1.11057 -0.392781 -1
   vertex 1.11101 -0.392098 1
   vertex 1.11101 -0.392098 -1
  endloop
 endfacet
 facet normal -0.745214 0.666825 0
  outer loop
   vertex 1.11101 -0.392098 -1
   vertex 1.11101 -0.392098 1
   vertex 1.11155 -0.391495 1
  endloop
 endfacet
 facet normal -0.745214 0.666825 0
  outer loop
   vertex 1.11101 -0.392098 -1
   vertex 1.11155 -0.391495 1
   vertex 1.11155 -0.391495 -1
  endloop
 endfacet
 facet normal -0.62814 0.778101 0
  outer loop
   vertex 1.11155 -0.391495 -1
   vertex 1.11155 -0.391495 1
   vertex 1.11218 -0.390986 1
  endloop
 endfacet
 facet normal -0.62814 0.778101 0
  outer loop
   vertex 1.11155 -0.391495 -1
   vertex 1.11218 -0.390986 1
   vertex 1.11218 -0.390986 -1
  endloop
 endfacet
 facet normal -0.496513 0.86803 0
  outer loop
   vertex 1.11218 -0.390986 -1
   vertex 1.11218 -0.390986 1
   vertex 1.11288 -0.390586 1
  endloop
 endfacet
 facet normal -0.496513 0.86803 0
  outer loop
   vertex 1.11218 -0.390986 -1
   vertex 1.11288 -0.390586 1
   vertex 1.11288 -0.390586 -1
  endloop
 endfacet
 facet normal -0.347353 0.937735 0
  outer loop
   vertex 1.11288 -0.390586 -1
   vertex 1.11288 -0.390586 1
   vertex 1.11364 -0.390304 1
  endloop
 endfacet
 facet normal -0.347353 0.937735 0
  outer loop
   vertex 1.11288 -0.390586 -1
   vertex 1.11364 -0.390304 1
   vertex 1.11364 -0.390304 -1
  endloop
 endfacet
 facet normal -0.19289 0.98122 0
  outer loop
   vertex 1.11364 -0.390304 -1
   vertex 1.11364 -0.390304 1
   vertex 1.11443 -0.390149 1
  endloop
 endfacet
 facet normal -0.19289 0.98122 0
  outer loop
   vertex 1.11364 -0.390304 -1
   vertex 1.11443 -0.390149 1
   vertex 1.11443 -0.390149 -1
  endloop
 endfacet
 facet normal -0.030973 0.99952 0
  outer loop
   vertex 1.11443 -0.390149 -1
   vertex 1.11443 -0.390149 1
   vertex 1.11524 -0.390124 1
  endloop
 endfacet
 facet normal -0.030973 0.99952 0
  outer loop
   vertex 1.11443 -0.390149 -1
   vertex 1.11524 -0.390124 1
   vertex 1.11524 -0.390124 -1
  endloop
 endfacet
 facet normal -0.135126 -0.990828 0
  outer loop
   vertex 1.11474 -0.400111 -1
   vertex 1.11474 -0.400111 1
   vertex 1.11391 -0.399998 1
  endloop
 endfacet
 facet normal -0.135126 -0.990828 0
  outer loop
   vertex 1.11474 -0.400111 -1
   vertex 1.11391 -0.399998 1
   vertex 1.11391 -0.399998 -1
  endloop
 endfacet
 facet normal -0.297311 -0.954781 0
  outer loop
   vertex 1.11391 -0.399998 -1
   vertex 1.11391 -0.399998 1
   vertex 1.1131 -0.399746 1
  endloop
 endfacet
 facet normal -0.297311 -0.954781 0
  outer loop
   vertex 1.11391 -0.399998 -1
   vertex 1.1131 -0.399746 1
   vertex 1.1131 -0.399746 -1
  endloop
 endfacet
 facet normal -0.455706 -0.89013 0
  outer loop
   vertex 1.1131 -0.399746 -1
   vertex 1.1131 -0.399746 1
   vertex 1.11235 -0.399362 1
  endloop
 endfacet
 facet normal -0.455706 -0.89013 0
  outer loop
   vertex 1.1131 -0.399746 -1
   vertex 1.11235 -0.399362 1
   vertex 1.11235 -0.399362 -1
  endloop
 endfacet
 facet normal -0.596233 -0.802812 0
  outer loop
   vertex 1.11235 -0.399362 -1
   vertex 1.11235 -0.399362 1
   vertex 1.11167 -0.398857 1
  endloop
 endfacet
 facet normal -0.596233 -0.802812 0
  outer loop
   vertex 1.11235 -0.399362 -1
   vertex 1.11167 -0.398857 1
   vertex 1.11167 -0.398857 -1
  endloop
 endfacet
 facet normal -0.725449 -0.688276 0
  outer loop
   vertex 1.11167 -0.398857 -1
   vertex 1.11167 -0.398857 1
   vertex 1.11109 -0.398245 1
  endloop
 endfacet
 facet normal -0.725449 -0.688276 0
  outer loop
   vertex 1.11167 -0.398857 -1
   vertex 1.11109 -0.398245 1
   vertex 1.11109 -0.398245 -1
  endloop
 endfacet
 facet normal -0.830447 -0.557097 0
  outer loop
   vertex 1.11109 -0.398245 -1
   vertex 1.11109 -0.398245 1
   vertex 1.11062 -0.397545 1
  endloop
 endfacet
 facet normal -0.830447 -0.557097 0
  outer loop
   vertex 1.11109 -0.398245 -1
   vertex 1.11062 -0.397545 1
   vertex 1.11062 -0.397545 -1
  endloop
 endfacet
 facet normal -0.914737 -0.404051 0
  outer loop
   vertex 1.11062 -0.397545 -1
   vertex 1.11062 -0.397545 1
   vertex 1.11028 -0.396775 1
  endloop
 endfacet
 facet normal -0.914737 -0.404051 0
  outer loop
   vertex 1.11062 -0.397545 -1
   vertex 1.11028 -0.396775 1
   vertex 1.11028 -0.396775 -1
  endloop
 endfacet
 facet normal -0.965578 -0.260112 0
  outer loop
   vertex 1.11028 -0.396775 -1
   vertex 1.11028 -0.396775 1
   vertex 1.11006 -0.395958 1
  endloop
 endfacet
 facet normal -0.965578 -0.260112 0
  outer loop
   vertex 1.11028 -0.396775 -1
   vertex 1.11006 -0.395958 1
   vertex 1.11006 -0.395958 -1
  endloop
 endfacet
 facet normal -0.996555 -0.0829286 0
  outer loop
   vertex 1.11006 -0.395958 -1
   vertex 1.11006 -0.395958 1
   vertex 1.10999 -0.395117 1
  endloop
 endfacet
 facet normal -0.996555 -0.0829286 0
  outer loop
   vertex 1.11006 -0.395958 -1
   vertex 1.10999 -0.395117 1
   vertex 1.10999 -0.395117 -1
  endloop
 endfacet
endsolid tunner_vane
