solid tunner_vane
 facet normal 0.0154902 0.99988 -0
  outer loop
   vertex 1.16165 0.181812 -1
   vertex 1.16165 0.181812 1
   vertex 1.16804 0.181713 1
  endloop
 endfacet
 facet normal 0.0154902 0.99988 0
  outer loop
   vertex 1.16165 0.181812 -1
   vertex 1.16804 0.181713 1
   vertex 1.16804 0.181713 -1
  endloop
 endfacet
 facet normal 0.0464293 0.998922 -0
  outer loop
   vertex 1.16804 0.181713 -1
   vertex 1.16804 0.181713 1
   vertex 1.17443 0.181416 1
  endloop
 endfacet
 facet normal 0.0464293 0.998922 0
  outer loop
   vertex 1.16804 0.181713 -1
   vertex 1.17443 0.181416 1
   vertex 1.17443 0.181416 -1
  endloop
 endfacet
 facet normal 0.0775095 0.996992 -0
  outer loop
   vertex 1.17443 0.181416 -1
   vertex 1.17443 0.181416 1
   vertex 1.18081 0.18092 1
  endloop
 endfacet
 facet normal 0.0775095 0.996992 0
  outer loop
   vertex 1.17443 0.181416 -1
   vertex 1.18081 0.18092 1
   vertex 1.18081 0.18092 -1
  endloop
 endfacet
 facet normal 0.108644 0.994081 -0
  outer loop
   vertex 1.18081 0.18092 -1
   vertex 1.18081 0.18092 1
   vertex 1.18716 0.180226 1
  endloop
 endfacet
 facet normal 0.108644 0.994081 0
  outer loop
   vertex 1.18081 0.18092 -1
   vertex 1.18716 0.180226 1
   vertex 1.18716 0.180226 -1
  endloop
 endfacet
 facet normal 0.139015 0.99029 -0
  outer loop
   vertex 1.18716 0.180226 -1
   vertex 1.18716 0.180226 1
   vertex 1.1935 0.179336 1
  endloop
 endfacet
 facet normal 0.139015 0.99029 0
  outer loop
   vertex 1.18716 0.180226 -1
   vertex 1.1935 0.179336 1
   vertex 1.1935 0.179336 -1
  endloop
 endfacet
 facet normal 0.169876 0.985465 -0
  outer loop
   vertex 1.1935 0.179336 -1
   vertex 1.1935 0.179336 1
   vertex 1.1998 0.17825 1
  endloop
 endfacet
 facet normal 0.169876 0.985465 0
  outer loop
   vertex 1.1935 0.179336 -1
   vertex 1.1998 0.17825 1
   vertex 1.1998 0.17825 -1
  endloop
 endfacet
 facet normal 0.200628 0.979667 -0
  outer loop
   vertex 1.1998 0.17825 -1
   vertex 1.1998 0.17825 1
   vertex 1.20606 0.176968 1
  endloop
 endfacet
 facet normal 0.200628 0.979667 0
  outer loop
   vertex 1.1998 0.17825 -1
   vertex 1.20606 0.176968 1
   vertex 1.20606 0.176968 -1
  endloop
 endfacet
 facet normal 0.230388 0.973099 -0
  outer loop
   vertex 1.20606 0.176968 -1
   vertex 1.20606 0.176968 1
   vertex 1.21229 0.175493 1
  endloop
 endfacet
 facet normal 0.230388 0.973099 0
  outer loop
   vertex 1.20606 0.176968 -1
   vertex 1.21229 0.175493 1
   vertex 1.21229 0.175493 -1
  endloop
 endfacet
 facet normal 0.260975 0.965345 -0
  outer loop
   vertex 1.21229 0.175493 -1
   vertex 1.21229 0.175493 1
   vertex 1.21846 0.173825 1
  endloop
 endfacet
 facet normal 0.260975 0.965345 0
  outer loop
   vertex 1.21229 0.175493 -1
   vertex 1.21846 0.173825 1
   vertex 1.21846 0.173825 -1
  endloop
 endfacet
 facet normal 0.290498 0.956876 -0
  outer loop
   vertex 1.21846 0.173825 -1
   vertex 1.21846 0.173825 1
   vertex 1.22458 0.171967 1
  endloop
 endfacet
 facet normal 0.290498 0.956876 0
  outer loop
   vertex 1.21846 0.173825 -1
   vertex 1.22458 0.171967 1
   vertex 1.22458 0.171967 -1
  endloop
 endfacet
 facet normal 0.320164 0.947362 -0
  outer loop
   vertex 1.22458 0.171967 -1
   vertex 1.22458 0.171967 1
   vertex 1.23064 0.169919 1
  endloop
 endfacet
 facet normal 0.320164 0.947362 0
  outer loop
   vertex 1.22458 0.171967 -1
   vertex 1.23064 0.169919 1
   vertex 1.23064 0.169919 -1
  endloop
 endfacet
 facet normal 0.349585 0.936905 -0
  outer loop
   vertex 1.23064 0.169919 -1
   vertex 1.23064 0.169919 1
   vertex 1.23663 0.167684 1
  endloop
 endfacet
 facet normal 0.349585 0.936905 0
  outer loop
   vertex 1.23064 0.169919 -1
   vertex 1.23663 0.167684 1
   vertex 1.23663 0.167684 -1
  endloop
 endfacet
 facet normal 0.378266 0.925697 -0
  outer loop
   vertex 1.23663 0.167684 -1
   vertex 1.23663 0.167684 1
   vertex 1.24255 0.165265 1
  endloop
 endfacet
 facet normal 0.378266 0.925697 0
  outer loop
   vertex 1.23663 0.167684 -1
   vertex 1.24255 0.165265 1
   vertex 1.24255 0.165265 -1
  endloop
 endfacet
 facet normal 0.406996 0.91343 -0
  outer loop
   vertex 1.24255 0.165265 -1
   vertex 1.24255 0.165265 1
   vertex 1.24839 0.162663 1
  endloop
 endfacet
 facet normal 0.406996 0.91343 0
  outer loop
   vertex 1.24255 0.165265 -1
   vertex 1.24839 0.162663 1
   vertex 1.24839 0.162663 -1
  endloop
 endfacet
 facet normal 0.434923 0.900468 -0
  outer loop
   vertex 1.24839 0.162663 -1
   vertex 1.24839 0.162663 1
   vertex 1.25415 0.159881 1
  endloop
 endfacet
 facet normal 0.434923 0.900468 0
  outer loop
   vertex 1.24839 0.162663 -1
   vertex 1.25415 0.159881 1
   vertex 1.25415 0.159881 -1
  endloop
 endfacet
 facet normal 0.462709 0.88651 -0
  outer loop
   vertex 1.25415 0.159881 -1
   vertex 1.25415 0.159881 1
   vertex 1.25982 0.156921 1
  endloop
 endfacet
 facet normal 0.462709 0.88651 0
  outer loop
   vertex 1.25415 0.159881 -1
   vertex 1.25982 0.156921 1
   vertex 1.25982 0.156921 -1
  endloop
 endfacet
 facet normal 0.490361 0.871519 -0
  outer loop
   vertex 1.25982 0.156921 -1
   vertex 1.25982 0.156921 1
   vertex 1.26539 0.153787 1
  endloop
 endfacet
 facet normal 0.490361 0.871519 0
  outer loop
   vertex 1.25982 0.156921 -1
   vertex 1.26539 0.153787 1
   vertex 1.26539 0.153787 -1
  endloop
 endfacet
 facet normal 0.516499 0.856288 -0
  outer loop
   vertex 1.26539 0.153787 -1
   vertex 1.26539 0.153787 1
   vertex 1.27087 0.150482 1
  endloop
 endfacet
 facet normal 0.516499 0.856288 0
  outer loop
   vertex 1.26539 0.153787 -1
   vertex 1.27087 0.150482 1
   vertex 1.27087 0.150482 -1
  endloop
 endfacet
 facet normal 0.54315 0.839636 -0
  outer loop
   vertex 1.27087 0.150482 -1
   vertex 1.27087 0.150482 1
   vertex 1.27624 0.147008 1
  endloop
 endfacet
 facet normal 0.54315 0.839636 0
  outer loop
   vertex 1.27087 0.150482 -1
   vertex 1.27624 0.147008 1
   vertex 1.27624 0.147008 -1
  endloop
 endfacet
 facet normal 0.569655 0.821884 -0
  outer loop
   vertex 1.27624 0.147008 -1
   vertex 1.27624 0.147008 1
   vertex 1.28149 0.143369 1
  endloop
 endfacet
 facet normal 0.569655 0.821884 0
  outer loop
   vertex 1.27624 0.147008 -1
   vertex 1.28149 0.143369 1
   vertex 1.28149 0.143369 -1
  endloop
 endfacet
 facet normal 0.593736 0.80466 -0
  outer loop
   vertex 1.28149 0.143369 -1
   vertex 1.28149 0.143369 1
   vertex 1.28664 0.139569 1
  endloop
 endfacet
 facet normal 0.593736 0.80466 0
  outer loop
   vertex 1.28149 0.143369 -1
   vertex 1.28664 0.139569 1
   vertex 1.28664 0.139569 -1
  endloop
 endfacet
 facet normal 0.619154 0.78527 -0
  outer loop
   vertex 1.28664 0.139569 -1
   vertex 1.28664 0.139569 1
   vertex 1.29166 0.135611 1
  endloop
 endfacet
 facet normal 0.619154 0.78527 0
  outer loop
   vertex 1.28664 0.139569 -1
   vertex 1.29166 0.135611 1
   vertex 1.29166 0.135611 -1
  endloop
 endfacet
 facet normal 0.642809 0.766027 -0
  outer loop
   vertex 1.29166 0.135611 -1
   vertex 1.29166 0.135611 1
   vertex 1.29656 0.131499 1
  endloop
 endfacet
 facet normal 0.642809 0.766027 0
  outer loop
   vertex 1.29166 0.135611 -1
   vertex 1.29656 0.131499 1
   vertex 1.29656 0.131499 -1
  endloop
 endfacet
 facet normal 0.666298 0.745686 -0
  outer loop
   vertex 1.29656 0.131499 -1
   vertex 1.29656 0.131499 1
   vertex 1.30133 0.127237 1
  endloop
 endfacet
 facet normal 0.666298 0.745686 0
  outer loop
   vertex 1.29656 0.131499 -1
   vertex 1.30133 0.127237 1
   vertex 1.30133 0.127237 -1
  endloop
 endfacet
 facet normal 0.689507 0.724279 -0
  outer loop
   vertex 1.30133 0.127237 -1
   vertex 1.30133 0.127237 1
   vertex 1.30596 0.122829 1
  endloop
 endfacet
 facet normal 0.689507 0.724279 0
  outer loop
   vertex 1.30133 0.127237 -1
   vertex 1.30596 0.122829 1
   vertex 1.30596 0.122829 -1
  endloop
 endfacet
 facet normal 0.711761 0.702421 -0
  outer loop
   vertex 1.30596 0.122829 -1
   vertex 1.30596 0.122829 1
   vertex 1.31045 0.11828 1
  endloop
 endfacet
 facet normal 0.711761 0.702421 0
  outer loop
   vertex 1.30596 0.122829 -1
   vertex 1.31045 0.11828 1
   vertex 1.31045 0.11828 -1
  endloop
 endfacet
 facet normal 0.732954 0.680279 -0
  outer loop
   vertex 1.31045 0.11828 -1
   vertex 1.31045 0.11828 1
   vertex 1.3148 0.113593 1
  endloop
 endfacet
 facet normal 0.732954 0.680279 0
  outer loop
   vertex 1.31045 0.11828 -1
   vertex 1.3148 0.113593 1
   vertex 1.3148 0.113593 -1
  endloop
 endfacet
 facet normal 0.753131 0.657871 -0
  outer loop
   vertex 1.3148 0.113593 -1
   vertex 1.3148 0.113593 1
   vertex 1.31901 0.108773 1
  endloop
 endfacet
 facet normal 0.753131 0.657871 0
  outer loop
   vertex 1.3148 0.113593 -1
   vertex 1.31901 0.108773 1
   vertex 1.31901 0.108773 -1
  endloop
 endfacet
 facet normal 0.773812 0.633416 -0
  outer loop
   vertex 1.31901 0.108773 -1
   vertex 1.31901 0.108773 1
   vertex 1.32306 0.103826 1
  endloop
 endfacet
 facet normal 0.773812 0.633416 0
  outer loop
   vertex 1.31901 0.108773 -1
   vertex 1.32306 0.103826 1
   vertex 1.32306 0.103826 -1
  endloop
 endfacet
 facet normal 0.792699 0.609613 -0
  outer loop
   vertex 1.32306 0.103826 -1
   vertex 1.32306 0.103826 1
   vertex 1.32696 0.0987544 1
  endloop
 endfacet
 facet normal 0.792699 0.609613 0
  outer loop
   vertex 1.32306 0.103826 -1
   vertex 1.32696 0.0987544 1
   vertex 1.32696 0.0987544 -1
  endloop
 endfacet
 facet normal 0.812007 0.583647 -0
  outer loop
   vertex 1.32696 0.0987544 -1
   vertex 1.32696 0.0987544 1
   vertex 1.33069 0.0935649 1
  endloop
 endfacet
 facet normal 0.812007 0.583647 0
  outer loop
   vertex 1.32696 0.0987544 -1
   vertex 1.33069 0.0935649 1
   vertex 1.33069 0.0935649 -1
  endloop
 endfacet
 facet normal 0.828821 0.559514 -0
  outer loop
   vertex 1.33069 0.0935649 -1
   vertex 1.33069 0.0935649 1
   vertex 1.33427 0.0882618 1
  endloop
 endfacet
 facet normal 0.828821 0.559514 0
  outer loop
   vertex 1.33069 0.0935649 -1
   vertex 1.33427 0.0882618 1
   vertex 1.33427 0.0882618 -1
  endloop
 endfacet
 facet normal 0.846741 0.532005 -0
  outer loop
   vertex 1.33427 0.0882618 -1
   vertex 1.33427 0.0882618 1
   vertex 1.33767 0.0828504 1
  endloop
 endfacet
 facet normal 0.846741 0.532005 0
  outer loop
   vertex 1.33427 0.0882618 -1
   vertex 1.33767 0.0828504 1
   vertex 1.33767 0.0828504 -1
  endloop
 endfacet
 facet normal 0.8622 0.506568 -0
  outer loop
   vertex 1.33767 0.0828504 -1
   vertex 1.33767 0.0828504 1
   vertex 1.34091 0.0773358 1
  endloop
 endfacet
 facet normal 0.8622 0.506568 0
  outer loop
   vertex 1.33767 0.0828504 -1
   vertex 1.34091 0.0773358 1
   vertex 1.34091 0.0773358 -1
  endloop
 endfacet
 facet normal 0.877325 0.479896 -0
  outer loop
   vertex 1.34091 0.0773358 -1
   vertex 1.34091 0.0773358 1
   vertex 1.34398 0.0717234 1
  endloop
 endfacet
 facet normal 0.877325 0.479896 0
  outer loop
   vertex 1.34091 0.0773358 -1
   vertex 1.34398 0.0717234 1
   vertex 1.34398 0.0717234 -1
  endloop
 endfacet
 facet normal 0.892065 0.451907 -0
  outer loop
   vertex 1.34398 0.0717234 -1
   vertex 1.34398 0.0717234 1
   vertex 1.34687 0.0660185 1
  endloop
 endfacet
 facet normal 0.892065 0.451907 0
  outer loop
   vertex 1.34398 0.0717234 -1
   vertex 1.34687 0.0660185 1
   vertex 1.34687 0.0660185 -1
  endloop
 endfacet
 facet normal 0.905748 0.423817 -0
  outer loop
   vertex 1.34687 0.0660185 -1
   vertex 1.34687 0.0660185 1
   vertex 1.34958 0.0602267 1
  endloop
 endfacet
 facet normal 0.905748 0.423817 0
  outer loop
   vertex 1.34687 0.0660185 -1
   vertex 1.34958 0.0602267 1
   vertex 1.34958 0.0602267 -1
  endloop
 endfacet
 facet normal 0.918411 0.395627 -0
  outer loop
   vertex 1.34958 0.0602267 -1
   vertex 1.34958 0.0602267 1
   vertex 1.35211 0.0543536 1
  endloop
 endfacet
 facet normal 0.918411 0.395627 0
  outer loop
   vertex 1.34958 0.0602267 -1
   vertex 1.35211 0.0543536 1
   vertex 1.35211 0.0543536 -1
  endloop
 endfacet
 facet normal 0.930061 0.367405 -0
  outer loop
   vertex 1.35211 0.0543536 -1
   vertex 1.35211 0.0543536 1
   vertex 1.35446 0.0484048 1
  endloop
 endfacet
 facet normal 0.930061 0.367405 0
  outer loop
   vertex 1.35211 0.0543536 -1
   vertex 1.35446 0.0484048 1
   vertex 1.35446 0.0484048 -1
  endloop
 endfacet
 facet normal 0.941227 0.337776 -0
  outer loop
   vertex 1.35446 0.0484048 -1
   vertex 1.35446 0.0484048 1
   vertex 1.35662 0.042386 1
  endloop
 endfacet
 facet normal 0.941227 0.337776 0
  outer loop
   vertex 1.35446 0.0484048 -1
   vertex 1.35662 0.042386 1
   vertex 1.35662 0.042386 -1
  endloop
 endfacet
 facet normal 0.951353 0.308102 -0
  outer loop
   vertex 1.35662 0.042386 -1
   vertex 1.35662 0.042386 1
   vertex 1.35859 0.0363029 1
  endloop
 endfacet
 facet normal 0.951353 0.308102 0
  outer loop
   vertex 1.35662 0.042386 -1
   vertex 1.35859 0.0363029 1
   vertex 1.35859 0.0363029 -1
  endloop
 endfacet
 facet normal 0.960467 0.278393 -0
  outer loop
   vertex 1.35859 0.0363029 -1
   vertex 1.35859 0.0363029 1
   vertex 1.36037 0.0301617 1
  endloop
 endfacet
 facet normal 0.960467 0.278393 0
  outer loop
   vertex 1.35859 0.0363029 -1
   vertex 1.36037 0.0301617 1
   vertex 1.36037 0.0301617 -1
  endloop
 endfacet
 facet normal 0.968592 0.248656 -0
  outer loop
   vertex 1.36037 0.0301617 -1
   vertex 1.36037 0.0301617 1
   vertex 1.36196 0.0239681 1
  endloop
 endfacet
 facet normal 0.968592 0.248656 0
  outer loop
   vertex 1.36037 0.0301617 -1
   vertex 1.36196 0.0239681 1
   vertex 1.36196 0.0239681 -1
  endloop
 endfacet
 facet normal 0.975744 0.218913 -0
  outer loop
   vertex 1.36196 0.0239681 -1
   vertex 1.36196 0.0239681 1
   vertex 1.36336 0.017728 1
  endloop
 endfacet
 facet normal 0.975744 0.218913 0
  outer loop
   vertex 1.36196 0.0239681 -1
   vertex 1.36336 0.017728 1
   vertex 1.36336 0.017728 -1
  endloop
 endfacet
 facet normal 0.981942 0.189183 -0
  outer loop
   vertex 1.36336 0.017728 -1
   vertex 1.36336 0.017728 1
   vertex 1.36457 0.0114477 1
  endloop
 endfacet
 facet normal 0.981942 0.189183 0
  outer loop
   vertex 1.36336 0.017728 -1
   vertex 1.36457 0.0114477 1
   vertex 1.36457 0.0114477 -1
  endloop
 endfacet
 facet normal 0.987451 0.157925 -0
  outer loop
   vertex 1.36457 0.0114477 -1
   vertex 1.36457 0.0114477 1
   vertex 1.36558 0.0051329 1
  endloop
 endfacet
 facet normal 0.987451 0.157925 0
  outer loop
   vertex 1.36457 0.0114477 -1
   vertex 1.36558 0.0051329 1
   vertex 1.36558 0.0051329 -1
  endloop
 endfacet
 facet normal 0.991945 0.126666 -0
  outer loop
   vertex 1.36558 0.0051329 -1
   vertex 1.36558 0.0051329 1
   vertex 1.36639 -0.0012106 1
  endloop
 endfacet
 facet normal 0.991945 0.126666 0
  outer loop
   vertex 1.36558 0.0051329 -1
   vertex 1.36639 -0.0012106 1
   vertex 1.36639 -0.0012106 -1
  endloop
 endfacet
 facet normal 0.99529 0.0969409 -0
  outer loop
   vertex 1.36639 -0.0012106 -1
   vertex 1.36639 -0.0012106 1
   vertex 1.36701 -0.0075762 1
  endloop
 endfacet
 facet normal 0.99529 0.0969409 0
  outer loop
   vertex 1.36639 -0.0012106 -1
   vertex 1.36701 -0.0075762 1
   vertex 1.36701 -0.0075762 -1
  endloop
 endfacet
 facet normal 0.997942 0.0641179 -0
  outer loop
   vertex 1.36701 -0.0075762 -1
   vertex 1.36701 -0.0075762 1
   vertex 1.36742 -0.0139569 1
  endloop
 endfacet
 facet normal 0.997942 0.0641179 0
  outer loop
   vertex 1.36701 -0.0075762 -1
   vertex 1.36742 -0.0139569 1
   vertex 1.36742 -0.0139569 -1
  endloop
 endfacet
 facet normal 0.999408 0.0344108 -0
  outer loop
   vertex 1.36742 -0.0139569 -1
   vertex 1.36742 -0.0139569 1
   vertex 1.36764 -0.0203482 1
  endloop
 endfacet
 facet normal 0.999408 0.0344108 0
  outer loop
   vertex 1.36742 -0.0139569 -1
   vertex 1.36764 -0.0203482 1
   vertex 1.36764 -0.0203482 -1
  endloop
 endfacet
 facet normal 0.999995 0.00313143 -0
  outer loop
   vertex 1.36764 -0.0203482 -1
   vertex 1.36764 -0.0203482 1
   vertex 1.36766 -0.0267437 1
  endloop
 endfacet
 facet normal 0.999995 0.00313143 0
  outer loop
   vertex 1.36764 -0.0203482 -1
   vertex 1.36766 -0.0267437 1
   vertex 1.36766 -0.0267437 -1
  endloop
 endfacet
 facet normal 0.999647 -0.0265856 0
  outer loop
   vertex 1.36766 -0.0267437 -1
   vertex 1.36766 -0.0267437 1
   vertex 1.36749 -0.0331356 1
  endloop
 endfacet
 facet normal 0.999647 -0.0265856 0
  outer loop
   vertex 1.36766 -0.0267437 -1
   vertex 1.36749 -0.0331356 1
   vertex 1.36749 -0.0331356 -1
  endloop
 endfacet
 facet normal 0.998233 -0.059421 0
  outer loop
   vertex 1.36749 -0.0331356 -1
   vertex 1.36749 -0.0331356 1
   vertex 1.36711 -0.03952 1
  endloop
 endfacet
 facet normal 0.998233 -0.059421 0
  outer loop
   vertex 1.36749 -0.0331356 -1
   vertex 1.36711 -0.03952 1
   vertex 1.36711 -0.03952 -1
  endloop
 endfacet
 facet normal 0.996018 -0.0891488 0
  outer loop
   vertex 1.36711 -0.03952 -1
   vertex 1.36711 -0.03952 1
   vertex 1.36654 -0.045889 1
  endloop
 endfacet
 facet normal 0.996018 -0.0891488 0
  outer loop
   vertex 1.36711 -0.03952 -1
   vertex 1.36654 -0.045889 1
   vertex 1.36654 -0.045889 -1
  endloop
 endfacet
 facet normal 0.992538 -0.121935 0
  outer loop
   vertex 1.36654 -0.045889 -1
   vertex 1.36654 -0.045889 1
   vertex 1.36576 -0.052238 1
  endloop
 endfacet
 facet normal 0.992538 -0.121935 0
  outer loop
   vertex 1.36654 -0.045889 -1
   vertex 1.36576 -0.052238 1
   vertex 1.36576 -0.052238 -1
  endloop
 endfacet
 facet normal -0.173472 -0.984839 -0
  outer loop
   vertex 1.35667 -0.058605 1
   vertex 1.35273 -0.057911 1
   vertex 1.35667 -0.058605 -1
  endloop
 endfacet
 facet normal -0.173472 -0.984839 0
  outer loop
   vertex 1.35667 -0.058605 -1
   vertex 1.35273 -0.057911 1
   vertex 1.35273 -0.057911 -1
  endloop
 endfacet
 facet normal -0.98732 0.15874 0
  outer loop
   vertex 1.35273 -0.057911 -1
   vertex 1.35273 -0.057911 1
   vertex 1.35372 -0.051754 -1
  endloop
 endfacet
 facet normal -0.98732 0.15874 0
  outer loop
   vertex 1.35372 -0.051754 -1
   vertex 1.35273 -0.057911 1
   vertex 1.35372 -0.051754 1
  endloop
 endfacet
 facet normal -0.992142 0.125117 0
  outer loop
   vertex 1.35372 -0.051754 -1
   vertex 1.35372 -0.051754 1
   vertex 1.3545 -0.045568 -1
  endloop
 endfacet
 facet normal -0.992142 0.125117 0
  outer loop
   vertex 1.3545 -0.045568 -1
   vertex 1.35372 -0.051754 1
   vertex 1.3545 -0.045568 1
  endloop
 endfacet
 facet normal -0.995513 0.0946221 0
  outer loop
   vertex 1.3545 -0.045568 -1
   vertex 1.3545 -0.045568 1
   vertex 1.35509 -0.039361 -1
  endloop
 endfacet
 facet normal -0.995513 0.0946221 0
  outer loop
   vertex 1.35509 -0.039361 -1
   vertex 1.3545 -0.045568 1
   vertex 1.35509 -0.039361 1
  endloop
 endfacet
 facet normal -0.998142 0.0609385 0
  outer loop
   vertex 1.35509 -0.039361 -1
   vertex 1.35509 -0.039361 1
   vertex 1.35547 -0.0331381 -1
  endloop
 endfacet
 facet normal -0.998142 0.0609385 0
  outer loop
   vertex 1.35547 -0.0331381 -1
   vertex 1.35509 -0.039361 1
   vertex 1.35547 -0.0331381 1
  endloop
 endfacet
 facet normal -0.999536 0.0304729 0
  outer loop
   vertex 1.35547 -0.0331381 -1
   vertex 1.35547 -0.0331381 1
   vertex 1.35566 -0.0269053 -1
  endloop
 endfacet
 facet normal -0.999536 0.0304729 0
  outer loop
   vertex 1.35566 -0.0269053 -1
   vertex 1.35547 -0.0331381 1
   vertex 1.35566 -0.0269053 1
  endloop
 endfacet
 facet normal -0.999999 -0.00160605 0
  outer loop
   vertex 1.35566 -0.0269053 -1
   vertex 1.35566 -0.0269053 1
   vertex 1.35565 -0.0206704 -1
  endloop
 endfacet
 facet normal -0.999999 -0.00160605 0
  outer loop
   vertex 1.35565 -0.0206704 -1
   vertex 1.35566 -0.0269053 1
   vertex 1.35565 -0.0206704 1
  endloop
 endfacet
 facet normal -0.999378 -0.0352748 0
  outer loop
   vertex 1.35565 -0.0206704 -1
   vertex 1.35565 -0.0206704 1
   vertex 1.35543 -0.0144392 -1
  endloop
 endfacet
 facet normal -0.999378 -0.0352748 0
  outer loop
   vertex 1.35543 -0.0144392 -1
   vertex 1.35565 -0.0206704 1
   vertex 1.35543 -0.0144392 1
  endloop
 endfacet
 facet normal -0.997836 -0.0657537 0
  outer loop
   vertex 1.35543 -0.0144392 -1
   vertex 1.35543 -0.0144392 1
   vertex 1.35502 -0.0082179 -1
  endloop
 endfacet
 facet normal -0.997836 -0.0657537 0
  outer loop
   vertex 1.35502 -0.0082179 -1
   vertex 1.35543 -0.0144392 1
   vertex 1.35502 -0.0082179 1
  endloop
 endfacet
 facet normal -0.995045 -0.0994272 0
  outer loop
   vertex 1.35502 -0.0082179 -1
   vertex 1.35502 -0.0082179 1
   vertex 1.3544 -0.002013 -1
  endloop
 endfacet
 facet normal -0.995045 -0.0994272 0
  outer loop
   vertex 1.3544 -0.002013 -1
   vertex 1.35502 -0.0082179 1
   vertex 1.3544 -0.002013 1
  endloop
 endfacet
 facet normal -0.991524 -0.129924 0
  outer loop
   vertex 1.3544 -0.002013 -1
   vertex 1.3544 -0.002013 1
   vertex 1.35359 0.0041688 -1
  endloop
 endfacet
 facet normal -0.991524 -0.129924 0
  outer loop
   vertex 1.35359 0.0041688 -1
   vertex 1.3544 -0.002013 1
   vertex 1.35359 0.0041688 1
  endloop
 endfacet
 facet normal -0.98679 -0.162007 0
  outer loop
   vertex 1.35359 0.0041688 -1
   vertex 1.35359 0.0041688 1
   vertex 1.35258 0.0103211 -1
  endloop
 endfacet
 facet normal -0.98679 -0.162007 0
  outer loop
   vertex 1.35258 0.0103211 -1
   vertex 1.35359 0.0041688 1
   vertex 1.35258 0.0103211 1
  endloop
 endfacet
 facet normal -0.980992 -0.194048 0
  outer loop
   vertex 1.35258 0.0103211 -1
   vertex 1.35258 0.0103211 1
   vertex 1.35137 0.016438 -1
  endloop
 endfacet
 facet normal -0.980992 -0.194048 0
  outer loop
   vertex 1.35137 0.016438 -1
   vertex 1.35258 0.0103211 1
   vertex 1.35137 0.016438 1
  endloop
 endfacet
 facet normal -0.974459 -0.224566 0
  outer loop
   vertex 1.35137 0.016438 -1
   vertex 1.35137 0.016438 1
   vertex 1.34997 0.022513 -1
  endloop
 endfacet
 facet normal -0.974459 -0.224566 0
  outer loop
   vertex 1.34997 0.022513 -1
   vertex 1.35137 0.016438 1
   vertex 1.34997 0.022513 1
  endloop
 endfacet
 facet normal -0.966515 -0.256609 0
  outer loop
   vertex 1.34997 0.022513 -1
   vertex 1.34997 0.022513 1
   vertex 1.34837 0.0285395 -1
  endloop
 endfacet
 facet normal -0.966515 -0.256609 0
  outer loop
   vertex 1.34837 0.0285395 -1
   vertex 1.34997 0.022513 1
   vertex 1.34837 0.0285395 1
  endloop
 endfacet
 facet normal -0.957903 -0.287093 0
  outer loop
   vertex 1.34837 0.0285395 -1
   vertex 1.34837 0.0285395 1
   vertex 1.34658 0.0345117 -1
  endloop
 endfacet
 facet normal -0.957903 -0.287093 0
  outer loop
   vertex 1.34658 0.0345117 -1
   vertex 1.34837 0.0285395 1
   vertex 1.34658 0.0345117 1
  endloop
 endfacet
 facet normal -0.947736 -0.319056 0
  outer loop
   vertex 1.34658 0.0345117 -1
   vertex 1.34658 0.0345117 1
   vertex 1.34459 0.0404231 -1
  endloop
 endfacet
 facet normal -0.947736 -0.319056 0
  outer loop
   vertex 1.34459 0.0404231 -1
   vertex 1.34658 0.0345117 1
   vertex 1.34459 0.0404231 1
  endloop
 endfacet
 facet normal -0.937475 -0.348051 0
  outer loop
   vertex 1.34459 0.0404231 -1
   vertex 1.34459 0.0404231 1
   vertex 1.34242 0.0462679 -1
  endloop
 endfacet
 facet normal -0.937475 -0.348051 0
  outer loop
   vertex 1.34242 0.0462679 -1
   vertex 1.34459 0.0404231 1
   vertex 1.34242 0.0462679 1
  endloop
 endfacet
 facet normal -0.926181 -0.377079 0
  outer loop
   vertex 1.34242 0.0462679 -1
   vertex 1.34242 0.0462679 1
   vertex 1.34007 0.0520399 -1
  endloop
 endfacet
 facet normal -0.926181 -0.377079 0
  outer loop
   vertex 1.34007 0.0520399 -1
   vertex 1.34242 0.0462679 1
   vertex 1.34007 0.0520399 1
  endloop
 endfacet
 facet normal -0.912636 -0.408774 0
  outer loop
   vertex 1.34007 0.0520399 -1
   vertex 1.34007 0.0520399 1
   vertex 1.33752 0.0577331 -1
  endloop
 endfacet
 facet normal -0.912636 -0.408774 0
  outer loop
   vertex 1.33752 0.0577331 -1
   vertex 1.34007 0.0520399 1
   vertex 1.33752 0.0577331 1
  endloop
 endfacet
 facet normal -0.899771 -0.436363 0
  outer loop
   vertex 1.33752 0.0577331 -1
   vertex 1.33752 0.0577331 1
   vertex 1.3348 0.0633417 -1
  endloop
 endfacet
 facet normal -0.899771 -0.436363 0
  outer loop
   vertex 1.3348 0.0633417 -1
   vertex 1.33752 0.0577331 1
   vertex 1.3348 0.0633417 1
  endloop
 endfacet
 facet normal -0.885202 -0.465206 0
  outer loop
   vertex 1.3348 0.0633417 -1
   vertex 1.3348 0.0633417 1
   vertex 1.3319 0.0688598 -1
  endloop
 endfacet
 facet normal -0.885202 -0.465206 0
  outer loop
   vertex 1.3319 0.0688598 -1
   vertex 1.3348 0.0633417 1
   vertex 1.3319 0.0688598 1
  endloop
 endfacet
 facet normal -0.869502 -0.49393 0
  outer loop
   vertex 1.3319 0.0688598 -1
   vertex 1.3319 0.0688598 1
   vertex 1.32882 0.0742818 -1
  endloop
 endfacet
 facet normal -0.869502 -0.49393 0
  outer loop
   vertex 1.32882 0.0742818 -1
   vertex 1.3319 0.0688598 1
   vertex 1.32882 0.0742818 1
  endloop
 endfacet
 facet normal -0.853378 -0.521293 0
  outer loop
   vertex 1.32882 0.0742818 -1
   vertex 1.32882 0.0742818 1
   vertex 1.32557 0.0796022 -1
  endloop
 endfacet
 facet normal -0.853378 -0.521293 0
  outer loop
   vertex 1.32557 0.0796022 -1
   vertex 1.32882 0.0742818 1
   vertex 1.32557 0.0796022 1
  endloop
 endfacet
 facet normal -0.836129 -0.548533 0
  outer loop
   vertex 1.32557 0.0796022 -1
   vertex 1.32557 0.0796022 1
   vertex 1.32215 0.0848153 -1
  endloop
 endfacet
 facet normal -0.836129 -0.548533 0
  outer loop
   vertex 1.32215 0.0848153 -1
   vertex 1.32557 0.0796022 1
   vertex 1.32215 0.0848153 1
  endloop
 endfacet
 facet normal -0.817755 -0.575566 0
  outer loop
   vertex 1.32215 0.0848153 -1
   vertex 1.32215 0.0848153 1
   vertex 1.31856 0.0899159 -1
  endloop
 endfacet
 facet normal -0.817755 -0.575566 0
  outer loop
   vertex 1.31856 0.0899159 -1
   vertex 1.32215 0.0848153 1
   vertex 1.31856 0.0899159 1
  endloop
 endfacet
 facet normal -0.798997 -0.601335 0
  outer loop
   vertex 1.31856 0.0899159 -1
   vertex 1.31856 0.0899159 1
   vertex 1.31481 0.0948985 -1
  endloop
 endfacet
 facet normal -0.798997 -0.601335 0
  outer loop
   vertex 1.31481 0.0948985 -1
   vertex 1.31856 0.0899159 1
   vertex 1.31481 0.0948985 1
  endloop
 endfacet
 facet normal -0.779912 -0.625889 0
  outer loop
   vertex 1.31481 0.0948985 -1
   vertex 1.31481 0.0948985 1
   vertex 1.31091 0.0997583 -1
  endloop
 endfacet
 facet normal -0.779912 -0.625889 0
  outer loop
   vertex 1.31091 0.0997583 -1
   vertex 1.31481 0.0948985 1
   vertex 1.31091 0.0997583 1
  endloop
 endfacet
 facet normal -0.75891 -0.651196 0
  outer loop
   vertex 1.31091 0.0997583 -1
   vertex 1.31091 0.0997583 1
   vertex 1.30685 0.10449 -1
  endloop
 endfacet
 facet normal -0.75891 -0.651196 0
  outer loop
   vertex 1.30685 0.10449 -1
   vertex 1.31091 0.0997583 1
   vertex 1.30685 0.10449 1
  endloop
 endfacet
 facet normal -0.7368 -0.676111 0
  outer loop
   vertex 1.30685 0.10449 -1
   vertex 1.30685 0.10449 1
   vertex 1.30263 0.109089 -1
  endloop
 endfacet
 facet normal -0.7368 -0.676111 0
  outer loop
   vertex 1.30263 0.109089 -1
   vertex 1.30685 0.10449 1
   vertex 1.30263 0.109089 1
  endloop
 endfacet
 facet normal -0.715962 -0.698139 0
  outer loop
   vertex 1.30263 0.109089 -1
   vertex 1.30263 0.109089 1
   vertex 1.29828 0.11355 -1
  endloop
 endfacet
 facet normal -0.715962 -0.698139 0
  outer loop
   vertex 1.29828 0.11355 -1
   vertex 1.30263 0.109089 1
   vertex 1.29828 0.11355 1
  endloop
 endfacet
 facet normal -0.692437 -0.721478 0
  outer loop
   vertex 1.29828 0.11355 -1
   vertex 1.29828 0.11355 1
   vertex 1.29378 0.117869 -1
  endloop
 endfacet
 facet normal -0.692437 -0.721478 0
  outer loop
   vertex 1.29378 0.117869 -1
   vertex 1.29828 0.11355 1
   vertex 1.29378 0.117869 1
  endloop
 endfacet
 facet normal -0.669428 -0.742877 0
  outer loop
   vertex 1.29378 0.117869 -1
   vertex 1.29378 0.117869 1
   vertex 1.28915 0.122041 -1
  endloop
 endfacet
 facet normal -0.669428 -0.742877 0
  outer loop
   vertex 1.28915 0.122041 -1
   vertex 1.29378 0.117869 1
   vertex 1.28915 0.122041 1
  endloop
 endfacet
 facet normal -0.644522 -0.764585 0
  outer loop
   vertex 1.28915 0.122041 -1
   vertex 1.28915 0.122041 1
   vertex 1.28438 0.126062 -1
  endloop
 endfacet
 facet normal -0.644522 -0.764585 0
  outer loop
   vertex 1.28438 0.126062 -1
   vertex 1.28915 0.122041 1
   vertex 1.28438 0.126062 1
  endloop
 endfacet
 facet normal -0.620178 -0.784461 0
  outer loop
   vertex 1.28438 0.126062 -1
   vertex 1.28438 0.126062 1
   vertex 1.27949 0.129928 -1
  endloop
 endfacet
 facet normal -0.620178 -0.784461 0
  outer loop
   vertex 1.27949 0.129928 -1
   vertex 1.28438 0.126062 1
   vertex 1.27949 0.129928 1
  endloop
 endfacet
 facet normal -0.594781 -0.803888 0
  outer loop
   vertex 1.27949 0.129928 -1
   vertex 1.27949 0.129928 1
   vertex 1.27448 0.133635 -1
  endloop
 endfacet
 facet normal -0.594781 -0.803888 0
  outer loop
   vertex 1.27448 0.133635 -1
   vertex 1.27949 0.129928 1
   vertex 1.27448 0.133635 1
  endloop
 endfacet
 facet normal -0.568365 -0.822777 0
  outer loop
   vertex 1.27448 0.133635 -1
   vertex 1.27448 0.133635 1
   vertex 1.26935 0.137178 -1
  endloop
 endfacet
 facet normal -0.568365 -0.822777 0
  outer loop
   vertex 1.26935 0.137178 -1
   vertex 1.27448 0.133635 1
   vertex 1.26935 0.137178 1
  endloop
 endfacet
 facet normal -0.541719 -0.840559 0
  outer loop
   vertex 1.26935 0.137178 -1
   vertex 1.26935 0.137178 1
   vertex 1.26411 0.140555 -1
  endloop
 endfacet
 facet normal -0.541719 -0.840559 0
  outer loop
   vertex 1.26411 0.140555 -1
   vertex 1.26935 0.137178 1
   vertex 1.26411 0.140555 1
  endloop
 endfacet
 facet normal -0.514142 -0.857705 0
  outer loop
   vertex 1.26411 0.140555 -1
   vertex 1.26411 0.140555 1
   vertex 1.25876 0.143762 -1
  endloop
 endfacet
 facet normal -0.514142 -0.857705 0
  outer loop
   vertex 1.25876 0.143762 -1
   vertex 1.26411 0.140555 1
   vertex 1.25876 0.143762 1
  endloop
 endfacet
 facet normal -0.486318 -0.873782 0
  outer loop
   vertex 1.25876 0.143762 -1
   vertex 1.25876 0.143762 1
   vertex 1.25331 0.146796 -1
  endloop
 endfacet
 facet normal -0.486318 -0.873782 0
  outer loop
   vertex 1.25331 0.146796 -1
   vertex 1.25876 0.143762 1
   vertex 1.25331 0.146796 1
  endloop
 endfacet
 facet normal -0.458345 -0.888775 0
  outer loop
   vertex 1.25331 0.146796 -1
   vertex 1.25331 0.146796 1
   vertex 1.24777 0.149653 -1
  endloop
 endfacet
 facet normal -0.458345 -0.888775 0
  outer loop
   vertex 1.24777 0.149653 -1
   vertex 1.25331 0.146796 1
   vertex 1.24777 0.149653 1
  endloop
 endfacet
 facet normal -0.429462 -0.903085 0
  outer loop
   vertex 1.24777 0.149653 -1
   vertex 1.24777 0.149653 1
   vertex 1.24214 0.15233 -1
  endloop
 endfacet
 facet normal -0.429462 -0.903085 0
  outer loop
   vertex 1.24214 0.15233 -1
   vertex 1.24777 0.149653 1
   vertex 1.24214 0.15233 1
  endloop
 endfacet
 facet normal -0.399808 -0.916599 0
  outer loop
   vertex 1.24214 0.15233 -1
   vertex 1.24214 0.15233 1
   vertex 1.23642 0.154825 -1
  endloop
 endfacet
 facet normal -0.399808 -0.916599 0
  outer loop
   vertex 1.23642 0.154825 -1
   vertex 1.24214 0.15233 1
   vertex 1.23642 0.154825 1
  endloop
 endfacet
 facet normal -0.370575 -0.928803 0
  outer loop
   vertex 1.23642 0.154825 -1
   vertex 1.23642 0.154825 1
   vertex 1.23063 0.157135 -1
  endloop
 endfacet
 facet normal -0.370575 -0.928803 0
  outer loop
   vertex 1.23063 0.157135 -1
   vertex 1.23642 0.154825 1
   vertex 1.23063 0.157135 1
  endloop
 endfacet
 facet normal -0.340603 -0.940207 0
  outer loop
   vertex 1.23063 0.157135 -1
   vertex 1.23063 0.157135 1
   vertex 1.22477 0.159258 -1
  endloop
 endfacet
 facet normal -0.340603 -0.940207 0
  outer loop
   vertex 1.22477 0.159258 -1
   vertex 1.23063 0.157135 1
   vertex 1.22477 0.159258 1
  endloop
 endfacet
 facet normal -0.309936 -0.950757 0
  outer loop
   vertex 1.22477 0.159258 -1
   vertex 1.22477 0.159258 1
   vertex 1.21884 0.161191 -1
  endloop
 endfacet
 facet normal -0.309936 -0.950757 0
  outer loop
   vertex 1.21884 0.161191 -1
   vertex 1.22477 0.159258 1
   vertex 1.21884 0.161191 1
  endloop
 endfacet
 facet normal -0.279708 -0.960085 0
  outer loop
   vertex 1.21884 0.161191 -1
   vertex 1.21884 0.161191 1
   vertex 1.21286 0.162933 -1
  endloop
 endfacet
 facet normal -0.279708 -0.960085 0
  outer loop
   vertex 1.21286 0.162933 -1
   vertex 1.21884 0.161191 1
   vertex 1.21286 0.162933 1
  endloop
 endfacet
 facet normal -0.248434 -0.968649 0
  outer loop
   vertex 1.21286 0.162933 -1
   vertex 1.21286 0.162933 1
   vertex 1.20682 0.164482 -1
  endloop
 endfacet
 facet normal -0.248434 -0.968649 0
  outer loop
   vertex 1.20682 0.164482 -1
   vertex 1.21286 0.162933 1
   vertex 1.20682 0.164482 1
  endloop
 endfacet
 facet normal -0.216955 -0.976182 0
  outer loop
   vertex 1.20682 0.164482 -1
   vertex 1.20682 0.164482 1
   vertex 1.20073 0.165836 -1
  endloop
 endfacet
 facet normal -0.216955 -0.976182 0
  outer loop
   vertex 1.20073 0.165836 -1
   vertex 1.20682 0.164482 1
   vertex 1.20073 0.165836 1
  endloop
 endfacet
 facet normal -0.185656 -0.982615 0
  outer loop
   vertex 1.20073 0.165836 -1
   vertex 1.20073 0.165836 1
   vertex 1.1946 0.166994 -1
  endloop
 endfacet
 facet normal -0.185656 -0.982615 0
  outer loop
   vertex 1.1946 0.166994 -1
   vertex 1.20073 0.165836 1
   vertex 1.1946 0.166994 1
  endloop
 endfacet
 facet normal -0.153829 -0.988098 0
  outer loop
   vertex 1.1946 0.166994 -1
   vertex 1.1946 0.166994 1
   vertex 1.18844 0.167953 -1
  endloop
 endfacet
 facet normal -0.153829 -0.988098 0
  outer loop
   vertex 1.18844 0.167953 -1
   vertex 1.1946 0.166994 1
   vertex 1.18844 0.167953 1
  endloop
 endfacet
 facet normal -0.122338 -0.992488 0
  outer loop
   vertex 1.18844 0.167953 -1
   vertex 1.18844 0.167953 1
   vertex 1.18225 0.168716 -1
  endloop
 endfacet
 facet normal -0.122338 -0.992488 0
  outer loop
   vertex 1.18225 0.168716 -1
   vertex 1.18844 0.167953 1
   vertex 1.18225 0.168716 1
  endloop
 endfacet
 facet normal -0.0902735 -0.995917 0
  outer loop
   vertex 1.18225 0.168716 -1
   vertex 1.18225 0.168716 1
   vertex 1.17605 0.169278 -1
  endloop
 endfacet
 facet normal -0.0902735 -0.995917 0
  outer loop
   vertex 1.17605 0.169278 -1
   vertex 1.18225 0.168716 1
   vertex 1.17605 0.169278 1
  endloop
 endfacet
 facet normal -0.0581678 -0.998307 0
  outer loop
   vertex 1.17605 0.169278 -1
   vertex 1.17605 0.169278 1
   vertex 1.16982 0.169641 -1
  endloop
 endfacet
 facet normal -0.0581678 -0.998307 0
  outer loop
   vertex 1.16982 0.169641 -1
   vertex 1.17605 0.169278 1
   vertex 1.16982 0.169641 1
  endloop
 endfacet
 facet normal -1 0 0
  outer loop
   vertex 1.16165 0.177812 1
   vertex 1.16165 0.181812 1
   vertex 1.16165 0.177812 -1
  endloop
 endfacet
 facet normal -1 0 0
  outer loop
   vertex 1.16165 0.177812 -1
   vertex 1.16165 0.181812 1
   vertex 1.16165 0.181812 -1
  endloop
 endfacet
 facet normal 0 0 -1
  outer loop
   vertex 1.16165 0.177812 -1
   vertex 1.16165 0.181812 -1
   vertex 1.16982 0.169641 -1
  endloop
 endfacet
 facet normal 0 0 -1
  outer loop
   vertex 1.16982 0.169641 -1
   vertex 1.16165 0.181812 -1
   vertex 1.16804 0.181713 -1
  endloop
 endfacet
 facet normal 0 0 -1
  outer loop
   vertex 1.16982 0.169641 -1
   vertex 1.16804 0.181713 -1
   vertex 1.17605 0.169278 -1
  endloop
 endfacet
 facet normal 0 0 -1
  outer loop
   vertex 1.17605 0.169278 -1
   vertex 1.16804 0.181713 -1
   vertex 1.17443 0.181416 -1
  endloop
 endfacet
 facet normal 0 0 -1
  outer loop
   vertex 1.17605 0.169278 -1
   vertex 1.17443 0.181416 -1
   vertex 1.18225 0.168716 -1
  endloop
 endfacet
 facet normal 0 0 -1
  outer loop
   vertex 1.18225 0.168716 -1
   vertex 1.17443 0.181416 -1
   vertex 1.18081 0.18092 -1
  endloop
 endfacet
 facet normal 0 0 -1
  outer loop
   vertex 1.18225 0.168716 -1
   vertex 1.18081 0.18092 -1
   vertex 1.18844 0.167953 -1
  endloop
 endfacet
 facet normal 0 0 -1
  outer loop
   vertex 1.18844 0.167953 -1
   vertex 1.18081 0.18092 -1
   vertex 1.18716 0.180226 -1
  endloop
 endfacet
 facet normal 0 0 -1
  outer loop
   vertex 1.18844 0.167953 -1
   vertex 1.18716 0.180226 -1
   vertex 1.1946 0.166994 -1
  endloop
 endfacet
 facet normal 0 0 -1
  outer loop
   vertex 1.35667 -0.058605 -1
   vertex 1.35273 -0.057911 -1
   vertex 1.36576 -0.052238 -1
  endloop
 endfacet
 facet normal -0 0 -1
  outer loop
   vertex 1.36576 -0.052238 -1
   vertex 1.35273 -0.057911 -1
   vertex 1.35372 -0.051754 -1
  endloop
 endfacet
 facet normal 0 0 -1
  outer loop
   vertex 1.36576 -0.052238 -1
   vertex 1.35372 -0.051754 -1
   vertex 1.36654 -0.045889 -1
  endloop
 endfacet
 facet normal -0 0 -1
  outer loop
   vertex 1.36654 -0.045889 -1
   vertex 1.35372 -0.051754 -1
   vertex 1.3545 -0.045568 -1
  endloop
 endfacet
 facet normal 0 0 -1
  outer loop
   vertex 1.36654 -0.045889 -1
   vertex 1.3545 -0.045568 -1
   vertex 1.36711 -0.03952 -1
  endloop
 endfacet
 facet normal -0 0 -1
  outer loop
   vertex 1.36711 -0.03952 -1
   vertex 1.3545 -0.045568 -1
   vertex 1.35509 -0.039361 -1
  endloop
 endfacet
 facet normal 0 0 -1
  outer loop
   vertex 1.36711 -0.03952 -1
   vertex 1.35509 -0.039361 -1
   vertex 1.36749 -0.0331356 -1
  endloop
 endfacet
 facet normal 0 0 -1
  outer loop
   vertex 1.36749 -0.0331356 -1
   vertex 1.35509 -0.039361 -1
   vertex 1.35547 -0.0331381 -1
  endloop
 endfacet
 facet normal -0 0 -1
  outer loop
   vertex 1.36749 -0.0331356 -1
   vertex 1.35547 -0.0331381 -1
   vertex 1.36766 -0.0267437 -1
  endloop
 endfacet
 facet normal 0 0 -1
  outer loop
   vertex 1.36766 -0.0267437 -1
   vertex 1.35547 -0.0331381 -1
   vertex 1.35566 -0.0269053 -1
  endloop
 endfacet
 facet normal -0 0 -1
  outer loop
   vertex 1.36766 -0.0267437 -1
   vertex 1.35566 -0.0269053 -1
   vertex 1.36764 -0.0203482 -1
  endloop
 endfacet
 facet normal 0 0 -1
  outer loop
   vertex 1.36764 -0.0203482 -1
   vertex 1.35566 -0.0269053 -1
   vertex 1.35565 -0.0206704 -1
  endloop
 endfacet
 facet normal -0 0 -1
  outer loop
   vertex 1.36764 -0.0203482 -1
   vertex 1.35565 -0.0206704 -1
   vertex 1.36742 -0.0139569 -1
  endloop
 endfacet
 facet normal 0 0 -1
  outer loop
   vertex 1.36742 -0.0139569 -1
   vertex 1.35565 -0.0206704 -1
   vertex 1.35543 -0.0144392 -1
  endloop
 endfacet
 facet normal -0 0 -1
  outer loop
   vertex 1.36742 -0.0139569 -1
   vertex 1.35543 -0.0144392 -1
   vertex 1.36701 -0.0075762 -1
  endloop
 endfacet
 facet normal 0 0 -1
  outer loop
   vertex 1.36701 -0.0075762 -1
   vertex 1.35543 -0.0144392 -1
   vertex 1.35502 -0.0082179 -1
  endloop
 endfacet
 facet normal -0 0 -1
  outer loop
   vertex 1.36701 -0.0075762 -1
   vertex 1.35502 -0.0082179 -1
   vertex 1.36639 -0.0012106 -1
  endloop
 endfacet
 facet normal 0 0 -1
  outer loop
   vertex 1.36639 -0.0012106 -1
   vertex 1.35502 -0.0082179 -1
   vertex 1.3544 -0.002013 -1
  endloop
 endfacet
 facet normal -0 0 -1
  outer loop
   vertex 1.36639 -0.0012106 -1
   vertex 1.3544 -0.002013 -1
   vertex 1.36558 0.0051329 -1
  endloop
 endfacet
 facet normal 0 0 -1
  outer loop
   vertex 1.36558 0.0051329 -1
   vertex 1.3544 -0.002013 -1
   vertex 1.35359 0.0041688 -1
  endloop
 endfacet
 facet normal -0 0 -1
  outer loop
   vertex 1.36558 0.0051329 -1
   vertex 1.35359 0.0041688 -1
   vertex 1.36457 0.0114477 -1
  endloop
 endfacet
 facet normal 0 0 -1
  outer loop
   vertex 1.36457 0.0114477 -1
   vertex 1.35359 0.0041688 -1
   vertex 1.35258 0.0103211 -1
  endloop
 endfacet
 facet normal -0 0 -1
  outer loop
   vertex 1.36457 0.0114477 -1
   vertex 1.35258 0.0103211 -1
   vertex 1.36336 0.017728 -1
  endloop
 endfacet
 facet normal 0 0 -1
  outer loop
   vertex 1.36336 0.017728 -1
   vertex 1.35258 0.0103211 -1
   vertex 1.35137 0.016438 -1
  endloop
 endfacet
 facet normal -0 0 -1
  outer loop
   vertex 1.36336 0.017728 -1
   vertex 1.35137 0.016438 -1
   vertex 1.36196 0.0239681 -1
  endloop
 endfacet
 facet normal 0 0 -1
  outer loop
   vertex 1.36196 0.0239681 -1
   vertex 1.35137 0.016438 -1
   vertex 1.34997 0.022513 -1
  endloop
 endfacet
 facet normal -0 0 -1
  outer loop
   vertex 1.36196 0.0239681 -1
   vertex 1.34997 0.022513 -1
   vertex 1.36037 0.0301617 -1
  endloop
 endfacet
 facet normal 0 0 -1
  outer loop
   vertex 1.36037 0.0301617 -1
   vertex 1.34997 0.022513 -1
   vertex 1.34837 0.0285395 -1
  endloop
 endfacet
 facet normal -0 0 -1
  outer loop
   vertex 1.36037 0.0301617 -1
   vertex 1.34837 0.0285395 -1
   vertex 1.35859 0.0363029 -1
  endloop
 endfacet
 facet normal 0 0 -1
  outer loop
   vertex 1.35859 0.0363029 -1
   vertex 1.34837 0.0285395 -1
   vertex 1.34658 0.0345117 -1
  endloop
 endfacet
 facet normal -0 0 -1
  outer loop
   vertex 1.35859 0.0363029 -1
   vertex 1.34658 0.0345117 -1
   vertex 1.35662 0.042386 -1
  endloop
 endfacet
 facet normal 0 0 -1
  outer loop
   vertex 1.35662 0.042386 -1
   vertex 1.34658 0.0345117 -1
   vertex 1.34459 0.0404231 -1
  endloop
 endfacet
 facet normal -0 0 -1
  outer loop
   vertex 1.35662 0.042386 -1
   vertex 1.34459 0.0404231 -1
   vertex 1.35446 0.0484048 -1
  endloop
 endfacet
 facet normal 0 0 -1
  outer loop
   vertex 1.35446 0.0484048 -1
   vertex 1.34459 0.0404231 -1
   vertex 1.34242 0.0462679 -1
  endloop
 endfacet
 facet normal -0 0 -1
  outer loop
   vertex 1.35446 0.0484048 -1
   vertex 1.34242 0.0462679 -1
   vertex 1.35211 0.0543536 -1
  endloop
 endfacet
 facet normal 0 0 -1
  outer loop
   vertex 1.35211 0.0543536 -1
   vertex 1.34242 0.0462679 -1
   vertex 1.34007 0.0520399 -1
  endloop
 endfacet
 facet normal -0 0 -1
  outer loop
   vertex 1.35211 0.0543536 -1
   vertex 1.34007 0.0520399 -1
   vertex 1.34958 0.0602267 -1
  endloop
 endfacet
 facet normal 0 0 -1
  outer loop
   vertex 1.34958 0.0602267 -1
   vertex 1.34007 0.0520399 -1
   vertex 1.33752 0.0577331 -1
  endloop
 endfacet
 facet normal -0 0 -1
  outer loop
   vertex 1.34958 0.0602267 -1
   vertex 1.33752 0.0577331 -1
   vertex 1.34687 0.0660185 -1
  endloop
 endfacet
 facet normal 0 0 -1
  outer loop
   vertex 1.34687 0.0660185 -1
   vertex 1.33752 0.0577331 -1
   vertex 1.3348 0.0633417 -1
  endloop
 endfacet
 facet normal -0 0 -1
  outer loop
   vertex 1.34687 0.0660185 -1
   vertex 1.3348 0.0633417 -1
   vertex 1.34398 0.0717234 -1
  endloop
 endfacet
 facet normal 0 0 -1
  outer loop
   vertex 1.34398 0.0717234 -1
   vertex 1.3348 0.0633417 -1
   vertex 1.3319 0.0688598 -1
  endloop
 endfacet
 facet normal 0 0 -1
  outer loop
   vertex 1.18716 0.180226 -1
   vertex 1.1935 0.179336 -1
   vertex 1.1946 0.166994 -1
  endloop
 endfacet
 facet normal 0 0 -1
  outer loop
   vertex 1.1946 0.166994 -1
   vertex 1.1935 0.179336 -1
   vertex 1.1998 0.17825 -1
  endloop
 endfacet
 facet normal 0 0 -1
  outer loop
   vertex 1.1946 0.166994 -1
   vertex 1.1998 0.17825 -1
   vertex 1.20073 0.165836 -1
  endloop
 endfacet
 facet normal 0 0 -1
  outer loop
   vertex 1.20073 0.165836 -1
   vertex 1.1998 0.17825 -1
   vertex 1.20606 0.176968 -1
  endloop
 endfacet
 facet normal 0 0 -1
  outer loop
   vertex 1.20073 0.165836 -1
   vertex 1.20606 0.176968 -1
   vertex 1.20682 0.164482 -1
  endloop
 endfacet
 facet normal 0 0 -1
  outer loop
   vertex 1.20682 0.164482 -1
   vertex 1.20606 0.176968 -1
   vertex 1.21229 0.175493 -1
  endloop
 endfacet
 facet normal 0 0 -1
  outer loop
   vertex 1.20682 0.164482 -1
   vertex 1.21229 0.175493 -1
   vertex 1.21286 0.162933 -1
  endloop
 endfacet
 facet normal 0 0 -1
  outer loop
   vertex 1.21286 0.162933 -1
   vertex 1.21229 0.175493 -1
   vertex 1.21846 0.173825 -1
  endloop
 endfacet
 facet normal 0 0 -1
  outer loop
   vertex 1.21286 0.162933 -1
   vertex 1.21846 0.173825 -1
   vertex 1.21884 0.161191 -1
  endloop
 endfacet
 facet normal 0 0 -1
  outer loop
   vertex 1.21884 0.161191 -1
   vertex 1.21846 0.173825 -1
   vertex 1.22458 0.171967 -1
  endloop
 endfacet
 facet normal 0 0 -1
  outer loop
   vertex 1.21884 0.161191 -1
   vertex 1.22458 0.171967 -1
   vertex 1.22477 0.159258 -1
  endloop
 endfacet
 facet normal 0 0 -1
  outer loop
   vertex 1.22477 0.159258 -1
   vertex 1.22458 0.171967 -1
   vertex 1.23064 0.169919 -1
  endloop
 endfacet
 facet normal 0 0 -1
  outer loop
   vertex 1.22477 0.159258 -1
   vertex 1.23064 0.169919 -1
   vertex 1.23063 0.157135 -1
  endloop
 endfacet
 facet normal 0 0 -1
  outer loop
   vertex 1.23063 0.157135 -1
   vertex 1.23064 0.169919 -1
   vertex 1.23663 0.167684 -1
  endloop
 endfacet
 facet normal 0 0 -1
  outer loop
   vertex 1.23063 0.157135 -1
   vertex 1.23663 0.167684 -1
   vertex 1.23642 0.154825 -1
  endloop
 endfacet
 facet normal 0 0 -1
  outer loop
   vertex 1.23642 0.154825 -1
   vertex 1.23663 0.167684 -1
   vertex 1.24255 0.165265 -1
  endloop
 endfacet
 facet normal 0 0 -1
  outer loop
   vertex 1.23642 0.154825 -1
   vertex 1.24255 0.165265 -1
   vertex 1.24214 0.15233 -1
  endloop
 endfacet
 facet normal 0 0 -1
  outer loop
   vertex 1.24214 0.15233 -1
   vertex 1.24255 0.165265 -1
   vertex 1.24839 0.162663 -1
  endloop
 endfacet
 facet normal 0 0 -1
  outer loop
   vertex 1.24214 0.15233 -1
   vertex 1.24839 0.162663 -1
   vertex 1.24777 0.149653 -1
  endloop
 endfacet
 facet normal 0 0 -1
  outer loop
   vertex 1.24777 0.149653 -1
   vertex 1.24839 0.162663 -1
   vertex 1.25415 0.159881 -1
  endloop
 endfacet
 facet normal 0 0 -1
  outer loop
   vertex 1.24777 0.149653 -1
   vertex 1.25415 0.159881 -1
   vertex 1.25331 0.146796 -1
  endloop
 endfacet
 facet normal 0 0 -1
  outer loop
   vertex 1.25331 0.146796 -1
   vertex 1.25415 0.159881 -1
   vertex 1.25982 0.156921 -1
  endloop
 endfacet
 facet normal 0 0 -1
  outer loop
   vertex 1.25331 0.146796 -1
   vertex 1.25982 0.156921 -1
   vertex 1.25876 0.143762 -1
  endloop
 endfacet
 facet normal 0 0 -1
  outer loop
   vertex 1.25876 0.143762 -1
   vertex 1.25982 0.156921 -1
   vertex 1.26539 0.153787 -1
  endloop
 endfacet
 facet normal 0 0 -1
  outer loop
   vertex 1.25876 0.143762 -1
   vertex 1.26539 0.153787 -1
   vertex 1.26411 0.140555 -1
  endloop
 endfacet
 facet normal 0 0 -1
  outer loop
   vertex 1.26411 0.140555 -1
   vertex 1.26539 0.153787 -1
   vertex 1.27087 0.150482 -1
  endloop
 endfacet
 facet normal 0 0 -1
  outer loop
   vertex 1.26411 0.140555 -1
   vertex 1.27087 0.150482 -1
   vertex 1.26935 0.137178 -1
  endloop
 endfacet
 facet normal 0 0 -1
  outer loop
   vertex 1.26935 0.137178 -1
   vertex 1.27087 0.150482 -1
   vertex 1.27624 0.147008 -1
  endloop
 endfacet
 facet normal 0 0 -1
  outer loop
   vertex 1.26935 0.137178 -1
   vertex 1.27624 0.147008 -1
   vertex 1.27448 0.133635 -1
  endloop
 endfacet
 facet normal 0 0 -1
  outer loop
   vertex 1.27448 0.133635 -1
   vertex 1.27624 0.147008 -1
   vertex 1.28149 0.143369 -1
  endloop
 endfacet
 facet normal 0 0 -1
  outer loop
   vertex 1.27448 0.133635 -1
   vertex 1.28149 0.143369 -1
   vertex 1.27949 0.129928 -1
  endloop
 endfacet
 facet normal 0 0 -1
  outer loop
   vertex 1.27949 0.129928 -1
   vertex 1.28149 0.143369 -1
   vertex 1.28664 0.139569 -1
  endloop
 endfacet
 facet normal 0 0 -1
  outer loop
   vertex 1.27949 0.129928 -1
   vertex 1.28664 0.139569 -1
   vertex 1.28438 0.126062 -1
  endloop
 endfacet
 facet normal 0 0 -1
  outer loop
   vertex 1.28438 0.126062 -1
   vertex 1.28664 0.139569 -1
   vertex 1.29166 0.135611 -1
  endloop
 endfacet
 facet normal 0 0 -1
  outer loop
   vertex 1.28438 0.126062 -1
   vertex 1.29166 0.135611 -1
   vertex 1.28915 0.122041 -1
  endloop
 endfacet
 facet normal 0 0 -1
  outer loop
   vertex 1.28915 0.122041 -1
   vertex 1.29166 0.135611 -1
   vertex 1.29656 0.131499 -1
  endloop
 endfacet
 facet normal 0 0 -1
  outer loop
   vertex 1.28915 0.122041 -1
   vertex 1.29656 0.131499 -1
   vertex 1.29378 0.117869 -1
  endloop
 endfacet
 facet normal 0 0 -1
  outer loop
   vertex 1.29378 0.117869 -1
   vertex 1.29656 0.131499 -1
   vertex 1.30133 0.127237 -1
  endloop
 endfacet
 facet normal 0 0 -1
  outer loop
   vertex 1.29378 0.117869 -1
   vertex 1.30133 0.127237 -1
   vertex 1.29828 0.11355 -1
  endloop
 endfacet
 facet normal 0 0 -1
  outer loop
   vertex 1.29828 0.11355 -1
   vertex 1.30133 0.127237 -1
   vertex 1.30596 0.122829 -1
  endloop
 endfacet
 facet normal 0 0 -1
  outer loop
   vertex 1.29828 0.11355 -1
   vertex 1.30596 0.122829 -1
   vertex 1.30263 0.109089 -1
  endloop
 endfacet
 facet normal 0 0 -1
  outer loop
   vertex 1.30263 0.109089 -1
   vertex 1.30596 0.122829 -1
   vertex 1.31045 0.11828 -1
  endloop
 endfacet
 facet normal 0 0 -1
  outer loop
   vertex 1.30263 0.109089 -1
   vertex 1.31045 0.11828 -1
   vertex 1.30685 0.10449 -1
  endloop
 endfacet
 facet normal 0 0 -1
  outer loop
   vertex 1.30685 0.10449 -1
   vertex 1.31045 0.11828 -1
   vertex 1.3148 0.113593 -1
  endloop
 endfacet
 facet normal 0 0 -1
  outer loop
   vertex 1.30685 0.10449 -1
   vertex 1.3148 0.113593 -1
   vertex 1.31091 0.0997583 -1
  endloop
 endfacet
 facet normal 0 0 -1
  outer loop
   vertex 1.31091 0.0997583 -1
   vertex 1.3148 0.113593 -1
   vertex 1.31901 0.108773 -1
  endloop
 endfacet
 facet normal 0 0 -1
  outer loop
   vertex 1.31091 0.0997583 -1
   vertex 1.31901 0.108773 -1
   vertex 1.31481 0.0948985 -1
  endloop
 endfacet
 facet normal 0 0 -1
  outer loop
   vertex 1.31481 0.0948985 -1
   vertex 1.31901 0.108773 -1
   vertex 1.32306 0.103826 -1
  endloop
 endfacet
 facet normal 0 0 -1
  outer loop
   vertex 1.31481 0.0948985 -1
   vertex 1.32306 0.103826 -1
   vertex 1.31856 0.0899159 -1
  endloop
 endfacet
 facet normal 0 0 -1
  outer loop
   vertex 1.31856 0.0899159 -1
   vertex 1.32306 0.103826 -1
   vertex 1.32696 0.0987544 -1
  endloop
 endfacet
 facet normal 0 0 -1
  outer loop
   vertex 1.31856 0.0899159 -1
   vertex 1.32696 0.0987544 -1
   vertex 1.32215 0.0848153 -1
  endloop
 endfacet
 facet normal 0 0 -1
  outer loop
   vertex 1.32215 0.0848153 -1
   vertex 1.32696 0.0987544 -1
   vertex 1.33069 0.0935649 -1
  endloop
 endfacet
 facet normal 0 0 -1
  outer loop
   vertex 1.32215 0.0848153 -1
   vertex 1.33069 0.0935649 -1
   vertex 1.32557 0.0796022 -1
  endloop
 endfacet
 facet normal 0 0 -1
  outer loop
   vertex 1.32557 0.0796022 -1
   vertex 1.33069 0.0935649 -1
   vertex 1.33427 0.0882618 -1
  endloop
 endfacet
 facet normal 0 0 -1
  outer loop
   vertex 1.32557 0.0796022 -1
   vertex 1.33427 0.0882618 -1
   vertex 1.32882 0.0742818 -1
  endloop
 endfacet
 facet normal 0 0 -1
  outer loop
   vertex 1.32882 0.0742818 -1
   vertex 1.33427 0.0882618 -1
   vertex 1.33767 0.0828504 -1
  endloop
 endfacet
 facet normal 0 0 -1
  outer loop
   vertex 1.32882 0.0742818 -1
   vertex 1.33767 0.0828504 -1
   vertex 1.3319 0.0688598 -1
  endloop
 endfacet
 facet normal 0 0 -1
  outer loop
   vertex 1.3319 0.0688598 -1
   vertex 1.33767 0.0828504 -1
   vertex 1.34091 0.0773358 -1
  endloop
 endfacet
 facet normal 0 0 -1
  outer loop
   vertex 1.3319 0.0688598 -1
   vertex 1.34091 0.0773358 -1
   vertex 1.34398 0.0717234 -1
  endloop
 endfacet
 facet normal 0 0 1
  outer loop
   vertex 1.16165 0.181812 1
   vertex 1.16165 0.177812 1
   vertex 1.16804 0.181713 1
  endloop
 endfacet
 facet normal 0 0 1
  outer loop
   vertex 1.16804 0.181713 1
   vertex 1.16165 0.177812 1
   vertex 1.16982 0.169641 1
  endloop
 endfacet
 facet normal 0 0 1
  outer loop
   vertex 1.16804 0.181713 1
   vertex 1.16982 0.169641 1
   vertex 1.17443 0.181416 1
  endloop
 endfacet
 facet normal 0 0 1
  outer loop
   vertex 1.17443 0.181416 1
   vertex 1.16982 0.169641 1
   vertex 1.17605 0.169278 1
  endloop
 endfacet
 facet normal 0 0 1
  outer loop
   vertex 1.17443 0.181416 1
   vertex 1.17605 0.169278 1
   vertex 1.18081 0.18092 1
  endloop
 endfacet
 facet normal 0 0 1
  outer loop
   vertex 1.18081 0.18092 1
   vertex 1.17605 0.169278 1
   vertex 1.18225 0.168716 1
  endloop
 endfacet
 facet normal 0 0 1
  outer loop
   vertex 1.18081 0.18092 1
   vertex 1.18225 0.168716 1
   vertex 1.18716 0.180226 1
  endloop
 endfacet
 facet normal 0 0 1
  outer loop
   vertex 1.18716 0.180226 1
   vertex 1.18225 0.168716 1
   vertex 1.18844 0.167953 1
  endloop
 endfacet
 facet normal 0 0 1
  outer loop
   vertex 1.18716 0.180226 1
   vertex 1.18844 0.167953 1
   vertex 1.1935 0.179336 1
  endloop
 endfacet
 facet normal 0 0 1
  outer loop
   vertex 1.1935 0.179336 1
   vertex 1.18844 0.167953 1
   vertex 1.1946 0.166994 1
  endloop
 endfacet
 facet normal 0 0 1
  outer loop
   vertex 1.1935 0.179336 1
   vertex 1.1946 0.166994 1
   vertex 1.1998 0.17825 1
  endloop
 endfacet
 facet normal 0 0 1
  outer loop
   vertex 1.1998 0.17825 1
   vertex 1.1946 0.166994 1
   vertex 1.20073 0.165836 1
  endloop
 endfacet
 facet normal -0 0 1
  outer loop
   vertex 1.35273 -0.057911 1
   vertex 1.35667 -0.058605 1
   vertex 1.35372 -0.051754 1
  endloop
 endfacet
 facet normal 0 0 1
  outer loop
   vertex 1.35372 -0.051754 1
   vertex 1.35667 -0.058605 1
   vertex 1.36576 -0.052238 1
  endloop
 endfacet
 facet normal -0 0 1
  outer loop
   vertex 1.35372 -0.051754 1
   vertex 1.36576 -0.052238 1
   vertex 1.3545 -0.045568 1
  endloop
 endfacet
 facet normal 0 0 1
  outer loop
   vertex 1.3545 -0.045568 1
   vertex 1.36576 -0.052238 1
   vertex 1.36654 -0.045889 1
  endloop
 endfacet
 facet normal -0 0 1
  outer loop
   vertex 1.3545 -0.045568 1
   vertex 1.36654 -0.045889 1
   vertex 1.35509 -0.039361 1
  endloop
 endfacet
 facet normal 0 0 1
  outer loop
   vertex 1.35509 -0.039361 1
   vertex 1.36654 -0.045889 1
   vertex 1.36711 -0.03952 1
  endloop
 endfacet
 facet normal -0 0 1
  outer loop
   vertex 1.35509 -0.039361 1
   vertex 1.36711 -0.03952 1
   vertex 1.35547 -0.0331381 1
  endloop
 endfacet
 facet normal -0 0 1
  outer loop
   vertex 1.35547 -0.0331381 1
   vertex 1.36711 -0.03952 1
   vertex 1.36749 -0.0331356 1
  endloop
 endfacet
 facet normal 0 0 1
  outer loop
   vertex 1.35547 -0.0331381 1
   vertex 1.36749 -0.0331356 1
   vertex 1.35566 -0.0269053 1
  endloop
 endfacet
 facet normal -0 0 1
  outer loop
   vertex 1.35566 -0.0269053 1
   vertex 1.36749 -0.0331356 1
   vertex 1.36766 -0.0267437 1
  endloop
 endfacet
 facet normal 0 -0 1
  outer loop
   vertex 1.35566 -0.0269053 1
   vertex 1.36766 -0.0267437 1
   vertex 1.35565 -0.0206704 1
  endloop
 endfacet
 facet normal -0 0 1
  outer loop
   vertex 1.35565 -0.0206704 1
   vertex 1.36766 -0.0267437 1
   vertex 1.36764 -0.0203482 1
  endloop
 endfacet
 facet normal 0 -0 1
  outer loop
   vertex 1.35565 -0.0206704 1
   vertex 1.36764 -0.0203482 1
   vertex 1.35543 -0.0144392 1
  endloop
 endfacet
 facet normal -0 0 1
  outer loop
   vertex 1.35543 -0.0144392 1
   vertex 1.36764 -0.0203482 1
   vertex 1.36742 -0.0139569 1
  endloop
 endfacet
 facet normal 0 -0 1
  outer loop
   vertex 1.35543 -0.0144392 1
   vertex 1.36742 -0.0139569 1
   vertex 1.35502 -0.0082179 1
  endloop
 endfacet
 facet normal -0 0 1
  outer loop
   vertex 1.35502 -0.0082179 1
   vertex 1.36742 -0.0139569 1
   vertex 1.36701 -0.0075762 1
  endloop
 endfacet
 facet normal 0 -0 1
  outer loop
   vertex 1.35502 -0.0082179 1
   vertex 1.36701 -0.0075762 1
   vertex 1.3544 -0.002013 1
  endloop
 endfacet
 facet normal -0 0 1
  outer loop
   vertex 1.3544 -0.002013 1
   vertex 1.36701 -0.0075762 1
   vertex 1.36639 -0.0012106 1
  endloop
 endfacet
 facet normal 0 -0 1
  outer loop
   vertex 1.3544 -0.002013 1
   vertex 1.36639 -0.0012106 1
   vertex 1.35359 0.0041688 1
  endloop
 endfacet
 facet normal -0 0 1
  outer loop
   vertex 1.35359 0.0041688 1
   vertex 1.36639 -0.0012106 1
   vertex 1.36558 0.0051329 1
  endloop
 endfacet
 facet normal 0 -0 1
  outer loop
   vertex 1.35359 0.0041688 1
   vertex 1.36558 0.0051329 1
   vertex 1.35258 0.0103211 1
  endloop
 endfacet
 facet normal -0 0 1
  outer loop
   vertex 1.35258 0.0103211 1
   vertex 1.36558 0.0051329 1
   vertex 1.36457 0.0114477 1
  endloop
 endfacet
 facet normal 0 -0 1
  outer loop
   vertex 1.35258 0.0103211 1
   vertex 1.36457 0.0114477 1
   vertex 1.35137 0.016438 1
  endloop
 endfacet
 facet normal -0 0 1
  outer loop
   vertex 1.35137 0.016438 1
   vertex 1.36457 0.0114477 1
   vertex 1.36336 0.017728 1
  endloop
 endfacet
 facet normal 0 -0 1
  outer loop
   vertex 1.35137 0.016438 1
   vertex 1.36336 0.017728 1
   vertex 1.34997 0.022513 1
  endloop
 endfacet
 facet normal -0 0 1
  outer loop
   vertex 1.34997 0.022513 1
   vertex 1.36336 0.017728 1
   vertex 1.36196 0.0239681 1
  endloop
 endfacet
 facet normal 0 -0 1
  outer loop
   vertex 1.34997 0.022513 1
   vertex 1.36196 0.0239681 1
   vertex 1.34837 0.0285395 1
  endloop
 endfacet
 facet normal -0 0 1
  outer loop
   vertex 1.34837 0.0285395 1
   vertex 1.36196 0.0239681 1
   vertex 1.36037 0.0301617 1
  endloop
 endfacet
 facet normal 0 -0 1
  outer loop
   vertex 1.34837 0.0285395 1
   vertex 1.36037 0.0301617 1
   vertex 1.34658 0.0345117 1
  endloop
 endfacet
 facet normal -0 0 1
  outer loop
   vertex 1.34658 0.0345117 1
   vertex 1.36037 0.0301617 1
   vertex 1.35859 0.0363029 1
  endloop
 endfacet
 facet normal 0 -0 1
  outer loop
   vertex 1.34658 0.0345117 1
   vertex 1.35859 0.0363029 1
   vertex 1.34459 0.0404231 1
  endloop
 endfacet
 facet normal -0 0 1
  outer loop
   vertex 1.34459 0.0404231 1
   vertex 1.35859 0.0363029 1
   vertex 1.35662 0.042386 1
  endloop
 endfacet
 facet normal 0 -0 1
  outer loop
   vertex 1.34459 0.0404231 1
   vertex 1.35662 0.042386 1
   vertex 1.34242 0.0462679 1
  endloop
 endfacet
 facet normal -0 0 1
  outer loop
   vertex 1.34242 0.0462679 1
   vertex 1.35662 0.042386 1
   vertex 1.35446 0.0484048 1
  endloop
 endfacet
 facet normal 0 -0 1
  outer loop
   vertex 1.34242 0.0462679 1
   vertex 1.35446 0.0484048 1
   vertex 1.34007 0.0520399 1
  endloop
 endfacet
 facet normal -0 0 1
  outer loop
   vertex 1.34007 0.0520399 1
   vertex 1.35446 0.0484048 1
   vertex 1.35211 0.0543536 1
  endloop
 endfacet
 facet normal 0 -0 1
  outer loop
   vertex 1.34007 0.0520399 1
   vertex 1.35211 0.0543536 1
   vertex 1.33752 0.0577331 1
  endloop
 endfacet
 facet normal -0 0 1
  outer loop
   vertex 1.33752 0.0577331 1
   vertex 1.35211 0.0543536 1
   vertex 1.34958 0.0602267 1
  endloop
 endfacet
 facet normal 0 -0 1
  outer loop
   vertex 1.33752 0.0577331 1
   vertex 1.34958 0.0602267 1
   vertex 1.3348 0.0633417 1
  endloop
 endfacet
 facet normal 0 0 1
  outer loop
   vertex 1.34958 0.0602267 1
   vertex 1.34687 0.0660185 1
   vertex 1.3348 0.0633417 1
  endloop
 endfacet
 facet normal 0 0 1
  outer loop
   vertex 1.3348 0.0633417 1
   vertex 1.34687 0.0660185 1
   vertex 1.34398 0.0717234 1
  endloop
 endfacet
 facet normal 0 -0 1
  outer loop
   vertex 1.3348 0.0633417 1
   vertex 1.34398 0.0717234 1
   vertex 1.3319 0.0688598 1
  endloop
 endfacet
 facet normal 0 0 1
  outer loop
   vertex 1.3319 0.0688598 1
   vertex 1.34398 0.0717234 1
   vertex 1.34091 0.0773358 1
  endloop
 endfacet
 facet normal 0 -0 1
  outer loop
   vertex 1.3319 0.0688598 1
   vertex 1.34091 0.0773358 1
   vertex 1.32882 0.0742818 1
  endloop
 endfacet
 facet normal 0 0 1
  outer loop
   vertex 1.32882 0.0742818 1
   vertex 1.34091 0.0773358 1
   vertex 1.33767 0.0828504 1
  endloop
 endfacet
 facet normal 0 -0 1
  outer loop
   vertex 1.32882 0.0742818 1
   vertex 1.33767 0.0828504 1
   vertex 1.32557 0.0796022 1
  endloop
 endfacet
 facet normal 0 0 1
  outer loop
   vertex 1.32557 0.0796022 1
   vertex 1.33767 0.0828504 1
   vertex 1.33427 0.0882618 1
  endloop
 endfacet
 facet normal 0 -0 1
  outer loop
   vertex 1.32557 0.0796022 1
   vertex 1.33427 0.0882618 1
   vertex 1.32215 0.0848153 1
  endloop
 endfacet
 facet normal 0 0 1
  outer loop
   vertex 1.32215 0.0848153 1
   vertex 1.33427 0.0882618 1
   vertex 1.33069 0.0935649 1
  endloop
 endfacet
 facet normal 0 -0 1
  outer loop
   vertex 1.32215 0.0848153 1
   vertex 1.33069 0.0935649 1
   vertex 1.31856 0.0899159 1
  endloop
 endfacet
 facet normal 0 0 1
  outer loop
   vertex 1.31856 0.0899159 1
   vertex 1.33069 0.0935649 1
   vertex 1.32696 0.0987544 1
  endloop
 endfacet
 facet normal 0 -0 1
  outer loop
   vertex 1.31856 0.0899159 1
   vertex 1.32696 0.0987544 1
   vertex 1.31481 0.0948985 1
  endloop
 endfacet
 facet normal 0 0 1
  outer loop
   vertex 1.31481 0.0948985 1
   vertex 1.32696 0.0987544 1
   vertex 1.32306 0.103826 1
  endloop
 endfacet
 facet normal 0 -0 1
  outer loop
   vertex 1.31481 0.0948985 1
   vertex 1.32306 0.103826 1
   vertex 1.31091 0.0997583 1
  endloop
 endfacet
 facet normal 0 0 1
  outer loop
   vertex 1.31091 0.0997583 1
   vertex 1.32306 0.103826 1
   vertex 1.31901 0.108773 1
  endloop
 endfacet
 facet normal 0 -0 1
  outer loop
   vertex 1.31091 0.0997583 1
   vertex 1.31901 0.108773 1
   vertex 1.30685 0.10449 1
  endloop
 endfacet
 facet normal 0 0 1
  outer loop
   vertex 1.30685 0.10449 1
   vertex 1.31901 0.108773 1
   vertex 1.3148 0.113593 1
  endloop
 endfacet
 facet normal 0 -0 1
  outer loop
   vertex 1.30685 0.10449 1
   vertex 1.3148 0.113593 1
   vertex 1.30263 0.109089 1
  endloop
 endfacet
 facet normal 0 0 1
  outer loop
   vertex 1.30263 0.109089 1
   vertex 1.3148 0.113593 1
   vertex 1.31045 0.11828 1
  endloop
 endfacet
 facet normal 0 -0 1
  outer loop
   vertex 1.30263 0.109089 1
   vertex 1.31045 0.11828 1
   vertex 1.29828 0.11355 1
  endloop
 endfacet
 facet normal 0 0 1
  outer loop
   vertex 1.29828 0.11355 1
   vertex 1.31045 0.11828 1
   vertex 1.30596 0.122829 1
  endloop
 endfacet
 facet normal 0 -0 1
  outer loop
   vertex 1.29828 0.11355 1
   vertex 1.30596 0.122829 1
   vertex 1.29378 0.117869 1
  endloop
 endfacet
 facet normal 0 0 1
  outer loop
   vertex 1.29378 0.117869 1
   vertex 1.30596 0.122829 1
   vertex 1.30133 0.127237 1
  endloop
 endfacet
 facet normal 0 -0 1
  outer loop
   vertex 1.29378 0.117869 1
   vertex 1.30133 0.127237 1
   vertex 1.28915 0.122041 1
  endloop
 endfacet
 facet normal 0 0 1
  outer loop
   vertex 1.28915 0.122041 1
   vertex 1.30133 0.127237 1
   vertex 1.29656 0.131499 1
  endloop
 endfacet
 facet normal 0 -0 1
  outer loop
   vertex 1.28915 0.122041 1
   vertex 1.29656 0.131499 1
   vertex 1.28438 0.126062 1
  endloop
 endfacet
 facet normal 0 0 1
  outer loop
   vertex 1.28438 0.126062 1
   vertex 1.29656 0.131499 1
   vertex 1.29166 0.135611 1
  endloop
 endfacet
 facet normal 0 -0 1
  outer loop
   vertex 1.28438 0.126062 1
   vertex 1.29166 0.135611 1
   vertex 1.27949 0.129928 1
  endloop
 endfacet
 facet normal 0 0 1
  outer loop
   vertex 1.27949 0.129928 1
   vertex 1.29166 0.135611 1
   vertex 1.28664 0.139569 1
  endloop
 endfacet
 facet normal 0 -0 1
  outer loop
   vertex 1.27949 0.129928 1
   vertex 1.28664 0.139569 1
   vertex 1.27448 0.133635 1
  endloop
 endfacet
 facet normal 0 0 1
  outer loop
   vertex 1.27448 0.133635 1
   vertex 1.28664 0.139569 1
   vertex 1.28149 0.143369 1
  endloop
 endfacet
 facet normal 0 -0 1
  outer loop
   vertex 1.27448 0.133635 1
   vertex 1.28149 0.143369 1
   vertex 1.26935 0.137178 1
  endloop
 endfacet
 facet normal 0 0 1
  outer loop
   vertex 1.26935 0.137178 1
   vertex 1.28149 0.143369 1
   vertex 1.27624 0.147008 1
  endloop
 endfacet
 facet normal 0 -0 1
  outer loop
   vertex 1.26935 0.137178 1
   vertex 1.27624 0.147008 1
   vertex 1.26411 0.140555 1
  endloop
 endfacet
 facet normal 0 0 1
  outer loop
   vertex 1.26411 0.140555 1
   vertex 1.27624 0.147008 1
   vertex 1.27087 0.150482 1
  endloop
 endfacet
 facet normal 0 -0 1
  outer loop
   vertex 1.26411 0.140555 1
   vertex 1.27087 0.150482 1
   vertex 1.25876 0.143762 1
  endloop
 endfacet
 facet normal 0 0 1
  outer loop
   vertex 1.25876 0.143762 1
   vertex 1.27087 0.150482 1
   vertex 1.26539 0.153787 1
  endloop
 endfacet
 facet normal 0 -0 1
  outer loop
   vertex 1.25876 0.143762 1
   vertex 1.26539 0.153787 1
   vertex 1.25331 0.146796 1
  endloop
 endfacet
 facet normal 0 0 1
  outer loop
   vertex 1.25331 0.146796 1
   vertex 1.26539 0.153787 1
   vertex 1.25982 0.156921 1
  endloop
 endfacet
 facet normal 0 -0 1
  outer loop
   vertex 1.25331 0.146796 1
   vertex 1.25982 0.156921 1
   vertex 1.24777 0.149653 1
  endloop
 endfacet
 facet normal 0 0 1
  outer loop
   vertex 1.24777 0.149653 1
   vertex 1.25982 0.156921 1
   vertex 1.25415 0.159881 1
  endloop
 endfacet
 facet normal 0 -0 1
  outer loop
   vertex 1.24777 0.149653 1
   vertex 1.25415 0.159881 1
   vertex 1.24214 0.15233 1
  endloop
 endfacet
 facet normal 0 0 1
  outer loop
   vertex 1.24214 0.15233 1
   vertex 1.25415 0.159881 1
   vertex 1.24839 0.162663 1
  endloop
 endfacet
 facet normal 0 -0 1
  outer loop
   vertex 1.24214 0.15233 1
   vertex 1.24839 0.162663 1
   vertex 1.23642 0.154825 1
  endloop
 endfacet
 facet normal 0 0 1
  outer loop
   vertex 1.23642 0.154825 1
   vertex 1.24839 0.162663 1
   vertex 1.24255 0.165265 1
  endloop
 endfacet
 facet normal 0 -0 1
  outer loop
   vertex 1.23642 0.154825 1
   vertex 1.24255 0.165265 1
   vertex 1.23063 0.157135 1
  endloop
 endfacet
 facet normal 0 0 1
  outer loop
   vertex 1.23063 0.157135 1
   vertex 1.24255 0.165265 1
   vertex 1.23663 0.167684 1
  endloop
 endfacet
 facet normal 0 -0 1
  outer loop
   vertex 1.23063 0.157135 1
   vertex 1.23663 0.167684 1
   vertex 1.22477 0.159258 1
  endloop
 endfacet
 facet normal 0 0 1
  outer loop
   vertex 1.22477 0.159258 1
   vertex 1.23663 0.167684 1
   vertex 1.23064 0.169919 1
  endloop
 endfacet
 facet normal 0 -0 1
  outer loop
   vertex 1.22477 0.159258 1
   vertex 1.23064 0.169919 1
   vertex 1.21884 0.161191 1
  endloop
 endfacet
 facet normal 0 0 1
  outer loop
   vertex 1.21884 0.161191 1
   vertex 1.23064 0.169919 1
   vertex 1.22458 0.171967 1
  endloop
 endfacet
 facet normal 0 -0 1
  outer loop
   vertex 1.21884 0.161191 1
   vertex 1.22458 0.171967 1
   vertex 1.21286 0.162933 1
  endloop
 endfacet
 facet normal 0 0 1
  outer loop
   vertex 1.21286 0.162933 1
   vertex 1.22458 0.171967 1
   vertex 1.21846 0.173825 1
  endloop
 endfacet
 facet normal 0 -0 1
  outer loop
   vertex 1.21286 0.162933 1
   vertex 1.21846 0.173825 1
   vertex 1.20682 0.164482 1
  endloop
 endfacet
 facet normal 0 0 1
  outer loop
   vertex 1.20682 0.164482 1
   vertex 1.21846 0.173825 1
   vertex 1.21229 0.175493 1
  endloop
 endfacet
 facet normal 0 -0 1
  outer loop
   vertex 1.20682 0.164482 1
   vertex 1.21229 0.175493 1
   vertex 1.20073 0.165836 1
  endloop
 endfacet
 facet normal 0 0 1
  outer loop
   vertex 1.20073 0.165836 1
   vertex 1.21229 0.175493 1
   vertex 1.20606 0.176968 1
  endloop
 endfacet
 facet normal 0 -0 1
  outer loop
   vertex 1.20073 0.165836 1
   vertex 1.20606 0.176968 1
   vertex 1.1998 0.17825 1
  endloop
 endfacet
 facet normal 0.573706 -0.819061 0
  outer loop
   vertex 1.36576 -0.052238 1
   vertex 1.35667 -0.058605 1
   vertex 1.36576 -0.052238 -1
  endloop
 endfacet
 facet normal 0.573706 -0.819061 0
  outer loop
   vertex 1.36576 -0.052238 -1
   vertex 1.35667 -0.058605 1
   vertex 1.35667 -0.058605 -1
  endloop
 endfacet
 facet normal -0.70715 -0.707064 -0
  outer loop
   vertex 1.16982 0.169641 1
   vertex 1.16165 0.177812 1
   vertex 1.16982 0.169641 -1
  endloop
 endfacet
 facet normal -0.70715 -0.707064 0
  outer loop
   vertex 1.16982 0.169641 -1
   vertex 1.16165 0.177812 1
   vertex 1.16165 0.177812 -1
  endloop
 endfacet
endsolid tunner_vane
