solid tunner_vane
 facet normal -0.00202342 0.999998 0
  outer loop
   vertex 0.0732242 0.0199903 -1
   vertex 0.0732242 0.0199903 1
   vertex 0.0737038 0.0199913 1
  endloop
 endfacet
 facet normal -0.00202342 0.999998 0
  outer loop
   vertex 0.0732242 0.0199903 -1
   vertex 0.0737038 0.0199913 1
   vertex 0.0737038 0.0199913 -1
  endloop
 endfacet
 facet normal 0.0291706 0.999574 -0
  outer loop
   vertex 0.0737038 0.0199913 -1
   vertex 0.0737038 0.0199913 1
   vertex 0.0741832 0.0199773 1
  endloop
 endfacet
 facet normal 0.0291706 0.999574 0
  outer loop
   vertex 0.0737038 0.0199913 -1
   vertex 0.0741832 0.0199773 1
   vertex 0.0741832 0.0199773 -1
  endloop
 endfacet
 facet normal 0.0601665 0.998188 -0
  outer loop
   vertex 0.0741832 0.0199773 -1
   vertex 0.0741832 0.0199773 1
   vertex 0.074662 0.0199484 1
  endloop
 endfacet
 facet normal 0.0601665 0.998188 0
  outer loop
   vertex 0.0741832 0.0199773 -1
   vertex 0.074662 0.0199484 1
   vertex 0.074662 0.0199484 -1
  endloop
 endfacet
 facet normal 0.0910367 0.995848 -0
  outer loop
   vertex 0.074662 0.0199484 -1
   vertex 0.074662 0.0199484 1
   vertex 0.0751397 0.0199047 1
  endloop
 endfacet
 facet normal 0.0910367 0.995848 0
  outer loop
   vertex 0.074662 0.0199484 -1
   vertex 0.0751397 0.0199047 1
   vertex 0.0751397 0.0199047 -1
  endloop
 endfacet
 facet normal 0.12186 0.992547 -0
  outer loop
   vertex 0.0751397 0.0199047 -1
   vertex 0.0751397 0.0199047 1
   vertex 0.0756157 0.0198463 1
  endloop
 endfacet
 facet normal 0.12186 0.992547 0
  outer loop
   vertex 0.0751397 0.0199047 -1
   vertex 0.0756157 0.0198463 1
   vertex 0.0756157 0.0198463 -1
  endloop
 endfacet
 facet normal 0.15268 0.988276 -0
  outer loop
   vertex 0.0756157 0.0198463 -1
   vertex 0.0756157 0.0198463 1
   vertex 0.0760897 0.0197731 1
  endloop
 endfacet
 facet normal 0.15268 0.988276 0
  outer loop
   vertex 0.0756157 0.0198463 -1
   vertex 0.0760897 0.0197731 1
   vertex 0.0760897 0.0197731 -1
  endloop
 endfacet
 facet normal 0.183271 0.983062 -0
  outer loop
   vertex 0.0760897 0.0197731 -1
   vertex 0.0760897 0.0197731 1
   vertex 0.0765612 0.0196852 1
  endloop
 endfacet
 facet normal 0.183271 0.983062 0
  outer loop
   vertex 0.0760897 0.0197731 -1
   vertex 0.0765612 0.0196852 1
   vertex 0.0765612 0.0196852 -1
  endloop
 endfacet
 facet normal 0.213727 0.976893 -0
  outer loop
   vertex 0.0765612 0.0196852 -1
   vertex 0.0765612 0.0196852 1
   vertex 0.0770297 0.0195827 1
  endloop
 endfacet
 facet normal 0.213727 0.976893 0
  outer loop
   vertex 0.0765612 0.0196852 -1
   vertex 0.0770297 0.0195827 1
   vertex 0.0770297 0.0195827 -1
  endloop
 endfacet
 facet normal 0.243851 0.969813 -0
  outer loop
   vertex 0.0770297 0.0195827 -1
   vertex 0.0770297 0.0195827 1
   vertex 0.0774949 0.0194657 1
  endloop
 endfacet
 facet normal 0.243851 0.969813 0
  outer loop
   vertex 0.0770297 0.0195827 -1
   vertex 0.0774949 0.0194657 1
   vertex 0.0774949 0.0194657 -1
  endloop
 endfacet
 facet normal 0.273943 0.961746 -0
  outer loop
   vertex 0.0774949 0.0194657 -1
   vertex 0.0774949 0.0194657 1
   vertex 0.0779561 0.0193343 1
  endloop
 endfacet
 facet normal 0.273943 0.961746 0
  outer loop
   vertex 0.0774949 0.0194657 -1
   vertex 0.0779561 0.0193343 1
   vertex 0.0779561 0.0193343 -1
  endloop
 endfacet
 facet normal 0.303587 0.952804 -0
  outer loop
   vertex 0.0779561 0.0193343 -1
   vertex 0.0779561 0.0193343 1
   vertex 0.0784131 0.0191887 1
  endloop
 endfacet
 facet normal 0.303587 0.952804 0
  outer loop
   vertex 0.0779561 0.0193343 -1
   vertex 0.0784131 0.0191887 1
   vertex 0.0784131 0.0191887 -1
  endloop
 endfacet
 facet normal 0.332994 0.942929 -0
  outer loop
   vertex 0.0784131 0.0191887 -1
   vertex 0.0784131 0.0191887 1
   vertex 0.0788654 0.019029 1
  endloop
 endfacet
 facet normal 0.332994 0.942929 0
  outer loop
   vertex 0.0784131 0.0191887 -1
   vertex 0.0788654 0.019029 1
   vertex 0.0788654 0.019029 -1
  endloop
 endfacet
 facet normal 0.362097 0.93214 -0
  outer loop
   vertex 0.0788654 0.019029 -1
   vertex 0.0788654 0.019029 1
   vertex 0.0793125 0.0188553 1
  endloop
 endfacet
 facet normal 0.362097 0.93214 0
  outer loop
   vertex 0.0788654 0.019029 -1
   vertex 0.0793125 0.0188553 1
   vertex 0.0793125 0.0188553 -1
  endloop
 endfacet
 facet normal 0.390941 0.920416 -0
  outer loop
   vertex 0.0793125 0.0188553 -1
   vertex 0.0793125 0.0188553 1
   vertex 0.0797539 0.0186678 1
  endloop
 endfacet
 facet normal 0.390941 0.920416 0
  outer loop
   vertex 0.0793125 0.0188553 -1
   vertex 0.0797539 0.0186678 1
   vertex 0.0797539 0.0186678 -1
  endloop
 endfacet
 facet normal 0.419195 0.907896 -0
  outer loop
   vertex 0.0797539 0.0186678 -1
   vertex 0.0797539 0.0186678 1
   vertex 0.0801894 0.0184668 1
  endloop
 endfacet
 facet normal 0.419195 0.907896 0
  outer loop
   vertex 0.0797539 0.0186678 -1
   vertex 0.0801894 0.0184668 1
   vertex 0.0801894 0.0184668 -1
  endloop
 endfacet
 facet normal 0.447314 0.894377 -0
  outer loop
   vertex 0.0801894 0.0184668 -1
   vertex 0.0801894 0.0184668 1
   vertex 0.0806183 0.0182522 1
  endloop
 endfacet
 facet normal 0.447314 0.894377 0
  outer loop
   vertex 0.0801894 0.0184668 -1
   vertex 0.0806183 0.0182522 1
   vertex 0.0806183 0.0182522 -1
  endloop
 endfacet
 facet normal 0.474715 0.88014 -0
  outer loop
   vertex 0.0806183 0.0182522 -1
   vertex 0.0806183 0.0182522 1
   vertex 0.0810405 0.0180245 1
  endloop
 endfacet
 facet normal 0.474715 0.88014 0
  outer loop
   vertex 0.0806183 0.0182522 -1
   vertex 0.0810405 0.0180245 1
   vertex 0.0810405 0.0180245 -1
  endloop
 endfacet
 facet normal 0.501902 0.864924 -0
  outer loop
   vertex 0.0810405 0.0180245 -1
   vertex 0.0810405 0.0180245 1
   vertex 0.0814553 0.0177838 1
  endloop
 endfacet
 facet normal 0.501902 0.864924 0
  outer loop
   vertex 0.0810405 0.0180245 -1
   vertex 0.0814553 0.0177838 1
   vertex 0.0814553 0.0177838 -1
  endloop
 endfacet
 facet normal 0.52845 0.848964 -0
  outer loop
   vertex 0.0814553 0.0177838 -1
   vertex 0.0814553 0.0177838 1
   vertex 0.0818625 0.0175303 1
  endloop
 endfacet
 facet normal 0.52845 0.848964 0
  outer loop
   vertex 0.0814553 0.0177838 -1
   vertex 0.0818625 0.0175303 1
   vertex 0.0818625 0.0175303 -1
  endloop
 endfacet
 facet normal 0.554577 0.832132 -0
  outer loop
   vertex 0.0818625 0.0175303 -1
   vertex 0.0818625 0.0175303 1
   vertex 0.0822616 0.0172644 1
  endloop
 endfacet
 facet normal 0.554577 0.832132 0
  outer loop
   vertex 0.0818625 0.0175303 -1
   vertex 0.0822616 0.0172644 1
   vertex 0.0822616 0.0172644 -1
  endloop
 endfacet
 facet normal 0.580075 0.814563 -0
  outer loop
   vertex 0.0822616 0.0172644 -1
   vertex 0.0822616 0.0172644 1
   vertex 0.0826523 0.0169861 1
  endloop
 endfacet
 facet normal 0.580075 0.814563 0
  outer loop
   vertex 0.0822616 0.0172644 -1
   vertex 0.0826523 0.0169861 1
   vertex 0.0826523 0.0169861 -1
  endloop
 endfacet
 facet normal 0.605181 0.796088 -0
  outer loop
   vertex 0.0826523 0.0169861 -1
   vertex 0.0826523 0.0169861 1
   vertex 0.0830341 0.0166959 1
  endloop
 endfacet
 facet normal 0.605181 0.796088 0
  outer loop
   vertex 0.0826523 0.0169861 -1
   vertex 0.0830341 0.0166959 1
   vertex 0.0830341 0.0166959 -1
  endloop
 endfacet
 facet normal 0.629475 0.777021 -0
  outer loop
   vertex 0.0830341 0.0166959 -1
   vertex 0.0830341 0.0166959 1
   vertex 0.0834068 0.016394 1
  endloop
 endfacet
 facet normal 0.629475 0.777021 0
  outer loop
   vertex 0.0830341 0.0166959 -1
   vertex 0.0834068 0.016394 1
   vertex 0.0834068 0.016394 -1
  endloop
 endfacet
 facet normal 0.653346 0.75706 -0
  outer loop
   vertex 0.0834068 0.016394 -1
   vertex 0.0834068 0.016394 1
   vertex 0.0837699 0.0160806 1
  endloop
 endfacet
 facet normal 0.653346 0.75706 0
  outer loop
   vertex 0.0834068 0.016394 -1
   vertex 0.0837699 0.0160806 1
   vertex 0.0837699 0.0160806 -1
  endloop
 endfacet
 facet normal 0.676538 0.736408 -0
  outer loop
   vertex 0.0837699 0.0160806 -1
   vertex 0.0837699 0.0160806 1
   vertex 0.0841231 0.0157561 1
  endloop
 endfacet
 facet normal 0.676538 0.736408 0
  outer loop
   vertex 0.0837699 0.0160806 -1
   vertex 0.0841231 0.0157561 1
   vertex 0.0841231 0.0157561 -1
  endloop
 endfacet
 facet normal 0.699011 0.715111 -0
  outer loop
   vertex 0.0841231 0.0157561 -1
   vertex 0.0841231 0.0157561 1
   vertex 0.0844661 0.0154208 1
  endloop
 endfacet
 facet normal 0.699011 0.715111 0
  outer loop
   vertex 0.0841231 0.0157561 -1
   vertex 0.0844661 0.0154208 1
   vertex 0.0844661 0.0154208 -1
  endloop
 endfacet
 facet normal 0.721008 0.692927 -0
  outer loop
   vertex 0.0844661 0.0154208 -1
   vertex 0.0844661 0.0154208 1
   vertex 0.0847984 0.0150751 1
  endloop
 endfacet
 facet normal 0.721008 0.692927 0
  outer loop
   vertex 0.0844661 0.0154208 -1
   vertex 0.0847984 0.0150751 1
   vertex 0.0847984 0.0150751 -1
  endloop
 endfacet
 facet normal 0.742078 0.670314 -0
  outer loop
   vertex 0.0847984 0.0150751 -1
   vertex 0.0847984 0.0150751 1
   vertex 0.0851199 0.0147192 1
  endloop
 endfacet
 facet normal 0.742078 0.670314 0
  outer loop
   vertex 0.0847984 0.0150751 -1
   vertex 0.0851199 0.0147192 1
   vertex 0.0851199 0.0147192 -1
  endloop
 endfacet
 facet normal 0.762523 0.646961 -0
  outer loop
   vertex 0.0851199 0.0147192 -1
   vertex 0.0851199 0.0147192 1
   vertex 0.0854302 0.0143534 1
  endloop
 endfacet
 facet normal 0.762523 0.646961 0
  outer loop
   vertex 0.0851199 0.0147192 -1
   vertex 0.0854302 0.0143534 1
   vertex 0.0854302 0.0143534 -1
  endloop
 endfacet
 facet normal 0.78222 0.623002 -0
  outer loop
   vertex 0.0854302 0.0143534 -1
   vertex 0.0854302 0.0143534 1
   vertex 0.085729 0.0139783 1
  endloop
 endfacet
 facet normal 0.78222 0.623002 0
  outer loop
   vertex 0.0854302 0.0143534 -1
   vertex 0.085729 0.0139783 1
   vertex 0.085729 0.0139783 -1
  endloop
 endfacet
 facet normal 0.801101 0.598529 -0
  outer loop
   vertex 0.085729 0.0139783 -1
   vertex 0.085729 0.0139783 1
   vertex 0.0860161 0.013594 1
  endloop
 endfacet
 facet normal 0.801101 0.598529 0
  outer loop
   vertex 0.085729 0.0139783 -1
   vertex 0.0860161 0.013594 1
   vertex 0.0860161 0.013594 -1
  endloop
 endfacet
 facet normal 0.819431 0.573178 -0
  outer loop
   vertex 0.0860161 0.013594 -1
   vertex 0.0860161 0.013594 1
   vertex 0.086291 0.013201 1
  endloop
 endfacet
 facet normal 0.819431 0.573178 0
  outer loop
   vertex 0.0860161 0.013594 -1
   vertex 0.086291 0.013201 1
   vertex 0.086291 0.013201 -1
  endloop
 endfacet
 facet normal 0.836783 0.547534 -0
  outer loop
   vertex 0.086291 0.013201 -1
   vertex 0.086291 0.013201 1
   vertex 0.0865536 0.0127997 1
  endloop
 endfacet
 facet normal 0.836783 0.547534 0
  outer loop
   vertex 0.086291 0.013201 -1
   vertex 0.0865536 0.0127997 1
   vertex 0.0865536 0.0127997 -1
  endloop
 endfacet
 facet normal 0.853308 0.521407 -0
  outer loop
   vertex 0.0865536 0.0127997 -1
   vertex 0.0865536 0.0127997 1
   vertex 0.0868037 0.0123904 1
  endloop
 endfacet
 facet normal 0.853308 0.521407 0
  outer loop
   vertex 0.0865536 0.0127997 -1
   vertex 0.0868037 0.0123904 1
   vertex 0.0868037 0.0123904 -1
  endloop
 endfacet
 facet normal 0.869137 0.494571 -0
  outer loop
   vertex 0.0868037 0.0123904 -1
   vertex 0.0868037 0.0123904 1
   vertex 0.0870409 0.0119735 1
  endloop
 endfacet
 facet normal 0.869137 0.494571 0
  outer loop
   vertex 0.0868037 0.0123904 -1
   vertex 0.0870409 0.0119735 1
   vertex 0.0870409 0.0119735 -1
  endloop
 endfacet
 facet normal 0.884031 0.467429 -0
  outer loop
   vertex 0.0870409 0.0119735 -1
   vertex 0.0870409 0.0119735 1
   vertex 0.0872651 0.0115495 1
  endloop
 endfacet
 facet normal 0.884031 0.467429 0
  outer loop
   vertex 0.0870409 0.0119735 -1
   vertex 0.0872651 0.0115495 1
   vertex 0.0872651 0.0115495 -1
  endloop
 endfacet
 facet normal 0.898215 0.439555 -0
  outer loop
   vertex 0.0872651 0.0115495 -1
   vertex 0.0872651 0.0115495 1
   vertex 0.0874759 0.0111187 1
  endloop
 endfacet
 facet normal 0.898215 0.439555 0
  outer loop
   vertex 0.0872651 0.0115495 -1
   vertex 0.0874759 0.0111187 1
   vertex 0.0874759 0.0111187 -1
  endloop
 endfacet
 facet normal 0.911295 0.411755 -0
  outer loop
   vertex 0.0874759 0.0111187 -1
   vertex 0.0874759 0.0111187 1
   vertex 0.0876734 0.0106816 1
  endloop
 endfacet
 facet normal 0.911295 0.411755 0
  outer loop
   vertex 0.0874759 0.0111187 -1
   vertex 0.0876734 0.0106816 1
   vertex 0.0876734 0.0106816 -1
  endloop
 endfacet
 facet normal 0.923741 0.383017 -0
  outer loop
   vertex 0.0876734 0.0106816 -1
   vertex 0.0876734 0.0106816 1
   vertex 0.0878571 0.0102386 1
  endloop
 endfacet
 facet normal 0.923741 0.383017 0
  outer loop
   vertex 0.0876734 0.0106816 -1
   vertex 0.0878571 0.0102386 1
   vertex 0.0878571 0.0102386 -1
  endloop
 endfacet
 facet normal 0.935084 0.354427 -0
  outer loop
   vertex 0.0878571 0.0102386 -1
   vertex 0.0878571 0.0102386 1
   vertex 0.0880271 0.0097901 1
  endloop
 endfacet
 facet normal 0.935084 0.354427 0
  outer loop
   vertex 0.0878571 0.0102386 -1
   vertex 0.0880271 0.0097901 1
   vertex 0.0880271 0.0097901 -1
  endloop
 endfacet
 facet normal 0.945694 0.325059 -0
  outer loop
   vertex 0.0880271 0.0097901 -1
   vertex 0.0880271 0.0097901 1
   vertex 0.088183 0.00933653 1
  endloop
 endfacet
 facet normal 0.945694 0.325059 0
  outer loop
   vertex 0.0880271 0.0097901 -1
   vertex 0.088183 0.00933653 1
   vertex 0.088183 0.00933653 -1
  endloop
 endfacet
 facet normal 0.9553 0.295637 -0
  outer loop
   vertex 0.088183 0.00933653 -1
   vertex 0.088183 0.00933653 1
   vertex 0.0883248 0.00887833 1
  endloop
 endfacet
 facet normal 0.9553 0.295637 0
  outer loop
   vertex 0.088183 0.00933653 -1
   vertex 0.0883248 0.00887833 1
   vertex 0.0883248 0.00887833 -1
  endloop
 endfacet
 facet normal 0.964073 0.265638 -0
  outer loop
   vertex 0.0883248 0.00887833 -1
   vertex 0.0883248 0.00887833 1
   vertex 0.0884522 0.00841597 1
  endloop
 endfacet
 facet normal 0.964073 0.265638 0
  outer loop
   vertex 0.0883248 0.00887833 -1
   vertex 0.0884522 0.00841597 1
   vertex 0.0884522 0.00841597 -1
  endloop
 endfacet
 facet normal 0.971801 0.235804 -0
  outer loop
   vertex 0.0884522 0.00841597 -1
   vertex 0.0884522 0.00841597 1
   vertex 0.0885653 0.00794986 1
  endloop
 endfacet
 facet normal 0.971801 0.235804 0
  outer loop
   vertex 0.0884522 0.00841597 -1
   vertex 0.0885653 0.00794986 1
   vertex 0.0885653 0.00794986 -1
  endloop
 endfacet
 facet normal 0.978641 0.205575 -0
  outer loop
   vertex 0.0885653 0.00794986 -1
   vertex 0.0885653 0.00794986 1
   vertex 0.0886639 0.00748047 1
  endloop
 endfacet
 facet normal 0.978641 0.205575 0
  outer loop
   vertex 0.0885653 0.00794986 -1
   vertex 0.0886639 0.00748047 1
   vertex 0.0886639 0.00748047 -1
  endloop
 endfacet
 facet normal 0.98458 0.174934 -0
  outer loop
   vertex 0.0886639 0.00748047 -1
   vertex 0.0886639 0.00748047 1
   vertex 0.0887478 0.00700825 1
  endloop
 endfacet
 facet normal 0.98458 0.174934 0
  outer loop
   vertex 0.0886639 0.00748047 -1
   vertex 0.0887478 0.00700825 1
   vertex 0.0887478 0.00700825 -1
  endloop
 endfacet
 facet normal 0.989536 0.144284 -0
  outer loop
   vertex 0.0887478 0.00700825 -1
   vertex 0.0887478 0.00700825 1
   vertex 0.088817 0.00653365 1
  endloop
 endfacet
 facet normal 0.989536 0.144284 0
  outer loop
   vertex 0.0887478 0.00700825 -1
   vertex 0.088817 0.00653365 1
   vertex 0.088817 0.00653365 -1
  endloop
 endfacet
 facet normal 0.993523 0.113634 -0
  outer loop
   vertex 0.088817 0.00653365 -1
   vertex 0.088817 0.00653365 1
   vertex 0.0888715 0.00605714 1
  endloop
 endfacet
 facet normal 0.993523 0.113634 0
  outer loop
   vertex 0.088817 0.00653365 -1
   vertex 0.0888715 0.00605714 1
   vertex 0.0888715 0.00605714 -1
  endloop
 endfacet
 facet normal 0.996569 0.082766 -0
  outer loop
   vertex 0.0888715 0.00605714 -1
   vertex 0.0888715 0.00605714 1
   vertex 0.0889112 0.00557916 1
  endloop
 endfacet
 facet normal 0.996569 0.082766 0
  outer loop
   vertex 0.0888715 0.00605714 -1
   vertex 0.0889112 0.00557916 1
   vertex 0.0889112 0.00557916 -1
  endloop
 endfacet
 facet normal 0.998662 0.0517126 -0
  outer loop
   vertex 0.0889112 0.00557916 -1
   vertex 0.0889112 0.00557916 1
   vertex 0.088936 0.00510017 1
  endloop
 endfacet
 facet normal 0.998662 0.0517126 0
  outer loop
   vertex 0.0889112 0.00557916 -1
   vertex 0.088936 0.00510017 1
   vertex 0.088936 0.00510017 -1
  endloop
 endfacet
 facet normal 0.999783 0.0208469 -0
  outer loop
   vertex 0.088936 0.00510017 -1
   vertex 0.088936 0.00510017 1
   vertex 0.088946 0.00462065 1
  endloop
 endfacet
 facet normal 0.999783 0.0208469 0
  outer loop
   vertex 0.088936 0.00510017 -1
   vertex 0.088946 0.00462065 1
   vertex 0.088946 0.00462065 -1
  endloop
 endfacet
 facet normal 0.999946 -0.0104234 0
  outer loop
   vertex 0.088946 0.00462065 -1
   vertex 0.088946 0.00462065 1
   vertex 0.088941 0.00414105 1
  endloop
 endfacet
 facet normal 0.999946 -0.0104234 0
  outer loop
   vertex 0.088946 0.00462065 -1
   vertex 0.088941 0.00414105 1
   vertex 0.088941 0.00414105 -1
  endloop
 endfacet
 facet normal 0.999147 -0.0412869 0
  outer loop
   vertex 0.088941 0.00414105 -1
   vertex 0.088941 0.00414105 1
   vertex 0.0889212 0.0036618 1
  endloop
 endfacet
 facet normal 0.999147 -0.0412869 0
  outer loop
   vertex 0.088941 0.00414105 -1
   vertex 0.0889212 0.0036618 1
   vertex 0.0889212 0.0036618 -1
  endloop
 endfacet
 facet normal 0.997379 -0.07235 0
  outer loop
   vertex 0.0889212 0.0036618 -1
   vertex 0.0889212 0.0036618 1
   vertex 0.0888865 0.00318348 1
  endloop
 endfacet
 facet normal 0.997379 -0.07235 0
  outer loop
   vertex 0.0889212 0.0036618 -1
   vertex 0.0888865 0.00318348 1
   vertex 0.0888865 0.00318348 -1
  endloop
 endfacet
 facet normal 0.99464 -0.103403 0
  outer loop
   vertex 0.0888865 0.00318348 -1
   vertex 0.0888865 0.00318348 1
   vertex 0.0888369 0.00270639 1
  endloop
 endfacet
 facet normal 0.99464 -0.103403 0
  outer loop
   vertex 0.0888865 0.00318348 -1
   vertex 0.0888369 0.00270639 1
   vertex 0.0888369 0.00270639 -1
  endloop
 endfacet
 facet normal -0.156403 -0.987693 -0
  outer loop
   vertex 0.0881633 0.00221698 1
   vertex 0.087867 0.0022639 1
   vertex 0.0881633 0.00221698 -1
  endloop
 endfacet
 facet normal -0.156403 -0.987693 0
  outer loop
   vertex 0.0881633 0.00221698 -1
   vertex 0.087867 0.0022639 1
   vertex 0.087867 0.0022639 -1
  endloop
 endfacet
 facet normal -0.990081 0.140494 0
  outer loop
   vertex 0.087867 0.0022639 -1
   vertex 0.087867 0.0022639 1
   vertex 0.0879327 0.00272689 -1
  endloop
 endfacet
 facet normal -0.990081 0.140494 0
  outer loop
   vertex 0.0879327 0.00272689 -1
   vertex 0.087867 0.0022639 1
   vertex 0.0879327 0.00272689 1
  endloop
 endfacet
 facet normal -0.994082 0.10863 0
  outer loop
   vertex 0.0879327 0.00272689 -1
   vertex 0.0879327 0.00272689 1
   vertex 0.0879835 0.00319175 -1
  endloop
 endfacet
 facet normal -0.994082 0.10863 0
  outer loop
   vertex 0.0879835 0.00319175 -1
   vertex 0.0879327 0.00272689 1
   vertex 0.0879835 0.00319175 1
  endloop
 endfacet
 facet normal -0.997048 0.0767743 0
  outer loop
   vertex 0.0879835 0.00319175 -1
   vertex 0.0879835 0.00319175 1
   vertex 0.0880194 0.00365803 -1
  endloop
 endfacet
 facet normal -0.997048 0.0767743 0
  outer loop
   vertex 0.0880194 0.00365803 -1
   vertex 0.0879835 0.00319175 1
   vertex 0.0880194 0.00365803 1
  endloop
 endfacet
 facet normal -0.99901 0.0444856 0
  outer loop
   vertex 0.0880194 0.00365803 -1
   vertex 0.0880194 0.00365803 1
   vertex 0.0880402 0.00412518 -1
  endloop
 endfacet
 facet normal -0.99901 0.0444856 0
  outer loop
   vertex 0.0880402 0.00412518 -1
   vertex 0.0880194 0.00365803 1
   vertex 0.0880402 0.00412518 1
  endloop
 endfacet
 facet normal -0.99992 0.0126187 0
  outer loop
   vertex 0.0880402 0.00412518 -1
   vertex 0.0880402 0.00412518 1
   vertex 0.0880461 0.00459277 -1
  endloop
 endfacet
 facet normal -0.99992 0.0126187 0
  outer loop
   vertex 0.0880461 0.00459277 -1
   vertex 0.0880402 0.00412518 1
   vertex 0.0880461 0.00459277 1
  endloop
 endfacet
 facet normal -0.999806 -0.0196768 0
  outer loop
   vertex 0.0880461 0.00459277 -1
   vertex 0.0880461 0.00459277 1
   vertex 0.0880369 0.00506031 -1
  endloop
 endfacet
 facet normal -0.999806 -0.0196768 0
  outer loop
   vertex 0.0880369 0.00506031 -1
   vertex 0.0880461 0.00459277 1
   vertex 0.0880369 0.00506031 1
  endloop
 endfacet
 facet normal -0.998649 -0.051971 0
  outer loop
   vertex 0.0880369 0.00506031 -1
   vertex 0.0880369 0.00506031 1
   vertex 0.0880126 0.00552732 -1
  endloop
 endfacet
 facet normal -0.998649 -0.051971 0
  outer loop
   vertex 0.0880126 0.00552732 -1
   vertex 0.0880369 0.00506031 1
   vertex 0.0880126 0.00552732 1
  endloop
 endfacet
 facet normal -0.996481 -0.0838223 0
  outer loop
   vertex 0.0880126 0.00552732 -1
   vertex 0.0880126 0.00552732 1
   vertex 0.0879734 0.0059933 -1
  endloop
 endfacet
 facet normal -0.996481 -0.0838223 0
  outer loop
   vertex 0.0879734 0.0059933 -1
   vertex 0.0880126 0.00552732 1
   vertex 0.0879734 0.0059933 1
  endloop
 endfacet
 facet normal -0.993285 -0.115689 0
  outer loop
   vertex 0.0879734 0.0059933 -1
   vertex 0.0879734 0.0059933 1
   vertex 0.0879193 0.00645778 -1
  endloop
 endfacet
 facet normal -0.993285 -0.115689 0
  outer loop
   vertex 0.0879193 0.00645778 -1
   vertex 0.0879734 0.0059933 1
   vertex 0.0879193 0.00645778 1
  endloop
 endfacet
 facet normal -0.989021 -0.147774 0
  outer loop
   vertex 0.0879193 0.00645778 -1
   vertex 0.0879193 0.00645778 1
   vertex 0.0878502 0.00692028 -1
  endloop
 endfacet
 facet normal -0.989021 -0.147774 0
  outer loop
   vertex 0.0878502 0.00692028 -1
   vertex 0.0879193 0.00645778 1
   vertex 0.0878502 0.00692028 1
  endloop
 endfacet
 facet normal -0.983773 -0.179418 0
  outer loop
   vertex 0.0878502 0.00692028 -1
   vertex 0.0878502 0.00692028 1
   vertex 0.0877663 0.00738032 -1
  endloop
 endfacet
 facet normal -0.983773 -0.179418 0
  outer loop
   vertex 0.0877663 0.00738032 -1
   vertex 0.0878502 0.00692028 1
   vertex 0.0877663 0.00738032 1
  endloop
 endfacet
 facet normal -0.977521 -0.210836 0
  outer loop
   vertex 0.0877663 0.00738032 -1
   vertex 0.0877663 0.00738032 1
   vertex 0.0876677 0.00783744 -1
  endloop
 endfacet
 facet normal -0.977521 -0.210836 0
  outer loop
   vertex 0.0876677 0.00783744 -1
   vertex 0.0877663 0.00738032 1
   vertex 0.0876677 0.00783744 1
  endloop
 endfacet
 facet normal -0.970255 -0.242086 0
  outer loop
   vertex 0.0876677 0.00783744 -1
   vertex 0.0876677 0.00783744 1
   vertex 0.0875545 0.00829115 -1
  endloop
 endfacet
 facet normal -0.970255 -0.242086 0
  outer loop
   vertex 0.0875545 0.00829115 -1
   vertex 0.0876677 0.00783744 1
   vertex 0.0875545 0.00829115 1
  endloop
 endfacet
 facet normal -0.961931 -0.273291 0
  outer loop
   vertex 0.0875545 0.00829115 -1
   vertex 0.0875545 0.00829115 1
   vertex 0.0874267 0.00874098 -1
  endloop
 endfacet
 facet normal -0.961931 -0.273291 0
  outer loop
   vertex 0.0874267 0.00874098 -1
   vertex 0.0875545 0.00829115 1
   vertex 0.0874267 0.00874098 1
  endloop
 endfacet
 facet normal -0.952711 -0.303878 0
  outer loop
   vertex 0.0874267 0.00874098 -1
   vertex 0.0874267 0.00874098 1
   vertex 0.0872846 0.00918648 -1
  endloop
 endfacet
 facet normal -0.952711 -0.303878 0
  outer loop
   vertex 0.0872846 0.00918648 -1
   vertex 0.0874267 0.00874098 1
   vertex 0.0872846 0.00918648 1
  endloop
 endfacet
 facet normal -0.942343 -0.334648 0
  outer loop
   vertex 0.0872846 0.00918648 -1
   vertex 0.0872846 0.00918648 1
   vertex 0.0871281 0.00962717 -1
  endloop
 endfacet
 facet normal -0.942343 -0.334648 0
  outer loop
   vertex 0.0871281 0.00962717 -1
   vertex 0.0872846 0.00918648 1
   vertex 0.0871281 0.00962717 1
  endloop
 endfacet
 facet normal -0.931236 -0.364416 0
  outer loop
   vertex 0.0871281 0.00962717 -1
   vertex 0.0871281 0.00962717 1
   vertex 0.0869577 0.0100626 -1
  endloop
 endfacet
 facet normal -0.931236 -0.364416 0
  outer loop
   vertex 0.0869577 0.0100626 -1
   vertex 0.0871281 0.00962717 1
   vertex 0.0869577 0.0100626 1
  endloop
 endfacet
 facet normal -0.918969 -0.39433 0
  outer loop
   vertex 0.0869577 0.0100626 -1
   vertex 0.0869577 0.0100626 1
   vertex 0.0867733 0.0104924 -1
  endloop
 endfacet
 facet normal -0.918969 -0.39433 0
  outer loop
   vertex 0.0867733 0.0104924 -1
   vertex 0.0869577 0.0100626 1
   vertex 0.0867733 0.0104924 1
  endloop
 endfacet
 facet normal -0.905843 -0.423613 0
  outer loop
   vertex 0.0867733 0.0104924 -1
   vertex 0.0867733 0.0104924 1
   vertex 0.0865752 0.010916 -1
  endloop
 endfacet
 facet normal -0.905843 -0.423613 0
  outer loop
   vertex 0.0865752 0.010916 -1
   vertex 0.0867733 0.0104924 1
   vertex 0.0865752 0.010916 1
  endloop
 endfacet
 facet normal -0.891764 -0.452501 0
  outer loop
   vertex 0.0865752 0.010916 -1
   vertex 0.0865752 0.010916 1
   vertex 0.0863636 0.011333 -1
  endloop
 endfacet
 facet normal -0.891764 -0.452501 0
  outer loop
   vertex 0.0863636 0.011333 -1
   vertex 0.0865752 0.010916 1
   vertex 0.0863636 0.011333 1
  endloop
 endfacet
 facet normal -0.876761 -0.480926 0
  outer loop
   vertex 0.0863636 0.011333 -1
   vertex 0.0863636 0.011333 1
   vertex 0.0861387 0.011743 -1
  endloop
 endfacet
 facet normal -0.876761 -0.480926 0
  outer loop
   vertex 0.0861387 0.011743 -1
   vertex 0.0863636 0.011333 1
   vertex 0.0861387 0.011743 1
  endloop
 endfacet
 facet normal -0.860902 -0.50877 0
  outer loop
   vertex 0.0861387 0.011743 -1
   vertex 0.0861387 0.011743 1
   vertex 0.0859008 0.0121455 -1
  endloop
 endfacet
 facet normal -0.860902 -0.50877 0
  outer loop
   vertex 0.0859008 0.0121455 -1
   vertex 0.0861387 0.011743 1
   vertex 0.0859008 0.0121455 1
  endloop
 endfacet
 facet normal -0.844024 -0.536306 0
  outer loop
   vertex 0.0859008 0.0121455 -1
   vertex 0.0859008 0.0121455 1
   vertex 0.08565 0.0125402 -1
  endloop
 endfacet
 facet normal -0.844024 -0.536306 0
  outer loop
   vertex 0.08565 0.0125402 -1
   vertex 0.0859008 0.0121455 1
   vertex 0.08565 0.0125402 1
  endloop
 endfacet
 facet normal -0.826419 -0.563056 0
  outer loop
   vertex 0.08565 0.0125402 -1
   vertex 0.08565 0.0125402 1
   vertex 0.0853867 0.0129267 -1
  endloop
 endfacet
 facet normal -0.826419 -0.563056 0
  outer loop
   vertex 0.0853867 0.0129267 -1
   vertex 0.08565 0.0125402 1
   vertex 0.0853867 0.0129267 1
  endloop
 endfacet
 facet normal -0.807873 -0.589357 0
  outer loop
   vertex 0.0853867 0.0129267 -1
   vertex 0.0853867 0.0129267 1
   vertex 0.0851111 0.0133045 -1
  endloop
 endfacet
 facet normal -0.807873 -0.589357 0
  outer loop
   vertex 0.0851111 0.0133045 -1
   vertex 0.0853867 0.0129267 1
   vertex 0.0851111 0.0133045 1
  endloop
 endfacet
 facet normal -0.78852 -0.615009 0
  outer loop
   vertex 0.0851111 0.0133045 -1
   vertex 0.0851111 0.0133045 1
   vertex 0.0848235 0.0136732 -1
  endloop
 endfacet
 facet normal -0.78852 -0.615009 0
  outer loop
   vertex 0.0848235 0.0136732 -1
   vertex 0.0851111 0.0133045 1
   vertex 0.0848235 0.0136732 1
  endloop
 endfacet
 facet normal -0.768347 -0.640034 0
  outer loop
   vertex 0.0848235 0.0136732 -1
   vertex 0.0848235 0.0136732 1
   vertex 0.0845242 0.0140325 -1
  endloop
 endfacet
 facet normal -0.768347 -0.640034 0
  outer loop
   vertex 0.0845242 0.0140325 -1
   vertex 0.0848235 0.0136732 1
   vertex 0.0845242 0.0140325 1
  endloop
 endfacet
 facet normal -0.747387 -0.664389 0
  outer loop
   vertex 0.0845242 0.0140325 -1
   vertex 0.0845242 0.0140325 1
   vertex 0.0842135 0.014382 -1
  endloop
 endfacet
 facet normal -0.747387 -0.664389 0
  outer loop
   vertex 0.0842135 0.014382 -1
   vertex 0.0845242 0.0140325 1
   vertex 0.0842135 0.014382 1
  endloop
 endfacet
 facet normal -0.725727 -0.687983 0
  outer loop
   vertex 0.0842135 0.014382 -1
   vertex 0.0842135 0.014382 1
   vertex 0.0838918 0.0147214 -1
  endloop
 endfacet
 facet normal -0.725727 -0.687983 0
  outer loop
   vertex 0.0838918 0.0147214 -1
   vertex 0.0842135 0.014382 1
   vertex 0.0838918 0.0147214 1
  endloop
 endfacet
 facet normal -0.703156 -0.711035 0
  outer loop
   vertex 0.0838918 0.0147214 -1
   vertex 0.0838918 0.0147214 1
   vertex 0.0835593 0.0150502 -1
  endloop
 endfacet
 facet normal -0.703156 -0.711035 0
  outer loop
   vertex 0.0835593 0.0150502 -1
   vertex 0.0838918 0.0147214 1
   vertex 0.0835593 0.0150502 1
  endloop
 endfacet
 facet normal -0.679963 -0.733247 0
  outer loop
   vertex 0.0835593 0.0150502 -1
   vertex 0.0835593 0.0150502 1
   vertex 0.0832164 0.0153682 -1
  endloop
 endfacet
 facet normal -0.679963 -0.733247 0
  outer loop
   vertex 0.0832164 0.0153682 -1
   vertex 0.0835593 0.0150502 1
   vertex 0.0832164 0.0153682 1
  endloop
 endfacet
 facet normal -0.656097 -0.754676 0
  outer loop
   vertex 0.0832164 0.0153682 -1
   vertex 0.0832164 0.0153682 1
   vertex 0.0828635 0.015675 -1
  endloop
 endfacet
 facet normal -0.656097 -0.754676 0
  outer loop
   vertex 0.0828635 0.015675 -1
   vertex 0.0832164 0.0153682 1
   vertex 0.0828635 0.015675 1
  endloop
 endfacet
 facet normal -0.631473 -0.775398 0
  outer loop
   vertex 0.0828635 0.015675 -1
   vertex 0.0828635 0.015675 1
   vertex 0.0825009 0.0159703 -1
  endloop
 endfacet
 facet normal -0.631473 -0.775398 0
  outer loop
   vertex 0.0825009 0.0159703 -1
   vertex 0.0828635 0.015675 1
   vertex 0.0825009 0.0159703 1
  endloop
 endfacet
 facet normal -0.606234 -0.795287 0
  outer loop
   vertex 0.0825009 0.0159703 -1
   vertex 0.0825009 0.0159703 1
   vertex 0.082129 0.0162538 -1
  endloop
 endfacet
 facet normal -0.606234 -0.795287 0
  outer loop
   vertex 0.082129 0.0162538 -1
   vertex 0.0825009 0.0159703 1
   vertex 0.082129 0.0162538 1
  endloop
 endfacet
 facet normal -0.580389 -0.814339 0
  outer loop
   vertex 0.082129 0.0162538 -1
   vertex 0.082129 0.0162538 1
   vertex 0.0817482 0.0165252 -1
  endloop
 endfacet
 facet normal -0.580389 -0.814339 0
  outer loop
   vertex 0.0817482 0.0165252 -1
   vertex 0.082129 0.0162538 1
   vertex 0.0817482 0.0165252 1
  endloop
 endfacet
 facet normal -0.553837 -0.832625 0
  outer loop
   vertex 0.0817482 0.0165252 -1
   vertex 0.0817482 0.0165252 1
   vertex 0.0813588 0.0167842 -1
  endloop
 endfacet
 facet normal -0.553837 -0.832625 0
  outer loop
   vertex 0.0813588 0.0167842 -1
   vertex 0.0817482 0.0165252 1
   vertex 0.0813588 0.0167842 1
  endloop
 endfacet
 facet normal -0.526944 -0.8499 0
  outer loop
   vertex 0.0813588 0.0167842 -1
   vertex 0.0813588 0.0167842 1
   vertex 0.0809614 0.0170306 -1
  endloop
 endfacet
 facet normal -0.526944 -0.8499 0
  outer loop
   vertex 0.0809614 0.0170306 -1
   vertex 0.0813588 0.0167842 1
   vertex 0.0809614 0.0170306 1
  endloop
 endfacet
 facet normal -0.499258 -0.866453 0
  outer loop
   vertex 0.0809614 0.0170306 -1
   vertex 0.0809614 0.0170306 1
   vertex 0.0805562 0.0172641 -1
  endloop
 endfacet
 facet normal -0.499258 -0.866453 0
  outer loop
   vertex 0.0805562 0.0172641 -1
   vertex 0.0809614 0.0170306 1
   vertex 0.0805562 0.0172641 1
  endloop
 endfacet
 facet normal -0.47117 -0.882043 0
  outer loop
   vertex 0.0805562 0.0172641 -1
   vertex 0.0805562 0.0172641 1
   vertex 0.0801437 0.0174844 -1
  endloop
 endfacet
 facet normal -0.47117 -0.882043 0
  outer loop
   vertex 0.0801437 0.0174844 -1
   vertex 0.0805562 0.0172641 1
   vertex 0.0801437 0.0174844 1
  endloop
 endfacet
 facet normal -0.442626 -0.896706 0
  outer loop
   vertex 0.0801437 0.0174844 -1
   vertex 0.0801437 0.0174844 1
   vertex 0.0797244 0.0176914 -1
  endloop
 endfacet
 facet normal -0.442626 -0.896706 0
  outer loop
   vertex 0.0797244 0.0176914 -1
   vertex 0.0801437 0.0174844 1
   vertex 0.0797244 0.0176914 1
  endloop
 endfacet
 facet normal -0.41364 -0.91044 0
  outer loop
   vertex 0.0797244 0.0176914 -1
   vertex 0.0797244 0.0176914 1
   vertex 0.0792987 0.0178848 -1
  endloop
 endfacet
 facet normal -0.41364 -0.91044 0
  outer loop
   vertex 0.0792987 0.0178848 -1
   vertex 0.0797244 0.0176914 1
   vertex 0.0792987 0.0178848 1
  endloop
 endfacet
 facet normal -0.384076 -0.923301 0
  outer loop
   vertex 0.0792987 0.0178848 -1
   vertex 0.0792987 0.0178848 1
   vertex 0.0788669 0.0180644 -1
  endloop
 endfacet
 facet normal -0.384076 -0.923301 0
  outer loop
   vertex 0.0788669 0.0180644 -1
   vertex 0.0792987 0.0178848 1
   vertex 0.0788669 0.0180644 1
  endloop
 endfacet
 facet normal -0.35424 -0.935155 0
  outer loop
   vertex 0.0788669 0.0180644 -1
   vertex 0.0788669 0.0180644 1
   vertex 0.0784296 0.0182301 -1
  endloop
 endfacet
 facet normal -0.35424 -0.935155 0
  outer loop
   vertex 0.0784296 0.0182301 -1
   vertex 0.0788669 0.0180644 1
   vertex 0.0784296 0.0182301 1
  endloop
 endfacet
 facet normal -0.324018 -0.946051 0
  outer loop
   vertex 0.0784296 0.0182301 -1
   vertex 0.0784296 0.0182301 1
   vertex 0.0779872 0.0183816 -1
  endloop
 endfacet
 facet normal -0.324018 -0.946051 0
  outer loop
   vertex 0.0779872 0.0183816 -1
   vertex 0.0784296 0.0182301 1
   vertex 0.0779872 0.0183816 1
  endloop
 endfacet
 facet normal -0.293461 -0.955971 0
  outer loop
   vertex 0.0779872 0.0183816 -1
   vertex 0.0779872 0.0183816 1
   vertex 0.0775402 0.0185188 -1
  endloop
 endfacet
 facet normal -0.293461 -0.955971 0
  outer loop
   vertex 0.0775402 0.0185188 -1
   vertex 0.0779872 0.0183816 1
   vertex 0.0775402 0.0185188 1
  endloop
 endfacet
 facet normal -0.262558 -0.964916 0
  outer loop
   vertex 0.0775402 0.0185188 -1
   vertex 0.0775402 0.0185188 1
   vertex 0.0770889 0.0186416 -1
  endloop
 endfacet
 facet normal -0.262558 -0.964916 0
  outer loop
   vertex 0.0770889 0.0186416 -1
   vertex 0.0775402 0.0185188 1
   vertex 0.0770889 0.0186416 1
  endloop
 endfacet
 facet normal -0.231437 -0.97285 0
  outer loop
   vertex 0.0770889 0.0186416 -1
   vertex 0.0770889 0.0186416 1
   vertex 0.076634 0.0187498 -1
  endloop
 endfacet
 facet normal -0.231437 -0.97285 0
  outer loop
   vertex 0.076634 0.0187498 -1
   vertex 0.0770889 0.0186416 1
   vertex 0.076634 0.0187498 1
  endloop
 endfacet
 facet normal -0.200064 -0.979783 0
  outer loop
   vertex 0.076634 0.0187498 -1
   vertex 0.076634 0.0187498 1
   vertex 0.0761758 0.0188434 -1
  endloop
 endfacet
 facet normal -0.200064 -0.979783 0
  outer loop
   vertex 0.0761758 0.0188434 -1
   vertex 0.076634 0.0187498 1
   vertex 0.0761758 0.0188434 1
  endloop
 endfacet
 facet normal -0.168503 -0.985701 0
  outer loop
   vertex 0.0761758 0.0188434 -1
   vertex 0.0761758 0.0188434 1
   vertex 0.0757149 0.0189222 -1
  endloop
 endfacet
 facet normal -0.168503 -0.985701 0
  outer loop
   vertex 0.0757149 0.0189222 -1
   vertex 0.0761758 0.0188434 1
   vertex 0.0757149 0.0189222 1
  endloop
 endfacet
 facet normal -0.136694 -0.990613 0
  outer loop
   vertex 0.0757149 0.0189222 -1
   vertex 0.0757149 0.0189222 1
   vertex 0.0752516 0.0189861 -1
  endloop
 endfacet
 facet normal -0.136694 -0.990613 0
  outer loop
   vertex 0.0752516 0.0189861 -1
   vertex 0.0757149 0.0189222 1
   vertex 0.0752516 0.0189861 1
  endloop
 endfacet
 facet normal -0.104797 -0.994494 0
  outer loop
   vertex 0.0752516 0.0189861 -1
   vertex 0.0752516 0.0189861 1
   vertex 0.0747866 0.0190351 -1
  endloop
 endfacet
 facet normal -0.104797 -0.994494 0
  outer loop
   vertex 0.0747866 0.0190351 -1
   vertex 0.0752516 0.0189861 1
   vertex 0.0747866 0.0190351 1
  endloop
 endfacet
 facet normal -0.072853 -0.997343 0
  outer loop
   vertex 0.0747866 0.0190351 -1
   vertex 0.0747866 0.0190351 1
   vertex 0.0743202 0.0190692 -1
  endloop
 endfacet
 facet normal -0.072853 -0.997343 0
  outer loop
   vertex 0.0743202 0.0190692 -1
   vertex 0.0747866 0.0190351 1
   vertex 0.0743202 0.0190692 1
  endloop
 endfacet
 facet normal -0.040699 -0.999171 0
  outer loop
   vertex 0.0743202 0.0190692 -1
   vertex 0.0743202 0.0190692 1
   vertex 0.073853 0.0190882 -1
  endloop
 endfacet
 facet normal -0.040699 -0.999171 0
  outer loop
   vertex 0.073853 0.0190882 -1
   vertex 0.0743202 0.0190692 1
   vertex 0.073853 0.0190882 1
  endloop
 endfacet
 facet normal -0.999844 -0.0176581 -0
  outer loop
   vertex 0.0732295 0.0196903 1
   vertex 0.0732242 0.0199903 1
   vertex 0.0732295 0.0196903 -1
  endloop
 endfacet
 facet normal -0.999844 -0.0176581 0
  outer loop
   vertex 0.0732295 0.0196903 -1
   vertex 0.0732242 0.0199903 1
   vertex 0.0732242 0.0199903 -1
  endloop
 endfacet
 facet normal 0 0 -1
  outer loop
   vertex 0.0732295 0.0196903 -1
   vertex 0.0732242 0.0199903 -1
   vertex 0.073853 0.0190882 -1
  endloop
 endfacet
 facet normal 0 0 -1
  outer loop
   vertex 0.073853 0.0190882 -1
   vertex 0.0732242 0.0199903 -1
   vertex 0.0737038 0.0199913 -1
  endloop
 endfacet
 facet normal 0 0 -1
  outer loop
   vertex 0.073853 0.0190882 -1
   vertex 0.0737038 0.0199913 -1
   vertex 0.0743202 0.0190692 -1
  endloop
 endfacet
 facet normal 0 0 -1
  outer loop
   vertex 0.0743202 0.0190692 -1
   vertex 0.0737038 0.0199913 -1
   vertex 0.0741832 0.0199773 -1
  endloop
 endfacet
 facet normal 0 0 -1
  outer loop
   vertex 0.0743202 0.0190692 -1
   vertex 0.0741832 0.0199773 -1
   vertex 0.0747866 0.0190351 -1
  endloop
 endfacet
 facet normal 0 0 -1
  outer loop
   vertex 0.0747866 0.0190351 -1
   vertex 0.0741832 0.0199773 -1
   vertex 0.074662 0.0199484 -1
  endloop
 endfacet
 facet normal 0 0 -1
  outer loop
   vertex 0.0747866 0.0190351 -1
   vertex 0.074662 0.0199484 -1
   vertex 0.0752516 0.0189861 -1
  endloop
 endfacet
 facet normal 0 0 -1
  outer loop
   vertex 0.0752516 0.0189861 -1
   vertex 0.074662 0.0199484 -1
   vertex 0.0751397 0.0199047 -1
  endloop
 endfacet
 facet normal 0 0 -1
  outer loop
   vertex 0.0752516 0.0189861 -1
   vertex 0.0751397 0.0199047 -1
   vertex 0.0757149 0.0189222 -1
  endloop
 endfacet
 facet normal 0 0 -1
  outer loop
   vertex 0.0881633 0.00221698 -1
   vertex 0.087867 0.0022639 -1
   vertex 0.0888369 0.00270639 -1
  endloop
 endfacet
 facet normal -0 0 -1
  outer loop
   vertex 0.0888369 0.00270639 -1
   vertex 0.087867 0.0022639 -1
   vertex 0.0879327 0.00272689 -1
  endloop
 endfacet
 facet normal 0 0 -1
  outer loop
   vertex 0.0888369 0.00270639 -1
   vertex 0.0879327 0.00272689 -1
   vertex 0.0888865 0.00318348 -1
  endloop
 endfacet
 facet normal -0 0 -1
  outer loop
   vertex 0.0888865 0.00318348 -1
   vertex 0.0879327 0.00272689 -1
   vertex 0.0879835 0.00319175 -1
  endloop
 endfacet
 facet normal 0 0 -1
  outer loop
   vertex 0.0888865 0.00318348 -1
   vertex 0.0879835 0.00319175 -1
   vertex 0.0889212 0.0036618 -1
  endloop
 endfacet
 facet normal 0 0 -1
  outer loop
   vertex 0.0889212 0.0036618 -1
   vertex 0.0879835 0.00319175 -1
   vertex 0.0880194 0.00365803 -1
  endloop
 endfacet
 facet normal -0 0 -1
  outer loop
   vertex 0.0889212 0.0036618 -1
   vertex 0.0880194 0.00365803 -1
   vertex 0.088941 0.00414105 -1
  endloop
 endfacet
 facet normal 0 0 -1
  outer loop
   vertex 0.088941 0.00414105 -1
   vertex 0.0880194 0.00365803 -1
   vertex 0.0880402 0.00412518 -1
  endloop
 endfacet
 facet normal -0 0 -1
  outer loop
   vertex 0.088941 0.00414105 -1
   vertex 0.0880402 0.00412518 -1
   vertex 0.088946 0.00462065 -1
  endloop
 endfacet
 facet normal 0 0 -1
  outer loop
   vertex 0.088946 0.00462065 -1
   vertex 0.0880402 0.00412518 -1
   vertex 0.0880461 0.00459277 -1
  endloop
 endfacet
 facet normal -0 0 -1
  outer loop
   vertex 0.088946 0.00462065 -1
   vertex 0.0880461 0.00459277 -1
   vertex 0.088936 0.00510017 -1
  endloop
 endfacet
 facet normal 0 0 -1
  outer loop
   vertex 0.088936 0.00510017 -1
   vertex 0.0880461 0.00459277 -1
   vertex 0.0880369 0.00506031 -1
  endloop
 endfacet
 facet normal -0 0 -1
  outer loop
   vertex 0.088936 0.00510017 -1
   vertex 0.0880369 0.00506031 -1
   vertex 0.0889112 0.00557916 -1
  endloop
 endfacet
 facet normal 0 0 -1
  outer loop
   vertex 0.0889112 0.00557916 -1
   vertex 0.0880369 0.00506031 -1
   vertex 0.0880126 0.00552732 -1
  endloop
 endfacet
 facet normal -0 0 -1
  outer loop
   vertex 0.0889112 0.00557916 -1
   vertex 0.0880126 0.00552732 -1
   vertex 0.0888715 0.00605714 -1
  endloop
 endfacet
 facet normal 0 0 -1
  outer loop
   vertex 0.0888715 0.00605714 -1
   vertex 0.0880126 0.00552732 -1
   vertex 0.0879734 0.0059933 -1
  endloop
 endfacet
 facet normal -0 0 -1
  outer loop
   vertex 0.0888715 0.00605714 -1
   vertex 0.0879734 0.0059933 -1
   vertex 0.088817 0.00653365 -1
  endloop
 endfacet
 facet normal 0 0 -1
  outer loop
   vertex 0.088817 0.00653365 -1
   vertex 0.0879734 0.0059933 -1
   vertex 0.0879193 0.00645778 -1
  endloop
 endfacet
 facet normal -0 0 -1
  outer loop
   vertex 0.088817 0.00653365 -1
   vertex 0.0879193 0.00645778 -1
   vertex 0.0887478 0.00700825 -1
  endloop
 endfacet
 facet normal 0 0 -1
  outer loop
   vertex 0.0887478 0.00700825 -1
   vertex 0.0879193 0.00645778 -1
   vertex 0.0878502 0.00692028 -1
  endloop
 endfacet
 facet normal -0 0 -1
  outer loop
   vertex 0.0887478 0.00700825 -1
   vertex 0.0878502 0.00692028 -1
   vertex 0.0886639 0.00748047 -1
  endloop
 endfacet
 facet normal 0 0 -1
  outer loop
   vertex 0.0886639 0.00748047 -1
   vertex 0.0878502 0.00692028 -1
   vertex 0.0877663 0.00738032 -1
  endloop
 endfacet
 facet normal -0 0 -1
  outer loop
   vertex 0.0886639 0.00748047 -1
   vertex 0.0877663 0.00738032 -1
   vertex 0.0885653 0.00794986 -1
  endloop
 endfacet
 facet normal 0 0 -1
  outer loop
   vertex 0.0885653 0.00794986 -1
   vertex 0.0877663 0.00738032 -1
   vertex 0.0876677 0.00783744 -1
  endloop
 endfacet
 facet normal -0 0 -1
  outer loop
   vertex 0.0885653 0.00794986 -1
   vertex 0.0876677 0.00783744 -1
   vertex 0.0884522 0.00841597 -1
  endloop
 endfacet
 facet normal 0 0 -1
  outer loop
   vertex 0.0884522 0.00841597 -1
   vertex 0.0876677 0.00783744 -1
   vertex 0.0875545 0.00829115 -1
  endloop
 endfacet
 facet normal -0 0 -1
  outer loop
   vertex 0.0884522 0.00841597 -1
   vertex 0.0875545 0.00829115 -1
   vertex 0.0883248 0.00887833 -1
  endloop
 endfacet
 facet normal 0 0 -1
  outer loop
   vertex 0.0883248 0.00887833 -1
   vertex 0.0875545 0.00829115 -1
   vertex 0.0874267 0.00874098 -1
  endloop
 endfacet
 facet normal -0 0 -1
  outer loop
   vertex 0.0883248 0.00887833 -1
   vertex 0.0874267 0.00874098 -1
   vertex 0.088183 0.00933653 -1
  endloop
 endfacet
 facet normal 0 0 -1
  outer loop
   vertex 0.088183 0.00933653 -1
   vertex 0.0874267 0.00874098 -1
   vertex 0.0872846 0.00918648 -1
  endloop
 endfacet
 facet normal -0 0 -1
  outer loop
   vertex 0.088183 0.00933653 -1
   vertex 0.0872846 0.00918648 -1
   vertex 0.0880271 0.0097901 -1
  endloop
 endfacet
 facet normal 0 0 -1
  outer loop
   vertex 0.0880271 0.0097901 -1
   vertex 0.0872846 0.00918648 -1
   vertex 0.0871281 0.00962717 -1
  endloop
 endfacet
 facet normal -0 0 -1
  outer loop
   vertex 0.0880271 0.0097901 -1
   vertex 0.0871281 0.00962717 -1
   vertex 0.0878571 0.0102386 -1
  endloop
 endfacet
 facet normal 0 0 -1
  outer loop
   vertex 0.0878571 0.0102386 -1
   vertex 0.0871281 0.00962717 -1
   vertex 0.0869577 0.0100626 -1
  endloop
 endfacet
 facet normal -0 0 -1
  outer loop
   vertex 0.0878571 0.0102386 -1
   vertex 0.0869577 0.0100626 -1
   vertex 0.0876734 0.0106816 -1
  endloop
 endfacet
 facet normal 0 0 -1
  outer loop
   vertex 0.0876734 0.0106816 -1
   vertex 0.0869577 0.0100626 -1
   vertex 0.0867733 0.0104924 -1
  endloop
 endfacet
 facet normal -0 0 -1
  outer loop
   vertex 0.0876734 0.0106816 -1
   vertex 0.0867733 0.0104924 -1
   vertex 0.0874759 0.0111187 -1
  endloop
 endfacet
 facet normal 0 0 -1
  outer loop
   vertex 0.0874759 0.0111187 -1
   vertex 0.0867733 0.0104924 -1
   vertex 0.0865752 0.010916 -1
  endloop
 endfacet
 facet normal -0 0 -1
  outer loop
   vertex 0.0874759 0.0111187 -1
   vertex 0.0865752 0.010916 -1
   vertex 0.0872651 0.0115495 -1
  endloop
 endfacet
 facet normal 0 0 -1
  outer loop
   vertex 0.0872651 0.0115495 -1
   vertex 0.0865752 0.010916 -1
   vertex 0.0863636 0.011333 -1
  endloop
 endfacet
 facet normal -0 0 -1
  outer loop
   vertex 0.0872651 0.0115495 -1
   vertex 0.0863636 0.011333 -1
   vertex 0.0870409 0.0119735 -1
  endloop
 endfacet
 facet normal 0 0 -1
  outer loop
   vertex 0.0870409 0.0119735 -1
   vertex 0.0863636 0.011333 -1
   vertex 0.0861387 0.011743 -1
  endloop
 endfacet
 facet normal 0 0 -1
  outer loop
   vertex 0.0751397 0.0199047 -1
   vertex 0.0756157 0.0198463 -1
   vertex 0.0757149 0.0189222 -1
  endloop
 endfacet
 facet normal 0 0 -1
  outer loop
   vertex 0.0757149 0.0189222 -1
   vertex 0.0756157 0.0198463 -1
   vertex 0.0760897 0.0197731 -1
  endloop
 endfacet
 facet normal 0 0 -1
  outer loop
   vertex 0.0757149 0.0189222 -1
   vertex 0.0760897 0.0197731 -1
   vertex 0.0761758 0.0188434 -1
  endloop
 endfacet
 facet normal 0 0 -1
  outer loop
   vertex 0.0761758 0.0188434 -1
   vertex 0.0760897 0.0197731 -1
   vertex 0.0765612 0.0196852 -1
  endloop
 endfacet
 facet normal 0 0 -1
  outer loop
   vertex 0.0761758 0.0188434 -1
   vertex 0.0765612 0.0196852 -1
   vertex 0.076634 0.0187498 -1
  endloop
 endfacet
 facet normal 0 0 -1
  outer loop
   vertex 0.076634 0.0187498 -1
   vertex 0.0765612 0.0196852 -1
   vertex 0.0770297 0.0195827 -1
  endloop
 endfacet
 facet normal 0 0 -1
  outer loop
   vertex 0.076634 0.0187498 -1
   vertex 0.0770297 0.0195827 -1
   vertex 0.0770889 0.0186416 -1
  endloop
 endfacet
 facet normal 0 0 -1
  outer loop
   vertex 0.0770889 0.0186416 -1
   vertex 0.0770297 0.0195827 -1
   vertex 0.0774949 0.0194657 -1
  endloop
 endfacet
 facet normal 0 0 -1
  outer loop
   vertex 0.0770889 0.0186416 -1
   vertex 0.0774949 0.0194657 -1
   vertex 0.0775402 0.0185188 -1
  endloop
 endfacet
 facet normal 0 0 -1
  outer loop
   vertex 0.0775402 0.0185188 -1
   vertex 0.0774949 0.0194657 -1
   vertex 0.0779561 0.0193343 -1
  endloop
 endfacet
 facet normal 0 0 -1
  outer loop
   vertex 0.0775402 0.0185188 -1
   vertex 0.0779561 0.0193343 -1
   vertex 0.0779872 0.0183816 -1
  endloop
 endfacet
 facet normal 0 0 -1
  outer loop
   vertex 0.0779872 0.0183816 -1
   vertex 0.0779561 0.0193343 -1
   vertex 0.0784131 0.0191887 -1
  endloop
 endfacet
 facet normal 0 0 -1
  outer loop
   vertex 0.0779872 0.0183816 -1
   vertex 0.0784131 0.0191887 -1
   vertex 0.0784296 0.0182301 -1
  endloop
 endfacet
 facet normal 0 0 -1
  outer loop
   vertex 0.0784296 0.0182301 -1
   vertex 0.0784131 0.0191887 -1
   vertex 0.0788654 0.019029 -1
  endloop
 endfacet
 facet normal 0 0 -1
  outer loop
   vertex 0.0784296 0.0182301 -1
   vertex 0.0788654 0.019029 -1
   vertex 0.0788669 0.0180644 -1
  endloop
 endfacet
 facet normal 0 0 -1
  outer loop
   vertex 0.0788669 0.0180644 -1
   vertex 0.0788654 0.019029 -1
   vertex 0.0793125 0.0188553 -1
  endloop
 endfacet
 facet normal 0 0 -1
  outer loop
   vertex 0.0788669 0.0180644 -1
   vertex 0.0793125 0.0188553 -1
   vertex 0.0792987 0.0178848 -1
  endloop
 endfacet
 facet normal 0 0 -1
  outer loop
   vertex 0.0792987 0.0178848 -1
   vertex 0.0793125 0.0188553 -1
   vertex 0.0797539 0.0186678 -1
  endloop
 endfacet
 facet normal 0 0 -1
  outer loop
   vertex 0.0792987 0.0178848 -1
   vertex 0.0797539 0.0186678 -1
   vertex 0.0797244 0.0176914 -1
  endloop
 endfacet
 facet normal 0 0 -1
  outer loop
   vertex 0.0797244 0.0176914 -1
   vertex 0.0797539 0.0186678 -1
   vertex 0.0801894 0.0184668 -1
  endloop
 endfacet
 facet normal 0 0 -1
  outer loop
   vertex 0.0797244 0.0176914 -1
   vertex 0.0801894 0.0184668 -1
   vertex 0.0801437 0.0174844 -1
  endloop
 endfacet
 facet normal 0 0 -1
  outer loop
   vertex 0.0801437 0.0174844 -1
   vertex 0.0801894 0.0184668 -1
   vertex 0.0806183 0.0182522 -1
  endloop
 endfacet
 facet normal 0 0 -1
  outer loop
   vertex 0.0801437 0.0174844 -1
   vertex 0.0806183 0.0182522 -1
   vertex 0.0805562 0.0172641 -1
  endloop
 endfacet
 facet normal 0 0 -1
  outer loop
   vertex 0.0805562 0.0172641 -1
   vertex 0.0806183 0.0182522 -1
   vertex 0.0810405 0.0180245 -1
  endloop
 endfacet
 facet normal 0 0 -1
  outer loop
   vertex 0.0805562 0.0172641 -1
   vertex 0.0810405 0.0180245 -1
   vertex 0.0809614 0.0170306 -1
  endloop
 endfacet
 facet normal 0 0 -1
  outer loop
   vertex 0.0809614 0.0170306 -1
   vertex 0.0810405 0.0180245 -1
   vertex 0.0814553 0.0177838 -1
  endloop
 endfacet
 facet normal 0 0 -1
  outer loop
   vertex 0.0809614 0.0170306 -1
   vertex 0.0814553 0.0177838 -1
   vertex 0.0813588 0.0167842 -1
  endloop
 endfacet
 facet normal 0 0 -1
  outer loop
   vertex 0.0813588 0.0167842 -1
   vertex 0.0814553 0.0177838 -1
   vertex 0.0818625 0.0175303 -1
  endloop
 endfacet
 facet normal 0 0 -1
  outer loop
   vertex 0.0813588 0.0167842 -1
   vertex 0.0818625 0.0175303 -1
   vertex 0.0817482 0.0165252 -1
  endloop
 endfacet
 facet normal 0 0 -1
  outer loop
   vertex 0.0817482 0.0165252 -1
   vertex 0.0818625 0.0175303 -1
   vertex 0.0822616 0.0172644 -1
  endloop
 endfacet
 facet normal 0 0 -1
  outer loop
   vertex 0.0817482 0.0165252 -1
   vertex 0.0822616 0.0172644 -1
   vertex 0.082129 0.0162538 -1
  endloop
 endfacet
 facet normal 0 0 -1
  outer loop
   vertex 0.082129 0.0162538 -1
   vertex 0.0822616 0.0172644 -1
   vertex 0.0826523 0.0169861 -1
  endloop
 endfacet
 facet normal 0 0 -1
  outer loop
   vertex 0.082129 0.0162538 -1
   vertex 0.0826523 0.0169861 -1
   vertex 0.0825009 0.0159703 -1
  endloop
 endfacet
 facet normal 0 0 -1
  outer loop
   vertex 0.0825009 0.0159703 -1
   vertex 0.0826523 0.0169861 -1
   vertex 0.0830341 0.0166959 -1
  endloop
 endfacet
 facet normal 0 0 -1
  outer loop
   vertex 0.0825009 0.0159703 -1
   vertex 0.0830341 0.0166959 -1
   vertex 0.0828635 0.015675 -1
  endloop
 endfacet
 facet normal 0 0 -1
  outer loop
   vertex 0.0828635 0.015675 -1
   vertex 0.0830341 0.0166959 -1
   vertex 0.0834068 0.016394 -1
  endloop
 endfacet
 facet normal 0 0 -1
  outer loop
   vertex 0.0828635 0.015675 -1
   vertex 0.0834068 0.016394 -1
   vertex 0.0832164 0.0153682 -1
  endloop
 endfacet
 facet normal 0 0 -1
  outer loop
   vertex 0.0832164 0.0153682 -1
   vertex 0.0834068 0.016394 -1
   vertex 0.0837699 0.0160806 -1
  endloop
 endfacet
 facet normal 0 0 -1
  outer loop
   vertex 0.0832164 0.0153682 -1
   vertex 0.0837699 0.0160806 -1
   vertex 0.0835593 0.0150502 -1
  endloop
 endfacet
 facet normal 0 0 -1
  outer loop
   vertex 0.0835593 0.0150502 -1
   vertex 0.0837699 0.0160806 -1
   vertex 0.0841231 0.0157561 -1
  endloop
 endfacet
 facet normal 0 0 -1
  outer loop
   vertex 0.0835593 0.0150502 -1
   vertex 0.0841231 0.0157561 -1
   vertex 0.0838918 0.0147214 -1
  endloop
 endfacet
 facet normal 0 0 -1
  outer loop
   vertex 0.0838918 0.0147214 -1
   vertex 0.0841231 0.0157561 -1
   vertex 0.0844661 0.0154208 -1
  endloop
 endfacet
 facet normal 0 0 -1
  outer loop
   vertex 0.0838918 0.0147214 -1
   vertex 0.0844661 0.0154208 -1
   vertex 0.0842135 0.014382 -1
  endloop
 endfacet
 facet normal 0 0 -1
  outer loop
   vertex 0.0842135 0.014382 -1
   vertex 0.0844661 0.0154208 -1
   vertex 0.0847984 0.0150751 -1
  endloop
 endfacet
 facet normal 0 0 -1
  outer loop
   vertex 0.0842135 0.014382 -1
   vertex 0.0847984 0.0150751 -1
   vertex 0.0845242 0.0140325 -1
  endloop
 endfacet
 facet normal 0 0 -1
  outer loop
   vertex 0.0845242 0.0140325 -1
   vertex 0.0847984 0.0150751 -1
   vertex 0.0851199 0.0147192 -1
  endloop
 endfacet
 facet normal 0 0 -1
  outer loop
   vertex 0.0845242 0.0140325 -1
   vertex 0.0851199 0.0147192 -1
   vertex 0.0848235 0.0136732 -1
  endloop
 endfacet
 facet normal 0 0 -1
  outer loop
   vertex 0.0848235 0.0136732 -1
   vertex 0.0851199 0.0147192 -1
   vertex 0.0854302 0.0143534 -1
  endloop
 endfacet
 facet normal 0 0 -1
  outer loop
   vertex 0.0848235 0.0136732 -1
   vertex 0.0854302 0.0143534 -1
   vertex 0.0851111 0.0133045 -1
  endloop
 endfacet
 facet normal 0 0 -1
  outer loop
   vertex 0.0851111 0.0133045 -1
   vertex 0.0854302 0.0143534 -1
   vertex 0.085729 0.0139783 -1
  endloop
 endfacet
 facet normal 0 0 -1
  outer loop
   vertex 0.0851111 0.0133045 -1
   vertex 0.085729 0.0139783 -1
   vertex 0.0853867 0.0129267 -1
  endloop
 endfacet
 facet normal 0 0 -1
  outer loop
   vertex 0.0853867 0.0129267 -1
   vertex 0.085729 0.0139783 -1
   vertex 0.0860161 0.013594 -1
  endloop
 endfacet
 facet normal 0 0 -1
  outer loop
   vertex 0.0853867 0.0129267 -1
   vertex 0.0860161 0.013594 -1
   vertex 0.08565 0.0125402 -1
  endloop
 endfacet
 facet normal 0 0 -1
  outer loop
   vertex 0.08565 0.0125402 -1
   vertex 0.0860161 0.013594 -1
   vertex 0.086291 0.013201 -1
  endloop
 endfacet
 facet normal 0 0 -1
  outer loop
   vertex 0.08565 0.0125402 -1
   vertex 0.086291 0.013201 -1
   vertex 0.0859008 0.0121455 -1
  endloop
 endfacet
 facet normal 0 0 -1
  outer loop
   vertex 0.0859008 0.0121455 -1
   vertex 0.086291 0.013201 -1
   vertex 0.0865536 0.0127997 -1
  endloop
 endfacet
 facet normal 0 0 -1
  outer loop
   vertex 0.0859008 0.0121455 -1
   vertex 0.0865536 0.0127997 -1
   vertex 0.0861387 0.011743 -1
  endloop
 endfacet
 facet normal 0 0 -1
  outer loop
   vertex 0.0861387 0.011743 -1
   vertex 0.0865536 0.0127997 -1
   vertex 0.0868037 0.0123904 -1
  endloop
 endfacet
 facet normal 0 0 -1
  outer loop
   vertex 0.0861387 0.011743 -1
   vertex 0.0868037 0.0123904 -1
   vertex 0.0870409 0.0119735 -1
  endloop
 endfacet
 facet normal -0 0 1
  outer loop
   vertex 0.0732242 0.0199903 1
   vertex 0.0732295 0.0196903 1
   vertex 0.0737038 0.0199913 1
  endloop
 endfacet
 facet normal 0 0 1
  outer loop
   vertex 0.0737038 0.0199913 1
   vertex 0.0732295 0.0196903 1
   vertex 0.073853 0.0190882 1
  endloop
 endfacet
 facet normal 0 0 1
  outer loop
   vertex 0.0737038 0.0199913 1
   vertex 0.073853 0.0190882 1
   vertex 0.0741832 0.0199773 1
  endloop
 endfacet
 facet normal 0 0 1
  outer loop
   vertex 0.0741832 0.0199773 1
   vertex 0.073853 0.0190882 1
   vertex 0.0743202 0.0190692 1
  endloop
 endfacet
 facet normal 0 0 1
  outer loop
   vertex 0.0741832 0.0199773 1
   vertex 0.0743202 0.0190692 1
   vertex 0.074662 0.0199484 1
  endloop
 endfacet
 facet normal 0 0 1
  outer loop
   vertex 0.074662 0.0199484 1
   vertex 0.0743202 0.0190692 1
   vertex 0.0747866 0.0190351 1
  endloop
 endfacet
 facet normal 0 0 1
  outer loop
   vertex 0.074662 0.0199484 1
   vertex 0.0747866 0.0190351 1
   vertex 0.0751397 0.0199047 1
  endloop
 endfacet
 facet normal 0 0 1
  outer loop
   vertex 0.0751397 0.0199047 1
   vertex 0.0747866 0.0190351 1
   vertex 0.0752516 0.0189861 1
  endloop
 endfacet
 facet normal 0 0 1
  outer loop
   vertex 0.0751397 0.0199047 1
   vertex 0.0752516 0.0189861 1
   vertex 0.0756157 0.0198463 1
  endloop
 endfacet
 facet normal 0 0 1
  outer loop
   vertex 0.0756157 0.0198463 1
   vertex 0.0752516 0.0189861 1
   vertex 0.0757149 0.0189222 1
  endloop
 endfacet
 facet normal 0 0 1
  outer loop
   vertex 0.0756157 0.0198463 1
   vertex 0.0757149 0.0189222 1
   vertex 0.0760897 0.0197731 1
  endloop
 endfacet
 facet normal 0 0 1
  outer loop
   vertex 0.0760897 0.0197731 1
   vertex 0.0757149 0.0189222 1
   vertex 0.0761758 0.0188434 1
  endloop
 endfacet
 facet normal -0 0 1
  outer loop
   vertex 0.087867 0.0022639 1
   vertex 0.0881633 0.00221698 1
   vertex 0.0879327 0.00272689 1
  endloop
 endfacet
 facet normal 0 0 1
  outer loop
   vertex 0.0879327 0.00272689 1
   vertex 0.0881633 0.00221698 1
   vertex 0.0888369 0.00270639 1
  endloop
 endfacet
 facet normal -0 0 1
  outer loop
   vertex 0.0879327 0.00272689 1
   vertex 0.0888369 0.00270639 1
   vertex 0.0879835 0.00319175 1
  endloop
 endfacet
 facet normal 0 0 1
  outer loop
   vertex 0.0879835 0.00319175 1
   vertex 0.0888369 0.00270639 1
   vertex 0.0888865 0.00318348 1
  endloop
 endfacet
 facet normal -0 0 1
  outer loop
   vertex 0.0879835 0.00319175 1
   vertex 0.0888865 0.00318348 1
   vertex 0.0880194 0.00365803 1
  endloop
 endfacet
 facet normal -0 0 1
  outer loop
   vertex 0.0880194 0.00365803 1
   vertex 0.0888865 0.00318348 1
   vertex 0.0889212 0.0036618 1
  endloop
 endfacet
 facet normal 0 0 1
  outer loop
   vertex 0.0880194 0.00365803 1
   vertex 0.0889212 0.0036618 1
   vertex 0.0880402 0.00412518 1
  endloop
 endfacet
 facet normal -0 0 1
  outer loop
   vertex 0.0880402 0.00412518 1
   vertex 0.0889212 0.0036618 1
   vertex 0.088941 0.00414105 1
  endloop
 endfacet
 facet normal 0 0 1
  outer loop
   vertex 0.0880402 0.00412518 1
   vertex 0.088941 0.00414105 1
   vertex 0.0880461 0.00459277 1
  endloop
 endfacet
 facet normal -0 0 1
  outer loop
   vertex 0.0880461 0.00459277 1
   vertex 0.088941 0.00414105 1
   vertex 0.088946 0.00462065 1
  endloop
 endfacet
 facet normal 0 -0 1
  outer loop
   vertex 0.0880461 0.00459277 1
   vertex 0.088946 0.00462065 1
   vertex 0.0880369 0.00506031 1
  endloop
 endfacet
 facet normal -0 0 1
  outer loop
   vertex 0.0880369 0.00506031 1
   vertex 0.088946 0.00462065 1
   vertex 0.088936 0.00510017 1
  endloop
 endfacet
 facet normal 0 -0 1
  outer loop
   vertex 0.0880369 0.00506031 1
   vertex 0.088936 0.00510017 1
   vertex 0.0880126 0.00552732 1
  endloop
 endfacet
 facet normal -0 0 1
  outer loop
   vertex 0.0880126 0.00552732 1
   vertex 0.088936 0.00510017 1
   vertex 0.0889112 0.00557916 1
  endloop
 endfacet
 facet normal 0 -0 1
  outer loop
   vertex 0.0880126 0.00552732 1
   vertex 0.0889112 0.00557916 1
   vertex 0.0879734 0.0059933 1
  endloop
 endfacet
 facet normal -0 0 1
  outer loop
   vertex 0.0879734 0.0059933 1
   vertex 0.0889112 0.00557916 1
   vertex 0.0888715 0.00605714 1
  endloop
 endfacet
 facet normal 0 -0 1
  outer loop
   vertex 0.0879734 0.0059933 1
   vertex 0.0888715 0.00605714 1
   vertex 0.0879193 0.00645778 1
  endloop
 endfacet
 facet normal -0 0 1
  outer loop
   vertex 0.0879193 0.00645778 1
   vertex 0.0888715 0.00605714 1
   vertex 0.088817 0.00653365 1
  endloop
 endfacet
 facet normal 0 -0 1
  outer loop
   vertex 0.0879193 0.00645778 1
   vertex 0.088817 0.00653365 1
   vertex 0.0878502 0.00692028 1
  endloop
 endfacet
 facet normal -0 0 1
  outer loop
   vertex 0.0878502 0.00692028 1
   vertex 0.088817 0.00653365 1
   vertex 0.0887478 0.00700825 1
  endloop
 endfacet
 facet normal 0 -0 1
  outer loop
   vertex 0.0878502 0.00692028 1
   vertex 0.0887478 0.00700825 1
   vertex 0.0877663 0.00738032 1
  endloop
 endfacet
 facet normal -0 0 1
  outer loop
   vertex 0.0877663 0.00738032 1
   vertex 0.0887478 0.00700825 1
   vertex 0.0886639 0.00748047 1
  endloop
 endfacet
 facet normal 0 -0 1
  outer loop
   vertex 0.0877663 0.00738032 1
   vertex 0.0886639 0.00748047 1
   vertex 0.0876677 0.00783744 1
  endloop
 endfacet
 facet normal -0 0 1
  outer loop
   vertex 0.0876677 0.00783744 1
   vertex 0.0886639 0.00748047 1
   vertex 0.0885653 0.00794986 1
  endloop
 endfacet
 facet normal 0 -0 1
  outer loop
   vertex 0.0876677 0.00783744 1
   vertex 0.0885653 0.00794986 1
   vertex 0.0875545 0.00829115 1
  endloop
 endfacet
 facet normal -0 0 1
  outer loop
   vertex 0.0875545 0.00829115 1
   vertex 0.0885653 0.00794986 1
   vertex 0.0884522 0.00841597 1
  endloop
 endfacet
 facet normal 0 -0 1
  outer loop
   vertex 0.0875545 0.00829115 1
   vertex 0.0884522 0.00841597 1
   vertex 0.0874267 0.00874098 1
  endloop
 endfacet
 facet normal -0 0 1
  outer loop
   vertex 0.0874267 0.00874098 1
   vertex 0.0884522 0.00841597 1
   vertex 0.0883248 0.00887833 1
  endloop
 endfacet
 facet normal 0 -0 1
  outer loop
   vertex 0.0874267 0.00874098 1
   vertex 0.0883248 0.00887833 1
   vertex 0.0872846 0.00918648 1
  endloop
 endfacet
 facet normal -0 0 1
  outer loop
   vertex 0.0872846 0.00918648 1
   vertex 0.0883248 0.00887833 1
   vertex 0.088183 0.00933653 1
  endloop
 endfacet
 facet normal 0 -0 1
  outer loop
   vertex 0.0872846 0.00918648 1
   vertex 0.088183 0.00933653 1
   vertex 0.0871281 0.00962717 1
  endloop
 endfacet
 facet normal -0 0 1
  outer loop
   vertex 0.0871281 0.00962717 1
   vertex 0.088183 0.00933653 1
   vertex 0.0880271 0.0097901 1
  endloop
 endfacet
 facet normal 0 -0 1
  outer loop
   vertex 0.0871281 0.00962717 1
   vertex 0.0880271 0.0097901 1
   vertex 0.0869577 0.0100626 1
  endloop
 endfacet
 facet normal -0 0 1
  outer loop
   vertex 0.0869577 0.0100626 1
   vertex 0.0880271 0.0097901 1
   vertex 0.0878571 0.0102386 1
  endloop
 endfacet
 facet normal 0 -0 1
  outer loop
   vertex 0.0869577 0.0100626 1
   vertex 0.0878571 0.0102386 1
   vertex 0.0867733 0.0104924 1
  endloop
 endfacet
 facet normal -0 0 1
  outer loop
   vertex 0.0867733 0.0104924 1
   vertex 0.0878571 0.0102386 1
   vertex 0.0876734 0.0106816 1
  endloop
 endfacet
 facet normal 0 -0 1
  outer loop
   vertex 0.0867733 0.0104924 1
   vertex 0.0876734 0.0106816 1
   vertex 0.0865752 0.010916 1
  endloop
 endfacet
 facet normal -0 0 1
  outer loop
   vertex 0.0865752 0.010916 1
   vertex 0.0876734 0.0106816 1
   vertex 0.0874759 0.0111187 1
  endloop
 endfacet
 facet normal 0 -0 1
  outer loop
   vertex 0.0865752 0.010916 1
   vertex 0.0874759 0.0111187 1
   vertex 0.0863636 0.011333 1
  endloop
 endfacet
 facet normal 0 0 1
  outer loop
   vertex 0.0874759 0.0111187 1
   vertex 0.0872651 0.0115495 1
   vertex 0.0863636 0.011333 1
  endloop
 endfacet
 facet normal 0 0 1
  outer loop
   vertex 0.0863636 0.011333 1
   vertex 0.0872651 0.0115495 1
   vertex 0.0870409 0.0119735 1
  endloop
 endfacet
 facet normal 0 -0 1
  outer loop
   vertex 0.0863636 0.011333 1
   vertex 0.0870409 0.0119735 1
   vertex 0.0861387 0.011743 1
  endloop
 endfacet
 facet normal 0 0 1
  outer loop
   vertex 0.0861387 0.011743 1
   vertex 0.0870409 0.0119735 1
   vertex 0.0868037 0.0123904 1
  endloop
 endfacet
 facet normal 0 -0 1
  outer loop
   vertex 0.0861387 0.011743 1
   vertex 0.0868037 0.0123904 1
   vertex 0.0859008 0.0121455 1
  endloop
 endfacet
 facet normal 0 0 1
  outer loop
   vertex 0.0859008 0.0121455 1
   vertex 0.0868037 0.0123904 1
   vertex 0.0865536 0.0127997 1
  endloop
 endfacet
 facet normal 0 -0 1
  outer loop
   vertex 0.0859008 0.0121455 1
   vertex 0.0865536 0.0127997 1
   vertex 0.08565 0.0125402 1
  endloop
 endfacet
 facet normal 0 0 1
  outer loop
   vertex 0.08565 0.0125402 1
   vertex 0.0865536 0.0127997 1
   vertex 0.086291 0.013201 1
  endloop
 endfacet
 facet normal 0 -0 1
  outer loop
   vertex 0.08565 0.0125402 1
   vertex 0.086291 0.013201 1
   vertex 0.0853867 0.0129267 1
  endloop
 endfacet
 facet normal 0 0 1
  outer loop
   vertex 0.0853867 0.0129267 1
   vertex 0.086291 0.013201 1
   vertex 0.0860161 0.013594 1
  endloop
 endfacet
 facet normal 0 -0 1
  outer loop
   vertex 0.0853867 0.0129267 1
   vertex 0.0860161 0.013594 1
   vertex 0.0851111 0.0133045 1
  endloop
 endfacet
 facet normal 0 0 1
  outer loop
   vertex 0.0851111 0.0133045 1
   vertex 0.0860161 0.013594 1
   vertex 0.085729 0.0139783 1
  endloop
 endfacet
 facet normal 0 -0 1
  outer loop
   vertex 0.0851111 0.0133045 1
   vertex 0.085729 0.0139783 1
   vertex 0.0848235 0.0136732 1
  endloop
 endfacet
 facet normal 0 0 1
  outer loop
   vertex 0.0848235 0.0136732 1
   vertex 0.085729 0.0139783 1
   vertex 0.0854302 0.0143534 1
  endloop
 endfacet
 facet normal 0 -0 1
  outer loop
   vertex 0.0848235 0.0136732 1
   vertex 0.0854302 0.0143534 1
   vertex 0.0845242 0.0140325 1
  endloop
 endfacet
 facet normal 0 0 1
  outer loop
   vertex 0.0845242 0.0140325 1
   vertex 0.0854302 0.0143534 1
   vertex 0.0851199 0.0147192 1
  endloop
 endfacet
 facet normal 0 -0 1
  outer loop
   vertex 0.0845242 0.0140325 1
   vertex 0.0851199 0.0147192 1
   vertex 0.0842135 0.014382 1
  endloop
 endfacet
 facet normal 0 0 1
  outer loop
   vertex 0.0842135 0.014382 1
   vertex 0.0851199 0.0147192 1
   vertex 0.0847984 0.0150751 1
  endloop
 endfacet
 facet normal 0 -0 1
  outer loop
   vertex 0.0842135 0.014382 1
   vertex 0.0847984 0.0150751 1
   vertex 0.0838918 0.0147214 1
  endloop
 endfacet
 facet normal 0 0 1
  outer loop
   vertex 0.0838918 0.0147214 1
   vertex 0.0847984 0.0150751 1
   vertex 0.0844661 0.0154208 1
  endloop
 endfacet
 facet normal 0 -0 1
  outer loop
   vertex 0.0838918 0.0147214 1
   vertex 0.0844661 0.0154208 1
   vertex 0.0835593 0.0150502 1
  endloop
 endfacet
 facet normal 0 0 1
  outer loop
   vertex 0.0835593 0.0150502 1
   vertex 0.0844661 0.0154208 1
   vertex 0.0841231 0.0157561 1
  endloop
 endfacet
 facet normal 0 -0 1
  outer loop
   vertex 0.0835593 0.0150502 1
   vertex 0.0841231 0.0157561 1
   vertex 0.0832164 0.0153682 1
  endloop
 endfacet
 facet normal 0 0 1
  outer loop
   vertex 0.0832164 0.0153682 1
   vertex 0.0841231 0.0157561 1
   vertex 0.0837699 0.0160806 1
  endloop
 endfacet
 facet normal 0 -0 1
  outer loop
   vertex 0.0832164 0.0153682 1
   vertex 0.0837699 0.0160806 1
   vertex 0.0828635 0.015675 1
  endloop
 endfacet
 facet normal 0 0 1
  outer loop
   vertex 0.0828635 0.015675 1
   vertex 0.0837699 0.0160806 1
   vertex 0.0834068 0.016394 1
  endloop
 endfacet
 facet normal 0 -0 1
  outer loop
   vertex 0.0828635 0.015675 1
   vertex 0.0834068 0.016394 1
   vertex 0.0825009 0.0159703 1
  endloop
 endfacet
 facet normal 0 0 1
  outer loop
   vertex 0.0825009 0.0159703 1
   vertex 0.0834068 0.016394 1
   vertex 0.0830341 0.0166959 1
  endloop
 endfacet
 facet normal 0 -0 1
  outer loop
   vertex 0.0825009 0.0159703 1
   vertex 0.0830341 0.0166959 1
   vertex 0.082129 0.0162538 1
  endloop
 endfacet
 facet normal 0 0 1
  outer loop
   vertex 0.082129 0.0162538 1
   vertex 0.0830341 0.0166959 1
   vertex 0.0826523 0.0169861 1
  endloop
 endfacet
 facet normal 0 -0 1
  outer loop
   vertex 0.082129 0.0162538 1
   vertex 0.0826523 0.0169861 1
   vertex 0.0817482 0.0165252 1
  endloop
 endfacet
 facet normal 0 0 1
  outer loop
   vertex 0.0817482 0.0165252 1
   vertex 0.0826523 0.0169861 1
   vertex 0.0822616 0.0172644 1
  endloop
 endfacet
 facet normal 0 -0 1
  outer loop
   vertex 0.0817482 0.0165252 1
   vertex 0.0822616 0.0172644 1
   vertex 0.0813588 0.0167842 1
  endloop
 endfacet
 facet normal 0 0 1
  outer loop
   vertex 0.0813588 0.0167842 1
   vertex 0.0822616 0.0172644 1
   vertex 0.0818625 0.0175303 1
  endloop
 endfacet
 facet normal 0 -0 1
  outer loop
   vertex 0.0813588 0.0167842 1
   vertex 0.0818625 0.0175303 1
   vertex 0.0809614 0.0170306 1
  endloop
 endfacet
 facet normal 0 0 1
  outer loop
   vertex 0.0809614 0.0170306 1
   vertex 0.0818625 0.0175303 1
   vertex 0.0814553 0.0177838 1
  endloop
 endfacet
 facet normal 0 -0 1
  outer loop
   vertex 0.0809614 0.0170306 1
   vertex 0.0814553 0.0177838 1
   vertex 0.0805562 0.0172641 1
  endloop
 endfacet
 facet normal 0 0 1
  outer loop
   vertex 0.0805562 0.0172641 1
   vertex 0.0814553 0.0177838 1
   vertex 0.0810405 0.0180245 1
  endloop
 endfacet
 facet normal 0 -0 1
  outer loop
   vertex 0.0805562 0.0172641 1
   vertex 0.0810405 0.0180245 1
   vertex 0.0801437 0.0174844 1
  endloop
 endfacet
 facet normal 0 0 1
  outer loop
   vertex 0.0801437 0.0174844 1
   vertex 0.0810405 0.0180245 1
   vertex 0.0806183 0.0182522 1
  endloop
 endfacet
 facet normal 0 -0 1
  outer loop
   vertex 0.0801437 0.0174844 1
   vertex 0.0806183 0.0182522 1
   vertex 0.0797244 0.0176914 1
  endloop
 endfacet
 facet normal 0 0 1
  outer loop
   vertex 0.0797244 0.0176914 1
   vertex 0.0806183 0.0182522 1
   vertex 0.0801894 0.0184668 1
  endloop
 endfacet
 facet normal 0 -0 1
  outer loop
   vertex 0.0797244 0.0176914 1
   vertex 0.0801894 0.0184668 1
   vertex 0.0792987 0.0178848 1
  endloop
 endfacet
 facet normal 0 0 1
  outer loop
   vertex 0.0792987 0.0178848 1
   vertex 0.0801894 0.0184668 1
   vertex 0.0797539 0.0186678 1
  endloop
 endfacet
 facet normal 0 -0 1
  outer loop
   vertex 0.0792987 0.0178848 1
   vertex 0.0797539 0.0186678 1
   vertex 0.0788669 0.0180644 1
  endloop
 endfacet
 facet normal 0 0 1
  outer loop
   vertex 0.0788669 0.0180644 1
   vertex 0.0797539 0.0186678 1
   vertex 0.0793125 0.0188553 1
  endloop
 endfacet
 facet normal 0 -0 1
  outer loop
   vertex 0.0788669 0.0180644 1
   vertex 0.0793125 0.0188553 1
   vertex 0.0784296 0.0182301 1
  endloop
 endfacet
 facet normal 0 0 1
  outer loop
   vertex 0.0784296 0.0182301 1
   vertex 0.0793125 0.0188553 1
   vertex 0.0788654 0.019029 1
  endloop
 endfacet
 facet normal 0 -0 1
  outer loop
   vertex 0.0784296 0.0182301 1
   vertex 0.0788654 0.019029 1
   vertex 0.0779872 0.0183816 1
  endloop
 endfacet
 facet normal 0 0 1
  outer loop
   vertex 0.0779872 0.0183816 1
   vertex 0.0788654 0.019029 1
   vertex 0.0784131 0.0191887 1
  endloop
 endfacet
 facet normal 0 -0 1
  outer loop
   vertex 0.0779872 0.0183816 1
   vertex 0.0784131 0.0191887 1
   vertex 0.0775402 0.0185188 1
  endloop
 endfacet
 facet normal 0 0 1
  outer loop
   vertex 0.0775402 0.0185188 1
   vertex 0.0784131 0.0191887 1
   vertex 0.0779561 0.0193343 1
  endloop
 endfacet
 facet normal 0 -0 1
  outer loop
   vertex 0.0775402 0.0185188 1
   vertex 0.0779561 0.0193343 1
   vertex 0.0770889 0.0186416 1
  endloop
 endfacet
 facet normal 0 0 1
  outer loop
   vertex 0.0770889 0.0186416 1
   vertex 0.0779561 0.0193343 1
   vertex 0.0774949 0.0194657 1
  endloop
 endfacet
 facet normal 0 -0 1
  outer loop
   vertex 0.0770889 0.0186416 1
   vertex 0.0774949 0.0194657 1
   vertex 0.076634 0.0187498 1
  endloop
 endfacet
 facet normal 0 0 1
  outer loop
   vertex 0.076634 0.0187498 1
   vertex 0.0774949 0.0194657 1
   vertex 0.0770297 0.0195827 1
  endloop
 endfacet
 facet normal 0 -0 1
  outer loop
   vertex 0.076634 0.0187498 1
   vertex 0.0770297 0.0195827 1
   vertex 0.0761758 0.0188434 1
  endloop
 endfacet
 facet normal 0 0 1
  outer loop
   vertex 0.0761758 0.0188434 1
   vertex 0.0770297 0.0195827 1
   vertex 0.0765612 0.0196852 1
  endloop
 endfacet
 facet normal 0 -0 1
  outer loop
   vertex 0.0761758 0.0188434 1
   vertex 0.0765612 0.0196852 1
   vertex 0.0760897 0.0197731 1
  endloop
 endfacet
 facet normal 0.587794 -0.809011 0
  outer loop
   vertex 0.0888369 0.00270639 1
   vertex 0.0881633 0.00221698 1
   vertex 0.0888369 0.00270639 -1
  endloop
 endfacet
 facet normal 0.587794 -0.809011 0
  outer loop
   vertex 0.0888369 0.00270639 -1
   vertex 0.0881633 0.00221698 1
   vertex 0.0881633 0.00221698 -1
  endloop
 endfacet
 facet normal -0.694671 -0.719327 -0
  outer loop
   vertex 0.073853 0.0190882 1
   vertex 0.0732295 0.0196903 1
   vertex 0.073853 0.0190882 -1
  endloop
 endfacet
 facet normal -0.694671 -0.719327 0
  outer loop
   vertex 0.073853 0.0190882 -1
   vertex 0.0732295 0.0196903 1
   vertex 0.0732295 0.0196903 -1
  endloop
 endfacet
endsolid tunner_vane
