solid tunner_vane
 facet normal -0.00193896 0.999998 0
  outer loop
   vertex 0.944828 0.360602 -1
   vertex 0.944828 0.360602 1
   vertex 0.948025 0.360608 1
  endloop
 endfacet
 facet normal -0.00193896 0.999998 0
  outer loop
   vertex 0.944828 0.360602 -1
   vertex 0.948025 0.360608 1
   vertex 0.948025 0.360608 -1
  endloop
 endfacet
 facet normal 0.0290779 0.999577 -0
  outer loop
   vertex 0.948025 0.360608 -1
   vertex 0.948025 0.360608 1
   vertex 0.951222 0.360515 1
  endloop
 endfacet
 facet normal 0.0290779 0.999577 0
  outer loop
   vertex 0.948025 0.360608 -1
   vertex 0.951222 0.360515 1
   vertex 0.951222 0.360515 -1
  endloop
 endfacet
 facet normal 0.0601227 0.998191 -0
  outer loop
   vertex 0.951222 0.360515 -1
   vertex 0.951222 0.360515 1
   vertex 0.954413 0.360323 1
  endloop
 endfacet
 facet normal 0.0601227 0.998191 0
  outer loop
   vertex 0.951222 0.360515 -1
   vertex 0.954413 0.360323 1
   vertex 0.954413 0.360323 -1
  endloop
 endfacet
 facet normal 0.0910491 0.995846 -0
  outer loop
   vertex 0.954413 0.360323 -1
   vertex 0.954413 0.360323 1
   vertex 0.957598 0.360032 1
  endloop
 endfacet
 facet normal 0.0910491 0.995846 0
  outer loop
   vertex 0.954413 0.360323 -1
   vertex 0.957598 0.360032 1
   vertex 0.957598 0.360032 -1
  endloop
 endfacet
 facet normal 0.121961 0.992535 -0
  outer loop
   vertex 0.957598 0.360032 -1
   vertex 0.957598 0.360032 1
   vertex 0.960771 0.359642 1
  endloop
 endfacet
 facet normal 0.121961 0.992535 0
  outer loop
   vertex 0.957598 0.360032 -1
   vertex 0.960771 0.359642 1
   vertex 0.960771 0.359642 -1
  endloop
 endfacet
 facet normal 0.152652 0.98828 -0
  outer loop
   vertex 0.960771 0.359642 -1
   vertex 0.960771 0.359642 1
   vertex 0.963931 0.359154 1
  endloop
 endfacet
 facet normal 0.152652 0.98828 0
  outer loop
   vertex 0.960771 0.359642 -1
   vertex 0.963931 0.359154 1
   vertex 0.963931 0.359154 -1
  endloop
 endfacet
 facet normal 0.183263 0.983064 -0
  outer loop
   vertex 0.963931 0.359154 -1
   vertex 0.963931 0.359154 1
   vertex 0.967075 0.358568 1
  endloop
 endfacet
 facet normal 0.183263 0.983064 0
  outer loop
   vertex 0.963931 0.359154 -1
   vertex 0.967075 0.358568 1
   vertex 0.967075 0.358568 -1
  endloop
 endfacet
 facet normal 0.213711 0.976897 -0
  outer loop
   vertex 0.967075 0.358568 -1
   vertex 0.967075 0.358568 1
   vertex 0.970198 0.357884 1
  endloop
 endfacet
 facet normal 0.213711 0.976897 0
  outer loop
   vertex 0.967075 0.358568 -1
   vertex 0.970198 0.357884 1
   vertex 0.970198 0.357884 -1
  endloop
 endfacet
 facet normal 0.243899 0.969801 -0
  outer loop
   vertex 0.970198 0.357884 -1
   vertex 0.970198 0.357884 1
   vertex 0.973299 0.357105 1
  endloop
 endfacet
 facet normal 0.243899 0.969801 0
  outer loop
   vertex 0.970198 0.357884 -1
   vertex 0.973299 0.357105 1
   vertex 0.973299 0.357105 -1
  endloop
 endfacet
 facet normal 0.273925 0.961751 -0
  outer loop
   vertex 0.973299 0.357105 -1
   vertex 0.973299 0.357105 1
   vertex 0.976374 0.356229 1
  endloop
 endfacet
 facet normal 0.273925 0.961751 0
  outer loop
   vertex 0.973299 0.357105 -1
   vertex 0.976374 0.356229 1
   vertex 0.976374 0.356229 -1
  endloop
 endfacet
 facet normal 0.303541 0.952818 -0
  outer loop
   vertex 0.976374 0.356229 -1
   vertex 0.976374 0.356229 1
   vertex 0.979421 0.355258 1
  endloop
 endfacet
 facet normal 0.303541 0.952818 0
  outer loop
   vertex 0.976374 0.356229 -1
   vertex 0.979421 0.355258 1
   vertex 0.979421 0.355258 -1
  endloop
 endfacet
 facet normal 0.333012 0.942923 -0
  outer loop
   vertex 0.979421 0.355258 -1
   vertex 0.979421 0.355258 1
   vertex 0.982436 0.354193 1
  endloop
 endfacet
 facet normal 0.333012 0.942923 0
  outer loop
   vertex 0.979421 0.355258 -1
   vertex 0.982436 0.354193 1
   vertex 0.982436 0.354193 -1
  endloop
 endfacet
 facet normal 0.362178 0.932109 -0
  outer loop
   vertex 0.982436 0.354193 -1
   vertex 0.982436 0.354193 1
   vertex 0.985416 0.353035 1
  endloop
 endfacet
 facet normal 0.362178 0.932109 0
  outer loop
   vertex 0.982436 0.354193 -1
   vertex 0.985416 0.353035 1
   vertex 0.985416 0.353035 -1
  endloop
 endfacet
 facet normal 0.390912 0.920428 -0
  outer loop
   vertex 0.985416 0.353035 -1
   vertex 0.985416 0.353035 1
   vertex 0.988359 0.351785 1
  endloop
 endfacet
 facet normal 0.390912 0.920428 0
  outer loop
   vertex 0.985416 0.353035 -1
   vertex 0.988359 0.351785 1
   vertex 0.988359 0.351785 -1
  endloop
 endfacet
 facet normal 0.419247 0.907872 -0
  outer loop
   vertex 0.988359 0.351785 -1
   vertex 0.988359 0.351785 1
   vertex 0.991262 0.350445 1
  endloop
 endfacet
 facet normal 0.419247 0.907872 0
  outer loop
   vertex 0.988359 0.351785 -1
   vertex 0.991262 0.350445 1
   vertex 0.991262 0.350445 -1
  endloop
 endfacet
 facet normal 0.447213 0.894428 -0
  outer loop
   vertex 0.991262 0.350445 -1
   vertex 0.991262 0.350445 1
   vertex 0.994122 0.349015 1
  endloop
 endfacet
 facet normal 0.447213 0.894428 0
  outer loop
   vertex 0.991262 0.350445 -1
   vertex 0.994122 0.349015 1
   vertex 0.994122 0.349015 -1
  endloop
 endfacet
 facet normal 0.474796 0.880096 -0
  outer loop
   vertex 0.994122 0.349015 -1
   vertex 0.994122 0.349015 1
   vertex 0.996936 0.347497 1
  endloop
 endfacet
 facet normal 0.474796 0.880096 0
  outer loop
   vertex 0.994122 0.349015 -1
   vertex 0.996936 0.347497 1
   vertex 0.996936 0.347497 -1
  endloop
 endfacet
 facet normal 0.501822 0.864971 -0
  outer loop
   vertex 0.996936 0.347497 -1
   vertex 0.996936 0.347497 1
   vertex 0.999702 0.345892 1
  endloop
 endfacet
 facet normal 0.501822 0.864971 0
  outer loop
   vertex 0.996936 0.347497 -1
   vertex 0.999702 0.345892 1
   vertex 0.999702 0.345892 -1
  endloop
 endfacet
 facet normal 0.52799 0.84925 -0
  outer loop
   vertex 0.999702 0.345892 -1
   vertex 0.999702 0.345892 1
   vertex 1.00242 0.344202 1
  endloop
 endfacet
 facet normal 0.52799 0.84925 0
  outer loop
   vertex 0.999702 0.345892 -1
   vertex 1.00242 0.344202 1
   vertex 1.00242 0.344202 -1
  endloop
 endfacet
 facet normal 0.554666 0.832073 -0
  outer loop
   vertex 1.00242 0.344202 -1
   vertex 1.00242 0.344202 1
   vertex 1.00508 0.342429 1
  endloop
 endfacet
 facet normal 0.554666 0.832073 0
  outer loop
   vertex 1.00242 0.344202 -1
   vertex 1.00508 0.342429 1
   vertex 1.00508 0.342429 -1
  endloop
 endfacet
 facet normal 0.580762 0.814073 -0
  outer loop
   vertex 1.00508 0.342429 -1
   vertex 1.00508 0.342429 1
   vertex 1.00768 0.340574 1
  endloop
 endfacet
 facet normal 0.580762 0.814073 0
  outer loop
   vertex 1.00508 0.342429 -1
   vertex 1.00768 0.340574 1
   vertex 1.00768 0.340574 -1
  endloop
 endfacet
 facet normal 0.604486 0.796615 -0
  outer loop
   vertex 1.00768 0.340574 -1
   vertex 1.00768 0.340574 1
   vertex 1.01023 0.338639 1
  endloop
 endfacet
 facet normal 0.604486 0.796615 0
  outer loop
   vertex 1.00768 0.340574 -1
   vertex 1.01023 0.338639 1
   vertex 1.01023 0.338639 -1
  endloop
 endfacet
 facet normal 0.630173 0.776455 -0
  outer loop
   vertex 1.01023 0.338639 -1
   vertex 1.01023 0.338639 1
   vertex 1.01271 0.336626 1
  endloop
 endfacet
 facet normal 0.630173 0.776455 0
  outer loop
   vertex 1.01023 0.338639 -1
   vertex 1.01271 0.336626 1
   vertex 1.01271 0.336626 -1
  endloop
 endfacet
 facet normal 0.653448 0.756972 -0
  outer loop
   vertex 1.01271 0.336626 -1
   vertex 1.01271 0.336626 1
   vertex 1.01513 0.334537 1
  endloop
 endfacet
 facet normal 0.653448 0.756972 0
  outer loop
   vertex 1.01271 0.336626 -1
   vertex 1.01513 0.334537 1
   vertex 1.01513 0.334537 -1
  endloop
 endfacet
 facet normal 0.675704 0.737173 -0
  outer loop
   vertex 1.01513 0.334537 -1
   vertex 1.01513 0.334537 1
   vertex 1.01749 0.332374 1
  endloop
 endfacet
 facet normal 0.675704 0.737173 0
  outer loop
   vertex 1.01513 0.334537 -1
   vertex 1.01749 0.332374 1
   vertex 1.01749 0.332374 -1
  endloop
 endfacet
 facet normal 0.700057 0.714087 -0
  outer loop
   vertex 1.01749 0.332374 -1
   vertex 1.01749 0.332374 1
   vertex 1.01977 0.330139 1
  endloop
 endfacet
 facet normal 0.700057 0.714087 0
  outer loop
   vertex 1.01749 0.332374 -1
   vertex 1.01977 0.330139 1
   vertex 1.01977 0.330139 -1
  endloop
 endfacet
 facet normal 0.720291 0.693672 -0
  outer loop
   vertex 1.01977 0.330139 -1
   vertex 1.01977 0.330139 1
   vertex 1.02199 0.327834 1
  endloop
 endfacet
 facet normal 0.720291 0.693672 0
  outer loop
   vertex 1.01977 0.330139 -1
   vertex 1.02199 0.327834 1
   vertex 1.02199 0.327834 -1
  endloop
 endfacet
 facet normal 0.74259 0.669747 -0
  outer loop
   vertex 1.02199 0.327834 -1
   vertex 1.02199 0.327834 1
   vertex 1.02413 0.325461 1
  endloop
 endfacet
 facet normal 0.74259 0.669747 0
  outer loop
   vertex 1.02199 0.327834 -1
   vertex 1.02413 0.325461 1
   vertex 1.02413 0.325461 -1
  endloop
 endfacet
 facet normal 0.762296 0.647228 -0
  outer loop
   vertex 1.02413 0.325461 -1
   vertex 1.02413 0.325461 1
   vertex 1.0262 0.323023 1
  endloop
 endfacet
 facet normal 0.762296 0.647228 0
  outer loop
   vertex 1.02413 0.325461 -1
   vertex 1.0262 0.323023 1
   vertex 1.0262 0.323023 -1
  endloop
 endfacet
 facet normal 0.782545 0.622595 -0
  outer loop
   vertex 1.0262 0.323023 -1
   vertex 1.0262 0.323023 1
   vertex 1.02819 0.320522 1
  endloop
 endfacet
 facet normal 0.782545 0.622595 0
  outer loop
   vertex 1.0262 0.323023 -1
   vertex 1.02819 0.320522 1
   vertex 1.02819 0.320522 -1
  endloop
 endfacet
 facet normal 0.800205 0.599727 -0
  outer loop
   vertex 1.02819 0.320522 -1
   vertex 1.02819 0.320522 1
   vertex 1.03011 0.31796 1
  endloop
 endfacet
 facet normal 0.800205 0.599727 0
  outer loop
   vertex 1.02819 0.320522 -1
   vertex 1.03011 0.31796 1
   vertex 1.03011 0.31796 -1
  endloop
 endfacet
 facet normal 0.819812 0.572633 -0
  outer loop
   vertex 1.03011 0.31796 -1
   vertex 1.03011 0.31796 1
   vertex 1.03194 0.31534 1
  endloop
 endfacet
 facet normal 0.819812 0.572633 0
  outer loop
   vertex 1.03011 0.31796 -1
   vertex 1.03194 0.31534 1
   vertex 1.03194 0.31534 -1
  endloop
 endfacet
 facet normal 0.836891 0.54737 -0
  outer loop
   vertex 1.03194 0.31534 -1
   vertex 1.03194 0.31534 1
   vertex 1.03369 0.312664 1
  endloop
 endfacet
 facet normal 0.836891 0.54737 0
  outer loop
   vertex 1.03194 0.31534 -1
   vertex 1.03369 0.312664 1
   vertex 1.03369 0.312664 -1
  endloop
 endfacet
 facet normal 0.852931 0.522023 -0
  outer loop
   vertex 1.03369 0.312664 -1
   vertex 1.03369 0.312664 1
   vertex 1.03536 0.309936 1
  endloop
 endfacet
 facet normal 0.852931 0.522023 0
  outer loop
   vertex 1.03369 0.312664 -1
   vertex 1.03536 0.309936 1
   vertex 1.03536 0.309936 -1
  endloop
 endfacet
 facet normal 0.869324 0.494243 -0
  outer loop
   vertex 1.03536 0.309936 -1
   vertex 1.03536 0.309936 1
   vertex 1.03694 0.307157 1
  endloop
 endfacet
 facet normal 0.869324 0.494243 0
  outer loop
   vertex 1.03536 0.309936 -1
   vertex 1.03694 0.307157 1
   vertex 1.03694 0.307157 -1
  endloop
 endfacet
 facet normal 0.884627 0.4663 -0
  outer loop
   vertex 1.03694 0.307157 -1
   vertex 1.03694 0.307157 1
   vertex 1.03843 0.30433 1
  endloop
 endfacet
 facet normal 0.884627 0.4663 0
  outer loop
   vertex 1.03694 0.307157 -1
   vertex 1.03843 0.30433 1
   vertex 1.03843 0.30433 -1
  endloop
 endfacet
 facet normal 0.897643 0.440723 -0
  outer loop
   vertex 1.03843 0.30433 -1
   vertex 1.03843 0.30433 1
   vertex 1.03984 0.301458 1
  endloop
 endfacet
 facet normal 0.897643 0.440723 0
  outer loop
   vertex 1.03843 0.30433 -1
   vertex 1.03984 0.301458 1
   vertex 1.03984 0.301458 -1
  endloop
 endfacet
 facet normal 0.910899 0.412629 -0
  outer loop
   vertex 1.03984 0.301458 -1
   vertex 1.03984 0.301458 1
   vertex 1.04116 0.298544 1
  endloop
 endfacet
 facet normal 0.910899 0.412629 0
  outer loop
   vertex 1.03984 0.301458 -1
   vertex 1.04116 0.298544 1
   vertex 1.04116 0.298544 -1
  endloop
 endfacet
 facet normal 0.924256 0.381774 -0
  outer loop
   vertex 1.04116 0.298544 -1
   vertex 1.04116 0.298544 1
   vertex 1.04238 0.295591 1
  endloop
 endfacet
 facet normal 0.924256 0.381774 0
  outer loop
   vertex 1.04116 0.298544 -1
   vertex 1.04238 0.295591 1
   vertex 1.04238 0.295591 -1
  endloop
 endfacet
 facet normal 0.935434 0.353502 -0
  outer loop
   vertex 1.04238 0.295591 -1
   vertex 1.04238 0.295591 1
   vertex 1.04351 0.292601 1
  endloop
 endfacet
 facet normal 0.935434 0.353502 0
  outer loop
   vertex 1.04238 0.295591 -1
   vertex 1.04351 0.292601 1
   vertex 1.04351 0.292601 -1
  endloop
 endfacet
 facet normal 0.94563 0.325243 -0
  outer loop
   vertex 1.04351 0.292601 -1
   vertex 1.04351 0.292601 1
   vertex 1.04455 0.289577 1
  endloop
 endfacet
 facet normal 0.94563 0.325243 0
  outer loop
   vertex 1.04351 0.292601 -1
   vertex 1.04455 0.289577 1
   vertex 1.04455 0.289577 -1
  endloop
 endfacet
 facet normal 0.954876 0.297003 -0
  outer loop
   vertex 1.04455 0.289577 -1
   vertex 1.04455 0.289577 1
   vertex 1.0455 0.286522 1
  endloop
 endfacet
 facet normal 0.954876 0.297003 0
  outer loop
   vertex 1.04455 0.289577 -1
   vertex 1.0455 0.286522 1
   vertex 1.0455 0.286522 -1
  endloop
 endfacet
 facet normal 0.964023 0.265818 -0
  outer loop
   vertex 1.0455 0.286522 -1
   vertex 1.0455 0.286522 1
   vertex 1.04635 0.28344 1
  endloop
 endfacet
 facet normal 0.964023 0.265818 0
  outer loop
   vertex 1.0455 0.286522 -1
   vertex 1.04635 0.28344 1
   vertex 1.04635 0.28344 -1
  endloop
 endfacet
 facet normal 0.972091 0.234606 -0
  outer loop
   vertex 1.04635 0.28344 -1
   vertex 1.04635 0.28344 1
   vertex 1.0471 0.280332 1
  endloop
 endfacet
 facet normal 0.972091 0.234606 0
  outer loop
   vertex 1.04635 0.28344 -1
   vertex 1.0471 0.280332 1
   vertex 1.0471 0.280332 -1
  endloop
 endfacet
 facet normal 0.97847 0.206388 -0
  outer loop
   vertex 1.0471 0.280332 -1
   vertex 1.0471 0.280332 1
   vertex 1.04776 0.277203 1
  endloop
 endfacet
 facet normal 0.97847 0.206388 0
  outer loop
   vertex 1.0471 0.280332 -1
   vertex 1.04776 0.277203 1
   vertex 1.04776 0.277203 -1
  endloop
 endfacet
 facet normal 0.984542 0.175149 -0
  outer loop
   vertex 1.04776 0.277203 -1
   vertex 1.04776 0.277203 1
   vertex 1.04832 0.274055 1
  endloop
 endfacet
 facet normal 0.984542 0.175149 0
  outer loop
   vertex 1.04776 0.277203 -1
   vertex 1.04832 0.274055 1
   vertex 1.04832 0.274055 -1
  endloop
 endfacet
 facet normal 0.9896 0.143845 -0
  outer loop
   vertex 1.04832 0.274055 -1
   vertex 1.04832 0.274055 1
   vertex 1.04878 0.270891 1
  endloop
 endfacet
 facet normal 0.9896 0.143845 0
  outer loop
   vertex 1.04832 0.274055 -1
   vertex 1.04878 0.270891 1
   vertex 1.04878 0.270891 -1
  endloop
 endfacet
 facet normal 0.99364 0.112605 -0
  outer loop
   vertex 1.04878 0.270891 -1
   vertex 1.04878 0.270891 1
   vertex 1.04914 0.267714 1
  endloop
 endfacet
 facet normal 0.99364 0.112605 0
  outer loop
   vertex 1.04878 0.270891 -1
   vertex 1.04914 0.267714 1
   vertex 1.04914 0.267714 -1
  endloop
 endfacet
 facet normal 0.996429 0.0844327 -0
  outer loop
   vertex 1.04914 0.267714 -1
   vertex 1.04914 0.267714 1
   vertex 1.04941 0.264528 1
  endloop
 endfacet
 facet normal 0.996429 0.0844327 0
  outer loop
   vertex 1.04914 0.267714 -1
   vertex 1.04941 0.264528 1
   vertex 1.04941 0.264528 -1
  endloop
 endfacet
 facet normal 0.998747 0.0500355 -0
  outer loop
   vertex 1.04941 0.264528 -1
   vertex 1.04941 0.264528 1
   vertex 1.04957 0.261334 1
  endloop
 endfacet
 facet normal 0.998747 0.0500355 0
  outer loop
   vertex 1.04941 0.264528 -1
   vertex 1.04957 0.261334 1
   vertex 1.04957 0.261334 -1
  endloop
 endfacet
 facet normal 0.99976 0.0219214 -0
  outer loop
   vertex 1.04957 0.261334 -1
   vertex 1.04957 0.261334 1
   vertex 1.04964 0.258138 1
  endloop
 endfacet
 facet normal 0.99976 0.0219214 0
  outer loop
   vertex 1.04957 0.261334 -1
   vertex 1.04964 0.258138 1
   vertex 1.04964 0.258138 -1
  endloop
 endfacet
 facet normal 0.999956 -0.00939524 0
  outer loop
   vertex 1.04964 0.258138 -1
   vertex 1.04964 0.258138 1
   vertex 1.04961 0.25494 1
  endloop
 endfacet
 facet normal 0.999956 -0.00939524 0
  outer loop
   vertex 1.04964 0.258138 -1
   vertex 1.04961 0.25494 1
   vertex 1.04961 0.25494 -1
  endloop
 endfacet
 facet normal 0.99904 -0.0438027 0
  outer loop
   vertex 1.04961 0.25494 -1
   vertex 1.04961 0.25494 1
   vertex 1.04947 0.251746 1
  endloop
 endfacet
 facet normal 0.99904 -0.0438027 0
  outer loop
   vertex 1.04961 0.25494 -1
   vertex 1.04947 0.251746 1
   vertex 1.04947 0.251746 -1
  endloop
 endfacet
 facet normal 0.99741 -0.0719198 0
  outer loop
   vertex 1.04947 0.251746 -1
   vertex 1.04947 0.251746 1
   vertex 1.04924 0.248557 1
  endloop
 endfacet
 facet normal 0.99741 -0.0719198 0
  outer loop
   vertex 1.04947 0.251746 -1
   vertex 1.04924 0.248557 1
   vertex 1.04924 0.248557 -1
  endloop
 endfacet
 facet normal 0.994661 -0.103198 0
  outer loop
   vertex 1.04924 0.248557 -1
   vertex 1.04924 0.248557 1
   vertex 1.04891 0.245376 1
  endloop
 endfacet
 facet normal 0.994661 -0.103198 0
  outer loop
   vertex 1.04924 0.248557 -1
   vertex 1.04891 0.245376 1
   vertex 1.04891 0.245376 -1
  endloop
 endfacet
 facet normal -0.156861 -0.987621 -0
  outer loop
   vertex 1.04442 0.242113 1
   vertex 1.04245 0.242426 1
   vertex 1.04442 0.242113 -1
  endloop
 endfacet
 facet normal -0.156861 -0.987621 0
  outer loop
   vertex 1.04442 0.242113 -1
   vertex 1.04245 0.242426 1
   vertex 1.04245 0.242426 -1
  endloop
 endfacet
 facet normal -0.99043 0.138013 0
  outer loop
   vertex 1.04245 0.242426 -1
   vertex 1.04245 0.242426 1
   vertex 1.04288 0.245513 -1
  endloop
 endfacet
 facet normal -0.99043 0.138013 0
  outer loop
   vertex 1.04288 0.245513 -1
   vertex 1.04245 0.242426 1
   vertex 1.04288 0.245513 1
  endloop
 endfacet
 facet normal -0.994036 0.10905 0
  outer loop
   vertex 1.04288 0.245513 -1
   vertex 1.04288 0.245513 1
   vertex 1.04322 0.248612 -1
  endloop
 endfacet
 facet normal -0.994036 0.10905 0
  outer loop
   vertex 1.04322 0.248612 -1
   vertex 1.04288 0.245513 1
   vertex 1.04322 0.248612 1
  endloop
 endfacet
 facet normal -0.997033 0.0769734 0
  outer loop
   vertex 1.04322 0.248612 -1
   vertex 1.04322 0.248612 1
   vertex 1.04346 0.25172 -1
  endloop
 endfacet
 facet normal -0.997033 0.0769734 0
  outer loop
   vertex 1.04346 0.25172 -1
   vertex 1.04322 0.248612 1
   vertex 1.04346 0.25172 1
  endloop
 endfacet
 facet normal -0.998992 0.0448916 0
  outer loop
   vertex 1.04346 0.25172 -1
   vertex 1.04346 0.25172 1
   vertex 1.0436 0.254835 -1
  endloop
 endfacet
 facet normal -0.998992 0.0448916 0
  outer loop
   vertex 1.0436 0.254835 -1
   vertex 1.04346 0.25172 1
   vertex 1.0436 0.254835 1
  endloop
 endfacet
 facet normal -0.999917 0.012848 0
  outer loop
   vertex 1.0436 0.254835 -1
   vertex 1.0436 0.254835 1
   vertex 1.04364 0.257952 -1
  endloop
 endfacet
 facet normal -0.999917 0.012848 0
  outer loop
   vertex 1.04364 0.257952 -1
   vertex 1.0436 0.254835 1
   vertex 1.04364 0.257952 1
  endloop
 endfacet
 facet normal -0.999815 -0.0192342 0
  outer loop
   vertex 1.04364 0.257952 -1
   vertex 1.04364 0.257952 1
   vertex 1.04358 0.261069 -1
  endloop
 endfacet
 facet normal -0.999815 -0.0192342 0
  outer loop
   vertex 1.04358 0.261069 -1
   vertex 1.04364 0.257952 1
   vertex 1.04358 0.261069 1
  endloop
 endfacet
 facet normal -0.99868 -0.0513544 0
  outer loop
   vertex 1.04358 0.261069 -1
   vertex 1.04358 0.261069 1
   vertex 1.04342 0.264182 -1
  endloop
 endfacet
 facet normal -0.99868 -0.0513544 0
  outer loop
   vertex 1.04342 0.264182 -1
   vertex 1.04358 0.261069 1
   vertex 1.04342 0.264182 1
  endloop
 endfacet
 facet normal -0.996516 -0.0834024 0
  outer loop
   vertex 1.04342 0.264182 -1
   vertex 1.04342 0.264182 1
   vertex 1.04316 0.267289 -1
  endloop
 endfacet
 facet normal -0.996516 -0.0834024 0
  outer loop
   vertex 1.04316 0.267289 -1
   vertex 1.04342 0.264182 1
   vertex 1.04316 0.267289 1
  endloop
 endfacet
 facet normal -0.99331 -0.115483 0
  outer loop
   vertex 1.04316 0.267289 -1
   vertex 1.04316 0.267289 1
   vertex 1.0428 0.270385 -1
  endloop
 endfacet
 facet normal -0.99331 -0.115483 0
  outer loop
   vertex 1.0428 0.270385 -1
   vertex 1.04316 0.267289 1
   vertex 1.0428 0.270385 1
  endloop
 endfacet
 facet normal -0.988584 -0.150669 0
  outer loop
   vertex 1.0428 0.270385 -1
   vertex 1.0428 0.270385 1
   vertex 1.04233 0.273469 -1
  endloop
 endfacet
 facet normal -0.988584 -0.150669 0
  outer loop
   vertex 1.04233 0.273469 -1
   vertex 1.0428 0.270385 1
   vertex 1.04233 0.273469 1
  endloop
 endfacet
 facet normal -0.984297 -0.176522 0
  outer loop
   vertex 1.04233 0.273469 -1
   vertex 1.04233 0.273469 1
   vertex 1.04178 0.276536 -1
  endloop
 endfacet
 facet normal -0.984297 -0.176522 0
  outer loop
   vertex 1.04178 0.276536 -1
   vertex 1.04233 0.273469 1
   vertex 1.04178 0.276536 1
  endloop
 endfacet
 facet normal -0.977345 -0.211653 0
  outer loop
   vertex 1.04178 0.276536 -1
   vertex 1.04178 0.276536 1
   vertex 1.04112 0.279583 -1
  endloop
 endfacet
 facet normal -0.977345 -0.211653 0
  outer loop
   vertex 1.04112 0.279583 -1
   vertex 1.04178 0.276536 1
   vertex 1.04112 0.279583 1
  endloop
 endfacet
 facet normal -0.969847 -0.243713 0
  outer loop
   vertex 1.04112 0.279583 -1
   vertex 1.04112 0.279583 1
   vertex 1.04036 0.282608 -1
  endloop
 endfacet
 facet normal -0.969847 -0.243713 0
  outer loop
   vertex 1.04036 0.282608 -1
   vertex 1.04112 0.279583 1
   vertex 1.04036 0.282608 1
  endloop
 endfacet
 facet normal -0.962104 -0.272684 0
  outer loop
   vertex 1.04036 0.282608 -1
   vertex 1.04036 0.282608 1
   vertex 1.03951 0.285607 -1
  endloop
 endfacet
 facet normal -0.962104 -0.272684 0
  outer loop
   vertex 1.03951 0.285607 -1
   vertex 1.04036 0.282608 1
   vertex 1.03951 0.285607 1
  endloop
 endfacet
 facet normal -0.952463 -0.304653 0
  outer loop
   vertex 1.03951 0.285607 -1
   vertex 1.03951 0.285607 1
   vertex 1.03856 0.288577 -1
  endloop
 endfacet
 facet normal -0.952463 -0.304653 0
  outer loop
   vertex 1.03856 0.288577 -1
   vertex 1.03951 0.285607 1
   vertex 1.03856 0.288577 1
  endloop
 endfacet
 facet normal -0.942684 -0.333688 0
  outer loop
   vertex 1.03856 0.288577 -1
   vertex 1.03856 0.288577 1
   vertex 1.03752 0.291514 -1
  endloop
 endfacet
 facet normal -0.942684 -0.333688 0
  outer loop
   vertex 1.03752 0.291514 -1
   vertex 1.03856 0.288577 1
   vertex 1.03752 0.291514 1
  endloop
 endfacet
 facet normal -0.930801 -0.365527 0
  outer loop
   vertex 1.03752 0.291514 -1
   vertex 1.03752 0.291514 1
   vertex 1.03638 0.294417 -1
  endloop
 endfacet
 facet normal -0.930801 -0.365527 0
  outer loop
   vertex 1.03638 0.294417 -1
   vertex 1.03752 0.291514 1
   vertex 1.03638 0.294417 1
  endloop
 endfacet
 facet normal -0.920044 -0.391815 0
  outer loop
   vertex 1.03638 0.294417 -1
   vertex 1.03638 0.294417 1
   vertex 1.03516 0.297282 -1
  endloop
 endfacet
 facet normal -0.920044 -0.391815 0
  outer loop
   vertex 1.03516 0.297282 -1
   vertex 1.03638 0.294417 1
   vertex 1.03516 0.297282 1
  endloop
 endfacet
 facet normal -0.904699 -0.426051 0
  outer loop
   vertex 1.03516 0.297282 -1
   vertex 1.03516 0.297282 1
   vertex 1.03383 0.300106 -1
  endloop
 endfacet
 facet normal -0.904699 -0.426051 0
  outer loop
   vertex 1.03383 0.300106 -1
   vertex 1.03516 0.297282 1
   vertex 1.03383 0.300106 1
  endloop
 endfacet
 facet normal -0.891846 -0.452338 0
  outer loop
   vertex 1.03383 0.300106 -1
   vertex 1.03383 0.300106 1
   vertex 1.03242 0.302886 -1
  endloop
 endfacet
 facet normal -0.891846 -0.452338 0
  outer loop
   vertex 1.03242 0.302886 -1
   vertex 1.03383 0.300106 1
   vertex 1.03242 0.302886 1
  endloop
 endfacet
 facet normal -0.876665 -0.481101 0
  outer loop
   vertex 1.03242 0.302886 -1
   vertex 1.03242 0.302886 1
   vertex 1.03092 0.30562 -1
  endloop
 endfacet
 facet normal -0.876665 -0.481101 0
  outer loop
   vertex 1.03092 0.30562 -1
   vertex 1.03242 0.302886 1
   vertex 1.03092 0.30562 1
  endloop
 endfacet
 facet normal -0.861751 -0.507332 0
  outer loop
   vertex 1.03092 0.30562 -1
   vertex 1.03092 0.30562 1
   vertex 1.02934 0.308304 -1
  endloop
 endfacet
 facet normal -0.861751 -0.507332 0
  outer loop
   vertex 1.02934 0.308304 -1
   vertex 1.03092 0.30562 1
   vertex 1.02934 0.308304 1
  endloop
 endfacet
 facet normal -0.84432 -0.535839 0
  outer loop
   vertex 1.02934 0.308304 -1
   vertex 1.02934 0.308304 1
   vertex 1.02767 0.310935 -1
  endloop
 endfacet
 facet normal -0.84432 -0.535839 0
  outer loop
   vertex 1.02767 0.310935 -1
   vertex 1.02934 0.308304 1
   vertex 1.02767 0.310935 1
  endloop
 endfacet
 facet normal -0.825718 -0.564083 0
  outer loop
   vertex 1.02767 0.310935 -1
   vertex 1.02767 0.310935 1
   vertex 1.02591 0.313511 -1
  endloop
 endfacet
 facet normal -0.825718 -0.564083 0
  outer loop
   vertex 1.02591 0.313511 -1
   vertex 1.02767 0.310935 1
   vertex 1.02591 0.313511 1
  endloop
 endfacet
 facet normal -0.807466 -0.589914 0
  outer loop
   vertex 1.02591 0.313511 -1
   vertex 1.02591 0.313511 1
   vertex 1.02407 0.31603 -1
  endloop
 endfacet
 facet normal -0.807466 -0.589914 0
  outer loop
   vertex 1.02407 0.31603 -1
   vertex 1.02591 0.313511 1
   vertex 1.02407 0.31603 1
  endloop
 endfacet
 facet normal -0.78967 -0.613532 0
  outer loop
   vertex 1.02407 0.31603 -1
   vertex 1.02407 0.31603 1
   vertex 1.02216 0.318488 -1
  endloop
 endfacet
 facet normal -0.78967 -0.613532 0
  outer loop
   vertex 1.02216 0.318488 -1
   vertex 1.02407 0.31603 1
   vertex 1.02216 0.318488 1
  endloop
 endfacet
 facet normal -0.767589 -0.640942 0
  outer loop
   vertex 1.02216 0.318488 -1
   vertex 1.02216 0.318488 1
   vertex 1.02016 0.320883 -1
  endloop
 endfacet
 facet normal -0.767589 -0.640942 0
  outer loop
   vertex 1.02016 0.320883 -1
   vertex 1.02216 0.318488 1
   vertex 1.02016 0.320883 1
  endloop
 endfacet
 facet normal -0.747608 -0.66414 0
  outer loop
   vertex 1.02016 0.320883 -1
   vertex 1.02016 0.320883 1
   vertex 1.01809 0.323214 -1
  endloop
 endfacet
 facet normal -0.747608 -0.66414 0
  outer loop
   vertex 1.01809 0.323214 -1
   vertex 1.02016 0.320883 1
   vertex 1.01809 0.323214 1
  endloop
 endfacet
 facet normal -0.726463 -0.687205 0
  outer loop
   vertex 1.01809 0.323214 -1
   vertex 1.01809 0.323214 1
   vertex 1.01595 0.325476 -1
  endloop
 endfacet
 facet normal -0.726463 -0.687205 0
  outer loop
   vertex 1.01595 0.325476 -1
   vertex 1.01809 0.323214 1
   vertex 1.01595 0.325476 1
  endloop
 endfacet
 facet normal -0.702651 -0.711535 0
  outer loop
   vertex 1.01595 0.325476 -1
   vertex 1.01595 0.325476 1
   vertex 1.01373 0.327668 -1
  endloop
 endfacet
 facet normal -0.702651 -0.711535 0
  outer loop
   vertex 1.01373 0.327668 -1
   vertex 1.01595 0.325476 1
   vertex 1.01373 0.327668 1
  endloop
 endfacet
 facet normal -0.679325 -0.733837 0
  outer loop
   vertex 1.01373 0.327668 -1
   vertex 1.01373 0.327668 1
   vertex 1.01144 0.329788 -1
  endloop
 endfacet
 facet normal -0.679325 -0.733837 0
  outer loop
   vertex 1.01144 0.329788 -1
   vertex 1.01373 0.327668 1
   vertex 1.01144 0.329788 1
  endloop
 endfacet
 facet normal -0.656479 -0.754345 0
  outer loop
   vertex 1.01144 0.329788 -1
   vertex 1.01144 0.329788 1
   vertex 1.00909 0.331833 -1
  endloop
 endfacet
 facet normal -0.656479 -0.754345 0
  outer loop
   vertex 1.00909 0.331833 -1
   vertex 1.01144 0.329788 1
   vertex 1.00909 0.331833 1
  endloop
 endfacet
 facet normal -0.631074 -0.775723 0
  outer loop
   vertex 1.00909 0.331833 -1
   vertex 1.00909 0.331833 1
   vertex 1.00667 0.333802 -1
  endloop
 endfacet
 facet normal -0.631074 -0.775723 0
  outer loop
   vertex 1.00667 0.333802 -1
   vertex 1.00909 0.331833 1
   vertex 1.00667 0.333802 1
  endloop
 endfacet
 facet normal -0.606136 -0.795361 0
  outer loop
   vertex 1.00667 0.333802 -1
   vertex 1.00667 0.333802 1
   vertex 1.00419 0.335692 -1
  endloop
 endfacet
 facet normal -0.606136 -0.795361 0
  outer loop
   vertex 1.00419 0.335692 -1
   vertex 1.00667 0.333802 1
   vertex 1.00419 0.335692 1
  endloop
 endfacet
 facet normal -0.58018 -0.814488 0
  outer loop
   vertex 1.00419 0.335692 -1
   vertex 1.00419 0.335692 1
   vertex 1.00165 0.337501 -1
  endloop
 endfacet
 facet normal -0.58018 -0.814488 0
  outer loop
   vertex 1.00165 0.337501 -1
   vertex 1.00419 0.335692 1
   vertex 1.00165 0.337501 1
  endloop
 endfacet
 facet normal -0.55461 -0.83211 0
  outer loop
   vertex 1.00165 0.337501 -1
   vertex 1.00165 0.337501 1
   vertex 0.999059 0.339228 -1
  endloop
 endfacet
 facet normal -0.55461 -0.83211 0
  outer loop
   vertex 0.999059 0.339228 -1
   vertex 1.00165 0.337501 1
   vertex 0.999059 0.339228 1
  endloop
 endfacet
 facet normal -0.52682 -0.849977 0
  outer loop
   vertex 0.999059 0.339228 -1
   vertex 0.999059 0.339228 1
   vertex 0.996409 0.340871 -1
  endloop
 endfacet
 facet normal -0.52682 -0.849977 0
  outer loop
   vertex 0.996409 0.340871 -1
   vertex 0.999059 0.339228 1
   vertex 0.996409 0.340871 1
  endloop
 endfacet
 facet normal -0.499299 -0.86643 0
  outer loop
   vertex 0.996409 0.340871 -1
   vertex 0.996409 0.340871 1
   vertex 0.993708 0.342427 -1
  endloop
 endfacet
 facet normal -0.499299 -0.86643 0
  outer loop
   vertex 0.993708 0.342427 -1
   vertex 0.996409 0.340871 1
   vertex 0.993708 0.342427 1
  endloop
 endfacet
 facet normal -0.471191 -0.882031 0
  outer loop
   vertex 0.993708 0.342427 -1
   vertex 0.993708 0.342427 1
   vertex 0.990958 0.343896 -1
  endloop
 endfacet
 facet normal -0.471191 -0.882031 0
  outer loop
   vertex 0.990958 0.343896 -1
   vertex 0.993708 0.342427 1
   vertex 0.990958 0.343896 1
  endloop
 endfacet
 facet normal -0.442667 -0.896686 0
  outer loop
   vertex 0.990958 0.343896 -1
   vertex 0.990958 0.343896 1
   vertex 0.988163 0.345276 -1
  endloop
 endfacet
 facet normal -0.442667 -0.896686 0
  outer loop
   vertex 0.988163 0.345276 -1
   vertex 0.990958 0.343896 1
   vertex 0.988163 0.345276 1
  endloop
 endfacet
 facet normal -0.4135 -0.910504 0
  outer loop
   vertex 0.988163 0.345276 -1
   vertex 0.988163 0.345276 1
   vertex 0.985324 0.346565 -1
  endloop
 endfacet
 facet normal -0.4135 -0.910504 0
  outer loop
   vertex 0.985324 0.346565 -1
   vertex 0.988163 0.345276 1
   vertex 0.985324 0.346565 1
  endloop
 endfacet
 facet normal -0.384131 -0.923279 0
  outer loop
   vertex 0.985324 0.346565 -1
   vertex 0.985324 0.346565 1
   vertex 0.982446 0.347763 -1
  endloop
 endfacet
 facet normal -0.384131 -0.923279 0
  outer loop
   vertex 0.982446 0.347763 -1
   vertex 0.985324 0.346565 1
   vertex 0.982446 0.347763 1
  endloop
 endfacet
 facet normal -0.35429 -0.935136 0
  outer loop
   vertex 0.982446 0.347763 -1
   vertex 0.982446 0.347763 1
   vertex 0.979531 0.348867 -1
  endloop
 endfacet
 facet normal -0.35429 -0.935136 0
  outer loop
   vertex 0.979531 0.348867 -1
   vertex 0.982446 0.347763 1
   vertex 0.979531 0.348867 1
  endloop
 endfacet
 facet normal -0.323942 -0.946077 0
  outer loop
   vertex 0.979531 0.348867 -1
   vertex 0.979531 0.348867 1
   vertex 0.976581 0.349877 -1
  endloop
 endfacet
 facet normal -0.323942 -0.946077 0
  outer loop
   vertex 0.976581 0.349877 -1
   vertex 0.979531 0.348867 1
   vertex 0.976581 0.349877 1
  endloop
 endfacet
 facet normal -0.293494 -0.955961 0
  outer loop
   vertex 0.976581 0.349877 -1
   vertex 0.976581 0.349877 1
   vertex 0.973601 0.350792 -1
  endloop
 endfacet
 facet normal -0.293494 -0.955961 0
  outer loop
   vertex 0.973601 0.350792 -1
   vertex 0.976581 0.349877 1
   vertex 0.973601 0.350792 1
  endloop
 endfacet
 facet normal -0.26259 -0.964908 0
  outer loop
   vertex 0.973601 0.350792 -1
   vertex 0.973601 0.350792 1
   vertex 0.970593 0.351611 -1
  endloop
 endfacet
 facet normal -0.26259 -0.964908 0
  outer loop
   vertex 0.970593 0.351611 -1
   vertex 0.973601 0.350792 1
   vertex 0.970593 0.351611 1
  endloop
 endfacet
 facet normal -0.231426 -0.972852 0
  outer loop
   vertex 0.970593 0.351611 -1
   vertex 0.970593 0.351611 1
   vertex 0.96756 0.352332 -1
  endloop
 endfacet
 facet normal -0.231426 -0.972852 0
  outer loop
   vertex 0.96756 0.352332 -1
   vertex 0.970593 0.351611 1
   vertex 0.96756 0.352332 1
  endloop
 endfacet
 facet normal -0.200092 -0.979777 0
  outer loop
   vertex 0.96756 0.352332 -1
   vertex 0.96756 0.352332 1
   vertex 0.964506 0.352956 -1
  endloop
 endfacet
 facet normal -0.200092 -0.979777 0
  outer loop
   vertex 0.964506 0.352956 -1
   vertex 0.96756 0.352332 1
   vertex 0.964506 0.352956 1
  endloop
 endfacet
 facet normal -0.168467 -0.985707 0
  outer loop
   vertex 0.964506 0.352956 -1
   vertex 0.964506 0.352956 1
   vertex 0.961433 0.353481 -1
  endloop
 endfacet
 facet normal -0.168467 -0.985707 0
  outer loop
   vertex 0.961433 0.353481 -1
   vertex 0.964506 0.352956 1
   vertex 0.961433 0.353481 1
  endloop
 endfacet
 facet normal -0.13671 -0.990611 0
  outer loop
   vertex 0.961433 0.353481 -1
   vertex 0.961433 0.353481 1
   vertex 0.958344 0.353907 -1
  endloop
 endfacet
 facet normal -0.13671 -0.990611 0
  outer loop
   vertex 0.958344 0.353907 -1
   vertex 0.961433 0.353481 1
   vertex 0.958344 0.353907 1
  endloop
 endfacet
 facet normal -0.104838 -0.994489 0
  outer loop
   vertex 0.958344 0.353907 -1
   vertex 0.958344 0.353907 1
   vertex 0.955244 0.354234 -1
  endloop
 endfacet
 facet normal -0.104838 -0.994489 0
  outer loop
   vertex 0.955244 0.354234 -1
   vertex 0.958344 0.353907 1
   vertex 0.955244 0.354234 1
  endloop
 endfacet
 facet normal -0.0728207 -0.997345 0
  outer loop
   vertex 0.955244 0.354234 -1
   vertex 0.955244 0.354234 1
   vertex 0.952135 0.354461 -1
  endloop
 endfacet
 facet normal -0.0728207 -0.997345 0
  outer loop
   vertex 0.952135 0.354461 -1
   vertex 0.955244 0.354234 1
   vertex 0.952135 0.354461 1
  endloop
 endfacet
 facet normal -0.0407053 -0.999171 0
  outer loop
   vertex 0.952135 0.354461 -1
   vertex 0.952135 0.354461 1
   vertex 0.94902 0.354588 -1
  endloop
 endfacet
 facet normal -0.0407053 -0.999171 0
  outer loop
   vertex 0.94902 0.354588 -1
   vertex 0.952135 0.354461 1
   vertex 0.94902 0.354588 1
  endloop
 endfacet
 facet normal -0.999846 -0.0175246 -0
  outer loop
   vertex 0.944863 0.358602 1
   vertex 0.944828 0.360602 1
   vertex 0.944863 0.358602 -1
  endloop
 endfacet
 facet normal -0.999846 -0.0175246 0
  outer loop
   vertex 0.944863 0.358602 -1
   vertex 0.944828 0.360602 1
   vertex 0.944828 0.360602 -1
  endloop
 endfacet
 facet normal 0 0 -1
  outer loop
   vertex 0.944863 0.358602 -1
   vertex 0.944828 0.360602 -1
   vertex 0.94902 0.354588 -1
  endloop
 endfacet
 facet normal 0 0 -1
  outer loop
   vertex 0.94902 0.354588 -1
   vertex 0.944828 0.360602 -1
   vertex 0.948025 0.360608 -1
  endloop
 endfacet
 facet normal 0 0 -1
  outer loop
   vertex 0.94902 0.354588 -1
   vertex 0.948025 0.360608 -1
   vertex 0.952135 0.354461 -1
  endloop
 endfacet
 facet normal 0 0 -1
  outer loop
   vertex 0.952135 0.354461 -1
   vertex 0.948025 0.360608 -1
   vertex 0.951222 0.360515 -1
  endloop
 endfacet
 facet normal 0 0 -1
  outer loop
   vertex 0.952135 0.354461 -1
   vertex 0.951222 0.360515 -1
   vertex 0.955244 0.354234 -1
  endloop
 endfacet
 facet normal 0 0 -1
  outer loop
   vertex 0.955244 0.354234 -1
   vertex 0.951222 0.360515 -1
   vertex 0.954413 0.360323 -1
  endloop
 endfacet
 facet normal 0 0 -1
  outer loop
   vertex 0.955244 0.354234 -1
   vertex 0.954413 0.360323 -1
   vertex 0.958344 0.353907 -1
  endloop
 endfacet
 facet normal 0 0 -1
  outer loop
   vertex 0.958344 0.353907 -1
   vertex 0.954413 0.360323 -1
   vertex 0.957598 0.360032 -1
  endloop
 endfacet
 facet normal 0 0 -1
  outer loop
   vertex 0.958344 0.353907 -1
   vertex 0.957598 0.360032 -1
   vertex 0.961433 0.353481 -1
  endloop
 endfacet
 facet normal 0 0 -1
  outer loop
   vertex 1.04442 0.242113 -1
   vertex 1.04245 0.242426 -1
   vertex 1.04891 0.245376 -1
  endloop
 endfacet
 facet normal -0 0 -1
  outer loop
   vertex 1.04891 0.245376 -1
   vertex 1.04245 0.242426 -1
   vertex 1.04288 0.245513 -1
  endloop
 endfacet
 facet normal 0 0 -1
  outer loop
   vertex 1.04891 0.245376 -1
   vertex 1.04288 0.245513 -1
   vertex 1.04924 0.248557 -1
  endloop
 endfacet
 facet normal -0 0 -1
  outer loop
   vertex 1.04924 0.248557 -1
   vertex 1.04288 0.245513 -1
   vertex 1.04322 0.248612 -1
  endloop
 endfacet
 facet normal 0 0 -1
  outer loop
   vertex 1.04924 0.248557 -1
   vertex 1.04322 0.248612 -1
   vertex 1.04947 0.251746 -1
  endloop
 endfacet
 facet normal 0 0 -1
  outer loop
   vertex 1.04947 0.251746 -1
   vertex 1.04322 0.248612 -1
   vertex 1.04346 0.25172 -1
  endloop
 endfacet
 facet normal -0 0 -1
  outer loop
   vertex 1.04947 0.251746 -1
   vertex 1.04346 0.25172 -1
   vertex 1.04961 0.25494 -1
  endloop
 endfacet
 facet normal 0 0 -1
  outer loop
   vertex 1.04961 0.25494 -1
   vertex 1.04346 0.25172 -1
   vertex 1.0436 0.254835 -1
  endloop
 endfacet
 facet normal -0 0 -1
  outer loop
   vertex 1.04961 0.25494 -1
   vertex 1.0436 0.254835 -1
   vertex 1.04964 0.258138 -1
  endloop
 endfacet
 facet normal 0 0 -1
  outer loop
   vertex 1.04964 0.258138 -1
   vertex 1.0436 0.254835 -1
   vertex 1.04364 0.257952 -1
  endloop
 endfacet
 facet normal -0 0 -1
  outer loop
   vertex 1.04964 0.258138 -1
   vertex 1.04364 0.257952 -1
   vertex 1.04957 0.261334 -1
  endloop
 endfacet
 facet normal 0 0 -1
  outer loop
   vertex 1.04957 0.261334 -1
   vertex 1.04364 0.257952 -1
   vertex 1.04358 0.261069 -1
  endloop
 endfacet
 facet normal -0 0 -1
  outer loop
   vertex 1.04957 0.261334 -1
   vertex 1.04358 0.261069 -1
   vertex 1.04941 0.264528 -1
  endloop
 endfacet
 facet normal 0 0 -1
  outer loop
   vertex 1.04941 0.264528 -1
   vertex 1.04358 0.261069 -1
   vertex 1.04342 0.264182 -1
  endloop
 endfacet
 facet normal -0 0 -1
  outer loop
   vertex 1.04941 0.264528 -1
   vertex 1.04342 0.264182 -1
   vertex 1.04914 0.267714 -1
  endloop
 endfacet
 facet normal 0 0 -1
  outer loop
   vertex 1.04914 0.267714 -1
   vertex 1.04342 0.264182 -1
   vertex 1.04316 0.267289 -1
  endloop
 endfacet
 facet normal -0 0 -1
  outer loop
   vertex 1.04914 0.267714 -1
   vertex 1.04316 0.267289 -1
   vertex 1.04878 0.270891 -1
  endloop
 endfacet
 facet normal 0 0 -1
  outer loop
   vertex 1.04878 0.270891 -1
   vertex 1.04316 0.267289 -1
   vertex 1.0428 0.270385 -1
  endloop
 endfacet
 facet normal -0 0 -1
  outer loop
   vertex 1.04878 0.270891 -1
   vertex 1.0428 0.270385 -1
   vertex 1.04832 0.274055 -1
  endloop
 endfacet
 facet normal 0 0 -1
  outer loop
   vertex 1.04832 0.274055 -1
   vertex 1.0428 0.270385 -1
   vertex 1.04233 0.273469 -1
  endloop
 endfacet
 facet normal -0 0 -1
  outer loop
   vertex 1.04832 0.274055 -1
   vertex 1.04233 0.273469 -1
   vertex 1.04776 0.277203 -1
  endloop
 endfacet
 facet normal 0 0 -1
  outer loop
   vertex 1.04776 0.277203 -1
   vertex 1.04233 0.273469 -1
   vertex 1.04178 0.276536 -1
  endloop
 endfacet
 facet normal -0 0 -1
  outer loop
   vertex 1.04776 0.277203 -1
   vertex 1.04178 0.276536 -1
   vertex 1.0471 0.280332 -1
  endloop
 endfacet
 facet normal 0 0 -1
  outer loop
   vertex 1.0471 0.280332 -1
   vertex 1.04178 0.276536 -1
   vertex 1.04112 0.279583 -1
  endloop
 endfacet
 facet normal -0 0 -1
  outer loop
   vertex 1.0471 0.280332 -1
   vertex 1.04112 0.279583 -1
   vertex 1.04635 0.28344 -1
  endloop
 endfacet
 facet normal 0 0 -1
  outer loop
   vertex 1.04635 0.28344 -1
   vertex 1.04112 0.279583 -1
   vertex 1.04036 0.282608 -1
  endloop
 endfacet
 facet normal -0 0 -1
  outer loop
   vertex 1.04635 0.28344 -1
   vertex 1.04036 0.282608 -1
   vertex 1.0455 0.286522 -1
  endloop
 endfacet
 facet normal 0 0 -1
  outer loop
   vertex 1.0455 0.286522 -1
   vertex 1.04036 0.282608 -1
   vertex 1.03951 0.285607 -1
  endloop
 endfacet
 facet normal -0 0 -1
  outer loop
   vertex 1.0455 0.286522 -1
   vertex 1.03951 0.285607 -1
   vertex 1.04455 0.289577 -1
  endloop
 endfacet
 facet normal 0 0 -1
  outer loop
   vertex 1.04455 0.289577 -1
   vertex 1.03951 0.285607 -1
   vertex 1.03856 0.288577 -1
  endloop
 endfacet
 facet normal -0 0 -1
  outer loop
   vertex 1.04455 0.289577 -1
   vertex 1.03856 0.288577 -1
   vertex 1.04351 0.292601 -1
  endloop
 endfacet
 facet normal 0 0 -1
  outer loop
   vertex 1.04351 0.292601 -1
   vertex 1.03856 0.288577 -1
   vertex 1.03752 0.291514 -1
  endloop
 endfacet
 facet normal -0 0 -1
  outer loop
   vertex 1.04351 0.292601 -1
   vertex 1.03752 0.291514 -1
   vertex 1.04238 0.295591 -1
  endloop
 endfacet
 facet normal 0 0 -1
  outer loop
   vertex 1.04238 0.295591 -1
   vertex 1.03752 0.291514 -1
   vertex 1.03638 0.294417 -1
  endloop
 endfacet
 facet normal -0 0 -1
  outer loop
   vertex 1.04238 0.295591 -1
   vertex 1.03638 0.294417 -1
   vertex 1.04116 0.298544 -1
  endloop
 endfacet
 facet normal 0 0 -1
  outer loop
   vertex 1.04116 0.298544 -1
   vertex 1.03638 0.294417 -1
   vertex 1.03516 0.297282 -1
  endloop
 endfacet
 facet normal -0 0 -1
  outer loop
   vertex 1.04116 0.298544 -1
   vertex 1.03516 0.297282 -1
   vertex 1.03984 0.301458 -1
  endloop
 endfacet
 facet normal 0 0 -1
  outer loop
   vertex 1.03984 0.301458 -1
   vertex 1.03516 0.297282 -1
   vertex 1.03383 0.300106 -1
  endloop
 endfacet
 facet normal -0 0 -1
  outer loop
   vertex 1.03984 0.301458 -1
   vertex 1.03383 0.300106 -1
   vertex 1.03843 0.30433 -1
  endloop
 endfacet
 facet normal 0 0 -1
  outer loop
   vertex 1.03843 0.30433 -1
   vertex 1.03383 0.300106 -1
   vertex 1.03242 0.302886 -1
  endloop
 endfacet
 facet normal -0 0 -1
  outer loop
   vertex 1.03843 0.30433 -1
   vertex 1.03242 0.302886 -1
   vertex 1.03694 0.307157 -1
  endloop
 endfacet
 facet normal 0 0 -1
  outer loop
   vertex 1.03694 0.307157 -1
   vertex 1.03242 0.302886 -1
   vertex 1.03092 0.30562 -1
  endloop
 endfacet
 facet normal 0 0 -1
  outer loop
   vertex 0.957598 0.360032 -1
   vertex 0.960771 0.359642 -1
   vertex 0.961433 0.353481 -1
  endloop
 endfacet
 facet normal 0 0 -1
  outer loop
   vertex 0.961433 0.353481 -1
   vertex 0.960771 0.359642 -1
   vertex 0.963931 0.359154 -1
  endloop
 endfacet
 facet normal 0 0 -1
  outer loop
   vertex 0.961433 0.353481 -1
   vertex 0.963931 0.359154 -1
   vertex 0.964506 0.352956 -1
  endloop
 endfacet
 facet normal 0 0 -1
  outer loop
   vertex 0.964506 0.352956 -1
   vertex 0.963931 0.359154 -1
   vertex 0.967075 0.358568 -1
  endloop
 endfacet
 facet normal 0 0 -1
  outer loop
   vertex 0.964506 0.352956 -1
   vertex 0.967075 0.358568 -1
   vertex 0.96756 0.352332 -1
  endloop
 endfacet
 facet normal 0 0 -1
  outer loop
   vertex 0.96756 0.352332 -1
   vertex 0.967075 0.358568 -1
   vertex 0.970198 0.357884 -1
  endloop
 endfacet
 facet normal 0 0 -1
  outer loop
   vertex 0.96756 0.352332 -1
   vertex 0.970198 0.357884 -1
   vertex 0.970593 0.351611 -1
  endloop
 endfacet
 facet normal 0 0 -1
  outer loop
   vertex 0.970593 0.351611 -1
   vertex 0.970198 0.357884 -1
   vertex 0.973299 0.357105 -1
  endloop
 endfacet
 facet normal 0 0 -1
  outer loop
   vertex 0.970593 0.351611 -1
   vertex 0.973299 0.357105 -1
   vertex 0.973601 0.350792 -1
  endloop
 endfacet
 facet normal 0 0 -1
  outer loop
   vertex 0.973601 0.350792 -1
   vertex 0.973299 0.357105 -1
   vertex 0.976374 0.356229 -1
  endloop
 endfacet
 facet normal 0 0 -1
  outer loop
   vertex 0.973601 0.350792 -1
   vertex 0.976374 0.356229 -1
   vertex 0.976581 0.349877 -1
  endloop
 endfacet
 facet normal 0 0 -1
  outer loop
   vertex 0.976581 0.349877 -1
   vertex 0.976374 0.356229 -1
   vertex 0.979421 0.355258 -1
  endloop
 endfacet
 facet normal 0 0 -1
  outer loop
   vertex 0.976581 0.349877 -1
   vertex 0.979421 0.355258 -1
   vertex 0.979531 0.348867 -1
  endloop
 endfacet
 facet normal 0 0 -1
  outer loop
   vertex 0.979531 0.348867 -1
   vertex 0.979421 0.355258 -1
   vertex 0.982436 0.354193 -1
  endloop
 endfacet
 facet normal 0 0 -1
  outer loop
   vertex 0.979531 0.348867 -1
   vertex 0.982436 0.354193 -1
   vertex 0.982446 0.347763 -1
  endloop
 endfacet
 facet normal 0 0 -1
  outer loop
   vertex 0.982446 0.347763 -1
   vertex 0.982436 0.354193 -1
   vertex 0.985416 0.353035 -1
  endloop
 endfacet
 facet normal 0 0 -1
  outer loop
   vertex 0.982446 0.347763 -1
   vertex 0.985416 0.353035 -1
   vertex 0.985324 0.346565 -1
  endloop
 endfacet
 facet normal 0 0 -1
  outer loop
   vertex 0.985324 0.346565 -1
   vertex 0.985416 0.353035 -1
   vertex 0.988359 0.351785 -1
  endloop
 endfacet
 facet normal 0 0 -1
  outer loop
   vertex 0.985324 0.346565 -1
   vertex 0.988359 0.351785 -1
   vertex 0.988163 0.345276 -1
  endloop
 endfacet
 facet normal 0 0 -1
  outer loop
   vertex 0.988163 0.345276 -1
   vertex 0.988359 0.351785 -1
   vertex 0.991262 0.350445 -1
  endloop
 endfacet
 facet normal 0 0 -1
  outer loop
   vertex 0.988163 0.345276 -1
   vertex 0.991262 0.350445 -1
   vertex 0.990958 0.343896 -1
  endloop
 endfacet
 facet normal 0 0 -1
  outer loop
   vertex 0.990958 0.343896 -1
   vertex 0.991262 0.350445 -1
   vertex 0.994122 0.349015 -1
  endloop
 endfacet
 facet normal 0 0 -1
  outer loop
   vertex 0.990958 0.343896 -1
   vertex 0.994122 0.349015 -1
   vertex 0.993708 0.342427 -1
  endloop
 endfacet
 facet normal 0 0 -1
  outer loop
   vertex 0.993708 0.342427 -1
   vertex 0.994122 0.349015 -1
   vertex 0.996936 0.347497 -1
  endloop
 endfacet
 facet normal 0 0 -1
  outer loop
   vertex 0.993708 0.342427 -1
   vertex 0.996936 0.347497 -1
   vertex 0.996409 0.340871 -1
  endloop
 endfacet
 facet normal 0 0 -1
  outer loop
   vertex 0.996409 0.340871 -1
   vertex 0.996936 0.347497 -1
   vertex 0.999702 0.345892 -1
  endloop
 endfacet
 facet normal 0 0 -1
  outer loop
   vertex 0.996409 0.340871 -1
   vertex 0.999702 0.345892 -1
   vertex 0.999059 0.339228 -1
  endloop
 endfacet
 facet normal 0 0 -1
  outer loop
   vertex 0.999059 0.339228 -1
   vertex 0.999702 0.345892 -1
   vertex 1.00242 0.344202 -1
  endloop
 endfacet
 facet normal 0 0 -1
  outer loop
   vertex 0.999059 0.339228 -1
   vertex 1.00242 0.344202 -1
   vertex 1.00165 0.337501 -1
  endloop
 endfacet
 facet normal 0 0 -1
  outer loop
   vertex 1.00165 0.337501 -1
   vertex 1.00242 0.344202 -1
   vertex 1.00508 0.342429 -1
  endloop
 endfacet
 facet normal 0 0 -1
  outer loop
   vertex 1.00165 0.337501 -1
   vertex 1.00508 0.342429 -1
   vertex 1.00419 0.335692 -1
  endloop
 endfacet
 facet normal 0 0 -1
  outer loop
   vertex 1.00419 0.335692 -1
   vertex 1.00508 0.342429 -1
   vertex 1.00768 0.340574 -1
  endloop
 endfacet
 facet normal 0 0 -1
  outer loop
   vertex 1.00419 0.335692 -1
   vertex 1.00768 0.340574 -1
   vertex 1.00667 0.333802 -1
  endloop
 endfacet
 facet normal 0 0 -1
  outer loop
   vertex 1.00667 0.333802 -1
   vertex 1.00768 0.340574 -1
   vertex 1.01023 0.338639 -1
  endloop
 endfacet
 facet normal 0 0 -1
  outer loop
   vertex 1.00667 0.333802 -1
   vertex 1.01023 0.338639 -1
   vertex 1.00909 0.331833 -1
  endloop
 endfacet
 facet normal 0 0 -1
  outer loop
   vertex 1.00909 0.331833 -1
   vertex 1.01023 0.338639 -1
   vertex 1.01271 0.336626 -1
  endloop
 endfacet
 facet normal 0 0 -1
  outer loop
   vertex 1.00909 0.331833 -1
   vertex 1.01271 0.336626 -1
   vertex 1.01144 0.329788 -1
  endloop
 endfacet
 facet normal 0 0 -1
  outer loop
   vertex 1.01144 0.329788 -1
   vertex 1.01271 0.336626 -1
   vertex 1.01513 0.334537 -1
  endloop
 endfacet
 facet normal 0 0 -1
  outer loop
   vertex 1.01144 0.329788 -1
   vertex 1.01513 0.334537 -1
   vertex 1.01373 0.327668 -1
  endloop
 endfacet
 facet normal 0 0 -1
  outer loop
   vertex 1.01373 0.327668 -1
   vertex 1.01513 0.334537 -1
   vertex 1.01749 0.332374 -1
  endloop
 endfacet
 facet normal 0 0 -1
  outer loop
   vertex 1.01373 0.327668 -1
   vertex 1.01749 0.332374 -1
   vertex 1.01595 0.325476 -1
  endloop
 endfacet
 facet normal 0 0 -1
  outer loop
   vertex 1.01595 0.325476 -1
   vertex 1.01749 0.332374 -1
   vertex 1.01977 0.330139 -1
  endloop
 endfacet
 facet normal 0 0 -1
  outer loop
   vertex 1.01595 0.325476 -1
   vertex 1.01977 0.330139 -1
   vertex 1.01809 0.323214 -1
  endloop
 endfacet
 facet normal 0 0 -1
  outer loop
   vertex 1.01809 0.323214 -1
   vertex 1.01977 0.330139 -1
   vertex 1.02199 0.327834 -1
  endloop
 endfacet
 facet normal 0 0 -1
  outer loop
   vertex 1.01809 0.323214 -1
   vertex 1.02199 0.327834 -1
   vertex 1.02016 0.320883 -1
  endloop
 endfacet
 facet normal 0 0 -1
  outer loop
   vertex 1.02016 0.320883 -1
   vertex 1.02199 0.327834 -1
   vertex 1.02413 0.325461 -1
  endloop
 endfacet
 facet normal 0 0 -1
  outer loop
   vertex 1.02016 0.320883 -1
   vertex 1.02413 0.325461 -1
   vertex 1.02216 0.318488 -1
  endloop
 endfacet
 facet normal 0 0 -1
  outer loop
   vertex 1.02216 0.318488 -1
   vertex 1.02413 0.325461 -1
   vertex 1.0262 0.323023 -1
  endloop
 endfacet
 facet normal 0 0 -1
  outer loop
   vertex 1.02216 0.318488 -1
   vertex 1.0262 0.323023 -1
   vertex 1.02407 0.31603 -1
  endloop
 endfacet
 facet normal 0 0 -1
  outer loop
   vertex 1.02407 0.31603 -1
   vertex 1.0262 0.323023 -1
   vertex 1.02819 0.320522 -1
  endloop
 endfacet
 facet normal 0 0 -1
  outer loop
   vertex 1.02407 0.31603 -1
   vertex 1.02819 0.320522 -1
   vertex 1.02591 0.313511 -1
  endloop
 endfacet
 facet normal 0 0 -1
  outer loop
   vertex 1.02591 0.313511 -1
   vertex 1.02819 0.320522 -1
   vertex 1.03011 0.31796 -1
  endloop
 endfacet
 facet normal 0 0 -1
  outer loop
   vertex 1.02591 0.313511 -1
   vertex 1.03011 0.31796 -1
   vertex 1.02767 0.310935 -1
  endloop
 endfacet
 facet normal 0 0 -1
  outer loop
   vertex 1.02767 0.310935 -1
   vertex 1.03011 0.31796 -1
   vertex 1.03194 0.31534 -1
  endloop
 endfacet
 facet normal 0 0 -1
  outer loop
   vertex 1.02767 0.310935 -1
   vertex 1.03194 0.31534 -1
   vertex 1.02934 0.308304 -1
  endloop
 endfacet
 facet normal 0 0 -1
  outer loop
   vertex 1.02934 0.308304 -1
   vertex 1.03194 0.31534 -1
   vertex 1.03369 0.312664 -1
  endloop
 endfacet
 facet normal 0 0 -1
  outer loop
   vertex 1.02934 0.308304 -1
   vertex 1.03369 0.312664 -1
   vertex 1.03092 0.30562 -1
  endloop
 endfacet
 facet normal 0 0 -1
  outer loop
   vertex 1.03092 0.30562 -1
   vertex 1.03369 0.312664 -1
   vertex 1.03536 0.309936 -1
  endloop
 endfacet
 facet normal 0 0 -1
  outer loop
   vertex 1.03092 0.30562 -1
   vertex 1.03536 0.309936 -1
   vertex 1.03694 0.307157 -1
  endloop
 endfacet
 facet normal -0 0 1
  outer loop
   vertex 0.944828 0.360602 1
   vertex 0.944863 0.358602 1
   vertex 0.948025 0.360608 1
  endloop
 endfacet
 facet normal 0 0 1
  outer loop
   vertex 0.948025 0.360608 1
   vertex 0.944863 0.358602 1
   vertex 0.94902 0.354588 1
  endloop
 endfacet
 facet normal 0 0 1
  outer loop
   vertex 0.948025 0.360608 1
   vertex 0.94902 0.354588 1
   vertex 0.951222 0.360515 1
  endloop
 endfacet
 facet normal 0 0 1
  outer loop
   vertex 0.951222 0.360515 1
   vertex 0.94902 0.354588 1
   vertex 0.952135 0.354461 1
  endloop
 endfacet
 facet normal 0 0 1
  outer loop
   vertex 0.951222 0.360515 1
   vertex 0.952135 0.354461 1
   vertex 0.954413 0.360323 1
  endloop
 endfacet
 facet normal 0 0 1
  outer loop
   vertex 0.954413 0.360323 1
   vertex 0.952135 0.354461 1
   vertex 0.955244 0.354234 1
  endloop
 endfacet
 facet normal 0 0 1
  outer loop
   vertex 0.954413 0.360323 1
   vertex 0.955244 0.354234 1
   vertex 0.957598 0.360032 1
  endloop
 endfacet
 facet normal 0 0 1
  outer loop
   vertex 0.957598 0.360032 1
   vertex 0.955244 0.354234 1
   vertex 0.958344 0.353907 1
  endloop
 endfacet
 facet normal 0 0 1
  outer loop
   vertex 0.957598 0.360032 1
   vertex 0.958344 0.353907 1
   vertex 0.960771 0.359642 1
  endloop
 endfacet
 facet normal 0 0 1
  outer loop
   vertex 0.960771 0.359642 1
   vertex 0.958344 0.353907 1
   vertex 0.961433 0.353481 1
  endloop
 endfacet
 facet normal 0 0 1
  outer loop
   vertex 0.960771 0.359642 1
   vertex 0.961433 0.353481 1
   vertex 0.963931 0.359154 1
  endloop
 endfacet
 facet normal 0 0 1
  outer loop
   vertex 0.963931 0.359154 1
   vertex 0.961433 0.353481 1
   vertex 0.964506 0.352956 1
  endloop
 endfacet
 facet normal -0 0 1
  outer loop
   vertex 1.04245 0.242426 1
   vertex 1.04442 0.242113 1
   vertex 1.04288 0.245513 1
  endloop
 endfacet
 facet normal 0 0 1
  outer loop
   vertex 1.04288 0.245513 1
   vertex 1.04442 0.242113 1
   vertex 1.04891 0.245376 1
  endloop
 endfacet
 facet normal -0 0 1
  outer loop
   vertex 1.04288 0.245513 1
   vertex 1.04891 0.245376 1
   vertex 1.04322 0.248612 1
  endloop
 endfacet
 facet normal 0 0 1
  outer loop
   vertex 1.04322 0.248612 1
   vertex 1.04891 0.245376 1
   vertex 1.04924 0.248557 1
  endloop
 endfacet
 facet normal -0 0 1
  outer loop
   vertex 1.04322 0.248612 1
   vertex 1.04924 0.248557 1
   vertex 1.04346 0.25172 1
  endloop
 endfacet
 facet normal -0 0 1
  outer loop
   vertex 1.04346 0.25172 1
   vertex 1.04924 0.248557 1
   vertex 1.04947 0.251746 1
  endloop
 endfacet
 facet normal 0 0 1
  outer loop
   vertex 1.04346 0.25172 1
   vertex 1.04947 0.251746 1
   vertex 1.0436 0.254835 1
  endloop
 endfacet
 facet normal -0 0 1
  outer loop
   vertex 1.0436 0.254835 1
   vertex 1.04947 0.251746 1
   vertex 1.04961 0.25494 1
  endloop
 endfacet
 facet normal 0 0 1
  outer loop
   vertex 1.0436 0.254835 1
   vertex 1.04961 0.25494 1
   vertex 1.04364 0.257952 1
  endloop
 endfacet
 facet normal -0 0 1
  outer loop
   vertex 1.04364 0.257952 1
   vertex 1.04961 0.25494 1
   vertex 1.04964 0.258138 1
  endloop
 endfacet
 facet normal 0 -0 1
  outer loop
   vertex 1.04364 0.257952 1
   vertex 1.04964 0.258138 1
   vertex 1.04358 0.261069 1
  endloop
 endfacet
 facet normal -0 0 1
  outer loop
   vertex 1.04358 0.261069 1
   vertex 1.04964 0.258138 1
   vertex 1.04957 0.261334 1
  endloop
 endfacet
 facet normal 0 -0 1
  outer loop
   vertex 1.04358 0.261069 1
   vertex 1.04957 0.261334 1
   vertex 1.04342 0.264182 1
  endloop
 endfacet
 facet normal -0 0 1
  outer loop
   vertex 1.04342 0.264182 1
   vertex 1.04957 0.261334 1
   vertex 1.04941 0.264528 1
  endloop
 endfacet
 facet normal 0 -0 1
  outer loop
   vertex 1.04342 0.264182 1
   vertex 1.04941 0.264528 1
   vertex 1.04316 0.267289 1
  endloop
 endfacet
 facet normal -0 0 1
  outer loop
   vertex 1.04316 0.267289 1
   vertex 1.04941 0.264528 1
   vertex 1.04914 0.267714 1
  endloop
 endfacet
 facet normal 0 -0 1
  outer loop
   vertex 1.04316 0.267289 1
   vertex 1.04914 0.267714 1
   vertex 1.0428 0.270385 1
  endloop
 endfacet
 facet normal -0 0 1
  outer loop
   vertex 1.0428 0.270385 1
   vertex 1.04914 0.267714 1
   vertex 1.04878 0.270891 1
  endloop
 endfacet
 facet normal 0 -0 1
  outer loop
   vertex 1.0428 0.270385 1
   vertex 1.04878 0.270891 1
   vertex 1.04233 0.273469 1
  endloop
 endfacet
 facet normal -0 0 1
  outer loop
   vertex 1.04233 0.273469 1
   vertex 1.04878 0.270891 1
   vertex 1.04832 0.274055 1
  endloop
 endfacet
 facet normal 0 -0 1
  outer loop
   vertex 1.04233 0.273469 1
   vertex 1.04832 0.274055 1
   vertex 1.04178 0.276536 1
  endloop
 endfacet
 facet normal -0 0 1
  outer loop
   vertex 1.04178 0.276536 1
   vertex 1.04832 0.274055 1
   vertex 1.04776 0.277203 1
  endloop
 endfacet
 facet normal 0 -0 1
  outer loop
   vertex 1.04178 0.276536 1
   vertex 1.04776 0.277203 1
   vertex 1.04112 0.279583 1
  endloop
 endfacet
 facet normal -0 0 1
  outer loop
   vertex 1.04112 0.279583 1
   vertex 1.04776 0.277203 1
   vertex 1.0471 0.280332 1
  endloop
 endfacet
 facet normal 0 -0 1
  outer loop
   vertex 1.04112 0.279583 1
   vertex 1.0471 0.280332 1
   vertex 1.04036 0.282608 1
  endloop
 endfacet
 facet normal -0 0 1
  outer loop
   vertex 1.04036 0.282608 1
   vertex 1.0471 0.280332 1
   vertex 1.04635 0.28344 1
  endloop
 endfacet
 facet normal 0 -0 1
  outer loop
   vertex 1.04036 0.282608 1
   vertex 1.04635 0.28344 1
   vertex 1.03951 0.285607 1
  endloop
 endfacet
 facet normal -0 0 1
  outer loop
   vertex 1.03951 0.285607 1
   vertex 1.04635 0.28344 1
   vertex 1.0455 0.286522 1
  endloop
 endfacet
 facet normal 0 -0 1
  outer loop
   vertex 1.03951 0.285607 1
   vertex 1.0455 0.286522 1
   vertex 1.03856 0.288577 1
  endloop
 endfacet
 facet normal -0 0 1
  outer loop
   vertex 1.03856 0.288577 1
   vertex 1.0455 0.286522 1
   vertex 1.04455 0.289577 1
  endloop
 endfacet
 facet normal 0 -0 1
  outer loop
   vertex 1.03856 0.288577 1
   vertex 1.04455 0.289577 1
   vertex 1.03752 0.291514 1
  endloop
 endfacet
 facet normal -0 0 1
  outer loop
   vertex 1.03752 0.291514 1
   vertex 1.04455 0.289577 1
   vertex 1.04351 0.292601 1
  endloop
 endfacet
 facet normal 0 -0 1
  outer loop
   vertex 1.03752 0.291514 1
   vertex 1.04351 0.292601 1
   vertex 1.03638 0.294417 1
  endloop
 endfacet
 facet normal -0 0 1
  outer loop
   vertex 1.03638 0.294417 1
   vertex 1.04351 0.292601 1
   vertex 1.04238 0.295591 1
  endloop
 endfacet
 facet normal 0 -0 1
  outer loop
   vertex 1.03638 0.294417 1
   vertex 1.04238 0.295591 1
   vertex 1.03516 0.297282 1
  endloop
 endfacet
 facet normal -0 0 1
  outer loop
   vertex 1.03516 0.297282 1
   vertex 1.04238 0.295591 1
   vertex 1.04116 0.298544 1
  endloop
 endfacet
 facet normal 0 -0 1
  outer loop
   vertex 1.03516 0.297282 1
   vertex 1.04116 0.298544 1
   vertex 1.03383 0.300106 1
  endloop
 endfacet
 facet normal -0 0 1
  outer loop
   vertex 1.03383 0.300106 1
   vertex 1.04116 0.298544 1
   vertex 1.03984 0.301458 1
  endloop
 endfacet
 facet normal 0 -0 1
  outer loop
   vertex 1.03383 0.300106 1
   vertex 1.03984 0.301458 1
   vertex 1.03242 0.302886 1
  endloop
 endfacet
 facet normal 0 0 1
  outer loop
   vertex 1.03984 0.301458 1
   vertex 1.03843 0.30433 1
   vertex 1.03242 0.302886 1
  endloop
 endfacet
 facet normal 0 0 1
  outer loop
   vertex 1.03242 0.302886 1
   vertex 1.03843 0.30433 1
   vertex 1.03694 0.307157 1
  endloop
 endfacet
 facet normal 0 -0 1
  outer loop
   vertex 1.03242 0.302886 1
   vertex 1.03694 0.307157 1
   vertex 1.03092 0.30562 1
  endloop
 endfacet
 facet normal 0 0 1
  outer loop
   vertex 1.03092 0.30562 1
   vertex 1.03694 0.307157 1
   vertex 1.03536 0.309936 1
  endloop
 endfacet
 facet normal 0 -0 1
  outer loop
   vertex 1.03092 0.30562 1
   vertex 1.03536 0.309936 1
   vertex 1.02934 0.308304 1
  endloop
 endfacet
 facet normal 0 0 1
  outer loop
   vertex 1.02934 0.308304 1
   vertex 1.03536 0.309936 1
   vertex 1.03369 0.312664 1
  endloop
 endfacet
 facet normal 0 -0 1
  outer loop
   vertex 1.02934 0.308304 1
   vertex 1.03369 0.312664 1
   vertex 1.02767 0.310935 1
  endloop
 endfacet
 facet normal 0 0 1
  outer loop
   vertex 1.02767 0.310935 1
   vertex 1.03369 0.312664 1
   vertex 1.03194 0.31534 1
  endloop
 endfacet
 facet normal 0 -0 1
  outer loop
   vertex 1.02767 0.310935 1
   vertex 1.03194 0.31534 1
   vertex 1.02591 0.313511 1
  endloop
 endfacet
 facet normal 0 0 1
  outer loop
   vertex 1.02591 0.313511 1
   vertex 1.03194 0.31534 1
   vertex 1.03011 0.31796 1
  endloop
 endfacet
 facet normal 0 -0 1
  outer loop
   vertex 1.02591 0.313511 1
   vertex 1.03011 0.31796 1
   vertex 1.02407 0.31603 1
  endloop
 endfacet
 facet normal 0 0 1
  outer loop
   vertex 1.02407 0.31603 1
   vertex 1.03011 0.31796 1
   vertex 1.02819 0.320522 1
  endloop
 endfacet
 facet normal 0 -0 1
  outer loop
   vertex 1.02407 0.31603 1
   vertex 1.02819 0.320522 1
   vertex 1.02216 0.318488 1
  endloop
 endfacet
 facet normal 0 0 1
  outer loop
   vertex 1.02216 0.318488 1
   vertex 1.02819 0.320522 1
   vertex 1.0262 0.323023 1
  endloop
 endfacet
 facet normal 0 -0 1
  outer loop
   vertex 1.02216 0.318488 1
   vertex 1.0262 0.323023 1
   vertex 1.02016 0.320883 1
  endloop
 endfacet
 facet normal 0 0 1
  outer loop
   vertex 1.02016 0.320883 1
   vertex 1.0262 0.323023 1
   vertex 1.02413 0.325461 1
  endloop
 endfacet
 facet normal 0 -0 1
  outer loop
   vertex 1.02016 0.320883 1
   vertex 1.02413 0.325461 1
   vertex 1.01809 0.323214 1
  endloop
 endfacet
 facet normal 0 0 1
  outer loop
   vertex 1.01809 0.323214 1
   vertex 1.02413 0.325461 1
   vertex 1.02199 0.327834 1
  endloop
 endfacet
 facet normal 0 -0 1
  outer loop
   vertex 1.01809 0.323214 1
   vertex 1.02199 0.327834 1
   vertex 1.01595 0.325476 1
  endloop
 endfacet
 facet normal 0 0 1
  outer loop
   vertex 1.01595 0.325476 1
   vertex 1.02199 0.327834 1
   vertex 1.01977 0.330139 1
  endloop
 endfacet
 facet normal 0 -0 1
  outer loop
   vertex 1.01595 0.325476 1
   vertex 1.01977 0.330139 1
   vertex 1.01373 0.327668 1
  endloop
 endfacet
 facet normal 0 0 1
  outer loop
   vertex 1.01373 0.327668 1
   vertex 1.01977 0.330139 1
   vertex 1.01749 0.332374 1
  endloop
 endfacet
 facet normal 0 -0 1
  outer loop
   vertex 1.01373 0.327668 1
   vertex 1.01749 0.332374 1
   vertex 1.01144 0.329788 1
  endloop
 endfacet
 facet normal 0 0 1
  outer loop
   vertex 1.01144 0.329788 1
   vertex 1.01749 0.332374 1
   vertex 1.01513 0.334537 1
  endloop
 endfacet
 facet normal 0 -0 1
  outer loop
   vertex 1.01144 0.329788 1
   vertex 1.01513 0.334537 1
   vertex 1.00909 0.331833 1
  endloop
 endfacet
 facet normal 0 0 1
  outer loop
   vertex 1.00909 0.331833 1
   vertex 1.01513 0.334537 1
   vertex 1.01271 0.336626 1
  endloop
 endfacet
 facet normal 0 -0 1
  outer loop
   vertex 1.00909 0.331833 1
   vertex 1.01271 0.336626 1
   vertex 1.00667 0.333802 1
  endloop
 endfacet
 facet normal 0 0 1
  outer loop
   vertex 1.00667 0.333802 1
   vertex 1.01271 0.336626 1
   vertex 1.01023 0.338639 1
  endloop
 endfacet
 facet normal 0 -0 1
  outer loop
   vertex 1.00667 0.333802 1
   vertex 1.01023 0.338639 1
   vertex 1.00419 0.335692 1
  endloop
 endfacet
 facet normal 0 0 1
  outer loop
   vertex 1.00419 0.335692 1
   vertex 1.01023 0.338639 1
   vertex 1.00768 0.340574 1
  endloop
 endfacet
 facet normal 0 -0 1
  outer loop
   vertex 1.00419 0.335692 1
   vertex 1.00768 0.340574 1
   vertex 1.00165 0.337501 1
  endloop
 endfacet
 facet normal 0 0 1
  outer loop
   vertex 1.00165 0.337501 1
   vertex 1.00768 0.340574 1
   vertex 1.00508 0.342429 1
  endloop
 endfacet
 facet normal 0 -0 1
  outer loop
   vertex 1.00165 0.337501 1
   vertex 1.00508 0.342429 1
   vertex 0.999059 0.339228 1
  endloop
 endfacet
 facet normal 0 0 1
  outer loop
   vertex 0.999059 0.339228 1
   vertex 1.00508 0.342429 1
   vertex 1.00242 0.344202 1
  endloop
 endfacet
 facet normal 0 -0 1
  outer loop
   vertex 0.999059 0.339228 1
   vertex 1.00242 0.344202 1
   vertex 0.996409 0.340871 1
  endloop
 endfacet
 facet normal 0 0 1
  outer loop
   vertex 0.996409 0.340871 1
   vertex 1.00242 0.344202 1
   vertex 0.999702 0.345892 1
  endloop
 endfacet
 facet normal 0 -0 1
  outer loop
   vertex 0.996409 0.340871 1
   vertex 0.999702 0.345892 1
   vertex 0.993708 0.342427 1
  endloop
 endfacet
 facet normal 0 0 1
  outer loop
   vertex 0.993708 0.342427 1
   vertex 0.999702 0.345892 1
   vertex 0.996936 0.347497 1
  endloop
 endfacet
 facet normal 0 -0 1
  outer loop
   vertex 0.993708 0.342427 1
   vertex 0.996936 0.347497 1
   vertex 0.990958 0.343896 1
  endloop
 endfacet
 facet normal 0 0 1
  outer loop
   vertex 0.990958 0.343896 1
   vertex 0.996936 0.347497 1
   vertex 0.994122 0.349015 1
  endloop
 endfacet
 facet normal 0 -0 1
  outer loop
   vertex 0.990958 0.343896 1
   vertex 0.994122 0.349015 1
   vertex 0.988163 0.345276 1
  endloop
 endfacet
 facet normal 0 0 1
  outer loop
   vertex 0.988163 0.345276 1
   vertex 0.994122 0.349015 1
   vertex 0.991262 0.350445 1
  endloop
 endfacet
 facet normal 0 -0 1
  outer loop
   vertex 0.988163 0.345276 1
   vertex 0.991262 0.350445 1
   vertex 0.985324 0.346565 1
  endloop
 endfacet
 facet normal 0 0 1
  outer loop
   vertex 0.985324 0.346565 1
   vertex 0.991262 0.350445 1
   vertex 0.988359 0.351785 1
  endloop
 endfacet
 facet normal 0 -0 1
  outer loop
   vertex 0.985324 0.346565 1
   vertex 0.988359 0.351785 1
   vertex 0.982446 0.347763 1
  endloop
 endfacet
 facet normal 0 0 1
  outer loop
   vertex 0.982446 0.347763 1
   vertex 0.988359 0.351785 1
   vertex 0.985416 0.353035 1
  endloop
 endfacet
 facet normal 0 -0 1
  outer loop
   vertex 0.982446 0.347763 1
   vertex 0.985416 0.353035 1
   vertex 0.979531 0.348867 1
  endloop
 endfacet
 facet normal 0 0 1
  outer loop
   vertex 0.979531 0.348867 1
   vertex 0.985416 0.353035 1
   vertex 0.982436 0.354193 1
  endloop
 endfacet
 facet normal 0 -0 1
  outer loop
   vertex 0.979531 0.348867 1
   vertex 0.982436 0.354193 1
   vertex 0.976581 0.349877 1
  endloop
 endfacet
 facet normal 0 0 1
  outer loop
   vertex 0.976581 0.349877 1
   vertex 0.982436 0.354193 1
   vertex 0.979421 0.355258 1
  endloop
 endfacet
 facet normal 0 -0 1
  outer loop
   vertex 0.976581 0.349877 1
   vertex 0.979421 0.355258 1
   vertex 0.973601 0.350792 1
  endloop
 endfacet
 facet normal 0 0 1
  outer loop
   vertex 0.973601 0.350792 1
   vertex 0.979421 0.355258 1
   vertex 0.976374 0.356229 1
  endloop
 endfacet
 facet normal 0 -0 1
  outer loop
   vertex 0.973601 0.350792 1
   vertex 0.976374 0.356229 1
   vertex 0.970593 0.351611 1
  endloop
 endfacet
 facet normal 0 0 1
  outer loop
   vertex 0.970593 0.351611 1
   vertex 0.976374 0.356229 1
   vertex 0.973299 0.357105 1
  endloop
 endfacet
 facet normal 0 -0 1
  outer loop
   vertex 0.970593 0.351611 1
   vertex 0.973299 0.357105 1
   vertex 0.96756 0.352332 1
  endloop
 endfacet
 facet normal 0 0 1
  outer loop
   vertex 0.96756 0.352332 1
   vertex 0.973299 0.357105 1
   vertex 0.970198 0.357884 1
  endloop
 endfacet
 facet normal 0 -0 1
  outer loop
   vertex 0.96756 0.352332 1
   vertex 0.970198 0.357884 1
   vertex 0.964506 0.352956 1
  endloop
 endfacet
 facet normal 0 0 1
  outer loop
   vertex 0.964506 0.352956 1
   vertex 0.970198 0.357884 1
   vertex 0.967075 0.358568 1
  endloop
 endfacet
 facet normal 0 -0 1
  outer loop
   vertex 0.964506 0.352956 1
   vertex 0.967075 0.358568 1
   vertex 0.963931 0.359154 1
  endloop
 endfacet
 facet normal 0.587869 -0.808956 0
  outer loop
   vertex 1.04891 0.245376 1
   vertex 1.04442 0.242113 1
   vertex 1.04891 0.245376 -1
  endloop
 endfacet
 facet normal 0.587869 -0.808956 0
  outer loop
   vertex 1.04891 0.245376 -1
   vertex 1.04442 0.242113 1
   vertex 1.04442 0.242113 -1
  endloop
 endfacet
 facet normal -0.694652 -0.719346 -0
  outer loop
   vertex 0.94902 0.354588 1
   vertex 0.944863 0.358602 1
   vertex 0.94902 0.354588 -1
  endloop
 endfacet
 facet normal -0.694652 -0.719346 0
  outer loop
   vertex 0.94902 0.354588 -1
   vertex 0.944863 0.358602 1
   vertex 0.944863 0.358602 -1
  endloop
 endfacet
endsolid tunner_vane
