solid tunner_vane
 facet normal -0.00187575 0.999998 0
  outer loop
   vertex 0.0656656 0.0179904 -1
   vertex 0.0656656 0.0179904 1
   vertex 0.0663051 0.0179916 1
  endloop
 endfacet
 facet normal -0.00187575 0.999998 0
  outer loop
   vertex 0.0656656 0.0179904 -1
   vertex 0.0663051 0.0179916 1
   vertex 0.0663051 0.0179916 -1
  endloop
 endfacet
 facet normal 0.0290857 0.999577 -0
  outer loop
   vertex 0.0663051 0.0179916 -1
   vertex 0.0663051 0.0179916 1
   vertex 0.0669443 0.017973 1
  endloop
 endfacet
 facet normal 0.0290857 0.999577 0
  outer loop
   vertex 0.0663051 0.0179916 -1
   vertex 0.0669443 0.017973 1
   vertex 0.0669443 0.017973 -1
  endloop
 endfacet
 facet normal 0.0600427 0.998196 -0
  outer loop
   vertex 0.0669443 0.017973 -1
   vertex 0.0669443 0.017973 1
   vertex 0.0675827 0.0179346 1
  endloop
 endfacet
 facet normal 0.0600427 0.998196 0
  outer loop
   vertex 0.0669443 0.017973 -1
   vertex 0.0675827 0.0179346 1
   vertex 0.0675827 0.0179346 -1
  endloop
 endfacet
 facet normal 0.0911699 0.995835 -0
  outer loop
   vertex 0.0675827 0.0179346 -1
   vertex 0.0675827 0.0179346 1
   vertex 0.0682195 0.0178763 1
  endloop
 endfacet
 facet normal 0.0911699 0.995835 0
  outer loop
   vertex 0.0675827 0.0179346 -1
   vertex 0.0682195 0.0178763 1
   vertex 0.0682195 0.0178763 -1
  endloop
 endfacet
 facet normal 0.12182 0.992552 -0
  outer loop
   vertex 0.0682195 0.0178763 -1
   vertex 0.0682195 0.0178763 1
   vertex 0.0688542 0.0177984 1
  endloop
 endfacet
 facet normal 0.12182 0.992552 0
  outer loop
   vertex 0.0682195 0.0178763 -1
   vertex 0.0688542 0.0177984 1
   vertex 0.0688542 0.0177984 -1
  endloop
 endfacet
 facet normal 0.152622 0.988285 -0
  outer loop
   vertex 0.0688542 0.0177984 -1
   vertex 0.0688542 0.0177984 1
   vertex 0.0694862 0.0177008 1
  endloop
 endfacet
 facet normal 0.152622 0.988285 0
  outer loop
   vertex 0.0688542 0.0177984 -1
   vertex 0.0694862 0.0177008 1
   vertex 0.0694862 0.0177008 -1
  endloop
 endfacet
 facet normal 0.183258 0.983065 -0
  outer loop
   vertex 0.0694862 0.0177008 -1
   vertex 0.0694862 0.0177008 1
   vertex 0.0701149 0.0175836 1
  endloop
 endfacet
 facet normal 0.183258 0.983065 0
  outer loop
   vertex 0.0694862 0.0177008 -1
   vertex 0.0701149 0.0175836 1
   vertex 0.0701149 0.0175836 -1
  endloop
 endfacet
 facet normal 0.213769 0.976884 -0
  outer loop
   vertex 0.0701149 0.0175836 -1
   vertex 0.0701149 0.0175836 1
   vertex 0.0707396 0.0174469 1
  endloop
 endfacet
 facet normal 0.213769 0.976884 0
  outer loop
   vertex 0.0701149 0.0175836 -1
   vertex 0.0707396 0.0174469 1
   vertex 0.0707396 0.0174469 -1
  endloop
 endfacet
 facet normal 0.243932 0.969792 -0
  outer loop
   vertex 0.0707396 0.0174469 -1
   vertex 0.0707396 0.0174469 1
   vertex 0.0713598 0.0172909 1
  endloop
 endfacet
 facet normal 0.243932 0.969792 0
  outer loop
   vertex 0.0707396 0.0174469 -1
   vertex 0.0713598 0.0172909 1
   vertex 0.0713598 0.0172909 -1
  endloop
 endfacet
 facet normal 0.273791 0.961789 -0
  outer loop
   vertex 0.0713598 0.0172909 -1
   vertex 0.0713598 0.0172909 1
   vertex 0.0719749 0.0171158 1
  endloop
 endfacet
 facet normal 0.273791 0.961789 0
  outer loop
   vertex 0.0713598 0.0172909 -1
   vertex 0.0719749 0.0171158 1
   vertex 0.0719749 0.0171158 -1
  endloop
 endfacet
 facet normal 0.303677 0.952775 -0
  outer loop
   vertex 0.0719749 0.0171158 -1
   vertex 0.0719749 0.0171158 1
   vertex 0.0725842 0.0169216 1
  endloop
 endfacet
 facet normal 0.303677 0.952775 0
  outer loop
   vertex 0.0719749 0.0171158 -1
   vertex 0.0725842 0.0169216 1
   vertex 0.0725842 0.0169216 -1
  endloop
 endfacet
 facet normal 0.332924 0.942954 -0
  outer loop
   vertex 0.0725842 0.0169216 -1
   vertex 0.0725842 0.0169216 1
   vertex 0.0731872 0.0167087 1
  endloop
 endfacet
 facet normal 0.332924 0.942954 0
  outer loop
   vertex 0.0725842 0.0169216 -1
   vertex 0.0731872 0.0167087 1
   vertex 0.0731872 0.0167087 -1
  endloop
 endfacet
 facet normal 0.36218 0.932108 -0
  outer loop
   vertex 0.0731872 0.0167087 -1
   vertex 0.0731872 0.0167087 1
   vertex 0.0737833 0.0164771 1
  endloop
 endfacet
 facet normal 0.36218 0.932108 0
  outer loop
   vertex 0.0731872 0.0167087 -1
   vertex 0.0737833 0.0164771 1
   vertex 0.0737833 0.0164771 -1
  endloop
 endfacet
 facet normal 0.390911 0.920428 -0
  outer loop
   vertex 0.0737833 0.0164771 -1
   vertex 0.0737833 0.0164771 1
   vertex 0.0743719 0.0162271 1
  endloop
 endfacet
 facet normal 0.390911 0.920428 0
  outer loop
   vertex 0.0737833 0.0164771 -1
   vertex 0.0743719 0.0162271 1
   vertex 0.0743719 0.0162271 -1
  endloop
 endfacet
 facet normal 0.419239 0.907876 -0
  outer loop
   vertex 0.0743719 0.0162271 -1
   vertex 0.0743719 0.0162271 1
   vertex 0.0749525 0.015959 1
  endloop
 endfacet
 facet normal 0.419239 0.907876 0
  outer loop
   vertex 0.0743719 0.0162271 -1
   vertex 0.0749525 0.015959 1
   vertex 0.0749525 0.015959 -1
  endloop
 endfacet
 facet normal 0.447289 0.894389 -0
  outer loop
   vertex 0.0749525 0.015959 -1
   vertex 0.0749525 0.015959 1
   vertex 0.0755244 0.015673 1
  endloop
 endfacet
 facet normal 0.447289 0.894389 0
  outer loop
   vertex 0.0749525 0.015959 -1
   vertex 0.0755244 0.015673 1
   vertex 0.0755244 0.015673 -1
  endloop
 endfacet
 facet normal 0.474725 0.880134 -0
  outer loop
   vertex 0.0755244 0.015673 -1
   vertex 0.0755244 0.015673 1
   vertex 0.0760873 0.0153694 1
  endloop
 endfacet
 facet normal 0.474725 0.880134 0
  outer loop
   vertex 0.0755244 0.015673 -1
   vertex 0.0760873 0.0153694 1
   vertex 0.0760873 0.0153694 -1
  endloop
 endfacet
 facet normal 0.501889 0.864932 -0
  outer loop
   vertex 0.0760873 0.0153694 -1
   vertex 0.0760873 0.0153694 1
   vertex 0.0766404 0.0150484 1
  endloop
 endfacet
 facet normal 0.501889 0.864932 0
  outer loop
   vertex 0.0760873 0.0153694 -1
   vertex 0.0766404 0.0150484 1
   vertex 0.0766404 0.0150484 -1
  endloop
 endfacet
 facet normal 0.528465 0.848955 -0
  outer loop
   vertex 0.0766404 0.0150484 -1
   vertex 0.0766404 0.0150484 1
   vertex 0.0771833 0.0147105 1
  endloop
 endfacet
 facet normal 0.528465 0.848955 0
  outer loop
   vertex 0.0766404 0.0150484 -1
   vertex 0.0771833 0.0147105 1
   vertex 0.0771833 0.0147105 -1
  endloop
 endfacet
 facet normal 0.554525 0.832167 -0
  outer loop
   vertex 0.0771833 0.0147105 -1
   vertex 0.0771833 0.0147105 1
   vertex 0.0777155 0.0143558 1
  endloop
 endfacet
 facet normal 0.554525 0.832167 0
  outer loop
   vertex 0.0771833 0.0147105 -1
   vertex 0.0777155 0.0143558 1
   vertex 0.0777155 0.0143558 -1
  endloop
 endfacet
 facet normal 0.580107 0.81454 -0
  outer loop
   vertex 0.0777155 0.0143558 -1
   vertex 0.0777155 0.0143558 1
   vertex 0.0782364 0.0139849 1
  endloop
 endfacet
 facet normal 0.580107 0.81454 0
  outer loop
   vertex 0.0777155 0.0143558 -1
   vertex 0.0782364 0.0139849 1
   vertex 0.0782364 0.0139849 -1
  endloop
 endfacet
 facet normal 0.605138 0.79612 -0
  outer loop
   vertex 0.0782364 0.0139849 -1
   vertex 0.0782364 0.0139849 1
   vertex 0.0787455 0.0135979 1
  endloop
 endfacet
 facet normal 0.605138 0.79612 0
  outer loop
   vertex 0.0782364 0.0139849 -1
   vertex 0.0787455 0.0135979 1
   vertex 0.0787455 0.0135979 -1
  endloop
 endfacet
 facet normal 0.629516 0.776988 -0
  outer loop
   vertex 0.0787455 0.0135979 -1
   vertex 0.0787455 0.0135979 1
   vertex 0.0792424 0.0131953 1
  endloop
 endfacet
 facet normal 0.629516 0.776988 0
  outer loop
   vertex 0.0787455 0.0135979 -1
   vertex 0.0792424 0.0131953 1
   vertex 0.0792424 0.0131953 -1
  endloop
 endfacet
 facet normal 0.65338 0.75703 -0
  outer loop
   vertex 0.0792424 0.0131953 -1
   vertex 0.0792424 0.0131953 1
   vertex 0.0797265 0.0127775 1
  endloop
 endfacet
 facet normal 0.65338 0.75703 0
  outer loop
   vertex 0.0792424 0.0131953 -1
   vertex 0.0797265 0.0127775 1
   vertex 0.0797265 0.0127775 -1
  endloop
 endfacet
 facet normal 0.676551 0.736396 -0
  outer loop
   vertex 0.0797265 0.0127775 -1
   vertex 0.0797265 0.0127775 1
   vertex 0.0801974 0.0123448 1
  endloop
 endfacet
 facet normal 0.676551 0.736396 0
  outer loop
   vertex 0.0797265 0.0127775 -1
   vertex 0.0801974 0.0123448 1
   vertex 0.0801974 0.0123448 -1
  endloop
 endfacet
 facet normal 0.699046 0.715077 -0
  outer loop
   vertex 0.0801974 0.0123448 -1
   vertex 0.0801974 0.0123448 1
   vertex 0.0806547 0.0118978 1
  endloop
 endfacet
 facet normal 0.699046 0.715077 0
  outer loop
   vertex 0.0801974 0.0123448 -1
   vertex 0.0806547 0.0118978 1
   vertex 0.0806547 0.0118978 -1
  endloop
 endfacet
 facet normal 0.720904 0.693035 -0
  outer loop
   vertex 0.0806547 0.0118978 -1
   vertex 0.0806547 0.0118978 1
   vertex 0.0810979 0.0114368 1
  endloop
 endfacet
 facet normal 0.720904 0.693035 0
  outer loop
   vertex 0.0806547 0.0118978 -1
   vertex 0.0810979 0.0114368 1
   vertex 0.0810979 0.0114368 -1
  endloop
 endfacet
 facet normal 0.742046 0.670349 -0
  outer loop
   vertex 0.0810979 0.0114368 -1
   vertex 0.0810979 0.0114368 1
   vertex 0.0815266 0.0109622 1
  endloop
 endfacet
 facet normal 0.742046 0.670349 0
  outer loop
   vertex 0.0810979 0.0114368 -1
   vertex 0.0815266 0.0109622 1
   vertex 0.0815266 0.0109622 -1
  endloop
 endfacet
 facet normal 0.762544 0.646936 -0
  outer loop
   vertex 0.0815266 0.0109622 -1
   vertex 0.0815266 0.0109622 1
   vertex 0.0819403 0.0104746 1
  endloop
 endfacet
 facet normal 0.762544 0.646936 0
  outer loop
   vertex 0.0815266 0.0109622 -1
   vertex 0.0819403 0.0104746 1
   vertex 0.0819403 0.0104746 -1
  endloop
 endfacet
 facet normal 0.782236 0.622982 -0
  outer loop
   vertex 0.0819403 0.0104746 -1
   vertex 0.0819403 0.0104746 1
   vertex 0.0823387 0.00997435 1
  endloop
 endfacet
 facet normal 0.782236 0.622982 0
  outer loop
   vertex 0.0819403 0.0104746 -1
   vertex 0.0823387 0.00997435 1
   vertex 0.0823387 0.00997435 -1
  endloop
 endfacet
 facet normal 0.801172 0.598434 -0
  outer loop
   vertex 0.0823387 0.00997435 -1
   vertex 0.0823387 0.00997435 1
   vertex 0.0827214 0.009462 1
  endloop
 endfacet
 facet normal 0.801172 0.598434 0
  outer loop
   vertex 0.0823387 0.00997435 -1
   vertex 0.0827214 0.009462 1
   vertex 0.0827214 0.009462 -1
  endloop
 endfacet
 facet normal 0.819369 0.573266 -0
  outer loop
   vertex 0.0827214 0.009462 -1
   vertex 0.0827214 0.009462 1
   vertex 0.083088 0.00893801 1
  endloop
 endfacet
 facet normal 0.819369 0.573266 0
  outer loop
   vertex 0.0827214 0.009462 -1
   vertex 0.083088 0.00893801 1
   vertex 0.083088 0.00893801 -1
  endloop
 endfacet
 facet normal 0.83674 0.5476 -0
  outer loop
   vertex 0.083088 0.00893801 -1
   vertex 0.083088 0.00893801 1
   vertex 0.0834382 0.0084029 1
  endloop
 endfacet
 facet normal 0.83674 0.5476 0
  outer loop
   vertex 0.083088 0.00893801 -1
   vertex 0.0834382 0.0084029 1
   vertex 0.0834382 0.0084029 -1
  endloop
 endfacet
 facet normal 0.853349 0.52134 -0
  outer loop
   vertex 0.0834382 0.0084029 -1
   vertex 0.0834382 0.0084029 1
   vertex 0.0837716 0.00785718 1
  endloop
 endfacet
 facet normal 0.853349 0.52134 0
  outer loop
   vertex 0.0834382 0.0084029 -1
   vertex 0.0837716 0.00785718 1
   vertex 0.0837716 0.00785718 -1
  endloop
 endfacet
 facet normal 0.869192 0.494474 -0
  outer loop
   vertex 0.0837716 0.00785718 -1
   vertex 0.0837716 0.00785718 1
   vertex 0.0840878 0.00730137 1
  endloop
 endfacet
 facet normal 0.869192 0.494474 0
  outer loop
   vertex 0.0837716 0.00785718 -1
   vertex 0.0840878 0.00730137 1
   vertex 0.0840878 0.00730137 -1
  endloop
 endfacet
 facet normal 0.884048 0.467395 -0
  outer loop
   vertex 0.0840878 0.00730137 -1
   vertex 0.0840878 0.00730137 1
   vertex 0.0843867 0.00673601 1
  endloop
 endfacet
 facet normal 0.884048 0.467395 0
  outer loop
   vertex 0.0840878 0.00730137 -1
   vertex 0.0843867 0.00673601 1
   vertex 0.0843867 0.00673601 -1
  endloop
 endfacet
 facet normal 0.898137 0.439716 -0
  outer loop
   vertex 0.0843867 0.00673601 -1
   vertex 0.0843867 0.00673601 1
   vertex 0.0846679 0.00616165 1
  endloop
 endfacet
 facet normal 0.898137 0.439716 0
  outer loop
   vertex 0.0843867 0.00673601 -1
   vertex 0.0846679 0.00616165 1
   vertex 0.0846679 0.00616165 -1
  endloop
 endfacet
 facet normal 0.911313 0.411714 -0
  outer loop
   vertex 0.0846679 0.00616165 -1
   vertex 0.0846679 0.00616165 1
   vertex 0.0849312 0.00557884 1
  endloop
 endfacet
 facet normal 0.911313 0.411714 0
  outer loop
   vertex 0.0846679 0.00616165 -1
   vertex 0.0849312 0.00557884 1
   vertex 0.0849312 0.00557884 -1
  endloop
 endfacet
 facet normal 0.923699 0.383118 -0
  outer loop
   vertex 0.0849312 0.00557884 -1
   vertex 0.0849312 0.00557884 1
   vertex 0.0851762 0.00498815 1
  endloop
 endfacet
 facet normal 0.923699 0.383118 0
  outer loop
   vertex 0.0849312 0.00557884 -1
   vertex 0.0851762 0.00498815 1
   vertex 0.0851762 0.00498815 -1
  endloop
 endfacet
 facet normal 0.935116 0.354341 -0
  outer loop
   vertex 0.0851762 0.00498815 -1
   vertex 0.0851762 0.00498815 1
   vertex 0.0854028 0.00439014 1
  endloop
 endfacet
 facet normal 0.935116 0.354341 0
  outer loop
   vertex 0.0851762 0.00498815 -1
   vertex 0.0854028 0.00439014 1
   vertex 0.0854028 0.00439014 -1
  endloop
 endfacet
 facet normal 0.945681 0.325096 -0
  outer loop
   vertex 0.0854028 0.00439014 -1
   vertex 0.0854028 0.00439014 1
   vertex 0.0856107 0.00378537 1
  endloop
 endfacet
 facet normal 0.945681 0.325096 0
  outer loop
   vertex 0.0854028 0.00439014 -1
   vertex 0.0856107 0.00378537 1
   vertex 0.0856107 0.00378537 -1
  endloop
 endfacet
 facet normal 0.955328 0.295548 -0
  outer loop
   vertex 0.0856107 0.00378537 -1
   vertex 0.0856107 0.00378537 1
   vertex 0.0857997 0.00317445 1
  endloop
 endfacet
 facet normal 0.955328 0.295548 0
  outer loop
   vertex 0.0856107 0.00378537 -1
   vertex 0.0857997 0.00317445 1
   vertex 0.0857997 0.00317445 -1
  endloop
 endfacet
 facet normal 0.964019 0.265833 -0
  outer loop
   vertex 0.0857997 0.00317445 -1
   vertex 0.0857997 0.00317445 1
   vertex 0.0859697 0.00255796 1
  endloop
 endfacet
 facet normal 0.964019 0.265833 0
  outer loop
   vertex 0.0857997 0.00317445 -1
   vertex 0.0859697 0.00255796 1
   vertex 0.0859697 0.00255796 -1
  endloop
 endfacet
 facet normal 0.971837 0.235653 -0
  outer loop
   vertex 0.0859697 0.00255796 -1
   vertex 0.0859697 0.00255796 1
   vertex 0.0861204 0.00193649 1
  endloop
 endfacet
 facet normal 0.971837 0.235653 0
  outer loop
   vertex 0.0859697 0.00255796 -1
   vertex 0.0861204 0.00193649 1
   vertex 0.0861204 0.00193649 -1
  endloop
 endfacet
 facet normal 0.97866 0.205487 -0
  outer loop
   vertex 0.0861204 0.00193649 -1
   vertex 0.0861204 0.00193649 1
   vertex 0.0862518 0.00131065 1
  endloop
 endfacet
 facet normal 0.97866 0.205487 0
  outer loop
   vertex 0.0861204 0.00193649 -1
   vertex 0.0862518 0.00131065 1
   vertex 0.0862518 0.00131065 -1
  endloop
 endfacet
 facet normal 0.984571 0.174987 -0
  outer loop
   vertex 0.0862518 0.00131065 -1
   vertex 0.0862518 0.00131065 1
   vertex 0.0863637 0.00068104 1
  endloop
 endfacet
 facet normal 0.984571 0.174987 0
  outer loop
   vertex 0.0862518 0.00131065 -1
   vertex 0.0863637 0.00068104 1
   vertex 0.0863637 0.00068104 -1
  endloop
 endfacet
 facet normal 0.989509 0.144468 -0
  outer loop
   vertex 0.0863637 0.00068104 -1
   vertex 0.0863637 0.00068104 1
   vertex 0.0864561 4.82001e-05 1
  endloop
 endfacet
 facet normal 0.989509 0.144468 0
  outer loop
   vertex 0.0863637 0.00068104 -1
   vertex 0.0864561 4.82001e-05 1
   vertex 0.0864561 4.82001e-05 -1
  endloop
 endfacet
 facet normal 0.993534 0.113531 -0
  outer loop
   vertex 0.0864561 4.82001e-05 -1
   vertex 0.0864561 4.82001e-05 1
   vertex 0.0865287 -0.00058719 1
  endloop
 endfacet
 facet normal 0.993534 0.113531 0
  outer loop
   vertex 0.0864561 4.82001e-05 -1
   vertex 0.0865287 -0.00058719 1
   vertex 0.0865287 -0.00058719 -1
  endloop
 endfacet
 facet normal 0.996572 0.0827271 -0
  outer loop
   vertex 0.0865287 -0.00058719 -1
   vertex 0.0865287 -0.00058719 1
   vertex 0.0865816 -0.00122444 1
  endloop
 endfacet
 facet normal 0.996572 0.0827271 0
  outer loop
   vertex 0.0865287 -0.00058719 -1
   vertex 0.0865816 -0.00122444 1
   vertex 0.0865816 -0.00122444 -1
  endloop
 endfacet
 facet normal 0.99866 0.0517523 -0
  outer loop
   vertex 0.0865816 -0.00122444 -1
   vertex 0.0865816 -0.00122444 1
   vertex 0.0866147 -0.00186308 1
  endloop
 endfacet
 facet normal 0.99866 0.0517523 0
  outer loop
   vertex 0.0865816 -0.00122444 -1
   vertex 0.0866147 -0.00186308 1
   vertex 0.0866147 -0.00186308 -1
  endloop
 endfacet
 facet normal 0.999784 0.0207945 -0
  outer loop
   vertex 0.0866147 -0.00186308 -1
   vertex 0.0866147 -0.00186308 1
   vertex 0.086628 -0.0025025 1
  endloop
 endfacet
 facet normal 0.999784 0.0207945 0
  outer loop
   vertex 0.0866147 -0.00186308 -1
   vertex 0.086628 -0.0025025 1
   vertex 0.086628 -0.0025025 -1
  endloop
 endfacet
 facet normal 0.999945 -0.0104748 0
  outer loop
   vertex 0.086628 -0.0025025 -1
   vertex 0.086628 -0.0025025 1
   vertex 0.0866213 -0.00314191 1
  endloop
 endfacet
 facet normal 0.999945 -0.0104748 0
  outer loop
   vertex 0.086628 -0.0025025 -1
   vertex 0.0866213 -0.00314191 1
   vertex 0.0866213 -0.00314191 -1
  endloop
 endfacet
 facet normal 0.999148 -0.041276 0
  outer loop
   vertex 0.0866213 -0.00314191 -1
   vertex 0.0866213 -0.00314191 1
   vertex 0.0865949 -0.0037809 1
  endloop
 endfacet
 facet normal 0.999148 -0.041276 0
  outer loop
   vertex 0.0866213 -0.00314191 -1
   vertex 0.0865949 -0.0037809 1
   vertex 0.0865949 -0.0037809 -1
  endloop
 endfacet
 facet normal 0.997375 -0.0724111 0
  outer loop
   vertex 0.0865949 -0.0037809 -1
   vertex 0.0865949 -0.0037809 1
   vertex 0.0865486 -0.0044187 1
  endloop
 endfacet
 facet normal 0.997375 -0.0724111 0
  outer loop
   vertex 0.0865949 -0.0037809 -1
   vertex 0.0865486 -0.0044187 1
   vertex 0.0865486 -0.0044187 -1
  endloop
 endfacet
 facet normal 0.994661 -0.103199 0
  outer loop
   vertex 0.0865486 -0.0044187 -1
   vertex 0.0865486 -0.0044187 1
   vertex 0.0864826 -0.0050548 1
  endloop
 endfacet
 facet normal 0.994661 -0.103199 0
  outer loop
   vertex 0.0865486 -0.0044187 -1
   vertex 0.0864826 -0.0050548 1
   vertex 0.0864826 -0.0050548 -1
  endloop
 endfacet
 facet normal -0.156487 -0.98768 -0
  outer loop
   vertex 0.0855844 -0.0057074 1
   vertex 0.0851893 -0.0056448 1
   vertex 0.0855844 -0.0057074 -1
  endloop
 endfacet
 facet normal -0.156487 -0.98768 0
  outer loop
   vertex 0.0855844 -0.0057074 -1
   vertex 0.0851893 -0.0056448 1
   vertex 0.0851893 -0.0056448 -1
  endloop
 endfacet
 facet normal -0.990058 0.140659 0
  outer loop
   vertex 0.0851893 -0.0056448 -1
   vertex 0.0851893 -0.0056448 1
   vertex 0.085277 -0.0050275 -1
  endloop
 endfacet
 facet normal -0.990058 0.140659 0
  outer loop
   vertex 0.085277 -0.0050275 -1
   vertex 0.0851893 -0.0056448 1
   vertex 0.085277 -0.0050275 1
  endloop
 endfacet
 facet normal -0.994089 0.108571 0
  outer loop
   vertex 0.085277 -0.0050275 -1
   vertex 0.085277 -0.0050275 1
   vertex 0.0853447 -0.0044076 -1
  endloop
 endfacet
 facet normal -0.994089 0.108571 0
  outer loop
   vertex 0.0853447 -0.0044076 -1
   vertex 0.085277 -0.0050275 1
   vertex 0.0853447 -0.0044076 1
  endloop
 endfacet
 facet normal -0.997057 0.0766649 0
  outer loop
   vertex 0.0853447 -0.0044076 -1
   vertex 0.0853447 -0.0044076 1
   vertex 0.0853925 -0.003786 -1
  endloop
 endfacet
 facet normal -0.997057 0.0766649 0
  outer loop
   vertex 0.0853925 -0.003786 -1
   vertex 0.0853447 -0.0044076 1
   vertex 0.0853925 -0.003786 1
  endloop
 endfacet
 facet normal -0.999005 0.0445959 0
  outer loop
   vertex 0.0853925 -0.003786 -1
   vertex 0.0853925 -0.003786 1
   vertex 0.0854203 -0.00316312 -1
  endloop
 endfacet
 facet normal -0.999005 0.0445959 0
  outer loop
   vertex 0.0854203 -0.00316312 -1
   vertex 0.0853925 -0.003786 1
   vertex 0.0854203 -0.00316312 1
  endloop
 endfacet
 facet normal -0.999924 0.0123428 0
  outer loop
   vertex 0.0854203 -0.00316312 -1
   vertex 0.0854203 -0.00316312 1
   vertex 0.085428 -0.00253961 -1
  endloop
 endfacet
 facet normal -0.999924 0.0123428 0
  outer loop
   vertex 0.085428 -0.00253961 -1
   vertex 0.0854203 -0.00316312 1
   vertex 0.085428 -0.00253961 1
  endloop
 endfacet
 facet normal -0.999809 -0.0195619 0
  outer loop
   vertex 0.085428 -0.00253961 -1
   vertex 0.085428 -0.00253961 1
   vertex 0.0854158 -0.00191624 -1
  endloop
 endfacet
 facet normal -0.999809 -0.0195619 0
  outer loop
   vertex 0.0854158 -0.00191624 -1
   vertex 0.085428 -0.00253961 1
   vertex 0.0854158 -0.00191624 1
  endloop
 endfacet
 facet normal -0.998657 -0.0518137 0
  outer loop
   vertex 0.0854158 -0.00191624 -1
   vertex 0.0854158 -0.00191624 1
   vertex 0.0853835 -0.00129358 -1
  endloop
 endfacet
 facet normal -0.998657 -0.0518137 0
  outer loop
   vertex 0.0853835 -0.00129358 -1
   vertex 0.0854158 -0.00191624 1
   vertex 0.0853835 -0.00129358 1
  endloop
 endfacet
 facet normal -0.996489 -0.0837191 0
  outer loop
   vertex 0.0853835 -0.00129358 -1
   vertex 0.0853835 -0.00129358 1
   vertex 0.0853313 -0.00067227 -1
  endloop
 endfacet
 facet normal -0.996489 -0.0837191 0
  outer loop
   vertex 0.0853313 -0.00067227 -1
   vertex 0.0853835 -0.00129358 1
   vertex 0.0853313 -0.00067227 1
  endloop
 endfacet
 facet normal -0.993255 -0.115954 0
  outer loop
   vertex 0.0853313 -0.00067227 -1
   vertex 0.0853313 -0.00067227 1
   vertex 0.085259 -5.29499e-05 -1
  endloop
 endfacet
 facet normal -0.993255 -0.115954 0
  outer loop
   vertex 0.085259 -5.29499e-05 -1
   vertex 0.0853313 -0.00067227 1
   vertex 0.085259 -5.29499e-05 1
  endloop
 endfacet
 facet normal -0.989054 -0.147555 0
  outer loop
   vertex 0.085259 -5.29499e-05 -1
   vertex 0.085259 -5.29499e-05 1
   vertex 0.085167 0.00056372 -1
  endloop
 endfacet
 facet normal -0.989054 -0.147555 0
  outer loop
   vertex 0.085167 0.00056372 -1
   vertex 0.085259 -5.29499e-05 1
   vertex 0.085167 0.00056372 1
  endloop
 endfacet
 facet normal -0.983763 -0.179473 0
  outer loop
   vertex 0.085167 0.00056372 -1
   vertex 0.085167 0.00056372 1
   vertex 0.0850551 0.00117709 -1
  endloop
 endfacet
 facet normal -0.983763 -0.179473 0
  outer loop
   vertex 0.0850551 0.00117709 -1
   vertex 0.085167 0.00056372 1
   vertex 0.0850551 0.00117709 1
  endloop
 endfacet
 facet normal -0.977509 -0.210894 0
  outer loop
   vertex 0.0850551 0.00117709 -1
   vertex 0.0850551 0.00117709 1
   vertex 0.0849236 0.00178658 -1
  endloop
 endfacet
 facet normal -0.977509 -0.210894 0
  outer loop
   vertex 0.0849236 0.00178658 -1
   vertex 0.0850551 0.00117709 1
   vertex 0.0849236 0.00178658 1
  endloop
 endfacet
 facet normal -0.970232 -0.242178 0
  outer loop
   vertex 0.0849236 0.00178658 -1
   vertex 0.0849236 0.00178658 1
   vertex 0.0847726 0.00239153 -1
  endloop
 endfacet
 facet normal -0.970232 -0.242178 0
  outer loop
   vertex 0.0847726 0.00239153 -1
   vertex 0.0849236 0.00178658 1
   vertex 0.0847726 0.00239153 1
  endloop
 endfacet
 facet normal -0.961971 -0.273153 0
  outer loop
   vertex 0.0847726 0.00239153 -1
   vertex 0.0847726 0.00239153 1
   vertex 0.0846023 0.0029913 -1
  endloop
 endfacet
 facet normal -0.961971 -0.273153 0
  outer loop
   vertex 0.0846023 0.0029913 -1
   vertex 0.0847726 0.00239153 1
   vertex 0.0846023 0.0029913 1
  endloop
 endfacet
 facet normal -0.95265 -0.30407 0
  outer loop
   vertex 0.0846023 0.0029913 -1
   vertex 0.0846023 0.0029913 1
   vertex 0.0844127 0.0035853 -1
  endloop
 endfacet
 facet normal -0.95265 -0.30407 0
  outer loop
   vertex 0.0844127 0.0035853 -1
   vertex 0.0846023 0.0029913 1
   vertex 0.0844127 0.0035853 1
  endloop
 endfacet
 facet normal -0.942427 -0.334412 0
  outer loop
   vertex 0.0844127 0.0035853 -1
   vertex 0.0844127 0.0035853 1
   vertex 0.0842042 0.0041729 -1
  endloop
 endfacet
 facet normal -0.942427 -0.334412 0
  outer loop
   vertex 0.0842042 0.0041729 -1
   vertex 0.0844127 0.0035853 1
   vertex 0.0842042 0.0041729 1
  endloop
 endfacet
 facet normal -0.931186 -0.364543 0
  outer loop
   vertex 0.0842042 0.0041729 -1
   vertex 0.0842042 0.0041729 1
   vertex 0.0839769 0.0047535 -1
  endloop
 endfacet
 facet normal -0.931186 -0.364543 0
  outer loop
   vertex 0.0839769 0.0047535 -1
   vertex 0.0842042 0.0041729 1
   vertex 0.0839769 0.0047535 1
  endloop
 endfacet
 facet normal -0.919009 -0.394238 0
  outer loop
   vertex 0.0839769 0.0047535 -1
   vertex 0.0839769 0.0047535 1
   vertex 0.0837311 0.00532649 -1
  endloop
 endfacet
 facet normal -0.919009 -0.394238 0
  outer loop
   vertex 0.0837311 0.00532649 -1
   vertex 0.0839769 0.0047535 1
   vertex 0.0837311 0.00532649 1
  endloop
 endfacet
 facet normal -0.905799 -0.423708 0
  outer loop
   vertex 0.0837311 0.00532649 -1
   vertex 0.0837311 0.00532649 1
   vertex 0.0834669 0.00589129 -1
  endloop
 endfacet
 facet normal -0.905799 -0.423708 0
  outer loop
   vertex 0.0834669 0.00589129 -1
   vertex 0.0837311 0.00532649 1
   vertex 0.0834669 0.00589129 1
  endloop
 endfacet
 facet normal -0.891787 -0.452456 0
  outer loop
   vertex 0.0834669 0.00589129 -1
   vertex 0.0834669 0.00589129 1
   vertex 0.0831848 0.00644731 -1
  endloop
 endfacet
 facet normal -0.891787 -0.452456 0
  outer loop
   vertex 0.0831848 0.00644731 -1
   vertex 0.0834669 0.00589129 1
   vertex 0.0831848 0.00644731 1
  endloop
 endfacet
 facet normal -0.876734 -0.480975 0
  outer loop
   vertex 0.0831848 0.00644731 -1
   vertex 0.0831848 0.00644731 1
   vertex 0.0828849 0.00699397 -1
  endloop
 endfacet
 facet normal -0.876734 -0.480975 0
  outer loop
   vertex 0.0828849 0.00699397 -1
   vertex 0.0831848 0.00644731 1
   vertex 0.0828849 0.00699397 1
  endloop
 endfacet
 facet normal -0.860902 -0.508771 0
  outer loop
   vertex 0.0828849 0.00699397 -1
   vertex 0.0828849 0.00699397 1
   vertex 0.0825677 0.00753072 -1
  endloop
 endfacet
 facet normal -0.860902 -0.508771 0
  outer loop
   vertex 0.0825677 0.00753072 -1
   vertex 0.0828849 0.00699397 1
   vertex 0.0825677 0.00753072 1
  endloop
 endfacet
 facet normal -0.844032 -0.536293 0
  outer loop
   vertex 0.0825677 0.00753072 -1
   vertex 0.0825677 0.00753072 1
   vertex 0.0822333 0.008057 -1
  endloop
 endfacet
 facet normal -0.844032 -0.536293 0
  outer loop
   vertex 0.0822333 0.008057 -1
   vertex 0.0825677 0.00753072 1
   vertex 0.0822333 0.008057 1
  endloop
 endfacet
 facet normal -0.826386 -0.563104 0
  outer loop
   vertex 0.0822333 0.008057 -1
   vertex 0.0822333 0.008057 1
   vertex 0.0818822 0.00857226 -1
  endloop
 endfacet
 facet normal -0.826386 -0.563104 0
  outer loop
   vertex 0.0818822 0.00857226 -1
   vertex 0.0822333 0.008057 1
   vertex 0.0818822 0.00857226 1
  endloop
 endfacet
 facet normal -0.807931 -0.589277 0
  outer loop
   vertex 0.0818822 0.00857226 -1
   vertex 0.0818822 0.00857226 1
   vertex 0.0815148 0.00907599 -1
  endloop
 endfacet
 facet normal -0.807931 -0.589277 0
  outer loop
   vertex 0.0815148 0.00907599 -1
   vertex 0.0818822 0.00857226 1
   vertex 0.0815148 0.00907599 1
  endloop
 endfacet
 facet normal -0.788489 -0.615049 0
  outer loop
   vertex 0.0815148 0.00907599 -1
   vertex 0.0815148 0.00907599 1
   vertex 0.0811313 0.00956763 -1
  endloop
 endfacet
 facet normal -0.788489 -0.615049 0
  outer loop
   vertex 0.0811313 0.00956763 -1
   vertex 0.0815148 0.00907599 1
   vertex 0.0811313 0.00956763 1
  endloop
 endfacet
 facet normal -0.768405 -0.639964 0
  outer loop
   vertex 0.0811313 0.00956763 -1
   vertex 0.0811313 0.00956763 1
   vertex 0.0807323 0.0100467 -1
  endloop
 endfacet
 facet normal -0.768405 -0.639964 0
  outer loop
   vertex 0.0807323 0.0100467 -1
   vertex 0.0811313 0.00956763 1
   vertex 0.0807323 0.0100467 1
  endloop
 endfacet
 facet normal -0.747351 -0.664429 0
  outer loop
   vertex 0.0807323 0.0100467 -1
   vertex 0.0807323 0.0100467 1
   vertex 0.080318 0.0105127 -1
  endloop
 endfacet
 facet normal -0.747351 -0.664429 0
  outer loop
   vertex 0.080318 0.0105127 -1
   vertex 0.0807323 0.0100467 1
   vertex 0.080318 0.0105127 1
  endloop
 endfacet
 facet normal -0.725672 -0.688041 0
  outer loop
   vertex 0.080318 0.0105127 -1
   vertex 0.080318 0.0105127 1
   vertex 0.079889 0.0109652 -1
  endloop
 endfacet
 facet normal -0.725672 -0.688041 0
  outer loop
   vertex 0.079889 0.0109652 -1
   vertex 0.080318 0.0105127 1
   vertex 0.079889 0.0109652 1
  endloop
 endfacet
 facet normal -0.703189 -0.711003 0
  outer loop
   vertex 0.079889 0.0109652 -1
   vertex 0.079889 0.0109652 1
   vertex 0.0794457 0.0114036 -1
  endloop
 endfacet
 facet normal -0.703189 -0.711003 0
  outer loop
   vertex 0.0794457 0.0114036 -1
   vertex 0.079889 0.0109652 1
   vertex 0.0794457 0.0114036 1
  endloop
 endfacet
 facet normal -0.679968 -0.733242 0
  outer loop
   vertex 0.0794457 0.0114036 -1
   vertex 0.0794457 0.0114036 1
   vertex 0.0789885 0.0118276 -1
  endloop
 endfacet
 facet normal -0.679968 -0.733242 0
  outer loop
   vertex 0.0789885 0.0118276 -1
   vertex 0.0794457 0.0114036 1
   vertex 0.0789885 0.0118276 1
  endloop
 endfacet
 facet normal -0.656117 -0.754659 0
  outer loop
   vertex 0.0789885 0.0118276 -1
   vertex 0.0789885 0.0118276 1
   vertex 0.078518 0.0122367 -1
  endloop
 endfacet
 facet normal -0.656117 -0.754659 0
  outer loop
   vertex 0.078518 0.0122367 -1
   vertex 0.0789885 0.0118276 1
   vertex 0.078518 0.0122367 1
  endloop
 endfacet
 facet normal -0.631444 -0.775421 0
  outer loop
   vertex 0.078518 0.0122367 -1
   vertex 0.078518 0.0122367 1
   vertex 0.0780345 0.0126304 -1
  endloop
 endfacet
 facet normal -0.631444 -0.775421 0
  outer loop
   vertex 0.0780345 0.0126304 -1
   vertex 0.078518 0.0122367 1
   vertex 0.0780345 0.0126304 1
  endloop
 endfacet
 facet normal -0.60621 -0.795305 0
  outer loop
   vertex 0.0780345 0.0126304 -1
   vertex 0.0780345 0.0126304 1
   vertex 0.0775386 0.0130084 -1
  endloop
 endfacet
 facet normal -0.60621 -0.795305 0
  outer loop
   vertex 0.0775386 0.0130084 -1
   vertex 0.0780345 0.0126304 1
   vertex 0.0775386 0.0130084 1
  endloop
 endfacet
 facet normal -0.580424 -0.814315 0
  outer loop
   vertex 0.0775386 0.0130084 -1
   vertex 0.0775386 0.0130084 1
   vertex 0.0770309 0.0133702 -1
  endloop
 endfacet
 facet normal -0.580424 -0.814315 0
  outer loop
   vertex 0.0770309 0.0133702 -1
   vertex 0.0775386 0.0130084 1
   vertex 0.0770309 0.0133702 1
  endloop
 endfacet
 facet normal -0.553918 -0.832571 0
  outer loop
   vertex 0.0770309 0.0133702 -1
   vertex 0.0770309 0.0133702 1
   vertex 0.0765118 0.0137156 -1
  endloop
 endfacet
 facet normal -0.553918 -0.832571 0
  outer loop
   vertex 0.0765118 0.0137156 -1
   vertex 0.0770309 0.0133702 1
   vertex 0.0765118 0.0137156 1
  endloop
 endfacet
 facet normal -0.526838 -0.849966 0
  outer loop
   vertex 0.0765118 0.0137156 -1
   vertex 0.0765118 0.0137156 1
   vertex 0.0759818 0.0140441 -1
  endloop
 endfacet
 facet normal -0.526838 -0.849966 0
  outer loop
   vertex 0.0759818 0.0140441 -1
   vertex 0.0765118 0.0137156 1
   vertex 0.0759818 0.0140441 1
  endloop
 endfacet
 facet normal -0.499318 -0.866419 0
  outer loop
   vertex 0.0759818 0.0140441 -1
   vertex 0.0759818 0.0140441 1
   vertex 0.0754416 0.0143554 -1
  endloop
 endfacet
 facet normal -0.499318 -0.866419 0
  outer loop
   vertex 0.0754416 0.0143554 -1
   vertex 0.0759818 0.0140441 1
   vertex 0.0754416 0.0143554 1
  endloop
 endfacet
 facet normal -0.471214 -0.882019 0
  outer loop
   vertex 0.0754416 0.0143554 -1
   vertex 0.0754416 0.0143554 1
   vertex 0.0748917 0.0146492 -1
  endloop
 endfacet
 facet normal -0.471214 -0.882019 0
  outer loop
   vertex 0.0748917 0.0146492 -1
   vertex 0.0754416 0.0143554 1
   vertex 0.0748917 0.0146492 1
  endloop
 endfacet
 facet normal -0.442629 -0.896705 0
  outer loop
   vertex 0.0748917 0.0146492 -1
   vertex 0.0748917 0.0146492 1
   vertex 0.0743326 0.0149252 -1
  endloop
 endfacet
 facet normal -0.442629 -0.896705 0
  outer loop
   vertex 0.0743326 0.0149252 -1
   vertex 0.0748917 0.0146492 1
   vertex 0.0743326 0.0149252 1
  endloop
 endfacet
 facet normal -0.413554 -0.91048 0
  outer loop
   vertex 0.0743326 0.0149252 -1
   vertex 0.0743326 0.0149252 1
   vertex 0.0737649 0.0151831 -1
  endloop
 endfacet
 facet normal -0.413554 -0.91048 0
  outer loop
   vertex 0.0737649 0.0151831 -1
   vertex 0.0743326 0.0149252 1
   vertex 0.0737649 0.0151831 1
  endloop
 endfacet
 facet normal -0.384089 -0.923296 0
  outer loop
   vertex 0.0737649 0.0151831 -1
   vertex 0.0737649 0.0151831 1
   vertex 0.0731892 0.0154225 -1
  endloop
 endfacet
 facet normal -0.384089 -0.923296 0
  outer loop
   vertex 0.0731892 0.0154225 -1
   vertex 0.0737649 0.0151831 1
   vertex 0.0731892 0.0154225 1
  endloop
 endfacet
 facet normal -0.354226 -0.93516 0
  outer loop
   vertex 0.0731892 0.0154225 -1
   vertex 0.0731892 0.0154225 1
   vertex 0.0726061 0.0156434 -1
  endloop
 endfacet
 facet normal -0.354226 -0.93516 0
  outer loop
   vertex 0.0726061 0.0156434 -1
   vertex 0.0731892 0.0154225 1
   vertex 0.0726061 0.0156434 1
  endloop
 endfacet
 facet normal -0.324054 -0.946039 0
  outer loop
   vertex 0.0726061 0.0156434 -1
   vertex 0.0726061 0.0156434 1
   vertex 0.0720163 0.0158454 -1
  endloop
 endfacet
 facet normal -0.324054 -0.946039 0
  outer loop
   vertex 0.0720163 0.0158454 -1
   vertex 0.0726061 0.0156434 1
   vertex 0.0720163 0.0158454 1
  endloop
 endfacet
 facet normal -0.293376 -0.955997 0
  outer loop
   vertex 0.0720163 0.0158454 -1
   vertex 0.0720163 0.0158454 1
   vertex 0.0714202 0.0160284 -1
  endloop
 endfacet
 facet normal -0.293376 -0.955997 0
  outer loop
   vertex 0.0714202 0.0160284 -1
   vertex 0.0720163 0.0158454 1
   vertex 0.0714202 0.0160284 1
  endloop
 endfacet
 facet normal -0.262636 -0.964895 0
  outer loop
   vertex 0.0714202 0.0160284 -1
   vertex 0.0714202 0.0160284 1
   vertex 0.0708186 0.0161921 -1
  endloop
 endfacet
 facet normal -0.262636 -0.964895 0
  outer loop
   vertex 0.0708186 0.0161921 -1
   vertex 0.0714202 0.0160284 1
   vertex 0.0708186 0.0161921 1
  endloop
 endfacet
 facet normal -0.231485 -0.972839 0
  outer loop
   vertex 0.0708186 0.0161921 -1
   vertex 0.0708186 0.0161921 1
   vertex 0.070212 0.0163365 -1
  endloop
 endfacet
 facet normal -0.231485 -0.972839 0
  outer loop
   vertex 0.070212 0.0163365 -1
   vertex 0.0708186 0.0161921 1
   vertex 0.070212 0.0163365 1
  endloop
 endfacet
 facet normal -0.200017 -0.979792 0
  outer loop
   vertex 0.070212 0.0163365 -1
   vertex 0.070212 0.0163365 1
   vertex 0.0696011 0.0164612 -1
  endloop
 endfacet
 facet normal -0.200017 -0.979792 0
  outer loop
   vertex 0.0696011 0.0164612 -1
   vertex 0.070212 0.0163365 1
   vertex 0.0696011 0.0164612 1
  endloop
 endfacet
 facet normal -0.168496 -0.985702 0
  outer loop
   vertex 0.0696011 0.0164612 -1
   vertex 0.0696011 0.0164612 1
   vertex 0.0689865 0.0165662 -1
  endloop
 endfacet
 facet normal -0.168496 -0.985702 0
  outer loop
   vertex 0.0689865 0.0165662 -1
   vertex 0.0696011 0.0164612 1
   vertex 0.0689865 0.0165662 1
  endloop
 endfacet
 facet normal -0.136674 -0.990616 0
  outer loop
   vertex 0.0689865 0.0165662 -1
   vertex 0.0689865 0.0165662 1
   vertex 0.0683689 0.0166514 -1
  endloop
 endfacet
 facet normal -0.136674 -0.990616 0
  outer loop
   vertex 0.0683689 0.0166514 -1
   vertex 0.0689865 0.0165662 1
   vertex 0.0683689 0.0166514 1
  endloop
 endfacet
 facet normal -0.104966 -0.994476 0
  outer loop
   vertex 0.0683689 0.0166514 -1
   vertex 0.0683689 0.0166514 1
   vertex 0.0677488 0.0167169 -1
  endloop
 endfacet
 facet normal -0.104966 -0.994476 0
  outer loop
   vertex 0.0677488 0.0167169 -1
   vertex 0.0683689 0.0166514 1
   vertex 0.0677488 0.0167169 1
  endloop
 endfacet
 facet normal -0.0726481 -0.997358 0
  outer loop
   vertex 0.0677488 0.0167169 -1
   vertex 0.0677488 0.0167169 1
   vertex 0.0671269 0.0167622 -1
  endloop
 endfacet
 facet normal -0.0726481 -0.997358 0
  outer loop
   vertex 0.0671269 0.0167622 -1
   vertex 0.0677488 0.0167169 1
   vertex 0.0671269 0.0167622 1
  endloop
 endfacet
 facet normal -0.0407364 -0.99917 0
  outer loop
   vertex 0.0671269 0.0167622 -1
   vertex 0.0671269 0.0167622 1
   vertex 0.0665039 0.0167876 -1
  endloop
 endfacet
 facet normal -0.0407364 -0.99917 0
  outer loop
   vertex 0.0665039 0.0167876 -1
   vertex 0.0671269 0.0167622 1
   vertex 0.0665039 0.0167876 1
  endloop
 endfacet
 facet normal -0.999847 -0.0174919 -0
  outer loop
   vertex 0.0656726 0.0175905 1
   vertex 0.0656656 0.0179904 1
   vertex 0.0656726 0.0175905 -1
  endloop
 endfacet
 facet normal -0.999847 -0.0174919 0
  outer loop
   vertex 0.0656726 0.0175905 -1
   vertex 0.0656656 0.0179904 1
   vertex 0.0656656 0.0179904 -1
  endloop
 endfacet
 facet normal 0 0 -1
  outer loop
   vertex 0.0656726 0.0175905 -1
   vertex 0.0656656 0.0179904 -1
   vertex 0.0665039 0.0167876 -1
  endloop
 endfacet
 facet normal 0 0 -1
  outer loop
   vertex 0.0665039 0.0167876 -1
   vertex 0.0656656 0.0179904 -1
   vertex 0.0663051 0.0179916 -1
  endloop
 endfacet
 facet normal 0 0 -1
  outer loop
   vertex 0.0665039 0.0167876 -1
   vertex 0.0663051 0.0179916 -1
   vertex 0.0671269 0.0167622 -1
  endloop
 endfacet
 facet normal 0 0 -1
  outer loop
   vertex 0.0671269 0.0167622 -1
   vertex 0.0663051 0.0179916 -1
   vertex 0.0669443 0.017973 -1
  endloop
 endfacet
 facet normal 0 0 -1
  outer loop
   vertex 0.0671269 0.0167622 -1
   vertex 0.0669443 0.017973 -1
   vertex 0.0677488 0.0167169 -1
  endloop
 endfacet
 facet normal 0 0 -1
  outer loop
   vertex 0.0677488 0.0167169 -1
   vertex 0.0669443 0.017973 -1
   vertex 0.0675827 0.0179346 -1
  endloop
 endfacet
 facet normal 0 0 -1
  outer loop
   vertex 0.0677488 0.0167169 -1
   vertex 0.0675827 0.0179346 -1
   vertex 0.0683689 0.0166514 -1
  endloop
 endfacet
 facet normal 0 0 -1
  outer loop
   vertex 0.0683689 0.0166514 -1
   vertex 0.0675827 0.0179346 -1
   vertex 0.0682195 0.0178763 -1
  endloop
 endfacet
 facet normal 0 0 -1
  outer loop
   vertex 0.0683689 0.0166514 -1
   vertex 0.0682195 0.0178763 -1
   vertex 0.0689865 0.0165662 -1
  endloop
 endfacet
 facet normal 0 0 -1
  outer loop
   vertex 0.0855844 -0.0057074 -1
   vertex 0.0851893 -0.0056448 -1
   vertex 0.0864826 -0.0050548 -1
  endloop
 endfacet
 facet normal -0 0 -1
  outer loop
   vertex 0.0864826 -0.0050548 -1
   vertex 0.0851893 -0.0056448 -1
   vertex 0.085277 -0.0050275 -1
  endloop
 endfacet
 facet normal 0 0 -1
  outer loop
   vertex 0.0864826 -0.0050548 -1
   vertex 0.085277 -0.0050275 -1
   vertex 0.0865486 -0.0044187 -1
  endloop
 endfacet
 facet normal -0 0 -1
  outer loop
   vertex 0.0865486 -0.0044187 -1
   vertex 0.085277 -0.0050275 -1
   vertex 0.0853447 -0.0044076 -1
  endloop
 endfacet
 facet normal 0 0 -1
  outer loop
   vertex 0.0865486 -0.0044187 -1
   vertex 0.0853447 -0.0044076 -1
   vertex 0.0865949 -0.0037809 -1
  endloop
 endfacet
 facet normal 0 0 -1
  outer loop
   vertex 0.0865949 -0.0037809 -1
   vertex 0.0853447 -0.0044076 -1
   vertex 0.0853925 -0.003786 -1
  endloop
 endfacet
 facet normal -0 0 -1
  outer loop
   vertex 0.0865949 -0.0037809 -1
   vertex 0.0853925 -0.003786 -1
   vertex 0.0866213 -0.00314191 -1
  endloop
 endfacet
 facet normal 0 0 -1
  outer loop
   vertex 0.0866213 -0.00314191 -1
   vertex 0.0853925 -0.003786 -1
   vertex 0.0854203 -0.00316312 -1
  endloop
 endfacet
 facet normal -0 0 -1
  outer loop
   vertex 0.0866213 -0.00314191 -1
   vertex 0.0854203 -0.00316312 -1
   vertex 0.086628 -0.0025025 -1
  endloop
 endfacet
 facet normal 0 0 -1
  outer loop
   vertex 0.086628 -0.0025025 -1
   vertex 0.0854203 -0.00316312 -1
   vertex 0.085428 -0.00253961 -1
  endloop
 endfacet
 facet normal -0 0 -1
  outer loop
   vertex 0.086628 -0.0025025 -1
   vertex 0.085428 -0.00253961 -1
   vertex 0.0866147 -0.00186308 -1
  endloop
 endfacet
 facet normal 0 0 -1
  outer loop
   vertex 0.0866147 -0.00186308 -1
   vertex 0.085428 -0.00253961 -1
   vertex 0.0854158 -0.00191624 -1
  endloop
 endfacet
 facet normal -0 0 -1
  outer loop
   vertex 0.0866147 -0.00186308 -1
   vertex 0.0854158 -0.00191624 -1
   vertex 0.0865816 -0.00122444 -1
  endloop
 endfacet
 facet normal 0 0 -1
  outer loop
   vertex 0.0865816 -0.00122444 -1
   vertex 0.0854158 -0.00191624 -1
   vertex 0.0853835 -0.00129358 -1
  endloop
 endfacet
 facet normal -0 0 -1
  outer loop
   vertex 0.0865816 -0.00122444 -1
   vertex 0.0853835 -0.00129358 -1
   vertex 0.0865287 -0.00058719 -1
  endloop
 endfacet
 facet normal 0 0 -1
  outer loop
   vertex 0.0865287 -0.00058719 -1
   vertex 0.0853835 -0.00129358 -1
   vertex 0.0853313 -0.00067227 -1
  endloop
 endfacet
 facet normal -0 0 -1
  outer loop
   vertex 0.0865287 -0.00058719 -1
   vertex 0.0853313 -0.00067227 -1
   vertex 0.0864561 4.82001e-05 -1
  endloop
 endfacet
 facet normal 0 0 -1
  outer loop
   vertex 0.0864561 4.82001e-05 -1
   vertex 0.0853313 -0.00067227 -1
   vertex 0.085259 -5.29499e-05 -1
  endloop
 endfacet
 facet normal -0 0 -1
  outer loop
   vertex 0.0864561 4.82001e-05 -1
   vertex 0.085259 -5.29499e-05 -1
   vertex 0.0863637 0.00068104 -1
  endloop
 endfacet
 facet normal 0 0 -1
  outer loop
   vertex 0.0863637 0.00068104 -1
   vertex 0.085259 -5.29499e-05 -1
   vertex 0.085167 0.00056372 -1
  endloop
 endfacet
 facet normal -0 0 -1
  outer loop
   vertex 0.0863637 0.00068104 -1
   vertex 0.085167 0.00056372 -1
   vertex 0.0862518 0.00131065 -1
  endloop
 endfacet
 facet normal 0 0 -1
  outer loop
   vertex 0.0862518 0.00131065 -1
   vertex 0.085167 0.00056372 -1
   vertex 0.0850551 0.00117709 -1
  endloop
 endfacet
 facet normal -0 0 -1
  outer loop
   vertex 0.0862518 0.00131065 -1
   vertex 0.0850551 0.00117709 -1
   vertex 0.0861204 0.00193649 -1
  endloop
 endfacet
 facet normal 0 0 -1
  outer loop
   vertex 0.0861204 0.00193649 -1
   vertex 0.0850551 0.00117709 -1
   vertex 0.0849236 0.00178658 -1
  endloop
 endfacet
 facet normal -0 0 -1
  outer loop
   vertex 0.0861204 0.00193649 -1
   vertex 0.0849236 0.00178658 -1
   vertex 0.0859697 0.00255796 -1
  endloop
 endfacet
 facet normal 0 0 -1
  outer loop
   vertex 0.0859697 0.00255796 -1
   vertex 0.0849236 0.00178658 -1
   vertex 0.0847726 0.00239153 -1
  endloop
 endfacet
 facet normal -0 0 -1
  outer loop
   vertex 0.0859697 0.00255796 -1
   vertex 0.0847726 0.00239153 -1
   vertex 0.0857997 0.00317445 -1
  endloop
 endfacet
 facet normal 0 0 -1
  outer loop
   vertex 0.0857997 0.00317445 -1
   vertex 0.0847726 0.00239153 -1
   vertex 0.0846023 0.0029913 -1
  endloop
 endfacet
 facet normal -0 0 -1
  outer loop
   vertex 0.0857997 0.00317445 -1
   vertex 0.0846023 0.0029913 -1
   vertex 0.0856107 0.00378537 -1
  endloop
 endfacet
 facet normal 0 0 -1
  outer loop
   vertex 0.0856107 0.00378537 -1
   vertex 0.0846023 0.0029913 -1
   vertex 0.0844127 0.0035853 -1
  endloop
 endfacet
 facet normal -0 0 -1
  outer loop
   vertex 0.0856107 0.00378537 -1
   vertex 0.0844127 0.0035853 -1
   vertex 0.0854028 0.00439014 -1
  endloop
 endfacet
 facet normal 0 0 -1
  outer loop
   vertex 0.0854028 0.00439014 -1
   vertex 0.0844127 0.0035853 -1
   vertex 0.0842042 0.0041729 -1
  endloop
 endfacet
 facet normal -0 0 -1
  outer loop
   vertex 0.0854028 0.00439014 -1
   vertex 0.0842042 0.0041729 -1
   vertex 0.0851762 0.00498815 -1
  endloop
 endfacet
 facet normal 0 0 -1
  outer loop
   vertex 0.0851762 0.00498815 -1
   vertex 0.0842042 0.0041729 -1
   vertex 0.0839769 0.0047535 -1
  endloop
 endfacet
 facet normal -0 0 -1
  outer loop
   vertex 0.0851762 0.00498815 -1
   vertex 0.0839769 0.0047535 -1
   vertex 0.0849312 0.00557884 -1
  endloop
 endfacet
 facet normal 0 0 -1
  outer loop
   vertex 0.0849312 0.00557884 -1
   vertex 0.0839769 0.0047535 -1
   vertex 0.0837311 0.00532649 -1
  endloop
 endfacet
 facet normal -0 0 -1
  outer loop
   vertex 0.0849312 0.00557884 -1
   vertex 0.0837311 0.00532649 -1
   vertex 0.0846679 0.00616165 -1
  endloop
 endfacet
 facet normal 0 0 -1
  outer loop
   vertex 0.0846679 0.00616165 -1
   vertex 0.0837311 0.00532649 -1
   vertex 0.0834669 0.00589129 -1
  endloop
 endfacet
 facet normal -0 0 -1
  outer loop
   vertex 0.0846679 0.00616165 -1
   vertex 0.0834669 0.00589129 -1
   vertex 0.0843867 0.00673601 -1
  endloop
 endfacet
 facet normal 0 0 -1
  outer loop
   vertex 0.0843867 0.00673601 -1
   vertex 0.0834669 0.00589129 -1
   vertex 0.0831848 0.00644731 -1
  endloop
 endfacet
 facet normal -0 0 -1
  outer loop
   vertex 0.0843867 0.00673601 -1
   vertex 0.0831848 0.00644731 -1
   vertex 0.0840878 0.00730137 -1
  endloop
 endfacet
 facet normal 0 0 -1
  outer loop
   vertex 0.0840878 0.00730137 -1
   vertex 0.0831848 0.00644731 -1
   vertex 0.0828849 0.00699397 -1
  endloop
 endfacet
 facet normal 0 0 -1
  outer loop
   vertex 0.0682195 0.0178763 -1
   vertex 0.0688542 0.0177984 -1
   vertex 0.0689865 0.0165662 -1
  endloop
 endfacet
 facet normal 0 0 -1
  outer loop
   vertex 0.0689865 0.0165662 -1
   vertex 0.0688542 0.0177984 -1
   vertex 0.0694862 0.0177008 -1
  endloop
 endfacet
 facet normal 0 0 -1
  outer loop
   vertex 0.0689865 0.0165662 -1
   vertex 0.0694862 0.0177008 -1
   vertex 0.0696011 0.0164612 -1
  endloop
 endfacet
 facet normal 0 0 -1
  outer loop
   vertex 0.0696011 0.0164612 -1
   vertex 0.0694862 0.0177008 -1
   vertex 0.0701149 0.0175836 -1
  endloop
 endfacet
 facet normal 0 0 -1
  outer loop
   vertex 0.0696011 0.0164612 -1
   vertex 0.0701149 0.0175836 -1
   vertex 0.070212 0.0163365 -1
  endloop
 endfacet
 facet normal 0 0 -1
  outer loop
   vertex 0.070212 0.0163365 -1
   vertex 0.0701149 0.0175836 -1
   vertex 0.0707396 0.0174469 -1
  endloop
 endfacet
 facet normal 0 0 -1
  outer loop
   vertex 0.070212 0.0163365 -1
   vertex 0.0707396 0.0174469 -1
   vertex 0.0708186 0.0161921 -1
  endloop
 endfacet
 facet normal 0 0 -1
  outer loop
   vertex 0.0708186 0.0161921 -1
   vertex 0.0707396 0.0174469 -1
   vertex 0.0713598 0.0172909 -1
  endloop
 endfacet
 facet normal 0 0 -1
  outer loop
   vertex 0.0708186 0.0161921 -1
   vertex 0.0713598 0.0172909 -1
   vertex 0.0714202 0.0160284 -1
  endloop
 endfacet
 facet normal 0 0 -1
  outer loop
   vertex 0.0714202 0.0160284 -1
   vertex 0.0713598 0.0172909 -1
   vertex 0.0719749 0.0171158 -1
  endloop
 endfacet
 facet normal 0 0 -1
  outer loop
   vertex 0.0714202 0.0160284 -1
   vertex 0.0719749 0.0171158 -1
   vertex 0.0720163 0.0158454 -1
  endloop
 endfacet
 facet normal 0 0 -1
  outer loop
   vertex 0.0720163 0.0158454 -1
   vertex 0.0719749 0.0171158 -1
   vertex 0.0725842 0.0169216 -1
  endloop
 endfacet
 facet normal 0 0 -1
  outer loop
   vertex 0.0720163 0.0158454 -1
   vertex 0.0725842 0.0169216 -1
   vertex 0.0726061 0.0156434 -1
  endloop
 endfacet
 facet normal 0 0 -1
  outer loop
   vertex 0.0726061 0.0156434 -1
   vertex 0.0725842 0.0169216 -1
   vertex 0.0731872 0.0167087 -1
  endloop
 endfacet
 facet normal 0 0 -1
  outer loop
   vertex 0.0726061 0.0156434 -1
   vertex 0.0731872 0.0167087 -1
   vertex 0.0731892 0.0154225 -1
  endloop
 endfacet
 facet normal 0 0 -1
  outer loop
   vertex 0.0731892 0.0154225 -1
   vertex 0.0731872 0.0167087 -1
   vertex 0.0737833 0.0164771 -1
  endloop
 endfacet
 facet normal 0 0 -1
  outer loop
   vertex 0.0731892 0.0154225 -1
   vertex 0.0737833 0.0164771 -1
   vertex 0.0737649 0.0151831 -1
  endloop
 endfacet
 facet normal 0 0 -1
  outer loop
   vertex 0.0737649 0.0151831 -1
   vertex 0.0737833 0.0164771 -1
   vertex 0.0743719 0.0162271 -1
  endloop
 endfacet
 facet normal 0 0 -1
  outer loop
   vertex 0.0737649 0.0151831 -1
   vertex 0.0743719 0.0162271 -1
   vertex 0.0743326 0.0149252 -1
  endloop
 endfacet
 facet normal 0 0 -1
  outer loop
   vertex 0.0743326 0.0149252 -1
   vertex 0.0743719 0.0162271 -1
   vertex 0.0749525 0.015959 -1
  endloop
 endfacet
 facet normal 0 0 -1
  outer loop
   vertex 0.0743326 0.0149252 -1
   vertex 0.0749525 0.015959 -1
   vertex 0.0748917 0.0146492 -1
  endloop
 endfacet
 facet normal 0 0 -1
  outer loop
   vertex 0.0748917 0.0146492 -1
   vertex 0.0749525 0.015959 -1
   vertex 0.0755244 0.015673 -1
  endloop
 endfacet
 facet normal 0 0 -1
  outer loop
   vertex 0.0748917 0.0146492 -1
   vertex 0.0755244 0.015673 -1
   vertex 0.0754416 0.0143554 -1
  endloop
 endfacet
 facet normal 0 0 -1
  outer loop
   vertex 0.0754416 0.0143554 -1
   vertex 0.0755244 0.015673 -1
   vertex 0.0760873 0.0153694 -1
  endloop
 endfacet
 facet normal 0 0 -1
  outer loop
   vertex 0.0754416 0.0143554 -1
   vertex 0.0760873 0.0153694 -1
   vertex 0.0759818 0.0140441 -1
  endloop
 endfacet
 facet normal 0 0 -1
  outer loop
   vertex 0.0759818 0.0140441 -1
   vertex 0.0760873 0.0153694 -1
   vertex 0.0766404 0.0150484 -1
  endloop
 endfacet
 facet normal 0 0 -1
  outer loop
   vertex 0.0759818 0.0140441 -1
   vertex 0.0766404 0.0150484 -1
   vertex 0.0765118 0.0137156 -1
  endloop
 endfacet
 facet normal 0 0 -1
  outer loop
   vertex 0.0765118 0.0137156 -1
   vertex 0.0766404 0.0150484 -1
   vertex 0.0771833 0.0147105 -1
  endloop
 endfacet
 facet normal 0 0 -1
  outer loop
   vertex 0.0765118 0.0137156 -1
   vertex 0.0771833 0.0147105 -1
   vertex 0.0770309 0.0133702 -1
  endloop
 endfacet
 facet normal 0 0 -1
  outer loop
   vertex 0.0770309 0.0133702 -1
   vertex 0.0771833 0.0147105 -1
   vertex 0.0777155 0.0143558 -1
  endloop
 endfacet
 facet normal 0 0 -1
  outer loop
   vertex 0.0770309 0.0133702 -1
   vertex 0.0777155 0.0143558 -1
   vertex 0.0775386 0.0130084 -1
  endloop
 endfacet
 facet normal 0 0 -1
  outer loop
   vertex 0.0775386 0.0130084 -1
   vertex 0.0777155 0.0143558 -1
   vertex 0.0782364 0.0139849 -1
  endloop
 endfacet
 facet normal 0 0 -1
  outer loop
   vertex 0.0775386 0.0130084 -1
   vertex 0.0782364 0.0139849 -1
   vertex 0.0780345 0.0126304 -1
  endloop
 endfacet
 facet normal 0 0 -1
  outer loop
   vertex 0.0780345 0.0126304 -1
   vertex 0.0782364 0.0139849 -1
   vertex 0.0787455 0.0135979 -1
  endloop
 endfacet
 facet normal 0 0 -1
  outer loop
   vertex 0.0780345 0.0126304 -1
   vertex 0.0787455 0.0135979 -1
   vertex 0.078518 0.0122367 -1
  endloop
 endfacet
 facet normal 0 0 -1
  outer loop
   vertex 0.078518 0.0122367 -1
   vertex 0.0787455 0.0135979 -1
   vertex 0.0792424 0.0131953 -1
  endloop
 endfacet
 facet normal 0 0 -1
  outer loop
   vertex 0.078518 0.0122367 -1
   vertex 0.0792424 0.0131953 -1
   vertex 0.0789885 0.0118276 -1
  endloop
 endfacet
 facet normal 0 0 -1
  outer loop
   vertex 0.0789885 0.0118276 -1
   vertex 0.0792424 0.0131953 -1
   vertex 0.0797265 0.0127775 -1
  endloop
 endfacet
 facet normal 0 0 -1
  outer loop
   vertex 0.0789885 0.0118276 -1
   vertex 0.0797265 0.0127775 -1
   vertex 0.0794457 0.0114036 -1
  endloop
 endfacet
 facet normal 0 0 -1
  outer loop
   vertex 0.0794457 0.0114036 -1
   vertex 0.0797265 0.0127775 -1
   vertex 0.0801974 0.0123448 -1
  endloop
 endfacet
 facet normal 0 0 -1
  outer loop
   vertex 0.0794457 0.0114036 -1
   vertex 0.0801974 0.0123448 -1
   vertex 0.079889 0.0109652 -1
  endloop
 endfacet
 facet normal 0 0 -1
  outer loop
   vertex 0.079889 0.0109652 -1
   vertex 0.0801974 0.0123448 -1
   vertex 0.0806547 0.0118978 -1
  endloop
 endfacet
 facet normal 0 0 -1
  outer loop
   vertex 0.079889 0.0109652 -1
   vertex 0.0806547 0.0118978 -1
   vertex 0.080318 0.0105127 -1
  endloop
 endfacet
 facet normal 0 0 -1
  outer loop
   vertex 0.080318 0.0105127 -1
   vertex 0.0806547 0.0118978 -1
   vertex 0.0810979 0.0114368 -1
  endloop
 endfacet
 facet normal 0 0 -1
  outer loop
   vertex 0.080318 0.0105127 -1
   vertex 0.0810979 0.0114368 -1
   vertex 0.0807323 0.0100467 -1
  endloop
 endfacet
 facet normal 0 0 -1
  outer loop
   vertex 0.0807323 0.0100467 -1
   vertex 0.0810979 0.0114368 -1
   vertex 0.0815266 0.0109622 -1
  endloop
 endfacet
 facet normal 0 0 -1
  outer loop
   vertex 0.0807323 0.0100467 -1
   vertex 0.0815266 0.0109622 -1
   vertex 0.0811313 0.00956763 -1
  endloop
 endfacet
 facet normal 0 0 -1
  outer loop
   vertex 0.0811313 0.00956763 -1
   vertex 0.0815266 0.0109622 -1
   vertex 0.0819403 0.0104746 -1
  endloop
 endfacet
 facet normal 0 0 -1
  outer loop
   vertex 0.0811313 0.00956763 -1
   vertex 0.0819403 0.0104746 -1
   vertex 0.0815148 0.00907599 -1
  endloop
 endfacet
 facet normal 0 0 -1
  outer loop
   vertex 0.0815148 0.00907599 -1
   vertex 0.0819403 0.0104746 -1
   vertex 0.0823387 0.00997435 -1
  endloop
 endfacet
 facet normal 0 0 -1
  outer loop
   vertex 0.0815148 0.00907599 -1
   vertex 0.0823387 0.00997435 -1
   vertex 0.0818822 0.00857226 -1
  endloop
 endfacet
 facet normal 0 0 -1
  outer loop
   vertex 0.0818822 0.00857226 -1
   vertex 0.0823387 0.00997435 -1
   vertex 0.0827214 0.009462 -1
  endloop
 endfacet
 facet normal 0 0 -1
  outer loop
   vertex 0.0818822 0.00857226 -1
   vertex 0.0827214 0.009462 -1
   vertex 0.0822333 0.008057 -1
  endloop
 endfacet
 facet normal 0 0 -1
  outer loop
   vertex 0.0822333 0.008057 -1
   vertex 0.0827214 0.009462 -1
   vertex 0.083088 0.00893801 -1
  endloop
 endfacet
 facet normal 0 0 -1
  outer loop
   vertex 0.0822333 0.008057 -1
   vertex 0.083088 0.00893801 -1
   vertex 0.0825677 0.00753072 -1
  endloop
 endfacet
 facet normal 0 0 -1
  outer loop
   vertex 0.0825677 0.00753072 -1
   vertex 0.083088 0.00893801 -1
   vertex 0.0834382 0.0084029 -1
  endloop
 endfacet
 facet normal 0 0 -1
  outer loop
   vertex 0.0825677 0.00753072 -1
   vertex 0.0834382 0.0084029 -1
   vertex 0.0828849 0.00699397 -1
  endloop
 endfacet
 facet normal 0 0 -1
  outer loop
   vertex 0.0828849 0.00699397 -1
   vertex 0.0834382 0.0084029 -1
   vertex 0.0837716 0.00785718 -1
  endloop
 endfacet
 facet normal 0 0 -1
  outer loop
   vertex 0.0828849 0.00699397 -1
   vertex 0.0837716 0.00785718 -1
   vertex 0.0840878 0.00730137 -1
  endloop
 endfacet
 facet normal -0 0 1
  outer loop
   vertex 0.0656656 0.0179904 1
   vertex 0.0656726 0.0175905 1
   vertex 0.0663051 0.0179916 1
  endloop
 endfacet
 facet normal 0 0 1
  outer loop
   vertex 0.0663051 0.0179916 1
   vertex 0.0656726 0.0175905 1
   vertex 0.0665039 0.0167876 1
  endloop
 endfacet
 facet normal 0 0 1
  outer loop
   vertex 0.0663051 0.0179916 1
   vertex 0.0665039 0.0167876 1
   vertex 0.0669443 0.017973 1
  endloop
 endfacet
 facet normal 0 0 1
  outer loop
   vertex 0.0669443 0.017973 1
   vertex 0.0665039 0.0167876 1
   vertex 0.0671269 0.0167622 1
  endloop
 endfacet
 facet normal 0 0 1
  outer loop
   vertex 0.0669443 0.017973 1
   vertex 0.0671269 0.0167622 1
   vertex 0.0675827 0.0179346 1
  endloop
 endfacet
 facet normal 0 0 1
  outer loop
   vertex 0.0675827 0.0179346 1
   vertex 0.0671269 0.0167622 1
   vertex 0.0677488 0.0167169 1
  endloop
 endfacet
 facet normal 0 0 1
  outer loop
   vertex 0.0675827 0.0179346 1
   vertex 0.0677488 0.0167169 1
   vertex 0.0682195 0.0178763 1
  endloop
 endfacet
 facet normal 0 0 1
  outer loop
   vertex 0.0682195 0.0178763 1
   vertex 0.0677488 0.0167169 1
   vertex 0.0683689 0.0166514 1
  endloop
 endfacet
 facet normal 0 0 1
  outer loop
   vertex 0.0682195 0.0178763 1
   vertex 0.0683689 0.0166514 1
   vertex 0.0688542 0.0177984 1
  endloop
 endfacet
 facet normal 0 0 1
  outer loop
   vertex 0.0688542 0.0177984 1
   vertex 0.0683689 0.0166514 1
   vertex 0.0689865 0.0165662 1
  endloop
 endfacet
 facet normal 0 0 1
  outer loop
   vertex 0.0688542 0.0177984 1
   vertex 0.0689865 0.0165662 1
   vertex 0.0694862 0.0177008 1
  endloop
 endfacet
 facet normal 0 0 1
  outer loop
   vertex 0.0694862 0.0177008 1
   vertex 0.0689865 0.0165662 1
   vertex 0.0696011 0.0164612 1
  endloop
 endfacet
 facet normal -0 0 1
  outer loop
   vertex 0.0851893 -0.0056448 1
   vertex 0.0855844 -0.0057074 1
   vertex 0.085277 -0.0050275 1
  endloop
 endfacet
 facet normal 0 0 1
  outer loop
   vertex 0.085277 -0.0050275 1
   vertex 0.0855844 -0.0057074 1
   vertex 0.0864826 -0.0050548 1
  endloop
 endfacet
 facet normal -0 0 1
  outer loop
   vertex 0.085277 -0.0050275 1
   vertex 0.0864826 -0.0050548 1
   vertex 0.0853447 -0.0044076 1
  endloop
 endfacet
 facet normal 0 0 1
  outer loop
   vertex 0.0853447 -0.0044076 1
   vertex 0.0864826 -0.0050548 1
   vertex 0.0865486 -0.0044187 1
  endloop
 endfacet
 facet normal -0 0 1
  outer loop
   vertex 0.0853447 -0.0044076 1
   vertex 0.0865486 -0.0044187 1
   vertex 0.0853925 -0.003786 1
  endloop
 endfacet
 facet normal -0 0 1
  outer loop
   vertex 0.0853925 -0.003786 1
   vertex 0.0865486 -0.0044187 1
   vertex 0.0865949 -0.0037809 1
  endloop
 endfacet
 facet normal 0 0 1
  outer loop
   vertex 0.0853925 -0.003786 1
   vertex 0.0865949 -0.0037809 1
   vertex 0.0854203 -0.00316312 1
  endloop
 endfacet
 facet normal -0 0 1
  outer loop
   vertex 0.0854203 -0.00316312 1
   vertex 0.0865949 -0.0037809 1
   vertex 0.0866213 -0.00314191 1
  endloop
 endfacet
 facet normal 0 0 1
  outer loop
   vertex 0.0854203 -0.00316312 1
   vertex 0.0866213 -0.00314191 1
   vertex 0.085428 -0.00253961 1
  endloop
 endfacet
 facet normal -0 0 1
  outer loop
   vertex 0.085428 -0.00253961 1
   vertex 0.0866213 -0.00314191 1
   vertex 0.086628 -0.0025025 1
  endloop
 endfacet
 facet normal 0 -0 1
  outer loop
   vertex 0.085428 -0.00253961 1
   vertex 0.086628 -0.0025025 1
   vertex 0.0854158 -0.00191624 1
  endloop
 endfacet
 facet normal -0 0 1
  outer loop
   vertex 0.0854158 -0.00191624 1
   vertex 0.086628 -0.0025025 1
   vertex 0.0866147 -0.00186308 1
  endloop
 endfacet
 facet normal 0 -0 1
  outer loop
   vertex 0.0854158 -0.00191624 1
   vertex 0.0866147 -0.00186308 1
   vertex 0.0853835 -0.00129358 1
  endloop
 endfacet
 facet normal -0 0 1
  outer loop
   vertex 0.0853835 -0.00129358 1
   vertex 0.0866147 -0.00186308 1
   vertex 0.0865816 -0.00122444 1
  endloop
 endfacet
 facet normal 0 -0 1
  outer loop
   vertex 0.0853835 -0.00129358 1
   vertex 0.0865816 -0.00122444 1
   vertex 0.0853313 -0.00067227 1
  endloop
 endfacet
 facet normal -0 0 1
  outer loop
   vertex 0.0853313 -0.00067227 1
   vertex 0.0865816 -0.00122444 1
   vertex 0.0865287 -0.00058719 1
  endloop
 endfacet
 facet normal 0 -0 1
  outer loop
   vertex 0.0853313 -0.00067227 1
   vertex 0.0865287 -0.00058719 1
   vertex 0.085259 -5.29499e-05 1
  endloop
 endfacet
 facet normal -0 0 1
  outer loop
   vertex 0.085259 -5.29499e-05 1
   vertex 0.0865287 -0.00058719 1
   vertex 0.0864561 4.82001e-05 1
  endloop
 endfacet
 facet normal 0 -0 1
  outer loop
   vertex 0.085259 -5.29499e-05 1
   vertex 0.0864561 4.82001e-05 1
   vertex 0.085167 0.00056372 1
  endloop
 endfacet
 facet normal -0 0 1
  outer loop
   vertex 0.085167 0.00056372 1
   vertex 0.0864561 4.82001e-05 1
   vertex 0.0863637 0.00068104 1
  endloop
 endfacet
 facet normal 0 -0 1
  outer loop
   vertex 0.085167 0.00056372 1
   vertex 0.0863637 0.00068104 1
   vertex 0.0850551 0.00117709 1
  endloop
 endfacet
 facet normal -0 0 1
  outer loop
   vertex 0.0850551 0.00117709 1
   vertex 0.0863637 0.00068104 1
   vertex 0.0862518 0.00131065 1
  endloop
 endfacet
 facet normal 0 -0 1
  outer loop
   vertex 0.0850551 0.00117709 1
   vertex 0.0862518 0.00131065 1
   vertex 0.0849236 0.00178658 1
  endloop
 endfacet
 facet normal -0 0 1
  outer loop
   vertex 0.0849236 0.00178658 1
   vertex 0.0862518 0.00131065 1
   vertex 0.0861204 0.00193649 1
  endloop
 endfacet
 facet normal 0 -0 1
  outer loop
   vertex 0.0849236 0.00178658 1
   vertex 0.0861204 0.00193649 1
   vertex 0.0847726 0.00239153 1
  endloop
 endfacet
 facet normal -0 0 1
  outer loop
   vertex 0.0847726 0.00239153 1
   vertex 0.0861204 0.00193649 1
   vertex 0.0859697 0.00255796 1
  endloop
 endfacet
 facet normal 0 -0 1
  outer loop
   vertex 0.0847726 0.00239153 1
   vertex 0.0859697 0.00255796 1
   vertex 0.0846023 0.0029913 1
  endloop
 endfacet
 facet normal -0 0 1
  outer loop
   vertex 0.0846023 0.0029913 1
   vertex 0.0859697 0.00255796 1
   vertex 0.0857997 0.00317445 1
  endloop
 endfacet
 facet normal 0 -0 1
  outer loop
   vertex 0.0846023 0.0029913 1
   vertex 0.0857997 0.00317445 1
   vertex 0.0844127 0.0035853 1
  endloop
 endfacet
 facet normal -0 0 1
  outer loop
   vertex 0.0844127 0.0035853 1
   vertex 0.0857997 0.00317445 1
   vertex 0.0856107 0.00378537 1
  endloop
 endfacet
 facet normal 0 -0 1
  outer loop
   vertex 0.0844127 0.0035853 1
   vertex 0.0856107 0.00378537 1
   vertex 0.0842042 0.0041729 1
  endloop
 endfacet
 facet normal -0 0 1
  outer loop
   vertex 0.0842042 0.0041729 1
   vertex 0.0856107 0.00378537 1
   vertex 0.0854028 0.00439014 1
  endloop
 endfacet
 facet normal 0 -0 1
  outer loop
   vertex 0.0842042 0.0041729 1
   vertex 0.0854028 0.00439014 1
   vertex 0.0839769 0.0047535 1
  endloop
 endfacet
 facet normal -0 0 1
  outer loop
   vertex 0.0839769 0.0047535 1
   vertex 0.0854028 0.00439014 1
   vertex 0.0851762 0.00498815 1
  endloop
 endfacet
 facet normal 0 -0 1
  outer loop
   vertex 0.0839769 0.0047535 1
   vertex 0.0851762 0.00498815 1
   vertex 0.0837311 0.00532649 1
  endloop
 endfacet
 facet normal -0 0 1
  outer loop
   vertex 0.0837311 0.00532649 1
   vertex 0.0851762 0.00498815 1
   vertex 0.0849312 0.00557884 1
  endloop
 endfacet
 facet normal 0 -0 1
  outer loop
   vertex 0.0837311 0.00532649 1
   vertex 0.0849312 0.00557884 1
   vertex 0.0834669 0.00589129 1
  endloop
 endfacet
 facet normal -0 0 1
  outer loop
   vertex 0.0834669 0.00589129 1
   vertex 0.0849312 0.00557884 1
   vertex 0.0846679 0.00616165 1
  endloop
 endfacet
 facet normal 0 -0 1
  outer loop
   vertex 0.0834669 0.00589129 1
   vertex 0.0846679 0.00616165 1
   vertex 0.0831848 0.00644731 1
  endloop
 endfacet
 facet normal 0 0 1
  outer loop
   vertex 0.0846679 0.00616165 1
   vertex 0.0843867 0.00673601 1
   vertex 0.0831848 0.00644731 1
  endloop
 endfacet
 facet normal 0 0 1
  outer loop
   vertex 0.0831848 0.00644731 1
   vertex 0.0843867 0.00673601 1
   vertex 0.0840878 0.00730137 1
  endloop
 endfacet
 facet normal 0 -0 1
  outer loop
   vertex 0.0831848 0.00644731 1
   vertex 0.0840878 0.00730137 1
   vertex 0.0828849 0.00699397 1
  endloop
 endfacet
 facet normal 0 0 1
  outer loop
   vertex 0.0828849 0.00699397 1
   vertex 0.0840878 0.00730137 1
   vertex 0.0837716 0.00785718 1
  endloop
 endfacet
 facet normal 0 -0 1
  outer loop
   vertex 0.0828849 0.00699397 1
   vertex 0.0837716 0.00785718 1
   vertex 0.0825677 0.00753072 1
  endloop
 endfacet
 facet normal 0 0 1
  outer loop
   vertex 0.0825677 0.00753072 1
   vertex 0.0837716 0.00785718 1
   vertex 0.0834382 0.0084029 1
  endloop
 endfacet
 facet normal 0 -0 1
  outer loop
   vertex 0.0825677 0.00753072 1
   vertex 0.0834382 0.0084029 1
   vertex 0.0822333 0.008057 1
  endloop
 endfacet
 facet normal 0 0 1
  outer loop
   vertex 0.0822333 0.008057 1
   vertex 0.0834382 0.0084029 1
   vertex 0.083088 0.00893801 1
  endloop
 endfacet
 facet normal 0 -0 1
  outer loop
   vertex 0.0822333 0.008057 1
   vertex 0.083088 0.00893801 1
   vertex 0.0818822 0.00857226 1
  endloop
 endfacet
 facet normal 0 0 1
  outer loop
   vertex 0.0818822 0.00857226 1
   vertex 0.083088 0.00893801 1
   vertex 0.0827214 0.009462 1
  endloop
 endfacet
 facet normal 0 -0 1
  outer loop
   vertex 0.0818822 0.00857226 1
   vertex 0.0827214 0.009462 1
   vertex 0.0815148 0.00907599 1
  endloop
 endfacet
 facet normal 0 0 1
  outer loop
   vertex 0.0815148 0.00907599 1
   vertex 0.0827214 0.009462 1
   vertex 0.0823387 0.00997435 1
  endloop
 endfacet
 facet normal 0 -0 1
  outer loop
   vertex 0.0815148 0.00907599 1
   vertex 0.0823387 0.00997435 1
   vertex 0.0811313 0.00956763 1
  endloop
 endfacet
 facet normal 0 0 1
  outer loop
   vertex 0.0811313 0.00956763 1
   vertex 0.0823387 0.00997435 1
   vertex 0.0819403 0.0104746 1
  endloop
 endfacet
 facet normal 0 -0 1
  outer loop
   vertex 0.0811313 0.00956763 1
   vertex 0.0819403 0.0104746 1
   vertex 0.0807323 0.0100467 1
  endloop
 endfacet
 facet normal 0 0 1
  outer loop
   vertex 0.0807323 0.0100467 1
   vertex 0.0819403 0.0104746 1
   vertex 0.0815266 0.0109622 1
  endloop
 endfacet
 facet normal 0 -0 1
  outer loop
   vertex 0.0807323 0.0100467 1
   vertex 0.0815266 0.0109622 1
   vertex 0.080318 0.0105127 1
  endloop
 endfacet
 facet normal 0 0 1
  outer loop
   vertex 0.080318 0.0105127 1
   vertex 0.0815266 0.0109622 1
   vertex 0.0810979 0.0114368 1
  endloop
 endfacet
 facet normal 0 -0 1
  outer loop
   vertex 0.080318 0.0105127 1
   vertex 0.0810979 0.0114368 1
   vertex 0.079889 0.0109652 1
  endloop
 endfacet
 facet normal 0 0 1
  outer loop
   vertex 0.079889 0.0109652 1
   vertex 0.0810979 0.0114368 1
   vertex 0.0806547 0.0118978 1
  endloop
 endfacet
 facet normal 0 -0 1
  outer loop
   vertex 0.079889 0.0109652 1
   vertex 0.0806547 0.0118978 1
   vertex 0.0794457 0.0114036 1
  endloop
 endfacet
 facet normal 0 0 1
  outer loop
   vertex 0.0794457 0.0114036 1
   vertex 0.0806547 0.0118978 1
   vertex 0.0801974 0.0123448 1
  endloop
 endfacet
 facet normal 0 -0 1
  outer loop
   vertex 0.0794457 0.0114036 1
   vertex 0.0801974 0.0123448 1
   vertex 0.0789885 0.0118276 1
  endloop
 endfacet
 facet normal 0 0 1
  outer loop
   vertex 0.0789885 0.0118276 1
   vertex 0.0801974 0.0123448 1
   vertex 0.0797265 0.0127775 1
  endloop
 endfacet
 facet normal 0 -0 1
  outer loop
   vertex 0.0789885 0.0118276 1
   vertex 0.0797265 0.0127775 1
   vertex 0.078518 0.0122367 1
  endloop
 endfacet
 facet normal 0 0 1
  outer loop
   vertex 0.078518 0.0122367 1
   vertex 0.0797265 0.0127775 1
   vertex 0.0792424 0.0131953 1
  endloop
 endfacet
 facet normal 0 -0 1
  outer loop
   vertex 0.078518 0.0122367 1
   vertex 0.0792424 0.0131953 1
   vertex 0.0780345 0.0126304 1
  endloop
 endfacet
 facet normal 0 0 1
  outer loop
   vertex 0.0780345 0.0126304 1
   vertex 0.0792424 0.0131953 1
   vertex 0.0787455 0.0135979 1
  endloop
 endfacet
 facet normal 0 -0 1
  outer loop
   vertex 0.0780345 0.0126304 1
   vertex 0.0787455 0.0135979 1
   vertex 0.0775386 0.0130084 1
  endloop
 endfacet
 facet normal 0 0 1
  outer loop
   vertex 0.0775386 0.0130084 1
   vertex 0.0787455 0.0135979 1
   vertex 0.0782364 0.0139849 1
  endloop
 endfacet
 facet normal 0 -0 1
  outer loop
   vertex 0.0775386 0.0130084 1
   vertex 0.0782364 0.0139849 1
   vertex 0.0770309 0.0133702 1
  endloop
 endfacet
 facet normal 0 0 1
  outer loop
   vertex 0.0770309 0.0133702 1
   vertex 0.0782364 0.0139849 1
   vertex 0.0777155 0.0143558 1
  endloop
 endfacet
 facet normal 0 -0 1
  outer loop
   vertex 0.0770309 0.0133702 1
   vertex 0.0777155 0.0143558 1
   vertex 0.0765118 0.0137156 1
  endloop
 endfacet
 facet normal 0 0 1
  outer loop
   vertex 0.0765118 0.0137156 1
   vertex 0.0777155 0.0143558 1
   vertex 0.0771833 0.0147105 1
  endloop
 endfacet
 facet normal 0 -0 1
  outer loop
   vertex 0.0765118 0.0137156 1
   vertex 0.0771833 0.0147105 1
   vertex 0.0759818 0.0140441 1
  endloop
 endfacet
 facet normal 0 0 1
  outer loop
   vertex 0.0759818 0.0140441 1
   vertex 0.0771833 0.0147105 1
   vertex 0.0766404 0.0150484 1
  endloop
 endfacet
 facet normal 0 -0 1
  outer loop
   vertex 0.0759818 0.0140441 1
   vertex 0.0766404 0.0150484 1
   vertex 0.0754416 0.0143554 1
  endloop
 endfacet
 facet normal 0 0 1
  outer loop
   vertex 0.0754416 0.0143554 1
   vertex 0.0766404 0.0150484 1
   vertex 0.0760873 0.0153694 1
  endloop
 endfacet
 facet normal 0 -0 1
  outer loop
   vertex 0.0754416 0.0143554 1
   vertex 0.0760873 0.0153694 1
   vertex 0.0748917 0.0146492 1
  endloop
 endfacet
 facet normal 0 0 1
  outer loop
   vertex 0.0748917 0.0146492 1
   vertex 0.0760873 0.0153694 1
   vertex 0.0755244 0.015673 1
  endloop
 endfacet
 facet normal 0 -0 1
  outer loop
   vertex 0.0748917 0.0146492 1
   vertex 0.0755244 0.015673 1
   vertex 0.0743326 0.0149252 1
  endloop
 endfacet
 facet normal 0 0 1
  outer loop
   vertex 0.0743326 0.0149252 1
   vertex 0.0755244 0.015673 1
   vertex 0.0749525 0.015959 1
  endloop
 endfacet
 facet normal 0 -0 1
  outer loop
   vertex 0.0743326 0.0149252 1
   vertex 0.0749525 0.015959 1
   vertex 0.0737649 0.0151831 1
  endloop
 endfacet
 facet normal 0 0 1
  outer loop
   vertex 0.0737649 0.0151831 1
   vertex 0.0749525 0.015959 1
   vertex 0.0743719 0.0162271 1
  endloop
 endfacet
 facet normal 0 -0 1
  outer loop
   vertex 0.0737649 0.0151831 1
   vertex 0.0743719 0.0162271 1
   vertex 0.0731892 0.0154225 1
  endloop
 endfacet
 facet normal 0 0 1
  outer loop
   vertex 0.0731892 0.0154225 1
   vertex 0.0743719 0.0162271 1
   vertex 0.0737833 0.0164771 1
  endloop
 endfacet
 facet normal 0 -0 1
  outer loop
   vertex 0.0731892 0.0154225 1
   vertex 0.0737833 0.0164771 1
   vertex 0.0726061 0.0156434 1
  endloop
 endfacet
 facet normal 0 0 1
  outer loop
   vertex 0.0726061 0.0156434 1
   vertex 0.0737833 0.0164771 1
   vertex 0.0731872 0.0167087 1
  endloop
 endfacet
 facet normal 0 -0 1
  outer loop
   vertex 0.0726061 0.0156434 1
   vertex 0.0731872 0.0167087 1
   vertex 0.0720163 0.0158454 1
  endloop
 endfacet
 facet normal 0 0 1
  outer loop
   vertex 0.0720163 0.0158454 1
   vertex 0.0731872 0.0167087 1
   vertex 0.0725842 0.0169216 1
  endloop
 endfacet
 facet normal 0 -0 1
  outer loop
   vertex 0.0720163 0.0158454 1
   vertex 0.0725842 0.0169216 1
   vertex 0.0714202 0.0160284 1
  endloop
 endfacet
 facet normal 0 0 1
  outer loop
   vertex 0.0714202 0.0160284 1
   vertex 0.0725842 0.0169216 1
   vertex 0.0719749 0.0171158 1
  endloop
 endfacet
 facet normal 0 -0 1
  outer loop
   vertex 0.0714202 0.0160284 1
   vertex 0.0719749 0.0171158 1
   vertex 0.0708186 0.0161921 1
  endloop
 endfacet
 facet normal 0 0 1
  outer loop
   vertex 0.0708186 0.0161921 1
   vertex 0.0719749 0.0171158 1
   vertex 0.0713598 0.0172909 1
  endloop
 endfacet
 facet normal 0 -0 1
  outer loop
   vertex 0.0708186 0.0161921 1
   vertex 0.0713598 0.0172909 1
   vertex 0.070212 0.0163365 1
  endloop
 endfacet
 facet normal 0 0 1
  outer loop
   vertex 0.070212 0.0163365 1
   vertex 0.0713598 0.0172909 1
   vertex 0.0707396 0.0174469 1
  endloop
 endfacet
 facet normal 0 -0 1
  outer loop
   vertex 0.070212 0.0163365 1
   vertex 0.0707396 0.0174469 1
   vertex 0.0696011 0.0164612 1
  endloop
 endfacet
 facet normal 0 0 1
  outer loop
   vertex 0.0696011 0.0164612 1
   vertex 0.0707396 0.0174469 1
   vertex 0.0701149 0.0175836 1
  endloop
 endfacet
 facet normal 0 -0 1
  outer loop
   vertex 0.0696011 0.0164612 1
   vertex 0.0701149 0.0175836 1
   vertex 0.0694862 0.0177008 1
  endloop
 endfacet
 facet normal 0.587798 -0.809008 0
  outer loop
   vertex 0.0864826 -0.0050548 1
   vertex 0.0855844 -0.0057074 1
   vertex 0.0864826 -0.0050548 -1
  endloop
 endfacet
 facet normal 0.587798 -0.809008 0
  outer loop
   vertex 0.0864826 -0.0050548 -1
   vertex 0.0855844 -0.0057074 1
   vertex 0.0855844 -0.0057074 -1
  endloop
 endfacet
 facet normal -0.694714 -0.719286 -0
  outer loop
   vertex 0.0665039 0.0167876 1
   vertex 0.0656726 0.0175905 1
   vertex 0.0665039 0.0167876 -1
  endloop
 endfacet
 facet normal -0.694714 -0.719286 0
  outer loop
   vertex 0.0665039 0.0167876 -1
   vertex 0.0656726 0.0175905 1
   vertex 0.0656726 0.0175905 -1
  endloop
 endfacet
endsolid tunner_vane
