solid tunner_vane
 facet normal -0.00187574 0.999998 0
  outer loop
   vertex 0.0489656 0.0013204 -1
   vertex 0.0489656 0.0013204 1
   vertex 0.0496051 0.0013216 1
  endloop
 endfacet
 facet normal -0.00187574 0.999998 0
  outer loop
   vertex 0.0489656 0.0013204 -1
   vertex 0.0496051 0.0013216 1
   vertex 0.0496051 0.0013216 -1
  endloop
 endfacet
 facet normal 0.0290857 0.999577 -0
  outer loop
   vertex 0.0496051 0.0013216 -1
   vertex 0.0496051 0.0013216 1
   vertex 0.0502443 0.001303 1
  endloop
 endfacet
 facet normal 0.0290857 0.999577 0
  outer loop
   vertex 0.0496051 0.0013216 -1
   vertex 0.0502443 0.001303 1
   vertex 0.0502443 0.001303 -1
  endloop
 endfacet
 facet normal 0.0600424 0.998196 -0
  outer loop
   vertex 0.0502443 0.001303 -1
   vertex 0.0502443 0.001303 1
   vertex 0.0508827 0.0012646 1
  endloop
 endfacet
 facet normal 0.0600424 0.998196 0
  outer loop
   vertex 0.0502443 0.001303 -1
   vertex 0.0508827 0.0012646 1
   vertex 0.0508827 0.0012646 -1
  endloop
 endfacet
 facet normal 0.0911704 0.995835 -0
  outer loop
   vertex 0.0508827 0.0012646 -1
   vertex 0.0508827 0.0012646 1
   vertex 0.0515195 0.0012063 1
  endloop
 endfacet
 facet normal 0.0911704 0.995835 0
  outer loop
   vertex 0.0508827 0.0012646 -1
   vertex 0.0515195 0.0012063 1
   vertex 0.0515195 0.0012063 -1
  endloop
 endfacet
 facet normal 0.12182 0.992552 -0
  outer loop
   vertex 0.0515195 0.0012063 -1
   vertex 0.0515195 0.0012063 1
   vertex 0.0521542 0.0011284 1
  endloop
 endfacet
 facet normal 0.12182 0.992552 0
  outer loop
   vertex 0.0515195 0.0012063 -1
   vertex 0.0521542 0.0011284 1
   vertex 0.0521542 0.0011284 -1
  endloop
 endfacet
 facet normal 0.152622 0.988285 -0
  outer loop
   vertex 0.0521542 0.0011284 -1
   vertex 0.0521542 0.0011284 1
   vertex 0.0527862 0.0010308 1
  endloop
 endfacet
 facet normal 0.152622 0.988285 0
  outer loop
   vertex 0.0521542 0.0011284 -1
   vertex 0.0527862 0.0010308 1
   vertex 0.0527862 0.0010308 -1
  endloop
 endfacet
 facet normal 0.183259 0.983065 -0
  outer loop
   vertex 0.0527862 0.0010308 -1
   vertex 0.0527862 0.0010308 1
   vertex 0.0534149 0.0009136 1
  endloop
 endfacet
 facet normal 0.183259 0.983065 0
  outer loop
   vertex 0.0527862 0.0010308 -1
   vertex 0.0534149 0.0009136 1
   vertex 0.0534149 0.0009136 -1
  endloop
 endfacet
 facet normal 0.213767 0.976885 -0
  outer loop
   vertex 0.0534149 0.0009136 -1
   vertex 0.0534149 0.0009136 1
   vertex 0.0540396 0.0007769 1
  endloop
 endfacet
 facet normal 0.213767 0.976885 0
  outer loop
   vertex 0.0534149 0.0009136 -1
   vertex 0.0540396 0.0007769 1
   vertex 0.0540396 0.0007769 -1
  endloop
 endfacet
 facet normal 0.243933 0.969792 -0
  outer loop
   vertex 0.0540396 0.0007769 -1
   vertex 0.0540396 0.0007769 1
   vertex 0.0546598 0.0006209 1
  endloop
 endfacet
 facet normal 0.243933 0.969792 0
  outer loop
   vertex 0.0540396 0.0007769 -1
   vertex 0.0546598 0.0006209 1
   vertex 0.0546598 0.0006209 -1
  endloop
 endfacet
 facet normal 0.273792 0.961789 -0
  outer loop
   vertex 0.0546598 0.0006209 -1
   vertex 0.0546598 0.0006209 1
   vertex 0.0552749 0.0004458 1
  endloop
 endfacet
 facet normal 0.273792 0.961789 0
  outer loop
   vertex 0.0546598 0.0006209 -1
   vertex 0.0552749 0.0004458 1
   vertex 0.0552749 0.0004458 -1
  endloop
 endfacet
 facet normal 0.303673 0.952776 -0
  outer loop
   vertex 0.0552749 0.0004458 -1
   vertex 0.0552749 0.0004458 1
   vertex 0.0558842 0.0002516 1
  endloop
 endfacet
 facet normal 0.303673 0.952776 0
  outer loop
   vertex 0.0552749 0.0004458 -1
   vertex 0.0558842 0.0002516 1
   vertex 0.0558842 0.0002516 -1
  endloop
 endfacet
 facet normal 0.332928 0.942952 -0
  outer loop
   vertex 0.0558842 0.0002516 -1
   vertex 0.0558842 0.0002516 1
   vertex 0.0564872 3.87e-05 1
  endloop
 endfacet
 facet normal 0.332928 0.942952 0
  outer loop
   vertex 0.0558842 0.0002516 -1
   vertex 0.0564872 3.87e-05 1
   vertex 0.0564872 3.87e-05 -1
  endloop
 endfacet
 facet normal 0.362178 0.932109 -0
  outer loop
   vertex 0.0564872 3.87e-05 -1
   vertex 0.0564872 3.87e-05 1
   vertex 0.0570833 -0.00019292 1
  endloop
 endfacet
 facet normal 0.362178 0.932109 0
  outer loop
   vertex 0.0564872 3.87e-05 -1
   vertex 0.0570833 -0.00019292 1
   vertex 0.0570833 -0.00019292 -1
  endloop
 endfacet
 facet normal 0.390909 0.920429 -0
  outer loop
   vertex 0.0570833 -0.00019292 -1
   vertex 0.0570833 -0.00019292 1
   vertex 0.0576719 -0.0004429 1
  endloop
 endfacet
 facet normal 0.390909 0.920429 0
  outer loop
   vertex 0.0570833 -0.00019292 -1
   vertex 0.0576719 -0.0004429 1
   vertex 0.0576719 -0.0004429 -1
  endloop
 endfacet
 facet normal 0.419241 0.907875 -0
  outer loop
   vertex 0.0576719 -0.0004429 -1
   vertex 0.0576719 -0.0004429 1
   vertex 0.0582525 -0.00071101 1
  endloop
 endfacet
 facet normal 0.419241 0.907875 0
  outer loop
   vertex 0.0576719 -0.0004429 -1
   vertex 0.0582525 -0.00071101 1
   vertex 0.0582525 -0.00071101 -1
  endloop
 endfacet
 facet normal 0.447287 0.89439 -0
  outer loop
   vertex 0.0582525 -0.00071101 -1
   vertex 0.0582525 -0.00071101 1
   vertex 0.0588244 -0.00099702 1
  endloop
 endfacet
 facet normal 0.447287 0.89439 0
  outer loop
   vertex 0.0582525 -0.00071101 -1
   vertex 0.0588244 -0.00099702 1
   vertex 0.0588244 -0.00099702 -1
  endloop
 endfacet
 facet normal 0.47473 0.880131 -0
  outer loop
   vertex 0.0588244 -0.00099702 -1
   vertex 0.0588244 -0.00099702 1
   vertex 0.0593873 -0.00130064 1
  endloop
 endfacet
 facet normal 0.47473 0.880131 0
  outer loop
   vertex 0.0588244 -0.00099702 -1
   vertex 0.0593873 -0.00130064 1
   vertex 0.0593873 -0.00130064 -1
  endloop
 endfacet
 facet normal 0.501884 0.864935 -0
  outer loop
   vertex 0.0593873 -0.00130064 -1
   vertex 0.0593873 -0.00130064 1
   vertex 0.0599404 -0.00162158 1
  endloop
 endfacet
 facet normal 0.501884 0.864935 0
  outer loop
   vertex 0.0593873 -0.00130064 -1
   vertex 0.0599404 -0.00162158 1
   vertex 0.0599404 -0.00162158 -1
  endloop
 endfacet
 facet normal 0.528468 0.848954 -0
  outer loop
   vertex 0.0599404 -0.00162158 -1
   vertex 0.0599404 -0.00162158 1
   vertex 0.0604833 -0.00195953 1
  endloop
 endfacet
 facet normal 0.528468 0.848954 0
  outer loop
   vertex 0.0599404 -0.00162158 -1
   vertex 0.0604833 -0.00195953 1
   vertex 0.0604833 -0.00195953 -1
  endloop
 endfacet
 facet normal 0.554525 0.832167 -0
  outer loop
   vertex 0.0604833 -0.00195953 -1
   vertex 0.0604833 -0.00195953 1
   vertex 0.0610155 -0.00231417 1
  endloop
 endfacet
 facet normal 0.554525 0.832167 0
  outer loop
   vertex 0.0604833 -0.00195953 -1
   vertex 0.0610155 -0.00231417 1
   vertex 0.0610155 -0.00231417 -1
  endloop
 endfacet
 facet normal 0.580107 0.81454 -0
  outer loop
   vertex 0.0610155 -0.00231417 -1
   vertex 0.0610155 -0.00231417 1
   vertex 0.0615364 -0.00268515 1
  endloop
 endfacet
 facet normal 0.580107 0.81454 0
  outer loop
   vertex 0.0610155 -0.00231417 -1
   vertex 0.0615364 -0.00268515 1
   vertex 0.0615364 -0.00268515 -1
  endloop
 endfacet
 facet normal 0.605138 0.79612 -0
  outer loop
   vertex 0.0615364 -0.00268515 -1
   vertex 0.0615364 -0.00268515 1
   vertex 0.0620455 -0.00307212 1
  endloop
 endfacet
 facet normal 0.605138 0.79612 0
  outer loop
   vertex 0.0615364 -0.00268515 -1
   vertex 0.0620455 -0.00307212 1
   vertex 0.0620455 -0.00307212 -1
  endloop
 endfacet
 facet normal 0.629516 0.776988 -0
  outer loop
   vertex 0.0620455 -0.00307212 -1
   vertex 0.0620455 -0.00307212 1
   vertex 0.0625424 -0.00347471 1
  endloop
 endfacet
 facet normal 0.629516 0.776988 0
  outer loop
   vertex 0.0620455 -0.00307212 -1
   vertex 0.0625424 -0.00347471 1
   vertex 0.0625424 -0.00347471 -1
  endloop
 endfacet
 facet normal 0.65338 0.75703 -0
  outer loop
   vertex 0.0625424 -0.00347471 -1
   vertex 0.0625424 -0.00347471 1
   vertex 0.0630265 -0.00389253 1
  endloop
 endfacet
 facet normal 0.65338 0.75703 0
  outer loop
   vertex 0.0625424 -0.00347471 -1
   vertex 0.0630265 -0.00389253 1
   vertex 0.0630265 -0.00389253 -1
  endloop
 endfacet
 facet normal 0.676551 0.736396 -0
  outer loop
   vertex 0.0630265 -0.00389253 -1
   vertex 0.0630265 -0.00389253 1
   vertex 0.0634974 -0.00432516 1
  endloop
 endfacet
 facet normal 0.676551 0.736396 0
  outer loop
   vertex 0.0630265 -0.00389253 -1
   vertex 0.0634974 -0.00432516 1
   vertex 0.0634974 -0.00432516 -1
  endloop
 endfacet
 facet normal 0.699046 0.715077 -0
  outer loop
   vertex 0.0634974 -0.00432516 -1
   vertex 0.0634974 -0.00432516 1
   vertex 0.0639547 -0.00477221 1
  endloop
 endfacet
 facet normal 0.699046 0.715077 0
  outer loop
   vertex 0.0634974 -0.00432516 -1
   vertex 0.0639547 -0.00477221 1
   vertex 0.0639547 -0.00477221 -1
  endloop
 endfacet
 facet normal 0.720904 0.693035 -0
  outer loop
   vertex 0.0639547 -0.00477221 -1
   vertex 0.0639547 -0.00477221 1
   vertex 0.0643979 -0.00523323 1
  endloop
 endfacet
 facet normal 0.720904 0.693035 0
  outer loop
   vertex 0.0639547 -0.00477221 -1
   vertex 0.0643979 -0.00523323 1
   vertex 0.0643979 -0.00523323 -1
  endloop
 endfacet
 facet normal 0.742046 0.670349 -0
  outer loop
   vertex 0.0643979 -0.00523323 -1
   vertex 0.0643979 -0.00523323 1
   vertex 0.0648266 -0.00570778 1
  endloop
 endfacet
 facet normal 0.742046 0.670349 0
  outer loop
   vertex 0.0643979 -0.00523323 -1
   vertex 0.0648266 -0.00570778 1
   vertex 0.0648266 -0.00570778 -1
  endloop
 endfacet
 facet normal 0.762544 0.646936 -0
  outer loop
   vertex 0.0648266 -0.00570778 -1
   vertex 0.0648266 -0.00570778 1
   vertex 0.0652403 -0.00619541 1
  endloop
 endfacet
 facet normal 0.762544 0.646936 0
  outer loop
   vertex 0.0648266 -0.00570778 -1
   vertex 0.0652403 -0.00619541 1
   vertex 0.0652403 -0.00619541 -1
  endloop
 endfacet
 facet normal 0.782236 0.622982 -0
  outer loop
   vertex 0.0652403 -0.00619541 -1
   vertex 0.0652403 -0.00619541 1
   vertex 0.0656387 -0.00669565 1
  endloop
 endfacet
 facet normal 0.782236 0.622982 0
  outer loop
   vertex 0.0652403 -0.00619541 -1
   vertex 0.0656387 -0.00669565 1
   vertex 0.0656387 -0.00669565 -1
  endloop
 endfacet
 facet normal 0.801172 0.598434 -0
  outer loop
   vertex 0.0656387 -0.00669565 -1
   vertex 0.0656387 -0.00669565 1
   vertex 0.0660214 -0.007208 1
  endloop
 endfacet
 facet normal 0.801172 0.598434 0
  outer loop
   vertex 0.0656387 -0.00669565 -1
   vertex 0.0660214 -0.007208 1
   vertex 0.0660214 -0.007208 -1
  endloop
 endfacet
 facet normal 0.819369 0.573266 -0
  outer loop
   vertex 0.0660214 -0.007208 -1
   vertex 0.0660214 -0.007208 1
   vertex 0.066388 -0.00773199 1
  endloop
 endfacet
 facet normal 0.819369 0.573266 0
  outer loop
   vertex 0.0660214 -0.007208 -1
   vertex 0.066388 -0.00773199 1
   vertex 0.066388 -0.00773199 -1
  endloop
 endfacet
 facet normal 0.83674 0.5476 -0
  outer loop
   vertex 0.066388 -0.00773199 -1
   vertex 0.066388 -0.00773199 1
   vertex 0.0667382 -0.0082671 1
  endloop
 endfacet
 facet normal 0.83674 0.5476 0
  outer loop
   vertex 0.066388 -0.00773199 -1
   vertex 0.0667382 -0.0082671 1
   vertex 0.0667382 -0.0082671 -1
  endloop
 endfacet
 facet normal 0.853349 0.52134 -0
  outer loop
   vertex 0.0667382 -0.0082671 -1
   vertex 0.0667382 -0.0082671 1
   vertex 0.0670716 -0.00881282 1
  endloop
 endfacet
 facet normal 0.853349 0.52134 0
  outer loop
   vertex 0.0667382 -0.0082671 -1
   vertex 0.0670716 -0.00881282 1
   vertex 0.0670716 -0.00881282 -1
  endloop
 endfacet
 facet normal 0.869192 0.494474 -0
  outer loop
   vertex 0.0670716 -0.00881282 -1
   vertex 0.0670716 -0.00881282 1
   vertex 0.0673878 -0.00936863 1
  endloop
 endfacet
 facet normal 0.869192 0.494474 0
  outer loop
   vertex 0.0670716 -0.00881282 -1
   vertex 0.0673878 -0.00936863 1
   vertex 0.0673878 -0.00936863 -1
  endloop
 endfacet
 facet normal 0.884048 0.467395 -0
  outer loop
   vertex 0.0673878 -0.00936863 -1
   vertex 0.0673878 -0.00936863 1
   vertex 0.0676867 -0.00993399 1
  endloop
 endfacet
 facet normal 0.884048 0.467395 0
  outer loop
   vertex 0.0673878 -0.00936863 -1
   vertex 0.0676867 -0.00993399 1
   vertex 0.0676867 -0.00993399 -1
  endloop
 endfacet
 facet normal 0.898137 0.439716 -0
  outer loop
   vertex 0.0676867 -0.00993399 -1
   vertex 0.0676867 -0.00993399 1
   vertex 0.0679679 -0.0105083 1
  endloop
 endfacet
 facet normal 0.898137 0.439716 0
  outer loop
   vertex 0.0676867 -0.00993399 -1
   vertex 0.0679679 -0.0105083 1
   vertex 0.0679679 -0.0105083 -1
  endloop
 endfacet
 facet normal 0.911313 0.411714 -0
  outer loop
   vertex 0.0679679 -0.0105083 -1
   vertex 0.0679679 -0.0105083 1
   vertex 0.0682312 -0.0110912 1
  endloop
 endfacet
 facet normal 0.911313 0.411714 0
  outer loop
   vertex 0.0679679 -0.0105083 -1
   vertex 0.0682312 -0.0110912 1
   vertex 0.0682312 -0.0110912 -1
  endloop
 endfacet
 facet normal 0.923699 0.383118 -0
  outer loop
   vertex 0.0682312 -0.0110912 -1
   vertex 0.0682312 -0.0110912 1
   vertex 0.0684762 -0.0116818 1
  endloop
 endfacet
 facet normal 0.923699 0.383118 0
  outer loop
   vertex 0.0682312 -0.0110912 -1
   vertex 0.0684762 -0.0116818 1
   vertex 0.0684762 -0.0116818 -1
  endloop
 endfacet
 facet normal 0.935116 0.354341 -0
  outer loop
   vertex 0.0684762 -0.0116818 -1
   vertex 0.0684762 -0.0116818 1
   vertex 0.0687028 -0.0122799 1
  endloop
 endfacet
 facet normal 0.935116 0.354341 0
  outer loop
   vertex 0.0684762 -0.0116818 -1
   vertex 0.0687028 -0.0122799 1
   vertex 0.0687028 -0.0122799 -1
  endloop
 endfacet
 facet normal 0.945681 0.325096 -0
  outer loop
   vertex 0.0687028 -0.0122799 -1
   vertex 0.0687028 -0.0122799 1
   vertex 0.0689107 -0.0128846 1
  endloop
 endfacet
 facet normal 0.945681 0.325096 0
  outer loop
   vertex 0.0687028 -0.0122799 -1
   vertex 0.0689107 -0.0128846 1
   vertex 0.0689107 -0.0128846 -1
  endloop
 endfacet
 facet normal 0.955328 0.295548 -0
  outer loop
   vertex 0.0689107 -0.0128846 -1
   vertex 0.0689107 -0.0128846 1
   vertex 0.0690997 -0.0134956 1
  endloop
 endfacet
 facet normal 0.955328 0.295548 0
  outer loop
   vertex 0.0689107 -0.0128846 -1
   vertex 0.0690997 -0.0134956 1
   vertex 0.0690997 -0.0134956 -1
  endloop
 endfacet
 facet normal 0.964019 0.265833 -0
  outer loop
   vertex 0.0690997 -0.0134956 -1
   vertex 0.0690997 -0.0134956 1
   vertex 0.0692697 -0.014112 1
  endloop
 endfacet
 facet normal 0.964019 0.265833 0
  outer loop
   vertex 0.0690997 -0.0134956 -1
   vertex 0.0692697 -0.014112 1
   vertex 0.0692697 -0.014112 -1
  endloop
 endfacet
 facet normal 0.971837 0.235653 -0
  outer loop
   vertex 0.0692697 -0.014112 -1
   vertex 0.0692697 -0.014112 1
   vertex 0.0694204 -0.0147335 1
  endloop
 endfacet
 facet normal 0.971837 0.235653 0
  outer loop
   vertex 0.0692697 -0.014112 -1
   vertex 0.0694204 -0.0147335 1
   vertex 0.0694204 -0.0147335 -1
  endloop
 endfacet
 facet normal 0.97866 0.205487 -0
  outer loop
   vertex 0.0694204 -0.0147335 -1
   vertex 0.0694204 -0.0147335 1
   vertex 0.0695518 -0.0153593 1
  endloop
 endfacet
 facet normal 0.97866 0.205487 0
  outer loop
   vertex 0.0694204 -0.0147335 -1
   vertex 0.0695518 -0.0153593 1
   vertex 0.0695518 -0.0153593 -1
  endloop
 endfacet
 facet normal 0.984571 0.174987 -0
  outer loop
   vertex 0.0695518 -0.0153593 -1
   vertex 0.0695518 -0.0153593 1
   vertex 0.0696637 -0.015989 1
  endloop
 endfacet
 facet normal 0.984571 0.174987 0
  outer loop
   vertex 0.0695518 -0.0153593 -1
   vertex 0.0696637 -0.015989 1
   vertex 0.0696637 -0.015989 -1
  endloop
 endfacet
 facet normal 0.989509 0.144468 -0
  outer loop
   vertex 0.0696637 -0.015989 -1
   vertex 0.0696637 -0.015989 1
   vertex 0.0697561 -0.0166218 1
  endloop
 endfacet
 facet normal 0.989509 0.144468 0
  outer loop
   vertex 0.0696637 -0.015989 -1
   vertex 0.0697561 -0.0166218 1
   vertex 0.0697561 -0.0166218 -1
  endloop
 endfacet
 facet normal 0.993536 0.113519 -0
  outer loop
   vertex 0.0697561 -0.0166218 -1
   vertex 0.0697561 -0.0166218 1
   vertex 0.0698287 -0.0172572 1
  endloop
 endfacet
 facet normal 0.993536 0.113519 0
  outer loop
   vertex 0.0697561 -0.0166218 -1
   vertex 0.0698287 -0.0172572 1
   vertex 0.0698287 -0.0172572 -1
  endloop
 endfacet
 facet normal 0.996571 0.0827387 -0
  outer loop
   vertex 0.0698287 -0.0172572 -1
   vertex 0.0698287 -0.0172572 1
   vertex 0.0698816 -0.0178944 1
  endloop
 endfacet
 facet normal 0.996571 0.0827387 0
  outer loop
   vertex 0.0698287 -0.0172572 -1
   vertex 0.0698816 -0.0178944 1
   vertex 0.0698816 -0.0178944 -1
  endloop
 endfacet
 facet normal 0.99866 0.0517523 -0
  outer loop
   vertex 0.0698816 -0.0178944 -1
   vertex 0.0698816 -0.0178944 1
   vertex 0.0699147 -0.0185331 1
  endloop
 endfacet
 facet normal 0.99866 0.0517523 0
  outer loop
   vertex 0.0698816 -0.0178944 -1
   vertex 0.0699147 -0.0185331 1
   vertex 0.0699147 -0.0185331 -1
  endloop
 endfacet
 facet normal 0.999784 0.0207945 -0
  outer loop
   vertex 0.0699147 -0.0185331 -1
   vertex 0.0699147 -0.0185331 1
   vertex 0.069928 -0.0191725 1
  endloop
 endfacet
 facet normal 0.999784 0.0207945 0
  outer loop
   vertex 0.0699147 -0.0185331 -1
   vertex 0.069928 -0.0191725 1
   vertex 0.069928 -0.0191725 -1
  endloop
 endfacet
 facet normal 0.999945 -0.0104748 0
  outer loop
   vertex 0.069928 -0.0191725 -1
   vertex 0.069928 -0.0191725 1
   vertex 0.0699213 -0.0198119 1
  endloop
 endfacet
 facet normal 0.999945 -0.0104748 0
  outer loop
   vertex 0.069928 -0.0191725 -1
   vertex 0.0699213 -0.0198119 1
   vertex 0.0699213 -0.0198119 -1
  endloop
 endfacet
 facet normal 0.999148 -0.041276 0
  outer loop
   vertex 0.0699213 -0.0198119 -1
   vertex 0.0699213 -0.0198119 1
   vertex 0.0698949 -0.0204509 1
  endloop
 endfacet
 facet normal 0.999148 -0.041276 0
  outer loop
   vertex 0.0699213 -0.0198119 -1
   vertex 0.0698949 -0.0204509 1
   vertex 0.0698949 -0.0204509 -1
  endloop
 endfacet
 facet normal 0.997375 -0.0724111 0
  outer loop
   vertex 0.0698949 -0.0204509 -1
   vertex 0.0698949 -0.0204509 1
   vertex 0.0698486 -0.0210887 1
  endloop
 endfacet
 facet normal 0.997375 -0.0724111 0
  outer loop
   vertex 0.0698949 -0.0204509 -1
   vertex 0.0698486 -0.0210887 1
   vertex 0.0698486 -0.0210887 -1
  endloop
 endfacet
 facet normal 0.994661 -0.103199 0
  outer loop
   vertex 0.0698486 -0.0210887 -1
   vertex 0.0698486 -0.0210887 1
   vertex 0.0697826 -0.0217248 1
  endloop
 endfacet
 facet normal 0.994661 -0.103199 0
  outer loop
   vertex 0.0698486 -0.0210887 -1
   vertex 0.0697826 -0.0217248 1
   vertex 0.0697826 -0.0217248 -1
  endloop
 endfacet
 facet normal -0.156487 -0.98768 -0
  outer loop
   vertex 0.0688844 -0.0223774 1
   vertex 0.0684893 -0.0223148 1
   vertex 0.0688844 -0.0223774 -1
  endloop
 endfacet
 facet normal -0.156487 -0.98768 0
  outer loop
   vertex 0.0688844 -0.0223774 -1
   vertex 0.0684893 -0.0223148 1
   vertex 0.0684893 -0.0223148 -1
  endloop
 endfacet
 facet normal -0.990058 0.140659 0
  outer loop
   vertex 0.0684893 -0.0223148 -1
   vertex 0.0684893 -0.0223148 1
   vertex 0.068577 -0.0216975 -1
  endloop
 endfacet
 facet normal -0.990058 0.140659 0
  outer loop
   vertex 0.068577 -0.0216975 -1
   vertex 0.0684893 -0.0223148 1
   vertex 0.068577 -0.0216975 1
  endloop
 endfacet
 facet normal -0.994089 0.108571 0
  outer loop
   vertex 0.068577 -0.0216975 -1
   vertex 0.068577 -0.0216975 1
   vertex 0.0686447 -0.0210776 -1
  endloop
 endfacet
 facet normal -0.994089 0.108571 0
  outer loop
   vertex 0.0686447 -0.0210776 -1
   vertex 0.068577 -0.0216975 1
   vertex 0.0686447 -0.0210776 1
  endloop
 endfacet
 facet normal -0.997057 0.0766649 0
  outer loop
   vertex 0.0686447 -0.0210776 -1
   vertex 0.0686447 -0.0210776 1
   vertex 0.0686925 -0.020456 -1
  endloop
 endfacet
 facet normal -0.997057 0.0766649 0
  outer loop
   vertex 0.0686925 -0.020456 -1
   vertex 0.0686447 -0.0210776 1
   vertex 0.0686925 -0.020456 1
  endloop
 endfacet
 facet normal -0.999005 0.0445959 0
  outer loop
   vertex 0.0686925 -0.020456 -1
   vertex 0.0686925 -0.020456 1
   vertex 0.0687203 -0.0198331 -1
  endloop
 endfacet
 facet normal -0.999005 0.0445959 0
  outer loop
   vertex 0.0687203 -0.0198331 -1
   vertex 0.0686925 -0.020456 1
   vertex 0.0687203 -0.0198331 1
  endloop
 endfacet
 facet normal -0.999924 0.0123428 0
  outer loop
   vertex 0.0687203 -0.0198331 -1
   vertex 0.0687203 -0.0198331 1
   vertex 0.068728 -0.0192096 -1
  endloop
 endfacet
 facet normal -0.999924 0.0123428 0
  outer loop
   vertex 0.068728 -0.0192096 -1
   vertex 0.0687203 -0.0198331 1
   vertex 0.068728 -0.0192096 1
  endloop
 endfacet
 facet normal -0.999809 -0.0195619 0
  outer loop
   vertex 0.068728 -0.0192096 -1
   vertex 0.068728 -0.0192096 1
   vertex 0.0687158 -0.0185862 -1
  endloop
 endfacet
 facet normal -0.999809 -0.0195619 0
  outer loop
   vertex 0.0687158 -0.0185862 -1
   vertex 0.068728 -0.0192096 1
   vertex 0.0687158 -0.0185862 1
  endloop
 endfacet
 facet normal -0.998657 -0.0518137 0
  outer loop
   vertex 0.0687158 -0.0185862 -1
   vertex 0.0687158 -0.0185862 1
   vertex 0.0686835 -0.0179636 -1
  endloop
 endfacet
 facet normal -0.998657 -0.0518137 0
  outer loop
   vertex 0.0686835 -0.0179636 -1
   vertex 0.0687158 -0.0185862 1
   vertex 0.0686835 -0.0179636 1
  endloop
 endfacet
 facet normal -0.996489 -0.0837191 0
  outer loop
   vertex 0.0686835 -0.0179636 -1
   vertex 0.0686835 -0.0179636 1
   vertex 0.0686313 -0.0173423 -1
  endloop
 endfacet
 facet normal -0.996489 -0.0837191 0
  outer loop
   vertex 0.0686313 -0.0173423 -1
   vertex 0.0686835 -0.0179636 1
   vertex 0.0686313 -0.0173423 1
  endloop
 endfacet
 facet normal -0.993255 -0.115954 0
  outer loop
   vertex 0.0686313 -0.0173423 -1
   vertex 0.0686313 -0.0173423 1
   vertex 0.068559 -0.0167229 -1
  endloop
 endfacet
 facet normal -0.993255 -0.115954 0
  outer loop
   vertex 0.068559 -0.0167229 -1
   vertex 0.0686313 -0.0173423 1
   vertex 0.068559 -0.0167229 1
  endloop
 endfacet
 facet normal -0.989054 -0.147555 0
  outer loop
   vertex 0.068559 -0.0167229 -1
   vertex 0.068559 -0.0167229 1
   vertex 0.068467 -0.0161063 -1
  endloop
 endfacet
 facet normal -0.989054 -0.147555 0
  outer loop
   vertex 0.068467 -0.0161063 -1
   vertex 0.068559 -0.0167229 1
   vertex 0.068467 -0.0161063 1
  endloop
 endfacet
 facet normal -0.983763 -0.179473 0
  outer loop
   vertex 0.068467 -0.0161063 -1
   vertex 0.068467 -0.0161063 1
   vertex 0.0683551 -0.0154929 -1
  endloop
 endfacet
 facet normal -0.983763 -0.179473 0
  outer loop
   vertex 0.0683551 -0.0154929 -1
   vertex 0.068467 -0.0161063 1
   vertex 0.0683551 -0.0154929 1
  endloop
 endfacet
 facet normal -0.977509 -0.210894 0
  outer loop
   vertex 0.0683551 -0.0154929 -1
   vertex 0.0683551 -0.0154929 1
   vertex 0.0682236 -0.0148834 -1
  endloop
 endfacet
 facet normal -0.977509 -0.210894 0
  outer loop
   vertex 0.0682236 -0.0148834 -1
   vertex 0.0683551 -0.0154929 1
   vertex 0.0682236 -0.0148834 1
  endloop
 endfacet
 facet normal -0.970232 -0.242178 0
  outer loop
   vertex 0.0682236 -0.0148834 -1
   vertex 0.0682236 -0.0148834 1
   vertex 0.0680726 -0.0142785 -1
  endloop
 endfacet
 facet normal -0.970232 -0.242178 0
  outer loop
   vertex 0.0680726 -0.0142785 -1
   vertex 0.0682236 -0.0148834 1
   vertex 0.0680726 -0.0142785 1
  endloop
 endfacet
 facet normal -0.961971 -0.273153 0
  outer loop
   vertex 0.0680726 -0.0142785 -1
   vertex 0.0680726 -0.0142785 1
   vertex 0.0679023 -0.0136787 -1
  endloop
 endfacet
 facet normal -0.961971 -0.273153 0
  outer loop
   vertex 0.0679023 -0.0136787 -1
   vertex 0.0680726 -0.0142785 1
   vertex 0.0679023 -0.0136787 1
  endloop
 endfacet
 facet normal -0.95265 -0.30407 0
  outer loop
   vertex 0.0679023 -0.0136787 -1
   vertex 0.0679023 -0.0136787 1
   vertex 0.0677127 -0.0130847 -1
  endloop
 endfacet
 facet normal -0.95265 -0.30407 0
  outer loop
   vertex 0.0677127 -0.0130847 -1
   vertex 0.0679023 -0.0136787 1
   vertex 0.0677127 -0.0130847 1
  endloop
 endfacet
 facet normal -0.942427 -0.334412 0
  outer loop
   vertex 0.0677127 -0.0130847 -1
   vertex 0.0677127 -0.0130847 1
   vertex 0.0675042 -0.0124971 -1
  endloop
 endfacet
 facet normal -0.942427 -0.334412 0
  outer loop
   vertex 0.0675042 -0.0124971 -1
   vertex 0.0677127 -0.0130847 1
   vertex 0.0675042 -0.0124971 1
  endloop
 endfacet
 facet normal -0.931186 -0.364543 0
  outer loop
   vertex 0.0675042 -0.0124971 -1
   vertex 0.0675042 -0.0124971 1
   vertex 0.0672769 -0.0119165 -1
  endloop
 endfacet
 facet normal -0.931186 -0.364543 0
  outer loop
   vertex 0.0672769 -0.0119165 -1
   vertex 0.0675042 -0.0124971 1
   vertex 0.0672769 -0.0119165 1
  endloop
 endfacet
 facet normal -0.919009 -0.394238 0
  outer loop
   vertex 0.0672769 -0.0119165 -1
   vertex 0.0672769 -0.0119165 1
   vertex 0.0670311 -0.0113435 -1
  endloop
 endfacet
 facet normal -0.919009 -0.394238 0
  outer loop
   vertex 0.0670311 -0.0113435 -1
   vertex 0.0672769 -0.0119165 1
   vertex 0.0670311 -0.0113435 1
  endloop
 endfacet
 facet normal -0.905799 -0.423708 0
  outer loop
   vertex 0.0670311 -0.0113435 -1
   vertex 0.0670311 -0.0113435 1
   vertex 0.0667669 -0.0107787 -1
  endloop
 endfacet
 facet normal -0.905799 -0.423708 0
  outer loop
   vertex 0.0667669 -0.0107787 -1
   vertex 0.0670311 -0.0113435 1
   vertex 0.0667669 -0.0107787 1
  endloop
 endfacet
 facet normal -0.891787 -0.452456 0
  outer loop
   vertex 0.0667669 -0.0107787 -1
   vertex 0.0667669 -0.0107787 1
   vertex 0.0664848 -0.0102227 -1
  endloop
 endfacet
 facet normal -0.891787 -0.452456 0
  outer loop
   vertex 0.0664848 -0.0102227 -1
   vertex 0.0667669 -0.0107787 1
   vertex 0.0664848 -0.0102227 1
  endloop
 endfacet
 facet normal -0.876734 -0.480975 0
  outer loop
   vertex 0.0664848 -0.0102227 -1
   vertex 0.0664848 -0.0102227 1
   vertex 0.0661849 -0.00967603 -1
  endloop
 endfacet
 facet normal -0.876734 -0.480975 0
  outer loop
   vertex 0.0661849 -0.00967603 -1
   vertex 0.0664848 -0.0102227 1
   vertex 0.0661849 -0.00967603 1
  endloop
 endfacet
 facet normal -0.860902 -0.508771 0
  outer loop
   vertex 0.0661849 -0.00967603 -1
   vertex 0.0661849 -0.00967603 1
   vertex 0.0658677 -0.00913928 -1
  endloop
 endfacet
 facet normal -0.860902 -0.508771 0
  outer loop
   vertex 0.0658677 -0.00913928 -1
   vertex 0.0661849 -0.00967603 1
   vertex 0.0658677 -0.00913928 1
  endloop
 endfacet
 facet normal -0.844032 -0.536293 0
  outer loop
   vertex 0.0658677 -0.00913928 -1
   vertex 0.0658677 -0.00913928 1
   vertex 0.0655333 -0.008613 -1
  endloop
 endfacet
 facet normal -0.844032 -0.536293 0
  outer loop
   vertex 0.0655333 -0.008613 -1
   vertex 0.0658677 -0.00913928 1
   vertex 0.0655333 -0.008613 1
  endloop
 endfacet
 facet normal -0.826386 -0.563104 0
  outer loop
   vertex 0.0655333 -0.008613 -1
   vertex 0.0655333 -0.008613 1
   vertex 0.0651822 -0.00809774 -1
  endloop
 endfacet
 facet normal -0.826386 -0.563104 0
  outer loop
   vertex 0.0651822 -0.00809774 -1
   vertex 0.0655333 -0.008613 1
   vertex 0.0651822 -0.00809774 1
  endloop
 endfacet
 facet normal -0.807931 -0.589277 0
  outer loop
   vertex 0.0651822 -0.00809774 -1
   vertex 0.0651822 -0.00809774 1
   vertex 0.0648148 -0.00759401 -1
  endloop
 endfacet
 facet normal -0.807931 -0.589277 0
  outer loop
   vertex 0.0648148 -0.00759401 -1
   vertex 0.0651822 -0.00809774 1
   vertex 0.0648148 -0.00759401 1
  endloop
 endfacet
 facet normal -0.788489 -0.615049 0
  outer loop
   vertex 0.0648148 -0.00759401 -1
   vertex 0.0648148 -0.00759401 1
   vertex 0.0644313 -0.00710237 -1
  endloop
 endfacet
 facet normal -0.788489 -0.615049 0
  outer loop
   vertex 0.0644313 -0.00710237 -1
   vertex 0.0648148 -0.00759401 1
   vertex 0.0644313 -0.00710237 1
  endloop
 endfacet
 facet normal -0.768405 -0.639964 0
  outer loop
   vertex 0.0644313 -0.00710237 -1
   vertex 0.0644313 -0.00710237 1
   vertex 0.0640323 -0.00662329 -1
  endloop
 endfacet
 facet normal -0.768405 -0.639964 0
  outer loop
   vertex 0.0640323 -0.00662329 -1
   vertex 0.0644313 -0.00710237 1
   vertex 0.0640323 -0.00662329 1
  endloop
 endfacet
 facet normal -0.747351 -0.664429 0
  outer loop
   vertex 0.0640323 -0.00662329 -1
   vertex 0.0640323 -0.00662329 1
   vertex 0.063618 -0.00615728 -1
  endloop
 endfacet
 facet normal -0.747351 -0.664429 0
  outer loop
   vertex 0.063618 -0.00615728 -1
   vertex 0.0640323 -0.00662329 1
   vertex 0.063618 -0.00615728 1
  endloop
 endfacet
 facet normal -0.725672 -0.688041 0
  outer loop
   vertex 0.063618 -0.00615728 -1
   vertex 0.063618 -0.00615728 1
   vertex 0.063189 -0.00570482 -1
  endloop
 endfacet
 facet normal -0.725672 -0.688041 0
  outer loop
   vertex 0.063189 -0.00570482 -1
   vertex 0.063618 -0.00615728 1
   vertex 0.063189 -0.00570482 1
  endloop
 endfacet
 facet normal -0.703189 -0.711003 0
  outer loop
   vertex 0.063189 -0.00570482 -1
   vertex 0.063189 -0.00570482 1
   vertex 0.0627457 -0.00526639 -1
  endloop
 endfacet
 facet normal -0.703189 -0.711003 0
  outer loop
   vertex 0.0627457 -0.00526639 -1
   vertex 0.063189 -0.00570482 1
   vertex 0.0627457 -0.00526639 1
  endloop
 endfacet
 facet normal -0.679968 -0.733242 0
  outer loop
   vertex 0.0627457 -0.00526639 -1
   vertex 0.0627457 -0.00526639 1
   vertex 0.0622885 -0.00484241 -1
  endloop
 endfacet
 facet normal -0.679968 -0.733242 0
  outer loop
   vertex 0.0622885 -0.00484241 -1
   vertex 0.0627457 -0.00526639 1
   vertex 0.0622885 -0.00484241 1
  endloop
 endfacet
 facet normal -0.656114 -0.754662 0
  outer loop
   vertex 0.0622885 -0.00484241 -1
   vertex 0.0622885 -0.00484241 1
   vertex 0.061818 -0.00443335 -1
  endloop
 endfacet
 facet normal -0.656114 -0.754662 0
  outer loop
   vertex 0.061818 -0.00443335 -1
   vertex 0.0622885 -0.00484241 1
   vertex 0.061818 -0.00443335 1
  endloop
 endfacet
 facet normal -0.631447 -0.775419 0
  outer loop
   vertex 0.061818 -0.00443335 -1
   vertex 0.061818 -0.00443335 1
   vertex 0.0613345 -0.00403962 -1
  endloop
 endfacet
 facet normal -0.631447 -0.775419 0
  outer loop
   vertex 0.0613345 -0.00403962 -1
   vertex 0.061818 -0.00443335 1
   vertex 0.0613345 -0.00403962 1
  endloop
 endfacet
 facet normal -0.606207 -0.795307 0
  outer loop
   vertex 0.0613345 -0.00403962 -1
   vertex 0.0613345 -0.00403962 1
   vertex 0.0608386 -0.00366163 -1
  endloop
 endfacet
 facet normal -0.606207 -0.795307 0
  outer loop
   vertex 0.0608386 -0.00366163 -1
   vertex 0.0613345 -0.00403962 1
   vertex 0.0608386 -0.00366163 1
  endloop
 endfacet
 facet normal -0.580429 -0.814311 0
  outer loop
   vertex 0.0608386 -0.00366163 -1
   vertex 0.0608386 -0.00366163 1
   vertex 0.0603309 -0.00329975 -1
  endloop
 endfacet
 facet normal -0.580429 -0.814311 0
  outer loop
   vertex 0.0603309 -0.00329975 -1
   vertex 0.0608386 -0.00366163 1
   vertex 0.0603309 -0.00329975 1
  endloop
 endfacet
 facet normal -0.553915 -0.832573 0
  outer loop
   vertex 0.0603309 -0.00329975 -1
   vertex 0.0603309 -0.00329975 1
   vertex 0.0598118 -0.00295439 -1
  endloop
 endfacet
 facet normal -0.553915 -0.832573 0
  outer loop
   vertex 0.0598118 -0.00295439 -1
   vertex 0.0603309 -0.00329975 1
   vertex 0.0598118 -0.00295439 1
  endloop
 endfacet
 facet normal -0.526835 -0.849968 0
  outer loop
   vertex 0.0598118 -0.00295439 -1
   vertex 0.0598118 -0.00295439 1
   vertex 0.0592818 -0.00262588 -1
  endloop
 endfacet
 facet normal -0.526835 -0.849968 0
  outer loop
   vertex 0.0592818 -0.00262588 -1
   vertex 0.0598118 -0.00295439 1
   vertex 0.0592818 -0.00262588 1
  endloop
 endfacet
 facet normal -0.49932 -0.866417 0
  outer loop
   vertex 0.0592818 -0.00262588 -1
   vertex 0.0592818 -0.00262588 1
   vertex 0.0587416 -0.00231456 -1
  endloop
 endfacet
 facet normal -0.49932 -0.866417 0
  outer loop
   vertex 0.0587416 -0.00231456 -1
   vertex 0.0592818 -0.00262588 1
   vertex 0.0587416 -0.00231456 1
  endloop
 endfacet
 facet normal -0.471214 -0.882019 0
  outer loop
   vertex 0.0587416 -0.00231456 -1
   vertex 0.0587416 -0.00231456 1
   vertex 0.0581917 -0.00202078 -1
  endloop
 endfacet
 facet normal -0.471214 -0.882019 0
  outer loop
   vertex 0.0581917 -0.00202078 -1
   vertex 0.0587416 -0.00231456 1
   vertex 0.0581917 -0.00202078 1
  endloop
 endfacet
 facet normal -0.442626 -0.896706 0
  outer loop
   vertex 0.0581917 -0.00202078 -1
   vertex 0.0581917 -0.00202078 1
   vertex 0.0576326 -0.0017448 -1
  endloop
 endfacet
 facet normal -0.442626 -0.896706 0
  outer loop
   vertex 0.0576326 -0.0017448 -1
   vertex 0.0581917 -0.00202078 1
   vertex 0.0576326 -0.0017448 1
  endloop
 endfacet
 facet normal -0.413556 -0.910479 0
  outer loop
   vertex 0.0576326 -0.0017448 -1
   vertex 0.0576326 -0.0017448 1
   vertex 0.0570649 -0.00148694 -1
  endloop
 endfacet
 facet normal -0.413556 -0.910479 0
  outer loop
   vertex 0.0570649 -0.00148694 -1
   vertex 0.0576326 -0.0017448 1
   vertex 0.0570649 -0.00148694 1
  endloop
 endfacet
 facet normal -0.384089 -0.923296 0
  outer loop
   vertex 0.0570649 -0.00148694 -1
   vertex 0.0570649 -0.00148694 1
   vertex 0.0564892 -0.00124745 -1
  endloop
 endfacet
 facet normal -0.384089 -0.923296 0
  outer loop
   vertex 0.0564892 -0.00124745 -1
   vertex 0.0570649 -0.00148694 1
   vertex 0.0564892 -0.00124745 1
  endloop
 endfacet
 facet normal -0.354224 -0.93516 0
  outer loop
   vertex 0.0564892 -0.00124745 -1
   vertex 0.0564892 -0.00124745 1
   vertex 0.0559061 -0.00102658 -1
  endloop
 endfacet
 facet normal -0.354224 -0.93516 0
  outer loop
   vertex 0.0559061 -0.00102658 -1
   vertex 0.0564892 -0.00124745 1
   vertex 0.0559061 -0.00102658 1
  endloop
 endfacet
 facet normal -0.324056 -0.946038 0
  outer loop
   vertex 0.0559061 -0.00102658 -1
   vertex 0.0559061 -0.00102658 1
   vertex 0.0553163 -0.00082455 -1
  endloop
 endfacet
 facet normal -0.324056 -0.946038 0
  outer loop
   vertex 0.0553163 -0.00082455 -1
   vertex 0.0559061 -0.00102658 1
   vertex 0.0553163 -0.00082455 1
  endloop
 endfacet
 facet normal -0.293376 -0.955997 0
  outer loop
   vertex 0.0553163 -0.00082455 -1
   vertex 0.0553163 -0.00082455 1
   vertex 0.0547202 -0.00064162 -1
  endloop
 endfacet
 facet normal -0.293376 -0.955997 0
  outer loop
   vertex 0.0547202 -0.00064162 -1
   vertex 0.0553163 -0.00082455 1
   vertex 0.0547202 -0.00064162 1
  endloop
 endfacet
 facet normal -0.262635 -0.964895 0
  outer loop
   vertex 0.0547202 -0.00064162 -1
   vertex 0.0547202 -0.00064162 1
   vertex 0.0541186 -0.00047787 -1
  endloop
 endfacet
 facet normal -0.262635 -0.964895 0
  outer loop
   vertex 0.0541186 -0.00047787 -1
   vertex 0.0547202 -0.00064162 1
   vertex 0.0541186 -0.00047787 1
  endloop
 endfacet
 facet normal -0.231486 -0.972838 0
  outer loop
   vertex 0.0541186 -0.00047787 -1
   vertex 0.0541186 -0.00047787 1
   vertex 0.053512 -0.00033353 -1
  endloop
 endfacet
 facet normal -0.231486 -0.972838 0
  outer loop
   vertex 0.053512 -0.00033353 -1
   vertex 0.0541186 -0.00047787 1
   vertex 0.053512 -0.00033353 1
  endloop
 endfacet
 facet normal -0.200016 -0.979793 0
  outer loop
   vertex 0.053512 -0.00033353 -1
   vertex 0.053512 -0.00033353 1
   vertex 0.0529011 -0.00020882 -1
  endloop
 endfacet
 facet normal -0.200016 -0.979793 0
  outer loop
   vertex 0.0529011 -0.00020882 -1
   vertex 0.053512 -0.00033353 1
   vertex 0.0529011 -0.00020882 1
  endloop
 endfacet
 facet normal -0.168497 -0.985702 0
  outer loop
   vertex 0.0529011 -0.00020882 -1
   vertex 0.0529011 -0.00020882 1
   vertex 0.0522865 -0.00010376 -1
  endloop
 endfacet
 facet normal -0.168497 -0.985702 0
  outer loop
   vertex 0.0522865 -0.00010376 -1
   vertex 0.0529011 -0.00020882 1
   vertex 0.0522865 -0.00010376 1
  endloop
 endfacet
 facet normal -0.136675 -0.990616 0
  outer loop
   vertex 0.0522865 -0.00010376 -1
   vertex 0.0522865 -0.00010376 1
   vertex 0.0516689 -1.85503e-05 -1
  endloop
 endfacet
 facet normal -0.136675 -0.990616 0
  outer loop
   vertex 0.0516689 -1.85503e-05 -1
   vertex 0.0522865 -0.00010376 1
   vertex 0.0516689 -1.85503e-05 1
  endloop
 endfacet
 facet normal -0.104965 -0.994476 0
  outer loop
   vertex 0.0516689 -1.85503e-05 -1
   vertex 0.0516689 -1.85503e-05 1
   vertex 0.0510488 4.69003e-05 -1
  endloop
 endfacet
 facet normal -0.104965 -0.994476 0
  outer loop
   vertex 0.0510488 4.69003e-05 -1
   vertex 0.0516689 -1.85503e-05 1
   vertex 0.0510488 4.69003e-05 1
  endloop
 endfacet
 facet normal -0.0726481 -0.997358 0
  outer loop
   vertex 0.0510488 4.69003e-05 -1
   vertex 0.0510488 4.69003e-05 1
   vertex 0.0504269 9.21998e-05 -1
  endloop
 endfacet
 facet normal -0.0726481 -0.997358 0
  outer loop
   vertex 0.0504269 9.21998e-05 -1
   vertex 0.0510488 4.69003e-05 1
   vertex 0.0504269 9.21998e-05 1
  endloop
 endfacet
 facet normal -0.0407366 -0.99917 0
  outer loop
   vertex 0.0504269 9.21998e-05 -1
   vertex 0.0504269 9.21998e-05 1
   vertex 0.0498039 0.0001176 -1
  endloop
 endfacet
 facet normal -0.0407366 -0.99917 0
  outer loop
   vertex 0.0498039 0.0001176 -1
   vertex 0.0504269 9.21998e-05 1
   vertex 0.0498039 0.0001176 1
  endloop
 endfacet
 facet normal -0.999847 -0.0175013 -0
  outer loop
   vertex 0.0489726 0.0009205 1
   vertex 0.0489656 0.0013204 1
   vertex 0.0489726 0.0009205 -1
  endloop
 endfacet
 facet normal -0.999847 -0.0175013 0
  outer loop
   vertex 0.0489726 0.0009205 -1
   vertex 0.0489656 0.0013204 1
   vertex 0.0489656 0.0013204 -1
  endloop
 endfacet
 facet normal 0 0 -1
  outer loop
   vertex 0.0489726 0.0009205 -1
   vertex 0.0489656 0.0013204 -1
   vertex 0.0498039 0.0001176 -1
  endloop
 endfacet
 facet normal 0 0 -1
  outer loop
   vertex 0.0498039 0.0001176 -1
   vertex 0.0489656 0.0013204 -1
   vertex 0.0496051 0.0013216 -1
  endloop
 endfacet
 facet normal 0 0 -1
  outer loop
   vertex 0.0498039 0.0001176 -1
   vertex 0.0496051 0.0013216 -1
   vertex 0.0504269 9.21998e-05 -1
  endloop
 endfacet
 facet normal 0 0 -1
  outer loop
   vertex 0.0504269 9.21998e-05 -1
   vertex 0.0496051 0.0013216 -1
   vertex 0.0502443 0.001303 -1
  endloop
 endfacet
 facet normal 0 0 -1
  outer loop
   vertex 0.0504269 9.21998e-05 -1
   vertex 0.0502443 0.001303 -1
   vertex 0.0510488 4.69003e-05 -1
  endloop
 endfacet
 facet normal 0 0 -1
  outer loop
   vertex 0.0510488 4.69003e-05 -1
   vertex 0.0502443 0.001303 -1
   vertex 0.0508827 0.0012646 -1
  endloop
 endfacet
 facet normal 0 0 -1
  outer loop
   vertex 0.0510488 4.69003e-05 -1
   vertex 0.0508827 0.0012646 -1
   vertex 0.0516689 -1.85503e-05 -1
  endloop
 endfacet
 facet normal 0 0 -1
  outer loop
   vertex 0.0516689 -1.85503e-05 -1
   vertex 0.0508827 0.0012646 -1
   vertex 0.0515195 0.0012063 -1
  endloop
 endfacet
 facet normal 0 0 -1
  outer loop
   vertex 0.0516689 -1.85503e-05 -1
   vertex 0.0515195 0.0012063 -1
   vertex 0.0522865 -0.00010376 -1
  endloop
 endfacet
 facet normal 0 0 -1
  outer loop
   vertex 0.0688844 -0.0223774 -1
   vertex 0.0684893 -0.0223148 -1
   vertex 0.0697826 -0.0217248 -1
  endloop
 endfacet
 facet normal -0 0 -1
  outer loop
   vertex 0.0697826 -0.0217248 -1
   vertex 0.0684893 -0.0223148 -1
   vertex 0.068577 -0.0216975 -1
  endloop
 endfacet
 facet normal 0 0 -1
  outer loop
   vertex 0.0697826 -0.0217248 -1
   vertex 0.068577 -0.0216975 -1
   vertex 0.0698486 -0.0210887 -1
  endloop
 endfacet
 facet normal -0 0 -1
  outer loop
   vertex 0.0698486 -0.0210887 -1
   vertex 0.068577 -0.0216975 -1
   vertex 0.0686447 -0.0210776 -1
  endloop
 endfacet
 facet normal 0 0 -1
  outer loop
   vertex 0.0698486 -0.0210887 -1
   vertex 0.0686447 -0.0210776 -1
   vertex 0.0698949 -0.0204509 -1
  endloop
 endfacet
 facet normal 0 0 -1
  outer loop
   vertex 0.0698949 -0.0204509 -1
   vertex 0.0686447 -0.0210776 -1
   vertex 0.0686925 -0.020456 -1
  endloop
 endfacet
 facet normal -0 0 -1
  outer loop
   vertex 0.0698949 -0.0204509 -1
   vertex 0.0686925 -0.020456 -1
   vertex 0.0699213 -0.0198119 -1
  endloop
 endfacet
 facet normal 0 0 -1
  outer loop
   vertex 0.0699213 -0.0198119 -1
   vertex 0.0686925 -0.020456 -1
   vertex 0.0687203 -0.0198331 -1
  endloop
 endfacet
 facet normal -0 0 -1
  outer loop
   vertex 0.0699213 -0.0198119 -1
   vertex 0.0687203 -0.0198331 -1
   vertex 0.069928 -0.0191725 -1
  endloop
 endfacet
 facet normal 0 0 -1
  outer loop
   vertex 0.069928 -0.0191725 -1
   vertex 0.0687203 -0.0198331 -1
   vertex 0.068728 -0.0192096 -1
  endloop
 endfacet
 facet normal -0 0 -1
  outer loop
   vertex 0.069928 -0.0191725 -1
   vertex 0.068728 -0.0192096 -1
   vertex 0.0699147 -0.0185331 -1
  endloop
 endfacet
 facet normal 0 0 -1
  outer loop
   vertex 0.0699147 -0.0185331 -1
   vertex 0.068728 -0.0192096 -1
   vertex 0.0687158 -0.0185862 -1
  endloop
 endfacet
 facet normal -0 0 -1
  outer loop
   vertex 0.0699147 -0.0185331 -1
   vertex 0.0687158 -0.0185862 -1
   vertex 0.0698816 -0.0178944 -1
  endloop
 endfacet
 facet normal 0 0 -1
  outer loop
   vertex 0.0698816 -0.0178944 -1
   vertex 0.0687158 -0.0185862 -1
   vertex 0.0686835 -0.0179636 -1
  endloop
 endfacet
 facet normal -0 0 -1
  outer loop
   vertex 0.0698816 -0.0178944 -1
   vertex 0.0686835 -0.0179636 -1
   vertex 0.0698287 -0.0172572 -1
  endloop
 endfacet
 facet normal 0 0 -1
  outer loop
   vertex 0.0698287 -0.0172572 -1
   vertex 0.0686835 -0.0179636 -1
   vertex 0.0686313 -0.0173423 -1
  endloop
 endfacet
 facet normal -0 0 -1
  outer loop
   vertex 0.0698287 -0.0172572 -1
   vertex 0.0686313 -0.0173423 -1
   vertex 0.0697561 -0.0166218 -1
  endloop
 endfacet
 facet normal 0 0 -1
  outer loop
   vertex 0.0697561 -0.0166218 -1
   vertex 0.0686313 -0.0173423 -1
   vertex 0.068559 -0.0167229 -1
  endloop
 endfacet
 facet normal -0 0 -1
  outer loop
   vertex 0.0697561 -0.0166218 -1
   vertex 0.068559 -0.0167229 -1
   vertex 0.0696637 -0.015989 -1
  endloop
 endfacet
 facet normal 0 0 -1
  outer loop
   vertex 0.0696637 -0.015989 -1
   vertex 0.068559 -0.0167229 -1
   vertex 0.068467 -0.0161063 -1
  endloop
 endfacet
 facet normal -0 0 -1
  outer loop
   vertex 0.0696637 -0.015989 -1
   vertex 0.068467 -0.0161063 -1
   vertex 0.0695518 -0.0153593 -1
  endloop
 endfacet
 facet normal 0 0 -1
  outer loop
   vertex 0.0695518 -0.0153593 -1
   vertex 0.068467 -0.0161063 -1
   vertex 0.0683551 -0.0154929 -1
  endloop
 endfacet
 facet normal -0 0 -1
  outer loop
   vertex 0.0695518 -0.0153593 -1
   vertex 0.0683551 -0.0154929 -1
   vertex 0.0694204 -0.0147335 -1
  endloop
 endfacet
 facet normal 0 0 -1
  outer loop
   vertex 0.0694204 -0.0147335 -1
   vertex 0.0683551 -0.0154929 -1
   vertex 0.0682236 -0.0148834 -1
  endloop
 endfacet
 facet normal -0 0 -1
  outer loop
   vertex 0.0694204 -0.0147335 -1
   vertex 0.0682236 -0.0148834 -1
   vertex 0.0692697 -0.014112 -1
  endloop
 endfacet
 facet normal 0 0 -1
  outer loop
   vertex 0.0692697 -0.014112 -1
   vertex 0.0682236 -0.0148834 -1
   vertex 0.0680726 -0.0142785 -1
  endloop
 endfacet
 facet normal -0 0 -1
  outer loop
   vertex 0.0692697 -0.014112 -1
   vertex 0.0680726 -0.0142785 -1
   vertex 0.0690997 -0.0134956 -1
  endloop
 endfacet
 facet normal 0 0 -1
  outer loop
   vertex 0.0690997 -0.0134956 -1
   vertex 0.0680726 -0.0142785 -1
   vertex 0.0679023 -0.0136787 -1
  endloop
 endfacet
 facet normal -0 0 -1
  outer loop
   vertex 0.0690997 -0.0134956 -1
   vertex 0.0679023 -0.0136787 -1
   vertex 0.0689107 -0.0128846 -1
  endloop
 endfacet
 facet normal 0 0 -1
  outer loop
   vertex 0.0689107 -0.0128846 -1
   vertex 0.0679023 -0.0136787 -1
   vertex 0.0677127 -0.0130847 -1
  endloop
 endfacet
 facet normal -0 0 -1
  outer loop
   vertex 0.0689107 -0.0128846 -1
   vertex 0.0677127 -0.0130847 -1
   vertex 0.0687028 -0.0122799 -1
  endloop
 endfacet
 facet normal 0 0 -1
  outer loop
   vertex 0.0687028 -0.0122799 -1
   vertex 0.0677127 -0.0130847 -1
   vertex 0.0675042 -0.0124971 -1
  endloop
 endfacet
 facet normal -0 0 -1
  outer loop
   vertex 0.0687028 -0.0122799 -1
   vertex 0.0675042 -0.0124971 -1
   vertex 0.0684762 -0.0116818 -1
  endloop
 endfacet
 facet normal 0 0 -1
  outer loop
   vertex 0.0684762 -0.0116818 -1
   vertex 0.0675042 -0.0124971 -1
   vertex 0.0672769 -0.0119165 -1
  endloop
 endfacet
 facet normal -0 0 -1
  outer loop
   vertex 0.0684762 -0.0116818 -1
   vertex 0.0672769 -0.0119165 -1
   vertex 0.0682312 -0.0110912 -1
  endloop
 endfacet
 facet normal 0 0 -1
  outer loop
   vertex 0.0682312 -0.0110912 -1
   vertex 0.0672769 -0.0119165 -1
   vertex 0.0670311 -0.0113435 -1
  endloop
 endfacet
 facet normal -0 0 -1
  outer loop
   vertex 0.0682312 -0.0110912 -1
   vertex 0.0670311 -0.0113435 -1
   vertex 0.0679679 -0.0105083 -1
  endloop
 endfacet
 facet normal 0 0 -1
  outer loop
   vertex 0.0679679 -0.0105083 -1
   vertex 0.0670311 -0.0113435 -1
   vertex 0.0667669 -0.0107787 -1
  endloop
 endfacet
 facet normal -0 0 -1
  outer loop
   vertex 0.0679679 -0.0105083 -1
   vertex 0.0667669 -0.0107787 -1
   vertex 0.0676867 -0.00993399 -1
  endloop
 endfacet
 facet normal 0 0 -1
  outer loop
   vertex 0.0676867 -0.00993399 -1
   vertex 0.0667669 -0.0107787 -1
   vertex 0.0664848 -0.0102227 -1
  endloop
 endfacet
 facet normal -0 0 -1
  outer loop
   vertex 0.0676867 -0.00993399 -1
   vertex 0.0664848 -0.0102227 -1
   vertex 0.0673878 -0.00936863 -1
  endloop
 endfacet
 facet normal 0 0 -1
  outer loop
   vertex 0.0673878 -0.00936863 -1
   vertex 0.0664848 -0.0102227 -1
   vertex 0.0661849 -0.00967603 -1
  endloop
 endfacet
 facet normal 0 0 -1
  outer loop
   vertex 0.0515195 0.0012063 -1
   vertex 0.0521542 0.0011284 -1
   vertex 0.0522865 -0.00010376 -1
  endloop
 endfacet
 facet normal 0 0 -1
  outer loop
   vertex 0.0522865 -0.00010376 -1
   vertex 0.0521542 0.0011284 -1
   vertex 0.0527862 0.0010308 -1
  endloop
 endfacet
 facet normal 0 0 -1
  outer loop
   vertex 0.0522865 -0.00010376 -1
   vertex 0.0527862 0.0010308 -1
   vertex 0.0529011 -0.00020882 -1
  endloop
 endfacet
 facet normal 0 0 -1
  outer loop
   vertex 0.0529011 -0.00020882 -1
   vertex 0.0527862 0.0010308 -1
   vertex 0.0534149 0.0009136 -1
  endloop
 endfacet
 facet normal 0 0 -1
  outer loop
   vertex 0.0529011 -0.00020882 -1
   vertex 0.0534149 0.0009136 -1
   vertex 0.053512 -0.00033353 -1
  endloop
 endfacet
 facet normal 0 0 -1
  outer loop
   vertex 0.053512 -0.00033353 -1
   vertex 0.0534149 0.0009136 -1
   vertex 0.0540396 0.0007769 -1
  endloop
 endfacet
 facet normal 0 0 -1
  outer loop
   vertex 0.053512 -0.00033353 -1
   vertex 0.0540396 0.0007769 -1
   vertex 0.0541186 -0.00047787 -1
  endloop
 endfacet
 facet normal 0 0 -1
  outer loop
   vertex 0.0541186 -0.00047787 -1
   vertex 0.0540396 0.0007769 -1
   vertex 0.0546598 0.0006209 -1
  endloop
 endfacet
 facet normal 0 0 -1
  outer loop
   vertex 0.0541186 -0.00047787 -1
   vertex 0.0546598 0.0006209 -1
   vertex 0.0547202 -0.00064162 -1
  endloop
 endfacet
 facet normal 0 0 -1
  outer loop
   vertex 0.0547202 -0.00064162 -1
   vertex 0.0546598 0.0006209 -1
   vertex 0.0552749 0.0004458 -1
  endloop
 endfacet
 facet normal 0 0 -1
  outer loop
   vertex 0.0547202 -0.00064162 -1
   vertex 0.0552749 0.0004458 -1
   vertex 0.0553163 -0.00082455 -1
  endloop
 endfacet
 facet normal 0 0 -1
  outer loop
   vertex 0.0553163 -0.00082455 -1
   vertex 0.0552749 0.0004458 -1
   vertex 0.0558842 0.0002516 -1
  endloop
 endfacet
 facet normal 0 0 -1
  outer loop
   vertex 0.0553163 -0.00082455 -1
   vertex 0.0558842 0.0002516 -1
   vertex 0.0559061 -0.00102658 -1
  endloop
 endfacet
 facet normal 0 0 -1
  outer loop
   vertex 0.0559061 -0.00102658 -1
   vertex 0.0558842 0.0002516 -1
   vertex 0.0564872 3.87e-05 -1
  endloop
 endfacet
 facet normal 0 0 -1
  outer loop
   vertex 0.0559061 -0.00102658 -1
   vertex 0.0564872 3.87e-05 -1
   vertex 0.0564892 -0.00124745 -1
  endloop
 endfacet
 facet normal 0 0 -1
  outer loop
   vertex 0.0564892 -0.00124745 -1
   vertex 0.0564872 3.87e-05 -1
   vertex 0.0570833 -0.00019292 -1
  endloop
 endfacet
 facet normal 0 0 -1
  outer loop
   vertex 0.0564892 -0.00124745 -1
   vertex 0.0570833 -0.00019292 -1
   vertex 0.0570649 -0.00148694 -1
  endloop
 endfacet
 facet normal 0 0 -1
  outer loop
   vertex 0.0570649 -0.00148694 -1
   vertex 0.0570833 -0.00019292 -1
   vertex 0.0576719 -0.0004429 -1
  endloop
 endfacet
 facet normal 0 0 -1
  outer loop
   vertex 0.0570649 -0.00148694 -1
   vertex 0.0576719 -0.0004429 -1
   vertex 0.0576326 -0.0017448 -1
  endloop
 endfacet
 facet normal 0 0 -1
  outer loop
   vertex 0.0576326 -0.0017448 -1
   vertex 0.0576719 -0.0004429 -1
   vertex 0.0582525 -0.00071101 -1
  endloop
 endfacet
 facet normal 0 0 -1
  outer loop
   vertex 0.0576326 -0.0017448 -1
   vertex 0.0582525 -0.00071101 -1
   vertex 0.0581917 -0.00202078 -1
  endloop
 endfacet
 facet normal 0 0 -1
  outer loop
   vertex 0.0581917 -0.00202078 -1
   vertex 0.0582525 -0.00071101 -1
   vertex 0.0588244 -0.00099702 -1
  endloop
 endfacet
 facet normal 0 0 -1
  outer loop
   vertex 0.0581917 -0.00202078 -1
   vertex 0.0588244 -0.00099702 -1
   vertex 0.0587416 -0.00231456 -1
  endloop
 endfacet
 facet normal 0 0 -1
  outer loop
   vertex 0.0587416 -0.00231456 -1
   vertex 0.0588244 -0.00099702 -1
   vertex 0.0593873 -0.00130064 -1
  endloop
 endfacet
 facet normal 0 0 -1
  outer loop
   vertex 0.0587416 -0.00231456 -1
   vertex 0.0593873 -0.00130064 -1
   vertex 0.0592818 -0.00262588 -1
  endloop
 endfacet
 facet normal 0 0 -1
  outer loop
   vertex 0.0592818 -0.00262588 -1
   vertex 0.0593873 -0.00130064 -1
   vertex 0.0599404 -0.00162158 -1
  endloop
 endfacet
 facet normal 0 0 -1
  outer loop
   vertex 0.0592818 -0.00262588 -1
   vertex 0.0599404 -0.00162158 -1
   vertex 0.0598118 -0.00295439 -1
  endloop
 endfacet
 facet normal 0 0 -1
  outer loop
   vertex 0.0598118 -0.00295439 -1
   vertex 0.0599404 -0.00162158 -1
   vertex 0.0604833 -0.00195953 -1
  endloop
 endfacet
 facet normal 0 0 -1
  outer loop
   vertex 0.0598118 -0.00295439 -1
   vertex 0.0604833 -0.00195953 -1
   vertex 0.0603309 -0.00329975 -1
  endloop
 endfacet
 facet normal 0 0 -1
  outer loop
   vertex 0.0603309 -0.00329975 -1
   vertex 0.0604833 -0.00195953 -1
   vertex 0.0610155 -0.00231417 -1
  endloop
 endfacet
 facet normal 0 0 -1
  outer loop
   vertex 0.0603309 -0.00329975 -1
   vertex 0.0610155 -0.00231417 -1
   vertex 0.0608386 -0.00366163 -1
  endloop
 endfacet
 facet normal 0 0 -1
  outer loop
   vertex 0.0608386 -0.00366163 -1
   vertex 0.0610155 -0.00231417 -1
   vertex 0.0615364 -0.00268515 -1
  endloop
 endfacet
 facet normal 0 0 -1
  outer loop
   vertex 0.0608386 -0.00366163 -1
   vertex 0.0615364 -0.00268515 -1
   vertex 0.0613345 -0.00403962 -1
  endloop
 endfacet
 facet normal 0 0 -1
  outer loop
   vertex 0.0613345 -0.00403962 -1
   vertex 0.0615364 -0.00268515 -1
   vertex 0.0620455 -0.00307212 -1
  endloop
 endfacet
 facet normal 0 0 -1
  outer loop
   vertex 0.0613345 -0.00403962 -1
   vertex 0.0620455 -0.00307212 -1
   vertex 0.061818 -0.00443335 -1
  endloop
 endfacet
 facet normal 0 0 -1
  outer loop
   vertex 0.061818 -0.00443335 -1
   vertex 0.0620455 -0.00307212 -1
   vertex 0.0625424 -0.00347471 -1
  endloop
 endfacet
 facet normal 0 0 -1
  outer loop
   vertex 0.061818 -0.00443335 -1
   vertex 0.0625424 -0.00347471 -1
   vertex 0.0622885 -0.00484241 -1
  endloop
 endfacet
 facet normal 0 0 -1
  outer loop
   vertex 0.0622885 -0.00484241 -1
   vertex 0.0625424 -0.00347471 -1
   vertex 0.0630265 -0.00389253 -1
  endloop
 endfacet
 facet normal 0 0 -1
  outer loop
   vertex 0.0622885 -0.00484241 -1
   vertex 0.0630265 -0.00389253 -1
   vertex 0.0627457 -0.00526639 -1
  endloop
 endfacet
 facet normal 0 0 -1
  outer loop
   vertex 0.0627457 -0.00526639 -1
   vertex 0.0630265 -0.00389253 -1
   vertex 0.0634974 -0.00432516 -1
  endloop
 endfacet
 facet normal 0 0 -1
  outer loop
   vertex 0.0627457 -0.00526639 -1
   vertex 0.0634974 -0.00432516 -1
   vertex 0.063189 -0.00570482 -1
  endloop
 endfacet
 facet normal 0 0 -1
  outer loop
   vertex 0.063189 -0.00570482 -1
   vertex 0.0634974 -0.00432516 -1
   vertex 0.0639547 -0.00477221 -1
  endloop
 endfacet
 facet normal 0 0 -1
  outer loop
   vertex 0.063189 -0.00570482 -1
   vertex 0.0639547 -0.00477221 -1
   vertex 0.063618 -0.00615728 -1
  endloop
 endfacet
 facet normal 0 0 -1
  outer loop
   vertex 0.063618 -0.00615728 -1
   vertex 0.0639547 -0.00477221 -1
   vertex 0.0643979 -0.00523323 -1
  endloop
 endfacet
 facet normal 0 0 -1
  outer loop
   vertex 0.063618 -0.00615728 -1
   vertex 0.0643979 -0.00523323 -1
   vertex 0.0640323 -0.00662329 -1
  endloop
 endfacet
 facet normal 0 0 -1
  outer loop
   vertex 0.0640323 -0.00662329 -1
   vertex 0.0643979 -0.00523323 -1
   vertex 0.0648266 -0.00570778 -1
  endloop
 endfacet
 facet normal 0 0 -1
  outer loop
   vertex 0.0640323 -0.00662329 -1
   vertex 0.0648266 -0.00570778 -1
   vertex 0.0644313 -0.00710237 -1
  endloop
 endfacet
 facet normal 0 0 -1
  outer loop
   vertex 0.0644313 -0.00710237 -1
   vertex 0.0648266 -0.00570778 -1
   vertex 0.0652403 -0.00619541 -1
  endloop
 endfacet
 facet normal 0 0 -1
  outer loop
   vertex 0.0644313 -0.00710237 -1
   vertex 0.0652403 -0.00619541 -1
   vertex 0.0648148 -0.00759401 -1
  endloop
 endfacet
 facet normal 0 0 -1
  outer loop
   vertex 0.0648148 -0.00759401 -1
   vertex 0.0652403 -0.00619541 -1
   vertex 0.0656387 -0.00669565 -1
  endloop
 endfacet
 facet normal 0 0 -1
  outer loop
   vertex 0.0648148 -0.00759401 -1
   vertex 0.0656387 -0.00669565 -1
   vertex 0.0651822 -0.00809774 -1
  endloop
 endfacet
 facet normal 0 0 -1
  outer loop
   vertex 0.0651822 -0.00809774 -1
   vertex 0.0656387 -0.00669565 -1
   vertex 0.0660214 -0.007208 -1
  endloop
 endfacet
 facet normal 0 0 -1
  outer loop
   vertex 0.0651822 -0.00809774 -1
   vertex 0.0660214 -0.007208 -1
   vertex 0.0655333 -0.008613 -1
  endloop
 endfacet
 facet normal 0 0 -1
  outer loop
   vertex 0.0655333 -0.008613 -1
   vertex 0.0660214 -0.007208 -1
   vertex 0.066388 -0.00773199 -1
  endloop
 endfacet
 facet normal 0 0 -1
  outer loop
   vertex 0.0655333 -0.008613 -1
   vertex 0.066388 -0.00773199 -1
   vertex 0.0658677 -0.00913928 -1
  endloop
 endfacet
 facet normal 0 0 -1
  outer loop
   vertex 0.0658677 -0.00913928 -1
   vertex 0.066388 -0.00773199 -1
   vertex 0.0667382 -0.0082671 -1
  endloop
 endfacet
 facet normal 0 0 -1
  outer loop
   vertex 0.0658677 -0.00913928 -1
   vertex 0.0667382 -0.0082671 -1
   vertex 0.0661849 -0.00967603 -1
  endloop
 endfacet
 facet normal 0 0 -1
  outer loop
   vertex 0.0661849 -0.00967603 -1
   vertex 0.0667382 -0.0082671 -1
   vertex 0.0670716 -0.00881282 -1
  endloop
 endfacet
 facet normal 0 0 -1
  outer loop
   vertex 0.0661849 -0.00967603 -1
   vertex 0.0670716 -0.00881282 -1
   vertex 0.0673878 -0.00936863 -1
  endloop
 endfacet
 facet normal -0 0 1
  outer loop
   vertex 0.0489656 0.0013204 1
   vertex 0.0489726 0.0009205 1
   vertex 0.0496051 0.0013216 1
  endloop
 endfacet
 facet normal 0 0 1
  outer loop
   vertex 0.0496051 0.0013216 1
   vertex 0.0489726 0.0009205 1
   vertex 0.0498039 0.0001176 1
  endloop
 endfacet
 facet normal 0 0 1
  outer loop
   vertex 0.0496051 0.0013216 1
   vertex 0.0498039 0.0001176 1
   vertex 0.0502443 0.001303 1
  endloop
 endfacet
 facet normal 0 0 1
  outer loop
   vertex 0.0502443 0.001303 1
   vertex 0.0498039 0.0001176 1
   vertex 0.0504269 9.21998e-05 1
  endloop
 endfacet
 facet normal 0 0 1
  outer loop
   vertex 0.0502443 0.001303 1
   vertex 0.0504269 9.21998e-05 1
   vertex 0.0508827 0.0012646 1
  endloop
 endfacet
 facet normal 0 0 1
  outer loop
   vertex 0.0508827 0.0012646 1
   vertex 0.0504269 9.21998e-05 1
   vertex 0.0510488 4.69003e-05 1
  endloop
 endfacet
 facet normal 0 0 1
  outer loop
   vertex 0.0508827 0.0012646 1
   vertex 0.0510488 4.69003e-05 1
   vertex 0.0515195 0.0012063 1
  endloop
 endfacet
 facet normal 0 0 1
  outer loop
   vertex 0.0515195 0.0012063 1
   vertex 0.0510488 4.69003e-05 1
   vertex 0.0516689 -1.85503e-05 1
  endloop
 endfacet
 facet normal 0 0 1
  outer loop
   vertex 0.0515195 0.0012063 1
   vertex 0.0516689 -1.85503e-05 1
   vertex 0.0521542 0.0011284 1
  endloop
 endfacet
 facet normal 0 0 1
  outer loop
   vertex 0.0521542 0.0011284 1
   vertex 0.0516689 -1.85503e-05 1
   vertex 0.0522865 -0.00010376 1
  endloop
 endfacet
 facet normal 0 0 1
  outer loop
   vertex 0.0521542 0.0011284 1
   vertex 0.0522865 -0.00010376 1
   vertex 0.0527862 0.0010308 1
  endloop
 endfacet
 facet normal 0 0 1
  outer loop
   vertex 0.0527862 0.0010308 1
   vertex 0.0522865 -0.00010376 1
   vertex 0.0529011 -0.00020882 1
  endloop
 endfacet
 facet normal -0 0 1
  outer loop
   vertex 0.0684893 -0.0223148 1
   vertex 0.0688844 -0.0223774 1
   vertex 0.068577 -0.0216975 1
  endloop
 endfacet
 facet normal 0 0 1
  outer loop
   vertex 0.068577 -0.0216975 1
   vertex 0.0688844 -0.0223774 1
   vertex 0.0697826 -0.0217248 1
  endloop
 endfacet
 facet normal -0 0 1
  outer loop
   vertex 0.068577 -0.0216975 1
   vertex 0.0697826 -0.0217248 1
   vertex 0.0686447 -0.0210776 1
  endloop
 endfacet
 facet normal 0 0 1
  outer loop
   vertex 0.0686447 -0.0210776 1
   vertex 0.0697826 -0.0217248 1
   vertex 0.0698486 -0.0210887 1
  endloop
 endfacet
 facet normal -0 0 1
  outer loop
   vertex 0.0686447 -0.0210776 1
   vertex 0.0698486 -0.0210887 1
   vertex 0.0686925 -0.020456 1
  endloop
 endfacet
 facet normal -0 0 1
  outer loop
   vertex 0.0686925 -0.020456 1
   vertex 0.0698486 -0.0210887 1
   vertex 0.0698949 -0.0204509 1
  endloop
 endfacet
 facet normal 0 0 1
  outer loop
   vertex 0.0686925 -0.020456 1
   vertex 0.0698949 -0.0204509 1
   vertex 0.0687203 -0.0198331 1
  endloop
 endfacet
 facet normal -0 0 1
  outer loop
   vertex 0.0687203 -0.0198331 1
   vertex 0.0698949 -0.0204509 1
   vertex 0.0699213 -0.0198119 1
  endloop
 endfacet
 facet normal 0 0 1
  outer loop
   vertex 0.0687203 -0.0198331 1
   vertex 0.0699213 -0.0198119 1
   vertex 0.068728 -0.0192096 1
  endloop
 endfacet
 facet normal -0 0 1
  outer loop
   vertex 0.068728 -0.0192096 1
   vertex 0.0699213 -0.0198119 1
   vertex 0.069928 -0.0191725 1
  endloop
 endfacet
 facet normal 0 -0 1
  outer loop
   vertex 0.068728 -0.0192096 1
   vertex 0.069928 -0.0191725 1
   vertex 0.0687158 -0.0185862 1
  endloop
 endfacet
 facet normal -0 0 1
  outer loop
   vertex 0.0687158 -0.0185862 1
   vertex 0.069928 -0.0191725 1
   vertex 0.0699147 -0.0185331 1
  endloop
 endfacet
 facet normal 0 -0 1
  outer loop
   vertex 0.0687158 -0.0185862 1
   vertex 0.0699147 -0.0185331 1
   vertex 0.0686835 -0.0179636 1
  endloop
 endfacet
 facet normal -0 0 1
  outer loop
   vertex 0.0686835 -0.0179636 1
   vertex 0.0699147 -0.0185331 1
   vertex 0.0698816 -0.0178944 1
  endloop
 endfacet
 facet normal 0 -0 1
  outer loop
   vertex 0.0686835 -0.0179636 1
   vertex 0.0698816 -0.0178944 1
   vertex 0.0686313 -0.0173423 1
  endloop
 endfacet
 facet normal -0 0 1
  outer loop
   vertex 0.0686313 -0.0173423 1
   vertex 0.0698816 -0.0178944 1
   vertex 0.0698287 -0.0172572 1
  endloop
 endfacet
 facet normal 0 -0 1
  outer loop
   vertex 0.0686313 -0.0173423 1
   vertex 0.0698287 -0.0172572 1
   vertex 0.068559 -0.0167229 1
  endloop
 endfacet
 facet normal -0 0 1
  outer loop
   vertex 0.068559 -0.0167229 1
   vertex 0.0698287 -0.0172572 1
   vertex 0.0697561 -0.0166218 1
  endloop
 endfacet
 facet normal 0 -0 1
  outer loop
   vertex 0.068559 -0.0167229 1
   vertex 0.0697561 -0.0166218 1
   vertex 0.068467 -0.0161063 1
  endloop
 endfacet
 facet normal -0 0 1
  outer loop
   vertex 0.068467 -0.0161063 1
   vertex 0.0697561 -0.0166218 1
   vertex 0.0696637 -0.015989 1
  endloop
 endfacet
 facet normal 0 -0 1
  outer loop
   vertex 0.068467 -0.0161063 1
   vertex 0.0696637 -0.015989 1
   vertex 0.0683551 -0.0154929 1
  endloop
 endfacet
 facet normal -0 0 1
  outer loop
   vertex 0.0683551 -0.0154929 1
   vertex 0.0696637 -0.015989 1
   vertex 0.0695518 -0.0153593 1
  endloop
 endfacet
 facet normal 0 -0 1
  outer loop
   vertex 0.0683551 -0.0154929 1
   vertex 0.0695518 -0.0153593 1
   vertex 0.0682236 -0.0148834 1
  endloop
 endfacet
 facet normal -0 0 1
  outer loop
   vertex 0.0682236 -0.0148834 1
   vertex 0.0695518 -0.0153593 1
   vertex 0.0694204 -0.0147335 1
  endloop
 endfacet
 facet normal 0 -0 1
  outer loop
   vertex 0.0682236 -0.0148834 1
   vertex 0.0694204 -0.0147335 1
   vertex 0.0680726 -0.0142785 1
  endloop
 endfacet
 facet normal -0 0 1
  outer loop
   vertex 0.0680726 -0.0142785 1
   vertex 0.0694204 -0.0147335 1
   vertex 0.0692697 -0.014112 1
  endloop
 endfacet
 facet normal 0 -0 1
  outer loop
   vertex 0.0680726 -0.0142785 1
   vertex 0.0692697 -0.014112 1
   vertex 0.0679023 -0.0136787 1
  endloop
 endfacet
 facet normal -0 0 1
  outer loop
   vertex 0.0679023 -0.0136787 1
   vertex 0.0692697 -0.014112 1
   vertex 0.0690997 -0.0134956 1
  endloop
 endfacet
 facet normal 0 -0 1
  outer loop
   vertex 0.0679023 -0.0136787 1
   vertex 0.0690997 -0.0134956 1
   vertex 0.0677127 -0.0130847 1
  endloop
 endfacet
 facet normal -0 0 1
  outer loop
   vertex 0.0677127 -0.0130847 1
   vertex 0.0690997 -0.0134956 1
   vertex 0.0689107 -0.0128846 1
  endloop
 endfacet
 facet normal 0 -0 1
  outer loop
   vertex 0.0677127 -0.0130847 1
   vertex 0.0689107 -0.0128846 1
   vertex 0.0675042 -0.0124971 1
  endloop
 endfacet
 facet normal -0 0 1
  outer loop
   vertex 0.0675042 -0.0124971 1
   vertex 0.0689107 -0.0128846 1
   vertex 0.0687028 -0.0122799 1
  endloop
 endfacet
 facet normal 0 -0 1
  outer loop
   vertex 0.0675042 -0.0124971 1
   vertex 0.0687028 -0.0122799 1
   vertex 0.0672769 -0.0119165 1
  endloop
 endfacet
 facet normal -0 0 1
  outer loop
   vertex 0.0672769 -0.0119165 1
   vertex 0.0687028 -0.0122799 1
   vertex 0.0684762 -0.0116818 1
  endloop
 endfacet
 facet normal 0 -0 1
  outer loop
   vertex 0.0672769 -0.0119165 1
   vertex 0.0684762 -0.0116818 1
   vertex 0.0670311 -0.0113435 1
  endloop
 endfacet
 facet normal -0 0 1
  outer loop
   vertex 0.0670311 -0.0113435 1
   vertex 0.0684762 -0.0116818 1
   vertex 0.0682312 -0.0110912 1
  endloop
 endfacet
 facet normal 0 -0 1
  outer loop
   vertex 0.0670311 -0.0113435 1
   vertex 0.0682312 -0.0110912 1
   vertex 0.0667669 -0.0107787 1
  endloop
 endfacet
 facet normal -0 0 1
  outer loop
   vertex 0.0667669 -0.0107787 1
   vertex 0.0682312 -0.0110912 1
   vertex 0.0679679 -0.0105083 1
  endloop
 endfacet
 facet normal 0 -0 1
  outer loop
   vertex 0.0667669 -0.0107787 1
   vertex 0.0679679 -0.0105083 1
   vertex 0.0664848 -0.0102227 1
  endloop
 endfacet
 facet normal 0 0 1
  outer loop
   vertex 0.0679679 -0.0105083 1
   vertex 0.0676867 -0.00993399 1
   vertex 0.0664848 -0.0102227 1
  endloop
 endfacet
 facet normal 0 0 1
  outer loop
   vertex 0.0664848 -0.0102227 1
   vertex 0.0676867 -0.00993399 1
   vertex 0.0673878 -0.00936863 1
  endloop
 endfacet
 facet normal 0 -0 1
  outer loop
   vertex 0.0664848 -0.0102227 1
   vertex 0.0673878 -0.00936863 1
   vertex 0.0661849 -0.00967603 1
  endloop
 endfacet
 facet normal 0 0 1
  outer loop
   vertex 0.0661849 -0.00967603 1
   vertex 0.0673878 -0.00936863 1
   vertex 0.0670716 -0.00881282 1
  endloop
 endfacet
 facet normal 0 -0 1
  outer loop
   vertex 0.0661849 -0.00967603 1
   vertex 0.0670716 -0.00881282 1
   vertex 0.0658677 -0.00913928 1
  endloop
 endfacet
 facet normal 0 0 1
  outer loop
   vertex 0.0658677 -0.00913928 1
   vertex 0.0670716 -0.00881282 1
   vertex 0.0667382 -0.0082671 1
  endloop
 endfacet
 facet normal 0 -0 1
  outer loop
   vertex 0.0658677 -0.00913928 1
   vertex 0.0667382 -0.0082671 1
   vertex 0.0655333 -0.008613 1
  endloop
 endfacet
 facet normal 0 0 1
  outer loop
   vertex 0.0655333 -0.008613 1
   vertex 0.0667382 -0.0082671 1
   vertex 0.066388 -0.00773199 1
  endloop
 endfacet
 facet normal 0 -0 1
  outer loop
   vertex 0.0655333 -0.008613 1
   vertex 0.066388 -0.00773199 1
   vertex 0.0651822 -0.00809774 1
  endloop
 endfacet
 facet normal 0 0 1
  outer loop
   vertex 0.0651822 -0.00809774 1
   vertex 0.066388 -0.00773199 1
   vertex 0.0660214 -0.007208 1
  endloop
 endfacet
 facet normal 0 -0 1
  outer loop
   vertex 0.0651822 -0.00809774 1
   vertex 0.0660214 -0.007208 1
   vertex 0.0648148 -0.00759401 1
  endloop
 endfacet
 facet normal 0 0 1
  outer loop
   vertex 0.0648148 -0.00759401 1
   vertex 0.0660214 -0.007208 1
   vertex 0.0656387 -0.00669565 1
  endloop
 endfacet
 facet normal 0 -0 1
  outer loop
   vertex 0.0648148 -0.00759401 1
   vertex 0.0656387 -0.00669565 1
   vertex 0.0644313 -0.00710237 1
  endloop
 endfacet
 facet normal 0 0 1
  outer loop
   vertex 0.0644313 -0.00710237 1
   vertex 0.0656387 -0.00669565 1
   vertex 0.0652403 -0.00619541 1
  endloop
 endfacet
 facet normal 0 -0 1
  outer loop
   vertex 0.0644313 -0.00710237 1
   vertex 0.0652403 -0.00619541 1
   vertex 0.0640323 -0.00662329 1
  endloop
 endfacet
 facet normal 0 0 1
  outer loop
   vertex 0.0640323 -0.00662329 1
   vertex 0.0652403 -0.00619541 1
   vertex 0.0648266 -0.00570778 1
  endloop
 endfacet
 facet normal 0 -0 1
  outer loop
   vertex 0.0640323 -0.00662329 1
   vertex 0.0648266 -0.00570778 1
   vertex 0.063618 -0.00615728 1
  endloop
 endfacet
 facet normal 0 0 1
  outer loop
   vertex 0.063618 -0.00615728 1
   vertex 0.0648266 -0.00570778 1
   vertex 0.0643979 -0.00523323 1
  endloop
 endfacet
 facet normal 0 -0 1
  outer loop
   vertex 0.063618 -0.00615728 1
   vertex 0.0643979 -0.00523323 1
   vertex 0.063189 -0.00570482 1
  endloop
 endfacet
 facet normal 0 0 1
  outer loop
   vertex 0.063189 -0.00570482 1
   vertex 0.0643979 -0.00523323 1
   vertex 0.0639547 -0.00477221 1
  endloop
 endfacet
 facet normal 0 -0 1
  outer loop
   vertex 0.063189 -0.00570482 1
   vertex 0.0639547 -0.00477221 1
   vertex 0.0627457 -0.00526639 1
  endloop
 endfacet
 facet normal 0 0 1
  outer loop
   vertex 0.0627457 -0.00526639 1
   vertex 0.0639547 -0.00477221 1
   vertex 0.0634974 -0.00432516 1
  endloop
 endfacet
 facet normal 0 -0 1
  outer loop
   vertex 0.0627457 -0.00526639 1
   vertex 0.0634974 -0.00432516 1
   vertex 0.0622885 -0.00484241 1
  endloop
 endfacet
 facet normal 0 0 1
  outer loop
   vertex 0.0622885 -0.00484241 1
   vertex 0.0634974 -0.00432516 1
   vertex 0.0630265 -0.00389253 1
  endloop
 endfacet
 facet normal 0 -0 1
  outer loop
   vertex 0.0622885 -0.00484241 1
   vertex 0.0630265 -0.00389253 1
   vertex 0.061818 -0.00443335 1
  endloop
 endfacet
 facet normal 0 0 1
  outer loop
   vertex 0.061818 -0.00443335 1
   vertex 0.0630265 -0.00389253 1
   vertex 0.0625424 -0.00347471 1
  endloop
 endfacet
 facet normal 0 -0 1
  outer loop
   vertex 0.061818 -0.00443335 1
   vertex 0.0625424 -0.00347471 1
   vertex 0.0613345 -0.00403962 1
  endloop
 endfacet
 facet normal 0 0 1
  outer loop
   vertex 0.0613345 -0.00403962 1
   vertex 0.0625424 -0.00347471 1
   vertex 0.0620455 -0.00307212 1
  endloop
 endfacet
 facet normal 0 -0 1
  outer loop
   vertex 0.0613345 -0.00403962 1
   vertex 0.0620455 -0.00307212 1
   vertex 0.0608386 -0.00366163 1
  endloop
 endfacet
 facet normal 0 0 1
  outer loop
   vertex 0.0608386 -0.00366163 1
   vertex 0.0620455 -0.00307212 1
   vertex 0.0615364 -0.00268515 1
  endloop
 endfacet
 facet normal 0 -0 1
  outer loop
   vertex 0.0608386 -0.00366163 1
   vertex 0.0615364 -0.00268515 1
   vertex 0.0603309 -0.00329975 1
  endloop
 endfacet
 facet normal 0 0 1
  outer loop
   vertex 0.0603309 -0.00329975 1
   vertex 0.0615364 -0.00268515 1
   vertex 0.0610155 -0.00231417 1
  endloop
 endfacet
 facet normal 0 -0 1
  outer loop
   vertex 0.0603309 -0.00329975 1
   vertex 0.0610155 -0.00231417 1
   vertex 0.0598118 -0.00295439 1
  endloop
 endfacet
 facet normal 0 0 1
  outer loop
   vertex 0.0598118 -0.00295439 1
   vertex 0.0610155 -0.00231417 1
   vertex 0.0604833 -0.00195953 1
  endloop
 endfacet
 facet normal 0 -0 1
  outer loop
   vertex 0.0598118 -0.00295439 1
   vertex 0.0604833 -0.00195953 1
   vertex 0.0592818 -0.00262588 1
  endloop
 endfacet
 facet normal 0 0 1
  outer loop
   vertex 0.0592818 -0.00262588 1
   vertex 0.0604833 -0.00195953 1
   vertex 0.0599404 -0.00162158 1
  endloop
 endfacet
 facet normal 0 -0 1
  outer loop
   vertex 0.0592818 -0.00262588 1
   vertex 0.0599404 -0.00162158 1
   vertex 0.0587416 -0.00231456 1
  endloop
 endfacet
 facet normal 0 0 1
  outer loop
   vertex 0.0587416 -0.00231456 1
   vertex 0.0599404 -0.00162158 1
   vertex 0.0593873 -0.00130064 1
  endloop
 endfacet
 facet normal 0 -0 1
  outer loop
   vertex 0.0587416 -0.00231456 1
   vertex 0.0593873 -0.00130064 1
   vertex 0.0581917 -0.00202078 1
  endloop
 endfacet
 facet normal 0 0 1
  outer loop
   vertex 0.0581917 -0.00202078 1
   vertex 0.0593873 -0.00130064 1
   vertex 0.0588244 -0.00099702 1
  endloop
 endfacet
 facet normal 0 -0 1
  outer loop
   vertex 0.0581917 -0.00202078 1
   vertex 0.0588244 -0.00099702 1
   vertex 0.0576326 -0.0017448 1
  endloop
 endfacet
 facet normal 0 0 1
  outer loop
   vertex 0.0576326 -0.0017448 1
   vertex 0.0588244 -0.00099702 1
   vertex 0.0582525 -0.00071101 1
  endloop
 endfacet
 facet normal 0 -0 1
  outer loop
   vertex 0.0576326 -0.0017448 1
   vertex 0.0582525 -0.00071101 1
   vertex 0.0570649 -0.00148694 1
  endloop
 endfacet
 facet normal 0 0 1
  outer loop
   vertex 0.0570649 -0.00148694 1
   vertex 0.0582525 -0.00071101 1
   vertex 0.0576719 -0.0004429 1
  endloop
 endfacet
 facet normal 0 -0 1
  outer loop
   vertex 0.0570649 -0.00148694 1
   vertex 0.0576719 -0.0004429 1
   vertex 0.0564892 -0.00124745 1
  endloop
 endfacet
 facet normal 0 0 1
  outer loop
   vertex 0.0564892 -0.00124745 1
   vertex 0.0576719 -0.0004429 1
   vertex 0.0570833 -0.00019292 1
  endloop
 endfacet
 facet normal 0 -0 1
  outer loop
   vertex 0.0564892 -0.00124745 1
   vertex 0.0570833 -0.00019292 1
   vertex 0.0559061 -0.00102658 1
  endloop
 endfacet
 facet normal 0 0 1
  outer loop
   vertex 0.0559061 -0.00102658 1
   vertex 0.0570833 -0.00019292 1
   vertex 0.0564872 3.87e-05 1
  endloop
 endfacet
 facet normal 0 -0 1
  outer loop
   vertex 0.0559061 -0.00102658 1
   vertex 0.0564872 3.87e-05 1
   vertex 0.0553163 -0.00082455 1
  endloop
 endfacet
 facet normal 0 0 1
  outer loop
   vertex 0.0553163 -0.00082455 1
   vertex 0.0564872 3.87e-05 1
   vertex 0.0558842 0.0002516 1
  endloop
 endfacet
 facet normal 0 -0 1
  outer loop
   vertex 0.0553163 -0.00082455 1
   vertex 0.0558842 0.0002516 1
   vertex 0.0547202 -0.00064162 1
  endloop
 endfacet
 facet normal 0 0 1
  outer loop
   vertex 0.0547202 -0.00064162 1
   vertex 0.0558842 0.0002516 1
   vertex 0.0552749 0.0004458 1
  endloop
 endfacet
 facet normal 0 -0 1
  outer loop
   vertex 0.0547202 -0.00064162 1
   vertex 0.0552749 0.0004458 1
   vertex 0.0541186 -0.00047787 1
  endloop
 endfacet
 facet normal 0 0 1
  outer loop
   vertex 0.0541186 -0.00047787 1
   vertex 0.0552749 0.0004458 1
   vertex 0.0546598 0.0006209 1
  endloop
 endfacet
 facet normal 0 -0 1
  outer loop
   vertex 0.0541186 -0.00047787 1
   vertex 0.0546598 0.0006209 1
   vertex 0.053512 -0.00033353 1
  endloop
 endfacet
 facet normal 0 0 1
  outer loop
   vertex 0.053512 -0.00033353 1
   vertex 0.0546598 0.0006209 1
   vertex 0.0540396 0.0007769 1
  endloop
 endfacet
 facet normal 0 -0 1
  outer loop
   vertex 0.053512 -0.00033353 1
   vertex 0.0540396 0.0007769 1
   vertex 0.0529011 -0.00020882 1
  endloop
 endfacet
 facet normal 0 0 1
  outer loop
   vertex 0.0529011 -0.00020882 1
   vertex 0.0540396 0.0007769 1
   vertex 0.0534149 0.0009136 1
  endloop
 endfacet
 facet normal 0 -0 1
  outer loop
   vertex 0.0529011 -0.00020882 1
   vertex 0.0534149 0.0009136 1
   vertex 0.0527862 0.0010308 1
  endloop
 endfacet
 facet normal 0.587798 -0.809008 0
  outer loop
   vertex 0.0697826 -0.0217248 1
   vertex 0.0688844 -0.0223774 1
   vertex 0.0697826 -0.0217248 -1
  endloop
 endfacet
 facet normal 0.587798 -0.809008 0
  outer loop
   vertex 0.0697826 -0.0217248 -1
   vertex 0.0688844 -0.0223774 1
   vertex 0.0688844 -0.0223774 -1
  endloop
 endfacet
 facet normal -0.694713 -0.719287 -0
  outer loop
   vertex 0.0498039 0.0001176 1
   vertex 0.0489726 0.0009205 1
   vertex 0.0498039 0.0001176 -1
  endloop
 endfacet
 facet normal -0.694713 -0.719287 0
  outer loop
   vertex 0.0498039 0.0001176 -1
   vertex 0.0489726 0.0009205 1
   vertex 0.0489726 0.0009205 -1
  endloop
 endfacet
endsolid tunner_vane
