solid single_vane
 facet normal -0.0871567 -0.996195 0
  outer loop
   vertex 0.0198 -0.0033 -1
   vertex 0.0198 -0.0033 1
   vertex 0.019227 -0.00324987 1
  endloop
 endfacet
 facet normal -0.0871567 -0.996195 0
  outer loop
   vertex 0.0198 -0.0033 -1
   vertex 0.019227 -0.00324987 1
   vertex 0.019227 -0.00324987 -1
  endloop
 endfacet
 facet normal -0.258816 -0.965927 0
  outer loop
   vertex 0.019227 -0.00324987 -1
   vertex 0.019227 -0.00324987 1
   vertex 0.0186713 -0.00310099 1
  endloop
 endfacet
 facet normal -0.258816 -0.965927 0
  outer loop
   vertex 0.019227 -0.00324987 -1
   vertex 0.0186713 -0.00310099 1
   vertex 0.0186713 -0.00310099 -1
  endloop
 endfacet
 facet normal -0.422619 -0.906307 0
  outer loop
   vertex 0.0186713 -0.00310099 -1
   vertex 0.0186713 -0.00310099 1
   vertex 0.01815 -0.00285788 1
  endloop
 endfacet
 facet normal -0.422619 -0.906307 0
  outer loop
   vertex 0.0186713 -0.00310099 -1
   vertex 0.01815 -0.00285788 1
   vertex 0.01815 -0.00285788 -1
  endloop
 endfacet
 facet normal -0.573578 -0.819151 0
  outer loop
   vertex 0.01815 -0.00285788 -1
   vertex 0.01815 -0.00285788 1
   vertex 0.0176788 -0.00252795 1
  endloop
 endfacet
 facet normal -0.573578 -0.819151 0
  outer loop
   vertex 0.01815 -0.00285788 -1
   vertex 0.0176788 -0.00252795 1
   vertex 0.0176788 -0.00252795 -1
  endloop
 endfacet
 facet normal -0.707107 -0.707106 0
  outer loop
   vertex 0.0176788 -0.00252795 -1
   vertex 0.0176788 -0.00252795 1
   vertex 0.0172721 -0.0021212 1
  endloop
 endfacet
 facet normal -0.707107 -0.707106 0
  outer loop
   vertex 0.0176788 -0.00252795 -1
   vertex 0.0172721 -0.0021212 1
   vertex 0.0172721 -0.0021212 -1
  endloop
 endfacet
 facet normal -0.819146 -0.573585 0
  outer loop
   vertex 0.0172721 -0.0021212 -1
   vertex 0.0172721 -0.0021212 1
   vertex 0.0169421 -0.00165 1
  endloop
 endfacet
 facet normal -0.819146 -0.573585 0
  outer loop
   vertex 0.0172721 -0.0021212 -1
   vertex 0.0169421 -0.00165 1
   vertex 0.0169421 -0.00165 -1
  endloop
 endfacet
 facet normal -0.906309 -0.422616 0
  outer loop
   vertex 0.0169421 -0.00165 -1
   vertex 0.0169421 -0.00165 1
   vertex 0.016699 -0.00112867 1
  endloop
 endfacet
 facet normal -0.906309 -0.422616 0
  outer loop
   vertex 0.0169421 -0.00165 -1
   vertex 0.016699 -0.00112867 1
   vertex 0.016699 -0.00112867 -1
  endloop
 endfacet
 facet normal -0.965928 -0.258809 0
  outer loop
   vertex 0.016699 -0.00112867 -1
   vertex 0.016699 -0.00112867 1
   vertex 0.0165501 -0.000573039 1
  endloop
 endfacet
 facet normal -0.965928 -0.258809 0
  outer loop
   vertex 0.016699 -0.00112867 -1
   vertex 0.0165501 -0.000573039 1
   vertex 0.0165501 -0.000573039 -1
  endloop
 endfacet
 facet normal -0.996194 -0.0871613 0
  outer loop
   vertex 0.0165501 -0.000573039 -1
   vertex 0.0165501 -0.000573039 1
   vertex 0.0165 4.04133e-19 1
  endloop
 endfacet
 facet normal -0.996194 -0.0871613 0
  outer loop
   vertex 0.0165501 -0.000573039 -1
   vertex 0.0165 4.04133e-19 1
   vertex 0.0165 4.04133e-19 -1
  endloop
 endfacet
 facet normal -0.996194 0.0871613 0
  outer loop
   vertex 0.0165 4.04133e-19 -1
   vertex 0.0165 4.04133e-19 1
   vertex 0.0165501 0.000573039 1
  endloop
 endfacet
 facet normal -0.996194 0.0871613 0
  outer loop
   vertex 0.0165 4.04133e-19 -1
   vertex 0.0165501 0.000573039 1
   vertex 0.0165501 0.000573039 -1
  endloop
 endfacet
 facet normal -0.965928 0.258809 0
  outer loop
   vertex 0.0165501 0.000573039 -1
   vertex 0.0165501 0.000573039 1
   vertex 0.016699 0.00112867 1
  endloop
 endfacet
 facet normal -0.965928 0.258809 0
  outer loop
   vertex 0.0165501 0.000573039 -1
   vertex 0.016699 0.00112867 1
   vertex 0.016699 0.00112867 -1
  endloop
 endfacet
 facet normal -0.906309 0.422616 0
  outer loop
   vertex 0.016699 0.00112867 -1
   vertex 0.016699 0.00112867 1
   vertex 0.0169421 0.00165 1
  endloop
 endfacet
 facet normal -0.906309 0.422616 0
  outer loop
   vertex 0.016699 0.00112867 -1
   vertex 0.0169421 0.00165 1
   vertex 0.0169421 0.00165 -1
  endloop
 endfacet
 facet normal -0.819146 0.573585 0
  outer loop
   vertex 0.0169421 0.00165 -1
   vertex 0.0169421 0.00165 1
   vertex 0.0172721 0.0021212 1
  endloop
 endfacet
 facet normal -0.819146 0.573585 0
  outer loop
   vertex 0.0169421 0.00165 -1
   vertex 0.0172721 0.0021212 1
   vertex 0.0172721 0.0021212 -1
  endloop
 endfacet
 facet normal -0.707107 0.707106 0
  outer loop
   vertex 0.0172721 0.0021212 -1
   vertex 0.0172721 0.0021212 1
   vertex 0.0176788 0.00252795 1
  endloop
 endfacet
 facet normal -0.707107 0.707106 0
  outer loop
   vertex 0.0172721 0.0021212 -1
   vertex 0.0176788 0.00252795 1
   vertex 0.0176788 0.00252795 -1
  endloop
 endfacet
 facet normal -0.573578 0.819151 0
  outer loop
   vertex 0.0176788 0.00252795 -1
   vertex 0.0176788 0.00252795 1
   vertex 0.01815 0.00285788 1
  endloop
 endfacet
 facet normal -0.573578 0.819151 0
  outer loop
   vertex 0.0176788 0.00252795 -1
   vertex 0.01815 0.00285788 1
   vertex 0.01815 0.00285788 -1
  endloop
 endfacet
 facet normal -0.422619 0.906307 0
  outer loop
   vertex 0.01815 0.00285788 -1
   vertex 0.01815 0.00285788 1
   vertex 0.0186713 0.00310099 1
  endloop
 endfacet
 facet normal -0.422619 0.906307 0
  outer loop
   vertex 0.01815 0.00285788 -1
   vertex 0.0186713 0.00310099 1
   vertex 0.0186713 0.00310099 -1
  endloop
 endfacet
 facet normal -0.258816 0.965927 0
  outer loop
   vertex 0.0186713 0.00310099 -1
   vertex 0.0186713 0.00310099 1
   vertex 0.019227 0.00324987 1
  endloop
 endfacet
 facet normal -0.258816 0.965927 0
  outer loop
   vertex 0.0186713 0.00310099 -1
   vertex 0.019227 0.00324987 1
   vertex 0.019227 0.00324987 -1
  endloop
 endfacet
 facet normal -0.0871567 0.996195 0
  outer loop
   vertex 0.019227 0.00324987 -1
   vertex 0.019227 0.00324987 1
   vertex 0.0198 0.0033 1
  endloop
 endfacet
 facet normal -0.0871567 0.996195 0
  outer loop
   vertex 0.019227 0.00324987 -1
   vertex 0.0198 0.0033 1
   vertex 0.0198 0.0033 -1
  endloop
 endfacet
 facet normal 0 1 0
  outer loop
   vertex 0.5698 0.0033 1
   vertex 0.5698 0.0033 -1
   vertex 0.0198 0.0033 1
  endloop
 endfacet
 facet normal 0 1 0
  outer loop
   vertex 0.0198 0.0033 1
   vertex 0.5698 0.0033 -1
   vertex 0.0198 0.0033 -1
  endloop
 endfacet
 facet normal 0.0871639 0.996194 -0
  outer loop
   vertex 0.5698 0.0033 -1
   vertex 0.5698 0.0033 1
   vertex 0.570373 0.00324987 1
  endloop
 endfacet
 facet normal 0.0871639 0.996194 0
  outer loop
   vertex 0.5698 0.0033 -1
   vertex 0.570373 0.00324987 1
   vertex 0.570373 0.00324987 -1
  endloop
 endfacet
 facet normal 0.258819 0.965926 -0
  outer loop
   vertex 0.570373 0.00324987 -1
   vertex 0.570373 0.00324987 1
   vertex 0.570929 0.00310099 1
  endloop
 endfacet
 facet normal 0.258819 0.965926 0
  outer loop
   vertex 0.570373 0.00324987 -1
   vertex 0.570929 0.00310099 1
   vertex 0.570929 0.00310099 -1
  endloop
 endfacet
 facet normal 0.422557 0.906336 -0
  outer loop
   vertex 0.570929 0.00310099 -1
   vertex 0.570929 0.00310099 1
   vertex 0.57145 0.00285788 1
  endloop
 endfacet
 facet normal 0.422557 0.906336 0
  outer loop
   vertex 0.570929 0.00310099 -1
   vertex 0.57145 0.00285788 1
   vertex 0.57145 0.00285788 -1
  endloop
 endfacet
 facet normal 0.573552 0.819169 -0
  outer loop
   vertex 0.57145 0.00285788 -1
   vertex 0.57145 0.00285788 1
   vertex 0.571921 0.00252795 1
  endloop
 endfacet
 facet normal 0.573552 0.819169 0
  outer loop
   vertex 0.57145 0.00285788 -1
   vertex 0.571921 0.00252795 1
   vertex 0.571921 0.00252795 -1
  endloop
 endfacet
 facet normal 0.707182 0.707032 -0
  outer loop
   vertex 0.571921 0.00252795 -1
   vertex 0.571921 0.00252795 1
   vertex 0.572328 0.0021212 1
  endloop
 endfacet
 facet normal 0.707182 0.707032 0
  outer loop
   vertex 0.571921 0.00252795 -1
   vertex 0.572328 0.0021212 1
   vertex 0.572328 0.0021212 -1
  endloop
 endfacet
 facet normal 0.81912 0.573622 -0
  outer loop
   vertex 0.572328 0.0021212 -1
   vertex 0.572328 0.0021212 1
   vertex 0.572658 0.00165 1
  endloop
 endfacet
 facet normal 0.81912 0.573622 0
  outer loop
   vertex 0.572328 0.0021212 -1
   vertex 0.572658 0.00165 1
   vertex 0.572658 0.00165 -1
  endloop
 endfacet
 facet normal 0.906299 0.422637 -0
  outer loop
   vertex 0.572658 0.00165 -1
   vertex 0.572658 0.00165 1
   vertex 0.572901 0.00112867 1
  endloop
 endfacet
 facet normal 0.906299 0.422637 0
  outer loop
   vertex 0.572658 0.00165 -1
   vertex 0.572901 0.00112867 1
   vertex 0.572901 0.00112867 -1
  endloop
 endfacet
 facet normal 0.965935 0.258785 -0
  outer loop
   vertex 0.572901 0.00112867 -1
   vertex 0.572901 0.00112867 1
   vertex 0.57305 0.000573039 1
  endloop
 endfacet
 facet normal 0.965935 0.258785 0
  outer loop
   vertex 0.572901 0.00112867 -1
   vertex 0.57305 0.000573039 1
   vertex 0.57305 0.000573039 -1
  endloop
 endfacet
 facet normal 0.996193 0.0871726 -0
  outer loop
   vertex 0.57305 0.000573039 -1
   vertex 0.57305 0.000573039 1
   vertex 0.5731 -8.08267e-19 1
  endloop
 endfacet
 facet normal 0.996193 0.0871726 0
  outer loop
   vertex 0.57305 0.000573039 -1
   vertex 0.5731 -8.08267e-19 1
   vertex 0.5731 -8.08267e-19 -1
  endloop
 endfacet
 facet normal 0.996193 -0.0871726 0
  outer loop
   vertex 0.5731 -8.08267e-19 -1
   vertex 0.5731 -8.08267e-19 1
   vertex 0.57305 -0.000573039 1
  endloop
 endfacet
 facet normal 0.996193 -0.0871726 0
  outer loop
   vertex 0.5731 -8.08267e-19 -1
   vertex 0.57305 -0.000573039 1
   vertex 0.57305 -0.000573039 -1
  endloop
 endfacet
 facet normal 0.965935 -0.258785 0
  outer loop
   vertex 0.57305 -0.000573039 -1
   vertex 0.57305 -0.000573039 1
   vertex 0.572901 -0.00112867 1
  endloop
 endfacet
 facet normal 0.965935 -0.258785 0
  outer loop
   vertex 0.57305 -0.000573039 -1
   vertex 0.572901 -0.00112867 1
   vertex 0.572901 -0.00112867 -1
  endloop
 endfacet
 facet normal 0.906299 -0.422637 0
  outer loop
   vertex 0.572901 -0.00112867 -1
   vertex 0.572901 -0.00112867 1
   vertex 0.572658 -0.00165 1
  endloop
 endfacet
 facet normal 0.906299 -0.422637 0
  outer loop
   vertex 0.572901 -0.00112867 -1
   vertex 0.572658 -0.00165 1
   vertex 0.572658 -0.00165 -1
  endloop
 endfacet
 facet normal 0.81912 -0.573622 0
  outer loop
   vertex 0.572658 -0.00165 -1
   vertex 0.572658 -0.00165 1
   vertex 0.572328 -0.0021212 1
  endloop
 endfacet
 facet normal 0.81912 -0.573622 0
  outer loop
   vertex 0.572658 -0.00165 -1
   vertex 0.572328 -0.0021212 1
   vertex 0.572328 -0.0021212 -1
  endloop
 endfacet
 facet normal 0.707182 -0.707032 0
  outer loop
   vertex 0.572328 -0.0021212 -1
   vertex 0.572328 -0.0021212 1
   vertex 0.571921 -0.00252795 1
  endloop
 endfacet
 facet normal 0.707182 -0.707032 0
  outer loop
   vertex 0.572328 -0.0021212 -1
   vertex 0.571921 -0.00252795 1
   vertex 0.571921 -0.00252795 -1
  endloop
 endfacet
 facet normal 0.573552 -0.819169 0
  outer loop
   vertex 0.571921 -0.00252795 -1
   vertex 0.571921 -0.00252795 1
   vertex 0.57145 -0.00285788 1
  endloop
 endfacet
 facet normal 0.573552 -0.819169 0
  outer loop
   vertex 0.571921 -0.00252795 -1
   vertex 0.57145 -0.00285788 1
   vertex 0.57145 -0.00285788 -1
  endloop
 endfacet
 facet normal 0.422557 -0.906336 0
  outer loop
   vertex 0.57145 -0.00285788 -1
   vertex 0.57145 -0.00285788 1
   vertex 0.570929 -0.00310099 1
  endloop
 endfacet
 facet normal 0.422557 -0.906336 0
  outer loop
   vertex 0.57145 -0.00285788 -1
   vertex 0.570929 -0.00310099 1
   vertex 0.570929 -0.00310099 -1
  endloop
 endfacet
 facet normal 0.258819 -0.965926 0
  outer loop
   vertex 0.570929 -0.00310099 -1
   vertex 0.570929 -0.00310099 1
   vertex 0.570373 -0.00324987 1
  endloop
 endfacet
 facet normal 0.258819 -0.965926 0
  outer loop
   vertex 0.570929 -0.00310099 -1
   vertex 0.570373 -0.00324987 1
   vertex 0.570373 -0.00324987 -1
  endloop
 endfacet
 facet normal 0.0871639 -0.996194 0
  outer loop
   vertex 0.570373 -0.00324987 -1
   vertex 0.570373 -0.00324987 1
   vertex 0.5698 -0.0033 1
  endloop
 endfacet
 facet normal 0.0871639 -0.996194 0
  outer loop
   vertex 0.570373 -0.00324987 -1
   vertex 0.5698 -0.0033 1
   vertex 0.5698 -0.0033 -1
  endloop
 endfacet
 facet normal 0 -1 0
  outer loop
   vertex 0.0198 -0.0033 1
   vertex 0.0198 -0.0033 -1
   vertex 0.5698 -0.0033 1
  endloop
 endfacet
 facet normal 0 -1 -0
  outer loop
   vertex 0.5698 -0.0033 1
   vertex 0.0198 -0.0033 -1
   vertex 0.5698 -0.0033 -1
  endloop
 endfacet
 facet normal 0 0 -1
  outer loop
   vertex 0.0198 -0.0033 -1
   vertex 0.0165 4.04133e-19 -1
   vertex 0.0165501 0.000573039 -1
  endloop
 endfacet
 facet normal 0 0 -1
  outer loop
   vertex 0.0165501 0.000573039 -1
   vertex 0.016699 0.00112867 -1
   vertex 0.0198 -0.0033 -1
  endloop
 endfacet
 facet normal 0 0 -1
  outer loop
   vertex 0.0198 -0.0033 -1
   vertex 0.016699 0.00112867 -1
   vertex 0.0169421 0.00165 -1
  endloop
 endfacet
 facet normal 0 0 -1
  outer loop
   vertex 0.0198 -0.0033 -1
   vertex 0.0169421 0.00165 -1
   vertex 0.0172721 0.0021212 -1
  endloop
 endfacet
 facet normal -0 -0 -1
  outer loop
   vertex 0.572901 0.00112867 -1
   vertex 0.57305 0.000573039 -1
   vertex 0.5698 0.0033 -1
  endloop
 endfacet
 facet normal 0 0 -1
  outer loop
   vertex 0.5698 0.0033 -1
   vertex 0.57305 0.000573039 -1
   vertex 0.5731 -8.08267e-19 -1
  endloop
 endfacet
 facet normal -0 0 -1
  outer loop
   vertex 0.5731 -8.08267e-19 -1
   vertex 0.57305 -0.000573039 -1
   vertex 0.5698 0.0033 -1
  endloop
 endfacet
 facet normal 0 0 -1
  outer loop
   vertex 0.5698 0.0033 -1
   vertex 0.57305 -0.000573039 -1
   vertex 0.572901 -0.00112867 -1
  endloop
 endfacet
 facet normal 0 0 -1
  outer loop
   vertex 0.5698 0.0033 -1
   vertex 0.572901 -0.00112867 -1
   vertex 0.572658 -0.00165 -1
  endloop
 endfacet
 facet normal 0 0 -1
  outer loop
   vertex 0.0186713 -0.00310099 -1
   vertex 0.0169421 -0.00165 -1
   vertex 0.016699 -0.00112867 -1
  endloop
 endfacet
 facet normal 0 0 -1
  outer loop
   vertex 0.0172721 0.0021212 -1
   vertex 0.0176788 0.00252795 -1
   vertex 0.0198 -0.0033 -1
  endloop
 endfacet
 facet normal 0 0 -1
  outer loop
   vertex 0.0198 -0.0033 -1
   vertex 0.0176788 0.00252795 -1
   vertex 0.01815 0.00285788 -1
  endloop
 endfacet
 facet normal 0 0 -1
  outer loop
   vertex 0.0198 -0.0033 -1
   vertex 0.01815 0.00285788 -1
   vertex 0.0186713 0.00310099 -1
  endloop
 endfacet
 facet normal 0 0 -1
  outer loop
   vertex 0.5698 0.0033 -1
   vertex 0.57145 -0.00285788 -1
   vertex 0.570929 -0.00310099 -1
  endloop
 endfacet
 facet normal 0 0 -1
  outer loop
   vertex 0.0186713 -0.00310099 -1
   vertex 0.01815 -0.00285788 -1
   vertex 0.0169421 -0.00165 -1
  endloop
 endfacet
 facet normal 0 0 -1
  outer loop
   vertex 0.0169421 -0.00165 -1
   vertex 0.01815 -0.00285788 -1
   vertex 0.0176788 -0.00252795 -1
  endloop
 endfacet
 facet normal 0 0 -1
  outer loop
   vertex 0.0169421 -0.00165 -1
   vertex 0.0176788 -0.00252795 -1
   vertex 0.0172721 -0.0021212 -1
  endloop
 endfacet
 facet normal 0 0 -1
  outer loop
   vertex 0.0198 -0.0033 -1
   vertex 0.019227 -0.00324987 -1
   vertex 0.0165 4.04133e-19 -1
  endloop
 endfacet
 facet normal 0 0 -1
  outer loop
   vertex 0.0165 4.04133e-19 -1
   vertex 0.019227 -0.00324987 -1
   vertex 0.0186713 -0.00310099 -1
  endloop
 endfacet
 facet normal 0 0 -1
  outer loop
   vertex 0.0165 4.04133e-19 -1
   vertex 0.0186713 -0.00310099 -1
   vertex 0.0165501 -0.000573039 -1
  endloop
 endfacet
 facet normal 0 0 -1
  outer loop
   vertex 0.0165501 -0.000573039 -1
   vertex 0.0186713 -0.00310099 -1
   vertex 0.016699 -0.00112867 -1
  endloop
 endfacet
 facet normal 0 0 -1
  outer loop
   vertex 0.570929 0.00310099 -1
   vertex 0.57145 0.00285788 -1
   vertex 0.572658 0.00165 -1
  endloop
 endfacet
 facet normal 0 0 -1
  outer loop
   vertex 0.572658 0.00165 -1
   vertex 0.57145 0.00285788 -1
   vertex 0.571921 0.00252795 -1
  endloop
 endfacet
 facet normal 0 0 -1
  outer loop
   vertex 0.572658 0.00165 -1
   vertex 0.571921 0.00252795 -1
   vertex 0.572328 0.0021212 -1
  endloop
 endfacet
 facet normal -0 0 -1
  outer loop
   vertex 0.572658 -0.00165 -1
   vertex 0.572328 -0.0021212 -1
   vertex 0.5698 0.0033 -1
  endloop
 endfacet
 facet normal 0 0 -1
  outer loop
   vertex 0.5698 0.0033 -1
   vertex 0.572328 -0.0021212 -1
   vertex 0.571921 -0.00252795 -1
  endloop
 endfacet
 facet normal 0 0 -1
  outer loop
   vertex 0.5698 0.0033 -1
   vertex 0.571921 -0.00252795 -1
   vertex 0.57145 -0.00285788 -1
  endloop
 endfacet
 facet normal 0 0 -1
  outer loop
   vertex 0.0186713 0.00310099 -1
   vertex 0.019227 0.00324987 -1
   vertex 0.0198 -0.0033 -1
  endloop
 endfacet
 facet normal 0 0 -1
  outer loop
   vertex 0.0198 -0.0033 -1
   vertex 0.019227 0.00324987 -1
   vertex 0.0198 0.0033 -1
  endloop
 endfacet
 facet normal 0 0 -1
  outer loop
   vertex 0.0198 -0.0033 -1
   vertex 0.0198 0.0033 -1
   vertex 0.5698 -0.0033 -1
  endloop
 endfacet
 facet normal 0 0 -1
  outer loop
   vertex 0.5698 -0.0033 -1
   vertex 0.0198 0.0033 -1
   vertex 0.5698 0.0033 -1
  endloop
 endfacet
 facet normal 0 0 -1
  outer loop
   vertex 0.5698 -0.0033 -1
   vertex 0.5698 0.0033 -1
   vertex 0.570373 -0.00324987 -1
  endloop
 endfacet
 facet normal 0 0 -1
  outer loop
   vertex 0.570373 -0.00324987 -1
   vertex 0.5698 0.0033 -1
   vertex 0.570929 -0.00310099 -1
  endloop
 endfacet
 facet normal 0 0 -1
  outer loop
   vertex 0.572901 0.00112867 -1
   vertex 0.5698 0.0033 -1
   vertex 0.572658 0.00165 -1
  endloop
 endfacet
 facet normal 0 0 -1
  outer loop
   vertex 0.572658 0.00165 -1
   vertex 0.5698 0.0033 -1
   vertex 0.570373 0.00324987 -1
  endloop
 endfacet
 facet normal 0 0 -1
  outer loop
   vertex 0.572658 0.00165 -1
   vertex 0.570373 0.00324987 -1
   vertex 0.570929 0.00310099 -1
  endloop
 endfacet
 facet normal -0 0 1
  outer loop
   vertex 0.016699 0.00112867 1
   vertex 0.0198 -0.0033 1
   vertex 0.0169421 0.00165 1
  endloop
 endfacet
 facet normal -0 0 1
  outer loop
   vertex 0.0169421 0.00165 1
   vertex 0.0198 -0.0033 1
   vertex 0.0172721 0.0021212 1
  endloop
 endfacet
 facet normal 0 0 1
  outer loop
   vertex 0.0198 0.0033 1
   vertex 0.019227 0.00324987 1
   vertex 0.0198 -0.0033 1
  endloop
 endfacet
 facet normal 0 0 1
  outer loop
   vertex 0.0198 -0.0033 1
   vertex 0.019227 0.00324987 1
   vertex 0.0186713 0.00310099 1
  endloop
 endfacet
 facet normal 0 -0 1
  outer loop
   vertex 0.572901 -0.00112867 1
   vertex 0.57305 -0.000573039 1
   vertex 0.5698 0.0033 1
  endloop
 endfacet
 facet normal 0 0 1
  outer loop
   vertex 0.5698 0.0033 1
   vertex 0.57305 -0.000573039 1
   vertex 0.5731 -8.08267e-19 1
  endloop
 endfacet
 facet normal 0 0 1
  outer loop
   vertex 0.5698 0.0033 1
   vertex 0.5731 -8.08267e-19 1
   vertex 0.57305 0.000573039 1
  endloop
 endfacet
 facet normal 0 0 1
  outer loop
   vertex 0.016699 0.00112867 1
   vertex 0.0165501 0.000573039 1
   vertex 0.0198 -0.0033 1
  endloop
 endfacet
 facet normal 0 0 1
  outer loop
   vertex 0.0198 -0.0033 1
   vertex 0.0165501 0.000573039 1
   vertex 0.0165 4.04133e-19 1
  endloop
 endfacet
 facet normal 0 0 1
  outer loop
   vertex 0.0198 -0.0033 1
   vertex 0.0165 4.04133e-19 1
   vertex 0.0165501 -0.000573039 1
  endloop
 endfacet
 facet normal 0 0 1
  outer loop
   vertex 0.0165501 -0.000573039 1
   vertex 0.016699 -0.00112867 1
   vertex 0.0198 -0.0033 1
  endloop
 endfacet
 facet normal 0 0 1
  outer loop
   vertex 0.0198 -0.0033 1
   vertex 0.016699 -0.00112867 1
   vertex 0.0169421 -0.00165 1
  endloop
 endfacet
 facet normal 0 0 1
  outer loop
   vertex 0.0198 -0.0033 1
   vertex 0.0169421 -0.00165 1
   vertex 0.019227 -0.00324987 1
  endloop
 endfacet
 facet normal 0 0 1
  outer loop
   vertex 0.019227 -0.00324987 1
   vertex 0.0169421 -0.00165 1
   vertex 0.0186713 -0.00310099 1
  endloop
 endfacet
 facet normal 0 -0 1
  outer loop
   vertex 0.570373 -0.00324987 1
   vertex 0.570929 -0.00310099 1
   vertex 0.5698 0.0033 1
  endloop
 endfacet
 facet normal 0 0 1
  outer loop
   vertex 0.5698 0.0033 1
   vertex 0.570929 -0.00310099 1
   vertex 0.57145 -0.00285788 1
  endloop
 endfacet
 facet normal 0 0 1
  outer loop
   vertex 0.5698 0.0033 1
   vertex 0.57145 -0.00285788 1
   vertex 0.571921 -0.00252795 1
  endloop
 endfacet
 facet normal 0 0 1
  outer loop
   vertex 0.0186713 0.00310099 1
   vertex 0.01815 0.00285788 1
   vertex 0.0198 -0.0033 1
  endloop
 endfacet
 facet normal 0 0 1
  outer loop
   vertex 0.0198 -0.0033 1
   vertex 0.01815 0.00285788 1
   vertex 0.0176788 0.00252795 1
  endloop
 endfacet
 facet normal 0 0 1
  outer loop
   vertex 0.0198 -0.0033 1
   vertex 0.0176788 0.00252795 1
   vertex 0.0172721 0.0021212 1
  endloop
 endfacet
 facet normal 0 0 1
  outer loop
   vertex 0.0186713 -0.00310099 1
   vertex 0.0169421 -0.00165 1
   vertex 0.01815 -0.00285788 1
  endloop
 endfacet
 facet normal 0 0 1
  outer loop
   vertex 0.01815 -0.00285788 1
   vertex 0.0169421 -0.00165 1
   vertex 0.0172721 -0.0021212 1
  endloop
 endfacet
 facet normal 0 0 1
  outer loop
   vertex 0.01815 -0.00285788 1
   vertex 0.0172721 -0.0021212 1
   vertex 0.0176788 -0.00252795 1
  endloop
 endfacet
 facet normal -0 0 1
  outer loop
   vertex 0.0198 0.0033 1
   vertex 0.0198 -0.0033 1
   vertex 0.5698 0.0033 1
  endloop
 endfacet
 facet normal 0 0 1
  outer loop
   vertex 0.5698 0.0033 1
   vertex 0.0198 -0.0033 1
   vertex 0.5698 -0.0033 1
  endloop
 endfacet
 facet normal 0 0 1
  outer loop
   vertex 0.5698 0.0033 1
   vertex 0.5698 -0.0033 1
   vertex 0.570373 -0.00324987 1
  endloop
 endfacet
 facet normal 0 -0 1
  outer loop
   vertex 0.571921 -0.00252795 1
   vertex 0.572328 -0.0021212 1
   vertex 0.5698 0.0033 1
  endloop
 endfacet
 facet normal 0 0 1
  outer loop
   vertex 0.5698 0.0033 1
   vertex 0.572328 -0.0021212 1
   vertex 0.572658 -0.00165 1
  endloop
 endfacet
 facet normal 0 0 1
  outer loop
   vertex 0.5698 0.0033 1
   vertex 0.572658 -0.00165 1
   vertex 0.572901 -0.00112867 1
  endloop
 endfacet
 facet normal 0 0 1
  outer loop
   vertex 0.572328 0.0021212 1
   vertex 0.571921 0.00252795 1
   vertex 0.572658 0.00165 1
  endloop
 endfacet
 facet normal 0 0 1
  outer loop
   vertex 0.572658 0.00165 1
   vertex 0.571921 0.00252795 1
   vertex 0.57145 0.00285788 1
  endloop
 endfacet
 facet normal 0 0 1
  outer loop
   vertex 0.572658 0.00165 1
   vertex 0.57145 0.00285788 1
   vertex 0.570929 0.00310099 1
  endloop
 endfacet
 facet normal 0 0 1
  outer loop
   vertex 0.57305 0.000573039 1
   vertex 0.572901 0.00112867 1
   vertex 0.5698 0.0033 1
  endloop
 endfacet
 facet normal 0 0 1
  outer loop
   vertex 0.5698 0.0033 1
   vertex 0.572901 0.00112867 1
   vertex 0.572658 0.00165 1
  endloop
 endfacet
 facet normal 0 0 1
  outer loop
   vertex 0.5698 0.0033 1
   vertex 0.572658 0.00165 1
   vertex 0.570373 0.00324987 1
  endloop
 endfacet
 facet normal 0 0 1
  outer loop
   vertex 0.570373 0.00324987 1
   vertex 0.572658 0.00165 1
   vertex 0.570929 0.00310099 1
  endloop
 endfacet
endsolid single_vane
