solid basic_vane
   facet normal -4.361883e-02 -9.990482e-01 0.000000e+00
      outer loop
         vertex 1.800000e-01 -3.000000e-02 -1.000000e+00
         vertex 1.800000e-01 -3.000000e-02 1.000000e+00
         vertex 1.773853e-01 -2.988584e-02 1.000000e+00
      endloop
   endfacet
   facet normal -4.361883e-02 -9.990482e-01 0.000000e+00
      outer loop
         vertex 1.800000e-01 -3.000000e-02 -1.000000e+00
         vertex 1.773853e-01 -2.988584e-02 1.000000e+00
         vertex 1.773853e-01 -2.988584e-02 -1.000000e+00
      endloop
   endfacet
   facet normal -1.305267e-01 -9.914448e-01 0.000000e+00
      outer loop
         vertex 1.773853e-01 -2.988584e-02 -1.000000e+00
         vertex 1.773853e-01 -2.988584e-02 1.000000e+00
         vertex 1.747906e-01 -2.954423e-02 1.000000e+00
      endloop
   endfacet
   facet normal -1.305267e-01 -9.914448e-01 0.000000e+00
      outer loop
         vertex 1.773853e-01 -2.988584e-02 -1.000000e+00
         vertex 1.747906e-01 -2.954423e-02 1.000000e+00
         vertex 1.747906e-01 -2.954423e-02 -1.000000e+00
      endloop
   endfacet
   facet normal -2.164393e-01 -9.762961e-01 0.000000e+00
      outer loop
         vertex 1.747906e-01 -2.954423e-02 -1.000000e+00
         vertex 1.747906e-01 -2.954423e-02 1.000000e+00
         vertex 1.722354e-01 -2.897777e-02 1.000000e+00
      endloop
   endfacet
   facet normal -2.164393e-01 -9.762961e-01 0.000000e+00
      outer loop
         vertex 1.747906e-01 -2.954423e-02 -1.000000e+00
         vertex 1.722354e-01 -2.897777e-02 1.000000e+00
         vertex 1.722354e-01 -2.897777e-02 -1.000000e+00
      endloop
   endfacet
   facet normal -3.007055e-01 -9.537171e-01 0.000000e+00
      outer loop
         vertex 1.722354e-01 -2.897777e-02 -1.000000e+00
         vertex 1.722354e-01 -2.897777e-02 1.000000e+00
         vertex 1.697394e-01 -2.819078e-02 1.000000e+00
      endloop
   endfacet
   facet normal -3.007055e-01 -9.537171e-01 0.000000e+00
      outer loop
         vertex 1.722354e-01 -2.897777e-02 -1.000000e+00
         vertex 1.697394e-01 -2.819078e-02 1.000000e+00
         vertex 1.697394e-01 -2.819078e-02 -1.000000e+00
      endloop
   endfacet
   facet normal -3.826841e-01 -9.238793e-01 0.000000e+00
      outer loop
         vertex 1.697394e-01 -2.819078e-02 -1.000000e+00
         vertex 1.697394e-01 -2.819078e-02 1.000000e+00
         vertex 1.673215e-01 -2.718923e-02 1.000000e+00
      endloop
   endfacet
   facet normal -3.826841e-01 -9.238793e-01 0.000000e+00
      outer loop
         vertex 1.697394e-01 -2.819078e-02 -1.000000e+00
         vertex 1.673215e-01 -2.718923e-02 1.000000e+00
         vertex 1.673215e-01 -2.718923e-02 -1.000000e+00
      endloop
   endfacet
   facet normal -4.617491e-01 -8.870106e-01 0.000000e+00
      outer loop
         vertex 1.673215e-01 -2.718923e-02 -1.000000e+00
         vertex 1.673215e-01 -2.718923e-02 1.000000e+00
         vertex 1.650000e-01 -2.598076e-02 1.000000e+00
      endloop
   endfacet
   facet normal -4.617491e-01 -8.870106e-01 0.000000e+00
      outer loop
         vertex 1.673215e-01 -2.718923e-02 -1.000000e+00
         vertex 1.650000e-01 -2.598076e-02 1.000000e+00
         vertex 1.650000e-01 -2.598076e-02 -1.000000e+00
      endloop
   endfacet
   facet normal -5.372993e-01 -8.433917e-01 0.000000e+00
      outer loop
         vertex 1.650000e-01 -2.598076e-02 -1.000000e+00
         vertex 1.650000e-01 -2.598076e-02 1.000000e+00
         vertex 1.627927e-01 -2.457456e-02 1.000000e+00
      endloop
   endfacet
   facet normal -5.372993e-01 -8.433917e-01 0.000000e+00
      outer loop
         vertex 1.650000e-01 -2.598076e-02 -1.000000e+00
         vertex 1.627927e-01 -2.457456e-02 1.000000e+00
         vertex 1.627927e-01 -2.457456e-02 -1.000000e+00
      endloop
   endfacet
   facet normal -6.087601e-01 -7.933543e-01 0.000000e+00
      outer loop
         vertex 1.627927e-01 -2.457456e-02 -1.000000e+00
         vertex 1.627927e-01 -2.457456e-02 1.000000e+00
         vertex 1.607164e-01 -2.298133e-02 1.000000e+00
      endloop
   endfacet
   facet normal -6.087601e-01 -7.933543e-01 0.000000e+00
      outer loop
         vertex 1.627927e-01 -2.457456e-02 -1.000000e+00
         vertex 1.607164e-01 -2.298133e-02 1.000000e+00
         vertex 1.607164e-01 -2.298133e-02 -1.000000e+00
      endloop
   endfacet
   facet normal -6.755917e-01 -7.372760e-01 0.000000e+00
      outer loop
         vertex 1.607164e-01 -2.298133e-02 -1.000000e+00
         vertex 1.607164e-01 -2.298133e-02 1.000000e+00
         vertex 1.587868e-01 -2.121320e-02 1.000000e+00
      endloop
   endfacet
   facet normal -6.755917e-01 -7.372760e-01 0.000000e+00
      outer loop
         vertex 1.607164e-01 -2.298133e-02 -1.000000e+00
         vertex 1.587868e-01 -2.121320e-02 1.000000e+00
         vertex 1.587868e-01 -2.121320e-02 -1.000000e+00
      endloop
   endfacet
   facet normal -7.372751e-01 -6.755926e-01 0.000000e+00
      outer loop
         vertex 1.587868e-01 -2.121320e-02 -1.000000e+00
         vertex 1.587868e-01 -2.121320e-02 1.000000e+00
         vertex 1.570187e-01 -1.928363e-02 1.000000e+00
      endloop
   endfacet
   facet normal -7.372751e-01 -6.755926e-01 0.000000e+00
      outer loop
         vertex 1.587868e-01 -2.121320e-02 -1.000000e+00
         vertex 1.570187e-01 -1.928363e-02 1.000000e+00
         vertex 1.570187e-01 -1.928363e-02 -1.000000e+00
      endloop
   endfacet
   facet normal -7.933553e-01 -6.087588e-01 0.000000e+00
      outer loop
         vertex 1.570187e-01 -1.928363e-02 -1.000000e+00
         vertex 1.570187e-01 -1.928363e-02 1.000000e+00
         vertex 1.554254e-01 -1.720729e-02 1.000000e+00
      endloop
   endfacet
   facet normal -7.933553e-01 -6.087588e-01 0.000000e+00
      outer loop
         vertex 1.570187e-01 -1.928363e-02 -1.000000e+00
         vertex 1.554254e-01 -1.720729e-02 1.000000e+00
         vertex 1.554254e-01 -1.720729e-02 -1.000000e+00
      endloop
   endfacet
   facet normal -8.433903e-01 -5.373015e-01 0.000000e+00
      outer loop
         vertex 1.554254e-01 -1.720729e-02 -1.000000e+00
         vertex 1.554254e-01 -1.720729e-02 1.000000e+00
         vertex 1.540192e-01 -1.500000e-02 1.000000e+00
      endloop
   endfacet
   facet normal -8.433903e-01 -5.373015e-01 0.000000e+00
      outer loop
         vertex 1.554254e-01 -1.720729e-02 -1.000000e+00
         vertex 1.540192e-01 -1.500000e-02 1.000000e+00
         vertex 1.540192e-01 -1.500000e-02 -1.000000e+00
      endloop
   endfacet
   facet normal -8.870112e-01 -4.617480e-01 0.000000e+00
      outer loop
         vertex 1.540192e-01 -1.500000e-02 -1.000000e+00
         vertex 1.540192e-01 -1.500000e-02 1.000000e+00
         vertex 1.528108e-01 -1.267855e-02 1.000000e+00
      endloop
   endfacet
   facet normal -8.870112e-01 -4.617480e-01 0.000000e+00
      outer loop
         vertex 1.540192e-01 -1.500000e-02 -1.000000e+00
         vertex 1.528108e-01 -1.267855e-02 1.000000e+00
         vertex 1.528108e-01 -1.267855e-02 -1.000000e+00
      endloop
   endfacet
   facet normal -9.238786e-01 -3.826856e-01 0.000000e+00
      outer loop
         vertex 1.528108e-01 -1.267855e-02 -1.000000e+00
         vertex 1.528108e-01 -1.267855e-02 1.000000e+00
         vertex 1.518092e-01 -1.026060e-02 1.000000e+00
      endloop
   endfacet
   facet normal -9.238786e-01 -3.826856e-01 0.000000e+00
      outer loop
         vertex 1.528108e-01 -1.267855e-02 -1.000000e+00
         vertex 1.518092e-01 -1.026060e-02 1.000000e+00
         vertex 1.518092e-01 -1.026060e-02 -1.000000e+00
      endloop
   endfacet
   facet normal -9.537176e-01 -3.007036e-01 0.000000e+00
      outer loop
         vertex 1.518092e-01 -1.026060e-02 -1.000000e+00
         vertex 1.518092e-01 -1.026060e-02 1.000000e+00
         vertex 1.510222e-01 -7.764571e-03 1.000000e+00
      endloop
   endfacet
   facet normal -9.537176e-01 -3.007036e-01 0.000000e+00
      outer loop
         vertex 1.518092e-01 -1.026060e-02 -1.000000e+00
         vertex 1.510222e-01 -7.764571e-03 1.000000e+00
         vertex 1.510222e-01 -7.764571e-03 -1.000000e+00
      endloop
   endfacet
   facet normal -9.762964e-01 -2.164378e-01 0.000000e+00
      outer loop
         vertex 1.510222e-01 -7.764571e-03 -1.000000e+00
         vertex 1.510222e-01 -7.764571e-03 1.000000e+00
         vertex 1.504558e-01 -5.209445e-03 1.000000e+00
      endloop
   endfacet
   facet normal -9.762964e-01 -2.164378e-01 0.000000e+00
      outer loop
         vertex 1.510222e-01 -7.764571e-03 -1.000000e+00
         vertex 1.504558e-01 -5.209445e-03 1.000000e+00
         vertex 1.504558e-01 -5.209445e-03 -1.000000e+00
      endloop
   endfacet
   facet normal -9.914448e-01 -1.305265e-01 0.000000e+00
      outer loop
         vertex 1.504558e-01 -5.209445e-03 -1.000000e+00
         vertex 1.504558e-01 -5.209445e-03 1.000000e+00
         vertex 1.501142e-01 -2.614672e-03 1.000000e+00
      endloop
   endfacet
   facet normal -9.914448e-01 -1.305265e-01 0.000000e+00
      outer loop
         vertex 1.504558e-01 -5.209445e-03 -1.000000e+00
         vertex 1.501142e-01 -2.614672e-03 1.000000e+00
         vertex 1.501142e-01 -2.614672e-03 -1.000000e+00
      endloop
   endfacet
   facet normal -9.990482e-01 -4.361891e-02 0.000000e+00
      outer loop
         vertex 1.501142e-01 -2.614672e-03 -1.000000e+00
         vertex 1.501142e-01 -2.614672e-03 1.000000e+00
         vertex 1.500000e-01 1.699662e-17 1.000000e+00
      endloop
   endfacet
   facet normal -9.990482e-01 -4.361891e-02 0.000000e+00
      outer loop
         vertex 1.501142e-01 -2.614672e-03 -1.000000e+00
         vertex 1.500000e-01 1.699662e-17 1.000000e+00
         vertex 1.500000e-01 1.699662e-17 -1.000000e+00
      endloop
   endfacet
   facet normal -9.990482e-01 4.361891e-02 0.000000e+00
      outer loop
         vertex 1.500000e-01 1.699662e-17 -1.000000e+00
         vertex 1.500000e-01 1.699662e-17 1.000000e+00
         vertex 1.501142e-01 2.614672e-03 1.000000e+00
      endloop
   endfacet
   facet normal -9.990482e-01 4.361891e-02 0.000000e+00
      outer loop
         vertex 1.500000e-01 1.699662e-17 -1.000000e+00
         vertex 1.501142e-01 2.614672e-03 1.000000e+00
         vertex 1.501142e-01 2.614672e-03 -1.000000e+00
      endloop
   endfacet
   facet normal -9.914448e-01 1.305265e-01 0.000000e+00
      outer loop
         vertex 1.501142e-01 2.614672e-03 -1.000000e+00
         vertex 1.501142e-01 2.614672e-03 1.000000e+00
         vertex 1.504558e-01 5.209445e-03 1.000000e+00
      endloop
   endfacet
   facet normal -9.914448e-01 1.305265e-01 0.000000e+00
      outer loop
         vertex 1.501142e-01 2.614672e-03 -1.000000e+00
         vertex 1.504558e-01 5.209445e-03 1.000000e+00
         vertex 1.504558e-01 5.209445e-03 -1.000000e+00
      endloop
   endfacet
   facet normal -9.762964e-01 2.164378e-01 0.000000e+00
      outer loop
         vertex 1.504558e-01 5.209445e-03 -1.000000e+00
         vertex 1.504558e-01 5.209445e-03 1.000000e+00
         vertex 1.510222e-01 7.764571e-03 1.000000e+00
      endloop
   endfacet
   facet normal -9.762964e-01 2.164378e-01 0.000000e+00
      outer loop
         vertex 1.504558e-01 5.209445e-03 -1.000000e+00
         vertex 1.510222e-01 7.764571e-03 1.000000e+00
         vertex 1.510222e-01 7.764571e-03 -1.000000e+00
      endloop
   endfacet
   facet normal -9.537176e-01 3.007036e-01 0.000000e+00
      outer loop
         vertex 1.510222e-01 7.764571e-03 -1.000000e+00
         vertex 1.510222e-01 7.764571e-03 1.000000e+00
         vertex 1.518092e-01 1.026060e-02 1.000000e+00
      endloop
   endfacet
   facet normal -9.537176e-01 3.007036e-01 0.000000e+00
      outer loop
         vertex 1.510222e-01 7.764571e-03 -1.000000e+00
         vertex 1.518092e-01 1.026060e-02 1.000000e+00
         vertex 1.518092e-01 1.026060e-02 -1.000000e+00
      endloop
   endfacet
   facet normal -9.238786e-01 3.826856e-01 0.000000e+00
      outer loop
         vertex 1.518092e-01 1.026060e-02 -1.000000e+00
         vertex 1.518092e-01 1.026060e-02 1.000000e+00
         vertex 1.528108e-01 1.267855e-02 1.000000e+00
      endloop
   endfacet
   facet normal -9.238786e-01 3.826856e-01 0.000000e+00
      outer loop
         vertex 1.518092e-01 1.026060e-02 -1.000000e+00
         vertex 1.528108e-01 1.267855e-02 1.000000e+00
         vertex 1.528108e-01 1.267855e-02 -1.000000e+00
      endloop
   endfacet
   facet normal -8.870112e-01 4.617480e-01 0.000000e+00
      outer loop
         vertex 1.528108e-01 1.267855e-02 -1.000000e+00
         vertex 1.528108e-01 1.267855e-02 1.000000e+00
         vertex 1.540192e-01 1.500000e-02 1.000000e+00
      endloop
   endfacet
   facet normal -8.870112e-01 4.617480e-01 0.000000e+00
      outer loop
         vertex 1.528108e-01 1.267855e-02 -1.000000e+00
         vertex 1.540192e-01 1.500000e-02 1.000000e+00
         vertex 1.540192e-01 1.500000e-02 -1.000000e+00
      endloop
   endfacet
   facet normal -8.433903e-01 5.373015e-01 0.000000e+00
      outer loop
         vertex 1.540192e-01 1.500000e-02 -1.000000e+00
         vertex 1.540192e-01 1.500000e-02 1.000000e+00
         vertex 1.554254e-01 1.720729e-02 1.000000e+00
      endloop
   endfacet
   facet normal -8.433903e-01 5.373015e-01 0.000000e+00
      outer loop
         vertex 1.540192e-01 1.500000e-02 -1.000000e+00
         vertex 1.554254e-01 1.720729e-02 1.000000e+00
         vertex 1.554254e-01 1.720729e-02 -1.000000e+00
      endloop
   endfacet
   facet normal -7.933553e-01 6.087588e-01 0.000000e+00
      outer loop
         vertex 1.554254e-01 1.720729e-02 -1.000000e+00
         vertex 1.554254e-01 1.720729e-02 1.000000e+00
         vertex 1.570187e-01 1.928363e-02 1.000000e+00
      endloop
   endfacet
   facet normal -7.933553e-01 6.087588e-01 0.000000e+00
      outer loop
         vertex 1.554254e-01 1.720729e-02 -1.000000e+00
         vertex 1.570187e-01 1.928363e-02 1.000000e+00
         vertex 1.570187e-01 1.928363e-02 -1.000000e+00
      endloop
   endfacet
   facet normal -7.372751e-01 6.755926e-01 0.000000e+00
      outer loop
         vertex 1.570187e-01 1.928363e-02 -1.000000e+00
         vertex 1.570187e-01 1.928363e-02 1.000000e+00
         vertex 1.587868e-01 2.121320e-02 1.000000e+00
      endloop
   endfacet
   facet normal -7.372751e-01 6.755926e-01 0.000000e+00
      outer loop
         vertex 1.570187e-01 1.928363e-02 -1.000000e+00
         vertex 1.587868e-01 2.121320e-02 1.000000e+00
         vertex 1.587868e-01 2.121320e-02 -1.000000e+00
      endloop
   endfacet
   facet normal -6.755917e-01 7.372760e-01 0.000000e+00
      outer loop
         vertex 1.587868e-01 2.121320e-02 -1.000000e+00
         vertex 1.587868e-01 2.121320e-02 1.000000e+00
         vertex 1.607164e-01 2.298133e-02 1.000000e+00
      endloop
   endfacet
   facet normal -6.755917e-01 7.372760e-01 0.000000e+00
      outer loop
         vertex 1.587868e-01 2.121320e-02 -1.000000e+00
         vertex 1.607164e-01 2.298133e-02 1.000000e+00
         vertex 1.607164e-01 2.298133e-02 -1.000000e+00
      endloop
   endfacet
   facet normal -6.087601e-01 7.933543e-01 0.000000e+00
      outer loop
         vertex 1.607164e-01 2.298133e-02 -1.000000e+00
         vertex 1.607164e-01 2.298133e-02 1.000000e+00
         vertex 1.627927e-01 2.457456e-02 1.000000e+00
      endloop
   endfacet
   facet normal -6.087601e-01 7.933543e-01 0.000000e+00
      outer loop
         vertex 1.607164e-01 2.298133e-02 -1.000000e+00
         vertex 1.627927e-01 2.457456e-02 1.000000e+00
         vertex 1.627927e-01 2.457456e-02 -1.000000e+00
      endloop
   endfacet
   facet normal -5.372993e-01 8.433917e-01 0.000000e+00
      outer loop
         vertex 1.627927e-01 2.457456e-02 -1.000000e+00
         vertex 1.627927e-01 2.457456e-02 1.000000e+00
         vertex 1.650000e-01 2.598076e-02 1.000000e+00
      endloop
   endfacet
   facet normal -5.372993e-01 8.433917e-01 0.000000e+00
      outer loop
         vertex 1.627927e-01 2.457456e-02 -1.000000e+00
         vertex 1.650000e-01 2.598076e-02 1.000000e+00
         vertex 1.650000e-01 2.598076e-02 -1.000000e+00
      endloop
   endfacet
   facet normal -4.617491e-01 8.870106e-01 0.000000e+00
      outer loop
         vertex 1.650000e-01 2.598076e-02 -1.000000e+00
         vertex 1.650000e-01 2.598076e-02 1.000000e+00
         vertex 1.673215e-01 2.718923e-02 1.000000e+00
      endloop
   endfacet
   facet normal -4.617491e-01 8.870106e-01 0.000000e+00
      outer loop
         vertex 1.650000e-01 2.598076e-02 -1.000000e+00
         vertex 1.673215e-01 2.718923e-02 1.000000e+00
         vertex 1.673215e-01 2.718923e-02 -1.000000e+00
      endloop
   endfacet
   facet normal -3.826841e-01 9.238793e-01 0.000000e+00
      outer loop
         vertex 1.673215e-01 2.718923e-02 -1.000000e+00
         vertex 1.673215e-01 2.718923e-02 1.000000e+00
         vertex 1.697394e-01 2.819078e-02 1.000000e+00
      endloop
   endfacet
   facet normal -3.826841e-01 9.238793e-01 0.000000e+00
      outer loop
         vertex 1.673215e-01 2.718923e-02 -1.000000e+00
         vertex 1.697394e-01 2.819078e-02 1.000000e+00
         vertex 1.697394e-01 2.819078e-02 -1.000000e+00
      endloop
   endfacet
   facet normal -3.007055e-01 9.537171e-01 0.000000e+00
      outer loop
         vertex 1.697394e-01 2.819078e-02 -1.000000e+00
         vertex 1.697394e-01 2.819078e-02 1.000000e+00
         vertex 1.722354e-01 2.897777e-02 1.000000e+00
      endloop
   endfacet
   facet normal -3.007055e-01 9.537171e-01 0.000000e+00
      outer loop
         vertex 1.697394e-01 2.819078e-02 -1.000000e+00
         vertex 1.722354e-01 2.897777e-02 1.000000e+00
         vertex 1.722354e-01 2.897777e-02 -1.000000e+00
      endloop
   endfacet
   facet normal -2.164393e-01 9.762961e-01 0.000000e+00
      outer loop
         vertex 1.722354e-01 2.897777e-02 -1.000000e+00
         vertex 1.722354e-01 2.897777e-02 1.000000e+00
         vertex 1.747906e-01 2.954423e-02 1.000000e+00
      endloop
   endfacet
   facet normal -2.164393e-01 9.762961e-01 0.000000e+00
      outer loop
         vertex 1.722354e-01 2.897777e-02 -1.000000e+00
         vertex 1.747906e-01 2.954423e-02 1.000000e+00
         vertex 1.747906e-01 2.954423e-02 -1.000000e+00
      endloop
   endfacet
   facet normal -1.305267e-01 9.914448e-01 0.000000e+00
      outer loop
         vertex 1.747906e-01 2.954423e-02 -1.000000e+00
         vertex 1.747906e-01 2.954423e-02 1.000000e+00
         vertex 1.773853e-01 2.988584e-02 1.000000e+00
      endloop
   endfacet
   facet normal -1.305267e-01 9.914448e-01 0.000000e+00
      outer loop
         vertex 1.747906e-01 2.954423e-02 -1.000000e+00
         vertex 1.773853e-01 2.988584e-02 1.000000e+00
         vertex 1.773853e-01 2.988584e-02 -1.000000e+00
      endloop
   endfacet
   facet normal -4.361883e-02 9.990482e-01 0.000000e+00
      outer loop
         vertex 1.773853e-01 2.988584e-02 -1.000000e+00
         vertex 1.773853e-01 2.988584e-02 1.000000e+00
         vertex 1.800000e-01 3.000000e-02 1.000000e+00
      endloop
   endfacet
   facet normal -4.361883e-02 9.990482e-01 0.000000e+00
      outer loop
         vertex 1.773853e-01 2.988584e-02 -1.000000e+00
         vertex 1.800000e-01 3.000000e-02 1.000000e+00
         vertex 1.800000e-01 3.000000e-02 -1.000000e+00
      endloop
   endfacet
   facet normal 0.000000e+00 1.000000e+00 0.000000e+00
      outer loop
         vertex 1.518000e+01 3.000000e-02 1.000000e+00
         vertex 1.518000e+01 3.000000e-02 -1.000000e+00
         vertex 1.800000e-01 3.000000e-02 1.000000e+00
      endloop
   endfacet
   facet normal 0.000000e+00 1.000000e+00 0.000000e+00
      outer loop
         vertex 1.800000e-01 3.000000e-02 1.000000e+00
         vertex 1.518000e+01 3.000000e-02 -1.000000e+00
         vertex 1.800000e-01 3.000000e-02 -1.000000e+00
      endloop
   endfacet
   facet normal 4.362975e-02 9.990478e-01 -0.000000e+00
      outer loop
         vertex 1.518000e+01 3.000000e-02 -1.000000e+00
         vertex 1.518000e+01 3.000000e-02 1.000000e+00
         vertex 1.518261e+01 2.988584e-02 1.000000e+00
      endloop
   endfacet
   facet normal 4.362975e-02 9.990478e-01 0.000000e+00
      outer loop
         vertex 1.518000e+01 3.000000e-02 -1.000000e+00
         vertex 1.518261e+01 2.988584e-02 1.000000e+00
         vertex 1.518261e+01 2.988584e-02 -1.000000e+00
      endloop
   endfacet
   facet normal 1.305178e-01 9.914460e-01 -0.000000e+00
      outer loop
         vertex 1.518261e+01 2.988584e-02 -1.000000e+00
         vertex 1.518261e+01 2.988584e-02 1.000000e+00
         vertex 1.518521e+01 2.954423e-02 1.000000e+00
      endloop
   endfacet
   facet normal 1.305178e-01 9.914460e-01 0.000000e+00
      outer loop
         vertex 1.518261e+01 2.988584e-02 -1.000000e+00
         vertex 1.518521e+01 2.954423e-02 1.000000e+00
         vertex 1.518521e+01 2.954423e-02 -1.000000e+00
      endloop
   endfacet
   facet normal 2.164586e-01 9.762918e-01 -0.000000e+00
      outer loop
         vertex 1.518521e+01 2.954423e-02 -1.000000e+00
         vertex 1.518521e+01 2.954423e-02 1.000000e+00
         vertex 1.518776e+01 2.897777e-02 1.000000e+00
      endloop
   endfacet
   facet normal 2.164586e-01 9.762918e-01 0.000000e+00
      outer loop
         vertex 1.518521e+01 2.954423e-02 -1.000000e+00
         vertex 1.518776e+01 2.897777e-02 1.000000e+00
         vertex 1.518776e+01 2.897777e-02 -1.000000e+00
      endloop
   endfacet
   facet normal 3.006304e-01 9.537407e-01 -0.000000e+00
      outer loop
         vertex 1.518776e+01 2.897777e-02 -1.000000e+00
         vertex 1.518776e+01 2.897777e-02 1.000000e+00
         vertex 1.519026e+01 2.819078e-02 1.000000e+00
      endloop
   endfacet
   facet normal 3.006304e-01 9.537407e-01 0.000000e+00
      outer loop
         vertex 1.518776e+01 2.897777e-02 -1.000000e+00
         vertex 1.519026e+01 2.819078e-02 1.000000e+00
         vertex 1.519026e+01 2.819078e-02 -1.000000e+00
      endloop
   endfacet
   facet normal 3.827344e-01 9.238584e-01 -0.000000e+00
      outer loop
         vertex 1.519026e+01 2.819078e-02 -1.000000e+00
         vertex 1.519026e+01 2.819078e-02 1.000000e+00
         vertex 1.519268e+01 2.718923e-02 1.000000e+00
      endloop
   endfacet
   facet normal 3.827344e-01 9.238584e-01 0.000000e+00
      outer loop
         vertex 1.519026e+01 2.819078e-02 -1.000000e+00
         vertex 1.519268e+01 2.718923e-02 1.000000e+00
         vertex 1.519268e+01 2.718923e-02 -1.000000e+00
      endloop
   endfacet
   facet normal 4.617818e-01 8.869936e-01 -0.000000e+00
      outer loop
         vertex 1.519268e+01 2.718923e-02 -1.000000e+00
         vertex 1.519268e+01 2.718923e-02 1.000000e+00
         vertex 1.519500e+01 2.598076e-02 1.000000e+00
      endloop
   endfacet
   facet normal 4.617818e-01 8.869936e-01 0.000000e+00
      outer loop
         vertex 1.519268e+01 2.718923e-02 -1.000000e+00
         vertex 1.519500e+01 2.598076e-02 1.000000e+00
         vertex 1.519500e+01 2.598076e-02 -1.000000e+00
      endloop
   endfacet
   facet normal 5.372193e-01 8.434426e-01 -0.000000e+00
      outer loop
         vertex 1.519500e+01 2.598076e-02 -1.000000e+00
         vertex 1.519500e+01 2.598076e-02 1.000000e+00
         vertex 1.519721e+01 2.457456e-02 1.000000e+00
      endloop
   endfacet
   facet normal 5.372193e-01 8.434426e-01 0.000000e+00
      outer loop
         vertex 1.519500e+01 2.598076e-02 -1.000000e+00
         vertex 1.519721e+01 2.457456e-02 1.000000e+00
         vertex 1.519721e+01 2.457456e-02 -1.000000e+00
      endloop
   endfacet
   facet normal 6.087959e-01 7.933269e-01 -0.000000e+00
      outer loop
         vertex 1.519721e+01 2.457456e-02 -1.000000e+00
         vertex 1.519721e+01 2.457456e-02 1.000000e+00
         vertex 1.519928e+01 2.298133e-02 1.000000e+00
      endloop
   endfacet
   facet normal 6.087959e-01 7.933269e-01 0.000000e+00
      outer loop
         vertex 1.519721e+01 2.457456e-02 -1.000000e+00
         vertex 1.519928e+01 2.298133e-02 1.000000e+00
         vertex 1.519928e+01 2.298133e-02 -1.000000e+00
      endloop
   endfacet
   facet normal 6.756456e-01 7.372266e-01 -0.000000e+00
      outer loop
         vertex 1.519928e+01 2.298133e-02 -1.000000e+00
         vertex 1.519928e+01 2.298133e-02 1.000000e+00
         vertex 1.520121e+01 2.121320e-02 1.000000e+00
      endloop
   endfacet
   facet normal 6.756456e-01 7.372266e-01 0.000000e+00
      outer loop
         vertex 1.519928e+01 2.298133e-02 -1.000000e+00
         vertex 1.520121e+01 2.121320e-02 1.000000e+00
         vertex 1.520121e+01 2.121320e-02 -1.000000e+00
      endloop
   endfacet
   facet normal 7.372808e-01 6.755865e-01 -0.000000e+00
      outer loop
         vertex 1.520121e+01 2.121320e-02 -1.000000e+00
         vertex 1.520121e+01 2.121320e-02 1.000000e+00
         vertex 1.520298e+01 1.928363e-02 1.000000e+00
      endloop
   endfacet
   facet normal 7.372808e-01 6.755865e-01 0.000000e+00
      outer loop
         vertex 1.520121e+01 2.121320e-02 -1.000000e+00
         vertex 1.520298e+01 1.928363e-02 1.000000e+00
         vertex 1.520298e+01 1.928363e-02 -1.000000e+00
      endloop
   endfacet
   facet normal 7.932866e-01 6.088484e-01 -0.000000e+00
      outer loop
         vertex 1.520298e+01 1.928363e-02 -1.000000e+00
         vertex 1.520298e+01 1.928363e-02 1.000000e+00
         vertex 1.520457e+01 1.720729e-02 1.000000e+00
      endloop
   endfacet
   facet normal 7.932866e-01 6.088484e-01 0.000000e+00
      outer loop
         vertex 1.520298e+01 1.928363e-02 -1.000000e+00
         vertex 1.520457e+01 1.720729e-02 1.000000e+00
         vertex 1.520457e+01 1.720729e-02 -1.000000e+00
      endloop
   endfacet
   facet normal 8.434754e-01 5.371678e-01 -0.000000e+00
      outer loop
         vertex 1.520457e+01 1.720729e-02 -1.000000e+00
         vertex 1.520457e+01 1.720729e-02 1.000000e+00
         vertex 1.520598e+01 1.500000e-02 1.000000e+00
      endloop
   endfacet
   facet normal 8.434754e-01 5.371678e-01 0.000000e+00
      outer loop
         vertex 1.520457e+01 1.720729e-02 -1.000000e+00
         vertex 1.520598e+01 1.500000e-02 1.000000e+00
         vertex 1.520598e+01 1.500000e-02 -1.000000e+00
      endloop
   endfacet
   facet normal 8.868876e-01 4.619854e-01 -0.000000e+00
      outer loop
         vertex 1.520598e+01 1.500000e-02 -1.000000e+00
         vertex 1.520598e+01 1.500000e-02 1.000000e+00
         vertex 1.520719e+01 1.267855e-02 1.000000e+00
      endloop
   endfacet
   facet normal 8.868876e-01 4.619854e-01 0.000000e+00
      outer loop
         vertex 1.520598e+01 1.500000e-02 -1.000000e+00
         vertex 1.520719e+01 1.267855e-02 1.000000e+00
         vertex 1.520719e+01 1.267855e-02 -1.000000e+00
      endloop
   endfacet
   facet normal 9.239048e-01 3.826225e-01 -0.000000e+00
      outer loop
         vertex 1.520719e+01 1.267855e-02 -1.000000e+00
         vertex 1.520719e+01 1.267855e-02 1.000000e+00
         vertex 1.520819e+01 1.026060e-02 1.000000e+00
      endloop
   endfacet
   facet normal 9.239048e-01 3.826225e-01 0.000000e+00
      outer loop
         vertex 1.520719e+01 1.267855e-02 -1.000000e+00
         vertex 1.520819e+01 1.026060e-02 1.000000e+00
         vertex 1.520819e+01 1.026060e-02 -1.000000e+00
      endloop
   endfacet
   facet normal 9.537405e-01 3.006311e-01 -0.000000e+00
      outer loop
         vertex 1.520819e+01 1.026060e-02 -1.000000e+00
         vertex 1.520819e+01 1.026060e-02 1.000000e+00
         vertex 1.520898e+01 7.764571e-03 1.000000e+00
      endloop
   endfacet
   facet normal 9.537405e-01 3.006311e-01 0.000000e+00
      outer loop
         vertex 1.520819e+01 1.026060e-02 -1.000000e+00
         vertex 1.520898e+01 7.764571e-03 1.000000e+00
         vertex 1.520898e+01 7.764571e-03 -1.000000e+00
      endloop
   endfacet
   facet normal 9.762940e-01 2.164486e-01 -0.000000e+00
      outer loop
         vertex 1.520898e+01 7.764571e-03 -1.000000e+00
         vertex 1.520898e+01 7.764571e-03 1.000000e+00
         vertex 1.520954e+01 5.209445e-03 1.000000e+00
      endloop
   endfacet
   facet normal 9.762940e-01 2.164486e-01 0.000000e+00
      outer loop
         vertex 1.520898e+01 7.764571e-03 -1.000000e+00
         vertex 1.520954e+01 5.209445e-03 1.000000e+00
         vertex 1.520954e+01 5.209445e-03 -1.000000e+00
      endloop
   endfacet
   facet normal 9.914544e-01 1.304537e-01 -0.000000e+00
      outer loop
         vertex 1.520954e+01 5.209445e-03 -1.000000e+00
         vertex 1.520954e+01 5.209445e-03 1.000000e+00
         vertex 1.520989e+01 2.614672e-03 1.000000e+00
      endloop
   endfacet
   facet normal 9.914544e-01 1.304537e-01 0.000000e+00
      outer loop
         vertex 1.520954e+01 5.209445e-03 -1.000000e+00
         vertex 1.520989e+01 2.614672e-03 1.000000e+00
         vertex 1.520989e+01 2.614672e-03 -1.000000e+00
      endloop
   endfacet
   facet normal 9.990435e-01 4.372688e-02 -0.000000e+00
      outer loop
         vertex 1.520989e+01 2.614672e-03 -1.000000e+00
         vertex 1.520989e+01 2.614672e-03 1.000000e+00
         vertex 1.521000e+01 -7.347881e-18 1.000000e+00
      endloop
   endfacet
   facet normal 9.990435e-01 4.372688e-02 0.000000e+00
      outer loop
         vertex 1.520989e+01 2.614672e-03 -1.000000e+00
         vertex 1.521000e+01 -7.347881e-18 1.000000e+00
         vertex 1.521000e+01 -7.347881e-18 -1.000000e+00
      endloop
   endfacet
   facet normal 9.990435e-01 -4.372688e-02 0.000000e+00
      outer loop
         vertex 1.521000e+01 -7.347881e-18 -1.000000e+00
         vertex 1.521000e+01 -7.347881e-18 1.000000e+00
         vertex 1.520989e+01 -2.614672e-03 1.000000e+00
      endloop
   endfacet
   facet normal 9.990435e-01 -4.372688e-02 0.000000e+00
      outer loop
         vertex 1.521000e+01 -7.347881e-18 -1.000000e+00
         vertex 1.520989e+01 -2.614672e-03 1.000000e+00
         vertex 1.520989e+01 -2.614672e-03 -1.000000e+00
      endloop
   endfacet
   facet normal 9.914544e-01 -1.304537e-01 0.000000e+00
      outer loop
         vertex 1.520989e+01 -2.614672e-03 -1.000000e+00
         vertex 1.520989e+01 -2.614672e-03 1.000000e+00
         vertex 1.520954e+01 -5.209445e-03 1.000000e+00
      endloop
   endfacet
   facet normal 9.914544e-01 -1.304537e-01 0.000000e+00
      outer loop
         vertex 1.520989e+01 -2.614672e-03 -1.000000e+00
         vertex 1.520954e+01 -5.209445e-03 1.000000e+00
         vertex 1.520954e+01 -5.209445e-03 -1.000000e+00
      endloop
   endfacet
   facet normal 9.762940e-01 -2.164486e-01 0.000000e+00
      outer loop
         vertex 1.520954e+01 -5.209445e-03 -1.000000e+00
         vertex 1.520954e+01 -5.209445e-03 1.000000e+00
         vertex 1.520898e+01 -7.764571e-03 1.000000e+00
      endloop
   endfacet
   facet normal 9.762940e-01 -2.164486e-01 0.000000e+00
      outer loop
         vertex 1.520954e+01 -5.209445e-03 -1.000000e+00
         vertex 1.520898e+01 -7.764571e-03 1.000000e+00
         vertex 1.520898e+01 -7.764571e-03 -1.000000e+00
      endloop
   endfacet
   facet normal 9.537405e-01 -3.006311e-01 0.000000e+00
      outer loop
         vertex 1.520898e+01 -7.764571e-03 -1.000000e+00
         vertex 1.520898e+01 -7.764571e-03 1.000000e+00
         vertex 1.520819e+01 -1.026060e-02 1.000000e+00
      endloop
   endfacet
   facet normal 9.537405e-01 -3.006311e-01 0.000000e+00
      outer loop
         vertex 1.520898e+01 -7.764571e-03 -1.000000e+00
         vertex 1.520819e+01 -1.026060e-02 1.000000e+00
         vertex 1.520819e+01 -1.026060e-02 -1.000000e+00
      endloop
   endfacet
   facet normal 9.239048e-01 -3.826225e-01 0.000000e+00
      outer loop
         vertex 1.520819e+01 -1.026060e-02 -1.000000e+00
         vertex 1.520819e+01 -1.026060e-02 1.000000e+00
         vertex 1.520719e+01 -1.267855e-02 1.000000e+00
      endloop
   endfacet
   facet normal 9.239048e-01 -3.826225e-01 0.000000e+00
      outer loop
         vertex 1.520819e+01 -1.026060e-02 -1.000000e+00
         vertex 1.520719e+01 -1.267855e-02 1.000000e+00
         vertex 1.520719e+01 -1.267855e-02 -1.000000e+00
      endloop
   endfacet
   facet normal 8.868876e-01 -4.619854e-01 0.000000e+00
      outer loop
         vertex 1.520719e+01 -1.267855e-02 -1.000000e+00
         vertex 1.520719e+01 -1.267855e-02 1.000000e+00
         vertex 1.520598e+01 -1.500000e-02 1.000000e+00
      endloop
   endfacet
   facet normal 8.868876e-01 -4.619854e-01 0.000000e+00
      outer loop
         vertex 1.520719e+01 -1.267855e-02 -1.000000e+00
         vertex 1.520598e+01 -1.500000e-02 1.000000e+00
         vertex 1.520598e+01 -1.500000e-02 -1.000000e+00
      endloop
   endfacet
   facet normal 8.434754e-01 -5.371678e-01 0.000000e+00
      outer loop
         vertex 1.520598e+01 -1.500000e-02 -1.000000e+00
         vertex 1.520598e+01 -1.500000e-02 1.000000e+00
         vertex 1.520457e+01 -1.720729e-02 1.000000e+00
      endloop
   endfacet
   facet normal 8.434754e-01 -5.371678e-01 0.000000e+00
      outer loop
         vertex 1.520598e+01 -1.500000e-02 -1.000000e+00
         vertex 1.520457e+01 -1.720729e-02 1.000000e+00
         vertex 1.520457e+01 -1.720729e-02 -1.000000e+00
      endloop
   endfacet
   facet normal 7.932866e-01 -6.088484e-01 0.000000e+00
      outer loop
         vertex 1.520457e+01 -1.720729e-02 -1.000000e+00
         vertex 1.520457e+01 -1.720729e-02 1.000000e+00
         vertex 1.520298e+01 -1.928363e-02 1.000000e+00
      endloop
   endfacet
   facet normal 7.932866e-01 -6.088484e-01 0.000000e+00
      outer loop
         vertex 1.520457e+01 -1.720729e-02 -1.000000e+00
         vertex 1.520298e+01 -1.928363e-02 1.000000e+00
         vertex 1.520298e+01 -1.928363e-02 -1.000000e+00
      endloop
   endfacet
   facet normal 7.372808e-01 -6.755865e-01 0.000000e+00
      outer loop
         vertex 1.520298e+01 -1.928363e-02 -1.000000e+00
         vertex 1.520298e+01 -1.928363e-02 1.000000e+00
         vertex 1.520121e+01 -2.121320e-02 1.000000e+00
      endloop
   endfacet
   facet normal 7.372808e-01 -6.755865e-01 0.000000e+00
      outer loop
         vertex 1.520298e+01 -1.928363e-02 -1.000000e+00
         vertex 1.520121e+01 -2.121320e-02 1.000000e+00
         vertex 1.520121e+01 -2.121320e-02 -1.000000e+00
      endloop
   endfacet
   facet normal 6.756456e-01 -7.372266e-01 0.000000e+00
      outer loop
         vertex 1.520121e+01 -2.121320e-02 -1.000000e+00
         vertex 1.520121e+01 -2.121320e-02 1.000000e+00
         vertex 1.519928e+01 -2.298133e-02 1.000000e+00
      endloop
   endfacet
   facet normal 6.756456e-01 -7.372266e-01 0.000000e+00
      outer loop
         vertex 1.520121e+01 -2.121320e-02 -1.000000e+00
         vertex 1.519928e+01 -2.298133e-02 1.000000e+00
         vertex 1.519928e+01 -2.298133e-02 -1.000000e+00
      endloop
   endfacet
   facet normal 6.087959e-01 -7.933269e-01 0.000000e+00
      outer loop
         vertex 1.519928e+01 -2.298133e-02 -1.000000e+00
         vertex 1.519928e+01 -2.298133e-02 1.000000e+00
         vertex 1.519721e+01 -2.457456e-02 1.000000e+00
      endloop
   endfacet
   facet normal 6.087959e-01 -7.933269e-01 0.000000e+00
      outer loop
         vertex 1.519928e+01 -2.298133e-02 -1.000000e+00
         vertex 1.519721e+01 -2.457456e-02 1.000000e+00
         vertex 1.519721e+01 -2.457456e-02 -1.000000e+00
      endloop
   endfacet
   facet normal 5.372193e-01 -8.434426e-01 0.000000e+00
      outer loop
         vertex 1.519721e+01 -2.457456e-02 -1.000000e+00
         vertex 1.519721e+01 -2.457456e-02 1.000000e+00
         vertex 1.519500e+01 -2.598076e-02 1.000000e+00
      endloop
   endfacet
   facet normal 5.372193e-01 -8.434426e-01 0.000000e+00
      outer loop
         vertex 1.519721e+01 -2.457456e-02 -1.000000e+00
         vertex 1.519500e+01 -2.598076e-02 1.000000e+00
         vertex 1.519500e+01 -2.598076e-02 -1.000000e+00
      endloop
   endfacet
   facet normal 4.617818e-01 -8.869936e-01 0.000000e+00
      outer loop
         vertex 1.519500e+01 -2.598076e-02 -1.000000e+00
         vertex 1.519500e+01 -2.598076e-02 1.000000e+00
         vertex 1.519268e+01 -2.718923e-02 1.000000e+00
      endloop
   endfacet
   facet normal 4.617818e-01 -8.869936e-01 0.000000e+00
      outer loop
         vertex 1.519500e+01 -2.598076e-02 -1.000000e+00
         vertex 1.519268e+01 -2.718923e-02 1.000000e+00
         vertex 1.519268e+01 -2.718923e-02 -1.000000e+00
      endloop
   endfacet
   facet normal 3.827344e-01 -9.238584e-01 0.000000e+00
      outer loop
         vertex 1.519268e+01 -2.718923e-02 -1.000000e+00
         vertex 1.519268e+01 -2.718923e-02 1.000000e+00
         vertex 1.519026e+01 -2.819078e-02 1.000000e+00
      endloop
   endfacet
   facet normal 3.827344e-01 -9.238584e-01 0.000000e+00
      outer loop
         vertex 1.519268e+01 -2.718923e-02 -1.000000e+00
         vertex 1.519026e+01 -2.819078e-02 1.000000e+00
         vertex 1.519026e+01 -2.819078e-02 -1.000000e+00
      endloop
   endfacet
   facet normal 3.006304e-01 -9.537407e-01 0.000000e+00
      outer loop
         vertex 1.519026e+01 -2.819078e-02 -1.000000e+00
         vertex 1.519026e+01 -2.819078e-02 1.000000e+00
         vertex 1.518776e+01 -2.897777e-02 1.000000e+00
      endloop
   endfacet
   facet normal 3.006304e-01 -9.537407e-01 0.000000e+00
      outer loop
         vertex 1.519026e+01 -2.819078e-02 -1.000000e+00
         vertex 1.518776e+01 -2.897777e-02 1.000000e+00
         vertex 1.518776e+01 -2.897777e-02 -1.000000e+00
      endloop
   endfacet
   facet normal 2.164586e-01 -9.762918e-01 0.000000e+00
      outer loop
         vertex 1.518776e+01 -2.897777e-02 -1.000000e+00
         vertex 1.518776e+01 -2.897777e-02 1.000000e+00
         vertex 1.518521e+01 -2.954423e-02 1.000000e+00
      endloop
   endfacet
   facet normal 2.164586e-01 -9.762918e-01 0.000000e+00
      outer loop
         vertex 1.518776e+01 -2.897777e-02 -1.000000e+00
         vertex 1.518521e+01 -2.954423e-02 1.000000e+00
         vertex 1.518521e+01 -2.954423e-02 -1.000000e+00
      endloop
   endfacet
   facet normal 1.305178e-01 -9.914460e-01 0.000000e+00
      outer loop
         vertex 1.518521e+01 -2.954423e-02 -1.000000e+00
         vertex 1.518521e+01 -2.954423e-02 1.000000e+00
         vertex 1.518261e+01 -2.988584e-02 1.000000e+00
      endloop
   endfacet
   facet normal 1.305178e-01 -9.914460e-01 0.000000e+00
      outer loop
         vertex 1.518521e+01 -2.954423e-02 -1.000000e+00
         vertex 1.518261e+01 -2.988584e-02 1.000000e+00
         vertex 1.518261e+01 -2.988584e-02 -1.000000e+00
      endloop
   endfacet
   facet normal 4.362975e-02 -9.990478e-01 0.000000e+00
      outer loop
         vertex 1.518261e+01 -2.988584e-02 -1.000000e+00
         vertex 1.518261e+01 -2.988584e-02 1.000000e+00
         vertex 1.518000e+01 -3.000000e-02 1.000000e+00
      endloop
   endfacet
   facet normal 4.362975e-02 -9.990478e-01 0.000000e+00
      outer loop
         vertex 1.518261e+01 -2.988584e-02 -1.000000e+00
         vertex 1.518000e+01 -3.000000e-02 1.000000e+00
         vertex 1.518000e+01 -3.000000e-02 -1.000000e+00
      endloop
   endfacet
   facet normal 0.000000e+00 -1.000000e+00 0.000000e+00
      outer loop
         vertex 1.800000e-01 -3.000000e-02 1.000000e+00
         vertex 1.800000e-01 -3.000000e-02 -1.000000e+00
         vertex 1.518000e+01 -3.000000e-02 1.000000e+00
      endloop
   endfacet
   facet normal 0.000000e+00 -1.000000e+00 -0.000000e+00
      outer loop
         vertex 1.518000e+01 -3.000000e-02 1.000000e+00
         vertex 1.800000e-01 -3.000000e-02 -1.000000e+00
         vertex 1.518000e+01 -3.000000e-02 -1.000000e+00
      endloop
   endfacet
   facet normal 0.000000e+00 0.000000e+00 -1.000000e+00
      outer loop
         vertex 1.518092e-01 1.026060e-02 -1.000000e+00
         vertex 1.528108e-01 1.267855e-02 -1.000000e+00
         vertex 1.800000e-01 -3.000000e-02 -1.000000e+00
      endloop
   endfacet
   facet normal 0.000000e+00 0.000000e+00 -1.000000e+00
      outer loop
         vertex 1.800000e-01 -3.000000e-02 -1.000000e+00
         vertex 1.528108e-01 1.267855e-02 -1.000000e+00
         vertex 1.540192e-01 1.500000e-02 -1.000000e+00
      endloop
   endfacet
   facet normal 0.000000e+00 0.000000e+00 -1.000000e+00
      outer loop
         vertex 1.800000e-01 -3.000000e-02 -1.000000e+00
         vertex 1.540192e-01 1.500000e-02 -1.000000e+00
         vertex 1.554254e-01 1.720729e-02 -1.000000e+00
      endloop
   endfacet
   facet normal 0.000000e+00 -0.000000e+00 -1.000000e+00
      outer loop
         vertex 1.519721e+01 2.457456e-02 -1.000000e+00
         vertex 1.519928e+01 2.298133e-02 -1.000000e+00
         vertex 1.518000e+01 -3.000000e-02 -1.000000e+00
      endloop
   endfacet
   facet normal 0.000000e+00 0.000000e+00 -1.000000e+00
      outer loop
         vertex 1.518000e+01 -3.000000e-02 -1.000000e+00
         vertex 1.519928e+01 2.298133e-02 -1.000000e+00
         vertex 1.520121e+01 2.121320e-02 -1.000000e+00
      endloop
   endfacet
   facet normal 0.000000e+00 -0.000000e+00 -1.000000e+00
      outer loop
         vertex 1.520598e+01 1.500000e-02 -1.000000e+00
         vertex 1.520719e+01 1.267855e-02 -1.000000e+00
         vertex 1.518000e+01 -3.000000e-02 -1.000000e+00
      endloop
   endfacet
   facet normal 0.000000e+00 0.000000e+00 -1.000000e+00
      outer loop
         vertex 1.518000e+01 -3.000000e-02 -1.000000e+00
         vertex 1.520719e+01 1.267855e-02 -1.000000e+00
         vertex 1.520819e+01 1.026060e-02 -1.000000e+00
      endloop
   endfacet
   facet normal 0.000000e+00 0.000000e+00 -1.000000e+00
      outer loop
         vertex 1.518000e+01 -3.000000e-02 -1.000000e+00
         vertex 1.520819e+01 1.026060e-02 -1.000000e+00
         vertex 1.520898e+01 7.764571e-03 -1.000000e+00
      endloop
   endfacet
   facet normal 0.000000e+00 0.000000e+00 -1.000000e+00
      outer loop
         vertex 1.528108e-01 -1.267855e-02 -1.000000e+00
         vertex 1.518092e-01 -1.026060e-02 -1.000000e+00
         vertex 1.800000e-01 -3.000000e-02 -1.000000e+00
      endloop
   endfacet
   facet normal 0.000000e+00 0.000000e+00 -1.000000e+00
      outer loop
         vertex 1.800000e-01 -3.000000e-02 -1.000000e+00
         vertex 1.518092e-01 -1.026060e-02 -1.000000e+00
         vertex 1.510222e-01 -7.764571e-03 -1.000000e+00
      endloop
   endfacet
   facet normal 0.000000e+00 0.000000e+00 -1.000000e+00
      outer loop
         vertex 1.800000e-01 -3.000000e-02 -1.000000e+00
         vertex 1.510222e-01 -7.764571e-03 -1.000000e+00
         vertex 1.504558e-01 -5.209445e-03 -1.000000e+00
      endloop
   endfacet
   facet normal 0.000000e+00 0.000000e+00 -1.000000e+00
      outer loop
         vertex 1.504558e-01 -5.209445e-03 -1.000000e+00
         vertex 1.501142e-01 -2.614672e-03 -1.000000e+00
         vertex 1.800000e-01 -3.000000e-02 -1.000000e+00
      endloop
   endfacet
   facet normal 0.000000e+00 0.000000e+00 -1.000000e+00
      outer loop
         vertex 1.800000e-01 -3.000000e-02 -1.000000e+00
         vertex 1.501142e-01 -2.614672e-03 -1.000000e+00
         vertex 1.500000e-01 1.699662e-17 -1.000000e+00
      endloop
   endfacet
   facet normal 0.000000e+00 0.000000e+00 -1.000000e+00
      outer loop
         vertex 1.800000e-01 -3.000000e-02 -1.000000e+00
         vertex 1.500000e-01 1.699662e-17 -1.000000e+00
         vertex 1.501142e-01 2.614672e-03 -1.000000e+00
      endloop
   endfacet
   facet normal 0.000000e+00 0.000000e+00 -1.000000e+00
      outer loop
         vertex 1.554254e-01 1.720729e-02 -1.000000e+00
         vertex 1.570187e-01 1.928363e-02 -1.000000e+00
         vertex 1.800000e-01 -3.000000e-02 -1.000000e+00
      endloop
   endfacet
   facet normal 0.000000e+00 0.000000e+00 -1.000000e+00
      outer loop
         vertex 1.800000e-01 -3.000000e-02 -1.000000e+00
         vertex 1.570187e-01 1.928363e-02 -1.000000e+00
         vertex 1.587868e-01 2.121320e-02 -1.000000e+00
      endloop
   endfacet
   facet normal 0.000000e+00 0.000000e+00 -1.000000e+00
      outer loop
         vertex 1.800000e-01 -3.000000e-02 -1.000000e+00
         vertex 1.587868e-01 2.121320e-02 -1.000000e+00
         vertex 1.607164e-01 2.298133e-02 -1.000000e+00
      endloop
   endfacet
   facet normal 0.000000e+00 -0.000000e+00 -1.000000e+00
      outer loop
         vertex 1.520121e+01 2.121320e-02 -1.000000e+00
         vertex 1.520298e+01 1.928363e-02 -1.000000e+00
         vertex 1.518000e+01 -3.000000e-02 -1.000000e+00
      endloop
   endfacet
   facet normal 0.000000e+00 0.000000e+00 -1.000000e+00
      outer loop
         vertex 1.518000e+01 -3.000000e-02 -1.000000e+00
         vertex 1.520298e+01 1.928363e-02 -1.000000e+00
         vertex 1.520457e+01 1.720729e-02 -1.000000e+00
      endloop
   endfacet
   facet normal 0.000000e+00 0.000000e+00 -1.000000e+00
      outer loop
         vertex 1.518000e+01 -3.000000e-02 -1.000000e+00
         vertex 1.520457e+01 1.720729e-02 -1.000000e+00
         vertex 1.520598e+01 1.500000e-02 -1.000000e+00
      endloop
   endfacet
   facet normal 0.000000e+00 0.000000e+00 -1.000000e+00
      outer loop
         vertex 1.518000e+01 -3.000000e-02 -1.000000e+00
         vertex 1.521000e+01 -7.347881e-18 -1.000000e+00
         vertex 1.520989e+01 -2.614672e-03 -1.000000e+00
      endloop
   endfacet
   facet normal 0.000000e+00 0.000000e+00 -1.000000e+00
      outer loop
         vertex 1.520819e+01 -1.026060e-02 -1.000000e+00
         vertex 1.520719e+01 -1.267855e-02 -1.000000e+00
         vertex 1.518000e+01 -3.000000e-02 -1.000000e+00
      endloop
   endfacet
   facet normal 0.000000e+00 0.000000e+00 -1.000000e+00
      outer loop
         vertex 1.518000e+01 -3.000000e-02 -1.000000e+00
         vertex 1.520719e+01 -1.267855e-02 -1.000000e+00
         vertex 1.520598e+01 -1.500000e-02 -1.000000e+00
      endloop
   endfacet
   facet normal 0.000000e+00 0.000000e+00 -1.000000e+00
      outer loop
         vertex 1.518000e+01 -3.000000e-02 -1.000000e+00
         vertex 1.520598e+01 -1.500000e-02 -1.000000e+00
         vertex 1.520457e+01 -1.720729e-02 -1.000000e+00
      endloop
   endfacet
   facet normal 0.000000e+00 0.000000e+00 -1.000000e+00
      outer loop
         vertex 1.673215e-01 -2.718923e-02 -1.000000e+00
         vertex 1.650000e-01 -2.598076e-02 -1.000000e+00
         vertex 1.800000e-01 -3.000000e-02 -1.000000e+00
      endloop
   endfacet
   facet normal 0.000000e+00 0.000000e+00 -1.000000e+00
      outer loop
         vertex 1.800000e-01 -3.000000e-02 -1.000000e+00
         vertex 1.650000e-01 -2.598076e-02 -1.000000e+00
         vertex 1.627927e-01 -2.457456e-02 -1.000000e+00
      endloop
   endfacet
   facet normal 0.000000e+00 0.000000e+00 -1.000000e+00
      outer loop
         vertex 1.627927e-01 -2.457456e-02 -1.000000e+00
         vertex 1.607164e-01 -2.298133e-02 -1.000000e+00
         vertex 1.800000e-01 -3.000000e-02 -1.000000e+00
      endloop
   endfacet
   facet normal 0.000000e+00 0.000000e+00 -1.000000e+00
      outer loop
         vertex 1.800000e-01 -3.000000e-02 -1.000000e+00
         vertex 1.607164e-01 -2.298133e-02 -1.000000e+00
         vertex 1.587868e-01 -2.121320e-02 -1.000000e+00
      endloop
   endfacet
   facet normal 0.000000e+00 0.000000e+00 -1.000000e+00
      outer loop
         vertex 1.800000e-01 -3.000000e-02 -1.000000e+00
         vertex 1.587868e-01 -2.121320e-02 -1.000000e+00
         vertex 1.570187e-01 -1.928363e-02 -1.000000e+00
      endloop
   endfacet
   facet normal 0.000000e+00 0.000000e+00 -1.000000e+00
      outer loop
         vertex 1.570187e-01 -1.928363e-02 -1.000000e+00
         vertex 1.554254e-01 -1.720729e-02 -1.000000e+00
         vertex 1.800000e-01 -3.000000e-02 -1.000000e+00
      endloop
   endfacet
   facet normal 0.000000e+00 0.000000e+00 -1.000000e+00
      outer loop
         vertex 1.800000e-01 -3.000000e-02 -1.000000e+00
         vertex 1.554254e-01 -1.720729e-02 -1.000000e+00
         vertex 1.540192e-01 -1.500000e-02 -1.000000e+00
      endloop
   endfacet
   facet normal 0.000000e+00 0.000000e+00 -1.000000e+00
      outer loop
         vertex 1.800000e-01 -3.000000e-02 -1.000000e+00
         vertex 1.540192e-01 -1.500000e-02 -1.000000e+00
         vertex 1.528108e-01 -1.267855e-02 -1.000000e+00
      endloop
   endfacet
   facet normal 0.000000e+00 0.000000e+00 -1.000000e+00
      outer loop
         vertex 1.607164e-01 2.298133e-02 -1.000000e+00
         vertex 1.627927e-01 2.457456e-02 -1.000000e+00
         vertex 1.800000e-01 -3.000000e-02 -1.000000e+00
      endloop
   endfacet
   facet normal 0.000000e+00 0.000000e+00 -1.000000e+00
      outer loop
         vertex 1.800000e-01 -3.000000e-02 -1.000000e+00
         vertex 1.627927e-01 2.457456e-02 -1.000000e+00
         vertex 1.650000e-01 2.598076e-02 -1.000000e+00
      endloop
   endfacet
   facet normal 0.000000e+00 0.000000e+00 -1.000000e+00
      outer loop
         vertex 1.800000e-01 -3.000000e-02 -1.000000e+00
         vertex 1.650000e-01 2.598076e-02 -1.000000e+00
         vertex 1.673215e-01 2.718923e-02 -1.000000e+00
      endloop
   endfacet
   facet normal 0.000000e+00 0.000000e+00 -1.000000e+00
      outer loop
         vertex 1.673215e-01 2.718923e-02 -1.000000e+00
         vertex 1.697394e-01 2.819078e-02 -1.000000e+00
         vertex 1.800000e-01 -3.000000e-02 -1.000000e+00
      endloop
   endfacet
   facet normal 0.000000e+00 0.000000e+00 -1.000000e+00
      outer loop
         vertex 1.800000e-01 -3.000000e-02 -1.000000e+00
         vertex 1.697394e-01 2.819078e-02 -1.000000e+00
         vertex 1.722354e-01 2.897777e-02 -1.000000e+00
      endloop
   endfacet
   facet normal 0.000000e+00 0.000000e+00 -1.000000e+00
      outer loop
         vertex 1.800000e-01 -3.000000e-02 -1.000000e+00
         vertex 1.722354e-01 2.897777e-02 -1.000000e+00
         vertex 1.747906e-01 2.954423e-02 -1.000000e+00
      endloop
   endfacet
   facet normal 0.000000e+00 -0.000000e+00 -1.000000e+00
      outer loop
         vertex 1.518261e+01 2.988584e-02 -1.000000e+00
         vertex 1.518521e+01 2.954423e-02 -1.000000e+00
         vertex 1.518000e+01 -3.000000e-02 -1.000000e+00
      endloop
   endfacet
   facet normal 0.000000e+00 0.000000e+00 -1.000000e+00
      outer loop
         vertex 1.518000e+01 -3.000000e-02 -1.000000e+00
         vertex 1.518521e+01 2.954423e-02 -1.000000e+00
         vertex 1.518776e+01 2.897777e-02 -1.000000e+00
      endloop
   endfacet
   facet normal 0.000000e+00 0.000000e+00 -1.000000e+00
      outer loop
         vertex 1.518000e+01 -3.000000e-02 -1.000000e+00
         vertex 1.518776e+01 2.897777e-02 -1.000000e+00
         vertex 1.519026e+01 2.819078e-02 -1.000000e+00
      endloop
   endfacet
   facet normal 0.000000e+00 -0.000000e+00 -1.000000e+00
      outer loop
         vertex 1.520898e+01 7.764571e-03 -1.000000e+00
         vertex 1.520954e+01 5.209445e-03 -1.000000e+00
         vertex 1.518000e+01 -3.000000e-02 -1.000000e+00
      endloop
   endfacet
   facet normal 0.000000e+00 0.000000e+00 -1.000000e+00
      outer loop
         vertex 1.518000e+01 -3.000000e-02 -1.000000e+00
         vertex 1.520954e+01 5.209445e-03 -1.000000e+00
         vertex 1.520989e+01 2.614672e-03 -1.000000e+00
      endloop
   endfacet
   facet normal 0.000000e+00 0.000000e+00 -1.000000e+00
      outer loop
         vertex 1.518000e+01 -3.000000e-02 -1.000000e+00
         vertex 1.520989e+01 2.614672e-03 -1.000000e+00
         vertex 1.521000e+01 -7.347881e-18 -1.000000e+00
      endloop
   endfacet
   facet normal 0.000000e+00 0.000000e+00 -1.000000e+00
      outer loop
         vertex 1.520989e+01 -2.614672e-03 -1.000000e+00
         vertex 1.520954e+01 -5.209445e-03 -1.000000e+00
         vertex 1.518000e+01 -3.000000e-02 -1.000000e+00
      endloop
   endfacet
   facet normal 0.000000e+00 0.000000e+00 -1.000000e+00
      outer loop
         vertex 1.518000e+01 -3.000000e-02 -1.000000e+00
         vertex 1.520954e+01 -5.209445e-03 -1.000000e+00
         vertex 1.520898e+01 -7.764571e-03 -1.000000e+00
      endloop
   endfacet
   facet normal 0.000000e+00 0.000000e+00 -1.000000e+00
      outer loop
         vertex 1.518000e+01 -3.000000e-02 -1.000000e+00
         vertex 1.520898e+01 -7.764571e-03 -1.000000e+00
         vertex 1.520819e+01 -1.026060e-02 -1.000000e+00
      endloop
   endfacet
   facet normal 0.000000e+00 0.000000e+00 -1.000000e+00
      outer loop
         vertex 1.520457e+01 -1.720729e-02 -1.000000e+00
         vertex 1.520298e+01 -1.928363e-02 -1.000000e+00
         vertex 1.518000e+01 -3.000000e-02 -1.000000e+00
      endloop
   endfacet
   facet normal 0.000000e+00 0.000000e+00 -1.000000e+00
      outer loop
         vertex 1.518000e+01 -3.000000e-02 -1.000000e+00
         vertex 1.520298e+01 -1.928363e-02 -1.000000e+00
         vertex 1.520121e+01 -2.121320e-02 -1.000000e+00
      endloop
   endfacet
   facet normal 0.000000e+00 0.000000e+00 -1.000000e+00
      outer loop
         vertex 1.518000e+01 -3.000000e-02 -1.000000e+00
         vertex 1.520121e+01 -2.121320e-02 -1.000000e+00
         vertex 1.519928e+01 -2.298133e-02 -1.000000e+00
      endloop
   endfacet
   facet normal 0.000000e+00 0.000000e+00 -1.000000e+00
      outer loop
         vertex 1.800000e-01 -3.000000e-02 -1.000000e+00
         vertex 1.773853e-01 -2.988584e-02 -1.000000e+00
         vertex 1.747906e-01 -2.954423e-02 -1.000000e+00
      endloop
   endfacet
   facet normal 0.000000e+00 0.000000e+00 -1.000000e+00
      outer loop
         vertex 1.501142e-01 2.614672e-03 -1.000000e+00
         vertex 1.504558e-01 5.209445e-03 -1.000000e+00
         vertex 1.800000e-01 -3.000000e-02 -1.000000e+00
      endloop
   endfacet
   facet normal 0.000000e+00 0.000000e+00 -1.000000e+00
      outer loop
         vertex 1.800000e-01 -3.000000e-02 -1.000000e+00
         vertex 1.504558e-01 5.209445e-03 -1.000000e+00
         vertex 1.510222e-01 7.764571e-03 -1.000000e+00
      endloop
   endfacet
   facet normal 0.000000e+00 0.000000e+00 -1.000000e+00
      outer loop
         vertex 1.800000e-01 -3.000000e-02 -1.000000e+00
         vertex 1.510222e-01 7.764571e-03 -1.000000e+00
         vertex 1.518092e-01 1.026060e-02 -1.000000e+00
      endloop
   endfacet
   facet normal 0.000000e+00 0.000000e+00 -1.000000e+00
      outer loop
         vertex 1.747906e-01 2.954423e-02 -1.000000e+00
         vertex 1.773853e-01 2.988584e-02 -1.000000e+00
         vertex 1.800000e-01 -3.000000e-02 -1.000000e+00
      endloop
   endfacet
   facet normal 0.000000e+00 0.000000e+00 -1.000000e+00
      outer loop
         vertex 1.800000e-01 -3.000000e-02 -1.000000e+00
         vertex 1.773853e-01 2.988584e-02 -1.000000e+00
         vertex 1.800000e-01 3.000000e-02 -1.000000e+00
      endloop
   endfacet
   facet normal 0.000000e+00 0.000000e+00 -1.000000e+00
      outer loop
         vertex 1.800000e-01 -3.000000e-02 -1.000000e+00
         vertex 1.800000e-01 3.000000e-02 -1.000000e+00
         vertex 1.518000e+01 -3.000000e-02 -1.000000e+00
      endloop
   endfacet
   facet normal 0.000000e+00 0.000000e+00 -1.000000e+00
      outer loop
         vertex 1.518000e+01 -3.000000e-02 -1.000000e+00
         vertex 1.800000e-01 3.000000e-02 -1.000000e+00
         vertex 1.518000e+01 3.000000e-02 -1.000000e+00
      endloop
   endfacet
   facet normal 0.000000e+00 0.000000e+00 -1.000000e+00
      outer loop
         vertex 1.518000e+01 -3.000000e-02 -1.000000e+00
         vertex 1.518000e+01 3.000000e-02 -1.000000e+00
         vertex 1.518261e+01 2.988584e-02 -1.000000e+00
      endloop
   endfacet
   facet normal 0.000000e+00 -0.000000e+00 -1.000000e+00
      outer loop
         vertex 1.519026e+01 2.819078e-02 -1.000000e+00
         vertex 1.519268e+01 2.718923e-02 -1.000000e+00
         vertex 1.518000e+01 -3.000000e-02 -1.000000e+00
      endloop
   endfacet
   facet normal 0.000000e+00 0.000000e+00 -1.000000e+00
      outer loop
         vertex 1.518000e+01 -3.000000e-02 -1.000000e+00
         vertex 1.519268e+01 2.718923e-02 -1.000000e+00
         vertex 1.519500e+01 2.598076e-02 -1.000000e+00
      endloop
   endfacet
   facet normal 0.000000e+00 0.000000e+00 -1.000000e+00
      outer loop
         vertex 1.518000e+01 -3.000000e-02 -1.000000e+00
         vertex 1.519500e+01 2.598076e-02 -1.000000e+00
         vertex 1.519721e+01 2.457456e-02 -1.000000e+00
      endloop
   endfacet
   facet normal 0.000000e+00 0.000000e+00 -1.000000e+00
      outer loop
         vertex 1.519928e+01 -2.298133e-02 -1.000000e+00
         vertex 1.519721e+01 -2.457456e-02 -1.000000e+00
         vertex 1.518000e+01 -3.000000e-02 -1.000000e+00
      endloop
   endfacet
   facet normal 0.000000e+00 0.000000e+00 -1.000000e+00
      outer loop
         vertex 1.518000e+01 -3.000000e-02 -1.000000e+00
         vertex 1.519721e+01 -2.457456e-02 -1.000000e+00
         vertex 1.519500e+01 -2.598076e-02 -1.000000e+00
      endloop
   endfacet
   facet normal 0.000000e+00 0.000000e+00 -1.000000e+00
      outer loop
         vertex 1.518000e+01 -3.000000e-02 -1.000000e+00
         vertex 1.519500e+01 -2.598076e-02 -1.000000e+00
         vertex 1.518261e+01 -2.988584e-02 -1.000000e+00
      endloop
   endfacet
   facet normal 0.000000e+00 0.000000e+00 -1.000000e+00
      outer loop
         vertex 1.518261e+01 -2.988584e-02 -1.000000e+00
         vertex 1.519500e+01 -2.598076e-02 -1.000000e+00
         vertex 1.518521e+01 -2.954423e-02 -1.000000e+00
      endloop
   endfacet
   facet normal 0.000000e+00 0.000000e+00 -1.000000e+00
      outer loop
         vertex 1.747906e-01 -2.954423e-02 -1.000000e+00
         vertex 1.722354e-01 -2.897777e-02 -1.000000e+00
         vertex 1.800000e-01 -3.000000e-02 -1.000000e+00
      endloop
   endfacet
   facet normal 0.000000e+00 0.000000e+00 -1.000000e+00
      outer loop
         vertex 1.800000e-01 -3.000000e-02 -1.000000e+00
         vertex 1.722354e-01 -2.897777e-02 -1.000000e+00
         vertex 1.697394e-01 -2.819078e-02 -1.000000e+00
      endloop
   endfacet
   facet normal 0.000000e+00 0.000000e+00 -1.000000e+00
      outer loop
         vertex 1.800000e-01 -3.000000e-02 -1.000000e+00
         vertex 1.697394e-01 -2.819078e-02 -1.000000e+00
         vertex 1.673215e-01 -2.718923e-02 -1.000000e+00
      endloop
   endfacet
   facet normal -0.000000e+00 0.000000e+00 -1.000000e+00
      outer loop
         vertex 1.519268e+01 -2.718923e-02 -1.000000e+00
         vertex 1.519026e+01 -2.819078e-02 -1.000000e+00
         vertex 1.519500e+01 -2.598076e-02 -1.000000e+00
      endloop
   endfacet
   facet normal 0.000000e+00 0.000000e+00 -1.000000e+00
      outer loop
         vertex 1.519500e+01 -2.598076e-02 -1.000000e+00
         vertex 1.519026e+01 -2.819078e-02 -1.000000e+00
         vertex 1.518776e+01 -2.897777e-02 -1.000000e+00
      endloop
   endfacet
   facet normal 0.000000e+00 0.000000e+00 -1.000000e+00
      outer loop
         vertex 1.519500e+01 -2.598076e-02 -1.000000e+00
         vertex 1.518776e+01 -2.897777e-02 -1.000000e+00
         vertex 1.518521e+01 -2.954423e-02 -1.000000e+00
      endloop
   endfacet
   facet normal 0.000000e+00 0.000000e+00 1.000000e+00
      outer loop
         vertex 1.570187e-01 1.928363e-02 1.000000e+00
         vertex 1.554254e-01 1.720729e-02 1.000000e+00
         vertex 1.800000e-01 -3.000000e-02 1.000000e+00
      endloop
   endfacet
   facet normal 0.000000e+00 0.000000e+00 1.000000e+00
      outer loop
         vertex 1.800000e-01 -3.000000e-02 1.000000e+00
         vertex 1.554254e-01 1.720729e-02 1.000000e+00
         vertex 1.540192e-01 1.500000e-02 1.000000e+00
      endloop
   endfacet
   facet normal 0.000000e+00 0.000000e+00 1.000000e+00
      outer loop
         vertex 1.773853e-01 2.988584e-02 1.000000e+00
         vertex 1.747906e-01 2.954423e-02 1.000000e+00
         vertex 1.800000e-01 -3.000000e-02 1.000000e+00
      endloop
   endfacet
   facet normal 0.000000e+00 0.000000e+00 1.000000e+00
      outer loop
         vertex 1.800000e-01 -3.000000e-02 1.000000e+00
         vertex 1.747906e-01 2.954423e-02 1.000000e+00
         vertex 1.722354e-01 2.897777e-02 1.000000e+00
      endloop
   endfacet
   facet normal 0.000000e+00 0.000000e+00 1.000000e+00
      outer loop
         vertex 1.800000e-01 -3.000000e-02 1.000000e+00
         vertex 1.722354e-01 2.897777e-02 1.000000e+00
         vertex 1.697394e-01 2.819078e-02 1.000000e+00
      endloop
   endfacet
   facet normal 0.000000e+00 0.000000e+00 1.000000e+00
      outer loop
         vertex 1.500000e-01 1.699662e-17 1.000000e+00
         vertex 1.501142e-01 -2.614672e-03 1.000000e+00
         vertex 1.800000e-01 -3.000000e-02 1.000000e+00
      endloop
   endfacet
   facet normal 0.000000e+00 0.000000e+00 1.000000e+00
      outer loop
         vertex 1.800000e-01 -3.000000e-02 1.000000e+00
         vertex 1.501142e-01 -2.614672e-03 1.000000e+00
         vertex 1.504558e-01 -5.209445e-03 1.000000e+00
      endloop
   endfacet
   facet normal 0.000000e+00 0.000000e+00 1.000000e+00
      outer loop
         vertex 1.504558e-01 -5.209445e-03 1.000000e+00
         vertex 1.510222e-01 -7.764571e-03 1.000000e+00
         vertex 1.800000e-01 -3.000000e-02 1.000000e+00
      endloop
   endfacet
   facet normal 0.000000e+00 0.000000e+00 1.000000e+00
      outer loop
         vertex 1.800000e-01 -3.000000e-02 1.000000e+00
         vertex 1.510222e-01 -7.764571e-03 1.000000e+00
         vertex 1.518092e-01 -1.026060e-02 1.000000e+00
      endloop
   endfacet
   facet normal 0.000000e+00 0.000000e+00 1.000000e+00
      outer loop
         vertex 1.800000e-01 -3.000000e-02 1.000000e+00
         vertex 1.518092e-01 -1.026060e-02 1.000000e+00
         vertex 1.528108e-01 -1.267855e-02 1.000000e+00
      endloop
   endfacet
   facet normal 0.000000e+00 0.000000e+00 1.000000e+00
      outer loop
         vertex 1.520598e+01 1.500000e-02 1.000000e+00
         vertex 1.518000e+01 -3.000000e-02 1.000000e+00
         vertex 1.520719e+01 1.267855e-02 1.000000e+00
      endloop
   endfacet
   facet normal 0.000000e+00 0.000000e+00 1.000000e+00
      outer loop
         vertex 1.520719e+01 1.267855e-02 1.000000e+00
         vertex 1.518000e+01 -3.000000e-02 1.000000e+00
         vertex 1.520819e+01 1.026060e-02 1.000000e+00
      endloop
   endfacet
   facet normal 0.000000e+00 0.000000e+00 1.000000e+00
      outer loop
         vertex 1.697394e-01 2.819078e-02 1.000000e+00
         vertex 1.673215e-01 2.718923e-02 1.000000e+00
         vertex 1.800000e-01 -3.000000e-02 1.000000e+00
      endloop
   endfacet
   facet normal 0.000000e+00 0.000000e+00 1.000000e+00
      outer loop
         vertex 1.800000e-01 -3.000000e-02 1.000000e+00
         vertex 1.673215e-01 2.718923e-02 1.000000e+00
         vertex 1.650000e-01 2.598076e-02 1.000000e+00
      endloop
   endfacet
   facet normal 0.000000e+00 0.000000e+00 1.000000e+00
      outer loop
         vertex 1.800000e-01 -3.000000e-02 1.000000e+00
         vertex 1.650000e-01 2.598076e-02 1.000000e+00
         vertex 1.627927e-01 2.457456e-02 1.000000e+00
      endloop
   endfacet
   facet normal 0.000000e+00 0.000000e+00 1.000000e+00
      outer loop
         vertex 1.627927e-01 2.457456e-02 1.000000e+00
         vertex 1.607164e-01 2.298133e-02 1.000000e+00
         vertex 1.800000e-01 -3.000000e-02 1.000000e+00
      endloop
   endfacet
   facet normal 0.000000e+00 0.000000e+00 1.000000e+00
      outer loop
         vertex 1.800000e-01 -3.000000e-02 1.000000e+00
         vertex 1.607164e-01 2.298133e-02 1.000000e+00
         vertex 1.587868e-01 2.121320e-02 1.000000e+00
      endloop
   endfacet
   facet normal 0.000000e+00 0.000000e+00 1.000000e+00
      outer loop
         vertex 1.800000e-01 -3.000000e-02 1.000000e+00
         vertex 1.587868e-01 2.121320e-02 1.000000e+00
         vertex 1.570187e-01 1.928363e-02 1.000000e+00
      endloop
   endfacet
   facet normal 0.000000e+00 0.000000e+00 1.000000e+00
      outer loop
         vertex 1.540192e-01 1.500000e-02 1.000000e+00
         vertex 1.528108e-01 1.267855e-02 1.000000e+00
         vertex 1.800000e-01 -3.000000e-02 1.000000e+00
      endloop
   endfacet
   facet normal 0.000000e+00 0.000000e+00 1.000000e+00
      outer loop
         vertex 1.800000e-01 -3.000000e-02 1.000000e+00
         vertex 1.528108e-01 1.267855e-02 1.000000e+00
         vertex 1.518092e-01 1.026060e-02 1.000000e+00
      endloop
   endfacet
   facet normal 0.000000e+00 0.000000e+00 1.000000e+00
      outer loop
         vertex 1.800000e-01 -3.000000e-02 1.000000e+00
         vertex 1.518092e-01 1.026060e-02 1.000000e+00
         vertex 1.510222e-01 7.764571e-03 1.000000e+00
      endloop
   endfacet
   facet normal 0.000000e+00 0.000000e+00 1.000000e+00
      outer loop
         vertex 1.528108e-01 -1.267855e-02 1.000000e+00
         vertex 1.540192e-01 -1.500000e-02 1.000000e+00
         vertex 1.800000e-01 -3.000000e-02 1.000000e+00
      endloop
   endfacet
   facet normal 0.000000e+00 0.000000e+00 1.000000e+00
      outer loop
         vertex 1.800000e-01 -3.000000e-02 1.000000e+00
         vertex 1.540192e-01 -1.500000e-02 1.000000e+00
         vertex 1.554254e-01 -1.720729e-02 1.000000e+00
      endloop
   endfacet
   facet normal 0.000000e+00 0.000000e+00 1.000000e+00
      outer loop
         vertex 1.800000e-01 -3.000000e-02 1.000000e+00
         vertex 1.554254e-01 -1.720729e-02 1.000000e+00
         vertex 1.570187e-01 -1.928363e-02 1.000000e+00
      endloop
   endfacet
   facet normal 0.000000e+00 0.000000e+00 1.000000e+00
      outer loop
         vertex 1.570187e-01 -1.928363e-02 1.000000e+00
         vertex 1.587868e-01 -2.121320e-02 1.000000e+00
         vertex 1.800000e-01 -3.000000e-02 1.000000e+00
      endloop
   endfacet
   facet normal 0.000000e+00 0.000000e+00 1.000000e+00
      outer loop
         vertex 1.800000e-01 -3.000000e-02 1.000000e+00
         vertex 1.587868e-01 -2.121320e-02 1.000000e+00
         vertex 1.607164e-01 -2.298133e-02 1.000000e+00
      endloop
   endfacet
   facet normal 0.000000e+00 0.000000e+00 1.000000e+00
      outer loop
         vertex 1.800000e-01 -3.000000e-02 1.000000e+00
         vertex 1.607164e-01 -2.298133e-02 1.000000e+00
         vertex 1.627927e-01 -2.457456e-02 1.000000e+00
      endloop
   endfacet
   facet normal 0.000000e+00 -0.000000e+00 1.000000e+00
      outer loop
         vertex 1.519721e+01 -2.457456e-02 1.000000e+00
         vertex 1.519928e+01 -2.298133e-02 1.000000e+00
         vertex 1.518000e+01 -3.000000e-02 1.000000e+00
      endloop
   endfacet
   facet normal 0.000000e+00 0.000000e+00 1.000000e+00
      outer loop
         vertex 1.518000e+01 -3.000000e-02 1.000000e+00
         vertex 1.519928e+01 -2.298133e-02 1.000000e+00
         vertex 1.520121e+01 -2.121320e-02 1.000000e+00
      endloop
   endfacet
   facet normal 0.000000e+00 -0.000000e+00 1.000000e+00
      outer loop
         vertex 1.520598e+01 -1.500000e-02 1.000000e+00
         vertex 1.520719e+01 -1.267855e-02 1.000000e+00
         vertex 1.518000e+01 -3.000000e-02 1.000000e+00
      endloop
   endfacet
   facet normal 0.000000e+00 0.000000e+00 1.000000e+00
      outer loop
         vertex 1.518000e+01 -3.000000e-02 1.000000e+00
         vertex 1.520719e+01 -1.267855e-02 1.000000e+00
         vertex 1.520819e+01 -1.026060e-02 1.000000e+00
      endloop
   endfacet
   facet normal 0.000000e+00 0.000000e+00 1.000000e+00
      outer loop
         vertex 1.518000e+01 -3.000000e-02 1.000000e+00
         vertex 1.520819e+01 -1.026060e-02 1.000000e+00
         vertex 1.520898e+01 -7.764571e-03 1.000000e+00
      endloop
   endfacet
   facet normal 0.000000e+00 0.000000e+00 1.000000e+00
      outer loop
         vertex 1.518000e+01 -3.000000e-02 1.000000e+00
         vertex 1.521000e+01 -7.347881e-18 1.000000e+00
         vertex 1.520989e+01 2.614672e-03 1.000000e+00
      endloop
   endfacet
   facet normal 0.000000e+00 0.000000e+00 1.000000e+00
      outer loop
         vertex 1.520598e+01 1.500000e-02 1.000000e+00
         vertex 1.520457e+01 1.720729e-02 1.000000e+00
         vertex 1.518000e+01 -3.000000e-02 1.000000e+00
      endloop
   endfacet
   facet normal 0.000000e+00 0.000000e+00 1.000000e+00
      outer loop
         vertex 1.518000e+01 -3.000000e-02 1.000000e+00
         vertex 1.520457e+01 1.720729e-02 1.000000e+00
         vertex 1.520298e+01 1.928363e-02 1.000000e+00
      endloop
   endfacet
   facet normal 0.000000e+00 0.000000e+00 1.000000e+00
      outer loop
         vertex 1.518000e+01 -3.000000e-02 1.000000e+00
         vertex 1.520298e+01 1.928363e-02 1.000000e+00
         vertex 1.520121e+01 2.121320e-02 1.000000e+00
      endloop
   endfacet
   facet normal 0.000000e+00 0.000000e+00 1.000000e+00
      outer loop
         vertex 1.520121e+01 2.121320e-02 1.000000e+00
         vertex 1.519928e+01 2.298133e-02 1.000000e+00
         vertex 1.518000e+01 -3.000000e-02 1.000000e+00
      endloop
   endfacet
   facet normal 0.000000e+00 0.000000e+00 1.000000e+00
      outer loop
         vertex 1.518000e+01 -3.000000e-02 1.000000e+00
         vertex 1.519928e+01 2.298133e-02 1.000000e+00
         vertex 1.519721e+01 2.457456e-02 1.000000e+00
      endloop
   endfacet
   facet normal 0.000000e+00 0.000000e+00 1.000000e+00
      outer loop
         vertex 1.518000e+01 -3.000000e-02 1.000000e+00
         vertex 1.519721e+01 2.457456e-02 1.000000e+00
         vertex 1.519500e+01 2.598076e-02 1.000000e+00
      endloop
   endfacet
   facet normal 0.000000e+00 0.000000e+00 1.000000e+00
      outer loop
         vertex 1.510222e-01 7.764571e-03 1.000000e+00
         vertex 1.504558e-01 5.209445e-03 1.000000e+00
         vertex 1.800000e-01 -3.000000e-02 1.000000e+00
      endloop
   endfacet
   facet normal 0.000000e+00 0.000000e+00 1.000000e+00
      outer loop
         vertex 1.800000e-01 -3.000000e-02 1.000000e+00
         vertex 1.504558e-01 5.209445e-03 1.000000e+00
         vertex 1.501142e-01 2.614672e-03 1.000000e+00
      endloop
   endfacet
   facet normal 0.000000e+00 0.000000e+00 1.000000e+00
      outer loop
         vertex 1.800000e-01 -3.000000e-02 1.000000e+00
         vertex 1.501142e-01 2.614672e-03 1.000000e+00
         vertex 1.500000e-01 1.699662e-17 1.000000e+00
      endloop
   endfacet
   facet normal 0.000000e+00 0.000000e+00 1.000000e+00
      outer loop
         vertex 1.627927e-01 -2.457456e-02 1.000000e+00
         vertex 1.650000e-01 -2.598076e-02 1.000000e+00
         vertex 1.800000e-01 -3.000000e-02 1.000000e+00
      endloop
   endfacet
   facet normal 0.000000e+00 0.000000e+00 1.000000e+00
      outer loop
         vertex 1.800000e-01 -3.000000e-02 1.000000e+00
         vertex 1.650000e-01 -2.598076e-02 1.000000e+00
         vertex 1.673215e-01 -2.718923e-02 1.000000e+00
      endloop
   endfacet
   facet normal 0.000000e+00 0.000000e+00 1.000000e+00
      outer loop
         vertex 1.800000e-01 -3.000000e-02 1.000000e+00
         vertex 1.673215e-01 -2.718923e-02 1.000000e+00
         vertex 1.697394e-01 -2.819078e-02 1.000000e+00
      endloop
   endfacet
   facet normal 0.000000e+00 -0.000000e+00 1.000000e+00
      outer loop
         vertex 1.520121e+01 -2.121320e-02 1.000000e+00
         vertex 1.520298e+01 -1.928363e-02 1.000000e+00
         vertex 1.518000e+01 -3.000000e-02 1.000000e+00
      endloop
   endfacet
   facet normal 0.000000e+00 0.000000e+00 1.000000e+00
      outer loop
         vertex 1.518000e+01 -3.000000e-02 1.000000e+00
         vertex 1.520298e+01 -1.928363e-02 1.000000e+00
         vertex 1.520457e+01 -1.720729e-02 1.000000e+00
      endloop
   endfacet
   facet normal 0.000000e+00 0.000000e+00 1.000000e+00
      outer loop
         vertex 1.518000e+01 -3.000000e-02 1.000000e+00
         vertex 1.520457e+01 -1.720729e-02 1.000000e+00
         vertex 1.520598e+01 -1.500000e-02 1.000000e+00
      endloop
   endfacet
   facet normal 0.000000e+00 -0.000000e+00 1.000000e+00
      outer loop
         vertex 1.520898e+01 -7.764571e-03 1.000000e+00
         vertex 1.520954e+01 -5.209445e-03 1.000000e+00
         vertex 1.518000e+01 -3.000000e-02 1.000000e+00
      endloop
   endfacet
   facet normal 0.000000e+00 0.000000e+00 1.000000e+00
      outer loop
         vertex 1.518000e+01 -3.000000e-02 1.000000e+00
         vertex 1.520954e+01 -5.209445e-03 1.000000e+00
         vertex 1.520989e+01 -2.614672e-03 1.000000e+00
      endloop
   endfacet
   facet normal 0.000000e+00 0.000000e+00 1.000000e+00
      outer loop
         vertex 1.518000e+01 -3.000000e-02 1.000000e+00
         vertex 1.520989e+01 -2.614672e-03 1.000000e+00
         vertex 1.521000e+01 -7.347881e-18 1.000000e+00
      endloop
   endfacet
   facet normal 0.000000e+00 0.000000e+00 1.000000e+00
      outer loop
         vertex 1.520989e+01 2.614672e-03 1.000000e+00
         vertex 1.520954e+01 5.209445e-03 1.000000e+00
         vertex 1.518000e+01 -3.000000e-02 1.000000e+00
      endloop
   endfacet
   facet normal 0.000000e+00 0.000000e+00 1.000000e+00
      outer loop
         vertex 1.518000e+01 -3.000000e-02 1.000000e+00
         vertex 1.520954e+01 5.209445e-03 1.000000e+00
         vertex 1.520898e+01 7.764571e-03 1.000000e+00
      endloop
   endfacet
   facet normal 0.000000e+00 0.000000e+00 1.000000e+00
      outer loop
         vertex 1.518000e+01 -3.000000e-02 1.000000e+00
         vertex 1.520898e+01 7.764571e-03 1.000000e+00
         vertex 1.520819e+01 1.026060e-02 1.000000e+00
      endloop
   endfacet
   facet normal 0.000000e+00 0.000000e+00 1.000000e+00
      outer loop
         vertex 1.518000e+01 -3.000000e-02 1.000000e+00
         vertex 1.518776e+01 2.897777e-02 1.000000e+00
         vertex 1.518521e+01 2.954423e-02 1.000000e+00
      endloop
   endfacet
   facet normal 0.000000e+00 0.000000e+00 1.000000e+00
      outer loop
         vertex 1.697394e-01 -2.819078e-02 1.000000e+00
         vertex 1.722354e-01 -2.897777e-02 1.000000e+00
         vertex 1.800000e-01 -3.000000e-02 1.000000e+00
      endloop
   endfacet
   facet normal 0.000000e+00 0.000000e+00 1.000000e+00
      outer loop
         vertex 1.800000e-01 -3.000000e-02 1.000000e+00
         vertex 1.722354e-01 -2.897777e-02 1.000000e+00
         vertex 1.747906e-01 -2.954423e-02 1.000000e+00
      endloop
   endfacet
   facet normal 0.000000e+00 0.000000e+00 1.000000e+00
      outer loop
         vertex 1.800000e-01 -3.000000e-02 1.000000e+00
         vertex 1.747906e-01 -2.954423e-02 1.000000e+00
         vertex 1.773853e-01 -2.988584e-02 1.000000e+00
      endloop
   endfacet
   facet normal 0.000000e+00 0.000000e+00 1.000000e+00
      outer loop
         vertex 1.519721e+01 -2.457456e-02 1.000000e+00
         vertex 1.518000e+01 -3.000000e-02 1.000000e+00
         vertex 1.519500e+01 -2.598076e-02 1.000000e+00
      endloop
   endfacet
   facet normal 0.000000e+00 0.000000e+00 1.000000e+00
      outer loop
         vertex 1.519500e+01 -2.598076e-02 1.000000e+00
         vertex 1.518000e+01 -3.000000e-02 1.000000e+00
         vertex 1.518261e+01 -2.988584e-02 1.000000e+00
      endloop
   endfacet
   facet normal 0.000000e+00 0.000000e+00 1.000000e+00
      outer loop
         vertex 1.519500e+01 -2.598076e-02 1.000000e+00
         vertex 1.518261e+01 -2.988584e-02 1.000000e+00
         vertex 1.518521e+01 -2.954423e-02 1.000000e+00
      endloop
   endfacet
   facet normal 0.000000e+00 0.000000e+00 1.000000e+00
      outer loop
         vertex 1.519500e+01 2.598076e-02 1.000000e+00
         vertex 1.519268e+01 2.718923e-02 1.000000e+00
         vertex 1.518000e+01 -3.000000e-02 1.000000e+00
      endloop
   endfacet
   facet normal 0.000000e+00 0.000000e+00 1.000000e+00
      outer loop
         vertex 1.518000e+01 -3.000000e-02 1.000000e+00
         vertex 1.519268e+01 2.718923e-02 1.000000e+00
         vertex 1.519026e+01 2.819078e-02 1.000000e+00
      endloop
   endfacet
   facet normal 0.000000e+00 0.000000e+00 1.000000e+00
      outer loop
         vertex 1.518000e+01 -3.000000e-02 1.000000e+00
         vertex 1.519026e+01 2.819078e-02 1.000000e+00
         vertex 1.518776e+01 2.897777e-02 1.000000e+00
      endloop
   endfacet
   facet normal 0.000000e+00 0.000000e+00 1.000000e+00
      outer loop
         vertex 1.518521e+01 2.954423e-02 1.000000e+00
         vertex 1.518261e+01 2.988584e-02 1.000000e+00
         vertex 1.518000e+01 -3.000000e-02 1.000000e+00
      endloop
   endfacet
   facet normal 0.000000e+00 0.000000e+00 1.000000e+00
      outer loop
         vertex 1.518000e+01 -3.000000e-02 1.000000e+00
         vertex 1.518261e+01 2.988584e-02 1.000000e+00
         vertex 1.518000e+01 3.000000e-02 1.000000e+00
      endloop
   endfacet
   facet normal 0.000000e+00 -0.000000e+00 1.000000e+00
      outer loop
         vertex 1.518000e+01 -3.000000e-02 1.000000e+00
         vertex 1.518000e+01 3.000000e-02 1.000000e+00
         vertex 1.800000e-01 -3.000000e-02 1.000000e+00
      endloop
   endfacet
   facet normal 0.000000e+00 0.000000e+00 1.000000e+00
      outer loop
         vertex 1.800000e-01 -3.000000e-02 1.000000e+00
         vertex 1.518000e+01 3.000000e-02 1.000000e+00
         vertex 1.800000e-01 3.000000e-02 1.000000e+00
      endloop
   endfacet
   facet normal 0.000000e+00 -0.000000e+00 1.000000e+00
      outer loop
         vertex 1.800000e-01 -3.000000e-02 1.000000e+00
         vertex 1.800000e-01 3.000000e-02 1.000000e+00
         vertex 1.773853e-01 2.988584e-02 1.000000e+00
      endloop
   endfacet
   facet normal 0.000000e+00 0.000000e+00 1.000000e+00
      outer loop
         vertex 1.518521e+01 -2.954423e-02 1.000000e+00
         vertex 1.518776e+01 -2.897777e-02 1.000000e+00
         vertex 1.519500e+01 -2.598076e-02 1.000000e+00
      endloop
   endfacet
   facet normal 0.000000e+00 0.000000e+00 1.000000e+00
      outer loop
         vertex 1.519500e+01 -2.598076e-02 1.000000e+00
         vertex 1.518776e+01 -2.897777e-02 1.000000e+00
         vertex 1.519026e+01 -2.819078e-02 1.000000e+00
      endloop
   endfacet
   facet normal 0.000000e+00 0.000000e+00 1.000000e+00
      outer loop
         vertex 1.519500e+01 -2.598076e-02 1.000000e+00
         vertex 1.519026e+01 -2.819078e-02 1.000000e+00
         vertex 1.519268e+01 -2.718923e-02 1.000000e+00
      endloop
   endfacet
endsolid