solid single_vane
   facet normal -8.715564e-02 -9.961947e-01 0.000000e+00
      outer loop
         vertex 1.800000e-01 -3.000000e-02 -1.000000e+00
         vertex 1.800000e-01 -3.000000e-02 1.000000e+00
         vertex 1.747906e-01 -2.954423e-02 1.000000e+00
      endloop
   endfacet
   facet normal -8.715564e-02 -9.961947e-01 0.000000e+00
      outer loop
         vertex 1.800000e-01 -3.000000e-02 -1.000000e+00
         vertex 1.747906e-01 -2.954423e-02 1.000000e+00
         vertex 1.747906e-01 -2.954423e-02 -1.000000e+00
      endloop
   endfacet
   facet normal -2.588187e-01 -9.659259e-01 0.000000e+00
      outer loop
         vertex 1.747906e-01 -2.954423e-02 -1.000000e+00
         vertex 1.747906e-01 -2.954423e-02 1.000000e+00
         vertex 1.697394e-01 -2.819078e-02 1.000000e+00
      endloop
   endfacet
   facet normal -2.588187e-01 -9.659259e-01 0.000000e+00
      outer loop
         vertex 1.747906e-01 -2.954423e-02 -1.000000e+00
         vertex 1.697394e-01 -2.819078e-02 1.000000e+00
         vertex 1.697394e-01 -2.819078e-02 -1.000000e+00
      endloop
   endfacet
   facet normal -4.226189e-01 -9.063075e-01 0.000000e+00
      outer loop
         vertex 1.697394e-01 -2.819078e-02 -1.000000e+00
         vertex 1.697394e-01 -2.819078e-02 1.000000e+00
         vertex 1.650000e-01 -2.598076e-02 1.000000e+00
      endloop
   endfacet
   facet normal -4.226189e-01 -9.063075e-01 0.000000e+00
      outer loop
         vertex 1.697394e-01 -2.819078e-02 -1.000000e+00
         vertex 1.650000e-01 -2.598076e-02 1.000000e+00
         vertex 1.650000e-01 -2.598076e-02 -1.000000e+00
      endloop
   endfacet
   facet normal -5.735757e-01 -8.191526e-01 0.000000e+00
      outer loop
         vertex 1.650000e-01 -2.598076e-02 -1.000000e+00
         vertex 1.650000e-01 -2.598076e-02 1.000000e+00
         vertex 1.607164e-01 -2.298133e-02 1.000000e+00
      endloop
   endfacet
   facet normal -5.735757e-01 -8.191526e-01 0.000000e+00
      outer loop
         vertex 1.650000e-01 -2.598076e-02 -1.000000e+00
         vertex 1.607164e-01 -2.298133e-02 1.000000e+00
         vertex 1.607164e-01 -2.298133e-02 -1.000000e+00
      endloop
   endfacet
   facet normal -7.071064e-01 -7.071071e-01 0.000000e+00
      outer loop
         vertex 1.607164e-01 -2.298133e-02 -1.000000e+00
         vertex 1.607164e-01 -2.298133e-02 1.000000e+00
         vertex 1.570187e-01 -1.928363e-02 1.000000e+00
      endloop
   endfacet
   facet normal -7.071064e-01 -7.071071e-01 0.000000e+00
      outer loop
         vertex 1.607164e-01 -2.298133e-02 -1.000000e+00
         vertex 1.570187e-01 -1.928363e-02 1.000000e+00
         vertex 1.570187e-01 -1.928363e-02 -1.000000e+00
      endloop
   endfacet
   facet normal -8.191524e-01 -5.735759e-01 0.000000e+00
      outer loop
         vertex 1.570187e-01 -1.928363e-02 -1.000000e+00
         vertex 1.570187e-01 -1.928363e-02 1.000000e+00
         vertex 1.540192e-01 -1.500000e-02 1.000000e+00
      endloop
   endfacet
   facet normal -8.191524e-01 -5.735759e-01 0.000000e+00
      outer loop
         vertex 1.570187e-01 -1.928363e-02 -1.000000e+00
         vertex 1.540192e-01 -1.500000e-02 1.000000e+00
         vertex 1.540192e-01 -1.500000e-02 -1.000000e+00
      endloop
   endfacet
   facet normal -9.063074e-01 -4.226190e-01 0.000000e+00
      outer loop
         vertex 1.540192e-01 -1.500000e-02 -1.000000e+00
         vertex 1.540192e-01 -1.500000e-02 1.000000e+00
         vertex 1.518092e-01 -1.026060e-02 1.000000e+00
      endloop
   endfacet
   facet normal -9.063074e-01 -4.226190e-01 0.000000e+00
      outer loop
         vertex 1.540192e-01 -1.500000e-02 -1.000000e+00
         vertex 1.518092e-01 -1.026060e-02 1.000000e+00
         vertex 1.518092e-01 -1.026060e-02 -1.000000e+00
      endloop
   endfacet
   facet normal -9.659264e-01 -2.588170e-01 0.000000e+00
      outer loop
         vertex 1.518092e-01 -1.026060e-02 -1.000000e+00
         vertex 1.518092e-01 -1.026060e-02 1.000000e+00
         vertex 1.504558e-01 -5.209445e-03 1.000000e+00
      endloop
   endfacet
   facet normal -9.659264e-01 -2.588170e-01 0.000000e+00
      outer loop
         vertex 1.518092e-01 -1.026060e-02 -1.000000e+00
         vertex 1.504558e-01 -5.209445e-03 1.000000e+00
         vertex 1.504558e-01 -5.209445e-03 -1.000000e+00
      endloop
   endfacet
   facet normal -9.961947e-01 -8.715565e-02 0.000000e+00
      outer loop
         vertex 1.504558e-01 -5.209445e-03 -1.000000e+00
         vertex 1.504558e-01 -5.209445e-03 1.000000e+00
         vertex 1.500000e-01 3.673940e-18 1.000000e+00
      endloop
   endfacet
   facet normal -9.961947e-01 -8.715565e-02 0.000000e+00
      outer loop
         vertex 1.504558e-01 -5.209445e-03 -1.000000e+00
         vertex 1.500000e-01 3.673940e-18 1.000000e+00
         vertex 1.500000e-01 3.673940e-18 -1.000000e+00
      endloop
   endfacet
   facet normal -9.961947e-01 8.715565e-02 0.000000e+00
      outer loop
         vertex 1.500000e-01 3.673940e-18 -1.000000e+00
         vertex 1.500000e-01 3.673940e-18 1.000000e+00
         vertex 1.504558e-01 5.209445e-03 1.000000e+00
      endloop
   endfacet
   facet normal -9.961947e-01 8.715565e-02 0.000000e+00
      outer loop
         vertex 1.500000e-01 3.673940e-18 -1.000000e+00
         vertex 1.504558e-01 5.209445e-03 1.000000e+00
         vertex 1.504558e-01 5.209445e-03 -1.000000e+00
      endloop
   endfacet
   facet normal -9.659264e-01 2.588170e-01 0.000000e+00
      outer loop
         vertex 1.504558e-01 5.209445e-03 -1.000000e+00
         vertex 1.504558e-01 5.209445e-03 1.000000e+00
         vertex 1.518092e-01 1.026060e-02 1.000000e+00
      endloop
   endfacet
   facet normal -9.659264e-01 2.588170e-01 0.000000e+00
      outer loop
         vertex 1.504558e-01 5.209445e-03 -1.000000e+00
         vertex 1.518092e-01 1.026060e-02 1.000000e+00
         vertex 1.518092e-01 1.026060e-02 -1.000000e+00
      endloop
   endfacet
   facet normal -9.063074e-01 4.226190e-01 0.000000e+00
      outer loop
         vertex 1.518092e-01 1.026060e-02 -1.000000e+00
         vertex 1.518092e-01 1.026060e-02 1.000000e+00
         vertex 1.540192e-01 1.500000e-02 1.000000e+00
      endloop
   endfacet
   facet normal -9.063074e-01 4.226190e-01 0.000000e+00
      outer loop
         vertex 1.518092e-01 1.026060e-02 -1.000000e+00
         vertex 1.540192e-01 1.500000e-02 1.000000e+00
         vertex 1.540192e-01 1.500000e-02 -1.000000e+00
      endloop
   endfacet
   facet normal -8.191524e-01 5.735759e-01 0.000000e+00
      outer loop
         vertex 1.540192e-01 1.500000e-02 -1.000000e+00
         vertex 1.540192e-01 1.500000e-02 1.000000e+00
         vertex 1.570187e-01 1.928363e-02 1.000000e+00
      endloop
   endfacet
   facet normal -8.191524e-01 5.735759e-01 0.000000e+00
      outer loop
         vertex 1.540192e-01 1.500000e-02 -1.000000e+00
         vertex 1.570187e-01 1.928363e-02 1.000000e+00
         vertex 1.570187e-01 1.928363e-02 -1.000000e+00
      endloop
   endfacet
   facet normal -7.071064e-01 7.071071e-01 0.000000e+00
      outer loop
         vertex 1.570187e-01 1.928363e-02 -1.000000e+00
         vertex 1.570187e-01 1.928363e-02 1.000000e+00
         vertex 1.607164e-01 2.298133e-02 1.000000e+00
      endloop
   endfacet
   facet normal -7.071064e-01 7.071071e-01 0.000000e+00
      outer loop
         vertex 1.570187e-01 1.928363e-02 -1.000000e+00
         vertex 1.607164e-01 2.298133e-02 1.000000e+00
         vertex 1.607164e-01 2.298133e-02 -1.000000e+00
      endloop
   endfacet
   facet normal -5.735757e-01 8.191526e-01 0.000000e+00
      outer loop
         vertex 1.607164e-01 2.298133e-02 -1.000000e+00
         vertex 1.607164e-01 2.298133e-02 1.000000e+00
         vertex 1.650000e-01 2.598076e-02 1.000000e+00
      endloop
   endfacet
   facet normal -5.735757e-01 8.191526e-01 0.000000e+00
      outer loop
         vertex 1.607164e-01 2.298133e-02 -1.000000e+00
         vertex 1.650000e-01 2.598076e-02 1.000000e+00
         vertex 1.650000e-01 2.598076e-02 -1.000000e+00
      endloop
   endfacet
   facet normal -4.226189e-01 9.063075e-01 0.000000e+00
      outer loop
         vertex 1.650000e-01 2.598076e-02 -1.000000e+00
         vertex 1.650000e-01 2.598076e-02 1.000000e+00
         vertex 1.697394e-01 2.819078e-02 1.000000e+00
      endloop
   endfacet
   facet normal -4.226189e-01 9.063075e-01 0.000000e+00
      outer loop
         vertex 1.650000e-01 2.598076e-02 -1.000000e+00
         vertex 1.697394e-01 2.819078e-02 1.000000e+00
         vertex 1.697394e-01 2.819078e-02 -1.000000e+00
      endloop
   endfacet
   facet normal -2.588187e-01 9.659259e-01 0.000000e+00
      outer loop
         vertex 1.697394e-01 2.819078e-02 -1.000000e+00
         vertex 1.697394e-01 2.819078e-02 1.000000e+00
         vertex 1.747906e-01 2.954423e-02 1.000000e+00
      endloop
   endfacet
   facet normal -2.588187e-01 9.659259e-01 0.000000e+00
      outer loop
         vertex 1.697394e-01 2.819078e-02 -1.000000e+00
         vertex 1.747906e-01 2.954423e-02 1.000000e+00
         vertex 1.747906e-01 2.954423e-02 -1.000000e+00
      endloop
   endfacet
   facet normal -8.715564e-02 9.961947e-01 0.000000e+00
      outer loop
         vertex 1.747906e-01 2.954423e-02 -1.000000e+00
         vertex 1.747906e-01 2.954423e-02 1.000000e+00
         vertex 1.800000e-01 3.000000e-02 1.000000e+00
      endloop
   endfacet
   facet normal -8.715564e-02 9.961947e-01 0.000000e+00
      outer loop
         vertex 1.747906e-01 2.954423e-02 -1.000000e+00
         vertex 1.800000e-01 3.000000e-02 1.000000e+00
         vertex 1.800000e-01 3.000000e-02 -1.000000e+00
      endloop
   endfacet
   facet normal 0.000000e+00 1.000000e+00 0.000000e+00
      outer loop
         vertex 5.180000e+00 3.000000e-02 1.000000e+00
         vertex 5.180000e+00 3.000000e-02 -1.000000e+00
         vertex 1.800000e-01 3.000000e-02 1.000000e+00
      endloop
   endfacet
   facet normal 0.000000e+00 1.000000e+00 0.000000e+00
      outer loop
         vertex 1.800000e-01 3.000000e-02 1.000000e+00
         vertex 5.180000e+00 3.000000e-02 -1.000000e+00
         vertex 1.800000e-01 3.000000e-02 -1.000000e+00
      endloop
   endfacet
   facet normal 8.715564e-02 9.961947e-01 -0.000000e+00
      outer loop
         vertex 5.180000e+00 3.000000e-02 -1.000000e+00
         vertex 5.180000e+00 3.000000e-02 1.000000e+00
         vertex 5.185209e+00 2.954423e-02 1.000000e+00
      endloop
   endfacet
   facet normal 8.715564e-02 9.961947e-01 0.000000e+00
      outer loop
         vertex 5.180000e+00 3.000000e-02 -1.000000e+00
         vertex 5.185209e+00 2.954423e-02 1.000000e+00
         vertex 5.185209e+00 2.954423e-02 -1.000000e+00
      endloop
   endfacet
   facet normal 2.588201e-01 9.659255e-01 -0.000000e+00
      outer loop
         vertex 5.185209e+00 2.954423e-02 -1.000000e+00
         vertex 5.185209e+00 2.954423e-02 1.000000e+00
         vertex 5.190260e+00 2.819078e-02 1.000000e+00
      endloop
   endfacet
   facet normal 2.588201e-01 9.659255e-01 0.000000e+00
      outer loop
         vertex 5.185209e+00 2.954423e-02 -1.000000e+00
         vertex 5.190260e+00 2.819078e-02 1.000000e+00
         vertex 5.190260e+00 2.819078e-02 -1.000000e+00
      endloop
   endfacet
   facet normal 4.225916e-01 9.063202e-01 -0.000000e+00
      outer loop
         vertex 5.190260e+00 2.819078e-02 -1.000000e+00
         vertex 5.190260e+00 2.819078e-02 1.000000e+00
         vertex 5.195000e+00 2.598076e-02 1.000000e+00
      endloop
   endfacet
   facet normal 4.225916e-01 9.063202e-01 0.000000e+00
      outer loop
         vertex 5.190260e+00 2.819078e-02 -1.000000e+00
         vertex 5.195000e+00 2.598076e-02 1.000000e+00
         vertex 5.195000e+00 2.598076e-02 -1.000000e+00
      endloop
   endfacet
   facet normal 5.735944e-01 8.191395e-01 -0.000000e+00
      outer loop
         vertex 5.195000e+00 2.598076e-02 -1.000000e+00
         vertex 5.195000e+00 2.598076e-02 1.000000e+00
         vertex 5.199284e+00 2.298133e-02 1.000000e+00
      endloop
   endfacet
   facet normal 5.735944e-01 8.191395e-01 0.000000e+00
      outer loop
         vertex 5.195000e+00 2.598076e-02 -1.000000e+00
         vertex 5.199284e+00 2.298133e-02 1.000000e+00
         vertex 5.199284e+00 2.298133e-02 -1.000000e+00
      endloop
   endfacet
   facet normal 7.070908e-01 7.071228e-01 -0.000000e+00
      outer loop
         vertex 5.199284e+00 2.298133e-02 -1.000000e+00
         vertex 5.199284e+00 2.298133e-02 1.000000e+00
         vertex 5.202981e+00 1.928363e-02 1.000000e+00
      endloop
   endfacet
   facet normal 7.070908e-01 7.071228e-01 0.000000e+00
      outer loop
         vertex 5.199284e+00 2.298133e-02 -1.000000e+00
         vertex 5.202981e+00 1.928363e-02 1.000000e+00
         vertex 5.202981e+00 1.928363e-02 -1.000000e+00
      endloop
   endfacet
   facet normal 8.191631e-01 5.735606e-01 -0.000000e+00
      outer loop
         vertex 5.202981e+00 1.928363e-02 -1.000000e+00
         vertex 5.202981e+00 1.928363e-02 1.000000e+00
         vertex 5.205981e+00 1.500000e-02 1.000000e+00
      endloop
   endfacet
   facet normal 8.191631e-01 5.735606e-01 0.000000e+00
      outer loop
         vertex 5.202981e+00 1.928363e-02 -1.000000e+00
         vertex 5.205981e+00 1.500000e-02 1.000000e+00
         vertex 5.205981e+00 1.500000e-02 -1.000000e+00
      endloop
   endfacet
   facet normal 9.062987e-01 4.226377e-01 -0.000000e+00
      outer loop
         vertex 5.205981e+00 1.500000e-02 -1.000000e+00
         vertex 5.205981e+00 1.500000e-02 1.000000e+00
         vertex 5.208191e+00 1.026060e-02 1.000000e+00
      endloop
   endfacet
   facet normal 9.062987e-01 4.226377e-01 0.000000e+00
      outer loop
         vertex 5.205981e+00 1.500000e-02 -1.000000e+00
         vertex 5.208191e+00 1.026060e-02 1.000000e+00
         vertex 5.208191e+00 1.026060e-02 -1.000000e+00
      endloop
   endfacet
   facet normal 9.659349e-01 2.587851e-01 -0.000000e+00
      outer loop
         vertex 5.208191e+00 1.026060e-02 -1.000000e+00
         vertex 5.208191e+00 1.026060e-02 1.000000e+00
         vertex 5.209544e+00 5.209445e-03 1.000000e+00
      endloop
   endfacet
   facet normal 9.659349e-01 2.587851e-01 0.000000e+00
      outer loop
         vertex 5.208191e+00 1.026060e-02 -1.000000e+00
         vertex 5.209544e+00 5.209445e-03 1.000000e+00
         vertex 5.209544e+00 5.209445e-03 -1.000000e+00
      endloop
   endfacet
   facet normal 9.961932e-01 8.717261e-02 -0.000000e+00
      outer loop
         vertex 5.209544e+00 5.209445e-03 -1.000000e+00
         vertex 5.209544e+00 5.209445e-03 1.000000e+00
         vertex 5.210000e+00 -7.347881e-18 1.000000e+00
      endloop
   endfacet
   facet normal 9.961932e-01 8.717261e-02 0.000000e+00
      outer loop
         vertex 5.209544e+00 5.209445e-03 -1.000000e+00
         vertex 5.210000e+00 -7.347881e-18 1.000000e+00
         vertex 5.210000e+00 -7.347881e-18 -1.000000e+00
      endloop
   endfacet
   facet normal 9.961932e-01 -8.717261e-02 0.000000e+00
      outer loop
         vertex 5.210000e+00 -7.347881e-18 -1.000000e+00
         vertex 5.210000e+00 -7.347881e-18 1.000000e+00
         vertex 5.209544e+00 -5.209445e-03 1.000000e+00
      endloop
   endfacet
   facet normal 9.961932e-01 -8.717261e-02 0.000000e+00
      outer loop
         vertex 5.210000e+00 -7.347881e-18 -1.000000e+00
         vertex 5.209544e+00 -5.209445e-03 1.000000e+00
         vertex 5.209544e+00 -5.209445e-03 -1.000000e+00
      endloop
   endfacet
   facet normal 9.659349e-01 -2.587851e-01 0.000000e+00
      outer loop
         vertex 5.209544e+00 -5.209445e-03 -1.000000e+00
         vertex 5.209544e+00 -5.209445e-03 1.000000e+00
         vertex 5.208191e+00 -1.026060e-02 1.000000e+00
      endloop
   endfacet
   facet normal 9.659349e-01 -2.587851e-01 0.000000e+00
      outer loop
         vertex 5.209544e+00 -5.209445e-03 -1.000000e+00
         vertex 5.208191e+00 -1.026060e-02 1.000000e+00
         vertex 5.208191e+00 -1.026060e-02 -1.000000e+00
      endloop
   endfacet
   facet normal 9.062987e-01 -4.226377e-01 0.000000e+00
      outer loop
         vertex 5.208191e+00 -1.026060e-02 -1.000000e+00
         vertex 5.208191e+00 -1.026060e-02 1.000000e+00
         vertex 5.205981e+00 -1.500000e-02 1.000000e+00
      endloop
   endfacet
   facet normal 9.062987e-01 -4.226377e-01 0.000000e+00
      outer loop
         vertex 5.208191e+00 -1.026060e-02 -1.000000e+00
         vertex 5.205981e+00 -1.500000e-02 1.000000e+00
         vertex 5.205981e+00 -1.500000e-02 -1.000000e+00
      endloop
   endfacet
   facet normal 8.191631e-01 -5.735606e-01 0.000000e+00
      outer loop
         vertex 5.205981e+00 -1.500000e-02 -1.000000e+00
         vertex 5.205981e+00 -1.500000e-02 1.000000e+00
         vertex 5.202981e+00 -1.928363e-02 1.000000e+00
      endloop
   endfacet
   facet normal 8.191631e-01 -5.735606e-01 0.000000e+00
      outer loop
         vertex 5.205981e+00 -1.500000e-02 -1.000000e+00
         vertex 5.202981e+00 -1.928363e-02 1.000000e+00
         vertex 5.202981e+00 -1.928363e-02 -1.000000e+00
      endloop
   endfacet
   facet normal 7.070908e-01 -7.071228e-01 0.000000e+00
      outer loop
         vertex 5.202981e+00 -1.928363e-02 -1.000000e+00
         vertex 5.202981e+00 -1.928363e-02 1.000000e+00
         vertex 5.199284e+00 -2.298133e-02 1.000000e+00
      endloop
   endfacet
   facet normal 7.070908e-01 -7.071228e-01 0.000000e+00
      outer loop
         vertex 5.202981e+00 -1.928363e-02 -1.000000e+00
         vertex 5.199284e+00 -2.298133e-02 1.000000e+00
         vertex 5.199284e+00 -2.298133e-02 -1.000000e+00
      endloop
   endfacet
   facet normal 5.735944e-01 -8.191395e-01 0.000000e+00
      outer loop
         vertex 5.199284e+00 -2.298133e-02 -1.000000e+00
         vertex 5.199284e+00 -2.298133e-02 1.000000e+00
         vertex 5.195000e+00 -2.598076e-02 1.000000e+00
      endloop
   endfacet
   facet normal 5.735944e-01 -8.191395e-01 0.000000e+00
      outer loop
         vertex 5.199284e+00 -2.298133e-02 -1.000000e+00
         vertex 5.195000e+00 -2.598076e-02 1.000000e+00
         vertex 5.195000e+00 -2.598076e-02 -1.000000e+00
      endloop
   endfacet
   facet normal 4.225916e-01 -9.063202e-01 0.000000e+00
      outer loop
         vertex 5.195000e+00 -2.598076e-02 -1.000000e+00
         vertex 5.195000e+00 -2.598076e-02 1.000000e+00
         vertex 5.190260e+00 -2.819078e-02 1.000000e+00
      endloop
   endfacet
   facet normal 4.225916e-01 -9.063202e-01 0.000000e+00
      outer loop
         vertex 5.195000e+00 -2.598076e-02 -1.000000e+00
         vertex 5.190260e+00 -2.819078e-02 1.000000e+00
         vertex 5.190260e+00 -2.819078e-02 -1.000000e+00
      endloop
   endfacet
   facet normal 2.588201e-01 -9.659255e-01 0.000000e+00
      outer loop
         vertex 5.190260e+00 -2.819078e-02 -1.000000e+00
         vertex 5.190260e+00 -2.819078e-02 1.000000e+00
         vertex 5.185209e+00 -2.954423e-02 1.000000e+00
      endloop
   endfacet
   facet normal 2.588201e-01 -9.659255e-01 0.000000e+00
      outer loop
         vertex 5.190260e+00 -2.819078e-02 -1.000000e+00
         vertex 5.185209e+00 -2.954423e-02 1.000000e+00
         vertex 5.185209e+00 -2.954423e-02 -1.000000e+00
      endloop
   endfacet
   facet normal 8.715564e-02 -9.961947e-01 0.000000e+00
      outer loop
         vertex 5.185209e+00 -2.954423e-02 -1.000000e+00
         vertex 5.185209e+00 -2.954423e-02 1.000000e+00
         vertex 5.180000e+00 -3.000000e-02 1.000000e+00
      endloop
   endfacet
   facet normal 8.715564e-02 -9.961947e-01 0.000000e+00
      outer loop
         vertex 5.185209e+00 -2.954423e-02 -1.000000e+00
         vertex 5.180000e+00 -3.000000e-02 1.000000e+00
         vertex 5.180000e+00 -3.000000e-02 -1.000000e+00
      endloop
   endfacet
   facet normal 0.000000e+00 -1.000000e+00 0.000000e+00
      outer loop
         vertex 1.800000e-01 -3.000000e-02 1.000000e+00
         vertex 1.800000e-01 -3.000000e-02 -1.000000e+00
         vertex 5.180000e+00 -3.000000e-02 1.000000e+00
      endloop
   endfacet
   facet normal 0.000000e+00 -1.000000e+00 -0.000000e+00
      outer loop
         vertex 5.180000e+00 -3.000000e-02 1.000000e+00
         vertex 1.800000e-01 -3.000000e-02 -1.000000e+00
         vertex 5.180000e+00 -3.000000e-02 -1.000000e+00
      endloop
   endfacet
   facet normal 0.000000e+00 0.000000e+00 -1.000000e+00
      outer loop
         vertex 1.800000e-01 -3.000000e-02 -1.000000e+00
         vertex 1.500000e-01 3.673940e-18 -1.000000e+00
         vertex 1.504558e-01 5.209445e-03 -1.000000e+00
      endloop
   endfacet
   facet normal 0.000000e+00 0.000000e+00 -1.000000e+00
      outer loop
         vertex 1.504558e-01 5.209445e-03 -1.000000e+00
         vertex 1.518092e-01 1.026060e-02 -1.000000e+00
         vertex 1.800000e-01 -3.000000e-02 -1.000000e+00
      endloop
   endfacet
   facet normal 0.000000e+00 0.000000e+00 -1.000000e+00
      outer loop
         vertex 1.800000e-01 -3.000000e-02 -1.000000e+00
         vertex 1.518092e-01 1.026060e-02 -1.000000e+00
         vertex 1.540192e-01 1.500000e-02 -1.000000e+00
      endloop
   endfacet
   facet normal 0.000000e+00 0.000000e+00 -1.000000e+00
      outer loop
         vertex 1.800000e-01 -3.000000e-02 -1.000000e+00
         vertex 1.540192e-01 1.500000e-02 -1.000000e+00
         vertex 1.570187e-01 1.928363e-02 -1.000000e+00
      endloop
   endfacet
   facet normal -0.000000e+00 -0.000000e+00 -1.000000e+00
      outer loop
         vertex 5.208191e+00 1.026060e-02 -1.000000e+00
         vertex 5.209544e+00 5.209445e-03 -1.000000e+00
         vertex 5.180000e+00 3.000000e-02 -1.000000e+00
      endloop
   endfacet
   facet normal 0.000000e+00 0.000000e+00 -1.000000e+00
      outer loop
         vertex 5.180000e+00 3.000000e-02 -1.000000e+00
         vertex 5.209544e+00 5.209445e-03 -1.000000e+00
         vertex 5.210000e+00 -7.347881e-18 -1.000000e+00
      endloop
   endfacet
   facet normal -0.000000e+00 0.000000e+00 -1.000000e+00
      outer loop
         vertex 5.210000e+00 -7.347881e-18 -1.000000e+00
         vertex 5.209544e+00 -5.209445e-03 -1.000000e+00
         vertex 5.180000e+00 3.000000e-02 -1.000000e+00
      endloop
   endfacet
   facet normal 0.000000e+00 0.000000e+00 -1.000000e+00
      outer loop
         vertex 5.180000e+00 3.000000e-02 -1.000000e+00
         vertex 5.209544e+00 -5.209445e-03 -1.000000e+00
         vertex 5.208191e+00 -1.026060e-02 -1.000000e+00
      endloop
   endfacet
   facet normal 0.000000e+00 0.000000e+00 -1.000000e+00
      outer loop
         vertex 5.180000e+00 3.000000e-02 -1.000000e+00
         vertex 5.208191e+00 -1.026060e-02 -1.000000e+00
         vertex 5.205981e+00 -1.500000e-02 -1.000000e+00
      endloop
   endfacet
   facet normal 0.000000e+00 0.000000e+00 -1.000000e+00
      outer loop
         vertex 1.697394e-01 -2.819078e-02 -1.000000e+00
         vertex 1.540192e-01 -1.500000e-02 -1.000000e+00
         vertex 1.518092e-01 -1.026060e-02 -1.000000e+00
      endloop
   endfacet
   facet normal 0.000000e+00 0.000000e+00 -1.000000e+00
      outer loop
         vertex 1.570187e-01 1.928363e-02 -1.000000e+00
         vertex 1.607164e-01 2.298133e-02 -1.000000e+00
         vertex 1.800000e-01 -3.000000e-02 -1.000000e+00
      endloop
   endfacet
   facet normal 0.000000e+00 0.000000e+00 -1.000000e+00
      outer loop
         vertex 1.800000e-01 -3.000000e-02 -1.000000e+00
         vertex 1.607164e-01 2.298133e-02 -1.000000e+00
         vertex 1.650000e-01 2.598076e-02 -1.000000e+00
      endloop
   endfacet
   facet normal 0.000000e+00 0.000000e+00 -1.000000e+00
      outer loop
         vertex 1.800000e-01 -3.000000e-02 -1.000000e+00
         vertex 1.650000e-01 2.598076e-02 -1.000000e+00
         vertex 1.697394e-01 2.819078e-02 -1.000000e+00
      endloop
   endfacet
   facet normal 0.000000e+00 0.000000e+00 -1.000000e+00
      outer loop
         vertex 5.180000e+00 3.000000e-02 -1.000000e+00
         vertex 5.195000e+00 -2.598076e-02 -1.000000e+00
         vertex 5.190260e+00 -2.819078e-02 -1.000000e+00
      endloop
   endfacet
   facet normal 0.000000e+00 0.000000e+00 -1.000000e+00
      outer loop
         vertex 1.697394e-01 -2.819078e-02 -1.000000e+00
         vertex 1.650000e-01 -2.598076e-02 -1.000000e+00
         vertex 1.540192e-01 -1.500000e-02 -1.000000e+00
      endloop
   endfacet
   facet normal 0.000000e+00 0.000000e+00 -1.000000e+00
      outer loop
         vertex 1.540192e-01 -1.500000e-02 -1.000000e+00
         vertex 1.650000e-01 -2.598076e-02 -1.000000e+00
         vertex 1.607164e-01 -2.298133e-02 -1.000000e+00
      endloop
   endfacet
   facet normal 0.000000e+00 0.000000e+00 -1.000000e+00
      outer loop
         vertex 1.540192e-01 -1.500000e-02 -1.000000e+00
         vertex 1.607164e-01 -2.298133e-02 -1.000000e+00
         vertex 1.570187e-01 -1.928363e-02 -1.000000e+00
      endloop
   endfacet
   facet normal 0.000000e+00 0.000000e+00 -1.000000e+00
      outer loop
         vertex 1.800000e-01 -3.000000e-02 -1.000000e+00
         vertex 1.747906e-01 -2.954423e-02 -1.000000e+00
         vertex 1.500000e-01 3.673940e-18 -1.000000e+00
      endloop
   endfacet
   facet normal 0.000000e+00 0.000000e+00 -1.000000e+00
      outer loop
         vertex 1.500000e-01 3.673940e-18 -1.000000e+00
         vertex 1.747906e-01 -2.954423e-02 -1.000000e+00
         vertex 1.697394e-01 -2.819078e-02 -1.000000e+00
      endloop
   endfacet
   facet normal 0.000000e+00 0.000000e+00 -1.000000e+00
      outer loop
         vertex 1.500000e-01 3.673940e-18 -1.000000e+00
         vertex 1.697394e-01 -2.819078e-02 -1.000000e+00
         vertex 1.504558e-01 -5.209445e-03 -1.000000e+00
      endloop
   endfacet
   facet normal 0.000000e+00 0.000000e+00 -1.000000e+00
      outer loop
         vertex 1.504558e-01 -5.209445e-03 -1.000000e+00
         vertex 1.697394e-01 -2.819078e-02 -1.000000e+00
         vertex 1.518092e-01 -1.026060e-02 -1.000000e+00
      endloop
   endfacet
   facet normal 0.000000e+00 0.000000e+00 -1.000000e+00
      outer loop
         vertex 5.190260e+00 2.819078e-02 -1.000000e+00
         vertex 5.195000e+00 2.598076e-02 -1.000000e+00
         vertex 5.205981e+00 1.500000e-02 -1.000000e+00
      endloop
   endfacet
   facet normal 0.000000e+00 0.000000e+00 -1.000000e+00
      outer loop
         vertex 5.205981e+00 1.500000e-02 -1.000000e+00
         vertex 5.195000e+00 2.598076e-02 -1.000000e+00
         vertex 5.199284e+00 2.298133e-02 -1.000000e+00
      endloop
   endfacet
   facet normal 0.000000e+00 0.000000e+00 -1.000000e+00
      outer loop
         vertex 5.205981e+00 1.500000e-02 -1.000000e+00
         vertex 5.199284e+00 2.298133e-02 -1.000000e+00
         vertex 5.202981e+00 1.928363e-02 -1.000000e+00
      endloop
   endfacet
   facet normal -0.000000e+00 0.000000e+00 -1.000000e+00
      outer loop
         vertex 5.205981e+00 -1.500000e-02 -1.000000e+00
         vertex 5.202981e+00 -1.928363e-02 -1.000000e+00
         vertex 5.180000e+00 3.000000e-02 -1.000000e+00
      endloop
   endfacet
   facet normal 0.000000e+00 0.000000e+00 -1.000000e+00
      outer loop
         vertex 5.180000e+00 3.000000e-02 -1.000000e+00
         vertex 5.202981e+00 -1.928363e-02 -1.000000e+00
         vertex 5.199284e+00 -2.298133e-02 -1.000000e+00
      endloop
   endfacet
   facet normal 0.000000e+00 0.000000e+00 -1.000000e+00
      outer loop
         vertex 5.180000e+00 3.000000e-02 -1.000000e+00
         vertex 5.199284e+00 -2.298133e-02 -1.000000e+00
         vertex 5.195000e+00 -2.598076e-02 -1.000000e+00
      endloop
   endfacet
   facet normal 0.000000e+00 0.000000e+00 -1.000000e+00
      outer loop
         vertex 1.697394e-01 2.819078e-02 -1.000000e+00
         vertex 1.747906e-01 2.954423e-02 -1.000000e+00
         vertex 1.800000e-01 -3.000000e-02 -1.000000e+00
      endloop
   endfacet
   facet normal 0.000000e+00 0.000000e+00 -1.000000e+00
      outer loop
         vertex 1.800000e-01 -3.000000e-02 -1.000000e+00
         vertex 1.747906e-01 2.954423e-02 -1.000000e+00
         vertex 1.800000e-01 3.000000e-02 -1.000000e+00
      endloop
   endfacet
   facet normal 0.000000e+00 0.000000e+00 -1.000000e+00
      outer loop
         vertex 1.800000e-01 -3.000000e-02 -1.000000e+00
         vertex 1.800000e-01 3.000000e-02 -1.000000e+00
         vertex 5.180000e+00 -3.000000e-02 -1.000000e+00
      endloop
   endfacet
   facet normal 0.000000e+00 0.000000e+00 -1.000000e+00
      outer loop
         vertex 5.180000e+00 -3.000000e-02 -1.000000e+00
         vertex 1.800000e-01 3.000000e-02 -1.000000e+00
         vertex 5.180000e+00 3.000000e-02 -1.000000e+00
      endloop
   endfacet
   facet normal 0.000000e+00 0.000000e+00 -1.000000e+00
      outer loop
         vertex 5.180000e+00 -3.000000e-02 -1.000000e+00
         vertex 5.180000e+00 3.000000e-02 -1.000000e+00
         vertex 5.185209e+00 -2.954423e-02 -1.000000e+00
      endloop
   endfacet
   facet normal 0.000000e+00 0.000000e+00 -1.000000e+00
      outer loop
         vertex 5.185209e+00 -2.954423e-02 -1.000000e+00
         vertex 5.180000e+00 3.000000e-02 -1.000000e+00
         vertex 5.190260e+00 -2.819078e-02 -1.000000e+00
      endloop
   endfacet
   facet normal 0.000000e+00 0.000000e+00 -1.000000e+00
      outer loop
         vertex 5.208191e+00 1.026060e-02 -1.000000e+00
         vertex 5.180000e+00 3.000000e-02 -1.000000e+00
         vertex 5.205981e+00 1.500000e-02 -1.000000e+00
      endloop
   endfacet
   facet normal 0.000000e+00 0.000000e+00 -1.000000e+00
      outer loop
         vertex 5.205981e+00 1.500000e-02 -1.000000e+00
         vertex 5.180000e+00 3.000000e-02 -1.000000e+00
         vertex 5.185209e+00 2.954423e-02 -1.000000e+00
      endloop
   endfacet
   facet normal 0.000000e+00 0.000000e+00 -1.000000e+00
      outer loop
         vertex 5.205981e+00 1.500000e-02 -1.000000e+00
         vertex 5.185209e+00 2.954423e-02 -1.000000e+00
         vertex 5.190260e+00 2.819078e-02 -1.000000e+00
      endloop
   endfacet
   facet normal -0.000000e+00 0.000000e+00 1.000000e+00
      outer loop
         vertex 1.518092e-01 1.026060e-02 1.000000e+00
         vertex 1.800000e-01 -3.000000e-02 1.000000e+00
         vertex 1.540192e-01 1.500000e-02 1.000000e+00
      endloop
   endfacet
   facet normal -0.000000e+00 0.000000e+00 1.000000e+00
      outer loop
         vertex 1.540192e-01 1.500000e-02 1.000000e+00
         vertex 1.800000e-01 -3.000000e-02 1.000000e+00
         vertex 1.570187e-01 1.928363e-02 1.000000e+00
      endloop
   endfacet
   facet normal 0.000000e+00 0.000000e+00 1.000000e+00
      outer loop
         vertex 1.800000e-01 3.000000e-02 1.000000e+00
         vertex 1.747906e-01 2.954423e-02 1.000000e+00
         vertex 1.800000e-01 -3.000000e-02 1.000000e+00
      endloop
   endfacet
   facet normal 0.000000e+00 0.000000e+00 1.000000e+00
      outer loop
         vertex 1.800000e-01 -3.000000e-02 1.000000e+00
         vertex 1.747906e-01 2.954423e-02 1.000000e+00
         vertex 1.697394e-01 2.819078e-02 1.000000e+00
      endloop
   endfacet
   facet normal 0.000000e+00 -0.000000e+00 1.000000e+00
      outer loop
         vertex 5.208191e+00 -1.026060e-02 1.000000e+00
         vertex 5.209544e+00 -5.209445e-03 1.000000e+00
         vertex 5.180000e+00 3.000000e-02 1.000000e+00
      endloop
   endfacet
   facet normal 0.000000e+00 0.000000e+00 1.000000e+00
      outer loop
         vertex 5.180000e+00 3.000000e-02 1.000000e+00
         vertex 5.209544e+00 -5.209445e-03 1.000000e+00
         vertex 5.210000e+00 -7.347881e-18 1.000000e+00
      endloop
   endfacet
   facet normal 0.000000e+00 0.000000e+00 1.000000e+00
      outer loop
         vertex 5.180000e+00 3.000000e-02 1.000000e+00
         vertex 5.210000e+00 -7.347881e-18 1.000000e+00
         vertex 5.209544e+00 5.209445e-03 1.000000e+00
      endloop
   endfacet
   facet normal 0.000000e+00 0.000000e+00 1.000000e+00
      outer loop
         vertex 1.518092e-01 1.026060e-02 1.000000e+00
         vertex 1.504558e-01 5.209445e-03 1.000000e+00
         vertex 1.800000e-01 -3.000000e-02 1.000000e+00
      endloop
   endfacet
   facet normal 0.000000e+00 0.000000e+00 1.000000e+00
      outer loop
         vertex 1.800000e-01 -3.000000e-02 1.000000e+00
         vertex 1.504558e-01 5.209445e-03 1.000000e+00
         vertex 1.500000e-01 3.673940e-18 1.000000e+00
      endloop
   endfacet
   facet normal 0.000000e+00 0.000000e+00 1.000000e+00
      outer loop
         vertex 1.800000e-01 -3.000000e-02 1.000000e+00
         vertex 1.500000e-01 3.673940e-18 1.000000e+00
         vertex 1.504558e-01 -5.209445e-03 1.000000e+00
      endloop
   endfacet
   facet normal 0.000000e+00 0.000000e+00 1.000000e+00
      outer loop
         vertex 1.504558e-01 -5.209445e-03 1.000000e+00
         vertex 1.518092e-01 -1.026060e-02 1.000000e+00
         vertex 1.800000e-01 -3.000000e-02 1.000000e+00
      endloop
   endfacet
   facet normal 0.000000e+00 0.000000e+00 1.000000e+00
      outer loop
         vertex 1.800000e-01 -3.000000e-02 1.000000e+00
         vertex 1.518092e-01 -1.026060e-02 1.000000e+00
         vertex 1.540192e-01 -1.500000e-02 1.000000e+00
      endloop
   endfacet
   facet normal 0.000000e+00 0.000000e+00 1.000000e+00
      outer loop
         vertex 1.800000e-01 -3.000000e-02 1.000000e+00
         vertex 1.540192e-01 -1.500000e-02 1.000000e+00
         vertex 1.747906e-01 -2.954423e-02 1.000000e+00
      endloop
   endfacet
   facet normal 0.000000e+00 0.000000e+00 1.000000e+00
      outer loop
         vertex 1.747906e-01 -2.954423e-02 1.000000e+00
         vertex 1.540192e-01 -1.500000e-02 1.000000e+00
         vertex 1.697394e-01 -2.819078e-02 1.000000e+00
      endloop
   endfacet
   facet normal 0.000000e+00 -0.000000e+00 1.000000e+00
      outer loop
         vertex 5.185209e+00 -2.954423e-02 1.000000e+00
         vertex 5.190260e+00 -2.819078e-02 1.000000e+00
         vertex 5.180000e+00 3.000000e-02 1.000000e+00
      endloop
   endfacet
   facet normal 0.000000e+00 0.000000e+00 1.000000e+00
      outer loop
         vertex 5.180000e+00 3.000000e-02 1.000000e+00
         vertex 5.190260e+00 -2.819078e-02 1.000000e+00
         vertex 5.195000e+00 -2.598076e-02 1.000000e+00
      endloop
   endfacet
   facet normal 0.000000e+00 0.000000e+00 1.000000e+00
      outer loop
         vertex 5.180000e+00 3.000000e-02 1.000000e+00
         vertex 5.195000e+00 -2.598076e-02 1.000000e+00
         vertex 5.199284e+00 -2.298133e-02 1.000000e+00
      endloop
   endfacet
   facet normal 0.000000e+00 0.000000e+00 1.000000e+00
      outer loop
         vertex 1.697394e-01 2.819078e-02 1.000000e+00
         vertex 1.650000e-01 2.598076e-02 1.000000e+00
         vertex 1.800000e-01 -3.000000e-02 1.000000e+00
      endloop
   endfacet
   facet normal 0.000000e+00 0.000000e+00 1.000000e+00
      outer loop
         vertex 1.800000e-01 -3.000000e-02 1.000000e+00
         vertex 1.650000e-01 2.598076e-02 1.000000e+00
         vertex 1.607164e-01 2.298133e-02 1.000000e+00
      endloop
   endfacet
   facet normal 0.000000e+00 0.000000e+00 1.000000e+00
      outer loop
         vertex 1.800000e-01 -3.000000e-02 1.000000e+00
         vertex 1.607164e-01 2.298133e-02 1.000000e+00
         vertex 1.570187e-01 1.928363e-02 1.000000e+00
      endloop
   endfacet
   facet normal 0.000000e+00 0.000000e+00 1.000000e+00
      outer loop
         vertex 1.697394e-01 -2.819078e-02 1.000000e+00
         vertex 1.540192e-01 -1.500000e-02 1.000000e+00
         vertex 1.650000e-01 -2.598076e-02 1.000000e+00
      endloop
   endfacet
   facet normal 0.000000e+00 0.000000e+00 1.000000e+00
      outer loop
         vertex 1.650000e-01 -2.598076e-02 1.000000e+00
         vertex 1.540192e-01 -1.500000e-02 1.000000e+00
         vertex 1.570187e-01 -1.928363e-02 1.000000e+00
      endloop
   endfacet
   facet normal 0.000000e+00 0.000000e+00 1.000000e+00
      outer loop
         vertex 1.650000e-01 -2.598076e-02 1.000000e+00
         vertex 1.570187e-01 -1.928363e-02 1.000000e+00
         vertex 1.607164e-01 -2.298133e-02 1.000000e+00
      endloop
   endfacet
   facet normal -0.000000e+00 0.000000e+00 1.000000e+00
      outer loop
         vertex 1.800000e-01 3.000000e-02 1.000000e+00
         vertex 1.800000e-01 -3.000000e-02 1.000000e+00
         vertex 5.180000e+00 3.000000e-02 1.000000e+00
      endloop
   endfacet
   facet normal 0.000000e+00 0.000000e+00 1.000000e+00
      outer loop
         vertex 5.180000e+00 3.000000e-02 1.000000e+00
         vertex 1.800000e-01 -3.000000e-02 1.000000e+00
         vertex 5.180000e+00 -3.000000e-02 1.000000e+00
      endloop
   endfacet
   facet normal 0.000000e+00 0.000000e+00 1.000000e+00
      outer loop
         vertex 5.180000e+00 3.000000e-02 1.000000e+00
         vertex 5.180000e+00 -3.000000e-02 1.000000e+00
         vertex 5.185209e+00 -2.954423e-02 1.000000e+00
      endloop
   endfacet
   facet normal 0.000000e+00 -0.000000e+00 1.000000e+00
      outer loop
         vertex 5.199284e+00 -2.298133e-02 1.000000e+00
         vertex 5.202981e+00 -1.928363e-02 1.000000e+00
         vertex 5.180000e+00 3.000000e-02 1.000000e+00
      endloop
   endfacet
   facet normal 0.000000e+00 0.000000e+00 1.000000e+00
      outer loop
         vertex 5.180000e+00 3.000000e-02 1.000000e+00
         vertex 5.202981e+00 -1.928363e-02 1.000000e+00
         vertex 5.205981e+00 -1.500000e-02 1.000000e+00
      endloop
   endfacet
   facet normal 0.000000e+00 0.000000e+00 1.000000e+00
      outer loop
         vertex 5.180000e+00 3.000000e-02 1.000000e+00
         vertex 5.205981e+00 -1.500000e-02 1.000000e+00
         vertex 5.208191e+00 -1.026060e-02 1.000000e+00
      endloop
   endfacet
   facet normal 0.000000e+00 0.000000e+00 1.000000e+00
      outer loop
         vertex 5.202981e+00 1.928363e-02 1.000000e+00
         vertex 5.199284e+00 2.298133e-02 1.000000e+00
         vertex 5.205981e+00 1.500000e-02 1.000000e+00
      endloop
   endfacet
   facet normal 0.000000e+00 0.000000e+00 1.000000e+00
      outer loop
         vertex 5.205981e+00 1.500000e-02 1.000000e+00
         vertex 5.199284e+00 2.298133e-02 1.000000e+00
         vertex 5.195000e+00 2.598076e-02 1.000000e+00
      endloop
   endfacet
   facet normal 0.000000e+00 0.000000e+00 1.000000e+00
      outer loop
         vertex 5.205981e+00 1.500000e-02 1.000000e+00
         vertex 5.195000e+00 2.598076e-02 1.000000e+00
         vertex 5.190260e+00 2.819078e-02 1.000000e+00
      endloop
   endfacet
   facet normal 0.000000e+00 0.000000e+00 1.000000e+00
      outer loop
         vertex 5.209544e+00 5.209445e-03 1.000000e+00
         vertex 5.208191e+00 1.026060e-02 1.000000e+00
         vertex 5.180000e+00 3.000000e-02 1.000000e+00
      endloop
   endfacet
   facet normal 0.000000e+00 0.000000e+00 1.000000e+00
      outer loop
         vertex 5.180000e+00 3.000000e-02 1.000000e+00
         vertex 5.208191e+00 1.026060e-02 1.000000e+00
         vertex 5.205981e+00 1.500000e-02 1.000000e+00
      endloop
   endfacet
   facet normal 0.000000e+00 0.000000e+00 1.000000e+00
      outer loop
         vertex 5.180000e+00 3.000000e-02 1.000000e+00
         vertex 5.205981e+00 1.500000e-02 1.000000e+00
         vertex 5.185209e+00 2.954423e-02 1.000000e+00
      endloop
   endfacet
   facet normal 0.000000e+00 0.000000e+00 1.000000e+00
      outer loop
         vertex 5.185209e+00 2.954423e-02 1.000000e+00
         vertex 5.205981e+00 1.500000e-02 1.000000e+00
         vertex 5.190260e+00 2.819078e-02 1.000000e+00
      endloop
   endfacet
endsolid