solid basic_vane
   facet normal -4.361883e-02 -9.990482e-01 0.000000e+00
      outer loop
         vertex 1.800000e-01 -1.500000e-02 -1.000000e+00
         vertex 1.800000e-01 -1.500000e-02 1.000000e+00
         vertex 1.786927e-01 -1.494292e-02 1.000000e+00
      endloop
   endfacet
   facet normal -4.361883e-02 -9.990482e-01 0.000000e+00
      outer loop
         vertex 1.800000e-01 -1.500000e-02 -1.000000e+00
         vertex 1.786927e-01 -1.494292e-02 1.000000e+00
         vertex 1.786927e-01 -1.494292e-02 -1.000000e+00
      endloop
   endfacet
   facet normal -1.305267e-01 -9.914448e-01 0.000000e+00
      outer loop
         vertex 1.786927e-01 -1.494292e-02 -1.000000e+00
         vertex 1.786927e-01 -1.494292e-02 1.000000e+00
         vertex 1.773953e-01 -1.477212e-02 1.000000e+00
      endloop
   endfacet
   facet normal -1.305267e-01 -9.914448e-01 0.000000e+00
      outer loop
         vertex 1.786927e-01 -1.494292e-02 -1.000000e+00
         vertex 1.773953e-01 -1.477212e-02 1.000000e+00
         vertex 1.773953e-01 -1.477212e-02 -1.000000e+00
      endloop
   endfacet
   facet normal -2.164393e-01 -9.762961e-01 0.000000e+00
      outer loop
         vertex 1.773953e-01 -1.477212e-02 -1.000000e+00
         vertex 1.773953e-01 -1.477212e-02 1.000000e+00
         vertex 1.761177e-01 -1.448889e-02 1.000000e+00
      endloop
   endfacet
   facet normal -2.164393e-01 -9.762961e-01 0.000000e+00
      outer loop
         vertex 1.773953e-01 -1.477212e-02 -1.000000e+00
         vertex 1.761177e-01 -1.448889e-02 1.000000e+00
         vertex 1.761177e-01 -1.448889e-02 -1.000000e+00
      endloop
   endfacet
   facet normal -3.007055e-01 -9.537171e-01 0.000000e+00
      outer loop
         vertex 1.761177e-01 -1.448889e-02 -1.000000e+00
         vertex 1.761177e-01 -1.448889e-02 1.000000e+00
         vertex 1.748697e-01 -1.409539e-02 1.000000e+00
      endloop
   endfacet
   facet normal -3.007055e-01 -9.537171e-01 0.000000e+00
      outer loop
         vertex 1.761177e-01 -1.448889e-02 -1.000000e+00
         vertex 1.748697e-01 -1.409539e-02 1.000000e+00
         vertex 1.748697e-01 -1.409539e-02 -1.000000e+00
      endloop
   endfacet
   facet normal -3.826821e-01 -9.238801e-01 0.000000e+00
      outer loop
         vertex 1.748697e-01 -1.409539e-02 -1.000000e+00
         vertex 1.748697e-01 -1.409539e-02 1.000000e+00
         vertex 1.736607e-01 -1.359462e-02 1.000000e+00
      endloop
   endfacet
   facet normal -3.826821e-01 -9.238801e-01 0.000000e+00
      outer loop
         vertex 1.748697e-01 -1.409539e-02 -1.000000e+00
         vertex 1.736607e-01 -1.359462e-02 1.000000e+00
         vertex 1.736607e-01 -1.359462e-02 -1.000000e+00
      endloop
   endfacet
   facet normal -4.617491e-01 -8.870106e-01 0.000000e+00
      outer loop
         vertex 1.736607e-01 -1.359462e-02 -1.000000e+00
         vertex 1.736607e-01 -1.359462e-02 1.000000e+00
         vertex 1.725000e-01 -1.299038e-02 1.000000e+00
      endloop
   endfacet
   facet normal -4.617491e-01 -8.870106e-01 0.000000e+00
      outer loop
         vertex 1.736607e-01 -1.359462e-02 -1.000000e+00
         vertex 1.725000e-01 -1.299038e-02 1.000000e+00
         vertex 1.725000e-01 -1.299038e-02 -1.000000e+00
      endloop
   endfacet
   facet normal -5.373019e-01 -8.433900e-01 0.000000e+00
      outer loop
         vertex 1.725000e-01 -1.299038e-02 -1.000000e+00
         vertex 1.725000e-01 -1.299038e-02 1.000000e+00
         vertex 1.713964e-01 -1.228728e-02 1.000000e+00
      endloop
   endfacet
   facet normal -5.373019e-01 -8.433900e-01 0.000000e+00
      outer loop
         vertex 1.725000e-01 -1.299038e-02 -1.000000e+00
         vertex 1.713964e-01 -1.228728e-02 1.000000e+00
         vertex 1.713964e-01 -1.228728e-02 -1.000000e+00
      endloop
   endfacet
   facet normal -6.087574e-01 -7.933564e-01 0.000000e+00
      outer loop
         vertex 1.713964e-01 -1.228728e-02 -1.000000e+00
         vertex 1.713964e-01 -1.228728e-02 1.000000e+00
         vertex 1.703582e-01 -1.149067e-02 1.000000e+00
      endloop
   endfacet
   facet normal -6.087574e-01 -7.933564e-01 0.000000e+00
      outer loop
         vertex 1.713964e-01 -1.228728e-02 -1.000000e+00
         vertex 1.703582e-01 -1.149067e-02 1.000000e+00
         vertex 1.703582e-01 -1.149067e-02 -1.000000e+00
      endloop
   endfacet
   facet normal -6.755945e-01 -7.372734e-01 0.000000e+00
      outer loop
         vertex 1.703582e-01 -1.149067e-02 -1.000000e+00
         vertex 1.703582e-01 -1.149067e-02 1.000000e+00
         vertex 1.693934e-01 -1.060660e-02 1.000000e+00
      endloop
   endfacet
   facet normal -6.755945e-01 -7.372734e-01 0.000000e+00
      outer loop
         vertex 1.703582e-01 -1.149067e-02 -1.000000e+00
         vertex 1.693934e-01 -1.060660e-02 1.000000e+00
         vertex 1.693934e-01 -1.060660e-02 -1.000000e+00
      endloop
   endfacet
   facet normal -7.372751e-01 -6.755926e-01 0.000000e+00
      outer loop
         vertex 1.693934e-01 -1.060660e-02 -1.000000e+00
         vertex 1.693934e-01 -1.060660e-02 1.000000e+00
         vertex 1.685093e-01 -9.641814e-03 1.000000e+00
      endloop
   endfacet
   facet normal -7.372751e-01 -6.755926e-01 0.000000e+00
      outer loop
         vertex 1.693934e-01 -1.060660e-02 -1.000000e+00
         vertex 1.685093e-01 -9.641814e-03 1.000000e+00
         vertex 1.685093e-01 -9.641814e-03 -1.000000e+00
      endloop
   endfacet
   facet normal -7.933526e-01 -6.087624e-01 0.000000e+00
      outer loop
         vertex 1.685093e-01 -9.641814e-03 -1.000000e+00
         vertex 1.685093e-01 -9.641814e-03 1.000000e+00
         vertex 1.677127e-01 -8.603646e-03 1.000000e+00
      endloop
   endfacet
   facet normal -7.933526e-01 -6.087624e-01 0.000000e+00
      outer loop
         vertex 1.685093e-01 -9.641814e-03 -1.000000e+00
         vertex 1.677127e-01 -8.603646e-03 1.000000e+00
         vertex 1.677127e-01 -8.603646e-03 -1.000000e+00
      endloop
   endfacet
   facet normal -8.433928e-01 -5.372974e-01 0.000000e+00
      outer loop
         vertex 1.677127e-01 -8.603646e-03 -1.000000e+00
         vertex 1.677127e-01 -8.603646e-03 1.000000e+00
         vertex 1.670096e-01 -7.500000e-03 1.000000e+00
      endloop
   endfacet
   facet normal -8.433928e-01 -5.372974e-01 0.000000e+00
      outer loop
         vertex 1.677127e-01 -8.603646e-03 -1.000000e+00
         vertex 1.670096e-01 -7.500000e-03 1.000000e+00
         vertex 1.670096e-01 -7.500000e-03 -1.000000e+00
      endloop
   endfacet
   facet normal -8.870088e-01 -4.617525e-01 0.000000e+00
      outer loop
         vertex 1.670096e-01 -7.500000e-03 -1.000000e+00
         vertex 1.670096e-01 -7.500000e-03 1.000000e+00
         vertex 1.664054e-01 -6.339274e-03 1.000000e+00
      endloop
   endfacet
   facet normal -8.870088e-01 -4.617525e-01 0.000000e+00
      outer loop
         vertex 1.670096e-01 -7.500000e-03 -1.000000e+00
         vertex 1.664054e-01 -6.339274e-03 1.000000e+00
         vertex 1.664054e-01 -6.339274e-03 -1.000000e+00
      endloop
   endfacet
   facet normal -9.238806e-01 -3.826808e-01 0.000000e+00
      outer loop
         vertex 1.664054e-01 -6.339274e-03 -1.000000e+00
         vertex 1.664054e-01 -6.339274e-03 1.000000e+00
         vertex 1.659046e-01 -5.130302e-03 1.000000e+00
      endloop
   endfacet
   facet normal -9.238806e-01 -3.826808e-01 0.000000e+00
      outer loop
         vertex 1.664054e-01 -6.339274e-03 -1.000000e+00
         vertex 1.659046e-01 -5.130302e-03 1.000000e+00
         vertex 1.659046e-01 -5.130302e-03 -1.000000e+00
      endloop
   endfacet
   facet normal -9.537176e-01 -3.007036e-01 0.000000e+00
      outer loop
         vertex 1.659046e-01 -5.130302e-03 -1.000000e+00
         vertex 1.659046e-01 -5.130302e-03 1.000000e+00
         vertex 1.655111e-01 -3.882286e-03 1.000000e+00
      endloop
   endfacet
   facet normal -9.537176e-01 -3.007036e-01 0.000000e+00
      outer loop
         vertex 1.659046e-01 -5.130302e-03 -1.000000e+00
         vertex 1.655111e-01 -3.882286e-03 1.000000e+00
         vertex 1.655111e-01 -3.882286e-03 -1.000000e+00
      endloop
   endfacet
   facet normal -9.762964e-01 -2.164378e-01 0.000000e+00
      outer loop
         vertex 1.655111e-01 -3.882286e-03 -1.000000e+00
         vertex 1.655111e-01 -3.882286e-03 1.000000e+00
         vertex 1.652279e-01 -2.604723e-03 1.000000e+00
      endloop
   endfacet
   facet normal -9.762964e-01 -2.164378e-01 0.000000e+00
      outer loop
         vertex 1.655111e-01 -3.882286e-03 -1.000000e+00
         vertex 1.652279e-01 -2.604723e-03 1.000000e+00
         vertex 1.652279e-01 -2.604723e-03 -1.000000e+00
      endloop
   endfacet
   facet normal -9.914441e-01 -1.305321e-01 0.000000e+00
      outer loop
         vertex 1.652279e-01 -2.604723e-03 -1.000000e+00
         vertex 1.652279e-01 -2.604723e-03 1.000000e+00
         vertex 1.650571e-01 -1.307336e-03 1.000000e+00
      endloop
   endfacet
   facet normal -9.914441e-01 -1.305321e-01 0.000000e+00
      outer loop
         vertex 1.652279e-01 -2.604723e-03 -1.000000e+00
         vertex 1.650571e-01 -1.307336e-03 1.000000e+00
         vertex 1.650571e-01 -1.307336e-03 -1.000000e+00
      endloop
   endfacet
   facet normal -9.990485e-01 -4.361322e-02 0.000000e+00
      outer loop
         vertex 1.650571e-01 -1.307336e-03 -1.000000e+00
         vertex 1.650571e-01 -1.307336e-03 1.000000e+00
         vertex 1.650000e-01 8.498308e-18 1.000000e+00
      endloop
   endfacet
   facet normal -9.990485e-01 -4.361322e-02 0.000000e+00
      outer loop
         vertex 1.650571e-01 -1.307336e-03 -1.000000e+00
         vertex 1.650000e-01 8.498308e-18 1.000000e+00
         vertex 1.650000e-01 8.498308e-18 -1.000000e+00
      endloop
   endfacet
   facet normal -9.990485e-01 4.361322e-02 0.000000e+00
      outer loop
         vertex 1.650000e-01 8.498308e-18 -1.000000e+00
         vertex 1.650000e-01 8.498308e-18 1.000000e+00
         vertex 1.650571e-01 1.307336e-03 1.000000e+00
      endloop
   endfacet
   facet normal -9.990485e-01 4.361322e-02 0.000000e+00
      outer loop
         vertex 1.650000e-01 8.498308e-18 -1.000000e+00
         vertex 1.650571e-01 1.307336e-03 1.000000e+00
         vertex 1.650571e-01 1.307336e-03 -1.000000e+00
      endloop
   endfacet
   facet normal -9.914441e-01 1.305321e-01 0.000000e+00
      outer loop
         vertex 1.650571e-01 1.307336e-03 -1.000000e+00
         vertex 1.650571e-01 1.307336e-03 1.000000e+00
         vertex 1.652279e-01 2.604723e-03 1.000000e+00
      endloop
   endfacet
   facet normal -9.914441e-01 1.305321e-01 0.000000e+00
      outer loop
         vertex 1.650571e-01 1.307336e-03 -1.000000e+00
         vertex 1.652279e-01 2.604723e-03 1.000000e+00
         vertex 1.652279e-01 2.604723e-03 -1.000000e+00
      endloop
   endfacet
   facet normal -9.762964e-01 2.164378e-01 0.000000e+00
      outer loop
         vertex 1.652279e-01 2.604723e-03 -1.000000e+00
         vertex 1.652279e-01 2.604723e-03 1.000000e+00
         vertex 1.655111e-01 3.882286e-03 1.000000e+00
      endloop
   endfacet
   facet normal -9.762964e-01 2.164378e-01 0.000000e+00
      outer loop
         vertex 1.652279e-01 2.604723e-03 -1.000000e+00
         vertex 1.655111e-01 3.882286e-03 1.000000e+00
         vertex 1.655111e-01 3.882286e-03 -1.000000e+00
      endloop
   endfacet
   facet normal -9.537176e-01 3.007036e-01 0.000000e+00
      outer loop
         vertex 1.655111e-01 3.882286e-03 -1.000000e+00
         vertex 1.655111e-01 3.882286e-03 1.000000e+00
         vertex 1.659046e-01 5.130302e-03 1.000000e+00
      endloop
   endfacet
   facet normal -9.537176e-01 3.007036e-01 0.000000e+00
      outer loop
         vertex 1.655111e-01 3.882286e-03 -1.000000e+00
         vertex 1.659046e-01 5.130302e-03 1.000000e+00
         vertex 1.659046e-01 5.130302e-03 -1.000000e+00
      endloop
   endfacet
   facet normal -9.238806e-01 3.826808e-01 0.000000e+00
      outer loop
         vertex 1.659046e-01 5.130302e-03 -1.000000e+00
         vertex 1.659046e-01 5.130302e-03 1.000000e+00
         vertex 1.664054e-01 6.339274e-03 1.000000e+00
      endloop
   endfacet
   facet normal -9.238806e-01 3.826808e-01 0.000000e+00
      outer loop
         vertex 1.659046e-01 5.130302e-03 -1.000000e+00
         vertex 1.664054e-01 6.339274e-03 1.000000e+00
         vertex 1.664054e-01 6.339274e-03 -1.000000e+00
      endloop
   endfacet
   facet normal -8.870088e-01 4.617525e-01 0.000000e+00
      outer loop
         vertex 1.664054e-01 6.339274e-03 -1.000000e+00
         vertex 1.664054e-01 6.339274e-03 1.000000e+00
         vertex 1.670096e-01 7.500000e-03 1.000000e+00
      endloop
   endfacet
   facet normal -8.870088e-01 4.617525e-01 0.000000e+00
      outer loop
         vertex 1.664054e-01 6.339274e-03 -1.000000e+00
         vertex 1.670096e-01 7.500000e-03 1.000000e+00
         vertex 1.670096e-01 7.500000e-03 -1.000000e+00
      endloop
   endfacet
   facet normal -8.433928e-01 5.372974e-01 0.000000e+00
      outer loop
         vertex 1.670096e-01 7.500000e-03 -1.000000e+00
         vertex 1.670096e-01 7.500000e-03 1.000000e+00
         vertex 1.677127e-01 8.603646e-03 1.000000e+00
      endloop
   endfacet
   facet normal -8.433928e-01 5.372974e-01 0.000000e+00
      outer loop
         vertex 1.670096e-01 7.500000e-03 -1.000000e+00
         vertex 1.677127e-01 8.603646e-03 1.000000e+00
         vertex 1.677127e-01 8.603646e-03 -1.000000e+00
      endloop
   endfacet
   facet normal -7.933526e-01 6.087624e-01 0.000000e+00
      outer loop
         vertex 1.677127e-01 8.603646e-03 -1.000000e+00
         vertex 1.677127e-01 8.603646e-03 1.000000e+00
         vertex 1.685093e-01 9.641814e-03 1.000000e+00
      endloop
   endfacet
   facet normal -7.933526e-01 6.087624e-01 0.000000e+00
      outer loop
         vertex 1.677127e-01 8.603646e-03 -1.000000e+00
         vertex 1.685093e-01 9.641814e-03 1.000000e+00
         vertex 1.685093e-01 9.641814e-03 -1.000000e+00
      endloop
   endfacet
   facet normal -7.372751e-01 6.755926e-01 0.000000e+00
      outer loop
         vertex 1.685093e-01 9.641814e-03 -1.000000e+00
         vertex 1.685093e-01 9.641814e-03 1.000000e+00
         vertex 1.693934e-01 1.060660e-02 1.000000e+00
      endloop
   endfacet
   facet normal -7.372751e-01 6.755926e-01 0.000000e+00
      outer loop
         vertex 1.685093e-01 9.641814e-03 -1.000000e+00
         vertex 1.693934e-01 1.060660e-02 1.000000e+00
         vertex 1.693934e-01 1.060660e-02 -1.000000e+00
      endloop
   endfacet
   facet normal -6.755945e-01 7.372734e-01 0.000000e+00
      outer loop
         vertex 1.693934e-01 1.060660e-02 -1.000000e+00
         vertex 1.693934e-01 1.060660e-02 1.000000e+00
         vertex 1.703582e-01 1.149067e-02 1.000000e+00
      endloop
   endfacet
   facet normal -6.755945e-01 7.372734e-01 0.000000e+00
      outer loop
         vertex 1.693934e-01 1.060660e-02 -1.000000e+00
         vertex 1.703582e-01 1.149067e-02 1.000000e+00
         vertex 1.703582e-01 1.149067e-02 -1.000000e+00
      endloop
   endfacet
   facet normal -6.087574e-01 7.933564e-01 0.000000e+00
      outer loop
         vertex 1.703582e-01 1.149067e-02 -1.000000e+00
         vertex 1.703582e-01 1.149067e-02 1.000000e+00
         vertex 1.713964e-01 1.228728e-02 1.000000e+00
      endloop
   endfacet
   facet normal -6.087574e-01 7.933564e-01 0.000000e+00
      outer loop
         vertex 1.703582e-01 1.149067e-02 -1.000000e+00
         vertex 1.713964e-01 1.228728e-02 1.000000e+00
         vertex 1.713964e-01 1.228728e-02 -1.000000e+00
      endloop
   endfacet
   facet normal -5.373019e-01 8.433900e-01 0.000000e+00
      outer loop
         vertex 1.713964e-01 1.228728e-02 -1.000000e+00
         vertex 1.713964e-01 1.228728e-02 1.000000e+00
         vertex 1.725000e-01 1.299038e-02 1.000000e+00
      endloop
   endfacet
   facet normal -5.373019e-01 8.433900e-01 0.000000e+00
      outer loop
         vertex 1.713964e-01 1.228728e-02 -1.000000e+00
         vertex 1.725000e-01 1.299038e-02 1.000000e+00
         vertex 1.725000e-01 1.299038e-02 -1.000000e+00
      endloop
   endfacet
   facet normal -4.617491e-01 8.870106e-01 0.000000e+00
      outer loop
         vertex 1.725000e-01 1.299038e-02 -1.000000e+00
         vertex 1.725000e-01 1.299038e-02 1.000000e+00
         vertex 1.736607e-01 1.359462e-02 1.000000e+00
      endloop
   endfacet
   facet normal -4.617491e-01 8.870106e-01 0.000000e+00
      outer loop
         vertex 1.725000e-01 1.299038e-02 -1.000000e+00
         vertex 1.736607e-01 1.359462e-02 1.000000e+00
         vertex 1.736607e-01 1.359462e-02 -1.000000e+00
      endloop
   endfacet
   facet normal -3.826821e-01 9.238801e-01 0.000000e+00
      outer loop
         vertex 1.736607e-01 1.359462e-02 -1.000000e+00
         vertex 1.736607e-01 1.359462e-02 1.000000e+00
         vertex 1.748697e-01 1.409539e-02 1.000000e+00
      endloop
   endfacet
   facet normal -3.826821e-01 9.238801e-01 0.000000e+00
      outer loop
         vertex 1.736607e-01 1.359462e-02 -1.000000e+00
         vertex 1.748697e-01 1.409539e-02 1.000000e+00
         vertex 1.748697e-01 1.409539e-02 -1.000000e+00
      endloop
   endfacet
   facet normal -3.007055e-01 9.537171e-01 0.000000e+00
      outer loop
         vertex 1.748697e-01 1.409539e-02 -1.000000e+00
         vertex 1.748697e-01 1.409539e-02 1.000000e+00
         vertex 1.761177e-01 1.448889e-02 1.000000e+00
      endloop
   endfacet
   facet normal -3.007055e-01 9.537171e-01 0.000000e+00
      outer loop
         vertex 1.748697e-01 1.409539e-02 -1.000000e+00
         vertex 1.761177e-01 1.448889e-02 1.000000e+00
         vertex 1.761177e-01 1.448889e-02 -1.000000e+00
      endloop
   endfacet
   facet normal -2.164393e-01 9.762961e-01 0.000000e+00
      outer loop
         vertex 1.761177e-01 1.448889e-02 -1.000000e+00
         vertex 1.761177e-01 1.448889e-02 1.000000e+00
         vertex 1.773953e-01 1.477212e-02 1.000000e+00
      endloop
   endfacet
   facet normal -2.164393e-01 9.762961e-01 0.000000e+00
      outer loop
         vertex 1.761177e-01 1.448889e-02 -1.000000e+00
         vertex 1.773953e-01 1.477212e-02 1.000000e+00
         vertex 1.773953e-01 1.477212e-02 -1.000000e+00
      endloop
   endfacet
   facet normal -1.305267e-01 9.914448e-01 0.000000e+00
      outer loop
         vertex 1.773953e-01 1.477212e-02 -1.000000e+00
         vertex 1.773953e-01 1.477212e-02 1.000000e+00
         vertex 1.786927e-01 1.494292e-02 1.000000e+00
      endloop
   endfacet
   facet normal -1.305267e-01 9.914448e-01 0.000000e+00
      outer loop
         vertex 1.773953e-01 1.477212e-02 -1.000000e+00
         vertex 1.786927e-01 1.494292e-02 1.000000e+00
         vertex 1.786927e-01 1.494292e-02 -1.000000e+00
      endloop
   endfacet
   facet normal -4.361883e-02 9.990482e-01 0.000000e+00
      outer loop
         vertex 1.786927e-01 1.494292e-02 -1.000000e+00
         vertex 1.786927e-01 1.494292e-02 1.000000e+00
         vertex 1.800000e-01 1.500000e-02 1.000000e+00
      endloop
   endfacet
   facet normal -4.361883e-02 9.990482e-01 0.000000e+00
      outer loop
         vertex 1.786927e-01 1.494292e-02 -1.000000e+00
         vertex 1.800000e-01 1.500000e-02 1.000000e+00
         vertex 1.800000e-01 1.500000e-02 -1.000000e+00
      endloop
   endfacet
   facet normal 0.000000e+00 1.000000e+00 0.000000e+00
      outer loop
         vertex 1.518000e+01 1.500000e-02 1.000000e+00
         vertex 1.518000e+01 1.500000e-02 -1.000000e+00
         vertex 1.800000e-01 1.500000e-02 1.000000e+00
      endloop
   endfacet
   facet normal 0.000000e+00 1.000000e+00 0.000000e+00
      outer loop
         vertex 1.800000e-01 1.500000e-02 1.000000e+00
         vertex 1.518000e+01 1.500000e-02 -1.000000e+00
         vertex 1.800000e-01 1.500000e-02 -1.000000e+00
      endloop
   endfacet
   facet normal 4.361387e-02 9.990485e-01 -0.000000e+00
      outer loop
         vertex 1.518000e+01 1.500000e-02 -1.000000e+00
         vertex 1.518000e+01 1.500000e-02 1.000000e+00
         vertex 1.518131e+01 1.494292e-02 1.000000e+00
      endloop
   endfacet
   facet normal 4.361387e-02 9.990485e-01 0.000000e+00
      outer loop
         vertex 1.518000e+01 1.500000e-02 -1.000000e+00
         vertex 1.518131e+01 1.494292e-02 1.000000e+00
         vertex 1.518131e+01 1.494292e-02 -1.000000e+00
      endloop
   endfacet
   facet normal 1.305650e-01 9.914398e-01 -0.000000e+00
      outer loop
         vertex 1.518131e+01 1.494292e-02 -1.000000e+00
         vertex 1.518131e+01 1.494292e-02 1.000000e+00
         vertex 1.518260e+01 1.477212e-02 1.000000e+00
      endloop
   endfacet
   facet normal 1.305650e-01 9.914398e-01 0.000000e+00
      outer loop
         vertex 1.518131e+01 1.494292e-02 -1.000000e+00
         vertex 1.518260e+01 1.477212e-02 1.000000e+00
         vertex 1.518260e+01 1.477212e-02 -1.000000e+00
      endloop
   endfacet
   facet normal 2.163816e-01 9.763089e-01 -0.000000e+00
      outer loop
         vertex 1.518260e+01 1.477212e-02 -1.000000e+00
         vertex 1.518260e+01 1.477212e-02 1.000000e+00
         vertex 1.518388e+01 1.448889e-02 1.000000e+00
      endloop
   endfacet
   facet normal 2.163816e-01 9.763089e-01 0.000000e+00
      outer loop
         vertex 1.518260e+01 1.477212e-02 -1.000000e+00
         vertex 1.518388e+01 1.448889e-02 1.000000e+00
         vertex 1.518388e+01 1.448889e-02 -1.000000e+00
      endloop
   endfacet
   facet normal 3.008394e-01 9.536748e-01 -0.000000e+00
      outer loop
         vertex 1.518388e+01 1.448889e-02 -1.000000e+00
         vertex 1.518388e+01 1.448889e-02 1.000000e+00
         vertex 1.518513e+01 1.409539e-02 1.000000e+00
      endloop
   endfacet
   facet normal 3.008394e-01 9.536748e-01 0.000000e+00
      outer loop
         vertex 1.518388e+01 1.448889e-02 -1.000000e+00
         vertex 1.518513e+01 1.409539e-02 1.000000e+00
         vertex 1.518513e+01 1.409539e-02 -1.000000e+00
      endloop
   endfacet
   facet normal 3.826056e-01 9.239118e-01 -0.000000e+00
      outer loop
         vertex 1.518513e+01 1.409539e-02 -1.000000e+00
         vertex 1.518513e+01 1.409539e-02 1.000000e+00
         vertex 1.518634e+01 1.359462e-02 1.000000e+00
      endloop
   endfacet
   facet normal 3.826056e-01 9.239118e-01 0.000000e+00
      outer loop
         vertex 1.518513e+01 1.409539e-02 -1.000000e+00
         vertex 1.518634e+01 1.359462e-02 1.000000e+00
         vertex 1.518634e+01 1.359462e-02 -1.000000e+00
      endloop
   endfacet
   facet normal 4.617818e-01 8.869936e-01 -0.000000e+00
      outer loop
         vertex 1.518634e+01 1.359462e-02 -1.000000e+00
         vertex 1.518634e+01 1.359462e-02 1.000000e+00
         vertex 1.518750e+01 1.299038e-02 1.000000e+00
      endloop
   endfacet
   facet normal 4.617818e-01 8.869936e-01 0.000000e+00
      outer loop
         vertex 1.518634e+01 1.359462e-02 -1.000000e+00
         vertex 1.518750e+01 1.299038e-02 1.000000e+00
         vertex 1.518750e+01 1.299038e-02 -1.000000e+00
      endloop
   endfacet
   facet normal 5.373844e-01 8.433374e-01 -0.000000e+00
      outer loop
         vertex 1.518750e+01 1.299038e-02 -1.000000e+00
         vertex 1.518750e+01 1.299038e-02 1.000000e+00
         vertex 1.518860e+01 1.228728e-02 1.000000e+00
      endloop
   endfacet
   facet normal 5.373844e-01 8.433374e-01 0.000000e+00
      outer loop
         vertex 1.518750e+01 1.299038e-02 -1.000000e+00
         vertex 1.518860e+01 1.228728e-02 1.000000e+00
         vertex 1.518860e+01 1.228728e-02 -1.000000e+00
      endloop
   endfacet
   facet normal 6.086199e-01 7.934619e-01 -0.000000e+00
      outer loop
         vertex 1.518860e+01 1.228728e-02 -1.000000e+00
         vertex 1.518860e+01 1.228728e-02 1.000000e+00
         vertex 1.518964e+01 1.149067e-02 1.000000e+00
      endloop
   endfacet
   facet normal 6.086199e-01 7.934619e-01 0.000000e+00
      outer loop
         vertex 1.518860e+01 1.228728e-02 -1.000000e+00
         vertex 1.518964e+01 1.149067e-02 1.000000e+00
         vertex 1.518964e+01 1.149067e-02 -1.000000e+00
      endloop
   endfacet
   facet normal 6.754641e-01 7.373929e-01 -0.000000e+00
      outer loop
         vertex 1.518964e+01 1.149067e-02 -1.000000e+00
         vertex 1.518964e+01 1.149067e-02 1.000000e+00
         vertex 1.519061e+01 1.060660e-02 1.000000e+00
      endloop
   endfacet
   facet normal 6.754641e-01 7.373929e-01 0.000000e+00
      outer loop
         vertex 1.518964e+01 1.149067e-02 -1.000000e+00
         vertex 1.519061e+01 1.060660e-02 1.000000e+00
         vertex 1.519061e+01 1.060660e-02 -1.000000e+00
      endloop
   endfacet
   facet normal 7.372808e-01 6.755865e-01 -0.000000e+00
      outer loop
         vertex 1.519061e+01 1.060660e-02 -1.000000e+00
         vertex 1.519061e+01 1.060660e-02 1.000000e+00
         vertex 1.519149e+01 9.641814e-03 1.000000e+00
      endloop
   endfacet
   facet normal 7.372808e-01 6.755865e-01 0.000000e+00
      outer loop
         vertex 1.519061e+01 1.060660e-02 -1.000000e+00
         vertex 1.519149e+01 9.641814e-03 1.000000e+00
         vertex 1.519149e+01 9.641814e-03 -1.000000e+00
      endloop
   endfacet
   facet normal 7.934626e-01 6.086190e-01 -0.000000e+00
      outer loop
         vertex 1.519149e+01 9.641814e-03 -1.000000e+00
         vertex 1.519149e+01 9.641814e-03 1.000000e+00
         vertex 1.519229e+01 8.603646e-03 1.000000e+00
      endloop
   endfacet
   facet normal 7.934626e-01 6.086190e-01 0.000000e+00
      outer loop
         vertex 1.519149e+01 9.641814e-03 -1.000000e+00
         vertex 1.519229e+01 8.603646e-03 1.000000e+00
         vertex 1.519229e+01 8.603646e-03 -1.000000e+00
      endloop
   endfacet
   facet normal 8.434754e-01 5.371678e-01 -0.000000e+00
      outer loop
         vertex 1.519229e+01 8.603646e-03 -1.000000e+00
         vertex 1.519229e+01 8.603646e-03 1.000000e+00
         vertex 1.519299e+01 7.500000e-03 1.000000e+00
      endloop
   endfacet
   facet normal 8.434754e-01 5.371678e-01 0.000000e+00
      outer loop
         vertex 1.519229e+01 8.603646e-03 -1.000000e+00
         vertex 1.519299e+01 7.500000e-03 1.000000e+00
         vertex 1.519299e+01 7.500000e-03 -1.000000e+00
      endloop
   endfacet
   facet normal 8.868876e-01 4.619854e-01 -0.000000e+00
      outer loop
         vertex 1.519299e+01 7.500000e-03 -1.000000e+00
         vertex 1.519299e+01 7.500000e-03 1.000000e+00
         vertex 1.519359e+01 6.339274e-03 1.000000e+00
      endloop
   endfacet
   facet normal 8.868876e-01 4.619854e-01 0.000000e+00
      outer loop
         vertex 1.519299e+01 7.500000e-03 -1.000000e+00
         vertex 1.519359e+01 6.339274e-03 1.000000e+00
         vertex 1.519359e+01 6.339274e-03 -1.000000e+00
      endloop
   endfacet
   facet normal 9.239048e-01 3.826225e-01 -0.000000e+00
      outer loop
         vertex 1.519359e+01 6.339274e-03 -1.000000e+00
         vertex 1.519359e+01 6.339274e-03 1.000000e+00
         vertex 1.519410e+01 5.130302e-03 1.000000e+00
      endloop
   endfacet
   facet normal 9.239048e-01 3.826225e-01 0.000000e+00
      outer loop
         vertex 1.519359e+01 6.339274e-03 -1.000000e+00
         vertex 1.519410e+01 5.130302e-03 1.000000e+00
         vertex 1.519410e+01 5.130302e-03 -1.000000e+00
      endloop
   endfacet
   facet normal 9.538449e-01 3.002996e-01 -0.000000e+00
      outer loop
         vertex 1.519410e+01 5.130302e-03 -1.000000e+00
         vertex 1.519410e+01 5.130302e-03 1.000000e+00
         vertex 1.519449e+01 3.882286e-03 1.000000e+00
      endloop
   endfacet
   facet normal 9.538449e-01 3.002996e-01 0.000000e+00
      outer loop
         vertex 1.519410e+01 5.130302e-03 -1.000000e+00
         vertex 1.519449e+01 3.882286e-03 1.000000e+00
         vertex 1.519449e+01 3.882286e-03 -1.000000e+00
      endloop
   endfacet
   facet normal 9.762940e-01 2.164486e-01 -0.000000e+00
      outer loop
         vertex 1.519449e+01 3.882286e-03 -1.000000e+00
         vertex 1.519449e+01 3.882286e-03 1.000000e+00
         vertex 1.519477e+01 2.604723e-03 1.000000e+00
      endloop
   endfacet
   facet normal 9.762940e-01 2.164486e-01 0.000000e+00
      outer loop
         vertex 1.519449e+01 3.882286e-03 -1.000000e+00
         vertex 1.519477e+01 2.604723e-03 1.000000e+00
         vertex 1.519477e+01 2.604723e-03 -1.000000e+00
      endloop
   endfacet
   facet normal 9.914544e-01 1.304537e-01 -0.000000e+00
      outer loop
         vertex 1.519477e+01 2.604723e-03 -1.000000e+00
         vertex 1.519477e+01 2.604723e-03 1.000000e+00
         vertex 1.519494e+01 1.307336e-03 1.000000e+00
      endloop
   endfacet
   facet normal 9.914544e-01 1.304537e-01 0.000000e+00
      outer loop
         vertex 1.519477e+01 2.604723e-03 -1.000000e+00
         vertex 1.519494e+01 1.307336e-03 1.000000e+00
         vertex 1.519494e+01 1.307336e-03 -1.000000e+00
      endloop
   endfacet
   facet normal 9.990435e-01 4.372688e-02 -0.000000e+00
      outer loop
         vertex 1.519494e+01 1.307336e-03 -1.000000e+00
         vertex 1.519494e+01 1.307336e-03 1.000000e+00
         vertex 1.519500e+01 -3.673940e-18 1.000000e+00
      endloop
   endfacet
   facet normal 9.990435e-01 4.372688e-02 0.000000e+00
      outer loop
         vertex 1.519494e+01 1.307336e-03 -1.000000e+00
         vertex 1.519500e+01 -3.673940e-18 1.000000e+00
         vertex 1.519500e+01 -3.673940e-18 -1.000000e+00
      endloop
   endfacet
   facet normal 9.990435e-01 -4.372688e-02 0.000000e+00
      outer loop
         vertex 1.519500e+01 -3.673940e-18 -1.000000e+00
         vertex 1.519500e+01 -3.673940e-18 1.000000e+00
         vertex 1.519494e+01 -1.307336e-03 1.000000e+00
      endloop
   endfacet
   facet normal 9.990435e-01 -4.372688e-02 0.000000e+00
      outer loop
         vertex 1.519500e+01 -3.673940e-18 -1.000000e+00
         vertex 1.519494e+01 -1.307336e-03 1.000000e+00
         vertex 1.519494e+01 -1.307336e-03 -1.000000e+00
      endloop
   endfacet
   facet normal 9.914544e-01 -1.304537e-01 0.000000e+00
      outer loop
         vertex 1.519494e+01 -1.307336e-03 -1.000000e+00
         vertex 1.519494e+01 -1.307336e-03 1.000000e+00
         vertex 1.519477e+01 -2.604723e-03 1.000000e+00
      endloop
   endfacet
   facet normal 9.914544e-01 -1.304537e-01 0.000000e+00
      outer loop
         vertex 1.519494e+01 -1.307336e-03 -1.000000e+00
         vertex 1.519477e+01 -2.604723e-03 1.000000e+00
         vertex 1.519477e+01 -2.604723e-03 -1.000000e+00
      endloop
   endfacet
   facet normal 9.762940e-01 -2.164486e-01 0.000000e+00
      outer loop
         vertex 1.519477e+01 -2.604723e-03 -1.000000e+00
         vertex 1.519477e+01 -2.604723e-03 1.000000e+00
         vertex 1.519449e+01 -3.882286e-03 1.000000e+00
      endloop
   endfacet
   facet normal 9.762940e-01 -2.164486e-01 0.000000e+00
      outer loop
         vertex 1.519477e+01 -2.604723e-03 -1.000000e+00
         vertex 1.519449e+01 -3.882286e-03 1.000000e+00
         vertex 1.519449e+01 -3.882286e-03 -1.000000e+00
      endloop
   endfacet
   facet normal 9.538449e-01 -3.002996e-01 0.000000e+00
      outer loop
         vertex 1.519449e+01 -3.882286e-03 -1.000000e+00
         vertex 1.519449e+01 -3.882286e-03 1.000000e+00
         vertex 1.519410e+01 -5.130302e-03 1.000000e+00
      endloop
   endfacet
   facet normal 9.538449e-01 -3.002996e-01 0.000000e+00
      outer loop
         vertex 1.519449e+01 -3.882286e-03 -1.000000e+00
         vertex 1.519410e+01 -5.130302e-03 1.000000e+00
         vertex 1.519410e+01 -5.130302e-03 -1.000000e+00
      endloop
   endfacet
   facet normal 9.239048e-01 -3.826225e-01 0.000000e+00
      outer loop
         vertex 1.519410e+01 -5.130302e-03 -1.000000e+00
         vertex 1.519410e+01 -5.130302e-03 1.000000e+00
         vertex 1.519359e+01 -6.339274e-03 1.000000e+00
      endloop
   endfacet
   facet normal 9.239048e-01 -3.826225e-01 0.000000e+00
      outer loop
         vertex 1.519410e+01 -5.130302e-03 -1.000000e+00
         vertex 1.519359e+01 -6.339274e-03 1.000000e+00
         vertex 1.519359e+01 -6.339274e-03 -1.000000e+00
      endloop
   endfacet
   facet normal 8.868876e-01 -4.619854e-01 0.000000e+00
      outer loop
         vertex 1.519359e+01 -6.339274e-03 -1.000000e+00
         vertex 1.519359e+01 -6.339274e-03 1.000000e+00
         vertex 1.519299e+01 -7.500000e-03 1.000000e+00
      endloop
   endfacet
   facet normal 8.868876e-01 -4.619854e-01 0.000000e+00
      outer loop
         vertex 1.519359e+01 -6.339274e-03 -1.000000e+00
         vertex 1.519299e+01 -7.500000e-03 1.000000e+00
         vertex 1.519299e+01 -7.500000e-03 -1.000000e+00
      endloop
   endfacet
   facet normal 8.434754e-01 -5.371678e-01 0.000000e+00
      outer loop
         vertex 1.519299e+01 -7.500000e-03 -1.000000e+00
         vertex 1.519299e+01 -7.500000e-03 1.000000e+00
         vertex 1.519229e+01 -8.603646e-03 1.000000e+00
      endloop
   endfacet
   facet normal 8.434754e-01 -5.371678e-01 0.000000e+00
      outer loop
         vertex 1.519299e+01 -7.500000e-03 -1.000000e+00
         vertex 1.519229e+01 -8.603646e-03 1.000000e+00
         vertex 1.519229e+01 -8.603646e-03 -1.000000e+00
      endloop
   endfacet
   facet normal 7.934626e-01 -6.086190e-01 0.000000e+00
      outer loop
         vertex 1.519229e+01 -8.603646e-03 -1.000000e+00
         vertex 1.519229e+01 -8.603646e-03 1.000000e+00
         vertex 1.519149e+01 -9.641814e-03 1.000000e+00
      endloop
   endfacet
   facet normal 7.934626e-01 -6.086190e-01 0.000000e+00
      outer loop
         vertex 1.519229e+01 -8.603646e-03 -1.000000e+00
         vertex 1.519149e+01 -9.641814e-03 1.000000e+00
         vertex 1.519149e+01 -9.641814e-03 -1.000000e+00
      endloop
   endfacet
   facet normal 7.372808e-01 -6.755865e-01 0.000000e+00
      outer loop
         vertex 1.519149e+01 -9.641814e-03 -1.000000e+00
         vertex 1.519149e+01 -9.641814e-03 1.000000e+00
         vertex 1.519061e+01 -1.060660e-02 1.000000e+00
      endloop
   endfacet
   facet normal 7.372808e-01 -6.755865e-01 0.000000e+00
      outer loop
         vertex 1.519149e+01 -9.641814e-03 -1.000000e+00
         vertex 1.519061e+01 -1.060660e-02 1.000000e+00
         vertex 1.519061e+01 -1.060660e-02 -1.000000e+00
      endloop
   endfacet
   facet normal 6.754641e-01 -7.373929e-01 0.000000e+00
      outer loop
         vertex 1.519061e+01 -1.060660e-02 -1.000000e+00
         vertex 1.519061e+01 -1.060660e-02 1.000000e+00
         vertex 1.518964e+01 -1.149067e-02 1.000000e+00
      endloop
   endfacet
   facet normal 6.754641e-01 -7.373929e-01 0.000000e+00
      outer loop
         vertex 1.519061e+01 -1.060660e-02 -1.000000e+00
         vertex 1.518964e+01 -1.149067e-02 1.000000e+00
         vertex 1.518964e+01 -1.149067e-02 -1.000000e+00
      endloop
   endfacet
   facet normal 6.086199e-01 -7.934619e-01 0.000000e+00
      outer loop
         vertex 1.518964e+01 -1.149067e-02 -1.000000e+00
         vertex 1.518964e+01 -1.149067e-02 1.000000e+00
         vertex 1.518860e+01 -1.228728e-02 1.000000e+00
      endloop
   endfacet
   facet normal 6.086199e-01 -7.934619e-01 0.000000e+00
      outer loop
         vertex 1.518964e+01 -1.149067e-02 -1.000000e+00
         vertex 1.518860e+01 -1.228728e-02 1.000000e+00
         vertex 1.518860e+01 -1.228728e-02 -1.000000e+00
      endloop
   endfacet
   facet normal 5.373844e-01 -8.433374e-01 0.000000e+00
      outer loop
         vertex 1.518860e+01 -1.228728e-02 -1.000000e+00
         vertex 1.518860e+01 -1.228728e-02 1.000000e+00
         vertex 1.518750e+01 -1.299038e-02 1.000000e+00
      endloop
   endfacet
   facet normal 5.373844e-01 -8.433374e-01 0.000000e+00
      outer loop
         vertex 1.518860e+01 -1.228728e-02 -1.000000e+00
         vertex 1.518750e+01 -1.299038e-02 1.000000e+00
         vertex 1.518750e+01 -1.299038e-02 -1.000000e+00
      endloop
   endfacet
   facet normal 4.617818e-01 -8.869936e-01 0.000000e+00
      outer loop
         vertex 1.518750e+01 -1.299038e-02 -1.000000e+00
         vertex 1.518750e+01 -1.299038e-02 1.000000e+00
         vertex 1.518634e+01 -1.359462e-02 1.000000e+00
      endloop
   endfacet
   facet normal 4.617818e-01 -8.869936e-01 0.000000e+00
      outer loop
         vertex 1.518750e+01 -1.299038e-02 -1.000000e+00
         vertex 1.518634e+01 -1.359462e-02 1.000000e+00
         vertex 1.518634e+01 -1.359462e-02 -1.000000e+00
      endloop
   endfacet
   facet normal 3.826056e-01 -9.239118e-01 0.000000e+00
      outer loop
         vertex 1.518634e+01 -1.359462e-02 -1.000000e+00
         vertex 1.518634e+01 -1.359462e-02 1.000000e+00
         vertex 1.518513e+01 -1.409539e-02 1.000000e+00
      endloop
   endfacet
   facet normal 3.826056e-01 -9.239118e-01 0.000000e+00
      outer loop
         vertex 1.518634e+01 -1.359462e-02 -1.000000e+00
         vertex 1.518513e+01 -1.409539e-02 1.000000e+00
         vertex 1.518513e+01 -1.409539e-02 -1.000000e+00
      endloop
   endfacet
   facet normal 3.008394e-01 -9.536748e-01 0.000000e+00
      outer loop
         vertex 1.518513e+01 -1.409539e-02 -1.000000e+00
         vertex 1.518513e+01 -1.409539e-02 1.000000e+00
         vertex 1.518388e+01 -1.448889e-02 1.000000e+00
      endloop
   endfacet
   facet normal 3.008394e-01 -9.536748e-01 0.000000e+00
      outer loop
         vertex 1.518513e+01 -1.409539e-02 -1.000000e+00
         vertex 1.518388e+01 -1.448889e-02 1.000000e+00
         vertex 1.518388e+01 -1.448889e-02 -1.000000e+00
      endloop
   endfacet
   facet normal 2.163816e-01 -9.763089e-01 0.000000e+00
      outer loop
         vertex 1.518388e+01 -1.448889e-02 -1.000000e+00
         vertex 1.518388e+01 -1.448889e-02 1.000000e+00
         vertex 1.518260e+01 -1.477212e-02 1.000000e+00
      endloop
   endfacet
   facet normal 2.163816e-01 -9.763089e-01 0.000000e+00
      outer loop
         vertex 1.518388e+01 -1.448889e-02 -1.000000e+00
         vertex 1.518260e+01 -1.477212e-02 1.000000e+00
         vertex 1.518260e+01 -1.477212e-02 -1.000000e+00
      endloop
   endfacet
   facet normal 1.305650e-01 -9.914398e-01 0.000000e+00
      outer loop
         vertex 1.518260e+01 -1.477212e-02 -1.000000e+00
         vertex 1.518260e+01 -1.477212e-02 1.000000e+00
         vertex 1.518131e+01 -1.494292e-02 1.000000e+00
      endloop
   endfacet
   facet normal 1.305650e-01 -9.914398e-01 0.000000e+00
      outer loop
         vertex 1.518260e+01 -1.477212e-02 -1.000000e+00
         vertex 1.518131e+01 -1.494292e-02 1.000000e+00
         vertex 1.518131e+01 -1.494292e-02 -1.000000e+00
      endloop
   endfacet
   facet normal 4.361387e-02 -9.990485e-01 0.000000e+00
      outer loop
         vertex 1.518131e+01 -1.494292e-02 -1.000000e+00
         vertex 1.518131e+01 -1.494292e-02 1.000000e+00
         vertex 1.518000e+01 -1.500000e-02 1.000000e+00
      endloop
   endfacet
   facet normal 4.361387e-02 -9.990485e-01 0.000000e+00
      outer loop
         vertex 1.518131e+01 -1.494292e-02 -1.000000e+00
         vertex 1.518000e+01 -1.500000e-02 1.000000e+00
         vertex 1.518000e+01 -1.500000e-02 -1.000000e+00
      endloop
   endfacet
   facet normal 0.000000e+00 -1.000000e+00 0.000000e+00
      outer loop
         vertex 1.800000e-01 -1.500000e-02 1.000000e+00
         vertex 1.800000e-01 -1.500000e-02 -1.000000e+00
         vertex 1.518000e+01 -1.500000e-02 1.000000e+00
      endloop
   endfacet
   facet normal 0.000000e+00 -1.000000e+00 -0.000000e+00
      outer loop
         vertex 1.518000e+01 -1.500000e-02 1.000000e+00
         vertex 1.800000e-01 -1.500000e-02 -1.000000e+00
         vertex 1.518000e+01 -1.500000e-02 -1.000000e+00
      endloop
   endfacet
   facet normal 0.000000e+00 0.000000e+00 -1.000000e+00
      outer loop
         vertex 1.670096e-01 -7.500000e-03 -1.000000e+00
         vertex 1.664054e-01 -6.339274e-03 -1.000000e+00
         vertex 1.800000e-01 1.500000e-02 -1.000000e+00
      endloop
   endfacet
   facet normal 0.000000e+00 0.000000e+00 -1.000000e+00
      outer loop
         vertex 1.800000e-01 -1.500000e-02 -1.000000e+00
         vertex 1.800000e-01 1.500000e-02 -1.000000e+00
         vertex 1.518000e+01 -1.500000e-02 -1.000000e+00
      endloop
   endfacet
   facet normal 0.000000e+00 0.000000e+00 -1.000000e+00
      outer loop
         vertex 1.518000e+01 -1.500000e-02 -1.000000e+00
         vertex 1.800000e-01 1.500000e-02 -1.000000e+00
         vertex 1.518000e+01 1.500000e-02 -1.000000e+00
      endloop
   endfacet
   facet normal 0.000000e+00 0.000000e+00 -1.000000e+00
      outer loop
         vertex 1.518000e+01 -1.500000e-02 -1.000000e+00
         vertex 1.518000e+01 1.500000e-02 -1.000000e+00
         vertex 1.518131e+01 -1.494292e-02 -1.000000e+00
      endloop
   endfacet
   facet normal 0.000000e+00 0.000000e+00 -1.000000e+00
      outer loop
         vertex 1.664054e-01 -6.339274e-03 -1.000000e+00
         vertex 1.659046e-01 -5.130302e-03 -1.000000e+00
         vertex 1.800000e-01 1.500000e-02 -1.000000e+00
      endloop
   endfacet
   facet normal 0.000000e+00 0.000000e+00 -1.000000e+00
      outer loop
         vertex 1.800000e-01 1.500000e-02 -1.000000e+00
         vertex 1.659046e-01 -5.130302e-03 -1.000000e+00
         vertex 1.655111e-01 -3.882286e-03 -1.000000e+00
      endloop
   endfacet
   facet normal 0.000000e+00 0.000000e+00 -1.000000e+00
      outer loop
         vertex 1.800000e-01 1.500000e-02 -1.000000e+00
         vertex 1.655111e-01 -3.882286e-03 -1.000000e+00
         vertex 1.652279e-01 -2.604723e-03 -1.000000e+00
      endloop
   endfacet
   facet normal -0.000000e+00 -0.000000e+00 -1.000000e+00
      outer loop
         vertex 1.519061e+01 1.060660e-02 -1.000000e+00
         vertex 1.519149e+01 9.641814e-03 -1.000000e+00
         vertex 1.518000e+01 1.500000e-02 -1.000000e+00
      endloop
   endfacet
   facet normal -0.000000e+00 0.000000e+00 -1.000000e+00
      outer loop
         vertex 1.519410e+01 -5.130302e-03 -1.000000e+00
         vertex 1.519359e+01 -6.339274e-03 -1.000000e+00
         vertex 1.518000e+01 1.500000e-02 -1.000000e+00
      endloop
   endfacet
   facet normal 0.000000e+00 0.000000e+00 -1.000000e+00
      outer loop
         vertex 1.652279e-01 -2.604723e-03 -1.000000e+00
         vertex 1.650571e-01 -1.307336e-03 -1.000000e+00
         vertex 1.800000e-01 1.500000e-02 -1.000000e+00
      endloop
   endfacet
   facet normal 0.000000e+00 0.000000e+00 -1.000000e+00
      outer loop
         vertex 1.800000e-01 1.500000e-02 -1.000000e+00
         vertex 1.650571e-01 -1.307336e-03 -1.000000e+00
         vertex 1.650000e-01 8.498308e-18 -1.000000e+00
      endloop
   endfacet
   facet normal 0.000000e+00 0.000000e+00 -1.000000e+00
      outer loop
         vertex 1.800000e-01 1.500000e-02 -1.000000e+00
         vertex 1.650000e-01 8.498308e-18 -1.000000e+00
         vertex 1.650571e-01 1.307336e-03 -1.000000e+00
      endloop
   endfacet
   facet normal 0.000000e+00 0.000000e+00 -1.000000e+00
      outer loop
         vertex 1.650571e-01 1.307336e-03 -1.000000e+00
         vertex 1.652279e-01 2.604723e-03 -1.000000e+00
         vertex 1.800000e-01 1.500000e-02 -1.000000e+00
      endloop
   endfacet
   facet normal 0.000000e+00 0.000000e+00 -1.000000e+00
      outer loop
         vertex 1.800000e-01 1.500000e-02 -1.000000e+00
         vertex 1.652279e-01 2.604723e-03 -1.000000e+00
         vertex 1.655111e-01 3.882286e-03 -1.000000e+00
      endloop
   endfacet
   facet normal 0.000000e+00 0.000000e+00 -1.000000e+00
      outer loop
         vertex 1.800000e-01 1.500000e-02 -1.000000e+00
         vertex 1.655111e-01 3.882286e-03 -1.000000e+00
         vertex 1.659046e-01 5.130302e-03 -1.000000e+00
      endloop
   endfacet
   facet normal 0.000000e+00 0.000000e+00 -1.000000e+00
      outer loop
         vertex 1.518000e+01 1.500000e-02 -1.000000e+00
         vertex 1.519500e+01 -3.673940e-18 -1.000000e+00
         vertex 1.519494e+01 -1.307336e-03 -1.000000e+00
      endloop
   endfacet
   facet normal 0.000000e+00 0.000000e+00 -1.000000e+00
      outer loop
         vertex 1.659046e-01 5.130302e-03 -1.000000e+00
         vertex 1.664054e-01 6.339274e-03 -1.000000e+00
         vertex 1.800000e-01 1.500000e-02 -1.000000e+00
      endloop
   endfacet
   facet normal 0.000000e+00 0.000000e+00 -1.000000e+00
      outer loop
         vertex 1.800000e-01 1.500000e-02 -1.000000e+00
         vertex 1.664054e-01 6.339274e-03 -1.000000e+00
         vertex 1.670096e-01 7.500000e-03 -1.000000e+00
      endloop
   endfacet
   facet normal 0.000000e+00 0.000000e+00 -1.000000e+00
      outer loop
         vertex 1.800000e-01 1.500000e-02 -1.000000e+00
         vertex 1.670096e-01 7.500000e-03 -1.000000e+00
         vertex 1.677127e-01 8.603646e-03 -1.000000e+00
      endloop
   endfacet
   facet normal 0.000000e+00 0.000000e+00 -1.000000e+00
      outer loop
         vertex 1.677127e-01 8.603646e-03 -1.000000e+00
         vertex 1.685093e-01 9.641814e-03 -1.000000e+00
         vertex 1.800000e-01 1.500000e-02 -1.000000e+00
      endloop
   endfacet
   facet normal 0.000000e+00 0.000000e+00 -1.000000e+00
      outer loop
         vertex 1.800000e-01 1.500000e-02 -1.000000e+00
         vertex 1.685093e-01 9.641814e-03 -1.000000e+00
         vertex 1.693934e-01 1.060660e-02 -1.000000e+00
      endloop
   endfacet
   facet normal 0.000000e+00 0.000000e+00 -1.000000e+00
      outer loop
         vertex 1.800000e-01 1.500000e-02 -1.000000e+00
         vertex 1.693934e-01 1.060660e-02 -1.000000e+00
         vertex 1.786927e-01 1.494292e-02 -1.000000e+00
      endloop
   endfacet
   facet normal 0.000000e+00 0.000000e+00 -1.000000e+00
      outer loop
         vertex 1.786927e-01 1.494292e-02 -1.000000e+00
         vertex 1.693934e-01 1.060660e-02 -1.000000e+00
         vertex 1.773953e-01 1.477212e-02 -1.000000e+00
      endloop
   endfacet
   facet normal 0.000000e+00 0.000000e+00 -1.000000e+00
      outer loop
         vertex 1.519449e+01 3.882286e-03 -1.000000e+00
         vertex 1.518000e+01 1.500000e-02 -1.000000e+00
         vertex 1.519410e+01 5.130302e-03 -1.000000e+00
      endloop
   endfacet
   facet normal 0.000000e+00 0.000000e+00 -1.000000e+00
      outer loop
         vertex 1.519410e+01 5.130302e-03 -1.000000e+00
         vertex 1.518000e+01 1.500000e-02 -1.000000e+00
         vertex 1.519359e+01 6.339274e-03 -1.000000e+00
      endloop
   endfacet
   facet normal -0.000000e+00 -0.000000e+00 -1.000000e+00
      outer loop
         vertex 1.519449e+01 3.882286e-03 -1.000000e+00
         vertex 1.519477e+01 2.604723e-03 -1.000000e+00
         vertex 1.518000e+01 1.500000e-02 -1.000000e+00
      endloop
   endfacet
   facet normal 0.000000e+00 0.000000e+00 -1.000000e+00
      outer loop
         vertex 1.518000e+01 1.500000e-02 -1.000000e+00
         vertex 1.519477e+01 2.604723e-03 -1.000000e+00
         vertex 1.519494e+01 1.307336e-03 -1.000000e+00
      endloop
   endfacet
   facet normal 0.000000e+00 0.000000e+00 -1.000000e+00
      outer loop
         vertex 1.518000e+01 1.500000e-02 -1.000000e+00
         vertex 1.519494e+01 1.307336e-03 -1.000000e+00
         vertex 1.519500e+01 -3.673940e-18 -1.000000e+00
      endloop
   endfacet
   facet normal -0.000000e+00 0.000000e+00 -1.000000e+00
      outer loop
         vertex 1.519494e+01 -1.307336e-03 -1.000000e+00
         vertex 1.519477e+01 -2.604723e-03 -1.000000e+00
         vertex 1.518000e+01 1.500000e-02 -1.000000e+00
      endloop
   endfacet
   facet normal 0.000000e+00 0.000000e+00 -1.000000e+00
      outer loop
         vertex 1.518000e+01 1.500000e-02 -1.000000e+00
         vertex 1.519477e+01 -2.604723e-03 -1.000000e+00
         vertex 1.519449e+01 -3.882286e-03 -1.000000e+00
      endloop
   endfacet
   facet normal 0.000000e+00 0.000000e+00 -1.000000e+00
      outer loop
         vertex 1.518000e+01 1.500000e-02 -1.000000e+00
         vertex 1.519449e+01 -3.882286e-03 -1.000000e+00
         vertex 1.519410e+01 -5.130302e-03 -1.000000e+00
      endloop
   endfacet
   facet normal -0.000000e+00 0.000000e+00 -1.000000e+00
      outer loop
         vertex 1.519359e+01 -6.339274e-03 -1.000000e+00
         vertex 1.519299e+01 -7.500000e-03 -1.000000e+00
         vertex 1.518000e+01 1.500000e-02 -1.000000e+00
      endloop
   endfacet
   facet normal 0.000000e+00 0.000000e+00 -1.000000e+00
      outer loop
         vertex 1.518000e+01 1.500000e-02 -1.000000e+00
         vertex 1.519299e+01 -7.500000e-03 -1.000000e+00
         vertex 1.519229e+01 -8.603646e-03 -1.000000e+00
      endloop
   endfacet
   facet normal 0.000000e+00 0.000000e+00 -1.000000e+00
      outer loop
         vertex 1.518000e+01 1.500000e-02 -1.000000e+00
         vertex 1.519229e+01 -8.603646e-03 -1.000000e+00
         vertex 1.519149e+01 -9.641814e-03 -1.000000e+00
      endloop
   endfacet
   facet normal -0.000000e+00 0.000000e+00 -1.000000e+00
      outer loop
         vertex 1.519149e+01 -9.641814e-03 -1.000000e+00
         vertex 1.519061e+01 -1.060660e-02 -1.000000e+00
         vertex 1.518000e+01 1.500000e-02 -1.000000e+00
      endloop
   endfacet
   facet normal 0.000000e+00 0.000000e+00 -1.000000e+00
      outer loop
         vertex 1.518000e+01 1.500000e-02 -1.000000e+00
         vertex 1.519061e+01 -1.060660e-02 -1.000000e+00
         vertex 1.518964e+01 -1.149067e-02 -1.000000e+00
      endloop
   endfacet
   facet normal 0.000000e+00 0.000000e+00 -1.000000e+00
      outer loop
         vertex 1.518000e+01 1.500000e-02 -1.000000e+00
         vertex 1.518964e+01 -1.149067e-02 -1.000000e+00
         vertex 1.518860e+01 -1.228728e-02 -1.000000e+00
      endloop
   endfacet
   facet normal 0.000000e+00 0.000000e+00 -1.000000e+00
      outer loop
         vertex 1.800000e-01 -1.500000e-02 -1.000000e+00
         vertex 1.786927e-01 -1.494292e-02 -1.000000e+00
         vertex 1.800000e-01 1.500000e-02 -1.000000e+00
      endloop
   endfacet
   facet normal 0.000000e+00 0.000000e+00 -1.000000e+00
      outer loop
         vertex 1.800000e-01 1.500000e-02 -1.000000e+00
         vertex 1.786927e-01 -1.494292e-02 -1.000000e+00
         vertex 1.773953e-01 -1.477212e-02 -1.000000e+00
      endloop
   endfacet
   facet normal 0.000000e+00 0.000000e+00 -1.000000e+00
      outer loop
         vertex 1.800000e-01 1.500000e-02 -1.000000e+00
         vertex 1.773953e-01 -1.477212e-02 -1.000000e+00
         vertex 1.761177e-01 -1.448889e-02 -1.000000e+00
      endloop
   endfacet
   facet normal 0.000000e+00 0.000000e+00 -1.000000e+00
      outer loop
         vertex 1.693934e-01 -1.060660e-02 -1.000000e+00
         vertex 1.685093e-01 -9.641814e-03 -1.000000e+00
         vertex 1.800000e-01 1.500000e-02 -1.000000e+00
      endloop
   endfacet
   facet normal 0.000000e+00 0.000000e+00 -1.000000e+00
      outer loop
         vertex 1.800000e-01 1.500000e-02 -1.000000e+00
         vertex 1.685093e-01 -9.641814e-03 -1.000000e+00
         vertex 1.677127e-01 -8.603646e-03 -1.000000e+00
      endloop
   endfacet
   facet normal 0.000000e+00 0.000000e+00 -1.000000e+00
      outer loop
         vertex 1.800000e-01 1.500000e-02 -1.000000e+00
         vertex 1.677127e-01 -8.603646e-03 -1.000000e+00
         vertex 1.670096e-01 -7.500000e-03 -1.000000e+00
      endloop
   endfacet
   facet normal 0.000000e+00 0.000000e+00 -1.000000e+00
      outer loop
         vertex 1.518860e+01 1.228728e-02 -1.000000e+00
         vertex 1.518131e+01 1.494292e-02 -1.000000e+00
         vertex 1.518260e+01 1.477212e-02 -1.000000e+00
      endloop
   endfacet
   facet normal -0.000000e+00 -0.000000e+00 -1.000000e+00
      outer loop
         vertex 1.518131e+01 1.494292e-02 -1.000000e+00
         vertex 1.518860e+01 1.228728e-02 -1.000000e+00
         vertex 1.518000e+01 1.500000e-02 -1.000000e+00
      endloop
   endfacet
   facet normal 0.000000e+00 0.000000e+00 -1.000000e+00
      outer loop
         vertex 1.518000e+01 1.500000e-02 -1.000000e+00
         vertex 1.518860e+01 1.228728e-02 -1.000000e+00
         vertex 1.518964e+01 1.149067e-02 -1.000000e+00
      endloop
   endfacet
   facet normal 0.000000e+00 0.000000e+00 -1.000000e+00
      outer loop
         vertex 1.518000e+01 1.500000e-02 -1.000000e+00
         vertex 1.518964e+01 1.149067e-02 -1.000000e+00
         vertex 1.519061e+01 1.060660e-02 -1.000000e+00
      endloop
   endfacet
   facet normal -0.000000e+00 -0.000000e+00 -1.000000e+00
      outer loop
         vertex 1.519149e+01 9.641814e-03 -1.000000e+00
         vertex 1.519229e+01 8.603646e-03 -1.000000e+00
         vertex 1.518000e+01 1.500000e-02 -1.000000e+00
      endloop
   endfacet
   facet normal 0.000000e+00 0.000000e+00 -1.000000e+00
      outer loop
         vertex 1.518000e+01 1.500000e-02 -1.000000e+00
         vertex 1.519229e+01 8.603646e-03 -1.000000e+00
         vertex 1.519299e+01 7.500000e-03 -1.000000e+00
      endloop
   endfacet
   facet normal 0.000000e+00 0.000000e+00 -1.000000e+00
      outer loop
         vertex 1.518000e+01 1.500000e-02 -1.000000e+00
         vertex 1.519299e+01 7.500000e-03 -1.000000e+00
         vertex 1.519359e+01 6.339274e-03 -1.000000e+00
      endloop
   endfacet
   facet normal 0.000000e+00 0.000000e+00 -1.000000e+00
      outer loop
         vertex 1.761177e-01 -1.448889e-02 -1.000000e+00
         vertex 1.748697e-01 -1.409539e-02 -1.000000e+00
         vertex 1.800000e-01 1.500000e-02 -1.000000e+00
      endloop
   endfacet
   facet normal 0.000000e+00 0.000000e+00 -1.000000e+00
      outer loop
         vertex 1.800000e-01 1.500000e-02 -1.000000e+00
         vertex 1.748697e-01 -1.409539e-02 -1.000000e+00
         vertex 1.736607e-01 -1.359462e-02 -1.000000e+00
      endloop
   endfacet
   facet normal 0.000000e+00 0.000000e+00 -1.000000e+00
      outer loop
         vertex 1.800000e-01 1.500000e-02 -1.000000e+00
         vertex 1.736607e-01 -1.359462e-02 -1.000000e+00
         vertex 1.725000e-01 -1.299038e-02 -1.000000e+00
      endloop
   endfacet
   facet normal 0.000000e+00 0.000000e+00 -1.000000e+00
      outer loop
         vertex 1.725000e-01 -1.299038e-02 -1.000000e+00
         vertex 1.713964e-01 -1.228728e-02 -1.000000e+00
         vertex 1.800000e-01 1.500000e-02 -1.000000e+00
      endloop
   endfacet
   facet normal 0.000000e+00 0.000000e+00 -1.000000e+00
      outer loop
         vertex 1.800000e-01 1.500000e-02 -1.000000e+00
         vertex 1.713964e-01 -1.228728e-02 -1.000000e+00
         vertex 1.703582e-01 -1.149067e-02 -1.000000e+00
      endloop
   endfacet
   facet normal 0.000000e+00 0.000000e+00 -1.000000e+00
      outer loop
         vertex 1.800000e-01 1.500000e-02 -1.000000e+00
         vertex 1.703582e-01 -1.149067e-02 -1.000000e+00
         vertex 1.693934e-01 -1.060660e-02 -1.000000e+00
      endloop
   endfacet
   facet normal 0.000000e+00 -0.000000e+00 -1.000000e+00
      outer loop
         vertex 1.703582e-01 1.149067e-02 -1.000000e+00
         vertex 1.748697e-01 1.409539e-02 -1.000000e+00
         vertex 1.693934e-01 1.060660e-02 -1.000000e+00
      endloop
   endfacet
   facet normal 0.000000e+00 0.000000e+00 -1.000000e+00
      outer loop
         vertex 1.693934e-01 1.060660e-02 -1.000000e+00
         vertex 1.748697e-01 1.409539e-02 -1.000000e+00
         vertex 1.761177e-01 1.448889e-02 -1.000000e+00
      endloop
   endfacet
   facet normal 0.000000e+00 0.000000e+00 -1.000000e+00
      outer loop
         vertex 1.693934e-01 1.060660e-02 -1.000000e+00
         vertex 1.761177e-01 1.448889e-02 -1.000000e+00
         vertex 1.773953e-01 1.477212e-02 -1.000000e+00
      endloop
   endfacet
   facet normal 0.000000e+00 0.000000e+00 -1.000000e+00
      outer loop
         vertex 1.703582e-01 1.149067e-02 -1.000000e+00
         vertex 1.713964e-01 1.228728e-02 -1.000000e+00
         vertex 1.748697e-01 1.409539e-02 -1.000000e+00
      endloop
   endfacet
   facet normal 0.000000e+00 0.000000e+00 -1.000000e+00
      outer loop
         vertex 1.748697e-01 1.409539e-02 -1.000000e+00
         vertex 1.713964e-01 1.228728e-02 -1.000000e+00
         vertex 1.725000e-01 1.299038e-02 -1.000000e+00
      endloop
   endfacet
   facet normal 0.000000e+00 0.000000e+00 -1.000000e+00
      outer loop
         vertex 1.748697e-01 1.409539e-02 -1.000000e+00
         vertex 1.725000e-01 1.299038e-02 -1.000000e+00
         vertex 1.736607e-01 1.359462e-02 -1.000000e+00
      endloop
   endfacet
   facet normal 0.000000e+00 0.000000e+00 -1.000000e+00
      outer loop
         vertex 1.518260e+01 1.477212e-02 -1.000000e+00
         vertex 1.518388e+01 1.448889e-02 -1.000000e+00
         vertex 1.518513e+01 1.409539e-02 -1.000000e+00
      endloop
   endfacet
   facet normal -0.000000e+00 0.000000e+00 -1.000000e+00
      outer loop
         vertex 1.518860e+01 -1.228728e-02 -1.000000e+00
         vertex 1.518750e+01 -1.299038e-02 -1.000000e+00
         vertex 1.518000e+01 1.500000e-02 -1.000000e+00
      endloop
   endfacet
   facet normal 0.000000e+00 0.000000e+00 -1.000000e+00
      outer loop
         vertex 1.518000e+01 1.500000e-02 -1.000000e+00
         vertex 1.518750e+01 -1.299038e-02 -1.000000e+00
         vertex 1.518634e+01 -1.359462e-02 -1.000000e+00
      endloop
   endfacet
   facet normal 0.000000e+00 0.000000e+00 -1.000000e+00
      outer loop
         vertex 1.518000e+01 1.500000e-02 -1.000000e+00
         vertex 1.518634e+01 -1.359462e-02 -1.000000e+00
         vertex 1.518513e+01 -1.409539e-02 -1.000000e+00
      endloop
   endfacet
   facet normal -0.000000e+00 0.000000e+00 -1.000000e+00
      outer loop
         vertex 1.518513e+01 -1.409539e-02 -1.000000e+00
         vertex 1.518388e+01 -1.448889e-02 -1.000000e+00
         vertex 1.518000e+01 1.500000e-02 -1.000000e+00
      endloop
   endfacet
   facet normal 0.000000e+00 0.000000e+00 -1.000000e+00
      outer loop
         vertex 1.518000e+01 1.500000e-02 -1.000000e+00
         vertex 1.518388e+01 -1.448889e-02 -1.000000e+00
         vertex 1.518260e+01 -1.477212e-02 -1.000000e+00
      endloop
   endfacet
   facet normal 0.000000e+00 0.000000e+00 -1.000000e+00
      outer loop
         vertex 1.518000e+01 1.500000e-02 -1.000000e+00
         vertex 1.518260e+01 -1.477212e-02 -1.000000e+00
         vertex 1.518131e+01 -1.494292e-02 -1.000000e+00
      endloop
   endfacet
   facet normal -0.000000e+00 -0.000000e+00 -1.000000e+00
      outer loop
         vertex 1.518513e+01 1.409539e-02 -1.000000e+00
         vertex 1.518634e+01 1.359462e-02 -1.000000e+00
         vertex 1.518260e+01 1.477212e-02 -1.000000e+00
      endloop
   endfacet
   facet normal 0.000000e+00 0.000000e+00 -1.000000e+00
      outer loop
         vertex 1.518260e+01 1.477212e-02 -1.000000e+00
         vertex 1.518634e+01 1.359462e-02 -1.000000e+00
         vertex 1.518750e+01 1.299038e-02 -1.000000e+00
      endloop
   endfacet
   facet normal 0.000000e+00 0.000000e+00 -1.000000e+00
      outer loop
         vertex 1.518260e+01 1.477212e-02 -1.000000e+00
         vertex 1.518750e+01 1.299038e-02 -1.000000e+00
         vertex 1.518860e+01 1.228728e-02 -1.000000e+00
      endloop
   endfacet
   facet normal -0.000000e+00 0.000000e+00 1.000000e+00
      outer loop
         vertex 1.786927e-01 -1.494292e-02 1.000000e+00
         vertex 1.800000e-01 -1.500000e-02 1.000000e+00
         vertex 1.800000e-01 1.500000e-02 1.000000e+00
      endloop
   endfacet
   facet normal -0.000000e+00 0.000000e+00 1.000000e+00
      outer loop
         vertex 1.659046e-01 -5.130302e-03 1.000000e+00
         vertex 1.664054e-01 -6.339274e-03 1.000000e+00
         vertex 1.800000e-01 1.500000e-02 1.000000e+00
      endloop
   endfacet
   facet normal -0.000000e+00 0.000000e+00 1.000000e+00
      outer loop
         vertex 1.664054e-01 6.339274e-03 1.000000e+00
         vertex 1.659046e-01 5.130302e-03 1.000000e+00
         vertex 1.800000e-01 1.500000e-02 1.000000e+00
      endloop
   endfacet
   facet normal 0.000000e+00 0.000000e+00 1.000000e+00
      outer loop
         vertex 1.800000e-01 1.500000e-02 1.000000e+00
         vertex 1.659046e-01 5.130302e-03 1.000000e+00
         vertex 1.655111e-01 3.882286e-03 1.000000e+00
      endloop
   endfacet
   facet normal 0.000000e+00 0.000000e+00 1.000000e+00
      outer loop
         vertex 1.800000e-01 1.500000e-02 1.000000e+00
         vertex 1.655111e-01 3.882286e-03 1.000000e+00
         vertex 1.652279e-01 2.604723e-03 1.000000e+00
      endloop
   endfacet
   facet normal -0.000000e+00 0.000000e+00 1.000000e+00
      outer loop
         vertex 1.800000e-01 1.500000e-02 1.000000e+00
         vertex 1.800000e-01 -1.500000e-02 1.000000e+00
         vertex 1.518000e+01 1.500000e-02 1.000000e+00
      endloop
   endfacet
   facet normal 0.000000e+00 0.000000e+00 1.000000e+00
      outer loop
         vertex 1.518000e+01 1.500000e-02 1.000000e+00
         vertex 1.800000e-01 -1.500000e-02 1.000000e+00
         vertex 1.518000e+01 -1.500000e-02 1.000000e+00
      endloop
   endfacet
   facet normal 0.000000e+00 0.000000e+00 1.000000e+00
      outer loop
         vertex 1.518000e+01 1.500000e-02 1.000000e+00
         vertex 1.518000e+01 -1.500000e-02 1.000000e+00
         vertex 1.518131e+01 -1.494292e-02 1.000000e+00
      endloop
   endfacet
   facet normal 0.000000e+00 0.000000e+00 1.000000e+00
      outer loop
         vertex 1.519449e+01 -3.882286e-03 1.000000e+00
         vertex 1.518000e+01 1.500000e-02 1.000000e+00
         vertex 1.519410e+01 -5.130302e-03 1.000000e+00
      endloop
   endfacet
   facet normal 0.000000e+00 0.000000e+00 1.000000e+00
      outer loop
         vertex 1.519410e+01 -5.130302e-03 1.000000e+00
         vertex 1.518000e+01 1.500000e-02 1.000000e+00
         vertex 1.519359e+01 -6.339274e-03 1.000000e+00
      endloop
   endfacet
   facet normal -0.000000e+00 0.000000e+00 1.000000e+00
      outer loop
         vertex 1.652279e-01 2.604723e-03 1.000000e+00
         vertex 1.650571e-01 1.307336e-03 1.000000e+00
         vertex 1.800000e-01 1.500000e-02 1.000000e+00
      endloop
   endfacet
   facet normal 0.000000e+00 0.000000e+00 1.000000e+00
      outer loop
         vertex 1.800000e-01 1.500000e-02 1.000000e+00
         vertex 1.650571e-01 1.307336e-03 1.000000e+00
         vertex 1.650000e-01 8.498308e-18 1.000000e+00
      endloop
   endfacet
   facet normal 0.000000e+00 0.000000e+00 1.000000e+00
      outer loop
         vertex 1.800000e-01 1.500000e-02 1.000000e+00
         vertex 1.650000e-01 8.498308e-18 1.000000e+00
         vertex 1.650571e-01 -1.307336e-03 1.000000e+00
      endloop
   endfacet
   facet normal -0.000000e+00 0.000000e+00 1.000000e+00
      outer loop
         vertex 1.650571e-01 -1.307336e-03 1.000000e+00
         vertex 1.652279e-01 -2.604723e-03 1.000000e+00
         vertex 1.800000e-01 1.500000e-02 1.000000e+00
      endloop
   endfacet
   facet normal 0.000000e+00 0.000000e+00 1.000000e+00
      outer loop
         vertex 1.800000e-01 1.500000e-02 1.000000e+00
         vertex 1.652279e-01 -2.604723e-03 1.000000e+00
         vertex 1.655111e-01 -3.882286e-03 1.000000e+00
      endloop
   endfacet
   facet normal 0.000000e+00 0.000000e+00 1.000000e+00
      outer loop
         vertex 1.800000e-01 1.500000e-02 1.000000e+00
         vertex 1.655111e-01 -3.882286e-03 1.000000e+00
         vertex 1.659046e-01 -5.130302e-03 1.000000e+00
      endloop
   endfacet
   facet normal 0.000000e+00 -0.000000e+00 1.000000e+00
      outer loop
         vertex 1.518860e+01 -1.228728e-02 1.000000e+00
         vertex 1.518964e+01 -1.149067e-02 1.000000e+00
         vertex 1.518000e+01 1.500000e-02 1.000000e+00
      endloop
   endfacet
   facet normal 0.000000e+00 0.000000e+00 1.000000e+00
      outer loop
         vertex 1.518000e+01 1.500000e-02 1.000000e+00
         vertex 1.518964e+01 -1.149067e-02 1.000000e+00
         vertex 1.519061e+01 -1.060660e-02 1.000000e+00
      endloop
   endfacet
   facet normal 0.000000e+00 0.000000e+00 1.000000e+00
      outer loop
         vertex 1.518000e+01 1.500000e-02 1.000000e+00
         vertex 1.519061e+01 -1.060660e-02 1.000000e+00
         vertex 1.519149e+01 -9.641814e-03 1.000000e+00
      endloop
   endfacet
   facet normal 0.000000e+00 -0.000000e+00 1.000000e+00
      outer loop
         vertex 1.519149e+01 -9.641814e-03 1.000000e+00
         vertex 1.519229e+01 -8.603646e-03 1.000000e+00
         vertex 1.518000e+01 1.500000e-02 1.000000e+00
      endloop
   endfacet
   facet normal 0.000000e+00 0.000000e+00 1.000000e+00
      outer loop
         vertex 1.518000e+01 1.500000e-02 1.000000e+00
         vertex 1.519229e+01 -8.603646e-03 1.000000e+00
         vertex 1.519299e+01 -7.500000e-03 1.000000e+00
      endloop
   endfacet
   facet normal 0.000000e+00 0.000000e+00 1.000000e+00
      outer loop
         vertex 1.518000e+01 1.500000e-02 1.000000e+00
         vertex 1.519299e+01 -7.500000e-03 1.000000e+00
         vertex 1.519359e+01 -6.339274e-03 1.000000e+00
      endloop
   endfacet
   facet normal 0.000000e+00 -0.000000e+00 1.000000e+00
      outer loop
         vertex 1.519449e+01 -3.882286e-03 1.000000e+00
         vertex 1.519477e+01 -2.604723e-03 1.000000e+00
         vertex 1.518000e+01 1.500000e-02 1.000000e+00
      endloop
   endfacet
   facet normal 0.000000e+00 0.000000e+00 1.000000e+00
      outer loop
         vertex 1.518000e+01 1.500000e-02 1.000000e+00
         vertex 1.519477e+01 -2.604723e-03 1.000000e+00
         vertex 1.519494e+01 -1.307336e-03 1.000000e+00
      endloop
   endfacet
   facet normal 0.000000e+00 0.000000e+00 1.000000e+00
      outer loop
         vertex 1.518000e+01 1.500000e-02 1.000000e+00
         vertex 1.519494e+01 -1.307336e-03 1.000000e+00
         vertex 1.519500e+01 -3.673940e-18 1.000000e+00
      endloop
   endfacet
   facet normal 0.000000e+00 0.000000e+00 1.000000e+00
      outer loop
         vertex 1.519500e+01 -3.673940e-18 1.000000e+00
         vertex 1.519494e+01 1.307336e-03 1.000000e+00
         vertex 1.518000e+01 1.500000e-02 1.000000e+00
      endloop
   endfacet
   facet normal 0.000000e+00 0.000000e+00 1.000000e+00
      outer loop
         vertex 1.518000e+01 1.500000e-02 1.000000e+00
         vertex 1.519494e+01 1.307336e-03 1.000000e+00
         vertex 1.519477e+01 2.604723e-03 1.000000e+00
      endloop
   endfacet
   facet normal 0.000000e+00 0.000000e+00 1.000000e+00
      outer loop
         vertex 1.518000e+01 1.500000e-02 1.000000e+00
         vertex 1.519477e+01 2.604723e-03 1.000000e+00
         vertex 1.519449e+01 3.882286e-03 1.000000e+00
      endloop
   endfacet
   facet normal 0.000000e+00 0.000000e+00 1.000000e+00
      outer loop
         vertex 1.519449e+01 3.882286e-03 1.000000e+00
         vertex 1.519410e+01 5.130302e-03 1.000000e+00
         vertex 1.518000e+01 1.500000e-02 1.000000e+00
      endloop
   endfacet
   facet normal 0.000000e+00 0.000000e+00 1.000000e+00
      outer loop
         vertex 1.518000e+01 1.500000e-02 1.000000e+00
         vertex 1.519410e+01 5.130302e-03 1.000000e+00
         vertex 1.519359e+01 6.339274e-03 1.000000e+00
      endloop
   endfacet
   facet normal 0.000000e+00 0.000000e+00 1.000000e+00
      outer loop
         vertex 1.518000e+01 1.500000e-02 1.000000e+00
         vertex 1.519359e+01 6.339274e-03 1.000000e+00
         vertex 1.519299e+01 7.500000e-03 1.000000e+00
      endloop
   endfacet
   facet normal 0.000000e+00 0.000000e+00 1.000000e+00
      outer loop
         vertex 1.519299e+01 7.500000e-03 1.000000e+00
         vertex 1.519229e+01 8.603646e-03 1.000000e+00
         vertex 1.518000e+01 1.500000e-02 1.000000e+00
      endloop
   endfacet
   facet normal 0.000000e+00 0.000000e+00 1.000000e+00
      outer loop
         vertex 1.518000e+01 1.500000e-02 1.000000e+00
         vertex 1.519229e+01 8.603646e-03 1.000000e+00
         vertex 1.519149e+01 9.641814e-03 1.000000e+00
      endloop
   endfacet
   facet normal 0.000000e+00 0.000000e+00 1.000000e+00
      outer loop
         vertex 1.518000e+01 1.500000e-02 1.000000e+00
         vertex 1.519149e+01 9.641814e-03 1.000000e+00
         vertex 1.519061e+01 1.060660e-02 1.000000e+00
      endloop
   endfacet
   facet normal 0.000000e+00 0.000000e+00 1.000000e+00
      outer loop
         vertex 1.519061e+01 1.060660e-02 1.000000e+00
         vertex 1.518964e+01 1.149067e-02 1.000000e+00
         vertex 1.518000e+01 1.500000e-02 1.000000e+00
      endloop
   endfacet
   facet normal 0.000000e+00 0.000000e+00 1.000000e+00
      outer loop
         vertex 1.518000e+01 1.500000e-02 1.000000e+00
         vertex 1.518964e+01 1.149067e-02 1.000000e+00
         vertex 1.518860e+01 1.228728e-02 1.000000e+00
      endloop
   endfacet
   facet normal 0.000000e+00 0.000000e+00 1.000000e+00
      outer loop
         vertex 1.518000e+01 1.500000e-02 1.000000e+00
         vertex 1.518860e+01 1.228728e-02 1.000000e+00
         vertex 1.518131e+01 1.494292e-02 1.000000e+00
      endloop
   endfacet
   facet normal 0.000000e+00 0.000000e+00 1.000000e+00
      outer loop
         vertex 1.518513e+01 1.409539e-02 1.000000e+00
         vertex 1.518388e+01 1.448889e-02 1.000000e+00
         vertex 1.518260e+01 1.477212e-02 1.000000e+00
      endloop
   endfacet
   facet normal 0.000000e+00 0.000000e+00 1.000000e+00
      outer loop
         vertex 1.677127e-01 8.603646e-03 1.000000e+00
         vertex 1.773953e-01 1.477212e-02 1.000000e+00
         vertex 1.685093e-01 9.641814e-03 1.000000e+00
      endloop
   endfacet
   facet normal 0.000000e+00 0.000000e+00 1.000000e+00
      outer loop
         vertex 1.685093e-01 9.641814e-03 1.000000e+00
         vertex 1.773953e-01 1.477212e-02 1.000000e+00
         vertex 1.693934e-01 1.060660e-02 1.000000e+00
      endloop
   endfacet
   facet normal 0.000000e+00 0.000000e+00 1.000000e+00
      outer loop
         vertex 1.800000e-01 1.500000e-02 1.000000e+00
         vertex 1.786927e-01 1.494292e-02 1.000000e+00
         vertex 1.664054e-01 6.339274e-03 1.000000e+00
      endloop
   endfacet
   facet normal 0.000000e+00 0.000000e+00 1.000000e+00
      outer loop
         vertex 1.664054e-01 6.339274e-03 1.000000e+00
         vertex 1.786927e-01 1.494292e-02 1.000000e+00
         vertex 1.773953e-01 1.477212e-02 1.000000e+00
      endloop
   endfacet
   facet normal 0.000000e+00 0.000000e+00 1.000000e+00
      outer loop
         vertex 1.664054e-01 6.339274e-03 1.000000e+00
         vertex 1.773953e-01 1.477212e-02 1.000000e+00
         vertex 1.670096e-01 7.500000e-03 1.000000e+00
      endloop
   endfacet
   facet normal 0.000000e+00 0.000000e+00 1.000000e+00
      outer loop
         vertex 1.670096e-01 7.500000e-03 1.000000e+00
         vertex 1.773953e-01 1.477212e-02 1.000000e+00
         vertex 1.677127e-01 8.603646e-03 1.000000e+00
      endloop
   endfacet
   facet normal -0.000000e+00 0.000000e+00 1.000000e+00
      outer loop
         vertex 1.664054e-01 -6.339274e-03 1.000000e+00
         vertex 1.670096e-01 -7.500000e-03 1.000000e+00
         vertex 1.800000e-01 1.500000e-02 1.000000e+00
      endloop
   endfacet
   facet normal 0.000000e+00 0.000000e+00 1.000000e+00
      outer loop
         vertex 1.800000e-01 1.500000e-02 1.000000e+00
         vertex 1.670096e-01 -7.500000e-03 1.000000e+00
         vertex 1.677127e-01 -8.603646e-03 1.000000e+00
      endloop
   endfacet
   facet normal 0.000000e+00 0.000000e+00 1.000000e+00
      outer loop
         vertex 1.800000e-01 1.500000e-02 1.000000e+00
         vertex 1.677127e-01 -8.603646e-03 1.000000e+00
         vertex 1.685093e-01 -9.641814e-03 1.000000e+00
      endloop
   endfacet
   facet normal -0.000000e+00 0.000000e+00 1.000000e+00
      outer loop
         vertex 1.685093e-01 -9.641814e-03 1.000000e+00
         vertex 1.693934e-01 -1.060660e-02 1.000000e+00
         vertex 1.800000e-01 1.500000e-02 1.000000e+00
      endloop
   endfacet
   facet normal 0.000000e+00 0.000000e+00 1.000000e+00
      outer loop
         vertex 1.800000e-01 1.500000e-02 1.000000e+00
         vertex 1.693934e-01 -1.060660e-02 1.000000e+00
         vertex 1.703582e-01 -1.149067e-02 1.000000e+00
      endloop
   endfacet
   facet normal 0.000000e+00 0.000000e+00 1.000000e+00
      outer loop
         vertex 1.800000e-01 1.500000e-02 1.000000e+00
         vertex 1.703582e-01 -1.149067e-02 1.000000e+00
         vertex 1.713964e-01 -1.228728e-02 1.000000e+00
      endloop
   endfacet
   facet normal -0.000000e+00 0.000000e+00 1.000000e+00
      outer loop
         vertex 1.725000e-01 1.299038e-02 1.000000e+00
         vertex 1.713964e-01 1.228728e-02 1.000000e+00
         vertex 1.736607e-01 1.359462e-02 1.000000e+00
      endloop
   endfacet
   facet normal -0.000000e+00 0.000000e+00 1.000000e+00
      outer loop
         vertex 1.736607e-01 1.359462e-02 1.000000e+00
         vertex 1.713964e-01 1.228728e-02 1.000000e+00
         vertex 1.748697e-01 1.409539e-02 1.000000e+00
      endloop
   endfacet
   facet normal 0.000000e+00 0.000000e+00 1.000000e+00
      outer loop
         vertex 1.773953e-01 1.477212e-02 1.000000e+00
         vertex 1.761177e-01 1.448889e-02 1.000000e+00
         vertex 1.693934e-01 1.060660e-02 1.000000e+00
      endloop
   endfacet
   facet normal 0.000000e+00 0.000000e+00 1.000000e+00
      outer loop
         vertex 1.693934e-01 1.060660e-02 1.000000e+00
         vertex 1.761177e-01 1.448889e-02 1.000000e+00
         vertex 1.748697e-01 1.409539e-02 1.000000e+00
      endloop
   endfacet
   facet normal 0.000000e+00 0.000000e+00 1.000000e+00
      outer loop
         vertex 1.693934e-01 1.060660e-02 1.000000e+00
         vertex 1.748697e-01 1.409539e-02 1.000000e+00
         vertex 1.703582e-01 1.149067e-02 1.000000e+00
      endloop
   endfacet
   facet normal 0.000000e+00 0.000000e+00 1.000000e+00
      outer loop
         vertex 1.703582e-01 1.149067e-02 1.000000e+00
         vertex 1.748697e-01 1.409539e-02 1.000000e+00
         vertex 1.713964e-01 1.228728e-02 1.000000e+00
      endloop
   endfacet
   facet normal -0.000000e+00 0.000000e+00 1.000000e+00
      outer loop
         vertex 1.713964e-01 -1.228728e-02 1.000000e+00
         vertex 1.725000e-01 -1.299038e-02 1.000000e+00
         vertex 1.800000e-01 1.500000e-02 1.000000e+00
      endloop
   endfacet
   facet normal 0.000000e+00 0.000000e+00 1.000000e+00
      outer loop
         vertex 1.800000e-01 1.500000e-02 1.000000e+00
         vertex 1.725000e-01 -1.299038e-02 1.000000e+00
         vertex 1.736607e-01 -1.359462e-02 1.000000e+00
      endloop
   endfacet
   facet normal 0.000000e+00 0.000000e+00 1.000000e+00
      outer loop
         vertex 1.800000e-01 1.500000e-02 1.000000e+00
         vertex 1.736607e-01 -1.359462e-02 1.000000e+00
         vertex 1.748697e-01 -1.409539e-02 1.000000e+00
      endloop
   endfacet
   facet normal -0.000000e+00 0.000000e+00 1.000000e+00
      outer loop
         vertex 1.748697e-01 -1.409539e-02 1.000000e+00
         vertex 1.761177e-01 -1.448889e-02 1.000000e+00
         vertex 1.800000e-01 1.500000e-02 1.000000e+00
      endloop
   endfacet
   facet normal 0.000000e+00 0.000000e+00 1.000000e+00
      outer loop
         vertex 1.800000e-01 1.500000e-02 1.000000e+00
         vertex 1.761177e-01 -1.448889e-02 1.000000e+00
         vertex 1.773953e-01 -1.477212e-02 1.000000e+00
      endloop
   endfacet
   facet normal 0.000000e+00 0.000000e+00 1.000000e+00
      outer loop
         vertex 1.800000e-01 1.500000e-02 1.000000e+00
         vertex 1.773953e-01 -1.477212e-02 1.000000e+00
         vertex 1.786927e-01 -1.494292e-02 1.000000e+00
      endloop
   endfacet
   facet normal 0.000000e+00 -0.000000e+00 1.000000e+00
      outer loop
         vertex 1.518131e+01 -1.494292e-02 1.000000e+00
         vertex 1.518260e+01 -1.477212e-02 1.000000e+00
         vertex 1.518000e+01 1.500000e-02 1.000000e+00
      endloop
   endfacet
   facet normal 0.000000e+00 0.000000e+00 1.000000e+00
      outer loop
         vertex 1.518000e+01 1.500000e-02 1.000000e+00
         vertex 1.518260e+01 -1.477212e-02 1.000000e+00
         vertex 1.518388e+01 -1.448889e-02 1.000000e+00
      endloop
   endfacet
   facet normal 0.000000e+00 0.000000e+00 1.000000e+00
      outer loop
         vertex 1.518000e+01 1.500000e-02 1.000000e+00
         vertex 1.518388e+01 -1.448889e-02 1.000000e+00
         vertex 1.518513e+01 -1.409539e-02 1.000000e+00
      endloop
   endfacet
   facet normal 0.000000e+00 -0.000000e+00 1.000000e+00
      outer loop
         vertex 1.518513e+01 -1.409539e-02 1.000000e+00
         vertex 1.518634e+01 -1.359462e-02 1.000000e+00
         vertex 1.518000e+01 1.500000e-02 1.000000e+00
      endloop
   endfacet
   facet normal 0.000000e+00 0.000000e+00 1.000000e+00
      outer loop
         vertex 1.518000e+01 1.500000e-02 1.000000e+00
         vertex 1.518634e+01 -1.359462e-02 1.000000e+00
         vertex 1.518750e+01 -1.299038e-02 1.000000e+00
      endloop
   endfacet
   facet normal 0.000000e+00 0.000000e+00 1.000000e+00
      outer loop
         vertex 1.518000e+01 1.500000e-02 1.000000e+00
         vertex 1.518750e+01 -1.299038e-02 1.000000e+00
         vertex 1.518860e+01 -1.228728e-02 1.000000e+00
      endloop
   endfacet
   facet normal 0.000000e+00 0.000000e+00 1.000000e+00
      outer loop
         vertex 1.518513e+01 1.409539e-02 1.000000e+00
         vertex 1.518260e+01 1.477212e-02 1.000000e+00
         vertex 1.518634e+01 1.359462e-02 1.000000e+00
      endloop
   endfacet
   facet normal 0.000000e+00 0.000000e+00 1.000000e+00
      outer loop
         vertex 1.518131e+01 1.494292e-02 1.000000e+00
         vertex 1.518860e+01 1.228728e-02 1.000000e+00
         vertex 1.518260e+01 1.477212e-02 1.000000e+00
      endloop
   endfacet
   facet normal 0.000000e+00 0.000000e+00 1.000000e+00
      outer loop
         vertex 1.518260e+01 1.477212e-02 1.000000e+00
         vertex 1.518860e+01 1.228728e-02 1.000000e+00
         vertex 1.518750e+01 1.299038e-02 1.000000e+00
      endloop
   endfacet
   facet normal 0.000000e+00 0.000000e+00 1.000000e+00
      outer loop
         vertex 1.518260e+01 1.477212e-02 1.000000e+00
         vertex 1.518750e+01 1.299038e-02 1.000000e+00
         vertex 1.518634e+01 1.359462e-02 1.000000e+00
      endloop
   endfacet
endsolid