solid diffuser_wall
 facet normal -0.422619 -0.906308 -0
  outer loop
   vertex -0.0521713 -0.0422407 1
   vertex -0.0521713 -0.0422407 -1
   vertex 0.446298 -0.274681 1
  endloop
 endfacet
 facet normal -0.422619 -0.906308 -0
  outer loop
   vertex 0.446298 -0.274681 1
   vertex -0.0521713 -0.0422407 -1
   vertex 0.446298 -0.274681 -1
  endloop
 endfacet
 facet normal -0.906308 0.422618 0
  outer loop
   vertex -0.0475225 -0.0322713 1
   vertex -0.0475225 -0.0322713 -1
   vertex -0.0521713 -0.0422407 1
  endloop
 endfacet
 facet normal -0.906308 0.422618 0
  outer loop
   vertex -0.0521713 -0.0422407 1
   vertex -0.0475225 -0.0322713 -1
   vertex -0.0521713 -0.0422407 -1
  endloop
 endfacet
 facet normal 0.422618 0.906308 0
  outer loop
   vertex 0.450947 -0.264711 1
   vertex 0.450947 -0.264711 -1
   vertex -0.0475225 -0.0322713 1
  endloop
 endfacet
 facet normal 0.422618 0.906308 0
  outer loop
   vertex -0.0475225 -0.0322713 1
   vertex 0.450947 -0.264711 -1
   vertex -0.0475225 -0.0322713 -1
  endloop
 endfacet
 facet normal 0.906312 -0.42261 0
  outer loop
   vertex 0.446298 -0.274681 1
   vertex 0.446298 -0.274681 -1
   vertex 0.450947 -0.264711 1
  endloop
 endfacet
 facet normal 0.906312 -0.42261 0
  outer loop
   vertex 0.450947 -0.264711 1
   vertex 0.446298 -0.274681 -1
   vertex 0.450947 -0.264711 -1
  endloop
 endfacet
 facet normal 0 -0 -1
  outer loop
   vertex -0.0475225 -0.0322713 -1
   vertex 0.450947 -0.264711 -1
   vertex -0.0521713 -0.0422407 -1
  endloop
 endfacet
 facet normal 0 0 -1
  outer loop
   vertex -0.0521713 -0.0422407 -1
   vertex 0.450947 -0.264711 -1
   vertex 0.446298 -0.274681 -1
  endloop
 endfacet
 facet normal 0 0 1
  outer loop
   vertex 0.450947 -0.264711 1
   vertex -0.0475225 -0.0322713 1
   vertex 0.446298 -0.274681 1
  endloop
 endfacet
 facet normal 0 0 1
  outer loop
   vertex 0.446298 -0.274681 1
   vertex -0.0475225 -0.0322713 1
   vertex -0.0521713 -0.0422407 1
  endloop
 endfacet
endsolid diffuser_wall
