solid tube_wall
 facet normal 0 -1 0
  outer loop
   vertex 0.24 0.05 -1
   vertex 0.24 0.05 1
   vertex -0.04 0.05 -1
  endloop
 endfacet
 facet normal 0 -1 0
  outer loop
   vertex -0.04 0.05 -1
   vertex 0.24 0.05 1
   vertex -0.04 0.05 1
  endloop
 endfacet
 facet normal 1 0 -0
  outer loop
   vertex 0.24 0.07 -1
   vertex 0.24 0.07 1
   vertex 0.24 0.05 -1
  endloop
 endfacet
 facet normal 1 0 0
  outer loop
   vertex 0.24 0.05 -1
   vertex 0.24 0.07 1
   vertex 0.24 0.05 1
  endloop
 endfacet
 facet normal 0 1 0
  outer loop
   vertex -0.04 0.07 -1
   vertex -0.04 0.07 1
   vertex 0.24 0.07 -1
  endloop
 endfacet
 facet normal 0 1 -0
  outer loop
   vertex 0.24 0.07 -1
   vertex -0.04 0.07 1
   vertex 0.24 0.07 1
  endloop
 endfacet
 facet normal -1 0 0
  outer loop
   vertex -0.04 0.05 -1
   vertex -0.04 0.05 1
   vertex -0.04 0.07 -1
  endloop
 endfacet
 facet normal -1 0 0
  outer loop
   vertex -0.04 0.07 -1
   vertex -0.04 0.05 1
   vertex -0.04 0.07 1
  endloop
 endfacet
 facet normal 0 0 1
  outer loop
   vertex 0.24 0.07 1
   vertex -0.04 0.07 1
   vertex 0.24 0.05 1
  endloop
 endfacet
 facet normal 0 0 1
  outer loop
   vertex 0.24 0.05 1
   vertex -0.04 0.07 1
   vertex -0.04 0.05 1
  endloop
 endfacet
 facet normal 0 0 -1
  outer loop
   vertex -0.04 0.07 -1
   vertex 0.24 0.07 -1
   vertex -0.04 0.05 -1
  endloop
 endfacet
 facet normal 0 0 -1
  outer loop
   vertex -0.04 0.05 -1
   vertex 0.24 0.07 -1
   vertex 0.24 0.05 -1
  endloop
 endfacet
 facet normal 0 -1 0
  outer loop
   vertex 0.24 -0.07 -1
   vertex 0.24 -0.07 1
   vertex -0.04 -0.07 -1
  endloop
 endfacet
 facet normal 0 -1 0
  outer loop
   vertex -0.04 -0.07 -1
   vertex 0.24 -0.07 1
   vertex -0.04 -0.07 1
  endloop
 endfacet
 facet normal 1 0 -0
  outer loop
   vertex 0.24 -0.05 -1
   vertex 0.24 -0.05 1
   vertex 0.24 -0.07 -1
  endloop
 endfacet
 facet normal 1 0 0
  outer loop
   vertex 0.24 -0.07 -1
   vertex 0.24 -0.05 1
   vertex 0.24 -0.07 1
  endloop
 endfacet
 facet normal 0 1 0
  outer loop
   vertex -0.04 -0.05 -1
   vertex -0.04 -0.05 1
   vertex 0.24 -0.05 -1
  endloop
 endfacet
 facet normal 0 1 -0
  outer loop
   vertex 0.24 -0.05 -1
   vertex -0.04 -0.05 1
   vertex 0.24 -0.05 1
  endloop
 endfacet
 facet normal -1 0 0
  outer loop
   vertex -0.04 -0.07 -1
   vertex -0.04 -0.07 1
   vertex -0.04 -0.05 -1
  endloop
 endfacet
 facet normal -1 0 0
  outer loop
   vertex -0.04 -0.05 -1
   vertex -0.04 -0.07 1
   vertex -0.04 -0.05 1
  endloop
 endfacet
 facet normal 0 0 1
  outer loop
   vertex 0.24 -0.05 1
   vertex -0.04 -0.05 1
   vertex 0.24 -0.07 1
  endloop
 endfacet
 facet normal 0 0 1
  outer loop
   vertex 0.24 -0.07 1
   vertex -0.04 -0.05 1
   vertex -0.04 -0.07 1
  endloop
 endfacet
 facet normal 0 0 -1
  outer loop
   vertex -0.04 -0.05 -1
   vertex 0.24 -0.05 -1
   vertex -0.04 -0.07 -1
  endloop
 endfacet
 facet normal 0 0 -1
  outer loop
   vertex -0.04 -0.07 -1
   vertex 0.24 -0.05 -1
   vertex 0.24 -0.07 -1
  endloop
 endfacet
endsolid tube_wall
